<svg width="346" height="346" viewBox="0 0 346 346" fill="none" xmlns="http://www.w3.org/2000/svg">
<circle cx="172.863" cy="172.863" r="172.863" fill="#C3E6F9"/>
<path fill-rule="evenodd" clip-rule="evenodd" d="M145.302 117.477C145.302 114.938 143.244 112.88 140.706 112.88C138.167 112.88 136.109 114.938 136.109 117.477V125.139H136.108C122.569 125.139 111.593 136.115 111.593 149.654V210.943C111.593 224.482 122.569 235.458 136.108 235.458H209.655C223.194 235.458 234.17 224.482 234.17 210.943V149.654C234.17 137.152 224.812 126.836 212.719 125.328V117.477C212.719 114.938 210.661 112.88 208.123 112.88C205.584 112.88 203.526 114.938 203.526 117.477V125.139H145.302V117.477ZM120.786 195.62H224.977V204.813H120.786V195.62ZM189.493 158.354C191.288 160.149 191.288 163.06 189.493 164.855L171.106 183.241C169.311 185.036 166.401 185.036 164.606 183.241L155.412 174.048C153.617 172.253 153.617 169.343 155.412 167.547C157.207 165.752 160.118 165.752 161.913 167.547L167.856 173.49L182.992 158.354C184.787 156.559 187.698 156.559 189.493 158.354Z" fill="#15A0EB"/>
</svg>
