<svg width="346" height="346" viewBox="0 0 346 346" fill="none" xmlns="http://www.w3.org/2000/svg">
<circle cx="172.863" cy="172.863" r="172.863" fill="#D4D4D4"/>
<path d="M236.295 156.498L208.008 149.37V133.492C208.008 125.345 201.376 118.679 193.215 118.679H193.169H114.01C105.849 118.679 99.1711 125.298 99.1711 133.446V133.492V192.744C99.1711 199.179 103.345 204.826 109.466 206.77C111.738 220.195 124.491 229.221 137.939 226.953C148.002 225.24 155.978 217.556 158.018 207.557H188.67C191.406 220.889 204.437 229.545 217.792 226.814C227.809 224.777 235.507 216.815 237.223 206.77C243.39 204.826 247.564 199.179 247.564 192.744V170.802C247.564 163.998 242.926 158.072 236.295 156.498ZM109.049 133.492C109.002 130.807 111.182 128.585 113.918 128.539C113.964 128.539 113.964 128.539 114.01 128.539H193.169C195.858 128.492 198.084 130.668 198.13 133.399C198.13 133.446 198.13 133.446 198.13 133.492V182.884C193.308 186.541 189.969 191.772 188.717 197.697H158.064C155.328 184.365 142.298 175.709 128.896 178.44C119.853 180.292 112.619 186.958 110.069 195.799C109.42 194.92 109.095 193.855 109.095 192.744V133.492H109.049ZM133.812 217.417C127.551 217.417 121.94 213.436 119.853 207.557C118.648 204.363 118.648 200.845 119.853 197.697C122.543 190.013 130.983 185.939 138.681 188.671C142.901 190.152 146.239 193.485 147.723 197.697C148.929 200.891 148.929 204.409 147.723 207.557C145.683 213.482 140.072 217.417 133.812 217.417ZM212.923 217.417C206.663 217.417 201.052 213.436 198.965 207.557C198.455 206.307 198.177 204.965 198.177 203.622C198.084 203.298 198.084 202.974 198.084 202.65C198.084 196.401 202.072 190.8 207.961 188.717C209.538 188.115 211.207 187.837 212.923 187.837C219.184 187.837 224.795 191.818 226.881 197.697C228.087 200.891 228.087 204.409 226.881 207.557C224.795 213.482 219.23 217.417 212.923 217.417ZM237.686 192.744C237.686 193.855 237.362 194.92 236.712 195.799C233.652 185.245 224.006 177.931 212.97 177.931C211.3 177.931 209.631 178.116 208.008 178.44V159.554L233.93 166.081C236.156 166.59 237.686 168.58 237.686 170.802V192.744Z" fill="#747474"/>
<circle cx="133.62" cy="203.472" r="15.8992" fill="#747474"/>
<circle cx="213.115" cy="203.472" r="15.8992" fill="#747474"/>
</svg>
