<svg width="540" height="166" viewBox="0 0 540 166" fill="none" xmlns="http://www.w3.org/2000/svg">
<path d="M50.9967 16.5691C41.3125 20.6162 33.7964 26.6869 28.4484 34.7811C23.245 42.8754 20.6433 52.6318 20.6433 64.0505C20.6433 69.3985 21.1492 73.1565 22.1609 75.3246C23.1727 77.3482 23.6786 78.5045 23.6786 78.7936C15.8735 78.7936 10.0196 77.2037 6.11699 74.0238C2.35895 70.6993 0.479927 65.2791 0.479927 57.763C0.479927 48.5124 4.23797 39.551 11.7541 30.8785C19.4147 22.0616 29.1711 14.9791 41.0234 9.63115C52.8757 4.13862 64.728 1.39235 76.5803 1.39235C78.6039 1.39235 81.4947 1.53689 85.2527 1.82598L71.3769 66.4354H103.248L117.124 1.82598H148.344L113.872 164H82.651L99.9958 82.4794H68.1247L50.7799 164H19.5592L50.9967 16.5691ZM177.405 165.301C166.71 165.301 158.398 162.555 152.472 157.062C146.546 151.425 143.583 142.68 143.583 130.828C143.583 120.855 145.534 109.87 149.437 97.8729C153.34 85.8761 159.699 75.5414 168.516 66.869C177.333 58.0521 188.535 53.6436 202.122 53.6436C218.021 53.6436 225.971 60.5815 225.971 74.4574C225.971 82.5516 223.658 89.9955 219.033 96.7888C214.408 103.582 208.265 109.075 200.604 113.266C192.944 117.314 184.777 119.626 176.105 120.204C175.816 124.541 175.671 127.431 175.671 128.877C175.671 135.959 176.9 140.801 179.357 143.403C181.814 145.86 185.789 147.089 191.281 147.089C199.087 147.089 205.735 145.282 211.228 141.669C216.865 138.055 223.008 132.563 229.657 125.191H237.028C220.984 151.931 201.11 165.301 177.405 165.301ZM177.839 109.797C183.187 109.508 188.246 107.629 193.016 104.16C197.93 100.691 201.833 96.283 204.724 90.935C207.759 85.587 209.277 79.9499 209.277 74.0238C209.277 68.0976 207.47 65.1346 203.856 65.1346C198.653 65.1346 193.522 69.6876 188.463 78.7936C183.548 87.8996 180.007 98.2342 177.839 109.797ZM255.411 165.301C248.474 165.301 242.836 163.133 238.5 158.797C234.309 154.46 232.213 147.956 232.213 139.284C232.213 135.67 232.791 130.973 233.947 125.191L257.146 16.5691L289.234 12.2329L264.301 129.31C263.722 131.478 263.433 133.791 263.433 136.248C263.433 139.139 264.084 141.235 265.385 142.536C266.83 143.692 269.143 144.27 272.323 144.27C276.514 144.27 280.417 142.536 284.03 139.067C287.644 135.453 290.246 130.828 291.836 125.191H300.942C295.594 140.801 288.728 151.425 280.345 157.062C271.961 162.555 263.65 165.301 255.411 165.301ZM317.55 165.301C310.612 165.301 304.975 163.133 300.638 158.797C296.447 154.46 294.351 147.956 294.351 139.284C294.351 135.67 294.929 130.973 296.085 125.191L319.284 16.5691L351.372 12.2329L326.439 129.31C325.861 131.478 325.572 133.791 325.572 136.248C325.572 139.139 326.222 141.235 327.523 142.536C328.968 143.692 331.281 144.27 334.461 144.27C338.652 144.27 342.555 142.536 346.169 139.067C349.782 135.453 352.384 130.828 353.974 125.191H363.08C357.732 140.801 350.866 151.425 342.483 157.062C334.099 162.555 325.788 165.301 317.55 165.301ZM389.878 164.867C379.182 164.867 370.726 162.121 364.511 156.628C358.296 151.136 355.188 142.464 355.188 130.611C355.188 120.638 357.139 109.725 361.042 97.8729C364.945 85.8761 371.304 75.5414 380.121 66.869C388.938 58.0521 400.212 53.6436 413.944 53.6436C430.999 53.6436 440.178 63.4001 441.479 82.913C444.659 82.1903 447.477 80.4558 449.934 77.7095C452.391 74.8187 454.704 71.5666 456.872 67.9531H463.81C459.907 75.7583 456.439 81.9012 453.403 86.382C450.368 90.7182 446.393 94.2594 441.479 97.0057C440.611 110.592 437.793 122.517 433.023 132.779C428.398 143.042 422.327 150.991 414.811 156.628C407.295 162.121 398.984 164.867 389.878 164.867ZM398.55 145.354C403.898 145.354 408.885 141.018 413.51 132.346C418.135 123.673 421.315 112.977 423.05 100.258C419.581 98.9569 417.846 95.7048 417.846 90.5013C417.846 84.8643 419.87 81.1062 423.917 79.2272C423.628 74.6019 422.833 71.422 421.532 69.6876C420.376 67.8085 418.424 66.869 415.678 66.869C410.908 66.869 406.355 70.338 402.019 77.2759C397.683 84.0693 394.142 92.3804 391.395 102.209C388.794 111.893 387.493 120.421 387.493 127.793C387.493 134.731 388.288 139.428 389.878 141.885C391.468 144.198 394.359 145.354 398.55 145.354ZM505.937 5.51176L539.326 0.958737L507.889 113.917H489.46L505.937 5.51176ZM492.495 165.301C487.725 165.301 483.606 163.639 480.137 160.314C476.812 156.845 475.15 152.726 475.15 147.956C475.15 143.186 476.812 139.139 480.137 135.815C483.606 132.49 487.725 130.828 492.495 130.828C497.265 130.828 501.312 132.49 504.636 135.815C507.961 139.139 509.623 143.186 509.623 147.956C509.623 152.726 507.961 156.845 504.636 160.314C501.312 163.639 497.265 165.301 492.495 165.301Z" fill="black"/>
</svg>
