<svg width="152" height="151" viewBox="0 0 152 151" fill="none" xmlns="http://www.w3.org/2000/svg">
<circle cx="76.8201" cy="75.5936" r="75.1795" fill="#F9FBFF"/>
<path d="M120.722 129.414H118.277V140.414H120.722V129.414Z" fill="#FF6969"/>
<path d="M125 133.692H114V136.136H125V133.692Z" fill="#FF6969"/>
<path d="M116.885 7.58493C116.885 8.20172 116.355 8.73041 115.737 8.73041C115.12 8.73041 114.59 8.20172 114.59 7.58493C114.59 6.96813 115.12 6.43945 115.737 6.43945C116.355 6.43945 116.885 6.88002 116.885 7.58493Z" fill="white"/>
<path d="M122.02 7.58493C122.02 8.20172 121.49 8.73041 120.872 8.73041C120.254 8.73041 119.725 8.20172 119.725 7.58493C119.725 6.96813 120.166 6.43945 120.784 6.43945C121.49 6.43945 122.02 6.88002 122.02 7.58493Z" fill="white"/>
<path d="M126.832 7.58493C126.832 8.20172 126.303 8.73041 125.685 8.73041C125.067 8.73041 124.537 8.20172 124.537 7.58493C124.537 6.96813 124.979 6.43945 125.685 6.43945C126.391 6.43945 126.832 6.88002 126.832 7.58493Z" fill="white"/>
<path d="M139.383 7.41406H123.624C122.732 7.41406 122 8.33215 122 9.44917V17.9262C122 19.0432 122.732 19.9613 123.624 19.9613H125.076L127.438 24.4141L128.14 19.9613H139.376C140.268 19.9613 141 19.0432 141 17.9262V9.44917C141.006 8.3245 140.274 7.41406 139.383 7.41406Z" stroke="#1FC9AA" stroke-width="1.6" stroke-miterlimit="10"/>
<path d="M138 10.4141H125V11.4141H138V10.4141Z" fill="#1FC9AA"/>
<path d="M138 13.4141H125V14.4141H138V13.4141Z" fill="#C6EAE9"/>
<path d="M138 16.4141H125V17.4141H138V16.4141Z" fill="#C6EAE9"/>
<circle cx="7.5" cy="44.9141" r="6.5" stroke="#FCBB5A" stroke-width="2"/>
<circle cx="76.8218" cy="75.5938" r="57.0327" fill="#F0F7FF"/>
<circle cx="76.4783" cy="74.8924" r="41.4783" fill="#E1EFFF"/>
<circle cx="76" cy="67.4141" r="6" fill="#176CFF"/>
<path d="M86.9695 67.3953C86.9695 61.3441 82.0414 56.4141 75.9926 56.4141C69.9363 56.4141 65.0156 61.3441 65.0156 67.3953C65.0156 71.1448 66.9082 74.4637 69.7805 76.4461C67.0938 77.3742 64.6297 78.9037 62.5664 80.9752C58.9742 84.5614 57 89.3355 57 94.4066H59.9688C59.9688 85.5712 67.1531 78.3765 75.9926 78.3765C82.0414 78.3765 86.9695 73.4539 86.9695 67.3953ZM75.9926 75.4141C71.5766 75.4141 67.9844 71.8205 67.9844 67.4027C67.9844 62.985 71.5691 59.384 75.9926 59.384C80.4086 59.384 84.0008 62.9776 84.0008 67.3953C84.0008 71.813 80.4086 75.4141 75.9926 75.4141ZM95 83.7224L88.016 90.7091L85.9156 88.6079L89.3891 85.1331H86.8137C83.2586 85.1331 80.3641 88.0288 80.3641 91.5852V94.4141H77.3953V91.5852C77.4027 86.3953 81.6258 82.1706 86.8137 82.1706H89.2406L85.9156 78.8369L88.016 76.7357L95 83.7224Z" fill="#176CFF"/>
</svg>
