<svg width="346" height="346" viewBox="0 0 346 346" fill="none" xmlns="http://www.w3.org/2000/svg">
<circle cx="172.863" cy="172.863" r="172.863" fill="#D4D4D4"/>
<path d="M145.235 183.3V212.983C145.204 218.704 140.596 223.342 134.912 223.373H129.014C116.786 223.373 106.894 213.416 106.894 201.11C106.863 200.523 106.924 199.966 107.017 199.379C107.877 187.784 117.462 178.817 129.014 178.848H140.811C143.238 178.879 145.204 180.858 145.235 183.3Z" fill="#747474"/>
<path d="M216.878 178.848H200.933V216.787C200.933 220.002 203.544 222.63 206.74 222.63H219.274C224.989 222.754 230.396 220.033 233.775 215.364C241.548 205.81 240.165 191.741 230.703 183.919C226.801 180.703 221.916 178.91 216.878 178.848Z" fill="#747474"/>
<path d="M212.392 228.323H179.642C176.939 228.323 174.727 226.097 174.727 223.376C174.727 220.655 176.939 218.429 179.642 218.429H212.423C215.126 218.429 217.338 220.655 217.338 223.376C217.338 226.097 215.126 228.323 212.392 228.323Z" fill="#747474"/>
<path d="M179.643 233.269C185.073 233.269 189.474 228.839 189.474 223.375C189.474 217.91 185.073 213.48 179.643 213.48C174.214 213.48 169.812 217.91 169.812 223.375C169.812 228.839 174.214 233.269 179.643 233.269Z" fill="#747474"/>
<path d="M133.744 228.323H127.2C113.621 228.323 102.623 217.253 102.623 203.587C102.623 189.92 113.621 178.851 127.2 178.851H140.319C143.022 178.851 145.234 181.077 145.234 183.798V216.789C145.204 223.159 140.073 228.323 133.744 228.323ZM127.2 188.745C119.059 188.745 112.454 195.393 112.454 203.587C112.454 211.78 119.059 218.428 127.2 218.428H133.744C134.635 218.428 135.373 217.686 135.373 216.789V188.745H127.2Z" fill="#747474"/>
<path d="M218.967 228.323H205.849C203.145 228.323 200.933 226.096 200.933 223.375V183.798C200.933 181.077 203.145 178.851 205.849 178.851H218.967C232.546 178.851 243.545 189.92 243.545 203.587C243.545 217.253 232.515 228.323 218.967 228.323ZM210.764 218.428H218.967C227.108 218.428 233.714 211.78 233.714 203.587C233.714 195.393 227.108 188.745 218.967 188.745H210.764V218.428Z" fill="#747474"/>
<path d="M210.765 150.837V190.414C210.765 193.135 208.553 195.361 205.849 195.361C203.146 195.361 200.934 193.135 200.934 190.414V150.837C200.934 149.662 200.872 148.487 200.657 147.343V147.281C198.722 131.945 184.774 121.061 169.536 123.04C155.619 124.833 145.204 136.737 145.204 150.868V197C145.235 198.237 144.743 199.412 143.883 200.309C142.961 201.36 141.671 201.947 140.288 201.947C139.766 201.947 139.213 201.885 138.722 201.669C136.725 200.989 135.373 199.103 135.373 197V150.837C135.404 129.904 152.27 112.929 173.069 112.898C186.003 112.867 198.046 119.608 204.866 130.708C208.737 136.706 210.765 143.694 210.765 150.837Z" fill="#747474"/>
</svg>
