<svg width="346" height="346" viewBox="0 0 346 346" fill="none" xmlns="http://www.w3.org/2000/svg">
<circle cx="172.863" cy="172.863" r="172.863" fill="#D4D4D4"/>
<path fill-rule="evenodd" clip-rule="evenodd" d="M214.068 123.577H132.625C127.627 123.577 123.576 127.628 123.576 132.626V214.069C123.576 219.067 127.627 223.119 132.625 223.119H214.068C219.066 223.119 223.117 219.067 223.117 214.069V132.626C223.117 127.628 219.066 123.577 214.068 123.577ZM132.625 114.528C122.629 114.528 114.526 122.631 114.526 132.626V214.069C114.526 224.065 122.629 232.168 132.625 232.168H214.068C224.064 232.168 232.167 224.065 232.167 214.069V132.626C232.167 122.631 224.064 114.528 214.068 114.528H132.625Z" fill="#747474"/>
<path d="M174.879 147.725C162.907 147.725 153.155 157.725 153.155 170.002C153.155 182.278 162.907 192.278 174.879 192.278C186.852 192.278 196.604 182.278 196.604 170.002C196.604 157.725 186.852 147.725 174.879 147.725Z" fill="#747474"/>
<path d="M201.915 206.832C195.961 200.644 188.075 197.228 179.707 197.228H170.052C161.684 197.228 153.798 200.644 147.844 206.832C141.938 212.987 138.672 221.122 138.672 229.735C138.672 231.105 139.75 232.21 141.085 232.21H208.673C210.009 232.21 211.087 231.105 211.087 229.735C211.087 221.122 207.821 212.987 201.915 206.832Z" fill="#747474"/>
</svg>
