<svg width="369" height="228" viewBox="0 0 369 228" fill="none" xmlns="http://www.w3.org/2000/svg">
<path d="M0.154297 227L368.428 226.952" stroke="black" stroke-width="1.133" stroke-miterlimit="10"/>
<path d="M350.679 211.056H51.2218C47.4811 211.056 44.4473 208.018 44.4473 204.272V6.78359C44.4473 3.03789 47.4811 0 51.2218 0H350.679C354.42 0 357.453 3.03789 357.453 6.78359V204.278C357.453 208.023 354.42 211.056 350.679 211.056Z" fill="#2F2D4F"/>
<path d="M342.361 14.4153H61.7363V195.909H342.361V14.4153Z" fill="#7498FF"/>
<path d="M243.515 76.5991C253.494 89.1898 269.06 95.8546 284.307 100.887C299.553 105.919 315.486 109.959 328.705 119.083C333.472 122.374 337.817 126.28 342.362 129.871V14.4153H236.292C230.095 35.51 229.775 59.2655 243.515 76.5991Z" fill="#547DEC"/>
<path d="M342.361 14.4153H61.7363V32.5031H342.361V14.4153Z" fill="#CFE3FF"/>
<path d="M290.147 23.9847C290.147 26.2631 288.305 28.1075 286.029 28.1075C283.754 28.1075 281.912 26.2631 281.912 23.9847C281.912 21.7062 283.754 19.8618 286.029 19.8618C288.305 19.8618 290.147 21.7114 290.147 23.9847Z" fill="#7498FF"/>
<path d="M308.075 23.9839C308.075 26.2624 306.233 28.1068 303.957 28.1068C301.682 28.1068 299.84 26.2624 299.84 23.9839C299.84 21.7055 301.682 19.8611 303.957 19.8611C306.233 19.8611 308.075 21.7107 308.075 23.9839Z" fill="#7498FF"/>
<path d="M326.005 23.9839C326.005 26.2624 324.163 28.1068 321.888 28.1068C319.612 28.1068 317.771 26.2624 317.771 23.9839C317.771 21.7055 319.612 19.8611 321.888 19.8611C324.158 19.8611 326.005 21.7107 326.005 23.9839Z" fill="#7498FF"/>
<path d="M183.302 28.1056H79.9396C77.6642 28.1056 75.8223 26.2611 75.8223 23.9827C75.8223 21.7043 77.6642 19.8599 79.9396 19.8599H183.307C185.582 19.8599 187.424 21.7043 187.424 23.9827C187.419 26.2611 185.577 28.1056 183.302 28.1056Z" fill="white"/>
<path d="M210.771 189.791C202.252 179.851 188.776 176.048 176.114 172.742C169.18 170.928 162.24 169.12 155.305 167.306C148.711 165.586 142.056 163.84 136.029 160.657C123.399 153.992 114.772 141.732 107.435 129.467C100.098 117.202 93.3543 104.229 82.8184 94.5779C77.2202 89.4217 69.6305 84.9062 61.7363 83.1548V195.913H214.935C213.743 193.743 212.386 191.677 210.771 189.791Z" fill="#547DEC"/>
<path d="M339.738 195.113H67.4301C65.1341 195.113 63.2715 193.248 63.2715 190.949V38.4908C63.2715 36.1918 65.1341 34.3267 67.4301 34.3267H339.738C342.034 34.3267 343.896 36.1918 343.896 38.4908V190.943C343.896 193.248 342.034 195.113 339.738 195.113Z" fill="white"/>
<rect x="158.501" y="90.7998" width="23.2537" height="23.2537" rx="5" fill="#CFE3FF"/>
<rect x="158.501" y="119.59" width="23.2537" height="23.2537" rx="5" fill="#CFE3FF"/>
<rect x="159.608" y="148.38" width="23.2537" height="23.2537" rx="5" fill="#CFE3FF"/>
<rect x="187.291" y="90.7998" width="23.2537" height="23.2537" rx="5" fill="#CFE3FF"/>
<rect x="187.291" y="119.59" width="23.2537" height="23.2537" rx="5" fill="#CFE3FF"/>
<rect x="188.398" y="148.38" width="23.2537" height="23.2537" rx="5" fill="#CFE3FF"/>
<rect x="216.081" y="90.7998" width="23.2537" height="23.2537" rx="5" fill="#CFE3FF"/>
<rect x="216.081" y="119.59" width="23.2537" height="23.2537" rx="5" fill="#CFE3FF"/>
<rect x="217.188" y="148.38" width="23.2537" height="23.2537" rx="5" fill="#CFE3FF"/>
<rect x="244.871" y="90.7998" width="23.2537" height="23.2537" rx="5" fill="#1FC9AA"/>
<rect x="244.871" y="119.59" width="23.2537" height="23.2537" rx="5" fill="#CFE3FF"/>
<rect x="245.979" y="148.38" width="23.2537" height="23.2537" rx="5" fill="#CFE3FF"/>
<path d="M128.967 79.8715C136.507 79.8715 142.619 73.7513 142.619 66.2015C142.619 58.6518 136.507 52.5315 128.967 52.5315C121.428 52.5315 115.315 58.6518 115.315 66.2015C115.315 73.7513 121.428 79.8715 128.967 79.8715Z" fill="#1FC9AA"/>
<path d="M134.339 62.3228C134.339 65.1261 132.07 67.4011 129.271 67.4011C126.471 67.4011 124.199 65.1289 124.199 62.3228C124.199 59.5195 126.468 57.2473 129.271 57.2473C132.07 57.2473 134.339 59.5195 134.339 62.3228Z" fill="white"/>
<path d="M120.767 77.0718C120.767 72.4735 124.488 68.7471 129.08 68.7471C133.672 68.7471 137.394 72.4735 137.394 77.0718C137.394 77.0718 133.582 80.3182 128.97 80.3977C124.358 80.4772 120.767 77.0718 120.767 77.0718Z" fill="white"/>
<path d="M192.815 83.5864H146.805C145.331 83.5864 144.141 82.3949 144.141 80.9261V52.4948C144.141 51.0208 145.331 49.8293 146.805 49.8293H192.821C194.289 49.8293 195.485 51.0208 195.485 52.4948V80.9261C195.479 82.3949 194.283 83.5864 192.815 83.5864Z" fill="white"/>
<path d="M188.499 61.3327H152.03C151.245 61.3327 150.613 60.6958 150.613 59.9152V55.0774C150.613 54.2916 151.25 53.6599 152.03 53.6599H188.499C189.284 53.6599 189.916 54.2967 189.916 55.0774V59.9152C189.916 60.6958 189.279 61.3327 188.499 61.3327Z" fill="#9BBDF9"/>
<path d="M151.12 66.3606H169.034" stroke="black" stroke-width="1.3" stroke-miterlimit="10" stroke-linecap="round" stroke-linejoin="round"/>
<path d="M151.12 70.7261H189.401" stroke="black" stroke-width="1.3" stroke-miterlimit="10" stroke-linecap="round" stroke-linejoin="round"/>
<path d="M151.12 75.5376H189.401" stroke="black" stroke-width="1.3" stroke-miterlimit="10" stroke-linecap="round" stroke-linejoin="round"/>
<path d="M241.913 79.8715C249.453 79.8715 255.565 73.7513 255.565 66.2015C255.565 58.6518 249.453 52.5315 241.913 52.5315C234.374 52.5315 228.262 58.6518 228.262 66.2015C228.262 73.7513 234.374 79.8715 241.913 79.8715Z" fill="#1FC9AA"/>
<path d="M247.284 62.3228C247.284 65.1261 245.015 67.4011 242.215 67.4011C239.416 67.4011 237.144 65.1289 237.144 62.3228C237.144 59.5195 239.413 57.2473 242.215 57.2473C245.015 57.2473 247.284 59.5195 247.284 62.3228Z" fill="white"/>
<path d="M233.711 77.0718C233.711 72.4735 237.432 68.7471 242.025 68.7471C246.617 68.7471 250.338 72.4735 250.338 77.0718C250.338 77.0718 246.526 80.3182 241.914 80.3977C237.302 80.4772 233.711 77.0718 233.711 77.0718Z" fill="white"/>
<path d="M305.762 83.5864H259.751C258.278 83.5864 257.087 82.3949 257.087 80.9261V52.4948C257.087 51.0208 258.278 49.8293 259.751 49.8293H305.767C307.235 49.8293 308.431 51.0208 308.431 52.4948V80.9261C308.426 82.3949 307.23 83.5864 305.762 83.5864Z" fill="white"/>
<path d="M301.445 61.3327H264.976C264.191 61.3327 263.56 60.6958 263.56 59.9152V55.0774C263.56 54.2916 264.196 53.6599 264.976 53.6599H301.445C302.23 53.6599 302.862 54.2967 302.862 55.0774V59.9152C302.862 60.6958 302.225 61.3327 301.445 61.3327Z" fill="#9BBDF9"/>
<path d="M264.066 66.3606H281.98" stroke="black" stroke-width="1.3" stroke-miterlimit="10" stroke-linecap="round" stroke-linejoin="round"/>
<path d="M264.065 70.7261H302.346" stroke="black" stroke-width="1.3" stroke-miterlimit="10" stroke-linecap="round" stroke-linejoin="round"/>
<path d="M264.065 75.5376H302.346" stroke="black" stroke-width="1.3" stroke-miterlimit="10" stroke-linecap="round" stroke-linejoin="round"/>
<path d="M79.7703 196.303H67.6968C64.9468 196.303 62.1651 195.136 62.1646 191.566L62.1641 39.3096C62.1641 35.9876 64.9468 34.3267 67.6968 34.3267H79.7703C82.5203 34.3267 84.7493 36.5586 84.7493 39.3123V191.322C84.7441 194.071 82.5152 196.303 79.7703 196.303Z" fill="#2F7BFF"/>
<path d="M76.9066 70.1248C76.8654 70.1248 76.8241 70.1093 76.788 70.0783L73.6303 67.216L70.4726 70.0783C70.4004 70.1454 70.2869 70.1403 70.225 70.0679C70.1579 69.9956 70.1631 69.882 70.2353 69.82L73.5116 66.8492C73.5787 66.7872 73.6819 66.7872 73.749 66.8492L77.0253 69.82C77.0975 69.8871 77.1027 69.9956 77.0356 70.0679C76.9995 70.1093 76.9531 70.1248 76.9066 70.1248Z" fill="#FAFAFA"/>
<path d="M76.0058 72.6348H71.2487C71.1506 72.6348 71.0732 72.5573 71.0732 72.4591V69.1422C71.0732 69.044 71.1506 68.9666 71.2487 68.9666C71.3467 68.9666 71.4241 69.044 71.4241 69.1422V72.2783H75.8304V69.1422C75.8304 69.044 75.9078 68.9666 76.0058 68.9666C76.1038 68.9666 76.1812 69.044 76.1812 69.1422V72.4591C76.1812 72.5521 76.0987 72.6348 76.0058 72.6348Z" fill="#FAFAFA"/>
<path d="M76.7256 95.2448H70.5289C70.4309 95.2448 70.3535 95.1673 70.3535 95.0691V91.1064C70.3535 90.6156 70.7508 90.2178 71.241 90.2178H72.8559C73.2584 90.2178 73.6247 90.4606 73.7795 90.8326L74.0581 91.4939H76.0187C76.5089 91.4939 76.9062 91.8917 76.9062 92.3825V95.0639C76.9062 95.1621 76.8236 95.2448 76.7256 95.2448ZM70.7044 94.8883H76.5553V92.3825C76.5553 92.088 76.3128 91.8452 76.0187 91.8452H73.9394C73.8672 91.8452 73.8053 91.8039 73.7795 91.7367L73.4544 90.9669C73.3512 90.7241 73.1191 90.5691 72.8559 90.5691H71.241C70.9469 90.5691 70.7044 90.8119 70.7044 91.1064V94.8883Z" fill="#FAFAFA"/>
<path d="M83.4184 58.0561H67.0906C66.2908 58.0561 65.6455 57.3173 65.6455 56.4131V41.3942C65.6455 40.4849 66.2953 39.7512 67.0906 39.7512H83.4184C84.2182 39.7512 84.8635 40.49 84.8635 41.3942V56.408C84.8635 57.3173 84.2182 58.0561 83.4184 58.0561Z" fill="#FAFAFA"/>
<path d="M71.8771 118.901C71.7791 118.901 71.6862 118.87 71.6037 118.813C71.4592 118.71 71.3869 118.534 71.4179 118.359L71.6759 116.705C71.681 116.669 71.6707 116.633 71.6449 116.607L70.4685 115.424C70.3447 115.3 70.2983 115.114 70.355 114.949C70.4118 114.778 70.5511 114.659 70.7265 114.628L72.3724 114.365C72.4085 114.36 72.4395 114.334 72.4601 114.303L73.2186 112.815C73.3785 112.5 73.8945 112.5 74.0545 112.815L74.8129 114.303C74.8284 114.334 74.8594 114.36 74.9006 114.365L76.5465 114.628C76.722 114.654 76.8664 114.778 76.918 114.949C76.9748 115.119 76.9283 115.3 76.8045 115.424L75.6281 116.607C75.6023 116.633 75.5869 116.669 75.5972 116.705L75.8551 118.359C75.8809 118.534 75.8087 118.71 75.6694 118.813C75.5249 118.917 75.3392 118.932 75.1792 118.849L73.6933 118.09C73.6623 118.074 73.621 118.074 73.5901 118.09L72.0887 118.849C72.0216 118.886 71.9493 118.901 71.8771 118.901ZM73.6314 117.728C73.7036 117.728 73.7758 117.744 73.8429 117.78L75.3289 118.539C75.3856 118.57 75.4321 118.545 75.4527 118.529C75.4682 118.519 75.5095 118.483 75.4991 118.415L75.2412 116.762C75.2154 116.612 75.267 116.463 75.3753 116.359L76.5517 115.176C76.5981 115.13 76.5878 115.078 76.5827 115.057C76.5775 115.037 76.5517 114.99 76.4898 114.98L74.8439 114.716C74.6942 114.69 74.5653 114.597 74.4982 114.468L73.7397 112.98C73.7088 112.923 73.6572 112.918 73.6365 112.918C73.6159 112.918 73.5643 112.923 73.5333 112.98L72.7749 114.468C72.7078 114.603 72.5788 114.696 72.4292 114.716L70.7833 114.98C70.7214 114.99 70.6956 115.037 70.6904 115.057C70.6852 115.078 70.6749 115.13 70.7214 115.176L71.8977 116.359C72.0009 116.463 72.0525 116.618 72.0267 116.762L71.7688 118.415C71.7584 118.477 71.7997 118.514 71.8152 118.529C71.8307 118.539 71.8771 118.57 71.939 118.539L73.425 117.78C73.4817 117.744 73.554 117.728 73.6314 117.728Z" fill="white"/>
<path d="M77.0872 141.123H70.1217C70.0237 141.123 69.9463 141.045 69.9463 140.947V136.55C69.9463 136.452 70.0237 136.375 70.1217 136.375H77.0872C77.1852 136.375 77.2626 136.452 77.2626 136.55V140.947C77.2626 141.045 77.1852 141.123 77.0872 141.123ZM70.2971 140.771H76.9117V136.726H70.2971V140.771Z" fill="#FAFAFA"/>
<path d="M73.6925 139.888C73.6512 139.888 73.6099 139.873 73.5738 139.842L70.0085 136.68C69.9363 136.613 69.9311 136.504 69.9931 136.432C70.0601 136.36 70.1685 136.354 70.2407 136.416L73.6873 139.47L76.9688 136.416C77.041 136.349 77.1494 136.354 77.2165 136.427C77.2835 136.499 77.2784 136.608 77.2062 136.675L73.8111 139.837C73.775 139.873 73.7338 139.888 73.6925 139.888Z" fill="#FAFAFA"/>
<path d="M70.2259 140.931C70.1795 140.931 70.1382 140.916 70.1021 140.88C70.035 140.813 70.035 140.699 70.1021 140.632L72.2227 138.508C72.2897 138.441 72.4032 138.441 72.4703 138.508C72.5374 138.576 72.5374 138.689 72.4703 138.756L70.3497 140.88C70.3136 140.916 70.2672 140.931 70.2259 140.931Z" fill="#FAFAFA"/>
<path d="M77.1345 141.077C77.0881 141.077 77.0468 141.061 77.0107 141.025L74.7456 138.757C74.6785 138.69 74.6785 138.576 74.7456 138.509C74.8127 138.442 74.9262 138.442 74.9933 138.509L77.2583 140.777C77.3254 140.844 77.3254 140.958 77.2583 141.025C77.2222 141.061 77.1809 141.077 77.1345 141.077Z" fill="#FAFAFA"/>
<path d="M73.7312 52.9261C71.5126 52.9261 69.7119 51.123 69.7119 48.9014C69.7119 46.6798 71.5126 44.8767 73.7312 44.8767C75.9499 44.8767 77.7506 46.6798 77.7506 48.9014C77.7506 51.123 75.9499 52.9261 73.7312 52.9261Z" fill="#1FC9AA"/>
<g clip-path="url(#clip0_2911_10109)">
<path d="M33.9578 58.3369C33.2012 58.7033 32.8844 59.6139 33.2507 60.3705C34.2509 62.4364 34.7581 64.6641 34.7581 66.9927C34.7581 75.3877 27.9275 82.2183 19.5325 82.2183C11.1374 82.2183 4.30684 75.3877 4.30684 66.9927C4.30684 58.5976 11.1374 51.767 19.5325 51.767C23.0115 51.767 26.2793 52.9033 28.9847 55.052C29.6404 55.5754 30.6005 55.4659 31.1239 54.8074C31.6473 54.1499 31.5378 53.1916 30.8793 52.6682C27.6772 50.1236 23.6472 48.7219 19.5325 48.7219C9.45881 48.7219 1.26172 56.919 1.26172 66.9927C1.26172 77.0663 9.45881 85.2634 19.5325 85.2634C29.6061 85.2634 37.8032 77.0663 37.8032 66.9927C37.8032 64.2007 37.1932 61.5257 35.9913 59.0439C35.6259 58.2855 34.7124 57.9696 33.9578 58.3369Z" fill="#D2D2D2"/>
<path d="M19.5323 54.812C18.6921 54.812 18.0098 55.4943 18.0098 56.3346V66.9925C18.0098 67.8328 18.6921 68.5151 19.5323 68.5151H27.1451C27.9854 68.5151 28.6677 67.8328 28.6677 66.9925C28.6677 66.1522 27.9854 65.4699 27.1451 65.4699H21.0549V56.3346C21.0549 55.4943 20.3726 54.812 19.5323 54.812Z" fill="#D2D2D2"/>
</g>
<g clip-path="url(#clip1_2911_10109)">
<path d="M360.828 155.567C364.336 154.642 366.615 151.25 366.173 147.607L361.402 104.883C360.133 94.6768 353.22 89.1641 346.003 91.0637C340.73 92.4506 337.745 99.0738 337.111 104.164C336.329 110.401 339.415 114.828 341.151 120.446C342.648 125.295 344.485 130.069 346.145 134.863C348.378 141.316 349.779 144.341 352.017 150.793C353.276 154.461 357.128 156.542 360.828 155.567Z" fill="white" stroke="black" stroke-width="0.5" stroke-miterlimit="10"/>
<path d="M366.412 131.155C365.326 118.19 364.23 110.034 363.499 107.084C363.331 106.416 363.164 105.561 362.991 104.596C361.494 96.1943 354.236 89.9983 345.623 89.8174C345.623 89.8174 341.07 102.792 342.273 107.928C342.273 107.933 347.486 135.145 347.486 135.145C356.784 136.607 366.412 131.155 366.412 131.155Z" fill="#2F7BFF" stroke="black" stroke-width="0.5" stroke-miterlimit="10"/>
<path d="M315.465 69.0582C315.501 68.7517 318.424 62.9978 318.612 61.7717C319.074 58.7214 319.409 57.4952 320.632 54.5203C323.5 47.5253 331.027 45.0428 338.249 47.0177C347.811 49.6308 352.131 58.8319 349.04 67.7516C347.629 71.8271 345.944 75.6613 342.726 78.6915C341.665 79.6915 340.447 80.4805 339.132 81.0986C338.929 83.0433 338.843 88.3951 343.178 92.7972H322.632C322.632 92.7972 325.017 87.2645 324.967 82.8373C323.414 82.6865 321.947 82.3448 320.754 81.2996C319.034 79.792 318.526 78.003 318.292 75.8422C318.216 75.1487 318.064 70.817 317.196 70.6261C315.039 70.1386 315.44 69.2793 315.465 69.0582Z" fill="white" stroke="black" stroke-width="0.5" stroke-miterlimit="10"/>
<path d="M330.976 227H358.444V180.552H327.19L330.976 227Z" fill="#13151C"/>
<path d="M292.747 227H317.551L325.524 218.482C335.366 207.965 341.771 194.743 343.893 180.557H305.654L292.747 227Z" fill="#13151C"/>
<path d="M304.958 180.17C332.96 186.316 359.058 180.17 359.058 180.17L358.139 104.375C358.037 96.3049 351.404 89.8174 343.258 89.8174H313.47C313.465 89.8174 306.79 136.441 304.958 180.17Z" fill="#2F7BFF" stroke="black" stroke-width="0.5" stroke-miterlimit="10"/>
<path d="M358.002 134.185L359.297 133.773L359.484 126.727L359.236 121.531L359.256 116.049L359.484 108.757L358.743 101.069L357.114 96.8928L354.972 94.2445L353.333 92.1892L351.173 91.354L347.851 90.2463C347.851 90.2463 345.806 89.7068 341.289 90.4656L355.312 102.094L356.114 118.597V130.923L358.002 134.185Z" fill="#2F7BFF"/>
<path d="M256.624 102.586C256.213 102.235 256.081 101.662 256.294 101.169C256.588 100.486 257.421 100.209 258.07 100.586L267.892 106.25C269.374 107.104 270.404 108.556 270.719 110.225L271.967 116.848C277.768 126.17 286.823 133.476 292.726 137.607C296.111 122.858 301.638 101.968 303.176 98.3501C304.958 94.1591 306.531 91.6264 311.272 90.4354C314.992 89.5007 318.717 90.8374 321.032 93.8576C324.432 98.2998 323.859 104.511 321.859 109.4C321.854 109.405 304.349 152.205 304.349 152.205C303.136 155.165 300.202 156.964 297.142 156.783C297.05 156.788 296.964 156.798 296.878 156.798C295.847 156.798 294.863 156.587 293.969 156.205C277.855 148.813 265.049 121.622 265.049 121.622C263.887 121.466 262.826 120.893 262.065 120.009L260.025 117.647C257.939 115.23 257.852 111.607 260.004 109.245C260.096 109.144 260.192 109.044 260.294 108.948L261.177 108.094C261.649 107.637 261.623 106.883 261.126 106.456L256.624 102.586Z" fill="white" stroke="black" stroke-width="0.5" stroke-miterlimit="10"/>
<path d="M316.16 45.5056C318.636 39.9427 326.082 42.4402 330.229 44.0985C332.162 44.8724 333.974 45.5257 336.076 45.6513C338.938 45.8222 341.669 45.6211 344.323 46.8825C346.765 48.0433 348.846 49.9478 350.221 52.2594C352.632 56.3198 352.941 61.4053 351.642 65.933C350.795 68.8878 349.003 71.4305 347.15 73.8476C345.44 76.0788 344.049 78.8728 341.446 80.2196C336.918 82.5663 330.32 78.8628 329.366 74.0436C329.828 73.3099 330.477 72.6818 331.208 72.1793C331.751 71.8074 332.213 71.2597 332.492 70.5762C333.198 68.8777 332.553 67.0033 331.046 66.3852C329.538 65.7722 327.747 66.6465 327.036 68.3451C326.96 68.531 326.899 68.7219 326.854 68.9079C326.691 69.5863 326.123 70.1189 325.417 70.1139C323.346 70.1039 324.301 66.1691 324.559 63.9128C324.808 61.7771 324.768 59.7419 323.407 57.9178C321.281 55.0585 317.956 53.2846 316.332 50.0735C315.596 48.6312 315.596 46.7669 316.16 45.5056Z" fill="black"/>
<path d="M320.209 65.0033C319.814 65.0033 319.494 64.6861 319.494 64.2947C319.494 63.9034 319.814 63.5862 320.209 63.5862C320.604 63.5862 320.925 63.9034 320.925 64.2947C320.925 64.6861 320.604 65.0033 320.209 65.0033Z" fill="black"/>
<path d="M318.951 59.7422C320.489 59.8929 321.748 60.5512 322.788 61.697C322.89 61.8075 322.991 61.9281 323.042 62.0689C323.108 62.2397 323.093 62.4759 322.945 62.6065C322.839 62.702 322.676 62.7272 322.534 62.702C322.392 62.6769 322.26 62.6116 322.128 62.5462C320.986 61.9683 319.976 61.4106 318.687 61.2296L318.951 59.7422Z" fill="black"/>
<path d="M318.894 74.6317C320.244 74.6317 321.011 73.5111 321.016 73.501L320.635 73.2498C320.594 73.305 319.686 74.6317 318.067 74.0086L318.133 74.5161C318.407 74.5965 318.661 74.6317 318.894 74.6317Z" fill="black"/>
<path d="M293.619 128.27C296.746 115.632 301.263 100.828 302.45 98.0288C304.232 93.8378 305.805 91.3051 310.546 90.1141C314.266 89.1794 319.286 90.5161 321.6 93.5363C325.001 97.9785 324.427 104.19 322.427 109.079C322.427 109.084 312.972 135.15 312.972 135.15C303.557 135.15 293.619 128.27 293.619 128.27Z" fill="#2F7BFF" stroke="black" stroke-width="0.5" stroke-miterlimit="10"/>
<path d="M312.008 133.567L313.688 136.361L327.188 102.506L325.031 95.7726L321.844 91.4007L320.088 90.1393C320.088 90.1393 310.226 89.6821 310.297 90.7775L314.287 93.3856L318.687 99.5214L314.535 123.25L312.008 133.567Z" fill="#2F7BFF"/>
</g>
<defs>
<clipPath id="clip0_2911_10109">
<rect width="36.5415" height="36.5415" fill="white" transform="translate(1.26172 48.7219)"/>
</clipPath>
<clipPath id="clip1_2911_10109">
<rect width="110.732" height="184.922" fill="white" transform="matrix(-1 0 0 1 366.676 42.0781)"/>
</clipPath>
</defs>
</svg>
