<svg width="272" height="307" viewBox="0 0 272 307" fill="none" xmlns="http://www.w3.org/2000/svg">
<path d="M139.289 307H21.8094C10.0226 307 0.46875 297.446 0.46875 285.659V22.0395C0.46875 10.2638 10.0226 0.709961 21.8094 0.709961H139.289C151.075 0.709961 160.618 10.2638 160.618 22.0395V285.659C160.618 297.446 151.064 307 139.289 307Z" fill="url(#paint0_linear_2911_9960)"/>
<path d="M144.076 299.146H17.6876C10.6333 299.146 4.91211 293.425 4.91211 286.37V21.3397C4.91211 14.2854 10.6333 8.56421 17.6876 8.56421H144.076C151.131 8.56421 156.852 14.2854 156.852 21.3397V286.37C156.852 293.425 151.131 299.146 144.076 299.146Z" fill="white"/>
<path d="M82.5319 15.0296C82.5319 13.3632 81.1766 12.019 79.5213 12.019C77.855 12.019 76.5107 13.3744 76.5107 15.0296C76.5107 16.696 77.8661 18.0402 79.5213 18.0402C81.1877 18.0513 82.5319 16.696 82.5319 15.0296Z" fill="#231854"/>
<path d="M113.294 92.9937H47.8052C43.4838 92.9937 39.9844 89.4943 39.9844 85.1728V84.073C39.9844 79.7516 43.4838 76.2522 47.8052 76.2522H113.294C117.615 76.2522 121.114 79.7516 121.114 84.073V85.1728C121.114 89.4943 117.604 92.9937 113.294 92.9937Z" fill="#1FC9AA"/>
<path d="M76.9111 164.136H48.3496C43.7282 164.136 39.9844 160.393 39.9844 155.771C39.9844 151.15 43.7282 147.406 48.3496 147.406H76.9111C81.5325 147.406 85.2763 151.15 85.2763 155.771C85.2763 160.393 81.5325 164.136 76.9111 164.136Z" fill="#1FC9AA"/>
<path d="M119.582 106.213H41.5067C40.6624 106.213 39.9736 105.525 39.9736 104.68V104.08C39.9736 103.236 40.6624 102.547 41.5067 102.547H119.571C120.415 102.547 121.104 103.236 121.104 104.08V104.68C121.115 105.525 120.426 106.213 119.582 106.213Z" fill="#D2D2D2"/>
<path d="M119.582 113.589H41.5067C40.6624 113.589 39.9736 112.901 39.9736 112.056V111.456C39.9736 110.612 40.6624 109.923 41.5067 109.923H119.571C120.415 109.923 121.104 110.612 121.104 111.456V112.056C121.115 112.901 120.426 113.589 119.582 113.589Z" fill="#D2D2D2"/>
<path d="M119.582 120.967H41.5067C40.6624 120.967 39.9736 120.278 39.9736 119.433V118.834C39.9736 117.989 40.6624 117.301 41.5067 117.301H119.571C120.415 117.301 121.104 117.989 121.104 118.834V119.433C121.115 120.278 120.426 120.967 119.582 120.967Z" fill="#D2D2D2"/>
<path d="M119.582 128.343H41.5067C40.6624 128.343 39.9736 127.654 39.9736 126.81V126.21C39.9736 125.366 40.6624 124.677 41.5067 124.677H119.571C120.415 124.677 121.104 125.366 121.104 126.21V126.81C121.115 127.654 120.426 128.343 119.582 128.343Z" fill="#D2D2D2"/>
<path d="M89.2315 135.719H41.1845C40.518 135.719 39.9736 135.174 39.9736 134.508V133.264C39.9736 132.597 40.518 132.053 41.1845 132.053H89.2315C89.8981 132.053 90.4424 132.597 90.4424 133.264V134.508C90.4313 135.174 89.8981 135.719 89.2315 135.719Z" fill="#D2D2D2"/>
<path d="M119.582 179.311H41.5067C40.6624 179.311 39.9736 178.623 39.9736 177.778V177.178C39.9736 176.334 40.6624 175.645 41.5067 175.645H119.571C120.415 175.645 121.104 176.334 121.104 177.178V177.778C121.115 178.623 120.426 179.311 119.582 179.311Z" fill="#D2D2D2"/>
<path d="M119.582 186.687H41.5067C40.6624 186.687 39.9736 185.998 39.9736 185.154V184.554C39.9736 183.71 40.6624 183.021 41.5067 183.021H119.571C120.415 183.021 121.104 183.71 121.104 184.554V185.154C121.115 185.998 120.426 186.687 119.582 186.687Z" fill="#D2D2D2"/>
<path d="M119.582 194.064H41.5067C40.6624 194.064 39.9736 193.376 39.9736 192.531V191.931C39.9736 191.087 40.6624 190.398 41.5067 190.398H119.571C120.415 190.398 121.104 191.087 121.104 191.931V192.531C121.115 193.376 120.426 194.064 119.582 194.064Z" fill="#D2D2D2"/>
<path d="M119.582 201.441H41.5067C40.6624 201.441 39.9736 200.752 39.9736 199.908V199.308C39.9736 198.463 40.6624 197.775 41.5067 197.775H119.571C120.415 197.775 121.104 198.463 121.104 199.308V199.908C121.115 200.752 120.426 201.441 119.582 201.441Z" fill="#D2D2D2"/>
<path d="M89.2315 208.817H41.1845C40.518 208.817 39.9736 208.272 39.9736 207.606V206.362C39.9736 205.695 40.518 205.151 41.1845 205.151H89.2315C89.8981 205.151 90.4424 205.695 90.4424 206.362V207.606C90.4313 208.272 89.8981 208.817 89.2315 208.817Z" fill="#D2D2D2"/>
<path opacity="0.1" d="M31.6077 286.459V21.2396C31.6077 9.89722 40.806 0.709961 52.1373 0.709961H20.9984C9.65601 0.709961 0.46875 9.89722 0.46875 21.2396V286.459C0.46875 297.802 9.65601 306.989 20.9984 306.989H52.1373C40.806 307 31.6077 297.802 31.6077 286.459Z" fill="#BDCBD7"/>
<path d="M102.629 155.504H248.192C255.035 155.504 260.634 149.905 260.634 143.062V51.4005C260.634 44.5573 255.035 38.9583 248.192 38.9583H102.629C95.7853 38.9583 90.1863 44.5573 90.1863 51.4005V143.073C90.1974 149.916 95.7853 155.504 102.629 155.504Z" fill="#407BFF"/>
<path d="M264.6 37.6251C264.889 37.6251 265.166 37.514 265.389 37.303L267.377 35.3144C267.81 34.8812 267.81 34.1813 267.377 33.748C266.944 33.3148 266.244 33.3148 265.811 33.748L263.822 35.7366C263.389 36.1698 263.389 36.8697 263.822 37.303C264.033 37.5251 264.322 37.6251 264.6 37.6251Z" fill="black"/>
<path d="M267.599 44.6017H270.42C271.031 44.6017 271.531 44.1018 271.531 43.4908C271.531 42.8798 271.031 42.3799 270.42 42.3799H267.599C266.988 42.3799 266.488 42.8798 266.488 43.4908C266.488 44.1018 266.988 44.6017 267.599 44.6017Z" fill="black"/>
<path d="M257.533 34.6257C258.111 34.6257 258.599 34.1813 258.644 33.5925L258.844 30.7819C258.888 30.1709 258.422 29.6377 257.811 29.5933C257.188 29.5488 256.666 30.0154 256.622 30.6264L256.422 33.437C256.378 34.048 256.844 34.5813 257.455 34.6257C257.477 34.6257 257.511 34.6257 257.533 34.6257Z" fill="black"/>
<path d="M162.973 143.529L118.292 188.221V143.529H162.973Z" fill="#407BFF"/>
<path d="M141.975 68.2773C141.975 70.7853 143.811 72.5493 146.223 72.5493C148.083 72.5493 149.595 71.5653 150.159 69.8373H148.227C147.831 70.6533 147.111 71.0493 146.211 71.0493C144.747 71.0493 143.703 69.9693 143.703 68.2773C143.703 66.5733 144.747 65.5053 146.211 65.5053C147.111 65.5053 147.831 65.9013 148.227 66.7053H150.159C149.595 64.9893 148.083 63.9933 146.223 63.9933C143.811 63.9933 141.975 65.7693 141.975 68.2773ZM158.014 69.1533C158.014 67.0533 156.514 65.7213 154.594 65.7213C152.674 65.7213 151.174 67.0533 151.174 69.1533C151.174 71.2413 152.626 72.5853 154.546 72.5853C156.478 72.5853 158.014 71.2413 158.014 69.1533ZM152.878 69.1533C152.878 67.8213 153.682 67.1853 154.57 67.1853C155.458 67.1853 156.286 67.8213 156.286 69.1533C156.286 70.4733 155.434 71.1213 154.546 71.1213C153.646 71.1213 152.878 70.4733 152.878 69.1533ZM163.902 72.4773H165.582V68.5773C165.582 66.7413 164.478 65.7333 162.93 65.7333C162.078 65.7333 161.358 66.0933 160.926 66.6573V65.8293H159.246V72.4773H160.926V68.8053C160.926 67.7373 161.514 67.1613 162.426 67.1613C163.314 67.1613 163.902 67.7373 163.902 68.8053V72.4773ZM167.36 72.4773H169.064V67.2093H170.228V65.8293H169.064V65.5533C169.064 64.8093 169.34 64.5453 170.156 64.5693V63.1533C168.284 63.1053 167.36 63.8613 167.36 65.4933V65.8293H166.604V67.2093H167.36V72.4773ZM171.316 72.4773H172.996V65.8293H171.316V72.4773ZM172.168 65.0373C172.756 65.0373 173.2 64.6053 173.2 64.0533C173.2 63.5013 172.756 63.0693 172.168 63.0693C171.568 63.0693 171.136 63.5013 171.136 64.0533C171.136 64.6053 171.568 65.0373 172.168 65.0373ZM176.336 69.1653C176.336 67.8813 176.936 67.4973 177.932 67.4973H178.376V65.7333C177.452 65.7333 176.756 66.1773 176.336 66.8613V65.8293H174.656V72.4773H176.336V69.1653ZM188.808 72.4773H190.488V68.5773C190.488 66.7413 189.36 65.7333 187.764 65.7333C186.792 65.7333 185.916 66.2493 185.484 67.0053C185.028 66.1773 184.176 65.7333 183.144 65.7333C182.316 65.7333 181.608 66.0813 181.188 66.6333V65.8293H179.508V72.4773H181.188V68.8053C181.188 67.7493 181.776 67.1973 182.688 67.1973C183.576 67.1973 184.164 67.7493 184.164 68.8053V72.4773H185.844V68.8053C185.844 67.7493 186.432 67.1973 187.332 67.1973C188.22 67.1973 188.808 67.7493 188.808 68.8053V72.4773ZM194.938 67.1013C195.802 67.1013 196.498 67.6533 196.522 68.5293H193.366C193.498 67.6173 194.134 67.1013 194.938 67.1013ZM198.094 70.3893H196.282C196.066 70.8333 195.67 71.1933 194.95 71.1933C194.11 71.1933 193.438 70.6413 193.354 69.6573H198.214C198.25 69.4413 198.262 69.2253 198.262 69.0093C198.262 67.0293 196.906 65.7213 194.986 65.7213C193.018 65.7213 191.65 67.0533 191.65 69.1533C191.65 71.2413 193.054 72.5853 194.986 72.5853C196.63 72.5853 197.734 71.6133 198.094 70.3893ZM199.056 69.1293C199.056 71.2053 200.4 72.5853 202.092 72.5853C203.136 72.5853 203.88 72.1053 204.276 71.4933V72.4773H205.98V63.5973H204.276V66.7533C203.82 66.1293 202.98 65.7213 202.104 65.7213C200.4 65.7213 199.056 67.0533 199.056 69.1293ZM204.288 69.1533C204.288 70.4133 203.448 71.1093 202.524 71.1093C201.624 71.1093 200.772 70.3893 200.772 69.1293C200.772 67.8693 201.624 67.1973 202.524 67.1973C203.448 67.1973 204.288 67.8933 204.288 69.1533Z" fill="white"/>
<path d="M147.867 94.0959H142.155V95.5119H145.899L142.155 101.176V102.472H147.867V101.056H144.099L147.867 95.3919V94.0959ZM155.717 99.1479C155.717 97.0479 154.217 95.7159 152.297 95.7159C150.377 95.7159 148.877 97.0479 148.877 99.1479C148.877 101.236 150.329 102.58 152.249 102.58C154.181 102.58 155.717 101.236 155.717 99.1479ZM150.581 99.1479C150.581 97.8159 151.385 97.1799 152.273 97.1799C153.161 97.1799 153.989 97.8159 153.989 99.1479C153.989 100.468 153.137 101.116 152.249 101.116C151.349 101.116 150.581 100.468 150.581 99.1479ZM163.369 99.1479C163.369 97.0479 161.869 95.7159 159.949 95.7159C158.029 95.7159 156.529 97.0479 156.529 99.1479C156.529 101.236 157.981 102.58 159.901 102.58C161.833 102.58 163.369 101.236 163.369 99.1479ZM158.233 99.1479C158.233 97.8159 159.037 97.1799 159.925 97.1799C160.813 97.1799 161.641 97.8159 161.641 99.1479C161.641 100.468 160.789 101.116 159.901 101.116C159.001 101.116 158.233 100.468 158.233 99.1479ZM173.901 102.472H175.581V98.5719C175.581 96.7359 174.453 95.7279 172.857 95.7279C171.885 95.7279 171.009 96.2439 170.577 96.9999C170.121 96.1719 169.269 95.7279 168.237 95.7279C167.409 95.7279 166.701 96.0759 166.281 96.6279V95.8239H164.601V102.472H166.281V98.7999C166.281 97.7439 166.869 97.1919 167.781 97.1919C168.669 97.1919 169.257 97.7439 169.257 98.7999V102.472H170.937V98.7999C170.937 97.7439 171.525 97.1919 172.425 97.1919C173.313 97.1919 173.901 97.7439 173.901 98.7999V102.472ZM179.627 98.2719C179.627 100.78 181.463 102.544 183.875 102.544C185.735 102.544 187.247 101.56 187.811 99.8319H185.879C185.483 100.648 184.763 101.044 183.863 101.044C182.399 101.044 181.355 99.9639 181.355 98.2719C181.355 96.5679 182.399 95.4999 183.863 95.4999C184.763 95.4999 185.483 95.8959 185.879 96.6999H187.811C187.247 94.9839 185.735 93.9879 183.875 93.9879C181.463 93.9879 179.627 95.7639 179.627 98.2719ZM188.814 99.1239C188.814 101.2 190.158 102.58 191.838 102.58C192.894 102.58 193.65 102.076 194.046 101.5V102.472H195.738V95.8239H194.046V96.7719C193.65 96.2199 192.918 95.7159 191.85 95.7159C190.158 95.7159 188.814 97.0479 188.814 99.1239ZM194.046 99.1479C194.046 100.408 193.206 101.104 192.282 101.104C191.382 101.104 190.53 100.384 190.53 99.1239C190.53 97.8639 191.382 97.1919 192.282 97.1919C193.206 97.1919 194.046 97.8879 194.046 99.1479ZM197.379 102.472H199.059V93.5919H197.379V102.472ZM200.719 102.472H202.399V93.5919H200.719V102.472Z" fill="white"/>
<path d="M142.215 124.912H143.859C143.919 124.36 144.267 123.832 145.083 123.832C145.851 123.832 146.271 124.24 146.271 124.924C146.271 125.788 145.551 126.064 144.567 126.064H144.219V127.444H144.567C145.815 127.444 146.439 127.804 146.439 128.788C146.439 129.484 146.007 130.012 145.167 130.012C144.267 130.012 143.763 129.472 143.727 128.716H142.095C142.167 130.552 143.475 131.416 145.203 131.416C147.039 131.416 148.047 130.36 148.047 128.932C148.047 127.744 147.459 127.024 146.571 126.748V126.7C147.207 126.484 147.891 125.812 147.891 124.72C147.891 123.424 146.931 122.404 145.131 122.404C143.451 122.404 142.299 123.292 142.215 124.912ZM149.374 126.868C149.374 129.424 150.142 131.332 152.614 131.332C155.086 131.332 155.854 129.424 155.854 126.868C155.854 124.336 155.086 122.44 152.614 122.44C150.142 122.44 149.374 124.336 149.374 126.868ZM154.198 126.868C154.198 128.428 154.03 129.772 152.614 129.772C151.198 129.772 151.03 128.428 151.03 126.868C151.03 125.368 151.198 124 152.614 124C154.03 124 154.198 125.368 154.198 126.868ZM169.483 131.356H171.163V127.456C171.163 125.62 170.035 124.612 168.439 124.612C167.467 124.612 166.591 125.128 166.159 125.884C165.703 125.056 164.851 124.612 163.819 124.612C162.991 124.612 162.283 124.96 161.863 125.512V124.708H160.183V131.356H161.863V127.684C161.863 126.628 162.451 126.076 163.363 126.076C164.251 126.076 164.839 126.628 164.839 127.684V131.356H166.519V127.684C166.519 126.628 167.107 126.076 168.007 126.076C168.895 126.076 169.483 126.628 169.483 127.684V131.356ZM172.758 131.356H174.438V124.708H172.758V131.356ZM173.61 123.916C174.198 123.916 174.642 123.484 174.642 122.932C174.642 122.38 174.198 121.948 173.61 121.948C173.01 121.948 172.578 122.38 172.578 122.932C172.578 123.484 173.01 123.916 173.61 123.916ZM180.754 131.356H182.434V127.456C182.434 125.62 181.33 124.612 179.782 124.612C178.93 124.612 178.21 124.972 177.778 125.536V124.708H176.098V131.356H177.778V127.684C177.778 126.616 178.366 126.04 179.278 126.04C180.166 126.04 180.754 126.616 180.754 127.684V131.356Z" fill="white"/>
<g clip-path="url(#clip0_2911_9960)">
<path d="M125.359 123.962C125.014 124.129 124.87 124.545 125.037 124.89C125.493 125.832 125.724 126.848 125.724 127.909C125.724 131.738 122.609 134.853 118.781 134.853C114.953 134.853 111.838 131.738 111.838 127.909C111.838 124.081 114.953 120.966 118.781 120.966C120.368 120.966 121.858 121.484 123.092 122.464C123.39 122.703 123.828 122.653 124.067 122.353C124.306 122.053 124.256 121.616 123.955 121.377C122.495 120.217 120.657 119.578 118.781 119.578C114.187 119.578 110.449 123.316 110.449 127.909C110.449 132.503 114.187 136.241 118.781 136.241C123.375 136.241 127.113 132.503 127.113 127.909C127.113 126.636 126.835 125.416 126.287 124.285C126.12 123.939 125.703 123.795 125.359 123.962Z" fill="white"/>
<path d="M118.779 122.354C118.396 122.354 118.085 122.665 118.085 123.048V127.909C118.085 128.292 118.396 128.603 118.779 128.603H122.251C122.634 128.603 122.945 128.292 122.945 127.909C122.945 127.525 122.634 127.214 122.251 127.214H119.474V123.048C119.474 122.665 119.162 122.354 118.779 122.354Z" fill="white"/>
</g>
<circle cx="118.781" cy="99.0258" r="9.44277" fill="#10195D"/>
<g clip-path="url(#clip1_2911_9960)">
<path d="M120.463 102.898C119.905 102.821 119.373 102.618 118.915 102.305C118.383 101.953 117.895 101.545 117.459 101.089C116.924 100.545 116.378 100.008 115.906 99.4073C115.534 98.9253 115.201 98.4199 115.02 97.8391C114.894 97.4698 114.861 97.0772 114.924 96.6939C115.005 96.236 115.26 95.8636 115.609 95.5518C115.753 95.4297 115.909 95.3209 116.076 95.2276C116.279 95.1055 116.538 95.1094 116.736 95.2377C117.202 95.5005 117.557 95.9071 117.746 96.3891C117.812 96.5275 117.793 96.6892 117.698 96.8105C117.581 96.9606 117.459 97.1068 117.341 97.2568C117.237 97.3898 117.13 97.5204 117.037 97.6603C116.94 97.7909 116.942 97.9666 117.041 98.0957C117.274 98.4067 117.5 98.727 117.753 99.0232C118.212 99.5628 118.719 100.064 119.27 100.518C119.393 100.619 119.524 100.707 119.655 100.798C119.769 100.882 119.924 100.895 120.052 100.832C120.191 100.766 120.328 100.694 120.46 100.615C120.643 100.504 120.823 100.389 121.003 100.28C121.154 100.188 121.347 100.184 121.502 100.27C121.965 100.49 122.344 100.843 122.581 101.281C122.717 101.505 122.693 101.786 122.522 101.986C122.07 102.551 121.492 102.899 120.724 102.915C120.636 102.913 120.549 102.908 120.463 102.898Z" fill="white"/>
</g>
<circle cx="118.781" cy="67.9201" r="9.44277" fill="#1FC9AA"/>
<path d="M112.671 68.2508L116.856 71.8081L124.891 64.9971L123.737 64.0317L116.856 69.864L113.808 67.2786L112.671 68.2508Z" fill="white"/>
<defs>
<linearGradient id="paint0_linear_2911_9960" x1="106.707" y1="9.90333" x2="53.3001" y2="303.764" gradientUnits="userSpaceOnUse">
<stop offset="0.1781" stop-color="#20215B"/>
<stop offset="0.6516" stop-color="#1B0C36"/>
</linearGradient>
<clipPath id="clip0_2911_9960">
<rect width="16.6637" height="16.6637" fill="white" transform="translate(110.449 119.578)"/>
</clipPath>
<clipPath id="clip1_2911_9960">
<rect width="7.7764" height="7.7764" fill="white" transform="translate(114.893 95.1377)"/>
</clipPath>
</defs>
</svg>
