<svg width="386" height="321" viewBox="0 0 386 321" fill="none" xmlns="http://www.w3.org/2000/svg">
<path d="M0.947266 319.649L385.636 319.598" stroke="black" stroke-width="1.133" stroke-miterlimit="10"/>
<path d="M229.56 319.258H107.242C94.9698 319.258 85.0225 309.311 85.0225 297.038V22.5597C85.0225 10.299 94.9698 0.351562 107.242 0.351562H229.56C241.833 0.351562 251.768 10.299 251.768 22.5597V297.038C251.768 309.311 241.821 319.258 229.56 319.258Z" fill="url(#paint0_linear_2911_10002)"/>
<path d="M234.546 311.08H102.951C95.6063 311.08 89.6494 305.123 89.6494 297.778V21.8308C89.6494 14.4859 95.6063 8.52905 102.951 8.52905H234.546C241.891 8.52905 247.848 14.4859 247.848 21.8308V297.778C247.848 305.123 241.891 311.08 234.546 311.08Z" fill="white"/>
<path d="M170.466 15.2613C170.466 13.5263 169.055 12.1267 167.332 12.1267C165.597 12.1267 164.197 13.5379 164.197 15.2613C164.197 16.9963 165.608 18.3959 167.332 18.3959C169.067 18.4074 170.466 16.9963 170.466 15.2613Z" fill="#231854"/>
<path opacity="0.1" d="M117.444 297.871V21.7269C117.444 9.91725 127.021 0.351562 138.819 0.351562H106.398C94.5881 0.351562 85.0225 9.91725 85.0225 21.7269V297.871C85.0225 309.681 94.5881 319.246 106.398 319.246H138.819C127.021 319.258 117.444 309.681 117.444 297.871Z" fill="#BDCBD7"/>
<g clip-path="url(#clip0_2911_10002)">
<path d="M206.719 191.203H131.044C128.622 191.203 126.663 189.243 126.663 186.827V140.066C126.663 137.642 128.622 135.682 131.044 135.682H206.727C209.142 135.682 211.109 137.642 211.109 140.066V186.827C211.1 189.243 209.133 191.203 206.719 191.203Z" fill="white"/>
<path d="M199.62 154.603H139.64C138.348 154.603 137.31 153.556 137.31 152.272V144.315C137.31 143.023 138.356 141.984 139.64 141.984H199.62C200.912 141.984 201.95 143.031 201.95 144.315V152.272C201.95 153.556 200.903 154.603 199.62 154.603Z" fill="#1FC9AA"/>
<path d="M138.144 162.872H167.606" stroke="black" stroke-width="1.3" stroke-miterlimit="10" stroke-linecap="round" stroke-linejoin="round"/>
<path d="M138.144 170.052H201.104" stroke="black" stroke-width="1.3" stroke-miterlimit="10" stroke-linecap="round" stroke-linejoin="round"/>
<path d="M138.144 177.967H201.104" stroke="black" stroke-width="1.3" stroke-miterlimit="10" stroke-linecap="round" stroke-linejoin="round"/>
</g>
<path d="M250.891 289.52H207.158C204.229 289.52 201.847 287.145 201.847 284.206V246.253C201.847 243.323 204.229 240.939 207.158 240.939H250.891C253.828 240.939 256.202 243.323 256.202 246.253V284.206C256.21 287.145 253.828 289.52 250.891 289.52Z" fill="#D2D2D2"/>
<path d="M239.799 263.112L238.014 262.8C237.804 262.026 237.493 261.276 237.097 260.577L238.141 259.095C238.519 258.548 238.461 257.807 237.989 257.335L236.92 256.266C236.441 255.803 235.7 255.752 235.161 256.139L233.68 257.184C232.981 256.779 232.232 256.468 231.458 256.266L231.155 254.438C231.045 253.79 230.49 253.31 229.833 253.302H228.293C227.628 253.302 227.056 253.782 226.938 254.438L226.627 256.224C225.852 256.434 225.103 256.746 224.405 257.141L222.923 256.148C222.376 255.769 221.636 255.828 221.164 256.299L220.095 257.369C219.624 257.84 219.557 258.581 219.944 259.129L220.987 260.611C220.583 261.31 220.272 262.059 220.07 262.834L218.286 263.146C217.629 263.263 217.149 263.828 217.149 264.501V266.017C217.149 266.682 217.629 267.255 218.286 267.373L220.07 267.684C220.28 268.459 220.592 269.209 220.987 269.908L219.944 271.39C219.565 271.937 219.624 272.678 220.095 273.15L221.164 274.219C221.636 274.691 222.376 274.758 222.923 274.371L224.405 273.326C225.103 273.731 225.852 274.042 226.627 274.244L226.938 276.03C227.056 276.686 227.62 277.166 228.293 277.166H229.825C230.49 277.166 231.062 276.686 231.18 276.03L231.492 274.244C232.266 274.034 233.015 273.722 233.714 273.326L235.161 274.345C235.708 274.724 236.449 274.665 236.92 274.194L237.989 273.124C238.461 272.653 238.528 271.912 238.141 271.364L237.097 269.865C237.501 269.167 237.812 268.417 238.014 267.642L239.799 267.331C240.455 267.213 240.935 266.649 240.935 265.975V264.459C240.935 263.794 240.455 263.23 239.799 263.112ZM229.025 269.967C226.408 269.967 224.278 267.844 224.278 265.217C224.278 262.598 226.399 260.468 229.025 260.468C231.643 260.468 233.772 262.59 233.772 265.217C233.772 265.226 233.772 265.234 233.772 265.242C233.756 267.861 231.635 269.967 229.025 269.967Z" fill="white"/>
<path d="M69.4169 93.0922C72.0857 81.9074 65.1822 70.6769 53.9975 68.0081C42.8128 65.3393 31.5822 72.2427 28.9134 83.4275C26.2446 94.6122 33.1481 105.843 44.3328 108.512C55.5175 111.18 66.748 104.277 69.4169 93.0922Z" fill="#D2D2D2"/>
<path d="M40.7783 89.2499L47.3148 94.093L58.5101 82.4766" stroke="white" stroke-width="2.1361" stroke-miterlimit="10" stroke-linecap="round" stroke-linejoin="round"/>
<path opacity="0.1" d="M168.172 207.418H51.4795V267.362H168.172V207.418Z" fill="black"/>
<path d="M170.915 203.926H54.2227V263.87H170.915V203.926Z" fill="#F2F3F4"/>
<path d="M171.518 203.926H121.024V263.87H171.518V203.926Z" fill="#176CFF"/>
<path opacity="0.5" d="M150.045 253.281C159.497 251.078 165.374 241.629 163.17 232.177C160.967 222.724 151.519 216.848 142.066 219.051C132.614 221.254 126.737 230.703 128.94 240.155C131.144 249.607 140.592 255.484 150.045 253.281Z" fill="black"/>
<path d="M153.726 251.075C162.718 247.423 167.048 237.174 163.397 228.181C159.746 219.189 149.496 214.859 140.504 218.511C131.511 222.162 127.182 232.412 130.833 241.404C134.484 250.396 144.734 254.726 153.726 251.075Z" fill="#DBDBDB"/>
<path d="M152.927 249.064C160.809 245.855 164.598 236.865 161.389 228.982C158.181 221.1 149.19 217.311 141.308 220.52C133.426 223.728 129.637 232.719 132.845 240.601C136.054 248.483 145.044 252.272 152.927 249.064Z" fill="white"/>
<path opacity="0.5" d="M132.515 235.821C132.515 227.314 139.411 220.412 147.924 220.412C152.504 220.412 156.619 222.413 159.444 225.59C156.638 221.821 152.146 219.386 147.087 219.386C138.58 219.386 131.678 226.283 131.678 234.796C131.678 238.722 133.15 242.302 135.566 245.027C133.653 242.453 132.515 239.269 132.515 235.821Z" fill="#EAEAEA"/>
<g opacity="0.5">
<path opacity="0.5" d="M145.909 244.688C145.374 244.688 144.877 244.411 144.594 243.958L139.208 235.363C138.755 234.64 138.975 233.683 139.699 233.224C140.423 232.771 141.385 232.991 141.838 233.715L145.853 240.126L153.277 227.234C153.705 226.491 154.655 226.24 155.398 226.661C156.14 227.089 156.398 228.039 155.97 228.782L147.262 243.914C146.991 244.386 146.494 244.682 145.947 244.688C145.928 244.688 145.916 244.688 145.909 244.688Z" fill="#EAEAEA"/>
</g>
<path d="M146.472 244.034C145.937 244.034 145.44 243.757 145.157 243.304L139.771 234.709C139.318 233.985 139.538 233.029 140.261 232.57C140.985 232.117 141.948 232.337 142.401 233.06L146.415 239.472L153.84 226.58C154.268 225.837 155.218 225.585 155.96 226.007C156.703 226.435 156.961 227.385 156.533 228.127L147.825 243.26C147.554 243.732 147.057 244.027 146.509 244.034C146.491 244.034 146.484 244.034 146.472 244.034Z" fill="#8EC0FD"/>
<path d="M67.8684 227.672C72.5839 227.672 76.4067 223.849 76.4067 219.133C76.4067 214.418 72.5839 210.595 67.8684 210.595C63.1528 210.595 59.3301 214.418 59.3301 219.133C59.3301 223.849 63.1528 227.672 67.8684 227.672Z" fill="#176CFF"/>
<path d="M67.6378 220.342C67.3106 220.342 67.04 220.072 67.04 219.745V213.201C67.04 212.874 67.3106 212.603 67.6378 212.603C67.965 212.603 68.2355 212.874 68.2355 213.201V219.738C68.2355 220.072 67.965 220.342 67.6378 220.342Z" fill="white"/>
<path d="M66.9707 219.758C66.9707 219.399 67.2664 219.11 67.6188 219.11H72.1176C72.4762 219.11 72.7657 219.405 72.7657 219.758C72.7657 220.116 72.4699 220.406 72.1176 220.406H67.6188C67.2601 220.406 66.9707 220.11 66.9707 219.758Z" fill="white"/>
<path d="M117.224 214.893H81.3281V217.699H117.224V214.893Z" fill="#E2E2E2"/>
<path d="M117.225 220.128H81.3291V222.934H117.225V220.128Z" fill="#E2E2E2"/>
<path d="M68.1517 235.524C64.2317 235.524 61.0605 238.702 61.0605 242.615C61.0605 246.535 68.0825 258.408 68.1517 258.408C68.1894 258.408 75.2428 246.535 75.2428 242.615C75.2491 238.695 72.0716 235.524 68.1517 235.524ZM68.1517 246.145C65.8551 246.145 63.9926 244.283 63.9926 241.986C63.9926 239.689 65.8551 237.827 68.1517 237.827C70.4483 237.827 72.3107 239.689 72.3107 241.986C72.317 244.283 70.4546 246.145 68.1517 246.145Z" fill="#176CFF"/>
<path d="M117.224 243.433H81.3281V246.24H117.224V243.433Z" fill="#E2E2E2"/>
<path d="M104.584 248.669H81.3291V251.475H104.584V248.669Z" fill="#E2E2E2"/>
<rect x="111.626" y="59.3418" width="24.2901" height="24.2901" rx="5" fill="#D2D2D2"/>
<rect x="111.626" y="89.4153" width="24.2901" height="24.2901" rx="5" fill="#D2D2D2"/>
<rect x="141.7" y="59.3418" width="24.2901" height="24.2901" rx="5" fill="#D2D2D2"/>
<rect x="141.7" y="89.4153" width="24.2901" height="24.2901" rx="5" fill="#D2D2D2"/>
<rect x="171.773" y="59.3418" width="24.2901" height="24.2901" rx="5" fill="#D2D2D2"/>
<rect x="171.773" y="89.4153" width="24.2901" height="24.2901" rx="5" fill="#D2D2D2"/>
<rect x="201.847" y="59.3418" width="24.2901" height="24.2901" rx="5" fill="#1FC9AA"/>
<rect x="201.847" y="89.4153" width="24.2901" height="24.2901" rx="5" fill="#D2D2D2"/>
<path d="M119.126 44.9917V51.9917H117.756V47.4517L115.786 50.7017H115.626L113.656 47.4617V51.9917H112.276V44.9917H113.696L115.706 48.3017L117.706 44.9917H119.126ZM124.63 51.3717C124.117 51.8784 123.49 52.1317 122.75 52.1317C122.01 52.1317 121.384 51.8784 120.87 51.3717C120.364 50.8584 120.11 50.2317 120.11 49.4917C120.11 48.7517 120.364 48.1284 120.87 47.6217C121.384 47.1084 122.01 46.8517 122.75 46.8517C123.49 46.8517 124.117 47.1084 124.63 47.6217C125.144 48.1284 125.4 48.7517 125.4 49.4917C125.4 50.2317 125.144 50.8584 124.63 51.3717ZM121.78 50.4817C122.04 50.7417 122.364 50.8717 122.75 50.8717C123.137 50.8717 123.46 50.7417 123.72 50.4817C123.98 50.2217 124.11 49.8917 124.11 49.4917C124.11 49.0917 123.98 48.7617 123.72 48.5017C123.46 48.2417 123.137 48.1117 122.75 48.1117C122.364 48.1117 122.04 48.2417 121.78 48.5017C121.527 48.7617 121.4 49.0917 121.4 49.4917C121.4 49.8917 121.527 50.2217 121.78 50.4817ZM129.088 46.8517C129.634 46.8517 130.084 47.035 130.438 47.4017C130.798 47.7684 130.978 48.275 130.978 48.9217V51.9917H129.688V49.0817C129.688 48.7484 129.598 48.495 129.418 48.3217C129.238 48.1417 128.998 48.0517 128.698 48.0517C128.364 48.0517 128.098 48.155 127.898 48.3617C127.698 48.5684 127.598 48.8784 127.598 49.2917V51.9917H126.308V46.9917H127.598V47.5517C127.911 47.085 128.408 46.8517 129.088 46.8517ZM134.939 48.2317H133.809V50.3117C133.809 50.485 133.853 50.6117 133.939 50.6917C134.026 50.7717 134.153 50.8184 134.319 50.8317C134.486 50.8384 134.693 50.835 134.939 50.8217V51.9917C134.053 52.0917 133.426 52.0084 133.059 51.7417C132.699 51.475 132.519 50.9984 132.519 50.3117V48.2317H131.649V46.9917H132.519V45.9817L133.809 45.5917V46.9917H134.939V48.2317ZM138.629 46.8517C139.175 46.8517 139.625 47.035 139.979 47.4017C140.339 47.7684 140.519 48.275 140.519 48.9217V51.9917H139.229V49.0817C139.229 48.7484 139.139 48.495 138.959 48.3217C138.779 48.1417 138.539 48.0517 138.239 48.0517C137.905 48.0517 137.639 48.155 137.439 48.3617C137.239 48.5684 137.139 48.8784 137.139 49.2917V51.9917H135.849V44.9917H137.139V47.5517C137.452 47.085 137.949 46.8517 138.629 46.8517Z" fill="#1C3457"/>
<path d="M334.802 186.681C334.802 186.681 333.845 188.246 333.726 189.525C333.631 190.538 332.778 192.05 332.409 192.886C332.041 193.721 330.853 197.502 330.81 198.489C330.793 198.89 331.692 201.429 331.564 202.238C331.435 203.05 330.971 204.658 331.702 204.763C332.433 204.872 333.259 203.553 333.259 203.553C333.259 203.553 333.19 204.299 333.808 204.586C335.007 205.141 335.642 204.651 335.642 204.651C335.642 204.651 336.083 205.473 336.639 205.582C337.864 205.825 338.463 205.335 338.463 205.335C338.463 205.335 339.002 205.796 339.848 205.779C340.931 205.759 341.385 204.822 341.385 204.822C341.385 204.822 342.758 205.099 343.153 204.461C343.551 203.823 343.482 203.139 343.647 202.56C343.811 201.981 343.686 196.753 341.909 192.984C340.131 189.219 342.363 185.546 342.363 185.546L334.802 186.681Z" fill="white" stroke="#231F20" stroke-width="0.5" stroke-miterlimit="10"/>
<path d="M219.197 76.4719C219.197 76.4719 219.372 77.511 219.671 77.9286C219.671 77.9286 220.274 78.6455 220.672 79.1815C220.797 79.3525 220.902 79.5037 220.962 79.6089C221.205 80.0463 221.603 81.0821 222.482 81.97C223.358 82.8578 226.771 85.6825 226.771 85.6825L229.697 83.2031L232.735 81.8417C232.735 81.8417 231.034 74.4561 230.313 73.5354C230.24 73.4466 230.168 73.3578 230.092 73.2855C229.408 72.5653 228.591 72.3154 228.19 71.9767C228.042 71.8551 226.478 70.7304 225.922 70.8751C225.148 71.0757 224.694 71.5295 224.52 72.0458C224.52 72.0458 223.022 72.5061 222.439 73.3808C222.439 73.3808 221.044 73.759 220.632 75.0579C220.629 75.0579 219.26 75.6005 219.197 76.4719Z" fill="white" stroke="#231F20" stroke-width="0.5" stroke-miterlimit="10"/>
<path d="M325.393 301.877C325.393 301.877 326.127 306.961 326.215 307.724C326.308 308.487 334.369 307.274 334.369 307.274L335.02 301.223C335.024 301.223 326.4 301.161 325.393 301.877Z" fill="#424773"/>
<path d="M334.251 307.051C334.185 307.069 334.106 307.088 334.014 307.109C333.685 307.185 333.188 307.279 332.509 307.356C331.169 307.507 329.119 307.592 326.239 307.34C326.229 307.352 326.218 307.364 326.207 307.377C326.131 307.465 326.02 307.591 325.88 307.747C325.599 308.057 325.2 308.485 324.722 308.956C323.77 309.892 322.494 311.012 321.228 311.696L321.228 311.696C320.128 312.29 318.757 312.727 317.463 313.139C317.274 313.2 317.085 313.26 316.9 313.32C316.17 313.555 315.48 313.79 314.885 314.049C314.287 314.309 313.801 314.588 313.467 314.903L334.251 307.051ZM334.251 307.051C334.265 307.109 334.282 307.176 334.301 307.252C334.372 307.542 334.472 307.957 334.589 308.461C334.824 309.47 335.125 310.83 335.391 312.242C335.658 313.654 335.89 315.111 335.986 316.315C336.034 316.917 336.048 317.448 336.018 317.875C335.987 318.314 335.911 318.601 335.812 318.749C335.592 319.078 335.156 319.324 334.398 319.488C333.645 319.65 332.624 319.72 331.298 319.742C330.09 319.762 328.644 319.741 326.938 319.717C326.774 319.715 326.607 319.712 326.439 319.71C324.515 319.683 322.279 319.656 319.711 319.677C317.16 319.699 315.443 319.447 314.317 319.054C313.192 318.662 312.687 318.142 312.495 317.641C312.302 317.135 312.403 316.582 312.638 316.072C312.872 315.564 313.223 315.134 313.467 314.904L334.251 307.051Z" fill="#292C47" stroke="black" stroke-width="0.5"/>
<path d="M267.632 301.877C267.632 301.877 268.366 306.961 268.455 307.724C268.547 308.487 276.608 307.274 276.608 307.274L277.26 301.223C277.26 301.223 268.639 301.161 267.632 301.877Z" fill="#424773"/>
<path d="M276.278 307.116C276.36 307.096 276.431 307.076 276.491 307.059C276.505 307.115 276.521 307.179 276.539 307.252C276.61 307.542 276.711 307.957 276.828 308.461C277.062 309.47 277.363 310.83 277.63 312.242C277.897 313.654 278.128 315.111 278.224 316.315C278.273 316.917 278.287 317.448 278.256 317.875C278.225 318.314 278.149 318.601 278.05 318.749C277.832 319.076 277.4 319.312 276.641 319.461C275.887 319.61 274.865 319.664 273.537 319.674C272.632 319.682 271.588 319.668 270.398 319.654C268.12 319.625 265.313 319.59 261.946 319.677C258.346 319.771 255.768 319.59 253.942 319.255C252.111 318.919 251.061 318.433 250.494 317.935C249.941 317.451 249.84 316.954 249.912 316.53C249.988 316.087 250.26 315.695 250.495 315.472L250.495 315.472C250.644 315.331 250.911 315.177 251.298 315.015C251.679 314.855 252.153 314.696 252.697 314.539C253.784 314.223 255.127 313.916 256.51 313.609C256.714 313.564 256.919 313.519 257.123 313.473C258.305 313.212 259.49 312.95 260.536 312.683C261.756 312.372 262.815 312.047 263.463 311.696C264.731 311.012 266.008 309.892 266.96 308.956C267.438 308.485 267.838 308.057 268.118 307.747C268.259 307.591 268.369 307.465 268.445 307.377C268.456 307.365 268.467 307.352 268.476 307.341C271.426 307.622 273.478 307.537 274.802 307.378C275.474 307.297 275.958 307.197 276.278 307.116Z" fill="#292C47" stroke="black" stroke-width="0.5"/>
<path d="M335.217 305.788L335.216 305.799L325.275 306.026L325.212 305.649C325.147 305.264 325.052 304.699 324.931 303.978C324.688 302.535 324.338 300.467 323.911 297.97C323.057 292.975 321.896 286.259 320.663 279.376C319.431 272.494 318.128 265.443 316.991 259.777C316.423 256.945 315.896 254.457 315.441 252.509C314.987 250.569 314.599 249.145 314.307 248.453L314.307 248.453C313.183 245.798 309.821 234.954 306.687 224.217C305.121 218.854 303.615 213.525 302.476 209.27C301.907 207.142 301.43 205.284 301.083 203.826C300.735 202.36 300.524 201.315 300.478 200.802L300.478 200.802C300.459 200.579 300.501 200.264 300.615 199.855C300.728 199.451 300.907 198.972 301.144 198.428C301.618 197.341 302.319 196.013 303.175 194.532C304.886 191.57 307.205 188.018 309.538 184.595C311.871 181.172 314.216 177.883 315.978 175.449C316.859 174.232 317.594 173.229 318.109 172.53C318.361 172.189 318.56 171.92 318.697 171.734C318.735 171.798 318.779 171.871 318.827 171.952C319.031 172.3 319.323 172.809 319.672 173.455C320.371 174.746 321.296 176.581 322.204 178.754C324.021 183.105 325.758 188.786 325.479 194.165C325.195 199.626 325.884 205.331 326.784 211.077C327.037 212.691 327.306 214.308 327.575 215.924C328.265 220.07 328.955 224.211 329.364 228.29C329.954 234.185 331.395 243.826 332.784 253.126C332.888 253.821 332.992 254.515 333.095 255.204C334.577 265.135 335.918 274.297 336.012 277.662C336.105 281.038 335.904 288.126 335.679 294.38C335.566 297.504 335.448 300.417 335.358 302.55C335.313 303.616 335.275 304.486 335.248 305.09C335.234 305.393 335.224 305.628 335.217 305.788Z" fill="#282B3B" stroke="black" stroke-width="0.5"/>
<path d="M322.057 170.873C322.127 170.881 322.189 170.887 322.242 170.893C320.666 181.244 317.028 186.5 313.154 190.571C312.175 191.6 311.179 192.554 310.193 193.499L310.188 193.504C309.205 194.446 308.231 195.38 307.3 196.363C305.433 198.335 303.732 200.514 302.445 203.399C297.359 214.801 289.458 235.132 289.458 252.474C289.458 261.084 286.916 274.511 284.366 285.805C283.092 291.448 281.818 296.551 280.862 300.244C280.385 302.09 279.987 303.584 279.708 304.615C279.569 305.131 279.459 305.532 279.385 305.803C279.359 305.895 279.338 305.972 279.321 306.034H266.517C267.035 302.372 268.042 288.649 268.973 275.205C269.379 269.343 269.771 263.53 270.102 258.62C270.552 251.935 270.89 246.922 270.998 245.725L270.749 245.703L270.998 245.725C271.149 244.054 271.32 238.96 271.519 233.032C271.569 231.55 271.62 230.017 271.673 228.472C271.941 220.73 272.255 212.696 272.63 209.382C273.006 206.067 274.619 196.968 276.141 188.685C276.901 184.547 277.638 180.616 278.185 177.72C278.458 176.272 278.684 175.083 278.842 174.255C278.921 173.842 278.982 173.519 279.024 173.299L279.072 173.048L279.079 173.01C279.572 172.262 280.574 171.635 282.018 171.129C283.478 170.618 285.346 170.245 287.485 169.983C291.76 169.461 297.074 169.39 302.266 169.529C307.456 169.668 312.515 170.016 316.277 170.329C318.158 170.486 319.714 170.634 320.8 170.743C321.343 170.798 321.768 170.842 322.057 170.873Z" fill="#282B3B" stroke="black" stroke-width="0.5"/>
<path d="M312.436 78.82C312.321 74.144 308.746 71.5528 306.077 70.2045C306.077 70.2045 295.909 66.4098 291.222 74.144C286.535 81.8748 286.986 97.3563 292.111 99.2602C292.466 99.3917 292.838 99.5101 293.217 99.6121C293.217 99.6121 293.641 102.355 292.94 103.706C292.242 105.058 306.113 105.09 306.113 105.09C306.113 105.09 307.239 97.741 309.375 91.5326C309.375 91.5294 309.378 91.5261 309.378 91.5195C311.175 87.2545 312.521 82.3681 312.436 78.82Z" fill="white" stroke="#231F20" stroke-width="0.5" stroke-miterlimit="10"/>
<path d="M309.372 91.5327C309.372 91.5327 308.414 93.1111 304.507 92.4995C300.6 91.8879 295.831 86.6923 294.201 86.1234C292.569 85.5546 292.556 84.5944 292.556 84.5944L291.535 86.084L289.801 86.1925C289.801 86.1925 291.38 81.5461 288.997 79.652C286.614 77.7579 291.473 64.6112 304.007 68.988C304.007 68.988 313.634 71.6384 313.282 77.1068C312.927 82.5786 311.525 88.81 309.372 91.5327Z" fill="black"/>
<path d="M292.115 103.541C292.115 103.541 292.158 100.96 293.33 100.714C294.502 100.467 306.256 99.3357 307.694 99.9013V102.907C307.694 102.907 304.926 104.61 292.115 103.541Z" fill="#9ABFFE"/>
<path d="M292.81 82.6049C293.03 81.6874 295.364 79.0666 296.259 81.8749C297.155 84.6831 294.91 88.4581 293.656 88.1326C292.405 87.8103 292.257 84.9297 292.81 82.6049Z" fill="white" stroke="#231F20" stroke-width="0.5" stroke-miterlimit="10"/>
<path d="M342.116 153.403C342 151.384 330.862 110.066 327.623 108.593C321.991 106.051 307.693 102.907 307.693 102.907L292.114 103.542C292.114 103.542 280.732 106.39 272.671 107.452C267.628 107.741 253.478 102.23 253.478 102.23C253.478 102.23 247.03 97.544 245.48 95.8669C242.001 92.1018 233.133 80.346 232.498 80.5598C231.77 80.8031 223.575 85.2128 224.335 86.0447C225.003 87.5047 230.483 94.282 237.169 102.181C239.058 104.41 245.7 110.872 247.274 112.266C253.156 117.475 274.708 127.471 277.164 129.372C277.164 129.372 278.77 148.572 278.411 152.186C278.178 154.541 272.862 200.002 273.03 201.258C273.198 202.511 299.764 204.106 310.395 202.935C321.027 201.764 327.264 199.929 327.264 199.929C327.264 199.929 321.445 166.592 321.702 162.613C322.113 156.228 323.686 143.969 324.486 137.954C326.481 144.712 328.508 151.66 329.628 155.734C330.48 158.832 332.541 188.407 332.906 189.598C333.271 190.788 343.468 192.419 343.468 192.419C343.468 192.419 342.231 155.422 342.116 153.403Z" fill="#2F7BFF" stroke="#231F20" stroke-width="0.5" stroke-miterlimit="10"/>
<path d="M308.974 71.1152C308.974 71.1152 321.939 72.128 309.372 91.5325L308.974 71.1152Z" fill="black"/>
<path d="M224.284 71.7859L220.723 67.1888L221.763 66.2812L225.923 70.8718L224.284 71.5722" fill="white"/>
<path d="M224.284 71.7859L220.723 67.1888L221.763 66.2812L225.923 70.8718L224.284 71.5722" stroke="#231F20" stroke-width="0.5" stroke-miterlimit="10"/>
<defs>
<linearGradient id="paint0_linear_2911_10002" x1="195.637" y1="9.92361" x2="140.03" y2="315.889" gradientUnits="userSpaceOnUse">
<stop offset="0.1781" stop-color="#20215B"/>
<stop offset="0.6516" stop-color="#1B0C36"/>
</linearGradient>
<clipPath id="clip0_2911_10002">
<rect width="84.4371" height="55.5203" fill="white" transform="translate(126.663 135.682)"/>
</clipPath>
</defs>
</svg>
