<svg width="414" height="398" viewBox="0 0 414 398" fill="none" xmlns="http://www.w3.org/2000/svg">
<g clip-path="url(#clip0_4299_17938)">
<path d="M233.67 395.097C217.505 387.446 211.064 369.256 208.785 352.313C208.401 349.5 207.594 346.575 208.513 343.875C209.432 341.174 212.264 338.971 214.983 339.73C217.243 340.359 218.565 342.628 220.074 344.419C222.082 346.835 224.736 348.63 227.725 349.594C229.675 350.222 231.991 350.419 233.595 349.144C235.789 347.391 235.47 343.997 235.02 341.202C234.101 336.02 233.201 330.839 232.32 325.657C231.684 322.892 231.497 320.042 231.766 317.218C232.179 314.405 233.689 311.592 236.22 310.43C238.752 309.267 242.305 310.214 243.327 312.858C243.629 313.995 243.854 315.151 244.002 316.318C244.274 317.471 245.034 318.662 246.187 318.803C247.34 318.943 248.344 317.959 249.047 316.993C251.447 313.683 252.797 309.717 254.016 305.788C255.235 301.86 256.379 297.856 258.479 294.33C260.58 290.805 263.786 287.767 267.753 286.829C271.719 285.892 276.407 287.673 278.066 291.433C279.726 295.193 278.123 299.591 276.191 303.21C273.258 308.569 269.566 313.476 265.23 317.781C264.366 318.469 263.742 319.415 263.449 320.481C263.158 322.45 265.24 324.006 267.199 324.306C269.393 324.644 271.625 324.044 273.847 323.931C276.069 323.819 278.591 324.381 279.773 326.304C281.395 328.966 279.51 332.37 277.494 334.742C273.445 339.468 268.615 343.464 263.214 346.556C261.283 347.653 259.229 348.685 257.814 350.41C256.398 352.135 255.826 354.817 257.157 356.617C258.489 358.417 261.18 358.614 263.261 357.845C265.343 357.076 267.077 355.586 269 354.47C272.6 352.37 277.607 351.788 280.636 354.695C281.58 355.711 282.276 356.933 282.668 358.264C283.06 359.595 283.138 360.999 282.895 362.365C282.396 365.086 281.354 367.679 279.829 369.988C274.973 378.335 267.991 385.245 259.595 390.015C251.203 394.61 243.084 396.851 233.679 395.107" fill="#F5F5F5"/>
<path d="M236.23 383.79C237.474 374.141 239.271 364.57 241.612 355.127L243.413 347.692C244.003 345.244 244.594 342.825 245.288 340.5C246.69 336.037 248.336 331.655 250.22 327.373C251.992 323.266 253.82 319.422 255.555 315.85C257.29 312.277 258.987 308.977 260.656 306.042C263.261 301.387 266.233 296.948 269.544 292.765C270.716 291.284 271.663 290.168 272.31 289.418C272.62 289.062 272.873 288.78 273.051 288.565C273.229 288.349 273.314 288.283 273.323 288.293C273.255 288.401 273.18 288.504 273.098 288.602L272.385 289.484C271.767 290.253 270.848 291.359 269.704 292.887C266.465 297.111 263.547 301.571 260.974 306.23C259.334 309.174 257.665 312.474 255.939 316.047C254.214 319.619 252.414 323.463 250.661 327.57C248.793 331.852 247.166 336.234 245.785 340.697C245.063 343.013 244.482 345.385 243.91 347.86L242.109 355.305C239.773 364.729 237.967 374.277 236.699 383.903" fill="#E0E0E0"/>
<path d="M245.448 340.462C245.245 340.097 245.084 339.71 244.97 339.309C244.689 338.568 244.323 337.433 243.892 336.111C243.029 333.392 241.96 329.595 240.798 325.413C239.635 321.231 238.519 317.453 237.61 314.762C237.16 313.411 236.784 312.314 236.522 311.574C236.364 311.189 236.242 310.79 236.156 310.383C236.382 310.732 236.568 311.107 236.709 311.499C237.038 312.221 237.46 313.299 237.957 314.63C238.96 317.312 240.132 321.072 241.304 325.272C242.476 329.473 243.46 333.148 244.248 335.999C244.614 337.293 244.914 338.38 245.186 339.252C245.308 339.647 245.396 340.052 245.448 340.462Z" fill="#E0E0E0"/>
<path d="M280.277 327.654C279.824 327.843 279.353 327.985 278.871 328.076C277.933 328.311 276.649 328.648 275.036 329.117C271.801 330.055 267.385 331.442 262.575 333.224C257.765 335.005 253.48 336.815 250.386 338.203C248.848 338.887 247.62 339.478 246.767 339.881C246.338 340.114 245.889 340.309 245.426 340.462C245.814 340.163 246.232 339.906 246.673 339.693C247.498 339.234 248.707 338.596 250.226 337.818C253.255 336.337 257.531 334.471 262.35 332.68C266.463 331.141 270.654 329.817 274.905 328.714C276.536 328.283 277.868 328.001 278.796 327.823C279.283 327.721 279.779 327.664 280.277 327.654Z" fill="#E0E0E0"/>
<path d="M236.556 383.068C236.436 382.945 236.329 382.81 236.237 382.665L235.403 381.474C234.681 380.424 233.677 378.895 232.468 376.983C230.03 373.157 226.842 367.766 223.401 361.765C219.96 355.764 216.838 350.354 214.465 346.491L211.652 341.906L210.902 340.659C210.803 340.521 210.724 340.369 210.668 340.209C210.668 340.209 210.79 340.331 210.987 340.603C211.184 340.875 211.493 341.315 211.821 341.803C212.543 342.844 213.546 344.372 214.765 346.294C217.194 350.12 220.391 355.502 223.832 361.503C227.273 367.503 230.396 372.913 232.758 376.786L235.571 381.361C235.871 381.858 236.125 382.299 236.321 382.608C236.422 382.749 236.501 382.904 236.556 383.068Z" fill="#E0E0E0"/>
<path d="M281.732 359.58C281.6 359.695 281.451 359.79 281.291 359.861L279.988 360.555L275.15 363.077C271.062 365.215 265.455 368.225 259.266 371.516C253.078 374.807 247.443 377.817 243.327 379.861C241.264 380.883 239.576 381.736 238.414 382.233L237.007 382.852C236.853 382.934 236.689 382.997 236.52 383.04C236.654 382.927 236.802 382.832 236.96 382.758L238.273 382.064L243.111 379.533C247.19 377.404 252.797 374.395 258.985 371.094C265.173 367.794 270.818 364.803 274.925 362.759C276.988 361.737 278.675 360.883 279.838 360.386L281.188 359.768C281.359 359.678 281.542 359.614 281.732 359.58Z" fill="#E0E0E0"/>
<path d="M116.429 193.836C116.429 193.836 105.29 195.383 111.544 219.78C117.798 244.177 123.105 256.76 123.105 256.76C123.105 256.76 123.94 262.283 119.486 262.114C115.032 261.945 105.946 258.364 102.862 263.136C99.6737 268.124 102.468 274.125 109.425 280.417C116.382 286.708 131.216 301.044 132.547 302.348C133.878 303.651 134.853 306.333 131.797 306.698C128.74 307.064 107.062 304.523 106.481 314.884C105.9 325.244 128.243 339.571 130.653 341.184C133.063 342.797 133.466 344.053 132.903 345.46C132.341 346.866 125.158 345.319 118.961 344.841C112.763 344.363 105.487 344.916 105.646 350.917C105.806 356.918 117.545 372.107 151.768 383.396L167.98 387.587L179.953 375.792C204.05 348.985 206.685 329.98 203.844 324.691C201.003 319.403 194.468 322.544 189.273 326.032C184.079 329.52 178.641 334.471 177.478 333.533C176.315 332.595 176.015 331.302 177.309 328.704C178.603 326.107 190.877 302.573 185.213 293.871C179.55 285.17 161.998 298.128 159.185 299.319C156.372 300.51 155.866 297.678 156.372 295.916C156.878 294.153 162.598 274.35 165.542 265.396C168.486 256.441 167.924 249.859 162.673 247.121C157.61 244.487 151.525 252.138 147.736 254.5C143.948 256.863 141.942 251.688 141.942 251.688C141.942 251.688 140.292 238.139 133.597 213.854C126.902 189.57 116.223 193.92 116.223 193.92" fill="#EBEBEB"/>
<path d="M167.973 391.619C163.125 373.804 155.033 341.925 147.954 314.556C140.875 287.186 134.443 262.508 129.68 244.637C127.298 235.711 125.367 228.491 124.054 223.475C123.398 220.99 122.882 219.049 122.526 217.718L122.132 216.217C122.048 215.88 122.02 215.702 122.02 215.702C122.02 215.702 122.085 215.861 122.188 216.199C122.291 216.536 122.432 217.052 122.62 217.689C123.004 219.021 123.557 220.943 124.251 223.418C125.658 228.397 127.645 235.607 130.064 244.534C134.912 262.349 141.41 287.111 148.489 314.424C155.568 341.738 163.594 373.645 168.357 391.516" fill="#E0E0E0"/>
<path d="M115.371 268.705C115.746 268.86 116.104 269.051 116.44 269.277C117.106 269.671 118.062 270.271 119.253 271.021C121.588 272.531 124.766 274.697 128.226 277.144L137.058 283.445L139.749 285.32C140.089 285.531 140.403 285.779 140.687 286.061C140.309 285.908 139.947 285.716 139.609 285.489C138.943 285.095 137.987 284.495 136.796 283.735C134.48 282.207 131.33 279.985 127.87 277.547L118.99 271.312L116.29 269.436C115.958 269.226 115.65 268.981 115.371 268.705Z" fill="#E0E0E0"/>
<path d="M142.042 285.283C141.92 285.208 146.092 278.466 151.352 270.225C156.612 261.983 160.991 255.363 161.113 255.438C161.235 255.513 157.062 262.264 151.793 270.506C146.524 278.748 142.164 285.339 142.042 285.283Z" fill="#E0E0E0"/>
<path d="M151.023 327.738C151.283 327.415 151.582 327.125 151.914 326.876L154.436 324.663C156.565 322.788 159.5 320.2 162.631 317.218C165.763 314.237 168.52 311.452 170.489 309.417C171.426 308.48 172.195 307.645 172.823 307.008C173.107 306.693 173.421 306.407 173.761 306.154C173.553 306.513 173.301 306.843 173.011 307.139C172.504 307.748 171.745 308.611 170.789 309.661C168.913 311.771 166.175 314.612 163.025 317.593C159.875 320.575 156.912 323.144 154.718 324.944C153.611 325.882 152.711 326.557 152.074 327.035C151.751 327.308 151.398 327.544 151.023 327.738Z" fill="#E0E0E0"/>
<path d="M123.602 318.053C123.98 318.099 124.352 318.19 124.708 318.325L127.68 319.263C130.174 320.06 133.615 321.194 137.403 322.469C141.191 323.745 144.614 324.945 147.08 325.836L149.996 326.904C150.359 327.018 150.708 327.172 151.037 327.364C150.658 327.325 150.286 327.237 149.93 327.101L146.958 326.164C144.464 325.367 141.023 324.232 137.235 322.948C133.447 321.663 130.024 320.472 127.558 319.591L124.642 318.513C124.276 318.407 123.926 318.252 123.602 318.053Z" fill="#E0E0E0"/>
<path d="M126.77 356.542C127.252 356.615 127.726 356.734 128.185 356.899L131.992 358.061C135.199 359.065 139.615 360.481 144.491 362.084C149.366 363.687 153.764 365.15 156.942 366.247L160.693 367.56C161.16 367.709 161.614 367.894 162.052 368.113C161.567 368.041 161.089 367.922 160.627 367.756L156.82 366.594C153.614 365.591 149.198 364.175 144.322 362.571C139.446 360.968 135.049 359.496 131.88 358.408L128.129 357.086C127.66 356.946 127.205 356.764 126.77 356.542Z" fill="#E0E0E0"/>
<path d="M161.285 367.597C161.615 367.192 161.983 366.818 162.382 366.481L165.486 363.565C168.102 361.099 171.702 357.677 175.575 353.786C179.447 349.894 182.869 346.285 185.326 343.659L188.233 340.546C188.575 340.149 188.948 339.779 189.348 339.44C189.075 339.881 188.761 340.295 188.411 340.678C187.773 341.456 186.817 342.553 185.598 343.903C183.207 346.603 179.831 350.26 175.94 354.151C172.049 358.042 168.439 361.437 165.739 363.837C164.389 365.028 163.292 365.994 162.513 366.65C162.131 366.999 161.72 367.316 161.285 367.597Z" fill="#E0E0E0"/>
<path d="M68.0452 48.344L58.8939 45.5311C58.8939 45.5311 56.4936 53.2196 48.4675 50.8662C46.9137 50.4383 45.5313 49.538 44.5116 48.2899C43.492 47.0418 42.8855 45.5076 42.7761 43.8996C42.656 42.5437 42.8613 41.1786 43.375 39.918C43.8887 38.6573 44.696 37.5376 45.7296 36.6518C48.0831 34.5702 52.2087 33.3044 58.0313 36.3142L64.4728 15.6864L55.4247 12.8735L51.6742 24.9596C51.6742 24.9596 37.9473 24.2751 33.5874 38.2551C29.4149 51.6351 40.4414 58.4891 45.5796 60.0924C49.4802 61.3114 63.1789 64.5368 68.0452 48.344Z" fill="#F5F5F5"/>
<path d="M56.6565 8.57095L65.8398 11.4365L68.5155 2.86181L59.3321 -0.00375852L56.6565 8.57095Z" fill="#F5F5F5"/>
<path d="M93.2977 25.0536L96.9639 24.1159C96.8518 23.699 96.8247 23.2638 96.884 22.8361C96.9433 22.4085 97.0878 21.9971 97.309 21.6264C97.5303 21.2556 97.8237 20.9331 98.1718 20.6778C98.52 20.4226 98.9159 20.2398 99.336 20.1404C99.948 19.9598 100.601 19.9728 101.205 20.1775C101.809 20.3823 102.335 20.7689 102.712 21.2843C103.03 21.7126 103.243 22.2103 103.333 22.7367C103.422 23.263 103.386 23.8031 103.227 24.3128C102.88 25.5036 101.765 26.7975 99.1767 27.0132L101.361 35.2737L104.981 34.3361L103.705 29.4979C105.078 28.6701 106.14 27.4138 106.728 25.9227C107.316 24.4316 107.397 22.7886 106.959 21.2468C105.553 15.8836 100.396 15.9117 98.3609 16.4461C96.7857 16.8118 91.5256 18.6027 93.2977 25.0536Z" fill="#EBEBEB"/>
<path d="M106.259 35.5406L102.566 36.5304L103.49 39.9774L107.183 38.9876L106.259 35.5406Z" fill="#EBEBEB"/>
<path d="M395.973 119.951L399.536 121.235C399.685 120.832 399.914 120.462 400.208 120.149C400.503 119.835 400.857 119.583 401.25 119.409C401.643 119.234 402.067 119.14 402.498 119.131C402.928 119.123 403.355 119.201 403.755 119.36C404.355 119.553 404.881 119.927 405.26 120.431C405.64 120.934 405.854 121.543 405.874 122.173C405.896 122.711 405.79 123.246 405.565 123.735C405.34 124.224 405.003 124.653 404.58 124.986C403.642 125.764 401.964 126.186 399.714 124.892L396.798 132.928L400.323 134.203L402.03 129.515C403.63 129.614 405.219 129.185 406.552 128.294C407.885 127.403 408.888 126.099 409.409 124.583C411.284 119.37 407.055 116.472 405.058 115.75C403.53 115.15 398.185 113.641 395.973 119.951Z" fill="#EBEBEB"/>
<path d="M399.798 135.832L396.219 134.535L395.009 137.876L398.588 139.173L399.798 135.832Z" fill="#EBEBEB"/>
<path d="M17.8465 160.756L25.3475 157.849C25.3475 157.849 22.9097 151.52 29.445 148.867C30.6957 148.338 32.0799 148.21 33.4065 148.5C34.7332 148.791 35.9371 149.486 36.8522 150.489C37.6308 151.323 38.2013 152.33 38.5174 153.426C38.8335 154.523 38.8862 155.679 38.6712 156.799C38.2024 159.406 36.1396 162.425 30.7107 163.466L37.2741 180.465L44.7752 177.596L40.9309 167.638C40.9309 167.638 50.3072 160.906 45.9097 149.373C41.6435 138.347 30.7295 139.603 26.5383 141.225C23.3035 142.472 12.577 147.507 17.8465 160.756Z" fill="#F5F5F5"/>
<path d="M46.1971 181.056L38.6289 183.972L41.3525 191.042L48.9208 188.126L46.1971 181.056Z" fill="#F5F5F5"/>
<path d="M398.908 189.363L393.563 191.417C393.563 191.417 395.289 195.908 390.657 197.783C389.77 198.154 388.791 198.243 387.851 198.038C386.912 197.834 386.058 197.345 385.406 196.639C384.855 196.048 384.451 195.334 384.227 194.557C384.004 193.78 383.968 192.961 384.122 192.167C384.459 190.291 385.922 188.191 389.747 187.479L385.153 175.393L379.865 177.427L382.584 184.488C380.659 185.96 379.272 188.024 378.635 190.362C377.998 192.699 378.147 195.182 379.058 197.427C382.068 205.237 389.775 204.356 392.776 203.203C395.045 202.312 402.64 198.749 398.908 189.363Z" fill="#F5F5F5"/>
<path d="M378.816 174.978L384.18 172.912L382.252 167.907L376.888 169.973L378.816 174.978Z" fill="#F5F5F5"/>
<path d="M414 396.7C414 396.841 321.316 396.944 207.009 396.944C92.7032 396.944 0 396.841 0 396.7C0 396.56 92.6657 396.457 207.009 396.457C321.353 396.457 414 396.569 414 396.7Z" fill="#263238"/>
<path d="M59.453 372.35C60.3906 368.899 58.0747 365.439 55.5431 362.973C53.0115 360.507 49.9829 358.238 48.6609 354.928C46.5231 349.565 49.3922 342.627 45.7542 338.154C43.6071 335.529 39.7628 334.648 37.8594 331.835C36.9794 330.284 36.3974 328.583 36.1435 326.818C34.1204 317.91 29.7386 309.71 23.4574 303.078C23.034 311.012 24.7538 318.915 28.4362 325.956C29.9083 328.769 31.7273 331.506 32.1868 334.648C32.9837 339.739 30.1334 344.961 31.3898 349.987C32.8243 355.707 39.2471 359.542 39.5471 365.43C39.8097 370.409 35.4685 374.806 35.7966 379.757C36.0596 381.877 36.8281 383.903 38.0376 385.664C41.8818 392.068 47.5451 396.475 56.115 396.334L66.6164 396.7L59.453 372.35Z" fill="#1FC9AA"/>
<g opacity="0.3">
<path d="M59.453 372.35C60.3906 368.899 58.0747 365.439 55.5431 362.973C53.0115 360.507 49.9829 358.238 48.6609 354.928C46.5231 349.565 49.3922 342.627 45.7542 338.154C43.6071 335.529 39.7628 334.648 37.8594 331.835C36.9794 330.284 36.3974 328.583 36.1435 326.818C34.1204 317.91 29.7386 309.71 23.4574 303.078C23.034 311.012 24.7538 318.915 28.4362 325.956C29.9083 328.769 31.7273 331.507 32.1868 334.648C32.9837 339.739 30.1334 344.962 31.3898 349.987C32.8243 355.707 39.2471 359.542 39.5471 365.43C39.8097 370.409 35.4685 374.806 35.7966 379.757C36.0596 381.877 36.8281 383.903 38.0376 385.664C41.8818 392.068 47.5451 396.475 56.115 396.334L66.6164 396.7L59.453 372.35Z" fill="black"/>
</g>
<path d="M68.7378 396.916C69.6995 397.064 70.6798 397.045 71.635 396.86C72.7949 396.683 73.9348 396.394 75.0386 395.997C76.563 395.467 77.9889 394.688 79.258 393.691C80.0215 393.077 80.6181 392.28 80.9926 391.375C81.3062 390.36 81.4704 389.305 81.4801 388.243C81.5013 387.108 81.5858 385.975 81.7333 384.849C81.9308 383.65 82.3643 382.503 83.0085 381.473C84.2461 379.298 86.3089 377.235 86.9653 374.282C87.6216 371.328 87.1715 368.234 86.684 365.084C86.1964 361.933 85.7463 358.52 86.9277 355.22C88.1092 351.919 90.3595 348.966 91.5127 345.271C92.666 341.577 92.1222 337.508 92.366 333.542C92.438 331.527 92.903 329.546 93.7349 327.71C94.5788 325.834 95.7602 324.1 96.6791 322.15C98.5543 318.193 98.8731 313.711 99.3794 309.313C99.6326 307.101 99.8764 304.86 100.13 302.609C100.289 300.334 100.682 298.082 101.302 295.887C102.013 293.674 102.852 291.504 103.814 289.389C104.31 288.295 104.718 287.163 105.033 286.004C105.21 284.804 105.323 283.596 105.371 282.385C105.483 279.959 105.389 277.528 105.09 275.118C104.808 272.699 104.368 270.299 104.105 267.87C104.105 267.72 104.105 267.58 104.105 267.448L104.049 266.97L103.627 267.176C101.41 268.314 99.4849 269.947 98.0011 271.949C96.5458 273.909 95.3747 276.065 94.5225 278.353C92.7692 282.863 92.1409 287.589 91.2596 292.099C90.3782 296.609 89.2531 301.044 86.9465 304.794C85.7932 306.669 84.3961 308.376 83.196 310.195C81.8928 311.97 81.0022 314.014 80.5894 316.177C79.9612 320.621 82.4084 324.522 81.9021 328.46C81.6736 330.389 81.0341 332.246 80.0268 333.907C79.0892 335.586 77.9547 337.142 76.8858 338.699C75.8024 340.225 74.8608 341.848 74.0729 343.546C73.3312 345.208 72.893 346.99 72.7789 348.806C72.5258 352.351 73.0227 355.707 72.7789 358.876C72.4862 361.897 71.6038 364.831 70.1817 367.512C68.9159 370.09 67.5001 372.425 66.3187 374.694C65.728 375.819 65.1748 376.926 64.7247 378.042C64.2988 379.113 63.9846 380.225 63.7871 381.361C63.4733 383.344 63.448 385.362 63.7121 387.352C63.9876 390.128 65.0261 392.772 66.7125 394.994C66.9703 395.33 67.2557 395.643 67.5657 395.932C67.7728 396.149 68.0022 396.344 68.2502 396.513C68.644 396.803 68.8503 396.935 68.8503 396.935C68.1007 396.342 67.4184 395.669 66.8156 394.928C65.2058 392.699 64.2334 390.073 64.0028 387.333C63.764 385.368 63.8082 383.379 64.134 381.426C64.3314 380.318 64.6457 379.234 65.0716 378.192C65.5467 377.064 66.082 375.962 66.675 374.891C67.8658 372.641 69.291 370.315 70.5849 367.718C72.0494 364.995 72.9608 362.009 73.2665 358.933C73.5478 355.698 73.0602 352.322 73.3228 348.872C73.4435 347.114 73.872 345.391 74.5886 343.781C75.3814 342.118 76.3228 340.53 77.4014 339.036C78.4703 337.48 79.6049 335.923 80.58 334.207C81.6502 332.483 82.3347 330.548 82.5865 328.535C83.0928 324.344 80.6644 320.424 81.2926 316.289C81.7036 314.221 82.5647 312.268 83.8148 310.57C85.0056 308.779 86.4121 307.073 87.5653 305.15C89.9563 301.297 91.1096 296.777 91.9816 292.249C92.8535 287.72 93.5005 283.032 95.2257 278.606C96.0555 276.382 97.195 274.286 98.6106 272.38C100.038 270.459 101.889 268.893 104.021 267.805L103.543 267.533C103.543 267.673 103.543 267.814 103.589 267.964C103.852 270.421 104.293 272.821 104.527 275.221C104.823 277.594 104.914 279.987 104.799 282.375C104.751 283.549 104.645 284.719 104.48 285.882C104.177 287.004 103.782 288.098 103.299 289.154C102.331 291.293 101.486 293.484 100.767 295.718C100.142 297.947 99.7463 300.234 99.5857 302.544C99.3419 304.803 99.0888 307.044 98.845 309.257C98.3387 313.673 98.0105 318.08 96.2196 321.896C95.282 323.772 94.1569 325.563 93.2849 327.475C92.4267 329.38 91.9489 331.435 91.8784 333.523C91.644 337.574 92.1691 341.54 91.0721 345.121C89.975 348.703 87.6966 351.685 86.5433 355.07C85.39 358.455 85.812 362.036 86.3183 365.177C86.8246 368.318 87.3309 371.413 86.6558 374.197C85.9807 376.982 84.0492 379.064 82.7928 381.295C82.1304 382.37 81.6874 383.565 81.4895 384.811C81.3479 385.95 81.2727 387.096 81.2645 388.243C81.266 389.278 81.1143 390.308 80.8144 391.3C80.4671 392.159 79.9093 392.916 79.1923 393.503C77.9572 394.499 76.5666 395.284 75.0761 395.828C73.9868 396.248 72.8596 396.562 71.7101 396.766C71.0075 396.894 70.2956 396.963 69.5816 396.972C68.9909 396.916 68.7378 396.916 68.7378 396.916Z" fill="#263238"/>
<path d="M101.908 273.243C101.857 273.344 101.823 273.451 101.804 273.562L101.579 274.5C101.373 275.334 101.12 276.581 100.726 278.138C100.332 279.694 99.3666 281.457 98.5509 283.623C97.5955 286.061 96.7631 288.546 96.0568 291.067C95.2504 293.88 94.5472 296.975 93.7971 300.312C93.1597 303.868 92.0299 307.317 90.4404 310.561C89.5778 312.267 88.5652 313.992 87.8432 315.886C87.0861 317.821 86.5788 319.843 86.3336 321.906C85.8003 326.178 85.0429 330.419 84.0645 334.611C81.9643 343.209 79.9577 351.404 78.1294 358.867C76.301 366.331 74.5758 373.007 73.1506 378.651C71.7254 384.296 70.6471 388.796 69.8595 392.012C69.4938 393.55 69.2032 394.76 68.9969 395.65C68.9125 396.035 68.8375 396.344 68.7812 396.588C68.7708 396.697 68.7708 396.807 68.7812 396.916C68.8357 396.819 68.8767 396.715 68.9031 396.607C68.9687 396.354 69.0625 396.054 69.175 395.669C69.4094 394.797 69.7376 393.588 70.1595 392.059C71.0034 388.871 72.1942 384.343 73.6663 378.764C75.1383 373.185 76.8542 366.434 78.7763 359.017C80.6985 351.601 82.6487 343.35 84.7678 334.742C85.7399 330.539 86.4786 326.285 86.9806 322C87.2202 319.987 87.7116 318.012 88.4433 316.121C89.184 314.246 90.131 312.567 90.9936 310.842C92.8689 307.42 93.6096 303.744 94.3503 300.434C95.091 297.125 95.7474 293.993 96.5162 291.199C97.2851 288.405 98.0915 285.911 98.8978 283.754C99.7042 281.597 100.595 279.816 100.979 278.203C101.364 276.591 101.542 275.39 101.711 274.528C101.773 274.14 101.829 273.828 101.879 273.59C101.908 273.356 101.926 273.243 101.908 273.243Z" fill="#263238"/>
<path d="M70.5905 396.963C77.4445 392.884 79.4135 380.507 76.5538 373.063C73.694 365.618 68.6871 358.811 67.9182 350.869C67.3181 344.765 69.3247 338.502 67.9182 332.538C65.9961 324.484 58.1388 318.249 58.2325 309.97C58.2794 305.328 60.9235 300.959 60.7079 296.318C60.4547 290.636 56.0854 286.116 53.385 281.11C49.2407 273.43 48.9688 264.364 47.553 255.794C46.1371 247.224 42.8648 237.979 35.2325 233.75C34.1074 241.054 32.1852 246.061 32.7853 255.953C33.0104 259.507 37.1359 266.267 37.6985 274.096C38.036 278.784 38.2611 283.416 38.5517 288.067C38.8424 292.717 39.1237 297.218 40.7458 301.456C41.9928 304.71 43.99 307.663 44.9182 311.02C46.6528 317.33 44.365 324.147 45.7715 330.56C46.9623 335.98 50.7128 340.64 51.4816 346.134C52.5505 353.851 47.5623 361.877 50.1127 369.237C51.3879 372.894 54.3883 375.801 55.2415 379.598C55.9072 382.523 55.1852 385.627 55.7853 388.562C56.723 393.306 65.7804 397 70.6092 396.691" fill="#1FC9AA"/>
<path d="M37.1112 240.96C37.0984 241.098 37.0984 241.236 37.1112 241.373C37.1112 241.682 37.2049 242.076 37.2612 242.573C37.4206 243.633 37.5987 245.18 37.955 247.186C38.3113 249.193 39.3802 251.462 40.2053 254.2C41.0304 256.938 41.9493 260.069 42.7182 263.576C43.487 267.083 44.1621 270.993 44.8466 275.184C45.5311 279.375 46.2812 283.941 48.3627 288.311C49.3003 290.495 50.4067 292.689 51.1756 295.033C51.9634 297.433 52.4484 299.921 52.6195 302.441C53.0028 307.786 53.6758 313.107 54.6354 318.38C56.7357 329.201 58.7328 339.505 60.5518 348.891C62.3708 358.276 64.1992 366.649 65.6619 373.738C67.1246 380.826 68.3248 386.49 69.1593 390.484L70.0969 395.031C70.2094 395.519 70.2938 395.903 70.3688 396.203C70.3942 396.341 70.4318 396.476 70.4813 396.607C70.4979 396.47 70.4979 396.331 70.4813 396.194C70.4251 395.885 70.3594 395.5 70.275 395.003C70.0688 393.916 69.7781 392.378 69.4124 390.428C68.6248 386.424 67.5372 380.704 66.1213 373.644C64.7055 366.584 63.0272 358.117 61.1613 348.769C59.2954 339.421 57.4108 329.079 55.3011 318.268C54.3409 312.995 53.6648 307.674 53.2759 302.328C53.0974 299.757 52.5965 297.218 51.785 294.771C50.9505 292.389 49.8535 290.186 48.8878 288.011C46.825 283.707 46.0749 279.216 45.3623 275.043C44.6497 270.871 43.9652 266.951 43.1495 263.426C42.3337 259.901 41.443 256.75 40.5241 254.05C39.6052 251.349 38.5832 249.062 38.1707 247.102C37.7581 245.142 37.5612 243.567 37.3643 242.526C37.2706 242.039 37.1955 241.645 37.1393 241.335C37.1373 241.21 37.1279 241.085 37.1112 240.96Z" fill="#263238"/>
<path d="M367.778 45.0903H364.027C364.03 45.5156 363.947 45.9372 363.784 46.33C363.621 46.7228 363.38 47.0788 363.077 47.377C362.773 47.6752 362.413 47.9094 362.018 48.0658C361.622 48.2222 361.199 48.2976 360.774 48.2876C360.146 48.3101 359.527 48.1361 359.002 47.7899C358.478 47.4436 358.074 46.9424 357.849 46.3561C357.651 45.8678 357.572 45.3397 357.617 44.815C357.663 44.2902 357.832 43.7837 358.111 43.3369C358.749 42.2868 360.136 41.3398 362.649 41.7804V33.3418H358.964V38.2737C357.452 38.7189 356.128 39.6479 355.195 40.9182C354.261 42.1885 353.771 43.7299 353.798 45.3059C353.798 50.7629 358.692 52.0287 360.793 52.0287C362.396 52.0662 367.853 51.6818 367.778 45.0903Z" fill="#176CFF"/>
<path d="M358.935 31.6265H362.676V28.1291H358.935V31.6265Z" fill="#176CFF"/>
<path d="M388.225 40.1022C388.237 39.9431 388.237 39.7832 388.225 39.624C388.225 39.2865 388.225 38.827 388.225 38.2363C388.225 37.9363 388.225 37.5894 388.178 37.2143C388.131 36.8393 388.075 36.4267 388.009 35.9954C387.943 35.5641 387.878 35.0578 387.803 34.5608L387.409 32.9669C386.712 30.2218 385.572 27.609 384.033 25.2314C381.799 21.7105 378.787 18.7487 375.229 16.5739C371.671 14.399 367.661 13.069 363.509 12.686C362.262 12.5759 361.009 12.5508 359.758 12.611C359.13 12.611 358.483 12.611 357.883 12.7329L355.952 13.0235C353.301 13.5161 350.737 14.391 348.338 15.6208C345.834 16.9459 343.532 18.6225 341.503 20.5996C339.425 22.7053 337.688 25.1222 336.355 27.763C334.921 30.4856 333.981 33.4413 333.58 36.4923C333.463 37.2654 333.397 38.0453 333.383 38.827C333.32 39.6099 333.305 40.3958 333.336 41.1805C333.54 46.2103 335.112 51.0893 337.883 55.2918V55.0011C336.58 58.2547 335.296 61.452 334.039 64.5649L333.814 65.1369L334.405 64.9681L344.625 62.1552L344.381 62.099C347.823 64.7047 351.833 66.459 356.083 67.2184C358.054 67.5859 360.063 67.7087 362.065 67.5841C363.03 67.5697 363.993 67.4788 364.943 67.3122L366.34 67.0965C366.8 67.0121 367.278 66.8715 367.691 66.7683C373.989 65.1724 379.513 61.3865 383.274 56.0888C384.677 54.1371 385.803 52.001 386.621 49.741C386.799 49.2441 386.968 48.8034 387.128 48.3158C387.287 47.8283 387.371 47.3782 387.475 46.9563C387.578 46.5343 387.69 46.103 387.784 45.7092C387.878 45.3154 387.906 44.931 387.962 44.5653C388.047 43.8433 388.178 43.2058 388.206 42.6901C388.234 42.1744 388.206 41.6774 388.206 41.2836C388.206 40.8898 388.206 40.646 388.206 40.4304C388.206 40.2147 388.206 40.1397 388.206 40.1397C388.192 40.2361 388.192 40.334 388.206 40.4304C388.206 40.646 388.206 40.9273 388.14 41.2836C388.075 41.6399 388.084 42.1369 388.047 42.6807C388.009 43.2245 387.868 43.8621 387.756 44.5559C386.862 49.7453 384.48 54.5634 380.899 58.4249C377.319 62.2865 372.695 65.0254 367.587 66.3089C367.147 66.412 366.706 66.5433 366.256 66.6277L364.878 66.834C363.948 66.9892 363.008 67.0738 362.065 67.0871C360.1 67.1907 358.13 67.0617 356.195 66.7027C352.045 65.9389 348.131 64.2146 344.766 61.6676L344.653 61.5739H344.513L334.283 64.3868L334.639 64.7899L338.493 55.2355L338.549 55.0855L338.465 54.9449C336.618 52.1514 335.308 49.0386 334.602 45.7655C334.278 44.247 334.084 42.7037 334.02 41.1524C333.989 40.3864 334.005 39.6192 334.067 38.8552C334.073 38.0921 334.136 37.3305 334.255 36.5767C334.615 33.5972 335.501 30.7051 336.871 28.035C338.174 25.4541 339.866 23.0887 341.887 21.0215C343.873 19.0806 346.128 17.4354 348.582 16.1365C350.927 14.9166 353.438 14.0479 356.036 13.558L357.911 13.2673C358.539 13.1736 359.168 13.1829 359.786 13.136C361.009 13.0779 362.233 13.0998 363.453 13.2017C367.537 13.5592 371.486 14.8428 375 16.9548C378.514 19.0669 381.501 21.9519 383.733 25.3908C385.281 27.7269 386.44 30.298 387.165 33.0044L387.587 34.5796C387.671 35.0765 387.747 35.5172 387.822 35.986C387.897 36.4548 387.953 36.8299 388.018 37.2049C388.084 37.58 388.065 37.9175 388.093 38.2176C388.093 38.7989 388.168 39.2584 388.197 39.5959C388.179 39.7651 388.188 39.936 388.225 40.1022Z" fill="#263238"/>
<path d="M108.613 150.677H162.761C162.761 150.677 162.761 105.211 210.008 104.405C234.546 103.974 247.27 120.054 252.446 132.365C258.446 146.664 256.627 162.96 248.582 176.227C239.403 191.37 219.619 206.588 183.127 200.155L182.78 320.8H236.328V249.278C236.328 249.278 311.422 229.869 311.422 147.076C311.422 67.8937 247.392 50.7914 212.971 49.685C193.825 49.0756 186.887 48.2505 163.202 51.6165C133.02 55.9296 107.976 90.9781 108.613 150.677Z" fill="#1353C2"/>
<path d="M236.97 345.947H182.625V396.701H236.97V345.947Z" fill="#1353C2"/>
<path d="M86.1739 150.677H140.331C140.331 150.677 140.331 105.211 187.578 104.405C212.116 103.973 224.84 120.054 230.006 132.365C236.016 146.664 234.197 162.959 226.152 176.227C216.973 191.37 196.842 205.134 160.35 198.73V320.8H213.897V249.277C213.897 249.277 288.992 229.869 288.992 147.076C288.992 67.8935 217.976 49.5066 187.588 49.5066C164.344 49.5347 85.1519 55.1511 86.1739 150.677Z" fill="#176CFF"/>
<path opacity="0.3" d="M86.1739 150.677H140.331C140.331 150.677 140.331 105.211 187.578 104.405C212.116 103.973 224.84 120.054 230.006 132.365C236.016 146.664 234.197 162.959 226.152 176.227C216.973 191.37 196.842 205.134 160.35 198.73V320.8H213.897V249.277C213.897 249.277 288.992 229.869 288.992 147.076C288.992 67.8935 217.976 49.5066 187.588 49.5066C164.344 49.5347 85.1519 55.1511 86.1739 150.677Z" fill="#176CFF"/>
<path d="M214.544 345.947H160.199V396.701H214.544V345.947Z" fill="#176CFF"/>
<path d="M214.544 345.947H160.199V396.701H214.544V345.947Z" fill="#176CFF"/>
<path d="M193.69 104.649C193.422 104.672 193.152 104.672 192.884 104.649C192.349 104.649 191.581 104.47 190.577 104.461C187.741 104.322 184.897 104.441 182.082 104.817C177.908 105.346 173.801 106.311 169.828 107.696C167.486 108.514 165.205 109.498 163.002 110.64C160.621 111.83 158.379 113.279 156.316 114.962C154.268 116.661 152.433 118.6 150.85 120.738C149.35 122.715 147.981 124.789 146.753 126.945C144.702 130.618 143.076 134.513 141.905 138.553C141.111 141.28 140.565 144.073 140.274 146.898C140.161 147.892 140.133 148.68 140.105 149.205C140.106 149.475 140.08 149.745 140.03 150.011C140.006 149.743 140.006 149.473 140.03 149.205C140.03 148.67 140.03 147.883 140.114 146.879C140.33 144.024 140.829 141.197 141.605 138.441C142.733 134.353 144.338 130.413 146.387 126.702C147.618 124.521 148.993 122.426 150.503 120.429C152.099 118.256 153.957 116.287 156.035 114.569C158.122 112.863 160.393 111.394 162.805 110.19C165.021 109.027 167.318 108.025 169.678 107.19C173.687 105.809 177.833 104.866 182.045 104.377C184.879 104.028 187.74 103.962 190.587 104.18C191.36 104.229 192.131 104.323 192.893 104.461C193.163 104.505 193.429 104.567 193.69 104.649Z" fill="#263238"/>
<path d="M275.286 95.0005C275.286 95.0005 275.22 94.9349 275.108 94.7942C274.995 94.6536 274.826 94.4098 274.639 94.1379L272.848 91.6063C272.464 91.0625 272.051 90.4342 271.563 89.7873L269.876 87.7339L267.944 85.3617C267.241 84.5366 266.416 83.7396 265.591 82.8676C264.766 81.9956 263.922 81.0673 262.965 80.1766C262.009 79.2859 260.987 78.3764 259.937 77.4387C259.412 76.9699 258.896 76.5011 258.334 76.0042L256.59 74.6258C255.399 73.6882 254.217 72.7506 252.933 71.813C247.334 67.8071 241.395 64.2995 235.184 61.3303L230.242 59.0987L225.338 57.2235C223.735 56.5578 222.104 56.089 220.528 55.5639C218.953 55.0388 217.415 54.5044 215.84 54.1387L211.358 52.9667C209.905 52.5822 208.461 52.3478 207.083 52.029C205.705 51.7102 204.373 51.4289 203.07 51.2696L199.319 50.7257C196.947 50.3225 194.772 50.2382 192.878 50.0506C191.94 49.9756 191.003 49.8725 190.224 49.835L187.993 49.7787L184.899 49.6756H184.092H183.82C183.91 49.6615 184.002 49.6615 184.092 49.6756H184.899H187.993H190.234C191.049 49.6756 191.94 49.7881 192.897 49.8537C194.772 50.0131 196.985 50.0788 199.357 50.4632L203.107 50.9695C204.411 51.1195 205.742 51.4571 207.13 51.7102C208.517 51.9634 209.943 52.2259 211.433 52.6479L215.934 53.8105C217.491 54.1668 219.028 54.7482 220.622 55.2263C222.216 55.7045 223.838 56.164 225.442 56.8766L230.374 58.7518L235.343 60.9927C241.587 63.9687 247.549 67.5022 253.158 71.5504C254.452 72.4881 255.633 73.4913 256.824 74.4196L258.568 75.6854C259.131 76.1542 259.646 76.623 260.171 77.1293L263.19 79.9422C264.128 80.8798 264.972 81.8175 265.806 82.6707C266.641 83.5239 267.438 84.3584 268.141 85.1929L270.016 87.5839L271.685 89.6654C272.164 90.3217 272.567 90.9593 272.942 91.5406C273.673 92.6377 274.245 93.5003 274.648 94.1191L275.089 94.8036C275.163 94.8604 275.229 94.9266 275.286 95.0005Z" fill="#263238"/>
<path d="M269.643 211.266C269.531 211.469 269.396 211.658 269.24 211.829L267.946 213.357C267.411 214.042 266.736 214.857 265.902 215.767C265.067 216.676 264.176 217.745 263.089 218.852C262.001 219.958 260.838 221.196 259.516 222.443C258.194 223.69 256.76 225.002 255.231 226.371C248.528 232.222 241.18 237.29 233.328 241.476C231.509 242.414 229.794 243.352 228.134 244.074C226.474 244.796 224.927 245.536 223.502 246.136C222.077 246.737 220.764 247.233 219.62 247.674C218.476 248.115 217.473 248.471 216.648 248.734L214.773 249.343C214.555 249.43 214.329 249.493 214.098 249.531C214.3 249.415 214.513 249.321 214.735 249.249L216.61 248.556C217.426 248.265 218.411 247.89 219.545 247.421C220.68 246.952 221.992 246.483 223.399 245.818C224.805 245.152 226.362 244.524 227.984 243.708C229.606 242.892 231.341 242.03 233.15 241.083C236.723 239.114 240.576 236.807 244.467 234.144C248.359 231.481 251.856 228.678 254.969 226.034C256.497 224.684 257.96 223.418 259.263 222.143C260.566 220.867 261.785 219.714 262.864 218.608C263.942 217.501 264.889 216.479 265.733 215.579C266.577 214.679 267.271 213.891 267.833 213.235L269.146 211.744C269.298 211.572 269.464 211.412 269.643 211.266Z" fill="#263238"/>
<path d="M212.948 316.543C212.808 316.543 212.695 301.485 212.695 282.91C212.695 264.336 212.808 249.268 212.948 249.268C213.089 249.268 213.192 264.326 213.192 282.91C213.192 301.494 213.08 316.543 212.948 316.543Z" fill="#263238"/>
<path d="M215.013 393.26C214.873 393.26 214.77 382.693 214.77 369.66C214.77 356.627 214.873 346.051 215.013 346.051C215.154 346.051 215.257 356.618 215.257 369.66C215.257 382.703 215.145 393.26 215.013 393.26Z" fill="#263238"/>
<path d="M268.321 143.485C267.383 145.361 270.88 146.898 272.896 147.508C274.953 148.013 277.081 148.158 279.188 147.939C282.001 147.789 284.879 147.526 287.308 146.139C289.434 144.821 291.134 142.916 292.202 140.654C293.255 138.398 294.087 136.046 294.687 133.631C294.687 133.631 272.531 135.075 268.321 143.485Z" fill="#176CFF"/>
<g opacity="0.4">
<path d="M268.321 143.485C267.383 145.361 270.88 146.898 272.896 147.508C274.953 148.013 277.081 148.158 279.188 147.939C282.001 147.789 284.879 147.526 287.308 146.139C289.434 144.821 291.134 142.916 292.202 140.654C293.255 138.398 294.087 136.046 294.687 133.631C294.687 133.631 272.531 135.075 268.321 143.485Z" fill="black"/>
</g>
<path d="M330.897 137.484C334.55 140.075 338.927 141.447 343.405 141.404C345.552 141.523 347.668 140.857 349.359 139.528C350.081 138.863 350.625 138.019 351.365 137.381C351.872 136.95 352.462 136.622 352.941 136.162C353.193 135.945 353.388 135.669 353.507 135.358C353.627 135.047 353.667 134.711 353.625 134.381C353.44 133.567 352.984 132.839 352.331 132.318C349.79 130.874 346.752 130.93 343.827 130.996C340.899 131.123 338.007 131.689 335.248 132.674C332.979 133.443 330.606 134.55 329.453 136.612" fill="#1FC9AA"/>
<g opacity="0.4">
<path d="M353.629 134.38C353.298 133.59 352.714 132.93 351.969 132.505C349.428 131.061 346.756 130.93 343.831 130.996C340.903 131.122 338.011 131.688 335.252 132.674C332.983 133.443 330.61 134.549 329.457 136.612L330.901 137.484C334.554 140.075 338.931 141.446 343.409 141.403C345.556 141.523 347.672 140.856 349.363 139.528C350.085 138.862 350.629 138.018 351.369 137.381C351.876 136.95 352.466 136.621 352.945 136.162C353.197 135.945 353.392 135.668 353.511 135.357C353.63 135.046 353.671 134.711 353.629 134.38Z" fill="black"/>
</g>
<path d="M287.637 171.136L334.378 171.755C334.473 171.754 334.567 171.732 334.652 171.689C334.737 171.646 334.811 171.584 334.867 171.507C334.924 171.43 334.961 171.342 334.977 171.248C334.993 171.154 334.987 171.058 334.96 170.967L329.474 153.865C329.474 153.865 330.281 145.313 331.397 135.037C333.094 119.426 335.353 99.801 335.381 99.8573C332.184 90.8936 313.319 89.3746 313.319 89.3746L291.819 90.6498L291.069 89.384L284.881 92.2625C283.531 92.8905 282.233 93.6241 280.999 94.4566C276.911 97.1851 267.066 103.458 265.266 110.443C261.112 126.617 268.144 144.667 268.144 144.667L272.664 141.132C273.802 140.254 274.999 139.456 276.245 138.741L285.303 163.016C284.764 163.356 284.307 163.811 283.967 164.35C283.626 164.888 283.41 165.496 283.334 166.129C283.259 168.098 284.271 170.461 287.637 171.136Z" fill="#1FC9AA"/>
<g opacity="0.3">
<path d="M307.691 142.52C309.173 134.55 308.394 126.355 307.597 118.292C305.01 124.855 305.103 132.356 302.356 138.863C302.019 139.55 301.773 140.278 301.625 141.029C301.553 141.406 301.572 141.795 301.679 142.163C301.787 142.531 301.98 142.869 302.243 143.148C302.994 143.832 304.119 143.457 305.113 143.345C306.002 143.175 306.868 142.898 307.691 142.52Z" fill="black"/>
</g>
<g opacity="0.4">
<path d="M290.45 160.972C294.201 162.275 298.195 159.847 302.161 159.415C304.786 159.134 307.412 159.734 310.018 160.156C315.289 161.009 320.651 161.141 325.958 160.55C326.772 160.505 327.569 160.298 328.302 159.94C328.681 159.682 328.991 159.335 329.205 158.93C329.419 158.525 329.531 158.073 329.53 157.615C320.698 156.677 311.875 156.171 303.042 155.262C300.844 154.886 298.592 154.96 296.423 155.477C293.76 156.302 291.735 158.393 289.859 160.465" fill="black"/>
</g>
<path d="M352.278 131.305C348.462 122.707 335.007 98.9287 335.007 98.9287L324.59 111.99L327.018 137.634C327.018 137.634 332.522 131.493 347.909 131.371C349.027 131.415 350.121 131.71 351.11 132.232C352.1 132.755 352.96 133.492 353.628 134.39L352.278 131.305Z" fill="#1FC9AA"/>
<path d="M289.725 126.758C288.982 124.935 288.393 123.053 287.963 121.132C287.38 119.261 286.954 117.345 286.688 115.403C287.42 117.229 288.006 119.11 288.441 121.029C289.023 122.901 289.453 124.817 289.725 126.758Z" fill="#263238"/>
<path d="M323.804 110.255C324.143 110.495 324.457 110.768 324.741 111.071C325.57 111.871 326.346 112.723 327.067 113.621C329.491 116.585 331.195 120.071 332.045 123.804C332.487 125.868 332.585 127.99 332.336 130.086C332.102 132.008 331.736 133.696 331.492 135.121C331.249 136.546 331.098 137.709 331.023 138.515C331.021 138.934 330.977 139.352 330.892 139.763C330.826 139.344 330.807 138.919 330.836 138.497C330.877 137.348 330.984 136.202 331.155 135.065C331.352 133.63 331.68 131.924 331.895 130.039C332.112 127.991 332.002 125.921 331.567 123.907C330.728 120.243 329.099 116.807 326.795 113.837C325.079 111.531 323.729 110.33 323.804 110.255Z" fill="#263238"/>
<path d="M314.256 169.073C313.931 169.218 313.587 169.319 313.234 169.373C312.834 169.479 312.427 169.557 312.016 169.607C311.537 169.673 310.994 169.776 310.384 169.804C308.956 169.935 307.518 169.935 306.09 169.804C304.342 169.625 302.615 169.279 300.933 168.773C299.259 168.235 297.639 167.541 296.095 166.701C294.842 166.002 293.654 165.196 292.541 164.291C292.053 163.916 291.66 163.522 291.303 163.194C290.996 162.917 290.705 162.623 290.431 162.313C290.171 162.071 289.946 161.793 289.766 161.488C289.831 161.422 290.835 162.547 292.757 164.019C293.88 164.874 295.068 165.639 296.31 166.307C297.837 167.109 299.431 167.777 301.073 168.304C302.727 168.802 304.421 169.154 306.137 169.354C307.538 169.505 308.948 169.549 310.356 169.486C312.766 169.354 314.238 168.998 314.256 169.073Z" fill="#263238"/>
<path d="M328.689 163.748C328.91 164.172 329.035 164.639 329.055 165.116C329.204 166.259 329.118 167.421 328.802 168.529C328.48 169.663 327.827 170.675 326.926 171.436C326.242 172.008 325.717 172.186 325.689 172.139C325.661 172.092 326.101 171.783 326.692 171.202C327.45 170.411 328.001 169.444 328.295 168.389C329.045 165.913 328.511 163.757 328.689 163.748Z" fill="#263238"/>
<path d="M326.148 167.048C326.351 168.013 326.27 169.015 325.914 169.934C325.557 170.853 324.942 171.649 324.141 172.224C324.038 172.121 324.91 171.193 325.454 169.758C325.998 168.324 326.007 167.058 326.148 167.048Z" fill="#263238"/>
<path d="M317.779 136.2C317.282 137.04 316.724 137.842 316.11 138.6C315.625 139.447 315.076 140.256 314.469 141.019C314.649 140.03 315.074 139.101 315.706 138.319C316.206 137.448 316.919 136.719 317.779 136.2Z" fill="#263238"/>
<path d="M285.694 113.49C284.979 113.071 284.288 112.614 283.621 112.121C280.287 109.931 276.502 108.517 272.548 107.986C271.72 107.926 270.897 107.817 270.082 107.658C270.913 107.544 271.755 107.544 272.586 107.658C276.648 108.005 280.538 109.454 283.837 111.849C284.529 112.308 285.154 112.86 285.694 113.49Z" fill="#263238"/>
<path d="M335.007 98.6196C333.329 99.971 331.762 101.454 330.319 103.055C328.991 104.763 327.803 106.575 326.766 108.474C326.877 107.835 327.095 107.22 327.413 106.655C328.091 105.249 328.942 103.933 329.944 102.736C330.95 101.541 332.103 100.48 333.376 99.576C333.861 99.1656 334.413 98.8421 335.007 98.6196Z" fill="#263238"/>
<path d="M315.712 90.894C315.797 91.0293 315.866 91.174 315.918 91.3254C316.101 91.75 316.248 92.189 316.359 92.638C316.754 94.3089 316.754 96.0491 316.359 97.72C315.775 100.214 314.44 102.469 312.533 104.18C310.127 106.219 307.06 107.312 303.907 107.256C300.751 107.266 297.676 106.257 295.14 104.377C293.12 102.835 291.481 100.849 290.349 98.5732C289.586 97.0494 289.049 95.4228 288.755 93.7444C288.669 93.2923 288.613 92.835 288.586 92.3755C288.56 92.214 288.56 92.0494 288.586 91.8879C288.586 91.8879 288.689 92.5443 288.952 93.7069C289.316 95.3379 289.893 96.9141 290.668 98.3951C291.812 100.602 293.436 102.525 295.422 104.021C297.865 105.83 300.82 106.815 303.86 106.834C306.9 106.89 309.858 105.851 312.196 103.908C314.038 102.26 315.344 100.098 315.946 97.7012C316.363 96.0831 316.421 94.3933 316.115 92.7506C315.937 91.5129 315.656 90.9128 315.712 90.894Z" fill="#263238"/>
<g opacity="0.3">
<path d="M318.988 137.86C318.988 137.391 318.913 136.838 318.501 136.603C318.37 136.537 318.225 136.503 318.079 136.503C317.932 136.503 317.788 136.537 317.657 136.603C317.394 136.745 317.162 136.936 316.972 137.166C315.87 138.313 315.017 139.676 314.469 141.169L319.063 140.766C319.035 139.819 319.016 138.825 318.988 137.86Z" fill="black"/>
</g>
<g opacity="0.3">
<path d="M334.248 128.192C333.786 125.563 332.634 123.104 330.91 121.066C332.898 127.555 332.232 131.221 331.116 135.665L331.36 135.046C332.645 132.449 334.595 130.818 334.248 128.192Z" fill="black"/>
</g>
<path d="M325.067 346.153L322.264 388.206L303.98 387.99L301.102 344.269L325.067 346.153Z" fill="#FFBE9D"/>
<path d="M322.781 382.674V383.893C322.781 383.893 343.409 392.182 343.606 396.082L302.641 395.857L303.278 382.233C309.382 385.093 315.767 385.449 322.781 382.674Z" fill="black"/>
<path d="M307.428 386.602C307.039 386.72 306.707 386.975 306.493 387.321C306.279 387.666 306.198 388.077 306.265 388.478C306.366 388.878 306.617 389.223 306.967 389.442C307.316 389.66 307.737 389.735 308.141 389.65C308.558 389.525 308.914 389.25 309.139 388.877C309.364 388.504 309.443 388.061 309.36 387.634C309.211 387.229 308.911 386.898 308.522 386.71C308.134 386.523 307.687 386.495 307.278 386.631" fill="white"/>
<path d="M302.641 395.857L302.791 392.585L342.021 394.01C342.021 394.01 343.84 394.817 343.624 396.092L302.641 395.857Z" fill="white"/>
<path d="M322.929 384.006C322.929 384.203 321.916 384.287 320.932 384.943C319.947 385.6 319.413 386.415 319.235 386.34C319.057 386.265 319.357 385.103 320.566 384.353C321.776 383.603 322.976 383.79 322.929 384.006Z" fill="#263238"/>
<path d="M327.212 385.806C327.259 386.002 326.387 386.331 325.702 387.175C325.018 388.018 324.821 388.909 324.614 388.9C324.408 388.89 324.296 387.756 325.168 386.734C326.04 385.712 327.202 385.665 327.212 385.806Z" fill="#263238"/>
<path d="M329.626 390.963C329.439 390.963 329.167 390.025 329.692 388.91C330.217 387.794 331.145 387.391 331.23 387.55C331.314 387.709 330.733 388.3 330.292 389.21C329.851 390.119 329.833 390.944 329.626 390.963Z" fill="#263238"/>
<path d="M321.731 38.6021C322.79 35.9768 321.506 32.7982 319.228 31.1011C316.826 29.5204 313.898 28.951 311.08 29.5165C308.299 30.0996 305.607 31.0453 303.072 32.3294C301.894 31.1408 300.408 30.3032 298.781 29.9101C297.154 29.517 295.45 29.5839 293.859 30.1033C292.267 30.6226 290.852 31.5741 289.77 32.8513C288.688 34.1286 287.983 35.6814 287.733 37.3363C286.719 37.0812 285.655 37.1069 284.654 37.4106C283.654 37.7144 282.755 38.2848 282.055 39.0607C281.354 39.8365 280.878 40.7885 280.677 41.8144C280.477 42.8404 280.559 43.9016 280.916 44.8842L293.593 49.338L307.432 73.7163C309.477 75.4613 312.088 76.4025 314.776 76.3644C317.464 76.3263 320.047 75.3115 322.042 73.5093C324.037 71.7071 325.308 69.2406 325.619 66.57C325.929 63.8994 325.257 61.2071 323.728 58.9955C324.504 58.306 325.162 57.4954 325.678 56.5952C326.784 55.9412 327.749 55.0739 328.517 54.0438C329.285 53.0136 329.84 51.8411 330.151 50.5944C331.379 45.1655 327.179 39.2397 321.731 38.6021Z" fill="#263238"/>
<path d="M313.34 89.3749C312.552 85.4087 312.008 82.6896 312.018 82.7177C312.027 82.7459 319.519 79.8111 318.975 69.3753C318.712 64.1808 316.734 55.9954 314.896 49.357C313.246 43.3749 307.667 36.7834 301.77 38.6868L283.889 47.4067C282.098 47.988 281.789 49.6757 282.211 51.5041V52.4417L289.158 81.1894L292.093 94.0349C292.719 96.6725 294.309 98.9804 296.551 100.504C298.793 102.028 301.525 102.657 304.207 102.267C305.672 102.061 307.08 101.558 308.344 100.788C309.607 100.019 310.7 98.9988 311.555 97.7915C312.41 96.5842 313.01 95.2148 313.317 93.7675C313.624 92.3202 313.632 90.8254 313.34 89.3749Z" fill="#FFBE9D"/>
<path d="M314.828 56.2951C314.903 56.6277 314.848 56.9766 314.674 57.2697C314.499 57.5628 314.219 57.7778 313.891 57.8703C313.725 57.9165 313.552 57.9288 313.381 57.9063C313.21 57.8839 313.046 57.8271 312.898 57.7395C312.75 57.6519 312.621 57.5353 312.52 57.3966C312.418 57.2579 312.345 57.1001 312.306 56.9326C312.231 56.6012 312.287 56.2535 312.461 55.962C312.636 55.6704 312.916 55.4573 313.244 55.3668C313.409 55.319 313.582 55.3054 313.752 55.3266C313.923 55.3479 314.087 55.4037 314.235 55.4905C314.384 55.5773 314.513 55.6935 314.615 55.8318C314.716 55.9701 314.789 56.1277 314.828 56.2951Z" fill="#263238"/>
<path d="M314.015 54.2978C313.884 54.5041 312.75 53.9884 311.362 54.2978C309.974 54.6073 309.093 55.5074 308.905 55.3667C308.718 55.2261 308.905 54.9636 309.29 54.551C309.806 54.0059 310.477 53.6327 311.212 53.4821C311.937 53.3257 312.694 53.4079 313.369 53.7165C313.894 53.9322 314.072 54.2135 314.015 54.2978Z" fill="#263238"/>
<path d="M301.215 59.3706C301.29 59.702 301.234 60.0497 301.06 60.3412C300.885 60.6328 300.605 60.8459 300.278 60.9364C300.116 60.9835 299.946 60.9981 299.778 60.9792C299.611 60.9603 299.449 60.9084 299.301 60.8264C299.154 60.7445 299.024 60.6341 298.92 60.5017C298.815 60.3693 298.738 60.2174 298.693 60.055C298.618 59.7223 298.673 59.3735 298.847 59.0804C299.022 58.7873 299.302 58.5723 299.631 58.4798C299.793 58.4328 299.963 58.4187 300.131 58.4382C300.299 58.4576 300.462 58.5104 300.609 58.5933C300.757 58.6762 300.886 58.7876 300.99 58.921C301.094 59.0545 301.171 59.2073 301.215 59.3706Z" fill="#263238"/>
<path d="M300.527 57.6074C300.405 57.8137 299.261 57.2886 297.874 57.6074C296.486 57.9262 295.605 58.8076 295.417 58.6763C295.23 58.5451 295.417 58.2732 295.802 57.8512C296.32 57.311 296.99 56.9414 297.724 56.7917C298.448 56.6377 299.203 56.7164 299.88 57.0167C300.377 57.2418 300.593 57.4949 300.527 57.6074Z" fill="#263238"/>
<path d="M307.587 66.4217C308.275 66.0425 309.005 65.7466 309.763 65.5404C310.11 65.4279 310.438 65.2872 310.447 65.034C310.398 64.6611 310.238 64.3116 309.988 64.0308L308.366 61.5367C306.097 57.9831 304.371 55.0389 304.512 54.9733C304.653 54.9077 306.612 57.6924 308.881 61.246L310.466 63.7589C310.777 64.1434 310.946 64.6237 310.944 65.1184C310.916 65.2533 310.859 65.3804 310.776 65.4906C310.693 65.6008 310.588 65.6914 310.466 65.756C310.282 65.8531 310.087 65.9256 309.885 65.9717C309.143 66.2256 308.37 66.377 307.587 66.4217Z" fill="#263238"/>
<path d="M312.016 82.7171C307.274 83.7889 302.327 83.5228 297.727 81.9482C297.727 81.9482 302.64 88.3616 312.55 85.2956L312.016 82.7171Z" fill="#EB996E"/>
<path d="M300.766 55.6199C300.672 56.0231 299.238 56.0137 297.606 56.4169C295.975 56.8201 294.681 57.4295 294.418 57.1108C294.306 56.9607 294.493 56.5669 294.99 56.1731C295.651 55.6169 296.435 55.2278 297.278 55.0386C298.113 54.8404 298.984 54.8404 299.819 55.0386C300.485 55.1605 300.832 55.4324 300.766 55.6199Z" fill="#263238"/>
<path d="M313.48 49.8725C313.255 50.2475 312.054 50.1538 310.667 50.4257C309.279 50.6976 308.182 51.1664 307.854 50.8945C307.704 50.7539 307.854 50.3976 308.257 49.9569C308.876 49.4362 309.625 49.0928 310.423 48.963C311.208 48.8048 312.022 48.8631 312.776 49.1318C313.348 49.3943 313.573 49.685 313.48 49.8725Z" fill="#263238"/>
<path d="M288.3 40.6932C288.508 41.7089 288.936 42.6665 289.555 43.4979C290.175 44.3293 290.97 45.0141 291.883 45.5037C292.797 45.9932 293.808 46.2756 294.843 46.3306C295.878 46.3856 296.913 46.212 297.873 45.822C299.355 45.222 300.892 44.0968 302.393 44.6406C303.893 45.1845 304.512 47.3222 305.946 48.1192C308.056 49.3006 310.634 47.2566 312.988 47.4629C314.863 47.6223 316.279 49.0569 317.732 50.2758C319.186 51.4947 321.192 52.4136 322.833 51.5322C322.457 49.9664 321.9 48.4497 321.173 47.0128C320.44 45.5663 319.227 44.4195 317.742 43.7686C316.916 43.4405 316.026 43.328 315.238 42.9248C313.541 42.0622 312.782 40.1119 311.553 38.6398C310.747 37.7122 309.73 36.9901 308.589 36.5336C307.448 36.077 306.214 35.899 304.99 36.0145C302.965 36.2207 301.042 37.2427 298.998 37.1584C297.489 37.0927 296.045 36.4176 294.535 36.4458C291.6 36.4458 289.397 39.0711 287.766 41.5183" fill="#263238"/>
<path d="M298.186 42.8402C296.835 42.7371 294.079 42.4558 293.169 41.4994C292.245 40.466 291.066 39.6934 289.75 39.259C288.433 38.8245 287.026 38.7436 285.668 39.0241C284.321 39.4257 283.138 40.2492 282.295 41.3734C281.451 42.4976 280.99 43.863 280.98 45.2687C279.34 45.669 277.838 46.505 276.633 47.6883C275.428 48.8717 274.565 50.3584 274.135 51.9915C273.699 53.7011 273.684 55.4911 274.093 57.2077C274.501 58.9242 275.32 60.5159 276.479 61.8459C277.043 62.5503 277.557 63.2928 278.017 64.0681C277.381 64.8568 276.823 65.7046 276.348 66.5997C274.201 71.3441 280.024 73.1631 280.024 73.1631C280.024 76.351 282.977 76.3323 284.862 76.3229C286.747 76.3135 287.787 81.3486 289.259 81.1517L287.769 65.6152C287.987 65.7001 288.219 65.7446 288.453 65.7465C292.007 65.8121 291.078 59.0799 289.934 57.3078C290.993 55.9898 291.887 54.5478 292.597 53.0135C293.241 50.6681 293.286 48.1987 292.729 45.8313C293.919 45.6812 298.767 42.8777 298.186 42.8402Z" fill="#263238"/>
<path d="M288.235 66.4403C288.114 65.9466 287.87 65.4916 287.525 65.1178C287.181 64.744 286.747 64.4635 286.265 64.3025C285.783 64.1414 285.268 64.1052 284.768 64.197C284.268 64.2888 283.8 64.5057 283.406 64.8276C282.468 65.6339 281.972 66.9841 282.534 69.2438C284.053 75.2821 289.801 72.5161 289.763 72.3473C289.726 72.1786 288.891 68.9344 288.235 66.4403Z" fill="#FFBE9D"/>
<path d="M287.347 70.5188C287.347 70.5188 287.263 70.622 287.103 70.7439C286.882 70.9138 286.603 70.9911 286.325 70.9595C285.631 70.8845 284.834 70.0219 284.534 68.9249C284.391 68.4123 284.362 67.8746 284.45 67.3496C284.459 67.1457 284.518 66.9471 284.621 66.7708C284.724 66.5945 284.868 66.4457 285.041 66.337C285.154 66.2756 285.286 66.2561 285.413 66.2818C285.54 66.3075 285.653 66.3768 285.734 66.4777C285.856 66.6183 285.847 66.7496 285.884 66.7589C285.922 66.7683 285.988 66.6183 285.884 66.3839C285.812 66.2449 285.697 66.133 285.556 66.0651C285.358 65.9848 285.136 65.9848 284.937 66.0651C284.702 66.1769 284.498 66.3464 284.346 66.5579C284.194 66.7693 284.097 67.0159 284.065 67.2746C283.944 67.8651 283.966 68.4762 284.131 69.0561C284.236 69.6006 284.499 70.102 284.888 70.4974C285.276 70.8928 285.773 71.1644 286.316 71.2783C286.492 71.2855 286.668 71.253 286.83 71.1832C286.993 71.1134 287.137 71.0081 287.253 70.8751C287.375 70.6688 287.375 70.5282 287.347 70.5188Z" fill="#EB996E"/>
<path d="M320.615 58.0111C320.615 58.0111 321.168 57.5891 321.937 56.6515C322.998 55.3005 323.648 53.6734 323.812 51.9634C323.936 50.796 323.821 49.6156 323.474 48.4941C323.074 47.2077 322.332 46.054 321.327 45.1562C320.167 44.1432 318.763 43.4511 317.253 43.1485C315.743 42.8459 314.18 42.9432 312.72 43.431C312.438 43.5247 312.176 43.6654 311.913 43.7779C311.651 43.8904 311.416 44.0592 311.173 44.1998L310.798 44.4061V43.9935C310.79 43.2672 310.52 42.5681 310.038 42.0245C309.545 41.4969 308.939 41.0868 308.266 40.8244C306.993 40.2937 305.582 40.1884 304.244 40.5243C301.656 41.115 299.462 42.2964 297.39 42.5402C295.765 42.8226 294.093 42.4882 292.701 41.6026C292.334 41.35 292.016 41.0322 291.764 40.665C291.614 40.4118 291.539 40.2712 291.558 40.2618C291.897 40.7248 292.312 41.1273 292.786 41.4526C294.155 42.2428 295.763 42.5124 297.315 42.212C298.394 42.0089 299.45 41.6947 300.465 41.2744C301.657 40.7981 302.878 40.4003 304.122 40.0836C304.815 39.9159 305.528 39.8433 306.241 39.868C306.993 39.9077 307.732 40.0791 308.425 40.3743C309.142 40.6806 309.783 41.1417 310.301 41.7245C310.855 42.3592 311.167 43.1696 311.182 44.0123L310.807 43.806L311.585 43.3559C311.876 43.2434 312.148 43.0934 312.448 42.9903C313.987 42.4631 315.639 42.3528 317.235 42.6706C318.83 42.9885 320.314 43.7231 321.533 44.7999C322.588 45.7546 323.36 46.9806 323.765 48.3441C324.186 49.7893 324.242 51.3161 323.93 52.7885C323.618 54.2609 322.946 55.6331 321.974 56.7828C321.665 57.1352 321.316 57.4499 320.933 57.7204C320.839 57.8298 320.732 57.9274 320.615 58.0111Z" fill="#455A64"/>
<path d="M319.396 36.8112C318.78 36.4987 318.124 36.2746 317.445 36.1455C316.67 36.0395 315.881 36.1133 315.139 36.3612C314.178 36.6552 313.343 37.2626 312.767 38.0864L312.532 38.4146L312.392 38.0395C311.902 36.8869 311.114 35.8857 310.109 35.1391C309.103 34.3925 307.917 33.9275 306.672 33.7921C304.717 33.7185 302.79 34.2775 301.178 35.386C299.804 36.2815 298.343 37.0354 296.818 37.6363C295.766 38.0342 294.633 38.1694 293.517 38.0301C293.22 37.9752 292.928 37.8936 292.645 37.7864C292.458 37.702 292.354 37.6551 292.364 37.6363C292.373 37.6176 292.786 37.7582 293.545 37.8332C294.624 37.9006 295.704 37.7244 296.705 37.3175C298.188 36.6711 299.609 35.8928 300.953 34.9922C301.782 34.477 302.662 34.0466 303.578 33.7077C304.585 33.3405 305.661 33.2027 306.728 33.3045C308.058 33.4497 309.324 33.9528 310.39 34.7601C311.457 35.5675 312.285 36.649 312.785 37.8895H312.42C313.064 37.0084 313.985 36.3681 315.036 36.0705C315.834 35.8391 316.675 35.7973 317.492 35.9486C318.01 36.0468 318.505 36.2374 318.955 36.5112C319.115 36.5897 319.264 36.6907 319.396 36.8112Z" fill="#455A64"/>
<path d="M307.044 69.1967C306.825 69.0136 306.57 68.8789 306.295 68.8013C306.02 68.7237 305.732 68.7051 305.45 68.7467C305.12 68.8172 304.808 68.9563 304.535 69.1549C304.262 69.3536 304.034 69.6074 303.865 69.8999C303.865 69.8999 303.818 69.9468 303.809 69.975C303.68 70.1891 303.621 70.4382 303.64 70.6876C303.681 70.9592 303.788 71.2166 303.951 71.4373C304.115 71.658 304.33 71.8352 304.578 71.9533C304.974 72.1543 305.423 72.2279 305.863 72.1641C306.302 72.1003 306.712 71.9023 307.035 71.5971C307.341 71.2732 307.513 70.8447 307.514 70.3987C307.516 69.9528 307.348 69.523 307.044 69.1967Z" fill="#176CFF"/>
<path d="M307.516 72.1131C307.441 72.1131 307.357 71.8318 307.104 71.4474C306.799 70.932 306.343 70.5226 305.798 70.2744C305.253 70.0263 304.645 69.9513 304.056 70.0597C303.597 70.1253 303.316 70.2566 303.288 70.1909C303.259 70.1253 303.475 69.9003 303.981 69.7221C304.644 69.5089 305.362 69.549 305.997 69.8347C306.638 70.1199 307.145 70.6401 307.413 71.288C307.61 71.7755 307.582 72.1037 307.516 72.1131Z" fill="#263238"/>
<path d="M288.378 73.2752C288.378 73.2752 288.65 73.7441 288.294 74.4567C288.092 74.8831 287.738 75.2179 287.3 75.3943C287.027 75.492 286.735 75.5251 286.447 75.4909C286.159 75.4568 285.883 75.3563 285.64 75.1974C285.394 75.0474 285.185 74.8424 285.03 74.5984C284.876 74.3545 284.78 74.0781 284.75 73.7909C284.721 73.3278 284.858 72.8696 285.134 72.497C285.622 71.8782 286.166 71.8594 286.166 71.9157C286.166 71.9719 285.753 72.1313 285.425 72.6939C285.235 73.0091 285.156 73.3787 285.2 73.7441C285.235 73.9581 285.316 74.1619 285.437 74.3416C285.559 74.5213 285.718 74.6725 285.903 74.7848C286.086 74.9019 286.292 74.9791 286.507 75.0114C286.721 75.0437 286.941 75.0304 287.15 74.9724C287.496 74.8485 287.795 74.6189 288.003 74.316C288.369 73.7347 288.303 73.2752 288.378 73.2752Z" fill="#176CFF"/>
<path d="M285.218 72.9097C285.265 72.9097 285.218 73.2285 284.778 73.4348C284.561 73.5248 284.323 73.5509 284.093 73.5101C283.862 73.4693 283.647 73.3632 283.475 73.2045C283.302 73.0457 283.179 72.8409 283.119 72.6142C283.059 72.3876 283.065 72.1485 283.137 71.9252C283.229 71.6717 283.404 71.4568 283.634 71.3158C284.018 71.0814 284.309 71.1751 284.3 71.2314C284.29 71.2876 284.075 71.3533 283.84 71.5877C283.725 71.7318 283.654 71.9067 283.638 72.0906C283.622 72.2744 283.66 72.459 283.748 72.6212C283.836 72.7834 283.97 72.916 284.133 73.0023C284.297 73.0887 284.482 73.125 284.665 73.1066C284.984 73.041 285.153 72.8722 285.218 72.9097Z" fill="#176CFF"/>
<path d="M295.527 156.181C295.527 156.181 318.742 157.531 332.469 157.653C343.092 157.756 347.837 154.934 349.956 148.098C351.737 142.369 347.912 131.371 347.912 131.371C340.72 131.371 336.285 132.402 331.663 134.568L332.891 139.594L295.461 142.82L295.527 156.181Z" fill="#FFBE9D"/>
<path d="M340.689 144.957C339.682 143.648 338.506 142.478 337.191 141.479C335.781 140.616 334.261 139.947 332.672 139.491C333.172 139.419 333.683 139.464 334.163 139.622C335.342 139.901 336.461 140.393 337.463 141.075C338.467 141.76 339.335 142.624 340.023 143.626C340.548 144.395 340.745 144.929 340.689 144.957Z" fill="#EB996E"/>
<path d="M287.027 134.531C287.027 134.531 279.845 136.256 274.566 139.781L280.192 155.027C282.067 160.034 287.796 162.528 292.381 159.903C299.442 155.862 301.936 144.085 301.936 144.085L309.69 110.443L296.835 102.389L287.074 134.531" fill="#FFBE9D"/>
<path d="M296.785 102.389L297.31 91.3248L294.432 80.0733C294.272 79.4544 294.197 78.6762 294.704 78.3012C294.955 78.1086 295.265 78.009 295.581 78.0193C295.897 78.0295 296.2 78.149 296.438 78.3574C297.217 79.1638 300.967 88.9995 300.967 88.9995C300.967 88.9995 306.659 85.5865 307.671 85.4177C308.684 85.249 309.95 88.315 310.034 88.5494C310.071 89.2365 310.071 89.9251 310.034 90.6122C310.034 90.6122 313.55 90.7153 313.869 91.1935C314.125 92.1704 314.26 93.1749 314.272 94.1846C314.272 94.1846 315.763 94.6628 315.997 95.7879C316.232 96.9131 316.719 98.7696 315.997 99.1821C315.275 99.5947 313.813 100.401 313.813 100.401C313.813 100.401 313.222 106.139 313.063 106.664C312.903 107.189 309.612 110.415 309.612 110.415L296.785 102.389Z" fill="#FFBE9D"/>
<path d="M284.828 160.128C284.828 160.128 285.175 160.334 285.906 160.568C286.976 160.904 288.107 160.994 289.216 160.831C290.998 160.577 292.666 159.808 294.017 158.618C295.802 156.999 297.309 155.099 298.48 152.992C299.169 151.754 299.75 150.459 300.215 149.12C300.702 147.647 301.106 146.148 301.424 144.629C302.155 141.469 302.952 138.065 303.796 134.446C305.484 127.217 307.378 119.135 309.422 110.424V110.359H309.469C310.116 109.721 310.763 109.074 311.41 108.399C311.729 108.061 312.047 107.724 312.347 107.377C312.498 107.199 312.657 107.021 312.779 106.842C312.874 106.666 312.928 106.471 312.938 106.27C313.191 104.395 313.388 102.454 313.595 100.495V100.373L313.707 100.317L315.498 99.3133C315.629 99.2289 315.835 99.1351 315.92 99.0601C316.009 98.979 316.069 98.87 316.089 98.7507C316.132 98.4397 316.132 98.1241 316.089 97.8131C315.998 97.1255 315.857 96.4454 315.667 95.7784C315.348 95.1951 314.812 94.7607 314.176 94.5689L314.016 94.5126V94.3532C314.016 93.8094 313.96 93.2468 313.895 92.6936C313.869 92.4166 313.828 92.1411 313.773 91.8685C313.751 91.7484 313.713 91.6317 313.66 91.5216C313.66 91.4559 313.66 91.5216 313.604 91.4653C313.553 91.4386 313.5 91.4166 313.445 91.3997C312.317 91.154 311.167 91.0251 310.013 91.0153H309.769V90.7715C309.769 90.1902 309.769 89.5432 309.769 88.8962C309.73 88.6756 309.654 88.4631 309.544 88.268C309.45 88.043 309.338 87.8273 309.225 87.6023C309.006 87.168 308.748 86.7538 308.456 86.3646C308.324 86.1832 308.162 86.0249 307.978 85.8958C307.91 85.8383 307.827 85.8023 307.738 85.7923C307.65 85.7823 307.56 85.7987 307.481 85.8396C307.028 86.0133 306.586 86.2169 306.159 86.449C304.415 87.3867 302.709 88.3243 301.04 89.3369L300.796 89.4869L300.693 89.2244C299.811 87.0022 298.93 84.8082 298.067 82.661C297.636 81.5827 297.214 80.5045 296.783 79.4449C296.716 79.2076 296.584 78.9938 296.402 78.8279C296.22 78.6621 295.994 78.551 295.751 78.5073C295.527 78.4329 295.285 78.437 295.063 78.5188C294.842 78.6006 294.655 78.7552 294.533 78.9574C294.416 79.1585 294.366 79.3919 294.392 79.6231C294.392 79.8294 294.523 80.1482 294.579 80.4013C294.729 80.9451 294.87 81.4796 295.011 82.014C295.292 83.0923 295.564 84.1518 295.845 85.202C296.395 87.3148 296.936 89.3775 297.467 91.3903V91.456C297.28 95.3065 297.102 98.9945 296.933 102.52V102.501L288.391 130.292L285.981 138.028C285.7 138.9 285.484 139.584 285.334 140.063C285.184 140.541 285.091 140.747 285.091 140.747C285.091 140.747 285.138 140.503 285.269 140.044L285.86 137.99C286.403 136.181 287.182 133.565 288.166 130.227C290.191 123.513 293.07 113.931 296.548 102.379V102.426C296.711 98.9132 296.877 95.2252 297.045 91.3622V91.4278C296.511 89.4119 295.958 87.3492 295.405 85.2489L294.561 82.0609C294.42 81.5265 294.279 80.9827 294.129 80.4482C294.049 80.1675 293.983 79.8827 293.932 79.595C293.898 79.2695 293.967 78.9414 294.129 78.6573C294.303 78.3649 294.571 78.14 294.889 78.0198C295.204 77.9277 295.537 77.9172 295.856 77.9894C296.176 78.0616 296.473 78.214 296.717 78.4323C296.953 78.6531 297.127 78.9308 297.224 79.2387L298.508 82.4547C299.38 84.6113 300.252 86.8053 301.143 89.0181L300.796 88.8962C302.474 87.9024 304.162 86.9085 305.943 85.9802C306.394 85.7448 306.857 85.5351 307.331 85.352C307.479 85.2904 307.641 85.2678 307.8 85.2864C307.96 85.3095 308.114 85.3671 308.25 85.4551C308.476 85.6171 308.675 85.8133 308.841 86.0365C309.154 86.4468 309.427 86.8864 309.657 87.3491C309.778 87.5835 309.891 87.8086 309.994 88.043C310.127 88.2913 310.216 88.561 310.257 88.84C310.257 89.5057 310.257 90.1245 310.257 90.7152L310.022 90.4621C311.227 90.4701 312.428 90.6085 313.604 90.8746C313.685 90.9028 313.763 90.9373 313.838 90.9778C313.941 91.0339 314.026 91.1185 314.082 91.2215C314.155 91.3737 314.208 91.5343 314.241 91.6997C314.298 91.9998 314.335 92.2811 314.373 92.5717C314.429 93.1437 314.467 93.7063 314.495 94.2688L314.326 94.0438C314.709 94.1563 315.066 94.3456 315.374 94.6003C315.682 94.855 315.934 95.1697 316.117 95.5253C316.322 96.2378 316.473 96.965 316.567 97.7006C316.632 98.0759 316.632 98.4597 316.567 98.8351C316.526 99.0625 316.406 99.2682 316.229 99.4164C316.075 99.5194 315.916 99.6133 315.751 99.6977L313.97 100.626L314.091 100.448C313.876 102.407 313.679 104.33 313.416 106.233L313.36 106.599C313.338 106.747 313.277 106.886 313.182 107.002C313.044 107.207 312.89 107.401 312.723 107.583C312.404 107.939 312.085 108.286 311.785 108.624C311.138 109.299 310.491 109.946 309.835 110.584L309.9 110.471C307.837 119.172 305.925 127.255 304.209 134.484C303.356 138.094 302.54 141.497 301.79 144.648C301.469 146.178 301.056 147.687 300.552 149.167C300.07 150.518 299.474 151.826 298.771 153.077C297.573 155.21 296.03 157.13 294.204 158.759C292.814 159.956 291.102 160.719 289.282 160.953C288.149 161.105 286.996 160.989 285.916 160.615C285.641 160.514 285.375 160.392 285.119 160.25L284.828 160.128Z" fill="#EB996E"/>
<path d="M310.046 90.6407C310.046 90.7063 309.728 90.7438 309.231 90.7626C308.6 90.7746 307.971 90.85 307.355 90.9876C306.761 91.1337 306.213 91.4272 305.761 91.8409C305.424 92.1596 305.274 92.4316 305.199 92.4034C305.124 92.3753 305.199 92.0378 305.508 91.6064C305.945 91.0605 306.553 90.6773 307.233 90.5188C307.89 90.357 308.571 90.3252 309.24 90.425C309.746 90.4907 310.046 90.5751 310.046 90.6407Z" fill="#EB996E"/>
<path d="M307.329 90.7434C307.207 90.6965 307.198 90.4058 307.329 90.0964C307.461 89.787 307.648 89.5713 307.77 89.6182C307.892 89.6651 307.911 89.9558 307.77 90.2652C307.629 90.5746 307.423 90.7903 307.329 90.7434Z" fill="#EB996E"/>
<path d="M314.437 94.1471C313.527 94.4287 312.577 94.5586 311.624 94.5315C311.325 94.5215 311.027 94.5836 310.756 94.7125C310.485 94.8413 310.249 95.0333 310.068 95.2722C309.824 95.6567 309.909 95.9755 309.834 95.9942C309.759 96.013 309.534 95.6848 309.768 95.1222C309.897 94.8055 310.132 94.5436 310.434 94.3815C310.781 94.1911 311.164 94.076 311.559 94.044C312.516 93.8974 313.493 93.9324 314.437 94.1471Z" fill="#EB996E"/>
<path d="M313.816 97.5226C313.947 97.5226 314.022 98.2164 313.985 99.0696C313.947 99.9229 313.807 100.598 313.675 100.598C313.544 100.598 313.46 99.8948 313.497 99.0415C313.535 98.1883 313.675 97.5132 313.816 97.5226Z" fill="#EB996E"/>
<path d="M317.703 122.773L318.538 119.904C318.576 119.773 318.648 119.653 318.746 119.558C318.844 119.463 318.965 119.395 319.098 119.361C319.23 119.327 319.369 119.328 319.501 119.364C319.633 119.4 319.753 119.47 319.85 119.566L320.947 120.682L321.622 117.972C321.662 117.816 321.749 117.675 321.871 117.57C321.994 117.464 322.145 117.399 322.306 117.382C322.467 117.366 322.628 117.4 322.77 117.478C322.911 117.557 323.024 117.677 323.094 117.822L324.623 121.029L317.703 122.773Z" fill="white"/>
<path d="M324.644 122.257C323.595 122.764 322.481 123.124 321.334 123.326C320.225 123.689 319.069 123.891 317.902 123.926C320.061 123.059 322.33 122.497 324.644 122.257Z" fill="white"/>
<path d="M268.887 106.252C268.887 106.252 268.54 106.608 268.052 107.368C267.398 108.449 266.967 109.651 266.787 110.903C266.519 112.766 266.463 114.653 266.618 116.528C266.721 118.657 266.89 120.982 267.152 123.42C267.596 127.583 268.257 131.721 269.131 135.815C269.459 137.391 269.759 138.628 269.965 139.566C270.059 139.96 270.143 140.288 270.209 140.569C270.275 140.85 270.284 140.925 270.284 140.925C270.284 140.925 270.237 140.813 270.171 140.588C270.106 140.363 270.003 139.969 269.9 139.585C269.665 138.713 269.346 137.456 268.962 135.881C268.05 131.788 267.371 127.646 266.927 123.476C266.665 121.038 266.505 118.704 266.412 116.575C266.269 114.698 266.339 112.811 266.618 110.949C266.819 109.682 267.279 108.469 267.968 107.386C268.222 106.969 268.531 106.587 268.887 106.252Z" fill="white"/>
<path d="M288.624 93.4817L288.408 93.5942L287.789 93.8943C287.255 94.1475 286.477 94.5225 285.548 95.0382C283.129 96.3878 280.778 97.8586 278.507 99.445C275.825 101.32 273.453 103.027 271.718 104.264L269.665 105.718L269.093 106.102C269.029 106.153 268.96 106.197 268.887 106.233C268.94 106.17 269.003 106.117 269.074 106.074L269.618 105.662L271.634 104.152C273.35 102.886 275.713 101.123 278.394 99.2857C280.67 97.6924 283.037 96.2335 285.483 94.9163C286.42 94.4194 287.208 94.0631 287.761 93.8287L288.389 93.5661C288.577 93.5005 288.577 93.4724 288.624 93.4817Z" fill="white"/>
<path d="M333.334 99.5853C333.276 99.5527 333.222 99.5117 333.175 99.4634L332.753 99.0977C332.231 98.6566 331.683 98.2465 331.112 97.8695C329.209 96.6558 327.189 95.635 325.083 94.8222C322.984 93.9906 320.84 93.2768 318.661 92.6844C317.817 92.45 317.142 92.2812 316.663 92.1687L316.129 92.028C316.064 92.0146 316.001 91.9925 315.941 91.9624H316.138L316.682 92.0655C317.16 92.1593 317.845 92.3093 318.689 92.525C320.888 93.0803 323.05 93.7788 325.158 94.6159C327.276 95.4285 329.298 96.4725 331.187 97.7288C331.973 98.2611 332.694 98.8842 333.334 99.5853Z" fill="white"/>
<path d="M288.887 171.154C288.76 171.132 288.637 171.091 288.521 171.033C288.196 170.889 287.882 170.72 287.584 170.526C287.079 170.224 286.638 169.824 286.287 169.351C285.937 168.878 285.683 168.341 285.54 167.77C285.282 166.617 285.411 165.411 285.905 164.338C286.048 164.005 286.231 163.69 286.449 163.4C286.599 163.203 286.702 163.11 286.712 163.119C286.456 163.519 286.227 163.936 286.027 164.366C285.591 165.42 285.49 166.582 285.737 167.695C286.005 168.794 286.674 169.753 287.612 170.386C288.39 170.948 288.906 171.117 288.887 171.154Z" fill="white"/>
<path d="M285.906 161C286.106 161.372 286.254 161.77 286.347 162.181C286.494 162.576 286.582 162.99 286.609 163.41C286.396 163.046 286.244 162.65 286.159 162.238C286.006 161.842 285.92 161.424 285.906 161Z" fill="white"/>
<path d="M298.58 371.225L327.178 371.085L326.662 272.212L326.39 171.633L287.638 171.136L280.671 184.263C277.821 189.54 276.004 195.313 275.317 201.271C274.849 205.828 278.262 220.643 279.443 224.393L290.104 258.204L298.58 371.225Z" fill="#263238"/>
<path d="M334.783 171.755L366.212 257.426C368.074 262.946 368.693 268.809 368.023 274.596C367.354 280.383 365.413 285.95 362.34 290.899L325.847 362.159L305.332 336.486L335.861 272.728L308.951 229.081L313.48 171.886L326.157 171.68L334.783 171.755Z" fill="#263238"/>
<path d="M323.781 200.455C323.781 200.455 323.781 200.605 323.781 200.896C323.781 201.187 323.828 201.637 323.866 202.19C323.931 203.343 324.016 205.003 324.128 207.15C324.344 211.491 324.644 217.727 325.066 225.424C325.488 233.122 325.844 242.302 326.313 252.522C326.538 257.623 326.782 262.976 327.025 268.527C327.204 271.34 327.129 274.153 327.157 276.966C327.185 279.779 327.157 282.742 327.157 285.686C327.157 309.248 327.232 330.579 327.26 346.041C327.26 353.748 327.26 359.993 327.26 364.334C327.26 366.481 327.26 368.15 327.26 369.313C327.26 369.857 327.26 370.25 327.26 370.607C327.26 370.963 327.26 371.047 327.26 371.047C327.26 371.047 327.26 370.897 327.26 370.607V369.313C327.26 368.15 327.26 366.5 327.204 364.334C327.204 359.993 327.129 353.758 327.072 346.05C327.007 330.589 326.922 309.258 326.829 285.695C326.829 282.751 326.829 279.844 326.829 276.975C326.829 274.106 326.885 271.274 326.707 268.537C326.472 262.995 326.238 257.641 326.022 252.541C325.591 242.339 325.197 233.16 324.878 225.434C324.559 217.708 324.325 211.501 324.147 207.159C324.072 205.022 324.016 203.353 323.978 202.19C323.978 201.637 323.978 201.252 323.978 200.896C323.978 200.54 323.781 200.455 323.781 200.455Z" fill="#455A64"/>
<path d="M323.059 173.442C323.168 173.744 323.235 174.06 323.256 174.38C323.359 174.98 323.471 175.852 323.602 176.94C323.846 179.105 324.109 182.115 324.259 185.444C324.409 188.772 324.418 191.792 324.371 193.976C324.371 195.064 324.306 195.955 324.259 196.564C324.268 196.881 324.23 197.197 324.146 197.502C324.028 196.331 323.988 195.153 324.024 193.976C324.024 191.792 323.921 188.791 323.771 185.463C323.621 182.134 323.415 179.143 323.256 177.024C323.122 175.835 323.056 174.639 323.059 173.442Z" fill="#455A64"/>
<path d="M316.761 175.374C316.808 175.439 316.273 175.683 316.123 176.443C316.081 176.649 316.093 176.862 316.157 177.062C316.221 177.263 316.335 177.443 316.489 177.587C316.674 177.759 316.906 177.875 317.155 177.92C317.404 177.964 317.661 177.937 317.895 177.84C318.12 177.724 318.308 177.547 318.437 177.33C318.566 177.113 318.632 176.864 318.627 176.611C318.618 176.402 318.556 176.197 318.446 176.018C318.336 175.84 318.182 175.692 317.999 175.589C317.617 175.405 317.192 175.33 316.77 175.374C316.77 175.374 316.864 175.252 317.108 175.177C317.459 175.091 317.83 175.127 318.158 175.28C318.42 175.389 318.646 175.568 318.812 175.799C318.977 176.029 319.076 176.3 319.096 176.583C319.133 176.932 319.059 177.284 318.886 177.59C318.713 177.895 318.448 178.138 318.129 178.285C317.81 178.432 317.454 178.476 317.109 178.409C316.764 178.343 316.449 178.17 316.208 177.915C316.008 177.717 315.867 177.468 315.799 177.195C315.732 176.922 315.74 176.636 315.823 176.368C315.917 176.017 316.129 175.709 316.423 175.496C316.611 175.364 316.751 175.346 316.761 175.374Z" fill="#455A64"/>
<path d="M301.759 173.677C301.897 173.972 301.983 174.29 302.012 174.614C302.163 175.456 302.192 176.315 302.097 177.165C301.962 178.43 301.596 179.66 301.018 180.793C300.32 182.203 299.286 183.42 298.008 184.337C296.73 185.255 295.245 185.844 293.686 186.053C292.438 186.24 291.166 186.192 289.936 185.913C289.103 185.732 288.301 185.432 287.554 185.022C287.272 184.888 287.012 184.711 286.785 184.497C287.822 184.963 288.902 185.324 290.011 185.575C291.344 185.853 292.721 185.85 294.053 185.569C295.386 185.287 296.646 184.733 297.753 183.94C298.861 183.147 299.792 182.133 300.488 180.962C301.184 179.791 301.629 178.488 301.797 177.137C301.907 175.985 301.894 174.825 301.759 173.677Z" fill="#455A64"/>
<path d="M338.552 181.89C337.94 181.961 337.32 181.887 336.742 181.675C335.326 181.228 334.054 180.413 333.057 179.312C332.052 178.216 331.362 176.868 331.06 175.411C330.912 174.817 330.912 174.196 331.06 173.602C331.144 173.602 331.154 174.286 331.435 175.336C331.815 176.693 332.506 177.943 333.453 178.986C334.401 180.029 335.578 180.838 336.892 181.346C337.867 181.731 338.561 181.796 338.552 181.89Z" fill="#455A64"/>
<path d="M349.718 274.247C349.248 274.783 348.686 275.231 348.058 275.569C347.4 275.987 346.683 276.303 345.93 276.507C344.983 276.757 343.984 276.731 343.051 276.432C341.414 275.814 340.01 274.699 339.038 273.244C338.592 272.697 338.223 272.091 337.941 271.443C338.448 271.926 338.906 272.457 339.31 273.028C340.306 274.348 341.65 275.365 343.192 275.963C343.979 276.173 344.801 276.22 345.607 276.103C346.413 275.985 347.186 275.705 347.88 275.278C348.473 274.9 349.086 274.555 349.718 274.247Z" fill="#455A64"/>
<path d="M342.558 279.713C341.45 278.565 340.46 277.309 339.604 275.962C338.618 274.709 337.758 273.362 337.035 271.94C338.151 273.083 339.144 274.34 339.998 275.69C340.992 276.936 341.85 278.285 342.558 279.713Z" fill="#455A64"/>
<path d="M294.513 203.765C294.382 203.812 294.054 203.278 293.763 202.556C293.473 201.834 293.351 201.224 293.473 201.168C293.595 201.112 293.932 201.656 294.213 202.378C294.495 203.1 294.635 203.765 294.513 203.765Z" fill="#FAFAFA"/>
<path d="M312.662 206.372C312.521 206.372 312.418 205.913 312.418 205.341C312.418 204.769 312.521 204.3 312.662 204.3C312.802 204.3 312.906 204.769 312.906 205.341C312.906 205.913 312.793 206.372 312.662 206.372Z" fill="#FAFAFA"/>
<path d="M305.201 216.236C305.07 216.236 304.92 215.673 304.873 214.951C304.826 214.229 304.873 213.648 305.023 213.638C305.173 213.629 305.314 214.201 305.36 214.923C305.407 215.645 305.332 216.226 305.201 216.236Z" fill="#FAFAFA"/>
<path d="M291.562 223.455C291.449 223.54 291.065 223.193 290.559 222.836C290.052 222.48 289.621 222.208 289.621 222.077C289.621 221.946 290.24 222.021 290.812 222.433C291.384 222.846 291.675 223.455 291.562 223.455Z" fill="#FAFAFA"/>
<path d="M315.597 232.653C315.485 232.578 315.597 232.175 315.916 231.716C316.235 231.256 316.525 230.994 316.638 231.069C316.75 231.144 316.638 231.556 316.319 232.006C316 232.456 315.71 232.728 315.597 232.653Z" fill="#FAFAFA"/>
<path d="M300.763 235.251C300.632 235.251 300.52 234.473 300.52 233.526C300.52 232.579 300.632 231.791 300.763 231.791C300.895 231.791 301.007 232.569 301.007 233.526C301.007 234.482 300.866 235.251 300.763 235.251Z" fill="#FAFAFA"/>
<path d="M295.909 245.771C295.834 245.874 295.347 245.658 294.822 245.274C294.297 244.889 293.884 244.496 294.006 244.383C294.128 244.271 294.578 244.496 295.103 244.88C295.628 245.264 295.994 245.658 295.909 245.771Z" fill="#FAFAFA"/>
<path d="M310.93 249.428C310.987 249.55 310.686 249.803 310.255 250C309.824 250.197 309.43 250.244 309.374 250.122C309.318 250 309.627 249.747 310.058 249.55C310.49 249.353 310.883 249.306 310.93 249.428Z" fill="#FAFAFA"/>
<path d="M300.765 266.586C300.652 266.643 300.165 265.921 299.686 264.964C299.208 264.008 298.918 263.183 299.04 263.089C299.161 262.995 299.649 263.755 300.118 264.711C300.587 265.667 300.849 266.483 300.765 266.586Z" fill="#FAFAFA"/>
<path d="M317.331 264.992C317.209 264.927 317.425 264.299 317.8 263.577C318.175 262.855 318.597 262.33 318.737 262.395C318.878 262.461 318.644 263.089 318.259 263.811C317.875 264.533 317.444 265.058 317.331 264.992Z" fill="#FAFAFA"/>
<path d="M310.063 279.516C309.922 279.516 309.941 278.757 309.791 277.875C309.641 276.994 309.416 276.291 309.547 276.225C309.679 276.16 310.129 276.825 310.279 277.8C310.429 278.775 310.194 279.544 310.063 279.516Z" fill="#FAFAFA"/>
<path d="M302.284 287.814C302.19 287.908 301.722 287.551 301.243 287.026C300.765 286.501 300.456 286.004 300.559 285.91C300.662 285.817 301.121 286.173 301.6 286.698C302.078 287.223 302.387 287.72 302.284 287.814Z" fill="#FAFAFA"/>
<path d="M321.168 290.965C321.074 290.871 321.421 290.365 321.946 289.83C322.471 289.296 322.958 288.949 323.062 289.043C323.165 289.136 322.808 289.652 322.293 290.177C321.777 290.702 321.271 291.059 321.168 290.965Z" fill="#FAFAFA"/>
<path d="M310.309 303.388C310.178 303.388 310.178 302.648 310.309 301.785C310.441 300.922 310.647 300.247 310.788 300.266C310.928 300.285 310.919 300.997 310.788 301.86C310.656 302.723 310.441 303.407 310.309 303.388Z" fill="#FAFAFA"/>
<path d="M303.004 309.417C302.882 309.482 302.47 308.995 302.067 308.329C301.663 307.663 301.457 307.073 301.57 307.007C301.682 306.941 302.095 307.42 302.507 308.085C302.92 308.751 303.117 309.342 303.004 309.417Z" fill="#FAFAFA"/>
<path d="M320.6 317.021C320.685 317.134 320.207 317.612 319.532 318.09C318.856 318.568 318.266 318.868 318.181 318.756C318.097 318.643 318.585 318.165 319.25 317.687C319.916 317.209 320.525 316.918 320.6 317.021Z" fill="#FAFAFA"/>
<path d="M305.941 326.895C305.81 326.848 305.941 326.098 306.063 325.16C306.185 324.223 306.11 323.454 306.251 323.435C306.391 323.416 306.635 324.204 306.541 325.207C306.448 326.21 306.063 326.951 305.941 326.895Z" fill="#FAFAFA"/>
<path d="M311.8 341.071C311.688 341.156 311.294 340.837 310.909 340.359C310.525 339.881 310.309 339.421 310.412 339.337C310.516 339.252 310.909 339.571 311.294 340.049C311.678 340.528 311.903 340.987 311.8 341.071Z" fill="#FAFAFA"/>
<path d="M305.395 350.579C305.282 350.654 304.767 350.101 304.242 349.332C303.717 348.564 303.388 347.888 303.492 347.813C303.595 347.738 304.12 348.292 304.645 349.06C305.17 349.829 305.507 350.504 305.395 350.579Z" fill="#FAFAFA"/>
<path d="M323.037 338.643C322.915 338.596 322.925 338.249 323.037 337.874C323.15 337.499 323.403 337.218 323.534 337.264C323.665 337.311 323.647 337.658 323.534 338.043C323.422 338.427 323.168 338.699 323.037 338.643Z" fill="#FAFAFA"/>
<path d="M315.252 361.286C315.131 361.221 315.365 360.555 315.552 359.721C315.74 358.886 315.806 358.183 315.946 358.173C316.087 358.164 316.228 358.924 316.031 359.824C315.834 360.724 315.365 361.361 315.252 361.286Z" fill="#FAFAFA"/>
<path d="M320.313 216.386C320.191 216.442 319.891 216.067 319.647 215.542C319.404 215.017 319.301 214.548 319.422 214.492C319.544 214.435 319.844 214.81 320.088 215.335C320.332 215.86 320.454 216.329 320.313 216.386Z" fill="#FAFAFA"/>
<path d="M307.328 187.188C307.403 187.3 306.747 187.825 306.043 188.575C305.34 189.325 304.862 190.019 304.74 189.954C304.618 189.888 304.937 189.016 305.678 188.247C306.419 187.478 307.234 187.066 307.328 187.188Z" fill="#FAFAFA"/>
<path d="M318.89 186.888C318.75 186.888 318.534 186.353 318.206 185.716C317.878 185.078 317.578 184.553 317.681 184.459C317.784 184.366 318.29 184.778 318.618 185.491C318.947 186.203 319.012 186.813 318.89 186.888Z" fill="#FAFAFA"/>
<path d="M282.789 196.367C282.667 196.311 282.789 195.692 283.08 194.98C283.37 194.267 283.689 193.714 283.821 193.77C283.952 193.826 283.821 194.436 283.53 195.158C283.239 195.88 282.949 196.414 282.789 196.367Z" fill="#FAFAFA"/>
<path d="M283.962 210.525C283.868 210.628 283.334 210.328 282.762 209.85C282.19 209.372 281.824 208.913 281.881 208.8C281.937 208.687 282.509 208.997 283.081 209.475C283.653 209.953 284.047 210.422 283.962 210.525Z" fill="#FAFAFA"/>
<path d="M307.649 175.946C307.527 175.946 307.265 175.646 307.077 175.167C306.89 174.689 306.833 174.23 306.955 174.23C307.077 174.23 307.34 174.53 307.527 175.008C307.715 175.486 307.771 175.899 307.649 175.946Z" fill="#FAFAFA"/>
<path d="M330.325 182.865C330.194 182.865 330.204 182.275 330.325 181.609C330.447 180.943 330.691 180.418 330.822 180.446C330.954 180.475 330.944 181.046 330.822 181.712C330.7 182.378 330.457 182.894 330.325 182.865Z" fill="#FAFAFA"/>
<path d="M335.653 193.583C335.531 193.527 335.7 192.833 336.037 192.017C336.375 191.201 336.74 190.592 336.862 190.639C336.984 190.686 336.862 191.389 336.487 192.205C336.112 193.02 335.784 193.63 335.653 193.583Z" fill="#FAFAFA"/>
<path d="M331.857 202.228C331.735 202.284 331.285 201.637 330.854 200.784C330.423 199.93 330.179 199.171 330.301 199.115C330.423 199.058 330.863 199.705 331.295 200.559C331.726 201.412 331.979 202.162 331.857 202.228Z" fill="#FAFAFA"/>
<path d="M339.974 210.872C339.852 210.825 339.974 210.281 340.181 209.663C340.387 209.044 340.715 208.575 340.846 208.622C340.978 208.669 340.846 209.213 340.64 209.831C340.434 210.45 340.143 210.919 339.974 210.872Z" fill="#FAFAFA"/>
<path d="M332.717 219.339C332.605 219.414 332.314 219.161 332.079 218.786C331.845 218.411 331.733 218.036 331.854 217.961C331.976 217.886 332.248 218.139 332.492 218.523C332.736 218.908 332.83 219.274 332.717 219.339Z" fill="#FAFAFA"/>
<path d="M334.264 236.817C334.171 236.901 333.58 236.442 332.961 235.767C332.342 235.092 331.92 234.482 332.023 234.388C332.126 234.295 332.708 234.763 333.327 235.439C333.945 236.114 334.367 236.723 334.264 236.817Z" fill="#FAFAFA"/>
<path d="M343.781 226.774C343.678 226.859 343.162 226.39 342.637 225.715C342.112 225.04 341.775 224.44 341.878 224.355C341.981 224.271 342.497 224.749 343.022 225.415C343.547 226.081 343.894 226.699 343.781 226.774Z" fill="#FAFAFA"/>
<path d="M349.003 240.623C348.881 240.567 349.097 239.864 349.481 239.058C349.865 238.251 350.269 237.632 350.419 237.689C350.569 237.745 350.334 238.457 349.95 239.264C349.565 240.07 349.125 240.689 349.003 240.623Z" fill="#FAFAFA"/>
<path d="M337.903 252.025C337.781 252.09 337.35 251.575 336.749 251.021C336.149 250.468 335.596 250.084 335.652 249.943C335.709 249.803 336.421 250.056 337.078 250.665C337.734 251.275 338.015 251.959 337.903 252.025Z" fill="#FAFAFA"/>
<path d="M338.596 263.773C338.596 263.904 338.127 264.017 337.555 264.017C336.983 264.017 336.523 263.904 336.523 263.773C336.523 263.642 336.983 263.529 337.555 263.529C338.127 263.529 338.596 263.642 338.596 263.773Z" fill="#FAFAFA"/>
<path d="M350.009 260.491C349.888 260.426 350.131 259.835 350.309 259.104C350.488 258.372 350.563 257.735 350.703 257.725C350.844 257.716 350.994 258.4 350.788 259.216C350.581 260.032 350.113 260.566 350.009 260.491Z" fill="#FAFAFA"/>
<path d="M361.342 264.439C361.221 264.486 360.874 263.82 360.574 262.967C360.274 262.114 360.133 261.382 360.255 261.345C360.377 261.307 360.733 261.954 361.033 262.808C361.333 263.661 361.474 264.392 361.342 264.439Z" fill="#FAFAFA"/>
<path d="M359.536 280.566C359.423 280.501 359.714 279.713 360.183 278.804C360.652 277.894 361.121 277.21 361.261 277.275C361.402 277.341 361.092 278.128 360.614 279.029C360.136 279.929 359.658 280.651 359.536 280.566Z" fill="#FAFAFA"/>
<path d="M349.196 290.027C349.074 290.074 348.689 289.427 348.333 288.574C347.977 287.721 347.799 286.989 347.93 286.933C348.061 286.877 348.436 287.533 348.783 288.386C349.13 289.24 349.318 290.027 349.196 290.027Z" fill="#FAFAFA"/>
<path d="M337.735 293.693C337.735 293.824 337.341 293.936 336.863 293.936C336.384 293.936 336 293.824 336 293.693C336 293.561 336.394 293.449 336.863 293.449C337.331 293.449 337.735 293.561 337.735 293.693Z" fill="#FAFAFA"/>
<path d="M344.301 308.779C344.179 308.779 343.916 308.264 343.719 307.551C343.522 306.838 343.485 306.22 343.616 306.191C343.747 306.163 344.001 306.707 344.198 307.42C344.394 308.132 344.432 308.704 344.301 308.779Z" fill="#FAFAFA"/>
<path d="M336 303.716C335.887 303.651 336 303.21 336.309 302.732C336.619 302.254 336.928 301.926 337.04 301.991C337.153 302.057 337.04 302.507 336.731 302.985C336.422 303.463 336.122 303.792 336 303.716Z" fill="#FAFAFA"/>
<path d="M335.831 320.321C335.7 320.321 335.512 319.693 335.418 318.878C335.325 318.062 335.353 317.396 335.484 317.377C335.615 317.359 335.803 318.006 335.897 318.821C335.99 319.637 335.962 320.303 335.831 320.321Z" fill="#FAFAFA"/>
</g>
<defs>
<clipPath id="clip0_4299_17938">
<rect width="414" height="397.01" fill="white"/>
</clipPath>
</defs>
</svg>
