<svg xmlns="http://www.w3.org/2000/svg" width="623.473" height="502.701" viewBox="0 0 623.473 502.701">
    <defs>
        <style>
            .prefix__cls-1{fill:#f09959}.prefix__cls-2{fill:#ff4d43}.prefix__cls-3{fill:#ff6b6b}.prefix__cls-6{fill:#f5ce5c}.prefix__cls-7{fill:#696666}.prefix__cls-8{fill:#d8d8d8}.prefix__cls-9{fill:#fff}.prefix__cls-12{fill:#f2e5de}
        </style>
    </defs>
    <g id="prefix__Lady_With_Mobiel_" data-name="Lady With Mobiel" transform="translate(-14082.218 -4697.725)">
        <g id="prefix__Group_12158" data-name="Group 12158" transform="translate(14082.218 4697.725)">
            <path id="prefix__Path_9118" d="M4167.658 1244.841c-33.942-30.23-58.87-12.2-77.433 7.956-14.8 16.064-16.861 19.625-29.084 36.269a14.6 14.6 0 0 0-3.268 8.28c-.343 18.4-9.757 96.2.707 123.045 12.2 31.29 162.645 45.61 162.645 45.61z" data-name="Path 9118" transform="translate(-3706.613 -1156.119)"/>
            <g id="prefix__Group_12132" data-name="Group 12132" transform="translate(341.236 136.494)">
                <path id="prefix__Path_9119" d="M4263.649 1454.634a1.55 1.55 0 0 0 .076-3.1c-4.462-.227-8.1-2.233-11.108-6.136-16.869-21.855-7.385-94.821.881-134.49a1.55 1.55 0 0 0-3.036-.633c-1.806 8.663-7.838 39.417-9.724 71.448-1.936 32.9 1.235 54.961 9.425 65.568a17.57 17.57 0 0 0 13.406 7.339z" data-name="Path 9119" transform="translate(-4240.188 -1309.042)"/>
            </g>
            <path id="prefix__Path_9120" d="M3931.762 1237.644c65.233 36.064 25.455 158.048 108.193 201.537 22.922 12.048 93.343 73.189 47.2 153.805-30.182 52.731-120.393 41.368-150.092-5.3s-5.301-350.042-5.301-350.042z" data-name="Path 9120" transform="translate(-3483.444 -1157.938)"/>
            <g id="prefix__Group_12133" data-name="Group 12133" transform="translate(479.65 125.358)">
                <path id="prefix__Path_9121" d="M4059.061 1526.726a1.69 1.69 0 0 0 .207-.013 1.55 1.55 0 0 0 1.332-1.741c-.057-.431-1.479-10.7-7.983-24.308a106.627 106.627 0 0 0-39.039-43.974c-38.282-24.362-63.7-47.321-93.739-160.5a1.55 1.55 0 0 0-3 .8c14.518 54.69 28.913 91.66 45.3 116.351 15.218 22.927 30.877 33.944 49.768 45.967 39.769 25.307 45.56 65.67 45.614 66.075a1.551 1.551 0 0 0 1.54 1.343z" data-name="Path 9121" transform="translate(-3916.79 -1295.04)"/>
            </g>
            <g id="prefix__Group_12134" data-name="Group 12134" transform="translate(475.937 116.34)">
                <path id="prefix__Path_9122" d="M4063.143 1492.817a1.551 1.551 0 0 0 1.31-2.377 118.157 118.157 0 0 0-35.811-36.506c-53.76-34.767-62.657-54.754-107.059-169.24a1.551 1.551 0 0 0-2.891 1.122c22.2 57.238 35.468 90.78 49.98 114.553 15.586 25.53 33.174 39.927 58.287 56.167a115.068 115.068 0 0 1 34.873 35.558 1.55 1.55 0 0 0 1.311.723z" data-name="Path 9122" transform="translate(-3918.586 -1283.703)"/>
            </g>
            <path id="prefix__Path_9123" d="M4137.384 1333.35c22.461 46.648 19.006 88.976 19.006 88.976s-2.591 16.413-12.958 19.869-25.052-6.911-24.188-20.732-3.456-47.511-8.637-59.605 26.777-28.508 26.777-28.508z" class="prefix__cls-1" data-name="Path 9123" transform="translate(-3686.814 -1177.521)"/>
            <path id="prefix__Path_9124" d="M4025.989 1732.125c-1.414 12.728 1.767 11.668-9.547 13.789s-31.467-5.657-31.467-5.657l22.629-42.076z" class="prefix__cls-2" data-name="Path 9124" transform="translate(-3456.748 -1252.172)"/>
            <path id="prefix__Path_9125" d="M4006.25 1413.72c6.363 20.683 54.094 4.773 70.8 9.546s31.026 74.777 33.411 137.621-.8 112.961-7.159 120.916-111.371 11.137-120.917 7.955 79.55-42.957 79.55-42.957 5.569-73.187-1.591-110.575-71.595-86.709-71.595-86.709z" class="prefix__cls-1" data-name="Path 9125" transform="translate(-3539.382 -1193.967)"/>
            <path id="prefix__Path_9126" d="M4311.66 1421.722c-16.706 25.455-60.458 22.274-75.573 42.957s-46.933 134.439-46.933 134.439l-33.412-115.347s-27.1-4.552-18.3 14.318c15.65 33.562 21.483 141.843 38.455 157.224 18.875 17.1 37.657 3.182 48.254-26.761 10.254-28.966 35.8-91.483 54.094-115.349s38.185-62.049 38.185-62.049z" class="prefix__cls-1" data-name="Path 9126" transform="translate(-3867.067 -1195.603)"/>
            <path id="prefix__Path_9127" d="M4171.275 1424.876c-33.412 38.98-98.643 37.389-112.962 32.616l-14.32-4.773s-11.137-3.978-20.683 7.16-32.616 81.141-36.592 97.051-10.342 42.161-10.342 42.161 17.067 20.485 17.067 41.169-7.249 20.86-7.249 20.86 21.206-4.752 25.979-17.48 47.731-128.077 47.731-128.077l118.529 2.387-1.591 130.463s10.342-9.546 24.662 0 19.091 31.82 16.7 35 4.773 3.183 4.773.8 13.522-60.458 3.977-155.919-27.842-105.8-38.185-106.6a33.587 33.587 0 0 0-17.494 3.182z" class="prefix__cls-3" data-name="Path 9127" transform="translate(-3654.292 -1195.577)"/>
            <g id="prefix__Group_12135" data-name="Group 12135" transform="translate(330.099 295.032)">
                <path id="prefix__Path_9128" d="M4277.618 1720.671a1.258 1.258 0 0 1-.355.077s.13-.027.355-.077z" class="prefix__cls-2" data-name="Path 9128" transform="translate(-4270.959 -1551.806)"/>
                <path id="prefix__Path_9129" d="M4206.521 1619.741c6.9 2.122 18.565 26.518 18.565 26.518s26.518-57.81 34.472-137.895l9.467 54.33c-13.067 35.083-33.576 90.133-36.79 98.7-4.365 11.642-21.974 16.5-24.387 17.04.66-.224 2.12-1.106 3.327-4.6.7-.634 4.68-2.5 5.424-3.18 6.364-5.833 3.712-19.623-.53-35s-16.443-18.035-9.548-15.913z" class="prefix__cls-2" data-name="Path 9129" transform="translate(-4204.453 -1508.365)"/>
            </g>
            <path id="prefix__Path_9130" d="M4015.663 1527.131l13.147-60.108c14.32 20.154 15.91 89.1 10.077 136.3-4.786 38.712-11.943 48.756-16.86 52.792a14.429 14.429 0 0 0-2.25 1.591l1.592-130.463z" class="prefix__cls-2" data-name="Path 9130" transform="translate(-3497.224 -1204.873)"/>
            <path id="prefix__Path_9131" d="M4221.254 1466.357c-24.4 65.764-12.2 79.023-44.3 156.213-17.931 43.112-52.5 75.574-52.5 75.574a219.631 219.631 0 0 1-62.844 4.772c-35-2.386-60.627-4.791-60.627-4.791s36.761-22.256 38.352-37.37 8.5-75.067-.52-117.5c-7.041-33.132 22-66.265 22-66.265l48.526-2.386z" class="prefix__cls-3" data-name="Path 9131" transform="translate(-3664.744 -1204.737)"/>
            <path id="prefix__Path_9132" fill="#ff4d43" d="M4174.456 1591.58c4.243-15.381-18.032 4.773-54.625 8.486s-77.434-2.122-57.282 4.242 75.312-3.182 65.235 16.972c-11.859 23.719-25.862 46.671-46.141 60.461-13.259 9.016-45.081 17.5-14.319 12.729s63.642-40.837 77.963-64.173 28.224-35.288 29.169-38.717z" data-name="Path 9132" opacity="0.5" transform="translate(-3660.906 -1229.192)"/>
            <path id="prefix__Path_9133" fill="#e38540" d="M4146.142 1416.22c-.321-15.877-4.194-42.974-8.727-53.55-3.713-8.666 11.638-19.547 20.645-25.02l7.616-.327q1.742 3.794 3.265 7.537c8.042 52.8-16.024 74.615-27.507 79.006a34.72 34.72 0 0 1-15.255 1.676c7.087-2.521 13.995-5.387 19.963-9.322z" data-name="Path 9133" transform="translate(-3713.622 -1178.334)"/>
            <g id="prefix__Group_12136" data-name="Group 12136" transform="translate(427.381 229.45)">
                <path id="prefix__Path_9134" d="M4114.713 1457.821a35.862 35.862 0 0 0 8.467-1.025c6.637-1.618 22.473-7.767 26.154-29.862a.879.879 0 1 0-1.733-.29c-3.51 21.063-18.539 26.908-24.837 28.445-9.785 2.385-20.168.177-24.153-5.137-3.2-4.262-1.278-13.339-1.258-13.429a.879.879 0 1 0-1.718-.373c-.088.4-2.107 9.953 1.57 14.857 3.26 4.345 9.983 6.814 17.508 6.814z" class="prefix__cls-6" data-name="Path 9134" transform="translate(-4095.003 -1425.911)"/>
            </g>
            <path id="prefix__Path_9135" d="M4137.379 1344.036c5.4 28.495 17.859 51.481 38.948 47.15s43.263-34.432 37.428-62.839-27.665-47.925-48.756-43.592-34.81 21.311-27.62 59.281z" class="prefix__cls-1" data-name="Path 9135" transform="translate(-3765.147 -1167.454)"/>
            <path id="prefix__Path_9136" d="M4275.057 1536.37s38.98 104.747 40.837 115.62-1.857 17.766-2.919 17.766-34.207-56.748-34.207-56.748z" class="prefix__cls-1" data-name="Path 9136" transform="translate(-3977.892 -1219.063)"/>
            <path id="prefix__Path_9137" d="M4339.2 1524.407c-3.183-10.607 1.767-24.043 1.767-24.043l-14.142 1.768z" class="prefix__cls-1" data-name="Path 9137" transform="translate(-4043.623 -1211.696)"/>
            <g id="prefix__Group_12137" data-name="Group 12137" transform="translate(246.59 203.931)">
                <path id="prefix__Path_9138" d="M4322.957 1484.514h39.464a3.58 3.58 0 0 0 3.429-4.6l-24.911-83.528a3.581 3.581 0 0 0-3.431-2.556h-39.463a3.577 3.577 0 0 0-3.429 4.6l24.91 83.527a3.581 3.581 0 0 0 3.431 2.557z" class="prefix__cls-7" data-name="Path 9138" transform="translate(-4289.511 -1393.827)"/>
                <path id="prefix__Path_9139" d="M4329.18 1484.514h39.462a3.581 3.581 0 0 0 3.433-4.6l-24.913-83.528a3.579 3.579 0 0 0-3.431-2.556h-39.462a3.58 3.58 0 0 0-3.432 4.6l24.912 83.527a3.582 3.582 0 0 0 3.431 2.557z" class="prefix__cls-7" data-name="Path 9139" transform="translate(-4300.686 -1393.827)"/>
                <path id="prefix__Path_9140" d="M4319.813 1424.757c4.208 15.159 7.039 27.608 6.325 27.807s-4.7-11.93-8.909-27.089-7.041-27.608-6.325-27.806 4.703 11.931 8.909 27.088z" class="prefix__cls-8" data-name="Path 9140" transform="translate(-4262.748 -1394.613)"/>
            </g>
            <path id="prefix__Path_9141" d="M4354.677 1515.129c-1.167-13.774-13.1-26.686-17.637-30.805a6.523 6.523 0 0 1-2.143-4.892c.066-6.865.373-23.074 1.791-24.968 1.808-2.411 6.327-33.444 8.437-32.239s-.6 28.321-.6 28.321 5.123-2.41 7.834-3.615 13.861 11.148 13.861 11.148 5.227 13.206-9.064 7.55c-16.972-6.718-4.243 12.021 7.072 24.042 9.322 9.9 1.388 12.1 1.388 12.1l-7.532-.3z" class="prefix__cls-1" data-name="Path 9141" transform="translate(-4077.841 -1195.7)"/>
            <g id="prefix__Group_12138" data-name="Group 12138" transform="translate(276.773 311.921)">
                <path id="prefix__Path_9142" d="M4331.6 1547.944a13.9 13.9 0 0 0 4.093-.638c3.669-1.143 10.079-4.835 11.774-16.7a.879.879 0 0 0-1.74-.249c-1.449 10.15-6.371 13.854-10.243 15.173a9.566 9.566 0 0 1-6.446.213.88.88 0 0 0-1.687-.207 1.24 1.24 0 0 0 .281 1.319c.618.661 2.114 1.089 3.968 1.089z" class="prefix__cls-6" data-name="Path 9142" transform="translate(-4327.271 -1529.599)"/>
            </g>
            <g id="prefix__Group_12139" data-name="Group 12139" transform="translate(276.393 316.031)">
                <path id="prefix__Path_9143" d="M4331.3 1545.59a25.074 25.074 0 0 0 3.558-.257c6.82-.99 11.39-4.451 12.54-9.494a.879.879 0 1 0-1.713-.391c-1.1 4.812-5.472 6.858-8.948 7.727-4.873 1.218-9.45.467-10-.165a.864.864 0 0 0-1.189-.322.892.892 0 0 0-.328 1.21c.656 1.164 3.215 1.692 6.08 1.692z" class="prefix__cls-6" data-name="Path 9143" transform="translate(-4325.104 -1534.766)"/>
            </g>
            <g id="prefix__Group_12140" data-name="Group 12140" transform="translate(382.747 155.554)">
                <path id="prefix__Path_9144" d="M4202.311 1368.86a8.555 8.555 0 0 0 1.3-.1c6.692-1.025 10.736-9.659 9.2-19.657a23.471 23.471 0 0 0-5.178-11.844c-2.8-3.188-6.167-4.666-9.487-4.157-6.691 1.024-10.734 9.659-9.2 19.657 1.431 9.349 7.154 16.101 13.365 16.101zm-2.892-32.753c1.995 0 4.057 1.113 5.886 3.2a20.388 20.388 0 0 1 4.444 10.269c1.224 8-1.8 15.386-6.61 16.122s-9.9-5.4-11.129-13.406 1.8-15.386 6.608-16.121a5.289 5.289 0 0 1 .8-.064z" class="prefix__cls-9" data-name="Path 9144" transform="translate(-4188.621 -1333.005)"/>
            </g>
            <g id="prefix__Group_12141" data-name="Group 12141" transform="translate(364.417 159.949)">
                <path id="prefix__Path_9145" d="M4231.854 1370.032a4.182 4.182 0 0 0 .636-.048c4.381-.671 6.759-8.093 5.41-16.9s-5.848-15.189-10.219-14.506c-2.258.345-4.037 2.411-5 5.818a26.879 26.879 0 0 0-.407 11.081c1.279 8.38 5.407 14.555 9.58 14.555zm-3.527-29.157c2.581 0 6.092 4.967 7.257 12.565 1.208 7.889-.848 13.829-3.449 14.227-2.617.386-6.339-4.655-7.547-12.542a24.515 24.515 0 0 1 .343-10.085c.693-2.436 1.824-3.946 3.1-4.142a1.9 1.9 0 0 1 .296-.023z" class="prefix__cls-9" data-name="Path 9145" transform="translate(-4221.892 -1338.53)"/>
            </g>
            <g id="prefix__Group_12142" data-name="Group 12142" transform="translate(402.216 147.103)">
                <path id="prefix__Path_9146" d="M4127.27 1340.329a1.567 1.567 0 0 0 .427-.06l51.976-14.85a1.551 1.551 0 1 0-.853-2.982l-51.974 14.85a1.55 1.55 0 0 0 .424 3.041z" class="prefix__cls-9" data-name="Path 9146" transform="translate(-4125.72 -1322.378)"/>
            </g>
            <path id="prefix__Path_9147" d="M4133 1296.683c80.438 47.38 84.858 15.558 84.858 15.558l-4.773-45.256-47.733 2.651z" data-name="Path 9147" transform="translate(-3766.361 -1163.942)"/>
            <path id="prefix__Path_9148" d="M4117.8 1333.88c-1.872 8.009.684 15.452 5.708 16.626s10.614-4.366 12.484-12.376-.684-15.454-5.708-16.628-10.616 4.368-12.484 12.378z" class="prefix__cls-1" data-name="Path 9148" transform="translate(-3672.521 -1175.065)"/>
            <path id="prefix__Path_9149" d="M4125.936 1349.515a3.167 3.167 0 1 0 3.167-3.168 3.166 3.166 0 0 0-3.167 3.168z" class="prefix__cls-6" data-name="Path 9149" transform="translate(-3675.148 -1180.181)"/>
            <path id="prefix__Path_9151" fill="#dbe5eb" d="M4254.071 1755.572s30.334.384 30.717 3.071-1.152 3.84-11.9 5.76-131.7 2.688-132.85 1.92-36.476-9.215-36.476-9.215l84.854-1.536z" data-name="Path 9151" transform="translate(-3809.922 -1263.916)"/>
            <path id="prefix__Path_9152" d="M4215.87 1728.544s-21.746-9.547-28.11-5.3-24.75 23.69-24.75 23.69z" class="prefix__cls-1" data-name="Path 9152" transform="translate(-3788.236 -1257.078)"/>
            <path id="prefix__Path_9153" d="M4166.755 1745.281c.415.517 1.029.733 1.376.475l44.744-33.31c2.41-1.794 3.558-4.538 2.4-5.987s-4.087-.932-6.368 1.026l-42.313 36.348c-.33.281-.252.93.161 1.448z" class="prefix__cls-2" data-name="Path 9153" transform="translate(-3790.782 -1253.697)"/>
            <path id="prefix__Path_9154" d="M4190.329 1725.075s-36.064 14.32-40.308 14.32-27.931-15.91-35.887-13.789-46.849 21.745-45.788 23.335 12.2 5.3 45.081 4.244 86.449-5.834 86.449-5.834z" class="prefix__cls-1" data-name="Path 9154" transform="translate(-3696.932 -1257.675)"/>
            <path id="prefix__Rectangle_3246" fill="#f37168" d="M12.477 0H155.9a4.973 4.973 0 0 1 4.973 4.973v21.154A4.972 4.972 0 0 1 155.9 31.1H12.476A12.476 12.476 0 0 1 0 18.623v-6.146A12.477 12.477 0 0 1 12.477 0z" data-name="Rectangle 3246" transform="translate(32.169 462.588)"/>
            <path id="prefix__Path_9155" d="M4465.034 1725.643H4604.6a10.7 10.7 0 0 1 1.551 5.536v9.5a10.7 10.7 0 0 1-1.551 5.536h-139.566a9.036 9.036 0 0 1-9.01-9.008v-2.557a9.036 9.036 0 0 1 9.01-9.007z" class="prefix__cls-12" data-name="Path 9155" transform="translate(-4411.573 -1257.792)"/>
            <path id="prefix__Path_14030" d="M8.421 0h109.372a3.355 3.355 0 0 1 3.355 3.355v12.1a3.355 3.355 0 0 1-3.355 3.356H8.421A8.421 8.421 0 0 1 0 10.391v-1.97A8.421 8.421 0 0 1 8.421 0z" class="prefix__cls-7" data-name="Path 14030" transform="translate(40.32 443.775)"/>
            <path id="prefix__Path_9156" d="M4502.983 1699.375h105.1a5.555 5.555 0 0 1 1.168 3.348v5.748a5.559 5.559 0 0 1-1.168 3.35h-105.1c-3.732 0-6.784-2.452-6.784-5.45v-1.546c.001-2.998 3.052-5.45 6.784-5.45z" class="prefix__cls-12" data-name="Path 9156" transform="translate(-4446.629 -1252.417)"/>
            <g id="prefix__Group_12143" data-name="Group 12143">
                <path id="prefix__Path_9157" d="M4537.509 1200.786h119.22c3.8 0 5.778-3.11 4.395-6.911l-18.027-49.531c-1.383-3.8-5.626-6.911-9.426-6.911h-119.22c-3.8 0-5.778 3.11-4.4 6.911l18.029 49.531c1.385 3.801 5.627 6.911 9.429 6.911z" class="prefix__cls-8" data-name="Path 9157" transform="translate(-4509.613 -1137.433)"/>
                <path id="prefix__Path_9158" d="M4543.729 1196.937h107.361c3.292 0 5-2.694 3.807-5.987l-14.928-41.014c-1.2-3.293-4.872-5.986-8.163-5.986h-107.364c-3.292 0-5.005 2.693-3.807 5.986l14.927 41.014c1.201 3.292 4.873 5.987 8.167 5.987z" class="prefix__cls-9" data-name="Path 9158" transform="translate(-4511.791 -1138.767)"/>
                <path id="prefix__Path_9159" d="M4543.615 1213.464c9.887 26.108 25.108 34.172 25.108 34.172s-10.825-14.974-9.256-22.269a16.063 16.063 0 0 1 7.361-10.368z" class="prefix__cls-8" data-name="Path 9159" transform="translate(-4443.816 -1152.991)"/>
                <path id="prefix__Path_9160" d="M4585.5 1161.208h69.208a1.4 1.4 0 0 0 1.313-2.064l-.036-.1a3.272 3.272 0 0 0-2.813-2.063h-69.209a1.4 1.4 0 0 0-1.312 2.063l.034.1a3.277 3.277 0 0 0 2.815 2.064z" class="prefix__cls-8" data-name="Path 9160" transform="translate(-4562.185 -1141.434)"/>
                <path id="prefix__Path_9161" d="M4581.457 1172.31h69.208a1.4 1.4 0 0 0 1.312-2.064l-.035-.1a3.275 3.275 0 0 0-2.814-2.064h-69.208a1.4 1.4 0 0 0-1.313 2.064l.036.1a3.272 3.272 0 0 0 2.814 2.064z" class="prefix__cls-8" data-name="Path 9161" transform="translate(-4554.929 -1143.705)"/>
                <path id="prefix__Path_9162" d="M4576.886 1184.861h69.208a1.4 1.4 0 0 0 1.313-2.063l-.036-.1a3.274 3.274 0 0 0-2.813-2.064h-69.209a1.4 1.4 0 0 0-1.312 2.064l.036.1a3.274 3.274 0 0 0 2.813 2.063z" class="prefix__cls-8" data-name="Path 9162" transform="translate(-4546.724 -1146.274)"/>
                <path id="prefix__Path_9163" d="M4542.493 1167.718c2.739 7.527 9.946 13.63 16.1 13.63s8.913-6.1 6.174-13.63-9.947-13.631-16.1-13.631-8.915 6.103-6.174 13.631z" class="prefix__cls-8" data-name="Path 9163" transform="translate(-4439.179 -1140.84)"/>
            </g>
            <g id="prefix__Group_12144" data-name="Group 12144" transform="translate(52.746 182.785)">
                <path id="prefix__Path_9164" d="M4575.969 1376.624h5.909a1.529 1.529 0 0 0 1.438-2.259l-1.771-4.865a3.576 3.576 0 0 0-3.083-2.26h-5.908a1.529 1.529 0 0 0-1.437 2.26l1.771 4.865a3.572 3.572 0 0 0 3.081 2.259z" class="prefix__cls-8" data-name="Path 9164" transform="translate(-4533.057 -1367.24)"/>
                <path id="prefix__Path_9165" d="M4599.8 1376.624h5.91a1.528 1.528 0 0 0 1.437-2.259l-1.771-4.865a3.577 3.577 0 0 0-3.081-2.26h-5.91a1.529 1.529 0 0 0-1.437 2.26l1.772 4.865a3.57 3.57 0 0 0 3.08 2.259z" class="prefix__cls-8" data-name="Path 9165" transform="translate(-4575.848 -1367.24)"/>
                <path id="prefix__Path_9166" d="M4623.637 1376.624h5.909a1.528 1.528 0 0 0 1.436-2.259l-1.771-4.865a3.571 3.571 0 0 0-3.08-2.26h-5.91a1.529 1.529 0 0 0-1.437 2.26l1.771 4.865a3.571 3.571 0 0 0 3.082 2.259z" class="prefix__cls-8" data-name="Path 9166" transform="translate(-4618.639 -1367.24)"/>
            </g>
            <g id="prefix__Group_12145" data-name="Group 12145" transform="translate(56.529 91.381)">
                <path id="prefix__Path_9167" d="M4357.871 1315.677h119.218c3.8 0 5.778-3.11 4.4-6.912l-18.027-49.53c-1.384-3.8-5.626-6.912-9.425-6.912h-119.22c-3.8 0-5.78 3.111-4.395 6.912l18.026 49.53c1.38 3.802 5.622 6.912 9.423 6.912z" class="prefix__cls-8" data-name="Path 9167" transform="translate(-4243.623 -1252.323)"/>
                <path id="prefix__Path_9168" d="M4364.09 1311.826h107.362c3.292 0 5.005-2.694 3.807-5.985l-14.927-41.015c-1.2-3.292-4.874-5.986-8.166-5.986h-107.361c-3.294 0-5.005 2.694-3.808 5.986l14.929 41.015c1.198 3.291 4.874 5.985 8.164 5.985z" class="prefix__cls-9" data-name="Path 9168" transform="translate(-4245.802 -1253.657)"/>
                <path id="prefix__Path_9169" d="M4360.726 1328.354c9.119 26.109-.234 34.173-.234 34.173s-.074-14.975-6.953-22.271a45.094 45.094 0 0 0-14.907-10.367z" class="prefix__cls-8" data-name="Path 9169" transform="translate(-4133.3 -1267.88)"/>
                <path id="prefix__Path_9170" d="M4372 1280.442h58.4a1.288 1.288 0 0 0 1.208-1.9l-.153-.422a3.018 3.018 0 0 0-2.592-1.9h-58.4a1.289 1.289 0 0 0-1.209 1.9l.154.422a3.018 3.018 0 0 0 2.592 1.9z" class="prefix__cls-8" data-name="Path 9170" transform="translate(-4224.574 -1257.212)"/>
                <path id="prefix__Path_9171" d="M4367.961 1291.545h58.4a1.289 1.289 0 0 0 1.21-1.9l-.153-.422a3.021 3.021 0 0 0-2.594-1.9h-58.4a1.289 1.289 0 0 0-1.21 1.9l.153.422a3.019 3.019 0 0 0 2.594 1.9z" class="prefix__cls-8" data-name="Path 9171" transform="translate(-4217.321 -1259.484)"/>
                <path id="prefix__Path_9172" d="M4363.393 1304.1h58.4a1.29 1.29 0 0 0 1.211-1.9l-.154-.422a3.02 3.02 0 0 0-2.592-1.9h-58.4a1.289 1.289 0 0 0-1.209 1.9l.154.422a3.015 3.015 0 0 0 2.59 1.9z" class="prefix__cls-8" data-name="Path 9172" transform="translate(-4209.119 -1262.053)"/>
                <path id="prefix__Path_9173" d="M4480.168 1401.367h115.064c2.06 0 3.132-.855 2.383-1.9l-.3-.423c-.75-1.045-3.048-1.9-5.108-1.9h-115.069c-2.059 0-3.13.854-2.381 1.9l.3.423c.753 1.045 3.052 1.9 5.111 1.9z" class="prefix__cls-8" data-name="Path 9173" transform="translate(-4474.518 -1281.956)"/>
                <path id="prefix__Path_9174" d="M4472.206 1419.71h115.065c2.061 0 3.13-.855 2.382-1.9l-.3-.421c-.749-1.046-3.047-1.9-5.108-1.9h-115.068c-2.06 0-3.131.856-2.381 1.9l.3.421c.751 1.046 3.05 1.9 5.11 1.9z" class="prefix__cls-8" data-name="Path 9174" transform="translate(-4460.224 -1285.709)"/>
                <path id="prefix__Path_9175" d="M4469.193 1301.525h8.447c3.8 0 5.779-3.109 4.4-6.91l-6.29-17.278c-1.384-3.8-5.626-6.911-9.426-6.911h-8.448c-3.8 0-5.779 3.11-4.4 6.911l6.289 17.278c1.385 3.802 5.627 6.91 9.428 6.91z" class="prefix__cls-8" data-name="Path 9175" transform="translate(-4342.056 -1256.027)"/>
            </g>
        </g>
    </g>
</svg>
