<svg xmlns="http://www.w3.org/2000/svg" width="506.365" height="426.749" viewBox="0 0 506.365 426.749">
    <defs>
        <style>
            .prefix__cls-1,.prefix__cls-2,.prefix__cls-3{fill:#d8d8d8}.prefix__cls-2,.prefix__cls-22{opacity:.7}.prefix__cls-10,.prefix__cls-3{opacity:.6}.prefix__cls-5{fill:#263238}.prefix__cls-10,.prefix__cls-20,.prefix__cls-22,.prefix__cls-23,.prefix__cls-6,.prefix__cls-7{fill:#fff}.prefix__cls-6{opacity:.1}.prefix__cls-18,.prefix__cls-7{opacity:.2}.prefix__cls-8{opacity:.3}.prefix__cls-23{opacity:.8}.prefix__cls-10,.prefix__cls-11{isolation:isolate}.prefix__cls-12{fill:#da2419}.prefix__cls-16{fill:#ff8b7b}
        </style>
    </defs>
    <g id="prefix__Looking_For_Office" data-name="Looking For Office" transform="translate(-52.003 -80.092)">
        <g id="prefix__Paper_flying" data-name="Paper flying" transform="translate(149.022 174.449)">
            <g id="prefix__Group_13065" data-name="Group 13065">
                <g id="prefix__Group_13059" data-name="Group 13059" transform="translate(74.972)">
                    <path id="prefix__Path_14032" d="M235 182.493c-5.715-3.943-10.35-10.059-10.783-16.988a84.866 84.866 0 0 1-33.094-9.318l-.413.49c.755 6.33 1.523 12.72 3.628 18.737s5.685 11.718 11.014 15.218c6.494 4.264 14.684 4.789 22.451 4.884 9.028.113 18.51-.3 26.283-4.893-6.631-2.066-13.373-4.188-19.086-8.13z" class="prefix__cls-1" data-name="Path 14032" transform="translate(-190.707 -156.187)"/>
                    <path id="prefix__Path_14033" d="M235 182.493c-5.715-3.943-10.35-10.059-10.783-16.988a84.866 84.866 0 0 1-33.094-9.318l-.413.49c.755 6.33 1.523 12.72 3.628 18.737s5.685 11.718 11.014 15.218c6.494 4.264 14.684 4.789 22.451 4.884 9.028.113 18.51-.3 26.283-4.893-6.631-2.066-13.373-4.188-19.086-8.13z" class="prefix__cls-2" data-name="Path 14033" transform="translate(-190.707 -156.187)"/>
                </g>
                <g id="prefix__Group_13060" data-name="Group 13060" transform="translate(160.07 1.374)">
                    <path id="prefix__Path_14034" d="M293.428 204.685c.046-6.883-1.722-14.019-6.235-19.219-3.649-4.2-8.748-6.806-13.2-10.139a47.9 47.9 0 0 1-14.654-18.032l.63 2.928a73.048 73.048 0 0 1 6.24 50.641A211.486 211.486 0 0 1 290 225c1.686-6.677 3.381-13.431 3.428-20.315z" class="prefix__cls-1" data-name="Path 14034" transform="translate(-259.335 -157.295)"/>
                    <path id="prefix__Path_14035" d="M293.428 204.685c.046-6.883-1.722-14.019-6.235-19.219-3.649-4.2-8.748-6.806-13.2-10.139a47.9 47.9 0 0 1-14.654-18.032l.63 2.928a73.048 73.048 0 0 1 6.24 50.641A211.486 211.486 0 0 1 290 225c1.686-6.677 3.381-13.431 3.428-20.315z" class="prefix__cls-2" data-name="Path 14035" transform="translate(-259.335 -157.295)"/>
                </g>
                <g id="prefix__Group_13061" data-name="Group 13061" transform="translate(74.172 266.322)">
                    <path id="prefix__Path_14036" d="M190.062 388.96l18.674 6.235a20.381 20.381 0 0 0 5.136 1.233c3.528.218 6.9-1.4 9.922-3.233a61.539 61.539 0 0 0 18.963-18.059l-17.021-2.781c-1.946-.319-6.073-1.845-7.912-1.254-1.6.516-3.124 3.194-4.334 4.4a52.207 52.207 0 0 1-10.829 8.272c-2.461 1.415-9.695 6.017-12.599 5.187z" class="prefix__cls-1" data-name="Path 14036" transform="translate(-190.062 -370.965)"/>
                    <path id="prefix__Path_14037" d="M190.062 388.96l18.674 6.235a20.381 20.381 0 0 0 5.136 1.233c3.528.218 6.9-1.4 9.922-3.233a61.539 61.539 0 0 0 18.963-18.059l-17.021-2.781c-1.946-.319-6.073-1.845-7.912-1.254-1.6.516-3.124 3.194-4.334 4.4a52.207 52.207 0 0 1-10.829 8.272c-2.461 1.415-9.695 6.017-12.599 5.187z" class="prefix__cls-3" data-name="Path 14037" transform="translate(-190.062 -370.965)"/>
                </g>
                <g id="prefix__Group_13062" data-name="Group 13062" transform="translate(131.891 277.673)">
                    <path id="prefix__Path_14038" d="M236.61 380.119l11.161 16.219a20.39 20.39 0 0 0 3.359 4.076c2.686 2.3 6.352 3.038 9.869 3.39a61.542 61.542 0 0 0 26.014-3.007l-11.919-12.467c-1.361-1.425-3.74-5.129-5.564-5.764-1.592-.553-4.417.671-6.109.907a52.231 52.231 0 0 1-13.627.088c-2.816-.351-11.365-1.029-13.184-3.442z" class="prefix__cls-1" data-name="Path 14038" transform="translate(-236.61 -380.119)"/>
                    <path id="prefix__Path_14039" d="M236.61 380.119l11.161 16.219a20.39 20.39 0 0 0 3.359 4.076c2.686 2.3 6.352 3.038 9.869 3.39a61.542 61.542 0 0 0 26.014-3.007l-11.919-12.467c-1.361-1.425-3.74-5.129-5.564-5.764-1.592-.553-4.417.671-6.109.907a52.231 52.231 0 0 1-13.627.088c-2.816-.351-11.365-1.029-13.184-3.442z" class="prefix__cls-3" data-name="Path 14039" transform="translate(-236.61 -380.119)"/>
                </g>
                <g id="prefix__Group_13063" data-name="Group 13063" transform="translate(96.895 277.491)">
                    <path id="prefix__Path_14040" d="M262.817 392.738l-16.926-10.056a20.448 20.448 0 0 0-4.758-2.294c-3.4-.962-7.041-.1-10.382 1.053a61.557 61.557 0 0 0-22.364 13.622l16.044 6.331c1.833.724 5.543 3.093 7.465 2.9 1.678-.164 3.73-2.458 5.17-3.38a52.22 52.22 0 0 1 12.338-5.786c2.704-.857 10.751-3.819 13.413-2.39z" class="prefix__cls-1" data-name="Path 14040" transform="translate(-208.387 -379.973)"/>
                    <path id="prefix__Path_14041" d="M262.817 392.738l-16.926-10.056a20.448 20.448 0 0 0-4.758-2.294c-3.4-.962-7.041-.1-10.382 1.053a61.557 61.557 0 0 0-22.364 13.622l16.044 6.331c1.833.724 5.543 3.093 7.465 2.9 1.678-.164 3.73-2.458 5.17-3.38a52.22 52.22 0 0 1 12.338-5.786c2.704-.857 10.751-3.819 13.413-2.39z" class="prefix__cls-2" data-name="Path 14041" transform="translate(-208.387 -379.973)"/>
                </g>
                <g id="prefix__Group_13064" data-name="Group 13064" transform="translate(0 35.552)">
                    <path id="prefix__Path_14042" d="M130.245 204.108a165.878 165.878 0 0 0 47.051-.272 3.2 3.2 0 0 0 2.4-1.136c.709-1.172-.286-2.594-1.107-3.69a18.035 18.035 0 0 1-3.2-14.152 75.131 75.131 0 0 1-41.924 19.062z" class="prefix__cls-1" data-name="Path 14042" transform="translate(-130.245 -184.858)"/>
                    <path id="prefix__Path_14043" fill="#d8d8d8" d="M130.245 204.108a165.878 165.878 0 0 0 47.051-.272 3.2 3.2 0 0 0 2.4-1.136c.709-1.172-.286-2.594-1.107-3.69a18.035 18.035 0 0 1-3.2-14.152 75.131 75.131 0 0 1-41.924 19.062z" data-name="Path 14043" opacity="0.4" transform="translate(-130.245 -184.858)"/>
                </g>
            </g>
        </g>
        <g id="prefix__table_and_seat" data-name="table and seat" transform="translate(52.003 295.003)">
            <g id="prefix__Group_13069" data-name="Group 13069">
                <path id="prefix__Path_14044" d="M55.089 315.269v-61.86a19.47 19.47 0 0 1 19.469 19.469V295.8a19.47 19.47 0 0 1-19.469 19.469z" data-name="Path 14044" transform="translate(-51.262 -253.409)"/>
                <g id="prefix__Group_13066" data-name="Group 13066" transform="translate(0 19.427)">
                    <path id="prefix__Path_14045" d="M115.066 382.788H68.353c-10.407 0-16.14-7.493-16.14-21.1L52 269.083l3.72-.007.211 92.608c0 11.537 4.179 17.383 12.42 17.383h46.713z" class="prefix__cls-5" data-name="Path 14045" transform="translate(-52.003 -269.076)"/>
                </g>
                <path id="prefix__Path_14046" d="M143.277 363.172H76.568c-9.894 0-17.915-5.658-17.915-12.638 0-6.98 8.021-12.639 17.915-12.639h66.709c9.894 0 17.914 5.659 17.914 12.639 0 6.98-8.02 12.638-17.914 12.638z" data-name="Path 14046" transform="translate(-50.407 -233.134)"/>
                <path id="prefix__Path_14047" d="M55.089 315.269v-61.86a19.47 19.47 0 0 1 19.469 19.469V295.8a19.47 19.47 0 0 1-19.469 19.469z" data-name="Path 14047" transform="translate(-51.262 -253.409)"/>
                <path id="prefix__Path_14048" d="M143.277 363.172H76.568c-9.894 0-17.915-5.658-17.915-12.638 0-6.98 8.021-12.639 17.915-12.639h66.709c9.894 0 17.914 5.659 17.914 12.639 0 6.98-8.02 12.638-17.914 12.638z" data-name="Path 14048" transform="translate(-50.407 -233.134)"/>
                <path id="prefix__Rectangle_3640" d="M0 0H10.67V38.129H0z" class="prefix__cls-5" data-name="Rectangle 3640" transform="translate(52.598 131.279)"/>
                <path id="prefix__Path_14049" d="M63.343 402.11l38.536-12.081h10.67L153.8 402.11v3.536H63.343z" class="prefix__cls-5" data-name="Path 14049" transform="translate(-49.282 -220.622)"/>
                <g id="prefix__Group_13067" data-name="Group 13067" transform="translate(11.999 185.024)">
                    <path id="prefix__Rectangle_3641" d="M0 0H8.545V8.545H0z" class="prefix__cls-5" data-name="Rectangle 3641" transform="translate(2.063)"/>
                    <circle id="prefix__Ellipse_270" cx="6.536" cy="6.536" r="6.536" class="prefix__cls-5" data-name="Ellipse 270" transform="translate(0 9.407)"/>
                </g>
                <g id="prefix__Group_13068" data-name="Group 13068" transform="translate(93.617 185.024)">
                    <path id="prefix__Rectangle_3642" d="M0 0H8.545V8.545H0z" class="prefix__cls-5" data-name="Rectangle 3642" transform="translate(2.063)"/>
                    <circle id="prefix__Ellipse_271" cx="6.536" cy="6.536" r="6.536" class="prefix__cls-5" data-name="Ellipse 271" transform="translate(0 9.407)"/>
                </g>
            </g>
            <g id="prefix__Group_13075" data-name="Group 13075" transform="translate(26.757 30.039)">
                <g id="prefix__Group_13070" data-name="Group 13070" transform="translate(0 25.634)">
                    <path id="prefix__Path_14050" d="M115.609 298.307H100.39L73.581 454.472h6.768z" class="prefix__cls-5" data-name="Path 14050" transform="translate(-73.581 -298.307)"/>
                    <path id="prefix__Path_14051" d="M115.609 298.307H100.39L73.581 454.472h6.768z" class="prefix__cls-6" data-name="Path 14051" transform="translate(-73.581 -298.307)"/>
                </g>
                <g id="prefix__Group_13071" data-name="Group 13071" transform="translate(134.573 25.634)">
                    <path id="prefix__Path_14052" d="M182.109 298.307h15.219l26.809 156.165h-6.768z" class="prefix__cls-5" data-name="Path 14052" transform="translate(-182.109 -298.307)"/>
                    <path id="prefix__Path_14053" d="M182.109 298.307h15.219l26.809 156.165h-6.768z" class="prefix__cls-6" data-name="Path 14053" transform="translate(-182.109 -298.307)"/>
                </g>
                <g id="prefix__Group_13072" data-name="Group 13072" transform="translate(19.34 13.554)">
                    <path id="prefix__Rectangle_3643" d="M0 0H138.78V23.867H0z" class="prefix__cls-5" data-name="Rectangle 3643"/>
                    <path id="prefix__Rectangle_3644" d="M0 0H138.78V23.867H0z" class="prefix__cls-7" data-name="Rectangle 3644"/>
                </g>
                <g id="prefix__Group_13074" data-name="Group 13074" transform="translate(6.166)">
                    <g id="prefix__Group_13073" data-name="Group 13073">
                        <path id="prefix__Path_14054" d="M234.424 291.187H85.332a6.777 6.777 0 0 1-6.778-6.777 6.777 6.777 0 0 1 6.778-6.776h149.092a6.777 6.777 0 0 1 6.778 6.776 6.777 6.777 0 0 1-6.778 6.777z" data-name="Path 14054" transform="translate(-78.554 -277.634)"/>
                        <path id="prefix__Path_14055" d="M234.424 291.187H85.332a6.777 6.777 0 0 1-6.778-6.777 6.777 6.777 0 0 1 6.778-6.776h149.092a6.777 6.777 0 0 1 6.778 6.776 6.777 6.777 0 0 1-6.778 6.777z" class="prefix__cls-8" data-name="Path 14055" transform="translate(-78.554 -277.634)"/>
                    </g>
                </g>
            </g>
        </g>
        <g id="prefix__Clock" transform="translate(267.901 80.092)">
            <g id="prefix__Group_13080" data-name="Group 13080">
                <g id="prefix__Group_13076" data-name="Group 13076">
                    <circle id="prefix__Ellipse_272" cx="25.354" cy="25.354" r="25.354" data-name="Ellipse 272" transform="rotate(-79.316 30.055 24.915)"/>
                    <circle id="prefix__Ellipse_273" cx="20.347" cy="20.347" r="20.347" fill="#d8d8d8" data-name="Ellipse 273" opacity="0.8" transform="translate(8.961 9.269)"/>
                </g>
                <g id="prefix__Group_13079" data-name="Group 13079" transform="translate(20.265 17.825)">
                    <g id="prefix__Group_13077" data-name="Group 13077" transform="translate(6.928 11.415)">
                        <path id="prefix__Path_14056" d="M252.173 105.736a2.063 2.063 0 1 1-2.063-2.063 2.063 2.063 0 0 1 2.063 2.063z" data-name="Path 14056" transform="translate(-248.046 -103.673)"/>
                    </g>
                    <g id="prefix__Group_13078" data-name="Group 13078">
                        <path id="prefix__Path_14057" d="M251.214 108.705l-8.755-8.24.85-.9 7.932 7.465 14.216-12.56.821.929z" data-name="Path 14057" transform="translate(-242.459 -94.467)"/>
                    </g>
                </g>
            </g>
        </g>
        <g id="prefix__Paper" transform="translate(113.728 229.183)">
            <g id="prefix__Group_13093" data-name="Group 13093">
                <g id="prefix__Group_13092" data-name="Group 13092">
                    <g id="prefix__Group_13082" data-name="Group 13082" transform="translate(0 78.179)">
                        <g id="prefix__Group_13081" data-name="Group 13081">
                            <path id="prefix__Rectangle_3645" d="M0 0H68.138V16.942H0z" data-name="Rectangle 3645" transform="rotate(180 34.069 8.471)"/>
                            <path id="prefix__Rectangle_3646" d="M0 0H68.138V16.942H0z" class="prefix__cls-10" data-name="Rectangle 3646" transform="rotate(180 34.18 8.508)"/>
                            <path id="prefix__Rectangle_3647" d="M0 0H52.3V16.942H0z" class="prefix__cls-10" data-name="Rectangle 3647" transform="rotate(180 26.15 8.508)"/>
                            <path id="prefix__Path_14058" d="M102.057 275.4l67.809 2.1-.076-1.718-67.77-.884z" class="prefix__cls-11" data-name="Path 14058" transform="translate(-101.725 -260.61)"/>
                            <path id="prefix__Path_14059" d="M169.838 269.719l-67.7-3.807v.57l67.7 4.526z" class="prefix__cls-11" data-name="Path 14059" transform="translate(-101.698 -262.768)"/>
                            <path id="prefix__Path_14060" d="M169.838 264.856l-67.7 1.55v.558l67.7-.818z" class="prefix__cls-11" data-name="Path 14060" transform="translate(-101.698 -263.021)"/>
                            <path id="prefix__Path_14061" d="M169.994 271.884l-67.716 3.3v-.5l67.716-3.931z" class="prefix__cls-11" data-name="Path 14061" transform="translate(-101.663 -261.605)"/>
                        </g>
                        <path id="prefix__Path_14062" d="M101.917 263.555l67.7.056v.558h-67.7z" class="prefix__cls-11" data-name="Path 14062" transform="translate(-101.75 -263.333)"/>
                    </g>
                    <g id="prefix__Group_13083" data-name="Group 13083" transform="translate(4.886 27.72)">
                        <path id="prefix__Rectangle_3648" d="M0 0H68.138V16.942H0z" data-name="Rectangle 3648" transform="rotate(180 34.069 8.471)"/>
                        <path id="prefix__Rectangle_3649" d="M0 0H68.138V16.942H0z" class="prefix__cls-10" data-name="Rectangle 3649" transform="rotate(180 34.18 8.508)"/>
                        <path id="prefix__Rectangle_3650" d="M0 0H52.3V16.942H0z" class="prefix__cls-10" data-name="Rectangle 3650" transform="rotate(180 26.15 8.508)"/>
                        <path id="prefix__Path_14063" d="M106 234.705l67.809 2.1-.076-1.718-67.77-.884z" class="prefix__cls-11" data-name="Path 14063" transform="translate(-105.666 -219.917)"/>
                        <path id="prefix__Path_14064" d="M173.778 229.026l-67.7-3.807v.57l67.7 4.526z" class="prefix__cls-11" data-name="Path 14064" transform="translate(-105.638 -222.075)"/>
                        <path id="prefix__Path_14065" d="M173.778 224.163l-67.7 1.55v.558l67.7-.818z" class="prefix__cls-11" data-name="Path 14065" transform="translate(-105.638 -222.328)"/>
                        <path id="prefix__Path_14066" d="M173.935 231.191l-67.716 3.3v-.5l67.716-3.931z" class="prefix__cls-11" data-name="Path 14066" transform="translate(-105.604 -220.912)"/>
                    </g>
                    <g id="prefix__Group_13084" data-name="Group 13084" transform="translate(4.039 61.003)">
                        <path id="prefix__Rectangle_3651" d="M0 0H68.138V16.942H0z" data-name="Rectangle 3651" transform="rotate(180 34.069 8.471)"/>
                        <path id="prefix__Rectangle_3652" d="M0 0H68.138V16.942H0z" class="prefix__cls-10" data-name="Rectangle 3652" transform="rotate(180 34.18 8.508)"/>
                        <path id="prefix__Rectangle_3653" d="M0 0H52.3V16.942H0z" class="prefix__cls-10" data-name="Rectangle 3653" transform="translate(.15 .074)"/>
                        <path id="prefix__Path_14067" d="M172.885 261.049l-67.77.884-.076 1.718 67.809-2.1z" class="prefix__cls-11" data-name="Path 14067" transform="translate(-105.04 -246.759)"/>
                        <path id="prefix__Path_14068" d="M105.392 249.7l67.7.056v.558h-67.7z" class="prefix__cls-11" data-name="Path 14068" transform="translate(-104.955 -249.482)"/>
                        <path id="prefix__Path_14069" d="M105.04 257.157l67.7-4.526v-.57l-67.7 3.807z" class="prefix__cls-11" data-name="Path 14069" transform="translate(-105.04 -248.916)"/>
                        <path id="prefix__Path_14070" d="M173.1 251l-67.7 1.55v.558l67.7-.818z" class="prefix__cls-11" data-name="Path 14070" transform="translate(-104.955 -249.17)"/>
                        <path id="prefix__Path_14071" d="M173.251 258.033l-67.716 3.3v-.5l67.716-3.931z" class="prefix__cls-11" data-name="Path 14071" transform="translate(-104.921 -247.754)"/>
                    </g>
                    <g id="prefix__Group_13085" data-name="Group 13085" transform="translate(1.611 45.03)">
                        <path id="prefix__Path_14072" d="M171.29 236.644l-68.11.342-.1 16.6h68.21z" data-name="Path 14072" transform="translate(-103.081 -236.644)"/>
                        <path id="prefix__Rectangle_3654" d="M0 0H68.138V16.942H0z" class="prefix__cls-10" data-name="Rectangle 3654" transform="rotate(180 34.105 8.471)"/>
                        <path id="prefix__Rectangle_3655" d="M0 0H52.3V16.942H0z" class="prefix__cls-10" data-name="Rectangle 3655"/>
                        <path id="prefix__Path_14073" d="M157.41 236.92h-54.249v1.724h53.084z" class="prefix__cls-11" data-name="Path 14073" transform="translate(-103.062 -236.577)"/>
                        <path id="prefix__Path_14074" d="M170.877 242.517l-67.716.632v.5h67.716z" class="prefix__cls-11" data-name="Path 14074" transform="translate(-103.062 -235.234)"/>
                        <path id="prefix__Path_14075" d="M103.161 249.477l67.716-3.3v.5l-67.716 3.931z" class="prefix__cls-11" data-name="Path 14075" transform="translate(-103.062 -234.355)"/>
                        <path id="prefix__Path_14076" d="M103.161 243.7l67.716 1.352v.484l-67.716-.707z" class="prefix__cls-11" data-name="Path 14076" transform="translate(-103.062 -234.95)"/>
                    </g>
                    <g id="prefix__Group_13086" data-name="Group 13086" transform="translate(19.327 8.177)">
                        <path id="prefix__Rectangle_3656" d="M0 0H67.703V8.531H0z" data-name="Rectangle 3656" transform="translate(.184)"/>
                        <path id="prefix__Rectangle_3657" d="M0 0H67.703V8.531H0z" class="prefix__cls-10" data-name="Rectangle 3657" transform="translate(.184)"/>
                        <path id="prefix__Rectangle_3658" d="M0 0H53.952V8.531H0z" class="prefix__cls-10" data-name="Rectangle 3658" transform="translate(.184)"/>
                        <path id="prefix__Path_14077" d="M185.25 211.8l-67.7.335v.248h67.7z" class="prefix__cls-11" data-name="Path 14077" transform="translate(-117.326 -205.751)"/>
                        <path id="prefix__Path_14078" d="M117.547 209.564l67.7-1.724v.26l-67.7 2.046z" class="prefix__cls-11" data-name="Path 14078" transform="translate(-117.326 -206.702)"/>
                        <path id="prefix__Path_14079" d="M117.369 208.853l67.7.694v.26l-67.7-.372z" class="prefix__cls-11" data-name="Path 14079" transform="translate(-117.369 -206.459)"/>
                    </g>
                    <g id="prefix__Group_13088" data-name="Group 13088" transform="translate(10.035 4.199)">
                        <g id="prefix__Group_13087" data-name="Group 13087">
                            <path id="prefix__Rectangle_3659" d="M0 0H67.703V4.111H0z" data-name="Rectangle 3659" transform="translate(0 .221)"/>
                            <path id="prefix__Rectangle_3660" d="M0 0H67.703V4.076H0z" class="prefix__cls-10" data-name="Rectangle 3660" transform="translate(0 .256)"/>
                            <path id="prefix__Rectangle_3661" d="M0 0H53.952V4.332H0z" class="prefix__cls-10" data-name="Rectangle 3661"/>
                        </g>
                        <path id="prefix__Path_14080" d="M109.9 206.752l67.7-1.724v.26l-67.7 2.046z" class="prefix__cls-11" data-name="Path 14080" transform="translate(-109.868 -203.399)"/>
                        <path id="prefix__Path_14081" d="M109.9 204.754l67.7.694v.26l-67.7-.372z" class="prefix__cls-11" data-name="Path 14081" transform="translate(-109.868 -203.465)"/>
                    </g>
                    <g id="prefix__Group_13090" data-name="Group 13090" transform="translate(16.344)">
                        <g id="prefix__Group_13089" data-name="Group 13089">
                            <path id="prefix__Rectangle_3662" d="M0 0H67.703V4.111H0z" data-name="Rectangle 3662" transform="translate(0 .221)"/>
                            <path id="prefix__Rectangle_3663" d="M0 0H67.703V4.076H0z" class="prefix__cls-10" data-name="Rectangle 3663" transform="translate(0 .256)"/>
                            <path id="prefix__Rectangle_3664" d="M0 0H53.952V4.332H0z" class="prefix__cls-10" data-name="Rectangle 3664"/>
                        </g>
                        <path id="prefix__Path_14082" d="M115 202l67.72.824-.01.26-67.732-.5z" class="prefix__cls-11" data-name="Path 14082" transform="translate(-114.959 -199.926)"/>
                        <path id="prefix__Path_14083" d="M114.992 201.368l67.7.694v.26l-67.7-.372z" class="prefix__cls-11" data-name="Path 14083" transform="translate(-114.956 -200.079)"/>
                    </g>
                    <g id="prefix__Group_13091" data-name="Group 13091" transform="translate(14.501 16.708)">
                        <path id="prefix__Rectangle_3665" d="M0 0H67.703V10.986H0z" data-name="Rectangle 3665" transform="translate(.43)"/>
                        <path id="prefix__Rectangle_3666" d="M0 0H67.703V10.986H0z" class="prefix__cls-10" data-name="Rectangle 3666" transform="translate(.43)"/>
                        <path id="prefix__Rectangle_3667" d="M0 0H52.241V10.986H0z" class="prefix__cls-10" data-name="Rectangle 3667" transform="translate(.43)"/>
                        <path id="prefix__Path_14084" d="M181.18 216.688l-67.7-.384v-.3h67.7z" class="prefix__cls-11" data-name="Path 14084" transform="translate(-113.476 -213.274)"/>
                        <path id="prefix__Path_14085" d="M113.853 217.972l67.7 1.984v-.3l-67.7-2.356z" class="prefix__cls-11" data-name="Path 14085" transform="translate(-113.386 -212.962)"/>
                        <path id="prefix__Path_14086" d="M180.812 213.812h-63.859l1.414 1.352h62.446z" class="prefix__cls-11" data-name="Path 14086" transform="translate(-112.642 -213.8)"/>
                        <path id="prefix__Path_14087" d="M114.041 221.507l67.7-.818v-.289l-67.7.422z" class="prefix__cls-11" data-name="Path 14087" transform="translate(-113.341 -212.218)"/>
                    </g>
                </g>
            </g>
        </g>
        <g id="prefix__Laptop" transform="translate(105.257 241.258)">
            <g id="prefix__Group_13095" data-name="Group 13095">
                <g id="prefix__Group_13094" data-name="Group 13094">
                    <path id="prefix__Path_14088" d="M157.034 290.034l19.056-79.968c1.333.317 3.117 1.655 2.8 2.987l-18.482 77.556z" class="prefix__cls-5" data-name="Path 14088" transform="translate(-80.051 -210.066)"/>
                    <path id="prefix__Rectangle_3668" d="M0 0h82.207v.8a3.337 3.337 0 0 1-3.337 3.337H3.337A3.337 3.337 0 0 1 0 .8V0z" class="prefix__cls-5" data-name="Rectangle 3668" transform="translate(0 79.591)"/>
                </g>
            </g>
        </g>
        <g id="prefix__Coffee_cup" data-name="Coffee cup" transform="translate(194.045 301.715)">
            <g id="prefix__Group_13096" data-name="Group 13096">
                <path id="prefix__Path_14089" d="M168.862 262.857v4.907a3.085 3.085 0 0 0 .906 2.19l3.936 3.933a3.064 3.064 0 0 0 1.272.755 10.091 10.091 0 0 0 9.151 5.849h1.473a10.1 10.1 0 0 0 10.1-10.1v-11.569h-21.67v.939h-2.072a3.1 3.1 0 0 0-3.096 3.096zm2.48 0a.617.617 0 0 1 .616-.616h2.072v8.153c0 .11.012.22.016.33l-2.523-2.523a.626.626 0 0 1-.181-.437z" class="prefix__cls-12" data-name="Path 14089" transform="translate(-166 -258.822)"/>
                <path id="prefix__Path_14090" d="M201.4 277.989h-31.174a5.726 5.726 0 0 1-3.672-1.835h38.514a5.726 5.726 0 0 1-3.668 1.835z" class="prefix__cls-12" data-name="Path 14090" transform="translate(-166.554 -254.663)"/>
            </g>
        </g>
        <g id="prefix__Door" transform="translate(386.76 83.735)">
            <g id="prefix__Group_13103" data-name="Group 13103">
                <g id="prefix__Group_13099" data-name="Group 13099" transform="translate(0 23.489)">
                    <g id="prefix__Group_13097" data-name="Group 13097" transform="translate(5.578 5.792)">
                        <path id="prefix__Rectangle_3669" d="M0 0H161.112V344.402H0z" class="prefix__cls-1" data-name="Rectangle 3669"/>
                        <path id="prefix__Rectangle_3670" fill="#d8d8d8" d="M0 0H161.112V344.402H0z" data-name="Rectangle 3670" opacity="0.5"/>
                    </g>
                    <g id="prefix__Group_13098" data-name="Group 13098" transform="translate(5.38 5.792)">
                        <path id="prefix__Path_14091" d="M408.764 116.536V438.29l-82.295 12.757v-344.4z" class="prefix__cls-8" data-name="Path 14091" transform="translate(-326.271 -106.644)"/>
                        <path id="prefix__Path_14092" fill="#5e5e5e" d="M408.764 116.536l-82.295-9.893 82.295 226.185z" data-name="Path 14092" opacity="0.4" transform="translate(-326.271 -106.644)"/>
                        <path id="prefix__Rectangle_3671" d="M0 0H341.775V5.356H0z" data-name="Rectangle 3671" opacity="0.4" transform="rotate(-89.94 171.955 171.783)"/>
                    </g>
                    <path id="prefix__Path_14093" d="M321.971 101.973v350.195h5.577v-344.4H488v344.4h5.577V101.973z" data-name="Path 14093" transform="translate(-321.971 -101.973)"/>
                </g>
            </g>
        </g>
        <g id="prefix__Character" transform="translate(271.947 144.413)">
            <g id="prefix__Group_13139" data-name="Group 13139">
                <path id="prefix__Path_14098" d="M367.733 175.583c-4.518 4.424-8.143 9.926-1.835 16.62 0 0 3.617 10.273-9.991 1.307-12.344-8.134-10.663-14.916-10.663-14.916 7.42-1.467 13.715-14.786 16.57-22.439z" class="prefix__cls-16" data-name="Path 14098" transform="translate(-201.591 -126.159)"/>
                <path id="prefix__Path_14099" d="M382.518 161c.508.265.63 1.14.253 1.923s-1.089 1.207-1.6.951-.622-1.107-.249-1.907c.389-.827 1.087-1.232 1.596-.967z" class="prefix__cls-5" data-name="Path 14099" transform="translate(-193.065 -125.015)"/>
                <path id="prefix__Path_14100" fill="#a02724" d="M377.533 169.674s2.07 1.81 4.071 1.205a32.815 32.815 0 0 1-.541-8.721z" data-name="Path 14100" transform="translate(-193.824 -124.718)"/>
                <g id="prefix__Group_13106" data-name="Group 13106" transform="translate(156.916 3.656)">
                    <path id="prefix__Path_14101" d="M366.148 144.3a14.248 14.248 0 0 1 20.062 1.875c7.579 8.7 2.091 23.862-4.078 31.576a14.074 14.074 0 0 1-24.543-4.282c-2.507-7.492.336-13.16 4.324-23.231a14.248 14.248 0 0 1 4.235-5.938z" class="prefix__cls-16" data-name="Path 14101" transform="translate(-355.753 -133.447)"/>
                    <g id="prefix__Group_13105" data-name="Group 13105">
                        <g id="prefix__Group_13104" data-name="Group 13104" transform="translate(0 5.011)">
                            <path id="prefix__Path_14102" d="M366.089 170.822a13.082 13.082 0 0 1-9.471-5.153c-1.918-2.463.188-16.533 5.824-22.1 5.444-5.363 9.971-5.823 17.643-2.552s12.463 11.167 11.032 14.629-9.283 10.681-11.583 10.406c-2.657-4.304-10.349 4.873-13.445 4.77z" class="prefix__cls-5" data-name="Path 14102" transform="translate(-355.925 -138.953)"/>
                            <path id="prefix__Path_14103" d="M366.089 170.822a13.082 13.082 0 0 1-9.471-5.153c-1.918-2.463.188-16.533 5.824-22.1 5.444-5.363 9.971-5.823 17.643-2.552s12.463 11.167 11.032 14.629-9.283 10.681-11.583 10.406c-2.657-4.304-10.349 4.873-13.445 4.77z" class="prefix__cls-7" data-name="Path 14103" transform="translate(-355.925 -138.953)"/>
                        </g>
                        <path id="prefix__Path_14104" d="M364.476 147.866c-6.928-1.777-3.979-11.181 2.424-12.732 5.184-1.269 14.732 3.156 19.019 6.8s4.688-.006 4.688-.006a10.068 10.068 0 0 1 5.866 9.206c-.061 6.777-6.758 10-9.973 7.6 0 .006-15.1-9.091-22.024-10.868z" data-name="Path 14104" transform="translate(-354.83 -134.912)"/>
                        <path id="prefix__Path_14105" d="M379.195 157.39c1.762 3.016-.839 7.323-3.194 9.354-2.613 2.251-6.123 1.931-6.55-1.654a10.8 10.8 0 0 1 2.1-7.692c2.049-2.672 5.88-3.022 7.644-.008z" class="prefix__cls-16" data-name="Path 14105" transform="translate(-352.696 -130.029)"/>
                    </g>
                    <path id="prefix__Path_14106" d="M381.01 158.07a4.285 4.285 0 0 1 3.8.108.512.512 0 1 0 .553-.861 5.3 5.3 0 0 0-4.763-.2.53.53 0 0 0-.031.939.546.546 0 0 0 .441.014z" class="prefix__cls-5" data-name="Path 14106" transform="translate(-350.077 -129.695)"/>
                </g>
                <g id="prefix__Group_13112" data-name="Group 13112" transform="translate(159.103)">
                    <g id="prefix__Group_13107" data-name="Group 13107" transform="translate(7.347)">
                        <path id="prefix__Path_14107" d="M371.267 146.6l-.549-.284a9.475 9.475 0 0 0-7.1-13.742l.086-.614a10.095 10.095 0 0 1 7.568 14.639z" data-name="Path 14107" transform="translate(-363.614 -131.964)"/>
                    </g>
                    <g id="prefix__Group_13108" data-name="Group 13108" transform="translate(18.002 .371)">
                        <path id="prefix__Path_14108" d="M372.459 148.423l-.252-.567a9.474 9.474 0 0 0 3.039-15.166l.451-.427a10.1 10.1 0 0 1-3.239 16.16z" data-name="Path 14108" transform="translate(-372.207 -132.263)"/>
                    </g>
                    <g id="prefix__Group_13109" data-name="Group 13109" transform="translate(0 7.784)">
                        <path id="prefix__Path_14109" d="M364.446 139.946a6.638 6.638 0 0 0-6.481-.423l-.275-.554a7.167 7.167 0 0 1 7.1.464z" data-name="Path 14109" transform="translate(-357.689 -138.241)"/>
                    </g>
                    <g id="prefix__Group_13110" data-name="Group 13110" transform="translate(35.936 16.629)">
                        <path id="prefix__Path_14110" d="M386.987 148.3l-.317-.533a17.244 17.244 0 0 1 8.073-2.388l.024.62a16.594 16.594 0 0 0-7.78 2.301z" data-name="Path 14110" transform="translate(-386.67 -145.375)"/>
                    </g>
                    <g id="prefix__Group_13111" data-name="Group 13111" transform="translate(11.834 2.625)">
                        <path id="prefix__Path_14111" d="M387.684 146.315a2.287 2.287 0 0 1-1.422-.49 5.7 5.7 0 0 1-1.173-1.433l-.072-.11c-.6-.918-6-8.971-11.848-9.549a6.581 6.581 0 0 0-5.492 2.217l-.444-.434a7.177 7.177 0 0 1 6-2.4c6.143.608 11.694 8.886 12.308 9.828l.073.112a5.165 5.165 0 0 0 1.038 1.286 1.688 1.688 0 0 0 1.493.294 1.606 1.606 0 0 0 1.058-.751 2.483 2.483 0 0 0-.016-1.84 5 5 0 0 0-1.476-1.887l.422-.455a5.533 5.533 0 0 1 1.641 2.144 3.081 3.081 0 0 1-.022 2.33 2.2 2.2 0 0 1-1.441 1.058 2.37 2.37 0 0 1-.627.08z" data-name="Path 14111" transform="translate(-367.233 -134.081)"/>
                    </g>
                    <path id="prefix__Path_14112" d="M381.515 155.372a.294.294 0 0 1 .43-.4 4.917 4.917 0 0 0 5.007 1.013 8.151 8.151 0 0 0 5.715-6.453.295.295 0 1 1 .578.117 8.8 8.8 0 0 1-6.135 6.9 5.9 5.9 0 0 1-4.832-.536 4.1 4.1 0 0 1-.763-.641z" data-name="Path 14112" transform="translate(-351.988 -127.805)"/>
                </g>
                <g id="prefix___Group_" data-name="&lt;Group&gt;" transform="translate(0 46.73)">
                    <path id="prefix__Path_14113" d="M364.809 256.355c5.079 4.044 11.9 6.19 15.768 11.4 1.972 2.655 10.1 6.893 13.253 8.418a2.9 2.9 0 0 0 2.442.041c1.85-.816 5.368-2.362 6.855-2.976a.574.574 0 0 0 .239-.874l-2.449-3.329-6.386.443c.6-3.081 1.624-6.871-1.872-7.105-2.409-.16-4.686-.069-7.346-1.737-15.786-9.9-27.463-33.741-31-52.034-.862-4.455-1.5-9.118-3.984-12.917s-7.486-6.424-11.631-4.578c-11.898 5.302 14.739 56.193 26.111 65.248z" class="prefix__cls-16" data-name="Path 14113" transform="translate(-203.864 -164.645)"/>
                    <g id="prefix__Group_13119" data-name="Group 13119" transform="translate(0 86.052)">
                        <g id="prefix__Group_13113" data-name="Group 13113" transform="translate(40.358)">
                            <path id="prefix__Path_14114" d="M325.087 311.594c-11.11 9-63.161 36.9-63.161 36.9l7.3 13.725s44.018-12.173 66.4-27.988z" class="prefix__cls-12" data-name="Path 14114" transform="translate(-261.926 -221.638)"/>
                            <path id="prefix__Path_14115" d="M324.607 351.708a80.991 80.991 0 0 0 7.07-14.352 124.915 124.915 0 0 0 5.054-17.029c.188-.813.362-1.655.539-2.507.067-.329.13-.646.2-.986a154.06 154.06 0 0 0 2.892-22.93l1.619-13.5 3.486-29.155c-14.658-6.122-26.7-12.206-26.7-12.206s-8.731 9.216-9.25 22.108c-.719 17.829 2.315 63.377-3.267 73.628z" class="prefix__cls-12" data-name="Path 14115" transform="translate(-251.29 -239.048)"/>
                            <path id="prefix__Path_14116" d="M306.247 316.255l18.36 16.925z" data-name="Path 14116" transform="translate(-251.29 -220.519)"/>
                        </g>
                        <g id="prefix__Group_13118" data-name="Group 13118" transform="translate(0 123.443)">
                            <path id="prefix__Path_14117" d="M267.161 340.509l-21.025 9.066s-.244 9.513 3.567 8.791c5.184-.982 21.99-4.267 21.99-4.267s2.583 2.784-4.532-13.59z" class="prefix__cls-16" data-name="Path 14117" transform="translate(-225.358 -338.142)"/>
                            <g id="prefix__Group_13114" data-name="Group 13114" transform="translate(18.419 22.767)">
                                <path id="prefix__Path_14118" d="M244.688 360.588a18.408 18.408 0 0 1-.453-3.281.234.234 0 0 1 .155-.247.243.243 0 0 1 .275.064c.361.409 3.5 4 3.112 5.393a.788.788 0 0 1-.546.554 1.409 1.409 0 0 1-1.282-.165 4.021 4.021 0 0 1-1.261-2.318zm.1-2.572c.2 2.339.73 3.983 1.412 4.488a.916.916 0 0 0 .856.1.285.285 0 0 0 .213-.207c.237-.781-1.251-2.889-2.486-4.38z" data-name="Path 14118" transform="translate(-244.233 -356.942)"/>
                                <path id="prefix__Path_14119" d="M244.239 357.371a.323.323 0 0 1 .009-.154.267.267 0 0 1 .2-.154c.18-.057 4.447-.621 5.044 1.652l.063.2c.1.665-.18.94-.434 1.054-1.1.475-3.928-1.422-4.806-2.516zm4.77 1.483c-.37-1.474-2.924-1.4-4.01-1.35 1.081 1.075 3.231 2.3 3.895 2.013 0 0 .221-.069.149-.522z" data-name="Path 14119" transform="translate(-244.234 -356.961)"/>
                            </g>
                            <path id="prefix__Path_14120" d="M256.053 344.089L260.1 355.7l8.839-1.994-6.992-12.158z" class="prefix__cls-18" data-name="Path 14120" transform="translate(-222.978 -337.893)"/>
                            <path id="prefix__Path_14121" d="M252.887 348.045c-1.7-1.621-1.127-.547-4.1-2.874-1.437-1.126-5.782-2.164-7.318-1.287-2.384 1.361-3.115 4.17-5.52 8.3-3.14 5.39-5.615 14.009-6.509 18.632a3.533 3.533 0 0 0 2.528 4.093c.42.1.786.171 1.079.219a1.3 1.3 0 0 0 1.245-.489c3.448-4.461 4.158-4.92 7.5-8.987s11.378-6.78 11.378-6.78z" class="prefix__cls-5" data-name="Path 14121" transform="translate(-229.379 -337.411)"/>
                            <g id="prefix__Group_13117" data-name="Group 13117" transform="translate(35.907)">
                                <g id="prefix__Group_13115" data-name="Group 13115">
                                    <path id="prefix__Path_14122" d="M271.315 357.473c.045.063-6.152 1.5-6.152 1.5l-6.826-17.838 4.986-2.533z" data-name="Path 14122" transform="translate(-258.337 -338.6)"/>
                                </g>
                                <g id="prefix__Group_13116" data-name="Group 13116" opacity="0.7">
                                    <path id="prefix__Path_14123" d="M271.315 357.473c.045.063-6.152 1.5-6.152 1.5l-6.826-17.838 4.986-2.533z" class="prefix__cls-20" data-name="Path 14123" transform="translate(-258.337 -338.6)"/>
                                </g>
                            </g>
                        </g>
                    </g>
                    <g id="prefix__Group_13125" data-name="Group 13125" transform="translate(102.549 91.572)">
                        <path id="prefix__Path_14124" d="M408.5 349.05l14.221 22.957s9.932-3.052 8.458-7.008c-.911-2.44-4.319-10.759-6.778-17.371-.935-2.515-2.872-4.228-4.535-4.268-2.773-.066-5.817 2.054-11.366 5.69z" class="prefix__cls-16" data-name="Path 14124" transform="translate(-288.943 -219.534)"/>
                        <g id="prefix__Group_13120" data-name="Group 13120" transform="translate(147.165 142.624)">
                            <path id="prefix__Path_14125" d="M434.671 362.544a18.47 18.47 0 0 1-3.1 1.156.234.234 0 0 1-.274-.1.242.242 0 0 1 0-.283c.32-.441 3.138-4.282 4.585-4.211a.784.784 0 0 1 .66.412 1.4 1.4 0 0 1 .118 1.287 4.016 4.016 0 0 1-1.989 1.739zm-2.531.466c2.238-.707 3.729-1.58 4.073-2.355a.922.922 0 0 0-.087-.858.29.29 0 0 0-.248-.164c-.816-.064-2.551 1.847-3.737 3.377z" data-name="Path 14125" transform="translate(-430.648 -358.379)"/>
                            <path id="prefix__Path_14126" d="M431.705 364.151a.314.314 0 0 1-.151.024.267.267 0 0 1-.193-.156c-.094-.164-1.574-4.2.513-5.284l.182-.105c.625-.247.956-.029 1.123.195.7.975-.533 4.144-1.41 5.239zm.409-4.98c-1.358.682-.732 3.159-.445 4.209.815-1.29 1.544-3.655 1.117-4.24 0 0-.117-.2-.542-.031z" data-name="Path 14126" transform="translate(-430.764 -358.52)"/>
                        </g>
                        <path id="prefix__Path_14127" d="M418.755 367.349c.1 1.885 1.729 4.412 2.176 7.41.216 1.452 1.388 3.746 2.768 4.085 2.143.522 4.216.145 7.9-.935 4.809-1.411 16.968-8.288 20.043-10.492a2.838 2.838 0 0 0 .786-3.784c-.19-.291-.365-.534-.508-.724a1.045 1.045 0 0 0-1-.4c-4.478.7-5.145.574-9.342 1.1s-12.19-3.052-12.19-3.052z" class="prefix__cls-5" data-name="Path 14127" transform="translate(-286.481 -215.407)"/>
                        <path id="prefix__Path_14128" d="M412.846 356.57l3.277 5.29 10.46-7.152-2.228-6.007z" class="prefix__cls-18" data-name="Path 14128" transform="translate(-287.899 -218.252)"/>
                        <g id="prefix__Group_13123" data-name="Group 13123">
                            <g id="prefix__Group_13121" data-name="Group 13121">
                                <path id="prefix__Path_14129" d="M345.935 243.5l-33.854 17.07s2.3 8.8 5.543 14.194c11.883 19.721 25.225 10.365 35.47 17.644 22.713 16.141 39.414 24.368 44.177 29.887 3.744 4.337 41.486 62.218 41.486 62.218l11.177-7.454s-17.248-51.715-30.832-69.564-73.167-63.995-73.167-63.995z" class="prefix__cls-12" data-name="Path 14129" transform="translate(-312.081 -243.499)"/>
                            </g>
                            <path id="prefix__Path_14130" fill="#ff6b6b" d="M334.766 315.119a170.273 170.273 0 0 0 3.663-25.531c.314-4.711.387-9.657-1.7-13.892-1.657-3.36-4.535-5.962-7.584-8.139-3.336-2.382-17.233-10.774-14.3-3.43 2.455 6.135 19.449 53.116 19.921 50.992z" data-name="Path 14130" opacity="0.2" transform="translate(-311.514 -239.256)"/>
                            <g id="prefix__Group_13122" data-name="Group 13122">
                                <path id="prefix__Path_14131" d="M345.935 243.5l-33.854 17.07s2.3 8.8 5.543 14.194c11.883 19.721 25.225 10.365 35.47 17.644 22.713 16.141 39.414 24.368 44.177 29.887 3.744 4.337 41.486 62.218 41.486 62.218l11.177-7.454s-17.248-51.715-30.832-69.564-73.167-63.995-73.167-63.995z" class="prefix__cls-12" data-name="Path 14131" transform="translate(-312.081 -243.499)"/>
                            </g>
                        </g>
                        <g id="prefix__Group_13124" data-name="Group 13124" transform="translate(120.943 126.46)">
                            <path id="prefix__Path_14132" d="M426.295 345.484c.052-.057 2.492 5.555 2.492 5.555l-15.61 10.673-3.56-4.315z" data-name="Path 14132" transform="translate(-409.617 -345.484)"/>
                            <path id="prefix__Path_14133" d="M426.295 345.484c.052-.057 2.492 5.555 2.492 5.555l-15.61 10.673-3.56-4.315z" class="prefix__cls-22" data-name="Path 14133" transform="translate(-409.617 -345.484)"/>
                        </g>
                    </g>
                    <g id="prefix__Group_13126" data-name="Group 13126" transform="translate(183.925 94.841)">
                        <circle id="prefix__Ellipse_274" cx="6.395" cy="6.395" r="6.395" data-name="Ellipse 274" transform="rotate(-40.71 11.243 4.173)"/>
                        <path id="prefix__Path_14134" d="M386.7 248.274a6.392 6.392 0 1 0 5.89 6.857 6.382 6.382 0 0 0-5.89-6.857zm-.285 8.866a2.213 2.213 0 1 1 2.207-2.22 2.207 2.207 0 0 1-2.206 2.22z" class="prefix__cls-22" data-name="Path 14134" transform="translate(-377.199 -245.627)"/>
                    </g>
                    <g id="prefix__Group_13129" data-name="Group 13129" transform="translate(94.632 4.007)">
                        <g id="prefix__Group_13128" data-name="Group 13128" transform="translate(.024)">
                            <g id="prefix__Group_13127" data-name="Group 13127">
                                <path id="prefix__Path_14135" d="M367.508 236.937c-2.105 8.6-2.763 18.989-2.959 25.68l1.954 8.247-2.583.329-.4-1.85-.875-4.034-.868 3.745-.534 2.334a111.647 111.647 0 0 1-14.684-.382c-12.7-1.179-40.848-6.614-40.848-6.614s4.076-15.712 7.442-18.816c1.856-8.148 4.329-19.278 7.134-32.413 3.092-14.487 7.637-24.539 11.341-30.905a18.889 18.889 0 0 1 16.1-9.367 80.517 80.517 0 0 1 13.747.882c11.263 1.85 22.707 8.234 24.023 11.139 2.608 5.711-14.587 38.08-17.99 52.025z" data-name="Path 14135" transform="translate(-305.715 -172.882)"/>
                                <path id="prefix__Path_14136" d="M352.673 251.454l-1.744-.289.869-3.744z" data-name="Path 14136" transform="translate(-294.864 -154.993)"/>
                            </g>
                        </g>
                        <path id="prefix__Path_14137" d="M367.489 236.952c-2.105 8.6-2.761 18.989-2.957 25.68l1.954 8.247-2.584.329-.4-1.85-.875-4.034-.869 3.745-.533 2.334a111.672 111.672 0 0 1-14.685-.382c-12.695-1.179-40.848-6.614-40.848-6.614s4.076-15.712 7.442-18.814c1.858-8.149 4.33-19.279 7.135-32.414 2.872-13.456 7-23.087 10.539-29.491a21.01 21.01 0 0 1 18.439-10.79 77.091 77.091 0 0 1 12.208.892c11.263 1.849 22.705 8.234 24.024 11.138 2.609 5.709-14.586 38.079-17.99 52.024z" class="prefix__cls-23" data-name="Path 14137" transform="translate(-305.696 -172.878)"/>
                    </g>
                    <path id="prefix__Path_14138" d="M341.8 173.669l4.9-3.127a5.685 5.685 0 0 1 3.886-.831c3.158.461 9.48 1.052 14.638 3.615 4.69 2.331 3.277 6.361 3.277 6.361s-8.955-4.662-26.701-6.018z" data-name="Path 14138" transform="translate(-202.401 -169.65)"/>
                </g>
                <g id="prefix__Group_13134" data-name="Group 13134" transform="translate(115.905 82.936)">
                    <g id="prefix__Group_13132" data-name="Group 13132">
                        <g id="prefix__Group_13130" data-name="Group 13130" transform="translate(22.104)">
                            <path id="prefix__Path_14139" d="M364.6 208.232l-4.959.114-.042-1.8a3.006 3.006 0 0 0-.812-2.032 2.159 2.159 0 0 0-1.612-.7l-9.239.216a2.208 2.208 0 0 0-1.578.777 3.02 3.02 0 0 0-.715 2.068l.042 1.8-4.959.115-.042-1.8a7.967 7.967 0 0 1 1.943-5.452 7.092 7.092 0 0 1 5.193-2.469l9.24-.216a7.067 7.067 0 0 1 5.3 2.223 7.956 7.956 0 0 1 2.2 5.355z" class="prefix__cls-5" data-name="Path 14139" transform="translate(-340.678 -198.848)"/>
                        </g>
                        <g id="prefix__Group_13131" data-name="Group 13131" opacity="0.2" transform="translate(22.104)">
                            <path id="prefix__Path_14140" d="M364.6 208.232l-4.959.114-.042-1.8a3.006 3.006 0 0 0-.812-2.032 2.159 2.159 0 0 0-1.612-.7l-9.239.216a2.208 2.208 0 0 0-1.578.777 3.02 3.02 0 0 0-.715 2.068l.042 1.8-4.959.115-.042-1.8a7.967 7.967 0 0 1 1.943-5.452 7.092 7.092 0 0 1 5.193-2.469l9.24-.216a7.067 7.067 0 0 1 5.3 2.223 7.956 7.956 0 0 1 2.2 5.355z" class="prefix__cls-20" data-name="Path 14140" transform="translate(-340.678 -198.848)"/>
                        </g>
                        <path id="prefix__Path_14141" d="M324.645 207.262l-1.793 43.55 9.266-.217-4.568-43.4z" class="prefix__cls-5" data-name="Path 14141" transform="translate(-322.852 -196.846)"/>
                        <path id="prefix__Path_14142" d="M390.641 249.487l-3.813.088-5.452.128-56.065 1.3-1.016-43.483 58.872-1.368 2.645-.063.261-.01z" class="prefix__cls-5" data-name="Path 14142" transform="translate(-322.505 -197.112)"/>
                        <path id="prefix__Path_14143" d="M390.641 249.487l-3.813.088-5.452.128-56.065 1.3-1.016-43.483 58.872-1.368 2.645-.063.261-.01z" class="prefix__cls-7" data-name="Path 14143" transform="translate(-322.505 -197.112)"/>
                        <path id="prefix__Path_14144" d="M324.645 207.262l-1.793 43.55 9.266-.217-4.568-43.4z" class="prefix__cls-7" data-name="Path 14144" transform="translate(-322.852 -196.846)"/>
                    </g>
                    <g id="prefix__Group_13133" data-name="Group 13133" transform="translate(3.282 10.357)">
                        <path id="prefix__Line_210" fill="none" d="M0 0L0.74 43.491" data-name="Line 210" transform="translate(.611 .01)"/>
                        <path id="prefix__Rectangle_3674" d="M0 0H1.24V43.496H0z" class="prefix__cls-5" data-name="Rectangle 3674" transform="rotate(-.951 1.265 .01)"/>
                    </g>
                </g>
                <g id="prefix__Group_13138" data-name="Group 13138" transform="translate(138.63 59.027)">
                    <g id="prefix__Group_13136" data-name="Group 13136" transform="translate(.873 1.339)">
                        <path id="prefix__Path_14145" d="M360.435 183.655c-2.5 4.833-9.981 24.967-16.81 43.437a5.879 5.879 0 0 0 4.063 7.738l7.578 1.256c8.025-17.811 14.422-32.832 21.509-48.027-5.818-3.277-12.429-11.969-16.34-4.404z" class="prefix__cls-16" data-name="Path 14145" transform="translate(-341.553 -180.647)"/>
                        <path id="prefix__Path_14146" d="M355.195 225.033c3.078 18.23 4.243 34.8 6.68 50.482l-8.035.336c-.311-5.912-4.638-16.279-6.975-26.611-.844-3.732-2.7-7.315-4.045-12.937-1-4.181 1.986-9.846 6.038-11.284z" class="prefix__cls-16" data-name="Path 14146" transform="translate(-341.704 -169.998)"/>
                        <g id="prefix__Group_13135" data-name="Group 13135" transform="translate(4.456 103.922)">
                            <path id="prefix__Path_14147" d="M357.494 264.481c-7.676-.609-8.293 9.979-8.293 9.979l9.392 5.73 1.671-14.11z" class="prefix__cls-16" data-name="Path 14147" transform="translate(-344.582 -264.456)"/>
                            <path id="prefix__Path_14148" d="M359.486 278.254l-9.391-5.73-4.619 7.321 5.769 5.08z" class="prefix__cls-16" data-name="Path 14148" transform="translate(-345.476 -262.519)"/>
                        </g>
                        <path id="prefix__Path_14149" d="M357.8 223.45l-11.492-10.717s-8.839 18.563-1.546 29.5c6.233 9.349 9.961-8.451 9.961-8.451l1.457-5.693z" class="prefix__cls-16" data-name="Path 14149" transform="translate(-341.883 -172.946)"/>
                    </g>
                    <path id="prefix__Path_14150" fill="#263238" d="M356.368 190.987a3.941 3.941 0 0 0-.873-2.743 1.545 1.545 0 0 0-2.222.135l.321-.87q-4.557 8.416-9.113 16.835c-.658 1.216-1.323 2.7-.665 3.916.408.755-.1 2.562.5 3.168 1.82 1.814-4.268 5.811-2.956 22.056 9.91-14.958 15.563-30.784 15.008-42.497z" data-name="Path 14150" opacity="0.5" transform="translate(-341.178 -177.661)"/>
                    <g id="prefix__Group_13137" data-name="Group 13137" transform="translate(8.048)">
                        <path id="prefix__Path_14151" d="M365.9 179.727c-3.88.608-7.31 2.847-10.338 5.348a13.378 13.378 0 0 0-3.3 3.59 15.182 15.182 0 0 0-1.45 6.145c-.339 3.691-2.809 13.088-3.147 16.781a53.066 53.066 0 0 0 17.758 6.69 3.134 3.134 0 0 0 2.31-.192c1.2-.806 6.142-17.206 8.014-20.933 3.994-7.946.543-19.056-9.847-17.429z" data-name="Path 14151" transform="translate(-347.669 -179.567)"/>
                        <path id="prefix__Path_14152" d="M365.9 179.727c-3.88.608-7.31 2.847-10.338 5.348a13.378 13.378 0 0 0-3.3 3.59 15.182 15.182 0 0 0-1.45 6.145c-.339 3.691-2.809 13.088-3.147 16.781a53.066 53.066 0 0 0 17.758 6.69 3.134 3.134 0 0 0 2.31-.192c1.2-.806 6.142-17.206 8.014-20.933 3.994-7.946.543-19.056-9.847-17.429z" class="prefix__cls-23" data-name="Path 14152" transform="translate(-347.669 -179.567)"/>
                    </g>
                </g>
            </g>
        </g>
    </g>
</svg>
