<svg xmlns="http://www.w3.org/2000/svg" xmlns:xlink="http://www.w3.org/1999/xlink" width="436.357" height="533.793" viewBox="0 0 436.357 533.793">
    <defs>
        <linearGradient id="prefix__linear-gradient" x1="-.085" x2="1.51" y1=".851" y2="-.262" gradientUnits="objectBoundingBox">
            <stop offset="0" stop-color="#00139e" stop-opacity="0"/>
            <stop offset=".003" stop-color="#9e0000" stop-opacity="0"/>
            <stop offset=".113" stop-color="#b10000" stop-opacity=".204"/>
            <stop offset=".241" stop-color="#c50000" stop-opacity=".412"/>
            <stop offset=".371" stop-color="#d70000" stop-opacity=".592"/>
            <stop offset=".501" stop-color="#e50000" stop-opacity=".737"/>
            <stop offset=".629" stop-color="#f00000" stop-opacity=".855"/>
            <stop offset=".755" stop-color="#f80000" stop-opacity=".933"/>
            <stop offset=".88" stop-color="#fd0000" stop-opacity=".984"/>
            <stop offset="1" stop-color="red"/>
        </linearGradient>
        <linearGradient id="prefix__linear-gradient-5" x1="-1.072" x2="1.702" y1="1.768" y2="-.579" xlink:href="#prefix__linear-gradient"/>
        <style>
            .prefix__cls-1{fill:#4b0400}.prefix__cls-2{fill:url(#prefix__linear-gradient)}.prefix__cls-3{fill:#ffae00}.prefix__cls-4{fill:#ffd600}.prefix__cls-5{fill:#ffe300}.prefix__cls-11,.prefix__cls-6{fill:#ff7c00}.prefix__cls-7{fill:#ff5b00}.prefix__cls-8{fill:#ffd900}.prefix__cls-9{fill:#fe0}.prefix__cls-11{opacity:.43;mix-blend-mode:multiply;isolation:isolate}.prefix__cls-14{fill:#00081e}.prefix__cls-15{fill:#da2419}.prefix__cls-16{fill:#ff5f56}.prefix__cls-17{fill:#eaf5ff}.prefix__cls-21{fill:#ffb000}.prefix__cls-32{fill:#5e5e5e}.prefix__cls-34{fill:#e8ac81}.prefix__cls-35{fill:#e2f4ff}
        </style>
    </defs>
    <g id="prefix__Membership_Icon_Coin" data-name="Membership Icon Coin" transform="translate(408.726 -36.293)">
        <g id="prefix__Group_12116" data-name="Group 12116" transform="translate(-408.726 102.065)">
            <g id="prefix__Group_12020" data-name="Group 12020" transform="translate(82.289 360.886)">
                <path id="prefix__Path_8954" d="M-332.549 375.839c-16.737 9.9-16.107 25.7 1.4 35.3s45.276 9.359 62.012-.539 16.107-25.7-1.4-35.3-45.275-9.359-62.012.539z" class="prefix__cls-1" data-name="Path 8954" transform="translate(344.701 -368.255)"/>
            </g>
            <g id="prefix__Group_12021" data-name="Group 12021" transform="translate(311.314 374.663)">
                <path id="prefix__Path_8955" d="M-154.355 386.559c-16.735 9.9-16.107 25.7 1.4 35.3s45.277 9.358 62.012-.539 16.108-25.7-1.4-35.3-45.275-9.359-62.012.539z" class="prefix__cls-1" data-name="Path 8955" transform="translate(166.507 -378.975)"/>
            </g>
            <path id="prefix__Path_8956" d="M-143.455 369.185q1.781 1.479 3.595 2.912l58.9-130.825 5.209 5.561-1.054-17.893-12.945 2.946 5.437 5.805z" class="prefix__cls-2" data-name="Path 8956" transform="translate(484.397 -47.111)"/>
            <g id="prefix__Group_12033" data-name="Group 12033" transform="translate(176.936 263.948)">
                <g id="prefix__Group_12022" data-name="Group 12022" transform="translate(0 23.502)">
                    <path id="prefix__Path_8957" d="M-247.669 325.716c-32.215 19.05-31 49.471 2.7 67.948s87.149 18.014 119.363-1.036 31-49.471-2.7-67.949-87.148-18.013-119.363 1.037zm27.616 15.139c17.639-10.431 46.9-10.686 65.354-.569s19.119 26.775 1.481 37.2-46.9 10.684-65.354.567-19.119-26.77-1.481-37.198z" class="prefix__cls-1" data-name="Path 8957" transform="translate(271.06 -311.119)"/>
                </g>
                <g id="prefix__Group_12032" data-name="Group 12032">
                    <g id="prefix__Group_12031" data-name="Group 12031">
                        <g id="prefix__Group_12023" data-name="Group 12023" transform="translate(.395 7.298)">
                            <path id="prefix__Path_8958" d="M-127.618 312.071c-33.707-18.477-87.148-18.013-119.364 1.037-10.363 6.128-17.247 13.435-20.722 21.141l.544 6.583-3.591 2.738c-.039 1.212.958 15.41 1.078 16.622l.008.211.008-.021c1.244 11.67 9.908 23.145 25.924 31.925 33.708 18.477 87.149 18.013 119.364-1.037 15.464-9.145 23.2-20.91 23.366-32.716l.015-.013-.014-.506c0-.515-.015-1.031-.048-1.547l-.877-17.942-1.613-2.077c-3.493-8.987-11.53-17.521-24.078-24.398zm-26.393 15.607c18.456 10.117 19.118 26.773 1.481 37.2s-46.9 10.684-65.354.567-19.119-26.773-1.481-37.2 46.898-10.684 65.354-.568z" class="prefix__cls-3" data-name="Path 8958" transform="translate(270.753 -298.511)"/>
                        </g>
                        <g id="prefix__Group_12024" data-name="Group 12024" transform="translate(13.232 27.741)">
                            <path id="prefix__Path_8959" d="M-173.311 387.55l.467-41.339a23.275 23.275 0 0 0 2.317-2.894l17.972 9.852-.29 25.7a96.554 96.554 0 0 1-20.466 8.681z" class="prefix__cls-4" data-name="Path 8959" transform="translate(285.712 -306.173)"/>
                            <path id="prefix__Path_8960" d="M-258.254 314.417l28.265 15.494c-8.1 9.006-6.377 20.116 4.953 28.29l-.429 38.06a101.918 101.918 0 0 1-21.119-8.492 66.8 66.8 0 0 1-14.182-10.192l.7-61.615c.58-.521 1.189-1.035 1.812-1.545z" class="prefix__cls-4" data-name="Path 8960" transform="translate(260.765 -314.417)"/>
                            <path id="prefix__Path_8961" d="M-226.853 351.922a66.523 66.523 0 0 0 19.437 5.162l.868.476-.37 32.742a140.147 140.147 0 0 1-20.335-2.807z" class="prefix__cls-4" data-name="Path 8961" transform="translate(270.324 -303.718)"/>
                            <path id="prefix__Path_8962" d="M-207.341 365.826l5.052 2.77-.339 18.057q-2.553 0-5.1-.085z" class="prefix__cls-4" data-name="Path 8962" transform="translate(275.893 -299.752)"/>
                            <path id="prefix__Path_8963" d="M-181.886 359.27l5.052 2.768-.429 22.737c-1.689.406-3.4.767-5.126 1.108z" class="prefix__cls-4" data-name="Path 8963" transform="translate(283.122 -301.622)"/>
                        </g>
                        <g id="prefix__Group_12025" data-name="Group 12025" transform="translate(.531 .223)">
                            <path id="prefix__Path_8964" d="M-127.892 306.635c-33.609-18.657-87.149-18.013-119.364 1.037s-31 49.471 2.7 67.948 87.023 17.8 119.364-1.036c32.011-18.64 30.913-49.284-2.7-67.949zm-26.393 15.607c18.455 10.116 19.118 26.773 1.479 37.2s-46.9 10.684-65.353.567-19.12-26.773-1.482-37.2 46.9-10.684 65.356-.567z" class="prefix__cls-5" data-name="Path 8964" transform="translate(270.647 -293.006)"/>
                        </g>
                        <g id="prefix__Group_12026" data-name="Group 12026">
                            <path id="prefix__Path_8965" d="M-247.669 307.43c-32.215 19.05-31 49.471 2.7 67.949s87.149 18.013 119.363-1.037 31-49.471-2.7-67.948-87.148-18.014-119.363 1.036zm27.616 15.139c17.639-10.431 46.9-10.686 65.354-.569s19.119 26.775 1.481 37.2-46.9 10.684-65.354.567-19.119-26.767-1.481-37.198z" class="prefix__cls-6" data-name="Path 8965" transform="translate(271.06 -292.833)"/>
                        </g>
                        <g id="prefix__Group_12027" data-name="Group 12027" transform="translate(11.358 6.454)">
                            <path id="prefix__Path_8966" d="M-241.831 310.579c-28.084 16.607-27.029 43.127 2.356 59.234s75.973 15.7 104.056-.9 27.029-43.126-2.357-59.234-75.972-15.707-104.055.9z" class="prefix__cls-7" data-name="Path 8966" transform="translate(262.223 -297.855)"/>
                        </g>
                        <g id="prefix__Group_12028" data-name="Group 12028" transform="translate(16.686 9.486)">
                            <path id="prefix__Path_8967" d="M-239.163 312.018c-26.051 15.4-25.072 40 2.186 54.946s70.473 14.566 96.524-.838 25.072-40-2.186-54.947-70.473-14.566-96.524.839z" class="prefix__cls-3" data-name="Path 8967" transform="translate(258.078 -300.214)"/>
                        </g>
                        <path id="prefix__Path_8968" d="M-140.885 311.877l-116.007 33.858c2.563 7.692 9.191 15.036 19.878 20.894a77.48 77.48 0 0 0 10.818 4.852l104.516-30.5c.914-10.432-5.52-21.037-19.205-29.104zm-117.059 23.838l103.252-30.135a100.53 100.53 0 0 0-16.794-4.193c-29.695 8.286-61.039 17.211-82.521 23.8a25.256 25.256 0 0 0-3.937 10.528z" class="prefix__cls-8" data-name="Path 8968" transform="translate(274.802 -290.393)"/>
                        <g id="prefix__Group_12029" data-name="Group 12029" transform="translate(44.11 22.75)">
                            <path id="prefix__Path_8969" d="M-164.291 327.649q7.058 3.91 6.87 8.631t-5.149 8.836l5.79 3.209q1.718.95 2.526 1.506a4.71 4.71 0 0 1 1.348 1.445 1.419 1.419 0 0 1-.238 1.8 10.233 10.233 0 0 1-2.855 2.01 16.2 16.2 0 0 1-3.758 1.509 7.213 7.213 0 0 1-3.311.042 14.252 14.252 0 0 1-2.585-.788q-.96-.424-2.767-1.427l-5.61-3.109a50.03 50.03 0 0 1-10.019 2.384 48.654 48.654 0 0 1-7.888.56l-2.821-.168q-4.515-.251-5.875-1-2.259-1.253-1.891-4.7a4.02 4.02 0 0 1 2.329-3.106q2.367-1.261 8.989-1.344l.946-.013q6.5.28 10.348-1.771 7.3-3.887 1.784-6.947-1.988-1.1-5.839-.234a88.139 88.139 0 0 0-8.657 2.495q-4.806 1.625-10.2 2.924a37.439 37.439 0 0 1-11.689.815 28.628 28.628 0 0 1-11.812-3.542q-5.338-2.959-5.931-7.362t4.755-8.625l-5.068-2.808q-1.81-1-2.571-1.531a5.294 5.294 0 0 1-1.353-1.395 1.345 1.345 0 0 1 .239-1.8 10.768 10.768 0 0 1 2.9-2.036 12.256 12.256 0 0 1 5.038-1.551 9.047 9.047 0 0 1 3.747.414 33.873 33.873 0 0 1 3.636 1.8l5.068 2.808a48.33 48.33 0 0 1 6.572-1.828 46.484 46.484 0 0 1 4.786-.779l1.613-.072.666-.059q4.55-.158 5.816.542a5.287 5.287 0 0 1 2.188 3.357q.956 3.424-1.808 4.894a15.929 15.929 0 0 1-5.5 1.352c-.252 0-.792.028-1.612.072s-1.551.105-2.189.181a15.046 15.046 0 0 0-2.553.622 20.322 20.322 0 0 0-3.378 1.454 4.762 4.762 0 0 0-2.421 2.518q-.549 1.521 1.262 2.523a8.763 8.763 0 0 0 5.416.8 26.484 26.484 0 0 0 6.614-1.751q3.368-1.349 7.872-2.716t8.731-2.239a28.242 28.242 0 0 1 9.463-.171 28.351 28.351 0 0 1 10.036 3.369z" class="prefix__cls-9" data-name="Path 8969" transform="translate(236.741 -310.534)"/>
                        </g>
                        <g id="prefix__Group_12030" data-name="Group 12030" transform="translate(43.172 22.185)">
                            <path id="prefix__Path_8970" d="M-165.02 327.208q7.056 3.912 6.868 8.632t-5.149 8.835l5.791 3.209q1.718.952 2.526 1.506a4.724 4.724 0 0 1 1.348 1.445 1.418 1.418 0 0 1-.239 1.8 10.246 10.246 0 0 1-2.853 2.011 16.327 16.327 0 0 1-3.759 1.509 7.23 7.23 0 0 1-3.311.041 14.144 14.144 0 0 1-2.583-.787q-.96-.424-2.767-1.427l-5.61-3.109a50.052 50.052 0 0 1-10.019 2.383 48.856 48.856 0 0 1-7.889.562l-2.821-.17q-4.515-.251-5.874-1-2.261-1.253-1.891-4.694a4.023 4.023 0 0 1 2.328-3.108q2.369-1.259 8.99-1.344l.946-.012q6.5.278 10.348-1.772 7.3-3.887 1.784-6.947-1.988-1.1-5.839-.233a88.13 88.13 0 0 0-8.659 2.493q-4.8 1.627-10.2 2.925a37.437 37.437 0 0 1-11.689.814 28.6 28.6 0 0 1-11.81-3.542q-5.338-2.957-5.931-7.362t4.754-8.624l-5.068-2.808q-1.808-1-2.571-1.532a5.3 5.3 0 0 1-1.352-1.393 1.345 1.345 0 0 1 .238-1.8 10.787 10.787 0 0 1 2.9-2.037 12.28 12.28 0 0 1 5.04-1.551 9.035 9.035 0 0 1 3.745.415 33.562 33.562 0 0 1 3.637 1.8l5.066 2.808a48.279 48.279 0 0 1 6.573-1.826 46.172 46.172 0 0 1 4.786-.78l1.612-.071.667-.06q4.548-.158 5.815.542a5.288 5.288 0 0 1 2.189 3.357q.954 3.424-1.81 4.9a15.954 15.954 0 0 1-5.494 1.351c-.253.005-.792.028-1.612.072s-1.551.105-2.189.181a14.96 14.96 0 0 0-2.554.623 20.347 20.347 0 0 0-3.376 1.452 4.772 4.772 0 0 0-2.423 2.519q-.548 1.521 1.263 2.522a8.764 8.764 0 0 0 5.416.8 26.476 26.476 0 0 0 6.613-1.751q3.368-1.349 7.872-2.716t8.732-2.238a28.268 28.268 0 0 1 9.462-.172 28.374 28.374 0 0 1 10.033 3.359z" class="prefix__cls-6" data-name="Path 8970" transform="translate(237.47 -310.094)"/>
                        </g>
                        <path id="prefix__Path_8971" d="M-145.972 363.234c25.9-15.315 25.07-39.717-1.729-54.683.158.085.323.164.479.251 27.258 14.941 28.236 39.541 2.186 54.946s-69.265 15.779-96.524.838c-.157-.086-.3-.176-.456-.263 27.283 14.677 70.145 14.227 96.044-1.089z" class="prefix__cls-8" data-name="Path 8971" transform="translate(279.346 -288.349)"/>
                    </g>
                </g>
            </g>
            <path id="prefix__Path_8972" d="M-274.217 205.194l12.254-26.6 6.972 7.445-1.411-23.953-17.328 3.944 7.277 7.771-15.038 32.9 13.393 14.523-14.817 31.807 8.962 9.718-27.127 58.979 8.9-4.75 25.442-55.238-8.962-9.718 14.877-32.3z" class="prefix__cls-2" data-name="Path 8972" transform="translate(439.433 -66.183)"/>
            <path id="prefix__Path_8973" d="M-120.474 213.979l12.254-26.6 6.972 7.445-1.411-23.953-17.328 3.944 7.277 7.771-15.038 32.9L-114.355 230l-14.817 31.807 8.962 9.718-27.127 58.98 8.9-4.75L-113 270.519l-8.962-9.718 14.877-32.3z" class="prefix__cls-2" data-name="Path 8973" transform="translate(483.289 -63.677)"/>
            <path id="prefix__Path_8974" d="M-408.726 454.113q2.385 1.976 4.812 3.9l78.838-175.121 6.973 7.445-1.411-23.953-17.328 3.943 7.277 7.771z" class="prefix__cls-2" data-name="Path 8974" transform="translate(408.726 -36.43)"/>
            <path id="prefix__Path_8975" fill="url(#prefix__linear-gradient-5)" d="M-148.575 278.612l-24.138 51.818q10.411.709 20.811 1.6l26.837-58.266-43.29-46.944 39.609-85.994 22.536 24.064-4.56-77.425-56.009 12.748 23.523 25.118-48.608 106.335z" data-name="Path 8975" transform="translate(470.587 -87.467)"/>
            <g id="prefix__Group_12045" data-name="Group 12045" transform="translate(176.936 237.267)">
                <g id="prefix__Group_12034" data-name="Group 12034" transform="translate(0 23.502)">
                    <path id="prefix__Path_8976" d="M-247.669 304.957c-32.215 19.05-31 49.471 2.7 67.948s87.149 18.014 119.363-1.036 31-49.472-2.7-67.949-87.148-18.013-119.363 1.037zm27.616 15.138c17.639-10.43 46.9-10.684 65.354-.568s19.119 26.773 1.481 37.2-46.9 10.684-65.354.568-19.119-26.771-1.481-37.201z" class="prefix__cls-11" data-name="Path 8976" transform="translate(271.06 -290.36)"/>
                </g>
                <g id="prefix__Group_12044" data-name="Group 12044">
                    <g id="prefix__Group_12043" data-name="Group 12043">
                        <g id="prefix__Group_12035" data-name="Group 12035" transform="translate(.395 7.298)">
                            <path id="prefix__Path_8977" d="M-127.618 291.312c-33.707-18.477-87.148-18.013-119.364 1.037-10.363 6.128-17.247 13.435-20.722 21.14l.544 6.584-3.591 2.736c-.039 1.213.958 15.411 1.078 16.624l.008.211.008-.021c1.244 11.669 9.908 23.145 25.924 31.923 33.708 18.478 87.149 18.013 119.364-1.036 15.464-9.145 23.2-20.91 23.366-32.716l.015-.013-.014-.506c0-.517-.015-1.032-.048-1.547l-.877-17.942-1.613-2.077c-3.493-8.986-11.53-17.52-24.078-24.397zm-26.393 15.607c18.456 10.118 19.118 26.773 1.481 37.2s-46.9 10.684-65.354.568-19.119-26.773-1.481-37.2 46.898-10.687 65.354-.569z" class="prefix__cls-3" data-name="Path 8977" transform="translate(270.753 -277.752)"/>
                        </g>
                        <g id="prefix__Group_12036" data-name="Group 12036" transform="translate(13.232 27.741)">
                            <path id="prefix__Path_8978" d="M-173.311 366.791l.467-41.339a23.275 23.275 0 0 0 2.317-2.894l17.972 9.851-.29 25.7a96.489 96.489 0 0 1-20.466 8.682z" class="prefix__cls-4" data-name="Path 8978" transform="translate(285.712 -285.414)"/>
                            <path id="prefix__Path_8979" d="M-258.254 293.658l28.265 15.494c-8.1 9-6.377 20.116 4.953 28.29l-.429 38.059a101.776 101.776 0 0 1-21.119-8.492 66.713 66.713 0 0 1-14.182-10.192l.7-61.614c.58-.521 1.189-1.035 1.812-1.545z" class="prefix__cls-4" data-name="Path 8979" transform="translate(260.765 -293.658)"/>
                            <path id="prefix__Path_8980" d="M-226.853 331.163a66.524 66.524 0 0 0 19.437 5.162l.868.476-.37 32.742a140.316 140.316 0 0 1-20.335-2.807z" class="prefix__cls-4" data-name="Path 8980" transform="translate(270.324 -282.959)"/>
                            <path id="prefix__Path_8981" d="M-207.341 345.067l5.052 2.77-.339 18.057q-2.553 0-5.1-.085z" class="prefix__cls-4" data-name="Path 8981" transform="translate(275.893 -278.993)"/>
                            <path id="prefix__Path_8982" d="M-181.886 338.511l5.052 2.768-.429 22.737c-1.689.4-3.4.767-5.126 1.108z" class="prefix__cls-4" data-name="Path 8982" transform="translate(283.122 -280.863)"/>
                        </g>
                        <g id="prefix__Group_12037" data-name="Group 12037" transform="translate(.531 .222)">
                            <path id="prefix__Path_8983" d="M-127.892 285.876c-33.609-18.658-87.149-18.013-119.364 1.037s-31 49.471 2.7 67.948 87.023 17.8 119.364-1.036c32.011-18.64 30.913-49.288-2.7-67.949zm-26.393 15.607c18.455 10.116 19.118 26.773 1.479 37.2s-46.9 10.684-65.353.568-19.12-26.773-1.482-37.2 46.9-10.686 65.356-.568z" class="prefix__cls-5" data-name="Path 8983" transform="translate(270.647 -272.247)"/>
                        </g>
                        <g id="prefix__Group_12038" data-name="Group 12038">
                            <path id="prefix__Path_8984" d="M-247.669 286.671c-32.215 19.05-31 49.471 2.7 67.948s87.149 18.014 119.363-1.036 31-49.471-2.7-67.949-87.148-18.013-119.363 1.037zm27.616 15.138c17.639-10.43 46.9-10.684 65.354-.568s19.119 26.773 1.481 37.2-46.9 10.683-65.354.567-19.119-26.77-1.481-37.199z" class="prefix__cls-6" data-name="Path 8984" transform="translate(271.06 -272.074)"/>
                        </g>
                        <g id="prefix__Group_12039" data-name="Group 12039" transform="translate(11.358 6.454)">
                            <path id="prefix__Path_8985" d="M-241.831 289.82c-28.084 16.607-27.029 43.127 2.356 59.234s75.973 15.7 104.056-.9 27.029-43.127-2.357-59.234-75.972-15.707-104.055.9z" class="prefix__cls-7" data-name="Path 8985" transform="translate(262.223 -277.095)"/>
                        </g>
                        <g id="prefix__Group_12040" data-name="Group 12040" transform="translate(16.686 9.486)">
                            <path id="prefix__Path_8986" d="M-239.163 291.259c-26.051 15.4-25.072 40 2.186 54.946s70.473 14.566 96.524-.838 25.072-40-2.186-54.947-70.473-14.566-96.524.839z" class="prefix__cls-3" data-name="Path 8986" transform="translate(258.078 -279.455)"/>
                        </g>
                        <path id="prefix__Path_8987" d="M-140.885 291.118l-116.007 33.858c2.563 7.691 9.191 15.036 19.878 20.894a77.487 77.487 0 0 0 10.818 4.852l104.516-30.5c.914-10.433-5.52-21.037-19.205-29.104zm-117.059 23.836l103.252-30.135a100.657 100.657 0 0 0-16.794-4.191c-29.695 8.286-61.039 17.211-82.521 23.8a25.251 25.251 0 0 0-3.937 10.527z" class="prefix__cls-8" data-name="Path 8987" transform="translate(274.802 -269.634)"/>
                        <g id="prefix__Group_12041" data-name="Group 12041" transform="translate(44.11 22.75)">
                            <path id="prefix__Path_8988" d="M-164.291 306.89q7.058 3.91 6.87 8.63t-5.149 8.836l5.79 3.208q1.718.952 2.526 1.506a4.729 4.729 0 0 1 1.348 1.446 1.419 1.419 0 0 1-.238 1.8 10.232 10.232 0 0 1-2.855 2.01 16.263 16.263 0 0 1-3.758 1.509 7.213 7.213 0 0 1-3.311.042 14.252 14.252 0 0 1-2.585-.788q-.96-.424-2.767-1.427l-5.61-3.109a49.944 49.944 0 0 1-10.019 2.383 48.538 48.538 0 0 1-7.888.562l-2.821-.168q-4.515-.251-5.875-1-2.259-1.251-1.891-4.694a4.02 4.02 0 0 1 2.329-3.106q2.367-1.261 8.989-1.346l.946-.012q6.5.278 10.348-1.771 7.3-3.889 1.784-6.947-1.988-1.1-5.839-.234a87.8 87.8 0 0 0-8.657 2.495q-4.806 1.625-10.2 2.924a37.439 37.439 0 0 1-11.689.815 28.61 28.61 0 0 1-11.812-3.543q-5.338-2.957-5.931-7.361t4.755-8.625l-5.068-2.808q-1.81-1-2.571-1.531a5.314 5.314 0 0 1-1.353-1.395 1.345 1.345 0 0 1 .239-1.8 10.767 10.767 0 0 1 2.9-2.036 12.256 12.256 0 0 1 5.038-1.551 9.047 9.047 0 0 1 3.747.414 33.867 33.867 0 0 1 3.636 1.8l5.068 2.807a48.322 48.322 0 0 1 6.573-1.825 46.126 46.126 0 0 1 4.786-.779l1.613-.072.666-.059q4.55-.158 5.816.542a5.287 5.287 0 0 1 2.188 3.356q.956 3.426-1.808 4.9a15.93 15.93 0 0 1-5.5 1.352c-.252 0-.792.027-1.612.072s-1.551.105-2.189.181a15.049 15.049 0 0 0-2.553.622 20.32 20.32 0 0 0-3.378 1.454 4.758 4.758 0 0 0-2.421 2.518q-.549 1.521 1.262 2.522a8.773 8.773 0 0 0 5.416.8 26.485 26.485 0 0 0 6.614-1.75q3.368-1.351 7.872-2.716t8.731-2.239a28.242 28.242 0 0 1 9.463-.171 28.325 28.325 0 0 1 10.035 3.357z" class="prefix__cls-9" data-name="Path 8988" transform="translate(236.741 -289.775)"/>
                        </g>
                        <g id="prefix__Group_12042" data-name="Group 12042" transform="translate(43.172 22.185)">
                            <path id="prefix__Path_8989" d="M-165.02 306.45q7.056 3.912 6.868 8.63t-5.149 8.836l5.791 3.209q1.718.95 2.526 1.506a4.724 4.724 0 0 1 1.348 1.445 1.418 1.418 0 0 1-.239 1.8 10.224 10.224 0 0 1-2.853 2.01 16.278 16.278 0 0 1-3.759 1.51 7.23 7.23 0 0 1-3.311.041 14.229 14.229 0 0 1-2.583-.788q-.96-.424-2.767-1.427l-5.61-3.108a50.041 50.041 0 0 1-10.019 2.383 48.858 48.858 0 0 1-7.889.562l-2.821-.17q-4.515-.251-5.874-1-2.261-1.253-1.891-4.7a4.021 4.021 0 0 1 2.328-3.106q2.369-1.259 8.99-1.344l.946-.013q6.5.28 10.348-1.771 7.3-3.887 1.784-6.947-1.988-1.1-5.839-.233a88.139 88.139 0 0 0-8.659 2.493q-4.8 1.627-10.2 2.924a37.4 37.4 0 0 1-11.689.815 28.616 28.616 0 0 1-11.81-3.542q-5.338-2.959-5.931-7.362t4.754-8.625l-5.068-2.808q-1.808-1-2.571-1.531a5.3 5.3 0 0 1-1.352-1.393 1.346 1.346 0 0 1 .238-1.8 10.788 10.788 0 0 1 2.9-2.036 12.262 12.262 0 0 1 5.04-1.551 9.037 9.037 0 0 1 3.745.414 33.874 33.874 0 0 1 3.637 1.8l5.066 2.808a48.287 48.287 0 0 1 6.573-1.828 46.423 46.423 0 0 1 4.786-.779l1.612-.071.667-.06q4.548-.158 5.815.542a5.288 5.288 0 0 1 2.189 3.357q.954 3.424-1.81 4.9a15.957 15.957 0 0 1-5.494 1.351c-.253 0-.792.028-1.612.072s-1.551.105-2.189.181a15.063 15.063 0 0 0-2.554.622 20.362 20.362 0 0 0-3.376 1.454 4.77 4.77 0 0 0-2.423 2.518q-.548 1.521 1.263 2.523a8.763 8.763 0 0 0 5.416.8 26.475 26.475 0 0 0 6.613-1.75q3.368-1.349 7.872-2.716t8.732-2.239a28.236 28.236 0 0 1 9.462-.171 28.348 28.348 0 0 1 10.033 3.363z" class="prefix__cls-6" data-name="Path 8989" transform="translate(237.47 -289.335)"/>
                        </g>
                        <path id="prefix__Path_8990" d="M-145.972 342.475c25.9-15.315 25.07-39.717-1.729-54.683.158.085.323.163.479.249 27.258 14.942 28.236 39.542 2.186 54.947s-69.265 15.779-96.524.838c-.157-.086-.3-.176-.456-.263 27.283 14.68 70.145 14.228 96.044-1.088z" class="prefix__cls-8" data-name="Path 8990" transform="translate(279.346 -267.59)"/>
                    </g>
                </g>
            </g>
            <g id="prefix__Group_12057" data-name="Group 12057" transform="translate(176.936 207.727)">
                <g id="prefix__Group_12046" data-name="Group 12046" transform="translate(0 23.502)">
                    <path id="prefix__Path_8991" d="M-247.669 281.973c-32.215 19.05-31 49.471 2.7 67.948s87.149 18.014 119.363-1.036 31-49.472-2.7-67.949-87.148-18.013-119.363 1.037zm27.616 15.138c17.639-10.43 46.9-10.684 65.354-.568s19.119 26.773 1.481 37.2-46.9 10.684-65.354.568-19.119-26.771-1.481-37.201z" class="prefix__cls-11" data-name="Path 8991" transform="translate(271.06 -267.376)"/>
                </g>
                <g id="prefix__Group_12056" data-name="Group 12056">
                    <g id="prefix__Group_12055" data-name="Group 12055">
                        <g id="prefix__Group_12047" data-name="Group 12047" transform="translate(.395 7.298)">
                            <path id="prefix__Path_8992" d="M-127.618 268.328c-33.707-18.477-87.148-18.013-119.364 1.036-10.363 6.129-17.247 13.436-20.722 21.141l.544 6.583-3.591 2.738c-.039 1.213.958 15.412 1.078 16.622l.008.212.008-.021c1.244 11.669 9.908 23.145 25.924 31.923 33.708 18.478 87.149 18.013 119.364-1.036 15.464-9.145 23.2-20.91 23.366-32.716l.015-.013-.014-.506c0-.517-.015-1.032-.048-1.547l-.877-17.942-1.613-2.077c-3.493-8.986-11.53-17.525-24.078-24.397zm-26.393 15.607c18.456 10.116 19.118 26.773 1.481 37.2s-46.9 10.684-65.354.568-19.119-26.773-1.481-37.2 46.898-10.685 65.354-.569z" class="prefix__cls-3" data-name="Path 8992" transform="translate(270.753 -254.768)"/>
                        </g>
                        <g id="prefix__Group_12048" data-name="Group 12048" transform="translate(13.232 27.741)">
                            <path id="prefix__Path_8993" d="M-173.311 343.807l.467-41.34a23.265 23.265 0 0 0 2.317-2.893l17.972 9.852-.29 25.7a96.487 96.487 0 0 1-20.466 8.681z" class="prefix__cls-4" data-name="Path 8993" transform="translate(285.712 -262.43)"/>
                            <path id="prefix__Path_8994" d="M-258.254 270.674l28.265 15.494c-8.1 9-6.377 20.116 4.953 28.29l-.429 38.059a101.778 101.778 0 0 1-21.119-8.492 66.757 66.757 0 0 1-14.182-10.192l.7-61.614c.58-.519 1.189-1.036 1.812-1.545z" class="prefix__cls-4" data-name="Path 8994" transform="translate(260.765 -270.674)"/>
                            <path id="prefix__Path_8995" d="M-226.853 308.179a66.524 66.524 0 0 0 19.437 5.162l.868.476-.37 32.742a140.333 140.333 0 0 1-20.335-2.807z" class="prefix__cls-4" data-name="Path 8995" transform="translate(270.324 -259.975)"/>
                            <path id="prefix__Path_8996" d="M-207.341 322.083l5.052 2.77-.339 18.057q-2.553 0-5.1-.085z" class="prefix__cls-4" data-name="Path 8996" transform="translate(275.893 -256.009)"/>
                            <path id="prefix__Path_8997" d="M-181.886 315.526l5.052 2.77-.429 22.738c-1.689.4-3.4.767-5.126 1.108z" class="prefix__cls-4" data-name="Path 8997" transform="translate(283.122 -257.88)"/>
                        </g>
                        <g id="prefix__Group_12049" data-name="Group 12049" transform="translate(.531 .222)">
                            <path id="prefix__Path_8998" d="M-127.892 262.892c-33.609-18.658-87.149-18.013-119.364 1.036s-31 49.472 2.7 67.949 87.023 17.8 119.364-1.036c32.011-18.641 30.913-49.288-2.7-67.949zm-26.393 15.608c18.455 10.116 19.118 26.773 1.479 37.2s-46.9 10.684-65.353.568-19.12-26.773-1.482-37.2 46.9-10.687 65.356-.568z" class="prefix__cls-5" data-name="Path 8998" transform="translate(270.647 -249.263)"/>
                        </g>
                        <g id="prefix__Group_12050" data-name="Group 12050">
                            <path id="prefix__Path_8999" d="M-247.669 263.687c-32.215 19.05-31 49.471 2.7 67.948s87.149 18.014 119.363-1.036 31-49.472-2.7-67.949-87.148-18.013-119.363 1.037zm27.616 15.138c17.639-10.43 46.9-10.684 65.354-.568s19.119 26.773 1.481 37.2-46.9 10.684-65.354.568-19.119-26.771-1.481-37.201z" class="prefix__cls-6" data-name="Path 8999" transform="translate(271.06 -249.09)"/>
                        </g>
                        <g id="prefix__Group_12051" data-name="Group 12051" transform="translate(11.358 6.454)">
                            <path id="prefix__Path_9000" d="M-241.831 266.836c-28.084 16.607-27.029 43.127 2.356 59.234s75.973 15.7 104.056-.9 27.029-43.127-2.357-59.234-75.972-15.707-104.055.9z" class="prefix__cls-7" data-name="Path 9000" transform="translate(262.223 -254.111)"/>
                        </g>
                        <g id="prefix__Group_12052" data-name="Group 12052" transform="translate(16.686 9.486)">
                            <path id="prefix__Path_9001" d="M-239.163 268.274c-26.051 15.405-25.072 40.006 2.186 54.947s70.473 14.566 96.524-.838 25.072-40.006-2.186-54.947-70.473-14.566-96.524.838z" class="prefix__cls-3" data-name="Path 9001" transform="translate(258.078 -256.471)"/>
                        </g>
                        <path id="prefix__Path_9002" d="M-140.885 268.135l-116.007 33.857c2.563 7.691 9.191 15.036 19.878 20.894a77.626 77.626 0 0 0 10.818 4.852l104.516-30.5c.914-10.433-5.52-21.038-19.205-29.103zm-117.059 23.836l103.252-30.135a100.781 100.781 0 0 0-16.794-4.193c-29.695 8.287-61.039 17.211-82.521 23.8a25.244 25.244 0 0 0-3.937 10.528z" class="prefix__cls-8" data-name="Path 9002" transform="translate(274.802 -246.65)"/>
                        <g id="prefix__Group_12053" data-name="Group 12053" transform="translate(44.11 22.75)">
                            <path id="prefix__Path_9003" d="M-164.291 283.906q7.058 3.91 6.87 8.63t-5.149 8.836l5.79 3.208q1.718.952 2.526 1.506a4.73 4.73 0 0 1 1.348 1.446 1.419 1.419 0 0 1-.238 1.8 10.259 10.259 0 0 1-2.855 2.01 16.32 16.32 0 0 1-3.758 1.509 7.212 7.212 0 0 1-3.311.042 14.248 14.248 0 0 1-2.585-.788q-.96-.424-2.767-1.427l-5.61-3.109a49.94 49.94 0 0 1-10.019 2.383 48.534 48.534 0 0 1-7.888.562l-2.821-.168q-4.515-.251-5.875-1-2.259-1.251-1.891-4.694a4.02 4.02 0 0 1 2.329-3.106q2.367-1.261 8.989-1.346l.946-.012q6.5.278 10.348-1.771 7.3-3.889 1.784-6.947-1.988-1.1-5.839-.234a87.775 87.775 0 0 0-8.657 2.495q-4.806 1.625-10.2 2.924a37.439 37.439 0 0 1-11.689.815 28.61 28.61 0 0 1-11.812-3.543q-5.338-2.957-5.931-7.361t4.755-8.625l-5.068-2.808q-1.81-1-2.571-1.532a5.307 5.307 0 0 1-1.353-1.393 1.345 1.345 0 0 1 .239-1.8 10.794 10.794 0 0 1 2.9-2.037 12.253 12.253 0 0 1 5.038-1.55 9.026 9.026 0 0 1 3.747.414 33.634 33.634 0 0 1 3.636 1.8l5.068 2.807a48.317 48.317 0 0 1 6.572-1.826 46.107 46.107 0 0 1 4.786-.779l1.613-.072.666-.059q4.55-.16 5.816.541a5.294 5.294 0 0 1 2.188 3.353q.956 3.426-1.808 4.9a15.929 15.929 0 0 1-5.5 1.352c-.252 0-.792.027-1.612.072s-1.551.105-2.189.181a15.053 15.053 0 0 0-2.553.622 20.322 20.322 0 0 0-3.378 1.454 4.758 4.758 0 0 0-2.421 2.518q-.549 1.521 1.262 2.522a8.764 8.764 0 0 0 5.416.8 26.373 26.373 0 0 0 6.614-1.751q3.368-1.349 7.872-2.714t8.731-2.239a28.242 28.242 0 0 1 9.463-.171 28.325 28.325 0 0 1 10.036 3.36z" class="prefix__cls-9" data-name="Path 9003" transform="translate(236.741 -266.791)"/>
                        </g>
                        <g id="prefix__Group_12054" data-name="Group 12054" transform="translate(43.172 22.185)">
                            <path id="prefix__Path_9004" d="M-165.02 283.466q7.056 3.91 6.868 8.63t-5.149 8.836l5.791 3.209q1.718.951 2.526 1.506a4.71 4.71 0 0 1 1.348 1.445 1.418 1.418 0 0 1-.239 1.8 10.222 10.222 0 0 1-2.853 2.01 16.271 16.271 0 0 1-3.759 1.509 7.212 7.212 0 0 1-3.311.042 14.23 14.23 0 0 1-2.583-.788q-.96-.424-2.767-1.427l-5.61-3.109a50.05 50.05 0 0 1-10.019 2.384 48.665 48.665 0 0 1-7.889.56l-2.821-.168q-4.515-.251-5.874-1-2.261-1.253-1.891-4.7a4.019 4.019 0 0 1 2.328-3.106q2.369-1.261 8.99-1.344l.946-.013q6.5.279 10.348-1.771 7.3-3.887 1.784-6.947-1.988-1.1-5.839-.234a88.142 88.142 0 0 0-8.659 2.495q-4.8 1.625-10.2 2.924a37.4 37.4 0 0 1-11.689.815 28.6 28.6 0 0 1-11.81-3.543q-5.338-2.957-5.931-7.361t4.754-8.625l-5.068-2.808q-1.808-1-2.571-1.531a5.288 5.288 0 0 1-1.352-1.394 1.345 1.345 0 0 1 .238-1.8 10.788 10.788 0 0 1 2.9-2.036 12.261 12.261 0 0 1 5.04-1.551 9.038 9.038 0 0 1 3.745.414 33.864 33.864 0 0 1 3.637 1.8l5.066 2.808a48.3 48.3 0 0 1 6.573-1.828 46.416 46.416 0 0 1 4.786-.779l1.612-.072.667-.059q4.548-.158 5.815.542a5.288 5.288 0 0 1 2.189 3.357q.954 3.424-1.81 4.894a15.92 15.92 0 0 1-5.494 1.352c-.253 0-.792.028-1.612.072s-1.551.105-2.189.181a15.054 15.054 0 0 0-2.554.622 20.362 20.362 0 0 0-3.376 1.454 4.77 4.77 0 0 0-2.423 2.518q-.548 1.521 1.263 2.523a8.764 8.764 0 0 0 5.416.8 26.479 26.479 0 0 0 6.613-1.75q3.368-1.35 7.872-2.716t8.732-2.239a28.236 28.236 0 0 1 9.462-.171 28.348 28.348 0 0 1 10.033 3.368z" class="prefix__cls-6" data-name="Path 9004" transform="translate(237.47 -266.351)"/>
                        </g>
                        <path id="prefix__Path_9005" d="M-145.972 319.491c25.9-15.315 25.07-39.717-1.729-54.683.158.085.323.163.479.249C-119.963 280-118.985 304.6-145.035 320s-69.265 15.779-96.524.838c-.157-.086-.3-.177-.456-.264 27.282 14.685 70.144 14.232 96.043-1.083z" class="prefix__cls-8" data-name="Path 9005" transform="translate(279.346 -244.606)"/>
                    </g>
                </g>
            </g>
            <g id="prefix__Group_12070" data-name="Group 12070" transform="translate(185.984 143.338)">
                <g id="prefix__Group_12058" data-name="Group 12058" transform="translate(8.861 58.433)">
                    <path id="prefix__Path_9006" d="M-231.641 249.188c-30.2 10.791-34.12 36.581-8.764 57.6s70.39 29.314 100.587 18.522 34.121-36.582 8.764-57.6-70.39-29.315-100.587-18.522z" class="prefix__cls-11" data-name="Path 9006" transform="translate(257.126 -244.456)"/>
                </g>
                <g id="prefix__Group_12069" data-name="Group 12069">
                    <g id="prefix__Group_12068" data-name="Group 12068">
                        <g id="prefix__Group_12059" data-name="Group 12059" transform="translate(0 6.945)">
                            <path id="prefix__Path_9007" d="M-113.287 254.136c-22.79-30.955-71.455-53.044-108.7-49.335-11.981 1.194-21.3 4.921-27.7 10.447l-2.279 6.2-4.41.97c-.546 1.083-5.623 14.381-6.023 15.53l-.084.2.017-.015c-3.786 11.108-.762 25.165 10.066 39.873 22.79 30.955 71.455 53.043 108.7 49.333 17.877-1.78 29.853-9.191 34.972-19.831h.019l.2-.465c.215-.469.42-.942.609-1.424l6.762-16.641-.589-2.563c.619-9.632-3.073-20.757-11.56-32.279zm-30.512 3.038c12.479 16.95 6.064 32.336-14.325 34.366s-47.037-10.062-59.514-27.011-6.064-32.336 14.325-34.366 47.036 10.063 59.513 27.011z" class="prefix__cls-3" data-name="Path 9007" transform="translate(264.02 -204.395)"/>
                        </g>
                        <g id="prefix__Group_12060" data-name="Group 12060" transform="translate(3.054 9.107)">
                            <path id="prefix__Path_9008" d="M-188.295 308.158l17.834-37.3a23.372 23.372 0 0 0 3.321-1.648l12.151 16.5-11.088 23.19a96.515 96.515 0 0 1-22.218-.742z" class="prefix__cls-4" data-name="Path 9008" transform="translate(282.567 -188.067)"/>
                            <path id="prefix__Path_9009" d="M-232.764 206.077l19.111 25.957c-11.137 4.758-14.257 15.559-7.422 27.745l-16.42 34.338a101.843 101.843 0 0 1-15.577-16.6 66.8 66.8 0 0 1-8.57-15.217l26.582-55.59c.747-.223 1.516-.432 2.296-.633z" class="prefix__cls-4" data-name="Path 9009" transform="translate(261.644 -206.077)"/>
                            <path id="prefix__Path_9010" d="M-222.66 253.516a66.523 66.523 0 0 0 15.454 12.868l.587.8-14.126 29.54a140.288 140.288 0 0 1-17.261-11.111z" class="prefix__cls-4" data-name="Path 9010" transform="translate(268.387 -192.545)"/>
                            <path id="prefix__Path_9011" d="M-212.205 274.346l3.415 4.64-7.913 16.233q-2.315-1.072-4.592-2.226z" class="prefix__cls-4" data-name="Path 9011" transform="translate(273.154 -186.603)"/>
                            <path id="prefix__Path_9012" d="M-185.809 279.11l3.416 4.64-9.966 20.441c-1.7-.343-3.408-.736-5.115-1.154z" class="prefix__cls-4" data-name="Path 9012" transform="translate(279.949 -185.244)"/>
                        </g>
                        <g id="prefix__Group_12061" data-name="Group 12061" transform="translate(6.962 .486)">
                            <path id="prefix__Path_9013" d="M-112.1 249.112c-22.624-31.078-71.455-53.044-108.7-49.335s-48.957 31.811-26.167 62.767 71.432 52.795 108.7 49.333c36.878-3.423 48.791-31.683 26.167-62.765zm-30.511 3.038c12.479 16.949 6.064 32.335-14.327 34.367s-47.035-10.062-59.514-27.012-6.064-32.335 14.327-34.365 47.032 10.06 59.51 27.011z" class="prefix__cls-5" data-name="Path 9013" transform="translate(258.603 -199.369)"/>
                        </g>
                        <g id="prefix__Group_12062" data-name="Group 12062" transform="translate(6.604)">
                            <path id="prefix__Path_9014" d="M-221.08 199.4c-37.242 3.708-48.957 31.81-26.167 62.766s71.455 53.044 108.7 49.335 48.957-31.811 26.167-62.767-71.458-53.046-108.7-49.334zm18.671 25.361c20.391-2.031 47.037 10.062 59.514 27.011s6.064 32.336-14.327 34.366-47.035-10.062-59.514-27.011-6.064-32.337 14.327-34.368z" class="prefix__cls-6" data-name="Path 9014" transform="translate(258.882 -198.992)"/>
                        </g>
                        <g id="prefix__Group_12063" data-name="Group 12063" transform="translate(17.103 7.728)">
                            <path id="prefix__Path_9015" d="M-217.759 205.359c-32.466 3.234-42.678 27.731-22.811 54.717s62.291 46.24 94.757 43.007 42.677-27.732 22.811-54.717-62.291-46.241-94.757-43.007z" class="prefix__cls-7" data-name="Path 9015" transform="translate(250.713 -205.004)"/>
                        </g>
                        <g id="prefix__Group_12064" data-name="Group 12064" transform="translate(22.093 11.291)">
                            <path id="prefix__Path_9016" d="M-216.262 208.1c-30.115 3-39.589 25.724-21.159 50.756s57.783 42.893 87.9 39.894 39.589-25.724 21.159-50.756-57.786-42.889-87.9-39.894z" class="prefix__cls-3" data-name="Path 9016" transform="translate(246.831 -207.776)"/>
                        </g>
                        <path id="prefix__Path_9017" d="M-127.179 248.282l-119.476-18.152c-.915 8.056 2 17.509 9.229 27.323a77.606 77.606 0 0 0 7.767 8.957l107.642 16.354c5.222-9.073 3.852-21.401-5.162-34.482zM-243.388 220.6l106.34 16.156a100.679 100.679 0 0 0-13.466-10.876c-30.423-4.992-62.61-10.1-84.871-13.169a25.232 25.232 0 0 0-8.003 7.889z" class="prefix__cls-8" data-name="Path 9017" transform="translate(268.927 -195.078)"/>
                        <g id="prefix__Group_12065" data-name="Group 12065" transform="translate(55.148 19.359)">
                            <path id="prefix__Path_9018" d="M-158 257.259q4.754 6.52 2.595 10.722t-8.391 5.845l3.9 5.349q1.157 1.587 1.657 2.429a4.728 4.728 0 0 1 .614 1.879 1.419 1.419 0 0 1-.974 1.531 10.226 10.226 0 0 1-3.436.621 16.24 16.24 0 0 1-4.043-.213 7.229 7.229 0 0 1-3.022-1.357 14.288 14.288 0 0 1-2.011-1.8q-.692-.79-1.909-2.46l-3.779-5.182a49.97 49.97 0 0 1-10.091-2.059 48.669 48.669 0 0 1-7.392-2.812l-2.487-1.342q-3.991-2.13-4.906-3.384-1.523-2.088.262-5.054a4.019 4.019 0 0 1 3.42-1.837q2.68-.147 8.72 2.565l.862.388q5.776 2.988 10.132 2.752 8.261-.449 4.545-5.55-1.34-1.835-5.2-2.671a87.835 87.835 0 0 0-8.9-1.384q-5.043-.549-10.485-1.645a37.431 37.431 0 0 1-10.945-4.185 28.619 28.619 0 0 1-9.219-8.187q-3.6-4.932-2.28-9.175t7.945-5.82l-3.414-4.682q-1.218-1.67-1.686-2.472a5.278 5.278 0 0 1-.639-1.833 1.343 1.343 0 0 1 .973-1.531 10.765 10.765 0 0 1 3.491-.625 12.256 12.256 0 0 1 5.223.716 9.045 9.045 0 0 1 3.223 1.952 33.838 33.838 0 0 1 2.54 3.166l3.414 4.681a48.294 48.294 0 0 1 6.73 1.11 46.227 46.227 0 0 1 4.669 1.31l1.492.614.63.226q4.193 1.772 5.046 2.941a5.287 5.287 0 0 1 .571 3.966q-.575 3.509-3.7 3.678a15.944 15.944 0 0 1-5.552-1.089c-.231-.1-.73-.308-1.492-.613s-1.452-.559-2.062-.758a14.964 14.964 0 0 0-2.578-.51 20.366 20.366 0 0 0-3.675-.105 4.775 4.775 0 0 0-3.258 1.265q-1.137 1.149.084 2.82a8.763 8.763 0 0 0 4.574 3.009 26.458 26.458 0 0 0 6.735 1.2q3.624.195 8.283.852t8.862 1.648a28.261 28.261 0 0 1 8.655 3.83 28.349 28.349 0 0 1 7.679 7.27z" class="prefix__cls-9" data-name="Path 9018" transform="translate(221.112 -214.054)"/>
                        </g>
                        <g id="prefix__Group_12066" data-name="Group 12066" transform="translate(54.536 18.452)">
                            <path id="prefix__Path_9019" d="M-158.472 256.553q4.754 6.52 2.595 10.722t-8.391 5.845l3.9 5.349q1.157 1.587 1.655 2.429a4.728 4.728 0 0 1 .614 1.879 1.42 1.42 0 0 1-.973 1.531 10.238 10.238 0 0 1-3.435.621 16.25 16.25 0 0 1-4.045-.213 7.232 7.232 0 0 1-3.02-1.357 14.218 14.218 0 0 1-2.011-1.8q-.694-.79-1.91-2.46l-3.779-5.182a49.982 49.982 0 0 1-10.091-2.059 48.642 48.642 0 0 1-7.39-2.812l-2.487-1.342q-3.991-2.13-4.906-3.384-1.523-2.088.262-5.054a4.018 4.018 0 0 1 3.42-1.837q2.678-.147 8.72 2.565l.862.388q5.776 2.988 10.132 2.752 8.261-.449 4.543-5.55-1.34-1.835-5.2-2.671a87.9 87.9 0 0 0-8.9-1.384q-5.043-.549-10.485-1.645a37.419 37.419 0 0 1-10.945-4.185 28.624 28.624 0 0 1-9.22-8.187q-3.6-4.932-2.279-9.175t7.945-5.82l-3.414-4.682q-1.218-1.67-1.686-2.472a5.28 5.28 0 0 1-.64-1.833 1.345 1.345 0 0 1 .974-1.531 10.764 10.764 0 0 1 3.491-.625 12.258 12.258 0 0 1 5.223.716 9.038 9.038 0 0 1 3.222 1.952 33.6 33.6 0 0 1 2.541 3.166l3.412 4.681a48.348 48.348 0 0 1 6.731 1.11 46.328 46.328 0 0 1 4.669 1.31l1.492.614.63.226q4.191 1.772 5.046 2.941a5.292 5.292 0 0 1 .571 3.966q-.576 3.509-3.7 3.678a15.946 15.946 0 0 1-5.554-1.089c-.23-.1-.729-.308-1.491-.613s-1.452-.559-2.063-.758a14.948 14.948 0 0 0-2.577-.51 20.383 20.383 0 0 0-3.676-.105 4.769 4.769 0 0 0-3.257 1.265q-1.137 1.149.084 2.82a8.759 8.759 0 0 0 4.573 3.009 26.468 26.468 0 0 0 6.736 1.2q3.623.195 8.283.852t8.862 1.648a28.275 28.275 0 0 1 8.655 3.83 28.368 28.368 0 0 1 7.682 7.27z" class="prefix__cls-6" data-name="Path 9019" transform="translate(221.588 -213.348)"/>
                        </g>
                        <g id="prefix__Group_12067" data-name="Group 12067" transform="translate(67.15 43.464)" style="mix-blend-mode:multiply;isolation:isolate" opacity="0.5">
                            <path id="prefix__Path_9020" d="M-202.748 232.906c-8.893.886-11.691 7.6-6.248 14.987s17.062 12.666 25.954 11.781 11.691-7.6 6.249-14.989-17.062-12.665-25.955-11.779z" class="prefix__cls-6" data-name="Path 9020" transform="translate(211.774 -232.809)"/>
                        </g>
                        <path id="prefix__Path_9021" d="M-152.179 289.064c29.941-2.983 39.466-25.465 21.464-50.326.107.144.222.285.329.429 18.429 25.032 8.956 47.756-21.159 50.756s-69.468-14.863-87.9-39.894c-.107-.144-.2-.288-.3-.431 18.561 24.802 57.625 42.447 87.566 39.466z" class="prefix__cls-8" data-name="Path 9021" transform="translate(270.944 -187.654)"/>
                    </g>
                </g>
            </g>
            <g id="prefix__Group_12081" data-name="Group 12081" transform="translate(152.272 385.697)">
                <g id="prefix__Group_12080" data-name="Group 12080">
                    <g id="prefix__Group_12071" data-name="Group 12071" transform="translate(.251 16.07)">
                        <path id="prefix__Path_9022" d="M-273.924 410.129c-22.216 13.137-21.38 34.116 1.865 46.857 19.223 10.538 47.753 12.142 69.886 4.862a63.884 63.884 0 0 0 12.427-5.576c22.214-13.137 21.38-34.115-1.865-46.857s-60.099-12.423-82.313.714zm19.044 10.439c12.164-7.192 32.341-7.368 45.069-.392s13.184 18.464 1.02 25.656-32.341 7.367-45.069.391-13.183-18.463-1.02-25.655z" class="prefix__cls-1" data-name="Path 9022" transform="translate(290.054 -400.063)"/>
                    </g>
                    <g id="prefix__Group_12072" data-name="Group 12072" transform="translate(.273 5.032)">
                        <path id="prefix__Path_9023" d="M-191.332 400.826c-23.245-12.742-60.1-12.422-82.313.715-7.147 4.226-11.894 9.264-14.291 14.579l.375 4.54-2.477 1.888c-.027.837.661 10.628.744 11.463l.005.145.005-.014c.859 8.047 6.832 15.96 17.877 22.015 23.245 12.742 60.1 12.421 82.313-.716 10.665-6.305 16-14.419 16.113-22.561l.012-.008-.01-.35c0-.356-.01-.711-.032-1.067l-.6-12.373-1.113-1.432c-2.412-6.196-7.955-12.081-16.608-16.824zm-18.2 10.761c12.727 6.978 13.184 18.464 1.02 25.656s-32.341 7.368-45.068.392-13.184-18.464-1.022-25.656 32.343-7.366 45.07-.391z" class="prefix__cls-3" data-name="Path 9023" transform="translate(290.038 -391.475)"/>
                    </g>
                    <g id="prefix__Group_12073" data-name="Group 12073" transform="translate(9.125 19.13)">
                        <path id="prefix__Path_9024" d="M-222.842 452.877l.323-28.508a16.158 16.158 0 0 0 1.6-1.995l12.394 6.793-.2 17.724a66.6 66.6 0 0 1-14.117 5.986z" class="prefix__cls-4" data-name="Path 9024" transform="translate(300.353 -396.759)"/>
                        <path id="prefix__Path_9025" d="M-281.419 402.444l19.492 10.684c-5.583 6.21-4.4 13.872 3.416 19.509l-.3 26.246a70.265 70.265 0 0 1-14.565-5.856A46.063 46.063 0 0 1-283.15 446l.479-42.489c.403-.36.823-.711 1.252-1.067z" class="prefix__cls-4" data-name="Path 9025" transform="translate(283.15 -402.444)"/>
                        <path id="prefix__Path_9026" d="M-259.765 428.307a45.834 45.834 0 0 0 13.4 3.56l.6.328-.254 22.579a96.766 96.766 0 0 1-14.023-1.936z" class="prefix__cls-4" data-name="Path 9026" transform="translate(289.742 -395.066)"/>
                        <path id="prefix__Path_9027" d="M-246.309 437.9l3.484 1.91-.234 12.452q-1.76 0-3.519-.059z" class="prefix__cls-4" data-name="Path 9027" transform="translate(293.582 -392.331)"/>
                        <path id="prefix__Path_9028" d="M-228.755 433.374l3.483 1.91-.3 15.68c-1.164.279-2.346.529-3.534.763z" class="prefix__cls-4" data-name="Path 9028" transform="translate(298.568 -393.621)"/>
                    </g>
                    <g id="prefix__Group_12074" data-name="Group 12074" transform="translate(.366 .153)">
                        <path id="prefix__Path_9029" d="M-191.521 397.078c-23.177-12.867-60.1-12.422-82.314.715s-21.38 34.116 1.865 46.857 60.011 12.273 82.314-.715c22.072-12.854 21.315-33.989-1.865-46.857zm-18.2 10.761c12.727 6.976 13.184 18.463 1.021 25.656s-32.341 7.367-45.068.391-13.185-18.463-1.022-25.655 32.341-7.368 45.069-.391z" class="prefix__cls-5" data-name="Path 9029" transform="translate(289.965 -387.679)"/>
                    </g>
                    <g id="prefix__Group_12075" data-name="Group 12075">
                        <path id="prefix__Path_9030" d="M-274.12 397.626c-22.214 13.137-21.38 34.115 1.865 46.857s60.1 12.422 82.313-.715 21.382-34.116-1.864-46.858-60.094-12.422-82.314.716zm19.045 10.439c12.164-7.192 32.341-7.368 45.069-.392s13.184 18.463 1.02 25.656-32.341 7.367-45.069.391-13.184-18.463-1.02-25.655z" class="prefix__cls-6" data-name="Path 9030" transform="translate(290.25 -387.56)"/>
                    </g>
                    <g id="prefix__Group_12076" data-name="Group 12076" transform="translate(7.833 4.451)">
                        <path id="prefix__Path_9031" d="M-270.094 399.8c-19.366 11.452-18.638 29.74 1.626 40.848s52.391 10.828 71.757-.623 18.638-29.741-1.626-40.848-52.391-10.831-71.757.623z" class="prefix__cls-7" data-name="Path 9031" transform="translate(284.155 -391.023)"/>
                    </g>
                    <g id="prefix__Group_12077" data-name="Group 12077" transform="translate(11.507 6.542)">
                        <path id="prefix__Path_9032" d="M-268.253 400.79c-17.965 10.623-17.289 27.587 1.508 37.891s48.6 10.044 66.562-.578 17.289-27.587-1.508-37.891-48.598-10.045-66.562.578z" class="prefix__cls-3" data-name="Path 9032" transform="translate(281.297 -392.65)"/>
                    </g>
                    <path id="prefix__Path_9033" d="M-200.482 400.693l-80 23.348c1.766 5.3 6.338 10.369 13.707 14.409a53.405 53.405 0 0 0 7.46 3.346l72.075-21.035c.634-7.193-3.804-14.506-13.242-20.068zm-80.718 16.438l71.2-20.781a69.412 69.412 0 0 0-11.581-2.892c-20.478 5.714-42.092 11.869-56.906 16.415a17.391 17.391 0 0 0-2.713 7.258z" class="prefix__cls-8" data-name="Path 9033" transform="translate(292.83 -385.877)"/>
                    <g id="prefix__Group_12078" data-name="Group 12078" transform="translate(30.418 15.688)">
                        <path id="prefix__Path_9034" d="M-216.621 411.568q4.866 2.7 4.736 5.952t-3.55 6.092l3.993 2.213q1.184.657 1.742 1.04a3.262 3.262 0 0 1 .929 1 .977.977 0 0 1-.165 1.24 7.047 7.047 0 0 1-1.968 1.386 11.186 11.186 0 0 1-2.592 1.041 4.987 4.987 0 0 1-2.283.03 9.839 9.839 0 0 1-1.781-.544q-.663-.293-1.909-.983l-3.869-2.144a34.465 34.465 0 0 1-6.91 1.643 33.4 33.4 0 0 1-5.439.387l-1.946-.116a11.284 11.284 0 0 1-4.051-.691q-1.558-.864-1.3-3.238a2.775 2.775 0 0 1 1.605-2.143q1.633-.87 6.2-.928l.652-.008a13.955 13.955 0 0 0 7.136-1.222q5.038-2.68 1.23-4.79a5.812 5.812 0 0 0-4.027-.161 60.67 60.67 0 0 0-5.97 1.72q-3.314 1.122-7.035 2.017a25.76 25.76 0 0 1-8.061.562 19.73 19.73 0 0 1-8.145-2.443q-3.682-2.04-4.091-5.076t3.279-5.948l-3.495-1.937q-1.247-.69-1.772-1.055a3.66 3.66 0 0 1-.932-.961.928.928 0 0 1 .163-1.24 7.484 7.484 0 0 1 2-1.4 8.47 8.47 0 0 1 3.475-1.069 6.233 6.233 0 0 1 2.582.285 23.409 23.409 0 0 1 2.509 1.242l3.493 1.937a33.256 33.256 0 0 1 4.533-1.26 31.74 31.74 0 0 1 3.3-.537l1.112-.05.46-.041a9.5 9.5 0 0 1 4.01.374 3.649 3.649 0 0 1 1.509 2.315 2.61 2.61 0 0 1-1.248 3.376 11.01 11.01 0 0 1-3.789.932c-.175 0-.546.019-1.112.049s-1.071.073-1.51.126a10.325 10.325 0 0 0-1.759.429 14.025 14.025 0 0 0-2.329 1 3.291 3.291 0 0 0-1.671 1.736q-.378 1.051.871 1.74a6.049 6.049 0 0 0 3.735.554 18.258 18.258 0 0 0 4.56-1.207q2.323-.931 5.429-1.873t6.021-1.544a19.449 19.449 0 0 1 6.525-.118 19.537 19.537 0 0 1 6.92 2.309z" class="prefix__cls-9" data-name="Path 9034" transform="translate(266.583 -399.766)"/>
                    </g>
                    <g id="prefix__Group_12079" data-name="Group 12079" transform="translate(29.772 15.298)">
                        <path id="prefix__Path_9035" d="M-217.124 411.266q4.866 2.7 4.736 5.952t-3.55 6.092l3.993 2.213c.789.437 1.369.785 1.742 1.038a3.253 3.253 0 0 1 .929 1 .977.977 0 0 1-.165 1.24 7.094 7.094 0 0 1-1.968 1.385 11.187 11.187 0 0 1-2.593 1.04 4.968 4.968 0 0 1-2.283.028 9.848 9.848 0 0 1-1.781-.542q-.663-.293-1.909-.984l-3.869-2.144a34.464 34.464 0 0 1-6.91 1.644 33.686 33.686 0 0 1-5.439.387l-1.946-.116a11.247 11.247 0 0 1-4.051-.693q-1.558-.864-1.3-3.236a2.773 2.773 0 0 1 1.605-2.143q1.633-.869 6.2-.928l.652-.008a13.955 13.955 0 0 0 7.136-1.222q5.038-2.68 1.23-4.79a5.812 5.812 0 0 0-4.027-.161 60.643 60.643 0 0 0-5.97 1.72q-3.314 1.122-7.035 2.017a25.838 25.838 0 0 1-8.061.562 19.73 19.73 0 0 1-8.145-2.443q-3.682-2.04-4.091-5.077t3.279-5.947l-3.495-1.937q-1.247-.692-1.772-1.056a3.673 3.673 0 0 1-.932-.96.927.927 0 0 1 .163-1.24 7.482 7.482 0 0 1 2-1.4 8.468 8.468 0 0 1 3.475-1.069 6.211 6.211 0 0 1 2.582.285 23.413 23.413 0 0 1 2.509 1.242l3.493 1.937a33.449 33.449 0 0 1 4.533-1.261 32.093 32.093 0 0 1 3.3-.537l1.112-.049.46-.041a9.483 9.483 0 0 1 4.01.374 3.645 3.645 0 0 1 1.509 2.315 2.611 2.611 0 0 1-1.248 3.376 11.009 11.009 0 0 1-3.789.932c-.175 0-.546.019-1.112.049s-1.071.073-1.51.125a10.466 10.466 0 0 0-1.759.431 13.916 13.916 0 0 0-2.329 1 3.291 3.291 0 0 0-1.671 1.736q-.378 1.049.871 1.74a6.049 6.049 0 0 0 3.735.554 18.313 18.313 0 0 0 4.56-1.207q2.323-.931 5.429-1.874t6.021-1.544a19.519 19.519 0 0 1 6.525-.118 19.539 19.539 0 0 1 6.921 2.313z" class="prefix__cls-6" data-name="Path 9035" transform="translate(267.086 -399.463)"/>
                    </g>
                    <path id="prefix__Path_9036" d="M-203.988 436.108c17.86-10.562 17.288-27.39-1.193-37.71.109.058.222.113.33.172 18.8 10.3 19.472 27.268 1.508 37.891s-47.765 10.882-66.562.578c-.108-.059-.208-.122-.315-.181 18.814 10.124 48.371 9.811 66.232-.75z" class="prefix__cls-8" data-name="Path 9036" transform="translate(295.964 -384.468)"/>
                </g>
            </g>
            <g id="prefix__Group_12091" data-name="Group 12091" transform="translate(70.534 227.074)">
                <g id="prefix__Group_12088" data-name="Group 12088">
                    <g id="prefix__Group_12082" data-name="Group 12082">
                        <path id="prefix__Path_9037" d="M-237.494 280.335l-1.046-2.412-15.313-9.394c-.437-.275-.883-.533-1.334-.784l-.437-.257-.018.009c-10.431-5.533-24.469-4.4-39.921 4.763-32.189 19.092-58.284 65.732-58.284 104.173 0 18.262 5.9 31.376 15.534 38.076h-.022l.181.108c1.005.689 12.976 8.388 14.058 8.936l4.127-1.834 5.511 3.642c8.427.655 18.144-1.869 28.5-8.011 32.189-19.092 58.284-65.732 58.284-104.171-.001-14.312-3.62-25.462-9.82-32.844zm-48.465 105.52c-17.625 10.453-31.912 1.865-31.912-19.181s14.287-46.583 31.912-57.037 31.912-1.865 31.912 19.182-14.287 46.581-31.911 57.035z" class="prefix__cls-3" data-name="Path 9037" transform="translate(353.847 -264.143)"/>
                    </g>
                    <g id="prefix__Group_12083" data-name="Group 12083" transform="translate(0 8.529)">
                        <path id="prefix__Path_9038" d="M-322.589 284.552l36.474 19.461a23.4 23.4 0 0 1 3.651-.641v-20.494l-22.677-12.1a96.486 96.486 0 0 0-17.448 13.774z" class="prefix__cls-4" data-name="Path 9038" transform="translate(362.764 -270.779)"/>
                        <path id="prefix__Path_9039" d="M-295.134 402.018v-32.234c-11.79 2.772-20.706-4.077-22.428-17.942l-33.58-17.918a101.849 101.849 0 0 0-2.705 22.6 66.793 66.793 0 0 0 2.121 17.334l54.364 29.007c.737-.259 1.48-.546 2.228-.847z" class="prefix__cls-4" data-name="Path 9039" transform="translate(353.847 -252.766)"/>
                        <path id="prefix__Path_9040" d="M-318.769 348.905a66.543 66.543 0 0 1 4.816-19.526v-.988l-28.889-15.414a140.164 140.164 0 0 0-7.313 19.181z" class="prefix__cls-4" data-name="Path 9040" transform="translate(354.9 -258.742)"/>
                        <path id="prefix__Path_9041" d="M-324.47 320.274v-5.761l-16-8.381q-1.23 2.236-2.379 4.515z" class="prefix__cls-4" data-name="Path 9041" transform="translate(356.985 -260.694)"/>
                        <path id="prefix__Path_9042" d="M-305.342 301.609v-5.762l-20.144-10.553c-1.167 1.287-2.308 2.614-3.435 3.962z" class="prefix__cls-4" data-name="Path 9042" transform="translate(360.957 -266.638)"/>
                    </g>
                    <g id="prefix__Group_12084" data-name="Group 12084" transform="translate(15.63 9.445)">
                        <path id="prefix__Path_9043" d="M-283.4 279.629c-32.061 19.307-58.284 65.732-58.284 104.173s26.095 54.125 58.284 35.032 58.491-65.733 58.285-104.173-26.557-54.14-58.285-35.032zm0 107.711c-17.623 10.453-31.912 1.865-31.912-19.181s14.288-46.583 31.912-57.036 31.913-1.866 31.913 19.181-14.29 46.582-31.913 57.036z" class="prefix__cls-5" data-name="Path 9043" transform="translate(341.686 -271.492)"/>
                    </g>
                    <g id="prefix__Group_12085" data-name="Group 12085" transform="translate(15.63 10.059)">
                        <path id="prefix__Path_9044" d="M-225.117 315.13c0-38.439-26.095-54.123-58.285-35.031s-58.284 65.732-58.284 104.171 26.095 54.13 58.286 35.03 58.283-65.729 58.283-104.17zm-90.2 53.5c0-21.047 14.288-46.583 31.912-57.036s31.913-1.867 31.913 19.18-14.288 46.583-31.913 57.036-31.909 1.865-31.909-19.181z" class="prefix__cls-6" data-name="Path 9044" transform="translate(341.686 -271.97)"/>
                    </g>
                    <g id="prefix__Group_12086" data-name="Group 12086" transform="translate(23.105 19.422)">
                        <path id="prefix__Path_9045" d="M-234.251 316.881c0-33.511-22.748-47.183-50.81-30.54s-50.809 57.3-50.809 90.812 22.748 47.183 50.809 30.539 50.81-57.302 50.81-90.811z" class="prefix__cls-7" data-name="Path 9045" transform="translate(335.87 -279.255)"/>
                    </g>
                    <g id="prefix__Group_12087" data-name="Group 12087" transform="translate(26.783 24.327)">
                        <path id="prefix__Path_9046" d="M-238.746 317.974c0-31.085-21.1-43.768-47.132-28.33s-47.13 53.154-47.13 84.24 21.1 43.768 47.13 28.328 47.132-53.154 47.132-84.238z" class="prefix__cls-3" data-name="Path 9046" transform="translate(333.008 -283.07)"/>
                    </g>
                    <path id="prefix__Path_9047" d="M-255.076 284.632l-76.987 76.987a77.475 77.475 0 0 0-.945 11.819c0 12.187 3.254 21.529 8.767 27.474l85.452-85.452c-.497-15.877-6.703-26.618-16.287-30.828zm-49.761 123.625c16.106-15.669 39-38.865 60.538-60.921a100.641 100.641 0 0 0 4.4-16.742l-76.056 76.056a25.233 25.233 0 0 0 11.117 1.607z" class="prefix__cls-8" data-name="Path 9047" transform="translate(359.791 -258.298)"/>
                    <path id="prefix__Path_9048" d="M-285.878 290.713c25.88-15.351 46.88-2.893 47.121 27.8 0-.179.01-.361.01-.54 0-31.085-21.1-43.768-47.132-28.33s-47.13 53.154-47.13 84.24c0 .179.009.348.01.527.243-30.981 21.243-68.347 47.121-83.697z" class="prefix__cls-8" data-name="Path 9048" transform="translate(359.791 -258.744)"/>
                </g>
                <g id="prefix__Group_12089" data-name="Group 12089" transform="translate(55.616 36.344)">
                    <path id="prefix__Path_9049" fill="#ff0" d="M-268.808 339.239a37.662 37.662 0 0 1-4.423 17.436 59.519 59.519 0 0 1-10.713 14.89v7.269q0 2.157-.1 3.366a14.562 14.562 0 0 1-.639 2.966 9.242 9.242 0 0 1-1.769 3.227 18.719 18.719 0 0 1-3.293 2.98 11.22 11.22 0 0 1-3.293 1.843 1.307 1.307 0 0 1-1.72-.727 6.357 6.357 0 0 1-.589-2.067q-.1-1.008-.1-3.279V380.1a16.978 16.978 0 0 1-7.272 1.92q-3.245-.01-4.522-.889l-1.278-.995q-2.063-1.556-2.064-3.258 0-2.838 3.342-9.035a15.416 15.416 0 0 1 4.029-5.11q2.358-1.729 5.8-.274l.492.208q3.044 2.088 6.879-.724 7.272-5.327 7.272-12.256 0-2.5-2.75-1.846a37.389 37.389 0 0 0-6.681 2.459 50.626 50.626 0 0 1-7.862 2.864 6.827 6.827 0 0 1-6.683-1.351q-2.751-2.414-2.75-9.343 0-6.7 3.734-14.888a48.119 48.119 0 0 1 10.319-14.6v-6.361q0-2.269.1-3.421a15.671 15.671 0 0 1 .589-2.874 8.621 8.621 0 0 1 1.77-3.227 19.474 19.474 0 0 1 3.342-3.016q2.653-1.943 3.979-1.609a1.879 1.879 0 0 1 1.523 1.667 31.624 31.624 0 0 1 .2 4.172v6.359a19.761 19.761 0 0 1 5.014-1.742 10.93 10.93 0 0 1 3.144-.26l.884.261.393.053q2.454.817 2.457 2.4 0 1.818-1.966 6.664-2.653 6.491-5.4 8.5a5.89 5.89 0 0 1-4.029 1.134 9.2 9.2 0 0 0-.886-.26 6.076 6.076 0 0 0-1.276-.2 5.12 5.12 0 0 0-1.867.517 15.854 15.854 0 0 0-3.046 1.834 14.469 14.469 0 0 0-3.538 4.013 9.336 9.336 0 0 0-1.671 4.915q0 2.726 2.015 2.783a10.131 10.131 0 0 0 4.962-1.591 53.687 53.687 0 0 1 6.487-3.049 36.845 36.845 0 0 1 6.485-1.969 4.806 4.806 0 0 1 4.964 1.986q2.004 2.56 2.005 8.578z" data-name="Path 9049" transform="translate(310.575 -292.421)"/>
                </g>
                <g id="prefix__Group_12090" data-name="Group 12090" transform="translate(55.616 35.342)">
                    <path id="prefix__Path_9050" d="M-268.808 338.459a37.675 37.675 0 0 1-4.423 17.437 59.535 59.535 0 0 1-10.713 14.888v7.269q0 2.157-.1 3.366a14.563 14.563 0 0 1-.639 2.966 9.253 9.253 0 0 1-1.769 3.227 18.722 18.722 0 0 1-3.293 2.98 11.221 11.221 0 0 1-3.293 1.843 1.307 1.307 0 0 1-1.72-.727 6.358 6.358 0 0 1-.589-2.067q-.1-1.008-.1-3.279v-7.042a16.977 16.977 0 0 1-7.272 1.92q-3.245-.01-4.522-.889l-1.278-.995q-2.063-1.556-2.064-3.258 0-2.838 3.342-9.035a15.416 15.416 0 0 1 4.029-5.11q2.358-1.729 5.8-.274l.492.208q3.044 2.088 6.879-.724 7.272-5.327 7.272-12.255 0-2.5-2.75-1.847a37.386 37.386 0 0 0-6.683 2.455 50.632 50.632 0 0 1-7.862 2.864 6.827 6.827 0 0 1-6.683-1.351q-2.751-2.414-2.75-9.343 0-6.7 3.734-14.888a48.1 48.1 0 0 1 10.319-14.6v-6.362q0-2.269.1-3.421a15.671 15.671 0 0 1 .589-2.874 8.621 8.621 0 0 1 1.77-3.227 19.473 19.473 0 0 1 3.342-3.017q2.653-1.943 3.979-1.609a1.879 1.879 0 0 1 1.523 1.667 31.623 31.623 0 0 1 .2 4.172v6.359a19.762 19.762 0 0 1 5.014-1.742 10.935 10.935 0 0 1 3.144-.26l.884.261.393.053c1.636.545 2.457 1.343 2.457 2.4q0 1.816-1.966 6.664-2.653 6.489-5.4 8.5a5.889 5.889 0 0 1-4.029 1.134 9.208 9.208 0 0 0-.886-.26 6.161 6.161 0 0 0-1.276-.2 5.119 5.119 0 0 0-1.867.517 15.854 15.854 0 0 0-3.046 1.834 14.469 14.469 0 0 0-3.538 4.013 9.336 9.336 0 0 0-1.671 4.915q0 2.726 2.015 2.783a10.116 10.116 0 0 0 4.962-1.591 53.687 53.687 0 0 1 6.487-3.049 36.855 36.855 0 0 1 6.485-1.969 4.808 4.808 0 0 1 4.964 1.986q2.006 2.566 2.007 8.584z" class="prefix__cls-6" data-name="Path 9050" transform="translate(310.575 -291.641)"/>
                </g>
            </g>
            <g id="prefix__Group_12092" data-name="Group 12092" transform="translate(337.312 366.564)">
                <path id="prefix__Path_9051" d="M-142.243 418.93a4.048 4.048 0 0 1-4.036-4.036v-20.335a4.048 4.048 0 0 1 4.036-4.037 4.048 4.048 0 0 1 4.037 4.037v20.335a4.048 4.048 0 0 1-4.037 4.036z" class="prefix__cls-14" data-name="Path 9051" transform="translate(146.279 -367.583)"/>
                <path id="prefix__Path_9052" d="M-110.132 401.082a4.049 4.049 0 0 1-4.037-4.036v-20.335a4.049 4.049 0 0 1 4.037-4.037 4.048 4.048 0 0 1 4.036 4.037v20.335a4.048 4.048 0 0 1-4.036 4.036z" class="prefix__cls-14" data-name="Path 9052" transform="translate(155.439 -372.674)"/>
            </g>
            <g id="prefix__Group_12105" data-name="Group 12105" transform="translate(303.271 253.932)">
                <g id="prefix__Group_12093" data-name="Group 12093" transform="translate(0 21.441)">
                    <path id="prefix__Path_9053" d="M-76.554 317.583l-.808-1.866-18.033-10.6c-.338-.215-.684-.414-1.033-.608l-.338-.2-.014.006c-8.07-4.281-18.932-3.406-30.887 3.686-24.906 14.771-45.1 50.858-45.1 80.6 0 14.131 4.564 24.277 12.018 29.462h-.017l.14.084c.778.532 16.225 9.822 17.063 10.247l3.193-1.419 4.264 2.817c6.521.508 14.039-1.445 22.051-6.2 24.906-14.773 45.1-50.859 45.1-80.6-.001-11.069-2.802-19.697-7.599-25.409zm-37.5 81.643c-13.637 8.088-24.692 1.443-24.692-14.841s11.056-36.042 24.692-44.131 24.691-1.443 24.691 14.841-11.054 36.044-24.689 44.132z" class="prefix__cls-15" data-name="Path 9053" transform="translate(172.765 -301.722)"/>
                </g>
                <g id="prefix__Group_12094" data-name="Group 12094" transform="translate(0 34.075)">
                    <path id="prefix__Path_9054" d="M-147.77 315.164l24.41 14.93 1.486-5.109-21.849-13.432c-1.377 1.142-2.722 2.347-4.047 3.611z" class="prefix__cls-16" data-name="Path 9054" transform="translate(179.895 -311.552)"/>
                    <path id="prefix__Path_9055" d="M-114.029 385.1l-.023.015c-13.637 8.088-24.692 1.443-24.692-14.841 0-.121.006-.243.008-.365l-30.417-18.7a83.012 83.012 0 0 0-3.612 23.283c0 .554.019 1.091.033 1.634l56.509 34.561c.721-.387 1.441-.77 2.171-1.2a77.343 77.343 0 0 0 16.935-13.985z" class="prefix__cls-16" data-name="Path 9055" transform="translate(172.765 -300.241)"/>
                    <path id="prefix__Path_9056" d="M-138.292 349.441l1.484-5.109-23.058-14.176c-.911 1.47-1.8 2.959-2.645 4.473z" class="prefix__cls-16" data-name="Path 9056" transform="translate(175.69 -306.245)"/>
                    <path id="prefix__Path_9057" d="M-139.137 365.592a56.578 56.578 0 0 1 3.687-11.273l-27.884-17.143a112.238 112.238 0 0 0-4.708 10.738z" class="prefix__cls-16" data-name="Path 9057" transform="translate(174.113 -304.243)"/>
                </g>
                <g id="prefix__Group_12095" data-name="Group 12095" transform="translate(18.279 32.082)">
                    <path id="prefix__Path_9058" d="M-113.447 316.3c-24.807 14.939-45.1 50.859-45.1 80.6s20.19 41.878 45.1 27.106 45.255-50.859 45.1-80.6-20.553-41.893-45.1-27.106zm0 83.34c-13.637 8.087-24.691 1.443-24.691-14.842s11.055-36.041 24.691-44.129 24.691-1.445 24.691 14.84-11.055 36.039-24.691 44.128z" class="prefix__cls-16" data-name="Path 9058" transform="translate(158.543 -310.001)"/>
                </g>
                <g id="prefix__Group_12096" data-name="Group 12096" transform="translate(91.531)">
                    <path id="prefix__Path_9059" d="M-92.968 315.5a3.686 3.686 0 0 1-.238-5.191l16.981-18.609a3.685 3.685 0 0 1 5.191-.239 3.686 3.686 0 0 1 .238 5.191l-16.981 18.616a3.685 3.685 0 0 1-5.191.232z" class="prefix__cls-17" data-name="Path 9059" transform="translate(103.656 -283.481)"/>
                    <path id="prefix__Path_9060" d="M-89.48 317.587a3.684 3.684 0 0 1 2.708-4.435l18.828-4.655a3.686 3.686 0 0 1 4.435 2.708 3.686 3.686 0 0 1-2.708 4.435l-18.829 4.66a3.685 3.685 0 0 1-4.434-2.713z" class="prefix__cls-17" data-name="Path 9060" transform="translate(104.962 -278.378)"/>
                    <path id="prefix__Path_9061" d="M-98.407 311.525a3.685 3.685 0 0 0 4.168-3.1l2.909-19.176a3.684 3.684 0 0 0-3.1-4.168 3.685 3.685 0 0 0-4.168 3.1l-2.91 19.175a3.686 3.686 0 0 0 3.101 4.169z" class="prefix__cls-17" data-name="Path 9061" transform="translate(101.549 -285.04)"/>
                </g>
                <g id="prefix__Group_12097" data-name="Group 12097" transform="translate(18.279 32.558)">
                    <path id="prefix__Path_9062" d="M-68.351 343.767c0-29.742-20.19-41.878-45.1-27.106s-45.1 50.859-45.1 80.6 20.19 41.878 45.1 27.1 45.1-50.852 45.1-80.594zm-69.787 41.392c0-16.284 11.055-36.042 24.691-44.129s24.691-1.445 24.691 14.84-11.055 36.041-24.691 44.13-24.691 1.443-24.691-14.841z" class="prefix__cls-15" data-name="Path 9062" transform="translate(158.543 -310.371)"/>
                </g>
                <g id="prefix__Group_12100" data-name="Group 12100" transform="translate(26.908 43.597)">
                    <g id="prefix__Group_12098" data-name="Group 12098">
                        <path id="prefix__Path_9063" fill="#c6d7ff" d="M-78.894 345.966c0-24.051-16.328-33.864-36.468-21.919s-36.467 41.127-36.467 65.178 16.327 33.864 36.467 21.919 36.468-41.127 36.468-65.178z" data-name="Path 9063" transform="translate(151.829 -318.961)"/>
                    </g>
                    <g id="prefix__Group_12099" data-name="Group 12099" transform="translate(2.64 3.52)">
                        <path id="prefix__Path_9064" d="M-82.12 346.75c0-22.309-15.145-31.413-33.828-20.331s-33.827 38.149-33.827 60.46 15.145 31.413 33.827 20.331 33.828-38.149 33.828-60.46z" class="prefix__cls-17" data-name="Path 9064" transform="translate(149.775 -321.7)"/>
                    </g>
                    <path id="prefix__Path_9065" fill="#fff" d="M-115.948 327.184c18.575-11.017 33.647-2.076 33.819 19.954 0-.129.009-.26.009-.388 0-22.309-15.145-31.413-33.828-20.331s-33.827 38.149-33.827 60.46c0 .129.006.251.008.378.173-22.236 15.244-49.057 33.819-60.073z" data-name="Path 9065" transform="translate(152.415 -318.179)"/>
                </g>
                <g id="prefix__Group_12101" data-name="Group 12101" transform="translate(54.932 80.971)">
                    <path id="prefix__Path_9066" fill="#e1ebff" d="M-113.138 354.293c0-5.569-3.781-7.841-8.444-5.075s-8.443 9.522-8.443 15.091 3.78 7.84 8.443 5.074 8.444-9.522 8.444-15.09z" data-name="Path 9066" transform="translate(130.025 -348.04)"/>
                </g>
                <path id="prefix__Path_9067" d="M-113.591 338.138l-8.135-8.206-8.135 17.141 4.32-2.373v18.757l7.629-4.19V340.51z" class="prefix__cls-21" data-name="Path 9067" transform="translate(185.004 -272.234)"/>
                <path id="prefix__Path_9068" fill="#ffdc00" d="M-121.726 330.3l7.9 7.966.238-.131-8.135-8.206-8.135 17.141.238-.131z" data-name="Path 9068" transform="translate(185.004 -272.234)"/>
                <path id="prefix__Path_9069" d="M-107.265 372.8l4.574-.3-1.345-4.383-.857 1.244-17.092-11.777-1.514 2.2 17.092 11.777z" class="prefix__cls-15" data-name="Path 9069" transform="translate(186.818 -264.347)"/>
                <g id="prefix__Group_12102" data-name="Group 12102" transform="translate(56.748 83.607)">
                    <path id="prefix__Path_9070" d="M-115.357 355c0-4.371-2.968-6.154-6.628-3.984s-6.627 7.475-6.627 11.845 2.968 6.155 6.627 3.984 6.628-7.477 6.628-11.845z" class="prefix__cls-14" data-name="Path 9070" transform="translate(128.612 -350.09)"/>
                </g>
                <g id="prefix__Group_12103" data-name="Group 12103" transform="translate(59.809 87.69)">
                    <path id="prefix__Path_9071" d="M-119.1 355.908c0-2.352-1.6-3.312-3.567-2.144a8.172 8.172 0 0 0-3.565 6.374c0 2.352 1.6 3.312 3.565 2.144a8.172 8.172 0 0 0 3.567-6.374z" class="prefix__cls-21" data-name="Path 9071" transform="translate(126.23 -353.267)"/>
                </g>
                <g id="prefix__Group_12104" data-name="Group 12104" transform="translate(61.137 89.46)">
                    <path id="prefix__Path_9072" fill="#ffe400" d="M-120.72 356.3c0-1.475-1-2.078-2.238-1.346a5.132 5.132 0 0 0-2.239 4c0 1.477 1 2.08 2.239 1.346a5.13 5.13 0 0 0 2.238-4z" data-name="Path 9072" transform="translate(125.197 -354.644)"/>
                </g>
                <path id="prefix__Path_9073" fill="#000855" d="M-128.224 363.142c0-4.371 2.966-9.674 6.627-11.845 1.856-1.1 3.532-1.181 4.735-.427-1.215-1.045-3.059-1.08-5.123.144-3.659 2.172-6.627 7.475-6.627 11.845 0 2.155.724 3.677 1.892 4.411a5.282 5.282 0 0 1-1.504-4.128z" data-name="Path 9073" transform="translate(185.36 -266.484)"/>
            </g>
            <g id="prefix__Group_12115" data-name="Group 12115" transform="translate(343.948 252.619)">
                <path id="prefix__Path_9074" d="M-112.329 297.889h-21.822v11.533h.008c.023 1.619 1.145 3.238 3.365 4.455 4.357 2.388 11.264 2.328 15.427-.135 2.038-1.206 3.034-2.763 3.016-4.32h.006z" class="prefix__cls-1" data-name="Path 9074" transform="translate(143.103 -280.062)"/>
                <g id="prefix__Group_12114" data-name="Group 12114">
                    <g id="prefix__Group_12113" data-name="Group 12113">
                        <g id="prefix__Group_12106" data-name="Group 12106" transform="translate(9.017 10.532)">
                            <path id="prefix__Path_9075" fill="#01a" d="M-131.107 294.082c4.124-2.439 10.966-2.5 15.28-.134s4.47 6.26.346 8.7-10.965 2.5-15.279.132-4.47-6.26-.347-8.698z" data-name="Path 9075" transform="translate(134.1 -292.213)"/>
                        </g>
                        <g id="prefix__Group_12107" data-name="Group 12107" transform="translate(.092 1.706)">
                            <path id="prefix__Path_9076" fill="#0065e3" d="M-107.578 288.516c-7.881-4.32-20.375-4.21-27.908.243a11.507 11.507 0 0 0-4.844 4.943l.127 1.538-.841.64c-.009.284.225 3.6.253 3.887v.045c.292 2.729 2.317 5.411 6.061 7.463 7.881 4.321 20.376 4.212 27.908-.242 3.615-2.139 5.425-4.889 5.462-7.65v-.118c0-.121 0-.242-.012-.362l-.2-4.2-.378-.485c-.815-2.099-2.694-4.093-5.628-5.702zm-6.171 3.65c4.315 2.365 4.47 6.259.346 8.7s-10.965 2.5-15.279.134-4.47-6.26-.347-8.7 10.965-2.5 15.28-.134z" data-name="Path 9076" transform="translate(141.044 -285.346)"/>
                        </g>
                        <path id="prefix__Path_9077" fill="#0043b2" d="M-128.08 290.736a13.669 13.669 0 0 1 1.362-.5v-1.715h-1.362zm0 18.125c.451.093.9.179 1.362.252v-8.053a13.486 13.486 0 0 1-1.362-.5zm3.885-19.162c.45-.062.9-.112 1.362-.14v-1.033h-1.362zm0 19.718c.452.037.907.068 1.362.089v-7.733c-.458-.032-.913-.078-1.362-.144zm-7.769-15.508a5.565 5.565 0 0 1 1.361-1.666v-3.718h-1.361zm0 3.441v10.425c.445.162.9.308 1.361.449v-9.193a5.613 5.613 0 0 1-1.361-1.681zm-7.771-6.163v11.291a10.814 10.814 0 0 0 1.362 1.549v-14.332a10.807 10.807 0 0 0-1.362 1.492zm3.885 14.747q.362.222.749.434c.2.111.406.216.613.32v-18.163h-1.362zm15.54-16.356c.458.033.913.08 1.361.147v-1.2h-1.361zm7.769 2.772a5.513 5.513 0 0 1 1.362 1.718v-5.543h-1.362zm3.885 14.558q.7-.341 1.362-.725v-17.658h-1.362zm3.885-17.046v14.509a11.047 11.047 0 0 0 1.361-1.45v-11.549a11.067 11.067 0 0 0-1.36-1.51zm-11.656 19.326c.459-.067.913-.145 1.362-.23V300.6a13.461 13.461 0 0 1-1.362.5zm-3.884.334c.455-.014.909-.035 1.361-.067v-7.812c-.449.063-.9.114-1.361.144zm3.884-19.224a13.585 13.585 0 0 1 1.362.5v-2.276h-1.362zm3.885 8.774v9.29q.692-.2 1.362-.425v-10.568a5.469 5.469 0 0 1-1.36 1.704z" data-name="Path 9077" transform="translate(141.51 -282.733)"/>
                        <g id="prefix__Group_12108" data-name="Group 12108" transform="translate(.125 .401)">
                            <path id="prefix__Path_9078" fill="#009bff" d="M-107.607 287.886c-7.858-4.362-20.411-4.93-27.943-.476s-7.249 11.566.632 15.886 20.346 4.162 27.908-.242c7.483-4.354 7.262-10.806-.597-15.168zm-6.207 2.93c4.316 2.365 4.47 6.259.347 8.7s-10.966 2.5-15.28.132-4.47-6.259-.346-8.7 10.964-2.496 15.279-.131z" data-name="Path 9078" transform="translate(141.019 -284.33)"/>
                        </g>
                        <g id="prefix__Group_12109" data-name="Group 12109">
                            <path id="prefix__Path_9079" d="M-135.647 287.432c-7.532 4.453-7.249 11.566.632 15.886s20.376 4.212 27.908-.242 7.249-11.567-.632-15.887-20.375-4.212-27.908.243zm6.457 3.538c4.124-2.438 10.965-2.5 15.28-.132s4.47 6.259.346 8.7-10.965 2.5-15.28.132-4.47-6.261-.346-8.7z" class="prefix__cls-15" data-name="Path 9079" transform="translate(141.116 -284.018)"/>
                        </g>
                        <g id="prefix__Group_12110" data-name="Group 12110" transform="translate(2.656 1.509)">
                            <path id="prefix__Path_9080" fill="#840700" d="M-134.282 288.167c-6.566 3.883-6.32 10.083.551 13.849s17.762 3.672 24.329-.211 6.318-10.083-.551-13.849-17.762-3.672-24.329.211z" data-name="Path 9080" transform="translate(139.05 -285.192)"/>
                        </g>
                        <g id="prefix__Group_12111" data-name="Group 12111" transform="translate(3.902 2.218)">
                            <path id="prefix__Path_9081" d="M-133.659 288.5c-6.09 3.6-5.861 9.353.512 12.847s16.477 3.4 22.568-.2 5.862-9.353-.512-12.846-16.477-3.401-22.568.199z" class="prefix__cls-15" data-name="Path 9081" transform="translate(138.08 -285.744)"/>
                        </g>
                        <g id="prefix__Group_12112" data-name="Group 12112" transform="translate(13.28 7.556)">
                            <path id="prefix__Path_9082" d="M-128.959 291.036c-2.513 1.486-2.419 3.857.211 5.3a10.418 10.418 0 0 0 9.308-.08c2.513-1.486 2.418-3.858-.211-5.3a10.414 10.414 0 0 0-9.308.08z" class="prefix__cls-16" data-name="Path 9082" transform="translate(130.784 -289.897)"/>
                        </g>
                        <path id="prefix__Path_9083" fill="#0bf" d="M-111.869 300.479c6.055-3.581 5.861-9.286-.4-12.786.037.021.076.039.112.059 6.374 3.493 6.6 9.245.512 12.846s-16.194 3.69-22.568.2l-.107-.062c6.374 3.429 16.395 3.323 22.451-.257z" data-name="Path 9083" transform="translate(143.053 -282.97)"/>
                    </g>
                </g>
            </g>
        </g>
        <g id="prefix__Group_12118" data-name="Group 12118" transform="translate(-205.593 36.293)">
            <g id="prefix__Group_12117" data-name="Group 12117">
                <path id="prefix__Path_9084" fill="#db9a70" d="M-181.094 80.531s-1.443 2.1-6.547.658a26.019 26.019 0 0 1-8.636-4.358l-.044 3.16a15.731 15.731 0 0 0 2.137 7.871 10.3 10.3 0 0 0 5.9 4.187l6.046-.919 1.733-2.582.851-3.3z" data-name="Path 9084" transform="translate(266.183 -24.729)"/>
                <path id="prefix__Path_9085" d="M-194.654 196.029s-3.028.919-5.908 5.421l5.124 5.586 2.105.393a25.007 25.007 0 0 0 6.146 8.6c4.659 4.443 6.876 7.059 9.354 4.493s-5.493-16.753-8.151-18.383-8.67-6.11-8.67-6.11z" class="prefix__cls-32" data-name="Path 9085" transform="translate(264.973 9.273)"/>
                <path id="prefix__Path_9086" d="M-189.211 147.054c.443 1.013 16.615 29.713 16.615 29.713l-23.725 41.33s.485 6.62 9 7.718l33.025-45.8a191.744 191.744 0 0 0-11.448-37.2l-10.627-24.293-14.667 8.74z" data-name="Path 9086" transform="translate(266.183 -12.836)"/>
                <path id="prefix__Path_9087" d="M-231.594 156.218s-3.149-1.513-8.852 0v8.366l1.418 1.891a27.6 27.6 0 0 0-1.418 11.58c.473 7.091.324 10.872 4.254 10.635s8.035-17.725 7.089-21.033-2.491-11.439-2.491-11.439z" class="prefix__cls-32" data-name="Path 9087" transform="translate(253.574 -2.275)"/>
                <path id="prefix__Path_9088" d="M-166.275 127.989s-5.793 46.034-11.583 61.87l-5.383 1.473-49.754-14s-5.893-4.788 0-13.257l39.772 5.39-2.624-24.541 15.729-4.051 11.666-12.889" data-name="Path 9088" transform="translate(254.974 -10.136)"/>
                <path id="prefix__Path_9089" fill="#d8d8d8" d="M-195.682 84.321l-4.028 4.673 4.028 15.467 8.361 42.515s9.54 1.79 17.148-11.188c-1.565-18.348-3.356-29.8-3.356-29.8l-.224-7.565.447-8.28-3.816-3.727h-4.925l-5.275 2.582z" data-name="Path 9089" transform="translate(265.216 -22.593)"/>
                <path id="prefix__Path_9090" d="M-189.218 90.47l5.348 2.44 1.621-5.068-.921-2-3.172.755" class="prefix__cls-32" data-name="Path 9090" transform="translate(268.209 -22.158)"/>
                <path id="prefix__Path_9091" d="M-160.936 52.444a21.131 21.131 0 0 1-2.621-3.911c-1.243-2.457-1.739-5.371-1.229-7.23 0 0 1.749-.911 1.785 2.732l.887 1.752a37.831 37.831 0 0 0 .582-4.462c.188-3.015.17-4.133.17-4.133s-.048-.9 1.341-.9a6.389 6.389 0 0 1 5.162 3.27c.955 1.982.306 9.893.019 10.809s-.973 2.486-2.38 2.771a8.3 8.3 0 0 1-3.716-.698z" class="prefix__cls-34" data-name="Path 9091" transform="translate(275.122 -36.293)"/>
                <path id="prefix__Path_9092" d="M-163.621 50.461l.862-3.054s1.978 2.914 6.453 1.943l-.474 4.025z" class="prefix__cls-35" data-name="Path 9092" transform="translate(275.511 -33.123)"/>
                <path id="prefix__Path_9093" d="M-181.88 85.074s11.544-4.246 16.467-14.316 7.384-22.824 7.384-22.824.671 3.579 7.161 2.685c.059.455 0 17.085-5.534 28.763-4.288 9.056-19.546 22.473-19.546 22.473z" data-name="Path 9093" transform="translate(270.302 -32.972)"/>
                <path id="prefix__Path_9094" d="M-172.918 96.494c-.357-13.585-7.507-19.663-7.507-19.663h-6.555v1.181a7.006 7.006 0 0 1 1.98 1.35 6.926 6.926 0 0 1 1.966 4.746v.168a6.519 6.519 0 0 1-.814 3.085c6.039 9.885 4.014 23.381 5.764 34.49 1.308 8.3 2.082 14.011 3.133 17.9a23.008 23.008 0 0 0 2.032 5.007s.358-34.679.001-48.264z" class="prefix__cls-32" data-name="Path 9094" transform="translate(268.847 -24.729)"/>
                <path id="prefix__Path_9095" d="M-194.482 81.838s-.474 2.987 4.29 11.8c5.858 10.832 15.73 40.756 4.29 69.714 0 0-8.223 7.15-23.237-7.151 0 0 14.3-24.309 4.648-41.827 0 0-3.933-12.869-.359-24.668z" class="prefix__cls-32" data-name="Path 9095" transform="translate(262.526 -23.301)"/>
                <path id="prefix__Path_9096" d="M-197.852 82.752s-3.139 6.876 4.036 22.98h3.123l-2.222 3.464 9.232 27.443s3.102-34.825-14.169-53.887z" data-name="Path 9096" transform="translate(265.551 -23.04)"/>
                <path id="prefix__Path_9097" d="M-236.034 100.612a21.072 21.072 0 0 0-1.666-4.4c-1.281-2.437-3.369-4.532-5.178-5.194 0 0-1.756.9 1.191 3.04l.913 1.739a38.052 38.052 0 0 1-3.973-2.114c-2.565-1.6-3.466-2.258-3.466-2.258s-.7-.562-1.509.571a6.385 6.385 0 0 0-.329 6.1c1.06 1.928 7.883 5.987 8.8 6.282s2.589.65 3.639-.332a8.3 8.3 0 0 0 1.578-3.434z" class="prefix__cls-34" data-name="Path 9097" transform="translate(250.677 -20.683)"/>
                <path id="prefix__Path_9098" d="M-238.987 96.933l3.316 1.76.878 5.135-5.192 1.431-2.494-2.259s4.566-1.725 3.492-6.067z" class="prefix__cls-35" data-name="Path 9098" transform="translate(253.016 -18.995)"/>
                <path id="prefix__Path_9099" d="M-195.487 87.957s-13.942 32.891-42.9 11.44c0 0 2.933 5.55-3.576 7.264 0 0 12.512 13.471 27.17 15.08s22.523-7.329 22.523-7.329 6.794-16.801-3.217-26.455z" data-name="Path 9099" transform="translate(253.163 -21.555)"/>
                <path id="prefix__Path_9100" d="M-183.795 80.552s6.09 5.832 7.214 21.054l-1.767 1.085 1.767 1.928-2.411 16.171s-.5-14.923-2.064-21.312-2.739-18.926-2.739-18.926z" data-name="Path 9100" transform="translate(269.756 -23.668)"/>
                <path id="prefix__Path_9101" fill="#f8f8f8" d="M-195.84 79.29s-3.685 2.677-1.443 7.57 11.4 9.544 11.4 9.544l2.047-7.935 5.264 4.979s3.424-9.179-2.645-14.158c0 0 1.81 8.167-2.619 9.179-5.615 1.286-11.225-3.111-12.004-9.179z" data-name="Path 9101" transform="translate(265.702 -24.028)"/>
                <path id="prefix__Path_9102" d="M-195.317 80.975s4.317 5.15 13.477 5.4a10.678 10.678 0 0 0 4.712-1.7s2.355-6.935-2.225-15.572l-1.047-1.439-.262-1.831-1.963-3.533s-1.395 5.1-12.736 5.758l-.873 2.734 2.225 2.5.523 4.973-1.875-3.14a2.477 2.477 0 0 0-3.172-.554c-2.752 1.169-.144 6.404 3.216 6.404z" class="prefix__cls-34" data-name="Path 9102" transform="translate(265.222 -28.873)"/>
                <path id="prefix__Path_9103" d="M-192.064 80.777l-.523-4.973-2.225-2.5.452-1.416s10.612-.467 13.156-7.075a9.949 9.949 0 0 0 1.7-6.273l-2.434 1.343s1.26-4.2-1.594-6.377l-3.157 3.86a12.5 12.5 0 0 0-15.3 5.036l-2.685-.5 1.846 1.846-1.846 1.071h1.846a12.628 12.628 0 0 0-.56 11.733 12.915 12.915 0 0 0 9.492 6.939s-4.549-1.378-3.894-5c.355-1.96 2.63-1.632 4.127.359a18.274 18.274 0 0 0 1.599 1.927z" data-name="Path 9103" transform="translate(263.801 -31.383)"/>
                <path id="prefix__Path_9104" d="M-196.648 68.4s3.622 1.991 10.832-1.077l-3.157-1.585-4.973.784" data-name="Path 9104" transform="translate(266.089 -27.894)"/>
            </g>
            <path id="prefix__Path_9105" d="M-185.057 91.342s1.753 24.766 20.774 30.808l5.593-1.374-2.238-6.011S-176.74 112-185.057 91.342z" class="prefix__cls-32" data-name="Path 9105" transform="translate(269.396 -20.59)"/>
        </g>
    </g>
</svg>
