<svg width="18" height="19" viewBox="0 0 18 19" fill="none" xmlns="http://www.w3.org/2000/svg">
<path d="M9 17.5234C13.4183 17.5234 17 13.9417 17 9.52344C17 5.10516 13.4183 1.52344 9 1.52344C4.58172 1.52344 1 5.10516 1 9.52344C1 13.9417 4.58172 17.5234 9 17.5234Z" stroke="#4D4D4D" stroke-width="1.5" stroke-linecap="round" stroke-linejoin="round"/>
<path d="M16.1806 13.0545L11.6567 10.2721C11.5774 10.2234 11.4888 10.1917 11.3965 10.1793L9.49495 9.92297C9.35216 9.90372 9.20698 9.93125 9.08115 10.0014C8.95531 10.0716 8.85561 10.1807 8.79696 10.3123L7.65539 12.8738C7.6023 12.9929 7.58532 13.125 7.60655 13.2537C7.62777 13.3824 7.68627 13.502 7.77481 13.5978L9.34147 15.2923C9.41249 15.3691 9.46444 15.4616 9.49311 15.5622C9.52177 15.6628 9.52636 15.7688 9.50649 15.8715L9.18737 17.5212" stroke="#4D4D4D" stroke-width="1.5" stroke-linecap="round" stroke-linejoin="round"/>
<path d="M3.74624 3.49048L3.00089 5.25296C2.93443 5.41011 2.93076 5.58676 2.99062 5.74653L3.9482 8.30222C3.98741 8.40687 4.0523 8.49999 4.13691 8.57301C4.22152 8.64603 4.32313 8.6966 4.43239 8.72009L6.21822 9.10392C6.31731 9.12521 6.41025 9.16882 6.48995 9.23143C6.56966 9.29404 6.63404 9.374 6.6782 9.46523L6.99533 10.1204C7.04991 10.2331 7.13515 10.3282 7.24128 10.3948C7.34741 10.4613 7.47013 10.4966 7.5954 10.4966H8.71478" stroke="#4D4D4D" stroke-width="1.5" stroke-linecap="round" stroke-linejoin="round"/>
<path d="M11.0379 1.78589L11.8157 3.17909C11.8892 3.31079 11.9159 3.46354 11.8914 3.61238C11.8669 3.76121 11.7927 3.89734 11.6808 3.99852L9.4382 6.02665C9.40014 6.06107 9.35824 6.09098 9.31332 6.11579L8.29317 6.67915C8.19449 6.73364 8.08361 6.76222 7.97089 6.76222H6.19211C6.06093 6.76222 5.93267 6.80092 5.82339 6.87347C5.7141 6.94602 5.62865 7.0492 5.57772 7.17009L4.88379 8.81745" stroke="#4D4D4D" stroke-width="1.5" stroke-linecap="round" stroke-linejoin="round"/>
</svg>
