<svg width="130" height="74" viewBox="0 0 130 74" fill="none" xmlns="http://www.w3.org/2000/svg">
<g filter="url(#filter0_i_94_8326)">
<path d="M129.93 66.794H120.39V50H129.93V66.794Z" fill="#212529"/>
<path d="M129.93 66.7934C129.93 70.5164 126.92 73.5204 123.2 73.5204H120.13V60.0664H123.2C126.92 60.0664 129.93 63.0864 129.93 66.7934Z" fill="#1E1E1E"/>
<path d="M27.92 57.8297L2.241 35.4347C-0.747 32.4467 -0.747 27.6207 2.241 24.6327L27.92 2.237C29.36 0.7989 31.2899 0 33.3199 0H122.98C126.81 0 129.91 3.11591 129.91 6.93481V60.0667H33.3199C31.3099 60.0667 29.36 59.2677 27.92 57.8297Z" fill="#212529"/>
</g>
<path d="M36.7898 20.9292C36.7898 21.2282 36.7197 21.5082 36.5697 21.7692C36.4397 22.0302 36.2098 22.2412 35.9098 22.4012C35.6098 22.5612 35.2298 22.6412 34.7698 22.6412H33.8397V24.7852H32.7197V19.2012H34.7698C35.2098 19.2012 35.5698 19.2762 35.8798 19.4252C36.1798 19.5742 36.4098 19.7802 36.5598 20.0412C36.7098 20.3022 36.7898 20.5982 36.7898 20.9292ZM34.7297 21.7372C35.0397 21.7372 35.2598 21.6682 35.4098 21.5292C35.5598 21.3852 35.6398 21.1852 35.6398 20.9292C35.6398 20.3852 35.3297 20.1132 34.7297 20.1132H33.8397V21.7372H34.7297ZM39.5498 24.8572C39.1298 24.8572 38.7398 24.7642 38.3998 24.5772C38.0598 24.3852 37.7897 24.1162 37.5897 23.7692C37.3997 23.4222 37.3098 23.0222 37.3098 22.5692C37.3098 22.1162 37.3997 21.7162 37.5997 21.3692C37.7997 21.0222 38.0798 20.7562 38.4298 20.5692C38.7698 20.3772 39.1597 20.2812 39.5897 20.2812C40.0097 20.2812 40.3998 20.3772 40.7498 20.5692C41.0898 20.7562 41.3598 21.0222 41.5598 21.3692C41.7598 21.7162 41.8698 22.1162 41.8698 22.5692C41.8698 23.0222 41.7598 23.4222 41.5498 23.7692C41.3498 24.1162 41.0697 24.3852 40.7197 24.5772C40.3697 24.7642 39.9898 24.8572 39.5498 24.8572ZM39.5498 23.8812C39.7598 23.8812 39.9498 23.8332 40.1198 23.7372C40.2998 23.6362 40.4498 23.4862 40.5498 23.2892C40.6598 23.0922 40.7097 22.8522 40.7097 22.5692C40.7097 22.1482 40.5998 21.8252 40.3798 21.6012C40.1598 21.3722 39.8897 21.2572 39.5697 21.2572C39.2497 21.2572 38.9798 21.3722 38.7598 21.6012C38.5498 21.8252 38.4397 22.1482 38.4397 22.5692C38.4397 22.9902 38.5498 23.3162 38.7498 23.5452C38.9698 23.7692 39.2298 23.8812 39.5498 23.8812ZM48.8297 20.3532L47.5298 24.7852H46.3297L45.5198 21.6892L44.7097 24.7852H43.4897L42.1897 20.3532H43.3297L44.1097 23.7292L44.9597 20.3532H46.1398L46.9697 23.7212L47.7598 20.3532H48.8297ZM53.5598 22.4732C53.5598 22.6332 53.5498 22.7772 53.5198 22.9052H50.2798C50.3098 23.2252 50.4198 23.4762 50.6198 23.6572C50.8198 23.8382 51.0597 23.9292 51.3497 23.9292C51.7597 23.9292 52.0597 23.7502 52.2397 23.3932H53.4397C53.3197 23.8202 53.0697 24.1722 52.7097 24.4492C52.3497 24.7212 51.8998 24.8572 51.3698 24.8572C50.9498 24.8572 50.5597 24.7642 50.2197 24.5772C49.8797 24.3852 49.6198 24.1162 49.4298 23.7692C49.2398 23.4222 49.1498 23.0222 49.1498 22.5692C49.1498 22.1102 49.2398 21.7082 49.4298 21.3612C49.6198 21.0142 49.8797 20.7482 50.2097 20.5612C50.5497 20.3742 50.9398 20.2812 51.3698 20.2812C51.7898 20.2812 52.1698 20.3722 52.4998 20.5532C52.8398 20.7342 53.0998 20.9932 53.2798 21.3292C53.4598 21.6602 53.5598 22.0412 53.5598 22.4732ZM52.3998 22.1532C52.3898 21.8652 52.2897 21.6362 52.0797 21.4652C51.8797 21.2892 51.6297 21.2012 51.3397 21.2012C51.0597 21.2012 50.8298 21.2862 50.6398 21.4572C50.4498 21.6222 50.3398 21.8542 50.2898 22.1532H52.3998ZM55.4897 21.0412C55.6397 20.8062 55.8198 20.6222 56.0498 20.4892C56.2898 20.3562 56.5597 20.2892 56.8497 20.2892V21.4652H56.5598C56.2098 21.4652 55.9398 21.5482 55.7598 21.7132C55.5798 21.8782 55.4897 22.1662 55.4897 22.5772V24.7852H54.3698V20.3532H55.4897V21.0412ZM61.7297 22.4732C61.7297 22.6332 61.7197 22.7772 61.6997 22.9052H58.4597C58.4797 23.2252 58.5998 23.4762 58.7898 23.6572C58.9898 23.8382 59.2298 23.9292 59.5198 23.9292C59.9398 23.9292 60.2298 23.7502 60.4098 23.3932H61.6198C61.4898 23.8202 61.2398 24.1722 60.8798 24.4492C60.5198 24.7212 60.0698 24.8572 59.5398 24.8572C59.1198 24.8572 58.7298 24.7642 58.3898 24.5772C58.0598 24.3852 57.7897 24.1162 57.5997 23.7692C57.4097 23.4222 57.3197 23.0222 57.3197 22.5692C57.3197 22.1102 57.4097 21.7082 57.5997 21.3612C57.7897 21.0142 58.0498 20.7482 58.3798 20.5612C58.7198 20.3742 59.1098 20.2812 59.5398 20.2812C59.9698 20.2812 60.3398 20.3722 60.6698 20.5532C61.0098 20.7342 61.2697 20.9932 61.4497 21.3292C61.6397 21.6602 61.7297 22.0412 61.7297 22.4732ZM60.5697 22.1532C60.5597 21.8652 60.4598 21.6362 60.2598 21.4652C60.0498 21.2892 59.8098 21.2012 59.5098 21.2012C59.2398 21.2012 58.9998 21.2862 58.8098 21.4572C58.6198 21.6222 58.5097 21.8542 58.4597 22.1532H60.5697ZM62.2598 22.5532C62.2598 22.1052 62.3498 21.7082 62.5198 21.3612C62.6998 21.0142 62.9498 20.7482 63.2598 20.5612C63.5698 20.3742 63.9098 20.2812 64.2898 20.2812C64.5798 20.2812 64.8497 20.3452 65.1097 20.4732C65.3797 20.5962 65.5797 20.7612 65.7397 20.9692V18.8652H66.8698V24.7852H65.7397V24.1292C65.5997 24.3482 65.3998 24.5242 65.1498 24.6572C64.8998 24.7902 64.6098 24.8572 64.2798 24.8572C63.9098 24.8572 63.5698 24.7612 63.2598 24.5692C62.9498 24.3772 62.6998 24.1082 62.5198 23.7612C62.3498 23.4092 62.2598 23.0062 62.2598 22.5532ZM65.7498 22.5692C65.7498 22.2972 65.6897 22.0652 65.5897 21.8732C65.4797 21.6762 65.3398 21.5262 65.1498 21.4252C64.9698 21.3182 64.7797 21.2652 64.5697 21.2652C64.3597 21.2652 64.1697 21.3162 63.9897 21.4172C63.8197 21.5182 63.6698 21.6682 63.5598 21.8652C63.4598 22.0572 63.3998 22.2862 63.3998 22.5532C63.3998 22.8202 63.4598 23.0542 63.5598 23.2572C63.6698 23.4542 63.8197 23.6062 63.9897 23.7132C64.1797 23.8202 64.3697 23.8732 64.5697 23.8732C64.7797 23.8732 64.9698 23.8222 65.1498 23.7212C65.3398 23.6142 65.4797 23.4652 65.5897 23.2732C65.6897 23.0762 65.7498 22.8412 65.7498 22.5692ZM70.9897 21.0012C71.1397 20.7882 71.3397 20.6142 71.5897 20.4812C71.8397 20.3482 72.1297 20.2812 72.4597 20.2812C72.8397 20.2812 73.1797 20.3742 73.4797 20.5612C73.7897 20.7482 74.0297 21.0142 74.2097 21.3612C74.3897 21.7022 74.4797 22.1002 74.4797 22.5532C74.4797 23.0062 74.3897 23.4092 74.2097 23.7612C74.0297 24.1082 73.7897 24.3772 73.4797 24.5692C73.1797 24.7612 72.8397 24.8572 72.4597 24.8572C72.1297 24.8572 71.8397 24.7932 71.5897 24.6652C71.3397 24.5322 71.1397 24.3612 70.9897 24.1532V24.7852H69.8698V18.8652H70.9897V21.0012ZM73.3397 22.5532C73.3397 22.2862 73.2798 22.0572 73.1698 21.8652C73.0598 21.6682 72.9197 21.5182 72.7397 21.4172C72.5597 21.3162 72.3698 21.2652 72.1598 21.2652C71.9598 21.2652 71.7697 21.3182 71.5897 21.4252C71.4097 21.5262 71.2698 21.6762 71.1498 21.8732C71.0498 22.0702 70.9897 22.3022 70.9897 22.5692C70.9897 22.8362 71.0498 23.0682 71.1498 23.2652C71.2698 23.4622 71.4097 23.6142 71.5897 23.7212C71.7697 23.8222 71.9598 23.8732 72.1598 23.8732C72.3698 23.8732 72.5597 23.8202 72.7397 23.7132C72.9197 23.6062 73.0598 23.4542 73.1698 23.2572C73.2798 23.0602 73.3397 22.8252 73.3397 22.5532ZM79.5398 20.3532L76.7898 26.8812H75.5997L76.5598 24.6732L74.7798 20.3532H76.0398L77.1798 23.4492L78.3397 20.3532H79.5398Z" fill="white"/>
<path d="M41.4598 32.6798C41.3298 32.6798 41.2299 32.7868 41.2299 32.9118V33.7228V33.8008V35.7418C41.2299 37.4308 39.8599 38.8028 38.1699 38.8028C36.4799 38.8028 35.1199 37.4308 35.1199 35.7418V29.7258V29.1168C35.1199 28.9918 35.0099 28.8848 34.8899 28.8848H32.3999C32.2699 28.8948 32.1699 28.9918 32.1699 29.1168V35.6548C32.1699 38.9668 34.8099 41.7188 38.1299 41.7378C41.4699 41.7668 44.1799 39.0628 44.1799 35.7218V32.9118C44.1799 32.7868 44.0698 32.6798 43.9498 32.6798H41.4598Z" fill="white"/>
<path d="M36.7 41.4099C36.7 41.4099 40.55 40.0489 41.05 36.7559C41.05 36.7559 40.4601 38.7449 38.1801 38.8029L36.21 41.4199L36.39 41.4779L36.7 41.4099Z" fill="url(#paint0_linear_94_8326)"/>
<path d="M43.9404 31.6858H41.4604C41.3304 31.6858 41.2305 31.5798 41.2305 31.4538V29.1168C41.2305 28.9918 41.3304 28.8848 41.4604 28.8848H43.9404C44.0604 28.8848 44.1705 28.9918 44.1705 29.1168V31.4638C44.1705 31.5888 44.0604 31.6858 43.9404 31.6858Z" fill="white"/>
<path d="M48.3795 32.6799V34.3219C48.5395 33.7619 48.8695 33.3169 49.3495 32.9889C49.8295 32.6699 50.3895 32.5059 51.0095 32.5059V35.7409C50.3495 35.6349 49.7296 35.7609 49.1796 36.1079C48.6396 36.4559 48.3695 37.0349 48.3695 37.8369V41.4869H45.4395V32.6799H48.3795Z" fill="white"/>
<path d="M56.6005 41.7453C55.3205 41.7453 54.2505 41.4753 53.3905 40.9343C52.5305 40.3933 51.9205 39.6403 51.5605 38.6843L54.2505 37.1203C54.7105 38.2113 55.5204 38.7613 56.6904 38.7613C57.6504 38.7613 58.1305 38.4813 58.1305 37.9313C58.1305 37.5833 57.8505 37.2843 57.3005 37.0523C57.1205 36.9843 56.6005 36.8203 55.7605 36.5793C54.5605 36.2413 53.6605 35.7683 53.0305 35.1503C52.4105 34.5413 52.0905 33.7303 52.0905 32.7163C52.0905 31.5773 52.5005 30.6603 53.3105 29.9553C54.1405 29.2503 55.1605 28.9023 56.3705 28.9023C57.4005 28.9023 58.3205 29.1433 59.1205 29.6363C59.9205 30.1193 60.5304 30.8243 60.9504 31.7223L58.3105 33.2763C57.9205 32.3593 57.2805 31.9053 56.3905 31.9053C56.0205 31.9053 55.7405 31.9823 55.5405 32.1273C55.3305 32.2723 55.2405 32.4753 55.2405 32.7163C55.2405 32.9873 55.3805 33.2183 55.6705 33.4023C55.9605 33.5853 56.5205 33.8073 57.3505 34.0493C57.9705 34.2323 58.4505 34.3973 58.8005 34.5413C59.1805 34.7063 59.5805 34.9283 60.0005 35.2083C60.8505 35.7683 61.2805 36.6663 61.2805 37.9023C61.2805 39.1093 60.8505 40.0553 60.0005 40.7413C59.1405 41.4073 58.0105 41.7453 56.6005 41.7453Z" fill="white"/>
<path d="M67.7697 32.4375C68.9497 32.4375 69.9196 32.8815 70.7196 33.7795C71.5196 34.6685 71.9097 35.7785 71.9097 37.0925C71.9097 38.4055 71.5196 39.5155 70.7196 40.4235C69.9196 41.3025 68.9397 41.7465 67.7697 41.7465C66.6997 41.7465 65.8697 41.3985 65.2697 40.6935V45.0105H62.3496V32.6795H65.2697V33.4905C65.8697 32.7855 66.6997 32.4375 67.7697 32.4375ZM65.7797 38.4725C66.1197 38.8205 66.5696 39.0045 67.1296 39.0045C67.6796 39.0045 68.1196 38.8305 68.4696 38.4725C68.8096 38.1065 68.9796 37.6425 68.9796 37.0825C68.9796 36.5225 68.8096 36.0585 68.4696 35.6915C68.1296 35.3445 67.6896 35.1605 67.1296 35.1605C66.5796 35.1605 66.1297 35.3345 65.7797 35.6915C65.4497 36.0585 65.2697 36.5225 65.2697 37.0825C65.2697 37.6425 65.4497 38.1155 65.7797 38.4725Z" fill="white"/>
<path d="M79.3497 33.49V32.678H82.2798V41.485H79.3497V40.674C78.7497 41.379 77.9197 41.726 76.8497 41.726C75.6697 41.726 74.6798 41.282 73.8998 40.404C73.1198 39.515 72.7197 38.405 72.7197 37.072C72.7197 35.73 73.1198 34.629 73.8998 33.76C74.6798 32.872 75.6797 32.418 76.8497 32.418C77.9197 32.437 78.7497 32.785 79.3497 33.49ZM76.1698 38.472C76.4998 38.82 76.9398 39.003 77.5098 39.003C78.0798 39.003 78.5197 38.83 78.8497 38.472C79.1897 38.105 79.3597 37.642 79.3597 37.082C79.3597 36.522 79.1897 36.058 78.8497 35.691C78.5197 35.344 78.0798 35.16 77.5098 35.16C76.9398 35.16 76.4998 35.334 76.1698 35.691C75.8298 36.058 75.6598 36.522 75.6598 37.082C75.6598 37.642 75.8298 38.115 76.1698 38.472Z" fill="white"/>
<path d="M88.1301 37.7862L89.5001 32.6772H92.7501L89.7401 41.3392C89.2601 42.6622 88.6101 43.6182 87.7501 44.2072C86.8901 44.7962 85.7802 45.0572 84.4202 44.9992V42.2472C85.0402 42.2472 85.5101 42.1702 85.8301 42.0152C86.1501 41.8612 86.4101 41.5902 86.6001 41.1852L83.0801 32.6582H86.3501L88.1301 37.7862Z" fill="white"/>
<path d="M97.4098 41.7367C96.0698 41.7367 94.9598 41.2927 94.0598 40.3937C93.1698 39.5057 92.7197 38.3957 92.7197 37.0817C92.7197 35.7687 93.1598 34.6677 94.0598 33.7697C94.9498 32.8817 96.0698 32.4277 97.4098 32.4277C98.2798 32.4277 99.0698 32.6307 99.7698 33.0357C100.49 33.4417 101.03 33.9917 101.42 34.6967L98.9198 36.1457C98.5998 35.5657 98.0898 35.2857 97.3898 35.2857C96.8998 35.2857 96.4798 35.4497 96.1498 35.7877C95.8198 36.1257 95.6598 36.5507 95.6598 37.0817C95.6598 37.6127 95.8198 38.0377 96.1498 38.3757C96.4798 38.7137 96.8998 38.8777 97.3898 38.8777C98.0998 38.8777 98.6098 38.5887 98.9198 37.9997L101.42 39.4477C101.04 40.1527 100.49 40.7127 99.7698 41.1187C99.0698 41.5237 98.2798 41.7367 97.4098 41.7367Z" fill="white"/>
<path d="M110.82 38.154H104.75C105.04 38.868 105.7 39.225 106.72 39.225C107.34 39.225 107.88 39.023 108.32 38.607L110.43 40.085C109.58 41.176 108.32 41.726 106.65 41.726C105.17 41.726 103.97 41.292 103.06 40.423C102.17 39.544 101.72 38.434 101.72 37.091C101.72 35.768 102.16 34.658 103.04 33.76C103.92 32.872 105.04 32.418 106.4 32.418C107.71 32.418 108.8 32.862 109.65 33.741C110.51 34.61 110.94 35.711 110.94 37.053C110.95 37.478 110.91 37.845 110.82 38.154ZM104.71 36.135H108.09C107.87 35.315 107.32 34.899 106.44 34.899C105.53 34.899 104.96 35.315 104.71 36.135Z" fill="white"/>
<defs>
<filter id="filter0_i_94_8326" x="0" y="0" width="129.93" height="83.5195" filterUnits="userSpaceOnUse" color-interpolation-filters="sRGB">
<feFlood flood-opacity="0" result="BackgroundImageFix"/>
<feBlend mode="normal" in="SourceGraphic" in2="BackgroundImageFix" result="shape"/>
<feColorMatrix in="SourceAlpha" type="matrix" values="0 0 0 0 0 0 0 0 0 0 0 0 0 0 0 0 0 0 127 0" result="hardAlpha"/>
<feOffset dy="10"/>
<feGaussianBlur stdDeviation="10"/>
<feComposite in2="hardAlpha" operator="arithmetic" k2="-1" k3="1"/>
<feColorMatrix type="matrix" values="0 0 0 0 0 0 0 0 0 0 0 0 0 0 0 0 0 0 0.1 0"/>
<feBlend mode="normal" in2="shape" result="effect1_innerShadow_94_8326"/>
</filter>
<linearGradient id="paint0_linear_94_8326" x1="41.1801" y1="38.5379" x2="37.49" y2="39.4169" gradientUnits="userSpaceOnUse">
<stop stop-color="#082C6B"/>
<stop offset="1" stop-color="#2F7BFF" stop-opacity="0"/>
</linearGradient>
</defs>
</svg>
