<svg xmlns="http://www.w3.org/2000/svg" width="187.115" height="171.769" viewBox="0 0 187.115 171.769">
    <defs>
        <style>
            .prefix__cls-1,.prefix__cls-4{fill:#da2419}.prefix__cls-14,.prefix__cls-15,.prefix__cls-2,.prefix__cls-3{fill:#fff}.prefix__cls-2{opacity:.3}.prefix__cls-4{opacity:.4}.prefix__cls-5{fill:#ebebeb}.prefix__cls-11{fill:#ff8b7b}.prefix__cls-12{opacity:.2}.prefix__cls-14{opacity:.5}.prefix__cls-15{opacity:.7}
        </style>
    </defs>
    <g id="prefix__Are_You_Affiliates" data-name="Are You Affiliates" transform="translate(-79.51 -107.667)">
        <g id="prefix__Desk" transform="translate(79.51 107.667)">
            <g id="prefix__Group_12509" data-name="Group 12509">
                <g id="prefix__Group_12490" data-name="Group 12490" transform="translate(0 78.986)">
                    <path id="prefix__Rectangle_3438" d="M0 0H187.115V6.715H0z" class="prefix__cls-1" data-name="Rectangle 3438"/>
                    <path id="prefix__Rectangle_3439" d="M0 0H50.077V6.715H0z" class="prefix__cls-2" data-name="Rectangle 3439"/>
                    <path id="prefix__Path_9742" d="M168.338 263.278h-4.358l2.283 84.14h4.151l2.283-84.14z" class="prefix__cls-1" data-name="Path 9742" transform="translate(-117.459 -256.563)"/>
                    <path id="prefix__Path_9743" d="M166.319 348.893h2.076v-82.332l-4.288.784z" class="prefix__cls-2" data-name="Path 9743" transform="translate(-117.516 -258.038)"/>
                    <path id="prefix__Path_9744" d="M93.364 263.278h-4.358l2.283 84.14h4.151l2.283-84.14z" class="prefix__cls-1" data-name="Path 9744" transform="translate(-83.776 -256.563)"/>
                    <path id="prefix__Path_9745" d="M91.345 348.893h2.076v-82.332l-4.288.784z" class="prefix__cls-2" data-name="Path 9745" transform="translate(-83.833 -258.038)"/>
                    <path id="prefix__Path_9746" d="M398.3 263.278h-4.358l2.283 84.14h4.151l2.283-84.14z" class="prefix__cls-1" data-name="Path 9746" transform="translate(-220.772 -256.563)"/>
                    <path id="prefix__Path_9747" d="M396.281 348.893h2.076v-82.332l-4.288.784z" class="prefix__cls-2" data-name="Path 9747" transform="translate(-220.829 -258.038)"/>
                    <path id="prefix__Path_9748" d="M323.326 263.278h-4.358l2.283 84.14h4.149l2.283-84.14z" class="prefix__cls-1" data-name="Path 9748" transform="translate(-187.089 -256.563)"/>
                    <path id="prefix__Path_9749" d="M321.307 348.893h2.076v-82.332l-4.288.784z" class="prefix__cls-2" data-name="Path 9749" transform="translate(-187.146 -258.038)"/>
                </g>
                <g id="prefix__Group_12493" data-name="Group 12493" transform="translate(41.94 43.047)">
                    <path id="prefix__Path_9750" d="M202.54 185.829h-44.519a2.293 2.293 0 0 0-2.3 2.906l5.929 28.28a3.786 3.786 0 0 0 3.515 2.906h44.519a2.293 2.293 0 0 0 2.3-2.906l-5.929-28.28a3.785 3.785 0 0 0-3.515-2.906z" data-name="Path 9750" transform="translate(-155.662 -185.829)"/>
                    <path id="prefix__Path_9751" d="M166.864 218.886a2.636 2.636 0 0 1-2.377-1.982l-5.929-28.28a1.294 1.294 0 0 1 .206-1.1 1.19 1.19 0 0 1 .953-.4h44.519a2.638 2.638 0 0 1 2.378 1.982l5.929 28.28a1.3 1.3 0 0 1-.206 1.1 1.177 1.177 0 0 1-.953.4z" class="prefix__cls-3" data-name="Path 9751" transform="translate(-156.945 -186.409)"/>
                    <path id="prefix__Path_9752" d="M230.06 217.763l-5.618-26.794a1.092 1.092 0 0 1 1.068-1.315h7.223a1.091 1.091 0 0 1 1.068.867l5.618 26.794a1.091 1.091 0 0 1-1.068 1.315h-7.224a1.091 1.091 0 0 1-1.067-.867z" class="prefix__cls-4" data-name="Path 9752" transform="translate(-186.552 -187.547)"/>
                    <g id="prefix__Group_12491" data-name="Group 12491" transform="translate(5.077 3.268)">
                        <path id="prefix__Path_9753" d="M165.124 192.926l-.244-1.162h8.92l.244 1.162z" class="prefix__cls-1" data-name="Path 9753" transform="translate(-164.88 -191.763)"/>
                        <path id="prefix__Path_9754" d="M172.6 198.16l-.242-1.16H188l.244 1.162z" class="prefix__cls-5" data-name="Path 9754" transform="translate(-168.24 -194.115)"/>
                        <path id="prefix__Path_9755" d="M174.1 203.394l-.244-1.162h17.524l.244 1.162z" class="prefix__cls-5" data-name="Path 9755" transform="translate(-168.912 -196.466)"/>
                        <path id="prefix__Path_9756" d="M175.592 208.628l-.244-1.162h14.113l.244 1.162z" class="prefix__cls-5" data-name="Path 9756" transform="translate(-169.583 -198.818)"/>
                    </g>
                    <g id="prefix__Group_12492" data-name="Group 12492" transform="translate(7.788 16.594)">
                        <path id="prefix__Path_9757" d="M170.046 217.122l-.244-1.162h5.643l.244 1.162z" class="prefix__cls-1" data-name="Path 9757" transform="translate(-169.803 -215.96)"/>
                        <path id="prefix__Path_9758" d="M177.524 222.356l-.244-1.162h6.876l.244 1.162z" class="prefix__cls-5" data-name="Path 9758" transform="translate(-173.162 -218.311)"/>
                        <path id="prefix__Path_9759" d="M193 222.356l-.244-1.162h6.876l.244 1.162z" class="prefix__cls-5" data-name="Path 9759" transform="translate(-180.114 -218.311)"/>
                        <path id="prefix__Path_9760" d="M179.019 227.59l-.244-1.162h23.242l.244 1.162z" class="prefix__cls-5" data-name="Path 9760" transform="translate(-173.834 -220.663)"/>
                        <path id="prefix__Path_9761" d="M180.515 232.824l-.244-1.162h17.721l.244 1.162z" class="prefix__cls-5" data-name="Path 9761" transform="translate(-174.506 -223.014)"/>
                    </g>
                    <path id="prefix__Path_9762" d="M228.811 247.422h-58.579c-1.6 0-2.631.908-2.3 2.017h64.39c-.331-1.109-1.913-2.017-3.511-2.017z" data-name="Path 9762" transform="translate(-161.148 -213.5)"/>
                </g>
                <g id="prefix__Group_12505" data-name="Group 12505" transform="translate(26.135)">
                    <path id="prefix__Path_9763" fill="#da2419" d="M132.605 149.916l-5.618-26.795a1.092 1.092 0 0 1 1.068-1.315h45.493a1.091 1.091 0 0 1 1.068.867l5.618 26.795a1.091 1.091 0 0 1-1.068 1.315h-45.493a1.092 1.092 0 0 1-1.068-.867z" data-name="Path 9763" opacity="0.1" transform="translate(-126.964 -114.019)"/>
                    <g id="prefix__Group_12504" data-name="Group 12504" transform="translate(.363)">
                        <g id="prefix__Group_12498" data-name="Group 12498" transform="translate(10.093)">
                            <g id="prefix__Group_12494" data-name="Group 12494" transform="translate(1.593 7.643)">
                                <path id="prefix__Path_9764" d="M158.605 122.572h-9.549l-.214-1.028h9.549z" class="prefix__cls-1" data-name="Path 9764" transform="translate(-148.842 -121.544)"/>
                                <path id="prefix__Path_9765" d="M160.448 125.547h-3.833l-.214-1.028h3.833z" class="prefix__cls-4" data-name="Path 9765" transform="translate(-152.238 -122.881)"/>
                                <path id="prefix__Path_9766" d="M170.338 125.547h-5.905l-.214-1.028h5.905z" class="prefix__cls-4" data-name="Path 9766" transform="translate(-155.75 -122.881)"/>
                                <path id="prefix__Path_9767" d="M169.679 128.522h-12.444l-.214-1.028h12.443z" class="prefix__cls-4" data-name="Path 9767" transform="translate(-152.517 -124.217)"/>
                                <path id="prefix__Path_9768" d="M168.374 131.5h-10.518l-.214-1.028h10.518z" class="prefix__cls-4" data-name="Path 9768" transform="translate(-152.795 -125.554)"/>
                            </g>
                            <path id="prefix__Path_9769" d="M184.337 163.949h-6.7l.214 1.027h6.7z" class="prefix__cls-4" data-name="Path 9769" transform="translate(-160.187 -132.952)"/>
                            <g id="prefix__Group_12495" data-name="Group 12495" transform="translate(5.779 27.72)">
                                <path id="prefix__Path_9770" d="M166.463 159.026h-9.807l-.214-1.026h9.807z" class="prefix__cls-1" data-name="Path 9770" transform="translate(-156.442 -157.999)"/>
                                <path id="prefix__Path_9771" d="M174.363 166.923h-9.121l.214 1.027h9.121z" class="prefix__cls-4" data-name="Path 9771" transform="translate(-160.395 -162.008)"/>
                                <path id="prefix__Path_9772" d="M171.317 163.949h-6.7l.214 1.027h6.7z" class="prefix__cls-4" data-name="Path 9772" transform="translate(-160.117 -160.672)"/>
                                <path id="prefix__Path_9773" d="M177.392 160.974H164l.214 1.027h13.391z" class="prefix__cls-4" data-name="Path 9773" transform="translate(-159.838 -159.335)"/>
                            </g>
                            <g id="prefix__Group_12496" data-name="Group 12496">
                                <path id="prefix__Path_9774" d="M156.971 108.694h-10.808l-.214-1.028h10.808z" class="prefix__cls-1" data-name="Path 9774" transform="translate(-145.949 -107.667)"/>
                                <path id="prefix__Path_9775" d="M165.926 116.591h-11.915l.214 1.028h11.915z" class="prefix__cls-4" data-name="Path 9775" transform="translate(-149.571 -111.676)"/>
                                <path id="prefix__Path_9776" d="M163.263 113.616h-9.873l.214 1.028h9.873z" class="prefix__cls-4" data-name="Path 9776" transform="translate(-149.292 -110.34)"/>
                                <path id="prefix__Path_9777" d="M163.644 110.642h-10.873l.214 1.028h10.873z" class="prefix__cls-4" data-name="Path 9777" transform="translate(-149.014 -109.003)"/>
                            </g>
                            <g id="prefix__Group_12497" data-name="Group 12497" transform="translate(3.174 15.224)">
                                <path id="prefix__Path_9778" d="M159.435 136.337h-7.509l-.214-1.027h7.509z" class="prefix__cls-1" data-name="Path 9778" transform="translate(-151.712 -135.309)"/>
                                <path id="prefix__Path_9779" d="M175.186 144.234h-14.675l.214 1.028H175.4z" class="prefix__cls-4" data-name="Path 9779" transform="translate(-155.665 -139.319)"/>
                                <path id="prefix__Path_9780" d="M165.97 141.259h-6.079l.214 1.028h6.079z" class="prefix__cls-4" data-name="Path 9780" transform="translate(-155.386 -137.982)"/>
                                <path id="prefix__Path_9781" d="M177.95 141.259h-6.079l.214 1.028h6.079z" class="prefix__cls-4" data-name="Path 9781" transform="translate(-160.769 -137.982)"/>
                                <path id="prefix__Path_9782" d="M172.662 138.284h-13.391l.214 1.028h13.391z" class="prefix__cls-4" data-name="Path 9782" transform="translate(-155.108 -136.646)"/>
                                <path id="prefix__Path_9783" d="M174.029 153.158h-11.657l.214 1.028h11.658z" class="prefix__cls-4" data-name="Path 9783" transform="translate(-156.501 -143.328)"/>
                                <path id="prefix__Path_9784" d="M165.141 150.184h-3.39l.214 1.027h3.39z" class="prefix__cls-4" data-name="Path 9784" transform="translate(-156.222 -141.992)"/>
                                <path id="prefix__Path_9785" d="M173.593 150.184h-4.839l.214 1.027h4.839z" class="prefix__cls-4" data-name="Path 9785" transform="translate(-159.368 -141.992)"/>
                                <path id="prefix__Path_9786" d="M174.523 147.209h-13.392l.214 1.027h13.391z" class="prefix__cls-4" data-name="Path 9786" transform="translate(-155.944 -140.655)"/>
                            </g>
                        </g>
                        <g id="prefix__Group_12502" data-name="Group 12502" transform="translate(37.384 11.708)">
                            <g id="prefix__Group_12499" data-name="Group 12499" transform="translate(0 8.768)">
                                <path id="prefix__Path_9787" d="M200.515 145.872h-4.8l-.214-1.027h4.8z" class="prefix__cls-4" data-name="Path 9787" transform="translate(-195.503 -144.845)"/>
                                <path id="prefix__Path_9788" d="M212.9 145.872h-7.4l-.214-1.027h7.393z" class="prefix__cls-4" data-name="Path 9788" transform="translate(-199.9 -144.845)"/>
                                <path id="prefix__Path_9789" d="M211.916 148.847h-15.579l-.214-1.028H211.7z" class="prefix__cls-4" data-name="Path 9789" transform="translate(-195.781 -146.181)"/>
                                <path id="prefix__Path_9790" d="M210.126 151.822h-13.169l-.214-1.027h13.169z" class="prefix__cls-4" data-name="Path 9790" transform="translate(-196.06 -147.518)"/>
                            </g>
                            <g id="prefix__Group_12500" data-name="Group 12500" transform="translate(1.215)">
                                <path id="prefix__Path_9791" d="M219.58 134.875h-14.918l.214 1.027h14.918z" class="prefix__cls-4" data-name="Path 9791" transform="translate(-200.833 -131.598)"/>
                                <path id="prefix__Path_9792" d="M216.4 131.9h-12.36l.214 1.028h12.36z" class="prefix__cls-4" data-name="Path 9792" transform="translate(-200.554 -130.262)"/>
                                <path id="prefix__Path_9793" d="M211.322 128.925h-13.613l.214 1.028h13.613z" class="prefix__cls-1" data-name="Path 9793" transform="translate(-197.709 -128.925)"/>
                            </g>
                            <g id="prefix__Group_12501" data-name="Group 12501" transform="translate(1.58 16.348)">
                                <path id="prefix__Path_9794" d="M217.985 164.56h-18.372l.214 1.028H218.2z" class="prefix__cls-4" data-name="Path 9794" transform="translate(-198.93 -161.283)"/>
                                <path id="prefix__Path_9795" d="M206.6 161.585h-7.611l.214 1.028h7.611z" class="prefix__cls-4" data-name="Path 9795" transform="translate(-198.651 -159.946)"/>
                                <path id="prefix__Path_9796" d="M221.6 161.585h-7.611l.214 1.028h7.611z" class="prefix__cls-4" data-name="Path 9796" transform="translate(-205.389 -159.946)"/>
                                <path id="prefix__Path_9797" d="M215.138 158.61h-16.766l.214 1.028h16.766z" class="prefix__cls-4" data-name="Path 9797" transform="translate(-198.372 -158.61)"/>
                                <path id="prefix__Path_9798" d="M216.068 173.484h-14.6l.214 1.027h14.6z" class="prefix__cls-4" data-name="Path 9798" transform="translate(-199.766 -165.292)"/>
                                <path id="prefix__Path_9799" d="M205.1 170.509h-4.244l.214 1.028h4.244z" class="prefix__cls-4" data-name="Path 9799" transform="translate(-199.487 -163.956)"/>
                                <path id="prefix__Path_9800" d="M215.679 170.509h-6.058l.214 1.028h6.058z" class="prefix__cls-4" data-name="Path 9800" transform="translate(-203.426 -163.956)"/>
                                <path id="prefix__Path_9801" d="M217 167.534h-16.767l.214 1.028h16.766z" class="prefix__cls-4" data-name="Path 9801" transform="translate(-199.208 -162.619)"/>
                            </g>
                        </g>
                        <g id="prefix__Group_12503" data-name="Group 12503" transform="translate(0 34.242)">
                            <path id="prefix__Path_9802" d="M140.284 175.791h-11.42l.214 1.028H140.5z" class="prefix__cls-4" data-name="Path 9802" transform="translate(-128.181 -172.515)"/>
                            <path id="prefix__Path_9803" d="M136.627 172.817h-8.383l.214 1.028h8.383z" class="prefix__cls-4" data-name="Path 9803" transform="translate(-127.902 -171.178)"/>
                            <path id="prefix__Path_9804" d="M152.927 172.817h-8.383l.214 1.028h8.383z" class="prefix__cls-4" data-name="Path 9804" transform="translate(-135.226 -171.178)"/>
                            <path id="prefix__Path_9805" d="M144.389 169.842h-16.765l.214 1.027H144.6z" class="prefix__cls-4" data-name="Path 9805" transform="translate(-127.624 -169.842)"/>
                        </g>
                    </g>
                </g>
                <g id="prefix__Group_12506" data-name="Group 12506" transform="translate(164.452 68.289)">
                    <path id="prefix__Path_9806" d="M385.183 231.662h-7.07l.824 10.7h5.423z" class="prefix__cls-1" data-name="Path 9806" transform="translate(-378.113 -231.662)"/>
                    <path id="prefix__Path_9807" fill="#fff" d="M385.183 231.662h-7.07l.824 10.7h5.423z" data-name="Path 9807" opacity="0.4" transform="translate(-378.113 -231.662)"/>
                </g>
                <g id="prefix__Group_12508" data-name="Group 12508" transform="translate(13.946 56.001)">
                    <path id="prefix__Path_9808" d="M108.3 218.173h10.166L115 236.3h-10.167z" data-name="Path 9808" transform="translate(-104.833 -213.314)"/>
                    <path id="prefix__Path_9809" d="M122.93 209.35h-14.359l4.019 22.985h14.359z" class="prefix__cls-1" data-name="Path 9809" transform="translate(-106.512 -209.35)"/>
                    <g id="prefix__Group_12507" data-name="Group 12507" transform="translate(1.21)">
                        <path id="prefix__Path_9810" d="M107.029 209.35h.849l4.019 22.985h-.849z" class="prefix__cls-1" data-name="Path 9810" transform="translate(-107.029 -209.35)"/>
                        <path id="prefix__Path_9811" d="M107.029 209.35h.849l4.019 22.985h-.849z" data-name="Path 9811" opacity="0.3" transform="translate(-107.029 -209.35)"/>
                    </g>
                    <path id="prefix__Path_9812" d="M117.039 231.883l-3.159-18.071h9.371l3.159 18.071z" class="prefix__cls-3" data-name="Path 9812" transform="translate(-108.897 -211.355)"/>
                    <path id="prefix__Path_9813" fill="#da2419" d="M133.247 231.883l-3.159-18.071h.445l3.159 18.071z" data-name="Path 9813" opacity="0.6" transform="translate(-116.179 -211.355)"/>
                </g>
            </g>
        </g>
        <g id="prefix__Character" transform="translate(143.404 117.416)">
            <g id="prefix__Group_12523" data-name="Group 12523">
                <g id="prefix__Group_12518" data-name="Group 12518">
                    <path id="prefix__Path_9814" d="M262.822 155.479c.2.442.135.908-.153 1.041s-.688-.116-.892-.557-.135-.908.153-1.041.687.116.892.557z" data-name="Path 9814" transform="translate(-225.237 -138.63)"/>
                    <path id="prefix__Path_9815" fill="#ff5652" d="M263.794 157.577a17.412 17.412 0 0 1-.362 4.75 2.8 2.8 0 0 0 2.292-.579z" data-name="Path 9815" transform="translate(-226.034 -139.839)"/>
                    <path id="prefix__Path_9816" d="M261.82 148.979a.282.282 0 0 1-.164.063 2.265 2.265 0 0 0-1.813.987.286.286 0 0 1-.495-.286 2.835 2.835 0 0 1 2.276-1.272.286.286 0 0 1 .2.507z" data-name="Path 9816" transform="translate(-224.183 -135.748)"/>
                    <path id="prefix__Path_9817" d="M286.769 154.756c1.7 5.9 3.6 10.475 5.923 13.076 0 0 .041 4.634-7.852 6.837-8.68 2.423-5.351-3.151-5.351-3.151 4.421-2.454 3.986-6.156.671-7.564z" class="prefix__cls-11" data-name="Path 9817" transform="translate(-232.965 -138.571)"/>
                    <path id="prefix__Path_9818" d="M295.926 172.638c-.157-2.157-.357-4.612-1.688-4.675-1.464-.069-9.944 3.72-11.756 6.392s1.726 5.287 1.726 5.287z" data-name="Path 9818" transform="translate(-234.36 -144.504)"/>
                    <g id="prefix__Group_12511" data-name="Group 12511" transform="translate(32.239 34.822)">
                        <path id="prefix__Path_9819" d="M269.813 236.81l-7.324-.241.13 6.135s6.391-.658 6.672-2.337z" class="prefix__cls-11" data-name="Path 9819" transform="translate(-257.849 -210.149)"/>
                        <path id="prefix__Path_9820" d="M254.832 239.579l-.768 3.137 4.77-.012-.13-6.135z" class="prefix__cls-11" data-name="Path 9820" transform="translate(-254.064 -210.149)"/>
                        <g id="prefix__Group_12510" data-name="Group 12510" transform="translate(9.022)">
                            <path id="prefix__Path_9821" d="M302.789 189.761l-.153 1.573c-.05.506-.121 1.005-.184 1.505-.129 1-.286 1.993-.458 2.985-.332 1.988-.762 3.964-1.252 5.953a61.4 61.4 0 0 1-1.831 5.989c-.381 1.007-.776 2.014-1.252 3.041a25.909 25.909 0 0 1-1.659 3.111c-.153.259-.339.529-.518.794s-.361.53-.575.8-.4.533-.648.81l-.359.408a5.79 5.79 0 0 1-.408.427 12.6 12.6 0 0 1-3.814 2.564 22.576 22.576 0 0 1-6.846 1.734c-1.076.128-2.137.177-3.182.2s-2.078.006-3.1-.052-2.039-.146-3.048-.263-1.985-.281-3.058-.5l.176-5.754a88.982 88.982 0 0 0 10.41-2.482 21.709 21.709 0 0 0 2.237-.86 10.106 10.106 0 0 0 1.774-.96 2.448 2.448 0 0 0 .8-.782l.163-.253c.065-.082.135-.226.205-.34a4.467 4.467 0 0 0 .215-.392c.072-.14.147-.27.218-.435a28.792 28.792 0 0 0 1.591-4.368c.45-1.62.878-3.313 1.22-5.054.373-1.732.67-3.507.974-5.287l.419-2.677.376-2.606z" class="prefix__cls-1" data-name="Path 9821" transform="translate(-270.446 -188.597)"/>
                            <path id="prefix__Path_9822" d="M302.789 189.761l-.153 1.573c-.05.506-.121 1.005-.184 1.505-.129 1-.286 1.993-.458 2.985-.332 1.988-.762 3.964-1.252 5.953a61.4 61.4 0 0 1-1.831 5.989c-.381 1.007-.776 2.014-1.252 3.041a25.909 25.909 0 0 1-1.659 3.111c-.153.259-.339.529-.518.794s-.361.53-.575.8-.4.533-.648.81l-.359.408a5.79 5.79 0 0 1-.408.427 12.6 12.6 0 0 1-3.814 2.564 22.576 22.576 0 0 1-6.846 1.734c-1.076.128-2.137.177-3.182.2s-2.078.006-3.1-.052-2.039-.146-3.048-.263-1.985-.281-3.058-.5l.176-5.754a88.982 88.982 0 0 0 10.41-2.482 21.709 21.709 0 0 0 2.237-.86 10.106 10.106 0 0 0 1.774-.96 2.448 2.448 0 0 0 .8-.782l.163-.253c.065-.082.135-.226.205-.34a4.467 4.467 0 0 0 .215-.392c.072-.14.147-.27.218-.435a28.792 28.792 0 0 0 1.591-4.368c.45-1.62.878-3.313 1.22-5.054.373-1.732.67-3.507.974-5.287l.419-2.677.376-2.606z" class="prefix__cls-12" data-name="Path 9822" transform="translate(-270.446 -188.597)"/>
                        </g>
                    </g>
                    <g id="prefix__Group_12512" data-name="Group 12512" transform="translate(40.8 27.437)">
                        <path id="prefix__Path_9823" d="M269.892 191.031a179.889 179.889 0 0 1 4.588 35.879h32.248c.179-3.987-.5-26.416-3.741-42.66a11.228 11.228 0 0 0-13.438-8.792l-.154.035a118.363 118.363 0 0 0-13.2 3.686l-.139.053a10.1 10.1 0 0 0-6.164 11.799z" class="prefix__cls-1" data-name="Path 9823" transform="translate(-269.609 -175.186)"/>
                    </g>
                    <path id="prefix__Path_9824" d="M273.929 217.574c.256 1.546.512 3.185.75 4.9 2.639-2.755 3.475-11.192 3.475-11.192z" class="prefix__cls-12" data-name="Path 9824" transform="translate(-230.75 -163.969)"/>
                    <g id="prefix__Group_12513" data-name="Group 12513" transform="translate(3.244 34.979)">
                        <path id="prefix__Path_9825" d="M219.14 237.169l-7.3-.684-.241 6.132a6.873 6.873 0 0 0 6.8-1.93z" class="prefix__cls-11" data-name="Path 9825" transform="translate(-205.993 -210.268)"/>
                        <path id="prefix__Path_9826" d="M203.767 238.3l-2.35 4.213 5.61.108.241-6.132z" class="prefix__cls-11" data-name="Path 9826" transform="translate(-201.417 -210.268)"/>
                        <path id="prefix__Path_9827" d="M260.257 194.381c-.509.967-.959 1.817-1.465 2.7s-1 1.74-1.517 2.595q-1.551 2.573-3.243 5.072a85.017 85.017 0 0 1-7.551 9.717 41.446 41.446 0 0 1-4.786 4.551c-.217.183-.469.362-.7.542s-.445.347-.8.569a11.11 11.11 0 0 1-.969.578c-.326.184-.646.337-.972.482a17.421 17.421 0 0 1-3.791 1.15 23.932 23.932 0 0 1-6.9.156 29.652 29.652 0 0 1-3.193-.569c-.522-.12-1.039-.257-1.553-.414s-.995-.325-1.587-.531l.911-5.684c3.458-.47 7.2-1.071 9.774-2.235a7 7 0 0 0 1.6-.924 3.528 3.528 0 0 0 .519-.459c.043-.049.209-.2.341-.318s.273-.237.411-.381a40.309 40.309 0 0 0 3.309-3.717 107.041 107.041 0 0 0 6.206-8.9c.991-1.558 1.958-3.144 2.919-4.734l1.424-2.395 1.371-2.348z" class="prefix__cls-1" data-name="Path 9827" transform="translate(-210.317 -188.881)"/>
                    </g>
                    <path id="prefix__Path_9828" d="M268.634 396.214H262.6l-3.03-13.962h6.03z" class="prefix__cls-11" data-name="Path 9828" transform="translate(-224.301 -240.776)"/>
                    <path id="prefix__Path_9829" d="M257.963 405.257h6.774a.527.527 0 0 1 .514.412l1.191 5.359a.886.886 0 0 1-.883 1.072c-2.365-.041-3.514-.179-6.492-.179-1.833 0-4.185.19-6.715.19-2.475 0-2.861-2.5-1.825-2.729 4.645-1.016 4.971-2.417 6.459-3.754a1.462 1.462 0 0 1 .977-.371z" data-name="Path 9829" transform="translate(-219.994 -251.112)"/>
                    <g id="prefix__Group_12514" data-name="Group 12514" opacity="0.2" transform="translate(35.273 141.479)">
                        <path id="prefix__Path_9830" d="M265.605 382.259h-6.032l1.681 7.731 5.915-.534z" data-name="Path 9830" transform="translate(-259.574 -382.259)"/>
                    </g>
                    <path id="prefix__Path_9831" d="M276.852 137.58c2.174 5.575 3.731 8.727 2.279 12.775-2.182 6.09-10.021 6.7-13.817 1.89-3.417-4.332-6.4-12.72-2.091-17.332a8.161 8.161 0 0 1 13.629 2.667z" class="prefix__cls-11" data-name="Path 9831" transform="translate(-224.979 -128.475)"/>
                    <path id="prefix__Path_9832" d="M265.384 142.823c-.905 1.213-1.595 2.131-1.595 2.131s-1.856-4.61-1.146-6.723c-.9-1.79-2.727.848-3.415-2.639s2.288-7.231 3.415-8.006a4.092 4.092 0 0 1 .15 1.251 15.461 15.461 0 0 1 10.8-3.414 3.728 3.728 0 0 0-.605 1.622s6.537 1.122 8.023 4.8a7.138 7.138 0 0 0-1.647-.581 7.991 7.991 0 0 1 1.324 5.908 60.5 60.5 0 0 0-.743 9.1c.065 1.563-4.229 4.552-6.844 1.356s-7.717-4.805-7.717-4.805z" data-name="Path 9832" transform="translate(-224.1 -125.369)"/>
                    <path id="prefix__Path_9833" d="M272.378 153.506a6.1 6.1 0 0 1-.278 3.912c-.7 1.621-2.135 1.251-2.849-.187-.643-1.295-1.054-3.7.086-4.851 1.122-1.135 2.61-.433 3.041 1.126z" class="prefix__cls-11" data-name="Path 9833" transform="translate(-228.364 -137.253)"/>
                    <g id="prefix__Group_12515" data-name="Group 12515" transform="translate(26.357 79.161)">
                        <path id="prefix__Path_9834" d="M272.363 269.105s-28 10.151-28.824 23.586a93.751 93.751 0 0 0 8.6 44.334l9.275-.991s-1.649-7.964-2.881-30.381c-1.548-28.168 46.259.66 36.413-36.549z" class="prefix__cls-1" data-name="Path 9834" transform="translate(-243.383 -269.105)"/>
                        <path id="prefix__Path_9835" d="M272.363 269.105s-28 10.151-28.824 23.586a93.751 93.751 0 0 0 8.6 44.334l9.275-.991s-1.649-7.964-2.881-30.381c-1.548-28.168 46.259.66 36.413-36.549z" class="prefix__cls-14" data-name="Path 9835" transform="translate(-243.383 -269.105)"/>
                    </g>
                    <path id="prefix__Path_9836" d="M254.617 385.611c-.044 0 1.476 4.116 1.476 4.116l11.58-1.133-.581-3.746z" class="prefix__cls-1" data-name="Path 9836" transform="translate(-222.073 -241.943)"/>
                    <g id="prefix__Group_12516" data-name="Group 12516" transform="translate(0 142.159)">
                        <path id="prefix__Path_9837" d="M222.375 397.455h-6.029l-1.761-13.962h6.029z" class="prefix__cls-11" data-name="Path 9837" transform="translate(-204.088 -383.493)"/>
                        <path id="prefix__Path_9838" d="M207.736 405.246l6.584-.009a.525.525 0 0 1 .514.411l1.2 5.358a.877.877 0 0 1-.866 1.073c-2.375-.037-5.808-.171-8.793-.167-3.491 0-4.16.2-8.253.2-2.475 0-3.166-2.5-2.13-2.726 4.715-1.038 6.221-1.151 10.293-3.67a2.79 2.79 0 0 1 1.451-.47z" data-name="Path 9838" transform="translate(-195.526 -393.262)"/>
                        <path id="prefix__Path_9839" d="M214.587 383.5l.958 7.6 5.98-.408-.907-7.2z" class="prefix__cls-12" data-name="Path 9839" transform="translate(-204.09 -383.496)"/>
                    </g>
                    <g id="prefix__Group_12517" data-name="Group 12517" transform="translate(.282 79.161)">
                        <path id="prefix__Path_9840" d="M241.428 269.105s-45.88 4.069-45.385 27.111c.515 23.966 9.468 40.132 9.468 40.132h8.959s-1.7-12.433-1.4-36.029c.09-7.069 14.374-9.4 28.323-10.229 12.05-.713 23.329-7.581 28.011-18.707l.958-2.277z" class="prefix__cls-1" data-name="Path 9840" transform="translate(-196.039 -269.105)"/>
                        <path id="prefix__Path_9841" d="M241.428 269.105s-45.88 4.069-45.385 27.111c.515 23.966 9.468 40.132 9.468 40.132h8.959s-1.7-12.433-1.4-36.029c.09-7.069 14.374-9.4 28.323-10.229 12.05-.713 23.329-7.581 28.011-18.707l.958-2.277z" class="prefix__cls-14" data-name="Path 9841" transform="translate(-196.039 -269.105)"/>
                    </g>
                    <path id="prefix__Path_9842" d="M209.432 386.516c-.041 0 1.535 4.142 1.535 4.142l10.813-.772-.631-3.749z" class="prefix__cls-1" data-name="Path 9842" transform="translate(-201.773 -242.522)"/>
                </g>
                <g id="prefix__Group_12522" data-name="Group 12522" transform="translate(20.496 49.804)">
                    <g id="prefix__Group_12519" data-name="Group 12519">
                        <path id="prefix__Path_9843" d="M293.744 219.259l-5.82 22.433a70.114 70.114 0 0 0-2.237 17.593v10.428a4.566 4.566 0 0 0 4.334 4.767h29.843a4.566 4.566 0 0 0 4.334-4.767v-10.428a70.117 70.117 0 0 1 2.238-17.593l5.141-19.817c.79-3.044-1.289-6.075-4.168-6.075h-29.5a4.416 4.416 0 0 0-4.165 3.459z" data-name="Path 9843" transform="translate(-256.528 -215.8)"/>
                        <path id="prefix__Path_9844" d="M232.845 297.708l.977 5.562c.514 2.927 3.088 5.3 5.749 5.3h33.171c2.661 0 4.4-2.372 3.888-5.3l-.977-5.562c-.584-3.33-3.513-6.029-6.541-6.029h-31.844c-3.028 0-5.008 2.699-4.423 6.029z" data-name="Path 9844" transform="translate(-232.742 -249.89)"/>
                    </g>
                    <g id="prefix__Group_12521" data-name="Group 12521" transform="translate(19.438 58.679)">
                        <path id="prefix__Path_9845" d="M295.61 327.933h-17.376l-1.7-5.586h20.77z" class="prefix__cls-1" data-name="Path 9845" transform="translate(-271.855 -322.346)"/>
                        <g id="prefix__Group_12520" data-name="Group 12520" transform="translate(11.962 5.586)">
                            <path id="prefix__Rectangle_3440" d="M0 0H6.209V41.533H0z" class="prefix__cls-1" data-name="Rectangle 3440"/>
                            <path id="prefix__Path_9846" d="M295.966 374.836h-6.209V334.3l6.209.632z" class="prefix__cls-15" data-name="Path 9846" transform="translate(-289.757 -333.304)"/>
                            <path id="prefix__Path_9847" d="M297.07 375.1h-1.483v-40.205l1.483.151z" class="prefix__cls-15" data-name="Path 9847" transform="translate(-292.376 -333.57)"/>
                        </g>
                        <path id="prefix__Path_9848" d="M297.378 413.679h-28.551a.79.79 0 0 1-.467-1.427l4.532-3.323a12.685 12.685 0 0 1 7.5-2.454h5.423a12.684 12.684 0 0 1 7.5 2.454l4.532 3.323a.79.79 0 0 1-.469 1.427z" class="prefix__cls-1" data-name="Path 9848" transform="translate(-268.036 -360.142)"/>
                    </g>
                </g>
            </g>
        </g>
    </g>
</svg>
