<svg xmlns="http://www.w3.org/2000/svg" width="176.336" height="199.634" viewBox="0 0 176.336 199.634">
    <defs>
        <clipPath id="prefix__clip-path">
            <rect id="prefix__Rectangle_3442" width="175.336" height="120.664" fill="#fff" stroke="#000" stroke-miterlimit="10" data-name="Rectangle 3442" rx="16.132"/>
        </clipPath>
        <clipPath id="prefix__clip-path-2">
            <path id="prefix__Path_9879" d="M263.462 383.171l-20.36-8.879-.068-.031-.266-.118s-.074-3.5-.223-7.72v-.105c-.111-3.328-.266-7.09-.451-9.9-.006-.117-.018-.229-.024-.346-.05-.687-.1-1.311-.161-1.849-.019-.241-.043-.483-.068-.718-.229-2-.588-5.2-1.1-8.685-.03-.21-.062-.414-.1-.625a77.627 77.627 0 0 0-2.722-12.607.383.383 0 0 0-.019-.081 18.476 18.476 0 0 0-.724-1.832c-.049-.124-.112-.241-.167-.358l-1.584-.346c-.532-.118-1.175-.254-1.88-.4-.019 0-.037-.006-.056-.006-2.629-.563-6.118-1.268-8.153-1.559l-.142-.019c-.254-.037-.483-.061-.681-.08l-.136-.013a.02.02 0 0 0-.006-.013 5.4 5.4 0 0 0-.2-.544c0-.007 0-.013-.006-.013a7.428 7.428 0 0 0-3.681-4.12.044.044 0 0 0-.024-.013 5.115 5.115 0 0 0-2.295-.365.058.058 0 0 0-.031.006h-.006a.217.217 0 0 0-.062 0l-.705.056c-.483.037-.953.074-1.4.111-2.512.192-4.417.322-5.333.377-.012.006-.019.006-.024 0-.124.013-.223.019-.3.025-.1.006-.173.013-.216.013a.293.293 0 0 1-.05.006 1.619 1.619 0 0 0-.248.1c-.662.328-2.45 1.639-3.272 6.378-.056.291-.08.471-.08.471l-.631.173-2.35.649-.019.007-15.082 4.169s-.922 3.606-2.264 8.9l-.037.148c-.742 2.933-1.608 6.366-2.524 9.985-.056.247-.118.5-.18.742-3.023 12.007-6.444 25.779-7.29 29.857a1.307 1.307 0 0 0 .5 1.32c1.975 1.464 8.714 5.564 24.013 7.277 0 0-.636 4.875-.352 5.121h38l-.5-6.062v-.006l-.254-1.633a.047.047 0 0 1-.007-.019l-.3-1.924-.461-2.973-.408-2.6.26.05.216.037 21.72 4.695zm-53.933-6.745a27.541 27.541 0 0 1-2.029 4.621v.007c-.451.853-.791 1.448-.791 1.448l-16.734-4.473c-.025-.006-.056-.019-.081-.024l7.554-23.279v-.006l.031-.081 12.05 21.763.007.006c-.001.006-.007.012-.007.018z" class="prefix__cls-2" data-name="Path 9879" transform="translate(-176.032 -321.816)"/>
        </clipPath>
        <style>
            .prefix__cls-10,.prefix__cls-3,.prefix__cls-8,.prefix__cls-9{fill:#fff}.prefix__cls-10,.prefix__cls-17,.prefix__cls-7,.prefix__cls-8{stroke:#000}.prefix__cls-10{stroke-miterlimit:10}.prefix__cls-2{fill:#da2419}.prefix__cls-7{fill:none}.prefix__cls-10,.prefix__cls-17,.prefix__cls-7,.prefix__cls-8{stroke-linecap:round}.prefix__cls-17,.prefix__cls-7,.prefix__cls-8{stroke-linejoin:round}.prefix__cls-12,.prefix__cls-9{opacity:.3}
        </style>
    </defs>
    <g id="prefix__Are_You_Evangelist" data-name="Are You Evangelist" transform="translate(-119.217 -116.021)">
        <g id="prefix__Dashboard" transform="translate(119.717 116.521)">
            <g id="prefix__Group_12533" data-name="Group 12533">
                <g id="prefix__Group_12527" data-name="Group 12527">
                    <rect id="prefix__Rectangle_3441" width="175.336" height="120.664" class="prefix__cls-3" data-name="Rectangle 3441" rx="16.132"/>
                    <g id="prefix__Group_12526" clip-path="url(#prefix__clip-path)" data-name="Group 12526">
                        <g id="prefix__Group_12525" data-name="Group 12525">
                            <path id="prefix__Path_9849" d="M138.07 116.52v120.665h-8.72a9.635 9.635 0 0 1-9.633-9.633v-101.4a9.632 9.632 0 0 1 9.633-9.634z" class="prefix__cls-2" data-name="Path 9849" transform="translate(-119.717 -116.52)"/>
                            <path id="prefix__Path_9850" d="M138.07 116.52v120.665h-8.72a9.635 9.635 0 0 1-9.633-9.633v-101.4a9.632 9.632 0 0 1 9.633-9.634z" data-name="Path 9850" opacity="0.2" transform="translate(-119.717 -116.52)"/>
                        </g>
                    </g>
                    <rect id="prefix__Rectangle_3443" width="175.336" height="120.664" fill="none" stroke="#000" stroke-miterlimit="10" data-name="Rectangle 3443" rx="16.132"/>
                </g>
                <g id="prefix__Group_12528" data-name="Group 12528" transform="translate(61.375 54.347)">
                    <path id="prefix__Line_122" d="M0 0.536L0 0" class="prefix__cls-7" data-name="Line 122" transform="translate(0 20.993)"/>
                    <path id="prefix__Line_123" d="M0 0.536L0 0" class="prefix__cls-7" data-name="Line 123" transform="translate(58.949 20.993)"/>
                    <path id="prefix__Line_124" d="M0 21.529L0 0" class="prefix__cls-7" data-name="Line 124" transform="translate(2.903)"/>
                    <path id="prefix__Line_125" d="M0 0L1.475 0" class="prefix__cls-7" data-name="Line 125" transform="translate(2.903 18.84)"/>
                    <path id="prefix__Line_126" d="M0 0L1.475 0" class="prefix__cls-7" data-name="Line 126" transform="translate(2.903 16.147)"/>
                    <path id="prefix__Line_127" d="M0 0L1.475 0" class="prefix__cls-7" data-name="Line 127" transform="translate(2.903 13.457)"/>
                    <path id="prefix__Line_128" d="M0 0L1.475 0" class="prefix__cls-7" data-name="Line 128" transform="translate(2.903 10.765)"/>
                    <path id="prefix__Line_129" d="M0 0L1.475 0" class="prefix__cls-7" data-name="Line 129" transform="translate(2.903 8.075)"/>
                    <path id="prefix__Line_130" d="M0 0L1.475 0" class="prefix__cls-7" data-name="Line 130" transform="translate(2.903 5.382)"/>
                    <path id="prefix__Line_131" d="M0 0L1.475 0" class="prefix__cls-7" data-name="Line 131" transform="translate(2.903 2.693)"/>
                    <path id="prefix__Line_132" d="M0 0L1.475 0" class="prefix__cls-7" data-name="Line 132" transform="translate(2.903)"/>
                    <path id="prefix__Rectangle_3444" d="M0 0H3.265V16.147H0z" data-name="Rectangle 3444" transform="translate(49.606 5.382)"/>
                    <path id="prefix__Rectangle_3445" d="M0 0H3.265V4.038H0z" class="prefix__cls-2" data-name="Rectangle 3445" transform="translate(45.981 17.495)"/>
                    <path id="prefix__Rectangle_3446" d="M0 0H3.265V4.843H0z" data-name="Rectangle 3446" transform="translate(42.353 16.686)"/>
                    <path id="prefix__Rectangle_3447" d="M0 0H3.265V13.457H0z" class="prefix__cls-2" data-name="Rectangle 3447" transform="translate(38.725 8.075)"/>
                    <path id="prefix__Rectangle_3448" d="M0 0H3.265V8.075H0z" data-name="Rectangle 3448" transform="translate(35.097 13.457)"/>
                    <path id="prefix__Rectangle_3449" d="M0 0H3.265V6.727H0z" class="prefix__cls-2" data-name="Rectangle 3449" transform="translate(31.468 14.802)"/>
                    <path id="prefix__Rectangle_3450" d="M0 0H3.265V5.382H0z" data-name="Rectangle 3450" transform="translate(27.84 16.147)"/>
                    <path id="prefix__Rectangle_3451" d="M0 0H3.265V18.84H0z" class="prefix__cls-2" data-name="Rectangle 3451" transform="translate(24.212 2.693)"/>
                    <path id="prefix__Rectangle_3452" d="M0 0H3.265V2.693H0z" data-name="Rectangle 3452" transform="translate(20.587 18.84)"/>
                    <path id="prefix__Rectangle_3453" d="M0 0H3.265V8.075H0z" class="prefix__cls-2" data-name="Rectangle 3453" transform="translate(16.959 13.457)"/>
                    <path id="prefix__Rectangle_3454" d="M0 0H3.265V13.457H0z" data-name="Rectangle 3454" transform="translate(13.331 8.145)"/>
                    <path id="prefix__Rectangle_3455" d="M0 0H3.265V10.765H0z" class="prefix__cls-2" data-name="Rectangle 3455" transform="translate(9.703 10.765)"/>
                    <path id="prefix__Rectangle_3456" d="M0 0H3.265V5.382H0z" data-name="Rectangle 3456" transform="translate(6.075 16.147)"/>
                    <path id="prefix__Line_133" d="M0 0L58.949 0" class="prefix__cls-7" data-name="Line 133" transform="translate(0 21.529)"/>
                </g>
                <path id="prefix__Path_9851" d="M214.437 134.987a.722.722 0 0 1 .723.722.723.723 0 0 1-.723.723.723.723 0 0 1-.723-.723.722.722 0 0 1 .723-.722z" class="prefix__cls-8" data-name="Path 9851" transform="translate(-157.582 -123.959)"/>
                <g id="prefix__Group_12529" data-name="Group 12529" transform="translate(30.306 11.75)">
                    <path id="prefix__Line_134" d="M0 0L77.602 0" class="prefix__cls-7" data-name="Line 134" transform="translate(0 30.44)"/>
                    <path id="prefix__Line_135" d="M0 0.762L0 0" class="prefix__cls-7" data-name="Line 135" transform="translate(0 29.678)"/>
                    <path id="prefix__Line_136" d="M0 0.762L0 0" class="prefix__cls-7" data-name="Line 136" transform="translate(4.084 29.678)"/>
                    <path id="prefix__Line_137" d="M0 0.762L0 0" class="prefix__cls-7" data-name="Line 137" transform="translate(8.168 29.678)"/>
                    <path id="prefix__Line_138" d="M0 0.762L0 0" class="prefix__cls-7" data-name="Line 138" transform="translate(12.252 29.678)"/>
                    <path id="prefix__Line_139" d="M0 0.762L0 0" class="prefix__cls-7" data-name="Line 139" transform="translate(16.337 29.678)"/>
                    <path id="prefix__Line_140" d="M0 0.762L0 0" class="prefix__cls-7" data-name="Line 140" transform="translate(20.421 29.678)"/>
                    <path id="prefix__Line_141" d="M0 0.762L0 0" class="prefix__cls-7" data-name="Line 141" transform="translate(24.505 29.678)"/>
                    <path id="prefix__Line_142" d="M0 0.762L0 0" class="prefix__cls-7" data-name="Line 142" transform="translate(28.589 29.678)"/>
                    <path id="prefix__Line_143" d="M0 0.762L0 0" class="prefix__cls-7" data-name="Line 143" transform="translate(32.673 29.678)"/>
                    <path id="prefix__Line_144" d="M0 0.762L0 0" class="prefix__cls-7" data-name="Line 144" transform="translate(36.761 29.678)"/>
                    <path id="prefix__Line_145" d="M0 0.762L0 0" class="prefix__cls-7" data-name="Line 145" transform="translate(40.845 29.678)"/>
                    <path id="prefix__Line_146" d="M0 0.762L0 0" class="prefix__cls-7" data-name="Line 146" transform="translate(44.929 29.678)"/>
                    <path id="prefix__Line_147" d="M0 0.762L0 0" class="prefix__cls-7" data-name="Line 147" transform="translate(49.013 29.678)"/>
                    <path id="prefix__Line_148" d="M0 0.762L0 0" class="prefix__cls-7" data-name="Line 148" transform="translate(53.097 29.678)"/>
                    <path id="prefix__Line_149" d="M0 0.762L0 0" class="prefix__cls-7" data-name="Line 149" transform="translate(57.182 29.678)"/>
                    <path id="prefix__Line_150" d="M0 0.762L0 0" class="prefix__cls-7" data-name="Line 150" transform="translate(61.266 29.678)"/>
                    <path id="prefix__Line_151" d="M0 0.762L0 0" class="prefix__cls-7" data-name="Line 151" transform="translate(65.35 29.678)"/>
                    <path id="prefix__Line_152" d="M0 0.762L0 0" class="prefix__cls-7" data-name="Line 152" transform="translate(69.434 29.678)"/>
                    <path id="prefix__Line_153" d="M0 0.762L0 0" class="prefix__cls-7" data-name="Line 153" transform="translate(73.518 29.678)"/>
                    <path id="prefix__Line_154" d="M0 0.762L0 0" class="prefix__cls-7" data-name="Line 154" transform="translate(77.602 29.678)"/>
                    <path id="prefix__Line_155" d="M0 30.44L0 0" class="prefix__cls-7" data-name="Line 155"/>
                    <path id="prefix__Line_156" d="M0 0L1.941 0" class="prefix__cls-7" data-name="Line 156" transform="translate(0 24.352)"/>
                    <path id="prefix__Line_157" d="M0 0L1.941 0" class="prefix__cls-7" data-name="Line 157" transform="translate(0 18.264)"/>
                    <path id="prefix__Line_158" d="M0 0L1.941 0" class="prefix__cls-7" data-name="Line 158" transform="translate(0 12.176)"/>
                    <path id="prefix__Line_159" d="M0 0L1.941 0" class="prefix__cls-7" data-name="Line 159" transform="translate(0 6.088)"/>
                    <path id="prefix__Line_160" d="M0 0L1.941 0" class="prefix__cls-7" data-name="Line 160"/>
                    <path id="prefix__Line_161" d="M4.084 0L0 18.264" class="prefix__cls-7" data-name="Line 161" transform="translate(2.044 6.088)"/>
                    <path id="prefix__Line_162" d="M4.084 10.349L0 0" class="prefix__cls-7" data-name="Line 162" transform="translate(6.128 6.088)"/>
                    <path id="prefix__Line_163" d="M4.084 0L0 4.261" class="prefix__cls-7" data-name="Line 163" transform="translate(10.212 12.176)"/>
                    <path id="prefix__Line_164" d="M4.084 10.958L0 0" class="prefix__cls-7" data-name="Line 164" transform="translate(14.296 12.176)"/>
                    <path id="prefix__Line_165" d="M4.084 0L0 17.046" class="prefix__cls-7" data-name="Line 165" transform="translate(18.38 6.088)"/>
                    <path id="prefix__Line_166" d="M4.084 0L0 6.088" class="prefix__cls-7" data-name="Line 166" transform="translate(22.465)"/>
                    <path id="prefix__Line_167" d="M4.084 27.394L0 0" class="prefix__cls-7" data-name="Line 167" transform="translate(26.549)"/>
                    <path id="prefix__Line_168" d="M4.084 0L0 1.827" class="prefix__cls-7" data-name="Line 168" transform="translate(30.633 25.567)"/>
                    <path id="prefix__Line_169" d="M4.084 0L0 0.609" class="prefix__cls-7" data-name="Line 169" transform="translate(34.717 24.958)"/>
                    <path id="prefix__Line_170" d="M4.084 0L0 1.824" class="prefix__cls-7" data-name="Line 170" transform="translate(38.801 23.134)"/>
                    <path id="prefix__Line_171" d="M4.084 0L0 2.436" class="prefix__cls-7" data-name="Line 171" transform="translate(42.885 20.697)"/>
                    <path id="prefix__Line_172" d="M4.084 1.218L0 0" class="prefix__cls-7" data-name="Line 172" transform="translate(46.97 20.697)"/>
                    <path id="prefix__Line_173" d="M4.084 2.437L0 0" class="prefix__cls-7" data-name="Line 173" transform="translate(51.054 21.915)"/>
                    <path id="prefix__Line_174" d="M4.084 0L0 12.785" class="prefix__cls-7" data-name="Line 174" transform="translate(55.138 11.567)"/>
                    <path id="prefix__Line_175" d="M4.084 0L0 1.827" class="prefix__cls-7" data-name="Line 175" transform="translate(59.222 9.739)"/>
                    <path id="prefix__Line_176" d="M4.084 0L0 2.433" class="prefix__cls-7" data-name="Line 176" transform="translate(63.306 7.306)"/>
                    <path id="prefix__Line_177" d="M4.084 2.433L0 0" class="prefix__cls-7" data-name="Line 177" transform="translate(67.39 7.306)"/>
                    <path id="prefix__Line_178" d="M4.084 2.436L0 0" class="prefix__cls-7" data-name="Line 178" transform="translate(71.475 9.739)"/>
                    <path id="prefix__Path_9852" d="M173.4 175.766a.722.722 0 0 1 .722.722.722.722 0 0 1-.722.719.722.722 0 0 1-.723-.719.722.722 0 0 1 .723-.722z" class="prefix__cls-8" data-name="Path 9852" transform="translate(-171.358 -152.136)"/>
                    <path id="prefix__Path_9853" d="M180.241 145.181a.722.722 0 0 1 .722.723.722.722 0 0 1-.722.723.723.723 0 0 1-.723-.723.723.723 0 0 1 .723-.723z" class="prefix__cls-8" data-name="Path 9853" transform="translate(-174.113 -139.816)"/>
                    <path id="prefix__Path_9854" d="M187.08 162.511a.722.722 0 0 1 .723.722.723.723 0 0 1-.723.723.723.723 0 0 1-.723-.723.722.722 0 0 1 .723-.722z" class="prefix__cls-8" data-name="Path 9854" transform="translate(-176.868 -146.797)"/>
                    <path id="prefix__Path_9855" d="M193.919 155.376a.722.722 0 0 1 .723.719.723.723 0 0 1-.723.723.722.722 0 0 1-.722-.723.722.722 0 0 1 .722-.719z" class="prefix__cls-8" data-name="Path 9855" transform="translate(-179.623 -143.922)"/>
                    <path id="prefix__Path_9856" d="M200.759 173.726a.722.722 0 0 1 .722.722.722.722 0 0 1-.722.723.722.722 0 0 1-.723-.723.722.722 0 0 1 .723-.722z" class="prefix__cls-8" data-name="Path 9856" transform="translate(-182.378 -151.314)"/>
                    <path id="prefix__Path_9857" d="M207.614 145.181a.723.723 0 0 1 .723.723.723.723 0 0 1-.723.723.722.722 0 0 1-.722-.723.722.722 0 0 1 .722-.723z" class="prefix__cls-8" data-name="Path 9857" transform="translate(-185.14 -139.816)"/>
                    <path id="prefix__Path_9858" d="M221.276 180.86a.723.723 0 0 1 .723.723.722.722 0 0 1-.723.722.722.722 0 0 1-.722-.722.722.722 0 0 1 .722-.723z" class="prefix__cls-8" data-name="Path 9858" transform="translate(-190.643 -154.188)"/>
                    <path id="prefix__Path_9859" d="M228.115 177.806a.722.722 0 0 1 .723.719.722.722 0 0 1-.723.722.722.722 0 0 1-.722-.722.722.722 0 0 1 .722-.719z" class="prefix__cls-8" data-name="Path 9859" transform="translate(-193.398 -152.958)"/>
                    <path id="prefix__Path_9860" d="M234.955 176.786a.722.722 0 0 1 .722.719.722.722 0 0 1-.722.722.722.722 0 0 1-.723-.722.722.722 0 0 1 .723-.719z" class="prefix__cls-8" data-name="Path 9860" transform="translate(-196.153 -152.547)"/>
                    <path id="prefix__Path_9861" d="M241.794 173.726a.722.722 0 0 1 .723.722.723.723 0 0 1-.723.723.723.723 0 0 1-.723-.723.722.722 0 0 1 .723-.722z" class="prefix__cls-8" data-name="Path 9861" transform="translate(-198.908 -151.314)"/>
                    <path id="prefix__Path_9862" d="M248.633 169.645a.723.723 0 0 1 .723.723.723.723 0 0 1-.723.723.722.722 0 0 1-.722-.723.722.722 0 0 1 .722-.723z" class="prefix__cls-8" data-name="Path 9862" transform="translate(-201.664 -149.671)"/>
                    <path id="prefix__Path_9863" d="M255.472 171.686a.722.722 0 0 1 .723.722.723.723 0 0 1-.723.723.722.722 0 0 1-.722-.723.722.722 0 0 1 .722-.722z" class="prefix__cls-8" data-name="Path 9863" transform="translate(-204.419 -150.493)"/>
                    <path id="prefix__Path_9864" d="M262.312 175.766a.722.722 0 0 1 .722.722.722.722 0 0 1-.722.719.722.722 0 0 1-.723-.719.722.722 0 0 1 .723-.722z" class="prefix__cls-8" data-name="Path 9864" transform="translate(-207.174 -152.136)"/>
                    <path id="prefix__Path_9865" d="M269.151 154.351a.722.722 0 0 1 .722.722.722.722 0 0 1-.722.723.723.723 0 0 1-.723-.723.722.722 0 0 1 .723-.722z" class="prefix__cls-8" data-name="Path 9865" transform="translate(-209.928 -143.51)"/>
                    <path id="prefix__Path_9866" d="M275.99 151.3a.723.723 0 0 1 .723.723.722.722 0 0 1-.723.722.722.722 0 0 1-.722-.722.722.722 0 0 1 .722-.723z" class="prefix__cls-8" data-name="Path 9866" transform="translate(-212.684 -142.279)"/>
                    <path id="prefix__Path_9867" d="M282.829 147.221a.723.723 0 0 1 .723.723.722.722 0 0 1-.723.719.722.722 0 0 1-.722-.719.722.722 0 0 1 .722-.723z" class="prefix__cls-8" data-name="Path 9867" transform="translate(-215.439 -140.637)"/>
                    <path id="prefix__Path_9868" d="M289.669 151.3a.722.722 0 0 1 .722.723.722.722 0 0 1-.722.722.722.722 0 0 1-.723-.722.723.723 0 0 1 .723-.723z" class="prefix__cls-8" data-name="Path 9868" transform="translate(-218.194 -142.279)"/>
                    <path id="prefix__Path_9869" d="M296.508 155.376a.722.722 0 0 1 .722.723.722.722 0 0 1-.722.722.726.726 0 0 1-.723-.722.723.723 0 0 1 .723-.723z" class="prefix__cls-8" data-name="Path 9869" transform="translate(-220.949 -143.922)"/>
                </g>
                <rect id="prefix__Rectangle_3457" width="95.429" height="20.224" class="prefix__cls-2" data-name="Rectangle 3457" rx="6.955" transform="translate(30.286 93.345)"/>
                <g id="prefix__Group_12530" data-name="Group 12530" transform="translate(139.088 10.372)">
                    <path id="prefix__Rectangle_3458" d="M0 0H30.149V1.208H0z" data-name="Rectangle 3458"/>
                    <path id="prefix__Rectangle_3459" d="M0 0H30.149V1.208H0z" data-name="Rectangle 3459" transform="translate(0 4.37)"/>
                    <path id="prefix__Rectangle_3460" d="M0 0H30.149V1.208H0z" data-name="Rectangle 3460" transform="translate(0 8.741)"/>
                    <path id="prefix__Rectangle_3461" d="M0 0H30.149V1.208H0z" data-name="Rectangle 3461" transform="translate(0 13.111)"/>
                    <path id="prefix__Rectangle_3462" d="M0 0H30.149V1.208H0z" data-name="Rectangle 3462" transform="translate(0 17.481)"/>
                    <path id="prefix__Rectangle_3463" d="M0 0H30.149V1.208H0z" data-name="Rectangle 3463" transform="translate(0 43.123)"/>
                    <path id="prefix__Rectangle_3464" d="M0 0H30.149V1.208H0z" data-name="Rectangle 3464" transform="translate(0 47.494)"/>
                    <path id="prefix__Rectangle_3465" d="M0 0H30.149V1.208H0z" data-name="Rectangle 3465" transform="translate(0 51.864)"/>
                    <path id="prefix__Rectangle_3466" d="M0 0H30.149V1.208H0z" data-name="Rectangle 3466" transform="translate(0 56.234)"/>
                    <path id="prefix__Rectangle_3467" d="M0 0H30.149V1.208H0z" data-name="Rectangle 3467" transform="translate(0 60.605)"/>
                    <path id="prefix__Rectangle_3468" d="M0 0H30.149V1.208H0z" data-name="Rectangle 3468" transform="translate(0 85.135)"/>
                    <path id="prefix__Rectangle_3469" d="M0 0H30.149V1.208H0z" data-name="Rectangle 3469" transform="translate(0 89.506)"/>
                    <path id="prefix__Rectangle_3470" d="M0 0H30.149V1.208H0z" data-name="Rectangle 3470" transform="translate(0 93.876)"/>
                    <path id="prefix__Rectangle_3471" d="M0 0H30.149V1.208H0z" data-name="Rectangle 3471" transform="translate(0 98.246)"/>
                    <path id="prefix__Rectangle_3472" d="M0 0H30.149V1.208H0z" data-name="Rectangle 3472" transform="translate(0 102.616)"/>
                    <path id="prefix__Rectangle_3473" d="M0 0H30.149V1.208H0z" class="prefix__cls-9" data-name="Rectangle 3473"/>
                    <path id="prefix__Rectangle_3474" d="M0 0H30.149V1.208H0z" class="prefix__cls-9" data-name="Rectangle 3474" transform="translate(0 4.37)"/>
                    <path id="prefix__Rectangle_3475" d="M0 0H30.149V1.208H0z" class="prefix__cls-9" data-name="Rectangle 3475" transform="translate(0 8.741)"/>
                    <path id="prefix__Rectangle_3476" d="M0 0H30.149V1.208H0z" class="prefix__cls-9" data-name="Rectangle 3476" transform="translate(0 13.111)"/>
                    <path id="prefix__Rectangle_3477" d="M0 0H30.149V1.208H0z" class="prefix__cls-9" data-name="Rectangle 3477" transform="translate(0 17.481)"/>
                    <path id="prefix__Rectangle_3478" d="M0 0H30.149V1.208H0z" class="prefix__cls-9" data-name="Rectangle 3478" transform="translate(0 43.123)"/>
                    <path id="prefix__Rectangle_3479" d="M0 0H30.149V1.208H0z" class="prefix__cls-9" data-name="Rectangle 3479" transform="translate(0 47.494)"/>
                    <path id="prefix__Rectangle_3480" d="M0 0H30.149V1.208H0z" class="prefix__cls-9" data-name="Rectangle 3480" transform="translate(0 51.864)"/>
                    <path id="prefix__Rectangle_3481" d="M0 0H30.149V1.208H0z" class="prefix__cls-9" data-name="Rectangle 3481" transform="translate(0 56.234)"/>
                    <path id="prefix__Rectangle_3482" d="M0 0H30.149V1.208H0z" class="prefix__cls-9" data-name="Rectangle 3482" transform="translate(0 60.605)"/>
                    <path id="prefix__Rectangle_3483" d="M0 0H30.149V1.208H0z" class="prefix__cls-9" data-name="Rectangle 3483" transform="translate(0 85.135)"/>
                    <path id="prefix__Rectangle_3484" d="M0 0H30.149V1.208H0z" class="prefix__cls-9" data-name="Rectangle 3484" transform="translate(0 89.506)"/>
                    <path id="prefix__Rectangle_3485" d="M0 0H30.149V1.208H0z" class="prefix__cls-9" data-name="Rectangle 3485" transform="translate(0 93.876)"/>
                    <path id="prefix__Rectangle_3486" d="M0 0H30.149V1.208H0z" class="prefix__cls-9" data-name="Rectangle 3486" transform="translate(0 98.246)"/>
                    <path id="prefix__Rectangle_3487" d="M0 0H30.149V1.208H0z" class="prefix__cls-9" data-name="Rectangle 3487" transform="translate(0 102.616)"/>
                </g>
                <g id="prefix__Group_12531" data-name="Group 12531" transform="translate(32.866 98.36)">
                    <path id="prefix__Rectangle_3488" d="M0 0H90.607V1.208H0z" class="prefix__cls-3" data-name="Rectangle 3488"/>
                    <path id="prefix__Rectangle_3489" d="M0 0H90.607V1.208H0z" class="prefix__cls-3" data-name="Rectangle 3489" transform="translate(0 4.534)"/>
                    <path id="prefix__Rectangle_3490" d="M0 0H90.607V1.208H0z" class="prefix__cls-3" data-name="Rectangle 3490" transform="translate(0 9.068)"/>
                </g>
                <g id="prefix__Group_12532" data-name="Group 12532" transform="translate(29.802 56.312)">
                    <path id="prefix__Path_9870" d="M179.334 220.544l-7.1 6.629a9.721 9.721 0 0 1 .478-13.74 9.362 9.362 0 0 1 6.629-2.61z" data-name="Path 9870" transform="translate(-169.622 -210.82)"/>
                    <path id="prefix__Path_9871" d="M181.1 224.227l8.737-4.262A9.721 9.721 0 0 1 174 230.856z" class="prefix__cls-2" data-name="Path 9871" transform="translate(-171.384 -214.503)"/>
                    <path id="prefix__Path_9872" d="M185.886 220.543v-9.721a9.4 9.4 0 0 1 8.737 5.459z" data-name="Path 9872" transform="translate(-176.173 -210.819)"/>
                    <path id="prefix__Path_9873" d="M179.334 220.544l-7.1 6.629a9.721 9.721 0 0 1 .478-13.74 9.362 9.362 0 0 1 6.629-2.61z" class="prefix__cls-9" data-name="Path 9873" transform="translate(-169.622 -210.82)"/>
                </g>
            </g>
        </g>
        <g id="prefix__Character" transform="translate(153.346 199.48)">
            <g id="prefix__Group_12534" data-name="Group 12534" transform="translate(82.271 101.135)">
                <path id="prefix__Path_9874" d="M334.331 435.235s1.215 3.36.539 2.968a4.037 4.037 0 0 1-1.651-1.988 4.351 4.351 0 0 0-1.5-1.871l-1.541-1.173a3.47 3.47 0 0 1 2.325-.176 6.412 6.412 0 0 1 1.828 2.24z" class="prefix__cls-10" data-name="Path 9874" transform="translate(-320.399 -428.038)"/>
                <path id="prefix__Path_9875" d="M336.357 433.856s2.062 4.005 1.691 4.332-.583.286-1.372-.436a11.773 11.773 0 0 1-1.72-3.015l-1.691-1.775s2.447-.815 3.092.894z" class="prefix__cls-10" data-name="Path 9875" transform="translate(-321.641 -428.01)"/>
                <path id="prefix__Path_9876" d="M319.724 425.409s4.313.73 5.3.873 2.256 1.353 3.258 2.116 4.178 3.3 3.862 4.038-1.511.066-2.589-.755-1.885-1.68-3.437-1.4a9.526 9.526 0 0 0-2.952 1.159 18.994 18.994 0 0 0 2.23 2.186c1 .763 2.248 2.322 1.742 2.666s-1.243.514-2.358-.579-4.817-2.509-5.819-3.818a7.483 7.483 0 0 0-5.16-3.153l4.945-3.941z" class="prefix__cls-8" data-name="Path 9876" transform="translate(-313.8 -424.8)"/>
            </g>
            <g id="prefix__Group_12543" data-name="Group 12543">
                <g id="prefix__Group_12540" data-name="Group 12540">
                    <g id="prefix__Group_12536" data-name="Group 12536" transform="translate(0 39.636)">
                        <path id="prefix__Path_9877" d="M263.462 383.171l-20.36-8.879-.068-.031-.266-.118s-.074-3.5-.223-7.72v-.105c-.111-3.328-.266-7.09-.451-9.9-.006-.117-.018-.229-.024-.346-.05-.687-.1-1.311-.161-1.849-.019-.241-.043-.483-.068-.718-.229-2-.588-5.2-1.1-8.685-.03-.21-.062-.414-.1-.625a77.627 77.627 0 0 0-2.722-12.607.383.383 0 0 0-.019-.081 18.476 18.476 0 0 0-.724-1.832c-.049-.124-.112-.241-.167-.358l-1.584-.346c-.532-.118-1.175-.254-1.88-.4-.019 0-.037-.006-.056-.006-2.629-.563-6.118-1.268-8.153-1.559l-.142-.019c-.254-.037-.483-.061-.681-.08l-.136-.013a.02.02 0 0 0-.006-.013 5.4 5.4 0 0 0-.2-.544c0-.007 0-.013-.006-.013a7.428 7.428 0 0 0-3.681-4.12.044.044 0 0 0-.024-.013 5.115 5.115 0 0 0-2.295-.365.058.058 0 0 0-.031.006h-.006a.217.217 0 0 0-.062 0l-.705.056c-.483.037-.953.074-1.4.111-2.512.192-4.417.322-5.333.377-.012.006-.019.006-.024 0-.124.013-.223.019-.3.025-.1.006-.173.013-.216.013a.293.293 0 0 1-.05.006 1.619 1.619 0 0 0-.248.1c-.662.328-2.45 1.639-3.272 6.378-.056.291-.08.471-.08.471l-.631.173-2.35.649-.019.007-15.082 4.169s-.922 3.606-2.264 8.9l-.037.148c-.742 2.933-1.608 6.366-2.524 9.985-.056.247-.118.5-.18.742-3.023 12.007-6.444 25.779-7.29 29.857a1.307 1.307 0 0 0 .5 1.32c1.975 1.464 8.714 5.564 24.013 7.277 0 0-.636 4.875-.352 5.121h38l-.5-6.062v-.006l-.254-1.633a.047.047 0 0 1-.007-.019l-.3-1.924-.461-2.973-.408-2.6.26.05.216.037 21.72 4.695zm-53.933-6.745a27.541 27.541 0 0 1-2.029 4.621v.007c-.451.853-.791 1.448-.791 1.448l-16.734-4.473c-.025-.006-.056-.019-.081-.024l7.554-23.279v-.006l.031-.081 12.05 21.763.007.006c-.001.006-.007.012-.007.018z" class="prefix__cls-2" data-name="Path 9877" transform="translate(-176.032 -321.816)"/>
                        <g id="prefix__Group_12535" clip-path="url(#prefix__clip-path-2)" data-name="Group 12535">
                            <path id="prefix__Path_9878" d="M278.962 388.029v15.94l21.956 8.795-2.2 1.192-22.2-4.78-.639-6.569.624-10.619z" class="prefix__cls-12" data-name="Path 9878" transform="translate(-216.254 -348.489)"/>
                        </g>
                    </g>
                    <path id="prefix__Path_9880" d="M278.647 353.565l.1 7.953s1.651 6.384 1.328 8.59a22.893 22.893 0 0 1-3.569 8l-.623 10.619.933 9.952" class="prefix__cls-7" data-name="Path 9880" transform="translate(-216.254 -294.969)"/>
                    <path id="prefix__Path_9881" d="M251.6 264.2a9.305 9.305 0 0 1 3.607 4.155 17.237 17.237 0 0 1 1.013 5.255 62.625 62.625 0 0 1 .23 7.8c-.214 4.784-1.281 9.634-.241 14.31.689 3.1 2.748 5.034 2.748 8.7l-6.429-.739s-1.975-4.163-6.31-5.06l-.291-.745s3.385.273 5.981-6.137a32.3 32.3 0 0 0 1.89-13.518l.012-7.194z" data-name="Path 9881" transform="translate(-204.189 -258.971)"/>
                    <path id="prefix__Path_9882" d="M233.059 315.39l.435 8.914s7.308 12.81 9.751 13.179-.027-13.126-1.025-15.008a30.978 30.978 0 0 1-1.812-6.346z" class="prefix__cls-3" data-name="Path 9882" transform="translate(-199.004 -279.591)"/>
                    <path id="prefix__Path_9883" d="M224.7 267.014c-.629-.388-6.457-.643-7.256 1.4-1.155 2.965.734 11.332.44 11.307-1.39-.039-3.581-.551-3.265 1.932s2.217 4.881 3.581 5.091l1.355.208a13.552 13.552 0 0 0 6.23 8.292c5.4 3.451 9.353 3.885 11.217.854a24.089 24.089 0 0 0 3.963-9.865c1.778-17.526-2.691-21.457-2.691-21.457s-12.948 2.624-13.574 2.238z" class="prefix__cls-3" data-name="Path 9883" transform="translate(-191.562 -259.201)"/>
                    <g id="prefix__Group_12537" data-name="Group 12537" transform="translate(23.095 6.645)">
                        <path id="prefix__Path_9884" d="M232.868 266.57s-2.835 12.063-11.773 14.737c0 0 .11 13.8 10.315 16.827 0 0 1.395 9.57-4.543 7.82l-1.2-2.455v-7.775s-5.343-4.048-5.593-8.126c0 0-2.754.02-3.881-1.826s-1.86-4.114-1.285-5.4 4.454-1.293 4.454-1.293z" class="prefix__cls-2" data-name="Path 9884" transform="translate(-214.706 -266.57)"/>
                        <path id="prefix__Path_9885" fill="#fff" d="M232.868 266.57s-2.835 12.063-11.773 14.737c0 0 .11 13.8 10.315 16.827 0 0 1.395 9.57-4.543 7.82l-1.2-2.455v-7.775s-5.343-4.048-5.593-8.126c0 0-2.754.02-3.881-1.826s-1.86-4.114-1.285-5.4 4.454-1.293 4.454-1.293z" data-name="Path 9885" opacity="0.5" transform="translate(-214.706 -266.57)"/>
                    </g>
                    <path id="prefix__Path_9886" d="M205.025 277.505s13.431-6.348 14.259-14.247c0 0 3.779 8.407 9.734 11.6 0 0 4.429-14.824-9.277-13.956 0 0-9.9-5.782-16.4.061s-4.862 21.9-9.627 31.3-21.2 15.96-7.2 31.437l3.8-14.439 18.116-5.461s.659-5.018 4.222-6.268l-.174-4.715a17.618 17.618 0 0 1-6.461-8.458s-2.94-.082-4.536-3.746 1.019-4.631 3.544-3.108z" data-name="Path 9886" transform="translate(-178.026 -256.614)"/>
                    <g id="prefix__Group_12538" data-name="Group 12538" opacity="0.2" transform="translate(9.83 3.593)">
                        <path id="prefix__Path_9887" d="M231.427 264.1a29.988 29.988 0 0 1-12.275 14.074" class="prefix__cls-7" data-name="Path 9887" transform="translate(-203.232 -262.523)"/>
                        <path id="prefix__Path_9888" d="M225.364 261.46a99.884 99.884 0 0 1-9.06 15.151" class="prefix__cls-7" data-name="Path 9888" transform="translate(-202.085 -261.46)"/>
                        <path id="prefix__Path_9889" d="M204.907 299.621c-.322 3.977-2.218 7.653-4.368 11.015s-4.6 6.559-6.258 10.189-2.453 7.863-1.111 11.621" class="prefix__cls-7" data-name="Path 9889" transform="translate(-192.493 -276.833)"/>
                        <path id="prefix__Path_9890" d="M215.761 301.494a55.456 55.456 0 0 1-2.493 21.688" class="prefix__cls-7" data-name="Path 9890" transform="translate(-200.862 -277.587)"/>
                    </g>
                    <path id="prefix__Path_9891" fill="#92e3a9" d="M191.937 343.556c.068-.016.137-.042.224-.067l-.214.076-3.514 15.242-3.406 13.693 3.538-14.7z" data-name="Path 9891" transform="translate(-179.655 -290.911)"/>
                    <path id="prefix__Path_9892" fill="#fff" d="M191.937 343.556c.068-.016.137-.042.224-.067l-.214.076-3.514 15.242-3.406 13.693 3.538-14.7z" data-name="Path 9892" transform="translate(-179.655 -290.911)" style="isolation:isolate" opacity="0.5"/>
                    <path id="prefix__Path_9893" d="M243.56 337.593c0 .007-.007.007-.007.013a.637.637 0 0 1-.526.223l-.037-.018c-1.677-.081-6.5-6.718-7.053-7.473-2.888-3.972-2.988-4.349-3.284-7.355l-.056-.594c-.185-1.763-.284-3.483-.34-4.751-.013-.383-.025-.717-.031-1.008.284.142.569.272.841.4.006.2.012.414.024.643.006.112.006.229.013.353.056 1.206.148 2.74.309 4.306l.062.6c.279 2.888.3 3.006 3.136 6.947 3.211 4.46 5.71 6.972 6.4 7.12a.4.4 0 0 1 .5.025.405.405 0 0 1 .049.569z" data-name="Path 9893" transform="translate(-198.669 -280.09)"/>
                    <path id="prefix__Path_9894" d="M249.012 337.461a.409.409 0 0 1-.4.371.417.417 0 0 1-.371-.458c0-.055.6-5.988-.4-9.891a18 18 0 0 0-2.01-4.819 3.34 3.34 0 0 1-.65-1.633c-.007-.093-.007-.192-.013-.291 0-.062-.006-.117-.006-.179l-.037-.693a5.251 5.251 0 0 0 .822 0c.013.155.019.315.031.47.007.136.007.278.013.414 0 .118.006.235.006.353a3.64 3.64 0 0 0 .5 1.144 17.885 17.885 0 0 1 2.1 5.029c1.027 4.047.446 9.936.415 10.183z" data-name="Path 9894" transform="translate(-203.866 -281.395)"/>
                    <path id="prefix__Path_9895" d="M234.375 336.781a.415.415 0 0 0-.569-.141 8.821 8.821 0 0 0-1.946 2.272 19.436 19.436 0 0 0-2.03 4.341l-4.353-9.794c.087-.639.723-3.45 1.283-5.843a8.628 8.628 0 0 1 2.815-4.306.412.412 0 0 0 .024-.582.422.422 0 0 0-.582-.075 9.386 9.386 0 0 0-3.1 4.763c-.641 2.706-1.309 6-1.309 6l-.006.134 5.265 11.825h.174l.233-.85a22.577 22.577 0 0 1 2.258-5.127 9.456 9.456 0 0 1 1.7-2.044.415.415 0 0 0 .143-.573z" data-name="Path 9895" transform="translate(-195.601 -282.483)"/>
                    <path id="prefix__Path_9896" d="M257.173 341.5c.046-.013.09-.033.135-.048l-.249-1.492c-.06-.367-1.45-9.048-4.612-14.009s-5.609-4.746-5.715-4.751a.422.422 0 0 0 .087.829c.019 0 2.087-.088 4.936 4.369 2.158 3.39 3.545 8.99 4.142 11.9a14.16 14.16 0 0 0-2.986-3.13 3.272 3.272 0 0 0-2.56-.472h-.008a.4.4 0 0 0-.246.514.413.413 0 0 0 .516.263 2.594 2.594 0 0 1 1.9.413c1.029.584 3.09 3.384 3.793 4.375z" data-name="Path 9896" transform="translate(-204.385 -281.933)"/>
                    <path id="prefix__Path_9897" d="M245.29 395.894a.209.209 0 0 1-.1-.388l12.689-7.023a.211.211 0 0 1 .2.364L245.4 395.86a.184.184 0 0 1-.11.034z" data-name="Path 9897" transform="translate(-203.85 -309.03)"/>
                    <path id="prefix__Path_9898" d="M256.347 394.67a.221.221 0 0 1-.177-.114.2.2 0 0 1 .085-.272l6.881-3.593a.206.206 0 1 1 .195.364l-6.881 3.593a.229.229 0 0 1-.103.022z" data-name="Path 9898" transform="translate(-208.305 -309.914)"/>
                    <path id="prefix__Path_9899" d="M204.511 355.223a.211.211 0 0 1-.186-.133 86.489 86.489 0 0 0-5.4-9.765.2.2 0 0 1 .06-.278l.011-.007a.212.212 0 0 1 .285.07 87.714 87.714 0 0 1 5.425 9.843.211.211 0 0 1-.108.274z" data-name="Path 9899" transform="translate(-185.241 -291.524)"/>
                    <path id="prefix__Path_9900" d="M253.758 363.641a.2.2 0 0 1-.194-.172 61.691 61.691 0 0 0-3.634-10.827.2.2 0 0 1 .373-.165 60.858 60.858 0 0 1 3.667 10.943.2.2 0 0 1-.164.232z" data-name="Path 9900" transform="translate(-205.793 -294.483)"/>
                    <path id="prefix__Path_9901" d="M269.891 332.4c.023.337.053.751.088 1.233-.119-.14-.2-.249-.263-.329-.914-1.222-7.589-1.938-12.119-2.134-.317-.014-.632-.029-.92-.032a.054.054 0 0 1-.038-.011.407.407 0 0 1-.319-.571v-.01a.41.41 0 0 1 .385-.232l.737.033c2.279.1 8.615.459 11.576 1.62a4.6 4.6 0 0 1 .873.433z" data-name="Path 9901" transform="translate(-208.36 -285.604)"/>
                    <path id="prefix__Path_9902" d="M282.833 376.7c.054.29.089.57.133.86-.1-.062-.177-.1-.205-.124a.411.411 0 0 1-.127-.572.14.14 0 0 1 .05-.055.245.245 0 0 1 .149-.109z" data-name="Path 9902" transform="translate(-218.948 -304.287)"/>
                    <path id="prefix__Path_9903" d="M241.4 283.771c-.006-.106-.006-.2-.006-.309-.025-.78-.062-1.565-.106-2.345l-.012-.148-.328.582v.006l-.075.136-.29.526q.018.353.018.705c.012.13.012.254.012.384.05 2.289-.068 4.695-.253 7.015-.075.953-.167 1.886-.26 2.79a21.589 21.589 0 0 1-3.7 9.273c-.013.007-.019.025-.025.037a2.938 2.938 0 0 1-.532.687 3.553 3.553 0 0 1-1.163.8 2.3 2.3 0 0 1-.266.1 2.007 2.007 0 0 1-.334.1 3.047 3.047 0 0 1-.488.074 1.668 1.668 0 0 1-.254.019c-.093.006-.18.012-.272.012a5.5 5.5 0 0 1-.551-.012 8.477 8.477 0 0 1-1.46-.26v-.007a17.116 17.116 0 0 1-4.07-1.781h-.006l-.013-.013c-.006 0-.006 0-.019-.006s0-.013-.013-.013h-.006c-.26-.155-.526-.309-.8-.483a.265.265 0 0 1-.049-.037h-.007c-.105-.056-.2-.124-.309-.192a13.312 13.312 0 0 1-6.05-8.012l-.056-.3-1.658-.26c-1.181-.186-2.938-2.437-3.229-4.726a1.485 1.485 0 0 1 .186-1.219c.34-.414 1.225-.359 1.992-.309.192.019.39.037.594.037a5.34 5.34 0 0 0 .705-.006l-.489-.73a.7.7 0 0 1-.167 0h-.025l-.544-.087a3.792 3.792 0 0 0-2.475.371.49.49 0 0 0-.136.118.245.245 0 0 0-.087.068 2.239 2.239 0 0 0-.488 1.354v.018c0 .007 0 .007-.007.019l-.006.043a.038.038 0 0 0-.006.024 1.959 1.959 0 0 0 .074.414 8.07 8.07 0 0 0 1.794 4 3.817 3.817 0 0 0 2.128 1.448l1.089.167a14.2 14.2 0 0 0 6.353 8.277.317.317 0 0 0 .05.037c.012.007.019.013.03.018.13.087.254.174.384.254l.334.2a2.923 2.923 0 0 0 .26.161 4.57 4.57 0 0 0 .421.241l-.007.013c.044.018.087.044.124.062.087.043.173.093.254.13v.007a18.018 18.018 0 0 0 4.04 1.571c.229.056.457.111.693.161a5.517 5.517 0 0 0 .718.087c.074.006.142.013.216.013.13.006.266.013.4.006a.5.5 0 0 0 .1 0c.031 0 .068-.006.105-.006h.068a.506.506 0 0 0 .1-.007c.062 0 .118-.006.18-.012.1-.007.2-.018.3-.031h.006a1.467 1.467 0 0 1 .167-.024.889.889 0 0 0 .161-.062h.025a.93.93 0 0 0 .167-.043 4.426 4.426 0 0 0 2.481-1.992c1.937-3.18 3.366-5.741 4.027-10.053.1-1.021.18-2.035.235-3.056q.176-3.009.106-6.024z" data-name="Path 9903" transform="translate(-191.254 -265.725)"/>
                    <path id="prefix__Path_9904" d="M243.214 288.4c.013.671-.254 1.212-.595 1.218s-.606-.539-.611-1.2.264-1.21.595-1.218.587.536.611 1.2z" data-name="Path 9904" transform="translate(-202.609 -268.235)"/>
                    <path id="prefix__Path_9905" d="M254.849 289.118c0 .67-.264 1.21-.595 1.218s-.605-.539-.609-1.209.253-1.2.594-1.209.603.549.61 1.2z" data-name="Path 9905" transform="translate(-207.297 -268.525)"/>
                    <path id="prefix__Path_9906" d="M235.774 281.687a.447.447 0 0 1-.2-.089.421.421 0 0 1-.056-.58 5.06 5.06 0 0 1 4.654-1.563.412.412 0 0 1-.125.815 4.209 4.209 0 0 0-3.847 1.3.45.45 0 0 1-.426.117z" data-name="Path 9906" transform="translate(-199.958 -265.082)"/>
                    <path id="prefix__Path_9907" d="M255.177 284.087a.432.432 0 0 1-.282-.18 3.04 3.04 0 0 0-3.142-1.453.421.421 0 0 1-.5-.31.4.4 0 0 1 .288-.491h.02a3.834 3.834 0 0 1 4.033 1.775.412.412 0 0 1-.087.576.442.442 0 0 1-.33.083z" data-name="Path 9907" transform="translate(-206.326 -265.969)"/>
                    <path id="prefix__Path_9908" d="M247.413 295.864a.422.422 0 0 1 .1-.828s1.084.133 1.413-.58c.168-.346.07-.571-.14-.983a3.7 3.7 0 0 1-.428-1.636 18.936 18.936 0 0 1 .409-3.34.412.412 0 0 1 .489-.317.413.413 0 0 1 .317.489 18.732 18.732 0 0 0-.386 3.159 2.876 2.876 0 0 0 .344 1.288 1.85 1.85 0 0 1 .136 1.735c-.577 1.2-2.178 1.023-2.254 1.013z" data-name="Path 9908" transform="translate(-204.662 -268.627)"/>
                    <path id="prefix__Path_9909" d="M239.233 304.252a4.019 4.019 0 0 1-2.5-1.3.415.415 0 0 1 .635-.533 3.831 3.831 0 0 0 2.951 1.056.422.422 0 0 1 .446.379.412.412 0 0 1-.37.447 5.318 5.318 0 0 1-1.162-.049z" data-name="Path 9909" transform="translate(-200.446 -274.308)"/>
                    <path id="prefix__Path_9910" d="M277.9 334.461s6.139 17.874 5.214 44.654l21 9.15-4.969 4.111-22.2-4.78" class="prefix__cls-7" data-name="Path 9910" transform="translate(-216.685 -287.274)"/>
                    <path id="prefix__Path_9911" d="M246.781 349.366l-.363 5.664 3.3 2.727 2.169-.385.675-3.81-3.193-5.072s1.173 2.449-2.588.876z" data-name="Path 9911" transform="translate(-204.386 -292.925)"/>
                    <path id="prefix__Path_9912" d="M251.948 362.494l1.8 29.75 4.853 4.313 2.486-6.651-7.341-29.655z" data-name="Path 9912" transform="translate(-206.613 -297.663)"/>
                    <path id="prefix__Path_9913" d="M238.31 346.485l6.024 3.448v-1.849l-3.683-3.535a5.516 5.516 0 0 0-2.341 1.936z" data-name="Path 9913" transform="translate(-201.119 -291.338)"/>
                    <path id="prefix__Path_9914" d="M249.912 348.937l.674-4.769s2.545-.831 3.387.393l-3.074 5.9z" data-name="Path 9914" transform="translate(-205.793 -291.073)"/>
                    <g id="prefix__Group_12539" data-name="Group 12539" transform="translate(26.622 16.457)">
                        <path id="prefix__Path_9915" d="M240.573 283.023a3.713 3.713 0 1 1-4.089 3.294 3.713 3.713 0 0 1 4.089-3.294z" class="prefix__cls-7" data-name="Path 9915" transform="translate(-226.997 -283.002)"/>
                        <path id="prefix__Path_9916" d="M254.814 284.533a3.735 3.735 0 1 1-3.708 3.335 3.537 3.537 0 0 1 3.708-3.335z" class="prefix__cls-7" data-name="Path 9916" transform="translate(-232.886 -283.612)"/>
                        <path id="prefix__Line_179" d="M9.263 0.604L0 0" class="prefix__cls-7" data-name="Line 179" transform="translate(0 2.697)"/>
                        <path id="prefix__Line_180" d="M0 0L1.53 0.165" class="prefix__cls-7" data-name="Line 180" transform="translate(16.984 2.982)"/>
                    </g>
                    <path id="prefix__Path_9917" d="M193.307 416.111c-4.251-.437-8.28 4.561-8.28 4.561" class="prefix__cls-7" data-name="Path 9917" transform="translate(-179.655 -320.154)"/>
                    <path id="prefix__Path_9919" d="M183.348 416.754s5.725-3.194 10.612-.7" class="prefix__cls-7" data-name="Path 9919" transform="translate(-178.979 -319.759)"/>
                    <path id="prefix__Path_9920" d="M284.341 409.237s-3.548 1.578-4.355 4.774" class="prefix__cls-7" data-name="Path 9920" transform="translate(-217.908 -317.396)"/>
                    <path id="prefix__Path_9921" d="M224.376 256.568c2.384-1.913 10.4-1.845 12.776 3.84" class="prefix__cls-7" data-name="Path 9921" transform="translate(-195.506 -255.442)"/>
                    <path id="prefix__Path_9922" d="M216.025 396.831l.823-4.331 6.928-2.765h-6.062l6.335-3.724-6.712 1.336s-13.034-20.971-18.818-29.681c0-.006 0-.006-.006-.013-.773-1.163-1.411-2.109-1.88-2.753l1.7 6.5.241.94.4 1.535.835 3.2-4.1-4.862 1.572 5.7-7.949 22.456-3.167 1.225-.056.018-1.077.414 4.294.4-3.118 2.344-.018.019 5.976-1.058 40.351 9.373.414-1.488zm-4.9-2.45c-.451.853-.791 1.448-.791 1.448l-16.734-4.473c-.025-.006-.056-.019-.081-.025l7.806-23.165c.186.365 11.114 20.267 11.829 21.563z" class="prefix__cls-12" data-name="Path 9922" transform="translate(-179.657 -295.508)"/>
                </g>
                <g id="prefix__Group_12542" data-name="Group 12542" transform="translate(2.298 55.566)">
                    <g id="prefix__Group_12541" data-name="Group 12541">
                        <path id="prefix__Line_181" d="M0 36.933L9.336 0" class="prefix__cls-7" data-name="Line 181"/>
                        <path id="prefix__Path_9924" d="M217.062 440.078c-.087-.006-.173-.018-.26-.031" class="prefix__cls-7" data-name="Path 9924" transform="translate(-194.753 -385.374)"/>
                        <path id="prefix__Path_9925" d="M279.674 430.823c-2.113-1.476-4.484-1.359-6.494-1.289-1.448.051-4.826 1.391-8.2 2.236a2.182 2.182 0 0 1-.641.029c.013.327-.619 2.939-.856 4.32a4.356 4.356 0 0 0 1.048-.125 1.681 1.681 0 0 1 .872.057 13.423 13.423 0 0 0 2.337.5c1.333.189 3.858-.084 4.786 1.035a14.369 14.369 0 0 0 2.668 2.346 4.085 4.085 0 0 0 2.746 1.109c.846-.107-.22-.794-.469-1.023a18.28 18.28 0 0 1-1.962-2.491c-.2-.264-.88-1.369-1.223-1.437a10.1 10.1 0 0 0 1.028.145 3.572 3.572 0 0 1 1.547.926 14.8 14.8 0 0 0 1.63 1.2c.248.187 3.232 1.874 3.072.59-.051-.395-.727-.877-.983-1.138a24.182 24.182 0 0 0-4.331-3.5l2.438.658a11.569 11.569 0 0 1 1.237.843c.217.186.469.388.738.576.45.349 1.678 1.052 2.248.779.912-.436-1.894-3.132-2.337-3.475-.48-.373-2.938-1.83-3.058-1.923 0 0-.205-.106-.522-.263l-.083-.065a21.766 21.766 0 0 1 3.525 1.756c.915.71 1.9 1.962 2.914 1.283s-1.562-2.182-3.675-3.659z" class="prefix__cls-8" data-name="Path 9925" transform="translate(-213.557 -381.125)"/>
                        <path id="prefix__Path_9926" d="M206.908 377.115l-8.017 23.3 39.623 10.164-1.33 4.744a148.45 148.45 0 0 1-26.9-.538l-.408-.055" class="prefix__cls-7" data-name="Path 9926" transform="translate(-187.538 -360.023)"/>
                    </g>
                </g>
            </g>
            <path id="prefix__Path_9927" d="M206.8 366.773l15.125 27.763-1.887 4.349" class="prefix__cls-7" data-name="Path 9927" transform="translate(-188.425 -300.29)"/>
        </g>
        <g id="prefix__Computer" transform="translate(189.062 268.437)">
            <g id="prefix__Group_12544" data-name="Group 12544">
                <path id="prefix__Rectangle_3491" d="M0 0H27.448V1.281H0z" class="prefix__cls-8" data-name="Rectangle 3491" transform="translate(50.652 45.326)"/>
                <path id="prefix__Rectangle_3492" d="M0 0H59.164V38.156H0z" class="prefix__cls-8" data-name="Rectangle 3492" transform="translate(40.043)"/>
                <path id="prefix__Rectangle_3493" d="M0 0H55.935V38.156H0z" class="prefix__cls-17" data-name="Rectangle 3493" transform="translate(43.272)"/>
                <path id="prefix__Path_9928" d="M346.011 400.605h12.948l.471 28.988h-12.948z" class="prefix__cls-8" data-name="Path 9928" transform="translate(-280.221 -382.876)"/>
                <path id="prefix__Rectangle_3494" d="M0 0H12.948V29.459H0z" class="prefix__cls-17" data-name="Rectangle 3494" transform="translate(66.984 17.206)"/>
                <path id="prefix__Path_9929" d="M360.681 421.362V401.2H346.57" class="prefix__cls-7" data-name="Path 9929" transform="translate(-280.447 -383.113)"/>
                <path id="prefix__Rectangle_3495" d="M0 0H39.635V2.072H0z" class="prefix__cls-8" data-name="Rectangle 3495" transform="translate(0 44.645)"/>
                <path id="prefix__Rectangle_3496" d="M0 0H49.594V2.072H0z" class="prefix__cls-8" data-name="Rectangle 3496" transform="translate(10.244 44.645)"/>
            </g>
        </g>
    </g>
</svg>
