<svg xmlns="http://www.w3.org/2000/svg" width="197.731" height="203.292" viewBox="0 0 197.731 203.292">
    <defs>
        <clipPath id="prefix__clip-path">
            <path id="prefix__Path_9639" d="M176.7 232.1s-14.327-1.7-23.753 5.655-17.532 38.081-17.344 52.785 5.656 22.056 19.417 28.089 39.4 3.77 53.727-.754 19.04-20.36 18.851-28.843-9.614-18.286-12.819-20.36-12.253-6.41-16.778-13.2-11.124-21.488-21.301-23.372z" class="prefix__cls-1" data-name="Path 9639" transform="translate(-135.598 -231.93)"/>
        </clipPath>
        <clipPath id="prefix__clip-path-2">
            <path id="prefix__Path_9647" d="M204.289 234.685s-5.133 1.65-5.866 2.933-.184 10.267-.184 11.367.642-.642 1.192-1.925 2.475-3.208 3.117-3.025 1.008.917 1.008 2.108 1.467 2.842 2.75 3.759 2.475 1.833 2.475 1.833 2.658-3.85 3.3-4.858.55-3.117.642-3.85 1.741 2.016 2.108 1.283-.825-1.375-2.108-3.392-.917-4.125-2.842-5.591-4.125-1.009-5.592-.642z" class="prefix__cls-2" data-name="Path 9647" transform="translate(-198.041 -234.316)"/>
        </clipPath>
        <clipPath id="prefix__clip-path-3">
            <path id="prefix__Path_9652" d="M173.955 298.489s-3.162-4.537-7.012-4.95-8.525 2.75-8.662 3.85-1.1 7.012-.412 7.837 3.3 1.513 8.387-.138 7.144-3.712 7.699-6.599z" class="prefix__cls-2" data-name="Path 9652" transform="translate(-157.622 -293.502)"/>
        </clipPath>
        <clipPath id="prefix__clip-path-4">
            <path id="prefix__Path_9657" d="M163.428 297.394s-5.16 2.048-5.362 6.05c-.112 2.214 3.575 3.162 7.425 3.162s9.35-4.812 12.925-6.875 11.825-6.875 12.787-7.287 4.262.688 5.637 1.1a18.6 18.6 0 0 0 3.987.413s1.925 3.025 2.887 3.025-2.062-4.537-2.475-5.5-7.15-3.162-7.975-3.162-20.075 4.812-22.962 5.912-6.874 3.162-6.874 3.162z" class="prefix__cls-2" data-name="Path 9657" transform="translate(-158.063 -288.319)"/>
        </clipPath>
        <clipPath id="prefix__clip-path-5">
            <path id="prefix__Path_9663" d="M221.267 292.069l-14.73 10.418 33.687-.963 11.292-9.318z" class="prefix__cls-2" data-name="Path 9663" transform="translate(-206.537 -292.069)"/>
        </clipPath>
        <clipPath id="prefix__clip-path-6">
            <path id="prefix__Path_9668" d="M253.568 297.374s12.1-10.587 24.062-14.162 14.437-3.025 14.162 2.337-6.05 33.412-9.9 40.562-8.662 20.212-8.525 22.687 4.812 9.762 8.937 12.375 3.712 5.775 1.1 6.325-5.637 1.512-14.575-4.263-12.65-14.025-12.1-16.087 6.325-4.812 8.662-8.937 6.187-19.525 6.462-26.537a41.667 41.667 0 0 1 2.75-12.925s-15.125 2.75-19.525 5.5z" class="prefix__cls-2" data-name="Path 9668" transform="translate(-253.568 -280.941)"/>
        </clipPath>
        <clipPath id="prefix__clip-path-7">
            <path id="prefix__Path_9675" d="M265.393 338.211a10.381 10.381 0 0 1-.584.9 14.13 14.13 0 0 1 7.734 3.223 25.17 25.17 0 0 1 1.88 1.818c2.636-3.538 5.6-14.712 8.944-19.308 8.643-11.874 8.15-33.935 8.425-39.3s-2.2-5.912-14.162-2.337-24.062 14.162-24.062 14.162l1.513 6.875c4.4-2.75 19.525-5.5 19.525-5.5a41.667 41.667 0 0 0-2.75 12.925c-.276 7.017-4.126 22.417-6.463 26.542z" class="prefix__cls-3" data-name="Path 9675" transform="translate(-253.568 -280.941)"/>
        </clipPath>
        <clipPath id="prefix__clip-path-8">
            <path id="prefix__Path_9681" d="M183.05 306.419s-4.4 2.475-5.912 5.225 5 7.334 11.871 7.059 19.479-7.746 19.479-7.746.138 12.1 2.475 16.5 13.062 15.125 17.325 17.875 18.562 13.062 20.762 14.712 6.325 4.675 7.287 4.812 11-12.1 13.337-16.225 4.4-12.787 3.575-14.712-2.475-.275-4.125 1.1-16.775 11.412-18.15 12.1a15.091 15.091 0 0 1-2.337.962s-12.375-11.825-18.975-20.9-7.15-20.762-9.625-25.162-6.05-6.325-11.412-5.775a57.15 57.15 0 0 0-25.575 10.175z" class="prefix__cls-2" data-name="Path 9681" transform="translate(-176.917 -296.152)"/>
        </clipPath>
        <clipPath id="prefix__clip-path-9">
            <path id="prefix__Path_9686" d="M246.373 347.166c-2.908-2.836-13.816-17.472-18.121-25.886-6.308-12.33-6.988-16.532-9.463-20.932s-6.213-4.743-11.575-4.193a63.485 63.485 0 0 0-26.729 8.222s-4.941 2.686-6.454 5.436 3.994 9.674 13.566 8.8c6.852-.626 19.479-7.746 19.479-7.746s.137 12.1 2.475 16.5 13.062 15.125 17.325 17.875c2.7 1.744 9.441 6.528 14.571 10.217a16.514 16.514 0 0 1 4.926-8.293z" class="prefix__cls-3" data-name="Path 9686" transform="translate(-173.784 -295.956)"/>
        </clipPath>
        <clipPath id="prefix__clip-path-10">
            <path id="prefix__Path_9692" d="M332.733 378.816c2.337-4.125 4.4-12.787 3.575-14.712-.478-1.115-1.234-1.027-2.1-.491.579 2.572-.006 7.528-2.845 12.866-2.534 4.764-10.366 13.181-14.312 17.281a9.217 9.217 0 0 0 2.35 1.281c.957.138 10.999-12.1 13.332-16.225z" class="prefix__cls-2" data-name="Path 9692" transform="translate(-317.046 -363.23)"/>
        </clipPath>
        <clipPath id="prefix__clip-path-11">
            <path id="prefix__Path_9699" d="M284.849 414.1a18.127 18.127 0 0 1-3.665-3.3 74.619 74.619 0 0 1-9.948-4.816c-3.575-2.2-2.75-3.575-4.812-5.637-1.582-1.582-4.7-1.788-6.063-1.8a3.757 3.757 0 0 0-1.087 1.523c-.55 2.062 3.163 10.312 12.1 16.087s11.962 4.812 14.575 4.262 3.025-3.709-1.1-6.319z" class="prefix__cls-2" data-name="Path 9699" transform="translate(-259.222 -398.549)"/>
        </clipPath>
        <clipPath id="prefix__clip-path-12">
            <path id="prefix__Path_9703" d="M285.539 415.962c-3.575-2.062-10.862-3.437-15.537-6.6s-3.437-5.912-6.875-8.112a3.5 3.5 0 0 0-3.86-.221c-.477 2.144 3.244 10.3 12.11 16.033 8.937 5.775 11.962 4.812 14.575 4.262 1.736-.365 2.491-1.886 1.6-3.632a7.56 7.56 0 0 0-2.013-1.73z" class="prefix__cls-3" data-name="Path 9703" transform="translate(-259.226 -400.553)"/>
        </clipPath>
        <clipPath id="prefix__clip-path-13">
            <path id="prefix__Path_9714" d="M206.721 221.885s.641 6.946.91 9.138.885 8.5 1.517 10.582 4.078 5.711 4.412 4.872 2.038-6.5 1.355-9.869-.89-6.295-.465-7.137a6.908 6.908 0 0 1 1.947-1.819 54.171 54.171 0 0 1-5.164-3.008c-2.45-1.644-4.174-3.507-4.512-2.759z" class="prefix__cls-2" data-name="Path 9714" transform="translate(-206.721 -221.715)"/>
        </clipPath>
        <clipPath id="prefix__clip-path-14">
            <path id="prefix__Path_9719" d="M203.788 209.985a33.231 33.231 0 0 0 7 4.512c3.04 1.2 7.705 1.134 8.361-.449S218 199.97 216.431 196.68s-3.244-3.343-6.007-3.594-8.3 2-9.272 4.674.135 6.458.941 8.7a16.56 16.56 0 0 0 1.695 3.525z" class="prefix__cls-2" data-name="Path 9719" transform="translate(-200.773 -193.067)"/>
        </clipPath>
        <clipPath id="prefix__clip-path-15">
            <path id="prefix__Path_9736" d="M204.691 216.412s-1.777-2.564-3.651-1.532-.414 4.684.713 5.956 3.309-1.088 3.524-1.695" class="prefix__cls-2" data-name="Path 9736" transform="translate(-200.14 -214.636)"/>
        </clipPath>
        <style>
            .prefix__cls-1,.prefix__cls-5{fill:#da2419}.prefix__cls-1,.prefix__cls-2,.prefix__cls-26,.prefix__cls-3,.prefix__cls-4{stroke:#000}.prefix__cls-1,.prefix__cls-2,.prefix__cls-26,.prefix__cls-27,.prefix__cls-3,.prefix__cls-4,.prefix__cls-8{stroke-linecap:round;stroke-linejoin:round}.prefix__cls-11,.prefix__cls-17,.prefix__cls-2,.prefix__cls-9{fill:#fff}.prefix__cls-26,.prefix__cls-27,.prefix__cls-4,.prefix__cls-8{fill:none}.prefix__cls-27,.prefix__cls-8{stroke:#fff}.prefix__cls-11{opacity:.5}.prefix__cls-17{opacity:.53}.prefix__cls-18{opacity:.14}.prefix__cls-26{stroke-width:2px}.prefix__cls-27{stroke-width:.75px}
        </style>
    </defs>
    <g id="prefix__Are_You_Blogger" data-name="Are You Blogger" transform="translate(-73.893 -70.722)">
        <g id="prefix__Background" transform="translate(74.393 71.222)">
            <g id="prefix__Group_12441" data-name="Group 12441">
                <g id="prefix__Group_12440" data-name="Group 12440" transform="translate(0 19.135)">
                    <path id="prefix__Line_107" d="M0 123.716L0 0" class="prefix__cls-4" data-name="Line 107" transform="translate(80.418)"/>
                    <path id="prefix__Path_9634" d="M74.393 333.177h78.04l118.561 38.27" class="prefix__cls-4" data-name="Path 9634" transform="translate(-74.393 -208.238)"/>
                </g>
                <path id="prefix__Path_9635" d="M124.065 240.792h-5.406v-89.135h11.126l-4.8-17.33h-14.409l-4.8 17.33H116.9v89.135h-5.406a5.278 5.278 0 0 0-5.275 5.18V246.073h.008c.161 1.244 5.268 2.241 11.548 2.241s11.387-1 11.548-2.241h.029a5.28 5.28 0 0 0-5.287-5.281z" data-name="Path 9635" transform="translate(-88.514 -99.62)"/>
                <path id="prefix__Path_9636" d="M269.589 84.222v104.953l79.016 13V71.222zm76.968 30.052l-40.177 2.275V80.088l40.177-6.393zm-40.177 6.113l40.177-1.842v36.663l-40.177-1.878zm-3.26 32.791l-32.2-1.506v-29.659l32.2-1.477zm0-72.571v36.127l-32.2 1.824V85.731zm-32.2 74.521l32.2 1.853v35.81l-32.2-5.124zm35.464 38.182v-36.142l40.177 2.312v40.22z" class="prefix__cls-3" data-name="Path 9636" transform="translate(-162.232 -71.222)"/>
            </g>
        </g>
        <g id="prefix__Character" transform="translate(83.427 129.243)">
            <g id="prefix__Group_12485" data-name="Group 12485">
                <g id="prefix__Group_12483" data-name="Group 12483" transform="translate(7.849)">
                    <g id="prefix__Group_12444" data-name="Group 12444" transform="translate(16.779 30.367)">
                        <path id="prefix__Path_9637" d="M176.7 232.1s-14.327-1.7-23.753 5.655-17.532 38.081-17.344 52.785 5.656 22.056 19.417 28.089 39.4 3.77 53.727-.754 19.04-20.36 18.851-28.843-9.614-18.286-12.819-20.36-12.253-6.41-16.778-13.2-11.124-21.488-21.301-23.372z" class="prefix__cls-5" data-name="Path 9637" transform="translate(-135.598 -231.93)"/>
                        <g id="prefix__Group_12443" clip-path="url(#prefix__clip-path)" data-name="Group 12443">
                            <path id="prefix__Path_9638" d="M211.373 321.537c-5.417-.731-11.841-2.2-16.7-5.155-10.267-6.233-12.833-17.967-16.5-22.367s-10.267-4.033-13.2-8.8 1.833-39.966-6.6-42.166a19.3 19.3 0 0 0-5.262-.751c-.053.041-.109.079-.162.12-9.426 7.352-17.532 38.081-17.344 52.785s5.656 22.057 19.417 28.089 39.4 3.77 53.727-.754a24.284 24.284 0 0 0 2.624-1.001z" data-name="Path 9638" opacity="0.13" transform="translate(-135.598 -236.595)"/>
                        </g>
                        <path id="prefix__Path_9640" d="M176.7 232.1s-14.327-1.7-23.753 5.655-17.532 38.081-17.344 52.785 5.656 22.056 19.417 28.089 39.4 3.77 53.727-.754 19.04-20.36 18.851-28.843-9.614-18.286-12.819-20.36-12.253-6.41-16.778-13.2-11.124-21.488-21.301-23.372z" class="prefix__cls-4" data-name="Path 9640" transform="translate(-135.598 -231.93)"/>
                    </g>
                    <g id="prefix__Group_12450" data-name="Group 12450" transform="translate(28.892 31.68)">
                        <g id="prefix__Group_12445" data-name="Group 12445" transform="translate(3.82 4.42)">
                            <path id="prefix__Path_9641" d="M184.093 243.434s-9.35 1.787-11 3.437-8.525 27.5-8.525 27.5a10.229 10.229 0 0 1 5.775.275c2.75 1.1 3.025 3.987 3.3 5.362a49.206 49.206 0 0 1 .412 4.95s27.793-2.483 33.706-3.858a119.642 119.642 0 0 1 14.91-2.007s-15.2-34.285-17.542-35.523-12.1-1.375-13.475-1.1-7.561.964-7.561.964z" class="prefix__cls-3" data-name="Path 9641" transform="translate(-164.568 -242.353)"/>
                            <path id="prefix__Line_108" d="M0 19.112L2.337 0" class="prefix__cls-8" data-name="Line 108" transform="translate(10.312 13.732)"/>
                            <path id="prefix__Line_109" d="M0 4.125L3.162 0" class="prefix__cls-8" data-name="Line 109" transform="translate(12.1 14.694)"/>
                            <path id="prefix__Path_9642" d="M203.818 278.706s8.937-2.887 14.85-2.887" class="prefix__cls-8" data-name="Path 9642" transform="translate(-182.231 -257.413)"/>
                            <path id="prefix__Path_9643" d="M218.666 266.736l-.6 4.583s1.512 0 1.65.688a1.825 1.825 0 0 1-.55 1.375s4.262 2.337 4.812 5.087" class="prefix__cls-8" data-name="Path 9643" transform="translate(-188.643 -253.325)"/>
                        </g>
                        <g id="prefix__Group_12447" data-name="Group 12447" transform="translate(22.23)">
                            <path id="prefix__Path_9644" d="M204.289 234.685s-5.133 1.65-5.866 2.933-.184 10.267-.184 11.367.642-.642 1.192-1.925 2.475-3.208 3.117-3.025 1.008.917 1.008 2.108 1.467 2.842 2.75 3.759 2.475 1.833 2.475 1.833 2.658-3.85 3.3-4.858.55-3.117.642-3.85 1.741 2.016 2.108 1.283-.825-1.375-2.108-3.392-.917-4.125-2.842-5.591-4.125-1.009-5.592-.642z" class="prefix__cls-9" data-name="Path 9644" transform="translate(-198.041 -234.316)"/>
                            <g id="prefix__Group_12446" clip-path="url(#prefix__clip-path-2)" data-name="Group 12446">
                                <path id="prefix__Path_9645" d="M198.423 237.9c-.49.856-.408 5.14-.3 8.223 1.169-1.509 3.583-4.353 4.982-3.815 1.78.685 2.465 5.752 2.465 5.752l-1.2-13.112-.079.019s-5.135 1.653-5.868 2.933z" class="prefix__cls-5" data-name="Path 9645" transform="translate(-198.041 -234.602)"/>
                                <path id="prefix__Path_9646" d="M198.423 237.9c-.49.856-.408 5.14-.3 8.223 1.169-1.509 3.583-4.353 4.982-3.815 1.78.685 2.465 5.752 2.465 5.752l-1.2-13.112-.079.019s-5.135 1.653-5.868 2.933z" class="prefix__cls-11" data-name="Path 9646" transform="translate(-198.041 -234.602)"/>
                            </g>
                            <path id="prefix__Path_9648" d="M204.289 234.685s-5.133 1.65-5.866 2.933-.184 10.267-.184 11.367.642-.642 1.192-1.925 2.475-3.208 3.117-3.025 1.008.917 1.008 2.108 1.467 2.842 2.75 3.759 2.475 1.833 2.475 1.833 2.658-3.85 3.3-4.858.55-3.117.642-3.85 1.741 2.016 2.108 1.283-.825-1.375-2.108-3.392-.917-4.125-2.842-5.591-4.125-1.009-5.592-.642z" class="prefix__cls-4" data-name="Path 9648" transform="translate(-198.041 -234.316)"/>
                        </g>
                        <g id="prefix__Group_12449" data-name="Group 12449" transform="translate(0 32.552)">
                            <path id="prefix__Path_9649" d="M173.955 298.489s-3.162-4.537-7.012-4.95-8.525 2.75-8.662 3.85-1.1 7.012-.412 7.837 3.3 1.513 8.387-.138 7.144-3.712 7.699-6.599z" class="prefix__cls-9" data-name="Path 9649" transform="translate(-157.622 -293.502)"/>
                            <g id="prefix__Group_12448" clip-path="url(#prefix__clip-path-3)" data-name="Group 12448">
                                <path id="prefix__Path_9650" d="M161.089 305.218s-1.1-3.15-.548-4.245 2.739-2.739 4.108-4.382-3.207.93-3.424 0c-.174-.749 2.411-2.241 3.429-2.8-3.2.612-6.264 2.839-6.375 3.726-.137 1.1-1.1 7.012-.412 7.837a3.723 3.723 0 0 0 2.685.862c.332-.575.537-.998.537-.998z" class="prefix__cls-5" data-name="Path 9650" transform="translate(-157.622 -293.633)"/>
                                <path id="prefix__Path_9651" d="M161.089 305.218s-1.1-3.15-.548-4.245 2.739-2.739 4.108-4.382-3.207.93-3.424 0c-.174-.749 2.411-2.241 3.429-2.8-3.2.612-6.264 2.839-6.375 3.726-.137 1.1-1.1 7.012-.412 7.837a3.723 3.723 0 0 0 2.685.862c.332-.575.537-.998.537-.998z" class="prefix__cls-11" data-name="Path 9651" transform="translate(-157.622 -293.633)"/>
                            </g>
                            <path id="prefix__Path_9653" d="M173.955 298.489s-3.162-4.537-7.012-4.95-8.525 2.75-8.662 3.85-1.1 7.012-.412 7.837 3.3 1.513 8.387-.138 7.144-3.712 7.699-6.599z" class="prefix__cls-4" data-name="Path 9653" transform="translate(-157.622 -293.502)"/>
                        </g>
                    </g>
                    <g id="prefix__Group_12452" data-name="Group 12452" transform="translate(29.135 61.381)">
                        <path id="prefix__Path_9654" d="M163.428 297.394s-5.16 2.048-5.362 6.05c-.112 2.214 3.575 3.162 7.425 3.162s9.35-4.812 12.925-6.875 11.825-6.875 12.787-7.287 4.262.688 5.637 1.1a18.6 18.6 0 0 0 3.987.413s1.925 3.025 2.887 3.025-2.062-4.537-2.475-5.5-7.15-3.162-7.975-3.162-20.075 4.812-22.962 5.912-6.874 3.162-6.874 3.162z" class="prefix__cls-9" data-name="Path 9654" transform="translate(-158.063 -288.319)"/>
                        <g id="prefix__Group_12451" clip-path="url(#prefix__clip-path-4)" data-name="Group 12451">
                            <path id="prefix__Path_9655" d="M174.212 296.821c7.863-3.931 19.053-8.5 19.053-8.5-.825 0-20.075 4.812-22.962 5.912s-6.875 3.162-6.875 3.162-5.16 2.048-5.362 6.05c-.112 2.214 3.575 3.162 7.425 3.162s9.35-4.812 12.925-6.875l2.166-1.253c-5.253.675-12.271 1.293-6.37-1.658z" class="prefix__cls-5" data-name="Path 9655" transform="translate(-158.063 -288.319)"/>
                            <path id="prefix__Path_9656" d="M174.212 296.821c7.863-3.931 19.053-8.5 19.053-8.5-.825 0-20.075 4.812-22.962 5.912s-6.875 3.162-6.875 3.162-5.16 2.048-5.362 6.05c-.112 2.214 3.575 3.162 7.425 3.162s9.35-4.812 12.925-6.875l2.166-1.253c-5.253.675-12.271 1.293-6.37-1.658z" class="prefix__cls-11" data-name="Path 9656" transform="translate(-158.063 -288.319)"/>
                        </g>
                        <path id="prefix__Path_9658" d="M163.428 297.394s-5.16 2.048-5.362 6.05c-.112 2.214 3.575 3.162 7.425 3.162s9.35-4.812 12.925-6.875 11.825-6.875 12.787-7.287 4.262.688 5.637 1.1a18.6 18.6 0 0 0 3.987.413s1.925 3.025 2.887 3.025-2.062-4.537-2.475-5.5-7.15-3.162-7.975-3.162-20.075 4.812-22.962 5.912-6.874 3.162-6.874 3.162z" class="prefix__cls-4" data-name="Path 9658" transform="translate(-158.063 -288.319)"/>
                    </g>
                    <g id="prefix__Group_12455" data-name="Group 12455" transform="translate(55.795 38.729)">
                        <path id="prefix__Path_9659" d="M237.508 248.28l-4.19 23.568 30.25.138 4.5-22.349a1.388 1.388 0 0 0-1.319-1.662l-27.831-.84a1.389 1.389 0 0 0-1.41 1.145z" class="prefix__cls-2" data-name="Path 9659" transform="translate(-218.589 -247.134)"/>
                        <g id="prefix__Group_12454" data-name="Group 12454" transform="translate(0 24.714)">
                            <path id="prefix__Path_9660" d="M221.267 292.069l-14.73 10.418 33.687-.963 11.292-9.318z" class="prefix__cls-9" data-name="Path 9660" transform="translate(-206.537 -292.069)"/>
                            <g id="prefix__Group_12453" clip-path="url(#prefix__clip-path-5)" data-name="Group 12453">
                                <path id="prefix__Path_9661" d="M221.267 292.069l-14.73 10.418 33.687-.963 11.292-9.318z" class="prefix__cls-5" data-name="Path 9661" transform="translate(-206.537 -292.069)"/>
                                <path id="prefix__Path_9662" d="M221.267 292.069l-14.73 10.418 33.687-.963 11.292-9.318z" class="prefix__cls-11" data-name="Path 9662" transform="translate(-206.537 -292.069)"/>
                            </g>
                            <path id="prefix__Path_9664" d="M221.267 292.069l-14.73 10.418 33.687-.963 11.292-9.318z" class="prefix__cls-4" data-name="Path 9664" transform="translate(-206.537 -292.069)"/>
                        </g>
                    </g>
                    <g id="prefix__Group_12457" data-name="Group 12457" transform="translate(81.662 57.323)">
                        <path id="prefix__Path_9665" d="M253.568 297.374s12.1-10.587 24.062-14.162 14.437-3.025 14.162 2.337-6.05 33.412-9.9 40.562-8.662 20.212-8.525 22.687 4.812 9.762 8.937 12.375 3.712 5.775 1.1 6.325-5.637 1.512-14.575-4.263-12.65-14.025-12.1-16.087 6.325-4.812 8.662-8.937 6.187-19.525 6.462-26.537a41.667 41.667 0 0 1 2.75-12.925s-15.125 2.75-19.525 5.5z" class="prefix__cls-9" data-name="Path 9665" transform="translate(-253.568 -280.941)"/>
                        <g id="prefix__Group_12456" clip-path="url(#prefix__clip-path-6)" data-name="Group 12456">
                            <path id="prefix__Path_9666" d="M253.568 297.374s12.1-10.587 24.062-14.162 14.437-3.025 14.162 2.337-6.05 33.412-9.9 40.562-8.662 20.212-8.525 22.687 4.812 9.762 8.937 12.375 3.712 5.775 1.1 6.325-5.637 1.512-14.575-4.263-12.65-14.025-12.1-16.087 6.325-4.812 8.662-8.937 6.187-19.525 6.462-26.537a41.667 41.667 0 0 1 2.75-12.925s-15.125 2.75-19.525 5.5z" class="prefix__cls-5" data-name="Path 9666" transform="translate(-253.568 -280.941)"/>
                            <path id="prefix__Path_9667" d="M253.568 297.374s12.1-10.587 24.062-14.162 14.437-3.025 14.162 2.337-6.05 33.412-9.9 40.562-8.662 20.212-8.525 22.687 4.812 9.762 8.937 12.375 3.712 5.775 1.1 6.325-5.637 1.512-14.575-4.263-12.65-14.025-12.1-16.087 6.325-4.812 8.662-8.937 6.187-19.525 6.462-26.537a41.667 41.667 0 0 1 2.75-12.925s-15.125 2.75-19.525 5.5z" class="prefix__cls-11" data-name="Path 9667" transform="translate(-253.568 -280.941)"/>
                        </g>
                        <path id="prefix__Path_9669" d="M253.568 297.374s12.1-10.587 24.062-14.162 14.437-3.025 14.162 2.337-6.05 33.412-9.9 40.562-8.662 20.212-8.525 22.687 4.812 9.762 8.937 12.375 3.712 5.775 1.1 6.325-5.637 1.512-14.575-4.263-12.65-14.025-12.1-16.087 6.325-4.812 8.662-8.937 6.187-19.525 6.462-26.537a41.667 41.667 0 0 1 2.75-12.925s-15.125 2.75-19.525 5.5z" class="prefix__cls-4" data-name="Path 9669" transform="translate(-253.568 -280.941)"/>
                    </g>
                    <path id="prefix__Path_9670" d="M265.393 338.211a10.381 10.381 0 0 1-.584.9 14.13 14.13 0 0 1 7.734 3.223 25.17 25.17 0 0 1 1.88 1.818 120.791 120.791 0 0 1 7.469-18.043c3.85-7.15 9.625-35.2 9.9-40.562s-2.2-5.912-14.162-2.337-24.062 14.162-24.062 14.162l1.513 6.875c4.4-2.75 19.525-5.5 19.525-5.5a41.667 41.667 0 0 0-2.75 12.925c-.276 7.014-4.126 22.414-6.463 26.539z" class="prefix__cls-2" data-name="Path 9670" transform="translate(-171.906 -223.618)"/>
                    <g id="prefix__Group_12459" data-name="Group 12459" transform="translate(81.662 57.323)">
                        <path id="prefix__Path_9671" d="M265.393 338.211a10.381 10.381 0 0 1-.584.9 14.13 14.13 0 0 1 7.734 3.223 25.17 25.17 0 0 1 1.88 1.818c2.636-3.538 5.6-14.712 8.944-19.308 8.643-11.874 8.15-33.935 8.425-39.3s-2.2-5.912-14.162-2.337-24.062 14.162-24.062 14.162l1.513 6.875c4.4-2.75 19.525-5.5 19.525-5.5a41.667 41.667 0 0 0-2.75 12.925c-.276 7.017-4.126 22.417-6.463 26.542z" data-name="Path 9671" transform="translate(-253.568 -280.941)"/>
                        <g id="prefix__Group_12458" clip-path="url(#prefix__clip-path-7)" data-name="Group 12458">
                            <path id="prefix__Path_9672" d="M265.393 338.211a10.381 10.381 0 0 1-.584.9 14.13 14.13 0 0 1 7.734 3.223 25.17 25.17 0 0 1 1.88 1.818c2.636-3.538 5.6-14.712 8.944-19.308 8.643-11.874 8.15-33.935 8.425-39.3s-2.2-5.912-14.162-2.337-24.062 14.162-24.062 14.162l1.513 6.875c4.4-2.75 19.525-5.5 19.525-5.5a41.667 41.667 0 0 0-2.75 12.925c-.276 7.017-4.126 22.417-6.463 26.542z" class="prefix__cls-17" data-name="Path 9672" transform="translate(-253.568 -280.941)"/>
                            <path id="prefix__Path_9673" d="M285.98 287.776c-.217-1.952-21.484 7.048-30.453 10.935-1.245.992-1.959 1.615-1.959 1.615l1.513 6.875c4.4-2.75 19.525-5.5 19.525-5.5a41.666 41.666 0 0 0-2.75 12.925c-.275 7.012-4.125 22.412-6.462 26.537a10.3 10.3 0 0 1-.584.9 15.671 15.671 0 0 1 4.39 1.137c3.331-7.042 6.86-15.206 8.535-21.6 3.02-11.549 8.52-31.349 8.245-33.824z" class="prefix__cls-18" data-name="Path 9673" transform="translate(-253.568 -283.893)"/>
                            <path id="prefix__Path_9674" d="M291.818 303.644s4.125-8.387 7.7-11.825" class="prefix__cls-4" data-name="Path 9674" transform="translate(-270.781 -285.836)"/>
                        </g>
                        <path id="prefix__Path_9676" d="M265.393 338.211a10.381 10.381 0 0 1-.584.9 14.13 14.13 0 0 1 7.734 3.223 25.17 25.17 0 0 1 1.88 1.818c2.636-3.538 5.6-14.712 8.944-19.308 8.643-11.874 8.15-33.935 8.425-39.3s-2.2-5.912-14.162-2.337-24.062 14.162-24.062 14.162l1.513 6.875c4.4-2.75 19.525-5.5 19.525-5.5a41.667 41.667 0 0 0-2.75 12.925c-.276 7.017-4.126 22.417-6.463 26.542z" class="prefix__cls-4" data-name="Path 9676" transform="translate(-253.568 -280.941)"/>
                    </g>
                    <path id="prefix__Path_9677" d="M220.567 325.018a47.293 47.293 0 0 0 13.008-2.451c6.221-2.262-5.09-6.409-9.426-4.147a6.443 6.443 0 0 0-3.582 6.598z" class="prefix__cls-3" data-name="Path 9677" transform="translate(-157.033 -240.189)"/>
                    <g id="prefix__Group_12461" data-name="Group 12461" transform="translate(39.504 65.689)">
                        <path id="prefix__Path_9678" d="M183.05 306.419s-4.4 2.475-5.912 5.225 5 7.334 11.871 7.059 19.479-7.746 19.479-7.746.138 12.1 2.475 16.5 13.062 15.125 17.325 17.875 18.562 13.062 20.762 14.712 6.325 4.675 7.287 4.812 11-12.1 13.337-16.225 4.4-12.787 3.575-14.712-2.475-.275-4.125 1.1-16.775 11.412-18.15 12.1a15.091 15.091 0 0 1-2.337.962s-12.375-11.825-18.975-20.9-7.15-20.762-9.625-25.162-6.05-6.325-11.412-5.775a57.15 57.15 0 0 0-25.575 10.175z" class="prefix__cls-9" data-name="Path 9678" transform="translate(-176.917 -296.152)"/>
                        <g id="prefix__Group_12460" clip-path="url(#prefix__clip-path-8)" data-name="Group 12460">
                            <path id="prefix__Path_9679" d="M293.853 399.349c3.672 2.631 6.87 4.953 7.818 5.664 2.2 1.65 6.325 4.675 7.287 4.812.342.049 1.826-1.462 3.7-3.612l-15.746-10.129z" class="prefix__cls-5" data-name="Path 9679" transform="translate(-229.538 -341.122)"/>
                            <path id="prefix__Path_9680" d="M293.853 399.349c3.672 2.631 6.87 4.953 7.818 5.664 2.2 1.65 6.325 4.675 7.287 4.812.342.049 1.826-1.462 3.7-3.612l-15.746-10.129z" class="prefix__cls-11" data-name="Path 9680" transform="translate(-229.538 -341.122)"/>
                        </g>
                        <path id="prefix__Path_9682" d="M183.05 306.419s-4.4 2.475-5.912 5.225 5 7.334 11.871 7.059 19.479-7.746 19.479-7.746.138 12.1 2.475 16.5 13.062 15.125 17.325 17.875 18.562 13.062 20.762 14.712 6.325 4.675 7.287 4.812 11-12.1 13.337-16.225 4.4-12.787 3.575-14.712-2.475-.275-4.125 1.1-16.775 11.412-18.15 12.1a15.091 15.091 0 0 1-2.337.962s-12.375-11.825-18.975-20.9-7.15-20.762-9.625-25.162-6.05-6.325-11.412-5.775a57.15 57.15 0 0 0-25.575 10.175z" class="prefix__cls-4" data-name="Path 9682" transform="translate(-176.917 -296.152)"/>
                    </g>
                    <g id="prefix__Group_12463" data-name="Group 12463" transform="translate(37.781 65.581)">
                        <path id="prefix__Path_9683" d="M246.373 347.166c-2.908-2.836-13.816-17.472-18.121-25.886-6.308-12.33-6.988-16.532-9.463-20.932s-6.213-4.743-11.575-4.193a63.485 63.485 0 0 0-26.729 8.222s-4.941 2.686-6.454 5.436 3.994 9.674 13.566 8.8c6.852-.626 19.479-7.746 19.479-7.746s.137 12.1 2.475 16.5 13.062 15.125 17.325 17.875c2.7 1.744 9.441 6.528 14.571 10.217a16.514 16.514 0 0 1 4.926-8.293z" data-name="Path 9683" transform="translate(-173.784 -295.956)"/>
                        <g id="prefix__Group_12462" clip-path="url(#prefix__clip-path-9)" data-name="Group 12462">
                            <path id="prefix__Path_9684" d="M246.373 347.166c-2.908-2.836-13.816-17.472-18.121-25.886-6.308-12.33-6.988-16.532-9.463-20.932s-6.213-4.743-11.575-4.193a63.485 63.485 0 0 0-26.729 8.222s-4.941 2.686-6.454 5.436 3.994 9.674 13.566 8.8c6.852-.626 19.479-7.746 19.479-7.746s.137 12.1 2.475 16.5 13.062 15.125 17.325 17.875c2.7 1.744 9.441 6.528 14.571 10.217a16.514 16.514 0 0 1 4.926-8.293z" class="prefix__cls-17" data-name="Path 9684" transform="translate(-173.784 -295.956)"/>
                            <path id="prefix__Path_9685" d="M218.853 329.9c-4.125-10.45-1.65-31.35-13.2-28.6-8.417 2-23.84 9.118-31.591 12.831.915 3.156 5.976 7.48 13.661 6.778 6.852-.626 19.479-7.746 19.479-7.746s.137 12.1 2.475 16.5S222.74 344.786 227 347.536c2.7 1.744 9.441 6.528 14.571 10.217a19.5 19.5 0 0 1 1.921-4.608c-10.239-7.565-22.337-17.414-24.639-23.245z" class="prefix__cls-18" data-name="Path 9685" transform="translate(-173.909 -298.249)"/>
                            <path id="prefix__Line_110" d="M0.412 7.15L0 0" class="prefix__cls-4" data-name="Line 110" transform="translate(32.881 7.762)"/>
                        </g>
                        <path id="prefix__Path_9687" d="M246.373 347.166c-2.908-2.836-13.816-17.472-18.121-25.886-6.308-12.33-6.988-16.532-9.463-20.932s-6.213-4.743-11.575-4.193a63.485 63.485 0 0 0-26.729 8.222s-4.941 2.686-6.454 5.436 3.994 9.674 13.566 8.8c6.852-.626 19.479-7.746 19.479-7.746s.137 12.1 2.475 16.5 13.062 15.125 17.325 17.875c2.7 1.744 9.441 6.528 14.571 10.217a16.514 16.514 0 0 1 4.926-8.293z" class="prefix__cls-4" data-name="Path 9687" transform="translate(-173.784 -295.956)"/>
                    </g>
                    <path id="prefix__Path_9688" d="M307.365 390.227c2.2 1.65 6.325 4.675 7.287 4.812s11-12.1 13.337-16.225 4.4-12.787 3.575-14.712-2.475-.275-4.125 1.1-16.775 11.412-18.15 12.1c-.36.18-.69.331-.983.457a3.564 3.564 0 0 0-.529 2.706c.55 1.237 2.888 2.887 2.888 2.887l-4.16 6.24c.37.271.664.489.86.635z" class="prefix__cls-3" data-name="Path 9688" transform="translate(-195.728 -260.646)"/>
                    <g id="prefix__Group_12465" data-name="Group 12465" transform="translate(116.574 102.582)">
                        <path id="prefix__Path_9689" d="M332.733 378.816c2.337-4.125 4.4-12.787 3.575-14.712-.478-1.115-1.234-1.027-2.1-.491.579 2.572-.006 7.528-2.845 12.866-2.534 4.764-10.366 13.181-14.312 17.281a9.217 9.217 0 0 0 2.35 1.281c.957.138 10.999-12.1 13.332-16.225z" class="prefix__cls-9" data-name="Path 9689" transform="translate(-317.046 -363.23)"/>
                        <g id="prefix__Group_12464" clip-path="url(#prefix__clip-path-10)" data-name="Group 12464">
                            <path id="prefix__Path_9690" d="M319.536 416.814a1.04 1.04 0 0 0 .117-.064l.037-.023c.056-.037.117-.082.184-.135l.065-.053c.051-.041.1-.087.16-.136l.09-.079c.068-.061.139-.127.213-.2l.133-.128.18-.177.156-.156.152-.155c.126-.13.257-.266.393-.411l.063-.066.246-.265.1-.105c.288-.313.592-.652.911-1.013l.025-.028.337-.385-2.4-1.544c-1.369 1.486-2.638 2.824-3.651 3.876l.373.243.051.032.34.215h.007c.188.117.362.22.528.315l.154.087c.054.03.1.056.154.082s.119.062.175.09l.12.057c.06.027.115.051.168.072l.083.032a1.12 1.12 0 0 0 .2.053.23.23 0 0 0 .1-.02c.011.001.024-.005.036-.011z" class="prefix__cls-5" data-name="Path 9690" transform="translate(-317.046 -385.038)"/>
                            <path id="prefix__Path_9691" d="M319.536 416.814a1.04 1.04 0 0 0 .117-.064l.037-.023c.056-.037.117-.082.184-.135l.065-.053c.051-.041.1-.087.16-.136l.09-.079c.068-.061.139-.127.213-.2l.133-.128.18-.177.156-.156.152-.155c.126-.13.257-.266.393-.411l.063-.066.246-.265.1-.105c.288-.313.592-.652.911-1.013l.025-.028.337-.385-2.4-1.544c-1.369 1.486-2.638 2.824-3.651 3.876l.373.243.051.032.34.215h.007c.188.117.362.22.528.315l.154.087c.054.03.1.056.154.082s.119.062.175.09l.12.057c.06.027.115.051.168.072l.083.032a1.12 1.12 0 0 0 .2.053.23.23 0 0 0 .1-.02c.011.001.024-.005.036-.011z" class="prefix__cls-11" data-name="Path 9691" transform="translate(-317.046 -385.038)"/>
                        </g>
                        <path id="prefix__Path_9693" d="M332.733 378.816c2.337-4.125 4.4-12.787 3.575-14.712-.478-1.115-1.234-1.027-2.1-.491.579 2.572-.006 7.528-2.845 12.866-2.534 4.764-10.366 13.181-14.312 17.281a9.217 9.217 0 0 0 2.35 1.281c.957.138 10.999-12.1 13.332-16.225z" class="prefix__cls-4" data-name="Path 9693" transform="translate(-317.046 -363.23)"/>
                    </g>
                    <path id="prefix__Path_9694" d="M284.849 412c-4.125-2.612-8.8-9.9-8.937-12.375a4.264 4.264 0 0 1 .064-.811 3.968 3.968 0 0 0-2.264.811 52.57 52.57 0 0 0-5.362-4.262 11.2 11.2 0 0 0-4.932-1.477c-2 1.64-3.843 2.968-4.143 4.089-.55 2.062 3.163 10.312 12.1 16.087s11.962 4.813 14.575 4.262 3.024-3.713-1.101-6.324z" class="prefix__cls-3" data-name="Path 9694" transform="translate(-174.45 -274.443)"/>
                    <g id="prefix__Group_12467" data-name="Group 12467" transform="translate(84.771 122.007)">
                        <path id="prefix__Path_9696" d="M284.849 414.1a18.127 18.127 0 0 1-3.665-3.3 74.619 74.619 0 0 1-9.948-4.816c-3.575-2.2-2.75-3.575-4.812-5.637-1.582-1.582-4.7-1.788-6.063-1.8a3.757 3.757 0 0 0-1.087 1.523c-.55 2.062 3.163 10.312 12.1 16.087s11.962 4.812 14.575 4.262 3.025-3.709-1.1-6.319z" class="prefix__cls-9" data-name="Path 9696" transform="translate(-259.222 -398.549)"/>
                        <g id="prefix__Group_12466" clip-path="url(#prefix__clip-path-11)" data-name="Group 12466">
                            <path id="prefix__Path_9697" d="M284.849 414.1a18.127 18.127 0 0 1-3.665-3.3 74.619 74.619 0 0 1-9.948-4.816c-3.575-2.2-2.75-3.575-4.812-5.637-1.582-1.582-4.7-1.788-6.063-1.8a3.757 3.757 0 0 0-1.087 1.523c-.55 2.062 3.163 10.312 12.1 16.087s11.962 4.812 14.575 4.262 3.025-3.709-1.1-6.319z" class="prefix__cls-5" data-name="Path 9697" transform="translate(-259.222 -398.549)"/>
                            <path id="prefix__Path_9698" d="M284.849 414.1a18.127 18.127 0 0 1-3.665-3.3 74.619 74.619 0 0 1-9.948-4.816c-3.575-2.2-2.75-3.575-4.812-5.637-1.582-1.582-4.7-1.788-6.063-1.8a3.757 3.757 0 0 0-1.087 1.523c-.55 2.062 3.163 10.312 12.1 16.087s11.962 4.812 14.575 4.262 3.025-3.709-1.1-6.319z" class="prefix__cls-11" data-name="Path 9698" transform="translate(-259.222 -398.549)"/>
                        </g>
                        <path id="prefix__Path_9700" d="M284.849 414.1a18.127 18.127 0 0 1-3.665-3.3 74.619 74.619 0 0 1-9.948-4.816c-3.575-2.2-2.75-3.575-4.812-5.637-1.582-1.582-4.7-1.788-6.063-1.8a3.757 3.757 0 0 0-1.087 1.523c-.55 2.062 3.163 10.312 12.1 16.087s11.962 4.812 14.575 4.262 3.025-3.709-1.1-6.319z" class="prefix__cls-4" data-name="Path 9700" transform="translate(-259.222 -398.549)"/>
                    </g>
                    <g id="prefix__Group_12469" data-name="Group 12469" transform="translate(84.774 123.11)">
                        <path id="prefix__Path_9701" d="M285.539 415.962c-3.575-2.062-10.862-3.437-15.537-6.6s-3.437-5.912-6.875-8.112a3.5 3.5 0 0 0-3.86-.221c-.477 2.144 3.244 10.3 12.11 16.033 8.937 5.775 11.962 4.812 14.575 4.262 1.736-.365 2.491-1.886 1.6-3.632a7.56 7.56 0 0 0-2.013-1.73z" data-name="Path 9701" transform="translate(-259.226 -400.553)"/>
                        <g id="prefix__Group_12468" clip-path="url(#prefix__clip-path-12)" data-name="Group 12468">
                            <path id="prefix__Path_9702" d="M285.539 415.962c-3.575-2.062-10.862-3.437-15.537-6.6s-3.437-5.912-6.875-8.112a3.5 3.5 0 0 0-3.86-.221c-.477 2.144 3.244 10.3 12.11 16.033 8.937 5.775 11.962 4.812 14.575 4.262 1.736-.365 2.491-1.886 1.6-3.632a7.56 7.56 0 0 0-2.013-1.73z" class="prefix__cls-17" data-name="Path 9702" transform="translate(-259.226 -400.553)"/>
                        </g>
                        <path id="prefix__Path_9704" d="M285.539 415.962c-3.575-2.062-10.862-3.437-15.537-6.6s-3.437-5.912-6.875-8.112a3.5 3.5 0 0 0-3.86-.221c-.477 2.144 3.244 10.3 12.11 16.033 8.937 5.775 11.962 4.812 14.575 4.262 1.736-.365 2.491-1.886 1.6-3.632a7.56 7.56 0 0 0-2.013-1.73z" class="prefix__cls-4" data-name="Path 9704" transform="translate(-259.226 -400.553)"/>
                    </g>
                    <g id="prefix__Group_12471" data-name="Group 12471" transform="translate(29.562 92.8)">
                        <path id="prefix__Path_9705" d="M180.948 379.377s2.639-3.2 3.016-.754-.189 6.975-2.074 8.672-2.828-.943-2.828-.943l1.131-1.508s.943 1.885 1.7-1.131-1.508-2.639-1.508-2.639z" class="prefix__cls-2" data-name="Path 9705" transform="translate(-167.941 -359.96)"/>
                        <path id="prefix__Path_9706" d="M169.827 391.01c-1.562 1.157-6.651 1.157-8.213 0-3.305-2.447-2.737-14.27-2.737-14.27h13.675s.581 11.823-2.725 14.27z" class="prefix__cls-2" data-name="Path 9706" transform="translate(-158.84 -359.528)"/>
                        <g id="prefix__Group_12470" data-name="Group 12470" transform="translate(1.523)">
                            <path id="prefix__Path_9707" d="M161.61 360.338c0-1.489 1.378-1.489 1.378-2.978s-1.378-1.488-1.378-2.976 1.378-1.489 1.378-2.978-1.378-1.491-1.378-2.98 1.378-1.491 1.378-2.98" class="prefix__cls-4" data-name="Path 9707" transform="translate(-161.61 -345.445)"/>
                            <path id="prefix__Path_9708" d="M170.2 363.268c0-1.13 1.378-1.13 1.378-2.26s-1.378-1.13-1.378-2.26 1.378-1.131 1.378-2.262-1.378-1.132-1.378-2.264 1.378-1.132 1.378-2.264" class="prefix__cls-4" data-name="Path 9708" transform="translate(-165.476 -348.375)"/>
                            <path id="prefix__Path_9709" d="M179.648 360.338c0-1.489 1.378-1.489 1.378-2.978s-1.378-1.488-1.378-2.976 1.378-1.489 1.378-2.978-1.378-1.491-1.378-2.98 1.378-1.491 1.378-2.98" class="prefix__cls-4" data-name="Path 9709" transform="translate(-169.727 -345.445)"/>
                        </g>
                        <path id="prefix__Path_9710" d="M172.583 376.231c0 .344-3.061.623-6.838.623s-6.838-.279-6.838-.623 3.061-.623 6.838-.623 6.838.279 6.838.623z" class="prefix__cls-2" data-name="Path 9710" transform="translate(-158.871 -359.019)"/>
                    </g>
                    <g id="prefix__Group_12482" data-name="Group 12482" transform="translate(48.092)">
                        <g id="prefix__Group_12473" data-name="Group 12473" transform="translate(7.804 24.749)">
                            <path id="prefix__Path_9711" d="M206.721 221.885s.641 6.946.91 9.138.885 8.5 1.517 10.582 4.078 5.711 4.412 4.872 2.038-6.5 1.355-9.869-.89-6.295-.465-7.137a6.908 6.908 0 0 1 1.947-1.819 54.171 54.171 0 0 1-5.164-3.008c-2.45-1.644-4.174-3.507-4.512-2.759z" class="prefix__cls-9" data-name="Path 9711" transform="translate(-206.721 -221.715)"/>
                            <g id="prefix__Group_12472" clip-path="url(#prefix__clip-path-13)" data-name="Group 12472">
                                <path id="prefix__Path_9712" d="M215.547 227.973l-.562-1.071c-1.01-.553-2.418-1.363-3.752-2.259-2.45-1.646-4.174-3.505-4.512-2.758 0 0 .641 6.946.91 9.138s.885 8.5 1.517 10.582a6.949 6.949 0 0 0 .881 1.715c-.665-4.148.057-11.634.057-11.634z" class="prefix__cls-5" data-name="Path 9712" transform="translate(-206.721 -221.715)"/>
                                <path id="prefix__Path_9713" d="M215.547 227.973l-.562-1.071c-1.01-.553-2.418-1.363-3.752-2.259-2.45-1.646-4.174-3.505-4.512-2.758 0 0 .641 6.946.91 9.138s.885 8.5 1.517 10.582a6.949 6.949 0 0 0 .881 1.715c-.665-4.148.057-11.634.057-11.634z" class="prefix__cls-11" data-name="Path 9713" transform="translate(-206.721 -221.715)"/>
                            </g>
                            <path id="prefix__Path_9715" d="M206.721 221.885s.641 6.946.91 9.138.885 8.5 1.517 10.582 4.078 5.711 4.412 4.872 2.038-6.5 1.355-9.869-.89-6.295-.465-7.137a6.908 6.908 0 0 1 1.947-1.819 54.171 54.171 0 0 1-5.164-3.008c-2.45-1.644-4.174-3.507-4.512-2.759z" class="prefix__cls-4" data-name="Path 9715" transform="translate(-206.721 -221.715)"/>
                        </g>
                        <g id="prefix__Group_12481" data-name="Group 12481">
                            <g id="prefix__Group_12476" data-name="Group 12476" transform="translate(4.533 8.993)">
                                <g id="prefix__Group_12475" data-name="Group 12475">
                                    <path id="prefix__Path_9716" d="M203.788 209.985a33.231 33.231 0 0 0 7 4.512c3.04 1.2 7.705 1.134 8.361-.449S218 199.97 216.431 196.68s-3.244-3.343-6.007-3.594-8.3 2-9.272 4.674.135 6.458.941 8.7a16.56 16.56 0 0 0 1.695 3.525z" class="prefix__cls-9" data-name="Path 9716" transform="translate(-200.773 -193.067)"/>
                                    <g id="prefix__Group_12474" clip-path="url(#prefix__clip-path-14)" data-name="Group 12474">
                                        <path id="prefix__Path_9717" d="M210.9 209.839c-1.4-4.171-1.747-10.7-1.747-12.449 0-1.348 3.509-2.825 5.113-3.43a8.547 8.547 0 0 0-3.845-.873c-2.763-.251-8.3 2-9.272 4.674s.135 6.458.941 8.7a16.56 16.56 0 0 0 1.695 3.524 33.231 33.231 0 0 0 7 4.512 12.628 12.628 0 0 0 6.569.634c-2.145-.821-5.515-2.513-6.454-5.292z" class="prefix__cls-5" data-name="Path 9717" transform="translate(-200.773 -193.067)"/>
                                        <path id="prefix__Path_9718" d="M210.9 209.839c-1.4-4.171-1.747-10.7-1.747-12.449 0-1.348 3.509-2.825 5.113-3.43a8.547 8.547 0 0 0-3.845-.873c-2.763-.251-8.3 2-9.272 4.674s.135 6.458.941 8.7a16.56 16.56 0 0 0 1.695 3.524 33.231 33.231 0 0 0 7 4.512 12.628 12.628 0 0 0 6.569.634c-2.145-.821-5.515-2.513-6.454-5.292z" class="prefix__cls-11" data-name="Path 9718" transform="translate(-200.773 -193.067)"/>
                                    </g>
                                    <path id="prefix__Path_9720" d="M203.788 209.985a33.231 33.231 0 0 0 7 4.512c3.04 1.2 7.705 1.134 8.361-.449S218 199.97 216.431 196.68s-3.244-3.343-6.007-3.594-8.3 2-9.272 4.674.135 6.458.941 8.7a16.56 16.56 0 0 0 1.695 3.525z" class="prefix__cls-4" data-name="Path 9720" transform="translate(-200.773 -193.067)"/>
                                </g>
                                <path id="prefix__Path_9721" d="M225.968 206.7a2.383 2.383 0 1 1-2.444-2.777 2.644 2.644 0 0 1 2.444 2.777z" class="prefix__cls-4" data-name="Path 9721" transform="translate(-210.012 -197.952)"/>
                                <path id="prefix__Path_9722" d="M233.385 205.572c.062 1.585-.449 2.891-1.142 2.918s-1.306-1.235-1.368-2.819.449-2.89 1.142-2.918 1.306 1.235 1.368 2.819z" class="prefix__cls-4" data-name="Path 9722" transform="translate(-214.317 -197.426)"/>
                                <path id="prefix__Path_9723" d="M230.077 207.936s4.542.864 4.107 1.959-3.51 2.277-3.51 2.277" class="prefix__cls-2" data-name="Path 9723" transform="translate(-213.96 -199.758)"/>
                                <path id="prefix__Path_9724" d="M229.571 206.753s.064-.562.767-.2" class="prefix__cls-4" data-name="Path 9724" transform="translate(-213.732 -199.081)"/>
                                <path id="prefix__Line_111" d="M8.261 0L0 3.25" class="prefix__cls-4" data-name="Line 111" transform="translate(2.906 9.19)"/>
                                <path id="prefix__Path_9725" d="M221.276 203.9a2.1 2.1 0 0 1 2.059-1.242" class="prefix__cls-26" data-name="Path 9725" transform="translate(-209.999 -197.382)"/>
                                <path id="prefix__Line_112" d="M1.272 0L0 0.48" class="prefix__cls-26" data-name="Line 112" transform="translate(15.507 5.312)"/>
                                <path id="prefix__Path_9726" d="M224.136 219.426a2.941 2.941 0 0 1 2.59.54" class="prefix__cls-4" data-name="Path 9726" transform="translate(-211.286 -204.886)"/>
                                <path id="prefix__Path_9727" d="M225.46 208.744c.075.552-.026 1.021-.227 1.049s-.425-.4-.5-.949.026-1.021.227-1.049.425.398.5.949z" data-name="Path 9727" transform="translate(-211.544 -199.694)"/>
                            </g>
                            <g id="prefix__Group_12478" data-name="Group 12478">
                                <path id="prefix__Path_9728" d="M200.742 198.172s-.555 1.1 1 1.158 2.606-.7 1.851-1.629-1.868-1.841-.719-3.084 3.381-2.287 2.13-3.675-5.87-.128-4.717-1.251 6.493-2.29 8.892-2.146 6.875-1.707 7.857-4.139-.392-6.927-3.614-6.681-5.624 3.094-7.053 3.27-4.364-1.384-6.822.029-2.542 5.366-2.762 5.854-3.543 1.217-4.128 4.591a8.974 8.974 0 0 0 2.333 7.568c1.376 1.5 2 2.076 2 2.076z" class="prefix__cls-3" data-name="Path 9728" transform="translate(-192.531 -176.716)"/>
                                <g id="prefix__Group_12477" data-name="Group 12477" transform="translate(1.208 4.034)">
                                    <path id="prefix__Path_9729" d="M194.732 204.651a2.6 2.6 0 0 0 .355 1.462" class="prefix__cls-27" data-name="Path 9729" transform="translate(-194.727 -193.321)"/>
                                    <path id="prefix__Path_9730" d="M209.2 186.674s-1.2-2.624 1.858-2.624 3.5 3.827.328 5.248-10.06 1.75-13.777 3.39a4.827 4.827 0 0 0-1.893 1.341" class="prefix__cls-27" data-name="Path 9730" transform="translate(-195.172 -184.05)"/>
                                    <path id="prefix__Path_9731" d="M204.9 205.761c-1.1.393-2.525.944-3.976 1.618-3.061 1.421-2.405 2.843-2.405 2.843" class="prefix__cls-27" data-name="Path 9731" transform="translate(-196.405 -193.82)"/>
                                    <path id="prefix__Path_9732" d="M213.278 204.527s-.267.079-.724.229" class="prefix__cls-27" data-name="Path 9732" transform="translate(-202.749 -193.265)"/>
                                </g>
                            </g>
                            <g id="prefix__Group_12480" data-name="Group 12480" transform="translate(4.185 20.856)">
                                <path id="prefix__Path_9733" d="M204.691 216.412s-1.777-2.564-3.651-1.532-.414 4.684.713 5.956 3.309-1.088 3.524-1.695" class="prefix__cls-9" data-name="Path 9733" transform="translate(-200.14 -214.636)"/>
                                <g id="prefix__Group_12479" clip-path="url(#prefix__clip-path-15)" data-name="Group 12479">
                                    <path id="prefix__Path_9734" d="M204.691 216.412s-1.777-2.564-3.651-1.532-.414 4.684.713 5.956 3.309-1.088 3.524-1.695" class="prefix__cls-5" data-name="Path 9734" transform="translate(-200.14 -214.636)"/>
                                    <path id="prefix__Path_9735" d="M204.691 216.412s-1.777-2.564-3.651-1.532-.414 4.684.713 5.956 3.309-1.088 3.524-1.695" class="prefix__cls-11" data-name="Path 9735" transform="translate(-200.14 -214.636)"/>
                                </g>
                                <path id="prefix__Path_9737" d="M204.691 216.412s-1.777-2.564-3.651-1.532-.414 4.684.713 5.956 3.309-1.088 3.524-1.695" class="prefix__cls-4" data-name="Path 9737" transform="translate(-200.14 -214.636)"/>
                            </g>
                        </g>
                    </g>
                </g>
                <g id="prefix__Group_12484" data-name="Group 12484" transform="translate(0 20.294)">
                    <rect id="prefix__Rectangle_3434" width="45.054" height="34.453" class="prefix__cls-2" data-name="Rectangle 3434" rx="5.12"/>
                    <path id="prefix__Path_9738" d="M171.178 253.729l26.4 6.875-26.4-12.925" class="prefix__cls-2" data-name="Path 9738" transform="translate(-126.981 -228.944)"/>
                    <path id="prefix__Rectangle_3435" d="M0 0H10.601V27.828H0z" class="prefix__cls-1" data-name="Rectangle 3435" transform="translate(3.644 3.313)"/>
                    <path id="prefix__Rectangle_3436" d="M0 0H1.325V27.828H0z" class="prefix__cls-1" data-name="Rectangle 3436" transform="translate(41.391 3.313)"/>
                    <path id="prefix__Rectangle_3437" d="M0 0H1.325V2.378H0z" class="prefix__cls-3" data-name="Rectangle 3437" transform="translate(41.391 16.038)"/>
                    <path id="prefix__Line_113" d="M0 0L20.871 0" class="prefix__cls-2" data-name="Line 113" transform="translate(17.558 3.975)"/>
                    <path id="prefix__Line_114" d="M0 0L20.871 0" class="prefix__cls-2" data-name="Line 114" transform="translate(17.558 6.957)"/>
                    <path id="prefix__Line_115" d="M0 0L20.871 0" class="prefix__cls-2" data-name="Line 115" transform="translate(17.558 9.938)"/>
                    <path id="prefix__Line_116" d="M0 0L20.871 0" class="prefix__cls-2" data-name="Line 116" transform="translate(17.558 12.92)"/>
                    <path id="prefix__Line_117" d="M0 0L20.871 0" class="prefix__cls-2" data-name="Line 117" transform="translate(17.558 20.208)"/>
                    <path id="prefix__Line_118" d="M0 0L20.871 0" class="prefix__cls-2" data-name="Line 118" transform="translate(17.558 22.859)"/>
                    <path id="prefix__Line_119" d="M0 0L20.871 0" class="prefix__cls-2" data-name="Line 119" transform="translate(17.558 25.509)"/>
                    <path id="prefix__Line_120" d="M0 0L20.871 0" class="prefix__cls-2" data-name="Line 120" transform="translate(17.558 31.009)"/>
                    <path id="prefix__Line_121" d="M0 27.828L10.601 0" class="prefix__cls-4" data-name="Line 121" transform="translate(3.644 3.313)"/>
                </g>
            </g>
        </g>
        <g id="prefix__Plants" transform="translate(233.959 181.485)">
            <g id="prefix__Group_12488" data-name="Group 12488">
                <g id="prefix__Group_12487" data-name="Group 12487">
                    <path id="prefix__Path_9739" d="M366.595 288.458a11.605 11.605 0 0 0 3.4.376c.025 0-.518-1.576-.563-1.672-.529-1.105-2.2-2.93-3.56-2.747a1.624 1.624 0 0 0-1.3 2.035 3.394 3.394 0 0 0 2.023 2.008z" data-name="Path 9739" transform="translate(-364.515 -277.417)"/>
                    <path id="prefix__Path_9740" d="M398.308 274.545c-1.364-.147-2.985 1.723-3.484 2.842-.043.1-.543 1.687-.518 1.686h.029c-.258.293-.532.611-.823.963-.533.656-1.131 1.4-1.725 2.256a28.855 28.855 0 0 0-1.787 2.852 21.166 21.166 0 0 0-1.528 3.44c0 .014-.008.029-.013.043.007-.4-.01-1.526-.021-1.613-.158-1.215-1.176-3.47-2.526-3.72a1.624 1.624 0 0 0-1.873 1.527 3.4 3.4 0 0 0 1.3 2.541 11.3 11.3 0 0 0 3.077 1.406 28.675 28.675 0 0 0-.9 3.727c-.131.734-.24 1.478-.34 2.224 0-.348-.012-.658-.018-.7-.158-1.215-1.176-3.47-2.525-3.72a1.623 1.623 0 0 0-1.873 1.527 3.392 3.392 0 0 0 1.3 2.541 10.787 10.787 0 0 0 2.984 1.377c-.035.286-.074.573-.108.86-.164 1.377-.323 2.752-.519 4.1-.069.474-.155.937-.238 1.4 0-.309-.012-.569-.017-.608-.158-1.215-1.176-3.47-2.526-3.72a1.624 1.624 0 0 0-1.873 1.527 3.393 3.393 0 0 0 1.3 2.541 10.372 10.372 0 0 0 2.9 1.348c-.1.473-.2.947-.318 1.4-.087.308-.151.61-.256.915l-.291.9c-.206.567-.415 1.152-.63 1.7-.146.382-.294.743-.44 1.108.074-.471.2-1.395.2-1.473a6.31 6.31 0 0 0-.845-3.067 1.966 1.966 0 0 0-.023-.359 1.624 1.624 0 0 0-1.985-1.378c-1.326.353-2.167 2.681-2.23 3.9 0 .072.043.86.081 1.356-.067-.288-.128-.569-.2-.865-.139-.586-.3-1.168-.461-1.794l-.274-.907c-.085-.305-.214-.616-.32-.928-.262-.717-.563-1.431-.882-2.143a10.668 10.668 0 0 0 3.059-1.146 3.392 3.392 0 0 0 1.489-2.437 1.623 1.623 0 0 0-1.753-1.663c-1.364.148-2.548 2.321-2.8 3.521-.015.075-.1.956-.131 1.44-.2-.427-.388-.854-.6-1.279-.609-1.228-1.265-2.452-1.913-3.676-.2-.375-.392-.75-.587-1.126a11.294 11.294 0 0 0 3.171-1.172 3.393 3.393 0 0 0 1.489-2.437 1.624 1.624 0 0 0-1.753-1.663c-1.364.148-2.548 2.322-2.8 3.521-.019.091-.133 1.358-.146 1.682-.43-.827-.85-1.655-1.231-2.489a28.621 28.621 0 0 1-1.339-3.458 11.47 11.47 0 0 0 3.19-1.177 3.392 3.392 0 0 0 1.489-2.437 1.623 1.623 0 0 0-1.753-1.662c-1.365.148-2.548 2.321-2.8 3.521-.019.094-.142 1.458-.146 1.707-.021-.069-.051-.138-.071-.206a20.97 20.97 0 0 1-.694-3.651c-.076-.681-.112-1.337-.131-1.976a10.93 10.93 0 0 0 3.222-.81 3.4 3.4 0 0 0 1.748-2.259 1.624 1.624 0 0 0-1.56-1.845c-1.372 0-2.787 2.027-3.165 3.193-.021.063-.158.731-.252 1.218 0-.288-.014-.586-.013-.862 0-1.037.068-1.987.133-2.828.041-.478.087-.909.135-1.312a10.858 10.858 0 0 0 2.472-2.194 3.4 3.4 0 0 0 .51-2.81 1.624 1.624 0 0 0-2.235-.918c-1.219.63-1.539 3.084-1.338 4.293.018.1.478 1.706.5 1.692l.024-.016c-.054.387-.107.8-.156 1.257-.083.841-.17 1.792-.194 2.834a28.788 28.788 0 0 0 .08 3.364 21.158 21.158 0 0 0 .623 3.712c0 .014.01.029.014.043-.216-.339-.851-1.267-.908-1.333-.8-.926-2.9-2.246-4.159-1.709a1.625 1.625 0 0 0-.719 2.307 3.4 3.4 0 0 0 2.489 1.4 11.312 11.312 0 0 0 3.341-.525 28.847 28.847 0 0 0 1.3 3.607c.3.684.615 1.365.943 2.043-.2-.287-.373-.543-.4-.576-.8-.927-2.9-2.246-4.158-1.709a1.624 1.624 0 0 0-.719 2.307 3.394 3.394 0 0 0 2.489 1.4 10.769 10.769 0 0 0 3.248-.5c.129.258.254.518.384.777.623 1.239 1.249 2.473 1.826 3.7.2.433.388.867.575 1.3-.174-.255-.323-.468-.349-.5-.8-.926-2.9-2.246-4.158-1.709a1.624 1.624 0 0 0-.72 2.307 3.4 3.4 0 0 0 2.489 1.4 10.364 10.364 0 0 0 3.16-.474c.177.45.356.9.508 1.344.1.305.211.593.291.9l.255.913c.141.586.29 1.19.413 1.766.089.4.166.782.244 1.167-.2-.433-.6-1.274-.644-1.34-.652-1.037-2.522-2.658-3.852-2.32a1.624 1.624 0 0 0-1.06 2.171 3.4 3.4 0 0 0 2.248 1.762 11.144 11.144 0 0 0 3.363-.01c.128.637.246 1.259.348 1.847.36 2.037.581 3.748.719 4.946.025.212.046.4.064.581h-4.129l1.328 25.907a3.7 3.7 0 0 0 3.7 3.513 3.7 3.7 0 0 0 3.7-3.513l1.328-25.907h-3.847l.085-.177c.528-1.1 1.259-2.68 2.05-4.614.251-.611.508-1.268.764-1.945a11.165 11.165 0 0 0 3.354.261 3.394 3.394 0 0 0 2.373-1.589 1.623 1.623 0 0 0-.9-2.244c-1.3-.437-3.286 1.04-4.013 2.026-.043.058-.438.741-.68 1.176.1-.277.207-.545.31-.832.207-.566.4-1.136.6-1.75l.272-.908c.1-.3.162-.631.245-.95.177-.743.32-1.5.447-2.274a10.669 10.669 0 0 0 3.183.732A3.4 3.4 0 0 0 392.5 302a1.624 1.624 0 0 0-.546-2.354c-1.22-.629-3.406.531-4.274 1.395-.054.054-.608.744-.9 1.129.073-.463.148-.926.206-1.4.169-1.36.3-2.742.432-4.121.041-.422.086-.842.131-1.263a11.269 11.269 0 0 0 3.291.772 3.393 3.393 0 0 0 2.587-1.211 1.624 1.624 0 0 0-.546-2.354c-1.22-.629-3.406.531-4.274 1.395-.065.065-.861 1.059-1.051 1.322.1-.927.2-1.85.346-2.755a28.536 28.536 0 0 1 .791-3.623 11.477 11.477 0 0 0 3.31.778 3.4 3.4 0 0 0 2.586-1.211 1.623 1.623 0 0 0-.546-2.354c-1.219-.629-3.406.53-4.274 1.395-.068.068-.922 1.138-1.064 1.343.02-.069.034-.142.054-.211a20.947 20.947 0 0 1 1.435-3.429c.312-.61.645-1.176.981-1.72a10.922 10.922 0 0 0 3.134 1.1 3.4 3.4 0 0 0 2.7-.92 1.624 1.624 0 0 0-.284-2.4c-1.143-.76-3.444.153-4.4.917-.052.041-.535.522-.882.877.156-.243.311-.5.465-.727.574-.865 1.153-1.621 1.671-2.286.3-.376.574-.711.836-1.02a10.863 10.863 0 0 0 3.272-.466 3.394 3.394 0 0 0 1.976-2.062 1.624 1.624 0 0 0-1.355-1.991zM383.2 311.2c-.824 1.9-1.583 3.447-2.128 4.522-.11.217-.209.409-.3.585h-.091l-.092-.7c-.167-1.208-.428-2.93-.835-4.98-.127-.647-.276-1.337-.435-2.044a17.749 17.749 0 0 0 1.876-.882 11.887 11.887 0 0 0 2.735 1.763c-.243.603-.487 1.186-.73 1.736z" data-name="Path 9740" transform="translate(-364.681 -271.702)"/>
                    <path id="prefix__Path_9741" d="M409.864 287.738c.021.014.438-1.6.453-1.7.169-1.214-.218-3.657-1.454-4.255a1.624 1.624 0 0 0-2.209.978 3.394 3.394 0 0 0 .586 2.8 11.616 11.616 0 0 0 2.624 2.177z" data-name="Path 9741" transform="translate(-383.424 -276.167)"/>
                </g>
            </g>
        </g>
    </g>
</svg>
