<svg width="663" height="430" viewBox="0 0 663 430" fill="none" xmlns="http://www.w3.org/2000/svg">
<path d="M652.55 294.139C687.3 356.344 637.016 478.393 318.108 393.572C158.213 351.044 38.7676 446.85 14.1651 379.975C-43.1648 224.211 190.959 44.0279 321.151 169.823C440.155 284.807 589.303 180.922 652.55 294.139Z" stroke="#E1E1E1" stroke-miterlimit="10" stroke-dasharray="8 8"/>
<path d="M650.367 429.99H1.0575C21.3782 280.919 158.97 165.613 325.701 165.613C492.433 165.613 630.036 280.919 650.367 429.99Z" fill="#F8F8F8"/>
<path d="M532.806 38.2781H288.811C277.452 38.2781 268.244 47.4862 268.244 58.8451V408.838C268.244 420.197 277.452 429.405 288.811 429.405H532.806C544.165 429.405 553.373 420.197 553.373 408.838V58.8451C553.373 47.4862 544.165 38.2781 532.806 38.2781Z" fill="#176CFF"/>
<path d="M528.696 54.0405H294.013V394.945H528.696V54.0405Z" fill="#F6F5F5"/>
<path d="M528.696 54.0435C528.768 186.976 533.06 347.303 518.128 382.805C452.359 389.214 375.346 391.271 294.011 391.661L324.928 55.0701L528.696 54.0435Z" fill="#E4E4E4"/>
<path d="M507.617 372.057C405.103 388.465 336.595 389.331 281.018 385.205C288.213 308.549 291.108 181.201 294.024 54.0576L417.556 54.3344L529.357 61.7149C530.971 193.673 531.151 315.567 507.617 372.057Z" fill="white"/>
<path d="M471.39 88.4057L347.934 85.4963L347.491 104.301L470.947 107.21L471.39 88.4057Z" fill="#2C374A"/>
<path d="M495.189 134.424L383.831 131.8L383.628 140.407L494.986 143.031L495.189 134.424Z" fill="#817F7F"/>
<path opacity="0.2" d="M459.079 152.35L383.388 150.566L383.185 159.173L458.876 160.957L459.079 152.35Z" fill="#2C374A"/>
<path d="M348.741 131.478L322.378 130.857L321.757 157.22L348.12 157.841L348.741 131.478Z" stroke="#2C374A" stroke-opacity="0.2" stroke-miterlimit="10"/>
<path d="M326.679 137.778C327.493 140.894 328.996 153.948 335.535 150.298C337.043 149.468 338.319 147.231 339.448 145.95L345.536 139.048L357.696 125.239C358.736 124.06 354.148 121.102 352.845 122.583L342.035 134.856L336.631 140.994C335.38 142.414 332.48 146.991 330.634 147.398L333.659 148.374C334.373 148.958 333.047 144.813 333.017 144.699C332.517 142.775 332.014 140.85 331.508 138.924C331.093 137.335 326.076 135.423 326.69 137.778H326.679Z" fill="#1FC9AA"/>
<path d="M474.403 181.888L382.702 179.727L382.499 188.333L474.2 190.494L474.403 181.888Z" fill="#817F7F"/>
<path opacity="0.2" d="M494.744 198.967L383.355 196.739L383.183 205.348L494.571 207.576L494.744 198.967Z" fill="#2C374A"/>
<path d="M347.612 179.407L321.249 178.786L320.628 205.149L346.991 205.77L347.612 179.407Z" stroke="#2C374A" stroke-opacity="0.2" stroke-miterlimit="10"/>
<path d="M325.536 186.451C326.35 189.567 327.853 202.62 334.392 198.97C335.9 198.14 337.176 195.904 338.305 194.623L344.393 187.718L356.553 173.912C357.593 172.733 353.005 169.761 351.702 171.255L340.892 183.528L335.488 189.664C334.237 191.083 331.337 195.663 329.491 196.07L332.516 197.047C333.23 197.631 331.904 193.485 331.876 193.372C331.373 191.448 330.87 189.522 330.368 187.596C329.95 186.008 324.933 184.096 325.547 186.451H325.536Z" fill="#1FC9AA"/>
<path d="M492.928 230.28L381.57 227.656L381.367 236.263L492.725 238.887L492.928 230.28Z" fill="#817F7F"/>
<path opacity="0.2" d="M430.93 247.596L381.129 246.422L380.926 255.029L430.727 256.203L430.93 247.596Z" fill="#2C374A"/>
<path d="M346.483 227.334L320.12 226.713L319.499 253.076L345.862 253.697L346.483 227.334Z" stroke="#2C374A" stroke-opacity="0.2" stroke-miterlimit="10"/>
<path d="M324.767 234.719C325.581 237.835 327.083 250.888 333.623 247.238C335.131 246.408 336.406 244.172 337.533 242.891L343.621 235.989L355.781 222.18C356.821 221.001 352.233 218.043 350.93 219.523L340.118 231.796L334.705 237.934C333.454 239.354 330.554 243.931 328.708 244.338L331.735 245.315C332.446 245.899 331.124 241.753 331.093 241.64C330.593 239.717 330.09 237.792 329.585 235.864C329.17 234.276 324.15 232.364 324.767 234.719Z" fill="#1FC9AA"/>
<path d="M493.199 276.084L381.81 273.857L381.638 282.466L493.027 284.694L493.199 276.084Z" fill="#817F7F"/>
<path opacity="0.2" d="M467.97 296.422L380 294.349L379.798 302.956L467.767 305.029L467.97 296.422Z" fill="#2C374A"/>
<path d="M345.352 275.261L318.989 274.64L318.367 301.003L344.73 301.624L345.352 275.261Z" stroke="#2C374A" stroke-opacity="0.2" stroke-miterlimit="10"/>
<path d="M323.635 282.334C324.449 285.45 325.952 298.501 332.491 294.851C333.999 294.02 335.275 291.784 336.401 290.506L342.489 283.587L354.649 269.781C355.69 268.602 351.101 265.63 349.798 267.125L338.986 279.398L333.598 285.547C332.347 286.966 329.447 291.546 327.601 291.95L330.628 292.927C331.342 293.514 330.017 289.368 329.986 289.255C329.485 287.329 328.982 285.404 328.478 283.48C328.063 281.888 323.043 279.976 323.66 282.334H323.635Z" fill="#1FC9AA"/>
<path d="M423.461 324.188L379.32 323.147L379.117 331.754L423.258 332.795L423.461 324.188Z" fill="#817F7F"/>
<path opacity="0.2" d="M490.249 344.536L378.891 341.915L378.689 350.522C421.771 351.532 476.628 353.549 487.822 351.833C489.522 349.888 490.438 347.516 490.249 344.536Z" fill="#2C374A"/>
<path d="M344.602 322.837L318.239 322.216L317.618 348.578L343.981 349.2L344.602 322.837Z" stroke="#2C374A" stroke-opacity="0.2" stroke-miterlimit="10"/>
<path d="M322.528 329.531C323.359 332.647 324.847 345.698 331.384 342.047C332.889 341.217 334.168 338.981 335.294 337.703L341.382 330.784L353.559 316.978C354.596 315.796 350.011 312.827 348.705 314.319L337.895 326.592L332.491 332.73C331.24 334.149 328.34 338.727 326.494 339.133L329.521 340.11C330.233 340.697 328.91 336.549 328.879 336.438C328.376 334.512 327.873 332.587 327.371 330.662C326.956 329.071 321.936 327.159 322.55 329.517L322.528 329.531Z" fill="#1FC9AA"/>
<path d="M463.663 40.6469V66.97H357.95V40.6469C357.948 38.6489 358.34 36.6701 359.103 34.8238C359.867 32.9775 360.987 31.3 362.4 29.8874C362.74 29.5462 363.098 29.2246 363.474 28.9244C366.194 26.6626 369.622 25.4284 373.16 25.4375C375.85 25.4387 378.506 24.8333 380.931 23.6664C381.957 23.1704 382.935 22.5813 383.853 21.9064C386.941 19.6221 389.211 16.4046 390.329 12.7298C391.45 9.04717 393.725 5.82222 396.818 3.53033C399.911 1.23844 403.659 0.000856677 407.508 0H414.106C417.955 0.000856677 421.703 1.23844 424.796 3.53033C427.889 5.82222 430.164 9.04717 431.285 12.7298C432.401 16.4142 434.676 19.6402 437.772 21.9285C438.69 22.6034 439.668 23.1926 440.694 23.6886C443.119 24.8554 445.775 25.4608 448.465 25.4597C452.492 25.4655 456.353 27.0671 459.202 29.9137C462.05 32.7603 463.655 36.6198 463.663 40.6469Z" fill="#1FC9AA"/>
<path d="M472.242 54.0405V73.6002H349.371V54.0405H357.95V66.9585H463.663V54.0405H472.242Z" fill="#E4E4E4"/>
<path d="M410.81 24.6706C415.988 24.6706 420.185 20.6811 420.185 15.7598C420.185 10.8384 415.988 6.84888 410.81 6.84888C405.631 6.84888 401.434 10.8384 401.434 15.7598C401.434 20.6811 405.631 24.6706 410.81 24.6706Z" fill="white"/>
<path d="M300.607 138.946C296.858 138.237 293.354 131.972 292.136 129.57C291.836 128.983 291.739 128.312 291.86 127.663L293.354 119.754C293.354 119.754 296.797 120.338 296.531 124.924C296.511 125.401 296.593 125.877 296.769 126.321L298.089 129.769L301.985 126.753L299.849 120.717C299.849 120.717 296.988 121.503 295.51 121.033C292.466 120.064 296.453 117.712 297.724 117.435C298.994 117.159 301.747 116.179 303.004 118.315C304.26 120.452 305.016 121.711 305.016 121.711C305.016 121.711 306.399 116.932 305.456 106.247C305.414 105.765 306.618 105.776 306.956 106.122C307.968 107.152 309.582 110.287 309.668 119.823C309.668 119.823 309.836 108.71 311.74 107.567C313.312 106.623 314.106 112.064 312.999 121.287C312.999 121.287 315.05 113.301 316.52 113.287C318.996 113.262 316.55 134.618 310.323 140.983L300.607 138.946Z" fill="#F9B384"/>
<path d="M312.363 135.678C312.252 136.74 312.13 137.77 311.997 138.766C311.619 141.929 311.072 145.07 310.359 148.175C310.326 148.308 310.304 148.43 310.271 148.551C308.378 156.3 308.035 160.108 301.57 159.09L294.928 151.518L294.862 151.441L294.375 150.887L295.725 146.902L295.903 146.382L296.899 143.482L297.021 143.105L298.725 138.124L299.412 136.098L312.363 135.678Z" fill="#F9B384"/>
<path d="M188.77 411.378L187.076 416.672C175.454 420.486 168.693 424.855 168.258 429.956H201.835L204.527 412.245C197.728 413.894 192.276 412.74 188.77 411.378Z" fill="black"/>
<path d="M192.979 398.222L188.77 411.378C192.276 412.74 197.728 413.894 204.527 412.234L206.262 400.804L192.979 398.222Z" fill="#F9B384"/>
<path d="M250.385 410.791L251.37 397.392L235.596 398.222L234.736 410.576C241.408 412.704 246.942 411.871 250.385 410.791Z" fill="#F9B384"/>
<path d="M269.358 429.955C268.924 424.855 262.993 417.87 249.987 416.21L250.385 410.792C246.934 411.871 241.413 412.704 234.736 410.576L233.382 429.947L269.358 429.955Z" fill="black"/>
<path d="M237.6 142.386L218.572 142.519V113.738H237.024L237.035 115.498L237.124 124.619L237.257 139.264L237.6 142.386Z" fill="#F9B384"/>
<path d="M237.124 126.003C233.704 129.6 224.782 125.538 221.018 121.575L237.036 116.871L237.124 126.003Z" fill="#E28B6D"/>
<path d="M241.541 107.096C241.545 109.264 241.379 111.43 241.043 113.572C240.113 119.383 237.655 124.386 231.988 124.541C218.594 124.929 214.775 117.269 212.251 111.004C209.727 104.738 213.823 89.6396 213.823 89.6396L231.158 87.9238L240.677 95.7278C241.269 99.4879 241.558 103.29 241.541 107.096Z" fill="#F9B384"/>
<path d="M212.791 107.415C212.791 107.415 216.612 107.24 217.265 97.3775C224.098 99.6633 229.093 97.5795 233.039 93.0272C236.415 97.4854 245.866 98.8829 249.057 89.7534C251.37 83.1588 245.005 73.3347 235.735 79.2845C226.649 74.6935 212.868 75.009 208.891 86.2693C208.891 86.2693 195.107 92.6343 209.705 106.62C210.007 106.9 212.791 107.415 212.791 107.415Z" fill="black"/>
<path d="M265.487 245.824L254.968 404.864H230.247L236.427 250.537L240.21 248.785L265.487 245.824Z" fill="#2C374A"/>
<path d="M201.099 224.064L183.755 404.864H210.69L236.335 254.688L265.484 245.832L266.776 213.731L201.835 212.256L201.099 224.064Z" fill="#2C374A"/>
<path opacity="0.6" d="M204.965 224.457C219.676 229.74 254.193 223.704 261.361 216.346L256.269 206.167L199.494 213.711L204.965 224.457Z" fill="#102048"/>
<path d="M260.038 213.894C259.562 214.093 259.075 214.304 258.576 214.492C252.62 216.911 246.444 218.75 240.135 219.982C236.056 220.791 231.923 221.298 227.77 221.499C221.257 221.864 214.724 221.335 208.354 219.927L216.601 143.039L217.609 133.663C217.609 133.663 228.401 146.946 240.301 132.279L260.038 213.894Z" fill="white"/>
<path opacity="0.3" d="M227.77 221.499C221.257 221.864 214.724 221.335 208.354 219.927L216.601 143.039L219.546 138.783C226.818 156.472 234.268 195.652 227.77 221.499Z" fill="#1F3C88"/>
<path d="M218.577 130.619C226.777 165.432 230.15 201.256 218.071 241.037C209.113 244.443 199.358 244.404 188.922 241.405L191.504 169.085L130.714 210.872L127.025 188.089C150.392 165.745 190.796 132.003 218.577 130.619Z" fill="#1FC9AA"/>
<path opacity="0.3" d="M258.565 214.492C252.609 216.911 246.433 218.75 240.124 219.982C236.471 198.973 235.663 164.458 238.64 148.884L258.565 214.492Z" fill="#1F3C88"/>
<path opacity="0.6" d="M310.359 148.197C310.326 148.33 310.304 148.452 310.271 148.574C308.378 156.322 308.035 160.13 301.57 159.112L294.929 151.54L294.862 151.463L295.726 146.924L295.903 146.404L296.899 143.504L297.021 143.128L310.359 148.197Z" fill="#E28B6D"/>
<path d="M309.208 155.248C309.208 155.248 292.881 189.84 283.195 190.671C273.805 191.476 269.358 182.369 269.358 182.369L276 232.923C268.196 236.575 259.672 238.358 249.799 236.609C241.02 208.105 237.702 171.249 237.049 130.204C244.156 130.647 258.231 131.253 263.27 134.493C272.311 140.305 283.472 161.06 283.472 161.06L296.478 143.349L309.208 155.248Z" fill="#1FC9AA"/>
<path d="M110.163 106.507C110.163 106.507 111.151 89.9607 112.837 90.7327C114.522 91.5048 117.898 105.903 117.898 105.903L114.287 111.731L110.163 106.507Z" fill="#6F3428"/>
<path d="M159.854 405.326L160.344 410.772C160.758 415.389 159.321 419.982 156.35 423.54C153.378 427.098 149.115 429.33 144.498 429.745L143.098 429.87C140.812 430.075 138.508 429.828 136.317 429.143C134.127 428.458 132.093 427.349 130.331 425.877C128.57 424.406 127.115 422.602 126.051 420.569C124.986 418.536 124.333 416.313 124.128 414.027L123.638 408.581L159.854 405.326Z" fill="#EE6F57"/>
<path d="M136.146 141.622L99.9283 144.874L123.604 408.594L159.821 405.342L136.146 141.622Z" fill="#FBC343"/>
<path opacity="0.3" d="M123.994 137.38L111.13 138.535L131.883 369.695L144.746 368.54L123.994 137.38Z" stroke="#6F3428" stroke-width="8" stroke-miterlimit="10"/>
<path d="M159.848 405.329L123.64 408.583L122.688 397.956L122.024 390.573L119.976 367.881L156.196 364.626L158.232 387.319L158.897 394.702L159.848 405.329Z" fill="#102048"/>
<path d="M158.266 387.303L122.057 390.56L122.721 397.944L158.93 394.687L158.266 387.303Z" fill="#FBC343"/>
<path d="M99.9377 144.863L110 104.542C110 104.542 113.47 106.084 117.682 103.482L136.16 141.608L99.9377 144.863Z" fill="#EE6F57"/>
<path d="M214.794 105.746C214.634 105.151 211.93 104.335 211.335 104.172C210.414 103.917 209.398 103.79 208.512 104.197C205.244 105.674 205.681 110.354 207.375 112.814C208.328 114.224 209.74 115.26 211.371 115.747C211.966 115.916 217.587 115.985 217.34 115.081L214.794 105.746Z" fill="#F9B384"/>
<path d="M111.895 199.803C111.706 199.17 111.391 198.582 110.969 198.074C110.547 197.566 110.028 197.148 109.441 196.844C108.854 196.541 108.213 196.359 107.554 196.309C106.896 196.26 106.234 196.343 105.608 196.554C101.487 197.976 97.8982 200.39 97.3419 204.496C96.8355 208.235 98.7062 220.176 107.058 221.712L106.377 215.577C106.377 215.577 111.491 214.384 112.513 212.167C113.229 210.615 113.279 204.137 111.895 199.803Z" fill="#F9B384"/>
<path d="M266.807 158.73C267.247 161.342 267.62 163.963 267.977 166.586C268.334 169.21 268.644 171.844 268.982 174.465L269.84 182.358C270.089 184.995 270.335 187.616 270.496 190.278L270.067 190.328C269.613 187.715 269.237 185.095 268.88 182.471L267.892 174.592C267.615 171.958 267.294 169.334 267.061 166.694C266.829 164.054 266.563 161.423 266.389 158.78L266.807 158.73Z" fill="#0F6253"/>
<path d="M192.365 158.293C192.365 161.226 192.287 164.159 192.202 167.09C192.116 170.021 191.977 172.96 191.872 175.89L191.394 184.674C191.197 187.602 190.995 190.527 190.71 193.449L190.278 193.427C190.278 190.491 190.348 187.56 190.428 184.629L190.765 175.84C190.934 172.912 191.059 169.982 191.263 167.057C191.468 164.132 191.656 161.204 191.928 158.281L192.365 158.293Z" fill="#0F6253"/>
<path d="M228.23 105.472C228.462 106.515 228.033 107.5 227.269 107.686C226.506 107.871 225.695 107.149 225.462 106.106C225.23 105.062 225.659 104.077 226.423 103.892C227.186 103.706 227.994 104.429 228.23 105.472Z" fill="#102048"/>
<path d="M239.263 104.182C239.216 105.251 238.546 106.089 237.763 106.056C236.98 106.023 236.38 105.132 236.429 104.061C236.479 102.99 237.146 102.154 237.927 102.187C238.707 102.22 239.307 103.112 239.263 104.182Z" fill="#102048"/>
<path d="M233.106 105.057C233.485 105.973 233.424 106.958 233.659 107.708C233.754 108.057 233.938 108.374 234.193 108.63C234.509 108.856 234.861 109.028 235.234 109.139C235.757 109.335 236.212 109.678 236.545 110.127C236.735 110.387 236.847 110.694 236.871 111.014C236.894 111.335 236.827 111.655 236.678 111.94C236.408 112.387 236.038 112.766 235.596 113.046C235.217 113.304 234.852 113.575 234.456 113.816L234.179 113.489C234.47 113.132 234.788 112.806 235.093 112.465C235.386 112.2 235.628 111.884 235.809 111.533C236.042 111.021 235.533 110.459 234.813 110.171C234.44 110 233.9 109.85 233.465 109.405C233.083 109.002 232.835 108.49 232.754 107.941C232.572 106.917 232.782 106.04 232.682 105.173L233.106 105.057Z" fill="#E28B6D"/>
<path d="M222.947 102.669C223.125 101.986 223.523 101.38 224.079 100.945C224.65 100.486 225.353 100.222 226.085 100.192C226.793 100.151 227.499 100.314 228.117 100.662C228.736 101.01 229.241 101.528 229.575 102.154L229.237 102.431C228.371 101.698 227.272 101.298 226.138 101.302C225.583 101.329 225.042 101.484 224.557 101.754C224.072 102.024 223.655 102.402 223.34 102.86L222.947 102.669Z" fill="#102048"/>
<path d="M234.373 101.313C234.541 100.781 234.84 100.301 235.242 99.9152C235.673 99.4997 236.222 99.228 236.814 99.1376C238.001 98.9411 239.28 99.5472 239.747 100.602L239.401 100.862C238.698 100.358 237.834 100.132 236.974 100.228C236.565 100.289 236.173 100.432 235.82 100.649C235.436 100.91 235.077 101.207 234.747 101.534L234.373 101.313Z" fill="#102048"/>
<path d="M228.249 115.778C230.186 118.803 232.757 119.132 234.747 115.949L228.249 115.778Z" fill="white"/>
<path opacity="0.4" d="M241.593 106.357C241.58 108.772 241.395 111.183 241.04 113.572C240.366 113.358 239.779 112.934 239.363 112.362C238.946 111.791 238.724 111.102 238.726 110.395C238.729 108.724 240.024 106.612 241.593 106.357Z" fill="#FC8879"/>
<path opacity="0.4" d="M223.531 115.943C225.502 115.943 227.101 114.345 227.101 112.374C227.101 110.402 225.502 108.804 223.531 108.804C221.559 108.804 219.961 110.402 219.961 112.374C219.961 114.345 221.559 115.943 223.531 115.943Z" fill="#FC8879"/>
<path d="M212.456 109.31C211.82 108.829 211.154 108.39 210.461 107.996C210.192 107.845 209.889 107.767 209.581 107.769C209.242 107.826 208.924 107.971 208.659 108.189L208.297 107.957C208.371 107.699 208.505 107.463 208.688 107.266C208.871 107.07 209.097 106.919 209.348 106.825C209.613 106.746 209.892 106.722 210.167 106.754C210.442 106.786 210.707 106.873 210.948 107.011C211.78 107.459 212.434 108.179 212.802 109.05L212.456 109.31Z" fill="#E28B6D"/>
<path opacity="0.6" d="M112.513 212.164L107.376 227.775L106.314 215.576C109.507 214.882 111.251 213.603 112.513 212.164Z" fill="#6F3428"/>
<path d="M0 428.932H651.425" stroke="#102048" stroke-width="2" stroke-miterlimit="10"/>
</svg>
