<svg width="494" height="529" viewBox="0 0 494 529" fill="none" xmlns="http://www.w3.org/2000/svg">
<path d="M244.931 528.396H244.93C108.88 527.605 0.5 414.782 0.5 278.984V10.4263C0.5 5.58306 4.59907 1.79437 9.53117 1.40576H111.763C116.638 1.40576 120.775 5.54503 120.775 10.4263V35.4176V282.554C120.775 352.248 176.877 408.804 246.512 408.804C316.145 408.804 372.646 352.25 372.646 282.554V202.82V199.646V166.324C372.646 161.443 376.782 157.304 381.658 157.304H483.909C488.785 157.304 492.921 161.443 492.921 166.324V281.76C492.921 418.738 381.779 529.584 244.931 528.396Z" stroke="#2F7BFF"/>
<path d="M483.897 114.784H381.917C377.031 114.784 372.893 110.666 372.893 105.818V10.3715C372.893 5.52324 377.031 1.40576 381.917 1.40576H483.897C488.783 1.40576 492.921 5.52324 492.921 10.3715V106.212C492.921 111.033 488.811 114.784 483.897 114.784Z" stroke="#2F7BFF"/>
</svg>
