<svg width="370" height="258" viewBox="0 0 370 258" fill="none" xmlns="http://www.w3.org/2000/svg">
<path d="M0 256.952L369.869 256.903" stroke="black" stroke-width="1.133" stroke-miterlimit="10"/>
<g clip-path="url(#clip0_2911_13835)">
<path opacity="0.72" d="M57.8828 92.7672H84.6071C88.0235 92.7672 90.7931 89.9988 90.7931 86.5862V59.8729C90.7931 56.458 88.0235 53.6919 84.6071 53.6919H57.8828C54.4664 53.6919 51.6992 56.4603 51.6992 59.8729V86.5862C51.6992 89.9988 54.4664 92.7672 57.8828 92.7672Z" fill="white"/>
<path d="M139.598 60.8815H102.177V64.3177H139.598V60.8815Z" fill="#D2D2D2"/>
<path d="M166.872 76.3812H102.177V79.8175H166.872V76.3812Z" fill="#D2D2D2"/>
<path d="M153.043 68.6332H102.177V72.0694H153.043V68.6332Z" fill="#D2D2D2"/>
<path d="M130.379 84.1302H102.177V87.5665H130.379V84.1302Z" fill="#D2D2D2"/>
<path d="M84.8164 63.9399H57.668V82.5208H84.8164V63.9399Z" fill="#43DFC3"/>
<path d="M57.6699 82.5223L71.243 72.1306L84.8184 82.5152L57.6699 82.5223Z" fill="#1FC9AA"/>
<path d="M84.8164 63.9363L71.2434 75.512L57.668 63.941L84.8164 63.9363Z" fill="#37E9C9"/>
<path opacity="0.72" d="M20.6411 39.0776H47.3654C50.7818 39.0776 53.549 36.3092 53.549 32.8967V6.181C53.549 2.76606 50.7794 0 47.3654 0H20.6411C17.2271 0 14.4575 2.76842 14.4575 6.181V32.8943C14.4575 36.3092 17.2271 39.0776 20.6411 39.0776Z" fill="white"/>
<path d="M135.425 7.19214H64.9346V10.6284H135.425V7.19214Z" fill="#D2D2D2"/>
<path d="M156.421 22.6919H64.9346V26.1282H156.421V22.6919Z" fill="#D2D2D2"/>
<path d="M101.069 14.9412H64.9346V18.3774H101.069V14.9412Z" fill="#D2D2D2"/>
<path d="M117.102 30.4407H64.9346V33.8769H117.102V30.4407Z" fill="#D2D2D2"/>
<path d="M152.531 113.802H102.177V117.238H152.531V113.802Z" fill="#D2D2D2"/>
<path d="M172.378 129.301H102.177V132.737H172.378V129.301Z" fill="#D2D2D2"/>
<path d="M144.208 121.553H102.177V124.989H144.208V121.553Z" fill="#D2D2D2"/>
<path d="M130.891 137.05H102.177V140.486H130.891V137.05Z" fill="#D2D2D2"/>
<path opacity="0.72" d="M57.8828 145.687H84.6071C88.0235 145.687 90.7931 142.919 90.7931 139.506V112.793C90.7931 109.378 88.0235 106.612 84.6071 106.612H57.8828C54.4664 106.612 51.6992 109.38 51.6992 112.793V139.506C51.6992 142.919 54.4664 145.687 57.8828 145.687Z" fill="white"/>
<path d="M85.1484 116.004H58V134.585H85.1484V116.004Z" fill="#43DFC3"/>
<path d="M58.002 134.586L71.575 124.194L85.1504 134.579L58.002 134.586Z" fill="#1FC9AA"/>
<path d="M85.1484 116L71.5754 127.576L58 116.005L85.1484 116Z" fill="#37E9C9"/>
<path d="M47.1484 10.0037H20V28.5846H47.1484V10.0037Z" fill="#43DFC3"/>
<path d="M20.002 28.586L33.575 18.1943L47.1504 28.5789L20.002 28.586Z" fill="#1FC9AA"/>
<path d="M47.1484 10L33.5754 21.5757L20 10.0047L47.1484 10Z" fill="#37E9C9"/>
</g>
<path d="M256.555 252.168V158.11C256.555 152.741 260.949 148.348 266.321 148.348H324.519C329.892 148.348 334.286 152.741 334.286 158.11V252.168H256.555Z" fill="black"/>
<path d="M184.959 252.167C194.826 249.864 201.822 248.632 201.822 248.632C201.822 248.632 221.697 224.12 259.766 224.12C276.606 224.12 287.904 237.009 294.689 252.167H184.959Z" fill="#30506D"/>
<path d="M231.378 252.168C241.865 248.897 249.85 246.812 249.85 246.812H314.211C314.211 246.812 314.944 248.83 315.858 252.168H231.378Z" fill="#375B7D"/>
<path d="M235.03 154.86C235.03 154.86 221.117 184.099 206.447 205.812C203.315 210.449 193.977 215.427 185.303 214.617C179.77 214.101 183.879 194.956 185.219 190.453C188.659 178.893 194.657 159.65 204.839 134.495C208.349 125.825 214.04 115.447 221.382 110.338C226.007 107.121 235.03 154.86 235.03 154.86Z" fill="#F1A99F"/>
<path d="M189.132 173.807C190.469 177.389 217.696 191.038 217.696 191.038C217.696 191.038 231.689 173.131 235.588 158.853C238.669 147.571 243.82 119.798 237.025 119.246C230.249 118.697 228.125 107.06 224.073 108.506C212.986 112.46 207.272 123.36 203.983 132.393C200.58 141.746 187.796 170.222 189.132 173.807Z" fill="#2F7BFF" stroke="black" stroke-miterlimit="10"/>
<path d="M201.225 252.169C202.98 240.927 210.04 231.945 209.953 206.522C209.836 173.031 209.953 112.257 224.077 108.51C232.297 106.328 244.867 103.355 244.867 103.355L271.98 102.726C271.98 102.726 290.491 104.587 302.124 111.962C310.932 117.546 319.389 229.822 319.389 229.822C319.389 229.822 321.041 240.703 321.784 252.169H201.225Z" fill="#2F7BFF" stroke="black" stroke-miterlimit="10"/>
<path d="M237.963 93.5394C241.443 96.0133 246.269 95.4208 246.269 95.4208C246.269 95.4208 246.557 101.082 244.863 103.355C244.863 103.355 243.168 108.537 253.494 108.44C265.84 108.326 271.976 102.726 271.976 102.726C267.554 90.1012 269.249 72.7767 269.249 72.7767C269.249 72.7767 271.165 68.6623 270.582 59.2719C269.812 47.4511 249.237 39.8986 249.237 39.8986L235.31 45.2282C235.31 45.2282 232.869 51.8701 233.006 57.9529C233.22 67.2964 229.124 87.2222 237.963 93.5394Z" fill="white" stroke="black" stroke-miterlimit="10"/>
<path d="M229.365 47.5674C229.365 54.7717 233.009 57.7144 233.009 57.7144L234.205 49.8338C234.205 49.8338 239.581 52.0467 244.715 52.0467C250.603 52.0467 257.848 49.1174 261.154 52.5957C266.553 58.2768 262.976 72.344 265.022 73.9944C267.658 76.1169 269.242 78.5306 270.274 75.598C271.034 73.4454 274.156 69.8366 277.244 58.6752C279.15 51.7855 274.899 48.2872 269.52 41.0996C262.755 32.054 252.023 31.6891 243.168 32.5762C235.404 33.3529 229.365 41.2703 229.365 47.5674Z" fill="black"/>
<path d="M243.16 65.0691C243.079 65.6483 242.915 66.1939 242.708 66.7296C242.517 67.2686 242.302 67.8008 242.091 68.3331C241.656 69.391 241.221 70.459 240.765 71.5034L241.063 71.2323C240.427 71.4566 239.861 71.7411 239.325 72.2098C239.074 72.4509 238.829 72.7555 238.712 73.1505C238.598 73.5523 238.645 73.964 238.819 74.3189C239.194 75.0219 239.851 75.3132 240.437 75.5073C241.043 75.6881 241.656 75.7685 242.269 75.7484C241.693 75.5509 241.13 75.3467 240.624 75.0587C240.122 74.7943 239.666 74.416 239.522 74.0109C239.405 73.5824 239.532 73.2275 239.944 72.9061C240.32 72.5814 240.859 72.3303 241.355 72.1596L241.572 72.0826L241.653 71.8884C242.105 70.8004 242.5 69.7057 242.798 68.5675C242.952 68.0017 243.069 67.4226 243.156 66.84C243.223 66.2542 243.297 65.6483 243.16 65.0691Z" fill="black"/>
<path d="M247.091 79.8802C246.458 81.9257 243.715 82.8362 241.608 82.7392C239.712 82.6488 237.77 81.1891 237.448 79.6324L247.091 79.8802Z" fill="black"/>
<path d="M260.188 88.1117C252.846 94.6364 246.268 95.4198 246.268 95.4198L246.12 99.2731C252.109 100.063 258.349 94.844 260.188 88.1117Z" fill="#DDDDDD"/>
<path d="M250.55 67.3163C250.537 68.2872 251.193 69.0839 252.014 69.0906C252.817 69.1007 253.487 68.314 253.494 67.3465C253.504 66.3589 252.848 65.5655 252.047 65.5554C251.223 65.5554 250.553 66.3388 250.55 67.3163Z" fill="black"/>
<path d="M256.923 64.052C256.669 64.0386 255.121 63.272 253.35 63.0477C251.494 62.8066 249.685 63.1012 249.424 62.9807C248.302 62.4786 248.265 60.7143 249.367 60.1418C249.555 60.0448 251.42 59.9443 253.37 60.2824C255.316 60.6172 257.057 62.204 257.235 62.4283C257.814 63.1414 257.339 64.0721 256.923 64.052Z" fill="black"/>
<path d="M238.402 66.6966C238.399 67.6775 237.732 68.4642 236.902 68.4542C236.105 68.4475 235.441 67.6507 235.455 66.6765C235.458 65.7023 236.135 64.9223 236.942 64.9257C237.763 64.929 238.409 65.7258 238.402 66.6966Z" fill="black"/>
<path d="M232.863 62.9141C233.111 62.9008 233.888 62.5827 235.666 62.3885C237.529 62.1877 239.324 62.4957 239.595 62.3852C240.724 61.8998 240.801 60.1422 239.702 59.5497C239.505 59.4526 237.629 59.2584 235.69 59.63C234.189 59.9179 233.02 61.2403 232.833 61.4579C232.237 62.1542 232.448 62.9309 232.863 62.9141Z" fill="black"/>
<path d="M265.019 73.9914C261.83 73.4223 265.859 78.0153 268.258 78.4171C269.972 78.6916 271.557 77.6304 272.243 75.1631C272.994 72.4514 271.825 70.5231 270.093 70.2319C267.095 69.7364 267.206 74.3831 265.019 73.9914Z" fill="white" stroke="black" stroke-miterlimit="10"/>
<path d="M309.11 122.302C323.763 140.129 319.329 205.996 313.226 219.708C309.931 227.113 284.509 217.224 284.509 217.224C284.509 217.224 287.098 193.482 280.969 167.477C279.395 160.798 276.672 147.722 284.476 132.386C289.396 122.724 298.171 108.995 309.11 122.302Z" fill="white" stroke="black" stroke-miterlimit="10"/>
<path d="M282.302 196.384C282.302 196.384 317.718 197.255 320.89 192.478C322.833 189.552 321.647 150.54 319.292 135.934C317.434 124.388 305.004 110.183 297.307 109.373C288.974 108.493 277.121 142.717 278.069 158.578C279.023 174.43 282.302 196.384 282.302 196.384Z" fill="#2F7BFF" stroke="black" stroke-miterlimit="10"/>
<path d="M270.011 74.761C269.883 74.6405 269.763 74.6004 269.635 74.597C269.418 74.5937 269.153 74.7443 268.949 74.9753C268.745 75.2029 268.614 75.4975 268.617 75.6951C268.617 75.7988 268.533 75.8859 268.43 75.8926C268.326 75.8959 268.232 75.8189 268.225 75.7118C268.212 75.5645 268.182 75.1996 268.182 74.7543C268.182 74.3392 268.209 73.8572 268.309 73.4086C268.41 72.96 268.577 72.5415 268.899 72.2636C269.126 72.0728 269.421 71.9824 269.712 71.9824C269.99 71.9824 270.272 72.0661 270.493 72.2469C270.714 72.4277 270.865 72.7156 270.861 73.0704C270.861 73.1809 270.774 73.268 270.664 73.268C270.553 73.268 270.466 73.1809 270.466 73.0704C270.463 72.8194 270.376 72.6654 270.242 72.5515C270.108 72.4377 269.91 72.3775 269.712 72.3775C269.501 72.3775 269.294 72.4478 269.153 72.5649C268.935 72.7457 268.781 73.0872 268.691 73.4956C268.6 73.9007 268.574 74.3593 268.574 74.7543C268.574 75.1829 268.604 75.5344 268.617 75.6783L268.42 75.6951H268.222C268.225 75.3502 268.403 74.9987 268.654 74.7108C268.909 74.4296 269.25 74.2053 269.635 74.202C269.86 74.202 270.094 74.289 270.285 74.4765C270.362 74.5535 270.366 74.6773 270.289 74.7543C270.215 74.8347 270.088 74.8347 270.011 74.761Z" fill="black"/>
<path d="M186.072 228.135C203.998 238.536 223.414 233.099 223.414 233.099L222.871 219.585C222.871 219.585 210.265 207.171 194.211 196.251C179.065 185.946 165.715 216.324 186.072 228.135Z" fill="#F1A99F"/>
<path d="M296.569 227.864C282.385 232.145 248.412 237.729 237.564 239.785C224.676 245.064 222.468 233.709 222.468 233.709L216.982 231.981L205.604 223.17C205.604 223.17 216.218 221.396 222.766 222.246C226.709 222.758 235.259 226.223 235.259 226.223C235.259 226.223 268.816 211.275 287.643 201.768C291.237 199.953 315.272 204.988 315.262 213.087C315.255 219.98 308.978 224.121 296.569 227.864Z" fill="white" stroke="black" stroke-miterlimit="10"/>
<path d="M236.835 235.546C236.835 239.252 234.902 242.255 232.518 242.255H132.362C129.978 242.255 128.042 239.249 128.042 235.546H236.835Z" fill="#B0B0AF"/>
<path d="M269.73 235.546C269.73 239.252 268.846 242.255 267.761 242.255H222.076C220.988 242.255 220.107 239.249 220.107 235.546H269.73Z" fill="#C6C6C5"/>
<path d="M225.597 232.501C225.597 234.181 224.257 235.55 222.619 235.55H128.151C126.513 235.55 125.17 234.181 125.17 232.501L108.621 177.3C108.621 175.623 109.961 174.25 111.602 174.25H206.07C207.708 174.25 209.048 175.623 209.048 177.3L225.597 232.501Z" fill="#ECECEC"/>
<path d="M223.769 228.513C223.769 230.575 222.392 232.259 220.711 232.259H130.064C128.379 232.259 127 230.575 127 228.513L110.447 179.073C110.447 177.011 111.827 175.324 113.512 175.324H204.158C205.843 175.324 207.219 177.011 207.219 179.073L223.769 228.513Z" fill="#D9D9D9"/>
<path d="M353.077 252.952C353.077 255.131 351.674 256.899 349.942 256.899H108.787C107.055 256.899 105.652 255.131 105.652 252.952V245.597C105.652 243.417 107.055 241.65 108.787 241.65H349.942C351.674 241.65 353.077 243.417 353.077 245.597V252.952Z" fill="black"/>
<path d="M224.397 108.647C224.397 108.647 216.088 113.863 215.89 160.031L212.122 156.108L202.181 153.51C202.181 153.51 201.796 153.065 202.252 151.367L203.421 147.106L205.621 140.889L207.597 135.606L209.63 130.293L211.633 124.723L212.923 121.415C212.923 121.415 214.771 117.277 215.88 115.814C215.877 115.818 218.811 109.581 224.397 108.647Z" fill="#2F7BFF"/>
<path d="M298.138 109.628L295.421 108.647H291.248L279.201 128.224L275.262 139.245C275.262 139.245 274.91 144.993 274.91 145.398C274.91 145.803 280.035 144.18 280.035 144.18L286.526 129.979C286.526 129.979 294.165 117.873 294.256 117.535C294.34 117.2 298.138 109.628 298.138 109.628Z" fill="#2F7BFF"/>
<path d="M315.095 213.325L315.443 211.122L313.97 208.407L310.841 206.438L309.183 205.23L298.318 201.139L293.566 200.412H287.172L286.261 201.403L285.152 202.83L285.219 203.64L315.095 213.325Z" fill="white"/>
<defs>
<clipPath id="clip0_2911_13835">
<rect width="157.92" height="145.687" fill="white" transform="translate(14.4575)"/>
</clipPath>
</defs>
</svg>
