<svg width="329" height="222" viewBox="0 0 329 222" fill="none" xmlns="http://www.w3.org/2000/svg">
<path d="M321.402 221.399H7.26961C3.3456 221.399 0.163086 218.212 0.163086 214.283V7.11602C0.163086 3.18676 3.3456 0 7.26961 0H321.402C325.326 0 328.508 3.18676 328.508 7.11602V214.288C328.508 218.217 325.326 221.399 321.402 221.399Z" fill="#2F2D4F"/>
<path d="M312.675 15.1213H18.2988V205.509H312.675V15.1213Z" fill="#7498FF"/>
<path d="M208.986 80.3524C219.453 93.5602 235.783 100.552 251.776 105.83C267.77 111.109 284.484 115.347 298.35 124.918C303.351 128.371 307.909 132.468 312.677 136.235V15.1213H201.408C194.908 37.2498 194.572 62.1695 208.986 80.3524Z" fill="#547DEC"/>
<path d="M312.675 15.1213H18.2988V34.0956H312.675V15.1213Z" fill="#CFE3FF"/>
<path d="M257.902 25.1603C257.902 27.5504 255.97 29.4852 253.583 29.4852C251.196 29.4852 249.264 27.5504 249.264 25.1603C249.264 22.7703 251.196 20.8354 253.583 20.8354C255.97 20.8354 257.902 22.7757 257.902 25.1603Z" fill="#7498FF"/>
<path d="M276.709 25.1596C276.709 27.5497 274.777 29.4845 272.39 29.4845C270.003 29.4845 268.071 27.5497 268.071 25.1596C268.071 22.7695 270.003 20.8347 272.39 20.8347C274.777 20.8347 276.709 22.775 276.709 25.1596Z" fill="#7498FF"/>
<path d="M295.518 25.1596C295.518 27.5497 293.585 29.4845 291.198 29.4845C288.812 29.4845 286.879 27.5497 286.879 25.1596C286.879 22.7695 288.812 20.8347 291.198 20.8347C293.58 20.8347 295.518 22.775 295.518 25.1596Z" fill="#7498FF"/>
<path d="M145.822 29.4828H37.3943C35.0074 29.4828 33.0752 27.548 33.0752 25.1579C33.0752 22.7678 35.0074 20.833 37.3943 20.833H145.827C148.214 20.833 150.146 22.7678 150.146 25.1579C150.141 27.548 148.208 29.4828 145.822 29.4828Z" fill="white"/>
<path d="M174.637 199.092C165.701 188.664 151.564 184.675 138.282 181.207C131.007 179.304 123.728 177.408 116.453 175.505C109.536 173.7 102.554 171.869 96.2324 168.53C82.9828 161.539 73.9332 148.678 66.2367 135.812C58.5402 122.945 51.4662 109.337 40.414 99.2126C34.5415 93.8038 26.5798 89.067 18.2988 87.2297V205.514H179.005C177.754 203.238 176.331 201.07 174.637 199.092Z" fill="#547DEC"/>
<path d="M309.343 204.992H23.6915C21.283 204.992 19.3291 203.036 19.3291 200.624V40.6952C19.3291 38.2834 21.283 36.3269 23.6915 36.3269H309.343C311.752 36.3269 313.706 38.2834 313.706 40.6952V200.619C313.706 203.036 311.752 204.992 309.343 204.992Z" fill="white"/>
<path d="M176.323 142.122C186.046 142.122 193.928 134.229 193.928 124.494C193.928 114.758 186.046 106.865 176.323 106.865C166.601 106.865 158.719 114.758 158.719 124.494C158.719 134.229 166.601 142.122 176.323 142.122Z" fill="#1FC9AA"/>
<path d="M183.249 119.492C183.249 123.107 180.322 126.04 176.712 126.04C173.102 126.04 170.172 123.11 170.172 119.492C170.172 115.877 173.099 112.947 176.712 112.947C180.322 112.947 183.249 115.877 183.249 119.492Z" fill="white"/>
<path d="M165.746 138.511C165.746 132.582 170.545 127.776 176.467 127.776C182.389 127.776 187.188 132.582 187.188 138.511C187.188 138.511 182.272 142.698 176.324 142.8C170.377 142.903 165.746 138.511 165.746 138.511Z" fill="white"/>
<path d="M289.978 180.045H63.4692V180.663H289.978V180.045Z" fill="#86A7FF"/>
<path d="M119.728 171.839C118.928 171.839 118.184 171.767 117.496 171.623C116.808 171.479 116.232 171.239 115.768 170.903C115.448 170.663 115.2 170.359 115.024 169.991C114.864 169.623 114.784 169.247 114.784 168.863C114.784 168.383 114.92 167.935 115.192 167.519C115.464 167.103 115.896 166.823 116.488 166.679C116.568 166.663 116.64 166.655 116.704 166.655C116.784 166.639 116.856 166.631 116.92 166.631C117.24 166.631 117.52 166.703 117.76 166.847C118.016 166.991 118.192 167.159 118.288 167.351C118.224 167.399 118.136 167.487 118.024 167.615C117.912 167.727 117.84 167.823 117.808 167.903C117.568 168.303 117.448 168.703 117.448 169.103C117.448 169.647 117.656 170.095 118.072 170.447C118.504 170.783 119.064 170.951 119.752 170.951C120.376 170.951 120.96 170.799 121.504 170.495C122.064 170.175 122.512 169.751 122.848 169.223C123.2 168.695 123.376 168.087 123.376 167.399C123.376 166.887 123.256 166.343 123.016 165.767C122.808 165.271 122.52 164.831 122.152 164.447C121.8 164.063 121.464 163.703 121.144 163.367C120.712 162.903 120.296 162.455 119.896 162.023C119.512 161.575 119.192 161.095 118.936 160.583C118.696 160.055 118.576 159.463 118.576 158.807C118.576 158.183 118.704 157.575 118.96 156.983C119.232 156.391 119.616 155.887 120.112 155.471C120.672 154.991 121.312 154.655 122.032 154.463C122.752 154.271 123.504 154.175 124.288 154.175C125.264 154.175 126.032 154.303 126.592 154.559C127.168 154.799 127.576 155.111 127.816 155.495C128.072 155.879 128.2 156.287 128.2 156.719C128.2 157.135 128.104 157.535 127.912 157.919C127.736 158.303 127.488 158.631 127.168 158.903C126.848 159.159 126.496 159.319 126.112 159.383C126.048 159.399 125.984 159.407 125.92 159.407C125.856 159.407 125.784 159.407 125.704 159.407C125.352 159.407 125.04 159.327 124.768 159.167C124.512 159.007 124.384 158.735 124.384 158.351C124.384 158.303 124.384 158.247 124.384 158.183C124.4 158.119 124.416 158.055 124.432 157.991C124.72 157.991 125.016 157.887 125.32 157.679C125.624 157.471 125.824 157.239 125.92 156.983C126 156.775 126.04 156.583 126.04 156.407C126.04 155.975 125.84 155.639 125.44 155.399C125.056 155.143 124.6 155.015 124.072 155.015C123.448 155.015 122.888 155.151 122.392 155.423C121.912 155.679 121.536 156.023 121.264 156.455C120.992 156.871 120.856 157.327 120.856 157.823C120.856 158.319 121.008 158.799 121.312 159.263C121.568 159.631 121.888 160.015 122.272 160.415C122.656 160.799 123.048 161.175 123.448 161.543C123.848 161.895 124.192 162.223 124.48 162.527C125.136 163.167 125.608 163.823 125.896 164.495C126.184 165.151 126.328 165.799 126.328 166.439C126.328 167.175 126.152 167.871 125.8 168.527C125.464 169.167 124.992 169.735 124.384 170.231C123.776 170.727 123.072 171.119 122.272 171.407C121.472 171.695 120.624 171.839 119.728 171.839ZM132.17 159.839C131.754 159.695 131.546 159.423 131.546 159.023C131.546 158.655 131.69 158.279 131.978 157.895C132.282 157.495 132.61 157.239 132.962 157.127C133.042 157.095 133.106 157.079 133.154 157.079C133.218 157.079 133.282 157.079 133.346 157.079C133.618 157.079 133.842 157.159 134.018 157.319C134.194 157.479 134.282 157.663 134.282 157.871C134.282 158.159 134.13 158.399 133.826 158.591C133.586 158.559 133.354 158.615 133.13 158.759C132.906 158.903 132.706 159.079 132.53 159.287C132.37 159.495 132.25 159.679 132.17 159.839ZM128.042 171.503C127.834 171.503 127.634 171.455 127.442 171.359C127.25 171.279 127.09 171.111 126.962 170.855C126.786 170.471 126.698 170.015 126.698 169.487C126.698 168.911 126.786 168.271 126.962 167.567C127.138 166.847 127.37 166.111 127.658 165.359C127.77 165.087 127.914 164.751 128.09 164.351C128.266 163.951 128.474 163.551 128.714 163.151C128.954 162.751 129.226 162.423 129.53 162.167C129.85 161.895 130.194 161.759 130.562 161.759C130.738 161.759 130.986 161.767 131.306 161.783C131.626 161.799 131.858 161.799 132.002 161.783C131.906 161.847 131.794 161.975 131.666 162.167C131.538 162.359 131.418 162.559 131.306 162.767C131.194 162.959 131.106 163.111 131.042 163.223C130.626 164.055 130.234 164.879 129.866 165.695C129.498 166.511 129.218 167.295 129.026 168.047C128.994 168.175 128.97 168.303 128.954 168.431C128.938 168.559 128.93 168.679 128.93 168.791C128.93 169.255 129.082 169.487 129.386 169.487C129.514 169.487 129.65 169.455 129.794 169.391C129.954 169.311 130.138 169.191 130.346 169.031C130.714 168.743 131.034 168.415 131.306 168.047C131.626 167.631 131.93 167.191 132.218 166.727C132.506 166.247 132.754 165.807 132.962 165.407C133.042 165.279 133.098 165.215 133.13 165.215C133.226 165.215 133.274 165.351 133.274 165.623C133.274 165.751 133.25 165.903 133.202 166.079C133.17 166.239 133.114 166.391 133.034 166.535C132.81 166.919 132.546 167.343 132.242 167.807C131.938 168.271 131.626 168.719 131.306 169.151C131.082 169.455 130.786 169.791 130.418 170.159C130.05 170.527 129.658 170.847 129.242 171.119C128.826 171.375 128.426 171.503 128.042 171.503ZM132.525 176.999C131.997 176.999 131.509 176.887 131.061 176.663C130.613 176.455 130.389 176.063 130.389 175.487C130.389 175.167 130.485 174.839 130.677 174.503C130.869 174.183 131.141 173.975 131.493 173.879C131.525 173.863 131.565 173.855 131.613 173.855C131.661 173.855 131.701 173.855 131.733 173.855C132.165 173.855 132.453 174.023 132.597 174.359C132.565 174.375 132.517 174.423 132.453 174.503C132.389 174.599 132.341 174.671 132.309 174.719C132.165 175.007 132.093 175.263 132.093 175.487C132.093 175.743 132.173 175.943 132.333 176.087C132.509 176.231 132.733 176.303 133.005 176.303C133.229 176.303 133.469 176.247 133.725 176.135C133.997 176.039 134.277 175.879 134.565 175.655C135.077 175.239 135.493 174.735 135.813 174.143C136.149 173.567 136.437 172.999 136.677 172.439C137.093 171.447 137.485 170.399 137.853 169.295C138.237 168.191 138.613 167.127 138.981 166.103C138.677 166.663 138.349 167.223 137.997 167.783C137.661 168.343 137.317 168.831 136.965 169.247C136.453 169.871 135.909 170.391 135.333 170.807C134.773 171.223 134.213 171.431 133.653 171.431C133.205 171.431 132.821 171.271 132.501 170.951C132.181 170.615 132.021 170.039 132.021 169.223C132.021 168.391 132.165 167.535 132.453 166.655C132.741 165.775 133.141 164.959 133.653 164.207C134.181 163.439 134.797 162.823 135.501 162.359C136.221 161.895 137.005 161.663 137.853 161.663C138.125 161.663 138.421 161.703 138.741 161.783C139.061 161.863 139.349 162.007 139.605 162.215C139.877 162.423 140.061 162.719 140.157 163.103C140.381 162.623 140.653 162.279 140.973 162.071C141.293 161.863 141.845 161.759 142.629 161.759H143.589C143.285 161.951 142.981 162.311 142.677 162.839C142.373 163.351 142.085 163.959 141.813 164.663C141.605 165.175 141.365 165.775 141.093 166.463C140.837 167.151 140.597 167.807 140.373 168.431C140.165 169.007 139.925 169.647 139.653 170.351C139.397 171.055 139.101 171.751 138.765 172.439C138.445 173.127 138.077 173.735 137.661 174.263C137.021 175.079 136.237 175.735 135.309 176.231C134.397 176.743 133.469 176.999 132.525 176.999ZM134.709 169.415C134.757 169.431 134.829 169.439 134.925 169.439C135.229 169.439 135.557 169.311 135.909 169.055C136.261 168.799 136.613 168.471 136.965 168.071C137.317 167.655 137.629 167.239 137.901 166.823C138.573 165.783 139.077 164.983 139.413 164.423C139.765 163.863 139.973 163.511 140.037 163.367C140.053 163.367 140.061 163.351 140.061 163.319C139.981 163.047 139.837 162.855 139.629 162.743C139.437 162.615 139.213 162.551 138.957 162.551C138.605 162.551 138.229 162.647 137.829 162.839C137.429 163.031 137.093 163.263 136.821 163.535C136.405 163.951 136.005 164.487 135.621 165.143C135.253 165.799 134.949 166.447 134.709 167.087C134.469 167.727 134.349 168.263 134.349 168.695C134.349 169.095 134.469 169.335 134.709 169.415ZM148.955 171.503C148.411 171.503 148.035 171.343 147.827 171.023C147.635 170.687 147.539 170.303 147.539 169.871C147.539 169.343 147.643 168.711 147.851 167.975C148.059 167.223 148.299 166.471 148.571 165.719C148.859 164.951 149.115 164.271 149.339 163.679C149.403 163.535 149.435 163.383 149.435 163.223C149.435 163.047 149.379 162.919 149.267 162.839C149.155 162.759 149.011 162.719 148.835 162.719C148.579 162.719 148.291 162.799 147.971 162.959C147.475 163.215 147.003 163.623 146.555 164.183C146.107 164.743 145.747 165.327 145.475 165.935C145.171 166.623 144.899 167.311 144.659 167.999C144.419 168.687 144.227 169.247 144.083 169.679C143.987 169.951 143.899 170.231 143.819 170.519C143.739 170.807 143.659 171.087 143.579 171.359H141.251C141.251 171.359 141.307 171.159 141.419 170.759C141.515 170.359 141.643 169.959 141.803 169.559C142.075 168.855 142.347 168.151 142.619 167.447C142.907 166.743 143.155 166.119 143.363 165.575C143.427 165.415 143.523 165.119 143.651 164.687C143.795 164.239 143.923 163.775 144.035 163.295C144.163 162.815 144.227 162.423 144.227 162.119C144.227 161.943 144.203 161.823 144.155 161.759C144.299 161.759 144.459 161.759 144.635 161.759C144.827 161.743 145.003 161.735 145.163 161.735C145.387 161.735 145.595 161.743 145.787 161.759C145.995 161.775 146.131 161.815 146.195 161.879C146.387 162.023 146.483 162.231 146.483 162.503C146.483 162.695 146.443 162.887 146.363 163.079C146.299 163.271 146.251 163.431 146.219 163.559C146.443 163.351 146.675 163.151 146.915 162.959C147.155 162.767 147.523 162.519 148.019 162.215C148.307 162.039 148.667 161.895 149.099 161.783C149.531 161.671 149.923 161.615 150.275 161.615C151.187 161.615 151.643 162.039 151.643 162.887C151.643 163.031 151.627 163.191 151.595 163.367C151.579 163.543 151.531 163.735 151.451 163.943C151.371 164.199 151.243 164.551 151.067 164.999C150.891 165.447 150.707 165.927 150.515 166.439C150.339 166.935 150.187 167.407 150.059 167.855C149.931 168.303 149.867 168.663 149.867 168.935C149.867 169.319 150.011 169.511 150.299 169.511C150.555 169.511 150.875 169.351 151.259 169.031C151.627 168.727 151.947 168.399 152.219 168.047C152.555 167.631 152.859 167.191 153.131 166.727C153.419 166.247 153.667 165.807 153.875 165.407C153.955 165.279 154.011 165.215 154.043 165.215C154.139 165.215 154.187 165.351 154.187 165.623C154.187 165.751 154.163 165.903 154.115 166.079C154.083 166.239 154.027 166.391 153.947 166.535C153.723 166.919 153.459 167.343 153.155 167.807C152.851 168.271 152.539 168.719 152.219 169.151C151.995 169.455 151.699 169.791 151.331 170.159C150.963 170.527 150.571 170.847 150.155 171.119C149.739 171.375 149.339 171.503 148.955 171.503ZM160.344 171.503C159.848 171.503 159.504 171.311 159.312 170.927C159.136 170.543 159.048 170.071 159.048 169.511C159.048 168.999 159.096 168.495 159.192 167.999C159.24 167.775 159.288 167.551 159.336 167.327C159.4 167.087 159.472 166.839 159.552 166.583C159.28 167.079 158.992 167.559 158.688 168.023C158.4 168.487 158.104 168.895 157.8 169.247C157.288 169.871 156.744 170.391 156.168 170.807C155.608 171.223 155.048 171.431 154.488 171.431C154.04 171.431 153.656 171.271 153.336 170.951C153.032 170.615 152.88 170.039 152.88 169.223C152.88 168.391 153.024 167.535 153.312 166.655C153.6 165.775 154 164.959 154.512 164.207C155.04 163.439 155.656 162.823 156.36 162.359C157.08 161.895 157.864 161.663 158.712 161.663C158.984 161.663 159.28 161.703 159.6 161.783C159.92 161.863 160.216 162.015 160.488 162.239C160.76 162.447 160.944 162.743 161.04 163.127C161.056 163.095 161.072 163.071 161.088 163.055C161.12 163.039 161.144 163.023 161.16 163.007C161.384 162.655 161.64 162.359 161.928 162.119C162.216 161.879 162.536 161.759 162.888 161.759C163.064 161.759 163.312 161.767 163.632 161.783C163.952 161.799 164.184 161.799 164.328 161.783C164.248 161.847 164.136 161.975 163.992 162.167C163.864 162.359 163.744 162.559 163.632 162.767C163.52 162.959 163.432 163.111 163.368 163.223C162.936 164.055 162.544 164.879 162.192 165.695C161.84 166.511 161.568 167.295 161.376 168.047C161.328 168.207 161.296 168.359 161.28 168.503C161.264 168.631 161.256 168.759 161.256 168.887C161.256 169.303 161.392 169.511 161.664 169.511C161.92 169.511 162.24 169.351 162.624 169.031C163.184 168.583 163.672 168.023 164.088 167.351C164.52 166.679 164.896 166.031 165.216 165.407C165.28 165.295 165.336 165.239 165.384 165.239C165.48 165.239 165.528 165.375 165.528 165.647C165.528 165.775 165.504 165.919 165.456 166.079C165.424 166.239 165.368 166.391 165.288 166.535C165.064 166.919 164.768 167.391 164.4 167.951C164.048 168.511 163.648 169.063 163.2 169.607C162.752 170.135 162.28 170.583 161.784 170.951C161.304 171.319 160.824 171.503 160.344 171.503ZM155.568 169.415C155.616 169.431 155.688 169.439 155.784 169.439C156.088 169.439 156.416 169.311 156.768 169.055C157.12 168.799 157.472 168.471 157.824 168.071C158.176 167.655 158.488 167.239 158.76 166.823C159.464 165.703 159.984 164.863 160.32 164.303C160.656 163.743 160.848 163.423 160.896 163.343C160.816 163.071 160.672 162.871 160.464 162.743C160.272 162.615 160.04 162.551 159.768 162.551C159.416 162.551 159.04 162.647 158.64 162.839C158.256 163.031 157.928 163.263 157.656 163.535C157.24 163.951 156.84 164.487 156.456 165.143C156.088 165.799 155.784 166.447 155.544 167.087C155.32 167.727 155.208 168.263 155.208 168.695C155.208 169.095 155.328 169.335 155.568 169.415ZM166.311 171.503C165.847 171.503 165.495 171.319 165.255 170.951C165.143 170.775 165.063 170.567 165.015 170.327C164.967 170.087 164.943 169.839 164.943 169.583C164.943 169.327 164.959 169.071 164.991 168.815C165.023 168.543 165.063 168.279 165.111 168.023C165.191 167.607 165.279 167.231 165.375 166.895C165.487 166.543 165.599 166.207 165.711 165.887V165.863C165.583 166.103 165.423 166.367 165.231 166.655C165.039 166.927 164.903 167.127 164.823 167.255C164.711 167.431 164.623 167.519 164.559 167.519C164.495 167.519 164.463 167.447 164.463 167.303C164.463 166.983 164.559 166.631 164.751 166.247C164.879 165.991 165.055 165.663 165.279 165.263C165.503 164.847 165.735 164.399 165.975 163.919C166.215 163.439 166.423 162.975 166.599 162.527H164.991C164.911 162.527 164.895 162.463 164.943 162.335C164.991 162.207 165.063 162.087 165.159 161.975C165.255 161.847 165.327 161.783 165.375 161.783H167.199C167.375 161.367 167.575 160.919 167.799 160.439C168.039 159.959 168.303 159.511 168.591 159.095C168.895 158.663 169.223 158.311 169.575 158.039C169.927 157.767 170.303 157.631 170.703 157.631C170.879 157.631 171.095 157.631 171.351 157.631C171.623 157.631 171.791 157.623 171.855 157.607C171.519 157.831 171.127 158.279 170.679 158.951C170.231 159.607 169.743 160.551 169.215 161.783H171.639C171.687 161.783 171.671 161.847 171.591 161.975C171.511 162.087 171.407 162.207 171.279 162.335C171.167 162.463 171.055 162.527 170.943 162.527H168.879C168.671 163.055 168.439 163.631 168.183 164.255C167.943 164.879 167.719 165.495 167.511 166.103C167.319 166.695 167.175 167.239 167.079 167.735C167.015 168.039 166.983 168.319 166.983 168.575C166.983 169.183 167.175 169.487 167.559 169.487C167.815 169.487 168.119 169.359 168.471 169.103C168.823 168.847 169.175 168.495 169.527 168.047C169.847 167.631 170.151 167.183 170.439 166.703C170.743 166.223 170.999 165.783 171.207 165.383C171.271 165.271 171.327 165.215 171.375 165.215C171.471 165.215 171.519 165.343 171.519 165.599C171.519 165.727 171.495 165.879 171.447 166.055C171.415 166.215 171.351 166.375 171.255 166.535C171.031 166.919 170.767 167.343 170.463 167.807C170.159 168.255 169.847 168.703 169.527 169.151C169.303 169.439 169.007 169.767 168.639 170.135C168.287 170.503 167.903 170.823 167.487 171.095C167.087 171.367 166.695 171.503 166.311 171.503ZM171.52 171.503C171.104 171.503 170.76 171.311 170.488 170.927C170.232 170.527 170.136 169.911 170.2 169.079C170.232 168.727 170.312 168.279 170.44 167.735C170.568 167.191 170.736 166.607 170.944 165.983C171.168 165.343 171.416 164.727 171.688 164.135C171.96 163.527 172.256 162.991 172.576 162.527C172.752 162.287 172.928 162.143 173.104 162.095C173.296 162.031 173.64 161.999 174.136 161.999H175.288C175.016 162.383 174.728 162.863 174.424 163.439C174.12 164.015 173.84 164.591 173.584 165.167C173.328 165.727 173.128 166.199 172.984 166.583C172.952 166.695 172.888 166.895 172.792 167.183C172.696 167.455 172.608 167.759 172.528 168.095C172.448 168.431 172.408 168.743 172.408 169.031C172.408 169.287 172.456 169.503 172.552 169.679C172.648 169.855 172.824 169.943 173.08 169.943C173.384 169.927 173.712 169.735 174.064 169.367C174.416 168.999 174.768 168.527 175.12 167.951C175.472 167.375 175.816 166.775 176.152 166.151C176.504 165.511 176.816 164.919 177.088 164.375C177.376 163.815 177.616 163.383 177.808 163.079C178.048 162.711 178.304 162.391 178.576 162.119C178.848 161.831 179.16 161.687 179.512 161.687C179.64 161.687 179.808 161.695 180.016 161.711C180.24 161.711 180.456 161.711 180.664 161.711C180.888 161.711 181.04 161.703 181.12 161.687C181.024 161.751 180.912 161.879 180.784 162.071C180.656 162.263 180.528 162.463 180.4 162.671C180.288 162.863 180.2 163.023 180.136 163.151C179.72 163.983 179.312 164.823 178.912 165.671C178.528 166.503 178.24 167.295 178.048 168.047C177.968 168.335 177.928 168.583 177.928 168.791C177.928 169.271 178.088 169.511 178.408 169.511C178.632 169.511 178.952 169.351 179.368 169.031C179.688 168.775 180 168.447 180.304 168.047C180.64 167.631 180.952 167.183 181.24 166.703C181.528 166.223 181.776 165.783 181.984 165.383C182.048 165.271 182.104 165.215 182.152 165.215C182.248 165.215 182.296 165.343 182.296 165.599C182.296 165.727 182.272 165.879 182.224 166.055C182.192 166.215 182.128 166.375 182.032 166.535C181.808 166.919 181.544 167.343 181.24 167.807C180.936 168.255 180.624 168.703 180.304 169.151C180.08 169.439 179.784 169.767 179.416 170.135C179.048 170.503 178.656 170.823 178.24 171.095C177.84 171.367 177.448 171.503 177.064 171.503C176.84 171.503 176.632 171.455 176.44 171.359C176.248 171.279 176.088 171.111 175.96 170.855C175.8 170.519 175.72 170.063 175.72 169.487C175.72 169.311 175.728 169.127 175.744 168.935C175.76 168.727 175.784 168.519 175.816 168.311C175.576 168.647 175.32 168.959 175.048 169.247C174.792 169.535 174.528 169.823 174.256 170.111C173.648 170.719 173.128 171.103 172.696 171.263C172.28 171.423 171.888 171.503 171.52 171.503ZM185.085 171.527C184.573 171.527 184.205 171.311 183.981 170.879C183.805 170.495 183.717 170.039 183.717 169.511C183.717 168.919 183.805 168.263 183.981 167.543C184.157 166.823 184.397 166.087 184.701 165.335C184.813 165.063 184.957 164.719 185.133 164.303C185.325 163.887 185.549 163.479 185.805 163.079C185.581 163.271 185.317 163.431 185.013 163.559C184.709 163.671 184.413 163.727 184.125 163.727C183.901 163.727 183.717 163.695 183.573 163.631C183.445 163.887 183.237 164.303 182.949 164.879C182.661 165.455 182.277 166.135 181.797 166.919C181.749 166.999 181.701 166.999 181.653 166.919C181.621 166.823 181.605 166.695 181.605 166.535C181.605 166.407 181.621 166.271 181.653 166.127C181.685 165.983 181.733 165.847 181.797 165.719C181.957 165.415 182.117 165.103 182.277 164.783C182.437 164.447 182.581 164.151 182.709 163.895C182.837 163.639 182.909 163.479 182.925 163.415C182.637 163.271 182.421 163.071 182.277 162.815C182.133 162.543 182.061 162.279 182.061 162.023C182.061 161.767 182.117 161.535 182.229 161.327C182.357 161.119 182.541 160.959 182.781 160.847C182.925 160.799 183.061 160.775 183.189 160.775C183.541 160.775 183.829 160.887 184.053 161.111C184.037 161.175 184.021 161.247 184.005 161.327C184.005 161.391 184.005 161.463 184.005 161.543C184.005 162.039 184.205 162.407 184.605 162.647C185.005 162.887 185.437 162.975 185.901 162.911C186.125 162.591 186.381 162.311 186.669 162.071C186.957 161.831 187.269 161.711 187.605 161.711C187.781 161.711 188.029 161.719 188.349 161.735C188.685 161.751 188.925 161.751 189.069 161.735C188.973 161.799 188.861 161.927 188.733 162.119C188.605 162.311 188.485 162.511 188.373 162.719C188.261 162.927 188.173 163.087 188.109 163.199C187.677 164.031 187.277 164.863 186.909 165.695C186.541 166.511 186.261 167.295 186.069 168.047C186.037 168.191 186.005 168.327 185.973 168.455C185.957 168.567 185.949 168.687 185.949 168.815C185.949 169.295 186.109 169.535 186.429 169.535C186.653 169.535 186.973 169.375 187.389 169.055C187.757 168.751 188.085 168.415 188.373 168.047C188.693 167.631 188.997 167.183 189.285 166.703C189.573 166.223 189.821 165.783 190.029 165.383C190.109 165.255 190.165 165.191 190.197 165.191C190.293 165.191 190.341 165.335 190.341 165.623C190.341 165.735 190.325 165.871 190.293 166.031C190.261 166.191 190.205 166.343 190.125 166.487C189.885 166.887 189.613 167.327 189.309 167.807C189.005 168.271 188.693 168.727 188.373 169.175C188.165 169.463 187.869 169.791 187.485 170.159C187.117 170.527 186.717 170.847 186.285 171.119C185.869 171.391 185.469 171.527 185.085 171.527ZM194.756 171.023C194.02 171.407 193.244 171.599 192.428 171.599C191.74 171.599 191.1 171.431 190.508 171.095C189.916 170.759 189.516 170.223 189.308 169.487C189.212 169.151 189.164 168.799 189.164 168.431C189.164 167.823 189.268 167.199 189.476 166.559C189.7 165.903 189.988 165.303 190.34 164.759C190.884 163.911 191.572 163.207 192.404 162.647C193.236 162.087 194.156 161.807 195.164 161.807C195.916 161.807 196.5 161.999 196.916 162.383C197.332 162.767 197.54 163.215 197.54 163.727C197.54 164.335 197.332 164.871 196.916 165.335C196.516 165.783 195.988 166.127 195.332 166.367C195.012 166.479 194.668 166.567 194.3 166.631C193.948 166.679 193.612 166.703 193.292 166.703C192.636 166.703 192.132 166.615 191.78 166.439C191.476 167.223 191.324 167.943 191.324 168.599C191.324 169.191 191.46 169.679 191.732 170.063C192.004 170.431 192.436 170.615 193.028 170.615C193.524 170.615 194.012 170.479 194.492 170.207C194.988 169.935 195.444 169.599 195.86 169.199C196.292 168.799 196.652 168.415 196.94 168.047C197.164 167.775 197.356 167.519 197.516 167.279C197.676 167.039 197.844 166.767 198.02 166.463C198.196 166.143 198.404 165.751 198.644 165.287C198.708 165.175 198.764 165.119 198.812 165.119C198.908 165.119 198.956 165.247 198.956 165.503C198.956 165.647 198.932 165.807 198.884 165.983C198.852 166.143 198.788 166.311 198.692 166.487C198.468 166.887 198.196 167.327 197.876 167.807C197.572 168.271 197.26 168.719 196.94 169.151C196.652 169.535 196.324 169.887 195.956 170.207C195.588 170.527 195.188 170.799 194.756 171.023ZM192.572 165.911C192.652 165.959 192.74 165.991 192.836 166.007C192.932 166.023 193.028 166.031 193.124 166.031C193.444 166.031 193.764 165.959 194.084 165.815C194.404 165.655 194.676 165.495 194.9 165.335C195.268 165.079 195.58 164.775 195.836 164.423C196.092 164.071 196.236 163.671 196.268 163.223C196.284 163.031 196.236 162.871 196.124 162.743C196.028 162.599 195.852 162.527 195.596 162.527C195.468 162.527 195.308 162.551 195.116 162.599C194.86 162.663 194.604 162.783 194.348 162.959C194.092 163.135 193.844 163.343 193.604 163.583C193.524 163.663 193.38 163.823 193.172 164.063C192.98 164.287 192.796 164.543 192.62 164.831C192.444 165.103 192.356 165.343 192.356 165.551C192.356 165.727 192.428 165.847 192.572 165.911ZM211.393 171.503C210.849 171.503 210.473 171.343 210.265 171.023C210.073 170.687 209.977 170.303 209.977 169.871C209.977 169.407 210.049 168.871 210.193 168.263C210.353 167.639 210.545 166.999 210.769 166.343C211.009 165.671 211.249 165.047 211.489 164.471C211.569 164.279 211.641 164.071 211.705 163.847C211.785 163.623 211.825 163.423 211.825 163.247C211.825 162.927 211.681 162.767 211.393 162.767C211.281 162.767 211.153 162.791 211.009 162.839C210.865 162.871 210.697 162.943 210.505 163.055C210.169 163.215 209.849 163.439 209.545 163.727C209.241 163.999 209.033 164.207 208.921 164.351C208.713 164.607 208.513 164.895 208.321 165.215C208.129 165.519 207.961 165.831 207.817 166.151C207.497 166.839 207.241 167.495 207.049 168.119C206.873 168.727 206.705 169.247 206.545 169.679C206.449 169.951 206.353 170.231 206.257 170.519C206.161 170.807 206.073 171.087 205.993 171.359H203.665C203.665 171.359 203.721 171.159 203.833 170.759C203.945 170.359 204.081 169.959 204.241 169.559C204.977 167.655 205.673 165.711 206.329 163.727C206.985 161.743 207.777 159.839 208.705 158.015C209.121 157.199 209.569 156.447 210.049 155.759C210.545 155.071 211.065 154.527 211.609 154.127C212.169 153.711 212.753 153.503 213.361 153.503C213.841 153.503 214.169 153.615 214.345 153.839C214.537 154.047 214.633 154.311 214.633 154.631C214.633 154.983 214.561 155.351 214.417 155.735C214.273 156.119 214.129 156.447 213.985 156.719C213.697 157.295 213.321 157.943 212.857 158.663C212.393 159.383 211.905 160.055 211.393 160.679C211.281 160.823 211.089 161.055 210.817 161.375C210.545 161.679 210.265 161.991 209.977 162.311C209.705 162.631 209.489 162.879 209.329 163.055C209.857 162.671 210.313 162.375 210.697 162.167C211.081 161.959 211.409 161.815 211.681 161.735C212.145 161.607 212.529 161.543 212.833 161.543C213.745 161.543 214.201 161.943 214.201 162.743C214.201 163.079 214.105 163.479 213.913 163.943C213.817 164.199 213.681 164.543 213.505 164.975C213.329 165.407 213.145 165.871 212.953 166.367C212.777 166.847 212.625 167.311 212.497 167.759C212.385 168.207 212.329 168.575 212.329 168.863C212.329 169.039 212.353 169.199 212.401 169.343C212.465 169.471 212.577 169.535 212.737 169.535C212.849 169.535 213.009 169.479 213.217 169.367C213.665 169.111 214.081 168.751 214.465 168.287C214.865 167.823 215.217 167.327 215.521 166.799C215.841 166.271 216.113 165.791 216.337 165.359C216.385 165.247 216.441 165.191 216.505 165.191C216.585 165.191 216.625 165.327 216.625 165.599C216.625 165.727 216.609 165.879 216.577 166.055C216.545 166.215 216.481 166.375 216.385 166.535C216.161 166.919 215.865 167.391 215.497 167.951C215.145 168.511 214.745 169.063 214.297 169.607C213.849 170.135 213.377 170.583 212.881 170.951C212.385 171.319 211.889 171.503 211.393 171.503ZM208.633 162.887C209.433 161.943 210.241 160.935 211.057 159.863C211.889 158.775 212.577 157.671 213.121 156.551C213.153 156.471 213.225 156.311 213.337 156.071C213.449 155.831 213.553 155.567 213.649 155.279C213.745 154.975 213.793 154.719 213.793 154.511C213.793 154.239 213.689 154.103 213.481 154.103C213.273 154.103 213.025 154.247 212.737 154.535C212.465 154.823 212.185 155.207 211.897 155.687C211.529 156.295 211.153 156.999 210.769 157.799C210.385 158.583 210.009 159.415 209.641 160.295C209.289 161.175 208.953 162.039 208.633 162.887ZM221.077 171.023C220.341 171.407 219.565 171.599 218.749 171.599C218.061 171.599 217.421 171.431 216.829 171.095C216.237 170.759 215.837 170.223 215.629 169.487C215.533 169.151 215.485 168.799 215.485 168.431C215.485 167.823 215.589 167.199 215.797 166.559C216.021 165.903 216.309 165.303 216.661 164.759C217.205 163.911 217.893 163.207 218.725 162.647C219.557 162.087 220.477 161.807 221.485 161.807C222.237 161.807 222.821 161.999 223.237 162.383C223.653 162.767 223.861 163.215 223.861 163.727C223.861 164.335 223.653 164.871 223.237 165.335C222.837 165.783 222.309 166.127 221.653 166.367C221.333 166.479 220.989 166.567 220.621 166.631C220.269 166.679 219.933 166.703 219.613 166.703C218.957 166.703 218.453 166.615 218.101 166.439C217.797 167.223 217.645 167.943 217.645 168.599C217.645 169.191 217.781 169.679 218.053 170.063C218.325 170.431 218.757 170.615 219.349 170.615C219.845 170.615 220.333 170.479 220.813 170.207C221.309 169.935 221.765 169.599 222.181 169.199C222.613 168.799 222.973 168.415 223.261 168.047C223.485 167.775 223.677 167.519 223.837 167.279C223.997 167.039 224.165 166.767 224.341 166.463C224.517 166.143 224.725 165.751 224.965 165.287C225.029 165.175 225.085 165.119 225.133 165.119C225.229 165.119 225.277 165.247 225.277 165.503C225.277 165.647 225.253 165.807 225.205 165.983C225.173 166.143 225.109 166.311 225.013 166.487C224.789 166.887 224.517 167.327 224.197 167.807C223.893 168.271 223.581 168.719 223.261 169.151C222.973 169.535 222.645 169.887 222.277 170.207C221.909 170.527 221.509 170.799 221.077 171.023ZM218.893 165.911C218.973 165.959 219.061 165.991 219.157 166.007C219.253 166.023 219.349 166.031 219.445 166.031C219.765 166.031 220.085 165.959 220.405 165.815C220.725 165.655 220.997 165.495 221.221 165.335C221.589 165.079 221.901 164.775 222.157 164.423C222.413 164.071 222.557 163.671 222.589 163.223C222.605 163.031 222.557 162.871 222.445 162.743C222.349 162.599 222.173 162.527 221.917 162.527C221.789 162.527 221.629 162.551 221.437 162.599C221.181 162.663 220.925 162.783 220.669 162.959C220.413 163.135 220.165 163.343 219.925 163.583C219.845 163.663 219.701 163.823 219.493 164.063C219.301 164.287 219.117 164.543 218.941 164.831C218.765 165.103 218.677 165.343 218.677 165.551C218.677 165.727 218.749 165.847 218.893 165.911ZM228.046 171.527C227.534 171.527 227.166 171.311 226.942 170.879C226.766 170.495 226.678 170.039 226.678 169.511C226.678 168.919 226.766 168.263 226.942 167.543C227.118 166.823 227.358 166.087 227.662 165.335C227.774 165.063 227.918 164.719 228.094 164.303C228.286 163.887 228.51 163.479 228.766 163.079C228.542 163.271 228.278 163.431 227.974 163.559C227.67 163.671 227.374 163.727 227.086 163.727C226.862 163.727 226.678 163.695 226.534 163.631C226.406 163.887 226.198 164.303 225.91 164.879C225.622 165.455 225.238 166.135 224.758 166.919C224.71 166.999 224.662 166.999 224.614 166.919C224.582 166.823 224.566 166.695 224.566 166.535C224.566 166.407 224.582 166.271 224.614 166.127C224.646 165.983 224.694 165.847 224.758 165.719C224.918 165.415 225.078 165.103 225.238 164.783C225.398 164.447 225.542 164.151 225.67 163.895C225.798 163.639 225.87 163.479 225.886 163.415C225.598 163.271 225.382 163.071 225.238 162.815C225.094 162.543 225.022 162.279 225.022 162.023C225.022 161.767 225.078 161.535 225.19 161.327C225.318 161.119 225.502 160.959 225.742 160.847C225.886 160.799 226.022 160.775 226.15 160.775C226.502 160.775 226.79 160.887 227.014 161.111C226.998 161.175 226.982 161.247 226.966 161.327C226.966 161.391 226.966 161.463 226.966 161.543C226.966 162.039 227.166 162.407 227.566 162.647C227.966 162.887 228.398 162.975 228.862 162.911C229.086 162.591 229.342 162.311 229.63 162.071C229.918 161.831 230.23 161.711 230.566 161.711C230.742 161.711 230.99 161.719 231.31 161.735C231.646 161.751 231.886 161.751 232.03 161.735C231.934 161.799 231.822 161.927 231.694 162.119C231.566 162.311 231.446 162.511 231.334 162.719C231.222 162.927 231.134 163.087 231.07 163.199C230.638 164.031 230.238 164.863 229.87 165.695C229.502 166.511 229.222 167.295 229.03 168.047C228.998 168.191 228.966 168.327 228.934 168.455C228.918 168.567 228.91 168.687 228.91 168.815C228.91 169.295 229.07 169.535 229.39 169.535C229.614 169.535 229.934 169.375 230.35 169.055C230.718 168.751 231.046 168.415 231.334 168.047C231.654 167.631 231.958 167.183 232.246 166.703C232.534 166.223 232.782 165.783 232.99 165.383C233.07 165.255 233.126 165.191 233.158 165.191C233.254 165.191 233.302 165.335 233.302 165.623C233.302 165.735 233.286 165.871 233.254 166.031C233.222 166.191 233.166 166.343 233.086 166.487C232.846 166.887 232.574 167.327 232.27 167.807C231.966 168.271 231.654 168.727 231.334 169.175C231.126 169.463 230.83 169.791 230.446 170.159C230.078 170.527 229.678 170.847 229.246 171.119C228.83 171.391 228.43 171.527 228.046 171.527ZM237.717 171.023C236.981 171.407 236.205 171.599 235.389 171.599C234.701 171.599 234.061 171.431 233.469 171.095C232.877 170.759 232.477 170.223 232.269 169.487C232.173 169.151 232.125 168.799 232.125 168.431C232.125 167.823 232.229 167.199 232.437 166.559C232.661 165.903 232.949 165.303 233.301 164.759C233.845 163.911 234.533 163.207 235.365 162.647C236.197 162.087 237.117 161.807 238.125 161.807C238.877 161.807 239.461 161.999 239.877 162.383C240.293 162.767 240.501 163.215 240.501 163.727C240.501 164.335 240.293 164.871 239.877 165.335C239.477 165.783 238.949 166.127 238.293 166.367C237.973 166.479 237.629 166.567 237.261 166.631C236.909 166.679 236.573 166.703 236.253 166.703C235.597 166.703 235.093 166.615 234.741 166.439C234.437 167.223 234.285 167.943 234.285 168.599C234.285 169.191 234.421 169.679 234.693 170.063C234.965 170.431 235.397 170.615 235.989 170.615C236.485 170.615 236.973 170.479 237.453 170.207C237.949 169.935 238.405 169.599 238.821 169.199C239.253 168.799 239.613 168.415 239.901 168.047C240.125 167.775 240.317 167.519 240.477 167.279C240.637 167.039 240.805 166.767 240.981 166.463C241.157 166.143 241.365 165.751 241.605 165.287C241.669 165.175 241.725 165.119 241.773 165.119C241.869 165.119 241.917 165.247 241.917 165.503C241.917 165.647 241.893 165.807 241.845 165.983C241.813 166.143 241.749 166.311 241.653 166.487C241.429 166.887 241.157 167.327 240.837 167.807C240.533 168.271 240.221 168.719 239.901 169.151C239.613 169.535 239.285 169.887 238.917 170.207C238.549 170.527 238.149 170.799 237.717 171.023ZM235.533 165.911C235.613 165.959 235.701 165.991 235.797 166.007C235.893 166.023 235.989 166.031 236.085 166.031C236.405 166.031 236.725 165.959 237.045 165.815C237.365 165.655 237.637 165.495 237.861 165.335C238.229 165.079 238.541 164.775 238.797 164.423C239.053 164.071 239.197 163.671 239.229 163.223C239.245 163.031 239.197 162.871 239.085 162.743C238.989 162.599 238.813 162.527 238.557 162.527C238.429 162.527 238.269 162.551 238.077 162.599C237.821 162.663 237.565 162.783 237.309 162.959C237.053 163.135 236.805 163.343 236.565 163.583C236.485 163.663 236.341 163.823 236.133 164.063C235.941 164.287 235.757 164.543 235.581 164.831C235.405 165.103 235.317 165.343 235.317 165.551C235.317 165.727 235.389 165.847 235.533 165.911Z" fill="#AEBED0"/>
<path d="M37.217 205.923H24.5519C21.6671 205.923 18.7492 204.699 18.7487 200.954L18.748 41.2361C18.748 37.7514 21.6671 36.009 24.5519 36.009H37.217C40.1019 36.009 42.44 38.3503 42.44 41.239V200.698C42.4346 203.582 40.0964 205.923 37.217 205.923Z" fill="#2F7BFF"/>
<path d="M34.2125 73.5613C34.1692 73.5613 34.1259 73.545 34.088 73.5125L30.7756 70.51L27.4632 73.5125C27.3874 73.5829 27.2683 73.5775 27.2034 73.5016C27.133 73.4258 27.1384 73.3065 27.2142 73.2415L30.6511 70.1252C30.7214 70.0602 30.8297 70.0602 30.9001 70.1252L34.3369 73.2415C34.4127 73.312 34.4181 73.4258 34.3478 73.5016C34.3099 73.545 34.2612 73.5613 34.2125 73.5613Z" fill="#FAFAFA"/>
<path d="M33.2671 76.1944H28.2768C28.174 76.1944 28.0928 76.1131 28.0928 76.0101V72.5307C28.0928 72.4277 28.174 72.3464 28.2768 72.3464C28.3796 72.3464 28.4608 72.4277 28.4608 72.5307V75.8204H33.083V72.5307C33.083 72.4277 33.1642 72.3464 33.2671 72.3464C33.3699 72.3464 33.4511 72.4277 33.4511 72.5307V76.0101C33.4511 76.1077 33.3645 76.1944 33.2671 76.1944Z" fill="#FAFAFA"/>
<path d="M34.0232 99.9122H27.5229C27.4201 99.9122 27.3389 99.831 27.3389 99.728V95.5711C27.3389 95.0562 27.7556 94.6389 28.2698 94.6389H29.9639C30.3861 94.6389 30.7703 94.8936 30.9327 95.2839L31.225 95.9776H33.2817C33.7959 95.9776 34.2126 96.3949 34.2126 96.9098V99.7226C34.2126 99.8255 34.126 99.9122 34.0232 99.9122ZM27.7069 99.5383H33.8446V96.9098C33.8446 96.6008 33.5902 96.3461 33.2817 96.3461H31.1005C31.0247 96.3461 30.9598 96.3028 30.9327 96.2323L30.5917 95.4248C30.4835 95.17 30.2399 95.0074 29.9639 95.0074H28.2698C27.9613 95.0074 27.7069 95.2622 27.7069 95.5711V99.5383Z" fill="#FAFAFA"/>
<path d="M41.0438 60.9011H23.9158C23.0768 60.9011 22.3999 60.1261 22.3999 59.1776V43.4227C22.3999 42.4688 23.0816 41.6992 23.9158 41.6992H41.0438C41.8828 41.6992 42.5597 42.4742 42.5597 43.4227V59.1722C42.5597 60.1261 41.8828 60.9011 41.0438 60.9011Z" fill="#FAFAFA"/>
<path d="M28.9353 124.728C28.8325 124.728 28.735 124.695 28.6484 124.636C28.4969 124.527 28.4211 124.343 28.4536 124.159L28.7242 122.424C28.7296 122.386 28.7188 122.349 28.6917 122.321L27.4577 121.08C27.3278 120.95 27.2791 120.755 27.3386 120.582C27.3982 120.403 27.5443 120.278 27.7283 120.246L29.4549 119.969C29.4928 119.964 29.5253 119.937 29.5469 119.904L30.3425 118.343C30.5103 118.013 31.0516 118.013 31.2193 118.343L32.015 119.904C32.0312 119.937 32.0637 119.964 32.107 119.969L33.8335 120.246C34.0176 120.273 34.1691 120.403 34.2232 120.582C34.2828 120.761 34.2341 120.95 34.1042 121.08L32.8701 122.321C32.8431 122.349 32.8268 122.386 32.8377 122.424L33.1083 124.159C33.1353 124.343 33.0596 124.527 32.9134 124.636C32.7619 124.744 32.567 124.76 32.3993 124.674L30.8405 123.877C30.808 123.861 30.7647 123.861 30.7322 123.877L29.1572 124.674C29.0868 124.712 29.0111 124.728 28.9353 124.728ZM30.7755 123.498C30.8513 123.498 30.9271 123.514 30.9974 123.552L32.5562 124.348C32.6157 124.381 32.6645 124.354 32.6861 124.338C32.7023 124.327 32.7456 124.289 32.7348 124.218L32.4642 122.484C32.4371 122.327 32.4913 122.17 32.6049 122.061L33.839 120.82C33.8877 120.771 33.8768 120.717 33.8714 120.696C33.866 120.674 33.839 120.625 33.774 120.614L32.0474 120.338C31.8905 120.311 31.7552 120.213 31.6848 120.078L30.8892 118.517C30.8567 118.457 30.8026 118.452 30.7809 118.452C30.7593 118.452 30.7052 118.457 30.6727 118.517L29.8771 120.078C29.8067 120.219 29.6714 120.316 29.5144 120.338L27.7879 120.614C27.7229 120.625 27.6959 120.674 27.6904 120.696C27.685 120.717 27.6742 120.771 27.7229 120.82L28.9569 122.061C29.0652 122.17 29.1193 122.332 29.0923 122.484L28.8216 124.218C28.8108 124.283 28.8541 124.321 28.8703 124.338C28.8866 124.348 28.9353 124.381 29.0002 124.348L30.559 123.552C30.6186 123.514 30.6943 123.498 30.7755 123.498Z" fill="white"/>
<path d="M34.4019 148.038H27.0952C26.9923 148.038 26.9111 147.957 26.9111 147.854V143.242C26.9111 143.139 26.9923 143.058 27.0952 143.058H34.4019C34.5048 143.058 34.586 143.139 34.586 143.242V147.854C34.586 147.957 34.5048 148.038 34.4019 148.038ZM27.2792 147.67H34.2179V143.426H27.2792V147.67Z" fill="#FAFAFA"/>
<path d="M30.8422 146.744C30.7989 146.744 30.7556 146.727 30.7177 146.695L26.9777 143.378C26.9019 143.308 26.8965 143.194 26.9615 143.118C27.0318 143.042 27.1455 143.037 27.2213 143.102L30.8368 146.305L34.2791 143.102C34.3548 143.031 34.4685 143.037 34.5389 143.112C34.6092 143.188 34.6038 143.302 34.528 143.373L30.9667 146.689C30.9288 146.727 30.8855 146.744 30.8422 146.744Z" fill="#FAFAFA"/>
<path d="M27.2046 147.838C27.1559 147.838 27.1126 147.821 27.0747 147.783C27.0044 147.713 27.0044 147.594 27.0747 147.523L29.2993 145.296C29.3696 145.225 29.4887 145.225 29.559 145.296C29.6294 145.366 29.6294 145.485 29.559 145.556L27.3345 147.783C27.2967 147.821 27.2479 147.838 27.2046 147.838Z" fill="#FAFAFA"/>
<path d="M34.4518 147.99C34.4031 147.99 34.3598 147.974 34.3219 147.936L31.9458 145.556C31.8755 145.486 31.8755 145.367 31.9458 145.296C32.0162 145.226 32.1353 145.226 32.2056 145.296L34.5817 147.675C34.6521 147.746 34.6521 147.865 34.5817 147.936C34.5438 147.974 34.5005 147.99 34.4518 147.99Z" fill="#FAFAFA"/>
<path d="M30.8823 55.5198C28.555 55.5198 26.666 53.6283 26.666 51.2979C26.666 48.9674 28.555 47.0759 30.8823 47.0759C33.2096 47.0759 35.0986 48.9674 35.0986 51.2979C35.0986 53.6283 33.2096 55.5198 30.8823 55.5198Z" fill="#1FC9AA"/>
<rect x="79.1504" y="55.7559" width="193.984" height="24.3932" rx="2" fill="#F0F7FF"/>
<rect x="83.7969" y="59.2405" width="15.1006" height="16.2621" rx="2" fill="#BFCFE0"/>
<rect x="104.705" y="61.5637" width="111.512" height="3.48474" fill="#D6E2EF"/>
<rect x="104.705" y="68.5332" width="47.6248" height="3.48474" fill="#D6E2EF"/>
<path fill-rule="evenodd" clip-rule="evenodd" d="M265.835 66.8773L261.599 70.1184C261.232 70.3992 260.643 70.3992 260.276 70.1184L256.04 66.8773C255.657 66.5846 255.577 66.1832 255.96 65.8905L256.12 65.7679C256.456 65.5484 256.854 65.4871 257.156 65.7442C258.19 66.5352 259.242 67.3282 260.278 68.133C260.645 68.4138 261.235 68.4138 261.602 68.133C262.648 67.3282 263.685 66.5352 264.718 65.7442C265.021 65.4891 265.419 65.5484 265.77 65.7679L265.912 65.8905C266.295 66.1832 266.215 66.5846 265.835 66.8773Z" fill="#BFCFE0"/>
</svg>
