<svg width="281" height="301" viewBox="0 0 281 301" fill="none" xmlns="http://www.w3.org/2000/svg">
<path d="M280.999 0H0.00146484V280.997H280.999V0Z" fill="white"/>
<g opacity="0.2">
<path d="M78.4023 24.6421H24.9302V78.112H78.4045V24.6421H78.4023ZM69.7782 69.4901H33.5543V33.2662H69.7782V69.4901Z" fill="#1D2342"/>
<path d="M62.2224 40.3374H40.1362V62.4191H62.2224V40.3374Z" fill="#1D2342"/>
<path d="M114.053 24.6421H96.2295V42.4676H114.053V24.6421Z" fill="#1D2342"/>
<path d="M42.7557 113.763H24.9302V131.586V149.414H42.7557V131.586V113.763Z" fill="#1D2342"/>
<path d="M78.3995 113.763H60.5762V131.586H78.3995V113.763Z" fill="#1D2342"/>
<path d="M60.5792 95.9392H42.7559V113.763H60.5792V95.9392Z" fill="#1D2342"/>
<path d="M221.007 113.763V95.9398H203.181H185.356V113.763H203.181V131.586H221.007V149.414H203.181H185.356V131.586V113.763H167.53V95.9398H185.356V78.1142V60.2887H167.53V42.4676H185.356V24.6421H167.53H149.707H131.881V42.4676H149.707V60.2887V78.1142H131.881V95.9398H149.707V113.763V131.586H131.881V149.414H149.707V167.235V185.059H131.881V202.882H149.707V220.705V238.531H131.881V256.354H149.707H167.53H185.356V238.531H167.53V220.705H185.356V202.882V185.059H167.53V167.235H185.356H203.181V185.059H221.007V167.235H238.832V185.059H256.66V167.235V149.414H238.832V131.586H256.66V113.763H238.832H221.007Z" fill="#1D2342"/>
<path d="M203.183 24.6421V78.112H256.659V24.6421H203.183ZM248.033 69.4901H211.807V33.2662H248.033V69.4901Z" fill="#1D2342"/>
<path d="M240.476 40.3374H218.39V62.4191H240.476V40.3374Z" fill="#1D2342"/>
<path d="M24.9302 256.354H78.4045V202.882H24.9302V256.354ZM33.5543 211.506H69.7782V247.732H33.5543V211.506Z" fill="#1D2342"/>
<path d="M62.2224 218.577H40.1362V240.661H62.2224V218.577Z" fill="#1D2342"/>
<path d="M131.879 202.881H114.054V185.058H131.879V167.234V149.413H114.054V131.586H131.879V113.762H114.054V95.9389V78.1134H131.879V60.2879V42.4668H114.054V60.2879H96.228V78.1134V95.9389H78.4025V113.762H96.228V131.586H78.4025V149.413H96.228V167.234H78.4025V149.413H60.5792H42.7559V167.234H60.5792V185.058H78.4025H96.228V202.881V220.704H114.054V238.53H131.879V220.704V202.881Z" fill="#1D2342"/>
<path d="M114.053 238.529H96.2295V256.353H114.053V238.529Z" fill="#1D2342"/>
<path d="M42.7557 167.236H24.9302V185.062H42.7557V167.236Z" fill="#1D2342"/>
<path d="M203.183 256.354H256.659V202.882H203.183V256.354ZM211.807 211.506H248.033V247.732H211.807V211.506Z" fill="#1D2342"/>
<path d="M240.476 218.577H218.39V240.661H240.476V218.577Z" fill="#1D2342"/>
</g>
<g filter="url(#filter0_d_2911_13075)">
<path d="M118.84 167.629C118.84 169.872 117.346 171.69 115.507 171.69C113.667 171.69 112.175 169.872 112.175 167.629V150.425C112.175 148.182 113.667 146.363 115.507 146.363C117.346 146.363 118.84 148.182 118.84 150.425V167.629Z" fill="#22282A"/>
<path d="M118.84 137.103C118.84 139.272 117.346 141.031 115.507 141.031C113.667 141.031 112.175 139.272 112.175 137.103V98.3028C112.175 96.1338 113.667 94.3755 115.507 94.3755C117.346 94.3755 118.84 96.1338 118.84 98.3028V137.103Z" fill="#22282A"/>
<path d="M117.507 136.361C117.507 138.204 116.612 139.698 115.508 139.698C114.403 139.698 113.508 138.204 113.508 136.361V99.0454C113.508 97.2022 114.403 95.7087 115.508 95.7087C116.612 95.7087 117.507 97.2022 117.507 99.0454V136.361Z" fill="#343C40"/>
<path d="M117.507 165.817C117.507 167.588 116.612 169.023 115.509 169.023C114.405 169.023 113.508 167.588 113.508 165.817V152.235C113.508 150.464 114.405 149.028 115.509 149.028C116.612 149.028 117.507 150.464 117.507 152.235V165.817Z" fill="#343C40"/>
<path d="M225.481 271.961C225.481 276.953 221.427 280.999 216.428 280.999H124.064C119.063 280.999 115.011 276.953 115.011 271.961V76.7538C115.009 71.7617 119.063 67.7158 124.064 67.7158H216.428C221.429 67.7158 225.481 71.7617 225.481 76.7538V271.961Z" fill="#22282A"/>
<path d="M216.428 67.7158H124.065C119.063 67.7158 115.009 71.7617 115.009 76.7538V79.9168C115.009 74.9247 119.063 70.8788 124.062 70.8788H216.426C221.427 70.8788 225.479 74.9247 225.479 79.9168V76.7538C225.481 71.7617 221.43 67.7158 216.428 67.7158Z" fill="#343C40"/>
<path d="M124.064 280.995H216.428C221.429 280.995 225.481 276.949 225.481 271.957V268.794C225.481 273.784 221.427 277.83 216.428 277.83H124.064C119.063 277.83 115.011 273.784 115.011 268.794V271.957C115.009 276.949 119.063 280.995 124.064 280.995Z" fill="#343C40"/>
<path d="M222.157 266.089C222.157 270.779 218.346 274.581 213.646 274.581H126.838C122.138 274.581 118.329 270.777 118.329 266.089V82.6232C118.329 77.9325 122.14 74.1289 126.838 74.1289H213.644C218.346 74.1289 222.155 77.9325 222.155 82.6232V266.089H222.157Z" fill="#176CFF"/>
<path d="M123.424 74.8474C120.424 76.1602 118.327 79.1462 118.327 82.6253V266.091C118.327 270.781 122.138 274.583 126.836 274.583H213.644C218.346 274.583 222.155 270.779 222.155 266.091V252.301C209.523 231.875 133.396 91.2987 123.424 74.8474Z" fill="#176CFF"/>
<path d="M171.75 72.677V72.5273L170.243 72.6011L168.733 72.5273V72.677L139.38 74.131C139.38 74.131 146.325 74.7041 147.982 76.0233C149.87 77.5257 150.621 79.1125 151.453 81.2197C152.562 84.035 154.779 83.9212 157.602 83.9212H168.735H171.752H182.888C185.711 83.9212 187.926 84.0329 189.036 81.2197C189.868 79.1125 190.62 77.5257 192.507 76.0233C194.165 74.7041 201.109 74.131 201.109 74.131L171.75 72.677Z" fill="#22282A"/>
<path d="M174.468 77.526C174.468 78.607 173.589 79.4836 172.504 79.4836H160.733C159.648 79.4836 158.77 78.607 158.77 77.526C158.77 76.4429 159.648 75.5684 160.733 75.5684H172.504C173.589 75.5663 174.468 76.4429 174.468 77.526Z" fill="black"/>
<path d="M181.71 77.526C181.71 78.607 180.831 79.4836 179.746 79.4836C178.663 79.4836 177.785 78.607 177.785 77.526C177.785 76.4429 178.661 75.5684 179.746 75.5684C180.829 75.5663 181.71 76.4429 181.71 77.526Z" fill="black"/>
<path d="M203.817 123.013H136.926V189.772H203.817V123.013Z" fill="white"/>
<path d="M208.647 177.426V193.875H191.449V197.98H212.386V177.426H208.647Z" fill="white"/>
<path d="M149.294 118.193H132.813V135.357H128.7V114.461H149.294V118.193Z" fill="white"/>
<path d="M155.618 129.048H142.971V141.668H155.618V129.048ZM153.579 139.632H145.013V131.081H153.579V139.632Z" fill="#1D2342"/>
<path d="M151.795 132.75H146.571V137.964H151.795V132.75Z" fill="#1D2342"/>
<path d="M164.051 129.048H159.835V133.254H164.051V129.048Z" fill="#1D2342"/>
<path d="M147.188 150.081H142.971V154.287V158.495H147.188V154.287V150.081Z" fill="#1D2342"/>
<path d="M155.622 150.081H151.406V154.287H155.622V150.081Z" fill="#1D2342"/>
<path d="M151.405 145.874H147.188V150.08H151.405V145.874Z" fill="#1D2342"/>
<path d="M189.341 150.083V145.874H185.125H180.91V150.083H185.125V154.289H189.341V158.497H185.125H180.91V154.289V150.083H176.694V145.874H180.91V141.668V137.462H176.694V133.254H180.91V129.048H176.694H172.477H168.265V133.254H172.477V137.462V141.668H168.265V145.874H172.477V150.083V154.289H168.265V158.497H172.477V162.703V166.909H168.265V171.115H172.477V175.323V179.529H168.265V183.735H172.477H176.694H180.91V179.529H176.694V175.323H180.91V171.115V166.909H176.694V162.703H180.91H185.125V166.909H189.341V162.703H193.555V166.909H197.772V162.703V158.497H193.555V154.289H197.772V150.083H193.555H189.341Z" fill="#1D2342"/>
<path d="M185.128 129.048V141.668H197.776V129.048H185.128ZM195.736 139.633H187.17V131.082H195.736V139.633Z" fill="#1D2342"/>
<path d="M193.945 132.75H188.724V137.964H193.945V132.75Z" fill="#1D2342"/>
<path d="M142.971 183.736H155.618V171.116H142.971V183.736ZM145.013 173.151H153.579V181.703H145.013V173.151Z" fill="#1D2342"/>
<path d="M151.795 174.82H146.571V180.033H151.795V174.82Z" fill="#1D2342"/>
<path d="M168.267 171.114H164.05V166.908H168.267V162.702V158.496H164.05V154.288H168.267V150.082H164.05V145.873V141.667H168.267V137.461V133.253H164.05V137.461H159.836V141.667V145.873H155.619V150.082H159.836V154.288H155.619V158.496H159.836V162.702H155.619V158.496H151.405H147.188V162.702H151.405V166.908H155.619H159.836V171.114V175.322H164.05V179.528H168.267V175.322V171.114Z" fill="#1D2342"/>
<path d="M164.051 179.528H159.835V183.734H164.051V179.528Z" fill="#1D2342"/>
<path d="M147.188 162.702H142.971V166.91H147.188V162.702Z" fill="#1D2342"/>
<path d="M185.128 183.736H197.776V171.116H185.128V183.736ZM187.17 173.151H195.736V181.703H187.17V173.151Z" fill="#1D2342"/>
<path d="M193.945 174.82H188.724V180.033H193.945V174.82Z" fill="#1D2342"/>
<path d="M201.916 227.048C201.916 230.711 198.941 233.678 195.273 233.678H151.325C147.657 233.678 144.682 230.709 144.682 227.048V215.996C144.682 212.333 147.657 209.366 151.325 209.366H195.273C198.941 209.366 201.916 212.333 201.916 215.996V227.048Z" fill="#1FC9AA"/>
<path d="M160.376 223.29L160.363 223.52L160.336 223.748L160.294 223.963L160.226 224.26L160.159 224.447L160.038 224.717L159.943 224.892L159.781 225.134L159.645 225.296L159.485 225.459L159.322 225.606L159.052 225.781L158.877 225.901L158.674 226.009L158.486 226.104L158.176 226.211L157.773 226.346L157.557 226.386L157.222 226.441L157.019 226.468L156.721 226.495L156.533 226.508L156.223 226.523L155.575 226.563H155.279L155.089 226.55L154.779 226.523L154.576 226.495L154.346 226.455L154.143 226.388L153.848 226.293L153.66 226.198L153.457 226.104L153.267 226.009L153.092 225.901L152.659 225.606L152.496 225.471L152.253 225.284L152.091 225.149L151.943 225.001L151.835 224.881L151.823 224.787L151.89 224.666L151.945 224.599L152.08 224.451L152.458 224.102L152.581 223.954L152.811 223.604L152.931 223.457L153.066 223.309L153.214 223.229L153.362 223.257L153.51 223.364L153.943 223.661L154.145 223.769L154.335 223.864L154.646 224.011L154.846 224.078L155.062 224.146L155.277 224.186L155.587 224.201L155.803 224.213L156.652 224.159L156.867 224.131L156.975 224.104L157.175 224.024L157.35 223.916L157.486 223.781L157.553 223.687L157.635 223.484L157.623 223.255L157.595 223.147L157.488 222.96L157.42 222.879L157.245 222.745L157.137 222.705L156.934 222.624L156.706 222.57L156.476 222.53L155.195 222.41L154.791 222.327L154.576 222.273L154.28 222.165L154.078 222.098L153.875 222.003L153.417 221.773L153.242 221.653L153.041 221.533L152.866 221.411L152.636 221.223L152.513 221.048L152.393 220.846L152.313 220.644L152.218 220.361L152.177 220.159L152.135 219.862L152.108 219.432L152.12 219.217L152.148 218.895L152.19 218.692L152.243 218.517L152.31 218.315L152.446 218.018L152.539 217.831L152.648 217.67L152.781 217.523L152.997 217.321L153.172 217.186L153.347 217.066L153.537 216.971L153.793 216.823L154.196 216.661L154.399 216.594L154.709 216.539L154.924 216.499L155.328 216.444L155.625 216.389L155.841 216.362L156.043 216.349H156.259L156.662 216.389L156.865 216.417L156.958 216.444L157.173 216.471L157.631 216.551L157.861 216.606L158.077 216.674L158.307 216.741L158.522 216.821L158.725 216.916L158.926 216.996L159.183 217.144L159.371 217.238L159.546 217.358L159.669 217.479V217.613L159.586 217.761L159.436 218.031L159.329 218.193L158.816 218.865L158.666 219.053L158.505 219.188L158.398 219.228L158.305 219.215L158.17 219.148L157.969 219.025L157.766 218.945L157.671 218.905L157.469 218.838L157.361 218.81L157.131 218.756L156.82 218.688L156.605 218.676L156.255 218.648H155.904L155.674 218.661L155.444 218.701L155.228 218.768L155.148 218.808L154.986 218.93L154.918 219.011L154.823 219.198L154.796 219.413L154.836 219.588L154.943 219.763L155.093 219.898L155.254 219.978L155.347 220.018L155.549 220.058L155.887 220.098L156.345 220.125L156.576 220.165L157.034 220.273L157.464 220.408L157.775 220.475L157.977 220.53L158.355 220.665L158.626 220.787L158.816 220.882L159.004 220.989L159.179 221.097L159.569 221.419L159.717 221.579L159.852 221.742L160.013 221.984L160.121 222.159L160.216 222.361L160.27 222.563L160.323 222.86L160.351 223.063L160.376 223.29Z" fill="white"/>
<path d="M170.428 225.076L170.32 225.183L170.077 225.398L169.917 225.519L169.662 225.706L169.499 225.814L169.229 225.961L169.053 226.056L168.743 226.203L168.543 226.271L168.312 226.338L168.082 226.378L167.744 226.446L167.271 226.5L167.029 226.515L166.693 226.543H165.992L165.762 226.53L165.532 226.503L165.302 226.463L165.071 226.408L164.871 226.34L164.265 226.178L163.969 226.071L163.794 225.991L163.538 225.843L163.378 225.723L163.203 225.603L163.015 225.481L162.664 225.183L162.502 225.021L162.354 224.846L162.206 224.644L162.086 224.456L161.978 224.269L161.885 224.081L161.75 223.799L161.55 223.234L161.455 222.965L161.319 222.56L161.292 222.358L161.279 222.048L161.292 221.846L161.305 221.631V221.401L161.332 220.944L161.345 220.729L161.385 220.526L161.44 220.229L161.493 220.027L161.56 219.825L161.628 219.637L161.723 219.367L161.818 219.18L161.913 218.978L162.02 218.775L162.141 218.573L162.261 218.385L162.396 218.211L162.544 218.021L162.704 217.846L162.865 217.699L163.04 217.551L163.201 217.416L163.634 217.119L163.809 217.012L163.999 216.904L164.402 216.717L164.632 216.636L164.848 216.569L165.306 216.462L165.536 216.422L165.766 216.394L166.184 216.367L166.48 216.339L166.68 216.352L166.978 216.367L167.476 216.434L167.666 216.474L167.977 216.529L168.45 216.664L168.638 216.744L168.935 216.919L169.123 217.026L169.474 217.269L169.892 217.566L170.042 217.673L170.122 217.741L170.217 217.836L170.244 217.943L170.232 218.05L170.151 218.158L170.029 218.305L169.881 218.453L169.731 218.588L169.583 218.708L169.436 218.855L169.205 219.125L169.058 219.287L168.99 219.355L168.87 219.462L168.775 219.502L168.682 219.515L168.587 219.488L168.439 219.408L168.184 219.22L168.008 219.125L167.713 218.99L167.523 218.923L167.227 218.843L167.024 218.803L166.687 218.775H166.471L166.174 218.803L165.958 218.858L165.663 218.952L165.462 219.032L165.287 219.1L165.016 219.235L164.826 219.37L164.734 219.452L164.571 219.627L164.449 219.814L164.353 219.989L164.261 220.177L164.18 220.379L164.113 220.594L164.073 220.824L164.045 221.026L164.018 221.43V221.645L164.03 221.983L164.043 222.185L164.111 222.495L164.178 222.697L164.273 222.927L164.381 223.129L164.584 223.426L164.731 223.588L164.987 223.803L165.162 223.923L165.432 224.058L165.635 224.14L165.931 224.22L166.146 224.26L166.469 224.273H166.779L166.97 224.233L167.077 224.206L167.28 224.138L167.618 224.016L167.833 223.921L168.036 223.826L168.211 223.732L168.466 223.571L168.642 223.437L168.777 223.342L168.859 223.314L168.98 223.342L169.127 223.437L169.277 223.571L169.33 223.651L169.465 223.799L169.681 224.069L169.816 224.229L170.179 224.646L170.301 224.808L170.369 224.876L170.436 224.996V225.076H170.428Z" fill="white"/>
<path d="M182.325 225.924L182.365 226.112L182.27 226.259L182.122 226.327L181.947 226.354H181.759L181.449 226.327L181.248 226.314H180.642L179.806 226.369L179.631 226.314L179.551 226.207L179.483 226.059L179.065 224.93L178.97 224.795L178.847 224.768L178.687 224.755L177.878 224.7H177.663L176.652 224.673L175.843 224.658H175.64L175.44 224.673H174.819L174.644 224.7L174.536 224.768L174.456 224.93L174.145 225.844L174.065 226.059L173.917 226.234L173.717 226.314L173.501 226.302L172.718 226.262H172.503L171.667 226.316L171.491 226.329L171.331 226.249L171.223 226.101L171.236 225.927L171.263 225.819L171.343 225.604L171.534 225.187L171.614 224.985L171.952 224.23L172.034 224.043L172.384 223.288L172.465 223.086L172.775 222.359L172.855 222.157L173.218 221.402L173.299 221.215L173.784 220.111L174.162 219.303L174.257 219.089L174.553 218.484L174.648 218.269L174.903 217.649L174.986 217.447L175.228 216.895L175.296 216.747L175.431 216.667L175.634 216.627L176.255 216.6H177.306L177.927 216.612L178.155 216.653L178.305 216.76L178.372 216.935L178.562 217.46L178.643 217.662L178.98 218.294L179.061 218.482L179.356 219.141L179.436 219.329L179.679 220.016L179.76 220.203L180.057 220.848L180.137 221.036L180.433 221.695L180.513 221.883L180.784 222.555L180.864 222.742L181.282 223.577L181.605 224.209L181.7 224.397L182.063 225.244L182.325 225.924ZM177.821 222.129L177.768 221.954L177.471 221.04L177.403 220.838L177.133 220.043L177.065 219.868L176.93 219.773L176.755 219.733L176.607 219.773L176.472 219.908L176.109 220.823L176.027 221.025L175.676 221.927L175.634 222.129L175.676 222.292L175.824 222.359L176.012 222.386H176.861L177.494 222.426L177.669 222.372L177.777 222.264L177.821 222.129Z" fill="white"/>
<path d="M192.955 218.699L192.942 218.914V220.905L192.982 221.687V221.902L193.01 223.678V223.908L192.997 224.015L192.982 224.245L192.942 224.89L192.955 225.669L192.942 225.857L192.89 226.019L192.782 226.167L192.647 226.262L192.526 226.302L192.336 226.314L191.65 226.342L191.435 226.354L191.097 226.367H190.882L190.706 226.327L190.544 226.259L190.381 226.139L190.261 225.964L190.06 225.575L189.94 225.4L189.414 224.74L189.281 224.578L188.755 223.933L188.635 223.758L188.162 223.058L188.042 222.896L187.516 222.249L187.381 222.089L186.883 221.43L186.762 221.322L186.667 221.362L186.627 221.522L186.6 222.195V222.409L186.614 223.082V223.297L186.627 224.051V224.266L186.587 225.02L186.6 225.235L186.68 225.773L186.693 225.988L186.652 226.162L186.557 226.257L186.465 226.285L186.302 226.312L186.194 226.325L185.964 226.339L185.346 226.325H185.13L184.577 226.352H184.362L184.161 226.339L184.013 226.312L183.906 226.245L183.851 226.15L183.823 226.015L183.811 225.92V225.718L183.838 225.273L183.851 225.058L183.811 224.344V224.129L183.838 222.487L183.851 222.272L183.891 221.558L183.903 221.343V220.414L183.849 219.702V219.487L183.903 218.774L183.891 218.56L183.836 217.833L183.823 217.618V217.308L183.836 217.106L183.863 216.903L183.891 216.756L183.931 216.661L184.013 216.621L184.161 216.593L184.564 216.566L184.968 216.593H185.979L186.139 216.606L186.207 216.661L186.287 216.781L186.853 217.386L186.988 217.548L187.486 218.193L187.622 218.355L188.12 219.015L188.255 219.175L188.741 219.847L188.861 220.009L189.374 220.654L189.509 220.816L189.995 221.489L190.103 221.583L190.21 221.598L190.305 221.531V221.383L190.21 220.818L190.198 220.604L190.238 220.024V219.809L190.185 218.987V218.772L190.238 217.951L190.225 217.736L190.185 217.238V216.901L190.225 216.726L190.28 216.619L190.373 216.564L190.535 216.537H190.656L190.886 216.524L191.492 216.564H191.707L192.165 216.537L192.368 216.551L192.678 216.564L192.826 216.591L192.921 216.631L193.001 216.726L193.029 216.916L193.042 217.038L193.054 217.266L193.027 217.683L192.999 217.898L192.955 218.699Z" fill="white"/>
</g>
<g clip-path="url(#clip0_2911_13075)">
<path d="M118.073 266.997C118.073 266.997 111.417 273.353 108.33 275.231C105.243 277.109 106.38 279.95 106.38 279.95C106.38 279.95 118.746 275.616 122.184 272.251L123.421 273.285C123.421 273.285 128.503 271.38 128.489 271.304C128.474 271.225 127.513 267.072 124.826 264.357L118.073 266.997Z" fill="#13151C"/>
<path d="M80.8876 181.802C80.8876 181.802 74.8446 213.858 78.279 224.71C80.6297 232.129 118.072 267 118.072 267C118.072 267 121.256 267.396 124.825 264.36C124.825 264.36 94.1657 224.133 93.7471 220.931C93.3286 217.728 99.166 181.805 99.166 181.805H80.8876V181.802Z" fill="#13151C"/>
<path d="M81.7947 271.5C81.7947 271.5 73.0647 274.31 69.477 274.649C65.8893 274.989 65.6875 278.044 65.6875 278.044C65.6875 278.044 78.6928 279.56 83.2372 278.033L83.9099 279.507C83.9099 279.507 89.3063 280.02 89.325 279.941C89.3437 279.862 90.2668 275.702 89.0148 272.077L81.7947 271.5Z" fill="#13151C"/>
<path d="M115.122 181.447C115.604 199.126 102.827 219.535 89.0146 272.077C89.0146 272.077 85.6923 273.246 81.7944 271.496C81.7944 271.496 86.2192 218.075 94.2167 181.289L115.122 181.447Z" fill="#282B3B"/>
<path d="M112.747 186.441C110.153 186.354 107.631 185.6 105.403 184.257C105.011 184.019 104.656 184.638 105.045 184.876C107.377 186.286 110.03 187.067 112.743 187.158C113.203 187.169 113.203 186.456 112.747 186.441Z" fill="#13151C"/>
<path d="M51.6211 141.168C51.6211 141.168 51.5987 136.887 50.4402 136.453C49.7675 136.2 42.1362 136.034 41.684 136.796C41.2318 137.558 44.0048 143.933 44.2851 144.672C44.8382 146.135 49.76 146.381 49.76 146.381L51.6211 141.168Z" fill="white" stroke="black" stroke-width="0.5" stroke-miterlimit="10"/>
<path d="M50.0594 140.228L45.1189 143.789C44.9881 143.883 44.805 143.853 44.7115 143.721L37.6633 133.76C37.5698 133.628 37.5997 133.443 37.7305 133.348L42.671 129.788C42.8018 129.693 42.985 129.724 43.0784 129.856L50.1267 139.817C50.2238 139.945 50.1939 140.13 50.0594 140.228Z" fill="#49205C"/>
<path d="M49.1395 139.621L44.8492 142.714C44.6997 142.819 44.4942 142.785 44.3896 142.638L38.2718 133.986C38.1672 133.835 38.2008 133.627 38.3466 133.522L42.6368 130.429C42.7863 130.323 42.9881 130.357 43.0965 130.504L49.218 139.153C49.3226 139.308 49.289 139.515 49.1395 139.621Z" fill="#00D8DB"/>
<path d="M41.0225 138.965C41.0225 138.965 43.3544 136.438 44.0309 136.668C44.711 136.898 42.6593 139.938 42.6593 139.938C42.6593 139.938 46.0228 137.004 46.6394 137.339C47.256 137.675 44.3971 141.353 44.3971 141.353C44.3971 141.353 47.2598 139.089 47.7568 139.38C48.2539 139.67 44.6438 145.109 44.6438 145.109C44.6438 145.109 41.9194 142.51 41.0225 138.965Z" fill="white" stroke="black" stroke-width="0.5" stroke-miterlimit="10"/>
<path d="M51.8115 141.383C51.8115 141.383 52.3758 133.933 51.449 133.794C50.5222 133.658 49.0049 138.229 49.0049 138.229L51.8115 141.383Z" fill="white" stroke="black" stroke-width="0.5" stroke-miterlimit="10"/>
<path d="M102.599 119.559C101.874 121.758 99.6691 122.897 97.6772 122.931C95.7339 122.953 93.8354 121.761 93.1216 119.709L93.2972 119.649L94.4969 119.257H94.9117C95.4349 120.366 96.5672 120.916 97.6772 120.894C98.7871 120.875 100.132 120.373 100.73 119.257H101.702L102.177 119.419L102.599 119.559Z" fill="#CC125F"/>
<path d="M122.018 143.314C121.741 142.574 121.446 141.824 121.143 141.062C120.927 140.53 120.706 139.991 120.478 139.444C120.168 138.697 119.835 137.946 119.507 137.196C116.229 129.878 112.088 122.787 108.998 121.671V121.675V121.671L108.086 121.369L108.015 121.346L103.328 119.796L102.663 119.577L102.603 119.559L102.185 119.419L101.71 119.257H94.5013L93.3016 119.649L93.126 119.709L93.0774 119.721L93.0662 119.728L88.5816 121.207L88.0883 121.365L87.1578 121.675C84.1979 122.859 81.5072 130.173 79.3695 136.871C79.1229 137.652 78.8837 138.429 78.6482 139.183C78.5399 139.534 78.439 139.881 78.3306 140.221C78.0839 141.02 77.8522 141.79 77.628 142.518C76.5779 145.928 75.7632 148.398 75.2437 148.507C73.846 148.805 59.2561 140.881 51.737 141.379C50.9073 141.432 48.609 146.071 48.9341 146.81C52.1817 154.199 74.3543 161.007 78.6408 159.797C79.8479 159.457 80.898 158.722 81.8136 157.756C79.4555 178.426 80.8831 181.802 80.8831 181.802C87.0232 186.086 97.9694 185.147 105.836 183.687C105.821 183.955 105.81 184.212 105.806 184.461C105.795 185.132 111.621 187.192 112.496 186.441C119.548 180.44 124.821 158.197 124.821 153.547C124.821 151.751 123.718 147.829 122.018 143.314ZM113.396 151.155C113.804 152.042 114.11 152.743 114.219 153.09C114.271 153.271 114.129 153.875 113.852 154.799C113.703 153.588 113.553 152.37 113.396 151.155Z" fill="#1FC9AA" stroke="black" stroke-width="0.5" stroke-miterlimit="10"/>
<path d="M108.927 139.531C108.262 137.264 107.297 135.095 106.057 133.092C105.851 132.764 105.332 133.066 105.537 133.398C105.982 134.118 106.378 134.861 106.748 135.619C106.277 135.378 105.773 135.212 105.235 135.144C105.074 135.125 104.936 135.299 104.936 135.446C104.936 135.627 105.074 135.729 105.235 135.748C105.948 135.838 106.67 136.162 107.23 136.641C107.664 137.633 108.041 138.648 108.344 139.693C108.46 140.063 109.039 139.904 108.927 139.531Z" fill="black"/>
<path d="M103.531 104.55C105.321 101.254 106.577 97.6592 107.231 93.9591C107.365 93.2009 107.474 92.4315 107.399 91.6658C107.324 90.9001 107.055 90.1306 106.517 89.5875C105.979 89.0406 105.153 88.7577 104.424 88.9916C104.29 87.9166 103.628 86.9548 102.765 86.3173C101.898 85.6799 100.87 85.3065 99.8424 84.9972C96.3967 83.9486 92.7829 83.4696 89.184 83.5903C88.1115 83.6242 87.0127 83.7223 86.0448 84.1862C84.2136 85.0613 83.1485 87.3131 83.6231 89.3008C81.9227 90.0288 80.7268 91.8657 80.6782 93.729C80.6297 95.5923 81.4817 97.4028 82.7299 98.7757C83.9782 100.149 85.6001 101.129 87.2743 101.914C92.1887 104.203 98.2055 105.505 103.531 104.55Z" fill="black"/>
<path d="M99.8639 93.2655C95.8016 87.4191 84.194 90.8968 83.8278 95.9548C83.0766 106.358 84.9826 110.375 88.0583 112.46C91.616 114.874 93.6939 114.278 94.3516 120.129C95.9287 123.105 100.686 122.991 101.807 119.276C100.847 111.536 102.824 105.362 102.824 105.362C102.824 105.362 101.538 95.6757 99.8639 93.2655Z" fill="white" stroke="black" stroke-width="0.5" stroke-miterlimit="10"/>
<path d="M83.1187 95.2948C83.7502 95.7889 84.5724 95.9511 85.3684 96.0416C89.0944 96.4791 92.9436 95.7587 96.266 94.001C96.0679 94.3933 96.1576 94.9138 96.4715 95.2193C96.7854 95.5248 97.3011 95.5965 97.6861 95.3815C97.5179 96.7545 97.843 98.3726 98.5606 99.5532C99.2744 100.734 100.396 101.658 101.681 102.129C102.085 102.276 102.541 102.382 102.929 102.201C103.561 101.911 103.684 101.069 103.714 100.372C103.834 97.8181 103.897 95.1099 102.642 92.8845C101.408 90.6969 99.024 89.3315 96.5649 88.9241C94.1059 88.5167 91.5721 88.9731 89.2065 89.7652C87.8237 90.2254 86.4634 90.8138 85.3124 91.7153C84.1613 92.6205 83.4251 93.8577 83.1187 95.2948Z" fill="black"/>
<path d="M88.0061 101.307C86.9784 100.745 85.7414 100.926 84.9304 101.812C84.7772 101.978 84.7809 102.276 84.9304 102.453C85.0836 102.634 85.334 102.638 85.4872 102.472C85.8199 102.106 86.2721 101.91 86.7355 101.891C86.9709 101.884 87.2063 101.918 87.4306 102.001C87.6286 102.072 87.8304 102.219 88.0322 102.072C88.0808 102.038 88.1182 101.989 88.1481 101.933C88.2453 101.74 88.2004 101.412 88.0061 101.307Z" fill="black"/>
<path d="M90.9659 100.967C91.9862 100.171 93.41 100.051 94.5274 100.714C94.7367 100.839 94.804 101.129 94.6769 101.341C94.5499 101.552 94.2696 101.62 94.0566 101.491C93.5969 101.216 93.0438 101.141 92.5206 101.235C92.2553 101.284 92.0011 101.374 91.7657 101.506C91.5601 101.623 91.3658 101.808 91.1079 101.714C91.0481 101.691 90.9921 101.654 90.9472 101.605C90.7978 101.45 90.7716 101.118 90.9659 100.967Z" fill="black"/>
<path d="M90.2008 108.507C89.7859 108.556 89.345 108.511 88.904 108.337C88.6984 108.258 88.5975 108.024 88.676 107.817C88.7545 107.609 88.9862 107.508 89.1917 107.587C90.2568 108.006 91.3144 107.33 91.5835 106.851C91.6919 106.659 91.9348 106.591 92.1291 106.7C92.3197 106.81 92.387 107.055 92.2786 107.251C91.9647 107.813 91.1575 108.398 90.2008 108.507Z" fill="black"/>
<path d="M89.0076 106.334C88.9627 106.338 88.9216 106.315 88.9029 106.274C88.6413 105.64 88.8357 105.395 89.0449 105.297C89.2579 105.199 89.527 105.229 89.8522 105.38C89.9007 105.403 89.9232 105.463 89.9007 105.516C89.8746 105.565 89.8148 105.587 89.7662 105.565C89.5009 105.436 89.2841 105.41 89.1272 105.482C88.9403 105.568 88.9253 105.806 89.086 106.195C89.1085 106.247 89.0823 106.304 89.0337 106.327C89.0262 106.33 89.0188 106.334 89.0076 106.334Z" fill="black"/>
<path d="M86.2128 105.014C86.2091 105.014 86.2016 105.014 86.1979 105.014C86.0858 105.018 85.9923 104.931 85.9886 104.818C85.9737 104.365 86.1605 103.483 86.9565 103.392C87.76 103.302 88.1001 104.098 88.1674 104.531C88.186 104.641 88.1113 104.746 87.9992 104.765C87.8871 104.784 87.7862 104.709 87.7675 104.596C87.76 104.562 87.6217 103.728 87.0014 103.8C86.3698 103.871 86.3885 104.799 86.3885 104.811C86.3922 104.912 86.3137 105.003 86.2128 105.014Z" fill="black"/>
<path d="M92.0615 104.346C92.0577 104.346 92.0503 104.346 92.0465 104.346C91.9344 104.35 91.841 104.263 91.8372 104.15C91.8223 103.698 92.0091 102.815 92.8052 102.724C93.6087 102.634 93.9487 103.43 94.016 103.863C94.0347 103.973 93.9599 104.078 93.8478 104.097C93.7357 104.116 93.6348 104.041 93.6161 103.928C93.6087 103.894 93.4704 103.06 92.85 103.132C92.2184 103.203 92.2371 104.131 92.2371 104.139C92.2408 104.244 92.1624 104.335 92.0615 104.346Z" fill="black"/>
<path d="M105.447 105.294C104.569 106.633 103.003 107.146 101.953 106.44C100.903 105.735 100.761 104.083 101.639 102.744C102.517 101.405 104.083 100.892 105.133 101.597C106.183 102.303 106.325 103.958 105.447 105.294Z" fill="white" stroke="black" stroke-width="0.3" stroke-miterlimit="10"/>
<path d="M49.3671 136.513L49.909 136.574L49.7632 137.558L49.3671 138.229L49.2213 138.188L48.814 137.958V137.087L49.1204 136.615L49.3671 136.513Z" fill="white"/>
</g>
<rect x="128.487" y="157.735" width="80.4342" height="2.0892" fill="#E0766F"/>
<defs>
<filter id="filter0_d_2911_13075" x="92.1748" y="47.7158" width="153.307" height="253.283" filterUnits="userSpaceOnUse" color-interpolation-filters="sRGB">
<feFlood flood-opacity="0" result="BackgroundImageFix"/>
<feColorMatrix in="SourceAlpha" type="matrix" values="0 0 0 0 0 0 0 0 0 0 0 0 0 0 0 0 0 0 127 0" result="hardAlpha"/>
<feOffset/>
<feGaussianBlur stdDeviation="10"/>
<feComposite in2="hardAlpha" operator="out"/>
<feColorMatrix type="matrix" values="0 0 0 0 0 0 0 0 0 0 0 0 0 0 0 0 0 0 0.15 0"/>
<feBlend mode="normal" in2="BackgroundImageFix" result="effect1_dropShadow_2911_13075"/>
<feBlend mode="normal" in="SourceGraphic" in2="effect1_dropShadow_2911_13075" result="shape"/>
</filter>
<clipPath id="clip0_2911_13075">
<rect width="90.8802" height="196.385" fill="white" transform="translate(37.6069 83.5679)"/>
</clipPath>
</defs>
</svg>
