<svg width="333" height="281" viewBox="0 0 333 281" fill="none" xmlns="http://www.w3.org/2000/svg">
<path d="M0 279.044L332.582 279" stroke="#1A1A1A" stroke-width="1.133" stroke-miterlimit="10"/>
<path d="M58.6283 121.474C57.1792 124.11 56.3175 126.909 56 129.721L58.4379 129.997C58.1362 132.647 58.3789 135.312 59.1046 137.828L56.7552 138.509C57.5648 141.281 58.9027 143.901 60.7374 146.198L61.166 145.861L62.6559 144.675C64.257 146.684 66.2821 148.42 68.6791 149.734L67.4976 151.882C70.1395 153.33 72.9448 154.189 75.7682 154.497L76.0448 152.065C78.6981 152.375 81.3673 152.133 83.889 151.406L84.5716 153.75C87.3497 152.943 89.9803 151.599 92.2821 149.768L92.273 149.764L91.8376 149.207L90.7581 147.854C92.7719 146.257 94.5067 144.243 95.8243 141.851L97.9764 143.03C99.4278 140.394 100.294 137.586 100.603 134.769L98.1646 134.493C98.4753 131.846 98.2281 129.192 97.5002 126.676L99.8496 125.995C99.04 123.223 97.693 120.598 95.8583 118.302L93.9375 119.822C92.3365 117.813 90.3182 116.082 87.9211 114.767L89.1026 112.62C86.4607 111.172 83.6464 110.308 80.823 110L80.5463 112.432C77.8953 112.122 75.233 112.369 72.7112 113.095L72.0286 110.751C69.2415 111.554 66.62 112.903 64.3182 114.733L64.3295 114.752L65.3341 116.012L65.8421 116.65C63.8283 118.247 62.089 120.268 60.7759 122.653L58.6283 121.474ZM68.797 127.044C71.6816 121.806 78.274 119.892 83.5239 122.768C88.7829 125.651 90.7014 132.228 87.8168 137.466C84.9277 142.713 78.3353 144.627 73.0763 141.745C67.8264 138.869 65.9079 132.292 68.797 127.044Z" fill="#1FC9AA"/>
<path d="M212.96 278.71H107.21C96.6 278.71 88 270.11 88 259.5V22.2C88 11.6 96.6 3 107.21 3H212.96C223.57 3 232.16 11.6 232.16 22.2V259.5C232.16 270.11 223.56 278.71 212.96 278.71Z" fill="url(#paint0_linear_2911_13911)"/>
<path d="M217.27 271.64H103.5C97.15 271.64 92 266.49 92 260.14V21.5699C92 15.2199 97.15 10.0699 103.5 10.0699H217.27C223.62 10.0699 228.77 15.2199 228.77 21.5699V260.14C228.77 266.49 223.62 271.64 217.27 271.64Z" fill="white"/>
<g clip-path="url(#clip0_2911_13911)">
<path d="M209.9 86H144.475C142.381 86 140.688 84.3058 140.688 82.2173V41.7901C140.688 39.6942 142.381 38 144.475 38H209.907C211.994 38 213.695 39.6942 213.695 41.7901V82.2173C213.688 84.3058 211.987 86 209.9 86Z" fill="white"/>
<path d="M203.762 54.3578H151.906C150.789 54.3578 149.892 53.4523 149.892 52.3423V45.4633C149.892 44.346 150.797 43.4478 151.906 43.4478H203.762C204.879 43.4478 205.777 44.3533 205.777 45.4633V52.3423C205.777 53.4523 204.872 54.3578 203.762 54.3578Z" fill="#9BBDF9"/>
<path d="M150.613 61.507H176.085" stroke="black" stroke-width="1.3" stroke-miterlimit="10" stroke-linecap="round" stroke-linejoin="round"/>
<path d="M150.613 67.7141H205.046" stroke="black" stroke-width="1.3" stroke-miterlimit="10" stroke-linecap="round" stroke-linejoin="round"/>
<path d="M150.613 74.5566H205.046" stroke="black" stroke-width="1.3" stroke-miterlimit="10" stroke-linecap="round" stroke-linejoin="round"/>
</g>
<g clip-path="url(#clip1_2911_13911)">
<path d="M209.9 147H144.475C142.381 147 140.688 145.306 140.688 143.217V102.79C140.688 100.694 142.381 99 144.475 99H209.907C211.994 99 213.695 100.694 213.695 102.79V143.217C213.688 145.306 211.987 147 209.9 147Z" fill="white"/>
<path d="M203.762 115.358H151.906C150.789 115.358 149.892 114.452 149.892 113.342V106.463C149.892 105.346 150.797 104.448 151.906 104.448H203.762C204.879 104.448 205.777 105.353 205.777 106.463V113.342C205.777 114.452 204.872 115.358 203.762 115.358Z" fill="#9BBDF9"/>
<path d="M150.613 122.507H176.085" stroke="black" stroke-width="1.3" stroke-miterlimit="10" stroke-linecap="round" stroke-linejoin="round"/>
<path d="M150.613 128.714H205.046" stroke="black" stroke-width="1.3" stroke-miterlimit="10" stroke-linecap="round" stroke-linejoin="round"/>
<path d="M150.613 135.557H205.046" stroke="black" stroke-width="1.3" stroke-miterlimit="10" stroke-linecap="round" stroke-linejoin="round"/>
</g>
<g clip-path="url(#clip2_2911_13911)">
<path d="M209.9 208H144.475C142.381 208 140.688 206.306 140.688 204.217V163.79C140.688 161.694 142.381 160 144.475 160H209.907C211.994 160 213.695 161.694 213.695 163.79V204.217C213.688 206.306 211.987 208 209.9 208Z" fill="white"/>
<path d="M203.762 176.358H151.906C150.789 176.358 149.892 175.452 149.892 174.342V167.463C149.892 166.346 150.797 165.448 151.906 165.448H203.762C204.879 165.448 205.777 166.353 205.777 167.463V174.342C205.777 175.452 204.872 176.358 203.762 176.358Z" fill="#9BBDF9"/>
<path d="M150.613 183.507H176.085" stroke="black" stroke-width="1.3" stroke-miterlimit="10" stroke-linecap="round" stroke-linejoin="round"/>
<path d="M150.613 189.714H205.046" stroke="black" stroke-width="1.3" stroke-miterlimit="10" stroke-linecap="round" stroke-linejoin="round"/>
<path d="M150.613 196.557H205.046" stroke="black" stroke-width="1.3" stroke-miterlimit="10" stroke-linecap="round" stroke-linejoin="round"/>
</g>
<path d="M138.255 59.6191C139.977 52.4018 135.522 45.1549 128.305 43.4327C121.087 41.7106 113.84 46.1653 112.118 53.3827C110.396 60.6 114.851 67.8469 122.068 69.5691C129.285 71.2912 136.532 66.8365 138.255 59.6191Z" fill="#E9EAEB"/>
<path d="M138.255 120.619C139.977 113.402 135.522 106.155 128.305 104.433C121.087 102.711 113.84 107.165 112.118 114.383C110.396 121.6 114.851 128.847 122.068 130.569C129.285 132.291 136.532 127.836 138.255 120.619Z" fill="#1FC9AA"/>
<path d="M119.774 118.14L123.992 121.265L131.216 113.769" stroke="white" stroke-width="2.1361" stroke-miterlimit="10" stroke-linecap="round" stroke-linejoin="round"/>
<path d="M138.255 181.619C139.977 174.402 135.522 167.155 128.305 165.433C121.087 163.711 113.84 168.165 112.118 175.383C110.396 182.6 114.851 189.847 122.068 191.569C129.285 193.291 136.532 188.836 138.255 181.619Z" fill="#E9EAEB"/>
<path d="M119.774 179.14L123.992 182.265L131.216 174.769" stroke="#E9EAEB" stroke-width="2.1361" stroke-miterlimit="10" stroke-linecap="round" stroke-linejoin="round"/>
<path d="M161.87 15.8901C161.87 14.3901 160.65 13.1801 159.16 13.1801C157.66 13.1801 156.45 14.4001 156.45 15.8901C156.45 17.3901 157.67 18.6001 159.16 18.6001C160.66 18.6101 161.87 17.3901 161.87 15.8901Z" fill="#231854"/>
<path opacity="0.1" d="M116.03 260.22V21.48C116.03 11.27 124.31 3 134.51 3H106.48C96.27 3 88 11.27 88 21.48V260.22C88 270.43 96.27 278.7 106.48 278.7H134.51C124.31 278.71 116.03 270.43 116.03 260.22Z" fill="#BDCBD7"/>
<g clip-path="url(#clip3_2911_13911)">
<path d="M277.849 6.1507C273.883 2.18449 268.609 0 263 0C257.391 0 252.117 2.18449 248.151 6.1507C244.184 10.1169 242 15.3907 242 21C242 26.6093 244.184 31.8831 248.151 35.8493C252.117 39.8155 257.391 42 263 42C268.609 42 273.883 39.8155 277.849 35.8493C281.816 31.8831 284 26.6093 284 21C284 15.3907 281.816 10.1169 277.849 6.1507Z" fill="#EBF7FF"/>
<path d="M277.849 6.1507C273.883 2.18449 268.609 0 263 0V42C268.609 42 273.883 39.8155 277.849 35.8493C281.816 31.8831 284 26.6093 284 21C284 15.3907 281.816 10.1169 277.849 6.1507Z" fill="#C4E5FF"/>
<path d="M254.418 13.7583L255.885 12.4679C256.25 12.1472 256.46 11.6845 256.46 11.1989V9.87246C256.46 8.93894 257.216 8.1818 258.149 8.1818H260.873C261.269 8.1818 261.653 8.32125 261.957 8.57555L263.44 9.81504C263.992 10.2769 264.777 10.3384 265.394 9.9668L266.346 9.39422C266.855 9.08906 267.166 8.53863 267.166 7.94555V0.410977C265.809 0.139453 264.415 0 262.999 0C257.39 0 252.116 2.18449 248.15 6.1507C245.85 8.45004 244.151 11.1899 243.128 14.1791H253.301C253.712 14.1791 254.109 14.029 254.418 13.7583Z" fill="#1FC9AA"/>
<path d="M263 0V9.44754L263.441 9.81504C263.993 10.2769 264.778 10.3384 265.394 9.9668L266.347 9.39422C266.855 9.08906 267.166 8.53863 267.166 7.94555V0.410977C265.81 0.139453 264.416 0 263 0Z" fill="#1FC9AA"/>
<path d="M273.101 10.048V11.527C273.101 12.3309 272.535 13.0233 271.747 13.1832L268.19 13.9051C267.403 14.0651 266.837 14.7574 266.837 15.5613V17.9246C266.837 18.8582 266.081 19.6145 265.147 19.6145H262.572C261.534 19.6145 260.741 20.5414 260.903 21.5668L261.303 24.1131C261.432 24.935 262.141 25.5404 262.972 25.5404H265.317C266.008 25.5404 266.629 25.1204 266.885 24.4781C267.142 23.8366 267.764 23.4166 268.455 23.4166H272.371C272.836 23.4166 273.28 23.6086 273.6 23.9466L281.041 31.7617C282.972 28.5428 284.001 24.8505 284.001 21C284.001 16.3767 282.516 11.9815 279.772 8.35815H274.791C273.858 8.35815 273.101 9.11448 273.101 10.048Z" fill="#1FC9AA"/>
<path d="M279.771 8.35815H274.79C273.856 8.35815 273.1 9.11448 273.1 10.048V11.5262C273.1 12.3301 272.534 13.0225 271.746 13.1824L268.19 13.9051C267.403 14.0651 266.837 14.7574 266.837 15.5613V17.9246C266.837 18.8582 266.08 19.6145 265.147 19.6145H263V25.5412H265.317C266.007 25.5412 266.629 25.1212 266.885 24.4789C267.142 23.8375 267.764 23.4175 268.454 23.4175H272.37C272.836 23.4175 273.28 23.6094 273.599 23.9474L281.04 31.7625C282.971 28.5428 284 24.8505 284 21C284 16.3767 282.514 11.9815 279.771 8.35815Z" fill="#1FC9AA"/>
<path d="M253.624 30.4951L253.796 28.9956C253.866 28.3869 253.601 27.7889 253.105 27.4312L251.046 25.9506C250.611 25.638 250.35 25.1377 250.343 24.602L250.3 21.5176C250.287 20.5939 249.535 19.8516 248.61 19.8516H242.032C242.011 20.2322 242 20.6153 242 21C242 26.0982 243.805 30.9184 247.111 34.7328L252.624 31.8503C253.174 31.6083 253.555 31.0923 253.624 30.4951Z" fill="#1FC9AA"/>
<path d="M267.794 30.8706H263.757C263.275 30.8706 262.817 31.0765 262.495 31.4358L260.862 33.2667C260.335 33.8574 260.289 34.7351 260.751 35.3774L265.542 41.8472C270.189 41.2894 274.488 39.2091 277.849 35.8483C277.934 35.763 278.018 35.6752 278.102 35.589L268.506 31.0281C268.283 30.9247 268.04 30.8706 267.794 30.8706Z" fill="#1FC9AA"/>
<path d="M267.794 30.8706H263.757C263.491 30.8706 263.233 30.9338 263 31.0494V38.4134L265.543 41.8472C270.19 41.2894 274.489 39.2091 277.85 35.8483C277.935 35.763 278.019 35.6752 278.104 35.589L268.508 31.0281C268.284 30.9247 268.04 30.8706 267.794 30.8706Z" fill="#1FC9AA"/>
</g>
<path d="M74.8959 234.999L27.3604 235.148L27.4903 277.925L75.0259 277.777L74.8959 234.999Z" fill="#7B9EDB"/>
<path d="M13.0967 235.222L51.1537 235.073L51.2563 277.853L13.201 278L13.0967 235.222Z" fill="#9BBDF9"/>
<path opacity="0.4" d="M51.1543 235.073L13 235.224L13.0336 248.824L51.2568 277.853L51.1543 235.073Z" fill="#DBE7FB"/>
<path d="M103.918 250.342L73.374 250.438L73.4576 277.924L104.002 277.828L103.918 250.342Z" fill="#7B9EDB"/>
<path d="M64.21 250.485L88.6627 250.39L88.7299 277.876L64.2771 277.971L64.21 250.485Z" fill="#9BBDF9"/>
<path d="M88.6619 250.39L64.1455 250.485L64.1667 259.224L88.7291 277.876L88.6619 250.39Z" fill="#B5CEFA"/>
<path d="M66.7728 208L36.2285 208.096L36.3121 235.582L66.8564 235.486L66.7728 208Z" fill="#7B9EDB"/>
<path d="M27.0645 208.143L51.5172 208.048L51.5844 235.534L27.1316 235.629L27.0645 208.143Z" fill="#9BBDF9"/>
<path d="M51.5164 208.048L27 208.143L27.0212 216.882L51.5836 235.534L51.5164 208.048Z" fill="#B5CEFA"/>
<path d="M297.117 167.358C297.117 167.358 296.476 173.59 295.77 174.77C295.066 175.95 292.069 179.717 290.791 180.456C289.514 181.195 291.57 175.491 291.31 174.381C291.049 173.271 290.258 176.407 289.695 176.481C289.132 176.555 289.276 173.733 289.257 172.705C289.237 171.679 291.996 169.142 292.968 166.957C293.944 164.77 297.117 167.358 297.117 167.358Z" fill="white" stroke="black" stroke-width="0.5" stroke-miterlimit="10"/>
<path d="M220.459 109.865L219.025 107.163C219.025 107.163 219.736 102.346 213.695 99.3004C213.695 99.3004 211.487 98.4016 210.241 100.201C209.092 101.858 212.429 101.558 212.25 104.393C212.071 107.228 213.418 108.891 215.293 109.814L216.843 111.608L220.459 109.865Z" fill="white" stroke="black" stroke-width="0.5" stroke-miterlimit="10"/>
<path d="M277.552 103.402C277.552 103.402 272.363 128.84 243.813 137.152C234.902 139.747 214.654 110.435 214.654 110.435C214.654 110.435 215.366 107.733 219.826 108.354C219.826 108.354 239.539 121.391 242.021 122.809C244.224 124.065 258.707 106.654 265.309 103.845C271.911 101.035 277.552 103.402 277.552 103.402Z" fill="#2F7BFF" stroke="black" stroke-width="0.5" stroke-miterlimit="10"/>
<path d="M311.636 263.318C311.636 263.318 315.178 266.547 314.487 268.842C313.797 271.136 310.6 272.665 310.168 275.47C309.736 278.275 308.009 279.804 306.453 279.804C304.899 279.804 299.041 279.804 299.041 279.804C299.041 279.804 297.896 277.832 300.661 277.237C303.425 276.642 304.467 273.348 304.294 270.288C304.121 267.229 304.553 263.151 304.553 263.151L310.426 261.791L311.636 263.318Z" fill="#06070A" stroke="black" stroke-width="0.5" stroke-miterlimit="10"/>
<path d="M268.184 271.669C268.184 271.669 268.819 279.017 267.265 279.783L247.365 279.743C247.365 279.743 247.365 277.447 250.561 276.938C253.756 276.429 259.371 274.559 260.322 270.396C261.273 266.23 268.184 271.669 268.184 271.669Z" fill="#06070A" stroke="black" stroke-width="0.5" stroke-miterlimit="10"/>
<path d="M251.385 167.863C251.385 167.863 252.435 180.745 253.667 196.229C255.345 217.263 257.361 243.1 257.559 247.995C257.903 256.494 259.288 270.088 259.288 270.088C259.288 270.088 262.569 273.318 269.137 271.958C269.137 271.958 274.988 252.549 276.66 232.016C276.686 231.679 276.711 231.339 276.738 231.001C278.292 210.097 280.711 166.079 280.711 166.079L251.385 167.863Z" fill="#171923" stroke="black" stroke-width="0.5" stroke-miterlimit="10"/>
<path d="M251.385 167.863C251.385 167.863 252.435 180.745 253.667 196.229L276.66 232.016C276.686 231.679 276.711 231.339 276.738 231.001C278.292 210.097 280.711 166.079 280.711 166.079L251.385 167.863Z" fill="#0B0C11"/>
<path d="M256.178 169.393C256.178 169.393 275.096 216.045 287.535 237.967C299.975 259.892 303.863 266.008 303.863 266.008C303.863 266.008 310.99 263.204 311.637 261.292C311.637 261.292 306.88 218.967 298.548 208.649C293.841 202.819 288.311 185.324 288.053 179.205C287.794 173.087 286.369 160.979 286.369 160.979L256.178 169.393Z" fill="#282B3B"/>
<path d="M281.07 97.4978C281.07 97.4978 268.269 103.668 260.891 101.378C260.891 101.378 262.707 99.0883 265.885 97.3857C265.631 95.9055 265.431 94.6209 265.317 93.5321C265.005 91.0201 265.005 89.5949 265.005 89.5949L269.943 85.7147L274.626 82.0017C274.257 92.4452 281.07 97.4978 281.07 97.4978Z" fill="#F8C1C0"/>
<path d="M287.813 163.37C287.841 164.151 286.166 165.044 285.428 165.38C279.95 167.782 274.841 169.456 269.051 170.015C262.211 170.712 254.121 169.177 251.34 169.232C251.057 169.232 250.8 169.121 250.574 168.926C250.376 168.785 250.233 160.55 250.376 150.192C250.376 149.772 250.376 149.354 250.405 148.936V148.797C250.462 144.748 250.602 140.504 250.802 136.261C251.2 126.935 251.938 117.945 253.186 112.976C254.69 107.114 258.31 103.62 261.404 100.8L264.248 98.3846C266.803 98.8882 268.994 98.5423 271.691 97.2312C274.643 95.8079 277.821 94.2707 278.333 94.6621C282.192 97.482 284.804 103.819 286.194 111.916C286.989 116.579 287.387 121.799 287.358 127.271C287.358 129.282 287.301 131.347 287.187 133.386C286.506 144.442 287.187 154.045 287.585 159.601C287.701 161.22 287.784 162.476 287.813 163.37Z" fill="#2F7BFF" stroke="black" stroke-width="0.5" stroke-miterlimit="10"/>
<path d="M251.292 121.521L253.578 120.249L251.292 133.982L249.578 134.249L251.292 121.521Z" fill="#2F7BFF"/>
<path d="M287.587 162.862C242.765 162.773 279.321 114.272 279.321 114.272L286.583 111.916C287.157 116.896 287.445 122.475 287.424 128.322C287.424 130.47 287.382 132.678 287.3 134.855C286.807 146.665 287.3 156.926 287.587 162.862Z" fill="#2F7BFF"/>
<path d="M274.71 85.9964C274.71 85.9964 271.475 91.887 265.316 93.5345C265.004 91.0224 265.004 89.5972 265.004 89.5972L269.942 85.717L274.71 85.9964Z" fill="#EDAEAE"/>
<path d="M262.753 89.4265C262.753 89.4265 274.964 91.4217 276.111 83.9235C277.258 76.4234 279.605 71.6311 271.858 70.0407C264.111 68.4502 262.154 71.0858 261.153 73.4971C260.151 75.9085 259.607 88.7158 262.753 89.4265Z" fill="#F8C1C0"/>
<path d="M280.549 69.142C280.659 69.0147 280.916 68.9121 281.484 68.8817C281.484 68.8817 281.03 68.5985 280.421 68.5833C280.301 67.7929 279.881 66.3943 278.519 66.0542C278.519 66.0542 279.251 66.4437 279.346 67.2836C277.77 65.6646 274.39 64.4865 265.031 65.2257C252.698 66.1986 256.763 74.0863 258.359 75.0269C259.957 75.9675 263.976 73.389 266.949 73.6246C269.924 73.8602 270.49 78.1546 271.498 78.7437C272.508 79.3328 272.111 78.2915 273.477 77.6739C274.842 77.0563 274.972 79.3176 274.578 80.7883C274.184 82.2572 276.06 84.1973 276.06 84.1973C276.06 84.1973 276.06 84.1973 277.956 82.1565C279.852 80.1157 281.638 71.4774 280.777 69.6342C280.703 69.4726 280.627 69.3073 280.549 69.142Z" fill="#1F3765"/>
<path d="M278.331 94.5997C278.331 94.5997 286.057 98.2538 289.76 103.875C295.507 112.591 302.168 144.355 302.289 147.296C302.413 150.238 297.428 171.005 297.428 171.005C297.428 171.005 292.372 170.672 291.069 168.124C291.069 168.124 292.079 146.787 291.44 145.415C290.801 144.043 270.365 116.794 272.663 110.978C274.96 105.161 278.331 94.5997 278.331 94.5997Z" fill="#2F7BFF" stroke="black" stroke-width="0.5" stroke-miterlimit="10"/>
<path d="M275.078 100.249L277.578 99.249L287.578 137.749L287.078 140.749L286.578 140.249L283.578 136.249L271.078 118.249V110.749L275.078 100.249Z" fill="#2F7BFF"/>
<path d="M281.07 97.4978C281.07 97.4978 268.269 103.668 260.891 101.378C260.891 101.378 262.707 99.0883 265.885 97.3857C265.631 95.9055 265.431 94.6209 265.317 93.5321C265.005 91.0201 265.005 89.5949 265.005 89.5949L269.943 85.7147L274.626 82.0017C274.257 92.4452 281.07 97.4978 281.07 97.4978Z" fill="white" stroke="black" stroke-width="0.5" stroke-miterlimit="10"/>
<path d="M262.753 89.4265C262.753 89.4265 274.964 91.4217 276.111 83.9235C277.258 76.4234 279.605 71.6311 271.858 70.0407C264.111 68.4502 262.154 71.0858 261.153 73.4971C260.151 75.9085 259.607 88.7158 262.753 89.4265Z" fill="white" stroke="black" stroke-width="0.5" stroke-miterlimit="10"/>
<path d="M261 81L260 81.5V83H260.5H261V81Z" fill="white"/>
<path d="M260.5 78C260.465 78.2711 260.395 78.6976 260.304 78.9483C260.221 79.2006 260.367 79.2509 260.275 79.5C260.085 79.9952 260.121 80.5228 259.923 81.0117L260.053 80.8848C259.775 80.9898 259.528 81.1229 259.295 81.3423C259.185 81.4551 259.079 81.5977 259.028 81.7826C258.978 81.9707 258.998 82.1634 259.074 82.3295C259.238 82.6586 259.524 82.7949 259.78 82.8858C260.044 82.9704 260.311 83.008 260.578 82.9986C260.327 82.9061 260.082 82.8106 259.861 82.6758C259.642 82.552 259.444 82.3749 259.381 82.1853C259.33 81.9848 259.385 81.8187 259.565 81.6682C259.728 81.5162 259.964 81.3987 260.18 81.3188L260.275 81.2828L260.31 81.1919C260.507 80.6826 260.453 80.1425 260.583 79.6097C260.65 79.3449 260.462 79.2727 260.5 79C260.529 78.7258 260.56 78.2711 260.5 78Z" fill="black"/>
<path d="M260.578 83.249C260.8 86.2548 262.089 87.2758 264.578 85.0416C263.393 84.7757 260.934 84.5257 260.578 83.249Z" stroke="black" stroke-width="0.5"/>
<path d="M266.266 78.1755C267.187 78.6565 265.899 76.6303 264.604 76.3462C263.31 76.0622 261.951 76.422 261.578 77.1491C261.578 77.1491 264.056 77.0242 266.266 78.1755Z" fill="black"/>
<path d="M263.553 79.5808C263.432 80.408 262.895 81.045 262.357 80.9975C261.82 80.9547 261.481 80.2464 261.603 79.4192C261.724 78.592 262.262 77.955 262.799 78.0025C263.336 78.05 263.675 78.7536 263.553 79.5808Z" fill="black"/>
<path d="M280.549 69.142C280.659 69.0147 280.916 68.9121 281.484 68.8817C281.484 68.8817 281.03 68.5985 280.421 68.5833C280.301 67.7929 279.881 66.3943 278.519 66.0542C278.519 66.0542 279.251 66.4437 279.346 67.2836C277.77 65.6646 274.39 64.4865 265.031 65.2257C252.698 66.1986 256.763 74.0863 258.359 75.0269C259.957 75.9675 263.976 73.389 266.949 73.6246C269.924 73.8602 270.49 78.1546 271.498 78.7437C272.508 79.3328 272.111 78.2915 273.477 77.6739C274.842 77.0563 274.972 79.3176 274.578 80.7883C274.184 82.2572 276.06 84.1973 276.06 84.1973C276.06 84.1973 276.06 84.1973 277.956 82.1565C279.852 80.1157 281.638 71.4774 280.777 69.6342C280.703 69.4726 280.627 69.3073 280.549 69.142Z" fill="black"/>
<defs>
<linearGradient id="paint0_linear_2911_13911" x1="183.631" y1="11.2755" x2="135.557" y2="275.797" gradientUnits="userSpaceOnUse">
<stop offset="0.1781" stop-color="#20215B"/>
<stop offset="0.6516" stop-color="#1B0C36"/>
</linearGradient>
<clipPath id="clip0_2911_13911">
<rect width="73" height="48" fill="white" transform="translate(140.688 38)"/>
</clipPath>
<clipPath id="clip1_2911_13911">
<rect width="73" height="48" fill="white" transform="translate(140.688 99)"/>
</clipPath>
<clipPath id="clip2_2911_13911">
<rect width="73" height="48" fill="white" transform="translate(140.688 160)"/>
</clipPath>
<clipPath id="clip3_2911_13911">
<rect width="42" height="42" fill="white" transform="translate(242)"/>
</clipPath>
</defs>
</svg>
