<svg width="401" height="280" viewBox="0 0 401 280" fill="none" xmlns="http://www.w3.org/2000/svg">
<g opacity="0.3" clip-path="url(#clip0_2911_13191)">
<path d="M154.446 143.714V261.32H130.145V185.937C130.456 184.11 130.612 182.129 130.561 179.958C130.544 178.254 130.405 176.41 130.145 174.444V143.714H154.446Z" fill="#D1DFFB"/>
<path d="M148.977 143.714V261.32H124.675V197.926C125.522 196.892 126.285 195.808 126.959 194.686C128.189 192.636 129.141 190.415 129.762 187.9C129.901 187.262 130.04 186.608 130.143 185.937C130.454 184.109 130.61 182.129 130.559 179.958C130.542 178.254 130.403 176.409 130.143 174.444C130.091 174.032 130.021 173.601 129.953 173.152C129.59 170.724 129.035 168.087 128.291 165.212C128.084 164.402 127.858 163.576 127.617 162.732C127.201 161.268 126.872 159.821 126.613 158.408C126.112 155.67 125.904 153.033 125.939 150.466C125.956 148.142 126.18 145.885 126.613 143.714H148.977Z" fill="#DDE8FD"/>
<path d="M126.613 143.714C126.18 145.885 125.956 148.142 125.938 150.466H130.144H148.977V143.714V143.68H126.613V143.714Z" fill="#D1DFFB"/>
<path d="M148.977 158.409V165.212H128.291C128.084 164.403 127.858 163.576 127.617 162.733C127.201 161.269 126.872 159.822 126.613 158.409H148.977Z" fill="#D1DFFB"/>
<path d="M148.976 173.154V179.96H130.558C130.541 178.256 130.403 176.411 130.142 174.446C130.091 174.034 130.021 173.603 129.952 173.154H148.976Z" fill="#D1DFFB"/>
<path d="M148.977 187.9V194.686H126.96C128.19 192.636 129.142 190.415 129.763 187.9H148.977Z" fill="#D1DFFB"/>
<path d="M148.977 202.636H124.683V209.432H148.977V202.636Z" fill="#D1DFFB"/>
<path d="M148.977 217.376H124.683V224.172H148.977V217.376Z" fill="#D1DFFB"/>
<path d="M148.977 232.114H124.683V238.91H148.977V232.114Z" fill="#D1DFFB"/>
<path d="M148.977 246.854H124.683V253.65H148.977V246.854Z" fill="#D1DFFB"/>
<path d="M115.586 206.557V261.32H91.2842V230.605C91.5617 230.21 91.8372 229.812 92.1147 229.434C93.5173 227.454 95.0567 225.506 96.7368 223.593C98.7627 221.267 100.977 218.976 103.366 216.771C103.902 216.272 104.44 215.789 104.976 215.307C105.097 215.203 105.217 215.101 105.339 214.98C105.65 214.721 105.962 214.446 106.274 214.187C107.589 213.05 108.87 211.982 110.134 210.949C110.774 210.433 111.397 209.931 112.021 209.432C113.25 208.452 114.444 207.488 115.586 206.557Z" fill="#D1DFFB"/>
<path d="M110.136 210.951V261.322H85.832V240.321C85.8662 240.217 85.9195 240.098 85.9708 239.994C86.5409 238.736 87.1643 237.495 87.8409 236.238C88.8615 234.344 90.0227 232.466 91.2846 230.605C91.5621 230.21 91.8377 229.812 92.1151 229.434C93.5177 227.454 95.0571 225.506 96.7372 223.593C98.7632 221.267 100.977 218.976 103.366 216.771C103.902 216.272 104.44 215.789 104.976 215.307C105.098 215.203 105.217 215.101 105.339 214.98C105.651 214.721 105.962 214.446 106.274 214.187C107.591 213.05 108.872 211.984 110.136 210.951Z" fill="#DDE8FD"/>
<path d="M110.136 210.951V216.773H103.368C103.904 216.273 104.442 215.791 104.978 215.309C105.1 215.205 105.219 215.103 105.341 214.982C105.653 214.722 105.964 214.448 106.276 214.189C107.591 213.05 108.872 211.984 110.136 210.951Z" fill="#D1DFFB"/>
<path d="M110.137 223.593V229.434H92.1182C93.5207 227.453 95.0602 225.505 96.7402 223.593H110.137Z" fill="#D1DFFB"/>
<path d="M110.136 236.238V242.079H85.832V240.321C85.8662 240.217 85.9195 240.098 85.9708 239.994C86.5409 238.736 87.1643 237.496 87.8409 236.238H110.136Z" fill="#D1DFFB"/>
<path d="M110.13 248.901H85.8359V254.736H110.13V248.901Z" fill="#D1DFFB"/>
<path d="M167.592 257.709H157.417V272.478H167.592V257.709Z" fill="#DDE8FD"/>
<path d="M307.143 199.01V189.89H304.361V174.206H289.443V189.89H275.497V164.335H260.107V180.922H256.599V161.117H241.208V198.252H221.745V219.905H214.474V225.362H197.77V215.967H188.178V190.442H176.332V237.562H164.484V278.563H176.332H186.487H188.178H197.77H203.19H211.874H214.474H221.745H228.577H241.208H245.078H252.773H256.599H260.107H268.163H273.646H275.497H289.443H304.112H304.361H307.143H319.027V199.01H307.143Z" fill="#BED2FA"/>
<path d="M256.599 163.625H241.201V167.408H256.599V163.625Z" fill="#D1DFFB"/>
<path d="M256.599 170.733H241.201V174.516H256.599V170.733Z" fill="#D1DFFB"/>
<path d="M256.599 177.126H241.201V180.909H256.599V177.126Z" fill="#D1DFFB"/>
<path d="M275.494 177.126H260.096V180.909H275.494V177.126Z" fill="#D1DFFB"/>
<path d="M275.494 170.733H260.096V174.516H275.494V170.733Z" fill="#D1DFFB"/>
<path d="M275.494 164.348H260.096V168.131H275.494V164.348Z" fill="#D1DFFB"/>
<path d="M275.498 183.328H241.201V187.111H275.498V183.328Z" fill="#D1DFFB"/>
<path d="M275.498 189.529H241.201V193.311H275.498V189.529Z" fill="#D1DFFB"/>
<path d="M188.288 190.444H176.338V196.285H188.288V190.444Z" fill="#D1DFFB"/>
<path d="M188.288 199.129H176.338V204.97H188.288V199.129Z" fill="#D1DFFB"/>
<path d="M188.288 207.815H176.338V213.656H188.288V207.815Z" fill="#D1DFFB"/>
<path d="M188.288 216.921H176.338V222.761H188.288V216.921Z" fill="#D1DFFB"/>
<path d="M188.288 225.742H176.338V231.583H188.288V225.742Z" fill="#D1DFFB"/>
<path d="M188.288 234.566H176.338V240.407H188.288V234.566Z" fill="#D1DFFB"/>
<path d="M188.288 243.796H176.338V249.637H188.288V243.796Z" fill="#D1DFFB"/>
<path d="M275.498 195.589H241.201V197.991H275.498V195.589Z" fill="#D1DFFB"/>
<path d="M192.53 190.444H188.123V215.967H192.53V190.444Z" fill="#D1DFFB"/>
<path d="M206.635 215.968H197.771V225.362H206.635V215.968Z" fill="#D1DFFB"/>
<path d="M275.492 164.348H278.552V189.89H275.498L275.492 164.348Z" fill="#D1DFFB"/>
<path d="M258.477 161.117H256.6V180.911H258.477V161.117Z" fill="#D1DFFB"/>
<g opacity="0.8">
<g opacity="0.8">
<g opacity="0.8">
<g opacity="0.8">
<path opacity="0.8" d="M227.535 201.978H224.926V205.638H227.535V201.978Z" fill="#D1DFFB"/>
<path opacity="0.8" d="M232.414 201.978H229.805V205.638H232.414V201.978Z" fill="#D1DFFB"/>
<path opacity="0.8" d="M237.182 201.978H234.572V205.638H237.182V201.978Z" fill="#D1DFFB"/>
<path opacity="0.8" d="M241.706 201.978H239.097V205.638H241.706V201.978Z" fill="#D1DFFB"/>
<path opacity="0.8" d="M246.314 201.978H243.704V205.638H246.314V201.978Z" fill="#D1DFFB"/>
</g>
<g opacity="0.8">
<path opacity="0.8" d="M250.977 201.978H248.367V205.638H250.977V201.978Z" fill="#D1DFFB"/>
<path opacity="0.8" d="M255.855 201.978H253.246V205.638H255.855V201.978Z" fill="#D1DFFB"/>
<path opacity="0.8" d="M260.623 201.978H258.014V205.638H260.623V201.978Z" fill="#D1DFFB"/>
<path opacity="0.8" d="M265.145 201.978H262.535V205.638H265.145V201.978Z" fill="#D1DFFB"/>
<path opacity="0.8" d="M269.755 201.978H267.146V205.638H269.755V201.978Z" fill="#D1DFFB"/>
</g>
</g>
<g opacity="0.8">
<g opacity="0.8">
<path opacity="0.8" d="M274.558 201.978H271.948V205.638H274.558V201.978Z" fill="#D1DFFB"/>
<path opacity="0.8" d="M279.437 201.978H276.827V205.638H279.437V201.978Z" fill="#D1DFFB"/>
<path opacity="0.8" d="M284.204 201.978H281.595V205.638H284.204V201.978Z" fill="#D1DFFB"/>
<path opacity="0.8" d="M288.729 201.978H286.119V205.638H288.729V201.978Z" fill="#D1DFFB"/>
<path opacity="0.8" d="M293.336 201.978H290.727V205.638H293.336V201.978Z" fill="#D1DFFB"/>
</g>
<g opacity="0.8">
<path opacity="0.8" d="M297.999 201.978H295.39V205.638H297.999V201.978Z" fill="#D1DFFB"/>
<path opacity="0.8" d="M302.877 201.978H300.268V205.638H302.877V201.978Z" fill="#D1DFFB"/>
<path opacity="0.8" d="M307.646 201.978H305.036V205.638H307.646V201.978Z" fill="#D1DFFB"/>
<path opacity="0.8" d="M312.169 201.978H309.56V205.638H312.169V201.978Z" fill="#D1DFFB"/>
<path opacity="0.8" d="M316.777 201.978H314.168V205.638H316.777V201.978Z" fill="#D1DFFB"/>
</g>
</g>
</g>
<g opacity="0.8">
<g opacity="0.8">
<g opacity="0.8">
<path opacity="0.8" d="M227.535 208.436H224.926V212.095H227.535V208.436Z" fill="#D1DFFB"/>
<path opacity="0.8" d="M232.414 208.436H229.805V212.095H232.414V208.436Z" fill="#D1DFFB"/>
<path opacity="0.8" d="M237.182 208.436H234.572V212.095H237.182V208.436Z" fill="#D1DFFB"/>
<path opacity="0.8" d="M241.706 208.436H239.097V212.095H241.706V208.436Z" fill="#D1DFFB"/>
<path opacity="0.8" d="M246.314 208.436H243.704V212.095H246.314V208.436Z" fill="#D1DFFB"/>
</g>
<g opacity="0.8">
<path opacity="0.8" d="M250.977 208.436H248.367V212.095H250.977V208.436Z" fill="#D1DFFB"/>
<path opacity="0.8" d="M255.855 208.436H253.246V212.095H255.855V208.436Z" fill="#D1DFFB"/>
<path opacity="0.8" d="M260.623 208.436H258.014V212.095H260.623V208.436Z" fill="#D1DFFB"/>
<path opacity="0.8" d="M265.145 208.436H262.535V212.095H265.145V208.436Z" fill="#D1DFFB"/>
<path opacity="0.8" d="M269.755 208.436H267.146V212.095H269.755V208.436Z" fill="#D1DFFB"/>
</g>
</g>
<g opacity="0.8">
<g opacity="0.8">
<path opacity="0.8" d="M274.558 208.436H271.948V212.095H274.558V208.436Z" fill="#D1DFFB"/>
<path opacity="0.8" d="M279.437 208.436H276.827V212.095H279.437V208.436Z" fill="#D1DFFB"/>
<path opacity="0.8" d="M284.204 208.436H281.595V212.095H284.204V208.436Z" fill="#D1DFFB"/>
<path opacity="0.8" d="M288.729 208.436H286.119V212.095H288.729V208.436Z" fill="#D1DFFB"/>
<path opacity="0.8" d="M293.336 208.436H290.727V212.095H293.336V208.436Z" fill="#D1DFFB"/>
</g>
<g opacity="0.8">
<path opacity="0.8" d="M297.999 208.436H295.39V212.095H297.999V208.436Z" fill="#D1DFFB"/>
<path opacity="0.8" d="M302.877 208.436H300.268V212.095H302.877V208.436Z" fill="#D1DFFB"/>
<path opacity="0.8" d="M307.646 208.436H305.036V212.095H307.646V208.436Z" fill="#D1DFFB"/>
<path opacity="0.8" d="M312.169 208.436H309.56V212.095H312.169V208.436Z" fill="#D1DFFB"/>
<path opacity="0.8" d="M316.777 208.436H314.168V212.095H316.777V208.436Z" fill="#D1DFFB"/>
</g>
</g>
</g>
<g opacity="0.8">
<g opacity="0.8">
<g opacity="0.8">
<path opacity="0.8" d="M227.535 214.795H224.926V218.455H227.535V214.795Z" fill="#D1DFFB"/>
<path opacity="0.8" d="M232.414 214.795H229.805V218.455H232.414V214.795Z" fill="#D1DFFB"/>
<path opacity="0.8" d="M237.182 214.795H234.572V218.455H237.182V214.795Z" fill="#D1DFFB"/>
<path opacity="0.8" d="M241.706 214.795H239.097V218.455H241.706V214.795Z" fill="#D1DFFB"/>
<path opacity="0.8" d="M246.314 214.795H243.704V218.455H246.314V214.795Z" fill="#D1DFFB"/>
</g>
<g opacity="0.8">
<path opacity="0.8" d="M250.977 214.795H248.367V218.455H250.977V214.795Z" fill="#D1DFFB"/>
<path opacity="0.8" d="M255.855 214.795H253.246V218.455H255.855V214.795Z" fill="#D1DFFB"/>
<path opacity="0.8" d="M260.623 214.795H258.014V218.455H260.623V214.795Z" fill="#D1DFFB"/>
<path opacity="0.8" d="M265.145 214.795H262.535V218.455H265.145V214.795Z" fill="#D1DFFB"/>
<path opacity="0.8" d="M269.755 214.795H267.146V218.455H269.755V214.795Z" fill="#D1DFFB"/>
</g>
</g>
<g opacity="0.8">
<g opacity="0.8">
<path opacity="0.8" d="M274.558 214.795H271.948V218.455H274.558V214.795Z" fill="#D1DFFB"/>
<path opacity="0.8" d="M279.437 214.795H276.827V218.455H279.437V214.795Z" fill="#D1DFFB"/>
<path opacity="0.8" d="M284.204 214.795H281.595V218.455H284.204V214.795Z" fill="#D1DFFB"/>
<path opacity="0.8" d="M288.729 214.795H286.119V218.455H288.729V214.795Z" fill="#D1DFFB"/>
<path opacity="0.8" d="M293.336 214.795H290.727V218.455H293.336V214.795Z" fill="#D1DFFB"/>
</g>
<g opacity="0.8">
<path opacity="0.8" d="M297.999 214.795H295.39V218.455H297.999V214.795Z" fill="#D1DFFB"/>
<path opacity="0.8" d="M302.877 214.795H300.268V218.455H302.877V214.795Z" fill="#D1DFFB"/>
<path opacity="0.8" d="M307.646 214.795H305.036V218.455H307.646V214.795Z" fill="#D1DFFB"/>
<path opacity="0.8" d="M312.169 214.795H309.56V218.455H312.169V214.795Z" fill="#D1DFFB"/>
<path opacity="0.8" d="M316.777 214.795H314.168V218.455H316.777V214.795Z" fill="#D1DFFB"/>
</g>
</g>
</g>
<g opacity="0.8">
<g opacity="0.8">
<g opacity="0.8">
<g opacity="0.8">
<path opacity="0.8" d="M227.535 221.551H224.926V225.21H227.535V221.551Z" fill="#D1DFFB"/>
<path opacity="0.8" d="M232.414 221.551H229.805V225.21H232.414V221.551Z" fill="#D1DFFB"/>
<path opacity="0.8" d="M237.182 221.551H234.572V225.21H237.182V221.551Z" fill="#D1DFFB"/>
<path opacity="0.8" d="M241.706 221.551H239.097V225.21H241.706V221.551Z" fill="#D1DFFB"/>
<path opacity="0.8" d="M246.314 221.551H243.704V225.21H246.314V221.551Z" fill="#D1DFFB"/>
</g>
<g opacity="0.8">
<path opacity="0.8" d="M250.977 221.551H248.367V225.21H250.977V221.551Z" fill="#D1DFFB"/>
<path opacity="0.8" d="M255.855 221.551H253.246V225.21H255.855V221.551Z" fill="#D1DFFB"/>
<path opacity="0.8" d="M260.623 221.551H258.014V225.21H260.623V221.551Z" fill="#D1DFFB"/>
<path opacity="0.8" d="M265.145 221.551H262.535V225.21H265.145V221.551Z" fill="#D1DFFB"/>
<path opacity="0.8" d="M269.755 221.551H267.146V225.21H269.755V221.551Z" fill="#D1DFFB"/>
</g>
</g>
<g opacity="0.8">
<g opacity="0.8">
<path opacity="0.8" d="M274.558 221.551H271.948V225.21H274.558V221.551Z" fill="#D1DFFB"/>
<path opacity="0.8" d="M279.437 221.551H276.827V225.21H279.437V221.551Z" fill="#D1DFFB"/>
<path opacity="0.8" d="M284.204 221.551H281.595V225.21H284.204V221.551Z" fill="#D1DFFB"/>
<path opacity="0.8" d="M288.729 221.551H286.119V225.21H288.729V221.551Z" fill="#D1DFFB"/>
<path opacity="0.8" d="M293.336 221.551H290.727V225.21H293.336V221.551Z" fill="#D1DFFB"/>
</g>
<g opacity="0.8">
<path opacity="0.8" d="M297.999 221.551H295.39V225.21H297.999V221.551Z" fill="#D1DFFB"/>
<path opacity="0.8" d="M302.877 221.551H300.268V225.21H302.877V221.551Z" fill="#D1DFFB"/>
<path opacity="0.8" d="M307.646 221.551H305.036V225.21H307.646V221.551Z" fill="#D1DFFB"/>
<path opacity="0.8" d="M312.169 221.551H309.56V225.21H312.169V221.551Z" fill="#D1DFFB"/>
<path opacity="0.8" d="M316.777 221.551H314.168V225.21H316.777V221.551Z" fill="#D1DFFB"/>
</g>
</g>
</g>
<g opacity="0.8">
<g opacity="0.8">
<g opacity="0.8">
<path opacity="0.8" d="M227.535 228.008H224.926V231.668H227.535V228.008Z" fill="#D1DFFB"/>
<path opacity="0.8" d="M232.414 228.008H229.805V231.668H232.414V228.008Z" fill="#D1DFFB"/>
<path opacity="0.8" d="M237.182 228.008H234.572V231.668H237.182V228.008Z" fill="#D1DFFB"/>
<path opacity="0.8" d="M241.706 228.008H239.097V231.668H241.706V228.008Z" fill="#D1DFFB"/>
<path opacity="0.8" d="M246.314 228.008H243.704V231.668H246.314V228.008Z" fill="#D1DFFB"/>
</g>
<g opacity="0.8">
<path opacity="0.8" d="M250.977 228.008H248.367V231.668H250.977V228.008Z" fill="#D1DFFB"/>
<path opacity="0.8" d="M255.855 228.008H253.246V231.668H255.855V228.008Z" fill="#D1DFFB"/>
<path opacity="0.8" d="M260.623 228.008H258.014V231.668H260.623V228.008Z" fill="#D1DFFB"/>
<path opacity="0.8" d="M265.145 228.008H262.535V231.668H265.145V228.008Z" fill="#D1DFFB"/>
<path opacity="0.8" d="M269.755 228.008H267.146V231.668H269.755V228.008Z" fill="#D1DFFB"/>
</g>
</g>
<g opacity="0.8">
<g opacity="0.8">
<path opacity="0.8" d="M274.558 228.008H271.948V231.668H274.558V228.008Z" fill="#D1DFFB"/>
<path opacity="0.8" d="M279.437 228.008H276.827V231.668H279.437V228.008Z" fill="#D1DFFB"/>
<path opacity="0.8" d="M284.204 228.008H281.595V231.668H284.204V228.008Z" fill="#D1DFFB"/>
<path opacity="0.8" d="M288.729 228.008H286.119V231.668H288.729V228.008Z" fill="#D1DFFB"/>
<path opacity="0.8" d="M293.336 228.008H290.727V231.668H293.336V228.008Z" fill="#D1DFFB"/>
</g>
<g opacity="0.8">
<path opacity="0.8" d="M297.999 228.008H295.39V231.668H297.999V228.008Z" fill="#D1DFFB"/>
<path opacity="0.8" d="M302.877 228.008H300.268V231.668H302.877V228.008Z" fill="#D1DFFB"/>
<path opacity="0.8" d="M307.646 228.008H305.036V231.668H307.646V228.008Z" fill="#D1DFFB"/>
<path opacity="0.8" d="M312.169 228.008H309.56V231.668H312.169V228.008Z" fill="#D1DFFB"/>
<path opacity="0.8" d="M316.777 228.008H314.168V231.668H316.777V228.008Z" fill="#D1DFFB"/>
</g>
</g>
</g>
<g opacity="0.8">
<g opacity="0.8">
<g opacity="0.8">
<path opacity="0.8" d="M227.535 234.367H224.926V238.027H227.535V234.367Z" fill="#D1DFFB"/>
<path opacity="0.8" d="M232.414 234.367H229.805V238.027H232.414V234.367Z" fill="#D1DFFB"/>
<path opacity="0.8" d="M237.182 234.367H234.572V238.027H237.182V234.367Z" fill="#D1DFFB"/>
<path opacity="0.8" d="M241.706 234.367H239.097V238.027H241.706V234.367Z" fill="#D1DFFB"/>
<path opacity="0.8" d="M246.314 234.367H243.704V238.027H246.314V234.367Z" fill="#D1DFFB"/>
</g>
<g opacity="0.8">
<path opacity="0.8" d="M250.977 234.367H248.367V238.027H250.977V234.367Z" fill="#D1DFFB"/>
<path opacity="0.8" d="M255.855 234.367H253.246V238.027H255.855V234.367Z" fill="#D1DFFB"/>
<path opacity="0.8" d="M260.623 234.367H258.014V238.027H260.623V234.367Z" fill="#D1DFFB"/>
<path opacity="0.8" d="M265.145 234.367H262.535V238.027H265.145V234.367Z" fill="#D1DFFB"/>
<path opacity="0.8" d="M269.755 234.367H267.146V238.027H269.755V234.367Z" fill="#D1DFFB"/>
</g>
</g>
<g opacity="0.8">
<g opacity="0.8">
<path opacity="0.8" d="M274.558 234.367H271.948V238.027H274.558V234.367Z" fill="#D1DFFB"/>
<path opacity="0.8" d="M279.437 234.367H276.827V238.027H279.437V234.367Z" fill="#D1DFFB"/>
<path opacity="0.8" d="M284.204 234.367H281.595V238.027H284.204V234.367Z" fill="#D1DFFB"/>
<path opacity="0.8" d="M288.729 234.367H286.119V238.027H288.729V234.367Z" fill="#D1DFFB"/>
<path opacity="0.8" d="M293.336 234.367H290.727V238.027H293.336V234.367Z" fill="#D1DFFB"/>
</g>
<g opacity="0.8">
<path opacity="0.8" d="M297.999 234.367H295.39V238.027H297.999V234.367Z" fill="#D1DFFB"/>
<path opacity="0.8" d="M302.877 234.367H300.268V238.027H302.877V234.367Z" fill="#D1DFFB"/>
<path opacity="0.8" d="M307.646 234.367H305.036V238.027H307.646V234.367Z" fill="#D1DFFB"/>
<path opacity="0.8" d="M312.169 234.367H309.56V238.027H312.169V234.367Z" fill="#D1DFFB"/>
<path opacity="0.8" d="M316.777 234.367H314.168V238.027H316.777V234.367Z" fill="#D1DFFB"/>
</g>
</g>
</g>
</g>
</g>
<path d="M267.104 245.833H206.635V278.297H267.104V245.833Z" fill="#D1DFFB"/>
<path d="M221.251 262.067H160.782V278.3H221.251V262.067Z" fill="#D1DFFB"/>
<path d="M332.418 250.892H271.949V278.299H332.418V250.892Z" fill="#D1DFFB"/>
<path d="M221.939 249.635H210.673V255.648H221.939V249.635Z" fill="#DDE8FD"/>
<path d="M236.4 249.635H225.134V255.648H236.4V249.635Z" fill="#DDE8FD"/>
<path d="M250.589 249.635H239.322V255.648H250.589V249.635Z" fill="#DDE8FD"/>
<path d="M264.501 249.635H253.234V255.648H264.501V249.635Z" fill="#DDE8FD"/>
<path d="M272.276 245.833H266.472V278.577H272.276V245.833Z" fill="#BED2FA"/>
<path d="M344.272 239.501H338.468V278.578H344.272V239.501Z" fill="#BED2FA"/>
<path d="M338.646 250.892H332.416V278.035H338.646V250.892Z" fill="#BED2FA"/>
<path d="M327.747 252.506C327.585 252.938 327.194 253.189 326.873 253.07C326.552 252.951 326.422 252.504 326.582 252.075C326.744 251.644 327.924 250.261 327.924 250.261C327.924 250.261 327.909 252.077 327.747 252.506Z" fill="#DDE8FD"/>
<path d="M324.577 241.901C324.416 242.332 324.024 242.584 323.703 242.465C323.382 242.345 323.252 241.899 323.412 241.47C323.574 241.038 324.754 239.656 324.754 239.656C324.754 239.656 324.739 241.472 324.577 241.901Z" fill="#DDE8FD"/>
<path d="M312.425 257.893C312.264 258.324 311.872 258.576 311.551 258.457C311.23 258.338 311.1 257.891 311.262 257.462C311.424 257.031 312.604 255.648 312.604 255.648C312.604 255.648 312.587 257.464 312.425 257.893Z" fill="#DDE8FD"/>
<path d="M322.457 275.409C322.457 275.409 321.338 277.813 323.518 277.989C325.698 278.165 326.996 277.286 327.526 276.23C327.526 276.23 324.816 277.344 325.228 275.996C325.641 274.647 326.701 272.476 326.701 272.476C326.701 272.476 324.403 276.584 323.259 276.385C322.748 276.298 322.457 275.409 322.457 275.409Z" fill="#DDE8FD"/>
<path d="M179.029 187.904H178.716V190.446H179.029V187.904Z" fill="#DDE8FD"/>
<path d="M190.322 187.904H190.009V190.446H190.322V187.904Z" fill="#DDE8FD"/>
<path d="M338.646 239.406H305.366V278.035H338.646V239.406Z" fill="#DDE8FD"/>
<path d="M336.417 231.668H335.801V239.5H336.417V231.668Z" fill="#DDE8FD"/>
<path d="M346.885 250.248H305.366V278.037H346.885V250.248Z" fill="#DDE8FD"/>
<path d="M346.885 246.616H305.366V255.648H346.885V246.616Z" fill="#D1DFFB"/>
<path d="M310.327 258.326H308.194V261.317H310.327V258.326Z" fill="#D1DFFB"/>
<path d="M314.314 258.326H312.182V261.317H314.314V258.326Z" fill="#D1DFFB"/>
<path d="M318.212 258.326H316.08V261.317H318.212V258.326Z" fill="#D1DFFB"/>
<path d="M321.908 258.326H319.775V261.317H321.908V258.326Z" fill="#D1DFFB"/>
<path d="M325.675 258.326H323.543V261.317H325.675V258.326Z" fill="#D1DFFB"/>
<path d="M329.485 258.326H327.353V261.317H329.485V258.326Z" fill="#D1DFFB"/>
<path d="M333.472 258.326H331.34V261.317H333.472V258.326Z" fill="#D1DFFB"/>
<path d="M337.371 258.326H335.238V261.317H337.371V258.326Z" fill="#D1DFFB"/>
<path d="M341.066 258.326H338.934V261.317H341.066V258.326Z" fill="#D1DFFB"/>
<path d="M344.834 258.326H342.701V261.317H344.834V258.326Z" fill="#D1DFFB"/>
<path d="M310.327 263.603H308.194V266.593H310.327V263.603Z" fill="#D1DFFB"/>
<path d="M314.314 263.603H312.182V266.593H314.314V263.603Z" fill="#D1DFFB"/>
<path d="M318.212 263.603H316.08V266.593H318.212V263.603Z" fill="#D1DFFB"/>
<path d="M321.908 263.603H319.775V266.593H321.908V263.603Z" fill="#D1DFFB"/>
<path d="M325.675 263.603H323.543V266.593H325.675V263.603Z" fill="#D1DFFB"/>
<path d="M329.485 263.603H327.353V266.593H329.485V263.603Z" fill="#D1DFFB"/>
<path d="M333.472 263.603H331.34V266.593H333.472V263.603Z" fill="#D1DFFB"/>
<path d="M337.371 263.603H335.238V266.593H337.371V263.603Z" fill="#D1DFFB"/>
<path d="M341.066 263.603H338.934V266.593H341.066V263.603Z" fill="#D1DFFB"/>
<path d="M344.834 263.603H342.701V266.593H344.834V263.603Z" fill="#D1DFFB"/>
<path d="M310.327 268.801H308.194V271.791H310.327V268.801Z" fill="#D1DFFB"/>
<path d="M314.314 268.801H312.182V271.791H314.314V268.801Z" fill="#D1DFFB"/>
<path d="M318.212 268.801H316.08V271.791H318.212V268.801Z" fill="#D1DFFB"/>
<path d="M321.908 268.801H319.775V271.791H321.908V268.801Z" fill="#D1DFFB"/>
<path d="M325.675 268.801H323.543V271.791H325.675V268.801Z" fill="#D1DFFB"/>
<path d="M329.485 268.801H327.353V271.791H329.485V268.801Z" fill="#D1DFFB"/>
<path d="M333.472 268.801H331.34V271.791H333.472V268.801Z" fill="#D1DFFB"/>
<path d="M337.371 268.801H335.238V271.791H337.371V268.801Z" fill="#D1DFFB"/>
<path d="M341.066 268.801H338.934V271.791H341.066V268.801Z" fill="#D1DFFB"/>
<path d="M344.834 268.801H342.701V271.791H344.834V268.801Z" fill="#D1DFFB"/>
<path d="M310.326 249.155H308.534V252.24H310.326V249.155Z" fill="#BED2FA"/>
<path d="M328.116 249.155H326.324V252.24H328.116V249.155Z" fill="#BED2FA"/>
<path d="M342.267 249.155H340.475V252.24H342.267V249.155Z" fill="#BED2FA"/>
<path d="M172.229 250.248H130.71V278.037H172.229V250.248Z" fill="#DDE8FD"/>
<path d="M172.229 246.616H130.71V255.648H172.229V246.616Z" fill="#D1DFFB"/>
<path d="M135.67 258.326H133.538V261.317H135.67V258.326Z" fill="#D1DFFB"/>
<path d="M139.658 258.326H137.525V261.317H139.658V258.326Z" fill="#D1DFFB"/>
<path d="M143.556 258.326H141.424V261.317H143.556V258.326Z" fill="#D1DFFB"/>
<path d="M147.251 258.326H145.118V261.317H147.251V258.326Z" fill="#D1DFFB"/>
<path d="M151.018 258.326H148.886V261.317H151.018V258.326Z" fill="#D1DFFB"/>
<path d="M154.828 258.326H152.695V261.317H154.828V258.326Z" fill="#D1DFFB"/>
<path d="M158.815 258.326H156.683V261.317H158.815V258.326Z" fill="#D1DFFB"/>
<path d="M162.713 258.326H160.581V261.317H162.713V258.326Z" fill="#D1DFFB"/>
<path d="M166.409 258.326H164.276V261.317H166.409V258.326Z" fill="#D1DFFB"/>
<path d="M170.176 258.326H168.044V261.317H170.176V258.326Z" fill="#D1DFFB"/>
<path d="M135.67 263.603H133.538V266.594H135.67V263.603Z" fill="#D1DFFB"/>
<path d="M139.658 263.603H137.525V266.594H139.658V263.603Z" fill="#D1DFFB"/>
<path d="M143.556 263.603H141.424V266.594H143.556V263.603Z" fill="#D1DFFB"/>
<path d="M147.251 263.603H145.118V266.594H147.251V263.603Z" fill="#D1DFFB"/>
<path d="M151.018 263.603H148.886V266.594H151.018V263.603Z" fill="#D1DFFB"/>
<path d="M154.828 263.603H152.695V266.594H154.828V263.603Z" fill="#D1DFFB"/>
<path d="M158.815 263.603H156.683V266.594H158.815V263.603Z" fill="#D1DFFB"/>
<path d="M162.713 263.603H160.581V266.594H162.713V263.603Z" fill="#D1DFFB"/>
<path d="M166.409 263.603H164.276V266.594H166.409V263.603Z" fill="#D1DFFB"/>
<path d="M170.176 263.603H168.044V266.594H170.176V263.603Z" fill="#D1DFFB"/>
<path d="M135.67 268.801H133.538V271.792H135.67V268.801Z" fill="#D1DFFB"/>
<path d="M139.658 268.801H137.525V271.792H139.658V268.801Z" fill="#D1DFFB"/>
<path d="M143.556 268.801H141.424V271.792H143.556V268.801Z" fill="#D1DFFB"/>
<path d="M147.251 268.801H145.118V271.792H147.251V268.801Z" fill="#D1DFFB"/>
<path d="M151.018 268.801H148.886V271.792H151.018V268.801Z" fill="#D1DFFB"/>
<path d="M154.828 268.801H152.695V271.792H154.828V268.801Z" fill="#D1DFFB"/>
<path d="M158.815 268.801H156.683V271.792H158.815V268.801Z" fill="#D1DFFB"/>
<path d="M162.713 268.801H160.581V271.792H162.713V268.801Z" fill="#D1DFFB"/>
<path d="M166.409 268.801H164.276V271.792H166.409V268.801Z" fill="#D1DFFB"/>
<path d="M170.176 268.801H168.044V271.792H170.176V268.801Z" fill="#D1DFFB"/>
<path d="M135.671 249.155H133.879V252.24H135.671V249.155Z" fill="#BED2FA"/>
<path d="M153.46 249.155H151.668V252.24H153.46V249.155Z" fill="#BED2FA"/>
<path d="M167.608 249.155H165.815V252.24H167.608V249.155Z" fill="#BED2FA"/>
<path d="M128.103 250.244V278.032H91.6145L86.5781 272.605V250.244H128.103Z" fill="#DDE8FD"/>
<path d="M128.105 246.616H86.5859V255.648H128.105V246.616Z" fill="#D1DFFB"/>
<path d="M91.5464 258.326H89.4141V261.317H91.5464V258.326Z" fill="#D1DFFB"/>
<path d="M95.5337 258.326H93.4014V261.317H95.5337V258.326Z" fill="#D1DFFB"/>
<path d="M99.4322 258.326H97.2998V261.317H99.4322V258.326Z" fill="#D1DFFB"/>
<path d="M103.128 258.326H100.995V261.317H103.128V258.326Z" fill="#D1DFFB"/>
<path d="M106.895 258.326H104.763V261.317H106.895V258.326Z" fill="#D1DFFB"/>
<path d="M110.705 258.326H108.572V261.317H110.705V258.326Z" fill="#D1DFFB"/>
<path d="M114.692 258.326H112.56V261.317H114.692V258.326Z" fill="#D1DFFB"/>
<path d="M118.59 258.326H116.458V261.317H118.59V258.326Z" fill="#D1DFFB"/>
<path d="M122.286 258.326H120.153V261.317H122.286V258.326Z" fill="#D1DFFB"/>
<path d="M126.053 258.326H123.921V261.317H126.053V258.326Z" fill="#D1DFFB"/>
<path d="M91.5464 263.603H89.4141V266.594H91.5464V263.603Z" fill="#D1DFFB"/>
<path d="M95.5337 263.603H93.4014V266.594H95.5337V263.603Z" fill="#D1DFFB"/>
<path d="M99.4322 263.603H97.2998V266.594H99.4322V263.603Z" fill="#D1DFFB"/>
<path d="M103.128 263.603H100.995V266.594H103.128V263.603Z" fill="#D1DFFB"/>
<path d="M106.895 263.603H104.763V266.594H106.895V263.603Z" fill="#D1DFFB"/>
<path d="M110.705 263.603H108.572V266.594H110.705V263.603Z" fill="#D1DFFB"/>
<path d="M114.692 263.603H112.56V266.594H114.692V263.603Z" fill="#D1DFFB"/>
<path d="M118.59 263.603H116.458V266.594H118.59V263.603Z" fill="#D1DFFB"/>
<path d="M122.286 263.603H120.153V266.594H122.286V263.603Z" fill="#D1DFFB"/>
<path d="M126.053 263.603H123.921V266.594H126.053V263.603Z" fill="#D1DFFB"/>
<path d="M91.5464 268.801H89.4141V271.792H91.5464V268.801Z" fill="#D1DFFB"/>
<path d="M95.5337 268.801H93.4014V271.792H95.5337V268.801Z" fill="#D1DFFB"/>
<path d="M99.4322 268.801H97.2998V271.792H99.4322V268.801Z" fill="#D1DFFB"/>
<path d="M103.128 268.801H100.995V271.792H103.128V268.801Z" fill="#D1DFFB"/>
<path d="M106.895 268.801H104.763V271.792H106.895V268.801Z" fill="#D1DFFB"/>
<path d="M110.705 268.801H108.572V271.792H110.705V268.801Z" fill="#D1DFFB"/>
<path d="M114.692 268.801H112.56V271.792H114.692V268.801Z" fill="#D1DFFB"/>
<path d="M118.59 268.801H116.458V271.792H118.59V268.801Z" fill="#D1DFFB"/>
<path d="M122.286 268.801H120.153V271.792H122.286V268.801Z" fill="#D1DFFB"/>
<path d="M126.053 268.801H123.921V271.792H126.053V268.801Z" fill="#D1DFFB"/>
<path d="M91.5461 249.155H89.7539V252.24H91.5461V249.155Z" fill="#BED2FA"/>
<path d="M109.335 249.155H107.543V252.24H109.335V249.155Z" fill="#BED2FA"/>
<path d="M123.487 249.155H121.694V252.24H123.487V249.155Z" fill="#BED2FA"/>
<path d="M83.8761 250.244V267.626C82.5438 264.388 81.9033 260.872 81.9033 257.203C81.9033 257.03 81.9033 256.841 81.9204 256.652C81.9204 256.325 81.9375 255.981 81.9375 255.653C81.9546 255.36 81.9717 255.067 81.9888 254.776C82.0763 253.707 82.196 252.64 82.3689 251.572C82.3689 251.536 82.3861 251.502 82.3861 251.468C82.4203 251.296 82.4545 251.105 82.4735 250.915C82.5077 250.692 82.559 250.467 82.6122 250.244H83.8761Z" fill="#DDE8FD"/>
<path d="M83.877 246.608V255.653H81.9385C81.9556 255.36 81.9727 255.067 81.9898 254.776C82.0772 253.707 82.1969 252.64 82.3699 251.572C82.3699 251.536 82.387 251.502 82.387 251.468C82.4212 251.295 82.4554 251.104 82.4744 250.915C82.5086 250.692 82.5599 250.467 82.6132 250.244C82.769 249.451 82.9591 248.659 83.1662 247.849C83.2004 247.66 83.2536 247.471 83.3049 247.28C83.3734 247.057 83.4266 246.832 83.5121 246.608H83.877Z" fill="#D1DFFB"/>
</g>
<path d="M323.231 70.6643C323.231 70.6643 309.455 86.5946 304.73 97.2752L276.3 102.314L276.533 110.336C276.533 110.336 303.992 112.245 309.571 108.193C315.151 104.141 324.094 87.1303 323.231 70.6643Z" fill="#3483FA"/>
<path d="M326.009 248.67L324.668 269.461L317.643 269.651L315.713 247.511L326.79 248.758" fill="white"/>
<path d="M326.009 248.67L324.668 269.461L317.643 269.651L315.713 247.511L326.79 248.758" stroke="#020202" stroke-miterlimit="10"/>
<path d="M303.138 277.388C320.736 280.237 330.929 278.442 330.929 278.442C331.02 277.265 331.072 276.179 331.078 275.172C331.168 262.594 325.213 262.854 325.213 262.854C325.213 262.854 324.901 267.717 321.899 267.934C318.893 268.157 316.926 263.2 316.926 263.2C306.339 265.463 303.73 270.947 303.173 274.399C302.884 276.158 303.138 277.388 303.138 277.388Z" fill="#282B3B"/>
<path d="M319.609 125.118L365.259 129.636C365.251 129.568 365.241 129.49 365.231 129.402C365.187 129.046 365.125 128.522 365.048 127.852C364.894 126.511 364.682 124.583 364.453 122.234C363.993 117.536 363.458 111.152 363.16 104.411C362.862 97.6707 362.8 90.5668 363.286 84.4302C363.529 81.3619 363.91 78.5305 364.469 76.1047C364.995 73.8202 365.682 71.8807 366.571 70.4403C366.452 70.3919 366.297 70.3288 366.109 70.253C365.634 70.0617 364.95 69.7889 364.11 69.4629C362.429 68.8108 360.128 67.9462 357.644 67.0956C355.159 66.2448 352.494 65.4092 350.085 64.8144C347.668 64.2176 345.537 63.8705 344.108 63.9785C341.192 64.1988 337.236 65.1572 333.386 66.4487C329.561 67.7317 325.864 69.3355 323.414 70.8512C323.408 70.8605 323.401 70.8713 323.394 70.8835C323.36 70.936 323.311 71.0155 323.247 71.1219C323.12 71.3345 322.935 71.6543 322.709 72.0798C322.258 72.9308 321.642 74.2044 320.988 75.8886C319.68 79.2569 318.217 84.2679 317.61 90.8258C317.003 97.3843 317.508 106.001 318.168 112.989C318.497 116.481 318.865 119.562 319.15 121.77C319.292 122.874 319.414 123.759 319.501 124.369C319.544 124.673 319.578 124.909 319.601 125.068L319.609 125.118Z" fill="#3483FA" stroke="black" stroke-width="0.5"/>
<path d="M333.378 75.7529L339.374 75.059L345.994 67.675L346.312 57.3398L346.399 54.4881C340.211 53.7474 335.083 60.2062 335.083 60.2062L333.894 71.0215L333.378 75.7529Z" fill="white" stroke="#020202" stroke-width="0.5" stroke-miterlimit="10"/>
<path d="M328.28 245.094L328.28 245.094C329.85 239.089 331.986 230.697 334.268 221.282L334.268 221.282C336.509 212.062 338.883 201.858 340.957 191.966L340.957 191.965C344.501 175.2 347.195 159.401 347.071 150.774C347.039 148.815 346.99 146.975 346.897 145.254L346.897 145.252C346.468 136.913 345.249 131.443 342.379 128.057C339.537 124.704 334.973 123.281 327.514 123.338L327.512 123.338C325.084 123.349 322.351 123.527 319.288 123.831C319.275 124.06 319.258 124.381 319.236 124.79C319.188 125.702 319.118 127.052 319.031 128.804C318.857 132.307 318.615 137.416 318.341 143.837L318.341 143.837C317.327 167.087 315.877 212.359 315.633 256.259H325.69C325.722 256.106 325.762 255.913 325.81 255.683C325.939 255.06 326.129 254.168 326.366 253.092C326.84 250.94 327.508 248.049 328.28 245.094Z" fill="#282B3B" stroke="black"/>
<path d="M368.141 250.306L369.111 271.117L362.15 272.092L357.781 250.306H368.928" fill="white"/>
<path d="M368.141 250.306L369.111 271.117L362.15 272.092L357.781 250.306H368.928" stroke="#020202" stroke-miterlimit="10"/>
<path d="M348.39 278.447C366.195 279.311 376.129 276.386 376.129 276.386C376.082 275.033 375.992 273.809 375.858 272.691C374.473 260.628 368.716 261.539 368.716 261.539C368.716 261.539 368.943 266.405 365.985 266.955C363.02 267.509 360.513 262.807 360.513 262.807C351.112 265.948 348.658 271.034 348.177 274.553C347.865 276.828 348.39 278.447 348.39 278.447Z" fill="#282B3B"/>
<path d="M342.515 74.0798C345.147 71.3902 347.446 67.758 348.616 64.4671L346.467 63.9895C346.418 64.0733 346.351 64.1884 346.267 64.3306C346.08 64.6489 345.808 65.1032 345.472 65.6483C344.799 66.7381 343.866 68.1925 342.824 69.6482C341.784 71.1023 340.631 72.5652 339.518 73.6677C338.962 74.2189 338.41 74.6862 337.882 75.0174C337.356 75.3464 336.833 75.5553 336.339 75.5565C335.33 75.5591 334.723 74.8392 334.374 73.901C334.025 72.9629 333.9 71.731 333.881 70.5253C333.863 69.3143 333.952 68.1057 334.046 67.2018C334.09 66.7688 334.136 66.4048 334.172 66.1425L332.094 67.0658C332.076 67.1387 332.051 67.2446 332.02 67.3793C331.958 67.6552 331.874 68.0513 331.789 68.5307C331.618 69.4906 331.445 70.779 331.43 72.1015C331.415 73.4278 331.559 74.7672 332.01 75.8409C332.456 76.9053 333.195 77.696 334.381 77.9764C335.586 78.2612 336.935 77.9891 338.335 77.2858C339.734 76.5831 341.164 75.46 342.515 74.0798Z" fill="#0860DB" stroke="black" stroke-width="0.5"/>
<path d="M329.284 43.2337C329.284 43.2337 324.917 59.8256 334.875 62.3669C344.832 64.9083 350.697 53.5162 350.149 47.2272C350.149 47.2272 340.384 35.4486 329.284 43.2337Z" fill="white" stroke="black" stroke-width="0.5" stroke-miterlimit="10"/>
<path d="M333.505 55.4097L337.849 56.2412C337.849 56.2412 336.365 58.1296 335.149 57.6699C333.934 57.2073 333.505 55.4097 333.505 55.4097Z" fill="black"/>
<path d="M335.643 51.5151L335.807 54.4166L334.317 54.2029C334.043 54.1619 333.909 53.8428 334.075 53.6202L335.643 51.5151Z" fill="black"/>
<path d="M340.245 49.1101C340.706 49.4819 340.062 47.9156 339.415 47.696C338.767 47.4764 338.088 47.7545 337.902 48.3167C337.899 48.3167 339.138 48.2201 340.245 49.1101Z" fill="black"/>
<path d="M332.294 48.4071C331.79 48.7145 332.63 47.2448 333.3 47.113C333.971 46.9784 334.606 47.3414 334.723 47.9211C334.72 47.9211 333.504 47.6664 332.294 48.4071Z" fill="black"/>
<path d="M338.61 51.7382C338.554 52.2477 338.31 52.64 338.065 52.6107C337.82 52.5844 337.665 52.1481 337.721 51.6387C337.776 51.1292 338.021 50.7369 338.266 50.7662C338.511 50.7955 338.665 51.2288 338.61 51.7382Z" fill="black"/>
<path d="M334.608 51.0469C334.556 51.5329 334.323 51.9076 334.087 51.8813C333.851 51.8549 333.705 51.4392 333.757 50.9532C333.81 50.4672 334.043 50.0924 334.279 50.1187C334.515 50.1451 334.661 50.5608 334.608 51.0469Z" fill="black"/>
<path d="M330.456 40.7628L326.357 48.3429L333.586 45.6815L332.251 48.8933C332.251 48.8933 339.606 43.7111 341.667 45.0374C343.728 46.3637 344.663 50.3748 344.314 53.1386L347.205 49.4291L347.631 58.0749C347.631 58.0749 350.438 53.1855 351.114 47.9652C351.793 42.742 338.725 34.0024 330.456 40.7628Z" fill="#2C3637"/>
<path d="M329.828 43.2064L317.515 40.9784C317.515 40.9784 319.13 39.5496 325.458 40.7851C331.784 42.0207 332.705 42.0265 332.705 42.0265L329.828 43.2064Z" fill="#3483FA"/>
<path d="M329.536 42.7196C329.532 42.8457 329.531 42.9506 329.531 43.0314L350.943 47.6679C350.969 47.5693 351.002 47.4396 351.038 47.2823C351.13 46.8907 351.246 46.3287 351.345 45.6501C351.542 44.2911 351.665 42.4735 351.379 40.6232C351.092 38.7734 350.398 36.9047 348.971 35.4233C347.546 33.9448 345.37 32.8283 342.073 32.521C338.766 32.2127 336.343 32.7377 334.567 33.6795C332.791 34.6211 331.64 35.9897 330.894 37.402C330.146 38.8166 329.806 40.2733 329.652 41.3799C329.576 41.9325 329.547 42.3956 329.536 42.7196Z" fill="#2F7BFF" stroke="black" stroke-width="0.5"/>
<path d="M347.123 53.6247C347.123 53.6247 348.608 48.6631 350.17 52.2212C351.731 55.7793 347.234 57.3655 346.885 56.8703L347.123 53.6247Z" fill="white" stroke="black" stroke-width="0.5" stroke-miterlimit="10"/>
<path d="M284.316 68.4602H337.039V121.404H284.316V68.4602Z" fill="#1FC9AA"/>
<path d="M266.166 68.4565H284.323V121.406H266.166V68.4565Z" fill="#1FC9AA"/>
<g opacity="0.76">
<g opacity="0.76">
<path opacity="0.76" d="M270.957 68.4565H279.533V81.7313H270.957V68.4565Z" fill="#1CA78E"/>
</g>
</g>
<g opacity="0.18">
<g opacity="0.18">
<path opacity="0.18" d="M284.316 68.4587V121.402H337.039V94.1767C325.758 94.4783 311.845 102.114 301.091 97.0606C290.781 92.2268 291.093 77.0577 292.198 68.4558H284.316V68.4587Z" fill="#2C3637"/>
</g>
</g>
<path d="M313.962 121.617C313.962 121.617 305.689 120.844 299.609 117.448C293.528 114.049 291.021 111.856 298.163 113.176C305.302 114.497 304.835 113.691 302.427 112.757C300.02 111.826 300.906 109.294 305.299 111.012C309.692 112.728 310.732 115.548 314.501 115.791C318.273 116.031 316.382 121.951 313.962 121.617Z" fill="white" stroke="#020202" stroke-width="0.5" stroke-miterlimit="10"/>
<path d="M369.109 256.506H358.596C358.532 256.295 358.44 255.993 358.322 255.604C358.073 254.782 357.709 253.574 357.248 252.029C356.326 248.939 355.017 244.499 353.467 239.101C350.368 228.304 346.308 213.677 342.465 198.355C338.622 183.03 334.998 167.018 332.768 153.448C331.653 146.663 330.889 140.497 330.618 135.339C330.357 130.349 330.561 126.35 331.329 123.649C331.374 123.642 331.423 123.634 331.476 123.625C331.771 123.578 332.204 123.51 332.753 123.432C333.852 123.276 335.414 123.075 337.265 122.899C340.973 122.546 345.826 122.292 350.442 122.681L369.109 256.506ZM369.109 256.506C369.044 210.199 366.916 166.106 365.714 144.787M369.109 256.506L350.442 122.681C354.169 122.997 357.697 123.727 360.339 125.125C362.962 126.513 364.674 128.534 364.907 131.463L364.907 131.463L364.908 131.474L364.911 131.516L364.922 131.685C364.932 131.834 364.947 132.057 364.966 132.352C365.004 132.94 365.06 133.812 365.131 134.95C365.273 137.224 365.475 140.556 365.714 144.787M365.714 144.787L366.213 144.759L365.714 144.787Z" fill="#282B3B" stroke="black"/>
<path d="M357.655 116.925L357.407 116.958L357.655 116.925L357.697 117.229L357.39 117.208L313.008 114.153L312.27 122.136C312.329 122.158 312.401 122.184 312.488 122.215C312.748 122.31 313.133 122.449 313.628 122.626C314.617 122.981 316.047 123.487 317.81 124.094C321.334 125.308 326.188 126.927 331.5 128.545C336.814 130.163 342.585 131.778 347.945 132.987C353.311 134.197 358.249 134.996 361.905 134.987C365.559 134.977 368.419 134.247 370.608 132.945C372.794 131.644 374.327 129.762 375.316 127.416C377.298 122.71 377.086 116.139 375.501 108.71C373.914 101.272 371.713 91.6888 369.907 83.9644C369.005 80.1024 368.201 76.7054 367.623 74.274C367.334 73.0582 367.102 72.0839 366.942 71.4135L366.757 70.6437L366.744 70.5856C366.719 70.5883 366.692 70.5913 366.664 70.5947C366.476 70.6171 366.201 70.6576 365.86 70.7295C365.179 70.8732 364.234 71.1423 363.189 71.6429C361.101 72.6425 358.603 74.5671 356.984 78.2792C355.764 81.0839 355.038 84.919 355.38 90.1732L355.131 90.1894L355.38 90.1732C356.007 99.8079 356.576 106.498 356.988 110.778C357.194 112.918 357.361 114.455 357.476 115.458C357.534 115.959 357.579 116.326 357.609 116.568C357.624 116.689 357.636 116.778 357.644 116.837L357.652 116.903L357.654 116.92L357.655 116.923L357.655 116.924L357.655 116.925Z" fill="#3483FA" stroke="black" stroke-width="0.5"/>
<path d="M367.03 257.024C367.033 257.024 367.036 257.024 367.039 257.024C367.182 257.018 367.293 256.898 367.287 256.754C367.287 256.754 367.246 255.636 367.162 253.607C367.156 253.464 367.039 253.343 366.893 253.358C366.751 253.364 366.64 253.484 366.646 253.628C366.73 255.654 366.771 256.772 366.771 256.775C366.78 256.915 366.893 257.024 367.03 257.024ZM366.774 250.752C366.777 250.752 366.783 250.752 366.786 250.752C366.928 250.747 367.039 250.624 367.033 250.483L366.896 247.359C366.89 247.216 366.803 247.104 366.628 247.11C366.485 247.116 366.374 247.239 366.383 247.38L366.52 250.504C366.523 250.644 366.637 250.752 366.774 250.752ZM366.497 244.51C366.5 244.51 366.506 244.51 366.509 244.51C366.651 244.504 366.762 244.381 366.753 244.238L366.608 241.12C366.602 240.976 366.468 240.88 366.337 240.874C366.194 240.88 366.083 241.003 366.092 241.146L366.237 244.264C366.243 244.402 366.357 244.51 366.497 244.51ZM366.2 238.277C366.203 238.277 366.208 238.277 366.211 238.277C366.354 238.271 366.465 238.148 366.456 238.005L366.302 234.889C366.296 234.746 366.197 234.641 366.031 234.644C365.888 234.652 365.777 234.772 365.786 234.916L365.94 238.031C365.946 238.169 366.063 238.277 366.2 238.277ZM365.885 232.047C365.888 232.047 365.894 232.047 365.899 232.047C366.042 232.038 366.153 231.918 366.144 231.774L365.981 228.659C365.972 228.519 365.841 228.422 365.71 228.413C365.567 228.422 365.459 228.545 365.465 228.685L365.628 231.798C365.634 231.938 365.748 232.047 365.885 232.047ZM365.552 225.816C365.558 225.816 365.561 225.816 365.567 225.816C365.71 225.807 365.818 225.684 365.812 225.544L365.64 222.432C365.631 222.288 365.517 222.192 365.369 222.186C365.226 222.194 365.118 222.317 365.127 222.458L365.299 225.57C365.302 225.708 365.418 225.816 365.552 225.816ZM365.203 219.592C365.209 219.592 365.211 219.592 365.217 219.592C365.36 219.583 365.468 219.46 365.459 219.316L365.278 216.204C365.27 216.061 365.153 215.961 365.004 215.961C364.862 215.97 364.754 216.093 364.763 216.236L364.943 219.349C364.955 219.483 365.069 219.592 365.203 219.592ZM364.835 213.367C364.841 213.367 364.847 213.367 364.85 213.367C364.993 213.358 365.101 213.235 365.092 213.092L364.9 209.98C364.891 209.836 364.774 209.716 364.626 209.737C364.483 209.745 364.375 209.868 364.384 210.012L364.576 213.124C364.585 213.262 364.698 213.367 364.835 213.367ZM364.445 207.145C364.451 207.145 364.456 207.145 364.462 207.145C364.605 207.137 364.713 207.014 364.704 206.87L364.5 203.761C364.491 203.62 364.378 203.486 364.226 203.521C364.083 203.53 363.975 203.653 363.984 203.796L364.188 206.905C364.197 207.04 364.311 207.145 364.445 207.145ZM364.034 200.927C364.04 200.927 364.045 200.927 364.051 200.927C364.194 200.918 364.302 200.795 364.29 200.652C364.22 199.618 364.147 198.585 364.075 197.548C364.066 197.405 363.926 197.285 363.798 197.308C363.655 197.317 363.547 197.443 363.559 197.583C363.631 198.62 363.701 199.653 363.774 200.684C363.786 200.821 363.9 200.927 364.034 200.927ZM363.597 194.714C363.602 194.714 363.608 194.714 363.614 194.714C363.757 194.705 363.862 194.579 363.853 194.436C363.777 193.396 363.701 192.36 363.623 191.321C363.611 191.177 363.492 191.054 363.346 191.081C363.203 191.089 363.098 191.215 363.107 191.359C363.185 192.398 363.261 193.437 363.337 194.474C363.349 194.611 363.462 194.714 363.597 194.714ZM363.133 188.489C363.139 188.489 363.148 188.489 363.153 188.489C363.296 188.478 363.401 188.355 363.39 188.211C363.308 187.175 363.229 186.138 363.145 185.105C363.133 184.964 363.011 184.847 362.868 184.868C362.725 184.879 362.62 185.005 362.632 185.149C362.713 186.179 362.795 187.216 362.877 188.255C362.885 188.387 362.999 188.489 363.133 188.489ZM362.635 182.277C362.643 182.277 362.649 182.277 362.658 182.277C362.801 182.265 362.906 182.139 362.894 181.996C362.807 180.956 362.719 179.92 362.632 178.889C362.62 178.749 362.489 178.64 362.352 178.652C362.209 178.664 362.104 178.79 362.116 178.933C362.203 179.964 362.291 181 362.378 182.039C362.39 182.174 362.503 182.277 362.635 182.277ZM362.101 176.067C362.11 176.067 362.116 176.067 362.124 176.067C362.267 176.052 362.372 175.929 362.358 175.786C362.264 174.743 362.171 173.707 362.075 172.679C362.06 172.536 361.935 172.433 361.792 172.445C361.649 172.46 361.547 172.586 361.559 172.729C361.655 173.757 361.748 174.79 361.842 175.832C361.856 175.964 361.97 176.067 362.101 176.067ZM361.524 169.86C361.533 169.86 361.541 169.86 361.55 169.86C361.693 169.845 361.795 169.719 361.783 169.576C361.681 168.533 361.579 167.497 361.474 166.472C361.46 166.329 361.332 166.223 361.192 166.241C361.049 166.256 360.947 166.381 360.961 166.525C361.066 167.55 361.168 168.583 361.27 169.626C361.279 169.757 361.393 169.86 361.524 169.86ZM360.891 163.656C360.9 163.656 360.909 163.656 360.921 163.656C361.063 163.638 361.165 163.512 361.151 163.369C361.04 162.321 360.926 161.287 360.81 160.268C360.792 160.125 360.661 160.028 360.524 160.04C360.381 160.057 360.279 160.183 360.297 160.327C360.41 161.343 360.524 162.376 360.638 163.424C360.649 163.559 360.76 163.656 360.891 163.656ZM360.189 157.46C360.201 157.46 360.209 157.46 360.221 157.458C360.364 157.44 360.463 157.311 360.445 157.168C360.32 156.117 360.192 155.083 360.064 154.07C360.046 153.929 359.918 153.833 359.775 153.848C359.632 153.865 359.533 153.997 359.551 154.137C359.679 155.147 359.807 156.178 359.932 157.229C359.95 157.364 360.061 157.46 360.189 157.46ZM359.399 151.274C359.411 151.274 359.422 151.274 359.434 151.271C359.574 151.251 359.673 151.119 359.655 150.978C359.51 149.921 359.364 148.888 359.215 147.889C359.195 147.746 359.061 147.649 358.921 147.673C358.781 147.693 358.682 147.825 358.705 147.968C358.854 148.967 359 149.997 359.145 151.051C359.16 151.18 359.274 151.274 359.399 151.274ZM358.478 145.105C358.492 145.105 358.507 145.105 358.522 145.102C358.661 145.079 358.758 144.944 358.734 144.803C358.559 143.735 358.382 142.707 358.201 141.723C358.175 141.583 358.043 141.486 357.901 141.516C357.761 141.542 357.667 141.677 357.694 141.817C357.874 142.798 358.049 143.823 358.224 144.888C358.245 145.014 358.352 145.105 358.478 145.105ZM357.344 138.968C357.361 138.968 357.379 138.965 357.399 138.962C357.539 138.933 357.627 138.796 357.597 138.655C357.364 137.554 357.128 136.529 356.895 135.61C356.86 135.473 356.717 135.391 356.58 135.423C356.443 135.458 356.359 135.598 356.394 135.739C356.627 136.652 356.86 137.671 357.09 138.763C357.119 138.883 357.227 138.968 357.344 138.968Z" fill="#2C3637"/>
<path d="M351.117 48.4799C351.359 48.4799 351.571 48.3101 351.624 48.0642C351.679 47.7831 351.498 47.5108 351.219 47.4523L318.131 40.7241C317.851 40.6685 317.58 40.85 317.521 41.1311C317.466 41.4122 317.647 41.6845 317.927 41.743L351.015 48.4711C351.05 48.477 351.085 48.4799 351.117 48.4799Z" fill="#2C3637"/>
<g opacity="0.76">
<g opacity="0.76">
<path opacity="0.76" d="M348.177 274.551C347.865 276.826 348.39 278.448 348.39 278.448C366.195 279.312 376.129 276.387 376.129 276.387C376.082 275.034 375.992 273.811 375.858 272.692C369.352 273.676 356.141 275.397 348.177 274.551Z" fill="#1E1E1E"/>
</g>
</g>
<g opacity="0.76">
<g opacity="0.76">
<path opacity="0.76" d="M303.137 275.547C320.735 278.396 330.928 276.601 330.928 276.601C331.019 275.424 331.071 274.338 331.077 273.331C325.786 273.559 313.619 273.864 303.169 272.558C302.883 274.318 303.137 275.547 303.137 275.547Z" fill="#1E1E1E"/>
</g>
</g>
<path d="M265.565 102.406C265.565 102.406 272.71 101.331 274.208 103.867C275.706 106.402 273.214 107.585 273.153 108.232C273.091 108.879 272.943 111.663 269.73 112.413C266.518 113.162 263.772 113.561 263.778 109.968C263.787 106.376 265.565 102.406 265.565 102.406Z" fill="white" stroke="#050505" stroke-width="0.5" stroke-miterlimit="10"/>
<path d="M330.613 160.795C334.094 180.455 336.318 185.099 335.015 198.204C334.117 207.271 334.458 216.546 334.755 221.404C336.997 212.181 339.373 201.972 341.448 192.073C337.545 176.749 328.783 140.663 329.797 128.741C329.8 128.741 327.133 141.143 330.613 160.795Z" fill="#1E1E1E"/>
<path d="M366.062 70.6448C366.062 70.6448 355.312 98.9946 357.965 116.916L339.167 115.759L352.548 111.361C352.545 111.361 346.387 73.2904 366.062 70.6448Z" fill="#0860DB"/>
<g opacity="0.8">
<path d="M66.436 278.58H71.7969L71.7969 78.6393H66.436L66.436 278.58Z" fill="#C3DCF8"/>
<path d="M66.4436 78.644C66.4436 79.1514 66.4804 278.502 66.4804 278.502H16.8623V89.6689L66.4436 78.644Z" fill="#D7E9FD"/>
<path d="M22.5391 106.215L22.7826 158.996C22.9922 158.97 23.1989 158.959 23.4028 158.959C26.1129 158.959 28.387 161.155 28.3983 163.944L55.9331 160.552C55.9217 158.012 57.8078 155.867 60.3254 155.558L60.0762 100.312C59.7222 100.388 59.371 100.422 59.0255 100.422C56.3437 100.422 54.0442 98.2486 54.03 95.4343L26.5038 101.293C26.5151 103.668 24.8612 105.722 22.5391 106.215ZM24.4704 107.579C26.365 106.672 27.764 104.937 28.2454 102.891L52.5093 97.73C53.3702 100.156 55.5451 101.964 58.1646 102.296L58.3968 154.076C56.3295 154.892 54.7692 156.663 54.2226 158.82L29.9814 161.807C29.2026 159.438 27.1834 157.627 24.6998 157.154L24.4704 107.579Z" fill="#C3DBF8"/>
<path d="M22.627 202.399L22.7374 265.306C22.7402 265.306 22.7431 265.306 22.7459 265.306C25.507 265.306 27.7442 267.542 27.7499 270.305L34.9458 270.294C34.9458 267.531 37.1802 265.292 39.9413 265.286V201.759C39.7941 201.77 39.6496 201.778 39.5052 201.778C36.7724 201.778 34.5069 199.559 34.5069 196.771L27.2005 197.4C27.2062 200.001 25.2182 202.175 22.627 202.399ZM24.5527 203.927C26.6681 203.15 28.3021 201.365 28.8883 199.188L32.8955 198.842C33.6318 201.195 35.5858 203.008 38.0156 203.544V263.634C35.7444 264.297 33.949 266.094 33.292 268.37L29.3981 268.378C28.7354 266.102 26.9343 264.305 24.6574 263.651L24.5527 203.927Z" fill="#C3DBF8"/>
<path d="M43.1509 200.619V265.26H43.1594C45.9233 265.26 48.1634 267.502 48.1634 270.268L54.0396 270.256C54.0594 267.507 56.2882 265.291 59.0351 265.285L59.5335 200.106C59.3863 200.117 59.2419 200.125 59.0974 200.125C56.3505 200.125 54.0793 197.881 54.0991 195.078L47.7244 195.628C47.7244 198.229 45.7393 200.395 43.1509 200.619ZM45.0738 202.158C47.2203 201.392 48.843 199.621 49.4208 197.416L52.4736 197.152C52.7964 198.215 53.3769 199.19 54.1812 200.001C55.1327 200.959 56.3108 201.605 57.5908 201.888L57.1207 263.633C54.8609 264.291 53.0654 266.076 52.3971 268.332L49.8144 268.338C49.1546 266.059 47.3535 264.259 45.0738 263.602V202.158Z" fill="#C3DBF8"/>
</g>
<g opacity="0.8">
<path d="M55.1153 182.597C56.232 182.597 57.1372 180.841 57.1372 178.675C57.1372 176.509 56.232 174.752 55.1153 174.752C53.9985 174.752 53.0933 176.509 53.0933 178.675C53.0933 180.841 53.9985 182.597 55.1153 182.597Z" fill="#3E4654"/>
<path d="M51.2031 177.292V180.387H55.4397C55.5643 179.877 55.6351 179.304 55.6351 178.703C55.6351 178.207 55.5869 177.731 55.4991 177.295H51.2031V177.292Z" fill="#D1D1D1"/>
<path d="M48.2812 178.675C48.2812 181.94 49.6462 184.588 51.3284 184.588C53.0106 184.588 54.3755 181.94 54.3755 178.675C54.3755 175.411 53.0106 172.763 51.3284 172.763C49.6462 172.761 48.2812 175.408 48.2812 178.675Z" fill="#1AAB91"/>
<path d="M47.4658 178.675C47.4658 181.94 48.8308 184.588 50.513 184.588C52.1951 184.588 53.5601 181.94 53.5601 178.675C53.5601 175.411 52.1951 172.763 50.513 172.763C48.8308 172.761 47.4658 175.408 47.4658 178.675Z" fill="#1FC8A9"/>
</g>
<path d="M95.8329 259.354C95.8329 259.354 93.2354 261.924 93.1771 262.87C93.1189 263.811 92.9482 273.922 94.0055 274.864C95.067 275.809 98.1806 276.476 97.1816 277.538C96.424 278.342 90.6005 278.167 86.7417 277.955C85.6136 277.892 84.2025 268.773 83.7571 267.436C83.1077 265.49 81.0597 260.591 81.6508 259.237C81.938 258.579 83.782 257.729 85.7177 256.463C87.7532 255.13 89.7013 252.159 89.7013 252.159L95.8329 259.354Z" fill="white" stroke="black" stroke-miterlimit="10"/>
<path d="M130.585 265.67C130.585 265.67 128.262 272.331 128.258 272.348C128.083 273.402 127.404 276.009 127.404 276.972C127.404 280.575 143.43 273.914 139.838 272.314C139.513 272.168 138.494 271.015 138.385 269.79C138.219 267.898 139.734 265.528 139.734 265.528L130.585 265.67Z" fill="white" stroke="black" stroke-miterlimit="10"/>
<path d="M129.246 146.9L120.95 156.586L112.816 207.256L87.2158 254.527C87.2158 254.527 91.0663 260.442 95.1998 261.371L131.535 213.596L151.229 153.786L150.538 140.497L129.246 146.9Z" fill="#13151C"/>
<path d="M150.013 137.547L155.745 155.244C155.745 155.244 160.79 207.963 160.074 211.592C158.321 220.453 140.626 268.694 140.626 268.694L129.287 267.249L141.733 210.209L120.999 156.627L150.013 137.547Z" fill="#282B3B"/>
<path d="M205.06 77.3079C202.379 80.2699 202.962 80.624 202.608 80.9948C202.188 81.4322 194.408 83.0902 194.408 83.0902C194.408 83.0902 171.509 88.1393 170.264 88.3643L146.512 82.9569L140.73 94.4757C140.73 94.4757 166.714 99.6414 168.117 99.6622C169.519 99.683 199.665 89.085 202.35 88.2435C202.35 88.2435 205.922 88.4767 208.165 88.5434C210.413 88.6101 212.557 87.6352 213.194 87.5519C213.285 87.5394 215.383 87.1395 217.827 85.923C219.933 84.8774 217.465 84.8566 217.465 84.8566C217.465 84.8566 213.219 86.0605 213.181 85.6939C213.152 85.4106 215.508 84.8982 217.852 83.7651C218.455 83.4735 219.051 83.186 219.592 82.9152C221.015 82.207 220.999 81.0822 219.388 81.578C218.822 81.753 217.885 82.0654 217.248 82.3903C216.561 82.7403 215.82 82.8278 215.2 83.0277C213.968 83.4235 213.073 83.7318 213.081 83.6693C213.094 83.5901 212.798 83.486 213.427 83.1569C214.184 82.7611 215.974 82.2904 217.044 81.6196C217.652 81.2364 218.967 80.5198 218.967 80.5198C218.967 80.5198 221.161 79.0826 220.949 78.7868C220.483 78.1411 218.947 78.7952 218.189 79.4284C217.506 79.57 216.145 80.3657 216.145 80.3657C216.145 80.3657 213.036 81.3239 212.894 80.8656C212.836 80.6823 214.438 79.7533 216.041 78.641C217.735 77.4662 218.897 76.5372 218.734 76.1581C218.476 75.5582 217.048 76.3914 217.048 76.3914C217.048 76.3914 215.791 77.1288 215.354 77.3413C214.842 77.587 213.256 78.2078 213.256 78.2078C213.256 78.2078 207.632 80.0908 207.537 79.645C207.437 79.1993 207.62 77.9536 207.928 77.712C208.236 77.4662 209.027 77.3329 209.335 77.0913C209.643 76.8497 210.255 76.2623 209.993 75.8415C209.73 75.4208 207.391 75.9832 207.391 75.9832C207.391 75.9832 205.834 76.4498 205.06 77.3079Z" fill="white" stroke="black" stroke-width="0.5" stroke-miterlimit="10"/>
<path d="M154.655 84.1777C154.655 84.1777 153.839 89.2268 153.311 91.0973C152.874 92.6512 149.802 99.0333 149.802 99.0333C149.802 99.0333 138.787 95.4215 133.584 93.351C127.269 90.8431 119.972 85.4441 120.443 84.7567C121.77 82.8404 123.918 80.5992 126.949 79.841C137.434 77.2206 154.655 84.1777 154.655 84.1777Z" fill="#1964D1" stroke="black" stroke-width="0.5" stroke-miterlimit="10"/>
<path d="M155.93 154.874C145.423 159.023 120.722 156.628 120.722 156.628C120.722 156.628 122.287 145.834 122.841 138.543C123.394 131.261 118.757 119.726 116.801 99.7129C116.384 95.4678 118.045 84.0074 123.99 80.408C126.079 79.1457 127.357 78.9791 127.357 78.9791C127.411 78.9791 135.537 77.3211 139.683 78.5958C140.861 79.6456 144.532 82.6784 146.647 86.2278C149.423 90.9269 151.7 96.3468 152.237 98.1256C154.631 106.062 155.651 129.041 155.651 133.378C155.655 137.718 155.93 154.874 155.93 154.874Z" fill="#2F7BFF" stroke="black" stroke-width="0.5" stroke-miterlimit="10"/>
<path d="M146.652 86.232C146.647 86.2362 146.635 86.2362 146.622 86.2445C142.585 87.5026 127.354 79.025 127.354 79.025L127.358 78.9792L129.206 66.8897C129.206 66.8897 138.713 64.6484 138.16 68.0853C137.606 71.518 139.45 78.3793 139.45 78.3793C139.513 78.4417 139.588 78.5126 139.687 78.5959C140.865 79.654 144.537 82.6868 146.652 86.232Z" fill="white" stroke="black" stroke-width="0.5" stroke-miterlimit="10"/>
<path d="M138.159 68.0895C138.712 64.6567 129.205 66.898 129.205 66.898L129.051 67.902C129.33 68.5727 129.671 69.1518 130.083 69.5934C132.206 71.8638 135.528 73.2302 138.396 73.3343C138.109 71.4805 137.93 69.4975 138.159 68.0895Z" fill="#DDDDDD"/>
<path d="M127.369 48.3102C127.077 48.2061 125.033 63.2742 128.913 67.4193C132.788 71.5643 140.339 72.9224 143.049 69.6564C146.046 66.0445 145.897 49.8516 139.869 45.5857C133.837 41.3198 127.369 48.3102 127.369 48.3102Z" fill="white" stroke="black" stroke-width="0.5" stroke-miterlimit="10"/>
<path d="M144.539 55.8894L144.767 59.5021L146.708 58.9931C147.065 58.8974 147.193 58.481 146.939 58.2333L144.539 55.8894Z" fill="black"/>
<path d="M145.137 60.572C145.137 63.5832 143.169 65.4221 140.921 62.7311C141.992 62.4108 144.815 62.1097 145.137 60.572Z" fill="#090909"/>
<path d="M139.942 52.0967C139.276 52.3864 140.208 51.1661 141.143 50.9951C142.079 50.824 143.06 51.0407 143.33 51.4786C143.33 51.4786 141.539 51.4033 139.942 52.0967Z" fill="black"/>
<path d="M142.141 53.9342C142.214 54.5984 142.538 55.1099 142.861 55.0717C143.185 55.0374 143.389 54.4686 143.316 53.8044C143.242 53.1401 142.919 52.6286 142.595 52.6668C142.272 52.705 142.068 53.2699 142.141 53.9342Z" fill="black"/>
<path d="M137.573 37.5236C132.915 38.4692 129.901 41.2979 128.79 42.5019C126.675 42.7476 123.803 43.9099 120.835 48.7965C117.184 54.8038 119.882 61.4609 124.127 64.727C128.378 67.9931 128.328 71.7841 128.328 71.7841C128.328 71.7841 135.525 68.0847 134.825 62.3899C134.53 59.9987 133.498 59.4571 134.272 57.5866C135.079 55.6453 134.476 52.625 134.626 50.0005L135.059 48.3466C135.059 48.3466 138.072 46.0137 141.024 46.6719C143.971 47.3301 143.546 36.3155 137.573 37.5236Z" fill="#231F20"/>
<path d="M135.453 59.1568C135.482 60.994 135.111 62.4687 134.041 62.4854C132.976 62.5021 132.672 61.7855 131.789 59.1902C130.961 56.7573 131.968 55.8449 133.034 55.8283C134.104 55.8116 135.419 57.3197 135.453 59.1568Z" fill="white" stroke="black" stroke-width="0.5" stroke-miterlimit="10"/>
<path d="M85.8431 256.397C85.8431 256.397 91.267 273.077 93.6106 273.902C94.2308 274.119 97.7816 275.093 98.3435 276.435C98.356 276.468 98.3685 276.51 98.381 276.556C98.5642 277.405 97.8523 278.189 96.9824 278.189H85.8639C85.8639 278.189 84.2863 270.657 83.6619 267.345C83.6619 267.345 80.3567 259.259 80.7272 258.521C81.0935 257.784 85.8431 256.397 85.8431 256.397Z" fill="#231F20"/>
<path d="M126.486 278.16L128.322 272.277C128.322 272.277 132.177 273.931 134.104 273.656C136.031 273.381 139.794 272.277 139.794 272.277C147.487 274.844 153.785 276.093 152.64 278.16H126.486Z" fill="#231F20"/>
<path d="M205.722 102.775C202.184 104.925 202.392 105.179 201.93 105.441C201.385 105.754 192.976 105.383 192.976 105.383C192.976 105.383 168.18 104.458 166.843 104.362L143.978 93.2603L134.966 102.784C134.966 102.784 160.179 114.215 161.607 114.586C163.035 114.956 196.744 112.411 199.716 112.282C199.716 112.282 203.308 113.398 205.589 114.027C207.87 114.656 210.33 114.261 211.001 114.344C211.101 114.356 213.353 114.498 216.179 113.952C218.618 113.482 216.096 112.844 216.096 112.844C216.096 112.844 211.425 112.928 211.488 112.569C211.533 112.294 214.085 112.394 216.787 111.903C217.482 111.778 218.169 111.649 218.797 111.528C220.446 111.207 220.729 110.132 218.947 110.203C218.319 110.228 217.278 110.29 216.537 110.44C215.742 110.599 214.959 110.499 214.268 110.532C212.899 110.603 211.979 110.665 212.008 110.611C212.046 110.536 211.688 110.37 212.42 110.211C213.303 110.024 215.263 110.024 216.537 109.653C217.261 109.441 218.801 109.087 218.801 109.087C218.801 109.087 220.625 107.995 220.612 107.849C220.546 107.066 219.243 107.437 218.294 107.849C217.557 107.812 215.946 108.228 215.946 108.228C215.946 108.228 212.508 108.362 212.483 107.891C212.474 107.712 214.46 107.574 216.504 106.924C218.847 106.179 219.426 105.125 219.359 104.708C219.255 104.071 217.936 104.667 217.936 104.667C217.936 104.667 216.129 105.491 215.625 105.583C215.034 105.691 207.308 105.833 207.325 105.383C207.342 104.933 208.091 104.342 208.47 104.187C208.849 104.033 209.577 103.821 209.956 103.667C210.335 103.513 210.597 102.725 210.443 102.259C210.289 101.792 208.607 102.042 208.607 102.042C208.607 102.042 206.742 102.154 205.722 102.775Z" fill="white" stroke="black" stroke-width="0.5" stroke-miterlimit="10"/>
<path d="M141.737 112.998C141.737 112.998 146.237 107.319 147.806 105.02C150.849 100.558 153.401 95.5257 153.401 95.5257C153.401 95.5257 140.863 88.2979 136.193 85.8358C119.051 76.7916 119.446 90.2808 120.246 93.272C122.023 99.9666 141.737 112.998 141.737 112.998Z" fill="#1964D1"/>
<g clip-path="url(#clip1_2911_13191)">
<path d="M46.3651 49.0877C46.6349 49.4899 47.0899 49.732 47.576 49.732C48.0631 49.732 48.5172 49.4899 48.7869 49.0877C52.2313 43.9517 57.3048 37.6091 60.8395 31.1585C63.6668 26.0003 65.0407 21.6021 65.0407 17.7103C65.0407 8.13754 57.2059 0.349121 47.576 0.349121C37.9462 0.349121 30.1113 8.13754 30.1113 17.7103C30.1113 21.6021 31.4852 26.0012 34.3126 31.1585C37.8453 37.6043 42.9275 43.9623 46.3651 49.0877ZM47.576 3.24265C55.601 3.24265 62.1299 9.73284 62.1299 17.7103C62.1299 21.1054 60.8715 25.0522 58.2838 29.7744C55.2362 35.3348 50.8875 40.9753 47.576 45.7168C44.2645 40.9762 39.9158 35.3348 36.8682 29.7744C34.2805 25.0522 33.0221 21.1054 33.0221 17.7103C33.0221 9.73284 39.551 3.24265 47.576 3.24265Z" fill="#2F7BFF"/>
<path d="M47.5761 26.391C52.3915 26.391 56.3084 22.4972 56.3084 17.7104C56.3084 12.9235 52.3915 9.02979 47.5761 9.02979C42.7607 9.02979 38.8438 12.9235 38.8438 17.7104C38.8438 22.4972 42.7607 26.391 47.5761 26.391ZM47.5761 11.9233C50.7857 11.9233 53.3977 14.5198 53.3977 17.7104C53.3977 20.901 50.7857 23.4974 47.5761 23.4974C44.3665 23.4974 41.7545 20.901 41.7545 17.7104C41.7545 14.5198 44.3665 11.9233 47.5761 11.9233Z" fill="#2F7BFF"/>
</g>
<path d="M0 278.636L400.583 278.584" stroke="black" stroke-width="1.133" stroke-miterlimit="10"/>
<defs>
<clipPath id="clip0_2911_13191">
<rect width="264.982" height="134.9" fill="white" transform="translate(81.9033 143.68)"/>
</clipPath>
<clipPath id="clip1_2911_13191">
<rect width="34.9294" height="49.3829" fill="white" transform="translate(30.1113 0.349121)"/>
</clipPath>
</defs>
</svg>
