<svg width="433" height="337" viewBox="0 0 433 337" fill="none" xmlns="http://www.w3.org/2000/svg">
<path d="M317.84 214.826C320.532 212.901 323.355 211.164 326.286 209.628C341.49 201.816 355.726 193.796 367.601 181.49C381.666 166.912 391.525 147.225 391.527 126.57C391.529 105.914 380.408 84.748 362.107 76.1844C339.331 65.5222 313.276 75.6603 288.495 78.2159C256.548 81.5101 224.786 71.7857 193.261 65.0717C161.736 58.3577 127.473 54.9401 98.8321 69.7217C75.7793 81.6336 58.8038 105.184 54.3661 131.43C49.9283 157.675 58.1367 185.984 75.866 205.582C101.442 233.859 141.674 241.474 178.98 243.267C206.467 244.597 234.018 243.643 261.347 240.413C273.662 238.955 285.188 236.449 296.065 230.324C303.896 225.921 310.576 219.922 317.84 214.826Z" stroke="#F4EBD7" stroke-width="1.32447" stroke-miterlimit="10"/>
<path d="M148.552 240.746C129.348 238.474 110.023 233.833 93.0557 223.675C76.0889 213.518 61.604 197.274 55.9513 177.414C50.2985 157.553 54.7666 134.141 69.3056 120.897C87.4073 104.416 114.226 107.036 137.797 102.705C168.183 97.1342 194.835 79.0974 222.094 64.0169C249.353 48.9365 280.038 36.2904 310.513 42.673C335.049 47.8124 357.155 65.8189 368.428 89.8419C379.701 113.865 379.87 143.337 368.862 167.02C352.991 201.205 317.944 219.532 284.01 231.47C259.027 240.261 233.332 246.88 207.211 251.255C197.623 252.857 187.838 254.157 178.189 252.639C168.54 251.12 158.887 246.453 152.912 238.097L148.552 240.746Z" fill="#D3EEEF"/>
<rect x="202.435" y="1.5282" width="147.73" height="274.573" rx="15.2824" fill="#2C374A" stroke="#2C374A" stroke-width="3.05647"/>
<path fill-rule="evenodd" clip-rule="evenodd" d="M217.717 3.05643C210.121 3.05643 203.963 9.21436 203.963 16.8105V260.819C203.963 268.415 210.121 274.573 217.717 274.573H334.882C342.478 274.573 348.636 268.415 348.636 260.819V16.8106C348.636 9.21437 342.478 3.05643 334.882 3.05643H217.717ZM301.77 12.2259V3.05644H250.829V12.2259C250.829 13.6326 251.969 14.7729 253.376 14.7729H299.223C300.63 14.7729 301.77 13.6326 301.77 12.2259Z" fill="#F1F1F1"/>
<path d="M0 279.044H432.984" stroke="#102048" stroke-width="2.54706" stroke-miterlimit="10"/>
<path opacity="0.15" d="M52.7003 303.037C64.0636 303.037 73.2754 301.283 73.2754 299.119C73.2754 296.955 64.0636 295.201 52.7003 295.201C41.337 295.201 32.1252 296.955 32.1252 299.119C32.1252 301.283 41.337 303.037 52.7003 303.037Z" fill="#1F3C88"/>
<path d="M43.2618 291.493C38.8111 291.493 33.8557 284.976 33.8557 280.56C33.8557 276.07 37.4336 272.419 41.8323 272.419C46.2311 272.419 49.8133 276.07 49.8133 280.56C49.8133 284.788 48.033 291.493 43.2618 291.493ZM41.8323 275.126C38.9258 275.126 36.563 277.562 36.563 280.56C36.563 283.865 40.5697 288.79 43.2618 288.79C45.7373 288.79 47.1039 283.926 47.1039 280.56C47.1039 277.562 44.7388 275.126 41.8323 275.126Z" fill="#1F3C88"/>
<path d="M58.6542 298.536H46.9394C46.0011 298.536 45.097 298.183 44.4066 297.548C43.7162 296.912 43.2898 296.041 43.2121 295.106L40.7886 265.908H65.2903L62.3751 295.166C62.2832 296.089 61.8516 296.945 61.164 297.568C60.4764 298.191 59.5819 298.536 58.6542 298.536Z" fill="#1F3C88"/>
<path d="M43.6302 230.905C42.8093 233.651 42.4433 236.48 42.9089 239.2C43.1404 240.556 43.527 241.88 44.0612 243.148C44.622 244.416 45.2969 245.63 46.0775 246.776C46.8767 247.931 47.7545 249.03 48.7046 250.066C48.9342 250.315 49.1833 250.622 49.4345 250.932C49.6857 251.242 49.9413 251.523 50.1709 251.842L50.8206 252.842C51.0253 253.19 51.2048 253.552 51.3577 253.925C51.53 254.296 51.6656 254.682 51.7627 255.079C51.879 255.481 51.9516 255.894 51.9793 256.312C52.0053 256.521 52.0053 256.733 51.9793 256.942L51.936 257.572C51.9057 257.789 51.8494 257.984 51.8039 258.189C51.7655 258.395 51.706 258.596 51.6263 258.789L51.3902 259.363C51.2928 259.545 51.1888 259.721 51.087 259.896C50.9878 260.073 50.8741 260.241 50.747 260.399C50.6321 260.563 50.5054 260.718 50.368 260.864C49.8431 261.459 49.2214 261.961 48.5292 262.348L48.0787 261.631C49.0793 260.749 49.9023 259.563 50.1795 258.339C50.226 258.19 50.2543 258.036 50.264 257.88C50.2792 257.724 50.3116 257.572 50.316 257.418L50.2965 256.953C50.301 256.798 50.2827 256.643 50.2423 256.494C50.1988 256.184 50.1218 255.879 50.0128 255.586C49.9177 255.285 49.7922 254.995 49.6381 254.72C49.4893 254.429 49.3252 254.146 49.1464 253.873L48.566 253.061C48.3494 252.799 48.1112 252.554 47.8881 252.298L47.1691 251.517C46.6558 250.964 46.1425 250.412 45.6725 249.816C45.1852 249.233 44.7276 248.625 44.3016 247.995C43.4443 246.722 42.7241 245.361 42.1531 243.936C41.5957 242.492 41.2358 240.979 41.0832 239.438C40.767 236.345 41.5012 233.244 42.857 230.591L43.6302 230.905Z" fill="#D3DFFF"/>
<path d="M54.2705 230.069C55.8542 231.351 57.0138 233.082 57.5971 235.035C57.8836 236.028 58.0294 237.056 58.0303 238.089C58.0225 239.109 57.9034 240.126 57.6751 241.121C57.4398 242.094 57.1232 243.046 56.7286 243.967L56.4731 244.595C56.3973 244.792 56.3041 244.987 56.2392 245.184L56.0941 245.766C56.0334 245.966 56.0269 246.154 55.9836 246.349C55.9527 246.537 55.9397 246.728 55.9446 246.919C55.9416 247.103 55.9576 247.287 55.9923 247.469C56.0204 247.648 56.0639 247.825 56.1222 247.997C56.193 248.166 56.2763 248.328 56.3713 248.485C56.7481 249.134 57.4693 249.667 58.2252 250.001L58.0584 250.83C56.9585 250.724 55.9349 250.221 55.1801 249.414C54.989 249.194 54.8166 248.96 54.6646 248.712C54.5251 248.455 54.4077 248.186 54.3138 247.908C54.2224 247.634 54.1606 247.35 54.1297 247.062C54.0885 246.782 54.074 246.499 54.0864 246.217C54.0889 245.941 54.1113 245.666 54.1535 245.394L54.3138 244.606C54.3809 244.348 54.4719 244.107 54.5498 243.856C54.6278 243.605 54.7123 243.349 54.7902 243.154C55.1128 242.324 55.3812 241.474 55.5938 240.61C55.7956 239.762 55.9246 238.898 55.9793 238.028C56.0163 237.168 55.9596 236.307 55.8103 235.459C55.5115 233.757 54.7123 232.152 53.6619 230.632L54.2705 230.069Z" fill="#D3DFFF"/>
<path opacity="0.15" d="M365.253 304.949C387.98 304.949 406.403 302.221 406.403 298.857C406.403 295.492 387.98 292.764 365.253 292.764C342.527 292.764 324.103 295.492 324.103 298.857C324.103 302.221 342.527 304.949 365.253 304.949Z" fill="#1F3C88"/>
<path d="M367.874 199.635H362.098V256.125H367.874V199.635Z" fill="#27481F"/>
<path d="M366.427 195.84C366.367 199.102 366.109 202.357 365.654 205.587C365.409 207.298 365.203 208.285 365.203 208.285C349.436 203.167 342.203 193.395 339.192 183.534C338.911 182.636 338.672 181.732 338.467 180.831C335.283 167.113 339.55 154.041 339.55 154.041C346.779 155.557 352.111 158.704 356.049 162.758C356.724 163.453 357.348 164.166 357.944 164.909C365.21 174.024 366.6 186.582 366.427 195.84Z" fill="#1FC9AA"/>
<path d="M386.868 168.53C386.554 179.497 382.287 192.276 369.054 204.545C368.041 205.487 366.969 206.431 365.842 207.36C365.723 207.462 365.604 207.56 365.485 207.657C365.485 207.657 363.293 204.443 361.034 199.21C361.002 199.132 360.969 199.063 360.943 198.994C360.07 196.958 359.305 194.877 358.652 192.761C358.044 190.802 357.538 188.812 357.136 186.8C355.544 178.728 355.54 169.153 359.951 159.678C363.254 152.542 369.048 145.466 378.556 139.114C378.545 139.116 387.355 151.699 386.868 168.53Z" fill="#1FC9AA"/>
<path opacity="0.5" d="M369.052 204.545C368.038 205.487 366.966 206.431 365.84 207.36C365.721 207.462 365.602 207.56 365.483 207.657C365.483 207.657 363.291 204.443 361.032 199.21C361.002 199.139 360.971 199.059 360.941 198.994C360.751 198.548 360.558 198.086 360.369 197.612C360.296 197.43 360.224 197.24 360.153 197.055C360.029 196.737 359.904 196.421 359.782 196.092C359.685 195.834 359.592 195.563 359.499 195.297C359.406 195.03 359.297 194.747 359.202 194.463C359.014 193.909 358.83 193.341 358.65 192.761C358.041 190.802 357.535 188.812 357.134 186.8C355.834 180.216 355.592 172.632 357.942 164.926C357.35 164.183 356.722 163.47 356.046 162.775C354.53 166.782 352.064 175.963 351.769 184.243C348.124 182.815 343.743 181.644 338.464 180.849C338.681 181.75 338.898 182.653 339.19 183.552C336.943 183.015 334.509 182.549 331.887 182.155C333.96 189.226 342.283 211.75 363.978 212.086C364.531 212.098 365.09 212.093 365.656 212.071C366.551 212.043 367.465 211.971 368.407 211.854C368.402 211.854 369.383 208.785 369.052 204.545Z" fill="#119E85"/>
<path d="M365.803 210.88C365.806 210.898 365.806 210.916 365.803 210.934C365.803 211.07 365.782 211.2 365.766 211.324C365.756 211.383 365.749 211.443 365.745 211.504C365.734 211.605 365.723 211.703 365.706 211.8C365.669 212.099 365.626 212.374 365.582 212.641C365.554 212.814 365.522 212.981 365.489 213.145C365.344 213.933 365.139 214.709 364.878 215.467C363.401 215.563 361.92 215.563 360.443 215.467C334.752 213.734 329.472 181.808 329.472 181.808C330.299 181.912 331.108 182.026 331.898 182.15C334.523 182.54 336.957 183.006 339.201 183.547C348.488 185.756 354.632 189.085 358.66 192.767C359.795 193.797 360.828 194.934 361.742 196.163C363.818 198.931 365.166 202.176 365.662 205.6C365.753 206.208 365.814 206.797 365.851 207.371C365.926 208.54 365.91 209.713 365.803 210.88Z" fill="#1FC9AA"/>
<path opacity="0.38" d="M386.868 168.53C386.696 174.582 385.313 180.539 382.801 186.049C380.046 192.152 375.671 198.411 369.054 204.545C369.026 204.566 369 204.595 368.972 204.616C368.582 204.978 368.182 205.342 367.77 205.699C367.651 205.807 367.532 205.916 367.408 206.024C366.899 206.47 366.38 206.919 365.843 207.363C365.806 206.789 365.745 206.199 365.654 205.591C365.158 202.167 363.81 198.922 361.734 196.154C360.819 194.925 359.787 193.788 358.652 192.759C358.044 190.799 357.538 188.81 357.136 186.798C358.507 187.591 359.81 188.494 361.034 189.499C361.797 190.129 362.52 190.806 363.2 191.524C366.601 182.677 373.418 173.613 386.868 168.53Z" fill="#119E85"/>
<path opacity="0.2" d="M365.803 210.88C365.807 210.898 365.807 210.916 365.803 210.934C365.803 211.07 365.782 211.2 365.766 211.324C365.756 211.383 365.749 211.443 365.745 211.504C365.734 211.605 365.723 211.703 365.706 211.8C365.669 212.099 365.626 212.374 365.582 212.641C365.55 212.814 365.522 212.981 365.489 213.145C365.344 213.933 365.139 214.709 364.878 215.467C363.402 215.563 361.92 215.563 360.443 215.467C360.205 213.695 359.518 207.105 361.049 199.223C361.244 198.221 361.483 197.198 361.749 196.163C363.825 198.931 365.173 202.176 365.669 205.6C365.76 206.208 365.821 206.797 365.857 207.371C365.931 208.54 365.913 209.713 365.803 210.88Z" fill="#119E85"/>
<path d="M390.522 248.907L384.172 290.49C383.828 292.733 382.693 294.779 380.972 296.257C379.25 297.735 377.056 298.547 374.787 298.547H355.728C353.46 298.544 351.268 297.73 349.548 296.253C347.827 294.775 346.692 292.732 346.346 290.49L339.994 248.907H390.522Z" fill="#176CFF"/>
<path d="M364.196 215.517C364.196 215.517 357.238 174.247 401.496 168.302C401.496 168.296 404.272 213.522 364.196 215.517Z" fill="#1FC9AA"/>
<path opacity="0.4" d="M390.521 248.907L384.171 290.49C383.828 292.733 382.693 294.779 380.971 296.257C379.25 297.735 377.056 298.547 374.787 298.547H355.728C353.73 298.547 351.782 297.917 350.164 296.745C348.545 295.573 347.338 293.92 346.714 292.021C371.473 288.054 378.118 262.567 379.454 248.922L390.521 248.907Z" fill="#5895FE"/>
<path opacity="0.15" d="M298.506 299.357C298.506 294.28 253.271 290.163 197.467 290.163C141.663 290.163 96.428 294.278 96.428 299.357C96.428 303.472 126.188 306.963 167.208 308.133C171.676 315.462 164.22 324.227 158.504 327.389C148.47 327.889 141.267 329.007 142.401 331.387C147.764 342.649 193.343 330.666 193.343 330.666C193.343 330.666 211.165 331.775 211.165 330.079C211.165 329.299 208.027 328.587 202.864 328.045L203.245 328.023L184.004 308.471C188.409 308.526 192.897 308.553 197.467 308.553C253.271 308.553 298.506 304.436 298.506 299.357Z" fill="#1F3C88"/>
<path d="M307.431 231.819C306.099 253.795 295.021 275.756 276.861 287.841C255.213 302.25 224.946 299.062 200.295 300.897C178.984 302.484 157.51 303.847 136.188 301.579C118.72 299.716 101.102 292.797 92.7591 275.839C84.3991 258.841 83.4938 236.259 91.8537 219.056C94.5077 213.644 98.0305 208.704 102.282 204.432C102.964 203.733 103.675 203.05 104.394 202.385C104.882 201.935 105.376 201.493 105.877 201.06C106.646 200.393 107.437 199.743 108.238 199.111C108.504 198.894 108.769 198.699 109.039 198.496C109.31 198.292 109.576 198.089 109.847 197.887C110.118 197.686 110.389 197.486 110.664 197.292L111.281 196.858C111.623 196.613 111.97 196.375 112.321 196.144C115.432 194.049 118.701 192.199 122.099 190.61C125.368 189.068 128.74 187.756 132.192 186.683C143.406 183.203 155.117 181.969 166.689 180.448C191.242 177.225 216.242 176.117 240.991 176.143C261.187 176.143 283.928 179.175 297.431 196.501C305.059 206.288 308.193 219.3 307.431 231.819Z" fill="#1FC9AA"/>
<path d="M243.949 193.171C243.949 193.171 249.147 188.278 251.919 185.445C254.691 182.613 248.655 182.522 245.688 186.05C242.721 189.578 243.949 193.171 243.949 193.171Z" fill="#F9B384"/>
<path d="M122.103 190.604C118.706 192.193 115.436 194.043 112.325 196.137C111.974 196.37 111.627 196.608 111.285 196.852L110.668 197.285C110.393 197.48 110.122 197.681 109.852 197.881C109.581 198.08 109.31 198.281 109.044 198.489C108.777 198.697 108.509 198.899 108.242 199.104C107.452 199.735 106.679 200.378 105.914 201.038L105.882 201.056C105.379 201.489 104.885 201.931 104.398 202.381C103.679 203.046 102.969 203.728 102.286 204.428C102.305 204.721 102.417 205 102.605 205.225C102.794 205.451 103.049 205.61 103.335 205.68C107.398 206.503 109.434 210.379 112.708 212.584C115.14 214.219 118.012 214.668 120.763 213.73C117.802 220.011 116.169 226.224 117.447 233.244C117.84 235.368 118.507 237.431 119.431 239.384C115.626 236.568 111.959 230.504 110.451 224.362C110.349 223.943 110.084 223.583 109.715 223.36C109.347 223.137 108.904 223.069 108.486 223.172C108.068 223.275 107.707 223.539 107.484 223.908C107.261 224.277 107.193 224.719 107.296 225.137C109.163 232.739 113.915 240.044 118.853 242.897C119.948 243.539 121.151 243.98 122.402 244.196C123.379 245.453 124.474 246.614 125.673 247.662L132.971 249.702L138.927 211.259L122.103 190.604Z" fill="#19947E"/>
<path d="M143.259 216.42C128.168 210.542 117.692 204.291 111.608 200.131C109.679 198.807 108.171 196.957 107.261 194.801C106.352 192.645 106.081 190.273 106.479 187.968L114.261 142.607C114.652 140.307 115.612 138.142 117.053 136.307C118.494 134.473 120.371 133.028 122.513 132.103C133.812 127.247 145.708 123.919 157.887 122.208C162.443 121.931 167.015 122.021 171.557 122.478C176.601 122.976 188.145 126.377 195.483 128.657C197.53 129.292 199.406 130.382 200.972 131.845C202.539 133.307 203.754 135.105 204.527 137.104C207.605 145.035 212.603 158.426 214.198 165.664C219.703 190.662 218.8 188.812 218.8 188.812L224.485 227.255L164.113 230.638L148.682 223.599L143.259 216.42Z" fill="#176CFF"/>
<path d="M180.628 79.026C180.628 79.026 175.28 68.0627 161.068 73.07C150.781 70.8371 142.93 83.0197 150.51 99.601L164.789 102.919L180.628 79.026Z" fill="#102048"/>
<path d="M173.047 110.025V129.42C173.047 131.602 172.18 133.696 170.637 135.239C169.093 136.783 167 137.65 164.817 137.65C161.863 137.649 159.03 136.475 156.942 134.387C154.853 132.298 153.679 129.465 153.678 126.511V110.025H173.047Z" fill="#F9B384"/>
<path d="M173.047 118.071V128.651C164.421 128.694 158.699 117.54 158.699 117.54L173.047 118.071Z" fill="#E28B6D"/>
<path d="M181.572 107.588C181.052 110.274 180.309 113.022 179.244 115.444C177.381 119.693 174.537 122.931 170.195 123.024C160.033 123.241 152.193 109.351 152.193 109.351L153.817 90.4007L161.532 81.7375L182.793 94.8644C182.765 99.1336 182.356 103.392 181.572 107.588Z" fill="#F9B384"/>
<path d="M153.479 103.798C153.479 103.798 155.576 95.2694 162.885 89.7207C162.885 89.7207 173.513 103.595 184.747 96.8938C195.981 90.1928 191.11 76.9966 180.619 79.0259L168.571 77.6745L153.479 82.4782L150.906 94.323L153.479 103.798Z" fill="#102048"/>
<path opacity="0.4" d="M164.146 202.084C153.908 179.963 141.002 190.521 137.844 182.399C133.417 171.018 134.258 158.143 134.234 154.244L128.068 188.964C128.068 188.964 141.836 190.264 146.925 198.563L164.146 202.084Z" fill="#1F3C88"/>
<path d="M134.548 153.651C134.165 156.622 133.712 159.581 133.248 162.53C132.785 165.48 132.259 168.432 131.769 171.384C131.28 174.336 130.714 177.273 130.136 180.21L129.255 184.611C128.936 186.075 128.64 187.541 128.295 188.999L127.849 188.921C128.027 187.433 128.252 185.954 128.453 184.47L129.136 180.032C129.601 177.078 130.099 174.128 130.632 171.183C131.184 168.242 131.693 165.294 132.28 162.359C132.867 159.425 133.446 156.49 134.104 153.568L134.548 153.651Z" fill="#1F3C88"/>
<path d="M194.363 148.16C195.182 152.018 195.94 155.886 196.68 159.758C197.421 163.631 198.114 167.51 198.833 171.386C199.552 175.263 200.193 179.151 200.847 183.038L201.792 188.886C202.084 190.835 202.396 192.784 202.658 194.734L202.242 194.807C201.809 192.882 201.441 190.948 201.04 189.016L199.91 183.212C199.18 179.339 198.468 175.462 197.772 171.581C197.107 167.696 196.403 163.819 195.773 159.927C195.143 156.035 194.504 152.145 193.941 148.243L194.363 148.16Z" fill="#1F3C88"/>
<path opacity="0.4" d="M197.224 166.065C197.945 173.104 186.033 209.336 169.068 209.878L180.077 228.981L193.265 225.924L206.788 216.42L197.224 166.065Z" fill="#1F3C88"/>
<path d="M241.806 212.425H219.755L224.703 170.144H246.754L241.806 212.425Z" fill="#2C374A"/>
<path d="M244.907 208.936C244.499 211.678 244.365 215.704 235.871 215.197L233.367 213.911L235.734 211.312L240.846 208.713L244.907 208.936Z" fill="#F9B384"/>
<path d="M245.708 201.535C245.708 201.535 250.355 207.599 245.684 209.477C242.513 210.711 239.137 211.332 235.734 211.305C237.9 205.213 244.939 205.62 244.939 205.62L245.708 201.535Z" fill="#F9B384"/>
<path d="M245.842 197.611C245.842 197.611 252.249 203.567 246.293 205.237C237.883 207.593 235.284 207.762 235.284 207.762C234.833 203.296 243.18 200.398 243.18 200.398L245.842 197.611Z" fill="#F9B384"/>
<path d="M244.534 192.421C244.534 192.421 253.288 197.745 245.075 200.723C236.863 203.701 234.922 203.655 234.922 203.655C234.472 199.19 243.271 197.656 243.271 197.656L244.534 192.421Z" fill="#F9B384"/>
<path d="M234.922 203.655C234.922 203.655 244.467 202.304 247.309 200.002" stroke="#E28B6D" stroke-width="1.27353" stroke-miterlimit="10"/>
<path d="M235.284 207.762C235.284 207.762 245.21 206.363 248.324 204.197" stroke="#E28B6D" stroke-width="1.27353" stroke-miterlimit="10"/>
<path d="M235.734 211.305C235.734 211.305 241.623 211.509 244.939 209.884" stroke="#E28B6D" stroke-width="1.27353" stroke-miterlimit="10"/>
<path d="M165.187 298.179C166.179 297.637 181.881 301.066 199.299 288.162L176.828 281.755L165.187 298.179Z" fill="#102048"/>
<path d="M264.959 223.647C265.707 222.582 266.352 221.011 265.41 220.113C264.429 219.17 262.826 219.998 261.797 220.886C260.001 222.444 258.335 224.146 256.816 225.975L218.882 233.025L166.903 245.658L175.841 257.065C201.831 258.96 216.632 259.448 232.897 256.578C241.188 255.114 248.597 253.607 254.122 249.102C255.436 248.019 256.682 246.215 255.826 244.749C255.248 243.759 254.046 243.497 252.837 243.507C255.614 242.855 258.309 241.895 260.872 240.644C262.016 240.092 263.287 239.226 263.255 237.959C263.238 237.049 262.501 236.28 261.657 235.955C260.812 235.63 259.881 235.656 258.977 235.721C255.512 235.988 252.103 236.745 248.85 237.97C254.765 233.826 260.79 229.545 264.959 223.647ZM248.759 238.019C248.759 238.006 248.759 238.002 248.777 237.991C248.795 237.985 248.813 237.978 248.831 237.97C248.809 237.985 248.781 238.002 248.759 238.019Z" fill="#19947E"/>
<path d="M177.912 228.602C177.912 228.602 228.537 204.508 245.051 205.591C261.566 206.674 261.024 227.249 254.797 236.183C248.571 245.117 233.952 257.029 180.077 253.509L177.912 228.602Z" fill="black"/>
<path d="M203.245 328.023C200.505 328.799 196.618 328.987 191.268 328.136C191.268 328.136 184.338 329.934 177.515 331.348C172.898 332.305 168.332 333.081 166 333.009C165.798 333.009 165.599 332.994 165.393 332.977C160.914 332.658 155.273 330.324 152.279 326.988C152.279 326.988 152.269 326.967 152.258 326.962C151.462 326.107 150.855 325.094 150.475 323.989C148.851 318.931 152.284 312.798 170.873 314.058C170.873 314.058 177.006 312.618 178.453 308.102C179.9 303.587 169.248 281.935 169.248 281.935L184.409 271.648L199.299 288.162C199.299 288.162 201.556 303.052 201.556 307.925C201.556 307.925 207.869 316.95 208.774 320.92C209.353 323.454 208.086 326.652 203.245 328.023Z" fill="#D3DFFF"/>
<path d="M118.006 190.894C119.738 190.225 121.51 189.685 123.299 189.187C124.196 188.942 125.097 188.715 126.015 188.537C126.472 188.444 126.935 188.364 127.405 188.301C127.642 188.269 127.875 188.245 128.12 188.225C128.374 188.211 128.628 188.216 128.88 188.238C130.83 188.455 132.588 189.055 134.34 189.703C136.092 190.35 137.788 191.108 139.462 191.914C141.137 192.72 142.776 193.592 144.385 194.513C145.994 195.433 147.573 196.417 149.111 197.458C152.165 199.568 155.104 201.883 157.631 204.605L157.311 204.926C155.951 203.696 154.534 202.534 153.059 201.441C151.597 200.337 150.086 199.301 148.537 198.318C145.455 196.334 142.258 194.532 138.964 192.923C137.323 192.111 135.653 191.359 133.955 190.688C132.257 190.056 130.52 189.376 128.792 189.142C128.586 189.114 128.378 189.101 128.17 189.105C127.953 189.105 127.737 189.133 127.52 189.157C127.074 189.204 126.626 189.269 126.177 189.347C125.281 189.503 124.382 189.685 123.487 189.887C121.701 190.294 119.918 190.766 118.168 191.307L118.006 190.894Z" fill="#1F3C88"/>
<path d="M127.015 261.767C133.106 261.36 139.092 261.795 143.439 260.277C148.087 258.653 160.224 259.736 160.224 259.736L153.555 250.124L126.483 256.894L127.015 261.767Z" fill="#19947E"/>
<path d="M127.286 244.034C121.06 234.017 121.06 214.254 128.911 205.32C137.884 195.111 157.066 191.242 167.083 203.154C177.1 215.066 195.509 258.653 199.299 288.162C199.299 288.162 178.995 281.394 165.188 298.179C165.188 298.179 147.049 256.758 143.259 241.597L132.972 249.719L127.286 244.034Z" fill="#2C374A"/>
<path d="M143.259 241.597C143.259 241.597 140.552 240.605 136.761 243.131C136.761 243.131 107.162 242.5 100.575 249.178C93.9891 255.855 99.0398 264.789 108.697 265.783C116.799 266.614 132.521 260.329 137.379 258.287C138.363 257.871 139.41 257.623 140.476 257.553L148.489 257.029L143.259 241.597Z" fill="#D3DFFF"/>
<path d="M155.071 104.351C155.071 104.351 153.085 97.7709 148.717 99.4148C144.348 101.059 146.677 109.624 155.296 112.007L155.071 104.351Z" fill="#F9B384"/>
<path d="M150.428 140.63C152.558 142.165 154.873 143.426 157.317 144.385C159.752 145.299 162.32 145.878 164.898 145.815C167.477 145.78 170.015 145.15 172.311 143.974L173.177 143.541C173.461 143.385 173.721 143.188 173.994 143.014C174.548 142.675 175.076 142.293 175.573 141.873L176.333 141.256L176.714 140.946C176.84 140.84 176.948 140.73 177.067 140.604C177.528 140.14 177.996 139.68 178.473 139.222L178.798 139.495C178.365 140.009 177.931 140.521 177.498 141.031C177.388 141.156 177.282 141.288 177.165 141.41L176.799 141.756L176.058 142.458C175.562 142.919 175.032 143.342 174.473 143.723C174.195 143.92 173.931 144.136 173.643 144.314L172.755 144.821C170.357 146.165 167.657 146.88 164.908 146.9C162.179 146.894 159.479 146.331 156.975 145.245C154.499 144.182 152.203 142.741 150.168 140.974L150.428 140.63Z" fill="#1F3C88"/>
<path d="M138.771 224.312L141.117 232.52C141.916 235.251 142.661 237.996 143.499 240.714C144.337 243.432 145.13 246.158 145.986 248.866C146.419 250.219 146.837 251.577 147.307 252.916C147.523 253.587 147.74 254.269 147.985 254.936C148.229 255.603 148.463 256.273 148.693 256.946L148.301 257.111C147.696 255.811 147.128 254.5 146.596 253.178C146.064 251.85 145.578 250.507 145.08 249.167C144.119 246.477 143.268 243.752 142.462 241.017C141.656 238.281 140.909 235.527 140.231 232.756C139.553 229.986 138.897 227.212 138.355 224.409L138.771 224.312Z" fill="#102048"/>
<path opacity="0.1" d="M203.245 328.023C200.505 328.799 196.618 328.987 191.268 328.136C191.268 328.136 179.807 331.073 172.564 332.223C180.01 330.733 190.839 321.528 189.62 315.709C200.315 319.228 203.223 324.575 203.245 328.023Z" fill="#1F3C88"/>
<path opacity="0.4" d="M174.457 329.041C173.075 330.742 171.018 331.894 168.859 332.474C167.727 332.774 166.564 332.943 165.393 332.977C160.914 332.658 155.272 330.324 152.279 326.988C152.279 326.988 152.269 326.967 152.258 326.962C151.941 326.531 151.651 326.081 151.391 325.613C152.939 327.067 154.69 328.287 156.589 329.236C157.518 329.697 158.479 330.088 159.465 330.406C159.946 330.59 160.451 330.698 160.949 330.839C161.448 330.97 161.954 331.071 162.465 331.142C166.491 331.824 170.786 331.402 174.457 329.041Z" fill="#1F3C88"/>
<path d="M153.122 105.284C153 104.693 152.76 104.133 152.416 103.638C152.098 103.138 151.694 102.698 151.223 102.339C150.761 102.016 150.261 101.856 149.839 102.083C149.416 102.31 149.044 102.843 148.736 103.383L148.438 103.279C148.567 102.629 148.804 101.929 149.477 101.464C149.824 101.234 150.246 101.147 150.655 101.221C151.031 101.292 151.385 101.447 151.693 101.674C152.252 102.097 152.706 102.645 153.016 103.274C153.358 103.882 153.509 104.579 153.449 105.273L153.122 105.284Z" fill="#E28B6D"/>
<path d="M178.88 105.119C178.689 106.053 177.985 106.698 177.307 106.562C176.629 106.425 176.235 105.555 176.426 104.613C176.617 103.671 177.318 103.034 177.996 103.172C178.674 103.311 179.068 104.186 178.88 105.119Z" fill="#102048"/>
<path d="M168.325 104.707C168.479 103.766 168.05 102.913 167.368 102.802C166.685 102.69 166.008 103.363 165.854 104.304C165.701 105.245 166.13 106.098 166.812 106.209C167.495 106.32 168.172 105.648 168.325 104.707Z" fill="#102048"/>
<path d="M172.807 105.981C172.872 106.75 172.902 107.515 172.911 108.264C172.953 108.565 173.095 108.843 173.314 109.055C173.597 109.337 173.86 109.64 174.1 109.96C174.234 110.157 174.33 110.377 174.381 110.61C174.431 110.836 174.446 111.068 174.427 111.299C174.391 111.759 174.218 112.199 173.929 112.559C173.775 112.74 173.585 112.887 173.372 112.992C173.156 113.092 172.919 113.141 172.681 113.137C172.251 113.111 171.837 112.961 171.49 112.704L171.639 112.425C171.96 112.553 172.307 112.602 172.651 112.568C172.796 112.549 172.936 112.498 173.059 112.418C173.182 112.339 173.286 112.233 173.363 112.109C173.695 111.615 173.742 110.844 173.424 110.376C173.257 110.109 172.991 109.858 172.718 109.527C172.404 109.175 172.226 108.723 172.218 108.251C172.276 107.465 172.371 106.694 172.491 105.927L172.807 105.981Z" fill="#E28B6D"/>
<path d="M164.079 101.448C164.516 101.01 165.03 100.657 165.595 100.405C166.184 100.134 166.831 100.01 167.479 100.043C168.139 100.085 168.772 100.318 169.303 100.712C169.805 101.089 170.221 101.57 170.52 102.122L170.268 102.317C169.857 101.938 169.409 101.6 168.932 101.308C168.475 101.044 167.964 100.886 167.438 100.846C166.387 100.766 165.32 101.182 164.276 101.7L164.079 101.448Z" fill="#102048"/>
<path d="M175.096 102.375C175.305 101.803 175.73 101.336 176.281 101.076C176.817 100.804 177.413 100.671 178.014 100.688C178.614 100.698 179.202 100.86 179.722 101.158C180.242 101.454 180.653 101.91 180.892 102.458L180.625 102.631C179.927 101.928 178.983 101.524 177.992 101.505C177.035 101.483 176.019 101.747 175.393 102.523L175.096 102.375Z" fill="#102048"/>
<path d="M167.704 115.089L174.886 115.602C174.886 115.602 170.881 120.915 167.704 115.089Z" fill="white"/>
<path opacity="0.4" d="M181.572 107.588C181.052 110.274 180.309 113.022 179.244 115.444C178.393 115.04 177.705 114.359 177.293 113.512C176.881 112.665 176.769 111.703 176.976 110.785C177.184 109.866 177.697 109.045 178.433 108.457C179.168 107.869 180.082 107.549 181.024 107.549C181.207 107.548 181.391 107.561 181.572 107.588Z" fill="#EE6F57"/>
<path opacity="0.4" d="M164.901 114.575C167.015 113.687 168.009 111.253 167.121 109.139C166.233 107.025 163.8 106.031 161.686 106.919C159.572 107.807 158.577 110.24 159.465 112.354C160.353 114.469 162.787 115.463 164.901 114.575Z" fill="#EE6F57"/>
<path d="M104.909 102.54C109.576 97.3678 112.18 90.6619 112.228 83.6959C112.276 76.7298 109.764 69.9887 105.169 64.7529C100.574 59.5172 94.2157 56.1513 87.3024 55.2946C80.389 54.4379 73.4018 56.15 67.6677 60.1058C61.9336 64.0616 57.852 69.9855 56.198 76.7526C54.544 83.5196 55.4329 90.6584 58.6959 96.8132C61.9588 102.968 67.3686 107.71 73.8977 110.139C80.4268 112.568 87.6205 112.514 94.1127 109.988L109.373 116.217L104.909 102.54Z" fill="white" stroke="#8CBFBE" stroke-width="1.78294" stroke-miterlimit="10"/>
<path d="M71.1141 87.2148C72.7911 87.2148 74.1505 85.8554 74.1505 84.1784C74.1505 82.5014 72.7911 81.1419 71.1141 81.1419C69.4371 81.1419 68.0776 82.5014 68.0776 84.1784C68.0776 85.8554 69.4371 87.2148 71.1141 87.2148Z" fill="#8CBFBE"/>
<path d="M83.8077 87.2148C85.4847 87.2148 86.8441 85.8554 86.8441 84.1784C86.8441 82.5014 85.4847 81.1419 83.8077 81.1419C82.1307 81.1419 80.7712 82.5014 80.7712 84.1784C80.7712 85.8554 82.1307 87.2148 83.8077 87.2148Z" fill="#8CBFBE"/>
<path d="M96.5013 87.2148C98.1783 87.2148 99.5377 85.8554 99.5377 84.1784C99.5377 82.5014 98.1783 81.1419 96.5013 81.1419C94.8243 81.1419 93.4648 82.5014 93.4648 84.1784C93.4648 85.8554 94.8243 87.2148 96.5013 87.2148Z" fill="#8CBFBE"/>
<path d="M177.596 3.30094H121.681C120.154 3.30551 118.69 3.91447 117.61 4.99476C116.53 6.07504 115.922 7.53883 115.918 9.0663V33.059C115.922 34.5865 116.53 36.0503 117.61 37.1306C118.69 38.2108 120.154 38.8198 121.681 38.8244H126.844L135.237 51.438L137.732 38.8244H177.596C179.123 38.8198 180.587 38.2109 181.667 37.1307C182.747 36.0505 183.356 34.5867 183.361 33.059V9.0663C183.356 7.53863 182.747 6.07485 181.667 4.99462C180.587 3.9144 179.123 3.30551 177.596 3.30094Z" fill="white" stroke="#8CBFBE" stroke-width="1.78294" stroke-miterlimit="10"/>
<path d="M173.587 12.0335H125.692V14.784H173.587V12.0335Z" fill="#8CBFBE"/>
<path d="M173.587 19.2889H125.692V22.0394H173.587V19.2889Z" fill="#C6EAE9"/>
<path d="M173.587 26.5421H125.692V29.2927H173.587V26.5421Z" fill="#C6EAE9"/>
<path d="M227.39 56.8659H226.106L223.2 52.4737V56.8659H221.916V50.4565H223.2L226.106 54.8578V50.4565H227.39V56.8659ZM230.914 56.9484C230.425 56.9484 229.985 56.8414 229.594 56.6275C229.203 56.4074 228.894 56.0987 228.668 55.7014C228.448 55.304 228.338 54.8455 228.338 54.3259C228.338 53.8063 228.451 53.3479 228.677 52.9505C228.909 52.5532 229.224 52.2475 229.621 52.0336C230.019 51.8135 230.462 51.7035 230.951 51.7035C231.44 51.7035 231.883 51.8135 232.281 52.0336C232.678 52.2475 232.99 52.5532 233.216 52.9505C233.448 53.3479 233.564 53.8063 233.564 54.3259C233.564 54.8455 233.445 55.304 233.207 55.7014C232.974 56.0987 232.657 56.4074 232.253 56.6275C231.856 56.8414 231.409 56.9484 230.914 56.9484ZM230.914 55.8297C231.147 55.8297 231.364 55.7747 231.565 55.6647C231.773 55.5485 231.938 55.3774 232.06 55.1512C232.183 54.925 232.244 54.6499 232.244 54.3259C232.244 53.843 232.116 53.4732 231.859 53.2164C231.608 52.9536 231.299 52.8222 230.933 52.8222C230.566 52.8222 230.257 52.9536 230.007 53.2164C229.762 53.4732 229.64 53.843 229.64 54.3259C229.64 54.8089 229.759 55.1818 229.997 55.4446C230.242 55.7014 230.548 55.8297 230.914 55.8297ZM236.001 52.8405V55.2979C236.001 55.4691 236.04 55.5944 236.12 55.6739C236.205 55.7472 236.346 55.7839 236.542 55.7839H237.138V56.8659H236.331C235.249 56.8659 234.708 56.3402 234.708 55.2887V52.8405H234.102V51.786H234.708V50.5298H236.001V51.786H237.138V52.8405H236.001ZM238.712 51.1808C238.486 51.1808 238.296 51.1105 238.143 50.9699C237.997 50.8232 237.923 50.6429 237.923 50.4289C237.923 50.215 237.997 50.0377 238.143 49.8971C238.296 49.7504 238.486 49.6771 238.712 49.6771C238.938 49.6771 239.125 49.7504 239.271 49.8971C239.424 50.0377 239.5 50.215 239.5 50.4289C239.5 50.6429 239.424 50.8232 239.271 50.9699C239.125 51.1105 238.938 51.1808 238.712 51.1808ZM239.345 51.786V56.8659H238.061V51.786H239.345ZM242.942 52.8405H242.053V56.8659H240.75V52.8405H240.173V51.786H240.75V51.5293C240.75 50.9058 240.928 50.4473 241.282 50.1539C241.637 49.8604 242.172 49.7229 242.887 49.7412V50.8232C242.575 50.8171 242.358 50.8691 242.236 50.9791C242.114 51.0891 242.053 51.2878 242.053 51.5751V51.786H242.942V52.8405ZM244.425 51.1808C244.199 51.1808 244.009 51.1105 243.856 50.9699C243.71 50.8232 243.636 50.6429 243.636 50.4289C243.636 50.215 243.71 50.0377 243.856 49.8971C244.009 49.7504 244.199 49.6771 244.425 49.6771C244.651 49.6771 244.838 49.7504 244.984 49.8971C245.137 50.0377 245.213 50.215 245.213 50.4289C245.213 50.6429 245.137 50.8232 244.984 50.9699C244.838 51.1105 244.651 51.1808 244.425 51.1808ZM245.058 51.786V56.8659H243.774V51.786H245.058ZM245.996 54.3259C245.996 53.8002 246.103 53.3418 246.317 52.9505C246.531 52.5532 246.827 52.2475 247.206 52.0336C247.585 51.8135 248.019 51.7035 248.508 51.7035C249.138 51.7035 249.657 51.8624 250.067 52.1803C250.483 52.4921 250.761 52.9322 250.901 53.5007H249.517C249.443 53.2806 249.318 53.1095 249.141 52.9872C248.97 52.8588 248.756 52.7947 248.499 52.7947C248.132 52.7947 247.842 52.9291 247.628 53.1981C247.414 53.461 247.307 53.8369 247.307 54.3259C247.307 54.8089 247.414 55.1848 247.628 55.4538C247.842 55.7166 248.132 55.8481 248.499 55.8481C249.019 55.8481 249.358 55.6158 249.517 55.1512H250.901C250.761 55.7014 250.483 56.1384 250.067 56.4624C249.651 56.7864 249.132 56.9484 248.508 56.9484C248.019 56.9484 247.585 56.8414 247.206 56.6275C246.827 56.4074 246.531 56.1018 246.317 55.7105C246.103 55.3132 245.996 54.8517 245.996 54.3259ZM251.512 54.3076C251.512 53.7941 251.613 53.3387 251.814 52.9414C252.022 52.544 252.3 52.2384 252.649 52.0244C253.003 51.8105 253.398 51.7035 253.832 51.7035C254.211 51.7035 254.541 51.7799 254.822 51.9327C255.109 52.0856 255.338 52.2781 255.51 52.5104V51.786H256.803V56.8659H255.51V56.1232C255.345 56.3616 255.115 56.5602 254.822 56.7192C254.535 56.872 254.201 56.9484 253.822 56.9484C253.395 56.9484 253.003 56.8384 252.649 56.6183C252.3 56.3982 252.022 56.0895 251.814 55.6922C251.613 55.2887 251.512 54.8272 251.512 54.3076ZM255.51 54.3259C255.51 54.0142 255.449 53.7483 255.326 53.5282C255.204 53.302 255.039 53.1309 254.831 53.0147C254.623 52.8925 254.4 52.8313 254.162 52.8313C253.923 52.8313 253.703 52.8894 253.502 53.0055C253.3 53.1217 253.135 53.2929 253.006 53.519C252.884 53.7391 252.823 54.002 252.823 54.3076C252.823 54.6133 252.884 54.8822 253.006 55.1145C253.135 55.3407 253.3 55.5149 253.502 55.6372C253.709 55.7594 253.929 55.8206 254.162 55.8206C254.4 55.8206 254.623 55.7625 254.831 55.6463C255.039 55.5241 255.204 55.3529 255.326 55.1329C255.449 54.9067 255.51 54.6377 255.51 54.3259ZM259.551 52.8405V55.2979C259.551 55.4691 259.591 55.5944 259.67 55.6739C259.756 55.7472 259.896 55.7839 260.092 55.7839H260.688V56.8659H259.881C258.799 56.8659 258.258 56.3402 258.258 55.2887V52.8405H257.653V51.786H258.258V50.5298H259.551V51.786H260.688V52.8405H259.551ZM262.262 51.1808C262.036 51.1808 261.847 51.1105 261.694 50.9699C261.547 50.8232 261.474 50.6429 261.474 50.4289C261.474 50.215 261.547 50.0377 261.694 49.8971C261.847 49.7504 262.036 49.6771 262.262 49.6771C262.488 49.6771 262.675 49.7504 262.822 49.8971C262.974 50.0377 263.051 50.215 263.051 50.4289C263.051 50.6429 262.974 50.8232 262.822 50.9699C262.675 51.1105 262.488 51.1808 262.262 51.1808ZM262.895 51.786V56.8659H261.611V51.786H262.895ZM266.419 56.9484C265.93 56.9484 265.49 56.8414 265.099 56.6275C264.707 56.4074 264.399 56.0987 264.172 55.7014C263.952 55.304 263.842 54.8455 263.842 54.3259C263.842 53.8063 263.955 53.3479 264.182 52.9505C264.414 52.5532 264.729 52.2475 265.126 52.0336C265.523 51.8135 265.967 51.7035 266.456 51.7035C266.945 51.7035 267.388 51.8135 267.785 52.0336C268.183 52.2475 268.494 52.5532 268.72 52.9505C268.953 53.3479 269.069 53.8063 269.069 54.3259C269.069 54.8455 268.95 55.304 268.711 55.7014C268.479 56.0987 268.161 56.4074 267.758 56.6275C267.36 56.8414 266.914 56.9484 266.419 56.9484ZM266.419 55.8297C266.651 55.8297 266.868 55.7747 267.07 55.6647C267.278 55.5485 267.443 55.3774 267.565 55.1512C267.687 54.925 267.749 54.6499 267.749 54.3259C267.749 53.843 267.62 53.4732 267.363 53.2164C267.113 52.9536 266.804 52.8222 266.437 52.8222C266.071 52.8222 265.762 52.9536 265.511 53.2164C265.267 53.4732 265.144 53.843 265.144 54.3259C265.144 54.8089 265.264 55.1818 265.502 55.4446C265.747 55.7014 266.052 55.8297 266.419 55.8297ZM272.826 51.7127C273.431 51.7127 273.92 51.9052 274.293 52.2903C274.666 52.6693 274.852 53.2012 274.852 53.8858V56.8659H273.568V54.06C273.568 53.6566 273.467 53.3479 273.266 53.1339C273.064 52.9139 272.789 52.8038 272.44 52.8038C272.086 52.8038 271.805 52.9139 271.597 53.1339C271.395 53.3479 271.294 53.6566 271.294 54.06V56.8659H270.011V51.786H271.294V52.4187C271.465 52.1986 271.682 52.0275 271.945 51.9052C272.214 51.7768 272.508 51.7127 272.826 51.7127Z" fill="black"/>
<rect width="104.939" height="53.4894" transform="translate(221.283 63.9223)" fill="white"/>
<rect x="229.943" y="71.0541" width="30.5647" height="9.67883" rx="4.83942" fill="#1FC9AA"/>
<path d="M235.427 76.3148H234.241L234.037 76.8935H233.552L234.567 74.0571H235.105L236.12 76.8935H235.631L235.427 76.3148ZM235.297 75.9358L234.836 74.6195L234.372 75.9358H235.297ZM238.542 74.9048C238.542 75.0488 238.508 75.1846 238.44 75.3123C238.372 75.44 238.263 75.5446 238.114 75.6261C237.964 75.7049 237.773 75.7443 237.539 75.7443H237.026V76.8935H236.561V74.0612H237.539C237.756 74.0612 237.94 74.0992 238.089 74.1753C238.241 74.2487 238.354 74.3492 238.428 74.4769C238.504 74.6046 238.542 74.7472 238.542 74.9048ZM237.539 75.3653C237.716 75.3653 237.847 75.3259 237.934 75.2471C238.021 75.1656 238.065 75.0515 238.065 74.9048C238.065 74.5951 237.89 74.4402 237.539 74.4402H237.026V75.3653H237.539ZM240.965 74.9048C240.965 75.0488 240.931 75.1846 240.863 75.3123C240.796 75.44 240.687 75.5446 240.537 75.6261C240.388 75.7049 240.196 75.7443 239.963 75.7443H239.449V76.8935H238.985V74.0612H239.963C240.18 74.0612 240.364 74.0992 240.513 74.1753C240.665 74.2487 240.778 74.3492 240.851 74.4769C240.927 74.6046 240.965 74.7472 240.965 74.9048ZM239.963 75.3653C240.139 75.3653 240.271 75.3259 240.358 75.2471C240.445 75.1656 240.489 75.0515 240.489 74.9048C240.489 74.5951 240.313 74.4402 239.963 74.4402H239.449V75.3653H239.963ZM242.88 76.8935L242.228 75.7606H241.873V76.8935H241.408V74.0612H242.386C242.604 74.0612 242.787 74.0992 242.937 74.1753C243.089 74.2514 243.202 74.3533 243.275 74.4809C243.351 74.6086 243.389 74.7513 243.389 74.9089C243.389 75.0936 243.335 75.262 243.226 75.4142C243.12 75.5636 242.956 75.6655 242.733 75.7198L243.434 76.8935H242.88ZM241.873 75.3897H242.386C242.56 75.3897 242.691 75.3463 242.778 75.2593C242.867 75.1724 242.912 75.0556 242.912 74.9089C242.912 74.7621 242.869 74.648 242.782 74.5665C242.695 74.4823 242.563 74.4402 242.386 74.4402H241.873V75.3897ZM245.275 76.9221C245.012 76.9221 244.768 76.8609 244.546 76.7387C244.326 76.6137 244.15 76.4412 244.02 76.2211C243.892 75.9983 243.828 75.7484 243.828 75.4712C243.828 75.1941 243.892 74.9455 244.02 74.7255C244.15 74.5054 244.326 74.3342 244.546 74.212C244.768 74.087 245.012 74.0245 245.275 74.0245C245.541 74.0245 245.785 74.087 246.005 74.212C246.227 74.3342 246.403 74.5054 246.53 74.7255C246.658 74.9455 246.722 75.1941 246.722 75.4712C246.722 75.7484 246.658 75.9983 246.53 76.2211C246.403 76.4412 246.227 76.6137 246.005 76.7387C245.785 76.8609 245.541 76.9221 245.275 76.9221ZM245.275 76.5186C245.463 76.5186 245.63 76.4765 245.776 76.3923C245.923 76.3053 246.037 76.1831 246.119 76.0255C246.203 75.8652 246.245 75.6804 246.245 75.4712C246.245 75.262 246.203 75.0787 246.119 74.9211C246.037 74.7635 245.923 74.6426 245.776 74.5584C245.63 74.4742 245.463 74.432 245.275 74.432C245.088 74.432 244.921 74.4742 244.774 74.5584C244.627 74.6426 244.512 74.7635 244.428 74.9211C244.346 75.0787 244.305 75.262 244.305 75.4712C244.305 75.6804 244.346 75.8652 244.428 76.0255C244.512 76.1831 244.627 76.3053 244.774 76.3923C244.921 76.4765 245.088 76.5186 245.275 76.5186ZM249.62 74.0612L248.557 76.8935H248.019L246.951 74.0612H247.448L248.288 76.4167L249.131 74.0612H249.62ZM250.473 74.4361V75.2675H251.451V75.6465H250.473V76.5145H251.574V76.8935H250.009V74.0571H251.574V74.4361H250.473ZM253.071 74.0612C253.373 74.0612 253.636 74.1196 253.862 74.2364C254.09 74.3505 254.265 74.5163 254.387 74.7336C254.512 74.9482 254.575 75.1996 254.575 75.4875C254.575 75.7755 254.512 76.0255 254.387 76.2374C254.265 76.4493 254.09 76.6123 253.862 76.7264C253.636 76.8378 253.373 76.8935 253.071 76.8935H252.146V74.0612H253.071ZM253.071 76.5145C253.402 76.5145 253.656 76.4249 253.833 76.2456C254.01 76.0662 254.098 75.8136 254.098 75.4875C254.098 75.1588 254.01 74.9021 253.833 74.7173C253.656 74.5326 253.402 74.4402 253.071 74.4402H252.61V76.5145H253.071Z" fill="white"/>
<path d="M233.397 86.0193L232.009 88.6723V90.28H231.453V88.6723L230.059 86.0193H230.677L231.728 88.1771L232.78 86.0193H233.397ZM235.445 90.335C235.131 90.335 234.846 90.2637 234.589 90.1211C234.336 89.9784 234.137 89.7767 233.99 89.5159C233.847 89.251 233.776 88.9453 233.776 88.5989C233.776 88.2566 233.849 87.955 233.996 87.6942C234.147 87.4293 234.35 87.2276 234.607 87.089C234.864 86.9464 235.151 86.8751 235.469 86.8751C235.787 86.8751 236.074 86.9464 236.331 87.089C236.588 87.2276 236.79 87.4273 236.936 87.6881C237.087 87.9489 237.162 88.2525 237.162 88.5989C237.162 88.9453 237.085 89.251 236.93 89.5159C236.779 89.7767 236.574 89.9784 236.313 90.1211C236.052 90.2637 235.763 90.335 235.445 90.335ZM235.445 89.846C235.644 89.846 235.832 89.7991 236.007 89.7054C236.182 89.6117 236.323 89.4711 236.429 89.2836C236.539 89.0961 236.594 88.8679 236.594 88.5989C236.594 88.33 236.541 88.1018 236.435 87.9143C236.329 87.7268 236.19 87.5883 236.019 87.4986C235.848 87.4049 235.663 87.358 235.463 87.358C235.259 87.358 235.072 87.4049 234.901 87.4986C234.734 87.5883 234.599 87.7268 234.497 87.9143C234.395 88.1018 234.344 88.33 234.344 88.5989C234.344 88.872 234.393 89.1022 234.491 89.2897C234.593 89.4772 234.727 89.6178 234.895 89.7115C235.062 89.8012 235.245 89.846 235.445 89.846ZM240.865 86.9301V90.28H240.308V89.7849C240.202 89.956 240.054 90.0905 239.862 90.1883C239.675 90.282 239.467 90.3289 239.239 90.3289C238.978 90.3289 238.744 90.2759 238.536 90.17C238.328 90.0599 238.163 89.8969 238.041 89.6809C237.922 89.4649 237.863 89.2021 237.863 88.8924V86.9301H238.413V88.819C238.413 89.1491 238.497 89.4038 238.664 89.5831C238.831 89.7584 239.059 89.846 239.349 89.846C239.646 89.846 239.881 89.7543 240.052 89.5709C240.223 89.3875 240.308 89.1206 240.308 88.7701V86.9301H240.865ZM242.36 87.4742C242.458 87.2826 242.597 87.1339 242.776 87.0279C242.959 86.922 243.181 86.869 243.442 86.869V87.4436H243.296C242.672 87.4436 242.36 87.7818 242.36 88.4583V90.28H241.804V86.9301H242.36V87.4742ZM245.506 88.1466C245.506 87.7309 245.6 87.358 245.787 87.0279C245.975 86.6937 246.23 86.4329 246.552 86.2455C246.878 86.058 247.238 85.9643 247.634 85.9643C248.098 85.9643 248.504 86.0763 248.85 86.3005C249.196 86.5246 249.449 86.8425 249.608 87.2541H248.942C248.824 86.9973 248.652 86.7997 248.428 86.6611C248.208 86.5226 247.943 86.4533 247.634 86.4533C247.336 86.4533 247.069 86.5226 246.833 86.6611C246.596 86.7997 246.411 86.9973 246.276 87.2541C246.142 87.5068 246.075 87.8043 246.075 88.1466C246.075 88.4848 246.142 88.7823 246.276 89.0391C246.411 89.2917 246.596 89.4874 246.833 89.6259C247.069 89.7645 247.336 89.8338 247.634 89.8338C247.943 89.8338 248.208 89.7665 248.428 89.632C248.652 89.4935 248.824 89.2958 248.942 89.0391H249.608C249.449 89.4466 249.196 89.7624 248.85 89.9866C248.504 90.2066 248.098 90.3167 247.634 90.3167C247.238 90.3167 246.878 90.225 246.552 90.0416C246.23 89.8541 245.975 89.5953 245.787 89.2652C245.6 88.9352 245.506 88.5623 245.506 88.1466ZM252.368 90.3228C251.972 90.3228 251.612 90.2311 251.286 90.0477C250.96 89.8602 250.701 89.6015 250.509 89.2714C250.322 88.9372 250.228 88.5623 250.228 88.1466C250.228 87.7309 250.322 87.358 250.509 87.0279C250.701 86.6937 250.96 86.435 251.286 86.2516C251.612 86.0641 251.972 85.9704 252.368 85.9704C252.767 85.9704 253.13 86.0641 253.456 86.2516C253.782 86.435 254.039 86.6917 254.226 87.0218C254.414 87.3519 254.507 87.7268 254.507 88.1466C254.507 88.5663 254.414 88.9413 254.226 89.2714C254.039 89.6015 253.782 89.8602 253.456 90.0477C253.13 90.2311 252.767 90.3228 252.368 90.3228ZM252.368 89.8399C252.665 89.8399 252.932 89.7706 253.169 89.632C253.409 89.4935 253.596 89.2958 253.731 89.0391C253.87 88.7823 253.939 88.4848 253.939 88.1466C253.939 87.8043 253.87 87.5068 253.731 87.2541C253.596 86.9973 253.411 86.7997 253.175 86.6611C252.938 86.5226 252.669 86.4533 252.368 86.4533C252.066 86.4533 251.797 86.5226 251.561 86.6611C251.325 86.7997 251.137 86.9973 250.998 87.2541C250.864 87.5068 250.797 87.8043 250.797 88.1466C250.797 88.4848 250.864 88.7823 250.998 89.0391C251.137 89.2958 251.325 89.4935 251.561 89.632C251.801 89.7706 252.07 89.8399 252.368 89.8399ZM258.763 86.0193L257.155 90.28H256.513L254.905 86.0193H255.498L256.837 89.6932L258.176 86.0193H258.763ZM259.929 86.0193V90.28H259.373V86.0193H259.929ZM262.204 86.0193C262.668 86.0193 263.07 86.1069 263.408 86.2821C263.75 86.4533 264.011 86.6999 264.19 87.0218C264.374 87.3437 264.465 87.7227 264.465 88.1588C264.465 88.5949 264.374 88.9739 264.19 89.2958C264.011 89.6137 263.75 89.8582 263.408 90.0294C263.07 90.1965 262.668 90.28 262.204 90.28H260.877V86.0193H262.204ZM262.204 89.8215C262.754 89.8215 263.173 89.6769 263.463 89.3875C263.752 89.0941 263.897 88.6845 263.897 88.1588C263.897 87.629 263.75 87.2154 263.457 86.9179C263.167 86.6204 262.75 86.4716 262.204 86.4716H261.433V89.8215H262.204ZM267.522 87.8043V88.275H265.083V87.8043H267.522ZM268.328 86.3677V85.8603H269.477V90.28H268.914V86.3677H268.328ZM271.148 89.0941C271.188 89.3264 271.282 89.5057 271.429 89.632C271.58 89.7584 271.781 89.8215 272.034 89.8215C272.372 89.8215 272.621 89.6891 272.78 89.4242C272.943 89.1593 273.02 88.713 273.012 88.0855C272.926 88.2688 272.784 88.4135 272.584 88.5195C272.384 88.6214 272.162 88.6723 271.918 88.6723C271.645 88.6723 271.4 88.6173 271.184 88.5072C270.972 88.3931 270.805 88.2281 270.683 88.0121C270.561 87.7961 270.5 87.5353 270.5 87.2296C270.5 86.7936 270.626 86.4431 270.879 86.1782C271.131 85.9092 271.49 85.7748 271.954 85.7748C272.525 85.7748 272.924 85.9602 273.153 86.331C273.385 86.7019 273.501 87.2541 273.501 87.9876C273.501 88.5011 273.454 88.925 273.36 89.2591C273.271 89.5933 273.116 89.848 272.896 90.0233C272.68 90.1985 272.382 90.2861 272.003 90.2861C271.588 90.2861 271.264 90.174 271.031 89.9499C270.799 89.7258 270.667 89.4405 270.634 89.0941H271.148ZM272.009 88.2016C272.283 88.2016 272.507 88.1181 272.682 87.951C272.857 87.7798 272.945 87.5495 272.945 87.2602C272.945 86.9546 272.859 86.708 272.688 86.5205C272.517 86.3331 272.276 86.2393 271.967 86.2393C271.681 86.2393 271.453 86.329 271.282 86.5083C271.115 86.6876 271.031 86.924 271.031 87.2174C271.031 87.5149 271.115 87.7533 271.282 87.9326C271.449 88.1119 271.692 88.2016 272.009 88.2016ZM277.251 89.7665L278.29 86.9301H278.883L277.569 90.28H276.921L275.607 86.9301H276.206L277.251 89.7665ZM279.223 88.5928C279.223 88.2505 279.292 87.951 279.431 87.6942C279.569 87.4334 279.759 87.2317 279.999 87.089C280.244 86.9464 280.515 86.8751 280.812 86.8751C281.106 86.8751 281.36 86.9383 281.576 87.0646C281.792 87.1909 281.953 87.3499 282.059 87.5414V86.9301H282.622V90.28H282.059V89.6565C281.949 89.8521 281.784 90.0151 281.564 90.1455C281.348 90.2718 281.096 90.335 280.806 90.335C280.509 90.335 280.24 90.2617 279.999 90.1149C279.759 89.9682 279.569 89.7624 279.431 89.4975C279.292 89.2326 279.223 88.9311 279.223 88.5928ZM282.059 88.5989C282.059 88.3463 282.008 88.1262 281.907 87.9387C281.805 87.7513 281.666 87.6086 281.491 87.5108C281.32 87.409 281.13 87.358 280.922 87.358C280.715 87.358 280.525 87.4069 280.354 87.5047C280.183 87.6025 280.046 87.7452 279.944 87.9326C279.842 88.1201 279.791 88.3402 279.791 88.5928C279.791 88.8496 279.842 89.0737 279.944 89.2652C280.046 89.4527 280.183 89.5974 280.354 89.6993C280.525 89.7971 280.715 89.846 280.922 89.846C281.13 89.846 281.32 89.7971 281.491 89.6993C281.666 89.5974 281.805 89.4527 281.907 89.2652C282.008 89.0737 282.059 88.8516 282.059 88.5989ZM283.354 88.5989C283.354 88.2525 283.423 87.951 283.562 87.6942C283.7 87.4334 283.892 87.2317 284.136 87.089C284.385 86.9464 284.668 86.8751 284.986 86.8751C285.398 86.8751 285.736 86.9749 286.001 87.1746C286.27 87.3743 286.447 87.6514 286.533 88.006H285.934C285.877 87.8022 285.765 87.6412 285.597 87.5231C285.434 87.4049 285.231 87.3458 284.986 87.3458C284.668 87.3458 284.412 87.4558 284.216 87.6759C284.02 87.8919 283.922 88.1996 283.922 88.5989C283.922 89.0024 284.02 89.3142 284.216 89.5342C284.412 89.7543 284.668 89.8643 284.986 89.8643C285.231 89.8643 285.434 89.8073 285.597 89.6932C285.76 89.579 285.873 89.416 285.934 89.2041H286.533C286.443 89.5464 286.264 89.8215 285.995 90.0294C285.726 90.2331 285.39 90.335 284.986 90.335C284.668 90.335 284.385 90.2637 284.136 90.1211C283.892 89.9784 283.7 89.7767 283.562 89.5159C283.423 89.2551 283.354 88.9494 283.354 88.5989ZM287.067 88.5989C287.067 88.2525 287.136 87.951 287.275 87.6942C287.414 87.4334 287.605 87.2317 287.85 87.089C288.098 86.9464 288.381 86.8751 288.699 86.8751C289.111 86.8751 289.449 86.9749 289.714 87.1746C289.983 87.3743 290.16 87.6514 290.246 88.006H289.647C289.59 87.8022 289.478 87.6412 289.311 87.5231C289.148 87.4049 288.944 87.3458 288.699 87.3458C288.381 87.3458 288.125 87.4558 287.929 87.6759C287.733 87.8919 287.636 88.1996 287.636 88.5989C287.636 89.0024 287.733 89.3142 287.929 89.5342C288.125 89.7543 288.381 89.8643 288.699 89.8643C288.944 89.8643 289.148 89.8073 289.311 89.6932C289.474 89.579 289.586 89.416 289.647 89.2041H290.246C290.156 89.5464 289.977 89.8215 289.708 90.0294C289.439 90.2331 289.103 90.335 288.699 90.335C288.381 90.335 288.098 90.2637 287.85 90.1211C287.605 89.9784 287.414 89.7767 287.275 89.5159C287.136 89.2551 287.067 88.9494 287.067 88.5989ZM291.275 86.3861C291.169 86.3861 291.08 86.3494 291.006 86.276C290.933 86.2027 290.896 86.113 290.896 86.007C290.896 85.9011 290.933 85.8114 291.006 85.7381C291.08 85.6647 291.169 85.628 291.275 85.628C291.377 85.628 291.463 85.6647 291.532 85.7381C291.605 85.8114 291.642 85.9011 291.642 86.007C291.642 86.113 291.605 86.2027 291.532 86.276C291.463 86.3494 291.377 86.3861 291.275 86.3861ZM291.544 86.9301V90.28H290.988V86.9301H291.544ZM294.125 86.869C294.532 86.869 294.862 86.9933 295.115 87.2419C295.368 87.4864 295.494 87.8409 295.494 88.3055V90.28H294.944V88.385C294.944 88.0508 294.86 87.7961 294.693 87.6209C294.526 87.4416 294.298 87.3519 294.008 87.3519C293.715 87.3519 293.481 87.4436 293.305 87.627C293.134 87.8104 293.049 88.0773 293.049 88.4278V90.28H292.492V86.9301H293.049V87.4069C293.159 87.2358 293.308 87.1033 293.495 87.0096C293.687 86.9158 293.896 86.869 294.125 86.869ZM296.195 88.5928C296.195 88.2505 296.264 87.951 296.403 87.6942C296.541 87.4334 296.731 87.2317 296.971 87.089C297.216 86.9464 297.487 86.8751 297.784 86.8751C298.078 86.8751 298.332 86.9383 298.548 87.0646C298.764 87.1909 298.925 87.3499 299.031 87.5414V86.9301H299.594V90.28H299.031V89.6565C298.921 89.8521 298.756 90.0151 298.536 90.1455C298.32 90.2718 298.067 90.335 297.778 90.335C297.48 90.335 297.212 90.2617 296.971 90.1149C296.731 89.9682 296.541 89.7624 296.403 89.4975C296.264 89.2326 296.195 88.9311 296.195 88.5928ZM299.031 88.5989C299.031 88.3463 298.98 88.1262 298.878 87.9387C298.776 87.7513 298.638 87.6086 298.463 87.5108C298.291 87.409 298.102 87.358 297.894 87.358C297.686 87.358 297.497 87.4069 297.326 87.5047C297.154 87.6025 297.018 87.7452 296.916 87.9326C296.814 88.1201 296.763 88.3402 296.763 88.5928C296.763 88.8496 296.814 89.0737 296.916 89.2652C297.018 89.4527 297.154 89.5974 297.326 89.6993C297.497 89.7971 297.686 89.846 297.894 89.846C298.102 89.846 298.291 89.7971 298.463 89.6993C298.638 89.5974 298.776 89.4527 298.878 89.2652C298.98 89.0737 299.031 88.8516 299.031 88.5989ZM301.212 87.3886V89.3631C301.212 89.5261 301.247 89.6422 301.316 89.7115C301.385 89.7767 301.506 89.8093 301.677 89.8093H302.086V90.28H301.585C301.275 90.28 301.043 90.2087 300.888 90.066C300.733 89.9234 300.656 89.6891 300.656 89.3631V87.3886H300.222V86.9301H300.656V86.0865H301.212V86.9301H302.086V87.3886H301.212ZM303.048 86.3861C302.942 86.3861 302.852 86.3494 302.779 86.276C302.705 86.2027 302.669 86.113 302.669 86.007C302.669 85.9011 302.705 85.8114 302.779 85.7381C302.852 85.6647 302.942 85.628 303.048 85.628C303.149 85.628 303.235 85.6647 303.304 85.7381C303.378 85.8114 303.414 85.9011 303.414 86.007C303.414 86.113 303.378 86.2027 303.304 86.276C303.235 86.3494 303.149 86.3861 303.048 86.3861ZM303.317 86.9301V90.28H302.76V86.9301H303.317ZM305.726 90.335C305.412 90.335 305.127 90.2637 304.87 90.1211C304.617 89.9784 304.417 89.7767 304.271 89.5159C304.128 89.251 304.057 88.9453 304.057 88.5989C304.057 88.2566 304.13 87.955 304.277 87.6942C304.428 87.4293 304.631 87.2276 304.888 87.089C305.145 86.9464 305.432 86.8751 305.75 86.8751C306.068 86.8751 306.355 86.9464 306.612 87.089C306.869 87.2276 307.07 87.4273 307.217 87.6881C307.368 87.9489 307.443 88.2525 307.443 88.5989C307.443 88.9453 307.366 89.251 307.211 89.5159C307.06 89.7767 306.854 89.9784 306.594 90.1211C306.333 90.2637 306.044 90.335 305.726 90.335ZM305.726 89.846C305.925 89.846 306.113 89.7991 306.288 89.7054C306.463 89.6117 306.604 89.4711 306.71 89.2836C306.82 89.0961 306.875 88.8679 306.875 88.5989C306.875 88.33 306.822 88.1018 306.716 87.9143C306.61 87.7268 306.471 87.5883 306.3 87.4986C306.129 87.4049 305.944 87.358 305.744 87.358C305.54 87.358 305.353 87.4049 305.182 87.4986C305.014 87.5883 304.88 87.7268 304.778 87.9143C304.676 88.1018 304.625 88.33 304.625 88.5989C304.625 88.872 304.674 89.1022 304.772 89.2897C304.874 89.4772 305.008 89.6178 305.175 89.7115C305.343 89.8012 305.526 89.846 305.726 89.846ZM309.807 86.869C310.214 86.869 310.545 86.9933 310.797 87.2419C311.05 87.4864 311.176 87.8409 311.176 88.3055V90.28H310.626V88.385C310.626 88.0508 310.543 87.7961 310.375 87.6209C310.208 87.4416 309.98 87.3519 309.691 87.3519C309.397 87.3519 309.163 87.4436 308.988 87.627C308.817 87.8104 308.731 88.0773 308.731 88.4278V90.28H308.175V86.9301H308.731V87.4069C308.841 87.2358 308.99 87.1033 309.177 87.0096C309.369 86.9158 309.579 86.869 309.807 86.869ZM230.206 97.5928C230.206 97.2505 230.275 96.951 230.414 96.6942C230.552 96.4334 230.742 96.2317 230.982 96.089C231.227 95.9464 231.5 95.8751 231.801 95.8751C232.062 95.8751 232.305 95.9362 232.529 96.0585C232.753 96.1767 232.924 96.3336 233.042 96.5292V94.7564H233.605V99.28H233.042V98.6504C232.932 98.8501 232.769 99.0151 232.553 99.1455C232.337 99.2718 232.085 99.335 231.795 99.335C231.498 99.335 231.227 99.2617 230.982 99.1149C230.742 98.9682 230.552 98.7624 230.414 98.4975C230.275 98.2326 230.206 97.9311 230.206 97.5928ZM233.042 97.5989C233.042 97.3463 232.991 97.1262 232.89 96.9387C232.788 96.7513 232.649 96.6086 232.474 96.5108C232.303 96.409 232.113 96.358 231.905 96.358C231.698 96.358 231.508 96.4069 231.337 96.5047C231.166 96.6025 231.029 96.7452 230.927 96.9326C230.825 97.1201 230.774 97.3402 230.774 97.5928C230.774 97.8496 230.825 98.0737 230.927 98.2652C231.029 98.4527 231.166 98.5974 231.337 98.6993C231.508 98.7971 231.698 98.846 231.905 98.846C232.113 98.846 232.303 98.7971 232.474 98.6993C232.649 98.5974 232.788 98.4527 232.89 98.2652C232.991 98.0737 233.042 97.8516 233.042 97.5989ZM236.006 99.335C235.692 99.335 235.407 99.2637 235.15 99.1211C234.897 98.9784 234.698 98.7767 234.551 98.5159C234.408 98.251 234.337 97.9453 234.337 97.5989C234.337 97.2566 234.41 96.955 234.557 96.6942C234.708 96.4293 234.912 96.2276 235.168 96.089C235.425 95.9464 235.712 95.8751 236.03 95.8751C236.348 95.8751 236.635 95.9464 236.892 96.089C237.149 96.2276 237.351 96.4273 237.497 96.6881C237.648 96.9489 237.724 97.2525 237.724 97.5989C237.724 97.9453 237.646 98.251 237.491 98.5159C237.34 98.7767 237.135 98.9784 236.874 99.1211C236.613 99.2637 236.324 99.335 236.006 99.335ZM236.006 98.846C236.206 98.846 236.393 98.7991 236.568 98.7054C236.743 98.6117 236.884 98.4711 236.99 98.2836C237.1 98.0961 237.155 97.8679 237.155 97.5989C237.155 97.33 237.102 97.1018 236.996 96.9143C236.89 96.7268 236.752 96.5883 236.58 96.4986C236.409 96.4049 236.224 96.358 236.024 96.358C235.82 96.358 235.633 96.4049 235.462 96.4986C235.295 96.5883 235.16 96.7268 235.058 96.9143C234.956 97.1018 234.905 97.33 234.905 97.5989C234.905 97.872 234.954 98.1022 235.052 98.2897C235.154 98.4772 235.289 98.6178 235.456 98.7115C235.623 98.8012 235.806 98.846 236.006 98.846ZM238.247 97.5989C238.247 97.2525 238.316 96.951 238.455 96.6942C238.594 96.4334 238.785 96.2317 239.03 96.089C239.278 95.9464 239.561 95.8751 239.879 95.8751C240.291 95.8751 240.629 95.9749 240.894 96.1746C241.163 96.3743 241.34 96.6514 241.426 97.006H240.827C240.77 96.8022 240.658 96.6412 240.491 96.5231C240.328 96.4049 240.124 96.3458 239.879 96.3458C239.561 96.3458 239.305 96.4558 239.109 96.6759C238.913 96.8919 238.816 97.1996 238.816 97.5989C238.816 98.0024 238.913 98.3142 239.109 98.5342C239.305 98.7543 239.561 98.8643 239.879 98.8643C240.124 98.8643 240.328 98.8073 240.491 98.6932C240.654 98.579 240.766 98.416 240.827 98.2041H241.426C241.336 98.5464 241.157 98.8215 240.888 99.0294C240.619 99.2331 240.283 99.335 239.879 99.335C239.561 99.335 239.278 99.2637 239.03 99.1211C238.785 98.9784 238.594 98.7767 238.455 98.5159C238.316 98.2551 238.247 97.9494 238.247 97.5989ZM245.139 95.9301V99.28H244.583V98.7849C244.477 98.956 244.328 99.0905 244.136 99.1883C243.949 99.282 243.741 99.3289 243.513 99.3289C243.252 99.3289 243.018 99.2759 242.81 99.17C242.602 99.0599 242.437 98.8969 242.315 98.6809C242.197 98.4649 242.138 98.2021 242.138 97.8924V95.9301H242.688V97.819C242.688 98.1491 242.771 98.4038 242.938 98.5831C243.105 98.7584 243.334 98.846 243.623 98.846C243.92 98.846 244.155 98.7543 244.326 98.5709C244.497 98.3875 244.583 98.1206 244.583 97.7701V95.9301H245.139ZM250.107 95.869C250.367 95.869 250.6 95.924 250.804 96.034C251.007 96.14 251.168 96.301 251.286 96.5169C251.405 96.7329 251.464 96.9958 251.464 97.3055V99.28H250.914V97.385C250.914 97.0508 250.83 96.7961 250.663 96.6209C250.5 96.4416 250.278 96.3519 249.997 96.3519C249.707 96.3519 249.477 96.4456 249.306 96.6331C249.135 96.8165 249.049 97.0834 249.049 97.4339V99.28H248.499V97.385C248.499 97.0508 248.415 96.7961 248.248 96.6209C248.085 96.4416 247.863 96.3519 247.582 96.3519C247.293 96.3519 247.062 96.4456 246.891 96.6331C246.72 96.8165 246.635 97.0834 246.635 97.4339V99.28H246.078V95.9301H246.635V96.413C246.745 96.2378 246.891 96.1033 247.075 96.0096C247.262 95.9158 247.468 95.869 247.692 95.869C247.973 95.869 248.222 95.9321 248.438 96.0585C248.654 96.1848 248.815 96.3702 248.921 96.6148C249.014 96.3784 249.169 96.195 249.385 96.0646C249.601 95.9342 249.842 95.869 250.107 95.869ZM255.433 97.4767C255.433 97.5826 255.427 97.6947 255.414 97.8129H252.737C252.757 98.143 252.869 98.4018 253.073 98.5892C253.281 98.7726 253.532 98.8643 253.825 98.8643C254.065 98.8643 254.265 98.8093 254.424 98.6993C254.587 98.5852 254.701 98.4344 254.766 98.2469H255.365C255.276 98.5689 255.097 98.8317 254.828 99.0355C254.559 99.2352 254.224 99.335 253.825 99.335C253.507 99.335 253.222 99.2637 252.969 99.1211C252.721 98.9784 252.525 98.7767 252.382 98.5159C252.24 98.251 252.168 97.9453 252.168 97.5989C252.168 97.2525 252.238 96.9489 252.376 96.6881C252.515 96.4273 252.708 96.2276 252.957 96.089C253.21 95.9464 253.499 95.8751 253.825 95.8751C254.143 95.8751 254.424 95.9444 254.669 96.0829C254.913 96.2215 255.101 96.413 255.231 96.6575C255.365 96.898 255.433 97.171 255.433 97.4767ZM254.858 97.3605C254.858 97.1486 254.811 96.9673 254.717 96.8165C254.624 96.6616 254.495 96.5455 254.332 96.468C254.173 96.3865 253.996 96.3458 253.801 96.3458C253.519 96.3458 253.279 96.4354 253.079 96.6148C252.884 96.7941 252.772 97.0427 252.743 97.3605H254.858ZM257.799 95.869C258.207 95.869 258.537 95.9933 258.789 96.2419C259.042 96.4864 259.168 96.8409 259.168 97.3055V99.28H258.618V97.385C258.618 97.0508 258.535 96.7961 258.368 96.6209C258.201 96.4416 257.972 96.3519 257.683 96.3519C257.39 96.3519 257.155 96.4436 256.98 96.627C256.809 96.8104 256.723 97.0773 256.723 97.4278V99.28H256.167V95.9301H256.723V96.4069C256.833 96.2358 256.982 96.1033 257.17 96.0096C257.361 95.9158 257.571 95.869 257.799 95.869ZM260.756 96.3886V98.3631C260.756 98.5261 260.79 98.6422 260.86 98.7115C260.929 98.7767 261.049 98.8093 261.22 98.8093H261.63V99.28H261.129C260.819 99.28 260.587 99.2087 260.432 99.066C260.277 98.9234 260.199 98.6891 260.199 98.3631V96.3886H259.765V95.9301H260.199V95.0865H260.756V95.9301H261.63V96.3886H260.756ZM265.596 95.869C265.849 95.869 266.077 95.924 266.281 96.034C266.485 96.14 266.644 96.301 266.758 96.5169C266.876 96.7329 266.935 96.9958 266.935 97.3055V99.28H266.385V97.385C266.385 97.0508 266.301 96.7961 266.134 96.6209C265.967 96.4416 265.739 96.3519 265.45 96.3519C265.156 96.3519 264.922 96.4436 264.747 96.627C264.575 96.8104 264.49 97.0773 264.49 97.4278V99.28H263.934V94.7564H264.49V96.4069C264.6 96.2358 264.751 96.1033 264.942 96.0096C265.138 95.9158 265.356 95.869 265.596 95.869ZM267.636 97.5928C267.636 97.2505 267.705 96.951 267.844 96.6942C267.982 96.4334 268.172 96.2317 268.412 96.089C268.657 95.9464 268.928 95.8751 269.225 95.8751C269.519 95.8751 269.773 95.9383 269.989 96.0646C270.205 96.1909 270.366 96.3499 270.472 96.5414V95.9301H271.035V99.28H270.472V98.6565C270.362 98.8521 270.197 99.0151 269.977 99.1455C269.761 99.2718 269.508 99.335 269.219 99.335C268.922 99.335 268.653 99.2617 268.412 99.1149C268.172 98.9682 267.982 98.7624 267.844 98.4975C267.705 98.2326 267.636 97.9311 267.636 97.5928ZM270.472 97.5989C270.472 97.3463 270.421 97.1262 270.319 96.9387C270.218 96.7513 270.079 96.6086 269.904 96.5108C269.733 96.409 269.543 96.358 269.335 96.358C269.127 96.358 268.938 96.4069 268.767 96.5047C268.596 96.6025 268.459 96.7452 268.357 96.9326C268.255 97.1201 268.204 97.3402 268.204 97.5928C268.204 97.8496 268.255 98.0737 268.357 98.2652C268.459 98.4527 268.596 98.5974 268.767 98.6993C268.938 98.7971 269.127 98.846 269.335 98.846C269.543 98.846 269.733 98.7971 269.904 98.6993C270.079 98.5974 270.218 98.4527 270.319 98.2652C270.421 98.0737 270.472 97.8516 270.472 97.5989ZM273.161 99.335C272.904 99.335 272.674 99.2922 272.47 99.2066C272.266 99.117 272.105 98.9947 271.987 98.8399C271.869 98.6809 271.804 98.4996 271.791 98.2958H272.366C272.382 98.4629 272.46 98.5994 272.598 98.7054C272.741 98.8113 272.926 98.8643 273.154 98.8643C273.366 98.8643 273.533 98.8175 273.656 98.7237C273.778 98.63 273.839 98.5118 273.839 98.3692C273.839 98.2225 273.774 98.1145 273.644 98.0452C273.513 97.9718 273.311 97.9005 273.038 97.8312C272.79 97.766 272.586 97.7008 272.427 97.6356C272.272 97.5663 272.138 97.4665 272.024 97.3361C271.914 97.2016 271.859 97.0264 271.859 96.8104C271.859 96.6392 271.909 96.4823 272.011 96.3397C272.113 96.197 272.258 96.085 272.445 96.0035C272.633 95.9179 272.847 95.8751 273.087 95.8751C273.458 95.8751 273.758 95.9688 273.986 96.1563C274.214 96.3437 274.336 96.6005 274.353 96.9265H273.796C273.784 96.7513 273.713 96.6107 273.582 96.5047C273.456 96.3988 273.285 96.3458 273.069 96.3458C272.869 96.3458 272.71 96.3886 272.592 96.4742C272.474 96.5597 272.415 96.6718 272.415 96.8104C272.415 96.9204 272.449 97.0121 272.519 97.0855C272.592 97.1547 272.682 97.2118 272.788 97.2566C272.898 97.2974 273.049 97.3442 273.24 97.3972C273.481 97.4624 273.676 97.5276 273.827 97.5928C273.978 97.654 274.106 97.7477 274.212 97.874C274.322 98.0004 274.379 98.1654 274.383 98.3692C274.383 98.5526 274.332 98.7176 274.23 98.8643C274.128 99.011 273.984 99.1272 273.796 99.2128C273.613 99.2943 273.401 99.335 273.161 99.335ZM277.354 96.5536C277.469 96.3539 277.636 96.1909 277.856 96.0646C278.076 95.9383 278.326 95.8751 278.608 95.8751C278.909 95.8751 279.18 95.9464 279.421 96.089C279.661 96.2317 279.851 96.4334 279.989 96.6942C280.128 96.951 280.197 97.2505 280.197 97.5928C280.197 97.9311 280.128 98.2326 279.989 98.4975C279.851 98.7624 279.659 98.9682 279.415 99.1149C279.174 99.2617 278.905 99.335 278.608 99.335C278.318 99.335 278.064 99.2718 277.843 99.1455C277.627 99.0192 277.464 98.8582 277.354 98.6626V99.28H276.798V94.7564H277.354V96.5536ZM279.628 97.5928C279.628 97.3402 279.578 97.1201 279.476 96.9326C279.374 96.7452 279.235 96.6025 279.06 96.5047C278.889 96.4069 278.699 96.358 278.491 96.358C278.288 96.358 278.098 96.409 277.923 96.5108C277.752 96.6086 277.613 96.7533 277.507 96.9449C277.405 97.1323 277.354 97.3503 277.354 97.5989C277.354 97.8516 277.405 98.0737 277.507 98.2652C277.613 98.4527 277.752 98.5974 277.923 98.6993C278.098 98.7971 278.288 98.846 278.491 98.846C278.699 98.846 278.889 98.7971 279.06 98.6993C279.235 98.5974 279.374 98.4527 279.476 98.2652C279.578 98.0737 279.628 97.8496 279.628 97.5928ZM283.986 97.4767C283.986 97.5826 283.98 97.6947 283.967 97.8129H281.29C281.31 98.143 281.422 98.4018 281.626 98.5892C281.834 98.7726 282.085 98.8643 282.378 98.8643C282.618 98.8643 282.818 98.8093 282.977 98.6993C283.14 98.5852 283.254 98.4344 283.319 98.2469H283.918C283.829 98.5689 283.649 98.8317 283.38 99.0355C283.112 99.2352 282.777 99.335 282.378 99.335C282.06 99.335 281.775 99.2637 281.522 99.1211C281.274 98.9784 281.078 98.7767 280.935 98.5159C280.793 98.251 280.721 97.9453 280.721 97.5989C280.721 97.2525 280.791 96.9489 280.929 96.6881C281.068 96.4273 281.261 96.2276 281.51 96.089C281.763 95.9464 282.052 95.8751 282.378 95.8751C282.696 95.8751 282.977 95.9444 283.222 96.0829C283.466 96.2215 283.654 96.413 283.784 96.6575C283.918 96.898 283.986 97.171 283.986 97.4767ZM283.411 97.3605C283.411 97.1486 283.364 96.9673 283.27 96.8165C283.177 96.6616 283.048 96.5455 282.885 96.468C282.726 96.3865 282.549 96.3458 282.354 96.3458C282.072 96.3458 281.832 96.4354 281.632 96.6148C281.437 96.7941 281.324 97.0427 281.296 97.3605H283.411ZM287.776 97.4767C287.776 97.5826 287.77 97.6947 287.758 97.8129H285.081C285.101 98.143 285.213 98.4018 285.417 98.5892C285.625 98.7726 285.875 98.8643 286.169 98.8643C286.409 98.8643 286.609 98.8093 286.768 98.6993C286.931 98.5852 287.045 98.4344 287.11 98.2469H287.709C287.62 98.5689 287.44 98.8317 287.171 99.0355C286.902 99.2352 286.568 99.335 286.169 99.335C285.851 99.335 285.566 99.2637 285.313 99.1211C285.064 98.9784 284.869 98.7767 284.726 98.5159C284.583 98.251 284.512 97.9453 284.512 97.5989C284.512 97.2525 284.581 96.9489 284.72 96.6881C284.858 96.4273 285.052 96.2276 285.301 96.089C285.553 95.9464 285.843 95.8751 286.169 95.8751C286.487 95.8751 286.768 95.9444 287.012 96.0829C287.257 96.2215 287.444 96.413 287.575 96.6575C287.709 96.898 287.776 97.171 287.776 97.4767ZM287.202 97.3605C287.202 97.1486 287.155 96.9673 287.061 96.8165C286.967 96.6616 286.839 96.5455 286.676 96.468C286.517 96.3865 286.34 96.3458 286.144 96.3458C285.863 96.3458 285.623 96.4354 285.423 96.6148C285.227 96.7941 285.115 97.0427 285.087 97.3605H287.202ZM290.143 95.869C290.55 95.869 290.88 95.9933 291.133 96.2419C291.386 96.4864 291.512 96.8409 291.512 97.3055V99.28H290.962V97.385C290.962 97.0508 290.878 96.7961 290.711 96.6209C290.544 96.4416 290.316 96.3519 290.027 96.3519C289.733 96.3519 289.499 96.4436 289.324 96.627C289.153 96.8104 289.067 97.0773 289.067 97.4278V99.28H288.511V95.9301H289.067V96.4069C289.177 96.2358 289.326 96.1033 289.513 96.0096C289.705 95.9158 289.915 95.869 290.143 95.869ZM232.993 107.522H231.392L231.135 108.28H230.041L231.594 103.989H232.804L234.357 108.28H233.25L232.993 107.522ZM232.725 106.715L232.193 105.144L231.667 106.715H232.725ZM235.875 105.352C235.976 105.193 236.117 105.065 236.296 104.967C236.476 104.869 236.686 104.82 236.926 104.82C237.207 104.82 237.462 104.891 237.69 105.034C237.918 105.177 238.098 105.38 238.228 105.645C238.363 105.91 238.43 106.218 238.43 106.568C238.43 106.919 238.363 107.229 238.228 107.498C238.098 107.762 237.918 107.968 237.69 108.115C237.462 108.258 237.207 108.329 236.926 108.329C236.69 108.329 236.48 108.28 236.296 108.182C236.117 108.084 235.976 107.958 235.875 107.803V109.906H234.829V104.869H235.875V105.352ZM237.366 106.568C237.366 106.308 237.293 106.104 237.146 105.957C237.003 105.806 236.826 105.731 236.614 105.731C236.406 105.731 236.229 105.806 236.082 105.957C235.94 106.108 235.868 106.314 235.868 106.574C235.868 106.835 235.94 107.041 236.082 107.192C236.229 107.343 236.406 107.418 236.614 107.418C236.822 107.418 236.999 107.343 237.146 107.192C237.293 107.037 237.366 106.829 237.366 106.568ZM240.023 105.352C240.125 105.193 240.266 105.065 240.445 104.967C240.625 104.869 240.834 104.82 241.075 104.82C241.356 104.82 241.611 104.891 241.839 105.034C242.067 105.177 242.247 105.38 242.377 105.645C242.511 105.91 242.579 106.218 242.579 106.568C242.579 106.919 242.511 107.229 242.377 107.498C242.247 107.762 242.067 107.968 241.839 108.115C241.611 108.258 241.356 108.329 241.075 108.329C240.839 108.329 240.629 108.28 240.445 108.182C240.266 108.084 240.125 107.958 240.023 107.803V109.906H238.978V104.869H240.023V105.352ZM241.515 106.568C241.515 106.308 241.442 106.104 241.295 105.957C241.152 105.806 240.975 105.731 240.763 105.731C240.555 105.731 240.378 105.806 240.231 105.957C240.089 106.108 240.017 106.314 240.017 106.574C240.017 106.835 240.089 107.041 240.231 107.192C240.378 107.343 240.555 107.418 240.763 107.418C240.971 107.418 241.148 107.343 241.295 107.192C241.442 107.037 241.515 106.829 241.515 106.568ZM244.172 105.437C244.295 105.25 244.447 105.103 244.631 104.997C244.814 104.887 245.018 104.832 245.242 104.832V105.939H244.955C244.694 105.939 244.498 105.996 244.368 106.11C244.238 106.22 244.172 106.416 244.172 106.697V108.28H243.127V104.869H244.172V105.437ZM247.294 108.329C246.96 108.329 246.659 108.258 246.39 108.115C246.125 107.972 245.915 107.769 245.76 107.504C245.609 107.239 245.534 106.929 245.534 106.574C245.534 106.224 245.611 105.916 245.766 105.651C245.921 105.382 246.133 105.177 246.402 105.034C246.671 104.891 246.973 104.82 247.307 104.82C247.641 104.82 247.942 104.891 248.211 105.034C248.48 105.177 248.692 105.382 248.847 105.651C249.002 105.916 249.079 106.224 249.079 106.574C249.079 106.925 249 107.235 248.841 107.504C248.686 107.769 248.472 107.972 248.199 108.115C247.93 108.258 247.629 108.329 247.294 108.329ZM247.294 107.424C247.494 107.424 247.663 107.351 247.802 107.204C247.944 107.057 248.016 106.848 248.016 106.574C248.016 106.301 247.947 106.092 247.808 105.945C247.673 105.798 247.506 105.725 247.307 105.725C247.103 105.725 246.934 105.798 246.799 105.945C246.665 106.087 246.598 106.297 246.598 106.574C246.598 106.848 246.663 107.057 246.793 107.204C246.928 107.351 247.095 107.424 247.294 107.424ZM251.168 107.302L251.908 104.869H253.021L251.81 108.28H250.52L249.31 104.869H250.429L251.168 107.302ZM256.676 106.519C256.676 106.617 256.67 106.719 256.658 106.825H254.292C254.308 107.037 254.375 107.2 254.494 107.314C254.616 107.424 254.765 107.479 254.94 107.479C255.201 107.479 255.382 107.369 255.484 107.149H256.597C256.539 107.373 256.436 107.575 256.285 107.754C256.138 107.934 255.953 108.074 255.728 108.176C255.504 108.278 255.254 108.329 254.977 108.329C254.642 108.329 254.345 108.258 254.084 108.115C253.823 107.972 253.62 107.769 253.473 107.504C253.326 107.239 253.253 106.929 253.253 106.574C253.253 106.22 253.324 105.91 253.467 105.645C253.613 105.38 253.817 105.177 254.078 105.034C254.339 104.891 254.638 104.82 254.977 104.82C255.307 104.82 255.6 104.889 255.857 105.028C256.114 105.166 256.313 105.364 256.456 105.621C256.603 105.878 256.676 106.177 256.676 106.519ZM255.606 106.244C255.606 106.065 255.545 105.922 255.423 105.816C255.301 105.711 255.148 105.658 254.964 105.658C254.789 105.658 254.64 105.708 254.518 105.81C254.4 105.912 254.327 106.057 254.298 106.244H255.606ZM257.02 106.568C257.02 106.218 257.085 105.91 257.215 105.645C257.35 105.38 257.531 105.177 257.759 105.034C257.987 104.891 258.242 104.82 258.523 104.82C258.748 104.82 258.951 104.867 259.135 104.961C259.322 105.054 259.469 105.181 259.575 105.34V103.756H260.62V108.28H259.575V107.791C259.477 107.954 259.336 108.084 259.153 108.182C258.974 108.28 258.764 108.329 258.523 108.329C258.242 108.329 257.987 108.258 257.759 108.115C257.531 107.968 257.35 107.762 257.215 107.498C257.085 107.229 257.02 106.919 257.02 106.568ZM259.575 106.574C259.575 106.314 259.501 106.108 259.355 105.957C259.212 105.806 259.037 105.731 258.829 105.731C258.621 105.731 258.444 105.806 258.297 105.957C258.155 106.104 258.083 106.308 258.083 106.568C258.083 106.829 258.155 107.037 258.297 107.192C258.444 107.343 258.621 107.418 258.829 107.418C259.037 107.418 259.212 107.343 259.355 107.192C259.501 107.041 259.575 106.835 259.575 106.574Z" fill="black"/>
</svg>
