<svg width="427" height="295" viewBox="0 0 427 295" fill="none" xmlns="http://www.w3.org/2000/svg">
<path opacity="0.5" d="M385.593 292.314C401.157 268.579 424.972 222.057 426.823 192.72C429.562 149.355 399.898 156.764 378.24 134.253C368.794 124.435 396.029 92.3962 355.761 66.7374C330.779 50.8201 295.617 82.5661 274.894 42.864C253.663 2.18052 171.925 -12.0604 105.497 11.1196C4.24888 46.4502 108.113 81.0345 42.2466 108.99C2.83885 125.715 21.5422 162.115 25.4794 173.954C28.9092 184.266 48.2869 196.464 20.0658 223.144C-3.43479 245.356 14.9825 280.998 21.8079 292.312L385.593 292.314Z" fill="#F4E9D3"/>
<path d="M1.65185 292.294H419.516C420.429 292.294 421.168 292.508 421.168 292.772C421.168 293.036 420.429 293.251 419.516 293.251H1.65185C0.740779 293.251 0 293.036 0 292.772C0 292.508 0.740779 292.294 1.65185 292.294Z" fill="#817F7F"/>
<path d="M240.333 199.591L353.906 259.7L355.369 256.933L241.796 196.825L240.333 199.591Z" fill="#9BC1F9"/>
<path d="M305.596 290.951L303.212 290.931C303.527 267.802 303.804 232.677 303.278 230.706C303.311 230.805 303.365 230.896 303.436 230.972L305.373 229.849C305.686 230.199 305.875 230.41 305.941 240.242C305.974 245.303 305.962 252.293 305.902 261.018C305.798 275.872 305.597 290.803 305.596 290.951Z" fill="#13375B"/>
<path d="M325.479 227.67L324.197 226.585C328.892 221.036 331.474 210.463 331.663 196.008C331.733 189.134 331.34 182.262 330.486 175.441L332.15 175.208C333.013 182.106 333.412 189.056 333.342 196.008C333.257 202.569 332.688 208.395 331.649 213.324C330.329 219.556 328.253 224.382 325.479 227.67Z" fill="#184655"/>
<path d="M313.251 148.501C313.945 148.501 339.816 145.69 340.276 149.164C340.736 152.638 341.664 179.722 337.041 180.649C332.417 181.576 309.964 177.412 309.964 177.412L313.251 148.501Z" fill="#B75742"/>
<path d="M280.108 229.498C281.106 229.299 277.554 232.97 280.108 234.129C282.663 235.287 321.069 234.591 324.076 233.202C327.084 231.814 330.788 229.498 329.4 226.488C328.012 223.478 304.338 219.544 304.338 219.544L282.88 225.336C282.88 225.336 278.95 229.73 280.108 229.498Z" fill="#466EB6"/>
<path d="M288.813 288.314H320.19C320.309 288.314 320.427 288.337 320.537 288.383C320.647 288.428 320.746 288.495 320.831 288.579C320.915 288.664 320.981 288.763 321.027 288.873C321.072 288.983 321.096 289.101 321.096 289.22V290.951C321.096 290.993 321.079 291.033 321.049 291.063C321.02 291.093 320.98 291.11 320.938 291.11H288.071C288.05 291.11 288.029 291.106 288.01 291.098C287.991 291.09 287.973 291.078 287.959 291.063C287.944 291.048 287.932 291.031 287.924 291.012C287.916 290.993 287.912 290.972 287.912 290.951V289.229C287.911 289.109 287.934 288.991 287.978 288.88C288.023 288.77 288.089 288.669 288.173 288.584C288.257 288.499 288.356 288.432 288.466 288.385C288.576 288.339 288.694 288.315 288.813 288.314Z" fill="#346384"/>
<path d="M307.481 285.973H301.691C301.297 285.973 300.978 286.293 300.978 286.687V288.994C300.978 289.388 301.297 289.707 301.691 289.707H307.481C307.875 289.707 308.195 289.388 308.195 288.994V286.687C308.195 286.293 307.875 285.973 307.481 285.973Z" fill="#346384"/>
<path d="M289.466 220.176C290.23 219.794 310.705 205.431 310.705 205.431L285.644 202.976C285.644 202.976 246.465 208.339 240.75 213.104C240.338 213.445 239.959 213.785 239.61 214.092C238.258 215.324 237.395 217.003 237.182 218.821C236.969 220.639 237.419 222.472 238.451 223.984C242.313 229.662 239.893 229.069 246.454 238.398C254.222 249.431 272.418 271.315 272.418 271.315C274.621 274.018 277.62 277.789 277.652 278.278C277.702 279.058 277.354 287.574 276.46 288.355C275.566 289.135 272.959 289.689 273.8 290.569C274.434 291.232 279.316 291.091 282.552 290.91C283.497 290.859 284.68 283.32 285.055 282.211C285.598 280.601 286.928 276.978 286.417 275.855C286.176 275.308 285.024 274.185 283.403 273.129C282.366 272.46 279.555 268.849 277.504 266.115C277.504 266.115 258.831 231.153 256.899 229.786C254.966 228.42 247.412 219.787 247.412 219.787C247.412 219.787 260.013 224.558 260.594 224.558C261.175 224.558 288.696 220.557 289.466 220.176Z" fill="#F48C7F"/>
<path d="M283.317 273.083C283.317 273.083 278.296 287.223 276.335 287.905C275.813 288.086 273.31 288.546 272.837 289.653C272.695 289.994 272.837 291.101 272.837 291.101H283.3C283.3 291.101 284.623 284.872 285.146 282.135C285.146 282.135 287.916 275.446 287.608 274.838C287.3 274.23 283.317 273.083 283.317 273.083Z" fill="#0E2E35"/>
<path d="M313.251 205.65C313.251 205.65 291.567 203.548 284.117 205.65C276.667 207.753 246.673 216.927 244.571 219.22C242.47 221.513 215.342 276.122 215.328 276.146C213.843 279.024 212.355 281.768 211.752 282.436C210.931 283.348 209.978 284.259 209.028 284.838C208.653 285.067 207.614 285.726 207.325 285.861C202.951 287.971 201.846 288.636 200.477 289.641C199.641 290.256 198.956 290.922 199.993 290.905L219.046 290.61C219.046 290.61 219.885 290.27 220.621 288.907C221.357 287.544 220.074 285.629 219.788 284.172C219.587 283.162 220.299 281.337 221.287 279.446C221.287 279.446 247.436 248.671 248.01 246.377C248.583 244.082 253.742 229.941 253.742 229.941C266.343 229.941 304.66 230.609 311.102 224.588C317.544 218.568 313.251 205.65 313.251 205.65Z" fill="#F7A491"/>
<path d="M228.145 284.837C233.18 286.126 236.903 285.249 238.986 284.411C239.524 285.93 240.236 287.837 239.858 288.937C239.394 290.283 238.737 290.587 238.155 290.602C233.557 290.723 221.306 290.886 217.798 290.932C217.688 290.934 217.58 290.904 217.487 290.846C217.394 290.788 217.32 290.705 217.273 290.605C217.226 290.506 217.208 290.396 217.222 290.287C217.236 290.178 217.281 290.076 217.351 289.992C218.222 288.954 227.768 285.067 228.145 284.837Z" fill="#0E2E35"/>
<path d="M285.644 202.976C285.644 202.976 246.465 208.339 240.75 213.104L240.542 213.274L241.686 213.104C241.686 213.104 250.712 212.532 258.012 223.718C259.434 224.229 260.463 224.57 260.618 224.57C261.192 224.57 288.701 220.556 289.466 220.174C290.23 219.793 310.705 205.427 310.705 205.427L285.644 202.976Z" fill="#B75742"/>
<path d="M313.251 205.65C313.251 205.65 291.567 203.548 284.117 205.65C278.601 207.208 260.73 212.635 250.967 216.286C254.421 218.655 258.241 222.777 261.304 229.945C277.531 229.969 305.661 229.653 311.102 224.571C317.549 218.545 313.251 205.65 313.251 205.65Z" fill="#B75742"/>
<path d="M248.931 182.442L271.805 177.378C271.805 177.378 280.078 166.746 288.022 157.594C290.36 159.909 291.659 163.466 294.013 165.758L276.551 185.082C276.239 185.427 275.859 185.703 275.435 185.892C275.01 186.081 274.551 186.18 274.087 186.181L249.844 186.261L241.547 186.924V181.612L248.931 182.442Z" fill="#F48C7F"/>
<path d="M291.824 154.367C287.824 153.306 271.805 177.378 271.805 177.378C271.805 177.378 273.974 178.387 277.838 183.658L284.01 176.828L284.02 176.84C284.02 176.84 296.281 165.255 298.616 161.214C300.951 157.173 295.825 155.43 291.824 154.367Z" fill="#154EB0"/>
<path d="M283.028 126.483C283.126 126.287 283.185 126.182 283.185 126.182L283.177 126.1C283.464 125.386 283.778 124.677 284.125 123.975C286.419 119.321 292.097 116.68 297.275 116.673C298.841 116.663 300.401 116.875 301.907 117.304C304.027 118.256 309.209 121.563 310.558 131.383C311.024 134.787 310.367 138.251 308.685 141.247C310.08 142.124 311.912 143.9 313.24 147.486C315.679 154.074 327.874 155.537 329.093 164.321C330.312 173.105 317.631 188.965 304.216 178.717C293.999 170.916 295.666 156.048 297.04 149.392C293.856 149.832 290.433 149.222 287.144 147.242C282.959 144.712 281.261 141.3 280.806 137.957C280.912 134.052 281.586 130.202 283.028 126.483Z" fill="black"/>
<path d="M299.661 151.46C299.661 151.46 307.788 149.856 311.495 152.955C315.202 156.054 310.702 183.609 310.705 188.176C310.708 192.744 313.259 205.651 313.259 205.651C313.259 205.651 288.631 209.962 284.72 203.105C284.72 203.105 283.606 176.98 283.773 173.695C283.94 170.41 284.989 160.659 288.599 155.534C289.602 154.098 299.661 151.46 299.661 151.46Z" fill="#176CFF"/>
<path d="M295.288 149.278C303.6 149.278 309.521 141.75 309.763 141.431C309.874 141.277 309.921 141.086 309.895 140.898C309.868 140.71 309.769 140.539 309.619 140.423C309.469 140.306 309.279 140.253 309.09 140.273C308.901 140.294 308.728 140.387 308.607 140.533C308.55 140.606 302.868 147.813 295.283 147.813C295.089 147.813 294.902 147.89 294.765 148.028C294.628 148.165 294.551 148.351 294.551 148.546C294.551 148.74 294.628 148.926 294.765 149.064C294.902 149.201 295.089 149.278 295.283 149.278H295.288Z" fill="#B75742"/>
<path d="M299.712 138.886C299.712 138.886 299.755 139.129 299.831 139.542C300.201 141.526 301.62 148.108 302.578 149.919C303.738 152.104 298.612 159.079 293.679 158.227C292.211 157.974 294.92 151.82 294.791 151.167C294.54 149.92 294.203 148.217 293.858 146.472C293.662 145.486 293.464 144.487 293.279 143.55C292.751 140.882 292.322 138.702 292.322 138.702L299.712 138.886Z" fill="#F7A491"/>
<path d="M299.831 139.542C299.755 139.129 299.712 138.886 299.712 138.886L292.322 138.702C292.322 138.702 292.751 140.882 293.279 143.55C293.463 144.482 293.66 145.475 293.854 146.455C294.995 146.285 296.187 145.733 297.383 144.688C298.605 143.621 299.526 142.253 300.056 140.719C299.966 140.252 299.889 139.85 299.831 139.542Z" fill="#F47458"/>
<path d="M270.134 268.531C270.134 268.531 277.61 277.497 277.659 278.278C277.709 279.058 277.361 287.575 276.467 288.355C275.573 289.135 272.966 289.689 273.807 290.57C274.441 291.232 279.323 291.091 282.559 290.91C283.504 290.859 284.687 283.32 285.062 282.211C285.605 280.601 286.935 276.978 286.424 275.855C286.183 275.308 285.031 274.185 283.41 273.129C281.707 272.027 275.175 262.94 275.175 262.94L270.134 268.531Z" fill="#F48C7F"/>
<path d="M283.317 273.083C283.317 273.083 278.296 287.223 276.335 287.905C275.813 288.086 273.31 288.546 272.837 289.653C272.695 289.994 272.837 291.101 272.837 291.101H283.3C283.3 291.101 284.623 284.872 285.146 282.135C285.146 282.135 287.916 275.446 287.608 274.838C287.3 274.23 283.317 273.083 283.317 273.083Z" fill="#184655"/>
<path d="M244.464 272.838C244.464 272.838 238.359 281.434 238.897 284.155C239.185 285.612 240.465 287.518 239.73 288.89C238.994 290.261 238.154 290.593 238.154 290.593L219.112 290.9C218.075 290.917 218.761 290.251 219.597 289.636C220.96 288.631 222.07 287.966 226.443 285.855C226.729 285.717 227.766 285.058 228.146 284.833C229.096 284.254 230.05 283.343 230.871 282.431C232.233 280.91 238.25 268.526 238.25 268.526L244.464 272.838Z" fill="#F7A491"/>
<path d="M228.145 284.837C233.18 286.126 236.903 285.249 238.986 284.411C239.524 285.93 240.236 287.837 239.858 288.937C239.394 290.283 238.737 290.587 238.155 290.602C233.557 290.723 221.306 290.886 217.798 290.932C217.688 290.934 217.58 290.904 217.487 290.846C217.394 290.788 217.32 290.705 217.273 290.605C217.226 290.506 217.208 290.396 217.222 290.287C217.236 290.178 217.281 290.076 217.351 289.992C218.222 288.954 227.768 285.067 228.145 284.837Z" fill="#184655"/>
<path d="M263.411 182.442L286.283 177.378C286.283 177.378 294.556 166.746 302.5 157.594C304.838 159.909 306.137 163.466 308.492 165.758L291.029 185.082C290.717 185.427 290.337 185.702 289.913 185.891C289.489 186.081 289.031 186.179 288.566 186.181L264.323 186.261L256.027 186.924V181.612L263.411 182.442Z" fill="#F7A491"/>
<path d="M216.418 156.393H254.142C254.63 156.393 255.108 156.539 255.514 156.812C255.919 157.085 256.234 157.473 256.418 157.926L268.034 186.268H288.832C288.97 186.268 289.107 186.295 289.235 186.348C289.363 186.401 289.479 186.479 289.576 186.576C289.674 186.674 289.752 186.79 289.804 186.918C289.857 187.046 289.885 187.183 289.885 187.321C289.885 187.6 289.774 187.868 289.576 188.065C289.379 188.263 289.111 188.374 288.832 188.374H229.64C228.843 188.374 228.064 188.143 227.395 187.711C226.726 187.278 226.196 186.661 225.869 185.934L214.174 159.868C214.004 159.493 213.931 159.081 213.961 158.671C213.992 158.26 214.125 157.864 214.348 157.518C214.571 157.172 214.878 156.888 215.24 156.691C215.601 156.494 216.006 156.392 216.418 156.393Z" fill="#2C374A"/>
<path d="M236.729 172.896C236.983 174.17 238.091 175.02 239.208 174.797C240.326 174.574 241.019 173.363 240.765 172.088C240.511 170.814 239.403 169.966 238.285 170.187C237.168 170.409 236.473 171.623 236.729 172.896Z" fill="white"/>
<path d="M293.318 120.871C293.318 120.871 297.306 120.423 299.806 123.568C302.306 126.713 305 136.439 298.784 141.726C292.568 147.012 286.439 141.029 285.528 134.683C284.617 128.337 284.268 120.641 293.318 120.871Z" fill="#F7A491"/>
<path d="M283.698 134.589C284.439 135.99 285.682 136.766 286.476 136.322C287.269 135.877 287.312 134.381 286.571 132.979C285.83 131.577 284.585 130.802 283.792 131.247C282.998 131.691 282.956 133.192 283.698 134.589Z" fill="#F7A491"/>
<path d="M292.872 119.832C292.872 119.832 298.198 129.079 302.011 129.507C305.824 129.935 306.323 134.85 306.323 134.85C306.323 134.85 304.961 123.525 301.187 121.341C297.413 119.157 292.872 119.832 292.872 119.832Z" fill="black"/>
<path d="M301.012 131.829C300.702 133.472 301.325 134.978 302.403 135.194C303.481 135.41 304.617 134.254 304.918 132.609C305.22 130.965 304.605 129.461 303.527 129.246C302.449 129.032 301.322 130.189 301.012 131.829Z" fill="#F7A491"/>
<path d="M296.436 137.305L290.76 138.518C290.76 138.518 291.351 140.646 293.863 140.184C296.924 139.622 296.436 137.305 296.436 137.305Z" fill="white"/>
<path d="M309.375 151.66C305.375 150.597 292.322 169.792 292.322 169.794C288.768 174.186 286.283 177.378 286.283 177.378C286.283 177.378 288.453 178.387 292.316 183.658L298.488 176.828L298.498 176.84C298.498 176.84 310.759 165.255 313.094 161.214C315.429 157.173 313.375 152.721 309.375 151.66Z" fill="#154EB0"/>
<path d="M226.157 292.297H135.097L111.578 191.979H226.157V292.297Z" fill="#7D97F4"/>
<path d="M356.039 191.979H224.81V292.299H356.039V191.979Z" fill="#91B3FA"/>
<path d="M358.591 188.348H98.7329V191.979H358.591V188.348Z" fill="#13375B"/>
<path d="M247.425 48.3344H165.924C165.255 48.3344 164.592 48.4664 163.973 48.7227C163.355 48.9791 162.793 49.3548 162.319 49.8285C161.846 50.3022 161.471 50.8645 161.215 51.4833C160.959 52.1022 160.827 52.7654 160.827 53.4352V87.0825C160.827 88.4348 161.364 89.7318 162.32 90.6881C163.276 91.6443 164.572 92.1815 165.924 92.1815H230.089C232.686 95.8069 237.395 102.3 237.81 102.3C238.2 102.3 237.451 96.1664 236.923 92.1815H247.425C248.777 92.1815 250.073 91.6443 251.029 90.6881C251.985 89.7318 252.522 88.4348 252.522 87.0825V53.4352C252.522 52.7654 252.391 52.1022 252.134 51.4833C251.878 50.8645 251.503 50.3022 251.03 49.8285C250.556 49.3548 249.994 48.9791 249.376 48.7227C248.757 48.4664 248.095 48.3344 247.425 48.3344Z" fill="#1FC9AA"/>
<path d="M195.267 59.2446H172.225C171.708 59.2446 171.288 59.6641 171.288 60.1816V60.5292C171.288 61.0467 171.708 61.4662 172.225 61.4662H195.267C195.785 61.4662 196.204 61.0467 196.204 60.5292V60.1816C196.204 59.6641 195.785 59.2446 195.267 59.2446Z" fill="white"/>
<path d="M172.225 66.5005H187.18C187.429 66.5005 187.667 66.5993 187.842 66.775C188.018 66.9507 188.117 67.1891 188.117 67.4376V67.7783C188.117 68.0268 188.018 68.2651 187.842 68.4409C187.667 68.6166 187.429 68.7153 187.18 68.7153H172.225C171.977 68.7153 171.738 68.6166 171.563 68.4409C171.387 68.2651 171.288 68.0268 171.288 67.7783V67.4376C171.289 67.1892 171.388 66.9511 171.563 66.7755C171.739 66.5999 171.977 66.501 172.225 66.5005Z" fill="white"/>
<path d="M209.926 66.5005H191.088C190.571 66.5005 190.152 66.9201 190.152 67.4376V67.7851C190.152 68.3026 190.571 68.7221 191.088 68.7221H209.926C210.444 68.7221 210.863 68.3026 210.863 67.7851V67.4376C210.863 66.9201 210.444 66.5005 209.926 66.5005Z" fill="white"/>
<path d="M214.424 66.5005H241.5C241.749 66.5005 241.988 66.5995 242.164 66.7755C242.34 66.9515 242.439 67.1903 242.439 67.4393V67.78C242.439 68.0285 242.34 68.2668 242.164 68.4426C241.989 68.6183 241.751 68.717 241.502 68.717H214.425C214.177 68.717 213.939 68.6183 213.763 68.4426C213.587 68.2668 213.489 68.0285 213.489 67.78V67.4393C213.489 67.3162 213.513 67.1943 213.559 67.0806C213.606 66.9668 213.675 66.8634 213.762 66.7762C213.849 66.689 213.952 66.6198 214.065 66.5725C214.179 66.5252 214.301 66.5008 214.424 66.5005Z" fill="white"/>
<path d="M241.616 59.2446H201.699C201.182 59.2446 200.763 59.6641 200.763 60.1816V60.5292C200.763 61.0467 201.182 61.4662 201.699 61.4662H241.616C242.134 61.4662 242.553 61.0467 242.553 60.5292V60.1816C242.553 59.6641 242.134 59.2446 241.616 59.2446Z" fill="white"/>
<path d="M241.618 80.7108H172.225C171.708 80.7108 171.288 81.1303 171.288 81.6478V81.9954C171.288 82.5129 171.708 82.9324 172.225 82.9324H241.618C242.135 82.9324 242.555 82.5129 242.555 81.9954V81.6478C242.555 81.1303 242.135 80.7108 241.618 80.7108Z" fill="white"/>
<path d="M207.168 73.69H172.225C171.708 73.69 171.288 74.1095 171.288 74.627V74.9746C171.288 75.4921 171.708 75.9116 172.225 75.9116H207.168C207.685 75.9116 208.104 75.4921 208.104 74.9746V74.627C208.104 74.1095 207.685 73.69 207.168 73.69Z" fill="white"/>
<path d="M241.617 73.69H210.867C210.349 73.69 209.93 74.1095 209.93 74.627V74.9746C209.93 75.4921 210.349 75.9116 210.867 75.9116H241.617C242.134 75.9116 242.553 75.4921 242.553 74.9746V74.627C242.553 74.1095 242.134 73.69 241.617 73.69Z" fill="white"/>
<path d="M356.039 224.583H224.81V240.478H356.039V224.583Z" fill="#BFCCFA"/>
<path d="M356.039 245.545H224.81V249.051H356.039V245.545Z" fill="#BFCCFA"/>
<path d="M85.3785 132.851C98.9322 138.55 103.295 126.1 102.956 126.429C103.213 126.147 105.254 125.236 106.558 124.584C111.99 121.858 115.274 115.537 115.149 109.172C122.944 104.325 124.975 94.0607 119.628 88.3875C121.273 82.084 116.936 75.1552 111.42 71.9574C107.244 64.521 96.7082 67.6983 91.0306 73.5367C88.1526 76.4943 86.4854 80.8284 86.5297 85.1472C79.8491 87.9736 76.3529 95.4986 77.8719 103.09C68.8583 110.668 71.5472 127.033 85.3785 132.851Z" fill="black"/>
<path d="M71.4537 176.397L69.1394 175.801C69.1837 175.63 73.579 157.783 78.2638 140.024C81.0157 129.589 83.33 121.222 85.1385 115.15C88.7147 103.192 89.4998 102.86 90.1997 102.567L91.1039 104.826C91.2002 104.788 91.2873 104.73 91.3594 104.656C90.7889 105.315 88.5683 110.244 80.2903 141.726C75.7128 159.108 71.4963 176.227 71.4537 176.397Z" fill="#B75742"/>
<path d="M149.673 175.879C149.673 175.879 148.631 175.048 148.311 174.744C147.929 174.388 146.87 173.235 146.87 173.235C146.87 173.235 143.37 169.044 143.699 168.805C144.028 168.567 145.031 168.954 145.336 169.136C145.64 169.318 146.017 169.504 146.325 169.686C146.633 169.869 147.02 169.79 147.274 169.424C147.527 169.058 146.463 168.061 146.027 167.793C144.665 166.952 140.578 165.436 140.159 165.257C139.648 165.045 134.919 156.653 133.068 153.907C130.173 149.322 127.424 144.464 127.119 143.976L120.887 121.585L111.82 120.684C111.82 120.684 118.388 145.629 118.858 146.845C119.081 147.421 126.615 157.526 126.619 157.522C130.641 162.263 134.197 166.431 134.856 167.252C134.856 167.252 136.174 170.237 136.899 172.192C137.625 174.148 139.077 175.644 139.367 176.16C140.082 177.51 141.023 178.727 142.149 179.758C143.738 181.215 142.894 179.09 142.894 179.09C142.894 179.09 140.431 175.854 140.717 175.695C140.939 175.576 142.18 177.426 143.922 179.056C144.37 179.475 144.815 179.888 145.225 180.263C146.303 181.247 147.212 180.852 146.247 179.637C145.815 179.083 145.345 178.56 144.838 178.073C144.314 177.601 143.987 176.995 143.604 176.528C142.848 175.603 142.286 174.939 142.34 174.927C142.395 174.915 142.391 174.62 142.88 175.051C143.468 175.562 144.476 176.947 145.4 177.639C145.923 178.031 146.969 178.918 146.969 178.918C146.969 178.918 148.818 180.167 148.915 180.079C149.438 179.598 148.369 178.319 147.589 177.883C147.234 177.342 146.109 176.441 146.109 176.441C146.109 176.441 144.236 174.097 144.566 173.821C144.833 173.594 150.383 178.326 150.875 177.806C151.277 177.378 149.673 175.879 149.673 175.879Z" fill="#F7A491"/>
<path d="M139.702 169.219C139.702 169.219 142.488 170.283 143.66 168.846C143.66 168.846 143.305 169.913 142.185 170.11C141.064 170.308 139.702 169.219 139.702 169.219Z" fill="#F47458"/>
<path d="M100.862 182.213L105.998 229.723C105.998 229.723 103.488 239.775 103.784 242.625C104.08 245.475 109.376 282.922 109.376 282.922L109.138 284.978L109.01 291.07L128.746 291.224C128.746 291.224 124.587 289.295 118.768 285.484C118.337 285.201 117.346 284.303 117.104 282.511C115.551 270.971 118.625 232.476 118.625 232.476L121.047 182.368L100.862 182.213Z" fill="#F7A491"/>
<path d="M89.6307 191.215C88.5238 191.505 86.8209 232.274 85.9047 234.088C80.0925 245.545 78.7115 280.378 78.7115 280.378L76.3137 285.256L76.8638 289.956C76.8638 289.956 81.2012 292.529 84.2443 290.793L83.7743 286.087L83.415 279.799L98.0756 236.402L106.098 192.139L89.6307 191.215Z" fill="#F7A491"/>
<path d="M127.198 213.315L127.894 185.183C128.015 177.232 125.456 169.603 122.312 162.354L115.659 150.769C113.516 151.474 112.334 144.912 110.083 145.172C108.38 145.37 107.221 145.775 105.644 145.872C102.67 146.055 100.867 152.067 97.6824 151.689C97.6687 151.88 95.6916 152.638 95.6388 152.774C94.1164 157.033 90.2303 161.575 88.1561 174.199C85.8009 188.53 85.8112 213.16 86.1126 214.842C108.624 215.878 113.99 216.692 127.198 213.315Z" fill="#2C374A"/>
<path d="M108.909 292.636H129.283C130.038 292.566 130.222 291.929 129.965 291.536C129.427 290.726 127.051 290.133 124.379 288.845C119.693 289.357 109.887 285.779 109.148 284.661C108.715 286.913 108.491 292.541 108.909 292.636Z" fill="#184655"/>
<path d="M76.3277 285.242C76.3277 285.242 78.1362 290.563 80.0929 290.409C82.0495 290.256 83.761 286.062 83.761 286.062C83.761 286.062 84.495 289.592 84.1527 291.536C83.8104 293.479 81.0227 295.474 79.1154 294.602C77.2081 293.73 74.6145 289.232 76.3277 285.242Z" fill="#184655"/>
<path d="M114.201 132.572C116.094 132.304 117.957 131.853 119.764 131.228C121.397 130.638 124.112 129.354 124.112 129.354C124.112 129.354 122.579 116.099 118.748 108.073C117.16 104.756 115.556 103.155 113.317 102.771C113.293 102.766 114.201 132.572 114.201 132.572Z" fill="#169780"/>
<path d="M119.133 117.573C118.557 115.423 117.271 112.597 116.537 110.646C115.294 107.336 114.923 104.243 113.826 102.918C113.234 102.204 105.632 102.312 104.699 102.216C104.314 102.175 102.793 102.276 101.32 102.368C100.457 102.467 91.8924 103.158 90.6493 103.71C84.4795 109.896 81.4943 118.225 76.8555 127.326C76.8555 127.326 80.3312 129.371 83.1001 130.66C84.3041 131.219 86.6099 132.115 86.6099 132.115L91.9588 122.902C92.0167 122.856 92.2994 122.553 92.3744 122.749C92.4987 123.055 96.4035 151.767 96.4035 151.767C96.4035 151.767 112.232 153.098 115.946 151.271C115.946 151.271 116.628 132.103 118.002 126.478C118.509 124.406 120.059 121.036 119.133 117.573Z" fill="#1FC9AA"/>
<path d="M100.279 93.5547C100.279 93.5547 101.471 100.242 101.228 102.879C100.984 105.516 102.134 114.017 107.26 114.045C112.385 114.072 108.903 105.22 108.419 102.63C107.936 100.04 107.163 90.069 107.163 90.069L100.279 93.5547Z" fill="#F7A491"/>
<path d="M100.778 96.7541C103.322 98.8922 106.124 99.5584 107.956 98.9962C107.553 95.1459 107.154 90.069 107.154 90.069L100.279 93.5547C100.279 93.5547 100.53 94.9704 100.778 96.7541Z" fill="#F47458"/>
<path d="M104.15 75.6731C104.15 75.6731 100.163 76.1058 98.411 79.7176C96.6586 83.3294 97.5271 94.1885 104.124 97.3045C109.337 99.7663 114.228 93.7626 114.276 87.3585C114.315 81.9664 112.92 73.4754 104.15 75.6731Z" fill="#F7A491"/>
<path d="M105.674 73.0375C104.974 80.7722 99.7137 84.7638 97.3569 85.6446C94.1213 82.1351 95.3883 77.6902 98.038 75.6118C100.688 73.5333 105.674 73.0375 105.674 73.0375Z" fill="black"/>
<path d="M99.4447 88.0451C100.104 89.5784 99.8244 91.1832 98.8197 91.6228C97.815 92.0623 96.4645 91.1866 95.8038 89.6516C95.143 88.1166 95.424 86.5135 96.4288 86.0739C97.4335 85.6344 98.7839 86.5118 99.4447 88.0451Z" fill="#F7A491"/>
<path d="M104.691 92.3757L110.481 92.3195C110.481 92.3195 110.369 94.524 107.82 94.6229C104.719 94.7421 104.691 92.3757 104.691 92.3757Z" fill="white"/>
<path d="M94.3089 176.295V185.418C94.3089 190.161 90.9694 194.006 86.85 194.006H79.1782V172.734H91.2197C91.623 172.739 92.0207 172.828 92.3871 172.997C92.7536 173.165 93.0805 173.409 93.3467 173.712C93.9784 174.423 94.3216 175.344 94.3089 176.295Z" fill="#B75742"/>
<path d="M93.3465 173.712H93.2954C91.7117 173.712 90.4293 175.191 90.4293 177.012V183.723C90.4293 189.399 86.4343 194.001 81.5042 194.001H76.8348C71.9048 194.001 67.9097 189.401 67.9097 183.723V177.046C67.9097 174.661 69.5871 172.734 71.6561 172.734H91.2195C91.6228 172.739 92.0205 172.828 92.3869 172.997C92.7534 173.165 93.0803 173.409 93.3465 173.712Z" fill="#F47458"/>
<path d="M94.329 176.104L91.9449 176.092C91.9449 175.922 92.0198 158.994 91.7933 141.731C91.6605 131.599 91.4527 123.331 91.1717 117.178C90.6932 106.652 90.1091 104.765 89.9422 104.458C89.9133 103.891 90.2011 102.584 90.2011 102.584C90.4109 102.497 90.6393 102.464 90.8653 102.488C91.0912 102.513 91.3073 102.594 91.4936 102.724C92.1084 103.148 92.4898 103.961 92.8679 107.225C93.1012 109.245 93.3123 112.113 93.4912 115.743C93.7943 121.835 94.0208 130.192 94.1638 140.579C94.4073 158.251 94.3307 175.928 94.329 176.104Z" fill="#B75742"/>
<path d="M106.311 159.892C106.618 159.957 108.719 160.081 108.719 160.081C108.719 160.081 111.8 158.207 112.241 159.096C112.375 159.362 109.048 161.258 109.048 161.258C109.048 161.258 105.831 161.364 105.061 161.342C103.629 161.306 100.618 160.899 96.1395 157.565C92.2653 155.587 72.7955 144.223 72.5094 142.061C72.3392 140.784 75.3023 134.114 78.1734 128.076C79.4404 128.783 81.409 129.861 83.112 130.657C83.9174 131.028 85.2134 131.551 85.9831 131.85C84.1218 135.443 82.361 139.143 82.5909 139.908C82.7901 140.579 99.4176 153.275 99.4176 153.275L102.74 152.82C102.74 152.82 108.598 153.515 108.734 154.217C108.871 154.919 106.262 154.728 105.916 154.835C105.595 154.93 105.289 155.069 105.007 155.248C105.969 155.708 107.495 156.44 108.351 156.479C110.318 156.549 112.595 156.261 112.842 156.544C113.13 156.873 110.143 157.781 108.034 157.907C107.173 157.953 106.65 157.689 106.274 157.759C105.763 157.866 106.662 158.27 108.099 158.19C108.922 158.137 110.354 157.679 111.258 157.553C112.743 157.341 113.576 157.459 113.7 157.588C113.905 157.801 109.485 159.221 109.485 159.221C109.485 159.221 106.609 159.597 105.952 159.561C105.943 159.573 105.543 159.738 106.311 159.892Z" fill="#F8A492"/>
</svg>
