<svg width="403" height="340" viewBox="0 0 403 340" fill="none" xmlns="http://www.w3.org/2000/svg">
<path d="M387.707 284.588H387.594L387.926 278.824H358.611L360.026 303.273C360.154 305.48 361.12 307.554 362.728 309.072C364.336 310.589 366.462 311.434 368.673 311.434H377.871C380.082 311.434 382.209 310.589 383.817 309.072C385.425 307.555 386.392 305.48 386.52 303.273L386.846 297.631C387.131 297.657 387.421 297.674 387.714 297.674C391.995 297.674 395.476 294.737 395.476 291.129C395.476 287.52 391.988 284.588 387.707 284.588ZM387.707 294.966C387.47 294.964 387.234 294.949 386.999 294.921L387.438 287.308C387.528 287.308 387.617 287.308 387.709 287.308C390.495 287.308 392.759 289.03 392.759 291.143C392.759 293.256 390.492 294.969 387.707 294.969V294.966Z" fill="#1FC9AA"/>
<path d="M376.237 276.614C373.362 276.241 370.649 274.574 368.8 272.196C367.854 270.989 367.152 269.609 366.734 268.132C366.616 267.764 366.55 267.385 366.468 267.007C366.385 266.63 366.34 266.246 366.321 265.861C366.249 265.096 366.249 264.326 366.321 263.561C366.47 262.033 366.892 260.544 367.569 259.165C367.908 258.476 368.312 257.821 368.777 257.21C369.232 256.609 369.742 256.051 370.3 255.545C370.817 255.073 371.314 254.651 371.739 254.233C371.948 254.039 372.145 253.833 372.329 253.615C372.494 253.421 372.64 253.213 372.767 252.993C373.02 252.562 373.161 252.076 373.178 251.577C373.215 251.11 373.068 250.646 372.77 250.285L373.508 249.209C373.91 249.42 374.257 249.724 374.517 250.096C374.767 250.467 374.947 250.879 375.05 251.313C375.24 252.158 375.199 253.037 374.933 253.861C374.35 255.526 373.239 256.615 372.409 257.587C372.016 258.03 371.658 258.503 371.338 259.002C371.173 259.238 371.041 259.5 370.895 259.748C370.748 259.995 370.628 260.262 370.522 260.533C370.058 261.598 369.759 262.727 369.635 263.882C369.385 266.207 369.908 268.55 371.123 270.548C372.428 272.646 374.322 274.313 376.569 275.34L376.237 276.614Z" fill="#E5ECFF"/>
<path d="M377.114 269.753C378.241 268.778 379.207 267.631 379.975 266.354C380.697 265.158 381.192 263.84 381.435 262.465C381.654 261.09 381.633 259.688 381.372 258.321C381.085 256.858 380.589 255.445 379.897 254.125L380.841 253.229C382.365 254.2 383.513 255.752 384.183 257.474C384.869 259.244 385.051 261.17 384.709 263.038C384.362 264.901 383.517 266.636 382.265 268.059C381.065 269.453 379.471 270.451 377.692 270.92L377.114 269.753Z" fill="#E5ECFF"/>
<path d="M145.705 317.26C108.269 310.01 81.8269 288.197 69.5527 254.408C50.0306 200.66 70.949 121.43 126.919 104.021C149.089 97.1269 176.303 109.472 199.075 109.304C231.058 109.068 259.821 89.4402 291.594 91.9427C332.957 95.2023 363.194 133.308 370.949 171.972C373.624 185.272 373.909 198.942 371.791 212.342C369.475 226.859 364.758 241.084 357.597 253.663C351.429 264.5 337.167 278.848 325.034 281.73L145.705 317.26Z" stroke="#1FC9AA" stroke-miterlimit="10"/>
<path d="M245.912 311.257C282.909 302.122 311.18 274.534 320.916 242.966C336.419 192.752 309.427 122.104 251.972 110.068C240.301 107.625 228.001 108.243 216.161 109.611C196.82 111.847 176.98 114.656 157.488 114.033C138.532 113.43 120.149 107.856 101.047 108.285C37.9096 109.701 0.0988653 170.003 14.5878 225.213C18.0124 238.261 23.8217 250.879 31.9589 261.835C38.9663 271.269 54.3656 283.357 66.7482 285.162L245.912 311.257Z" stroke="#1FC9AA" stroke-miterlimit="10"/>
<mask id="mask0_3910_17520" style="mask-type:luminance" maskUnits="userSpaceOnUse" x="31" y="83" width="316" height="237">
<path d="M338.77 251.023C328.848 279.737 316.996 308.101 275.772 319.045L97.5988 317.158C57.4389 298.195 35.4992 260.741 31.848 220.343C30.6434 206.812 31.4462 193.178 34.2302 179.883C34.9614 176.345 35.8341 172.828 36.8483 169.333C46.0468 137.598 65.5359 107.679 94.5161 90.8034C113.149 79.9538 137.006 83.5389 156.783 89.1052C174.614 94.122 192.032 101.151 210.441 103.257C225.107 104.939 240.025 103.446 254.736 104.023C259.997 104.189 265.24 104.741 270.421 105.674C292.646 109.849 312.345 123.475 325.867 141.695C330.524 147.952 334.427 154.737 337.494 161.908C349.398 189.876 348.677 222.303 338.77 251.023Z" fill="white"/>
</mask>
<g mask="url(#mask0_3910_17520)">
<path d="M338.77 251.023C328.848 279.737 316.996 308.101 275.772 319.045L97.5988 317.158C57.4389 298.195 35.4992 260.741 31.848 220.343C30.6434 206.812 31.4462 193.178 34.2302 179.883C34.9614 176.345 35.8341 172.828 36.8483 169.333C46.0468 137.598 65.5359 107.679 94.5161 90.8034C113.149 79.9538 137.006 83.5389 156.783 89.1052C174.614 94.122 192.032 101.151 210.441 103.257C225.107 104.939 240.025 103.446 254.736 104.023C259.997 104.189 265.24 104.741 270.421 105.674C292.646 109.849 312.345 123.475 325.867 141.695C330.524 147.952 334.427 154.737 337.494 161.908C349.398 189.876 348.677 222.303 338.77 251.023Z" fill="#C9DDF4"/>
<path d="M-0.160564 294.499C-0.971924 284.636 4.55664 273.998 14.2528 266.741C23.0905 260.137 33.9943 256.759 44.4618 254.104C102.62 239.341 164.043 241.103 223.458 242.806C276.548 244.33 331.449 245.903 384.006 235.73C391.49 234.282 399.353 232.518 406.047 228.366C413.236 223.906 417.788 216.918 417.925 210.132C418.185 197.396 404.396 188.683 396.155 184.617C364.859 169.173 326.341 163.363 274.97 166.328C236.019 168.607 197.396 174.808 159.689 184.836C151.198 187.093 142.554 189.591 134.202 192.004C104.304 200.648 73.3924 209.583 41.8626 209.583H41.3909C32.8316 209.559 21.8428 207.825 18.0974 199.705C15.4534 193.973 17.6775 187.44 20.0078 182.978C27.7912 168.045 42.5278 159.342 53.5188 154.674C65.8614 149.429 79.2771 146.575 92.2471 143.825L96.8652 142.839C125.937 136.571 154.671 128.824 182.954 119.628C196.313 115.283 203.167 109.632 203.913 102.354C204.573 95.8957 199.835 90.2421 194.844 87.4943C188.867 84.2112 181.803 83.7843 176.319 83.7819H176.242C159.684 83.7818 143.376 87.8149 128.728 95.5324C123.329 98.3864 118.114 101.785 113.081 105.071C106.413 109.42 99.5163 113.918 92.089 117.227C77.6969 123.614 60.6913 125.97 41.49 124.22C26.6732 122.869 15.3803 119.232 6.96477 113.099C1.8867 109.399 -2.35171 104.627 -6.45095 100.009C-11.4323 94.4003 -16.5929 88.6005 -23.197 84.8338L-22.7583 84.0649C-16.0127 87.9047 -10.812 93.7611 -5.77639 99.4241C-1.71017 104.005 2.49758 108.741 7.49781 112.396C15.7812 118.432 26.9303 122.015 41.582 123.35C60.6159 125.086 77.4893 122.755 91.7258 116.42C99.0941 113.142 105.96 108.663 112.599 104.332C117.654 101.03 122.881 97.6269 128.315 94.7518C143.092 86.9684 159.542 82.9006 176.244 82.8998H176.322C181.912 82.8998 189.12 83.3408 195.273 86.7207C200.519 89.6006 205.495 95.5773 204.795 102.436C204.009 110.099 196.957 115.996 183.23 120.463C154.918 129.668 126.154 137.422 97.0515 143.695C95.5137 144.027 93.9736 144.356 92.431 144.683C79.4894 147.419 66.1161 150.264 53.8514 155.476C43.0018 160.092 28.4469 168.684 20.7791 183.379C18.5408 187.671 16.3968 193.924 18.8922 199.327C22.4301 207.026 33.0816 208.667 41.3838 208.691H41.8556C73.2627 208.691 104.123 199.773 133.952 191.148C142.308 188.733 150.948 186.235 159.458 183.975C197.222 173.932 235.903 167.722 274.914 165.439C326.454 162.462 365.102 168.302 396.542 183.815C404.972 187.975 419.074 196.926 418.805 210.144C418.661 217.22 413.948 224.494 406.507 229.112C399.688 233.343 391.733 235.126 384.171 236.591C331.518 246.79 276.567 245.214 223.428 243.69C164.083 241.99 102.715 240.23 44.6741 254.962C34.2962 257.594 23.4915 260.932 14.7788 267.449C5.31611 274.524 -0.0803719 284.864 0.716835 294.429L-0.160564 294.499Z" fill="white"/>
</g>
<path d="M256.927 294.846C268.956 297.929 285.485 300.695 280.219 310.979L250.248 310.95L256.927 294.846Z" fill="#E28B6D"/>
<path d="M132.501 223.989H103.512C93.6133 223.989 85.5889 232.013 85.5889 241.912V301.12C85.5889 311.018 93.6133 319.043 103.512 319.043H132.501C142.4 319.043 150.424 311.018 150.424 301.12V241.912C150.424 232.013 142.4 223.989 132.501 223.989Z" fill="#102048"/>
<path opacity="0.8" d="M100.026 232.751C98.9364 233.036 98.2028 234.032 97.7099 235.046C97.2274 236.101 96.8704 237.21 96.6462 238.348C96.1784 240.642 95.8929 242.969 95.7924 245.308C95.5785 250.005 95.6266 254.71 95.9362 259.401C96.2051 264.098 96.6273 268.784 97.2028 273.461C97.4764 275.799 97.7909 278.131 98.1462 280.459C98.4929 282.786 98.8798 285.11 99.3538 287.416L99.0166 287.492C98.4528 285.197 97.9693 282.883 97.5377 280.56C97.1061 278.237 96.757 275.899 96.4315 273.56C95.8026 268.875 95.345 264.172 95.0588 259.45C94.823 254.733 94.698 249.992 95.0423 245.261C95.1883 242.887 95.5283 240.53 96.0589 238.211C96.3343 237.042 96.7459 235.909 97.2854 234.836C97.5646 234.292 97.9205 233.791 98.342 233.348C98.7753 232.891 99.3315 232.569 99.9435 232.421L100.026 232.751Z" fill="white"/>
<path d="M111.116 239.016C111.116 239.016 112.951 276.218 124.498 317.144H156.054L111.116 239.016Z" fill="#1F3C88"/>
<path d="M125.591 220.024C117.663 215.71 115.489 205.021 121.279 198.089C121.836 197.419 122.458 196.745 123.14 196.061C131.987 187.249 126.475 178.433 125.237 158.158C123.999 137.883 146.568 132.371 146.611 132.36C147.674 132.1 149.736 129.058 150.606 128.308C160.79 119.468 175.4 120.121 186.565 126.843C191.877 130.041 197.221 134.966 200.097 140.617C204.656 149.58 205.481 161.387 213.158 168.366C224.105 178.315 236.244 186.763 235.754 202.802C235.582 208.502 234.155 214.524 230.68 219.092C227.652 223.074 223.041 225.746 218.887 228.322C212.121 232.508 204.972 236.211 197.424 238.7C190.113 241.108 182.716 243.271 175.303 245.334L173.199 245.917L125.591 220.024Z" fill="#6F3428"/>
<path d="M177.192 211.262C203.696 202.162 218.091 231.827 237.884 289.707L256.927 294.846L254.715 315.458L247.766 316.906L191.028 317.142L177.192 211.262Z" fill="#176CFF"/>
<path d="M403 310.314H0V324.204H403V310.314Z" fill="#E5ECFF"/>
<path d="M139.856 206.95L199.125 221.784L224.025 296.398L140.839 298.934L135.337 243.763L139.856 206.95Z" fill="#176CFF"/>
<path opacity="0.3" d="M141.945 239.016C156.507 253.677 153.288 275.156 165.727 277.289C173.963 278.704 197.365 282.044 208.531 286.697C210.791 287.641 217.022 292.273 216.057 296.386C215.435 299.037 207.128 296.915 207.128 296.915L144.936 290.671L131.766 260.198L141.945 239.016Z" fill="#1F3C88"/>
<path d="M193.103 292.752C193.525 292.084 202.443 290.315 203.45 290.454C206.767 290.907 208.578 293.504 209.378 295.492L196.184 302.441L193.103 292.752Z" fill="#102048"/>
<path d="M202.974 238.949L204.505 242.438C205.01 243.617 205.479 244.796 205.97 245.957C206.913 248.315 207.816 250.691 208.666 253.085C210.39 257.863 211.916 262.712 213.347 267.588C214.779 272.463 216.017 277.392 217.135 282.348C217.675 284.829 218.197 287.317 218.659 289.815C219.121 292.313 219.501 294.827 219.838 297.346L219.51 297.393C219.095 294.893 218.624 292.405 218.095 289.928C217.586 287.447 217.017 284.975 216.444 282.513C215.27 277.585 213.978 272.687 212.569 267.819C211.185 262.946 209.644 258.118 208.019 253.32C207.217 250.917 206.345 248.537 205.465 246.164C205.014 244.985 204.58 243.789 204.116 242.61L202.701 239.072L202.974 238.949Z" fill="#102048"/>
<path d="M250.349 305.342C250.349 305.342 247.856 308.29 239.983 305.417C236.275 305.849 229.369 305.519 216.255 303.379C216.255 303.379 221.02 306.71 231.794 307.281C231.794 307.281 231.322 310.455 225.661 310.314C218.822 310.142 218.038 309.729 211.812 309.988C210.538 310.042 207.767 309.988 204.764 309.889C199.528 309.717 193.58 309.439 193.58 309.439L188.391 300.165L198.745 295.212C201.922 293.969 203.509 293.539 205.054 293.325C211.741 292.381 215.963 291.622 220.756 292.447C226.074 293.348 242.342 298.742 250.349 305.342Z" fill="#F9B384"/>
<path d="M205.038 309.729L204.748 309.889C199.512 309.717 193.563 309.439 193.563 309.439L188.374 300.165L198.729 295.212C201.906 293.969 203.493 293.539 205.038 293.325C201.24 294.865 198.125 298.933 205.038 309.729Z" fill="#E28B6D"/>
<path d="M164.286 211.163C150.814 208.403 117.984 206.106 108.812 223.102C101.264 237.096 120.19 283.954 128.388 300.434C131.763 307.217 141.566 310.576 145.37 310.599L199.498 310.288C195.856 309.444 191.188 289.903 203.443 290.457L158.63 284.211C157.766 284.093 156.938 283.791 156.199 283.327C155.461 282.863 154.83 282.247 154.349 281.52C153.701 280.541 152.948 279.303 152.564 277.895L139.841 231.289L164.286 211.163Z" fill="#176CFF"/>
<path d="M284.051 310.597L231.242 310.564V305.582H284.357L284.051 310.597Z" fill="white"/>
<path d="M328.669 310.597L264.965 310.575L288.202 242.631L351.905 242.65L328.669 310.597Z" fill="#102048"/>
<path d="M313.567 280.241C311.614 283.359 307.965 284.638 305.182 283.27C305.019 283.192 304.861 283.104 304.71 283.006C301.88 281.237 301.255 277.121 303.318 273.824C305.382 270.526 309.349 269.283 312.187 271.059C313.019 271.586 313.692 272.329 314.133 273.21C315.135 275.234 315.005 277.939 313.567 280.241Z" fill="white"/>
<path d="M313.567 280.242C311.614 283.36 306.816 285.626 303.453 281.919C310.748 282.579 313.203 277.8 313.067 271.762C315.562 274.52 315.005 277.94 313.567 280.242Z" fill="#176CFF"/>
<path d="M220.777 292.263C223.484 292.664 226.105 293.419 228.704 294.226C231.303 295.032 233.853 295.99 236.362 297.044C238.884 298.081 241.343 299.262 243.728 300.582C246.103 301.917 248.417 303.412 250.46 305.219L250.24 305.486C249.158 304.684 248.042 303.929 246.886 303.238C245.731 302.547 244.559 301.879 243.363 301.261C240.971 300.018 238.525 298.874 236.023 297.863C233.551 296.773 231.013 295.848 228.475 294.943C227.202 294.495 225.919 294.073 224.626 293.678C223.338 293.275 222.032 292.905 220.725 292.615L220.777 292.263Z" fill="#6F3428"/>
<path d="M219.727 304.837L222.576 305.651C223.52 305.905 224.48 306.122 225.44 306.32C226.399 306.519 227.364 306.67 228.336 306.806C229.308 306.943 230.282 307.042 231.261 307.129L231.586 307.16L231.612 307.443C231.646 307.797 231.61 308.155 231.506 308.495C231.403 308.842 231.205 309.153 230.935 309.394C230.667 309.616 230.349 309.77 230.008 309.844C229.848 309.876 229.685 309.899 229.522 309.913H229.051V309.566L229.477 309.502C229.613 309.471 229.747 309.433 229.878 309.389C230.124 309.304 230.345 309.161 230.522 308.972C230.691 308.79 230.806 308.565 230.857 308.323C230.91 308.078 230.917 307.825 230.876 307.578L231.228 307.891C229.22 307.856 227.222 307.612 225.265 307.162C224.288 306.935 223.325 306.652 222.38 306.313C221.44 305.979 220.516 305.598 219.614 305.172L219.727 304.837Z" fill="#6F3428"/>
<path d="M217.315 297.971C219.605 298.264 221.909 298.488 224.214 298.724C226.518 298.959 228.822 299.195 231.127 299.566C233.431 299.936 235.698 300.349 237.978 300.761C240.259 301.174 242.535 301.596 244.807 302.056L245.344 302.165L245.108 302.665C244.955 303.092 244.758 303.502 244.521 303.889C244.379 304.096 244.216 304.287 244.033 304.46C243.841 304.612 243.641 304.753 243.434 304.882C242.599 305.37 241.705 305.535 240.839 305.705C239.08 305.993 237.33 305.981 235.591 305.924C234.721 305.891 233.853 305.854 232.997 305.776C232.141 305.698 231.266 305.651 230.403 305.54C228.678 305.361 226.964 305.115 225.251 304.868L225.294 304.523C227.018 304.665 228.733 304.858 230.454 304.96C231.315 305.026 232.174 305.078 233.035 305.115C233.896 305.153 234.754 305.186 235.613 305.196C237.317 305.239 239.022 305.14 240.71 304.898C241.521 304.736 242.361 304.559 243.021 304.155C243.189 304.061 243.325 303.936 243.493 303.83C243.622 303.703 243.738 303.563 243.84 303.412C244.047 303.058 244.218 302.685 244.351 302.297L244.66 302.905C240.113 302.047 235.57 301.132 231.016 300.342C228.752 299.929 226.452 299.653 224.157 299.344C221.862 299.035 219.565 298.733 217.279 298.311L217.315 297.971Z" fill="#6F3428"/>
<path d="M0 310.314H403" stroke="#102048" stroke-width="5" stroke-miterlimit="10"/>
<path d="M157.658 228.819C159.605 230.147 161.778 231.107 164.071 231.65C166.345 232.199 168.706 232.29 171.015 231.916C173.32 231.565 175.505 230.659 177.383 229.277C179.264 227.868 180.778 226.028 181.799 223.911L182.115 224.048C181.879 224.597 181.617 225.149 181.357 225.699C181.098 226.248 180.714 226.73 180.39 227.248C180.067 227.767 179.603 228.192 179.211 228.664C178.82 229.135 178.305 229.487 177.853 229.902C175.902 231.418 173.597 232.413 171.157 232.793C168.74 233.164 166.273 233.026 163.912 232.388C161.552 231.75 159.351 230.626 157.451 229.088L157.658 228.819Z" fill="#102048"/>
<path d="M142.106 238.971L145.061 249.016L147.96 259.075L150.839 269.142L152.269 274.178L152.976 276.697C153.18 277.523 153.44 278.335 153.755 279.126C154.403 280.647 155.715 281.772 157.198 282.548C158.739 283.291 160.369 283.834 162.047 284.164C163.739 284.527 165.449 284.772 167.185 284.996L172.373 285.704L182.751 287.138L193.115 288.631L193.073 288.959L182.673 287.725L172.281 286.435L167.093 285.775C165.366 285.562 163.618 285.32 161.904 284.956C160.153 284.619 158.453 284.059 156.844 283.291C155.255 282.475 153.738 281.206 153.016 279.475C152.914 279.268 152.829 279.053 152.764 278.831C152.691 278.614 152.608 278.392 152.556 278.185L152.205 276.921L151.497 274.399L150.082 269.357L147.283 259.278L144.511 249.181L141.787 239.07L142.106 238.971Z" fill="#102048"/>
<path d="M175.77 190.089L178.423 212.936C179.213 219.739 172.055 225.437 164.779 223.55C160.625 222.472 156.288 219.597 151.806 215.276C150.901 214.413 150.332 213.256 150.2 212.012L147.37 184.475L175.77 190.089Z" fill="#F9B384"/>
<path d="M176.131 193.195L177.574 205.637C171.704 206.559 163.423 203.257 155.031 192.112L176.131 193.195Z" fill="#3C1C16"/>
<path d="M190.611 173.638C190.271 177.782 189.618 182.11 188.455 185.999C186.49 192.535 183.063 197.809 177.192 198.785C159.909 201.658 147.384 184.475 147.384 184.475L145.365 161.095L155.798 143.049L179.148 142.372L190.537 155.847C191.034 161.766 191.058 167.715 190.611 173.638Z" fill="#F9B384"/>
<path d="M144.816 169.979C154.092 169.286 156.229 161.446 156.864 151.283C156.864 151.283 181.995 145.058 190.915 162.922L197.682 163.656L177.192 136.457L145.351 140.256L139.122 160.925L144.816 169.979Z" fill="#6F3428"/>
<path d="M149.724 166.932C149.182 166.337 148.506 165.879 147.752 165.598C146.998 165.316 146.188 165.218 145.389 165.312C139.226 166.059 138.155 174.22 139.563 177.694C141.672 182.883 147.382 184.473 147.382 184.473L152.29 179.284C152.677 173.88 152.068 169.515 149.724 166.932Z" fill="#F9B384"/>
<path opacity="0.15" d="M149.825 190.745C153.212 200.375 163.633 227.572 146.613 226.888C138.41 226.56 131.202 210.649 119.51 213.651C120.922 212.979 122.383 212.414 123.881 211.962L149.825 190.745Z" fill="#3C1C16"/>
<path d="M147.382 184.473C150.665 190.709 159.85 221.559 144.205 219.779C136.657 218.918 134.815 209.837 123.881 211.962L147.382 184.473Z" fill="#6F3428"/>
<path d="M147.919 172.583C147.935 171.892 147.739 171.212 147.358 170.635C147.005 170.082 146.503 169.639 145.91 169.359C145.35 169.094 144.709 169.061 144.125 169.265C143.528 169.475 142.997 169.944 142.473 170.486L142.094 170.251C142.389 169.443 142.965 168.768 143.716 168.35C143.916 168.237 144.133 168.158 144.358 168.114C144.582 168.05 144.814 168.022 145.047 168.031L145.396 168.043L145.733 168.114C145.957 168.156 146.174 168.231 146.377 168.335C147.18 168.717 147.825 169.365 148.203 170.17C148.394 170.556 148.506 170.977 148.531 171.407C148.557 171.837 148.494 172.267 148.349 172.673L147.919 172.583Z" fill="#3C1C16"/>
<path d="M180.98 169.1C181.037 170.689 181.961 171.946 183.049 171.909C184.136 171.871 184.971 170.552 184.914 168.963C184.858 167.373 183.933 166.116 182.846 166.154C181.759 166.191 180.933 167.512 180.98 169.1Z" fill="#3C1C16"/>
<path d="M163.852 169.701C163.906 171.291 164.833 172.548 165.921 172.508C167.008 172.468 167.84 171.152 167.786 169.562C167.732 167.972 166.805 166.717 165.718 166.755C164.63 166.793 163.795 168.111 163.852 169.701Z" fill="#3C1C16"/>
<path d="M180.77 185.277C180.016 186.279 179.05 187.1 177.94 187.683C176.722 188.241 175.344 188.339 174.06 187.959C172.851 187.583 171.729 186.972 170.758 186.162C169.807 185.407 168.95 184.543 168.203 183.586L168.56 183.216C169.538 183.893 170.446 184.617 171.428 185.225C172.409 185.834 173.378 186.405 174.409 186.704C175.416 187.012 176.495 186.993 177.492 186.65C178.496 186.277 179.444 185.61 180.393 184.909L180.77 185.277Z" fill="#3C1C16"/>
<path d="M186.789 164.191C186.097 163.677 185.359 163.224 184.586 162.84C183.916 162.521 183.173 162.385 182.433 162.446C181.66 162.548 180.908 162.77 180.204 163.104C179.435 163.439 178.681 163.889 177.815 164.283L177.579 164.036C178.052 163.191 178.694 162.454 179.466 161.87C180.288 161.234 181.275 160.844 182.31 160.748C183.394 160.665 184.47 160.993 185.322 161.668C186.106 162.268 186.71 163.073 187.068 163.993L186.789 164.191Z" fill="#3C1C16"/>
<path d="M169.621 164.793C168.868 164.234 168.033 163.795 167.145 163.493C166.325 163.231 165.46 163.144 164.604 163.236C163.724 163.342 162.863 163.572 162.048 163.92C161.194 164.274 160.357 164.734 159.423 165.177L159.187 164.941C159.73 164.028 160.466 163.243 161.343 162.642C162.262 162.007 163.329 161.618 164.442 161.514C165.583 161.402 166.731 161.65 167.725 162.222C168.685 162.753 169.447 163.581 169.895 164.583L169.621 164.793Z" fill="#3C1C16"/>
<path opacity="0.5" d="M153.026 180.69C153.07 181.932 153.481 183.133 154.207 184.141C154.933 185.149 155.942 185.92 157.106 186.355C158.27 186.79 159.537 186.87 160.747 186.585C161.957 186.3 163.054 185.662 163.902 184.753C164.749 183.844 165.308 182.704 165.507 181.478C165.707 180.251 165.538 178.993 165.023 177.862C164.507 176.732 163.668 175.779 162.611 175.125C161.554 174.472 160.327 174.146 159.085 174.189C158.261 174.218 157.45 174.409 156.699 174.752C155.948 175.094 155.272 175.581 154.709 176.185C154.147 176.788 153.708 177.497 153.42 178.27C153.131 179.043 152.997 179.865 153.026 180.69Z" fill="#FC8879"/>
<path opacity="0.5" d="M190.61 173.637C190.271 177.782 189.617 182.11 188.455 185.999C186.984 185.632 185.696 184.746 184.826 183.505C183.957 182.264 183.565 180.75 183.723 179.243C183.881 177.736 184.578 176.336 185.686 175.302C186.793 174.268 188.237 173.668 189.752 173.614C190.038 173.605 190.325 173.613 190.61 173.637Z" fill="#FC8879"/>
<path opacity="0.5" d="M173.905 167.859C173.91 167.797 173.938 167.738 173.982 167.694C174.026 167.65 174.085 167.622 174.147 167.616C174.209 167.611 174.272 167.627 174.324 167.662C174.375 167.697 174.413 167.749 174.431 167.809C175.846 172.394 180.4 175.744 179.669 177.09C179.155 178.034 177.225 179.109 175.872 179.772C175.704 179.854 175.521 179.896 175.335 179.895C175.149 179.894 174.965 179.851 174.799 179.768C174.633 179.685 174.487 179.564 174.375 179.416C174.262 179.268 174.185 179.096 174.15 178.914C173.487 175.51 173.525 171.774 173.905 167.859Z" fill="#FC8879"/>
<path d="M174.871 167.394C175.21 168.717 175.776 169.972 176.543 171.102C177.291 172.248 178.166 173.314 179.05 174.435C179.275 174.715 179.489 175.008 179.701 175.319C179.941 175.652 180.137 176.013 180.286 176.395C180.392 176.665 180.421 176.96 180.369 177.246C180.298 177.519 180.16 177.771 179.968 177.977C179.697 178.276 179.39 178.539 179.053 178.76C177.822 179.548 176.482 180.149 175.076 180.546L174.88 180.074C175.482 179.716 176.1 179.367 176.682 178.996C177.267 178.645 177.83 178.259 178.366 177.838C178.605 177.647 178.826 177.434 179.025 177.201C179.069 177.145 179.107 177.083 179.135 177.017C179.127 176.952 179.109 176.889 179.081 176.829C178.897 176.357 178.425 175.781 178.017 175.237C177.164 174.126 176.265 172.97 175.579 171.673C174.841 170.385 174.423 168.939 174.362 167.456L174.871 167.394Z" fill="#3C1C16"/>
<path d="M141.891 186.185C141.508 187.069 141.346 188.032 141.419 188.992C141.499 189.957 141.726 190.903 142.094 191.799C142.853 193.589 143.867 195.337 144.757 197.15C145.646 198.964 146.46 200.868 146.823 202.924C147.001 203.958 147.051 205.01 146.974 206.056C146.919 206.586 146.832 207.111 146.714 207.63C146.577 208.154 146.382 208.662 146.134 209.144C145.641 210.135 144.887 210.973 143.952 211.566C142.994 212.168 141.862 212.434 140.735 212.321C139.61 212.179 138.667 211.771 137.726 211.394C136.785 211.017 135.874 210.597 134.964 210.186C133.145 209.384 131.306 208.606 129.397 208.252C128.466 208.043 127.499 208.043 126.567 208.252C126.12 208.377 125.7 208.582 125.327 208.858C124.956 209.149 124.637 209.5 124.383 209.896L124.001 209.675C124.256 209.208 124.589 208.787 124.985 208.432C125.4 208.087 125.876 207.821 126.388 207.648C127.407 207.357 128.477 207.296 129.522 207.469C131.574 207.785 133.483 208.528 135.351 209.276L138.12 210.427C139.032 210.788 139.969 211.153 140.841 211.248C141.727 211.329 142.614 211.11 143.36 210.627C144.116 210.124 144.73 209.435 145.141 208.625C145.356 208.218 145.526 207.788 145.648 207.344C145.753 206.886 145.832 206.422 145.884 205.955C145.963 205.001 145.925 204.041 145.773 203.096C145.457 201.195 144.717 199.36 143.886 197.558C143.056 195.756 142.103 193.992 141.367 192.063C141.022 191.081 140.829 190.053 140.794 189.013C140.761 187.961 140.999 186.918 141.485 185.985L141.891 186.185Z" fill="#3C1C16"/>
<path d="M142.209 133.659C143.907 132.92 145.663 132.325 147.46 131.879C149.247 131.412 151.058 131.039 152.885 130.763C154.713 130.48 156.557 130.305 158.406 130.242C159.333 130.218 160.26 130.22 161.189 130.268C162.119 130.32 163.045 130.439 163.958 130.624L163.894 131.06C162.986 131.032 162.085 131.001 161.18 131.06C160.274 131.119 159.368 131.143 158.465 131.23C156.657 131.387 154.852 131.603 153.052 131.879C151.25 132.143 149.46 132.468 147.672 132.822C146.778 132.994 145.891 133.195 145.004 133.407C144.118 133.619 143.243 133.848 142.36 134.086L142.209 133.659Z" fill="#3C1C16"/>
<path d="M156.762 151.085C157.51 150.709 158.303 150.429 159.121 150.25C159.922 150.063 160.729 149.9 161.543 149.794C163.17 149.58 164.81 149.476 166.451 149.483C169.744 149.492 173.022 149.936 176.199 150.804C179.369 151.691 182.44 153.087 185.075 155.106C187.73 157.108 189.815 159.77 191.122 162.828L190.723 163.017C189.221 160.195 187.085 157.758 184.485 155.898C183.195 154.973 181.821 154.17 180.381 153.502C178.93 152.849 177.432 152.307 175.9 151.879C172.815 151.019 169.638 150.534 166.437 150.436C164.835 150.373 163.23 150.412 161.632 150.554C160.045 150.695 158.418 150.901 156.972 151.478L156.762 151.085Z" fill="#3C1C16"/>
<path d="M45.7047 239.074L51.7687 241.039C52.0226 241.121 52.2459 241.278 52.4098 241.489C52.5737 241.699 52.6706 241.954 52.6878 242.221C52.7051 242.487 52.642 242.752 52.5067 242.982C52.3715 243.212 52.1702 243.397 51.9291 243.511L45.3085 246.65V246.74L54.5707 248.587C54.6569 248.599 54.7397 248.629 54.8141 248.674C54.8885 248.719 54.9528 248.779 55.0032 248.85C55.0536 248.921 55.089 249.002 55.1073 249.087C55.1256 249.172 55.1263 249.26 55.1095 249.346C55.0927 249.431 55.0586 249.512 55.0094 249.584C54.9602 249.656 54.8969 249.717 54.8233 249.764C54.7497 249.81 54.6674 249.842 54.5814 249.855C54.4954 249.869 54.4075 249.865 54.323 249.844L45.0608 247.997C44.7865 247.942 44.5365 247.802 44.3461 247.597C44.1558 247.392 44.0348 247.132 44.0004 246.855C43.9659 246.577 44.0197 246.295 44.1542 246.05C44.2887 245.805 44.4969 245.608 44.7495 245.487L51.3701 242.348V242.259L45.3085 240.294C45.2283 240.268 45.1539 240.227 45.0897 240.172C45.0255 240.117 44.9726 240.051 44.9342 239.976C44.8958 239.901 44.8725 239.819 44.8657 239.735C44.8589 239.651 44.8687 239.566 44.8945 239.486C44.9204 239.406 44.9618 239.331 45.0164 239.267C45.071 239.203 45.1377 239.15 45.2127 239.112C45.2877 239.073 45.3696 239.05 45.4536 239.043C45.5376 239.036 45.6221 239.046 45.7024 239.072L45.7047 239.074Z" fill="#3C1C16"/>
<path d="M30.053 230.723L35.4354 232.468C35.662 232.539 35.8617 232.678 36.0084 232.865C36.1552 233.051 36.242 233.278 36.2575 233.515C36.2731 233.753 36.2166 233.989 36.0956 234.193C35.9746 234.398 35.7946 234.561 35.5792 234.661L29.6992 237.449V237.53L37.9237 239.181C38.0722 239.21 38.203 239.297 38.2873 239.423C38.3716 239.549 38.4024 239.703 38.373 239.852C38.3436 240 38.2564 240.131 38.1305 240.215C38.0047 240.299 37.8505 240.33 37.702 240.301L29.4752 238.65C29.2289 238.604 29.0037 238.481 28.8321 238.299C28.6605 238.116 28.5514 237.884 28.5206 237.635C28.4899 237.387 28.5391 237.135 28.6611 236.916C28.7831 236.697 28.9716 236.523 29.1992 236.419L35.0792 233.631V233.553L29.6945 231.808C29.5543 231.758 29.439 231.655 29.3733 231.522C29.3076 231.388 29.2966 231.234 29.3428 231.093C29.3889 230.951 29.4885 230.833 29.6203 230.764C29.7521 230.695 29.9057 230.68 30.0483 230.723H30.053Z" fill="#3C1C16"/>
<path d="M62.5474 251.87L66.8165 253.254C66.9935 253.314 67.1487 253.425 67.2625 253.574C67.3762 253.722 67.4435 253.9 67.4556 254.087C67.4677 254.273 67.4242 254.459 67.3306 254.621C67.237 254.783 67.0975 254.913 66.9297 254.995L62.2668 257.205V257.269L68.7883 258.568C68.9004 258.597 68.9971 258.668 69.0587 258.766C69.1202 258.864 69.1419 258.982 69.1193 259.095C69.0966 259.209 69.0314 259.309 68.9369 259.376C68.8425 259.443 68.726 259.471 68.6114 259.455L62.1064 258.156C61.9147 258.115 61.7406 258.015 61.6082 257.87C61.4758 257.726 61.3916 257.544 61.3675 257.349C61.3434 257.155 61.3805 256.957 61.4736 256.785C61.5667 256.612 61.7112 256.473 61.887 256.387L66.55 254.177V254.115L62.2809 252.731C62.1718 252.69 62.0826 252.609 62.0319 252.504C61.9813 252.399 61.973 252.278 62.0088 252.167C62.0447 252.057 62.1219 251.964 62.2244 251.908C62.3269 251.853 62.4468 251.839 62.5592 251.87H62.5474Z" fill="#3C1C16"/>
<path d="M329.386 190.046H310.439C307.327 190.046 304.804 192.569 304.804 195.681V212.741C304.804 215.853 307.327 218.375 310.439 218.375H329.386C332.498 218.375 335.02 215.853 335.02 212.741V195.681C335.02 192.569 332.498 190.046 329.386 190.046Z" fill="white" stroke="#1F3C88" stroke-width="3.75" stroke-miterlimit="10"/>
<path d="M319.913 223.975L314.42 218.378H325.407L319.913 223.975Z" fill="#1F3C88"/>
<path d="M319.43 212.238C319.284 212.239 319.141 212.207 319.009 212.146C318.877 212.085 318.76 211.996 318.666 211.885L313.172 205.427C313 205.224 312.915 204.961 312.937 204.696C312.958 204.431 313.084 204.185 313.287 204.013C313.49 203.84 313.752 203.756 314.018 203.777C314.283 203.799 314.529 203.924 314.701 204.127L319.255 209.481L326.345 196.702C326.409 196.587 326.495 196.486 326.598 196.403C326.701 196.321 326.819 196.261 326.946 196.224C327.072 196.188 327.205 196.177 327.336 196.192C327.467 196.206 327.593 196.247 327.709 196.311C327.824 196.375 327.925 196.46 328.007 196.563C328.089 196.666 328.15 196.785 328.187 196.911C328.223 197.038 328.234 197.17 328.219 197.301C328.204 197.432 328.164 197.559 328.1 197.674L320.317 211.722C320.238 211.864 320.126 211.984 319.99 212.073C319.855 212.162 319.7 212.217 319.538 212.234C319.502 212.238 319.466 212.24 319.43 212.238Z" fill="#1F3C88"/>
<path d="M39.6765 280.331C31.2633 282.324 21.9304 285.086 17.9396 293.568C14.1658 301.587 18.0929 309.37 25.6664 313.144C30.7916 315.71 50.3208 320.029 42.212 329.506C36.9712 335.638 27.874 333.735 21.8903 330.121C18.7746 328.234 15.9348 333.117 19.0411 334.994C25.8456 339.105 33.6644 340.612 41.0751 337.214C49.1085 333.525 52.269 324.069 46.1414 317.165C42.9997 313.628 38.5609 311.951 34.1998 310.451C30.0746 309.035 24.6734 307.443 22.671 303.094C20.7841 299.002 23.2582 294.325 26.3999 291.629C30.4614 288.145 36.1126 286.978 41.1765 285.78C44.7145 284.942 43.2144 279.499 39.6765 280.336V280.331Z" fill="#FBC343"/>
<path d="M117.01 290.648C126.577 291.207 127.263 278.749 127.263 278.749C127.263 278.749 120.718 275.428 114.588 279.546L117.01 290.648Z" fill="#FBC343"/>
<path d="M117.55 286.874C121.359 286.815 123.235 282.027 123.235 282.027C123.235 282.027 120.425 280.31 116.89 282.067L117.55 286.874Z" fill="#3C1C16"/>
<path d="M89.997 279.124C83.3646 272.208 92.3957 263.602 92.3957 263.602C92.3957 263.602 99.1696 266.432 100.014 273.76L89.997 279.124Z" fill="#FBC343"/>
<path d="M92.3556 276.229C90.0394 273.427 92.3556 269.104 92.3556 269.104C92.3556 269.104 95.3392 270.078 96.252 273.732L92.3556 276.229Z" fill="#3C1C16"/>
<path d="M103.686 309.712C103.521 310.081 103.266 310.402 102.942 310.645C102.619 310.889 102.24 311.045 101.84 311.101C95.3723 312.099 93.792 310.314 93.792 310.314C93.792 310.314 88.6432 313.177 76.5435 309.769C76.1839 310.369 75.6113 310.812 74.9397 311.009C73.0882 311.616 65.9015 310.991 61.2197 310.5C58.3894 310.2 50.0989 310.868 50.0989 310.868C42.5514 310.868 33.9661 308.849 30.6452 301.273C26.4421 291.685 30.8645 280.192 37.9922 273.331C45.5987 265.993 55.7478 265.333 64.9746 270.14C87.3577 281.803 89.0512 277.998 94.7944 273.166L98.6649 302.559C99.9338 303.002 101.047 303.608 101.849 304.445C102.329 304.939 102.756 305.481 103.123 306.063C104.127 307.684 104.033 308.898 103.686 309.712Z" fill="#FBC343"/>
<path opacity="0.3" d="M88.2872 279.124C79.3127 284.397 79.0179 301.103 96.3442 302.736L98.3277 295.157L88.2872 279.124Z" fill="#3C1C16"/>
<path d="M119.364 291.544C117.543 297.947 114.536 301.615 111.451 303.655C109.112 305.223 106.361 306.065 103.545 306.073C101.648 306.069 99.7629 305.775 97.9552 305.2C91.0917 303.042 85.4829 297.028 85.4829 289.126C85.4829 279.149 92.7309 271.503 101.852 271.503C112.295 271.503 122.607 280.124 119.364 291.544Z" fill="#FBC343"/>
<path opacity="0.3" d="M111.451 303.655C109.112 305.224 106.361 306.065 103.545 306.073C103.403 306.073 103.266 306.073 103.125 306.073C102.758 305.491 102.331 304.948 101.851 304.455C101.049 303.613 99.9362 303.007 98.6672 302.568C101.469 301.995 103.09 302.745 103.09 302.745C103.09 302.745 108.25 300.181 111.439 303.653L111.451 303.655Z" fill="#3C1C16"/>
<path d="M101.712 306.512C100.804 307.818 100.967 309.639 102.231 310.606C102.486 310.826 102.806 310.957 103.141 310.979H112.137C112.569 310.979 112.798 310.507 112.913 309.92C113.265 308.12 112.508 306.295 111.104 305.113C108.203 302.676 104.326 302.733 101.712 306.512Z" fill="#FBC343"/>
<path d="M85.4805 301.676C87.3004 301.608 89.123 301.66 90.9359 301.834C92.7581 301.997 94.5653 302.299 96.3418 302.735C97.2361 302.957 98.1133 303.243 98.967 303.589C99.8386 303.926 100.669 304.361 101.443 304.884C102.237 305.419 102.902 306.124 103.389 306.948C103.855 307.796 104.021 308.775 103.861 309.729L103.531 309.693C103.582 308.832 103.359 307.976 102.892 307.25C102.406 306.538 101.768 305.942 101.024 305.507C99.5472 304.58 97.8466 303.997 96.1248 303.556C94.3884 303.114 92.6263 302.78 90.8486 302.556C89.0679 302.32 87.2706 302.141 85.4734 302.016L85.4805 301.676Z" fill="#3C1C16"/>
<path d="M55.4555 283.916C57.2948 284.178 59.0421 284.886 60.5454 285.978C61.2938 286.555 61.9254 287.27 62.4063 288.084C62.8815 288.9 63.2201 289.788 63.4087 290.714C63.5847 291.632 63.6566 292.567 63.6234 293.502C63.5744 294.426 63.4585 295.346 63.2766 296.254C62.8963 298.054 62.3377 299.811 61.6091 301.5C61.2553 302.346 60.8544 303.172 60.418 303.981L60.2506 304.283L60.1609 304.438C60.201 304.571 59.7836 303.32 59.9652 303.851H59.984L60.0241 303.865L60.102 303.896L60.7246 304.132C61.1421 304.292 61.5643 304.438 61.9865 304.58C63.6882 305.133 65.4323 305.547 67.2014 305.816C68.9609 306.066 70.81 306.264 72.5813 306.71C73.48 306.921 74.356 307.219 75.197 307.599C75.6303 307.793 76.0287 308.057 76.3763 308.38C76.5697 308.555 76.711 308.78 76.7844 309.031C76.8548 309.296 76.8184 309.579 76.6829 309.818L76.3928 309.66C76.5697 309.307 76.407 308.953 76.0909 308.677C75.7612 308.403 75.3892 308.185 74.9895 308.031C74.1645 307.701 73.3099 307.452 72.4374 307.285C70.6803 306.896 68.9113 306.757 67.0834 306.547C65.2659 306.307 63.4733 305.905 61.727 305.347C61.2907 305.205 60.8544 305.059 60.4251 304.898L59.7835 304.663L59.7034 304.632L59.6633 304.615H59.642C59.8189 305.141 59.3897 303.894 59.4368 304.019L59.5147 303.877L59.6727 303.585C60.0902 302.797 60.4675 301.986 60.8261 301.167C61.543 299.535 62.096 297.835 62.4771 296.094C62.658 295.228 62.7763 294.349 62.8309 293.466C62.8721 292.59 62.8231 291.712 62.6846 290.846C62.403 289.116 61.508 287.545 60.1633 286.421C58.8165 285.301 57.116 284.631 55.3706 284.239L55.4555 283.916Z" fill="#3C1C16"/>
<path d="M106.684 286.343C107.314 287.504 108.168 288.541 109.307 288.898C109.895 289.074 110.512 289.126 111.121 289.051C111.437 289.02 111.755 288.933 112.081 288.888C112.399 288.794 112.72 288.7 113.057 288.624L113.22 288.954C112.925 289.148 112.614 289.325 112.298 289.499C111.963 289.643 111.617 289.763 111.265 289.858C110.521 290.047 109.74 290.029 109.005 289.806C108.265 289.564 107.619 289.094 107.161 288.464C106.716 287.87 106.43 287.173 106.331 286.438L106.684 286.343Z" fill="#3C1C16"/>
<path d="M96.4195 281.921C96.9597 283.126 97.7286 284.228 98.8395 284.671C99.4108 284.893 100.022 284.992 100.634 284.963C100.953 284.963 101.276 284.897 101.604 284.876C101.929 284.808 102.257 284.739 102.599 284.69L102.736 285.032C102.425 285.202 102.101 285.353 101.774 285.504C101.428 285.621 101.075 285.714 100.717 285.782C99.9594 285.909 99.1815 285.828 98.4668 285.546C97.7471 285.248 97.1403 284.729 96.7332 284.065C96.3353 283.439 96.1039 282.722 96.061 281.982L96.4195 281.921Z" fill="#3C1C16"/>
<path d="M314.354 143.997H324.317L316.359 92.4851H306.396L314.354 143.997Z" fill="#8CBFBE"/>
<path d="M324.327 143.997H334.292L326.334 92.4851H316.369L324.327 143.997Z" fill="#C6EAE9"/>
<path d="M374.81 120.333H338.037V143.99H374.81V120.333Z" fill="#8CBFBE"/>
<path d="M364.199 128.02H348.648V132.161H364.199V128.02Z" fill="white"/>
<path d="M306.394 76.916H289.091V143.99H306.394V76.916Z" fill="#C6EAE9"/>
<path d="M383.337 143.99H279.775V151.438H383.337V143.99Z" fill="#8CBFBE"/>
<path d="M226.363 70.6172C239.363 57.6169 239.363 36.5393 226.363 23.539C213.363 10.5388 192.285 10.5388 179.285 23.539C166.285 36.5393 166.285 57.6169 179.285 70.6172C192.285 83.6175 213.363 83.6175 226.363 70.6172Z" fill="white" stroke="#176CFF" stroke-width="5" stroke-miterlimit="10"/>
<path d="M215.989 53.9904L201.762 47.226L217.305 33.5343L218.086 34.4211L203.884 46.9288L216.496 52.9244L215.989 53.9904Z" fill="#102048"/>
<path d="M97.0233 65.2644H45.16C41.1401 65.2644 37.8813 68.5232 37.8813 72.5431V101.702C37.8813 105.722 41.1401 108.981 45.16 108.981H97.0233C101.043 108.981 104.302 105.722 104.302 101.702V72.5431C104.302 68.5232 101.043 65.2644 97.0233 65.2644Z" fill="#C6EAE9"/>
<path d="M95.8983 76.2366H46.2852V80.3688H95.8983V76.2366Z" fill="#8CBFBE"/>
<path opacity="0.8" d="M95.8983 85.0555H46.2852V89.1878H95.8983V85.0555Z" fill="white"/>
<path opacity="0.8" d="M95.8983 93.8766H46.2852V98.0089H95.8983V93.8766Z" fill="white"/>
<path d="M54.6702 153.217L45.2405 145.844H64.0999L54.6702 153.217Z" fill="#1FC9AA"/>
<path d="M66.6422 102.134H14.7789C10.759 102.134 7.50024 105.393 7.50024 109.413V138.572C7.50024 142.592 10.759 145.851 14.7789 145.851H66.6422C70.6621 145.851 73.9208 142.592 73.9208 138.572V109.413C73.9208 105.393 70.6621 102.134 66.6422 102.134Z" fill="#1FC9AA"/>
<g opacity="0.8">
<path d="M27.9801 127.079H21.5505V135.025H27.9801V127.079Z" fill="white"/>
<path d="M38.3038 118.232H31.8743V135.027H38.3038V118.232Z" fill="white"/>
<path d="M49.087 122.046H42.6575V135.027H49.087V122.046Z" fill="white"/>
<path d="M59.8709 112.955H53.4414V135.027H59.8709V112.955Z" fill="white"/>
</g>
</svg>
