<svg width="19" height="19" viewBox="0 0 19 19" fill="none" xmlns="http://www.w3.org/2000/svg">
<rect x="10.35" y="0.35" width="8.3" height="8.3" rx="1.65" stroke="#2C374A" stroke-width="0.7"/>
<rect x="10.35" y="10.35" width="8.3" height="8.3" rx="1.65" stroke="#2C374A" stroke-width="0.7"/>
<rect x="0.35" y="0.35" width="8.3" height="8.3" rx="1.65" stroke="#2C374A" stroke-width="0.7"/>
<path d="M5.39006 14.4998L6.82256 13.0705C7.06801 12.8256 7.06801 12.4286 6.82256 12.1837C6.57711 11.9388 6.17919 11.9388 5.93374 12.1837L4.50125 13.613L3.06875 12.1837C2.8233 11.9388 2.42539 11.9388 2.17994 12.1837C1.93449 12.4286 1.93449 12.8256 2.17994 13.0705L3.61243 14.4998L2.17994 15.929C1.93449 16.1739 1.93449 16.571 2.17994 16.8159C2.30224 16.9379 2.46309 16.9997 2.62393 16.9997C2.78477 16.9997 2.94561 16.9387 3.06792 16.8159L4.50041 15.3866L5.93291 16.8159C6.05521 16.9379 6.21605 16.9997 6.37689 16.9997C6.53774 16.9997 6.69858 16.9387 6.82088 16.8159C7.06633 16.571 7.06633 16.1739 6.82088 15.929L5.39006 14.4998Z" fill="#2C374A"/>
<rect x="0.35" y="10.35" width="8.3" height="8.3" rx="1.65" stroke="#2C374A" stroke-width="0.7"/>
<path d="M16.5214 15H12.4786C12.2144 15 12 15.2139 12 15.4775C12 15.7411 12.2144 15.955 12.4786 15.955H16.5214C16.7856 15.955 17 15.7411 17 15.4775C17 15.2139 16.7856 15 16.5214 15Z" fill="#2C374A"/>
<path d="M16.5214 13H12.4786C12.2144 13 12 13.2139 12 13.4775C12 13.7411 12.2144 13.955 12.4786 13.955H16.5214C16.7856 13.955 17 13.7411 17 13.4775C17 13.2139 16.7856 13 16.5214 13Z" fill="#2C374A"/>
<path d="M6.58895 4H3.37986C3.17018 4 3 4.1698 3 4.37901C3 4.58822 3.17018 4.75802 3.37986 4.75802H6.58895C6.79864 4.75802 6.96882 4.58822 6.96882 4.37901C6.96882 4.1698 6.79864 4 6.58895 4Z" fill="#2C374A"/>
<path d="M16.1967 3.87303H14.7638V2.44343C14.7638 2.19865 14.5647 2 14.3194 2C14.0741 2 13.875 2.19865 13.875 2.44343V3.87303H12.4422C12.1968 3.87303 11.9977 4.07168 11.9977 4.31645C11.9977 4.56122 12.1968 4.75988 12.4422 4.75988H13.875V6.18948C13.875 6.43425 14.0741 6.63291 14.3194 6.63291C14.5647 6.63291 14.7638 6.43425 14.7638 6.18948V4.75988H16.1967C16.442 4.75988 16.6411 4.56122 16.6411 4.31645C16.6411 4.07168 16.4426 3.87303 16.1967 3.87303Z" fill="#2C374A"/>
</svg>
