<svg width="22" height="17" viewBox="0 0 22 17" fill="none" xmlns="http://www.w3.org/2000/svg">
<path d="M14.5833 10.1699C14.5212 10.1699 14.4582 10.1523 14.4022 10.1158L9.09919 6.637C8.94592 6.53653 8.9031 6.33043 9.00329 6.17714C9.10347 6.02385 9.30898 5.98048 9.46226 6.08096L14.7652 9.55976C14.9185 9.66024 14.9613 9.86634 14.8611 10.0201C14.7973 10.1171 14.6912 10.1699 14.5833 10.1699Z" fill="#2C374A"/>
<path d="M9.58155 15.7989C5.21837 15.7989 1.67786 12.2396 1.67926 7.85439C1.68066 3.87768 4.59053 0.583974 8.3874 0.00543331C8.47736 -0.00815186 8.55799 0.0607109 8.55799 0.15206V2.05492C8.55799 2.12613 8.50765 2.18656 8.4382 2.20061C5.81685 2.73277 3.8429 5.05959 3.83964 7.8497C3.83638 11.0052 6.39108 13.5995 9.53075 13.6271C10.7277 13.6375 11.8412 13.2791 12.766 12.6589C12.8252 12.6195 12.9035 12.6261 12.9533 12.6767L14.2915 14.0216C14.3558 14.0862 14.347 14.1926 14.2738 14.2464C12.9622 15.2218 11.3392 15.7989 9.58155 15.7989Z" fill="#2C374A"/>
<path d="M17.5819 7.86482C17.5819 9.64588 16.9979 11.2902 16.0125 12.6154C15.9459 12.7049 15.8158 12.7147 15.7371 12.6356L14.4492 11.3417C14.3877 11.2799 14.3779 11.1824 14.4273 11.1103C15.0542 10.1855 15.4215 9.06828 15.4215 7.86482C15.4215 5.04051 13.4028 2.69074 10.7372 2.19184C10.6514 2.17591 10.5899 2.10002 10.5899 2.01242V0.183575C10.5899 0.0716142 10.6887 -0.0136445 10.7987 0.00181454C14.6324 0.548501 17.5819 3.86 17.5819 7.86482Z" fill="#2C374A"/>
<path d="M1.82979 14.6899C1.75197 14.6899 1.67414 14.6634 1.61031 14.6093C1.46822 14.4886 1.45117 14.2755 1.57228 14.1339L8.72624 5.76879C8.84735 5.62717 9.06114 5.61018 9.20323 5.73088C9.34532 5.85159 9.36237 6.06467 9.24127 6.20629L2.0873 14.5714C2.02041 14.6498 1.92554 14.6899 1.82979 14.6899Z" fill="#2C374A"/>
<path d="M17.4972 11.7229C17.4348 11.7229 17.3711 11.7051 17.3152 11.6679L15.4431 10.4372C15.289 10.336 15.246 10.1284 15.3467 9.97405C15.4474 9.81923 15.6539 9.77599 15.8075 9.87718L17.6801 11.1079C17.8341 11.2091 17.8771 11.4167 17.7765 11.5711C17.7123 11.6692 17.6061 11.7229 17.4972 11.7229Z" fill="#2C374A"/>
<path d="M17.9558 11.6188C17.9029 11.6188 17.8495 11.6063 17.7996 11.5795C17.6374 11.4926 17.5759 11.2898 17.6624 11.1267L20.9002 5.0167C20.9867 4.85323 21.1885 4.79139 21.3507 4.87832C21.5129 4.96524 21.5744 5.16805 21.4884 5.33109L18.2506 11.4415C18.1903 11.5544 18.075 11.6188 17.9558 11.6188Z" fill="#2C374A"/>
<path d="M10.4406 5.65018C10.4406 6.48211 9.77271 7.15678 8.94911 7.15678C8.12504 7.15678 7.45758 6.48211 7.45758 5.65018C7.45758 4.81779 8.12504 4.14359 8.94911 4.14359C9.77271 4.14359 10.4406 4.81779 10.4406 5.65018Z" fill="#2C374A"/>
<path d="M2.61017 14.8778C2.61017 15.6061 2.02574 16.1961 1.30508 16.1961C0.584433 16.1961 0 15.6061 0 14.8778C0 14.1499 0.584433 13.5595 1.30508 13.5595C2.02574 13.5595 2.61017 14.1495 2.61017 14.8778Z" fill="#2C374A"/>
<path d="M22 5.08521C22 5.60524 21.6661 6.02683 21.2542 6.02683C20.8424 6.02683 20.5085 5.60524 20.5085 5.08521C20.5085 4.56518 20.8424 4.14359 21.2542 4.14359C21.6661 4.14359 22 4.56518 22 5.08521Z" fill="#2C374A"/>
<path d="M18.2712 11.6764C18.2712 12.0925 17.9373 12.4297 17.5254 12.4297C17.1136 12.4297 16.7797 12.0925 16.7797 11.6764C16.7797 11.2604 17.1136 10.9232 17.5254 10.9232C17.9373 10.9232 18.2712 11.2604 18.2712 11.6764Z" fill="#2C374A"/>
</svg>
