<svg width="21" height="21" viewBox="0 0 21 21" fill="none" xmlns="http://www.w3.org/2000/svg">
<path d="M10.5 21C7.69535 21 5.05846 19.9078 3.07535 17.9246C1.09225 15.9415 0 13.3046 0 10.5C0 7.69535 1.09225 5.05846 3.07535 3.07535C5.05846 1.09225 7.69535 0 10.5 0C13.3046 0 15.9415 1.09225 17.9246 3.07535C19.9078 5.05846 21 7.69535 21 10.5C21 13.3046 19.9078 15.9415 17.9246 17.9246C15.9415 19.9078 13.3046 21 10.5 21ZM10.5 1.3125C5.43416 1.3125 1.3125 5.43416 1.3125 10.5C1.3125 15.5658 5.43416 19.6875 10.5 19.6875C15.5658 19.6875 19.6875 15.5658 19.6875 10.5C19.6875 5.43416 15.5658 1.3125 10.5 1.3125Z" fill="black"/>
<path d="M10.5 9.84375C9.5952 9.84375 8.85938 9.10793 8.85938 8.20312C8.85938 7.29832 9.5952 6.5625 10.5 6.5625C11.4048 6.5625 12.1406 7.29832 12.1406 8.20312C12.1406 8.5657 12.4343 8.85938 12.7969 8.85938C13.1595 8.85938 13.4531 8.5657 13.4531 8.20312C13.4531 6.80039 12.4696 5.62365 11.1562 5.32424V4.59375C11.1562 4.23117 10.8626 3.9375 10.5 3.9375C10.1374 3.9375 9.84375 4.23117 9.84375 4.59375V5.32424C8.53043 5.62365 7.54688 6.79998 7.54688 8.20312C7.54688 9.83145 8.87168 11.1562 10.5 11.1562C11.4048 11.1562 12.1406 11.8921 12.1406 12.7969C12.1406 13.7017 11.4048 14.4375 10.5 14.4375C9.5952 14.4375 8.85938 13.7017 8.85938 12.7969C8.85938 12.4343 8.5657 12.1406 8.20312 12.1406C7.84055 12.1406 7.54688 12.4343 7.54688 12.7969C7.54688 14.1996 8.53043 15.3763 9.84375 15.6758V16.4062C9.84375 16.7688 10.1374 17.0625 10.5 17.0625C10.8626 17.0625 11.1562 16.7688 11.1562 16.4062V15.6758C12.4696 15.3763 13.4531 14.1996 13.4531 12.7969C13.4531 11.1686 12.1283 9.84375 10.5 9.84375Z" fill="black"/>
</svg>
