<svg width="19" height="19" viewBox="0 0 19 19" fill="none" xmlns="http://www.w3.org/2000/svg">
<path d="M16.2059 0H2.79412C1.25124 0.000523128 0.000523908 0.937053 0 2.09251V16.9075C0.000523908 18.0629 1.25124 18.9995 2.79412 19H16.2059C17.7488 18.9995 18.9993 18.0629 19 16.9075V2.09251C18.9993 0.937053 17.7488 0.000523128 16.2059 0ZM17.8824 16.9075C17.8797 17.6 17.1306 18.161 16.2059 18.163H2.79412C1.86944 18.161 1.12027 17.6 1.11765 16.9075V2.09251C1.12027 1.40002 1.86944 0.838966 2.79412 0.837004H16.2059C17.1306 0.838966 17.8797 1.40002 17.8824 2.09251V16.9075Z" fill="#2C374A"/>
<path d="M7.4 3H10.6C10.8209 3 11 2.77609 11 2.5C11 2.22391 10.8209 2 10.6 2H7.4C7.179 2 7 2.22391 7 2.5C7 2.77609 7.179 3 7.4 3Z" fill="#2C374A"/>
<path d="M5.28943 12C4.63054 12 4.08425 11.7609 3.65055 11.2828C3.21685 10.8046 3 10.2104 3 9.5C3 8.78962 3.21685 8.19536 3.65055 7.71721C4.08425 7.23907 4.63054 7 5.28943 7C5.69394 7 6.06718 7.10474 6.40913 7.31421C6.75109 7.52368 7.01798 7.80601 7.20981 8.1612L6.12139 8.84426C6.0505 8.68944 5.93999 8.56648 5.78986 8.47541C5.63973 8.38434 5.47292 8.3388 5.28943 8.3388C4.98084 8.3388 4.73063 8.44809 4.5388 8.66667C4.34697 8.88525 4.25106 9.16302 4.25106 9.5C4.25106 9.83698 4.34697 10.1148 4.5388 10.3333C4.73063 10.5519 4.98084 10.6612 5.28943 10.6612C5.47709 10.6612 5.6439 10.6157 5.78986 10.5246C5.93999 10.4335 6.0505 10.3083 6.12139 10.1489L7.20981 10.832C7.01798 11.1917 6.75109 11.4763 6.40913 11.6858C6.06718 11.8953 5.69394 12 5.28943 12Z" fill="#2C374A"/>
<path d="M9.78225 11.8839L9.08791 10.3811H8.77514V11.8839H7.52409V7.10246H9.27557C9.75514 7.10246 10.1513 7.25729 10.4641 7.56694C10.7768 7.87204 10.9332 8.27732 10.9332 8.78279C10.9332 9.06512 10.8728 9.32013 10.7518 9.54781C10.6351 9.7755 10.4703 9.95993 10.2576 10.1011L11.1209 11.8839H9.78225ZM8.77514 8.35929V9.24727H9.25055C9.38399 9.25182 9.48825 9.21539 9.56331 9.13798C9.64254 9.06056 9.68216 8.95127 9.68216 8.81011C9.68216 8.66894 9.64254 8.55965 9.56331 8.48224C9.48825 8.40027 9.38399 8.35929 9.25055 8.35929H8.77514Z" fill="#2C374A"/>
<path d="M16 7.10929V11.8907H14.7489V9.56148L13.7731 11.3511H13.6605L12.6847 9.56148V11.8907H11.4336V7.10929H12.6847L13.7168 9.05601L14.7489 7.10929H16Z" fill="#2C374A"/>
</svg>
