<svg width="19" height="19" viewBox="0 0 19 19" fill="none" xmlns="http://www.w3.org/2000/svg">
<path d="M18.49 8.26391C18.4893 8.26354 18.4889 8.26279 18.4885 8.26242L10.7371 0.512358C10.4069 0.181816 9.96736 0 9.5003 0C9.03325 0 8.59371 0.181816 8.26313 0.512358L0.515817 8.2587C0.513214 8.26131 0.510611 8.26391 0.508008 8.26651C-0.170635 8.94879 -0.169148 10.0557 0.511354 10.7365C0.822228 11.0477 1.23276 11.2276 1.67193 11.2466C1.68978 11.2485 1.708 11.2492 1.72585 11.2492H2.03449V16.9528C2.03449 18.0816 2.95298 19 4.08194 19H7.11446C7.42198 19 7.67113 18.7505 7.67113 18.4434V13.9716C7.67113 13.4566 8.09021 13.0376 8.60524 13.0376H10.3939C10.9089 13.0376 11.328 13.4566 11.328 13.9716V18.443C11.328 18.7505 11.5771 18.9996 11.8847 18.9996H14.9172C16.0461 18.9996 16.9646 18.0813 16.9646 16.9524V11.2488H17.251C17.718 11.2488 18.1572 11.067 18.4881 10.7361C19.1701 10.0549 19.1705 8.94581 18.49 8.26391ZM17.7017 9.94934C17.5815 10.0694 17.4216 10.1356 17.2521 10.1356H16.4091C16.1015 10.1356 15.8524 10.3847 15.8524 10.6922V16.9524C15.8524 17.4674 15.4333 17.886 14.9183 17.886H12.4425V13.9716C12.4425 12.8428 11.524 11.9244 10.395 11.9244H8.60635C7.47739 11.9244 6.5589 12.8428 6.5589 13.9716V17.8864H4.08306C3.56804 17.8864 3.14895 17.4674 3.14895 16.9528V10.6926C3.14895 10.3851 2.8998 10.136 2.59228 10.136H1.76303C1.75448 10.1352 1.74593 10.1349 1.737 10.1349C1.57115 10.1319 1.41572 10.0661 1.29895 9.94934C1.05092 9.70134 1.05092 9.29792 1.29895 9.04992C1.29895 9.04992 1.29895 9.04992 1.29932 9.04955L1.2997 9.04918L9.05072 1.29949C9.17084 1.17939 9.33036 1.11321 9.5003 1.11321C9.67024 1.11321 9.82977 1.17939 9.94988 1.29949L17.6991 9.04769C17.7002 9.04881 17.7017 9.04992 17.7028 9.05104C17.9493 9.29941 17.9489 9.70208 17.7017 9.94934Z" fill="#2C374A"/>
</svg>
