<svg width="15" height="19" viewBox="0 0 15 19" fill="none" xmlns="http://www.w3.org/2000/svg">
<path fill-rule="evenodd" clip-rule="evenodd" d="M13.649 0.724848H2.35096C1.9779 0.724848 1.67548 1.04937 1.67548 1.4497V17.5503C1.67548 17.9506 1.9779 18.2752 2.35096 18.2752H13.649C14.0221 18.2752 14.3245 17.9506 14.3245 17.5503V1.4497C14.3245 1.04937 14.0221 0.724848 13.649 0.724848ZM2.35096 0C1.60484 0 1 0.649051 1 1.4497V17.5503C1 18.351 1.60484 19 2.35096 19H13.649C14.3952 19 15 18.3509 15 17.5503V1.4497C15 0.649051 14.3952 0 13.649 0H2.35096Z" fill="#2C374A"/>
<path d="M14.5 18H2C1.45 18 1 17.55 1 17C1 16.45 1.45 16 2 16V0C0.9 0 0 0.9 0 2V16.64C0 16.68 0 16.72 0 16.76C0 16.84 0 16.92 0 17C0 18.1 0.9 19 2 19H14.5C14.78 19 15 18.78 15 18.5C15 18.22 14.78 18 14.5 18Z" fill="#2C374A"/>
<path d="M4 4H12V8H4V4Z" fill="#2C374A"/>
<path d="M5 10H11V11H5V10Z" fill="#2C374A"/>
<path d="M4 12H12V14H4V12Z" fill="#2C374A"/>
</svg>
