<svg width="19" height="18" viewBox="0 0 19 18" fill="none" xmlns="http://www.w3.org/2000/svg">
<path d="M18.4062 3.99989H0.59375C0.266074 3.99989 0 3.77582 0 3.49989C0 3.22395 0.266074 2.99989 0.59375 2.99989H18.4062C18.7339 2.99989 19 3.22395 19 3.49989C19 3.77582 18.7339 3.99989 18.4062 3.99989Z" fill="#2C374A"/>
<path d="M18 2.99989H1V8.05544L2.0625 9.99989L4.1875 9.611L4.89583 8.44433L6.3125 9.611H8.4375L9.5 8.44433L11.2708 9.611H12.6875L14.1042 8.83322L15.5208 9.99989H16.9375L18 8.83322V2.99989Z" fill="white"/>
<path d="M2.49983 9.99989C1.12133 9.99989 0 8.86315 0 7.4653V3.55254C0 3.24754 0.244226 2.99989 0.544996 2.99989H4.455C4.75577 2.99989 5 3.24754 5 3.55254V7.4653C5 8.86315 3.87901 9.99989 2.49983 9.99989ZM1.08999 4.10519V7.4653C1.08999 8.25386 1.72219 8.89493 2.49983 8.89493C3.27747 8.89493 3.90967 8.25317 3.90967 7.4653V4.10519H1.08999Z" fill="#2C374A"/>
<path d="M16.5002 9.99989C15.1215 9.99989 14 8.86281 14 7.46495V3.55254C14 3.24754 14.2443 2.99989 14.5451 2.99989H18.4556C18.7557 2.99989 19 3.24754 19 3.55254V7.4653C19.0003 8.86315 17.8789 9.99989 16.5002 9.99989ZM15.0898 4.10519V7.4653C15.0898 8.25386 15.7221 8.89493 16.4998 8.89493C17.2776 8.89493 17.9099 8.25317 17.9099 7.4653V4.10519H15.0898Z" fill="#2C374A"/>
<path d="M12.0002 9.99989C10.3465 9.99989 9 8.78198 9 7.28465V3.55254C9 3.24754 9.27365 2.99989 9.61065 2.99989H14.3894C14.7264 2.99989 15 3.24754 15 3.55254V7.28465C15 8.78198 13.6539 9.99989 12.0002 9.99989ZM10.2213 4.10519V7.28465C10.2213 8.17269 11.0193 8.89459 12.0002 8.89459C12.981 8.89459 13.7791 8.17234 13.7791 7.28465V4.10519H10.2213Z" fill="#2C374A"/>
<path d="M7 9.99989C5.34639 9.99989 4 8.78198 4 7.28465V3.55254C4 3.24754 4.27363 2.99989 4.61061 2.99989H9.38939C9.72637 2.99989 10 3.24754 10 3.55254V7.28465C10 8.78198 8.65437 9.99989 7 9.99989ZM5.2216 4.10519V7.28465C5.2216 8.17269 6.01959 8.89459 7.00038 8.89459C7.98117 8.89459 8.77916 8.17234 8.77916 7.28465V4.10519H5.2216Z" fill="#2C374A"/>
<path d="M16.8225 18H2.17716C0.975957 18 0 16.9213 0 15.594V11.6563C0 11.2941 0.266069 11 0.593738 11C0.921408 11 1.18748 11.2941 1.18748 11.6563V15.594C1.18748 16.1969 1.63167 16.6879 2.17716 16.6879H16.8228C17.3683 16.6879 17.8125 16.1969 17.8125 15.594V11.6563C17.8125 11.2941 18.0786 11 18.4063 11C18.7339 11 19 11.2933 19 11.6563V15.594C18.9996 16.9213 18.0237 18 16.8225 18Z" fill="#2C374A"/>
<path d="M0.59375 5C0.266074 5 0 4.73187 0 4.39999V2.20018C0 0.986275 0.975976 0 2.17721 0H16.8232C18.024 0 19 0.986275 19 2.20018V3.53371C19 3.86485 18.7339 4.13373 18.4062 4.13373C18.0786 4.13373 17.8125 3.86485 17.8125 3.53371V2.20018C17.8125 1.64892 17.3683 1.20003 16.8228 1.20003H2.17721C1.6317 1.20003 1.1875 1.64892 1.1875 2.20018V4.40036C1.1875 4.73224 0.921426 5 0.59375 5Z" fill="#2C374A"/>
</svg>
