<svg width="22" height="27" viewBox="0 0 22 27" fill="none" xmlns="http://www.w3.org/2000/svg">
<path d="M20.8677 14.5859H1.29717C1.00349 14.5859 0.76416 14.8961 0.76416 15.278V16.1404C0.76416 16.5223 1.00349 16.8325 1.29717 16.8325H20.8677C21.1613 16.8325 21.4007 16.5223 21.4007 16.1404V15.278C21.4007 14.8961 21.1617 14.5859 20.8677 14.5859ZM21.0861 16.1404C21.0861 16.2966 20.9885 16.4248 20.8677 16.4248H1.29717C1.17663 16.4248 1.07874 16.297 1.07874 16.1404V15.278C1.07874 15.1218 1.17628 14.9936 1.29717 14.9936H20.8677C20.9882 14.9936 21.0861 15.1214 21.0861 15.278V16.1404Z" fill="#2C374A"/>
<path d="M2.60205 16.4248V27.0002H4.73572V16.4248H2.60205ZM4.32759 26.592H3.00973V16.8329H4.32759V26.592Z" fill="#2C374A"/>
<path d="M18.1812 16.4248V27.0002H20.3148V16.4248H18.1812ZM19.9067 26.592H18.5888V16.8329H19.9067V26.592Z" fill="#2C374A"/>
<path d="M12.7888 14.594L12.3915 14.6851L12.3685 14.5858L12.3184 14.3642L10.9924 8.55276C10.9762 8.47917 10.9121 8.4277 10.8362 8.4277H2.71959C2.65277 8.4277 2.6135 8.46563 2.59589 8.48775C2.57693 8.50942 2.54984 8.55727 2.56338 8.62093L3.78327 14.5858L3.78598 14.5994L3.38597 14.6811L3.36701 14.5858L2.16337 8.70265C2.12816 8.53515 2.1715 8.36269 2.27895 8.2295C2.38776 8.09767 2.54803 8.02002 2.71959 8.02002H10.8362C11.1026 8.02002 11.331 8.20242 11.3911 8.46337L12.736 14.3642L12.7875 14.5858L12.7888 14.594Z" fill="#2C374A"/>
<path d="M8.61729 10.6239C8.32744 10.2306 7.86107 9.9751 7.33601 9.9751C6.45743 9.9751 5.74365 10.6902 5.74365 11.5675C5.74365 12.446 6.45743 13.1598 7.33601 13.1598C7.86107 13.1598 8.32744 12.9043 8.61729 12.5124C8.81323 12.2474 8.92881 11.921 8.92881 11.567C8.92881 11.2144 8.81323 10.888 8.61729 10.6239Z" fill="#2C374A"/>
<path d="M13.1179 0C11.392 0 9.98877 1.40364 9.98877 3.12918C9.98877 4.44568 10.8059 5.57437 11.9595 6.03532C12.317 6.17934 12.7089 6.25835 13.1179 6.25835C13.5274 6.25835 13.9189 6.17934 14.2769 6.03532C15.4313 5.57437 16.2489 4.44568 16.2489 3.12918C16.2489 1.40364 14.8439 0 13.1179 0ZM13.1179 5.85067C11.6177 5.85067 10.3965 4.63078 10.3965 3.12918C10.3965 1.62757 11.6177 0.407682 13.1179 0.407682C14.6196 0.407682 15.8408 1.62757 15.8408 3.12918C15.8408 4.63078 14.6196 5.85067 13.1179 5.85067Z" fill="#2C374A"/>
<path d="M17.3393 6.03564H9.70438C9.10482 6.03564 8.61768 6.52233 8.61768 7.12235V8.42801H9.02581V7.12235C9.02581 6.74852 9.33056 6.44378 9.70438 6.44378H17.3393C17.7131 6.44378 18.0178 6.74852 18.0178 7.12235V14.3645H12.3184L12.3685 14.5861H9.09624C9.27051 14.7031 9.47819 14.7726 9.70438 14.7726H18.426V7.12235C18.426 6.52233 17.9393 6.03564 17.3393 6.03564Z" fill="#2C374A"/>
</svg>
