<svg width="15" height="19" viewBox="0 0 15 19" fill="none" xmlns="http://www.w3.org/2000/svg">
<path fill-rule="evenodd" clip-rule="evenodd" d="M14.0909 18.377L14.0909 0.622951L14.0909 0.622951L0.909092 0.62295L0.909092 18.377L14.0909 18.377ZM15 0.622951C15 0.278905 14.593 -1.76722e-08 14.0909 -3.9472e-08L0.909092 -6.11815e-07C0.407016 -6.33615e-07 9.41401e-07 0.278904 9.26261e-07 0.62295L1.44981e-07 18.377C1.29841e-07 18.7211 0.407015 19 0.909092 19L14.0909 19C14.593 19 15 18.7211 15 18.377L15 0.622951Z" fill="#2C374A"/>
<rect x="3" y="3" width="4" height="4" fill="#2C374A"/>
<rect x="3" y="10" width="4" height="4" fill="#2C374A"/>
<rect x="8" y="3" width="4" height="4" fill="#2C374A"/>
<rect x="8" y="10" width="4" height="4" fill="#2C374A"/>
</svg>
