<svg width="28" height="16" viewBox="0 0 28 16" fill="none" xmlns="http://www.w3.org/2000/svg">
<path d="M5.50688 9.80999C7.37978 9.80999 8.90114 8.31341 8.90114 6.47766C8.90114 4.6419 7.37978 3.14532 5.50688 3.14532C3.63397 3.14532 2.11261 4.63892 2.11261 6.47766C2.11261 8.31639 3.63397 9.80999 5.50688 9.80999ZM5.50688 4.54669C6.59183 4.54669 7.47373 5.4125 7.47373 6.47766C7.47373 7.54281 6.59183 8.40862 5.50688 8.40862C4.42192 8.40862 3.54002 7.54281 3.54002 6.47766C3.54002 5.4125 4.42192 4.54669 5.50688 4.54669Z" fill="#2C374A"/>
<path d="M1.60954 14.7127C1.60954 13.2816 2.7945 12.1152 4.25525 12.1152H6.75549C6.83125 12.1152 6.90399 12.1182 6.97672 12.1242C7.1828 12.142 7.38888 12.0736 7.54041 11.9367C7.68588 11.8058 7.76771 11.6243 7.76771 11.428C7.76771 11.0709 7.48889 10.7645 7.13128 10.7288C7.00703 10.7169 6.87974 10.7109 6.75246 10.7109H4.25222C2.00958 10.7139 0.182129 12.508 0.182129 14.7127V15.0013H1.60954V14.7127Z" fill="#2C374A"/>
<path d="M8.02228 15.0016H9.44969V13.2759C9.44969 11.6574 10.7922 10.3393 12.4409 10.3393H15.1987C16.8474 10.3393 18.1899 11.6574 18.1899 13.2759V15.0016H19.6173V13.2759C19.6173 11.8121 18.8688 10.4554 17.6141 9.64905C16.8928 9.18491 16.0564 8.93796 15.1987 8.93796H12.4409C11.0771 8.93796 9.8073 9.54789 8.96176 10.6101C8.34655 11.3807 8.02228 12.303 8.02228 13.2759V15.0016Z" fill="#2C374A"/>
<path d="M23.3844 10.7143H20.8841C20.8144 10.7143 20.7447 10.7173 20.675 10.7202C20.2901 10.7411 19.9871 11.0505 19.9871 11.4224C19.9871 11.6158 20.0689 11.8003 20.2113 11.9342C20.3538 12.0651 20.5417 12.1335 20.7386 12.1216C20.7871 12.1186 20.8356 12.1186 20.8841 12.1186H23.3844C24.8421 12.1186 26.0301 13.2849 26.0301 14.7161V15.0047H27.4575V14.7161C27.4575 12.5084 25.63 10.7143 23.3844 10.7143Z" fill="#2C374A"/>
<path d="M22.1327 9.80999C24.0056 9.80999 25.527 8.31341 25.527 6.47766C25.527 4.6419 24.0026 3.14532 22.1327 3.14532C20.2629 3.14532 18.7385 4.63892 18.7385 6.47766C18.7385 8.31639 20.2629 9.80999 22.1327 9.80999ZM22.1327 4.54669C23.2177 4.54669 24.0996 5.4125 24.0996 6.47766C24.0996 7.54281 23.2177 8.40862 22.1327 8.40862C21.0478 8.40862 20.1659 7.54281 20.1659 6.47766C20.1659 5.4125 21.0508 4.54669 22.1327 4.54669Z" fill="#2C374A"/>
<path d="M13.8199 8.38438C16.1746 8.38438 18.09 6.504 18.09 4.19219C18.09 1.88039 16.1746 0 13.8199 0C11.4651 0 9.54974 1.88039 9.54974 4.19219C9.54974 6.504 11.4651 8.38438 13.8199 8.38438ZM13.8199 1.40136C15.3867 1.40136 16.6626 2.65396 16.6626 4.19219C16.6626 5.73042 15.3867 6.98302 13.8199 6.98302C12.253 6.98302 10.9772 5.73042 10.9772 4.19219C10.9772 2.65396 12.253 1.40136 13.8199 1.40136Z" fill="#2C374A"/>
</svg>
