<svg id="Component_2_1" data-name="Component 2 – 1" xmlns="http://www.w3.org/2000/svg" width="68" height="68" viewBox="0 0 68 68">
  <circle id="Ellipse_3" data-name="Ellipse 3" cx="34" cy="34" r="34" fill="#f2f9ff"/>
  <g id="search" transform="translate(21.898 22.036)">
    <path id="Path_6" data-name="Path 6" d="M23.8,21.665,19.458,17.4A10.682,10.682,0,0,0,18.6,3.145a11.012,11.012,0,0,0-15.412,0,10.7,10.7,0,0,0,0,15.227,10.969,10.969,0,0,0,14.4.852L21.9,23.547a1.311,1.311,0,0,0,.952.382,1.442,1.442,0,0,0,.952-.382A1.3,1.3,0,0,0,23.8,21.665ZM19.1,10.759a8,8,0,0,1-2.41,5.732,8.259,8.259,0,0,1-11.6,0,8.022,8.022,0,0,1,0-11.465,8.259,8.259,0,0,1,11.6,0A8,8,0,0,1,19.1,10.759Z" fill="#1fc9aa"/>
    <circle id="Ellipse_2" data-name="Ellipse 2" cx="5.186" cy="5.186" r="5.186" transform="translate(5.762 5.661)" fill="#2f7bff"/>
  </g>
</svg>
