<svg id="Component_3_1" data-name="Component 3 – 1" xmlns="http://www.w3.org/2000/svg" width="68" height="68" viewBox="0 0 68 68">
  <circle id="Ellipse_4" data-name="Ellipse 4" cx="34" cy="34" r="34" fill="#f2f9ff"/>
  <g id="check_in" data-name="check in" transform="translate(23 19)">
    <path id="Path_4" data-name="Path 4" d="M10.491,30.248a.964.964,0,0,0,1.563,0c2.223-3.187,5.5-7.124,7.779-11.127,1.825-3.2,2.712-5.931,2.712-8.346A11.045,11.045,0,0,0,11.273,0,11.045,11.045,0,0,0,0,10.775c0,2.415.887,5.146,2.712,8.346C4.992,23.121,8.272,27.067,10.491,30.248ZM11.273,1.8a9.2,9.2,0,0,1,9.394,8.979c0,2.107-.812,4.556-2.483,7.487a112.764,112.764,0,0,1-6.911,9.894,112.693,112.693,0,0,1-6.911-9.894c-1.67-2.931-2.483-5.38-2.483-7.487A9.2,9.2,0,0,1,11.273,1.8Z" fill="#1fc9aa"/>
    <path id="Path_5" data-name="Path 5" d="M10.433,17.646a1.365,1.365,0,0,1-.965-.4L6.032,13.819A1.354,1.354,0,0,1,7.95,11.906l2.445,2.44,5.1-5.548a1.356,1.356,0,0,1,1.995,1.836l-6.048,6.575a1.336,1.336,0,0,1-.978.437Z" fill="#2f7bff"/>
  </g>
</svg>
