<svg width="53" height="53" viewBox="0 0 53 53" fill="none" xmlns="http://www.w3.org/2000/svg">
<path d="M50.3519 15.9014H2.65234V52.2564H50.3519V15.9014Z" fill="white"/>
<path d="M50.3521 52.9987H2.65259C2.15514 52.9987 1.82422 52.6678 1.82422 52.1704V15.8997C1.82422 15.4033 2.15514 15.0713 2.65259 15.0713H50.3521C50.8485 15.0713 51.1805 15.4022 51.1805 15.8997V52.1714C51.1805 52.6678 50.7663 52.9987 50.3521 52.9987ZM3.48096 51.343H49.5237V16.727H3.48096V51.343Z" fill="#1FC9AA"/>
<path d="M31.2182 41.9023H21.7773V52.3361H31.2182V41.9023Z" fill="#2F7BFF"/>
<path d="M52.171 0.828125H0.828125V15.9003H52.171V0.828125Z" fill="#2F7BFF"/>
<path d="M52.1712 16.7278H0.828369C0.331988 16.7278 0 16.3969 0 15.8995V0.828385C0 0.330927 0.330921 0 0.828369 0H52.1712C52.6676 0 52.9996 0.330927 52.9996 0.828385V15.9005C52.9985 16.3136 52.6676 16.7278 52.1712 16.7278ZM1.65674 15.0721H51.3429V1.65677H1.65674V15.0721Z" fill="#1FC9AA"/>
<path d="M7.77614 4.11035H4.13281V12.5575H7.77614V4.11035Z" fill="white"/>
<path d="M48.8269 4.12891H45.1836V12.5761H48.8269V4.12891Z" fill="white"/>
<path d="M41.9871 4.09766H38.3438V12.5448H41.9871V4.09766Z" fill="white"/>
<path d="M35.1394 4.14941H31.4961V12.5966H35.1394V4.14941Z" fill="white"/>
<path d="M28.3035 4.11914H24.6602V12.5663H28.3035V4.11914Z" fill="white"/>
<path d="M21.4558 4.1709H17.8125V12.6181H21.4558V4.1709Z" fill="white"/>
<path d="M14.6199 4.1377H10.9766V12.5849H14.6199V4.1377Z" fill="white"/>
<path d="M52.1712 53.0005H0.828369C0.330921 53.0005 0 52.6696 0 52.1721C0 51.6747 0.330921 51.3438 0.828369 51.3438H52.1712C52.6676 51.3438 52.9996 51.6747 52.9996 52.1721C52.9996 52.6696 52.6676 53.0005 52.1712 53.0005Z" fill="#1FC9AA"/>
<path d="M18.503 19.2119H10.3047V27.4104H18.503V19.2119Z" fill="#DAE7FF"/>
<path d="M43.5303 19.2119H35.332V27.4104H43.5303V19.2119Z" fill="#DAE7FF"/>
<path d="M18.503 30.1445H10.3047V38.343H18.503V30.1445Z" fill="#DAE7FF"/>
<path d="M43.5303 30.1445H35.332V38.343H43.5303V30.1445Z" fill="#DAE7FF"/>
</svg>
