<svg width="45" height="55" viewBox="0 0 45 55" fill="none" xmlns="http://www.w3.org/2000/svg">
<path d="M21.789 7.1123H17.4258V11.4423H21.789V7.1123Z" fill="#2F7BFF"/>
<path d="M12.7968 7.1123H8.43359V11.4423H12.7968V7.1123Z" fill="#2F7BFF"/>
<path fill-rule="evenodd" clip-rule="evenodd" d="M27.8039 52.9144L27.8039 1.79371L27.8039 1.79371L1.7952 1.79371L1.7952 52.9144L27.8039 52.9144ZM29.5977 1.79371C29.5977 0.80307 28.7946 -3.48687e-08 27.8039 -7.78813e-08L1.7952 -1.20716e-06C0.804567 -1.25017e-06 0.00149533 0.80307 0.00149528 1.79371L0.00149303 52.9144C0.00149299 53.905 0.804565 54.7081 1.7952 54.7081L27.8039 54.7081C28.7946 54.7081 29.5977 53.905 29.5977 52.9144L29.5977 1.79371Z" fill="#1FC9AA"/>
<path d="M37.2929 23.7832H32.9297V28.1132H37.2929V23.7832Z" fill="#2F7BFF"/>
<rect x="8.07422" y="17.041" width="23.3182" height="36.771" fill="#F8F8F8"/>
<path d="M28.3046 23.7832H23.9414V28.1132H28.3046V23.7832Z" fill="#2F7BFF"/>
<path d="M19.3124 23.7832H14.9492V28.1132H19.3124V23.7832Z" fill="#2F7BFF"/>
<path d="M37.2929 32.4434H32.9297V36.7734H37.2929V32.4434Z" fill="#2F7BFF"/>
<path d="M28.3046 32.4434H23.9414V36.7734H28.3046V32.4434Z" fill="#2F7BFF"/>
<path d="M19.3124 32.4434H14.9492V36.7734H19.3124V32.4434Z" fill="#2F7BFF"/>
<path d="M28.3046 41.1084H23.9414V45.4384H28.3046V41.1084Z" fill="#2F7BFF"/>
<path d="M37.5468 41.2559H33.1836V45.5859H37.5468V41.2559Z" fill="#2F7BFF"/>
<path d="M19.3124 41.1084H14.9492V45.4384H19.3124V41.1084Z" fill="#2F7BFF"/>
<path fill-rule="evenodd" clip-rule="evenodd" d="M43.05 53.2071L43.05 17.2009L8.31045 17.2009L8.31045 53.2071L43.05 53.2071ZM44.8437 17.2009C44.8437 16.2103 44.0407 15.4072 43.05 15.4072L8.31045 15.4072C7.31982 15.4072 6.51675 16.2103 6.51675 17.2009L6.51674 53.2071C6.51674 54.1977 7.31981 55.0008 8.31045 55.0008L43.05 55.0008C44.0407 55.0008 44.8437 54.1977 44.8437 53.2071L44.8437 17.2009Z" fill="#1FC9AA"/>
</svg>
