<svg width="21" height="21" viewBox="0 0 21 21" fill="none" xmlns="http://www.w3.org/2000/svg">
<path d="M20.5898 10.3806C20.5898 15.8898 16.0724 20.356 10.5 20.356C4.92762 20.356 0.410156 15.8898 0.410156 10.3806C0.410156 4.87147 4.92762 0.405273 10.5 0.405273C16.0724 0.405273 20.5898 4.87147 20.5898 10.3806Z" fill="#2F7BFF"/>
<path d="M14.0154 5.6709L9.12759 10.5032L6.98822 8.38815L4.66797 10.6821L6.80734 12.7972L9.12759 15.0911L16.3353 7.96522L14.0154 5.6709Z" fill="white"/>
<path d="M10.4976 20.7615C10.2297 20.7615 9.96149 20.7513 9.69284 20.7311C7.19744 20.5421 4.84765 19.4728 3.07536 17.7211C1.09225 15.7605 0 13.1535 0 10.3807C0 7.60794 1.09225 5.001 3.07536 3.04042C5.05847 1.07984 7.69537 0 10.5 0C13.3047 0 15.9416 1.07984 17.9247 3.04042C19.6966 4.79217 20.7778 7.11567 20.9693 9.58272C21.1584 12.023 20.4714 14.4552 19.0342 16.4316C18.9021 16.6132 18.6458 16.6546 18.4616 16.524C18.2774 16.3935 18.236 16.14 18.3681 15.958C21.1461 12.1378 20.7154 6.94658 17.3447 3.61379C13.5705 -0.117594 7.42959 -0.117594 3.65573 3.61379C-0.118535 7.34518 -0.118535 13.4163 3.65573 17.1477C7.02641 20.4801 12.2776 20.9058 16.1417 18.1594C16.3255 18.0288 16.5818 18.0702 16.7143 18.2523C16.8464 18.4339 16.8046 18.6874 16.6204 18.8183C14.8387 20.0839 12.6907 20.7615 10.4976 20.7615Z" fill="black"/>
</svg>
