<svg width="48" height="56" viewBox="0 0 48 56" fill="none" xmlns="http://www.w3.org/2000/svg">
<path fill-rule="evenodd" clip-rule="evenodd" d="M38.6391 2.43218H8.41319C7.60118 2.43218 6.94292 3.09044 6.94292 3.90244V52.7289C6.94292 53.5409 7.60118 54.1992 8.41318 54.1992H38.6391C39.4511 54.1992 40.1094 53.5409 40.1094 52.7289V3.90245C40.1094 3.09044 39.4511 2.43218 38.6391 2.43218ZM8.41319 0.961914C6.78918 0.961914 5.47266 2.27843 5.47266 3.90244V52.7289C5.47266 54.3529 6.78917 55.6695 8.41318 55.6695H38.6391C40.2631 55.6695 41.5796 54.353 41.5796 52.7289V3.90245C41.5796 2.27843 40.2631 0.961914 38.6391 0.961914H8.41319Z" fill="#1FC9AA"/>
<rect x="18.6445" y="39.1328" width="9.76478" height="16.8664" rx="2" fill="#2F7BFF"/>
<rect x="12.4297" y="8.06348" width="7.98937" height="8.87708" fill="#2F7BFF"/>
<rect x="12.4297" y="20.4902" width="7.98937" height="8.87708" fill="#2F7BFF"/>
<rect x="27.5234" y="8.06348" width="7.98937" height="8.87708" fill="#2F7BFF"/>
<rect x="27.5234" y="20.4902" width="7.98937" height="8.87708" fill="#2F7BFF"/>
<rect y="54.2246" width="47.0485" height="1.77542" rx="0.887708" fill="#1FC9AA"/>
</svg>
