<svg width="60" height="52" viewBox="0 0 60 52" fill="none" xmlns="http://www.w3.org/2000/svg">
<path d="M28.6721 39.999C25.3595 39.999 22.6719 42.6828 22.6719 45.999C22.6719 49.3152 25.3595 51.999 28.6721 51.999C31.9847 51.999 34.6723 49.3152 34.6723 45.999C34.6723 42.6828 31.9847 39.999 28.6721 39.999Z" fill="#2F7BFF"/>
<path d="M44.6696 39.999C41.3545 39.999 38.6719 42.6828 38.6719 45.999C38.6719 49.3152 41.3557 51.999 44.6696 51.999C47.9897 51.999 50.6698 49.3152 50.6698 45.999C50.6698 42.6828 47.9909 39.999 44.6696 39.999Z" fill="#2F7BFF"/>
<path d="M48.5328 37.3332H25.0246C22.2367 37.3332 19.7675 35.4735 19.0222 32.8135L11.0756 5.19631C10.6256 3.59798 9.14779 2.48849 7.4755 2.48849H1.25041C0.560165 2.48849 0 1.93082 0 1.24483C0 0.558831 0.560165 0 1.25041 0H7.4755C10.2634 0 12.7326 1.85966 13.4779 4.51965L15.0459 9.95512H56.2485C57.4462 9.95512 58.5431 10.5023 59.2556 11.4589C59.9704 12.4144 60.1825 13.6196 59.838 14.7594L54.4602 33.0527C53.5953 35.631 51.2187 37.3332 48.5328 37.3332ZM15.7608 12.4448L21.4281 32.1368C21.8757 33.7352 23.3535 34.8447 25.0258 34.8447H48.5339C50.1195 34.8447 51.5738 33.8017 52.0742 32.3107L57.4473 14.0478C57.5622 13.6674 57.4895 13.2661 57.2528 12.9476C57.0149 12.6268 56.6505 12.4448 56.2508 12.4448H15.7608Z" fill="#1FC9AA"/>
</svg>
