<svg id="Component_1_1" data-name="Component 1 – 1" xmlns="http://www.w3.org/2000/svg" width="68" height="68" viewBox="0 0 68 68">
  <circle id="Ellipse_1" data-name="Ellipse 1" cx="34" cy="34" r="34" fill="#f2f9ff"/>
  <g id="book" transform="translate(18 19)">
    <path id="Path_1" data-name="Path 1" d="M2.64,2.638,1.32,4.617.99,5.936,1.65,8.9,3.3,11.213l4.95,1.319,2.31-.33h1.98l.33-.33.33-1.319V8.245l.33-.66,1.32-.66,1.32.66.33,1.979.33,2.638,1.32.66,10.89-.989,2.31-2.308.99-3.3L31.02,3.628,28.05,1.649l-6.6-.33H5.94Z" fill="#2f7bff"/>
    <path id="Path_2" data-name="Path 2" d="M26.214,0H6.786a6.786,6.786,0,1,0,0,13.572h4.941v5.482l-.241-.2a3.141,3.141,0,0,0-4.16.182,2.713,2.713,0,0,0,.177,4.04l4.224,3.545v3.416a.967.967,0,0,0,.967.967H24.3a.967.967,0,0,0,.967-.967V19.17a2.9,2.9,0,0,0-2.542-2.878l-5.192-.647V13.571h8.686A6.786,6.786,0,1,0,26.214,0ZM13.661,29.066V27.133h9.668v1.933Zm8.821-10.856a.968.968,0,0,1,.847.96V25.2H13.046l-4.3-3.608A.783.783,0,0,1,8.693,20.4a1.2,1.2,0,0,1,1.549-.068l1.829,1.535a.967.967,0,0,0,1.588-.741V8.765a.967.967,0,0,1,1.934,0V16.5a.967.967,0,0,0,.847.96Zm3.732-6.572H17.528V8.765a2.9,2.9,0,0,0-5.8,0v2.873H6.786a4.852,4.852,0,1,1,0-9.7H26.214a4.852,4.852,0,1,1,0,9.7Z" fill="#1fc9aa"/>
    <path id="Path_3" data-name="Path 3" d="M25.478,4.15,22.294,7.333l-1.25-1.25A.967.967,0,0,0,19.678,7.45l1.934,1.933a.966.966,0,0,0,1.367,0l3.867-3.867A.967.967,0,0,0,25.478,4.15Z" fill="#fff"/>
  </g>
</svg>
