<svg width="46" height="53" viewBox="0 0 46 53" fill="none" xmlns="http://www.w3.org/2000/svg">
<rect x="5.76953" y="0.5" width="33.7701" height="51.6819" rx="1.5" stroke="#1FC9AA"/>
<rect x="11.9688" y="6.83887" width="7.69355" height="8.54839" fill="#2F7BFF"/>
<rect x="11.9688" y="18.8066" width="7.69355" height="8.54839" fill="#2F7BFF"/>
<rect x="26.5" y="6.83887" width="7.69355" height="8.54839" fill="#2F7BFF"/>
<rect x="26.5" y="18.8066" width="7.69355" height="8.54839" fill="#2F7BFF"/>
<rect y="51.291" width="45.3064" height="1.70968" rx="0.854839" fill="#1FC9AA"/>
<path d="M18.9633 31.2686L16.1139 34.418L15.1641 35.0478V38.1972L16.1139 41.9765L19.9132 47.9604L23.0792 51.7397L24.9789 49.2202L27.5117 45.7558L29.4114 42.6064L30.6778 39.457V37.2524V35.0478L28.4616 32.2134L25.6121 30.0088H21.8128L18.9633 31.2686Z" fill="#F9FAFF"/>
<path d="M22.4869 52.6877C22.619 52.8826 22.8417 52.9999 23.0796 52.9999C23.318 52.9999 23.5403 52.8826 23.6723 52.6877C25.3583 50.1983 27.8416 47.1241 29.5717 43.9975C30.9556 41.4973 31.628 39.3656 31.628 37.4793C31.628 32.8394 27.7931 29.0645 23.0796 29.0645C18.3662 29.0645 14.5312 32.8394 14.5312 37.4793C14.5312 39.3656 15.2037 41.4978 16.5876 43.9975C18.3168 47.1217 20.8043 50.2034 22.4869 52.6877ZM23.0796 30.4669C27.0076 30.4669 30.2033 33.6127 30.2033 37.4793C30.2033 39.1248 29.5873 41.0378 28.3207 43.3266C26.8291 46.0217 24.7005 48.7556 23.0796 51.0538C21.4588 48.7561 19.3302 46.0217 17.8385 43.3266C16.5719 41.0378 15.956 39.1248 15.956 37.4793C15.956 33.6127 19.1517 30.4669 23.0796 30.4669Z" fill="#1FC9AA"/>
<path d="M23.0789 41.6863C25.4359 41.6863 27.3531 39.799 27.3531 37.4789C27.3531 35.1587 25.4359 33.2715 23.0789 33.2715C20.7219 33.2715 18.8047 35.1587 18.8047 37.4789C18.8047 39.799 20.7219 41.6863 23.0789 41.6863ZM23.0789 34.674C24.6499 34.674 25.9283 35.9324 25.9283 37.4789C25.9283 39.0253 24.6499 40.2838 23.0789 40.2838C21.5079 40.2838 20.2294 39.0253 20.2294 37.4789C20.2294 35.9324 21.5079 34.674 23.0789 34.674Z" fill="#1FC9AA"/>
</svg>
