<svg width="57" height="52" viewBox="0 0 57 52" fill="none" xmlns="http://www.w3.org/2000/svg">
<path d="M39.6806 24.6309H16.4174C13.6806 27.3677 15.2771 31.2449 16.4174 32.8414H39.6806C41.3227 29.0098 40.3648 25.7712 39.6806 24.6309Z" fill="#2F7BFF"/>
<path d="M39.829 32.8418H16.5658C13.829 35.5786 15.4255 39.4558 16.5658 41.0523H39.829C41.4711 37.2207 40.5132 33.9821 39.829 32.8418Z" fill="#2F7BFF"/>
<path d="M21.4713 42.5175H34.4687H21.4713ZM36.6603 42.5175H39.1642C39.5751 42.5175 39.8469 42.2872 40.1208 42.0163C41.415 40.7418 42.1579 38.9682 42.1579 37.1508C42.1579 35.601 41.6166 34.0852 40.6556 32.8809C41.6166 31.6766 42.1579 30.1608 42.1579 28.611C42.1579 26.7947 41.4161 25.0211 40.123 23.7466L39.9335 23.559C39.7285 23.3572 39.4524 23.2432 39.1642 23.2432H16.9391C16.5281 23.2432 16.2542 23.4757 15.9802 23.7455C14.6872 25.02 13.9453 26.7936 13.9453 28.6099C13.9453 30.1597 14.4866 31.6766 15.4477 32.8798C14.4866 34.0841 13.9453 35.5999 13.9453 37.1497C13.9453 38.9671 14.6872 40.7407 15.9824 42.0152C16.2564 42.285 16.5281 42.5164 16.9402 42.5164H19.2808L36.6603 42.5175ZM17.3927 25.4368H38.7105C39.5105 26.2901 39.9663 27.4363 39.9663 28.6099C39.9663 29.7835 39.5105 30.9296 38.7105 31.783H17.3927C16.5928 30.9296 16.1369 29.7835 16.1369 28.6099C16.1369 27.4374 16.5917 26.2912 17.3927 25.4368ZM16.1369 37.1508C16.1369 35.9772 16.5928 34.831 17.3927 33.9777H38.7105C39.5105 34.831 39.9663 35.9783 39.9663 37.1508C39.9663 38.3233 39.5105 39.4705 38.7105 40.3239H17.3927C16.5917 39.4705 16.1369 38.3244 16.1369 37.1508Z" fill="#1FC9AA"/>
<path d="M55.6363 18.9179L28.7967 0.19743C28.4219 -0.0647086 27.9244 -0.0658054 27.5486 0.19414L0.473388 18.8773C0.177521 19.0824 0 19.4202 0 19.78V27.6024C0 28.4678 1.00376 28.9976 1.71822 28.5051L7.11288 24.7814V50.9032C7.11288 51.5086 7.6038 52 8.20868 52H23.2837C23.8886 52 24.3795 51.5086 24.3795 50.9032C24.3795 50.2977 23.8886 49.8064 23.2837 49.8064H9.30449V23.27L28.1535 10.2618L46.8008 23.2667V49.8064H32.9399C32.335 49.8064 31.8441 50.2977 31.8441 50.9032C31.8441 51.5086 32.335 52 32.9399 52H47.8966C48.5015 52 48.9924 51.5086 48.9924 50.9032V24.7946L54.3827 28.5545C55.0971 29.0524 56.1053 28.5216 56.1053 27.6551V19.8184C56.1053 19.4586 55.93 19.123 55.6363 18.9179ZM53.9137 25.5536L28.7835 8.02649C28.4143 7.76874 27.9058 7.76765 27.5354 8.0232L2.19161 25.5141V20.3569L28.1666 2.43164L53.9137 20.3898V25.5536Z" fill="#1FC9AA"/>
<path d="M29.1301 50.4838C28.7542 49.5811 27.4185 49.6064 27.0875 50.5343C26.7533 51.472 27.7932 52.3473 28.6578 51.857C29.1356 51.5861 29.3372 50.9905 29.1301 50.4838Z" fill="#1FC9AA"/>
</svg>
