<svg xmlns="http://www.w3.org/2000/svg" width="95.059" height="98.097" viewBox="0 0 95.059 98.097">
    <defs>
        <style>
            .cls-1{fill:#ff6161}.cls-2{fill:#ff6b6b}
        </style>
    </defs>
    <g id="Group_13617" data-name="Group 13617" transform="translate(-34.441 -105.16)">
        <g id="Group_13158" data-name="Group 13158" transform="translate(35.008 165.058)">
            <circle id="Ellipse_275" cx="10.928" cy="10.928" r="10.928" class="cls-1" data-name="Ellipse 275" transform="translate(1.485 1.485)"/>
            <path id="Path_14171" d="M48.382 291.3A12.414 12.414 0 1 1 60.8 278.885 12.428 12.428 0 0 1 48.382 291.3zm0-21.857a9.443 9.443 0 1 0 9.443 9.443 9.454 9.454 0 0 0-9.443-9.444z" data-name="Path 14171" transform="translate(-35.968 -266.471)"/>
        </g>
        <g id="Group_13159" data-name="Group 13159" transform="translate(34.441 188.539)">
            <path id="Path_14172" d="M38.442 345.417s.235-12.382 11.867-11.679 12.043 11.718 12.043 11.718" class="cls-2" data-name="Path 14172" transform="translate(-36.956 -332.224)"/>
            <path id="Path_14173" d="M59.835 344.426A1.485 1.485 0 0 1 58.352 343c-.017-.391-.54-9.679-10.648-10.291a9.007 9.007 0 0 0-6.919 2.105c-3.215 2.955-3.372 8.071-3.373 8.123a1.485 1.485 0 0 1-2.97-.06c.005-.26.169-6.4 4.314-10.233a11.858 11.858 0 0 1 9.128-2.9c12.828.776 13.432 13.022 13.437 13.145a1.485 1.485 0 0 1-1.429 1.54z" data-name="Path 14173" transform="translate(-34.441 -329.708)"/>
        </g>
        <g id="Group_13160" data-name="Group 13160" transform="translate(69.038 165.058)">
            <circle id="Ellipse_276" cx="10.928" cy="10.928" r="10.928" class="cls-2" data-name="Ellipse 276" transform="translate(1.485 1.485)"/>
            <path id="Path_14174" d="M140.029 291.3a12.414 12.414 0 1 1 12.414-12.414 12.428 12.428 0 0 1-12.414 12.414zm0-21.857a9.443 9.443 0 1 0 9.443 9.443 9.454 9.454 0 0 0-9.443-9.444z" data-name="Path 14174" transform="translate(-127.615 -266.471)"/>
        </g>
        <g id="Group_13161" data-name="Group 13161" transform="translate(68.472 188.539)">
            <path id="Path_14175" d="M130.089 345.417s.234-12.382 11.867-11.679S154 345.456 154 345.456" class="cls-1" data-name="Path 14175" transform="translate(-128.604 -332.224)"/>
            <path id="Path_14176" d="M151.482 344.426A1.485 1.485 0 0 1 150 343c-.017-.39-.54-9.679-10.648-10.291a9 9 0 0 0-6.933 2.118c-3.225 2.979-3.358 8.056-3.359 8.107a1.485 1.485 0 0 1-1.485 1.457h-.029a1.486 1.486 0 0 1-1.457-1.513c.005-.26.168-6.4 4.314-10.233a11.857 11.857 0 0 1 9.128-2.9c12.828.776 13.432 13.022 13.437 13.146a1.485 1.485 0 0 1-1.429 1.539z" data-name="Path 14176" transform="translate(-126.088 -329.708)"/>
        </g>
        <g id="Group_13162" data-name="Group 13162" transform="translate(69.038 105.16)">
            <circle id="Ellipse_277" cx="10.928" cy="10.928" r="10.928" class="cls-1" data-name="Ellipse 277" transform="translate(1.485 1.485)"/>
            <path id="Path_14177" d="M140.029 129.987a12.414 12.414 0 1 1 12.414-12.414 12.428 12.428 0 0 1-12.414 12.414zm0-21.857a9.443 9.443 0 1 0 9.443 9.443 9.454 9.454 0 0 0-9.443-9.442z" data-name="Path 14177" transform="translate(-127.615 -105.16)"/>
        </g>
        <g id="Group_13163" data-name="Group 13163" transform="translate(68.472 128.641)">
            <path id="Path_14178" d="M130.089 184.106s.234-12.382 11.867-11.679S154 183.4 154 183.4" class="cls-1" data-name="Path 14178" transform="translate(-128.604 -170.913)"/>
            <path id="Path_14179" d="M127.574 183.076h-.029a1.486 1.486 0 0 1-1.457-1.513c.005-.26.168-6.4 4.314-10.233a11.86 11.86 0 0 1 9.128-2.9c12.824.776 13.432 12.283 13.437 12.4a1.485 1.485 0 1 1-2.968.118c-.017-.359-.545-8.941-10.648-9.552a9 9 0 0 0-6.933 2.118c-3.225 2.979-3.358 8.056-3.359 8.107a1.485 1.485 0 0 1-1.485 1.455z" data-name="Path 14179" transform="translate(-126.088 -168.397)"/>
        </g>
        <g id="Group_13164" data-name="Group 13164" transform="translate(103.187 165.058)">
            <path id="Path_14624" d="M10.928 0A10.928 10.928 0 1 1 0 10.928 10.928 10.928 0 0 1 10.928 0z" class="cls-1" data-name="Path 14624" transform="translate(1.485 1.485)"/>
            <path id="Path_14180" d="M231.994 291.3a12.414 12.414 0 1 1 12.414-12.414 12.428 12.428 0 0 1-12.414 12.414zm0-21.857a9.443 9.443 0 1 0 9.443 9.443 9.454 9.454 0 0 0-9.443-9.444z" data-name="Path 14180" transform="translate(-219.58 -266.471)"/>
        </g>
        <g id="Group_13165" data-name="Group 13165" transform="translate(102.62 188.539)">
            <path id="Path_14181" d="M222.054 345.417s.234-12.382 11.867-11.679 12.042 11.346 12.042 11.346" class="cls-1" data-name="Path 14181" transform="translate(-220.569 -332.223)"/>
            <path id="Path_14182" d="M219.54 344.385h-.032a1.483 1.483 0 0 1-1.453-1.511c0-.26.168-6.4 4.313-10.233a11.858 11.858 0 0 1 9.128-2.9c12.826.776 13.432 12.653 13.437 12.772a1.485 1.485 0 1 1-2.969.115c-.017-.375-.542-9.31-10.648-9.922a9.01 9.01 0 0 0-6.92 2.105c-3.214 2.955-3.371 8.071-3.372 8.123a1.486 1.486 0 0 1-1.484 1.451z" data-name="Path 14182" transform="translate(-218.054 -329.708)"/>
        </g>
        <g id="Group_13166" data-name="Group 13166" transform="translate(52.363 140.35)">
            <path id="Path_14183" d="M86.705 219.209v-15.281H142v15.038" class="cls-1" data-name="Path 14183" transform="translate(-85.22 -202.443)"/>
            <path id="Path_14184" d="M84.19 218.18a1.485 1.485 0 0 1-1.485-1.485v-16.766h58.27v16.524a1.485 1.485 0 1 1-2.971 0V202.9H85.676v13.8a1.485 1.485 0 0 1-1.486 1.48z" data-name="Path 14184" transform="translate(-82.705 -199.929)"/>
        </g>
    </g>
</svg>
