<svg xmlns="http://www.w3.org/2000/svg" width="38.28" height="38.747" viewBox="0 0 38.28 38.747"><defs><style>.a{fill:#40c4ff;}.b{fill:#d8dce6;}</style></defs><g transform="translate(-2.686)"><g transform="translate(2.686)"><path class="a" d="M9.691,318.907l.012-.027a1.981,1.981,0,0,1,1.09-.986l1.658-.763.088-.074q-.095-.109-.185-.224a6.314,6.314,0,0,1-1.2-3.743l-.23-.1-.854-.721L8.7,313.629h-.16l-1.373-1.366-.855.721-1.778.819a1.16,1.16,0,0,0-.653.557s-1.933,4.6-.885,4.6h6.67Z" transform="translate(-2.686 -285.096)"/><path class="b" d="M34.04,231.243c.031,2.843,1.619,4.536,3.207,4.536,1.357,0,3.176-1.694,3.207-4.536.02-1.972-.92-3.153-3.207-3.153S34.02,229.271,34.04,231.243Z" transform="translate(-31.312 -208.246)"/><path class="a" d="M178.859,317.893a1.951,1.951,0,0,1,1.1,1.015l.023.054h2.092l.023-.056.012-.027a1.979,1.979,0,0,1,1.09-.986l1.658-.763.088-.074q-.1-.109-.185-.224a6.311,6.311,0,0,1-1.2-3.743l-.229-.1-.854-.721-1.373,1.366h-.159l-1.373-1.366-.854.721-.23.105a6.241,6.241,0,0,1-1.294,3.759c-.045.056-.092.11-.139.164l.141.118Z" transform="translate(-161.891 -285.095)"/><path class="b" d="M189.025,235.778c1.356,0,3.177-1.694,3.207-4.536.02-1.972-.92-3.153-3.207-3.153s-3.227,1.181-3.207,3.153C185.848,234.084,187.437,235.778,189.025,235.778Z" transform="translate(-169.885 -208.245)"/><path class="a" d="M337.542,314.359a1.15,1.15,0,0,0-.653-.557l-1.779-.819-.854-.721-1.373,1.366h-.16l-1.373-1.366-.854.721-.23.105a6.24,6.24,0,0,1-1.294,3.759c-.045.056-.092.11-.139.164l.141.118,1.658.763a1.95,1.95,0,0,1,1.1,1.015l.023.054h6.67C339.475,318.961,337.542,314.359,337.542,314.359Z" transform="translate(-300.458 -285.095)"/><path class="b" d="M337.593,231.243c.031,2.843,1.62,4.536,3.207,4.536,1.357,0,3.177-1.694,3.207-4.536.02-1.972-.919-3.153-3.207-3.153S337.572,229.271,337.593,231.243Z" transform="translate(-308.456 -208.246)"/><path class="a" d="M88.6,369.909l-1.778-.819-.855-.72-1.373,1.365h-.16l-1.373-1.365-.854.72-1.779.819a1.152,1.152,0,0,0-.653.557s-1.933,4.6-.885,4.6H90.133c1.049,0-.885-4.6-.885-4.6A1.142,1.142,0,0,0,88.6,369.909Z" transform="translate(-71.972 -336.322)"/><path class="b" d="M113.134,284.193c-2.288,0-3.227,1.18-3.207,3.152.031,2.842,1.62,4.537,3.207,4.537,1.357,0,3.177-1.7,3.207-4.537C116.362,285.373,115.422,284.193,113.134,284.193Z" transform="translate(-100.597 -259.468)"/><path class="a" d="M240.373,369.909l-1.779-.819-.854-.72-1.373,1.365h-.16l-1.373-1.365-.855.72-1.778.819a1.154,1.154,0,0,0-.654.557s-1.933,4.6-.884,4.6h11.247c1.049,0-.885-4.6-.885-4.6A1.143,1.143,0,0,0,240.373,369.909Z" transform="translate(-210.545 -336.322)"/><path class="b" d="M264.915,291.885c1.356,0,3.176-1.7,3.207-4.537.02-1.972-.919-3.152-3.207-3.152s-3.228,1.18-3.207,3.152C261.738,290.189,263.327,291.885,264.915,291.885Z" transform="translate(-239.173 -259.471)"/><path class="b" d="M207.993,79.817a.329.329,0,0,0,.345-.033l3.388-2.59a.329.329,0,0,0,0-.523l-3.388-2.59a.329.329,0,0,0-.529.261v5.18A.329.329,0,0,0,207.993,79.817Z" transform="translate(-189.964 -67.574)"/><path class="b" d="M18.361,18.716H53.075a.459.459,0,0,0,.459-.459V.459A.459.459,0,0,0,53.075,0H18.361A.459.459,0,0,0,17.9.459v17.8A.459.459,0,0,0,18.361,18.716ZM35.718,4.024a5.334,5.334,0,1,1-5.334,5.334A5.334,5.334,0,0,1,35.718,4.024Z" transform="translate(-16.578)"/></g></g></svg>