<svg xmlns="http://www.w3.org/2000/svg" width="38.442" height="36.074" viewBox="0 0 38.442 36.074"><defs><style>.a{fill:#d8dce6;}.b{fill:#40c4ff;}</style></defs><g transform="translate(0 -15.769)"><g transform="translate(15.839 15.769)"><g transform="translate(0 0)"><circle class="a" cx="3.382" cy="3.382" r="3.382"/></g></g><g transform="translate(10.203 20.392)"><g transform="translate(0 0)"><path class="b" d="M150.393,77.346a5.624,5.624,0,0,1-10.977,0,4.512,4.512,0,0,0-3.53,4.4V86.25a2.255,2.255,0,0,0,4.509,0V84h9.018V86.25a2.255,2.255,0,1,0,4.509,0V81.741A4.512,4.512,0,0,0,150.393,77.346Z" transform="translate(-135.886 -77.346)"/></g></g><g transform="translate(31.62 42.867)"><path class="a" d="M426.218,377.133a3.382,3.382,0,1,0-3.382,5.858,3.47,3.47,0,0,0,4.695-1.238A3.406,3.406,0,0,0,426.218,377.133Z" transform="translate(-421.144 -376.679)"/></g><g transform="translate(20.581 33.065)"><g transform="translate(0 0)"><path class="b" d="M288.156,248.683l-3.9-2.255A2.255,2.255,0,1,0,282,250.333l1.953,1.127-4.509,7.81-1.953-1.127a2.255,2.255,0,1,0-2.255,3.905l3.905,2.255a4.512,4.512,0,0,0,5.571-.86,5.625,5.625,0,0,1,5.489-9.506A4.511,4.511,0,0,0,288.156,248.683Z" transform="translate(-274.105 -246.126)"/></g></g><g transform="translate(0 42.867)"><path class="a" d="M6.368,378.371a3.415,3.415,0,0,0-5.933,3.382,3.47,3.47,0,0,0,4.695,1.238A3.382,3.382,0,0,0,6.368,378.371Z" transform="translate(0 -376.68)"/></g><g transform="translate(1.564 33.065)"><g transform="translate(0 0)"><path class="b" d="M36.821,258.969a2.258,2.258,0,0,0-3.08-.825l-1.953,1.127-4.509-7.81,1.953-1.127a2.255,2.255,0,1,0-2.255-3.905l-3.905,2.255a4.511,4.511,0,0,0-2.041,5.255,5.625,5.625,0,0,1,5.488,9.506,4.512,4.512,0,0,0,5.571.86L36,262.049A2.258,2.258,0,0,0,36.821,258.969Z" transform="translate(-20.824 -246.127)"/></g></g></g></svg>