<svg xmlns="http://www.w3.org/2000/svg" width="38.745" height="36.619" viewBox="0 0 38.745 36.619"><defs><style>.a{fill:#d8dce6;}.b{fill:#40c4ff;}</style></defs><g transform="translate(0 -13.499)"><g transform="translate(0 13.499)"><path class="a" d="M19.721,205.709H0v2.11H1.686v19.186H15.628V207.819h4.093Z" transform="translate(0 -190.568)"/><path class="b" d="M220.02,140.789l.014,0c2.572.075,4.04-.692,4.267-2.729l1.043-9.382a3.628,3.628,0,0,0-2.592-3.592l-.011,0a6.4,6.4,0,0,0-.951-.223,3.417,3.417,0,0,0-.939.022,5.477,5.477,0,0,0-2.162.9c-2,1.425-5.1,1.733-9.224.914a1.915,1.915,0,1,0-.746,3.756,24.74,24.74,0,0,0,4.819.515,15.11,15.11,0,0,0,3.7-.433l-.009.132-.665,5.98c-3.483.126-5.677.843-6.536,2.147-1.163,1.771-3.053,8.911-3.6,11.1a2.114,2.114,0,1,0,4.1,1.032,65.287,65.287,0,0,1,2.926-9.123C213.954,140.7,217.312,140.64,220.02,140.789Z" transform="translate(-190.101 -116.067)"/><circle class="b" cx="4.278" cy="4.278" r="4.278" transform="translate(26.907 0)"/><path class="a" d="M348.284,186.643l.568-7.366a.154.154,0,0,0-.154-.16H346.36a.154.154,0,0,0-.154.149l-.528,7.371c-.07,2.273-.739,5.068-4.556,5.068L336.9,191.7h0a.154.154,0,0,0-.154.154v2.278a.154.154,0,0,0,.154.154h3.832v5.235h-1.2a3,3,0,0,0-2.906,3.019.154.154,0,0,0,.154.154H338.3a.154.154,0,0,0,.154-.154,1.11,1.11,0,0,1,1.079-1.111h4.99a1.11,1.11,0,0,1,1.08,1.111.154.154,0,0,0,.154.154h1.518a.154.154,0,0,0,.154-.154,3,3,0,0,0-2.906-3.019h-1.2V194C347.079,193.9,347.952,190.171,348.284,186.643Z" transform="translate(-310.107 -166.072)"/><path class="a" d="M72.482,71.341H65.257L62.812,62.38a.118.118,0,0,0-.145-.083l-1.3.356a.118.118,0,0,0-.083.145L64.021,72.84a.118.118,0,0,0,.114.087h8.347a.118.118,0,0,0,.118-.118V71.459A.118.118,0,0,0,72.482,71.341Z" transform="translate(-56.449 -58.449)"/></g></g></svg>