<svg xmlns="http://www.w3.org/2000/svg" width="44" height="41.25" viewBox="0 0 44 41.25"><defs><style>.a{fill:#d8dce6;}.b{fill:#40c4ff;}</style></defs><path class="a" d="M41.422,45.469H38.844V42.76a6.445,6.445,0,1,0-2.578,0v2.709H33.688v3.184a19.433,19.433,0,0,1-23.375,0V45.469H7.734V42.76a6.445,6.445,0,1,0-2.578,0v2.709H2.578V66.094H0v2.578H12.891V66.094H10.313V51.81a21.946,21.946,0,0,0,23.375,0V66.094H31.109v2.578H44V66.094H41.422Zm0,0" transform="translate(0 -27.422)"/><path class="b" d="M271,0h2.578V2.578H271Zm0,0" transform="translate(-247.711)"/><path class="b" d="M271,60h2.578v2.578H271Zm0,0" transform="translate(-247.711 -54.844)"/><path class="b" d="M241,30h2.578v2.578H241Zm0,0" transform="translate(-220.289 -27.422)"/><path class="b" d="M301,30h2.578v2.578H301Zm0,0" transform="translate(-275.133 -27.422)"/><path class="b" d="M211,150h2.578v2.578H211Zm0,0" transform="translate(-192.867 -137.109)"/><path class="b" d="M211,210h2.578v2.578H211Zm0,0" transform="translate(-192.867 -191.953)"/><path class="b" d="M181,180h2.578v2.578H181Zm0,0" transform="translate(-165.445 -164.531)"/><path class="b" d="M241,180h2.578v2.578H241Zm0,0" transform="translate(-220.289 -164.531)"/></svg>