<svg xmlns="http://www.w3.org/2000/svg" width="14.369" height="38.515" viewBox="0 0 14.369 38.515"><defs><style>.a{fill:#d8dce6;}.b{fill:#40c4ff;}</style></defs><g transform="translate(-11.973 0.14)"><g transform="translate(13.619 -0.14)"><g transform="translate(0 0)"><ellipse class="a" cx="5.531" cy="4.839" rx="5.531" ry="4.839"/></g></g><g transform="translate(11.973 12.034)"><path class="b" d="M174.359,170.628l-1.087-8.468a2.385,2.385,0,0,0-2.38-2.155h-1.312a1.206,1.206,0,0,0-.848.35l-1.547,1.547-1.547-1.547a1.206,1.206,0,0,0-.848-.35h-1.31a2.38,2.38,0,0,0-2.38,2.124l-1.09,8.5a1.2,1.2,0,0,0,1.188,1.348h1.293l1,12.213a2.386,2.386,0,0,0,2.383,2.155H168.5a2.394,2.394,0,0,0,2.385-2.177l1-12.191h1.291a1.194,1.194,0,0,0,.9-.407A1.179,1.179,0,0,0,174.359,170.628Z" transform="translate(-160 -160.005)"/></g></g></svg>