<svg xmlns="http://www.w3.org/2000/svg" width="281" height="649.604" viewBox="0 0 281 649.604">
    <defs>
        <style>
            .prefix__cls-1{fill:#464d66}.prefix__cls-2{fill:#f6a592}.prefix__cls-4{fill:#f0baa4}.prefix__cls-5{fill:none;stroke:#464d66;stroke-linecap:round;stroke-linejoin:round;stroke-width:.475px}.prefix__cls-7{fill:#ff4d43}.prefix__cls-8{fill:linen}
        </style>
    </defs>
    <g id="prefix__Group_11918" data-name="Group 11918" transform="translate(-247.893 -65.35)">
        <g id="prefix__Group_11917" data-name="Group 11917" transform="translate(247.893 65.35)">
            <path id="prefix__Path_8817" d="M328.369 113.161s-17.155-2.51-23.605 10.952-23.424 30.474-12.07 47.607c5.24 7.239 16.064 8.207 23.534 5.9s27.964 6.375 39.861.42 16.8-15.5 8.543-34.348-18.973-31.263-36.263-30.531z" class="prefix__cls-1" data-name="Path 8817" transform="translate(-200.576 -10.363)"/>
            <g id="prefix__Group_11913" data-name="Group 11913" transform="translate(98.098 106.51)">
                <g id="prefix__Group_11909" data-name="Group 11909" transform="translate(0 39.061)">
                    <path id="prefix__Path_8818" d="M304.43 143.484c1.411-5.044-2.006-10.484-7.243-10.568h-.153c-5.158 0-5.108 14.651 2.236 14.651a5.008 5.008 0 0 0 5.16-4.083z" class="prefix__cls-2" data-name="Path 8818" transform="translate(-293.424 -132.914)"/>
                    <path id="prefix__Path_8819" d="M316.778 143.484c-1.411-5.044 2.006-10.484 7.241-10.568h.155c5.158 0 5.106 14.651-2.237 14.651a5.008 5.008 0 0 1-5.159-4.083z" class="prefix__cls-2" data-name="Path 8819" transform="translate(-266.829 -132.914)"/>
                </g>
                <g id="prefix__Group_11910" data-name="Group 11910" transform="translate(13.484 58.76)">
                    <path id="prefix__Path_8820" d="M329.461 159.916c-3.311-6.283-2-15.87-2-15.87l-12.925-1.989-12.923 1.989a38.356 38.356 0 0 1-.088 9.648c4.719 4.794 13.781 10.578 27.936 6.222z" class="prefix__cls-2" data-name="Path 8820" transform="translate(-297.548 -142.057)"/>
                    <path id="prefix__Path_8821" fill="#f6b9a4" d="M331.6 153.68c-14.155 4.357-23.217-1.428-27.931-6.222a16.768 16.768 0 0 1-3.228 8.248c-2.484 2.984 1.575 5.055 6.257 6.38a36.717 36.717 0 0 0 19.966 0c4.682-1.325 8.741-3.4 6.255-6.38a11.682 11.682 0 0 1-1.319-2.026z" data-name="Path 8821" transform="translate(-299.682 -135.821)"/>
                </g>
                <g id="prefix__Group_11911" data-name="Group 11911" transform="translate(3.633)">
                    <path id="prefix__Path_8822" d="M332.664 168.13a9.388 9.388 0 0 1 14.776-7.7 47.8 47.8 0 0 0 1.357-11.738c0-19.363-9.161-27.865-16.782-31.588a23 23 0 0 0-20.121 0c-7.621 3.723-16.784 12.225-16.784 31.588a47.8 47.8 0 0 0 1.359 11.738 9.378 9.378 0 1 1 9.825 15.937 27.891 27.891 0 0 0 3.271 2.286 24.526 24.526 0 0 0 24.779 0 27.906 27.906 0 0 0 3.271-2.286 9.366 9.366 0 0 1-4.951-8.237z" class="prefix__cls-4" data-name="Path 8822" transform="translate(-295.11 -114.785)"/>
                    <path id="prefix__Path_8823" d="M310.517 144.582a9.388 9.388 0 0 0-14.776-7.7c1.939 7.69 5.738 12.675 9.825 15.937a9.367 9.367 0 0 0 4.951-8.237z" class="prefix__cls-2" data-name="Path 8823" transform="translate(-294.381 -91.237)"/>
                    <path id="prefix__Path_8824" d="M327.316 136.88a9.378 9.378 0 1 0-9.825 15.937c4.087-3.262 7.886-8.248 9.825-15.937z" class="prefix__cls-2" data-name="Path 8824" transform="translate(-274.986 -91.237)"/>
                </g>
                <path id="prefix__Path_8825" d="M317.258 139.714a9.019 9.019 0 0 1-6.3 2.273h-.013a9.025 9.025 0 0 1-6.3-2.273" class="prefix__cls-5" data-name="Path 8825" transform="translate(-280.473 -86.002)"/>
                <g id="prefix__Group_11912" data-name="Group 11912" transform="translate(17.918 33.065)">
                    <path id="prefix__Path_8826" d="M302.086 135.345a2.052 2.052 0 1 0 2.053-2.051 2.051 2.051 0 0 0-2.053 2.051z" class="prefix__cls-1" data-name="Path 8826" transform="translate(-301.34 -126.479)"/>
                    <path id="prefix__Path_8827" d="M311.32 135.345a2.053 2.053 0 1 0 2.053-2.051 2.053 2.053 0 0 0-2.053 2.051z" class="prefix__cls-1" data-name="Path 8827" transform="translate(-290.679 -126.479)"/>
                    <path id="prefix__Path_8828" d="M309.577 144.726v-11.432s-8.065 11.432 0 11.432z" class="prefix__cls-2" data-name="Path 8828" transform="translate(-296.83 -126.479)"/>
                    <path id="prefix__Path_8829" d="M301.74 132.548a5.635 5.635 0 0 1 4.85-2.417" class="prefix__cls-5" data-name="Path 8829" transform="translate(-301.74 -130.131)"/>
                    <path id="prefix__Path_8830" d="M316 132.548a5.636 5.636 0 0 0-4.852-2.417" class="prefix__cls-5" data-name="Path 8830" transform="translate(-290.879 -130.131)"/>
                </g>
            </g>
            <path id="prefix__Path_8831" d="M293.466 156.03s19.768-1.743 30.543-23.584c11.938 22.019 30.411 23.584 30.411 23.584s.129-42.429-31.935-42.429-29.019 42.429-29.019 42.429z" class="prefix__cls-1" data-name="Path 8831" transform="translate(-195.367 -9.641)"/>
            <path id="prefix__Path_8832" d="M383.592 276.09c-3.268-35.151 1.659-40.159.3-78.1-2.611-49.186-24.251-46.165-43.285-45.894-18.85-2.631-39.95-8.312-48.643 40.171-6.056 37.485-1.851 44.08-9.452 78.555s-3.626 73.235-3.626 73.235c15.332 17.29 49.352 6.765 49.352 6.765s38.366 14.591 55.725-.664c-.002-.004 2.896-38.915-.371-74.068z" class="prefix__cls-4" data-name="Path 8832" transform="translate(-213.312 32.866)"/>
            <g id="prefix__Group_11914" data-name="Group 11914" transform="translate(29.424 24.705)">
                <path id="prefix__Path_8833" d="M342.309 235.735c-74.564-46.256-62.118-82.383-43.754-153.19-4.734-2.415-7.226-3.411-12.007-5.729-39.445 87.5-35.858 140.041 37.164 202.59 13.036-5.654 18.431-31.119 18.597-43.671z" class="prefix__cls-4" data-name="Path 8833" transform="translate(-261.55 -76.816)"/>
            </g>
            <path id="prefix__Path_8834" d="M279.758 68.921c2.29.121 1.073 10.092 1.073 10.092s2.409-12.895 4.156-13.11c2.758-.343-.213 14.272-.213 14.272s3.637-15.827 6.494-14.774-2.521 16.312-2.521 16.312 5.944-14.04 8.225-12.713-6.084 19.137-6.084 19.137 8.989-4.275 9.978-2.5c1.668 2.995-17.049 12.869-17.049 12.869L272.7 95.217s4.765-26.417 7.058-26.296z" class="prefix__cls-4" data-name="Path 8834" transform="translate(-219.258 -65.35)"/>
            <g id="prefix__Group_11915" data-name="Group 11915" transform="translate(140.58 78.103)">
                <path id="prefix__Path_8835" d="M316.806 209.316c87.746-.45 96.022-37.756 117.384-107.716 5.3.416 7.942.87 13.229 1.394-12.113 95.209-31.512 133.7-126.461 148.847-8.158-11.635-10.573-31.741-4.152-42.525z" class="prefix__cls-4" data-name="Path 8835" transform="translate(-313.141 -101.6)"/>
            </g>
            <path id="prefix__Path_8836" d="M392.793 97.252c-2.017-1.1-6.192 8.041-6.192 8.041s4.688-12.251 3.314-13.347c-2.174-1.734-7.28 12.277-7.28 12.277s5.173-15.392 2.187-15.989-6.377 15.224-6.377 15.224 2.269-15.075-.368-15.138-4.815 19.494-4.815 19.494-5.43-8.342-7.2-7.345c-2.986 1.681 7.806 19.884 7.806 19.884l11.2 3.008s9.74-25.013 7.725-26.109z" class="prefix__cls-4" data-name="Path 8836" transform="translate(-112.067 -38.949)"/>
            <path id="prefix__Path_8837" d="M427.219 403.278L353.7 414.671c.213-31.062 8.538-73.44 13.847-97.65 7.06-32.2-2.392-64.106-7.646-86.544l-51.086 18.689s-20.533 58.067-10 123.852c2.635 16.452 12.787 42.867 20.388 60.941 3.281 7.8 9.2 24.771 39.316 16.489l78.134-23.112z" class="prefix__cls-4" data-name="Path 8837" transform="translate(-192.572 125.297)"/>
            <path id="prefix__Path_8838" d="M260.7 365.761c7.819-66.162 45.273-135.284 45.273-135.284l56.488 14.629c-1.069 23.021-.375 54.064-15.954 83.109-11.714 21.843-36.677 57.444-40.281 92.4l71.662 48.6 2.547 27.341s-48.417-18.062-53.986-19.876c-27.268-8.877-64.378-25.773-68.818-58.649-2.541-18.776.836-33.396 3.069-52.27z" class="prefix__cls-4" data-name="Path 8838" transform="translate(-237.699 125.297)"/>
            <path id="prefix__Path_8839" fill="#637abe" d="M312.652 223.588s56.535 22.657 107.066 4.77c26.673 51.3 2.816 68 9.973 110.944s-16.415 48.223-8.209 76c16.56-6.815 45.187-7.7 45.187-7.7 11.348 16.855 14 34.537 8.239 53.023 0 0-67.315 27.087-97.42 0s-26.359-80.216-26.359-80.216L328.77 422.8l55.152 33.234s-.838 41.917-25.846 59.81c-50.057-14.315-29.677-17.161-91.159-56.294s45.735-235.962 45.735-235.962z" data-name="Path 8839" transform="translate(-247.893 117.344)"/>
            <g id="prefix__Group_11916" data-name="Group 11916" transform="translate(38.894 143.849)">
                <path id="prefix__Path_8840" d="M345.277 224.7c34.613-8.989 54.109-3.182 74.248-10.182-.33-1.573-.571-2.426-.571-2.426l15.817-8.827s3.727-20.914-13.026-41.287a477.25 477.25 0 0 1-51.132 9.394s-1.118 12.115-14.92 12.115-13.66-15.379-13.66-15.379-28.229-18.684-45.179-36c0 0-22.532 12.266-30.909 29.866 6.7 17.6 20 20.393 25.639 34.912l5.632 14.517s-.875 4-2.189 10.816c8.217 4.06 24.81 9.093 50.25 2.481z" class="prefix__cls-7" data-name="Path 8840" transform="translate(-265.945 -132.115)"/>
                <path id="prefix__Path_8841" d="M333 220.736c34.221-8.888 55.572-5.188 75.607-9.094a74.144 74.144 0 0 1 .646-13.733c.58-4.469.944-8.618 1.176-12.5-3.973.853-10.618 1.45-11.462 1.54-9.84 1.058-18.865-1.2-28.6-1.312-15.276-.181-30.644 7.06-45.771 9.112a97.793 97.793 0 0 1-24.519.392 86.019 86.019 0 0 1-13.367-2.657c-.776-.218-4.346-1.194-7.616-2.267-1.308 8.439-2.62 17.794-3.792 27.7 9.469 4.646 28.515 10.399 57.698 2.819z" class="prefix__cls-7" data-name="Path 8841" transform="translate(-255.133 -70.588)"/>
                <path id="prefix__Path_8842" d="M348.854 255.139c33.309-15.284 72.487-5.772 86.824-17.868-2.551-9.622-5.059-17.191-7.351-23.51-4.025.73-9.252 1.258-10 1.353-12.568 1.566-24.624-1.605-37.136-1.351-13.287.271-25.656 5.791-38.508 8.487-15.965 3.35-32.363 4.436-48.432 1.088a99.72 99.72 0 0 1-10.924-2.934c-.573-.19-3.042-.942-5.526-1.8-3.693 10.169-7.916 16.846-10.611 23.426 14.483 8.211 52.355 26.559 81.664 13.109z" class="prefix__cls-7" data-name="Path 8842" transform="translate(-264.508 -37.866)"/>
                <path id="prefix__Path_8843" d="M298.053 212.506a97.792 97.792 0 0 0 24.519-.392c15.127-2.051 30.5-9.293 45.771-9.112 9.732.116 18.757 2.37 28.6 1.312.845-.09 7.489-.687 11.462-1.54 1-16.65-.754-27.807-1.722-32.411-20.138 7-39.635 1.194-74.248 10.182-25.441 6.608-42.033 1.575-50.25-2.478-1.372 7.112-3.227 17.325-5.113 29.515 3.271 1.073 6.841 2.049 7.616 2.267a86.016 86.016 0 0 0 13.365 2.657z" class="prefix__cls-8" data-name="Path 8843" transform="translate(-253.101 -87.956)"/>
                <path id="prefix__Path_8844" d="M288.565 242c16.069 3.348 32.467 2.262 48.432-1.088 12.852-2.7 25.221-8.215 38.508-8.487 12.511-.254 24.568 2.917 37.136 1.351.747-.095 5.974-.623 10-1.353-5.455-15.045-9.68-23.032-10.34-34.841-20.035 3.906-41.387.207-75.607 9.094-29.188 7.58-48.234 1.827-57.694-2.825-.213 1.808-.429 3.615-.631 5.46a118.494 118.494 0 0 1-6.253 27.957c2.484.855 4.953 1.607 5.526 1.8A99.712 99.712 0 0 0 288.565 242z" class="prefix__cls-8" data-name="Path 8844" transform="translate(-258.822 -56.529)"/>
                <path id="prefix__Path_8845" d="M269.854 246.81c54.221 35.432 90.989 25.969 114.979 8.521 21.356-15.532 39.76-6.171 50.808-13.539a8.49 8.49 0 0 0 3.458-9.012c-.681-2.863-1.362-5.557-2.04-8.114-14.336 12.1-53.514 2.583-86.824 17.868-29.308 13.451-67.181-4.9-81.664-13.106a34.955 34.955 0 0 0-2.517 9.127 8.648 8.648 0 0 0 3.8 8.255z" class="prefix__cls-8" data-name="Path 8845" transform="translate(-265.89 -25.261)"/>
            </g>
            <path id="prefix__Path_8846" d="M311.029 366.844a23.283 23.283 0 0 1 10.023 13.444c2.465 9.213 1.663 15.03 13.233 16.8 3.915-9.385 2.338-23.592.8-32.654s1.775-17.885-2.008-21.474-18.232-1.9-18.232-1.9z" class="prefix__cls-8" data-name="Path 8846" transform="translate(-175 252.512)"/>
            <path id="prefix__Path_8847" d="M289.17 180.588s20.656 7.634 37.7 3.167 42.164-8.241 42.164-8.241-7.513-16.008-8-22.685l-14.734 2.223s.612 16.853-19.091 15c-16.034-2.417-13.867-19.221-13.867-19.221a70.673 70.673 0 0 0-6.946-4.843s-7.218 26.561-17.226 34.6z" class="prefix__cls-8" data-name="Path 8847" transform="translate(-200.237 27.749)"/>
            <path id="prefix__Path_8848" d="M267.4 161.282s11.755-18.512 27.781-27.475" class="prefix__cls-5" data-name="Path 8848" transform="translate(-225.375 13.687)"/>
            <path id="prefix__Path_8849" d="M281.978 191.583s21.528-9.254 32.053-44.138" class="prefix__cls-5" data-name="Path 8849" transform="translate(-208.54 29.433)"/>
            <path id="prefix__Path_8850" d="M322.751 150.419s6.27 31.017 27.085 39.042" class="prefix__cls-5" data-name="Path 8850" transform="translate(-161.466 32.867)"/>
            <path id="prefix__Path_8851" d="M337.513 147.445s9.915 11.346 11.921 36.925" class="prefix__cls-5" data-name="Path 8851" transform="translate(-144.423 29.433)"/>
            <path id="prefix__Path_8852" d="M300.312 148.684s-2.221 18.387 16.683 18.387c16.627 0 16.532-13.266 16.532-13.266" class="prefix__cls-5" data-name="Path 8852" transform="translate(-187.466 30.864)"/>
            <path id="prefix__Path_8853" d="M266.9 233.293s2.493 5.6 20.819 14.319 40.926 15.836 58.72 12.455 27.757-10.144 38.077-16.9 19.751-8.541 33.451-7.83 16.366-3.2 17.615-7.3" class="prefix__cls-5" data-name="Path 8853" transform="translate(-225.948 122.481)"/>
            <path id="prefix__Path_8854" d="M300.378 347.041s-3.051-21.983-6.927-32.967c-4.3-12.184 1.433-37.028 1.433-37.028l5.494-30.125" class="prefix__cls-5" data-name="Path 8854" transform="translate(-197.141 144.284)"/>
            <path id="prefix__Path_8855" d="M291.716 246.126s-12.483 38.026 5.225 41.608" class="prefix__cls-5" data-name="Path 8855" transform="translate(-202.231 143.365)"/>
            <path id="prefix__Path_8856" d="M298.393 242.376s-9.316 41.328-35.356 32.967" class="prefix__cls-5" data-name="Path 8856" transform="translate(-230.409 139.035)"/>
            <path id="prefix__Path_8857" d="M313.651 244.261s-3.48 47.538 30.271 37.028" class="prefix__cls-5" data-name="Path 8857" transform="translate(-172.089 141.211)"/>
            <path id="prefix__Path_8858" d="M329.394 237.5s3.684 30.34 3.753 43.718-.545 37.982 0 50.406-5.186 40.135-8.532 56.856-2.525 24.368 8.532 19.589 39.247-8.6 49.759-7.884" class="prefix__cls-5" data-name="Path 8858" transform="translate(-161.314 133.402)"/>
            <path id="prefix__Path_8859" d="M309.007 285.064s-12.423 32.728-21.024 50.166-10.749 19.113-5.255 22.935 60.678 40.372 60.678 40.372" class="prefix__cls-5" data-name="Path 8859" transform="translate(-211.161 188.32)"/>
            <path id="prefix__Path_8860" d="M302.6 327a49.682 49.682 0 0 0 15.851 17.441" class="prefix__cls-5" data-name="Path 8860" transform="translate(-184.729 236.742)"/>
            <path id="prefix__Path_8861" d="M293.83 379.879a102.42 102.42 0 0 0 23.239-43.479" class="prefix__cls-5" data-name="Path 8861" transform="translate(-194.857 247.59)"/>
            <path id="prefix__Path_8862" d="M344.422 314.114s10.031 15.049 7.166 43.718" class="prefix__cls-5" data-name="Path 8862" transform="translate(-136.446 221.86)"/>
            <path id="prefix__Path_8863" d="M273.57 320.573s9.079.715 23.65-5.018" class="prefix__cls-5" data-name="Path 8863" transform="translate(-218.248 223.523)"/>
            <path id="prefix__Path_8864" d="M277.845 324.513a19.612 19.612 0 0 0 13.007-7.2" class="prefix__cls-5" data-name="Path 8864" transform="translate(-213.312 225.555)"/>
            <path id="prefix__Path_8865" d="M331.453 312.562s.7 9.316-8.491 20.783" class="prefix__cls-5" data-name="Path 8865" transform="translate(-161.223 220.068)"/>
            <path id="prefix__Path_8866" d="M329.4 314.114a35.452 35.452 0 0 1-1.756 14.1" class="prefix__cls-5" data-name="Path 8866" transform="translate(-155.814 221.86)"/>
            <path id="prefix__Path_8867" d="M347.5 196.8s-6.69 17.678-21.261 27.712" class="prefix__cls-5" data-name="Path 8867" transform="translate(-157.44 86.421)"/>
            <path id="prefix__Path_8868" d="M276.686 202.238s-1.036 14.1 11.426 28.905" class="prefix__cls-5" data-name="Path 8868" transform="translate(-214.674 92.694)"/>
            <path id="prefix__Path_8869" d="M276.194 208.78s.558 12.182 4.858 19.826" class="prefix__cls-5" data-name="Path 8869" transform="translate(-215.218 100.247)"/>
            <path id="prefix__Path_8870" d="M311.029 366.633l3.817-25.786h2.884l-3.351 25.786" class="prefix__cls-5" data-name="Path 8870" transform="translate(-174.999 252.724)"/>
            <path id="prefix__Path_8871" d="M312.311 353.759s5.188 4.053 6.655 9.512 3.064 17.945 12.234 18.408" class="prefix__cls-5" data-name="Path 8871" transform="translate(-173.52 267.632)"/>
            <path id="prefix__Path_8872" d="M330.162 395.214s2.751-11.193 1.331-21.716-2.549-14.968-1.409-21.313-.093-10.889-9.249-11.522l-5.636.041" class="prefix__cls-5" data-name="Path 8872" transform="translate(-170.185 252.512)"/>
            <path id="prefix__Path_8873" d="M320.972 342.495s-1.586 9.334 0 16.023a85.062 85.062 0 0 1 1.937 32.93" class="prefix__cls-5" data-name="Path 8873" transform="translate(-164.334 254.627)"/>
            <path id="prefix__Line_31" d="M0 3.966L3.516 0" class="prefix__cls-5" data-name="Line 31" transform="translate(142.732 620.45)"/>
            <path id="prefix__Line_32" d="M0 3.053L3.222 0" class="prefix__cls-5" data-name="Line 32" transform="translate(145.014 624.416)"/>
            <path id="prefix__Path_8874" d="M361.416 338.739a23.276 23.276 0 0 1 13.787 9.54c5.276 7.944 6.375 13.714 17.906 11.7.713-10.143-5.318-23.105-9.663-31.2s-4.027-17.516-8.76-19.71-17.885 4.014-17.885 4.014z" class="prefix__cls-8" data-name="Path 8874" transform="translate(-122.154 215.492)"/>
            <path id="prefix__Path_8875" d="M361.414 336.829l-4.614-25.656 2.733-.92 5.055 25.507" class="prefix__cls-5" data-name="Path 8875" transform="translate(-122.154 217.402)"/>
            <path id="prefix__Path_8876" d="M360.458 323.073s6.209 2.187 9.342 6.89 8.633 16.028 17.471 13.541" class="prefix__cls-5" data-name="Path 8876" transform="translate(-117.932 232.203)"/>
            <path id="prefix__Path_8877" d="M390.6 357.987s-.965-11.486-5.669-21-7.194-13.371-8.138-19.746-3.564-10.29-12.445-7.967l-5.328 1.836" class="prefix__cls-5" data-name="Path 8877" transform="translate(-119.591 215.485)"/>
            <path id="prefix__Path_8878" d="M364.713 309.754s1.476 9.351 5.115 15.187a85.1 85.1 0 0 1 12.346 30.588" class="prefix__cls-5" data-name="Path 8878" transform="translate(-113.019 216.826)"/>
            <path id="prefix__Line_33" d="M0 4.881L2.066 0" class="prefix__cls-5" data-name="Line 33" transform="translate(247.227 552.005)"/>
            <path id="prefix__Line_34" d="M0 3.922L2.079 0" class="prefix__cls-5" data-name="Line 34" transform="translate(250.364 555.129)"/>
            <path id="prefix__Path_8879" d="M307.408 121.315s5.576 26.186 33.057 25.809" class="prefix__cls-5" data-name="Path 8879" transform="translate(-179.18 -.735)"/>
            <path id="prefix__Path_8880" d="M303 122.527s-23.036 18.191-12.307 36.08" class="prefix__cls-5" data-name="Path 8880" transform="translate(-201.764 .664)"/>
            <path id="prefix__Path_8881" d="M326.591 128.57s13.905 20.641-4.876 31.879" class="prefix__cls-5" data-name="Path 8881" transform="translate(-162.662 7.641)"/>
        </g>
        <path id="prefix__Path_8882" d="M286.7 175.583l-3.9 22.517-4.774 34.91s-2.609 19.195-5.453 26.794" class="prefix__cls-5" data-name="Path 8882" transform="translate(28.496 127.269)"/>
        <path id="prefix__Path_8883" d="M337.414 171.332s2.67 16.635 1.614 27.975" class="prefix__cls-5" data-name="Path 8883" transform="translate(103.356 122.361)"/>
        <path id="prefix__Path_8884" d="M337.355 199.437s1.818 16.015 8.437 26.727" class="prefix__cls-5" data-name="Path 8884" transform="translate(103.288 154.81)"/>
        <path id="prefix__Path_8885" d="M332.54 244.4s13.862 0 18.811-1.39 16.235-3.077 9.614-17.025" class="prefix__cls-5" data-name="Path 8885" transform="translate(97.729 185.459)"/>
        <path id="prefix__Path_8886" d="M268.1 227.631s-8.166 10.525 6.7 18.8" class="prefix__cls-5" data-name="Path 8886" transform="translate(20.747 187.361)"/>
        <path id="prefix__Line_35" d="M0 1.29L11.326 0" class="prefix__cls-5" data-name="Line 35" transform="translate(395.62 246.609)"/>
        <path id="prefix__Line_36" d="M0 0L5.001 3.608" class="prefix__cls-5" data-name="Line 36" transform="translate(354.816 239.664)"/>
    </g>
</svg>
