<svg xmlns="http://www.w3.org/2000/svg" width="22.221" height="22.221" viewBox="0 0 22.221 22.221"><defs><style>.a{fill:#33a0ff;}</style></defs><path class="a" d="M11.11,0A11.11,11.11,0,1,0,22.221,11.11,11.111,11.111,0,0,0,11.11,0Zm2.313,17.219q-.858.339-1.369.515a3.61,3.61,0,0,1-1.187.178,2.366,2.366,0,0,1-1.615-.507,1.636,1.636,0,0,1-.575-1.286,4.67,4.67,0,0,1,.042-.62c.029-.211.075-.448.138-.714l.716-2.528c.063-.243.118-.473.161-.688a3.049,3.049,0,0,0,.064-.6.917.917,0,0,0-.2-.674,1.133,1.133,0,0,0-.765-.189,2.007,2.007,0,0,0-.569.085c-.193.059-.36.113-.5.166l.189-.779q.7-.286,1.345-.49a3.974,3.974,0,0,1,1.213-.205,2.322,2.322,0,0,1,1.591.5,1.656,1.656,0,0,1,.559,1.294q0,.165-.039.58a3.883,3.883,0,0,1-.143.763l-.712,2.521c-.058.2-.11.434-.157.692a3.66,3.66,0,0,0-.069.589.846.846,0,0,0,.225.685,1.258,1.258,0,0,0,.778.182,2.256,2.256,0,0,0,.589-.091,3.348,3.348,0,0,0,.476-.16ZM13.3,6.987a1.7,1.7,0,0,1-1.2.463,1.717,1.717,0,0,1-1.2-.463,1.477,1.477,0,0,1-.5-1.122,1.492,1.492,0,0,1,.5-1.125,1.7,1.7,0,0,1,1.2-.467,1.686,1.686,0,0,1,1.2.467,1.515,1.515,0,0,1,0,2.247Z"/></svg>