<svg xmlns="http://www.w3.org/2000/svg" width="22.22" height="22.22" viewBox="0 0 22.22 22.22"><defs><style>.a{fill:#33a0ff;}.b{fill:#fff;}</style></defs><g transform="translate(12653.676 3344.27)"><ellipse class="a" cx="11.11" cy="11.11" rx="11.11" ry="11.11" transform="translate(-12653.676 -3344.27)"/><path class="b" d="M79.146,2.275a.222.222,0,0,0-.164-.064h-1.22a2.469,2.469,0,0,0-.456-1.027h1.662A.219.219,0,0,0,79.2.956V.228A.219.219,0,0,0,78.968,0H73.034a.22.22,0,0,0-.228.228v.949a.231.231,0,0,0,.228.228h1.034q1.5,0,1.911.806H73.034a.22.22,0,0,0-.228.228v.728a.22.22,0,0,0,.228.228H76.08a1.394,1.394,0,0,1-.731.892,3.219,3.219,0,0,1-1.516.307h-.8a.231.231,0,0,0-.228.228v.906a.213.213,0,0,0,.064.157q1.369,1.455,3.552,4.072a.21.21,0,0,0,.178.086h1.391a.207.207,0,0,0,.207-.128.2.2,0,0,0-.029-.243Q76.087,7.118,74.9,5.848a3.617,3.617,0,0,0,1.969-.784,2.666,2.666,0,0,0,.92-1.669h1.2a.22.22,0,0,0,.228-.228V2.439A.222.222,0,0,0,79.146,2.275Z" transform="translate(-12718.102 -3337.311)"/></g></svg>