<svg width="499" height="407" viewBox="0 0 499 407" fill="none" xmlns="http://www.w3.org/2000/svg">
<g clip-path="url(#clip0)">
<path d="M496.4 145.6H411V203.8H496.4V145.6Z" fill="#9EC0FF"/>
<path d="M487.1 216.6L481.3 212.6L475.5 216.6V195.6H487.1V216.6Z" fill="#5181DB"/>
<path d="M481.301 203.2C485.995 203.2 489.801 199.395 489.801 194.7C489.801 190.006 485.995 186.2 481.301 186.2C476.606 186.2 472.801 190.006 472.801 194.7C472.801 199.395 476.606 203.2 481.301 203.2Z" fill="#5181DB"/>
<path d="M489.654 194.775C490.406 190.141 487.259 185.775 482.625 185.023C477.992 184.271 473.625 187.418 472.873 192.052C472.121 196.685 475.268 201.052 479.902 201.804C484.536 202.556 488.902 199.409 489.654 194.775Z" fill="white"/>
<path d="M487.301 193.4C487.301 196.7 484.601 199.4 481.301 199.4C478.001 199.4 475.301 196.7 475.301 193.4C475.301 190.1 478.001 187.4 481.301 187.4C484.601 187.4 487.301 190.1 487.301 193.4Z" stroke="#9EC0FF" stroke-width="0.7631" stroke-miterlimit="10"/>
<path d="M417.9 165.7H487.3" stroke="#89A4D9" stroke-miterlimit="10"/>
<path d="M436.699 160.3H468.499" stroke="#89A4D9" stroke-miterlimit="10"/>
<path d="M417.9 171.1H487.3" stroke="#89A4D9" stroke-miterlimit="10"/>
<path d="M417.9 176.5H487.3" stroke="#89A4D9" stroke-miterlimit="10"/>
<path d="M417.9 181.9H487.3" stroke="#89A4D9" stroke-miterlimit="10"/>
<path d="M437.699 187.2H467.499" stroke="#89A4D9" stroke-miterlimit="10"/>
<path d="M459.302 238.9H445.502V305.5H459.302V238.9Z" fill="#2E6ADB"/>
<path d="M442.501 251.2H428.701V305.5H442.501V251.2Z" fill="#9EC0FF"/>
<path d="M425.601 243.9H411.801V305.5H425.601V243.9Z" fill="#89A4D9"/>
<path d="M408.802 271.5H395.002V305.5H408.802V271.5Z" fill="#5181DB"/>
<path d="M392.001 287.4H378.201V305.5H392.001V287.4Z" fill="white"/>
<path d="M466.802 309H375.102V236.7" stroke="white" stroke-width="1.1497" stroke-miterlimit="10"/>
<path d="M451.801 41.7002C426.101 41.7002 405.301 62.5002 405.301 88.2002C405.301 113.9 426.101 134.7 451.801 134.7C477.501 134.7 498.301 113.9 498.301 88.2002C498.301 62.5002 477.501 41.7002 451.801 41.7002ZM451.801 126.9C430.401 126.9 413.001 109.5 413.001 88.1002C413.001 66.7002 430.401 49.3002 451.801 49.3002C473.201 49.3002 490.601 66.7002 490.601 88.1002C490.601 109.6 473.201 126.9 451.801 126.9Z" fill="#9EC0FF"/>
<path d="M453.4 54.3004C453.4 55.3004 452.6 56.2004 451.5 56.2004C450.4 56.2004 449.6 55.4004 449.6 54.3004C449.6 53.2004 450.4 52.4004 451.5 52.4004C452.6 52.4004 453.4 53.2004 453.4 54.3004Z" fill="#9EC0FF"/>
<path d="M453.4 122.1C453.4 123.1 452.6 124 451.5 124C450.4 124 449.6 123.2 449.6 122.1C449.6 121.1 450.4 120.2 451.5 120.2C452.6 120.2 453.4 121.1 453.4 122.1Z" fill="#9EC0FF"/>
<path d="M436.301 58.0004C436.801 58.9004 436.501 60.1004 435.601 60.6004C434.701 61.1004 433.501 60.8004 433.001 59.9004C432.501 59.0004 432.801 57.8004 433.701 57.3004C434.601 56.7004 435.801 57.1004 436.301 58.0004Z" fill="#9EC0FF"/>
<path d="M470.199 116.701C470.699 117.601 470.399 118.801 469.499 119.301C468.599 119.801 467.399 119.501 466.899 118.601C466.399 117.701 466.699 116.501 467.599 116.001C468.499 115.501 469.699 115.801 470.199 116.701Z" fill="#9EC0FF"/>
<path d="M423.3 69.7003C424.2 70.2003 424.5 71.4003 424 72.3003C423.5 73.2003 422.3 73.5003 421.4 73.0003C420.5 72.5003 420.2 71.3003 420.7 70.4003C421.2 69.5003 422.4 69.2003 423.3 69.7003Z" fill="#9EC0FF"/>
<path d="M481.999 103.6C482.899 104.1 483.199 105.3 482.699 106.2C482.199 107.1 480.999 107.4 480.099 106.9C479.199 106.4 478.899 105.2 479.399 104.3C479.999 103.4 481.099 103.1 481.999 103.6Z" fill="#9EC0FF"/>
<path d="M417.9 86.4004C418.9 86.4004 419.8 87.2004 419.8 88.3004C419.8 89.3004 419 90.2004 417.9 90.2004C416.8 90.2004 416 89.4004 416 88.3004C416 87.3004 416.9 86.4004 417.9 86.4004Z" fill="#9EC0FF"/>
<path d="M485.701 86.4004C486.701 86.4004 487.601 87.2004 487.601 88.3004C487.601 89.3004 486.801 90.2004 485.701 90.2004C484.701 90.2004 483.801 89.4004 483.801 88.3004C483.801 87.3004 484.701 86.4004 485.701 86.4004Z" fill="#9EC0FF"/>
<path d="M421.599 103.6C422.499 103.1 423.699 103.4 424.199 104.3C424.699 105.2 424.399 106.4 423.499 106.9C422.599 107.4 421.399 107.1 420.899 106.2C420.399 105.3 420.699 104.1 421.599 103.6Z" fill="#9EC0FF"/>
<path d="M480.3 69.7003C481.2 69.2003 482.4 69.5003 482.9 70.4003C483.4 71.3003 483.1 72.5003 482.2 73.0003C481.3 73.5003 480.1 73.2003 479.6 72.3003C479.1 71.3003 479.4 70.2003 480.3 69.7003Z" fill="#9EC0FF"/>
<path d="M433.399 116.601C433.899 115.701 435.099 115.401 435.999 115.901C436.899 116.401 437.199 117.601 436.699 118.501C436.199 119.401 434.999 119.701 434.099 119.201C433.199 118.601 432.899 117.501 433.399 116.601Z" fill="#9EC0FF"/>
<path d="M467.299 57.8002C467.799 56.9002 468.999 56.6002 469.899 57.1002C470.799 57.6002 471.099 58.8002 470.599 59.7002C470.099 60.6002 468.899 60.9002 467.999 60.4002C467.099 59.9002 466.799 58.7002 467.299 57.8002Z" fill="#9EC0FF"/>
<path d="M451.802 58.8003V88.2003L434.602 99.2003" stroke="white" stroke-miterlimit="10"/>
<path d="M451.802 91.4C453.569 91.4 455.002 89.9673 455.002 88.2C455.002 86.4327 453.569 85 451.802 85C450.034 85 448.602 86.4327 448.602 88.2C448.602 89.9673 450.034 91.4 451.802 91.4Z" fill="#9EC0FF"/>
<path d="M423.101 83.1001H345.801V176.6H423.101V83.1001Z" fill="#F0F7FF"/>
<path d="M356.602 95.1001H380.002" stroke="#B8D0FF" stroke-miterlimit="10"/>
<path d="M356.602 101.7H412.302" stroke="#B8D0FF" stroke-miterlimit="10"/>
<path d="M356.602 108.4H412.302" stroke="#B8D0FF" stroke-miterlimit="10"/>
<path d="M356.602 115H412.302" stroke="#B8D0FF" stroke-miterlimit="10"/>
<path d="M356.602 121.7H412.302" stroke="#B8D0FF" stroke-miterlimit="10"/>
<path d="M356.602 128.4H412.302" stroke="#B8D0FF" stroke-miterlimit="10"/>
<path d="M356.602 135H412.302" stroke="#B8D0FF" stroke-miterlimit="10"/>
<path d="M356.602 141.7H412.302" stroke="#B8D0FF" stroke-miterlimit="10"/>
<path d="M356.602 148.3H412.302" stroke="#B8D0FF" stroke-miterlimit="10"/>
<path d="M356.602 155H412.302" stroke="#B8D0FF" stroke-miterlimit="10"/>
<path d="M356.602 161.6H380.002" stroke="#B8D0FF" stroke-miterlimit="10"/>
<path d="M405.502 78.5001V101.5C405.502 104.4 403.202 106.7 400.302 106.7C397.402 106.7 395.102 104.4 395.102 101.5V77.5001C395.102 73.1001 398.702 69.6001 403.002 69.6001C407.402 69.6001 410.902 73.2001 410.902 77.5001V83.0001" stroke="#2E6ADB" stroke-width="2" stroke-miterlimit="10"/>
<path d="M145.801 55.9999L168.301 58.1999C169.701 43.5999 163.101 28.6999 149.801 20.3999L137.801 39.4999C143.501 43.1999 146.401 49.6999 145.801 55.9999Z" fill="#9EC0FF"/>
<path d="M143.2 63.6C138.1 71.8 127.3 74.2 119.2 69.1C117.3 67.9 115.7 66.3 114.4 64.6L96.0996 77.9C98.9996 81.9 102.7 85.4 107.1 88.2C125.8 100 150.5 94.3 162.2 75.6C165.6 70.2 167.5 64.3 168.1 58.3L145.8 56C145.5 58.6 144.7 61.2 143.2 63.6Z" fill="#2E6ADB"/>
<path d="M96.0996 77.9L114.3 64.6C112.8 62.5 111.7 60 111.3 57.5L89.0996 61.6C90.1996 67.4 92.5996 73 96.0996 77.9Z" fill="#5181DB"/>
<path d="M113.7 45C117.5 38.9 124.5 36 131.1 37.1L134.6 14.8C119.3 12.4 103.3 19.1 94.6004 33C89.0004 41.8 87.4004 52 89.1004 61.5L111.3 57.4C110.6 53.3 111.3 48.9 113.7 45Z" fill="#89A4D9"/>
<path d="M131.1 37.0998C133.4 37.4998 135.6 38.2998 137.7 39.5998L149.7 20.4998C144.9 17.4998 139.8 15.6998 134.6 14.7998L131.1 37.0998Z" fill="white"/>
<path d="M118.101 205.1H31.8008V319.1H118.101V205.1Z" fill="#F0F7FF"/>
<path d="M46.1008 306.9C42.5008 298.8 37.6008 291.1 31.8008 284.1V319.1H106.001C91.0008 306.9 70.0008 300.8 46.1008 306.9Z" fill="#B8D0FF"/>
<path d="M39.1016 269.8H110.802" stroke="#B8D0FF" stroke-miterlimit="10"/>
<path d="M39.1016 276H110.802" stroke="#B8D0FF" stroke-miterlimit="10"/>
<path d="M39.1016 282.2H110.802" stroke="#B8D0FF" stroke-miterlimit="10"/>
<path d="M39.1016 288.4H110.802" stroke="#B8D0FF" stroke-miterlimit="10"/>
<path d="M39.1016 294.5H110.802" stroke="#B8D0FF" stroke-miterlimit="10"/>
<path d="M39.1016 300.7H110.802" stroke="#B8D0FF" stroke-miterlimit="10"/>
<path d="M54.3016 218H39.1016V226.6H54.3016V218Z" fill="#B8D0FF"/>
<path d="M73.1023 218H57.9023V226.6H73.1023V218Z" fill="#B8D0FF"/>
<path d="M92.0008 218H76.8008V226.6H92.0008V218Z" fill="#B8D0FF"/>
<path d="M110.802 218H95.6016V226.6H110.802V218Z" fill="#B8D0FF"/>
<path d="M54.3016 230H39.1016V238.6H54.3016V230Z" fill="#B8D0FF"/>
<path d="M73.1023 230H57.9023V238.6H73.1023V230Z" fill="#B8D0FF"/>
<path d="M92.0008 230H76.8008V238.6H92.0008V230Z" fill="#B8D0FF"/>
<path d="M110.802 230H95.6016V238.6H110.802V230Z" fill="#B8D0FF"/>
<path d="M54.3016 241.9H39.1016V250.5H54.3016V241.9Z" fill="#B8D0FF"/>
<path d="M73.1023 241.9H57.9023V250.5H73.1023V241.9Z" fill="#B8D0FF"/>
<path d="M92.0008 241.9H76.8008V250.5H92.0008V241.9Z" fill="#B8D0FF"/>
<path d="M110.802 241.9H95.6016V250.5H110.802V241.9Z" fill="#B8D0FF"/>
<path d="M54.3016 253.8H39.1016V262.4H54.3016V253.8Z" fill="#B8D0FF"/>
<path d="M73.1023 253.8H57.9023V262.4H73.1023V253.8Z" fill="#B8D0FF"/>
<path d="M92.0008 253.8H76.8008V262.4H92.0008V253.8Z" fill="#B8D0FF"/>
<path d="M110.802 253.8H95.6016V262.4H110.802V253.8Z" fill="#B8D0FF"/>
<path d="M177 161.3H53.5996V166H177V161.3Z" fill="#89A4D9"/>
<path d="M131.1 166H42.0004L29.4004 106.7H118.5L131.1 166Z" fill="white"/>
<path d="M115.6 108L127.9 166" stroke="#89A4D9" stroke-width="0.8758" stroke-miterlimit="10"/>
<path d="M88.0997 135.7C89.0997 140.4 85.5997 144.2 80.1997 144.2C74.8997 144.2 69.6997 140.4 68.6997 135.7C67.6997 131 71.1997 127.2 76.5997 127.2C81.9997 127.2 87.0997 131 88.0997 135.7Z" stroke="#89A4D9" stroke-width="0.759" stroke-miterlimit="10"/>
<path d="M65.3 60.1001H12.8C7.1 60.1001 2.5 64.7001 2.5 70.4001V93.8001C2.5 99.5001 7.1 104.1 12.8 104.1H26.9C29.8 104.1 32.3 106 33 108.8L39 131.4L45 108.8C45.7 106 48.3 104.1 51.1 104.1H65.2C70.9 104.1 75.5 99.5001 75.5 93.8001V70.3001C75.6 64.7001 71 60.1001 65.3 60.1001Z" fill="#9EC0FF"/>
<path d="M59.0008 71H21.8008V95.7H59.0008V71Z" stroke="white" stroke-width="0.8758" stroke-miterlimit="10"/>
<path d="M24.4004 73.6001L40.4004 85.7001L56.3004 73.6001" stroke="white" stroke-width="0.8758" stroke-miterlimit="10"/>
<path d="M43.5 83.3003L56.3 93.1003" stroke="white" stroke-width="0.8758" stroke-miterlimit="10"/>
<path d="M24.4004 93.0999L37.3004 83.3999" stroke="white" stroke-width="0.8758" stroke-miterlimit="10"/>
<path d="M29.8996 70.9999C29.8996 74.8999 26.6996 78.0999 22.7996 78.0999C18.8996 78.0999 15.5996 74.9999 15.5996 70.9999C15.5996 67.0999 18.7996 63.8999 22.6996 63.8999C26.5996 63.8999 29.8996 67.0999 29.8996 70.9999Z" fill="#2E6ADB"/>
<path d="M18.4004 70.2998L21.8004 73.1998L27.0004 68.7998" stroke="white" stroke-width="0.75" stroke-miterlimit="10" stroke-linecap="round" stroke-linejoin="round"/>
<path d="M333.201 33.6001L338.501 63.4001H388.001L382.601 33.6001H333.201Z" fill="#5181DB"/>
<path d="M387.401 24.1001H338.701V63.4001H387.401V24.1001Z" fill="white"/>
<path d="M369.201 29.3003L363.901 36.0003H343.401L338.701 63.4003H388.201L394.001 29.3003H369.201Z" fill="#9EC0FF"/>
<path d="M19.1531 184.508C23.5269 180.134 23.5269 173.043 19.1531 168.669C14.7793 164.295 7.68788 164.295 3.31405 168.669C-1.05978 173.043 -1.05977 180.134 3.31406 184.508C7.68789 188.882 14.7793 188.882 19.1531 184.508Z" fill="#2E6ADB"/>
<path d="M423.948 27.6577C425.363 21.636 421.628 15.6077 415.606 14.193C409.584 12.7784 403.556 16.5131 402.142 22.5348C400.727 28.5564 404.462 34.5848 410.483 35.9994C416.505 37.4141 422.533 33.6793 423.948 27.6577Z" fill="#2E6ADB"/>
<path d="M496.678 248.809C498.106 242.79 494.385 236.753 488.367 235.325C482.348 233.897 476.311 237.618 474.883 243.637C473.455 249.655 477.176 255.692 483.194 257.12C489.213 258.549 495.25 254.827 496.678 248.809Z" fill="#2E6ADB"/>
<path d="M158.425 124.389C162.798 120.015 162.798 112.924 158.425 108.55C154.051 104.176 146.959 104.176 142.586 108.55C138.212 112.924 138.212 120.015 142.586 124.389C146.959 128.763 154.051 128.763 158.425 124.389Z" fill="#2E6ADB"/>
<path d="M258.095 404.363C262.933 400.51 263.731 393.463 259.878 388.625C256.024 383.787 248.978 382.988 244.14 386.842C239.301 390.696 238.503 397.742 242.357 402.58C246.21 407.419 253.256 408.217 258.095 404.363Z" fill="#2E6ADB"/>
<path d="M249.701 137.3C287.477 137.3 318.101 106.676 318.101 68.9C318.101 31.1237 287.477 0.5 249.701 0.5C211.924 0.5 181.301 31.1237 181.301 68.9C181.301 106.676 211.924 137.3 249.701 137.3Z" stroke="white" stroke-miterlimit="10"/>
<path d="M292.068 111.225C315.46 87.8327 315.46 49.9065 292.068 26.5143C268.676 3.12216 230.749 3.12217 207.357 26.5143C183.965 49.9065 183.965 87.8327 207.357 111.225C230.749 134.617 268.676 134.617 292.068 111.225Z" stroke="white" stroke-miterlimit="10"/>
<path d="M249.601 221.2L134.701 244.3L249.601 316.6L364.601 244.3L249.601 221.2Z" fill="#0C55D2"/>
<path d="M306.202 223.6L302.102 215.1L324.202 117.1L266.802 99.9004H249.602H232.402L175.002 117.1L197.102 215.1L193.002 223.6L170.102 236.1L223.402 274.1C231.302 278.8 241.502 274.7 244.002 265.8L249.602 245.2L255.202 265.8C257.602 274.7 267.902 278.8 275.802 274.1L329.102 236.1L306.202 223.6Z" fill="#2F7BFF"/>
<path d="M232.5 102.2H266.8L249.6 185L232.5 102.2Z" fill="#DEDEDE"/>
<path d="M232.9 104.1L255.7 183.3L245.4 190.3L232.9 104.1Z" fill="#ABABAB"/>
<path d="M293.101 129.9C293.101 129.9 282.401 110.7 266.801 102.2L249.601 185L232.501 102.2C216.901 110.8 206.201 129.9 206.201 129.9L221.701 138.9L206.201 138.6C206.201 138.6 220.001 169.8 253.301 199.2C261.701 189.6 282.701 164.5 293.101 138.6L277.601 138.9L293.101 129.9Z" fill="#0C55D2"/>
<path d="M233.801 95.7002H265.401L249.601 110.7L233.801 95.7002Z" fill="white"/>
<path d="M266.802 68.5002C266.802 68.5002 268.802 61.2002 270.202 54.8002C271.602 48.4002 268.502 45.4002 266.102 44.3002C264.002 32.9002 256.202 28.2002 248.502 28.2002C247.802 28.2002 247.502 29.1002 248.102 29.5002C251.002 31.4002 252.202 34.1002 252.202 34.1002C252.202 34.1002 242.302 31.8002 232.502 37.5002C222.702 43.2002 224.502 47.4002 229.102 50.1002C229.102 50.1002 229.502 59.2002 232.002 68.3002L266.802 68.5002Z" fill="black"/>
<path d="M249.602 185C252.302 198.5 258.002 213.1 258.002 213.1L250.302 242.8" stroke="#141D30" stroke-width="0.7631" stroke-miterlimit="10"/>
<path d="M249.702 216C251.414 216 252.802 214.612 252.802 212.9C252.802 211.188 251.414 209.8 249.702 209.8C247.989 209.8 246.602 211.188 246.602 212.9C246.602 214.612 247.989 216 249.702 216Z" fill="#DEDEDE"/>
<path d="M246.501 241.1C246.501 242.8 245.101 244.2 243.401 244.2C241.701 244.2 240.301 242.8 240.301 241.1C240.301 239.4 241.701 238 243.401 238C245.101 238 246.501 239.4 246.501 241.1Z" fill="#DEDEDE"/>
<path d="M236.301 194.9L251.401 208.2" stroke="#141D30" stroke-width="0.7631" stroke-miterlimit="10"/>
<path d="M248.1 217.7L237.4 224.7" stroke="#141D30" stroke-width="0.7631" stroke-miterlimit="10"/>
<path d="M230.634 232.404L201.633 224.727L200.584 228.691L229.585 236.368L230.634 232.404Z" fill="#496EB5"/>
<path d="M269.706 236.39L298.707 228.713L297.658 224.75L268.657 232.427L269.706 236.39Z" fill="#496EB5"/>
<path d="M292.601 325.6L314.301 338L310.201 364.1L282.701 347.8L292.601 325.6Z" fill="white"/>
<path d="M307.602 332.9L309.002 353.5L304.002 349.6L294.002 358.3L304.702 365.4L313.002 387.3L316.702 400.9C317.202 402.7 319.402 403.3 320.802 402C323.902 399 328.102 393.2 328.502 384C329.002 369 326.002 356.9 326.002 356.9L329.902 357.6L331.302 340L327.102 339.7C327.102 339.6 319.502 331.6 307.602 332.9Z" fill="#141D30"/>
<path d="M109.501 265.8C113.601 244.5 142.901 235.8 170.601 250.7C198.401 265.6 299.201 321.7 299.201 321.7L282.101 366.3C271.101 362.6 270.001 357.5 261.101 354.3C253.801 351.6 251.701 355 240.101 351.1C228.601 347.2 224.801 342.9 218.201 340.6C207.701 336.9 197.801 338 188.101 334.7C171.601 329.1 157.501 324.3 150.301 321.8C121.101 311.5 105.301 287.2 109.501 265.8Z" fill="#2F7BFF"/>
<path d="M273.902 356.4L284.102 313.2C287.402 315 290.202 316.6 292.502 317.9L273.902 356.4Z" fill="#141D30"/>
<path d="M292.502 326.9L187.002 259.6" stroke="#141D30" stroke-width="0.7631" stroke-miterlimit="10"/>
<path d="M326.501 341.4L325.301 354.5" stroke="#496EB5" stroke-width="0.6883" stroke-miterlimit="10"/>
<path d="M282.202 366.3C277.502 364.7 274.602 362.9 272.102 361L290.102 316.5C295.902 319.7 299.302 321.6 299.302 321.6L282.202 366.3Z" fill="#496EB5"/>
<path d="M330.002 355L331.202 339.8L327.002 339.5C327.002 339.5 319.402 331.5 307.502 332.9L307.602 334.2L296.702 328L299.102 321.6C299.102 321.6 266.902 303.7 233.902 285.5L167.602 327.6C173.702 329.7 180.602 332 188.002 334.5C197.802 337.8 207.602 336.8 218.102 340.4C224.702 342.7 228.502 347 240.002 350.9C251.502 354.8 253.702 351.5 261.002 354.1C269.802 357.3 270.902 362.4 282.002 366.1L287.902 350.7L296.502 355.8L293.902 358L304.602 365.1L304.902 365.9L325.802 356.6L330.002 355Z" fill="#0C55D2"/>
<path d="M389.802 265.8C385.702 244.5 356.402 235.8 328.702 250.7C301.002 265.6 200.102 321.7 200.102 321.7L217.202 366.3C228.202 362.6 229.302 357.5 238.202 354.3C245.502 351.6 247.602 355 259.202 351.1C270.702 347.2 274.502 342.9 281.102 340.6C291.602 336.9 301.502 338 311.202 334.7C327.702 329.1 341.802 324.3 349.002 321.8C378.202 311.5 393.902 287.2 389.802 265.8Z" fill="#2F7BFF"/>
<path d="M225.401 356.4L215.201 313.2C211.901 315 209.101 316.6 206.801 317.9L225.401 356.4Z" fill="#141D30"/>
<path d="M206.801 326.9L312.301 259.6" stroke="#141D30" stroke-width="0.7631" stroke-miterlimit="10"/>
<path d="M206.702 325.6L184.902 338L189.102 364.1L216.602 347.8L206.702 325.6Z" fill="white"/>
<path d="M191.602 332.9L190.202 353.5L195.202 349.6L205.202 358.3L194.502 365.4L186.202 387.3L182.502 400.9C182.002 402.7 179.802 403.3 178.402 402C175.302 399 171.102 393.2 170.702 384C170.202 369 173.202 356.9 173.202 356.9L169.302 357.6L167.902 340L172.102 339.7C172.202 339.6 179.802 331.6 191.602 332.9Z" fill="#141D30"/>
<path d="M172.801 341.4L174.001 354.5" stroke="#496EB5" stroke-width="0.6883" stroke-miterlimit="10"/>
<path d="M217.102 366.3C221.802 364.7 224.702 362.9 227.202 361L209.202 316.5C203.402 319.7 200.002 321.6 200.002 321.6L217.102 366.3Z" fill="#496EB5"/>
<path d="M75.7 214.5C70 211.4 81.8 183.8 81.8 183.8L91.8 188.1C91.7 188.1 81.5 217.7 75.7 214.5Z" fill="#ABABAB"/>
<path d="M95.9008 189.9L74.1008 180.5C74.1008 180.5 75.5008 174.1 70.4008 169.3C67.5008 166.6 63.9008 163.9 63.9008 163.9L61.7008 166L65.6008 170.6L65.5008 176.4H54.9008L42.6008 172.6L41.7008 175.6L40.3008 174.9L38.8008 179.2L41.4008 180.8L40.2008 183.9L45.5008 187.8L51.4008 189.1L44.7008 189.2L40.9008 186.9L40.1008 189.2L44.9008 191.9C44.9008 191.9 55.7008 196.1 67.8008 193.2L87.7008 210L95.9008 189.9Z" fill="white" stroke="black" stroke-miterlimit="10"/>
<path d="M77.7017 230.6C72.7017 227.9 80.4017 213 80.4017 213L96.6017 219.9C96.6017 219.8 83.2017 233.6 77.7017 230.6Z" fill="#141D30"/>
<path d="M99.6012 190.9L87.5012 186.2C87.5012 186.2 84.0012 211.5 75.7012 214.6L99.6012 229.6V190.9Z" fill="#F9F9F9"/>
<path d="M159.201 248C159.801 247.4 160.101 246.8 160.301 246.2C138.601 239 117.901 245.4 111.201 260.3C124.201 270.2 148.801 259.1 159.201 248Z" fill="#0C55D2"/>
<path d="M175.101 117.1L189.701 181.9L171.601 231.3C164.201 251.4 141.101 260.8 121.801 251.6L77.7012 230.5C77.7012 230.5 88.4012 233.3 99.6012 190.8L129.701 203.7L162.301 142.1C162.301 142.2 162.301 131.4 175.101 117.1Z" fill="#2F7BFF"/>
<path d="M89.5 219L121.6 234.8" stroke="#141D30" stroke-width="0.7631" stroke-miterlimit="10"/>
<path d="M100.001 218.8C101.216 218.8 102.201 217.815 102.201 216.6C102.201 215.385 101.216 214.4 100.001 214.4C98.7858 214.4 97.8008 215.385 97.8008 216.6C97.8008 217.815 98.7858 218.8 100.001 218.8Z" fill="#DEDEDE"/>
<path d="M114.8 223.4C114.8 224.6 113.8 225.6 112.6 225.6C111.4 225.6 110.4 224.6 110.4 223.4C110.4 222.2 111.4 221.2 112.6 221.2C113.8 221.2 114.8 222.2 114.8 223.4Z" fill="#DEDEDE"/>
<path d="M129.701 203.8L149.001 212.5" stroke="#141D30" stroke-width="0.7631" stroke-miterlimit="10"/>
<path d="M134.701 203L154.601 203.8" stroke="#141D30" stroke-width="0.7631" stroke-miterlimit="10"/>
<path d="M179.602 137.2C178.302 141.4 175.302 154.1 178.002 173.8C178.302 176.2 178.102 178.7 177.402 181.1C172.802 194.9 176.102 207.9 178.102 213.6L189.702 182L179.602 137.2Z" fill="#0C55D2"/>
<path d="M41.6016 175.5L53.9016 179.9L58.2016 180.3" stroke="black" stroke-miterlimit="10"/>
<path d="M41.3008 180.7L49.5008 184.3L56.8008 185" stroke="black" stroke-miterlimit="10"/>
<path d="M58.8012 178.6L56.2012 187.8" stroke="black" stroke-miterlimit="10"/>
<path d="M58.2012 186.9C60.9012 184.8 65.9012 182.5 70.5012 185.5" stroke="black" stroke-miterlimit="10"/>
<path d="M423.6 214.5C429.3 211.4 417.5 183.8 417.5 183.8L407.5 188.1C407.5 188.1 417.8 217.7 423.6 214.5Z" fill="#ABABAB"/>
<path d="M403.4 189.9L425.2 180.5C425.2 180.5 423.8 174.1 428.9 169.3C431.8 166.6 435.4 163.9 435.4 163.9L437.6 166L433.7 170.6L433.8 176.4H444.4L456.7 172.6L457.6 175.6L459 174.9L460.5 179.2L457.9 180.8L459.1 183.9L453.8 187.8L447.9 189.1L454.6 189.2L458.4 186.9L459.2 189.2L454.4 191.9C454.4 191.9 443.6 196.1 431.5 193.2L411.6 210L403.4 189.9Z" fill="white" stroke="black" stroke-miterlimit="10"/>
<path d="M421.599 230.6C426.599 227.9 418.899 213 418.899 213L402.699 219.9C402.699 219.8 416.099 233.6 421.599 230.6Z" fill="#141D30"/>
<path d="M399.699 190.9L411.799 186.2C411.799 186.2 415.299 211.5 423.599 214.6L399.699 229.6V190.9Z" fill="#F9F9F9"/>
<path d="M340.1 248C339.5 247.4 339.2 246.8 339 246.2C360.7 239 381.4 245.4 388.1 260.3C375.1 270.2 350.5 259.1 340.1 248Z" fill="#0C55D2"/>
<path d="M324.2 117.1L309.6 181.9L327.7 231.3C335.1 251.4 358.2 260.8 377.5 251.6L421.6 230.5C421.6 230.5 410.9 233.3 399.7 190.8L369.6 203.7L337 142.2C337 142.2 337 131.4 324.2 117.1Z" fill="#2F7BFF"/>
<path d="M409.799 219L377.699 234.8" stroke="#141D30" stroke-width="0.7631" stroke-miterlimit="10"/>
<path d="M399.3 218.8C400.515 218.8 401.5 217.815 401.5 216.6C401.5 215.385 400.515 214.4 399.3 214.4C398.085 214.4 397.1 215.385 397.1 216.6C397.1 217.815 398.085 218.8 399.3 218.8Z" fill="#DEDEDE"/>
<path d="M384.5 223.4C384.5 224.6 385.5 225.6 386.7 225.6C387.9 225.6 388.9 224.6 388.9 223.4C388.9 222.2 387.9 221.2 386.7 221.2C385.5 221.2 384.5 222.2 384.5 223.4Z" fill="#DEDEDE"/>
<path d="M369.601 203.8L350.301 212.5" stroke="#141D30" stroke-width="0.7631" stroke-miterlimit="10"/>
<path d="M364.599 203L344.699 203.8" stroke="#141D30" stroke-width="0.7631" stroke-miterlimit="10"/>
<path d="M319.6 137.2C320.9 141.4 323.9 154.1 321.2 173.8C320.9 176.2 321.1 178.7 321.8 181.1C326.4 194.9 323.1 207.9 321.1 213.6L309.5 182L319.6 137.2Z" fill="#0C55D2"/>
<path d="M457.7 175.5L445.4 179.9L441.1 180.3" stroke="black" stroke-miterlimit="10"/>
<path d="M458 180.7L449.8 184.3L442.5 185" stroke="black" stroke-miterlimit="10"/>
<path d="M440.5 178.6L443.1 187.8" stroke="black" stroke-miterlimit="10"/>
<path d="M441.101 186.9C438.401 184.8 433.401 182.5 428.801 185.5" stroke="black" stroke-miterlimit="10"/>
<path d="M261.301 77.7002H249.601H237.901L236.701 99.7002L249.601 107.3L262.501 99.7002L261.301 77.7002Z" fill="white" stroke="black" stroke-miterlimit="10"/>
<path d="M252.7 113.5H246.5L243.5 103.4H255.7L252.7 113.5Z" fill="#125EC9"/>
<path d="M234.452 74.7583C236.954 73.4638 237.788 70.1082 236.316 67.2634C234.844 64.4185 231.623 63.1618 229.121 64.4563C226.62 65.7509 225.785 69.1065 227.257 71.9513C228.73 74.7961 231.951 76.0528 234.452 74.7583Z" fill="white" stroke="black" stroke-miterlimit="10"/>
<path d="M228.9 68.7998C229.6 65.6998 233 65.3998 235.8 68.9998" stroke="black" stroke-width="0.7091" stroke-miterlimit="10"/>
<path d="M262.9 67.3001C261.4 70.2001 262.2 73.5001 264.7 74.8001C267.2 76.1001 270.4 74.8001 271.9 71.9001C273.4 69.0001 272.6 65.7001 270.1 64.4001C267.6 63.2001 264.4 64.4001 262.9 67.3001Z" fill="white" stroke="black" stroke-miterlimit="10"/>
<path d="M270.3 68.7998C269.6 65.6998 266.2 65.3998 263.4 68.9998" stroke="black" stroke-width="0.7091" stroke-miterlimit="10"/>
<path d="M265.4 61C263.4 58.7 262.4 55.6 262.9 52.5C263.1 51.2 262.1 50 260.8 50H249.6H238.4C237.1 50 236.1 51.2 236.3 52.5C236.8 55.6 235.9 58.7 233.8 61L232.4 62.6C233.3 82.1 244.8 86.4 249.6 86.4C254.4 86.4 265.8 82.1 266.8 62.6L265.4 61Z" fill="white" stroke="black" stroke-miterlimit="10"/>
<path d="M239.199 63.3001C240.699 65.3001 243.899 65.2001 245.999 63.1001" stroke="black" stroke-width="0.75" stroke-miterlimit="10"/>
<path d="M238 58.7002C240.7 57.2002 243.7 57.0002 246.3 58.7002" stroke="black" stroke-miterlimit="10"/>
<path d="M260.101 63.3001C258.601 65.3001 255.401 65.2001 253.301 63.1001" stroke="black" stroke-width="0.75" stroke-miterlimit="10"/>
<path d="M261.2 58.7002C258.5 57.2002 255.5 57.0002 252.9 58.7002" stroke="black" stroke-miterlimit="10"/>
<path d="M248.801 61.1001V68.3001L252.101 67.6001" stroke="black" stroke-miterlimit="10"/>
<path d="M244 70.6001C244 70.6001 248.4 73.6001 255.2 70.6001" stroke="black" stroke-miterlimit="10"/>
<path d="M247.701 75H251.501" stroke="black" stroke-miterlimit="10"/>
<path d="M248.101 103.4L243.901 112.3L230.301 102.1L233.801 95.7002L248.101 103.4Z" fill="#F9F9F9"/>
<path d="M251.102 103.4L255.302 112.3L268.902 102.1L265.402 95.7002L251.102 103.4Z" fill="#F9F9F9"/>
<path d="M318.594 154.272L333.167 160.976L319.083 174.864C307.375 176.537 300.239 174.566 295.416 171.293C291.291 168.494 288.835 164.734 286.645 161.382C286.26 160.793 285.884 160.217 285.508 159.66C284.211 157.742 281.991 156.538 279.31 155.551C277.716 154.964 275.926 154.444 274.046 153.898C272.775 153.529 271.462 153.147 270.139 152.724C263.546 150.618 256.522 147.444 252.119 139.479L252.119 139.479C249.643 135.022 248.272 128.537 247.523 123.141C247.149 120.447 246.931 118.034 246.806 116.295C246.744 115.425 246.705 114.724 246.681 114.24C246.672 114.037 246.664 113.873 246.66 113.75H252.472C253.517 124.778 257.898 131.629 263.223 135.711C268.578 139.815 274.861 141.1 279.603 141.05L279.608 141.05C284.285 140.901 288.07 141.424 291.513 142.929C294.956 144.435 298.077 146.932 301.412 150.764L301.413 150.765C304.877 154.688 309.21 155.551 312.659 155.437C314.382 155.38 315.889 155.08 316.965 154.793C317.503 154.65 317.934 154.51 318.232 154.406C318.38 154.353 318.496 154.31 318.575 154.279C318.581 154.277 318.588 154.274 318.594 154.272Z" fill="#1FC9AA" stroke="black" stroke-width="0.5"/>
<path d="M253.7 119.5C253.3 117.6 253 115.6 252.8 113.5H246.5C246.5 113.5 246.5 113.7 246.5 114.1C248.6 115.3 251.6 117.3 253.7 119.5Z" fill="#0E4899"/>
</g>
<defs>
<clipPath id="clip0">
<rect width="498.3" height="406.8" fill="white"/>
</clipPath>
</defs>
</svg>
