<svg xmlns="http://www.w3.org/2000/svg" width="21.956" height="20.274" viewBox="0 0 21.956 20.274"><defs><style>.a,.b{fill:#33a0ff;}.b{stroke:#33a0ff;stroke-width:0.4px;}</style></defs><g transform="translate(1.357 1.078)"><g transform="translate(-1.157 -1.078)"><rect class="a" width="0.269" height="1.347" transform="translate(6.871 1.212)"/><rect class="a" width="0.269" height="1.347" transform="translate(10.643 1.212)"/><path class="b" d="M19.535,6.495h-1.28V7.842h1.28a.636.636,0,0,1,.673.673V23.335a.636.636,0,0,1-.673.674H2.021a.636.636,0,0,1-.674-.674V8.516a.636.636,0,0,1,.674-.673H3.368V6.5H2.021A1.984,1.984,0,0,0,0,8.516V23.336a1.985,1.985,0,0,0,2.021,2.021H19.535a1.985,1.985,0,0,0,2.021-2.021V8.516A2.072,2.072,0,0,0,19.535,6.495Z" transform="translate(0 -5.283)"/><rect class="a" width="0.202" height="1.347" transform="translate(14.416 1.212)"/><path class="a" d="M52.15,6.3a1.064,1.064,0,0,0,1.078-1.078V3.542a1.078,1.078,0,0,0-2.156,0V5.226A1.108,1.108,0,0,0,52.15,6.3Z" transform="translate(-35.713 -2.464)"/><path class="a" d="M39.6,6.3a1.064,1.064,0,0,0,1.078-1.078V3.542a1.078,1.078,0,1,0-2.156,0V5.226A1.108,1.108,0,0,0,39.6,6.3Z" transform="translate(-26.941 -2.464)"/><path class="a" d="M27.062,6.3A1.064,1.064,0,0,0,28.14,5.226V3.542a1.078,1.078,0,0,0-2.156,0V5.226A1.108,1.108,0,0,0,27.062,6.3Z" transform="translate(-18.17 -2.464)"/><path class="a" d="M14.518,6.3A1.064,1.064,0,0,0,15.6,5.226V3.542a1.078,1.078,0,1,0-2.156,0V5.226A1.108,1.108,0,0,0,14.518,6.3Z" transform="translate(-9.398 -2.464)"/><path class="b" d="M21.854,30.941a5.726,5.726,0,1,0-5.726-5.726A5.722,5.722,0,0,0,21.854,30.941Zm-4.109-7.949.4.2.135-.2-.4-.2a4.854,4.854,0,0,1,1.549-1.549l.2.4.2-.135-.2-.4a5.379,5.379,0,0,1,2.088-.607v.471h.269V20.5a3.779,3.779,0,0,1,2.088.607l-.2.4.2.135.2-.4a5.634,5.634,0,0,1,1.549,1.549l-.4.2.134.2.4-.2a5.383,5.383,0,0,1,.607,2.088H26.1v.269h.472a3.781,3.781,0,0,1-.606,2.088l-.4-.2-.134.2.4.2a5.642,5.642,0,0,1-1.549,1.549l-.2-.4-.2.135.2.4a5.383,5.383,0,0,1-2.088.606v-.472h-.27v.471a3.78,3.78,0,0,1-2.088-.607l.2-.4-.2-.134-.2.4a5.663,5.663,0,0,1-1.549-1.549l.4-.2-.135-.2-.4.2a5.381,5.381,0,0,1-.607-2.088h.472V25.08h-.472A5.374,5.374,0,0,1,17.745,22.992Z" transform="translate(-11.278 -14.369)"/><path class="a" d="M35.168,26.656v3.57h3.57A3.594,3.594,0,0,0,35.168,26.656Z" transform="translate(-24.592 -19.381)"/></g></g></svg>