<svg xmlns="http://www.w3.org/2000/svg" width="19.855" height="15.008" viewBox="0 0 19.855 15.008"><defs><style>.a{fill:#33a0ff;}</style></defs><g transform="translate(0 0)"><path class="a" d="M72.21,164.122a1.064,1.064,0,0,0,1.505,1.505,7.357,7.357,0,0,1,10.392,0,1.063,1.063,0,0,0,1.5-1.505A9.48,9.48,0,0,0,72.21,164.122Z" transform="translate(-68.983 -157.226)"/><path class="a" d="M143.01,263.07a1.065,1.065,0,0,0,1.505,1.505,3.282,3.282,0,0,1,4.642,0,1.062,1.062,0,0,0,1.5-1.5A5.409,5.409,0,0,0,143.01,263.07Z" transform="translate(-136.91 -253.3)"/><circle class="a" cx="1.416" cy="1.416" r="1.416" transform="translate(8.511 12.175)"/><path class="a" d="M19.544,63.7A13.622,13.622,0,0,0,.31,63.7a1.064,1.064,0,0,0,1.505,1.505,11.484,11.484,0,0,1,16.227,0,1.063,1.063,0,0,0,1.5-1.505Z" transform="translate(0 -59.725)"/></g></svg>