<svg width="411" height="267" viewBox="0 0 411 267" fill="none" xmlns="http://www.w3.org/2000/svg">
<path d="M403.917 181.96C425.414 220.441 394.307 295.943 197.024 243.471C98.1102 217.163 24.2192 276.43 8.9996 235.06C-26.4658 138.701 118.368 27.2365 198.907 105.056C272.525 176.187 364.792 111.922 403.917 181.96Z" stroke="#E1E1E1" stroke-miterlimit="10" stroke-dasharray="8 8"/>
<path d="M329.842 23.6794H178.902C171.875 23.6794 166.179 29.3758 166.179 36.4026V252.915C166.179 259.942 171.875 265.638 178.902 265.638H329.842C336.869 265.638 342.565 259.942 342.565 252.915V36.4026C342.565 29.3758 336.869 23.6794 329.842 23.6794Z" fill="#176CFF"/>
<path d="M327.3 33.4304H182.12V244.321H327.3V33.4304Z" fill="#F6F5F5"/>
<path d="M327.299 33.4324C327.344 115.667 329.999 214.848 320.761 236.811C280.075 240.776 232.434 242.048 182.118 242.289L201.244 34.0675L327.299 33.4324Z" fill="#E4E4E4"/>
<path d="M314.26 230.162C250.843 240.312 208.462 240.848 174.081 238.295C178.532 190.875 180.323 112.095 182.127 33.4412L258.546 33.6124L327.709 38.1781C328.707 119.81 328.818 195.216 314.26 230.162Z" fill="white"/>
<path d="M291.85 54.6897L215.478 52.8899L215.203 64.5227L291.576 66.3225L291.85 54.6897Z" fill="#2C374A"/>
<path d="M306.571 83.1574L237.683 81.5339L237.557 86.8583L306.445 88.4817L306.571 83.1574Z" fill="#817F7F"/>
<path opacity="0.2" d="M284.232 94.2468L237.408 93.1433L237.283 98.4677L284.107 99.5711L284.232 94.2468Z" fill="#2C374A"/>
<path d="M215.977 81.3348L199.668 80.9504L199.284 97.259L215.592 97.6433L215.977 81.3348Z" stroke="#2C374A" stroke-opacity="0.2" stroke-miterlimit="10"/>
<path d="M202.328 85.2324C202.831 87.1601 203.761 95.2353 207.806 92.9772C208.739 92.4636 209.529 91.0804 210.227 90.2878L213.993 86.0182L221.516 77.4756C222.159 76.7463 219.321 74.9163 218.514 75.8322L211.828 83.4246L208.484 87.2217C207.71 88.0999 205.916 90.9315 204.774 91.1831L206.646 91.7874C207.087 92.1487 206.267 89.5842 206.248 89.514C205.939 88.3236 205.628 87.1327 205.315 85.9412C205.059 84.9585 201.955 83.7756 202.335 85.2324H202.328Z" fill="#1FC9AA"/>
<path d="M293.713 112.519L236.984 111.182L236.859 116.507L293.587 117.844L293.713 112.519Z" fill="#817F7F"/>
<path opacity="0.2" d="M306.296 123.085L237.389 121.707L237.282 127.033L306.189 128.411L306.296 123.085Z" fill="#2C374A"/>
<path d="M215.277 110.985L198.969 110.601L198.584 126.909L214.893 127.293L215.277 110.985Z" stroke="#2C374A" stroke-opacity="0.2" stroke-miterlimit="10"/>
<path d="M201.621 115.342C202.124 117.27 203.054 125.345 207.099 123.087C208.032 122.573 208.821 121.19 209.52 120.397L213.286 116.126L220.808 107.585C221.452 106.856 218.614 105.017 217.807 105.942L211.121 113.534L207.777 117.33C207.003 118.208 205.209 121.041 204.067 121.293L205.939 121.897C206.38 122.258 205.56 119.694 205.543 119.624C205.232 118.433 204.921 117.242 204.61 116.051C204.352 115.068 201.248 113.885 201.628 115.342H201.621Z" fill="#1FC9AA"/>
<path d="M305.172 142.456L236.284 140.832L236.159 146.157L305.047 147.78L305.172 142.456Z" fill="#817F7F"/>
<path opacity="0.2" d="M266.82 153.168L236.012 152.442L235.886 157.766L266.694 158.492L266.82 153.168Z" fill="#2C374A"/>
<path d="M214.58 140.633L198.271 140.249L197.887 156.558L214.196 156.942L214.58 140.633Z" stroke="#2C374A" stroke-opacity="0.2" stroke-miterlimit="10"/>
<path d="M201.145 145.202C201.648 147.129 202.578 155.205 206.623 152.946C207.556 152.433 208.345 151.05 209.042 150.257L212.808 145.987L220.33 137.445C220.974 136.716 218.136 134.886 217.329 135.801L210.641 143.394L207.292 147.191C206.519 148.069 204.724 150.901 203.583 151.152L205.455 151.757C205.895 152.118 205.077 149.553 205.058 149.483C204.749 148.294 204.438 147.103 204.125 145.91C203.868 144.928 200.763 143.745 201.145 145.202Z" fill="#1FC9AA"/>
<path d="M305.34 170.791L236.433 169.413L236.326 174.739L305.233 176.117L305.34 170.791Z" fill="#817F7F"/>
<path opacity="0.2" d="M289.733 183.372L235.313 182.09L235.188 187.414L289.607 188.697L289.733 183.372Z" fill="#2C374A"/>
<path d="M213.879 170.282L197.57 169.898L197.186 186.206L213.495 186.591L213.879 170.282Z" stroke="#2C374A" stroke-opacity="0.2" stroke-miterlimit="10"/>
<path d="M200.445 174.657C200.948 176.585 201.878 184.658 205.923 182.4C206.856 181.887 207.645 180.504 208.342 179.713L212.108 175.433L219.631 166.892C220.274 166.163 217.436 164.324 216.629 165.248L209.941 172.841L206.608 176.645C205.834 177.523 204.04 180.356 202.898 180.606L204.771 181.211C205.213 181.574 204.393 179.009 204.374 178.939C204.063 177.747 203.752 176.556 203.441 175.366C203.184 174.382 200.078 173.199 200.46 174.657H200.445Z" fill="#1FC9AA"/>
<path d="M262.199 200.549L234.893 199.905L234.767 205.23L262.074 205.873L262.199 200.549Z" fill="#817F7F"/>
<path opacity="0.2" d="M303.516 213.137L234.628 211.515L234.503 216.84C261.154 217.464 295.09 218.712 302.015 217.651C303.066 216.447 303.633 214.98 303.516 213.137Z" fill="#2C374A"/>
<path d="M213.415 199.713L197.106 199.329L196.722 215.638L213.031 216.022L213.415 199.713Z" stroke="#2C374A" stroke-opacity="0.2" stroke-miterlimit="10"/>
<path d="M199.76 203.854C200.273 205.782 201.194 213.855 205.238 211.597C206.169 211.084 206.96 209.7 207.657 208.91L211.423 204.63L218.956 196.089C219.598 195.358 216.761 193.521 215.953 194.444L209.266 202.036L205.923 205.833C205.149 206.711 203.355 209.543 202.213 209.795L204.086 210.399C204.526 210.762 203.707 208.196 203.689 208.127C203.377 206.936 203.066 205.745 202.756 204.554C202.499 203.57 199.393 202.387 199.773 203.846L199.76 203.854Z" fill="#1FC9AA"/>
<path d="M287.069 25.145V41.429H221.673V25.145C221.671 23.909 221.914 22.6848 222.386 21.5427C222.858 20.4005 223.552 19.3628 224.426 18.489C224.635 18.2778 224.857 18.0789 225.09 17.8932C226.773 16.494 228.893 15.7305 231.082 15.7362C232.746 15.7369 234.389 15.3624 235.889 14.6405C236.523 14.3337 237.129 13.9692 237.697 13.5517C239.607 12.1386 241.011 10.1482 241.703 7.87493C242.396 5.59676 243.804 3.60174 245.717 2.18393C247.631 0.766121 249.949 0.000529958 252.33 0H256.412C258.793 0.000529958 261.111 0.766121 263.025 2.18393C264.938 3.60174 266.345 5.59676 267.039 7.87493C267.73 10.1541 269.137 12.1498 271.052 13.5654C271.62 13.9829 272.225 14.3474 272.86 14.6542C274.36 15.3761 276.003 15.7506 277.667 15.7499C280.158 15.7535 282.547 16.7443 284.309 18.5052C286.071 20.2662 287.064 22.6537 287.069 25.145Z" fill="#1FC9AA"/>
<path d="M292.376 33.4304V45.5304H216.366V33.4304H221.673V41.4218H287.069V33.4304H292.376Z" fill="#E4E4E4"/>
<path d="M254.373 15.2617C257.577 15.2617 260.173 12.7937 260.173 9.74927C260.173 6.70482 257.577 4.23682 254.373 4.23682C251.17 4.23682 248.573 6.70482 248.573 9.74927C248.573 12.7937 251.17 15.2617 254.373 15.2617Z" fill="white"/>
<path d="M186.2 85.9545C183.881 85.5163 181.713 81.6404 180.96 80.1545C180.775 79.791 180.714 79.3762 180.789 78.975L181.713 74.0822C181.713 74.0822 183.843 74.4434 183.679 77.2801C183.667 77.5754 183.717 77.87 183.826 78.1447L184.643 80.2777L187.053 78.4117L185.731 74.678C185.731 74.678 183.961 75.1642 183.047 74.8731C181.164 74.274 183.631 72.8188 184.417 72.6476C185.202 72.4764 186.906 71.8704 187.683 73.192C188.46 74.5136 188.928 75.2926 188.928 75.2926C188.928 75.2926 189.784 72.3361 189.2 65.7263C189.174 65.4284 189.919 65.4352 190.128 65.6492C190.754 66.2861 191.752 68.2257 191.805 74.125C191.805 74.125 191.91 67.2499 193.088 66.5428C194.06 65.9591 194.551 69.3248 193.867 75.0307C193.867 75.0307 195.135 70.09 196.044 70.0814C197.576 70.066 196.063 83.2771 192.211 87.2145L186.2 85.9545Z" fill="#F9B384"/>
<path d="M193.472 83.9329C193.404 84.5902 193.329 85.2271 193.246 85.8434C193.012 87.8002 192.674 89.7431 192.233 91.664C192.212 91.7462 192.199 91.8215 192.178 91.8968C191.007 96.6902 190.795 99.0459 186.796 98.4159L182.687 93.732L182.646 93.6841L182.345 93.3417L183.18 90.8765L183.29 90.5546L183.906 88.7605L183.981 88.5277L185.036 85.4462L185.46 84.1931L193.472 83.9329Z" fill="#F9B384"/>
<path d="M117.016 254.487L115.968 257.762C108.778 260.121 104.596 262.824 104.327 265.979H125.098L126.764 255.022C122.558 256.043 119.185 255.329 117.016 254.487Z" fill="black"/>
<path d="M119.62 246.348L117.017 254.487C119.186 255.329 122.558 256.043 126.764 255.016L127.838 247.945L119.62 246.348Z" fill="#F9B384"/>
<path d="M155.132 254.123L155.742 245.834L145.984 246.348L145.451 253.99C149.579 255.306 153.003 254.791 155.132 254.123Z" fill="#F9B384"/>
<path d="M166.869 265.979C166.6 262.824 162.931 258.503 154.885 257.476L155.131 254.124C152.997 254.791 149.581 255.307 145.45 253.99L144.613 265.974L166.869 265.979Z" fill="black"/>
<path d="M147.222 88.0824L135.451 88.1645V70.3604H146.866L146.873 71.4491L146.928 77.0917L147.01 86.1513L147.222 88.0824Z" fill="#F9B384"/>
<path d="M146.928 77.9477C144.812 80.1733 139.293 77.6601 136.965 75.2086L146.874 72.2983L146.928 77.9477Z" fill="#E28B6D"/>
<path d="M149.661 66.2514C149.664 67.5928 149.561 68.9323 149.353 70.2574C148.777 73.8525 147.257 76.9476 143.751 77.0435C135.465 77.2832 133.103 72.5445 131.542 68.6687C129.98 64.7929 132.514 55.4525 132.514 55.4525L143.237 54.3911L149.127 59.2188C149.493 61.5449 149.671 63.8967 149.661 66.2514Z" fill="#F9B384"/>
<path d="M131.875 66.4486C131.875 66.4486 134.239 66.3408 134.643 60.2394C138.87 61.6535 141.96 60.3644 144.401 57.5482C146.489 60.3062 152.336 61.1707 154.309 55.523C155.741 51.4435 151.803 45.3661 146.068 49.0467C140.448 46.2066 131.922 46.4018 129.462 53.3677C129.462 53.3677 120.935 57.3051 129.966 65.9573C130.152 66.1302 131.875 66.4486 131.875 66.4486Z" fill="black"/>
<path d="M164.474 152.072L157.967 250.457H142.674L146.497 154.987L148.837 153.904L164.474 152.072Z" fill="#2C374A"/>
<path d="M124.642 138.611L113.913 250.457H130.575L146.44 157.555L164.472 152.077L165.271 132.218L125.097 131.306L124.642 138.611Z" fill="#2C374A"/>
<path opacity="0.6" d="M127.034 138.853C136.135 142.121 157.488 138.387 161.922 133.835L158.772 127.539L123.649 132.206L127.034 138.853Z" fill="#102048"/>
<path d="M161.103 132.319C160.809 132.442 160.507 132.572 160.199 132.689C156.514 134.185 152.694 135.323 148.791 136.085C146.268 136.585 143.711 136.899 141.142 137.023C137.113 137.249 133.071 136.922 129.131 136.051L134.232 88.4863L134.856 82.6863C134.856 82.6863 141.532 90.9036 148.893 81.8303L161.103 132.319Z" fill="white"/>
<path opacity="0.3" d="M141.142 137.024C137.113 137.249 133.071 136.922 129.131 136.051L134.232 88.4867L136.054 85.8538C140.553 96.7965 145.161 121.034 141.142 137.024Z" fill="#1F3C88"/>
<path d="M135.455 80.8035C140.528 102.34 142.615 124.501 135.142 149.11C129.601 151.217 123.566 151.193 117.11 149.338L118.708 104.599L81.1014 130.45L78.8193 116.355C93.275 102.533 118.269 81.6594 135.455 80.8035Z" fill="#1FC9AA"/>
<path opacity="0.3" d="M160.193 132.689C156.508 134.185 152.688 135.323 148.785 136.085C146.525 123.088 146.025 101.737 147.867 92.1023L160.193 132.689Z" fill="#1F3C88"/>
<path opacity="0.6" d="M192.233 91.6775C192.213 91.7597 192.199 91.835 192.179 91.9104C191.008 96.7038 190.795 99.0594 186.796 98.4294L182.688 93.7456L182.646 93.6976L183.181 90.89L183.29 90.5682L183.906 88.7741L183.982 88.5413L192.233 91.6775Z" fill="#E28B6D"/>
<path d="M191.522 96.0397C191.522 96.0397 181.421 117.439 175.429 117.953C169.621 118.451 166.87 112.817 166.87 112.817L170.978 144.09C166.151 146.35 160.878 147.453 154.77 146.371C149.339 128.738 147.287 105.938 146.883 80.5466C151.279 80.8205 159.986 81.1955 163.103 83.2001C168.696 86.7952 175.601 99.6348 175.601 99.6348L183.647 88.6783L191.522 96.0397Z" fill="#1FC9AA"/>
<path d="M68.3887 65.8871C68.3887 65.8871 68.9998 55.6514 70.0424 56.129C71.085 56.6066 73.1735 65.5139 73.1735 65.5139L70.9395 69.1192L68.3887 65.8871Z" fill="#6F3428"/>
<path d="M99.1278 250.743L99.4308 254.112C99.687 256.968 98.7983 259.809 96.96 262.01C95.1217 264.211 92.4844 265.592 89.6282 265.849L88.762 265.926C87.3479 266.053 85.9226 265.9 84.5675 265.476C83.2124 265.053 81.9541 264.366 80.8643 263.456C79.7746 262.546 78.8748 261.43 78.2163 260.172C77.5578 258.914 77.1536 257.539 77.0266 256.125L76.7236 252.756L99.1278 250.743Z" fill="#EE6F57"/>
<path d="M84.4614 87.6102L62.0566 89.6216L76.7028 252.764L99.1076 250.753L84.4614 87.6102Z" fill="#FBC343"/>
<path opacity="0.3" d="M76.9439 84.986L68.9863 85.7004L81.8242 228.701L89.7818 227.986L76.9439 84.986Z" stroke="#6F3428" stroke-width="8" stroke-miterlimit="10"/>
<path d="M99.1236 250.744L76.7246 252.757L76.1357 246.183L75.7248 241.616L74.458 227.578L96.8639 225.565L98.1239 239.603L98.5347 244.17L99.1236 250.744Z" fill="#102048"/>
<path d="M98.1454 239.593L75.7461 241.608L76.157 246.176L98.5563 244.161L98.1454 239.593Z" fill="#FBC343"/>
<path d="M62.0625 89.6147L68.2871 64.6718C68.2871 64.6718 70.4339 65.6253 73.0395 64.0161L84.4701 87.6015L62.0625 89.6147Z" fill="#EE6F57"/>
<path d="M133.114 65.4166C133.015 65.0486 131.343 64.5435 130.975 64.4425C130.404 64.285 129.776 64.2063 129.228 64.4579C127.207 65.3721 127.477 68.267 128.525 69.7889C129.115 70.6611 129.988 71.3023 130.997 71.6036C131.365 71.708 134.842 71.7508 134.689 71.191L133.114 65.4166Z" fill="#F9B384"/>
<path d="M69.4596 123.602C69.3423 123.21 69.1474 122.847 68.8866 122.532C68.6257 122.218 68.3042 121.959 67.9413 121.772C67.5783 121.584 67.1813 121.471 66.774 121.441C66.3666 121.41 65.9572 121.461 65.5701 121.592C63.021 122.472 60.8006 123.965 60.4565 126.505C60.1432 128.818 61.3005 136.205 66.4672 137.155L66.046 133.36C66.046 133.36 69.2097 132.622 69.8414 131.251C70.2848 130.29 70.3156 126.283 69.4596 123.602Z" fill="#F9B384"/>
<path d="M165.291 98.1934C165.563 99.8094 165.794 101.431 166.015 103.054C166.236 104.676 166.427 106.306 166.636 107.927L167.167 112.81C167.321 114.441 167.473 116.063 167.573 117.709L167.307 117.74C167.027 116.124 166.794 114.503 166.573 112.88L165.962 108.006C165.791 106.376 165.592 104.754 165.448 103.12C165.304 101.487 165.14 99.8591 165.032 98.2242L165.291 98.1934Z" fill="#0F6253"/>
<path d="M119.24 97.9226C119.24 99.7373 119.192 101.552 119.139 103.365C119.086 105.178 119 106.996 118.935 108.809L118.639 114.243C118.518 116.054 118.393 117.863 118.216 119.671L117.949 119.657C117.949 117.841 117.992 116.028 118.042 114.215L118.251 108.778C118.355 106.967 118.432 105.154 118.559 103.344C118.685 101.535 118.802 99.7236 118.97 97.9158L119.24 97.9226Z" fill="#0F6253"/>
<path d="M141.426 65.247C141.57 65.8924 141.304 66.5018 140.832 66.6165C140.359 66.7312 139.858 66.2844 139.714 65.639C139.57 64.9936 139.835 64.3841 140.308 64.2694C140.78 64.1547 141.28 64.6016 141.426 65.247Z" fill="#102048"/>
<path d="M148.252 64.449C148.223 65.1098 147.808 65.6285 147.324 65.608C146.84 65.5874 146.468 65.0362 146.499 64.3737C146.53 63.7112 146.942 63.1942 147.425 63.2147C147.908 63.2352 148.279 63.7865 148.252 64.449Z" fill="#102048"/>
<path d="M144.442 64.9905C144.677 65.5571 144.639 66.1666 144.785 66.6305C144.843 66.846 144.957 67.0425 145.115 67.2006C145.311 67.3407 145.528 67.4472 145.759 67.5156C146.082 67.6371 146.364 67.8492 146.57 68.1268C146.687 68.2874 146.757 68.4775 146.771 68.6757C146.786 68.8738 146.745 69.0721 146.652 69.2481C146.485 69.5252 146.256 69.7596 145.983 69.9328C145.748 70.0921 145.522 70.2598 145.278 70.4088L145.106 70.2068C145.286 69.9859 145.483 69.7839 145.671 69.5733C145.853 69.4092 146.003 69.2138 146.115 68.9964C146.259 68.6797 145.944 68.3322 145.499 68.1541C145.267 68.048 144.934 67.9556 144.665 67.6799C144.428 67.4307 144.275 67.1143 144.225 66.7743C144.112 66.1409 144.242 65.5982 144.18 65.0624L144.442 64.9905Z" fill="#E28B6D"/>
<path d="M138.158 63.5128C138.269 63.0902 138.515 62.7155 138.858 62.4463C139.212 62.1625 139.647 61.9994 140.1 61.9806C140.538 61.9554 140.974 62.0563 141.357 62.2714C141.739 62.4865 142.052 62.8069 142.258 63.1944L142.049 63.3656C141.514 62.9122 140.834 62.6645 140.132 62.6671C139.789 62.684 139.454 62.7797 139.154 62.9469C138.854 63.114 138.596 63.3481 138.401 63.6309L138.158 63.5128Z" fill="#102048"/>
<path d="M145.227 62.6737C145.33 62.345 145.515 62.0477 145.764 61.8092C146.031 61.5522 146.37 61.3841 146.736 61.3282C147.471 61.2066 148.262 61.5815 148.551 62.2338L148.337 62.3947C147.902 62.0829 147.367 61.9432 146.836 62.0027C146.583 62.0407 146.34 62.1292 146.122 62.2629C145.884 62.4248 145.662 62.6082 145.458 62.8107L145.227 62.6737Z" fill="#102048"/>
<path d="M141.438 71.6223C142.637 73.4935 144.227 73.6972 145.458 71.7285L141.438 71.6223Z" fill="white"/>
<path opacity="0.4" d="M149.694 65.7947C149.685 67.2886 149.571 68.78 149.351 70.2577C148.934 70.1251 148.571 69.863 148.314 69.5095C148.056 69.156 147.918 68.7296 147.92 68.2924C147.922 67.2584 148.723 65.9522 149.694 65.7947Z" fill="#FC8879"/>
<path opacity="0.4" d="M138.52 71.7249C139.74 71.7249 140.728 70.7362 140.728 69.5165C140.728 68.2968 139.74 67.3081 138.52 67.3081C137.3 67.3081 136.312 68.2968 136.312 69.5165C136.312 70.7362 137.3 71.7249 138.52 71.7249Z" fill="#FC8879"/>
<path d="M131.668 67.6214C131.274 67.3238 130.862 67.0521 130.433 66.8082C130.267 66.7148 130.08 66.6665 129.889 66.6678C129.68 66.7033 129.483 66.793 129.319 66.928L129.095 66.7842C129.141 66.6248 129.224 66.4785 129.337 66.3569C129.45 66.2353 129.59 66.1419 129.745 66.084C129.909 66.0352 130.082 66.0202 130.252 66.0399C130.422 66.0596 130.586 66.1137 130.735 66.1987C131.25 66.4764 131.654 66.9215 131.882 67.4604L131.668 67.6214Z" fill="#E28B6D"/>
<path opacity="0.6" d="M69.8416 131.249L66.6642 140.906L66.0068 133.36C67.9824 132.93 69.0609 132.139 69.8416 131.249Z" fill="#6F3428"/>
<path d="M0.237305 265.346H403.222" stroke="#102048" stroke-width="2" stroke-miterlimit="10"/>
</svg>
