<svg width="529" height="307" viewBox="0 0 529 307" fill="none" xmlns="http://www.w3.org/2000/svg">
<path d="M141.556 234.302C141.556 236.701 142.509 239.002 144.206 240.698C145.902 242.395 148.203 243.348 150.601 243.348H297.309C299.708 243.348 302.008 242.395 303.705 240.698C305.401 239.002 306.354 236.701 306.355 234.302V36.9148H141.556V234.302Z" fill="#E8E8E8"/>
<path d="M297.309 13.4866H150.601C148.203 13.4871 145.902 14.4403 144.206 16.1366C142.509 17.8329 141.556 20.1334 141.556 22.5324V36.9148H306.355V22.5324C306.354 20.1334 305.401 17.8329 303.705 16.1366C302.008 14.4403 299.708 13.4871 297.309 13.4866Z" fill="#176CFF"/>
<path d="M153.045 29.3686C154.767 29.3686 156.163 27.9727 156.163 26.2507C156.163 24.5287 154.767 23.1328 153.045 23.1328C151.323 23.1328 149.927 24.5287 149.927 26.2507C149.927 27.9727 151.323 29.3686 153.045 29.3686Z" fill="#373660"/>
<path d="M162.025 29.3686C163.747 29.3686 165.143 27.9727 165.143 26.2507C165.143 24.5287 163.747 23.1328 162.025 23.1328C160.303 23.1328 158.907 24.5287 158.907 26.2507C158.907 27.9727 160.303 29.3686 162.025 29.3686Z" fill="white"/>
<path d="M171.58 29.3686C173.302 29.3686 174.698 27.9727 174.698 26.2507C174.698 24.5287 173.302 23.1328 171.58 23.1328C169.858 23.1328 168.462 24.5287 168.462 26.2507C168.462 27.9727 169.858 29.3686 171.58 29.3686Z" fill="white"/>
<path d="M213.426 48.7856H157.83C155.458 48.7856 153.535 50.7085 153.535 53.0805V228.435C153.535 230.807 155.458 232.729 157.83 232.729H213.426C215.798 232.729 217.721 230.807 217.721 228.435V53.0805C217.721 50.7085 215.798 48.7856 213.426 48.7856Z" fill="white"/>
<path d="M180.788 56.0762H167.189C165.728 56.0762 164.544 57.2603 164.544 58.721V71.7031C164.544 73.1638 165.728 74.348 167.189 74.348H180.788C182.249 74.348 183.433 73.1638 183.433 71.7031V58.721C183.433 57.2603 182.249 56.0762 180.788 56.0762Z" fill="#E8E8E8"/>
<path d="M180.788 87.5012H167.189C165.728 87.5012 164.544 88.6854 164.544 90.1461V103.128C164.544 104.589 165.728 105.773 167.189 105.773H180.788C182.249 105.773 183.433 104.589 183.433 103.128V90.1461C183.433 88.6854 182.249 87.5012 180.788 87.5012Z" fill="#E8E8E8"/>
<path d="M180.788 118.927H167.189C165.728 118.927 164.544 120.112 164.544 121.572V134.554C164.544 136.015 165.728 137.199 167.189 137.199H180.788C182.249 137.199 183.433 136.015 183.433 134.554V121.572C183.433 120.112 182.249 118.927 180.788 118.927Z" fill="#E8E8E8"/>
<path d="M180.788 147.015H167.189C165.728 147.015 164.544 148.199 164.544 149.66V162.642C164.544 164.103 165.728 165.287 167.189 165.287H180.788C182.249 165.287 183.433 164.103 183.433 162.642V149.66C183.433 148.199 182.249 147.015 180.788 147.015Z" fill="#E8E8E8"/>
<path d="M180.355 178.44H166.755C165.294 178.44 164.11 179.624 164.11 181.085V194.067C164.11 195.527 165.294 196.712 166.755 196.712H180.355C181.816 196.712 183 195.527 183 194.067V181.085C183 179.624 181.816 178.44 180.355 178.44Z" fill="#E8E8E8"/>
<path d="M180.355 209.866H166.755C165.294 209.866 164.11 211.05 164.11 212.511V225.493C164.11 226.954 165.294 228.138 166.755 228.138H180.355C181.816 228.138 183 226.954 183 225.493V212.511C183 211.05 181.816 209.866 180.355 209.866Z" fill="#E8E8E8"/>
<path d="M199.243 57.6832L201.004 61.2498C201.052 61.3491 201.124 61.4352 201.213 61.5006C201.302 61.566 201.406 61.6088 201.515 61.6252L205.457 62.1977C205.582 62.2158 205.7 62.2687 205.796 62.3502C205.893 62.4317 205.965 62.5387 206.004 62.6591C206.043 62.7794 206.048 62.9083 206.017 63.0311C205.987 63.1539 205.923 63.2658 205.832 63.354L202.981 66.134C202.903 66.2116 202.846 66.3067 202.813 66.4113C202.781 66.5159 202.774 66.6268 202.793 66.7347L203.467 70.6578C203.488 70.7827 203.474 70.9109 203.426 71.0281C203.378 71.1453 203.299 71.2468 203.196 71.3211C203.094 71.3955 202.972 71.4397 202.846 71.4489C202.72 71.4581 202.594 71.4318 202.482 71.373L198.958 69.5203C198.861 69.4695 198.753 69.4429 198.643 69.4429C198.533 69.4429 198.425 69.4695 198.327 69.5203L194.802 71.373C194.69 71.432 194.564 71.4585 194.438 71.4494C194.311 71.4403 194.19 71.396 194.088 71.3216C193.985 71.2471 193.906 71.1455 193.858 71.0282C193.811 70.9109 193.797 70.7826 193.819 70.6578L194.493 66.7347C194.512 66.6268 194.505 66.5159 194.472 66.4113C194.44 66.3067 194.382 66.2116 194.305 66.134L191.438 63.3577C191.348 63.2695 191.284 63.1577 191.253 63.0348C191.223 62.912 191.227 62.7832 191.267 62.6628C191.306 62.5425 191.378 62.4355 191.474 62.354C191.571 62.2724 191.689 62.2196 191.814 62.2015L195.756 61.6289C195.865 61.6127 195.969 61.57 196.058 61.5046C196.147 61.4392 196.218 61.353 196.266 61.2535L198.029 57.687C198.085 57.5742 198.172 57.4793 198.279 57.4128C198.386 57.3463 198.509 57.3109 198.635 57.3106C198.761 57.3102 198.885 57.3448 198.992 57.4106C199.1 57.4764 199.187 57.5708 199.243 57.6832Z" fill="#176CFF"/>
<path d="M199.245 88.999L201.006 92.5655C201.054 92.6648 201.126 92.7509 201.215 92.8164C201.304 92.8818 201.407 92.9245 201.516 92.9409L205.458 93.504C205.584 93.5222 205.701 93.575 205.798 93.6565C205.895 93.7381 205.967 93.8451 206.006 93.9654C206.045 94.0857 206.049 94.2146 206.019 94.3374C205.989 94.4602 205.924 94.5721 205.834 94.6603L202.982 97.4403C202.905 97.5176 202.848 97.6124 202.815 97.7167C202.782 97.821 202.775 97.9316 202.795 98.0391L203.469 101.964C203.49 102.089 203.476 102.217 203.428 102.334C203.38 102.452 203.3 102.553 203.198 102.627C203.095 102.702 202.974 102.746 202.848 102.755C202.722 102.764 202.595 102.738 202.483 102.679L198.96 100.827C198.862 100.776 198.754 100.749 198.644 100.749C198.535 100.749 198.426 100.776 198.329 100.827L194.804 102.679C194.692 102.738 194.566 102.765 194.439 102.756C194.313 102.747 194.192 102.702 194.089 102.628C193.987 102.553 193.908 102.452 193.86 102.335C193.812 102.217 193.799 102.089 193.82 101.964L194.494 98.0391C194.513 97.9316 194.506 97.821 194.474 97.7167C194.441 97.6124 194.384 97.5176 194.306 97.4403L191.455 94.6603C191.364 94.5721 191.3 94.4602 191.27 94.3374C191.239 94.2146 191.244 94.0857 191.283 93.9654C191.322 93.8451 191.394 93.7381 191.491 93.6565C191.588 93.575 191.705 93.5222 191.83 93.504L195.772 92.9409C195.882 92.9247 195.985 92.882 196.074 92.8166C196.163 92.7511 196.235 92.6649 196.283 92.5655L198.046 88.999C198.104 88.8902 198.19 88.7993 198.296 88.7358C198.401 88.6724 198.522 88.6389 198.645 88.6389C198.769 88.6389 198.889 88.6724 198.995 88.7358C199.101 88.7993 199.187 88.8902 199.245 88.999Z" fill="#E8E8E8"/>
<path d="M199.245 120.315L201.006 123.881C201.054 123.981 201.126 124.067 201.215 124.132C201.304 124.198 201.407 124.24 201.516 124.257L205.458 124.829C205.584 124.847 205.701 124.9 205.798 124.982C205.895 125.063 205.967 125.17 206.006 125.291C206.045 125.411 206.049 125.54 206.019 125.663C205.989 125.785 205.924 125.897 205.834 125.986L202.982 128.766C202.905 128.843 202.848 128.938 202.815 129.042C202.782 129.146 202.775 129.257 202.795 129.364L203.469 133.289C203.49 133.414 203.476 133.542 203.428 133.66C203.38 133.777 203.3 133.878 203.198 133.953C203.095 134.027 202.974 134.071 202.848 134.08C202.722 134.09 202.595 134.063 202.483 134.005L198.96 132.152C198.863 132.1 198.754 132.073 198.644 132.073C198.534 132.073 198.426 132.1 198.329 132.152L194.804 134.005C194.692 134.064 194.566 134.09 194.439 134.081C194.313 134.072 194.192 134.028 194.089 133.953C193.987 133.879 193.908 133.777 193.86 133.66C193.812 133.542 193.799 133.414 193.82 133.289L194.494 129.364C194.513 129.257 194.506 129.146 194.474 129.042C194.441 128.938 194.384 128.843 194.306 128.766L191.455 125.986C191.364 125.897 191.3 125.785 191.27 125.663C191.239 125.54 191.244 125.411 191.283 125.291C191.322 125.17 191.394 125.063 191.491 124.982C191.588 124.9 191.705 124.847 191.83 124.829L195.772 124.257C195.882 124.241 195.985 124.198 196.074 124.132C196.163 124.067 196.235 123.981 196.283 123.881L198.046 120.315C198.103 120.206 198.189 120.114 198.295 120.05C198.401 119.986 198.522 119.953 198.645 119.953C198.769 119.953 198.89 119.986 198.996 120.05C199.101 120.114 199.188 120.206 199.245 120.315Z" fill="#E8E8E8"/>
<path d="M199.245 148.4L201.006 151.967C201.054 152.066 201.126 152.152 201.215 152.217C201.304 152.282 201.407 152.325 201.516 152.342L205.458 152.905C205.584 152.923 205.701 152.976 205.798 153.058C205.895 153.139 205.967 153.246 206.006 153.367C206.045 153.487 206.049 153.616 206.019 153.739C205.989 153.862 205.924 153.973 205.834 154.062L202.982 156.84C202.905 156.917 202.848 157.013 202.815 157.117C202.782 157.222 202.775 157.333 202.795 157.44L203.469 161.365C203.49 161.49 203.476 161.619 203.428 161.736C203.38 161.853 203.3 161.954 203.198 162.029C203.095 162.103 202.974 162.147 202.848 162.157C202.722 162.166 202.595 162.139 202.483 162.081L198.96 160.228C198.863 160.176 198.754 160.149 198.644 160.149C198.534 160.149 198.426 160.176 198.329 160.228L194.804 162.081C194.692 162.14 194.566 162.166 194.439 162.157C194.313 162.148 194.192 162.104 194.089 162.029C193.987 161.955 193.908 161.853 193.86 161.736C193.812 161.619 193.799 161.49 193.82 161.365L194.494 157.44C194.513 157.333 194.506 157.222 194.474 157.117C194.441 157.013 194.384 156.917 194.306 156.84L191.455 154.062C191.364 153.973 191.3 153.862 191.27 153.739C191.239 153.616 191.244 153.487 191.283 153.367C191.322 153.246 191.394 153.139 191.491 153.058C191.588 152.976 191.705 152.923 191.83 152.905L195.772 152.342C195.882 152.326 195.985 152.283 196.074 152.217C196.163 152.152 196.235 152.066 196.283 151.967L198.046 148.4C198.103 148.291 198.189 148.199 198.295 148.136C198.401 148.072 198.522 148.038 198.645 148.038C198.769 148.038 198.89 148.072 198.996 148.136C199.101 148.199 199.188 148.291 199.245 148.4Z" fill="#E8E8E8"/>
<path d="M199.245 180.88L201.006 184.446C201.054 184.545 201.126 184.631 201.215 184.697C201.304 184.762 201.407 184.805 201.516 184.822L205.458 185.394C205.584 185.412 205.701 185.465 205.798 185.547C205.895 185.628 205.967 185.735 206.006 185.855C206.045 185.976 206.049 186.105 206.019 186.227C205.989 186.35 205.924 186.462 205.834 186.55L202.982 189.33C202.905 189.408 202.848 189.503 202.815 189.608C202.782 189.712 202.775 189.823 202.795 189.931L203.469 193.856C203.49 193.981 203.476 194.109 203.428 194.227C203.38 194.344 203.301 194.445 203.198 194.52C203.095 194.594 202.974 194.638 202.848 194.647C202.721 194.656 202.595 194.629 202.483 194.569L198.96 192.717C198.862 192.666 198.754 192.639 198.644 192.639C198.535 192.639 198.426 192.666 198.329 192.717L194.804 194.569C194.692 194.628 194.566 194.655 194.44 194.646C194.314 194.637 194.193 194.592 194.09 194.518C193.988 194.444 193.909 194.343 193.861 194.226C193.813 194.109 193.799 193.981 193.82 193.856L194.494 189.931C194.513 189.823 194.506 189.712 194.474 189.608C194.441 189.503 194.384 189.408 194.306 189.33L191.455 186.55C191.364 186.462 191.3 186.35 191.27 186.227C191.239 186.105 191.244 185.976 191.283 185.855C191.322 185.735 191.394 185.628 191.491 185.547C191.588 185.465 191.705 185.412 191.83 185.394L195.772 184.822C195.882 184.805 195.985 184.762 196.074 184.697C196.163 184.632 196.235 184.545 196.283 184.446L198.046 180.88C198.104 180.771 198.19 180.68 198.296 180.616C198.401 180.553 198.522 180.52 198.645 180.52C198.769 180.52 198.889 180.553 198.995 180.616C199.101 180.68 199.187 180.771 199.245 180.88Z" fill="#E8E8E8"/>
<path d="M199.245 211.201L201.006 214.767C201.054 214.867 201.126 214.953 201.215 215.018C201.304 215.084 201.407 215.126 201.516 215.143L205.458 215.715C205.584 215.733 205.701 215.786 205.798 215.868C205.895 215.949 205.967 216.056 206.006 216.177C206.045 216.297 206.049 216.426 206.019 216.549C205.989 216.672 205.924 216.783 205.834 216.872L202.982 219.652C202.905 219.729 202.848 219.824 202.815 219.928C202.782 220.032 202.775 220.143 202.795 220.25L203.469 224.175C203.49 224.3 203.476 224.429 203.428 224.546C203.38 224.663 203.3 224.764 203.198 224.839C203.095 224.913 202.974 224.957 202.848 224.967C202.722 224.976 202.595 224.949 202.483 224.891L198.96 223.038C198.862 222.987 198.754 222.961 198.644 222.961C198.535 222.961 198.426 222.987 198.329 223.038L194.804 224.891C194.692 224.95 194.566 224.976 194.439 224.967C194.313 224.958 194.192 224.914 194.089 224.839C193.987 224.765 193.908 224.663 193.86 224.546C193.812 224.429 193.799 224.3 193.82 224.175L194.494 220.25C194.513 220.143 194.506 220.032 194.474 219.928C194.441 219.824 194.384 219.729 194.306 219.652L191.455 216.872C191.364 216.783 191.3 216.672 191.27 216.549C191.239 216.426 191.244 216.297 191.283 216.177C191.322 216.056 191.394 215.949 191.491 215.868C191.588 215.786 191.705 215.733 191.83 215.715L195.772 215.143C195.882 215.127 195.985 215.084 196.074 215.018C196.163 214.953 196.235 214.867 196.283 214.767L198.046 211.201C198.104 211.092 198.19 211.001 198.296 210.938C198.401 210.874 198.522 210.841 198.645 210.841C198.769 210.841 198.889 210.874 198.995 210.938C199.101 211.001 199.187 211.092 199.245 211.201Z" fill="#E8E8E8"/>
<path d="M294.304 48.7856H226.707C225.187 48.7856 223.955 50.0177 223.955 51.5375V77.986C223.955 79.5058 225.187 80.7378 226.707 80.7378H294.304C295.823 80.7378 297.055 79.5058 297.055 77.986V51.5375C297.055 50.0177 295.823 48.7856 294.304 48.7856Z" fill="white"/>
<path d="M292.011 52.8552H228.996V56.5794H292.011V52.8552Z" fill="#E8E8E8"/>
<path d="M292.011 59.551H228.996V63.2752H292.011V59.551Z" fill="#E8E8E8"/>
<path d="M292.011 66.2483H228.996V69.9725H292.011V66.2483Z" fill="#E8E8E8"/>
<path d="M260.503 72.9441H228.996V76.6683H260.503V72.9441Z" fill="#E8E8E8"/>
<path d="M294.304 86.7839H226.707C225.187 86.7839 223.955 88.016 223.955 89.5358V115.984C223.955 117.504 225.187 118.736 226.707 118.736H294.304C295.823 118.736 297.055 117.504 297.055 115.984V89.5358C297.055 88.016 295.823 86.7839 294.304 86.7839Z" fill="white"/>
<path d="M292.011 90.8518H228.996V94.576H292.011V90.8518Z" fill="#E8E8E8"/>
<path d="M292.011 97.5491H228.996V101.273H292.011V97.5491Z" fill="#E8E8E8"/>
<path d="M292.011 104.247H228.996V107.971H292.011V104.247Z" fill="#E8E8E8"/>
<path d="M260.503 110.943H228.996V114.667H260.503V110.943Z" fill="#E8E8E8"/>
<path d="M294.304 124.78H226.707C225.187 124.78 223.955 126.012 223.955 127.532V153.981C223.955 155.5 225.187 156.732 226.707 156.732H294.304C295.823 156.732 297.055 155.5 297.055 153.981V127.532C297.055 126.012 295.823 124.78 294.304 124.78Z" fill="white"/>
<path d="M292.011 128.85H228.996V132.574H292.011V128.85Z" fill="#E8E8E8"/>
<path d="M292.011 135.548H228.996V139.272H292.011V135.548Z" fill="#E8E8E8"/>
<path d="M292.011 142.243H228.996V145.967H292.011V142.243Z" fill="#E8E8E8"/>
<path d="M260.503 148.941H228.996V152.665H260.503V148.941Z" fill="#E8E8E8"/>
<path d="M294.304 162.779H226.707C225.187 162.779 223.955 164.011 223.955 165.531V191.979C223.955 193.499 225.187 194.731 226.707 194.731H294.304C295.823 194.731 297.055 193.499 297.055 191.979V165.531C297.055 164.011 295.823 162.779 294.304 162.779Z" fill="white"/>
<path d="M292.011 166.848H228.996V170.573H292.011V166.848Z" fill="#E8E8E8"/>
<path d="M292.011 173.544H228.996V177.268H292.011V173.544Z" fill="#E8E8E8"/>
<path d="M292.011 180.242H228.996V183.966H292.011V180.242Z" fill="#E8E8E8"/>
<path d="M260.503 186.939H228.996V190.663H260.503V186.939Z" fill="#E8E8E8"/>
<path d="M294.304 200.777H226.707C225.187 200.777 223.955 202.009 223.955 203.529V229.977C223.955 231.497 225.187 232.729 226.707 232.729H294.304C295.823 232.729 297.055 231.497 297.055 229.977V203.529C297.055 202.009 295.823 200.777 294.304 200.777Z" fill="white"/>
<path d="M292.011 204.845H228.996V208.569H292.011V204.845Z" fill="#E8E8E8"/>
<path d="M292.011 211.542H228.996V215.267H292.011V211.542Z" fill="#E8E8E8"/>
<path d="M292.011 218.24H228.996V221.964H292.011V218.24Z" fill="#E8E8E8"/>
<path d="M260.503 224.936H228.996V228.66H260.503V224.936Z" fill="#E8E8E8"/>
<path d="M382.201 280.678L382.698 291.245L380.07 292.499C380.07 292.499 385.276 298.079 394.456 295.528L394.77 280.678H382.201Z" fill="#FFD1C1"/>
<mask id="mask0_5200_24450" style="mask-type:luminance" maskUnits="userSpaceOnUse" x="380" y="280" width="15" height="17">
<path d="M382.201 280.678L382.698 291.245L380.07 292.499C380.07 292.499 385.276 298.079 394.456 295.528L394.77 280.678H382.201Z" fill="white"/>
</mask>
<g mask="url(#mask0_5200_24450)">
<path d="M381.137 288.057C381.137 288.057 389.704 287.449 396.004 284.243V279.822L380.08 279.657L381.137 288.057Z" fill="#FFB2A0"/>
</g>
<path d="M394.779 295.209V302.956H363.379C363.379 301.798 363.727 300.667 364.378 299.71C365.028 298.752 365.952 298.012 367.028 297.586L380.003 292.452C380.003 292.452 386.103 297.818 394.779 295.209Z" fill="black"/>
<path d="M378.439 293.069L379.498 295.211C379.553 295.322 379.585 295.444 379.592 295.569C379.599 295.693 379.581 295.818 379.538 295.935C379.495 296.053 379.429 296.16 379.344 296.251C379.259 296.342 379.156 296.415 379.041 296.465C378.829 296.557 378.59 296.566 378.371 296.491C378.152 296.415 377.97 296.259 377.861 296.055L376.639 293.782L378.439 293.069Z" fill="#373660"/>
<path d="M375.272 294.329L376.332 296.471C376.387 296.582 376.419 296.704 376.426 296.829C376.433 296.953 376.414 297.078 376.371 297.195C376.328 297.312 376.262 297.419 376.177 297.51C376.091 297.6 375.989 297.673 375.874 297.723C375.662 297.816 375.423 297.826 375.204 297.75C374.985 297.675 374.803 297.519 374.694 297.315L373.472 295.042L375.272 294.329Z" fill="#373660"/>
<path d="M371.693 295.744L372.751 297.886C372.807 297.998 372.839 298.119 372.847 298.244C372.854 298.368 372.835 298.493 372.793 298.61C372.75 298.727 372.684 298.834 372.598 298.925C372.513 299.016 372.41 299.088 372.295 299.138C372.083 299.231 371.844 299.241 371.625 299.165C371.406 299.09 371.224 298.935 371.115 298.731L369.893 296.457L371.693 295.744Z" fill="#373660"/>
<path d="M394.777 302.956H363.379V305.285H394.777V302.956Z" fill="#373660"/>
<path d="M458.832 254.555L468.55 258.733L468.531 261.635C468.531 261.635 475.827 259.401 477.554 250.029L464.339 243.247L458.832 254.555Z" fill="#FFD1C1"/>
<mask id="mask1_5200_24450" style="mask-type:luminance" maskUnits="userSpaceOnUse" x="458" y="243" width="20" height="19">
<path d="M458.831 254.555L468.549 258.733L468.53 261.635C468.53 261.635 475.826 259.401 477.553 250.029L464.338 243.247L458.831 254.555Z" fill="white"/>
</mask>
<g mask="url(#mask1_5200_24450)">
<path d="M469.654 244.42C469.654 244.42 469.918 258.174 467.371 259.702L460.664 257.41L463.804 242.393L469.654 244.42Z" fill="#FFB2A0"/>
</g>
<path d="M477.402 249.608L484.368 253L470.622 281.23C469.581 280.723 468.717 279.916 468.141 278.911C467.565 277.907 467.304 276.753 467.392 275.599L468.454 261.688C468.454 261.688 475.951 258.549 477.402 249.608Z" fill="black"/>
<path d="M468.326 263.362L470.716 263.347C470.84 263.346 470.964 263.371 471.079 263.419C471.194 263.468 471.297 263.539 471.384 263.629C471.471 263.718 471.538 263.824 471.583 263.941C471.627 264.057 471.648 264.182 471.643 264.306C471.633 264.537 471.536 264.756 471.373 264.919C471.209 265.083 470.99 265.179 470.759 265.188L468.18 265.292L468.326 263.362Z" fill="#373660"/>
<path d="M468.072 266.759L470.462 266.744C470.586 266.744 470.71 266.768 470.825 266.816C470.94 266.865 471.044 266.936 471.13 267.026C471.217 267.115 471.284 267.222 471.328 267.338C471.372 267.455 471.392 267.579 471.387 267.704C471.378 267.935 471.282 268.154 471.118 268.318C470.954 268.481 470.734 268.577 470.503 268.586L467.924 268.691L468.072 266.759Z" fill="#373660"/>
<path d="M467.776 270.591L470.168 270.576C470.292 270.575 470.416 270.6 470.531 270.648C470.645 270.697 470.749 270.768 470.836 270.857C470.922 270.947 470.989 271.053 471.034 271.17C471.078 271.286 471.098 271.41 471.093 271.535C471.083 271.766 470.987 271.985 470.823 272.149C470.66 272.312 470.44 272.408 470.209 272.417L467.63 272.52L467.776 270.591Z" fill="#373660"/>
<path d="M484.344 252.962L470.6 281.192L472.694 282.212L486.439 253.981L484.344 252.962Z" fill="#373660"/>
<path d="M383.875 107.188L356.907 79.0991L350.455 84.7436L373.536 117.873L383.875 107.188Z" fill="#FFD1C1"/>
<mask id="mask2_5200_24450" style="mask-type:luminance" maskUnits="userSpaceOnUse" x="350" y="79" width="34" height="39">
<path d="M383.874 107.188L356.906 79.0991L350.454 84.7436L373.535 117.873L383.874 107.188Z" fill="white"/>
</mask>
<g mask="url(#mask2_5200_24450)">
<path d="M362.846 106.681C362.846 106.681 374.803 107.111 383.419 103.665L386.186 106.895L372.556 120.253L362.846 106.681Z" fill="#FFB2A0"/>
</g>
<path d="M353.938 67.2075L336.784 77.8113L314.712 66.0005C314.382 66.3628 314.245 66.9203 314.384 67.5529L318.609 86.8214C318.857 87.9477 319.891 88.8862 320.92 88.9238L357.777 90.0557C358.806 90.0876 359.438 89.1978 359.191 88.0697L354.961 68.8011C354.812 68.1689 354.451 67.6066 353.938 67.2075Z" fill="#E8E8E8"/>
<mask id="mask3_5200_24450" style="mask-type:luminance" maskUnits="userSpaceOnUse" x="314" y="66" width="46" height="25">
<path d="M353.939 67.2077L336.784 77.8115L314.713 66.0007C314.383 66.363 314.246 66.9205 314.385 67.5531L318.61 86.8216C318.858 87.9479 319.892 88.8865 320.921 88.924L357.778 90.0559C358.807 90.0878 359.439 89.1981 359.192 88.0699L354.962 68.8014C354.813 68.1691 354.452 67.6069 353.939 67.2077Z" fill="white"/>
</mask>
<g mask="url(#mask3_5200_24450)">
<path d="M359.183 88.0697C359.183 88.0697 351.614 81.9109 351.299 81.4735C350.983 81.0362 350.06 79.4857 350.888 78.0947L359.235 82.8495L359.181 88.0622" fill="#D1D1D1"/>
<path d="M313.01 65.9988C313.01 65.9988 328.361 88.0436 340.695 91.2816H316.394L313.01 65.9988Z" fill="#D1D1D1"/>
</g>
<path d="M353.939 67.2076C353.573 66.9057 353.121 66.7281 352.647 66.7008L315.798 65.5633C315.596 65.5511 315.394 65.5838 315.206 65.6591C315.019 65.7344 314.85 65.8504 314.713 65.9988L336.784 77.8114L353.939 67.2076Z" fill="#176CFF"/>
<path d="M393.48 73.9202C397.969 73.9202 401.606 79.5797 401.606 86.5625V92.7044C401.606 95.1446 401.827 97.5797 402.265 99.9801L403.85 108.641L393.48 108.607V99.2105C388.992 99.2105 385.353 93.551 385.353 86.57C385.353 79.589 388.992 73.9202 393.48 73.9202Z" fill="#FFD1C1"/>
<mask id="mask4_5200_24450" style="mask-type:luminance" maskUnits="userSpaceOnUse" x="385" y="73" width="19" height="36">
<path d="M393.48 73.9202C397.969 73.9202 401.606 79.5797 401.606 86.5625V92.7044C401.606 95.1446 401.827 97.5797 402.265 99.9801L403.85 108.641L393.48 108.607V99.2105C388.992 99.2105 385.353 93.551 385.353 86.57C385.353 79.589 388.992 73.9202 393.48 73.9202Z" fill="white"/>
</mask>
<g mask="url(#mask4_5200_24450)">
<path d="M394.193 78.0461C394.193 78.0461 392.307 90.9982 384.132 92.8753C384.132 92.8753 381.975 82.5512 384.491 79.2212C387.006 75.8912 394.193 78.0461 394.193 78.0461Z" fill="#FFB2A0"/>
</g>
<path d="M420.565 160.911H376.415L379.4 153.085C380.471 150.269 380.731 147.209 380.151 144.252L378.593 136.289L369.25 144.344L359.033 130.28L380.804 107.789C385.036 104.575 390.204 102.835 395.519 102.835H404.716C404.855 102.835 404.994 102.835 405.131 102.835C412.771 103.066 418.536 109.884 417.744 117.477L416.531 129.109C415.698 137.105 416.34 145.185 418.425 152.948L420.565 160.911Z" fill="#1FC9AA"/>
<mask id="mask5_5200_24450" style="mask-type:luminance" maskUnits="userSpaceOnUse" x="359" y="102" width="62" height="59">
<path d="M420.565 160.911H376.415L379.4 153.085C380.471 150.269 380.731 147.209 380.151 144.252L378.593 136.289L369.25 144.344L359.033 130.28L380.804 107.789C385.036 104.575 390.204 102.835 395.519 102.835H404.716C404.855 102.835 404.994 102.835 405.131 102.835C412.771 103.066 418.536 109.884 417.744 117.477L416.531 129.109C415.698 137.105 416.34 145.185 418.425 152.948L420.565 160.911Z" fill="white"/>
</mask>
<g mask="url(#mask5_5200_24450)">
<path d="M378.601 136.289L385.358 130.19C385.358 130.19 384.36 145.599 389.002 150.463C393.644 155.327 403.855 163.04 403.855 163.04L370.935 162.837L377.424 148.441L378.606 136.293" fill="#16A68C"/>
<path d="M387.674 101.896C387.674 101.896 385.951 117.159 399.737 122.576C413.522 127.994 419.801 126.639 419.801 126.639L420.565 116.913C420.565 116.913 405.154 117.653 401.706 113.837C398.258 110.021 395.675 100.543 395.675 100.543L387.674 101.896Z" fill="#16A68C"/>
</g>
<path d="M390.91 72.6193C388.679 75.4612 388.42 80.5032 390.017 83.3451C390.741 84.629 391.761 85.7309 392.457 87.0299C393.968 89.8268 393.841 93.2112 393.349 96.3516C392.857 99.492 392.035 102.632 392.296 105.801C392.737 111.179 396.352 115.958 400.959 118.764C406.579 122.186 415.6 125.22 421.635 121.099C425.904 118.184 428.31 113.028 428.806 107.986C429.299 102.978 427.253 99.0453 423.251 96.1113C420.723 94.2568 416.897 93.3201 415.54 90.2735C414.697 88.3814 415.12 86.1852 414.808 84.1372C414.579 82.7207 414.004 81.3826 413.134 80.2415C412.264 79.1004 411.126 78.1916 409.82 77.5955C408.437 76.9817 406.913 76.7414 405.522 76.1426C403.806 75.4049 402.37 74.1566 400.885 73.0247C399.401 71.8929 397.764 70.8342 395.911 70.5845C393.719 70.286 392.055 71.1627 390.91 72.6193Z" fill="black"/>
<path d="M421.496 217.919L417.394 160.911H378.801C378.801 160.911 371.078 198.714 372.82 217.076C373.177 220.842 379.159 282.813 379.159 282.813H397.93L395.695 225.075C395.54 221.048 395.998 217.021 397.056 213.132L397.371 211.974L399.436 223.905C399.9 226.59 400.892 229.156 402.355 231.455C404.866 235.399 408.646 238.37 413.071 239.879L463.038 256.927L468.313 243.48L421.496 217.919Z" fill="#2C374A"/>
<path d="M397.384 212.479C397.305 212.479 397.228 212.46 397.157 212.424C397.087 212.388 397.025 212.336 396.979 212.273C396.932 212.209 396.9 212.135 396.887 212.057C396.874 211.98 396.879 211.9 396.902 211.824L408.463 174.451C408.503 174.323 408.592 174.216 408.71 174.153C408.828 174.091 408.967 174.078 409.095 174.118C409.223 174.157 409.33 174.246 409.392 174.364C409.455 174.483 409.468 174.621 409.428 174.749L397.867 212.122C397.835 212.226 397.772 212.316 397.685 212.381C397.598 212.445 397.493 212.479 397.384 212.479Z" fill="#4F5285"/>
<path d="M391.015 75.4949C391.131 76.8519 390.919 78.2169 390.399 79.4755C389.879 80.7342 389.065 81.85 388.025 82.7295C386.985 83.6091 385.75 84.2269 384.422 84.5312C383.095 84.8355 381.714 84.8176 380.395 84.4788C380.607 82.9133 380.173 81.3177 380.77 79.8554C381.419 78.2768 383.069 77.3533 384.688 76.8126C384.945 76.7263 385.224 76.6249 385.38 76.4109C385.477 76.244 385.533 76.0559 385.542 75.8628C385.65 74.9843 385.705 74.0664 386.131 73.2893C386.694 72.2682 387.82 71.6637 388.962 71.4385C389.859 71.262 390.906 71.3352 391.515 72.0166C391.976 72.5347 392.078 73.3081 391.89 73.9763C391.76 74.5599 391.455 75.0897 391.015 75.4949Z" fill="black"/>
<path d="M322.651 57.289C322.734 55.8155 323.027 54.907 323.564 54.7718C325.172 54.3626 328.303 61.2178 330.554 70.0815C332.805 78.9452 333.327 86.4612 331.718 86.8704C331.187 87.0056 330.49 86.3504 329.715 85.0928C329.88 82.0894 329.152 76.7622 327.65 70.8267C326.148 64.8913 324.228 59.8438 322.651 57.289Z" fill="#4F5285"/>
<path d="M322.753 56.3032C324.655 58.7735 327.221 64.6038 328.73 70.5449C330.239 76.4859 330.652 82.6823 330.162 85.7607C328.261 83.2904 326.235 77.5014 324.719 71.5604C323.202 65.6193 322.262 59.3817 322.753 56.3032Z" fill="#E8E8E8"/>
<mask id="mask6_5200_24450" style="mask-type:luminance" maskUnits="userSpaceOnUse" x="322" y="56" width="9" height="30">
<path d="M322.754 56.3037C324.656 58.774 327.222 64.6043 328.731 70.5454C330.24 76.4864 330.653 82.6828 330.163 85.7612C328.262 83.2909 326.236 77.5019 324.72 71.5609C323.203 65.6198 322.263 59.3822 322.754 56.3037Z" fill="white"/>
</mask>
<g mask="url(#mask6_5200_24450)">
<path d="M327.85 65.0471C327.735 65.5708 324.734 74.4327 324.734 74.4327L322.793 68.2532L325.898 60.9175L327.85 65.0471Z" fill="url(#paint0_linear_5200_24450)"/>
<path d="M328.99 69.9746L326.31 78.8102L327.603 82.8816L329.844 74.9246L328.99 69.9746Z" fill="url(#paint1_linear_5200_24450)"/>
</g>
<path d="M320.648 55.5113C319.039 55.9205 319.561 63.4383 321.812 72.3021C324.062 81.1658 327.193 88.0191 328.804 87.6099L331.717 86.8703C331.186 87.0055 330.489 86.3504 329.714 85.0927C328.139 82.5398 326.234 77.5017 324.725 71.5606C323.216 65.6195 322.485 60.2848 322.651 57.2946C322.733 55.821 323.026 54.9125 323.563 54.7773L320.648 55.5113Z" fill="black"/>
<path d="M328.98 89.668L331.176 98.3172C331.27 98.6879 331.647 98.9122 332.018 98.818L333.732 98.3828C334.103 98.2886 334.327 97.9117 334.233 97.5409L332.036 88.8917C331.942 88.5209 331.565 88.2967 331.194 88.3909L329.48 88.8261C329.11 88.9203 328.885 89.2972 328.98 89.668Z" fill="#373660"/>
<path d="M329.012 87.567L329.341 88.8606L331.313 88.3597L330.984 87.0662L329.012 87.567Z" fill="#4F5285"/>
<path d="M338.203 100.438C338.203 100.438 334.414 91.1163 333.815 90.4218C333.216 89.7273 325.931 90.1872 325.3 92.8621C324.602 95.8654 323.834 99.5164 330.357 104.418L346.057 141.483C346.925 143.363 348.227 145.011 349.857 146.288C351.971 147.948 354.546 148.915 357.23 149.059C359.914 149.203 362.577 148.516 364.857 147.092L369.258 144.344L338.203 100.438Z" fill="#FFD1C1"/>
<mask id="mask7_5200_24450" style="mask-type:luminance" maskUnits="userSpaceOnUse" x="324" y="90" width="46" height="60">
<path d="M338.203 100.438C338.203 100.438 334.414 91.1163 333.815 90.4218C333.216 89.7273 325.931 90.1872 325.3 92.8621C324.602 95.8654 323.834 99.5164 330.357 104.418L346.057 141.483C346.925 143.363 348.227 145.011 349.857 146.288C351.971 147.948 354.546 148.915 357.23 149.059C359.914 149.203 362.577 148.516 364.857 147.092L369.258 144.344L338.203 100.438Z" fill="white"/>
</mask>
<g mask="url(#mask7_5200_24450)">
<path d="M359.041 128.45C359.041 128.45 362.946 145.708 357.628 150.426C357.628 150.426 367.963 149.823 371.674 143.903L360.939 126.744L359.041 128.45Z" fill="#FFB2A0"/>
</g>
<path d="M357.308 79.5177C357.308 79.5177 351.362 77.6406 350.89 78.1024C350.588 78.4027 350.89 80.1672 351.752 80.6158C352.471 80.9913 358.493 84.9182 358.493 84.9182C358.493 84.9182 358.324 80.9237 357.308 79.5177Z" fill="#FFD1C1"/>
<path d="M365.956 0.0990086C361.018 0.0326841 356.08 0.0589633 351.142 0.177847C346.207 0.299859 341.272 0.528868 336.35 0.894905C326.505 1.61759 316.693 2.92218 307.067 5.05083C302.25 6.10155 297.489 7.39337 292.801 8.92143C288.117 10.4575 283.533 12.2844 279.076 14.3913C274.622 16.497 270.334 18.938 266.25 21.6933C262.165 24.4445 258.34 27.5635 254.824 31.0113L254.488 31.3266C254.377 31.4336 254.274 31.5481 254.167 31.6589L253.53 32.3253L252.254 33.658L251.617 34.3244L251.015 35.0227L249.812 36.4211L249.211 37.1194L248.911 37.4704L248.629 37.8365L247.503 39.295L246.377 40.7554L245.314 42.257C242.52 46.3082 240.101 50.6051 238.085 55.0946C234.042 64.0672 231.497 73.693 230.344 83.4634C229.192 93.2338 229.445 103.186 231.283 112.853C231.743 115.269 232.313 117.662 232.972 120.026C233.654 122.383 234.462 124.701 235.394 126.971C236.324 129.241 237.4 131.449 238.615 133.58C242.238 140.007 247.133 145.627 253.001 150.099C256.913 153.072 261.165 155.569 265.668 157.536C267.92 158.531 270.21 159.413 272.543 160.179C274.877 160.945 277.253 161.596 279.646 162.154C282.04 162.711 284.459 163.179 286.89 163.554C289.321 163.93 291.771 164.205 294.222 164.414C304.038 165.24 313.932 164.829 323.708 163.558C328.588 162.913 333.439 162.053 338.261 160.977C340.668 160.441 343.061 159.853 345.441 159.212L347.222 158.722L348.993 158.195L350.765 157.667L352.52 157.093C361.896 154.032 370.915 149.979 379.856 145.799C384.329 143.707 388.791 141.586 393.289 139.538C395.541 138.513 397.8 137.512 400.065 136.535C401.191 136.032 402.351 135.596 403.494 135.123C404.069 134.894 404.64 134.656 405.218 134.434L406.963 133.808C411.617 132.125 416.375 130.745 421.207 129.678C426.037 128.622 430.926 127.857 435.848 127.388C440.766 126.904 445.707 126.674 450.646 126.62C455.584 126.566 460.525 126.691 465.46 126.9C460.525 126.731 455.584 126.652 450.648 126.742C445.711 126.832 440.778 127.086 435.869 127.6C430.959 128.099 426.084 128.892 421.269 129.974C416.459 131.067 411.724 132.47 407.095 134.174L405.358 134.808C404.784 135.031 404.217 135.272 403.645 135.501C402.505 135.972 401.356 136.413 400.23 136.922C397.966 137.902 395.716 138.915 393.473 139.946C388.988 142.01 384.538 144.147 380.07 146.255C371.141 150.471 362.115 154.566 352.711 157.679L350.949 158.263L349.173 158.799L347.395 159.334L345.606 159.834C343.221 160.487 340.821 161.086 338.406 161.632C333.579 162.726 328.709 163.597 323.796 164.245C313.984 165.534 304.036 165.961 294.156 165.142C291.687 164.936 289.227 164.65 286.774 164.284C284.321 163.919 281.887 163.452 279.472 162.884C277.058 162.321 274.663 161.664 272.303 160.898C269.944 160.132 267.624 159.24 265.358 158.236C260.797 156.252 256.488 153.732 252.524 150.728C248.567 147.704 245.031 144.165 242.012 140.205C240.516 138.217 239.152 136.134 237.93 133.967C236.69 131.814 235.591 129.584 234.639 127.29C233.699 124.991 232.884 122.642 232.199 120.255C231.529 117.861 230.956 115.447 230.496 113.009C228.662 103.248 228.431 93.2319 229.593 83.3902C230.755 73.5485 233.347 63.8682 237.428 54.8206C239.463 50.2938 241.91 45.9639 244.738 41.8854L245.815 40.3687L246.957 38.9008L248.098 37.4329L248.383 37.0575L248.687 36.7064L249.297 36.0025L250.516 34.5984L251.124 33.8964L251.769 33.2263L253.059 31.8879L253.705 31.2178C253.814 31.107 253.917 30.9925 254.03 30.8855L254.369 30.5683C257.924 27.1094 261.787 23.9829 265.912 21.2278C270.028 18.471 274.349 16.0319 278.836 13.9314C283.319 11.8319 287.929 10.0139 292.638 8.48782C297.346 6.96977 302.129 5.69293 306.968 4.66227C316.639 2.58618 326.469 1.34166 336.328 0.679035C341.257 0.343658 346.192 0.134674 351.132 0.0520809C356.073 -0.030512 361.014 -0.0148694 365.956 0.0990086Z" fill="#2C374A"/>
<path d="M471.841 127.085L508.154 125.546L473.983 138.166L471.841 127.085Z" fill="#176CFF"/>
<path d="M477.282 126.855L474.339 121.154L508.153 125.546L477.282 126.855Z" fill="#1658CA"/>
<path d="M474.339 121.154L481.286 113.784L508.153 125.546L474.339 121.154Z" fill="#176CFF"/>
<path d="M444.633 227.032H440.472V299.943H444.633V227.032Z" fill="#1658CA"/>
<path d="M472.122 305.285H414.955L431.286 297.43C434.817 295.73 438.678 294.823 442.596 294.772C446.515 294.72 450.398 295.525 453.973 297.131L472.122 305.285Z" fill="#176CFF"/>
<path d="M416.829 225.491C421.322 225.492 425.752 224.431 429.758 222.397C433.763 220.362 437.232 217.41 439.882 213.782L477.205 162.685C478.585 160.794 480.393 159.256 482.481 158.196C484.568 157.136 486.877 156.583 489.218 156.584L470.4 218.277C469.484 221.277 467.63 223.902 465.11 225.768C462.589 227.634 459.536 228.642 456.401 228.643H410.524C410.317 228.643 410.112 228.602 409.921 228.523C409.729 228.444 409.556 228.328 409.409 228.182C409.263 228.036 409.147 227.862 409.067 227.671C408.988 227.48 408.947 227.275 408.947 227.068C408.947 226.65 409.113 226.249 409.409 225.953C409.705 225.657 410.106 225.491 410.524 225.491H416.829Z" fill="#176CFF"/>
<path d="M206.36 203.477H34.4096C34.2416 203.477 34.1055 203.613 34.1055 203.781V211.929C34.1055 212.097 34.2416 212.233 34.4096 212.233H206.36C206.528 212.233 206.665 212.097 206.665 211.929V203.781C206.665 203.613 206.528 203.477 206.36 203.477Z" fill="#1FC9AA"/>
<path d="M44.8071 306.008H40.8164L68.7553 212.154H72.7479L44.8071 306.008Z" fill="#16A68C"/>
<path d="M188.479 306.008H192.47L164.529 212.154H160.538L188.479 306.008Z" fill="#16A68C"/>
<path d="M165.244 132.482H73.8606C71.9986 132.482 70.4893 133.992 70.4893 135.853V182.719C70.4893 184.581 71.9986 186.091 73.8606 186.091H165.244C167.106 186.091 168.615 184.581 168.615 182.719V135.853C168.615 133.992 167.106 132.482 165.244 132.482Z" fill="#2C374A"/>
<path d="M129.547 186.089H109.558V203.475H129.547V186.089Z" fill="#242D3F"/>
<path d="M164.394 137.199H74.7148V178.755H164.394V137.199Z" fill="#394760"/>
<mask id="mask8_5200_24450" style="mask-type:luminance" maskUnits="userSpaceOnUse" x="74" y="137" width="91" height="42">
<path d="M164.393 137.199H74.7139V178.755H164.393V137.199Z" fill="white"/>
</mask>
<g mask="url(#mask8_5200_24450)">
<path opacity="0.08" d="M92.3297 135.547L80.8887 182.103H102.656L115.598 135.547H92.3297Z" fill="#7587A7"/>
<path opacity="0.08" d="M137.27 134.699L125.021 181.255H147.596L160.538 134.699H137.27Z" fill="#7587A7"/>
<path opacity="0.08" d="M123.549 135.63L110.993 180.324H116.718L129.776 135.63H123.549Z" fill="#7587A7"/>
</g>
<path d="M137.649 200.081H101.458V203.476H137.649V200.081Z" fill="#2C374A"/>
<path d="M164.111 203.476H150.706V202.435C150.706 200.657 151.412 198.953 152.669 197.696C153.926 196.439 155.63 195.733 157.407 195.733C158.288 195.733 159.159 195.906 159.972 196.243C160.786 196.58 161.525 197.073 162.147 197.695C162.77 198.318 163.263 199.057 163.6 199.87C163.937 200.683 164.111 201.555 164.111 202.435V203.476Z" fill="#2C374A"/>
<path d="M348.153 261.676H313.674V305.982H348.153V261.676Z" fill="#D1D1D1"/>
<path d="M330.65 267.91H330.764C331.369 267.91 331.948 268.15 332.376 268.578C332.803 269.005 333.043 269.585 333.043 270.189V305.982H328.371V270.189C328.371 269.585 328.611 269.005 329.039 268.578C329.466 268.15 330.046 267.91 330.65 267.91Z" fill="#B5B5B5"/>
<path d="M323.301 267.91H323.416C324.02 267.91 324.6 268.15 325.027 268.578C325.455 269.005 325.695 269.585 325.695 270.189V305.982H321.022V270.189C321.022 269.585 321.263 269.005 321.69 268.578C322.117 268.15 322.697 267.91 323.301 267.91Z" fill="#B5B5B5"/>
<path d="M315.951 267.91H316.066C316.67 267.91 317.25 268.15 317.677 268.578C318.105 269.005 318.345 269.585 318.345 270.189V305.982H313.665V270.189C313.665 269.889 313.724 269.592 313.839 269.315C313.954 269.038 314.123 268.787 314.335 268.575C314.548 268.363 314.8 268.196 315.077 268.081C315.354 267.967 315.651 267.909 315.951 267.91Z" fill="#B5B5B5"/>
<path d="M345.565 267.91H345.679C346.284 267.91 346.863 268.15 347.291 268.578C347.718 269.005 347.958 269.585 347.958 270.189V305.982H343.286V270.189C343.286 269.585 343.526 269.005 343.954 268.578C344.381 268.15 344.961 267.91 345.565 267.91Z" fill="#B5B5B5"/>
<path d="M338.216 267.91H338.331C338.63 267.91 338.926 267.969 339.203 268.084C339.479 268.198 339.731 268.366 339.942 268.578C340.154 268.789 340.322 269.04 340.436 269.317C340.551 269.593 340.61 269.89 340.61 270.189V305.982H335.938V270.189C335.938 269.585 336.178 269.005 336.605 268.578C337.032 268.15 337.612 267.91 338.216 267.91Z" fill="#B5B5B5"/>
<path d="M325.589 247.224L302.86 277.378C302.819 277.433 302.768 277.479 302.709 277.514C302.65 277.549 302.584 277.571 302.516 277.581C302.449 277.59 302.38 277.586 302.313 277.569C302.247 277.551 302.185 277.521 302.13 277.48L299.226 275.283C299.116 275.2 299.043 275.077 299.024 274.94C299.004 274.803 299.04 274.664 299.123 274.553L321.851 244.399C321.935 244.289 322.058 244.217 322.195 244.198C322.332 244.179 322.471 244.215 322.581 244.298L325.487 246.487C325.543 246.528 325.59 246.58 325.625 246.64C325.66 246.699 325.683 246.766 325.693 246.834C325.702 246.903 325.698 246.973 325.68 247.04C325.662 247.107 325.631 247.169 325.589 247.224Z" fill="#B5B5B5"/>
<path d="M320.461 246.252L300.515 272.719C300.166 272.457 299.872 272.127 299.65 271.751C299.428 271.375 299.283 270.958 299.222 270.526C299.161 270.093 299.186 269.653 299.295 269.23C299.405 268.807 299.596 268.409 299.859 268.06L315.802 246.909C316.333 246.205 317.122 245.741 317.996 245.618C318.87 245.496 319.756 245.725 320.461 246.256V246.252Z" fill="#D1D1D1"/>
<path d="M305.061 258.347L307.7 254.847C307.805 254.708 307.961 254.616 308.133 254.592C308.306 254.567 308.481 254.613 308.62 254.718L309.456 255.348L306.027 259.897L305.186 259.263C305.049 259.158 304.958 259.002 304.935 258.831C304.912 258.659 304.957 258.485 305.061 258.347Z" fill="#B5B5B5"/>
<path d="M343.845 261.676H323.613L330.371 241.653C330.525 241.183 330.859 240.792 331.3 240.567C331.741 240.341 332.253 240.299 332.725 240.45L347.229 245.143C347.463 245.218 347.679 245.338 347.866 245.497C348.053 245.656 348.207 245.85 348.319 246.069C348.431 246.287 348.498 246.526 348.518 246.77C348.537 247.015 348.508 247.261 348.432 247.495L343.845 261.676Z" fill="#E8E8E8"/>
<mask id="mask9_5200_24450" style="mask-type:luminance" maskUnits="userSpaceOnUse" x="323" y="240" width="26" height="22">
<path d="M343.846 261.676H323.614L330.372 241.653C330.526 241.183 330.86 240.792 331.301 240.567C331.742 240.341 332.254 240.299 332.726 240.45L347.23 245.143C347.464 245.218 347.68 245.338 347.867 245.497C348.054 245.656 348.208 245.85 348.32 246.069C348.432 246.287 348.499 246.526 348.519 246.77C348.538 247.015 348.509 247.261 348.433 247.495L343.846 261.676Z" fill="white"/>
</mask>
<g mask="url(#mask9_5200_24450)">
<path opacity="0.44" d="M345.621 258.483C344.964 258.217 327.95 261.674 327.95 261.674H343.846L345.621 258.483Z" fill="#B5B5B5"/>
<path d="M331.31 240.557L335.592 257.693L331.53 261.678H323.614L330.372 241.655C330.531 241.181 330.867 240.788 331.31 240.557Z" fill="#176CFF"/>
</g>
<path d="M528.292 306.716H0.70767C0.519984 306.716 0.339987 306.641 0.207272 306.508C0.0745584 306.376 0 306.196 0 306.008C0 305.82 0.0745584 305.64 0.207272 305.508C0.339987 305.375 0.519984 305.3 0.70767 305.3H528.292C528.48 305.3 528.66 305.375 528.793 305.508C528.925 305.64 529 305.82 529 306.008C529 306.196 528.925 306.376 528.793 306.508C528.66 306.641 528.48 306.716 528.292 306.716Z" fill="#373660"/>
<defs>
<linearGradient id="paint0_linear_5200_24450" x1="313.012" y1="75.7218" x2="318.841" y2="68.6449" gradientUnits="userSpaceOnUse">
<stop stop-color="white"/>
<stop offset="1" stop-color="#E8E8E8"/>
</linearGradient>
<linearGradient id="paint1_linear_5200_24450" x1="316.092" y1="84.4079" x2="321.749" y2="77.5383" gradientUnits="userSpaceOnUse">
<stop stop-color="white"/>
<stop offset="1" stop-color="#E8E8E8"/>
</linearGradient>
</defs>
</svg>
