<svg width="324" height="330" viewBox="0 0 324 330" fill="none" xmlns="http://www.w3.org/2000/svg">
<g clip-path="url(#clip0_4954_21510)">
<path d="M28.7592 304.09C24.9088 311.009 38.5545 320.98 45.415 325.421H139.594C139.117 321.155 136.997 311.409 127.591 308.632C115.45 305.054 115.3 314.249 115.3 314.249C115.3 314.249 105.128 288.853 92.8993 289.866C80.6708 290.879 87.8825 306.13 87.8825 306.13C87.8825 306.13 43.0822 257.339 30.8662 267.535C18.6502 277.731 53.2538 313.236 53.2538 313.236C53.2538 313.236 33.8513 294.945 28.7592 304.09Z" fill="#EBEBEB"/>
<path d="M88.6348 328.974L67.8902 306.418L66.4353 291.831L64.9177 291.981L66.1719 304.554L37.7264 273.628L36.5977 274.654L51.4475 290.792L38.8176 288.615L38.5542 290.117L53.1281 292.631L66.4228 307.081L66.4353 307.218L66.5482 307.206L87.506 330L88.6348 328.974Z" fill="white"/>
<path d="M240.633 312.436C243.003 316.677 234.612 322.807 230.398 325.534H172.517C172.818 322.919 174.122 316.927 179.904 315.225C187.429 313.024 187.429 318.666 187.429 318.666C187.429 318.666 193.7 303.065 201.225 303.653C208.751 304.241 204.361 313.662 204.361 313.662C204.361 313.662 231.878 283.712 239.391 289.892C246.904 296.072 225.595 317.978 225.595 317.978C225.595 317.978 237.497 306.818 240.633 312.436Z" fill="#EBEBEB"/>
<path d="M276.516 312.436C278.886 316.677 270.508 322.807 266.294 325.534H208.412C208.713 322.919 210.018 316.927 215.787 315.225C223.312 313.024 223.312 318.666 223.312 318.666C223.312 318.666 229.583 303.065 237.108 303.653C244.634 304.241 240.231 313.662 240.231 313.662C240.231 313.662 267.824 283.712 275.274 289.892C282.724 296.072 261.478 317.978 261.478 317.978C261.478 317.978 273.393 306.818 276.516 312.436Z" fill="#EBEBEB"/>
<path d="M203.847 327.723L216.589 313.861L217.48 304.904L218.421 304.991L217.643 312.723L235.127 293.707L235.816 294.345L226.698 304.266L234.449 302.927L234.612 303.853L225.657 305.392L217.492 314.274L217.48 314.349H217.417L204.536 328.348L203.847 327.723Z" fill="white"/>
<path d="M24.3066 25.7842V111.631C24.3066 113.622 25.0994 115.531 26.5107 116.938C27.922 118.346 29.8361 119.137 31.8319 119.137H180.293C182.289 119.137 184.203 118.346 185.614 116.938C187.025 115.531 187.818 113.622 187.818 111.631V25.7842H24.3066Z" fill="#EBEBEB"/>
<path d="M180.292 8.68262H31.8944C29.9036 8.69896 27.999 9.49505 26.5913 10.8992C25.1835 12.3034 24.3855 14.2031 24.3691 16.1889V31.4891H187.818V16.2514C187.818 14.2548 187.027 12.3391 185.617 10.9215C184.208 9.50384 182.294 8.69912 180.292 8.68262Z" fill="#1FC9AA"/>
<path d="M41.5897 20.1043C41.1104 20.1043 40.6358 20.0101 40.193 19.8271C39.7502 19.6442 39.3478 19.376 39.0089 19.038C38.67 18.6999 38.4012 18.2986 38.2178 17.8569C38.0344 17.4152 37.9399 16.9418 37.9399 16.4637V3.64054C37.9399 3.16246 38.0344 2.68907 38.2178 2.24738C38.4012 1.80569 38.67 1.40435 39.0089 1.0663C39.3478 0.728241 39.7502 0.460075 40.193 0.277121C40.6358 0.0941668 41.1104 0 41.5897 0C42.5577 0 43.486 0.383563 44.1704 1.0663C44.8549 1.74903 45.2394 2.67501 45.2394 3.64054V16.4762C45.2361 17.4396 44.8501 18.3624 44.166 19.0424C43.4819 19.7224 42.5555 20.1043 41.5897 20.1043Z" fill="url(#paint0_linear_4954_21510)"/>
<path d="M84.5837 20.1043C84.1044 20.1043 83.6299 20.0101 83.1871 19.8271C82.7443 19.6442 82.3419 19.376 82.003 19.038C81.6641 18.6999 81.3952 18.2986 81.2118 17.8569C81.0284 17.4152 80.9341 16.9418 80.9341 16.4637V3.64054C80.9341 3.16246 81.0284 2.68907 81.2118 2.24738C81.3952 1.80569 81.6641 1.40435 82.003 1.0663C82.3419 0.728241 82.7443 0.460075 83.1871 0.277121C83.6299 0.0941668 84.1044 0 84.5837 0C85.5517 0 86.4801 0.383563 87.1646 1.0663C87.849 1.74903 88.2335 2.67501 88.2335 3.64054V16.4762C88.2302 17.4396 87.8442 18.3624 87.1601 19.0424C86.476 19.7224 85.5495 20.1043 84.5837 20.1043Z" fill="url(#paint1_linear_4954_21510)"/>
<path d="M127.616 20.1043C127.136 20.1059 126.66 20.013 126.215 19.8308C125.771 19.6486 125.367 19.3807 125.027 19.0424C124.687 18.7042 124.417 18.3023 124.233 17.8598C124.049 17.4173 123.954 16.9429 123.954 16.4637V3.64056C123.954 3.16142 124.049 2.687 124.233 2.2445C124.417 1.80199 124.687 1.40011 125.027 1.06189C125.367 0.723669 125.771 0.45577 126.215 0.273553C126.66 0.0913368 127.136 -0.00162502 127.616 2.14949e-05C128.584 2.14949e-05 129.512 0.383584 130.197 1.06632C130.881 1.74905 131.266 2.67503 131.266 3.64056V16.4763C131.262 17.4396 130.876 18.3624 130.192 19.0424C129.508 19.7224 128.582 20.1043 127.616 20.1043Z" fill="url(#paint2_linear_4954_21510)"/>
<path d="M170.56 20.1043C169.592 20.1043 168.664 19.7207 167.979 19.038C167.295 18.3553 166.91 17.4293 166.91 16.4637V3.64056C166.91 2.67503 167.295 1.74905 167.979 1.06632C168.664 0.383584 169.592 2.14949e-05 170.56 2.14949e-05C171.04 -0.00162502 171.516 0.0913368 171.961 0.273553C172.405 0.45577 172.809 0.723669 173.149 1.06189C173.489 1.40011 173.759 1.80199 173.943 2.2445C174.127 2.687 174.222 3.16142 174.222 3.64056V16.4763C174.221 16.9543 174.125 17.4274 173.94 17.8685C173.755 18.3095 173.485 18.71 173.144 19.0468C172.804 19.3837 172.401 19.6505 171.958 19.832C171.514 20.0134 171.039 20.1059 170.56 20.1043Z" fill="url(#paint3_linear_4954_21510)"/>
<path d="M63.9772 41.5469H46.5939C45.8943 41.5469 45.3271 42.1126 45.3271 42.8104V60.1499C45.3271 60.8477 45.8943 61.4134 46.5939 61.4134H63.9772C64.6769 61.4134 65.244 60.8477 65.244 60.1499V42.8104C65.244 42.1126 64.6769 41.5469 63.9772 41.5469Z" fill="white"/>
<path d="M89.3752 41.5469H71.9919C71.2922 41.5469 70.7251 42.1126 70.7251 42.8104V60.1499C70.7251 60.8477 71.2922 61.4134 71.9919 61.4134H89.3752C90.0748 61.4134 90.6419 60.8477 90.6419 60.1499V42.8104C90.6419 42.1126 90.0748 41.5469 89.3752 41.5469Z" fill="white"/>
<path d="M114.773 41.5469H97.3893C96.6897 41.5469 96.1226 42.1126 96.1226 42.8104V60.1499C96.1226 60.8477 96.6897 61.4134 97.3893 61.4134H114.773C115.472 61.4134 116.039 60.8477 116.039 60.1499V42.8104C116.039 42.1126 115.472 41.5469 114.773 41.5469Z" fill="white"/>
<path d="M140.171 41.5469H122.787C122.088 41.5469 121.521 42.1126 121.521 42.8104V60.1499C121.521 60.8477 122.088 61.4134 122.787 61.4134H140.171C140.87 61.4134 141.437 60.8477 141.437 60.1499V42.8104C141.437 42.1126 140.87 41.5469 140.171 41.5469Z" fill="white"/>
<path d="M165.568 41.5469H148.185C147.485 41.5469 146.918 42.1126 146.918 42.8104V60.1499C146.918 60.8477 147.485 61.4134 148.185 61.4134H165.568C166.268 61.4134 166.835 60.8477 166.835 60.1499V42.8104C166.835 42.1126 166.268 41.5469 165.568 41.5469Z" fill="white"/>
<path d="M63.9772 65.6172H46.5939C45.8943 65.6172 45.3271 66.1829 45.3271 66.8807V84.2202C45.3271 84.918 45.8943 85.4837 46.5939 85.4837H63.9772C64.6769 85.4837 65.244 84.918 65.244 84.2202V66.8807C65.244 66.1829 64.6769 65.6172 63.9772 65.6172Z" fill="white"/>
<path d="M89.3752 65.6172H71.9919C71.2922 65.6172 70.7251 66.1829 70.7251 66.8807V84.2202C70.7251 84.918 71.2922 85.4837 71.9919 85.4837H89.3752C90.0748 85.4837 90.6419 84.918 90.6419 84.2202V66.8807C90.6419 66.1829 90.0748 65.6172 89.3752 65.6172Z" fill="#1FC9AA"/>
<path d="M114.773 65.6172H97.3893C96.6897 65.6172 96.1226 66.1829 96.1226 66.8807V84.2202C96.1226 84.918 96.6897 85.4837 97.3893 85.4837H114.773C115.472 85.4837 116.039 84.918 116.039 84.2202V66.8807C116.039 66.1829 115.472 65.6172 114.773 65.6172Z" fill="white"/>
<path d="M140.171 65.6172H122.787C122.088 65.6172 121.521 66.1829 121.521 66.8807V84.2202C121.521 84.918 122.088 85.4837 122.787 85.4837H140.171C140.87 85.4837 141.437 84.918 141.437 84.2202V66.8807C141.437 66.1829 140.87 65.6172 140.171 65.6172Z" fill="white"/>
<path d="M165.568 65.6172H148.185C147.485 65.6172 146.918 66.1829 146.918 66.8807V84.2202C146.918 84.918 147.485 85.4837 148.185 85.4837H165.568C166.268 85.4837 166.835 84.918 166.835 84.2202V66.8807C166.835 66.1829 166.268 65.6172 165.568 65.6172Z" fill="white"/>
<path d="M63.9772 89.6748H46.5939C45.8943 89.6748 45.3271 90.2405 45.3271 90.9384V108.278C45.3271 108.976 45.8943 109.541 46.5939 109.541H63.9772C64.6769 109.541 65.244 108.976 65.244 108.278V90.9384C65.244 90.2405 64.6769 89.6748 63.9772 89.6748Z" fill="white"/>
<path d="M89.3752 89.6748H71.9919C71.2922 89.6748 70.7251 90.2405 70.7251 90.9384V108.278C70.7251 108.976 71.2922 109.541 71.9919 109.541H89.3752C90.0748 109.541 90.6419 108.976 90.6419 108.278V90.9384C90.6419 90.2405 90.0748 89.6748 89.3752 89.6748Z" fill="white"/>
<path d="M114.773 89.6748H97.3893C96.6897 89.6748 96.1226 90.2405 96.1226 90.9384V108.278C96.1226 108.976 96.6897 109.541 97.3893 109.541H114.773C115.472 109.541 116.039 108.976 116.039 108.278V90.9384C116.039 90.2405 115.472 89.6748 114.773 89.6748Z" fill="white"/>
<path d="M140.171 89.6748H122.787C122.088 89.6748 121.521 90.2405 121.521 90.9384V108.278C121.521 108.976 122.088 109.541 122.787 109.541H140.171C140.87 109.541 141.437 108.976 141.437 108.278V90.9384C141.437 90.2405 140.87 89.6748 140.171 89.6748Z" fill="white"/>
<path d="M165.568 89.6748H148.185C147.485 89.6748 146.918 90.2405 146.918 90.9384V108.278C146.918 108.976 147.485 109.541 148.185 109.541H165.568C166.268 109.541 166.835 108.976 166.835 108.278V90.9384C166.835 90.2405 166.268 89.6748 165.568 89.6748Z" fill="white"/>
<path d="M60.2019 216.38C84.0302 216.38 103.347 197.113 103.347 173.344C103.347 149.576 84.0302 130.309 60.2019 130.309C36.3737 130.309 17.0571 149.576 17.0571 173.344C17.0571 197.113 36.3737 216.38 60.2019 216.38Z" fill="#EBEBEB"/>
<path d="M35.0302 220.271C26.5211 215.726 19.4079 208.964 14.4491 200.704C9.4904 192.444 6.87197 182.997 6.87305 173.369" stroke="#9EC2FF" stroke-width="2" stroke-linecap="round" stroke-linejoin="round"/>
<path d="M60.2023 208.936C79.9091 208.936 95.8846 193.001 95.8846 173.344C95.8846 153.687 79.9091 137.752 60.2023 137.752C40.4955 137.752 24.52 153.687 24.52 173.344C24.52 193.001 40.4955 208.936 60.2023 208.936Z" fill="url(#paint4_linear_4954_21510)"/>
<path d="M59.6629 178.586C59.4612 178.585 59.2614 178.547 59.0735 178.474C58.796 178.355 58.5592 178.158 58.3922 177.907C58.2251 177.656 58.135 177.362 58.1328 177.06V148.962C58.1328 148.557 58.294 148.169 58.5809 147.883C58.8679 147.596 59.2571 147.436 59.6629 147.436C60.0687 147.436 60.4579 147.596 60.7449 147.883C61.0318 148.169 61.1932 148.557 61.1932 148.962V173.445L71.6281 163.036C71.9161 162.758 72.3018 162.604 72.7024 162.607C73.103 162.61 73.4865 162.769 73.7706 163.051C74.0547 163.333 74.2167 163.714 74.2218 164.114C74.2269 164.513 74.0747 164.899 73.7979 165.188L60.7417 178.199C60.5968 178.332 60.4267 178.434 60.2415 178.501C60.0563 178.568 59.8595 178.597 59.6629 178.586Z" fill="#C0C2FF"/>
<path d="M276.39 139.566H196.121C195.207 139.566 194.305 139.355 193.487 138.948C192.669 138.542 191.957 137.952 191.406 137.224C190.856 136.497 190.482 135.652 190.314 134.756C190.146 133.86 190.189 132.937 190.439 132.06L203.307 85.9967C203.984 83.5755 205.436 81.4418 207.443 79.9215C209.45 78.4011 211.9 77.5778 214.42 77.5772H294.614C295.529 77.5746 296.432 77.7844 297.251 78.19C298.07 78.5956 298.784 79.1859 299.335 79.9141C299.886 80.6423 300.26 81.4885 300.427 82.3858C300.593 83.283 300.549 84.2065 300.296 85.0834L287.415 131.222C286.743 133.623 285.302 135.739 283.311 137.246C281.32 138.753 278.889 139.568 276.39 139.566Z" fill="#EBEBEB"/>
<path d="M280.968 143.12H200.699C199.784 143.122 198.881 142.911 198.061 142.506C197.242 142.1 196.527 141.51 195.975 140.783C195.423 140.055 195.048 139.209 194.88 138.312C194.711 137.415 194.754 136.491 195.005 135.613L207.885 89.5875C208.56 87.1673 210.01 85.034 212.014 83.5135C214.019 81.9931 216.467 81.1692 218.985 81.168H299.179C300.094 81.166 300.997 81.3761 301.817 81.7816C302.637 82.1872 303.351 82.7771 303.903 83.5049C304.455 84.2327 304.83 85.0785 304.998 85.9756C305.167 86.8726 305.124 87.7965 304.873 88.6742L291.98 134.813C291.303 137.205 289.86 139.311 287.872 140.81C285.885 142.31 283.46 143.121 280.968 143.12Z" stroke="#EBEBEB" stroke-miterlimit="10"/>
<path d="M266.833 132.098H252.585C252.348 132.097 252.114 132.041 251.902 131.935C251.689 131.829 251.504 131.676 251.361 131.487C251.218 131.298 251.12 131.079 251.076 130.846C251.032 130.614 251.042 130.374 251.105 130.146L263.723 84.9834C263.799 84.7128 263.964 84.4756 264.191 84.3099C264.419 84.1442 264.696 84.0598 264.977 84.0702H283L270.307 129.508C270.095 130.261 269.639 130.923 269.011 131.391C268.383 131.859 267.617 132.108 266.833 132.098Z" stroke="white" stroke-miterlimit="10"/>
<path d="M225.833 99.0079H211.196C211.03 99.0081 210.866 98.97 210.717 98.8964C210.567 98.8228 210.437 98.7158 210.337 98.5838C210.236 98.4517 210.167 98.2982 210.136 98.1352C210.104 97.9722 210.111 97.8042 210.156 97.6442L212.501 89.2497C212.626 88.808 212.892 88.4189 213.259 88.1413C213.625 87.8637 214.072 87.7126 214.533 87.7109H229.207C229.373 87.7107 229.538 87.7488 229.687 87.8224C229.836 87.896 229.966 88.003 230.067 88.135C230.168 88.2671 230.236 88.4206 230.268 88.5836C230.299 88.7466 230.292 88.9147 230.248 89.0746L227.902 97.4816C227.777 97.9294 227.505 98.3227 227.131 98.5992C226.756 98.8756 226.299 99.0195 225.833 99.0079Z" fill="#1FC9AA"/>
<path d="M247.782 99.0079H233.145C232.979 99.0088 232.815 98.9709 232.666 98.8973C232.517 98.8236 232.387 98.7163 232.287 98.5838C232.187 98.4513 232.12 98.2973 232.09 98.1342C232.061 97.9711 232.07 97.8033 232.117 97.6442L234.462 89.2497C234.583 88.808 234.846 88.418 235.211 88.14C235.576 87.862 236.022 87.7112 236.481 87.711H251.105C251.272 87.7101 251.436 87.7479 251.585 87.8216C251.734 87.8952 251.863 88.0026 251.963 88.1351C252.063 88.2675 252.13 88.4215 252.16 88.5846C252.19 88.7478 252.181 88.9156 252.134 89.0746L249.788 97.4816C249.668 97.9201 249.406 98.3069 249.043 98.5826C248.681 98.8583 248.238 99.0077 247.782 99.0079Z" fill="white"/>
<path d="M243.969 113.482H229.332C229.166 113.483 229.002 113.445 228.853 113.371C228.703 113.297 228.573 113.19 228.472 113.058C228.372 112.926 228.303 112.773 228.271 112.61C228.24 112.447 228.247 112.279 228.291 112.119L230.637 103.724C230.758 103.28 231.023 102.889 231.391 102.611C231.758 102.333 232.207 102.183 232.668 102.186H247.28C247.446 102.185 247.611 102.223 247.76 102.297C247.909 102.371 248.039 102.478 248.14 102.61C248.241 102.742 248.309 102.895 248.341 103.058C248.372 103.221 248.365 103.389 248.321 103.549L245.976 111.956C245.853 112.394 245.591 112.779 245.229 113.055C244.867 113.33 244.424 113.48 243.969 113.482Z" fill="white"/>
<path d="M138.779 82.3184C138.779 82.3184 141.463 86.697 141.074 88.5736C140.685 90.4501 137.637 89.9122 137.637 89.9122L138.779 82.3184Z" fill="#EC7C68"/>
<path d="M137.135 69.4082C138.466 71.3854 139.273 73.6665 139.481 76.0387C139.481 79.2414 140.735 95.0421 138.628 96.9687C136.521 98.8953 127.917 96.7435 127.917 96.7435C127.917 96.7435 123.853 95.6801 122.148 89.7001C120.442 83.7201 125.572 73.2614 125.572 73.2614L137.135 69.4082Z" fill="#FBA181"/>
<path d="M132.018 95.9304C131.527 99.3317 132.208 102.799 133.949 105.764C128.997 105.354 124.023 105.291 119.062 105.576C119.593 101.672 119.916 97.742 120.028 93.8036C119.827 91.1014 128.531 93.0405 132.018 95.9304Z" fill="#FBA181"/>
<path d="M116.328 67.1806C116.328 67.1806 121.257 63.2774 126.474 63.8528C131.692 64.4283 136.345 66.4675 138.076 65.8795C139.807 65.2915 137.788 70.5084 135.467 71.234C133.147 71.9596 134.213 77.3141 133.586 79.3407C132.959 81.3674 132.72 80.9296 132.419 82.2306C132.118 83.5317 133.009 85.4208 133.009 86.284C133.009 87.1472 131.554 87.1472 131.554 87.1472C131.554 87.1472 130.538 83.8195 129.811 83.6819C129.083 83.5442 127.779 83.244 126.763 85.9963C125.747 88.7486 127.779 92.0638 127.929 93.6652C128.08 95.2665 126.675 96.7052 124.593 97.1306C122.511 97.5559 119.087 97.5684 117.344 96.5551C115.601 95.5417 115.889 93.515 114.447 91.4884C113.004 89.4617 110.233 87.5851 109.505 81.2173C108.778 74.8495 112.841 73.4108 112.841 73.4108C112.841 73.4108 113.017 68.4942 116.328 67.1806Z" fill="#023C5D"/>
<path d="M130.89 85.2213C130.89 85.2213 130.639 81.268 128.783 82.2563C126.926 83.2446 127.415 89.4248 129.522 89.9252C131.63 90.4256 131.128 86.0845 130.89 85.2213Z" fill="#EC7C68"/>
<path d="M209.992 107.827C209.992 107.827 208.738 103.511 209.353 102.373C209.967 101.234 213.115 100.972 213.115 100.972C213.115 100.972 212.413 105.926 209.992 107.827Z" fill="#EC7C68"/>
<path d="M203.458 112.769L209.616 107.227C209.616 107.227 212.501 95.7425 218.396 90.2129C218.699 90.3034 218.976 90.4633 219.207 90.6798C219.437 90.8963 219.613 91.1634 219.721 91.4599C219.83 91.7563 219.867 92.0739 219.831 92.3874C219.795 92.7009 219.685 93.0015 219.512 93.2654C218.258 95.2171 216.59 98.0069 216.339 99.8459C216.339 99.8459 222.309 101.097 224.566 103.537C225.595 105.188 224.566 110.104 224.152 110.918C223.739 111.731 221.644 111.743 221.644 111.743C220.984 113.311 220.078 114.763 218.96 116.047C217.706 117.073 213.003 116.66 213.003 116.66L210.494 120.15C210.494 120.15 204.687 118.099 203.458 112.769Z" fill="#FBA181"/>
<path d="M105.642 107.101C105.642 107.101 100.036 107.99 99.5843 119.462C99.1328 130.934 95.6084 148.148 95.6084 157.856C95.6084 167.564 107.548 198.903 110.659 201.117C113.121 200.152 115.492 198.972 117.745 197.589C117.745 197.589 114.647 176.835 113.318 167.564C111.988 158.294 114.647 129.595 116.416 124.303C118.184 119.011 119.652 104.9 105.642 107.101Z" fill="#176CFF"/>
<path d="M155.209 325.671C155.898 325.334 156.262 324.846 155.986 324.108C155.246 322.206 150.819 321.606 147.872 320.73C146.038 320.149 144.37 319.141 143.005 317.79L141.977 316.314C141.739 315.909 141.388 315.583 140.967 315.374C140.546 315.165 140.073 315.083 139.606 315.138C139.606 315.138 131.504 316.026 130.388 316.088C129.272 316.151 129.134 318.591 128.544 320.88C128.105 322.644 127.917 324.633 128.833 325.671H155.209Z" fill="#176CFF"/>
<path d="M128.87 306.593C129.627 309.698 129.923 312.898 129.748 316.089C129.535 318.953 133.736 318.516 136.834 318.29C139.932 318.065 140.81 317.402 140.81 316.526C140.81 315.651 137.712 313.436 137.499 308.795C137.286 304.154 132.633 304.404 128.87 306.593Z" fill="#FBA181"/>
<path d="M156.525 305.429C156.525 305.429 155.045 310.133 155.635 312.485C156.224 314.837 159.774 316.313 157.403 317.202C155.033 318.09 148.26 316.614 145.614 314.549C143.544 312.485 146.793 311.309 147.382 309.845C147.96 307.228 148.354 304.574 148.561 301.901L156.525 305.429Z" fill="#FBA181"/>
<path d="M138.214 184.166C139.099 187.853 139.52 191.635 139.468 195.425C139.343 198.365 140.233 303.691 140.647 308.42C141.124 311.385 129.735 312.273 126.851 310.396C126.851 310.396 124.255 286.151 121.834 272.515C119.413 258.878 116.98 230.505 114.396 220.984C111.813 211.464 107.084 196.551 106.946 184.767C106.896 184.716 118.836 167.515 138.214 184.166Z" fill="black"/>
<path d="M152.989 183.015L157.115 190.671C157.115 190.671 175.401 234.22 178.349 247.756C181.296 261.292 158.281 307.806 158.281 307.806C158.281 307.806 145.739 307.306 147.069 301.926C147.658 299.562 158.281 251.309 158.281 251.309C158.281 251.309 140.584 220.709 137.624 215.417C134.665 210.125 122.285 205.408 117.557 188.344L152.989 183.015Z" fill="#2C374A"/>
<path d="M117.005 100.296C121.457 99.771 130.061 99.1455 134.84 101.36L138.377 104.45L113.292 105.551L113.669 103.449C113.819 102.639 114.222 101.897 114.822 101.331C115.422 100.764 116.186 100.402 117.005 100.296Z" fill="#176CFF"/>
<path d="M155.76 181.689C153.791 183.978 153.778 187.356 150.743 187.856C137.321 189.885 123.704 190.305 110.182 189.107C108.604 188.946 107.155 188.169 106.149 186.946C105.143 185.722 104.663 184.152 104.814 182.577C105.692 173.519 107.235 156.493 106.909 152.965C106.47 148.111 102.494 124.716 101.603 117.66C101.296 115.701 101.501 113.696 102.2 111.839C102.899 109.982 104.067 108.337 105.592 107.064L112.666 104.412L132.093 103.536C132.093 103.536 143.645 103.536 148.511 107.502C153.377 111.468 155.146 119.862 155.146 126.48C156.242 133.915 156.862 141.411 157.002 148.924C157.052 159.245 159.059 177.848 155.76 181.689Z" fill="#176CFF"/>
<path d="M142.729 320.355C143.532 322.219 148.737 324.583 152.562 325.659H171.776C172.404 324.908 172.667 324.045 171.639 323.883C169.87 323.883 163.674 321.23 161.906 320.054C160.137 318.878 160.138 315.939 157.78 315.05C148.636 316.814 145.388 312.11 145.388 312.11C143.908 314.462 144.209 315.638 144.209 315.638C144.209 315.638 141.851 318.303 142.729 320.355Z" fill="#176CFF"/>
<path d="M152.562 325.671H156.927C156.298 325.266 155.718 324.792 155.196 324.257C151.433 320.066 146.341 318.74 143.469 319.178C143.143 319.222 142.828 319.329 142.541 319.491C142.554 319.791 142.618 320.087 142.729 320.367C143.532 322.231 148.737 324.595 152.562 325.671Z" fill="#6F439C"/>
<path d="M141.625 126.518C141.625 126.518 172.98 142.857 181.446 145.059C186.764 146.385 213.755 117.698 213.755 117.698C213.755 117.698 213.429 108.215 204.975 109.542L181.848 126.969C181.848 126.969 163.699 116.81 158.833 114.17C153.967 111.531 146.002 104.012 142.904 105.338C139.806 106.664 129.673 117.261 141.625 126.518Z" fill="#176CFF"/>
<path d="M106.395 128.395C106.395 128.395 108.176 153.791 108.426 158.357C108.677 162.923 106.896 184.716 106.896 184.716" stroke="#694D98" stroke-miterlimit="10"/>
<path d="M71.5278 234.708H32.9107C32.6263 234.708 32.3448 234.652 32.0822 234.543C31.8197 234.434 31.5813 234.274 31.3809 234.073C31.1804 233.872 31.0217 233.633 30.9141 233.371C30.8064 233.108 30.7518 232.827 30.7535 232.543C30.7535 231.973 30.9807 231.425 31.3853 231.022C31.7899 230.618 32.3385 230.392 32.9107 230.392H71.5278C72.1 230.392 72.6486 230.618 73.0532 231.022C73.4577 231.425 73.685 231.973 73.685 232.543C73.6867 232.827 73.6321 233.108 73.5244 233.371C73.4168 233.633 73.2581 233.872 73.0576 234.073C72.8571 234.274 72.6188 234.434 72.3563 234.543C72.0937 234.652 71.8122 234.708 71.5278 234.708Z" fill="#EBEBEB"/>
<path d="M47.2338 243.541H32.9107C32.3385 243.541 31.7899 243.314 31.3853 242.91C30.9807 242.507 30.7535 241.96 30.7535 241.389C30.7518 241.105 30.8064 240.824 30.9141 240.562C31.0217 240.299 31.1804 240.06 31.3809 239.859C31.5813 239.658 31.8197 239.499 32.0822 239.39C32.3448 239.281 32.6263 239.225 32.9107 239.225H47.2338C47.5181 239.225 47.7997 239.281 48.0622 239.39C48.3248 239.499 48.5631 239.658 48.7636 239.859C48.9641 240.06 49.1227 240.299 49.2304 240.562C49.3381 240.824 49.3926 241.105 49.391 241.389C49.391 241.96 49.1637 242.507 48.7591 242.91C48.3546 243.314 47.8059 243.541 47.2338 243.541Z" fill="#EBEBEB"/>
<path d="M291.441 163.486H252.836C252.552 163.488 252.27 163.433 252.007 163.326C251.744 163.218 251.504 163.06 251.303 162.86C251.101 162.66 250.941 162.422 250.832 162.161C250.723 161.899 250.666 161.618 250.667 161.334C250.667 160.76 250.895 160.21 251.302 159.804C251.709 159.398 252.261 159.17 252.836 159.17H291.441C292.015 159.173 292.565 159.402 292.972 159.807C293.378 160.213 293.607 160.761 293.611 161.334C293.607 161.906 293.377 162.453 292.971 162.857C292.564 163.26 292.014 163.486 291.441 163.486Z" fill="#9EC2FF"/>
<path d="M267.147 172.319H252.836C252.552 172.32 252.27 172.266 252.007 172.158C251.744 172.051 251.504 171.893 251.303 171.693C251.101 171.493 250.941 171.255 250.832 170.993C250.723 170.731 250.666 170.45 250.667 170.167C250.666 169.883 250.723 169.602 250.832 169.34C250.941 169.079 251.101 168.841 251.303 168.641C251.504 168.441 251.744 168.283 252.007 168.175C252.27 168.068 252.552 168.013 252.836 168.015H267.147C267.439 168.01 267.728 168.064 267.999 168.173C268.269 168.283 268.514 168.447 268.719 168.654C268.925 168.861 269.086 169.107 269.193 169.378C269.3 169.649 269.35 169.938 269.342 170.229C269.325 170.796 269.086 171.333 268.675 171.724C268.264 172.115 267.715 172.329 267.147 172.319Z" fill="#9EC2FF"/>
<path d="M299.154 210.476H199.482C196.995 210.476 194.979 212.486 194.979 214.967V233.645C194.979 236.125 196.995 238.136 199.482 238.136H299.154C301.641 238.136 303.657 236.125 303.657 233.645V214.967C303.657 212.486 301.641 210.476 299.154 210.476Z" fill="#DCE9FF"/>
<path d="M287.578 221.885H213.128C212.555 221.885 212.005 221.658 211.598 221.255C211.191 220.852 210.961 220.305 210.958 219.733C210.958 219.448 211.014 219.167 211.123 218.904C211.232 218.642 211.392 218.403 211.594 218.202C211.795 218.001 212.034 217.842 212.297 217.733C212.561 217.624 212.843 217.568 213.128 217.568H287.578C287.863 217.567 288.146 217.622 288.41 217.73C288.674 217.838 288.914 217.997 289.116 218.199C289.318 218.4 289.477 218.639 289.586 218.903C289.694 219.166 289.749 219.448 289.748 219.733C289.748 220.016 289.691 220.297 289.582 220.559C289.473 220.821 289.313 221.059 289.111 221.259C288.91 221.459 288.67 221.617 288.407 221.724C288.144 221.832 287.862 221.886 287.578 221.885Z" fill="white"/>
<path d="M227.438 230.717H213.128C212.555 230.717 212.005 230.491 211.598 230.088C211.191 229.685 210.961 229.138 210.958 228.566C210.958 228.281 211.014 228 211.123 227.737C211.232 227.475 211.392 227.236 211.594 227.035C211.795 226.834 212.034 226.675 212.297 226.566C212.561 226.457 212.843 226.401 213.128 226.401H227.438C227.723 226.401 228.006 226.457 228.269 226.566C228.532 226.675 228.771 226.834 228.973 227.035C229.174 227.236 229.334 227.475 229.443 227.737C229.552 228 229.608 228.281 229.608 228.566C229.605 229.138 229.375 229.685 228.968 230.088C228.562 230.491 228.012 230.717 227.438 230.717Z" fill="white"/>
<path d="M266.57 248.557H166.898C164.411 248.557 162.395 250.567 162.395 253.048V271.726C162.395 274.206 164.411 276.217 166.898 276.217H266.57C269.056 276.217 271.072 274.206 271.072 271.726V253.048C271.072 250.567 269.056 248.557 266.57 248.557Z" fill="#DCE9FF"/>
<path d="M219.173 259.967H180.543C179.971 259.967 179.423 259.74 179.018 259.336C178.614 258.933 178.386 258.385 178.386 257.815C178.385 257.531 178.439 257.25 178.547 256.987C178.655 256.725 178.813 256.486 179.014 256.285C179.214 256.084 179.452 255.924 179.715 255.815C179.978 255.706 180.259 255.65 180.543 255.65H219.173C219.459 255.649 219.741 255.704 220.005 255.812C220.269 255.92 220.509 256.079 220.711 256.281C220.913 256.482 221.073 256.721 221.181 256.985C221.29 257.248 221.345 257.53 221.343 257.815C221.343 258.098 221.287 258.379 221.178 258.641C221.068 258.903 220.908 259.141 220.707 259.341C220.505 259.541 220.266 259.699 220.003 259.806C219.739 259.914 219.458 259.968 219.173 259.967Z" fill="white"/>
<path d="M194.854 268.799H180.543C179.971 268.799 179.423 268.572 179.018 268.168C178.614 267.765 178.386 267.217 178.386 266.647C178.386 266.075 178.613 265.526 179.017 265.121C179.422 264.715 179.97 264.486 180.543 264.482H194.854C195.429 264.482 195.981 264.71 196.388 265.116C196.795 265.522 197.024 266.073 197.024 266.647C197.024 266.93 196.968 267.211 196.858 267.473C196.749 267.735 196.589 267.973 196.387 268.173C196.186 268.373 195.947 268.531 195.683 268.638C195.42 268.746 195.138 268.8 194.854 268.799Z" fill="white"/>
<path d="M219.913 199.491C232.561 199.491 242.815 189.263 242.815 176.647C242.815 164.03 232.561 153.803 219.913 153.803C207.265 153.803 197.011 164.03 197.011 176.647C197.011 189.263 207.265 199.491 219.913 199.491Z" fill="#EBEBEB"/>
<path d="M219.913 149.475C223.539 149.397 227.144 150.043 230.516 151.373C233.889 152.703 236.961 154.692 239.553 157.222C242.144 159.753 244.203 162.774 245.609 166.108C247.015 169.443 247.739 173.024 247.739 176.641C247.739 180.259 247.015 183.84 245.609 187.174C244.203 190.509 242.144 193.53 239.553 196.06C236.961 198.591 233.889 200.579 230.516 201.91C227.144 203.24 223.539 203.885 219.913 203.808" stroke="#9EC2FF" stroke-miterlimit="10"/>
<path d="M225.369 182.539C225.855 182.197 226.279 181.773 226.623 181.288C227.066 180.196 227.423 179.071 227.689 177.923C227.94 178.139 228.26 178.259 228.592 178.261C229.508 178.261 231.853 173.432 230.662 172.318C229.984 171.68 229.269 172.231 228.793 172.831C229.194 170.692 229.445 169.078 229.445 169.078C229.445 168.803 229.445 168.528 229.445 168.265C229.445 165.571 228.372 162.987 226.462 161.082C224.552 159.177 221.962 158.106 219.261 158.106C216.56 158.106 213.969 159.177 212.059 161.082C210.15 162.987 209.077 165.571 209.077 168.265C209.077 168.528 209.077 168.803 209.077 169.078C209.077 169.078 209.327 170.717 209.729 172.831C209.252 172.231 208.55 171.68 207.86 172.318C206.606 173.432 209.014 178.236 209.93 178.261C210.261 178.259 210.581 178.139 210.833 177.923C211.099 179.071 211.455 180.196 211.899 181.288C212.359 181.923 212.938 182.462 213.604 182.877C213.491 184.721 212.777 186.478 211.572 187.881C209.879 189.433 205.979 190.696 202.881 192.06C205.009 194.41 207.604 196.294 210.5 197.59C213.397 198.887 216.532 199.569 219.707 199.592C222.882 199.616 226.028 198.981 228.943 197.727C231.859 196.473 234.481 194.629 236.644 192.31C233.471 190.846 229.194 189.52 227.401 187.881C226.144 186.377 225.428 184.496 225.369 182.539Z" fill="#D2D2D2"/>
<path d="M9.66996 84.2197H2.54605C1.1399 84.2197 0 85.3568 0 86.7593V93.8653C0 95.2679 1.1399 96.4049 2.54605 96.4049H9.66996C11.0761 96.4049 12.216 95.2679 12.216 93.8653V86.7593C12.216 85.3568 11.0761 84.2197 9.66996 84.2197Z" fill="#BBD4FF"/>
<path d="M315.107 129.921H307.984C306.577 129.921 305.438 131.058 305.438 132.461V139.566C305.438 140.969 306.577 142.106 307.984 142.106H315.107C316.514 142.106 317.654 140.969 317.654 139.566V132.461C317.654 131.058 316.514 129.921 315.107 129.921Z" fill="#9EC2FF"/>
<path d="M102.833 255.851H95.7086C94.3025 255.851 93.1626 256.988 93.1626 258.39V265.496C93.1626 266.899 94.3025 268.036 95.7086 268.036H102.833C104.239 268.036 105.379 266.899 105.379 265.496V258.39C105.379 256.988 104.239 255.851 102.833 255.851Z" fill="#EBEBEB"/>
<path d="M88.2587 271.852H83.8062C82.9265 271.852 82.2134 272.563 82.2134 273.44V277.882C82.2134 278.759 82.9265 279.47 83.8062 279.47H88.2587C89.1384 279.47 89.8515 278.759 89.8515 277.882V273.44C89.8515 272.563 89.1384 271.852 88.2587 271.852Z" fill="#EBEBEB"/>
<path d="M25.7115 101.234H18.5875C17.1814 101.234 16.0415 102.371 16.0415 103.774V110.88C16.0415 112.283 17.1814 113.42 18.5875 113.42H25.7115C27.1176 113.42 28.2575 112.283 28.2575 110.88V103.774C28.2575 102.371 27.1176 101.234 25.7115 101.234Z" fill="#BBD4FF"/>
<path d="M280.755 266.259H314.731C316.857 266.259 318.895 265.417 320.398 263.918C321.901 262.419 322.746 260.385 322.746 258.265V230.079C322.746 227.959 321.901 225.926 320.398 224.426C318.895 222.927 316.857 222.085 314.731 222.085H310.53" stroke="#9EC2FF" stroke-width="2" stroke-linecap="round" stroke-linejoin="round"/>
<path d="M228.567 45.6377H197.513V51.7303H228.567V45.6377Z" stroke="#C0C2FF" stroke-miterlimit="10"/>
<path d="M206.418 57.3105H197.513V63.4031H206.418V57.3105Z" stroke="#C0C2FF" stroke-miterlimit="10"/>
</g>
<defs>
<linearGradient id="paint0_linear_4954_21510" x1="41.5897" y1="-28.3236" x2="41.5897" y2="40.4963" gradientUnits="userSpaceOnUse">
<stop stop-color="#D8E2F6"/>
<stop offset="0.01" stop-color="#DAE3F6"/>
<stop offset="0.12" stop-color="#EBF0FA"/>
<stop offset="0.26" stop-color="#F6F9FD"/>
<stop offset="0.46" stop-color="#FDFEFF"/>
<stop offset="1" stop-color="white"/>
</linearGradient>
<linearGradient id="paint1_linear_4954_21510" x1="84.5838" y1="-28.3236" x2="84.5838" y2="40.4963" gradientUnits="userSpaceOnUse">
<stop stop-color="#D8E2F6"/>
<stop offset="0.01" stop-color="#DAE3F6"/>
<stop offset="0.12" stop-color="#EBF0FA"/>
<stop offset="0.26" stop-color="#F6F9FD"/>
<stop offset="0.46" stop-color="#FDFEFF"/>
<stop offset="1" stop-color="white"/>
</linearGradient>
<linearGradient id="paint2_linear_4954_21510" x1="127.578" y1="-28.3236" x2="127.578" y2="40.4963" gradientUnits="userSpaceOnUse">
<stop stop-color="#D8E2F6"/>
<stop offset="0.01" stop-color="#DAE3F6"/>
<stop offset="0.12" stop-color="#EBF0FA"/>
<stop offset="0.26" stop-color="#F6F9FD"/>
<stop offset="0.46" stop-color="#FDFEFF"/>
<stop offset="1" stop-color="white"/>
</linearGradient>
<linearGradient id="paint3_linear_4954_21510" x1="170.56" y1="-28.3236" x2="170.56" y2="40.4963" gradientUnits="userSpaceOnUse">
<stop stop-color="#D8E2F6"/>
<stop offset="0.01" stop-color="#DAE3F6"/>
<stop offset="0.12" stop-color="#EBF0FA"/>
<stop offset="0.26" stop-color="#F6F9FD"/>
<stop offset="0.46" stop-color="#FDFEFF"/>
<stop offset="1" stop-color="white"/>
</linearGradient>
<linearGradient id="paint4_linear_4954_21510" x1="46.9704" y1="229.141" x2="66.2179" y2="147.563" gradientUnits="userSpaceOnUse">
<stop stop-color="#D8E2F6"/>
<stop offset="0.01" stop-color="#DAE3F6"/>
<stop offset="0.12" stop-color="#EBF0FA"/>
<stop offset="0.26" stop-color="#F6F9FD"/>
<stop offset="0.46" stop-color="#FDFEFF"/>
<stop offset="1" stop-color="white"/>
</linearGradient>
<clipPath id="clip0_4954_21510">
<rect width="324" height="330" fill="white"/>
</clipPath>
</defs>
</svg>
