<svg width="394" height="254" viewBox="0 0 394 254" fill="none" xmlns="http://www.w3.org/2000/svg">
<g clip-path="url(#clip0_4969_24877)">
<path d="M255.662 20.7256L262.46 38.1155L258.231 38.0917L254.841 27.4081L255.662 20.7256Z" fill="#E0E0E0"/>
<path d="M232.441 4.66113L230.104 37.9725L254.234 38.4779L256.947 4.66113H232.441Z" fill="#EBEBEB"/>
<path d="M234.856 7.34216L232.911 35.0709L250.85 35.9152L253.354 7.18164L234.856 7.34216Z" fill="#FAFAFA"/>
<path d="M238.793 11.2666L237.336 30.7552H247.233L248.976 11.2666H238.793Z" fill="#E0E0E0"/>
<path d="M208.643 38.1804V21.5039H220.86V38.1685L208.643 38.1804Z" fill="#EBEBEB"/>
<path d="M215.59 21.5041C215.59 21.5041 218.534 -0.0296956 217.708 3.07486e-05C216.881 0.0297571 214.811 19.6194 214.811 19.6194C214.811 19.6194 214.716 3.40073 213.949 3.48396C213.181 3.5672 213.949 20.6718 213.949 20.6718C213.949 20.6718 212.616 6.79548 211.902 7.12842C211.189 7.46135 212.206 21.5041 212.206 21.5041H215.59Z" fill="#E0E0E0"/>
<path d="M213.366 21.5037C213.366 21.5037 214.389 10.7725 214.716 11.5038C215.043 12.235 214.716 17.8949 214.716 17.8949C214.716 17.8949 217.541 4.02462 218.285 4.50024C219.028 4.97586 215.388 19.5537 215.388 19.5537C215.388 19.5537 218.148 11.2303 218.755 12.1042C219.361 12.9782 216.5 20.7903 216.5 20.7903C216.5 20.7903 219.474 15.2671 219.665 16.0341C219.855 16.801 218.249 21.5275 218.249 21.5275L213.366 21.5037Z" fill="#EBEBEB"/>
<path d="M211.623 21.5694C211.623 21.5694 205.08 8.75139 205.901 9.14972C206.722 9.54805 210.885 17.8239 210.885 17.8239C210.885 17.8239 208.119 9.82154 208.726 9.58967C209.333 9.35781 212.366 18.567 212.366 18.567L213.044 21.5694H211.623Z" fill="#F5F5F5"/>
<path d="M214.299 21.5341L214.609 38.2106H208.798L208.685 21.4746L214.299 21.5341Z" fill="#E0E0E0"/>
<path d="M208.655 22.9781L214.282 23.0673L220.86 22.9781L221.069 21.3848H208.495L208.655 22.9781Z" fill="#E0E0E0"/>
<path d="M281.821 37.7168H196.271V42.1222H281.821V37.7168Z" fill="#E0E0E0"/>
<path d="M62.186 111.641L63.4232 250.742H8.29736V113.537L62.186 111.641Z" fill="#F5F5F5"/>
<path d="M32.4878 112.687L32.9755 250.742H8.29736V113.537L32.4878 112.687Z" fill="#E0E0E0"/>
<path d="M60.4554 113.358V132.853H34.3438V114.28L60.4554 113.358Z" fill="#E0E0E0"/>
<path d="M51.45 118.722V121.599H43.4619V118.46L51.45 118.722Z" fill="#F5F5F5"/>
<path d="M51.45 124.024H43.2002V125.202H51.45V124.024Z" fill="#F5F5F5"/>
<path d="M60.4554 181.682V201.182H34.3438V182.603L60.4554 181.682Z" fill="#E0E0E0"/>
<path d="M51.45 187.045V189.928H43.4619V186.783L51.45 187.045Z" fill="#F5F5F5"/>
<path d="M51.45 192.348H43.2002V193.525H51.45V192.348Z" fill="#F5F5F5"/>
<path d="M60.4554 135.338V154.832H34.3438V136.259L60.4554 135.338Z" fill="#E0E0E0"/>
<path d="M51.45 140.701V143.579H43.4619V140.439L51.45 140.701Z" fill="#F5F5F5"/>
<path d="M51.45 146.004H43.2002V147.181H51.45V146.004Z" fill="#F5F5F5"/>
<path d="M60.4554 203.661V223.156H34.3438V204.583L60.4554 203.661Z" fill="#E0E0E0"/>
<path d="M51.45 209.024V211.902H43.4619V208.763L51.45 209.024Z" fill="#F5F5F5"/>
<path d="M51.45 214.327H43.2002V215.504H51.45V214.327Z" fill="#F5F5F5"/>
<path d="M60.7347 225.635V245.135H34.623V226.556L60.7347 225.635Z" fill="#E0E0E0"/>
<path d="M51.7352 230.998V233.881H43.7471V230.736L51.7352 230.998Z" fill="#F5F5F5"/>
<path d="M51.7357 236.301H43.4858V237.478H51.7357V236.301Z" fill="#F5F5F5"/>
<path d="M60.7942 158.686H34.6826V178.186H60.7942V158.686Z" fill="#E0E0E0"/>
<path d="M51.6167 167.472V170.177H44.1104V167.223L51.6167 167.472Z" fill="#F5F5F5"/>
<path d="M51.6165 172.455H43.8604V173.561H51.6165V172.455Z" fill="#F5F5F5"/>
<path d="M223.126 233.774V250.772H247.995H275.421V233.774H223.126Z" fill="#F5F5F5"/>
<path d="M220.932 229.018V233.774H277.247V229.018H247.995H220.932Z" fill="#E0E0E0"/>
<path d="M249.09 250.771H275.421V233.774H277.247V229.018H247.995V233.334L249.09 250.771Z" fill="#E0E0E0"/>
<path d="M241.048 236.515H230.442V239.071H241.048V236.515Z" fill="#E0E0E0"/>
<path d="M242.689 242.27H229.074V247.674H242.689V242.27Z" fill="white"/>
<path d="M290.689 212.026V229.018H315.552H342.978V212.026H290.689Z" fill="#F5F5F5"/>
<path d="M288.495 207.271V212.027H344.81V207.271H315.552H288.495Z" fill="#E0E0E0"/>
<path d="M316.653 229.018H342.978V212.027H344.81V207.271H315.552V211.587L316.653 229.018Z" fill="#E0E0E0"/>
<path d="M308.605 214.768H298V217.324H308.605V214.768Z" fill="#E0E0E0"/>
<path d="M310.253 220.522H296.638V225.927H310.253V220.522Z" fill="white"/>
<path d="M288.186 233.774V250.772H313.048H340.474V233.774H288.186Z" fill="#F5F5F5"/>
<path d="M285.991 229.018V233.774H342.306V229.018H313.048H285.991Z" fill="#E0E0E0"/>
<path d="M314.148 250.771H340.474V233.774H342.306V229.018H313.048V233.334L314.148 250.771Z" fill="#E0E0E0"/>
<path d="M306.101 236.515H295.496V239.071H306.101V236.515Z" fill="#E0E0E0"/>
<path d="M307.748 242.27H294.133V247.674H307.748V242.27Z" fill="white"/>
<path d="M339.737 111.569L338.505 250.671H393.631V113.466L339.737 111.569Z" fill="#F5F5F5"/>
<path d="M369.435 112.615L368.947 250.67H393.631V113.465L369.435 112.615Z" fill="#E0E0E0"/>
<path d="M341.473 113.281V132.782H367.585V114.203L341.473 113.281Z" fill="#E0E0E0"/>
<path d="M350.473 118.65V121.528H358.461V118.389L350.473 118.65Z" fill="#F5F5F5"/>
<path d="M358.722 123.947H350.473V125.124H358.722V123.947Z" fill="#F5F5F5"/>
<path d="M341.473 181.61V201.111H367.585V182.532L341.473 181.61Z" fill="#E0E0E0"/>
<path d="M350.473 186.973V189.856H358.461V186.711L350.473 186.973Z" fill="#F5F5F5"/>
<path d="M358.722 192.276H350.473V193.454H358.722V192.276Z" fill="#F5F5F5"/>
<path d="M341.473 135.267V154.761H367.585V136.188L341.473 135.267Z" fill="#E0E0E0"/>
<path d="M350.473 140.63V143.507H358.461V140.368L350.473 140.63Z" fill="#F5F5F5"/>
<path d="M358.722 145.933H350.473V147.11H358.722V145.933Z" fill="#F5F5F5"/>
<path d="M341.473 203.59V223.084H367.585V204.505L341.473 203.59Z" fill="#E0E0E0"/>
<path d="M350.473 208.953V211.831H358.461V208.691L350.473 208.953Z" fill="#F5F5F5"/>
<path d="M358.722 214.25H350.473V215.427H358.722V214.25Z" fill="#F5F5F5"/>
<path d="M341.188 225.563V245.058H367.3V226.485L341.188 225.563Z" fill="#E0E0E0"/>
<path d="M350.193 230.927V233.804H358.181V230.665L350.193 230.927Z" fill="#F5F5F5"/>
<path d="M358.443 236.229H350.193V237.407H358.443V236.229Z" fill="#F5F5F5"/>
<path d="M367.24 158.608H341.128V178.109H367.24V158.608Z" fill="#E0E0E0"/>
<path d="M350.312 167.401V170.106H357.818V167.151L350.312 167.401Z" fill="#F5F5F5"/>
<path d="M358.062 172.383H350.306V173.489H358.062V172.383Z" fill="#F5F5F5"/>
<path d="M394 250.754C394 250.837 305.792 250.909 197.009 250.909C88.2264 250.909 -0.00585938 250.837 -0.00585938 250.754C-0.00585938 250.671 88.1848 250.605 197.009 250.605C305.833 250.605 394 250.665 394 250.754Z" fill="#263238"/>
<path d="M117.336 90.9148L121.535 162.49C121.606 163.718 122.144 164.873 123.038 165.718C123.933 166.563 125.116 167.036 126.347 167.038L255.24 167.43C255.874 167.433 256.503 167.31 257.091 167.069C257.678 166.828 258.212 166.474 258.662 166.027C259.112 165.58 259.47 165.048 259.714 164.463C259.959 163.877 260.086 163.249 260.087 162.615L260.26 106.884C260.261 106.247 260.137 105.615 259.893 105.026C259.65 104.437 259.292 103.902 258.841 103.452C258.39 103.002 257.854 102.645 257.265 102.402C256.675 102.16 256.044 102.036 255.406 102.038L176.137 102.306C175.503 102.308 174.874 102.186 174.288 101.945C173.701 101.704 173.167 101.35 172.717 100.903L158.983 87.3001C158.081 86.4069 156.863 85.9032 155.593 85.897L122.177 85.7959C121.517 85.7948 120.864 85.9286 120.258 86.1891C119.651 86.4496 119.104 86.8313 118.651 87.3107C118.198 87.7901 117.847 88.3571 117.621 88.9769C117.395 89.5967 117.298 90.2561 117.336 90.9148Z" fill="#176CFF"/>
<path opacity="0.3" d="M117.336 90.9148L121.535 162.49C121.606 163.718 122.144 164.873 123.038 165.718C123.933 166.563 125.116 167.036 126.347 167.038L255.24 167.43C255.874 167.433 256.503 167.31 257.091 167.069C257.678 166.828 258.212 166.474 258.662 166.027C259.112 165.58 259.47 165.048 259.714 164.463C259.959 163.877 260.086 163.249 260.087 162.615L260.26 106.884C260.261 106.247 260.137 105.615 259.893 105.026C259.65 104.437 259.292 103.902 258.841 103.452C258.39 103.002 257.854 102.645 257.265 102.402C256.675 102.16 256.044 102.036 255.406 102.038L176.137 102.306C175.503 102.308 174.874 102.186 174.288 101.945C173.701 101.704 173.167 101.35 172.717 100.903L158.983 87.3001C158.081 86.4069 156.863 85.9032 155.593 85.897L122.177 85.7959C121.517 85.7948 120.864 85.9286 120.258 86.1891C119.651 86.4496 119.104 86.8313 118.651 87.3107C118.198 87.7901 117.847 88.3571 117.621 88.9769C117.395 89.5967 117.298 90.2561 117.336 90.9148Z" fill="#2C374A"/>
<path d="M161.187 58.8949L118.803 114.507L163.283 148.376L205.667 92.7645L161.187 58.8949Z" fill="white"/>
<path d="M161.184 58.8877L160.988 59.1612L160.393 59.94C159.869 60.6356 159.102 61.6463 158.109 62.9721L149.466 74.3751L118.912 114.583L118.882 114.393L163.373 148.245L163.153 148.275L205.556 92.6806L205.586 92.859L173.353 68.2337L164.36 61.3431L161.981 59.5238L161.184 58.8877L161.993 59.4822L164.372 61.2658L173.365 68.085L205.746 92.6509L205.847 92.7282L205.77 92.8352L163.408 148.465L163.313 148.59L163.188 148.495L118.721 114.607L118.614 114.524L118.698 114.411L149.419 74.2146L158.103 62.877L160.399 59.9043L160.994 59.1433L161.184 58.8877Z" fill="#263238"/>
<path d="M162.474 63.0142L123.067 114.72L161.95 144.327L201.357 92.6217L162.474 63.0142Z" fill="#263238"/>
<path d="M161.945 144.934L151.542 108.471L175.186 108.792L172.89 95.0528L201.351 93.2217L161.945 144.934Z" fill="#455A64"/>
<path d="M158.316 98.8043C161.119 98.422 163.081 95.8414 162.698 93.0403C162.316 90.2392 159.734 88.2783 156.932 88.6605C154.129 89.0427 152.167 91.6233 152.55 94.4244C152.932 97.2255 155.514 99.1865 158.316 98.8043Z" fill="#455A64"/>
<path d="M170.604 58.2799L167.399 136.008L264.667 140.015L267.872 62.2868L170.604 58.2799Z" fill="white"/>
<path d="M267.849 62.2765H267.385L266.029 62.2289L260.753 62.0268L240.851 61.248L170.576 58.424L170.719 58.2932C169.773 81.4262 168.684 107.948 167.536 136.016L167.388 135.855L264.679 139.874L264.548 139.999C265.541 116.575 266.362 97.1574 266.927 83.5963C267.225 76.8067 267.457 71.4798 267.611 67.8532C267.694 66.0399 267.754 64.6487 267.796 63.6915C267.837 62.7343 267.867 62.2646 267.867 62.2646C267.867 62.2646 267.867 62.7343 267.825 63.6677C267.784 64.6011 267.736 65.9863 267.671 67.7878C267.528 71.4144 267.32 76.7057 267.076 83.5071C266.535 97.092 265.755 116.539 264.816 139.987V140.112H264.679L167.376 136.158H167.221V136.004C168.381 107.936 169.481 81.4143 170.439 58.2813V58.1445H170.576L240.934 61.1172L260.801 61.9733L266.047 62.2052L267.391 62.2646L267.849 62.2765Z" fill="#263238"/>
<path d="M173.751 63.3086L170.95 131.253L261.383 134.978L264.185 67.0339L173.751 63.3086Z" fill="#455A64"/>
<path d="M170.939 131.248L204.265 90.3145L222.746 117.544L236.593 103.965L261.378 134.963L170.939 131.248Z" fill="#263238"/>
<path d="M232.181 87.555C233.042 83.7167 230.627 79.9074 226.787 79.0466C222.947 78.1859 219.136 80.5996 218.275 84.4379C217.413 88.2761 219.828 92.0855 223.668 92.9463C227.508 93.807 231.319 91.3933 232.181 87.555Z" fill="#263238"/>
<path d="M272.56 95.6826L140.8 113.822L154.754 210.278L285.437 191.877L272.56 95.6826Z" fill="#EBEBEB"/>
<path d="M273.066 83.6553L142.829 110.635L163.266 205.932L292.408 178.756L273.066 83.6553Z" fill="#E0E0E0"/>
<path d="M261.568 72.96L136.102 117.086L169.083 208.798L293.437 164.63L261.568 72.96Z" fill="white"/>
<path d="M261.562 72.96C261.907 73.9469 274.178 109.078 293.557 164.589L293.598 164.707L293.479 164.749L169.166 208.946L169.018 209L168.97 208.851L168.726 208.185C156.991 175.528 145.862 144.571 136.012 117.133L135.965 116.997L136.096 116.955L261.598 72.96L136.149 117.217L136.232 117.038L168.988 208.078L169.232 208.75L169.03 208.655L293.396 164.511L293.319 164.672C274.083 109.107 261.907 73.9469 261.562 72.96Z" fill="#263238"/>
<path d="M265.101 160.932C264.857 161.022 258.832 145.38 251.641 125.998C244.45 106.616 238.805 90.8317 239.049 90.7426C239.293 90.6534 245.312 106.289 252.509 125.677C259.706 145.065 265.339 160.831 265.101 160.932Z" fill="#263238"/>
<path d="M254.383 165.825C254.145 165.914 248.114 150.272 240.923 130.897C233.732 111.521 228.093 95.7243 228.331 95.6351C228.569 95.546 234.6 111.188 241.797 130.57C248.994 149.951 254.627 165.736 254.383 165.825Z" fill="#263238"/>
<path d="M221.116 179.755C220.878 179.844 214.847 164.202 207.656 144.82C200.465 125.439 194.826 109.654 195.064 109.565C195.302 109.476 201.333 125.112 208.524 144.499C215.715 163.887 221.354 179.666 221.116 179.755Z" fill="#263238"/>
<path d="M231.721 175.486C231.478 175.575 225.452 159.933 218.261 140.552C211.07 121.17 205.425 105.385 205.669 105.296C205.913 105.207 211.932 120.843 219.13 140.231C226.327 159.618 231.965 175.397 231.721 175.486Z" fill="#263238"/>
<path d="M242.321 171.218C242.083 171.307 236.057 155.665 228.86 136.289C221.663 116.913 216.031 101.117 216.268 101.028C216.506 100.939 222.538 116.581 229.735 135.962C236.932 155.344 242.565 171.128 242.321 171.218Z" fill="#263238"/>
<path d="M208.833 183.287C208.595 183.376 202.564 167.734 195.373 148.353C188.182 128.971 182.543 113.186 182.781 113.097C183.019 113.008 189.05 128.644 196.247 148.031C203.444 167.419 209.077 183.198 208.833 183.287Z" fill="#263238"/>
<path d="M197.086 187.585C196.848 187.674 190.823 172.032 183.626 152.657C176.429 133.281 170.796 117.49 171.034 117.431C171.272 117.371 177.303 132.984 184.5 152.365C191.697 171.747 197.33 187.502 197.086 187.585Z" fill="#263238"/>
<path d="M185.345 191.895C185.101 191.985 179.076 176.343 171.879 156.967C164.682 137.591 159.049 121.795 159.293 121.705C159.537 121.616 165.556 137.258 172.753 156.64C179.95 176.021 185.571 191.806 185.345 191.895Z" fill="#263238"/>
<path d="M114.701 130.094L125.187 217.841C125.277 218.594 125.639 219.288 126.205 219.793C126.772 220.297 127.503 220.578 128.262 220.581L265.506 220.997C266.289 221.002 267.044 220.71 267.621 220.181C268.198 219.651 268.553 218.924 268.616 218.144L275.796 130.451C275.83 130.023 275.776 129.593 275.636 129.188C275.496 128.782 275.275 128.409 274.984 128.094C274.694 127.778 274.341 127.525 273.949 127.352C273.556 127.178 273.132 127.088 272.703 127.086L117.8 126.616C117.359 126.615 116.923 126.707 116.521 126.886C116.119 127.066 115.759 127.329 115.466 127.658C115.173 127.986 114.954 128.374 114.822 128.794C114.69 129.214 114.648 129.657 114.701 130.094Z" fill="#176CFF"/>
<path d="M282.618 105.624L277.997 108.93L280.691 122.194L286.77 116.771L282.618 105.624Z" fill="#BF7A62"/>
<path d="M283.671 205.338L302.913 195.992L327.597 198.965C329.25 200.209 330.359 202.043 330.696 204.084C330.859 204.743 330.759 205.441 330.416 206.028C329.863 206.801 328.727 206.896 327.805 206.67C326.883 206.444 326.02 205.962 325.075 205.849C323.237 205.635 321.542 206.807 320.162 208.037C318.782 209.268 317.408 210.671 315.606 211.087C313.984 211.353 312.321 211.042 310.907 210.207C309.467 209.458 308.182 208.424 306.743 207.621C304.135 206.047 301.083 205.368 298.053 205.689C295.674 206.004 293.414 207.05 291.023 207.431C288.631 207.811 284.938 207.389 283.641 205.35" fill="#1CAA90"/>
<path d="M329.547 243.501C329.547 243.501 313.785 189.786 313.488 188.068C313.214 186.516 315.671 148.882 316.771 139.12L299.409 139.263V139.429L291.159 139.631L294.847 246.444L305.524 247.265L305.452 212.021C312.185 229.042 319.995 247.996 319.995 247.996L329.547 243.501Z" fill="#D89377"/>
<path d="M298.416 185.605C298.416 185.605 298.38 186.022 298.345 186.795C298.283 187.855 298.299 188.918 298.392 189.975C298.523 191.546 298.784 193.103 299.171 194.63C299.683 196.493 300.31 198.322 301.051 200.106C302.514 203.959 303.823 207.46 304.751 209.993C305.191 211.23 305.559 212.246 305.833 213.007C305.978 213.373 306.097 213.748 306.19 214.131C306.003 213.785 305.842 213.425 305.708 213.055C305.411 212.3 305.006 211.271 304.519 210.082C303.531 207.567 302.187 204.083 300.724 200.225C300.361 199.262 300.004 198.316 299.665 197.407C299.346 196.523 299.076 195.622 298.856 194.708C298.481 193.16 298.242 191.582 298.142 189.993C298.075 188.923 298.094 187.849 298.202 186.783C298.243 186.402 298.291 186.117 298.333 185.921C298.342 185.811 298.37 185.705 298.416 185.605Z" fill="#BF7A62"/>
<path d="M305.476 224.839C305.476 224.512 305.72 212.883 305.72 212.883C305.72 212.883 301.854 202.092 301.752 202.419C301.651 202.746 305.476 224.839 305.476 224.839Z" fill="#BF7A62"/>
<path d="M294.247 246.408V245.219L305.548 245.445L305.488 249.404L304.792 249.44C301.681 249.553 288.959 249.814 286.889 249.149C284.635 248.388 294.247 246.408 294.247 246.408Z" fill="black"/>
<g opacity="0.3">
<path d="M301.455 249.232C301.638 248.284 302.166 247.437 302.936 246.854C303.691 246.275 304.636 246.001 305.583 246.087L305.529 249.232H301.455Z" fill="white"/>
</g>
<path opacity="0.3" d="M289.547 247.544C289.547 247.544 286.169 248.448 286.573 249.012C286.978 249.577 299.849 249.791 305.529 249.393V249.143L290.523 249.012C290.523 249.012 290.201 247.58 289.547 247.544Z" fill="white"/>
<path d="M305.72 249.137C305.655 249.144 305.589 249.144 305.524 249.137H304.97L302.918 249.19C301.188 249.22 298.796 249.238 296.156 249.19C293.515 249.143 291.124 249.053 289.393 248.964L287.347 248.845L286.793 248.804H287.347L289.399 248.881C291.13 248.946 293.515 249.024 296.156 249.065C298.796 249.107 301.188 249.113 302.918 249.107H304.97H305.524L305.72 249.137Z" fill="#263238"/>
<path d="M290.517 249.185C290.433 248.845 290.309 248.515 290.148 248.204C289.951 247.913 289.721 247.646 289.464 247.407C289.813 247.54 290.1 247.799 290.267 248.133C290.474 248.442 290.563 248.815 290.517 249.185Z" fill="#263238"/>
<path d="M293.872 247.556C293.836 247.556 293.681 247.377 293.521 247.116C293.405 246.967 293.326 246.794 293.289 246.61C293.324 246.61 293.479 246.783 293.64 247.044C293.755 247.195 293.835 247.37 293.872 247.556Z" fill="#263238"/>
<path d="M294.788 247.092C294.788 247.092 294.591 246.997 294.395 246.818C294.199 246.64 294.074 246.474 294.098 246.444C294.121 246.414 294.3 246.539 294.49 246.717C294.681 246.896 294.817 247.038 294.788 247.092Z" fill="#263238"/>
<path d="M295.388 246.04C295.197 246.102 294.994 246.123 294.794 246.099C294.472 246.099 294.199 246.069 294.199 246.028C294.39 245.963 294.593 245.94 294.794 245.962C294.995 245.941 295.199 245.968 295.388 246.04Z" fill="#263238"/>
<path d="M295.608 245.29C295.404 245.394 295.179 245.455 294.95 245.468C294.721 245.482 294.491 245.447 294.276 245.367C294.496 245.333 294.719 245.322 294.942 245.332C295.163 245.299 295.385 245.285 295.608 245.29Z" fill="#263238"/>
<path d="M293.503 246.569C293.265 246.607 293.022 246.607 292.783 246.569C292.52 246.532 292.261 246.47 292.01 246.385C291.859 246.337 291.713 246.273 291.576 246.194C291.491 246.143 291.428 246.063 291.397 245.969C291.389 245.914 291.395 245.858 291.416 245.806C291.437 245.755 291.472 245.71 291.516 245.677C291.796 245.548 292.111 245.519 292.41 245.596C292.708 245.673 292.97 245.851 293.152 246.099C293.259 246.243 293.335 246.407 293.378 246.581C293.378 246.706 293.378 246.777 293.378 246.777C293.308 246.562 293.202 246.361 293.063 246.183C292.906 245.992 292.701 245.848 292.468 245.766C292.328 245.716 292.18 245.695 292.032 245.703C291.884 245.711 291.739 245.749 291.606 245.814C291.487 245.897 291.528 246.028 291.659 246.111C291.786 246.184 291.919 246.243 292.058 246.29C292.299 246.379 292.548 246.448 292.801 246.498C293.229 246.539 293.503 246.545 293.503 246.569Z" fill="#263238"/>
<path d="M293.319 246.598C293.228 246.446 293.2 246.265 293.241 246.093C293.268 245.904 293.339 245.725 293.449 245.57C293.51 245.465 293.597 245.377 293.701 245.315C293.805 245.253 293.923 245.217 294.044 245.213C294.118 245.23 294.182 245.275 294.223 245.338C294.264 245.401 294.279 245.478 294.264 245.552C294.243 245.666 294.198 245.776 294.133 245.873C294.038 246.032 293.92 246.176 293.783 246.301C293.557 246.521 293.372 246.604 293.366 246.586C293.36 246.568 293.515 246.461 293.717 246.235C293.834 246.103 293.938 245.96 294.026 245.807C294.128 245.653 294.199 245.379 294.026 245.344C293.854 245.308 293.658 245.504 293.545 245.647C293.439 245.784 293.366 245.942 293.33 246.111C293.311 246.272 293.307 246.436 293.319 246.598Z" fill="#263238"/>
<path d="M305.523 246.052C305.523 246.052 305.202 246.016 304.691 246.052C304.027 246.114 303.395 246.362 302.865 246.765C302.331 247.173 301.919 247.72 301.675 248.347C301.497 248.828 301.473 249.155 301.449 249.149C301.436 249.074 301.436 248.998 301.449 248.923C301.469 248.721 301.513 248.521 301.58 248.329C301.799 247.668 302.214 247.089 302.77 246.67C303.32 246.251 303.982 246.004 304.673 245.963C304.872 245.953 305.071 245.963 305.268 245.992C305.356 245.996 305.442 246.017 305.523 246.052Z" fill="#263238"/>
<path d="M300.057 248.109C299.516 248.224 298.963 248.27 298.41 248.245C297.856 248.264 297.302 248.21 296.762 248.085C296.762 248.043 297.5 248.085 298.41 248.085C299.32 248.085 300.051 248.067 300.057 248.109Z" fill="#263238"/>
<path d="M302.264 248.144C302.264 248.174 302.199 248.299 302.121 248.465C302.044 248.632 302.002 248.78 301.961 248.78C301.919 248.78 301.907 248.602 301.997 248.406C302.086 248.209 302.24 248.114 302.264 248.144Z" fill="#263238"/>
<path d="M303.115 247.122C303.115 247.152 303.067 247.265 302.948 247.384C302.829 247.503 302.71 247.568 302.687 247.544C302.663 247.52 302.734 247.401 302.853 247.283C302.972 247.164 303.085 247.098 303.115 247.122Z" fill="#263238"/>
<path d="M304.31 246.67C304.31 246.711 304.156 246.705 303.989 246.759C303.823 246.812 303.704 246.902 303.674 246.878C303.644 246.854 303.739 246.694 303.947 246.628C304.156 246.563 304.328 246.634 304.31 246.67Z" fill="#263238"/>
<path d="M305.167 246.444C305.167 246.479 305.113 246.539 305.018 246.568C304.923 246.598 304.839 246.604 304.822 246.568C304.804 246.533 304.875 246.479 304.97 246.444C305.065 246.408 305.125 246.444 305.167 246.444Z" fill="#263238"/>
<path d="M319.995 248.227L319.484 247.139L329.714 242.294L331.439 245.861L330.844 246.2C328.108 247.698 316.837 253.602 314.69 253.929C312.263 254.303 319.995 248.227 319.995 248.227Z" fill="black"/>
<g opacity="0.3">
<path d="M327.727 247.556C327.467 246.626 327.56 245.632 327.989 244.767C328.409 243.914 329.132 243.248 330.017 242.9L331.373 245.742L327.727 247.556Z" fill="white"/>
</g>
<path opacity="0.3" d="M316.289 251.355C316.289 251.355 313.678 253.673 314.291 253.989C314.904 254.304 326.52 248.769 331.433 245.879L331.308 245.659L317.812 252.235C317.812 252.235 316.896 251.099 316.289 251.355Z" fill="white"/>
<path d="M331.463 245.576C331.411 245.618 331.355 245.654 331.296 245.683L330.808 245.951L329.024 246.914C327.489 247.711 325.354 248.793 322.969 249.928C320.584 251.064 318.407 252.051 316.819 252.74L314.909 253.579L314.392 253.787L314.208 253.852C314.262 253.817 314.32 253.787 314.38 253.763L314.886 253.531L316.753 252.687C318.329 251.973 320.5 250.974 322.886 249.839C325.271 248.703 327.406 247.633 328.953 246.866L330.785 245.945L331.284 245.701C331.341 245.655 331.4 245.614 331.463 245.576Z" fill="#263238"/>
<path d="M317.89 252.389C317.668 252.117 317.412 251.876 317.128 251.67C316.821 251.498 316.496 251.36 316.159 251.26C316.53 251.23 316.9 251.336 317.2 251.557C317.528 251.735 317.775 252.033 317.89 252.389Z" fill="#263238"/>
<path d="M320.168 249.416C319.984 249.376 319.811 249.294 319.662 249.178C319.401 249.018 319.204 248.857 319.228 248.827C319.252 248.798 319.472 248.899 319.734 249.059C319.995 249.22 320.186 249.416 320.168 249.416Z" fill="#263238"/>
<path d="M320.78 248.614C320.78 248.649 320.56 248.614 320.31 248.542C320.06 248.471 319.864 248.382 319.876 248.346C319.888 248.31 320.096 248.346 320.352 248.412C320.608 248.477 320.792 248.572 320.78 248.614Z" fill="#263238"/>
<path d="M320.846 247.401C320.846 247.437 320.638 247.58 320.346 247.722C320.176 247.828 319.985 247.896 319.787 247.925C319.787 247.889 319.995 247.746 320.287 247.604C320.457 247.498 320.648 247.429 320.846 247.401Z" fill="#263238"/>
<path d="M320.703 246.64C320.703 246.64 320.524 246.907 320.191 247.098C320.002 247.232 319.775 247.304 319.543 247.306C319.73 247.178 319.929 247.068 320.138 246.979C320.441 246.8 320.673 246.61 320.703 246.64Z" fill="#263238"/>
<path d="M319.4 248.715C319.203 248.857 318.981 248.962 318.746 249.024C318.494 249.107 318.235 249.167 317.973 249.203C317.815 249.224 317.655 249.224 317.497 249.203C317.398 249.196 317.306 249.152 317.241 249.078C317.211 249.032 317.194 248.978 317.194 248.923C317.194 248.868 317.211 248.815 317.241 248.769C317.434 248.529 317.704 248.363 318.005 248.298C318.306 248.233 318.62 248.273 318.895 248.412C319.056 248.494 319.198 248.61 319.311 248.751C319.394 248.846 319.424 248.911 319.412 248.917C319.252 248.747 319.063 248.606 318.853 248.501C318.623 248.4 318.369 248.367 318.121 248.406C317.974 248.423 317.831 248.469 317.701 248.541C317.571 248.614 317.457 248.711 317.366 248.828C317.3 248.959 317.396 249.06 317.544 249.072C317.693 249.087 317.842 249.087 317.99 249.072C318.245 249.043 318.498 248.995 318.746 248.929C319.138 248.822 319.4 248.697 319.4 248.715Z" fill="#263238"/>
<path d="M319.246 248.822C319.246 248.822 319.061 248.715 318.954 248.406C318.891 248.225 318.875 248.031 318.906 247.841C318.912 247.718 318.951 247.598 319.017 247.493C319.084 247.389 319.177 247.304 319.287 247.247C319.36 247.229 319.436 247.24 319.501 247.277C319.566 247.315 319.613 247.377 319.632 247.449C319.67 247.56 319.681 247.678 319.662 247.794C319.646 247.981 319.606 248.164 319.543 248.341C319.5 248.507 319.414 248.659 319.293 248.781C319.293 248.781 319.37 248.602 319.448 248.311C319.496 248.14 319.526 247.965 319.537 247.788C319.537 247.604 319.501 247.33 319.323 247.378C319.144 247.425 319.067 247.681 319.025 247.859C318.988 248.028 318.988 248.202 319.025 248.37C319.081 248.529 319.155 248.681 319.246 248.822Z" fill="#263238"/>
<path d="M329.928 242.877C329.928 242.877 329.625 242.99 329.191 243.263C328.625 243.618 328.168 244.122 327.87 244.72C327.585 245.324 327.47 245.994 327.537 246.658C327.591 247.163 327.716 247.467 327.692 247.473C327.645 247.412 327.611 247.344 327.591 247.271C327.525 247.077 327.475 246.878 327.442 246.676C327.321 245.886 327.481 245.079 327.894 244.395C328.307 243.71 328.947 243.192 329.702 242.93C329.774 242.901 329.851 242.883 329.928 242.877Z" fill="#263238"/>
<path d="M325.943 247.175C325.511 247.522 325.035 247.81 324.527 248.031C324.043 248.298 323.525 248.498 322.987 248.626C322.987 248.59 323.653 248.317 324.468 247.912C325.283 247.508 325.943 247.14 325.943 247.175Z" fill="#263238"/>
<path d="M327.942 246.224C327.977 246.224 327.942 246.391 327.942 246.575C327.942 246.759 327.977 246.914 327.942 246.926C327.906 246.937 327.817 246.789 327.811 246.575C327.805 246.361 327.906 246.206 327.942 246.224Z" fill="#263238"/>
<path d="M328.245 244.928C328.28 244.928 328.245 245.076 328.245 245.237C328.245 245.397 328.114 245.51 328.078 245.498C328.043 245.486 328.078 245.35 328.114 245.189C328.15 245.029 328.209 244.916 328.245 244.928Z" fill="#263238"/>
<path d="M329.119 243.988C329.119 244.03 328.994 244.089 328.869 244.214C328.745 244.339 328.673 244.47 328.637 244.458C328.602 244.446 328.637 244.268 328.774 244.119C328.911 243.971 329.113 243.953 329.119 243.988Z" fill="#263238"/>
<path d="M329.786 243.424C329.786 243.424 329.786 243.531 329.714 243.602C329.643 243.674 329.565 243.715 329.542 243.686C329.518 243.656 329.542 243.585 329.613 243.507C329.684 243.43 329.762 243.4 329.786 243.424Z" fill="#263238"/>
<path d="M316.307 136.094C311.549 127.889 310.359 128.846 311.965 124.066L316.605 108.513L314.642 98.7632C313.561 97.7112 312.27 96.8994 310.853 96.3809C309.437 95.8625 307.927 95.6491 306.422 95.7549L296.738 96.4207C296.738 96.4207 291.98 95.3803 284.95 102.194L280.108 106.73L286.228 118.341L286.538 123.608L290.951 138.014L289.761 144.369C289.25 149.203 282.749 204.637 283.629 205.517C284.509 206.396 298.106 199.649 301.39 202.419C304.673 205.19 311.281 206.89 315.011 205.695C318.74 204.5 324.331 197.086 329.976 202.086C329.988 202.086 328.144 152.901 316.307 136.094Z" fill="#1FC9AA"/>
<path d="M310.978 96.4268C310.978 96.4268 321.089 99.1081 319.573 106.308C318.841 109.875 314.005 117.235 314.005 117.235L302.573 111.831L310.978 96.4268Z" fill="#1FC9AA"/>
<path d="M290.404 140.968C292.398 139.246 294.966 138.333 297.601 138.412C298.937 138.46 300.239 138.847 301.384 139.536C302.712 140.332 303.754 141.529 304.358 142.954C304.677 143.727 304.819 144.562 304.774 145.398C304.711 146.266 304.457 147.111 304.031 147.871C303.216 149.434 301.931 150.736 301.057 152.33C300.182 153.923 300.129 155.748 300.254 157.449C300.379 159.149 300.629 160.855 300.254 162.449C300.094 163.223 299.8 163.963 299.385 164.636C299.005 165.291 298.451 165.827 297.785 166.188C297.153 166.517 296.433 166.64 295.727 166.539C295.092 166.434 294.485 166.201 293.943 165.855C293.043 165.243 292.218 164.527 291.487 163.721C290.905 163.154 290.293 162.618 289.655 162.116C289.252 161.795 288.827 161.505 288.382 161.248C288.078 161.069 287.906 160.992 287.912 160.98C287.918 160.968 287.959 160.98 288.043 161.022C288.126 161.063 288.257 161.111 288.411 161.188C288.871 161.428 289.311 161.704 289.726 162.015C290.38 162.508 291.008 163.036 291.605 163.596C292.341 164.378 293.163 165.075 294.056 165.671C294.579 165.994 295.162 166.208 295.769 166.301C296.423 166.389 297.089 166.271 297.672 165.962C298.293 165.618 298.808 165.11 299.159 164.494C299.553 163.845 299.831 163.133 299.98 162.389C300.343 160.861 300.081 159.191 299.98 157.472C299.9 156.586 299.9 155.695 299.98 154.809C300.079 153.888 300.358 152.995 300.801 152.181C301.687 150.534 302.966 149.244 303.775 147.734C304.187 147.004 304.433 146.192 304.495 145.356C304.539 144.564 304.407 143.772 304.108 143.037C303.54 141.664 302.551 140.507 301.283 139.732C300.179 139.052 298.92 138.665 297.625 138.608C295.737 138.49 293.855 138.919 292.206 139.845C291.754 140.089 291.315 140.357 290.892 140.647L290.559 140.879C290.452 140.951 290.41 140.974 290.404 140.968Z" fill="#FAFAFA"/>
<path d="M328.798 187.068L328.644 187.11L328.18 187.187C327.769 187.252 327.168 187.348 326.395 187.449C324.199 187.781 321.979 187.932 319.757 187.9C318.219 187.876 316.688 187.677 315.195 187.306C313.472 186.879 311.837 186.153 310.365 185.16C308.719 184.066 307.411 182.534 306.588 180.736C305.718 178.785 305.539 176.596 306.083 174.53C306.382 173.488 306.908 172.525 307.623 171.711C308.336 170.963 309.11 170.275 309.937 169.654C310.721 169.068 311.437 168.396 312.072 167.651C312.646 166.917 313.041 166.06 313.226 165.148C313.607 163.364 313.429 161.581 313.512 159.928C313.506 158.374 313.895 156.844 314.642 155.481C315.277 154.371 316.141 153.408 317.176 152.657C317.95 152.086 318.812 151.645 319.728 151.349C320.306 151.161 320.905 151.041 321.512 150.992H321.982H322.142C321.332 151.054 320.533 151.215 319.763 151.474C318.869 151.783 318.03 152.233 317.277 152.805C316.162 153.628 315.26 154.704 314.646 155.945C314.031 157.186 313.722 158.555 313.744 159.94C313.672 161.575 313.869 163.358 313.482 165.213C313.297 166.169 312.89 167.067 312.293 167.835C311.647 168.603 310.917 169.295 310.116 169.898C309.301 170.51 308.539 171.188 307.838 171.925C307.157 172.705 306.656 173.625 306.368 174.619C305.844 176.616 306.016 178.731 306.856 180.617C307.649 182.371 308.918 183.866 310.52 184.934C311.96 185.913 313.56 186.634 315.249 187.062C316.721 187.445 318.231 187.662 319.751 187.71C321.962 187.757 324.172 187.639 326.365 187.359L328.15 187.157L328.614 187.104L328.798 187.068Z" fill="#FAFAFA"/>
<path d="M300.444 201.931C300.508 201.874 300.577 201.824 300.652 201.783C300.868 201.675 301.068 201.539 301.247 201.379C301.455 201.17 301.372 200.784 301.247 200.362C301.07 199.897 300.851 199.45 300.593 199.024C300.052 198.043 299.403 196.878 298.63 195.629C297.797 194.272 296.798 193.024 295.656 191.914C294.517 190.805 293.152 189.958 291.653 189.429C290.433 188.998 289.126 188.874 287.846 189.066C286.985 189.214 286.17 189.562 285.467 190.083C284.974 190.457 284.742 190.719 284.718 190.677C284.76 190.603 284.812 190.535 284.872 190.475C285.034 190.294 285.209 190.125 285.396 189.97C286.09 189.394 286.919 189.004 287.805 188.834C289.122 188.601 290.477 188.705 291.742 189.137C293.289 189.666 294.698 190.531 295.87 191.67C297.033 192.798 298.042 194.073 298.874 195.463C299.653 196.723 300.266 197.912 300.789 198.899C301.03 199.344 301.23 199.809 301.384 200.291C301.448 200.495 301.488 200.707 301.503 200.921C301.51 201.016 301.498 201.112 301.466 201.202C301.434 201.292 301.384 201.374 301.319 201.444C301.13 201.603 300.917 201.729 300.688 201.819C300.533 201.908 300.45 201.943 300.444 201.931Z" fill="#FAFAFA"/>
<path d="M313.452 132.033C313.452 132.033 313.381 132.175 313.167 132.342C312.855 132.573 312.495 132.731 312.114 132.806C311.545 132.916 310.956 132.867 310.413 132.663C309.751 132.401 309.18 131.95 308.771 131.367C308.057 130.307 307.749 129.026 307.903 127.758C307.922 127.241 308.035 126.731 308.236 126.254C308.29 126.254 308.159 126.848 308.123 127.77C308.038 128.975 308.354 130.175 309.021 131.183C309.399 131.709 309.916 132.121 310.514 132.372C311.01 132.57 311.549 132.638 312.078 132.568C312.568 132.484 313.035 132.302 313.452 132.033Z" fill="#FAFAFA"/>
<path d="M314.315 114.934C314.315 114.934 314.237 114.934 314.083 114.988C313.857 115.008 313.63 115.008 313.405 114.988C312.564 114.924 311.759 114.621 311.085 114.114C310.615 113.765 310.224 113.322 309.937 112.812C309.608 112.221 309.425 111.561 309.402 110.886C309.364 110.138 309.517 109.393 309.848 108.722C310.237 108.038 310.722 107.414 311.287 106.867C311.543 106.588 311.759 106.276 311.929 105.939C312.087 105.623 312.147 105.267 312.102 104.917C311.919 104.237 311.626 103.592 311.234 103.008C310.921 102.453 310.78 101.817 310.83 101.182C310.88 100.547 311.118 99.9408 311.513 99.441C311.783 99.1141 312.117 98.8462 312.494 98.6539C312.872 98.4616 313.285 98.3491 313.708 98.3233C313.935 98.3081 314.163 98.3221 314.386 98.3649C314.465 98.3723 314.541 98.3945 314.612 98.4303C314.612 98.466 314.291 98.3768 313.72 98.4303C313.317 98.4783 312.929 98.6061 312.576 98.8062C312.224 99.0063 311.915 99.2747 311.668 99.5956C311.31 100.064 311.099 100.629 311.063 101.218C311.027 101.806 311.167 102.392 311.465 102.901C311.885 103.509 312.197 104.185 312.387 104.899C312.438 105.306 312.37 105.719 312.191 106.088C312.009 106.451 311.777 106.788 311.501 107.087C310.958 107.618 310.486 108.217 310.097 108.87C309.793 109.497 309.646 110.189 309.669 110.886C309.682 111.478 309.825 112.06 310.089 112.591C310.354 113.121 310.732 113.587 311.198 113.953C311.837 114.451 312.596 114.771 313.399 114.881C313.987 114.952 314.315 114.905 314.315 114.934Z" fill="#FAFAFA"/>
<path d="M287.02 120.653C287.337 120.692 287.657 120.708 287.977 120.701C288.845 120.658 289.671 120.315 290.315 119.732C290.775 119.297 291.109 118.746 291.282 118.137C291.455 117.528 291.46 116.883 291.296 116.272C291.106 115.543 290.689 114.894 290.107 114.417C289.433 113.907 288.843 113.295 288.358 112.603C287.963 111.832 287.824 110.956 287.96 110.1C288.049 109.286 288.239 108.531 288.364 107.812C288.506 107.142 288.549 106.454 288.489 105.772C288.432 105.184 288.207 104.625 287.841 104.161C287.299 103.484 286.525 103.033 285.67 102.895C285.352 102.859 285.032 102.847 284.712 102.859C284.712 102.859 284.789 102.829 284.956 102.794C285.197 102.764 285.44 102.764 285.681 102.794C286.591 102.892 287.427 103.339 288.013 104.042C288.418 104.53 288.673 105.125 288.745 105.754C288.82 106.463 288.785 107.179 288.644 107.877C288.525 108.614 288.34 109.363 288.263 110.148C288.137 110.94 288.264 111.751 288.626 112.467C289.1 113.128 289.669 113.715 290.315 114.209C290.927 114.734 291.361 115.436 291.558 116.218C291.727 116.876 291.713 117.568 291.517 118.219C291.321 118.87 290.95 119.455 290.446 119.91C289.758 120.508 288.877 120.837 287.965 120.838C287.721 120.842 287.478 120.816 287.24 120.76C287.097 120.695 287.014 120.665 287.02 120.653Z" fill="#FAFAFA"/>
<path d="M301.681 66.5988C302.696 66.3967 303.742 66.4139 304.75 66.6492C305.758 66.8845 306.703 67.3325 307.523 67.9631C308.344 68.5938 309.019 69.3925 309.505 70.3056C309.991 71.2187 310.276 72.2252 310.341 73.2575C310.413 74.3931 310.27 75.707 311.073 76.5155C311.668 77.1101 312.512 77.2052 313.22 77.5916C313.882 77.9739 314.389 78.5753 314.654 79.2918C314.919 80.0084 314.925 80.7949 314.671 81.5155C314.398 82.223 313.874 82.8235 313.607 83.5369C313.214 84.5892 312.887 85.7961 313.208 86.8722C314.862 92.5202 310.829 93.2099 308.723 93.5904C305.714 94.1195 302.663 93.1623 302.353 90.0232C302.252 89.0066 300.438 89.1195 299.427 89.2503C298.237 89.4108 297.303 90.4394 296.411 91.2658C295.06 92.6412 293.349 93.6094 291.474 94.06C290.538 94.2749 289.563 94.256 288.636 94.0051C287.708 93.7542 286.857 93.2789 286.157 92.6213C284.825 91.2479 284.497 88.8876 285.669 87.3776C284.954 87.0517 284.321 86.5683 283.819 85.9636C283.317 85.3588 282.959 84.6483 282.771 83.8854C282.582 83.1224 282.569 82.3268 282.732 81.5581C282.895 80.7894 283.23 80.0675 283.712 79.4466C284.444 78.5013 285.497 77.7997 286.026 76.7236C286.466 75.8199 286.942 73.751 287.287 72.7938C287.775 71.4442 289.44 69.1315 290.731 68.5013" fill="#2C374A"/>
<path d="M307.028 97.4435L295.858 97.604C295.668 96.3139 295.293 91.302 295.293 91.302C295.293 91.302 290.612 91.0167 290.118 86.415C289.625 81.8134 289.428 71.1475 289.428 71.1475C291.943 69.7759 294.779 69.0996 297.643 69.1884C300.506 69.2772 303.295 70.128 305.72 71.6529L306.451 72.1107L307.028 97.4435Z" fill="#D89377"/>
<path d="M294.918 83.4125C294.58 83.3089 294.225 83.2667 293.872 83.2877C293.705 83.2877 293.568 83.2877 293.55 83.1747C293.527 83.0087 293.552 82.8397 293.622 82.6872L294.002 81.3495C294.526 79.447 294.871 77.8834 294.77 77.8597C294.669 77.8359 294.175 79.3519 293.651 81.2544C293.532 81.7181 293.414 82.164 293.301 82.598C293.222 82.8253 293.222 83.0723 293.301 83.2996C293.33 83.3603 293.374 83.4134 293.427 83.4546C293.481 83.4959 293.543 83.5242 293.61 83.5374C293.705 83.5488 293.8 83.5488 293.895 83.5374C294.241 83.5496 294.586 83.5074 294.918 83.4125Z" fill="#263238"/>
<path d="M295.275 91.236C297.409 91.0729 299.446 90.2804 301.128 88.959C301.128 88.959 300.022 92.4132 295.376 92.431L295.275 91.236Z" fill="#BF7A62"/>
<path d="M298.392 78.5969C298.392 78.7545 298.33 78.9058 298.218 79.0173C298.106 79.1287 297.955 79.1914 297.797 79.1914C297.723 79.1962 297.647 79.1859 297.577 79.1611C297.506 79.1363 297.441 79.0975 297.385 79.047C297.33 78.9965 297.285 78.9354 297.254 78.8672C297.222 78.7991 297.205 78.7253 297.203 78.6504C297.203 78.4927 297.265 78.3415 297.377 78.23C297.488 78.1185 297.64 78.0558 297.797 78.0558C297.872 78.051 297.947 78.0613 298.018 78.0861C298.089 78.1109 298.154 78.1497 298.21 78.2002C298.265 78.2507 298.31 78.3118 298.341 78.38C298.373 78.4481 298.39 78.5219 298.392 78.5969Z" fill="#263238"/>
<path d="M299.349 77.9668C299.278 78.0381 298.844 77.7052 298.213 77.6933C297.583 77.6814 297.119 77.9846 297.024 77.9073C296.929 77.83 297.071 77.7349 297.274 77.5922C297.55 77.4102 297.876 77.3169 298.207 77.3247C298.535 77.3298 298.852 77.4403 299.112 77.6398C299.326 77.7944 299.385 77.9311 299.349 77.9668Z" fill="#263238"/>
<path d="M291.95 78.579C291.95 78.7367 291.888 78.8879 291.776 78.9994C291.665 79.1109 291.513 79.1736 291.356 79.1736C291.281 79.1792 291.206 79.1697 291.135 79.1456C291.064 79.1215 290.999 79.0832 290.944 79.0332C290.888 78.9832 290.843 78.9224 290.812 78.8546C290.78 78.7867 290.763 78.7132 290.761 78.6385C290.761 78.4808 290.823 78.3296 290.935 78.2181C291.047 78.1066 291.198 78.044 291.356 78.044C291.504 78.0432 291.646 78.0976 291.756 78.1966C291.866 78.2955 291.936 78.4319 291.95 78.579Z" fill="#263238"/>
<path d="M292.783 78.0616C292.712 78.133 292.277 77.8 291.647 77.7881C291.017 77.7763 290.553 78.0795 290.457 78.0022C290.362 77.9249 290.505 77.8298 290.707 77.6871C290.985 77.5072 291.31 77.4159 291.641 77.4255C291.968 77.4289 292.285 77.5373 292.545 77.7346C292.759 77.8892 292.825 78.026 292.783 78.0616Z" fill="#263238"/>
<path d="M295.977 85.0299C295.914 84.8832 295.88 84.7258 295.876 84.5662C295.877 84.4855 295.901 84.4068 295.945 84.3394C295.989 84.272 296.052 84.2186 296.126 84.1857C296.233 84.15 296.364 84.1857 296.459 84.1084C296.554 84.0311 296.59 83.8349 296.667 83.6922C296.724 83.6014 296.808 83.5307 296.907 83.4901C297.006 83.4496 297.116 83.4413 297.22 83.4663C297.426 83.5255 297.611 83.6407 297.756 83.7992C297.943 83.9642 298.062 84.1932 298.089 84.4413C298.081 84.5604 298.046 84.6762 297.986 84.7794C297.927 84.8826 297.843 84.9704 297.744 85.0359C297.538 85.1681 297.303 85.2496 297.06 85.2737C296.8 85.3133 296.536 85.3233 296.274 85.3034C296.199 85.3017 296.124 85.2856 296.054 85.2558C296.02 85.2393 295.992 85.2129 295.973 85.1801C295.954 85.1472 295.945 85.1094 295.947 85.0715" fill="#BF7A62"/>
<path d="M295.519 85.1244C296.037 85.062 296.53 84.8643 296.948 84.5512C297.365 84.2381 297.693 83.8207 297.898 83.3408" fill="#BF7A62"/>
<path d="M297.916 83.3408C297.799 83.8737 297.495 84.3468 297.058 84.6742C296.621 85.0015 296.082 85.1613 295.537 85.1244C296.001 84.9246 296.45 84.6922 296.881 84.4288C297.536 83.9413 297.833 83.2992 297.916 83.3408Z" fill="#263238"/>
<path d="M290.505 76.3615C291.042 76.1077 291.649 76.0387 292.23 76.1654L290.505 76.3615Z" fill="#BF7A62"/>
<path d="M292.23 76.1654C292.183 76.3378 291.808 76.3794 291.386 76.427C290.963 76.4746 290.588 76.5102 290.505 76.3616C290.422 76.213 290.761 75.8741 291.32 75.8146C291.879 75.7552 292.278 76.0049 292.23 76.1654Z" fill="#263238"/>
<path d="M296.982 76.4093C297.783 76.1409 298.656 76.1899 299.421 76.546L296.982 76.4093Z" fill="#BF7A62"/>
<path d="M299.421 76.5394C299.338 76.694 298.826 76.5751 298.196 76.5394C297.565 76.5037 297.048 76.5394 297.006 76.3967C296.965 76.254 297.482 75.8735 298.255 75.9211C299.029 75.9686 299.504 76.4086 299.421 76.5394Z" fill="#263238"/>
<path d="M299.54 66.51C299.209 66.1301 298.805 65.8218 298.351 65.604C297.896 65.3862 297.402 65.2636 296.899 65.2437C295.383 65.0933 293.853 65.3436 292.464 65.9696C291.074 66.5956 289.874 67.5754 288.982 68.8108C287.965 70.2734 287.454 72.3126 288.388 73.8168C288.708 74.322 289.167 74.7243 289.711 74.9756C290.254 75.2269 290.858 75.3165 291.451 75.2337C292.044 75.151 292.6 74.8993 293.054 74.5089C293.507 74.1184 293.839 73.6057 294.008 73.032C294.018 73.3776 294.096 73.7179 294.238 74.033C294.381 74.3481 294.585 74.6317 294.838 74.8673C295.091 75.1029 295.389 75.2857 295.713 75.405C296.038 75.5244 296.383 75.5779 296.729 75.5625C297.074 75.5471 297.413 75.4631 297.726 75.3153C298.039 75.1676 298.319 74.9591 298.55 74.7019C298.781 74.4448 298.959 74.1442 299.073 73.8176C299.187 73.4911 299.234 73.1452 299.213 72.8001C299.498 73.748 300.077 74.5808 300.866 75.1782C301.693 75.6955 302.996 75.5706 303.424 74.6907C303.947 75.2852 304.679 75.9452 305.464 75.749C305.791 75.6356 306.072 75.4186 306.264 75.131C306.456 74.8434 306.549 74.5009 306.529 74.1557C306.471 73.4643 306.238 72.7992 305.851 72.2234C304.328 69.5718 302.08 67.1343 299.124 66.3317" fill="#2C374A"/>
<path d="M303.085 72.8005C303.773 74.0251 304.14 75.4038 304.151 76.8082C304.162 78.2126 303.818 79.597 303.15 80.8326C302.653 81.5685 302.229 82.351 301.883 83.1691C301.718 83.5808 301.682 84.0328 301.778 84.4657C301.875 84.8985 302.1 85.2921 302.425 85.5948C302.859 85.9218 303.525 86.0882 303.614 86.6174C303.634 86.8888 303.579 87.1604 303.454 87.4021C303.044 88.4729 302.994 89.6476 303.311 90.7493C303.525 91.4747 303.561 92.3724 305.291 93.1274C306.148 93.5139 306.618 94.1679 308.48 93.6922C311.739 92.854 310.585 85.571 310.264 82.2238C309.943 78.8766 308.396 72.9016 306.517 70.1133" fill="#2C374A"/>
<path d="M295.65 95.6359C295.65 95.6359 292.271 108.246 294.425 106.997C296.578 105.749 307.028 97.4433 307.028 97.4433L301.747 93.46L295.65 95.6359Z" fill="#D89377"/>
<path d="M263.834 117.354C263.46 116.117 258.784 113.572 259.492 112.889C260.414 111.991 264.251 115.766 264.602 116.058C264.953 116.349 265.375 115.849 265.048 115.6C264.572 115.243 259.695 111.361 260.61 110.475C261.11 109.982 261.895 110.98 261.895 110.98C261.895 110.98 266.178 114.958 266.588 114.547C266.999 114.137 264.566 111.688 263.686 110.933C262.805 110.178 262.811 109.458 263.448 109.339C263.888 109.256 266.63 111.509 267.48 112.312C268.331 113.115 270.633 115.231 270.341 113.228C270.341 113.198 270.341 113.168 270.341 113.132C269.996 111.171 270.383 109.565 270.811 109.149C270.913 109.07 271.036 109.021 271.164 109.008C271.293 108.995 271.422 109.019 271.538 109.076C271.654 109.133 271.752 109.221 271.82 109.331C271.888 109.44 271.924 109.567 271.924 109.696C271.944 109.792 271.944 109.891 271.924 109.987C271.924 110.029 271.924 110.089 271.924 110.136C271.895 110.819 271.939 111.502 272.054 112.175C272.141 112.781 272.33 113.369 272.614 113.911C272.947 114.506 273.256 115.065 273.524 115.499C276.652 117.235 285.646 121.813 294.663 122.532C296.286 122.663 303.484 111.313 303.484 111.313L314.19 116.367C311.695 121.056 308.846 125.548 305.666 129.803C296.578 142.003 268.367 121.593 268.367 121.593L268.105 121.462C265.964 120.404 263.883 119.229 261.871 117.942C259.445 116.23 259.587 116.004 259.831 115.748C260.48 115.053 264.209 118.584 263.834 117.354Z" fill="#D89377"/>
<path d="M101.473 248.03L101.419 243.155L92.271 243.203V250.337L92.8658 250.373C95.3877 250.498 105.707 250.837 107.391 250.319C109.252 249.737 101.473 248.03 101.473 248.03Z" fill="#455A64"/>
<path d="M92.1519 250.129H92.3065H92.7586L94.424 250.195C95.8277 250.236 97.7667 250.272 99.908 250.266C102.049 250.26 103.994 250.207 105.398 250.153L107.057 250.076L107.51 250.046H107.664C107.613 250.039 107.561 250.039 107.51 250.046H107.057L105.392 250.082C103.988 250.117 102.049 250.159 99.908 250.165C97.7667 250.171 95.8277 250.165 94.424 250.129L92.7586 250.1H92.1638L92.1519 250.129Z" fill="#263238"/>
<path d="M104.47 250.325C104.54 250.049 104.641 249.781 104.774 249.529C104.947 249.295 105.147 249.081 105.368 248.893C105.08 248.998 104.843 249.211 104.708 249.487C104.526 249.726 104.44 250.026 104.47 250.325Z" fill="#263238"/>
<path d="M101.764 248.97C101.793 248.97 101.918 248.827 102.049 248.619C102.145 248.499 102.212 248.359 102.245 248.209C102.245 248.209 102.091 248.346 101.96 248.56C101.829 248.774 101.74 248.952 101.764 248.97Z" fill="#263238"/>
<path d="M101.02 248.583C101.02 248.583 101.187 248.506 101.342 248.363C101.496 248.221 101.609 248.09 101.591 248.066C101.574 248.042 101.425 248.137 101.27 248.28C101.116 248.423 101.003 248.56 101.02 248.583Z" fill="#263238"/>
<path d="M100.55 247.722C100.703 247.774 100.865 247.794 101.026 247.781C101.189 247.799 101.353 247.78 101.508 247.728C101.354 247.671 101.189 247.651 101.026 247.668C100.866 247.651 100.703 247.669 100.55 247.722Z" fill="#263238"/>
<path d="M100.39 247.115C100.547 247.217 100.732 247.269 100.919 247.264C101.106 247.293 101.298 247.268 101.472 247.192C101.294 247.159 101.112 247.147 100.931 247.157C100.752 247.124 100.571 247.11 100.39 247.115Z" fill="#263238"/>
<path d="M102.073 248.168C102.269 248.208 102.472 248.208 102.668 248.168C102.882 248.143 103.093 248.097 103.299 248.031C103.423 247.994 103.542 247.945 103.655 247.882C103.723 247.839 103.773 247.774 103.798 247.698C103.807 247.654 103.804 247.608 103.788 247.566C103.772 247.524 103.745 247.487 103.709 247.46C103.484 247.353 103.228 247.326 102.986 247.385C102.743 247.443 102.528 247.583 102.377 247.781C102.286 247.899 102.221 248.035 102.186 248.18C102.172 248.23 102.172 248.284 102.186 248.334C102.241 248.153 102.33 247.983 102.448 247.835C102.579 247.68 102.753 247.566 102.948 247.508C103.061 247.467 103.182 247.45 103.303 247.457C103.423 247.464 103.541 247.496 103.649 247.549C103.745 247.621 103.709 247.728 103.602 247.787C103.5 247.849 103.39 247.897 103.275 247.93C103.081 248 102.882 248.053 102.68 248.09C102.299 248.15 102.073 248.15 102.073 248.168Z" fill="#263238"/>
<path d="M102.222 248.226C102.296 248.105 102.319 247.96 102.287 247.822C102.272 247.668 102.216 247.52 102.126 247.394C102.077 247.307 102.006 247.235 101.921 247.183C101.835 247.131 101.738 247.101 101.639 247.097C101.58 247.11 101.528 247.144 101.494 247.194C101.459 247.244 101.445 247.305 101.454 247.364C101.469 247.458 101.503 247.547 101.555 247.626C101.634 247.756 101.728 247.875 101.835 247.983C101.927 248.088 102.043 248.17 102.174 248.22C102.174 248.22 102.055 248.113 101.894 247.929C101.798 247.822 101.714 247.704 101.645 247.578C101.567 247.453 101.508 247.233 101.645 247.204C101.781 247.174 101.942 247.334 102.031 247.453C102.115 247.566 102.172 247.696 102.198 247.834C102.22 247.963 102.228 248.095 102.222 248.226Z" fill="#263238"/>
<path d="M92.3242 247.632C92.3242 247.632 92.5859 247.632 93.0023 247.632C93.537 247.693 94.0437 247.903 94.4644 248.239C94.8852 248.574 95.203 249.021 95.3815 249.529C95.5242 249.921 95.5361 250.183 95.5599 250.177C95.5695 250.116 95.5695 250.053 95.5599 249.992C95.5464 249.826 95.5125 249.663 95.4588 249.505C95.2927 248.968 94.9695 248.494 94.5309 248.143C94.0869 247.798 93.5511 247.592 92.9904 247.549C92.8244 247.529 92.6567 247.529 92.4908 247.549C92.4315 247.568 92.3754 247.596 92.3242 247.632Z" fill="#263238"/>
<path d="M93.2582 243.821C93.1963 244.445 93.1724 245.073 93.1868 245.7C93.1582 246.326 93.1721 246.954 93.2284 247.579C93.2862 246.954 93.3081 246.327 93.2939 245.7C93.3189 245.074 93.307 244.446 93.2582 243.821Z" fill="#263238"/>
<path d="M96.7437 249.356C97.1812 249.45 97.6285 249.492 98.076 249.481C98.5251 249.502 98.9751 249.464 99.4143 249.368C99.4143 249.332 98.8195 249.368 98.076 249.368C97.3325 249.368 96.7437 249.32 96.7437 249.356Z" fill="#263238"/>
<path d="M94.9473 249.356C94.9473 249.356 95.0008 249.487 95.0603 249.623C95.1198 249.76 95.1554 249.879 95.1852 249.879C95.2149 249.879 95.2328 249.73 95.1852 249.576C95.1376 249.421 94.9711 249.338 94.9473 249.356Z" fill="#263238"/>
<path d="M94.2695 248.524C94.2695 248.524 94.3112 248.637 94.4063 248.732C94.5015 248.827 94.5907 248.886 94.6145 248.869C94.6383 248.851 94.5788 248.75 94.4837 248.655C94.3885 248.559 94.2933 248.5 94.2695 248.524Z" fill="#263238"/>
<path d="M93.3059 248.143C93.3059 248.173 93.4308 248.173 93.5676 248.221C93.7044 248.268 93.7995 248.334 93.8233 248.316C93.8471 248.298 93.7698 248.167 93.6033 248.114C93.4367 248.06 93.294 248.114 93.3059 248.143Z" fill="#263238"/>
<path d="M92.6157 247.965C92.6157 247.994 92.6574 248.042 92.7347 248.072C92.812 248.101 92.8774 248.072 92.8893 248.072C92.9012 248.072 92.8477 247.994 92.7704 247.965C92.693 247.935 92.6276 247.935 92.6157 247.965Z" fill="#263238"/>
<path d="M48.2379 240.997L50.8253 236.835L43.0929 231.954L39.2505 237.989L39.7085 238.321C41.7665 239.784 50.2721 245.628 51.9673 246.098C53.8706 246.621 48.2379 240.997 48.2379 240.997Z" fill="#455A64"/>
<path d="M39.2505 237.739L39.3754 237.84L39.7442 238.102L41.1063 239.053C42.2959 239.844 43.884 240.92 45.6922 242.067C47.5003 243.215 49.1598 244.22 50.3732 244.927L51.8126 245.759L52.2111 245.979C52.3004 246.027 52.3479 246.051 52.3539 246.045L52.223 245.956L51.8364 245.724L50.4148 244.862C49.2252 244.136 47.5598 243.12 45.7516 241.972C43.9434 240.825 42.3196 239.767 41.1538 239L39.768 238.078L39.3873 237.834L39.2505 237.739Z" fill="#263238"/>
<path d="M49.5288 244.541C49.7383 244.349 49.9676 244.179 50.2128 244.036C50.4762 243.926 50.7517 243.848 51.0336 243.804C50.7379 243.739 50.4288 243.786 50.1652 243.935C49.8834 244.048 49.6557 244.265 49.5288 244.541Z" fill="#263238"/>
<path d="M47.9819 241.942C47.9819 241.972 48.1901 241.906 48.4102 241.799C48.6303 241.692 48.8087 241.585 48.7968 241.556C48.6433 241.57 48.4949 241.619 48.3626 241.698C48.1723 241.805 47.97 241.912 47.9819 241.942Z" fill="#263238"/>
<path d="M47.5776 241.217C47.5776 241.247 47.7561 241.217 47.9643 241.217C48.1724 241.217 48.339 241.128 48.333 241.098C48.3271 241.068 48.1546 241.098 47.9464 241.098C47.7382 241.098 47.5776 241.187 47.5776 241.217Z" fill="#263238"/>
<path d="M47.6313 240.236C47.6313 240.236 47.78 240.397 48.0001 240.545C48.2202 240.694 48.4165 240.783 48.4343 240.754C48.4522 240.724 48.2856 240.593 48.0656 240.45C47.9376 240.349 47.7896 240.276 47.6313 240.236Z" fill="#263238"/>
<path d="M47.8213 239.636C47.8213 239.636 47.9402 239.868 48.1901 240.052C48.3295 240.178 48.5036 240.258 48.6897 240.284C48.6897 240.254 48.4934 240.141 48.2555 239.963C48.1193 239.843 47.9741 239.734 47.8213 239.636Z" fill="#263238"/>
<path d="M48.672 241.432C48.8155 241.566 48.9829 241.673 49.1657 241.747C49.3568 241.836 49.556 241.908 49.7605 241.961C49.8843 241.999 50.012 242.022 50.1411 242.032C50.2216 242.035 50.3001 242.007 50.3612 241.955C50.3915 241.923 50.412 241.883 50.4204 241.84C50.4288 241.797 50.4248 241.752 50.4088 241.711C50.2793 241.498 50.0799 241.336 49.8444 241.254C49.609 241.171 49.3523 241.173 49.1181 241.259C48.9788 241.31 48.8514 241.389 48.7434 241.491C48.672 241.562 48.6423 241.61 48.6482 241.616C48.7952 241.495 48.9622 241.4 49.1419 241.336C49.3358 241.277 49.5428 241.277 49.7367 241.336C49.8591 241.361 49.9751 241.411 50.0774 241.483C50.1797 241.554 50.2662 241.646 50.3315 241.753C50.3731 241.86 50.2839 241.931 50.159 241.931C50.0403 241.923 49.9228 241.903 49.8081 241.871C49.6053 241.823 49.4065 241.759 49.2133 241.681C48.8683 241.539 48.6779 241.42 48.672 241.432Z" fill="#263238"/>
<path d="M48.7672 241.538C48.7672 241.538 48.9218 241.467 49.0408 241.229C49.1101 241.091 49.1429 240.937 49.1359 240.783C49.1397 240.683 49.1183 240.584 49.0736 240.495C49.0289 240.405 48.9624 240.329 48.8802 240.272C48.8233 240.25 48.7604 240.252 48.7047 240.276C48.6491 240.301 48.6053 240.346 48.5828 240.403C48.5435 240.488 48.5252 240.582 48.5292 240.676C48.5231 240.828 48.5371 240.98 48.5709 241.128C48.593 241.266 48.6481 241.396 48.7315 241.508C48.7315 241.508 48.6839 241.354 48.6482 241.11C48.6324 240.968 48.6324 240.824 48.6482 240.682C48.6482 240.533 48.7196 240.313 48.8564 240.373C48.9932 240.432 49.0348 240.64 49.0527 240.789C49.0576 240.929 49.0354 241.068 48.9872 241.199C48.9238 241.318 48.8502 241.432 48.7672 241.538Z" fill="#263238"/>
<path d="M40.7554 235.741C40.7554 235.741 40.9873 235.86 41.3085 236.122C41.7301 236.462 42.0492 236.913 42.2305 237.424C42.4052 237.935 42.4341 238.485 42.3137 239.011C42.2186 239.421 42.0937 239.647 42.1115 239.659C42.1498 239.612 42.1818 239.56 42.2067 239.505C42.2846 239.355 42.3464 239.198 42.3911 239.035C42.5353 238.493 42.5166 237.92 42.3375 237.388C42.1488 236.859 41.8099 236.396 41.3621 236.056C41.2264 235.957 41.0809 235.871 40.9279 235.801C40.8741 235.771 40.8158 235.751 40.7554 235.741Z" fill="#263238"/>
<path d="M43.5926 233.024C43.2024 233.515 42.8429 234.029 42.516 234.564C42.1568 235.078 41.8309 235.614 41.5405 236.169C41.9283 235.676 42.2858 235.16 42.6112 234.624C42.9659 234.108 43.2935 233.574 43.5926 233.024Z" fill="#263238"/>
<path d="M43.5449 239.559C43.8564 239.881 44.2107 240.159 44.5977 240.385C44.9645 240.646 45.3646 240.856 45.7873 241.009C45.7873 240.98 45.2758 240.694 44.6572 240.29C44.0386 239.886 43.5628 239.535 43.5449 239.559Z" fill="#263238"/>
<path d="M42.0283 238.601C42.0283 238.601 42.0283 238.732 41.9807 238.881C41.9331 239.029 41.9212 239.148 41.9807 239.166C42.0402 239.184 42.0997 239.065 42.1235 238.899C42.1472 238.732 42.058 238.589 42.0283 238.601Z" fill="#263238"/>
<path d="M41.9092 237.525C41.9092 237.525 41.9092 237.638 41.9092 237.775C41.9092 237.912 41.9806 238.007 42.0103 238.001C42.04 237.995 42.046 237.882 42.0103 237.751C41.9746 237.621 41.9389 237.525 41.9092 237.525Z" fill="#263238"/>
<path d="M41.2964 236.687C41.2964 236.717 41.3916 236.782 41.4808 236.895C41.57 237.008 41.6116 237.115 41.6414 237.115C41.6711 237.115 41.6771 236.961 41.564 236.824C41.451 236.687 41.3083 236.658 41.2964 236.687Z" fill="#263238"/>
<path d="M40.8149 236.17C40.8149 236.17 40.8149 236.253 40.8566 236.318C40.8982 236.384 40.9636 236.42 40.9874 236.402C41.0112 236.384 40.9874 236.318 40.9458 236.253C40.9042 236.188 40.8387 236.146 40.8149 236.17Z" fill="#263238"/>
<path d="M83.652 146.378C83.652 146.378 91.3843 197.894 90.278 200.379C89.1717 202.864 52.9307 242.68 52.9307 242.68L39.5894 233.839C39.5894 233.839 71.2207 194.006 70.9828 193.072C70.7449 192.139 58.9976 142.234 58.9976 142.234L83.652 146.378Z" fill="#176CFF"/>
<path d="M54.5901 141.533L54.1202 143.442C52.7457 149.076 53.5978 155.024 56.4994 160.047L77.5196 196.503C79.0135 199.084 80.1008 201.879 80.7434 204.791L90.2601 246.883H104.91C104.91 247.757 101.121 212.205 99.2178 200.397C97.7903 191.479 85.8646 163.852 80.0891 150.796L83.6579 146.396L77.4363 145.374L54.5901 141.533Z" fill="#176CFF"/>
<path d="M80.5293 150.683C80.6602 150.867 80.768 151.067 80.8505 151.277C81.0408 151.658 81.3025 152.216 81.6178 152.912C82.2483 154.297 83.075 156.236 83.9197 158.4C84.7643 160.564 85.4602 162.561 85.936 164C86.168 164.725 86.3524 165.314 86.4713 165.724C86.5475 165.934 86.5993 166.151 86.626 166.372C86.5108 166.187 86.4208 165.987 86.3583 165.778C86.1858 165.314 85.9717 164.749 85.7278 164.083C85.2044 162.656 84.4728 160.689 83.6282 158.524C82.7836 156.36 81.9925 154.416 81.4155 153.007C81.1538 152.353 80.9278 151.818 80.7375 151.337C80.6368 151.13 80.5667 150.91 80.5293 150.683Z" fill="#263238"/>
<path d="M82.2542 211.782C82.2099 211.649 82.1781 211.512 82.159 211.372C82.1055 211.069 82.0341 210.677 81.9508 210.183C81.9033 209.922 81.8557 209.636 81.8021 209.327C81.7486 209.018 81.6594 208.679 81.5761 208.316C81.4155 207.597 81.249 206.771 80.9813 205.873C80.8564 205.421 80.7315 204.951 80.5947 204.464L80.1129 202.948C79.8036 201.901 79.3694 200.813 78.9233 199.654C78.0192 197.359 76.9189 194.898 75.64 192.341C73.3991 188.027 70.9312 183.833 68.2467 179.779C67.2296 178.245 66.4028 176.991 65.8021 176.093C65.5285 175.677 65.3144 175.344 65.1419 175.088C65.0603 174.974 64.9887 174.852 64.9277 174.726C65.0285 174.825 65.1183 174.934 65.1954 175.053L65.9032 176.022C66.498 176.872 67.3842 178.108 68.4311 179.66C71.1718 183.688 73.6704 187.875 75.9137 192.199C77.1984 194.749 78.2928 197.24 79.191 199.547C79.6014 200.736 80.0297 201.812 80.333 202.871L80.7969 204.393C80.9219 204.892 81.0468 205.362 81.1657 205.819C81.4155 206.723 81.5642 207.555 81.7129 208.281C81.7843 208.645 81.8497 208.984 81.9092 209.297C81.9568 209.612 81.9925 209.892 82.0341 210.159C82.0936 210.653 82.1471 211.051 82.1888 211.348C82.2262 211.49 82.2481 211.636 82.2542 211.782Z" fill="#263238"/>
<path d="M54.8936 240.551C54.6883 240.507 54.4887 240.439 54.2988 240.349C53.7557 240.136 53.2255 239.892 52.7107 239.618C51.0186 238.695 49.3999 237.644 47.869 236.473C46.0846 235.129 44.443 233.905 43.2177 233.096C41.9924 232.287 41.2013 231.836 41.2251 231.788C41.4332 231.851 41.6329 231.939 41.8199 232.05C42.1947 232.228 42.7121 232.525 43.3426 232.912C44.6095 233.679 46.2631 234.88 48.0594 236.223C49.5789 237.385 51.1679 238.453 52.8177 239.422C54.0728 240.147 54.9114 240.498 54.8936 240.551Z" fill="#263238"/>
<path d="M104.857 244.66C104.659 244.683 104.459 244.683 104.262 244.66H102.602L97.1481 244.618L91.6879 244.648H90.0284C89.8294 244.658 89.6299 244.646 89.4336 244.612C89.6266 244.555 89.8269 244.525 90.0284 244.523C90.421 244.493 90.986 244.452 91.6819 244.422C93.0797 244.351 95.0188 244.291 97.1541 244.297C99.2894 244.303 101.222 244.357 102.62 244.434C103.316 244.47 103.881 244.505 104.274 244.541C104.473 244.553 104.669 244.593 104.857 244.66Z" fill="#263238"/>
<path d="M64.2319 88.9466C62.9438 89.1211 61.6328 88.9144 60.4609 88.3521C59.8807 88.0687 59.3893 87.6318 59.0401 87.0889C58.6909 86.5459 58.4973 85.9177 58.4802 85.2724C58.4802 84.5174 58.8312 83.7742 58.7063 83.0311C58.5814 82.2879 58.0282 81.6934 57.6713 81.0275C57.2473 80.1774 57.127 79.2078 57.3304 78.2799C57.5338 77.3519 58.0487 76.5215 58.7895 75.9265C59.5687 75.3319 60.5739 75.0228 61.2163 74.2915C61.9895 73.4295 62.1145 72.1809 62.5843 71.1227C62.9333 70.3604 63.4639 69.6952 64.1296 69.1853C64.7953 68.6754 65.5758 68.3363 66.4029 68.1976C67.3189 68.0549 68.2706 68.156 69.145 67.8647C69.8672 67.5527 70.5483 67.1534 71.1732 66.6756C73.2426 65.3386 75.7543 64.8668 78.168 65.3617C79.2256 65.5484 80.2079 66.0331 80.9993 66.7589C81.8498 67.6031 82.9443 68.5424 83.2536 69.672C83.6164 71.0394 83.1703 72.7517 82.8075 74.1132C82.4446 75.4746 81.3443 76.7231 79.9405 76.8896" fill="#263238"/>
<path d="M63.9404 99.4637L75.1107 99.6183C75.3011 98.3341 75.7055 93.3163 75.7055 93.3163C75.7055 93.3163 80.3866 93.0369 80.8743 88.4293C81.3621 83.8217 81.5643 73.1678 81.5643 73.1678C79.0491 71.7931 76.2121 71.1152 73.3468 71.204C70.4815 71.2929 67.692 72.1453 65.2668 73.6731L64.5352 74.1368L63.9404 99.4637Z" fill="#FFBE9D"/>
<path d="M76.0508 85.4269C76.393 85.331 76.7485 85.2908 77.1036 85.308C77.2701 85.308 77.401 85.2783 77.4248 85.1891C77.4419 85.0246 77.4152 84.8585 77.3474 84.7075L76.9668 83.3698C76.5972 82.2325 76.3402 81.0616 76.1995 79.874C76.6839 80.9678 77.0585 82.107 77.3177 83.2747C77.4426 83.7385 77.5556 84.1784 77.6686 84.6184C77.7505 84.843 77.7505 85.0893 77.6686 85.3139C77.6386 85.3757 77.5944 85.4294 77.5396 85.4708C77.4848 85.5121 77.421 85.5399 77.3534 85.5518C77.2588 85.566 77.1625 85.566 77.0679 85.5518C76.7242 85.5693 76.38 85.527 76.0508 85.4269Z" fill="#263238"/>
<path d="M75.6936 93.2516C73.5603 93.0926 71.5227 92.3019 69.8408 90.9805C69.8408 90.9805 70.9531 94.4287 75.5925 94.4466L75.6936 93.2516Z" fill="#EB996E"/>
<path d="M64.5709 78.983C64.4757 78.9414 61.4125 78.442 61.5969 82.0864C61.7813 85.7309 65.3917 84.3516 65.3976 84.2445C65.4036 84.1375 64.5709 78.983 64.5709 78.983Z" fill="#FFBE9D"/>
<path d="M64.2321 83.0199C64.2321 83.0199 64.1667 83.0674 64.0656 83.1209C63.9171 83.1923 63.7472 83.205 63.5897 83.1566C63.3479 83.0178 63.147 82.8178 63.0071 82.5767C62.8672 82.3356 62.7932 82.062 62.7927 81.7833C62.7689 81.4697 62.8156 81.1548 62.9295 80.8617C62.9589 80.7475 63.0153 80.642 63.094 80.5541C63.1726 80.4661 63.2713 80.3983 63.3816 80.3564C63.454 80.3344 63.5317 80.3378 63.602 80.3659C63.6723 80.394 63.7309 80.4451 63.7682 80.511C63.8217 80.612 63.7682 80.6834 63.8217 80.6893C63.8752 80.6953 63.8931 80.6239 63.8574 80.4753C63.8329 80.3863 63.7782 80.3085 63.7027 80.2553C63.653 80.2185 63.596 80.1926 63.5355 80.1793C63.4751 80.1659 63.4125 80.1655 63.3518 80.178C63.203 80.2129 63.0659 80.2861 62.9542 80.3904C62.8426 80.4948 62.7602 80.6265 62.7154 80.7726C62.5741 81.096 62.5149 81.4493 62.5429 81.8011C62.5386 82.1262 62.6313 82.4453 62.8093 82.7174C62.9873 82.9896 63.2425 83.2025 63.5421 83.329C63.6441 83.3564 63.7511 83.3593 63.8545 83.3376C63.9578 83.316 64.0546 83.2702 64.1369 83.2042C64.2321 83.1091 64.2321 83.0258 64.2321 83.0199Z" fill="#EB996E"/>
<path d="M71.911 78.8938C71.8575 78.8284 71.9467 78.656 72.1846 78.4717C72.5011 78.2474 72.8739 78.1156 73.2612 78.0912C73.6484 78.0609 74.0363 78.1413 74.3794 78.3231C74.6411 78.4717 74.7482 78.6322 74.7066 78.6976C74.6173 78.8522 74.0285 78.6501 73.3028 78.6976C72.5772 78.7452 72.0181 79.0306 71.911 78.8938Z" fill="#263238"/>
<path d="M78.3763 78.9286C78.3406 78.7681 78.8403 78.5303 79.4945 78.5362C80.1488 78.5422 80.6484 78.774 80.6187 78.9405C80.589 79.107 80.0893 79.1545 79.4945 79.1545C78.8997 79.1545 78.4061 79.101 78.3763 78.9286Z" fill="#263238"/>
<path d="M63.4111 75.2553C63.5896 76.373 63.764 77.4927 63.9346 78.6144C63.9643 79.1486 64.1482 79.6628 64.4639 80.0948C65.0587 80.7547 66.1413 80.6893 66.9026 80.2553C68.0149 79.6073 68.6275 78.3647 69.0974 77.1638C69.5673 75.9628 69.9836 74.6965 70.8818 73.7809C71.5275 74.4569 72.3704 74.9116 73.2901 75.0803C74.2098 75.249 75.1592 75.123 76.003 74.7203C76.7465 74.3517 77.3651 73.769 78.0788 73.341C78.4199 73.0998 78.8117 72.9401 79.2242 72.8742C79.6367 72.8082 80.0588 72.8377 80.458 72.9605C80.8803 73.1388 81.261 73.4836 81.7131 73.4599C81.8864 73.4452 82.0531 73.386 82.1968 73.2881C82.3406 73.1902 82.4567 73.0569 82.5339 72.901C82.6821 72.584 82.7339 72.2305 82.6826 71.8844C82.5339 70.6002 81.493 69.5776 80.3034 69.0069C78.6439 68.1924 76.7346 68.0794 74.8788 68.0734C73.1191 68.0214 71.3601 68.1953 69.6446 68.5907C67.922 68.9959 66.3552 69.8947 65.1361 71.1769C64.5354 71.8232 64.0887 72.5969 63.8291 73.44C63.5696 74.2832 63.504 75.174 63.6372 76.0461" fill="#263238"/>
<path d="M77.9538 71.5684C78.1972 72.7518 78.8244 73.8217 79.7382 74.6124C80.1501 75.0228 80.6982 75.2681 81.2787 75.3021C81.745 75.2465 82.1744 75.0212 82.485 74.6691C82.7955 74.3171 82.9653 73.863 82.962 73.3936C82.9204 72.4475 82.5131 71.5545 81.826 70.9026C81.2392 70.2081 80.4052 69.7689 79.5003 69.6778C79.0516 69.6563 78.6113 69.8048 78.2673 70.0935C77.9233 70.3822 77.7009 70.79 77.6445 71.2355" fill="#263238"/>
<path d="M72.5591 80.6178C72.5591 80.7755 72.6217 80.9267 72.7333 81.0382C72.8448 81.1497 72.9961 81.2123 73.1539 81.2123C73.2288 81.2171 73.3039 81.2068 73.3747 81.182C73.4455 81.1572 73.5106 81.1184 73.5661 81.068C73.6216 81.0175 73.6664 80.9563 73.6978 80.8882C73.7291 80.82 73.7464 80.7463 73.7487 80.6713C73.7487 80.5136 73.686 80.3624 73.5745 80.2509C73.4629 80.1394 73.3116 80.0768 73.1539 80.0768C73.0788 80.0711 73.0034 80.0808 72.9322 80.1053C72.861 80.1298 72.7955 80.1685 72.7398 80.2192C72.6842 80.2698 72.6394 80.3313 72.6083 80.3998C72.5772 80.4684 72.5605 80.5426 72.5591 80.6178Z" fill="#263238"/>
<path d="M71.6192 79.9752C71.6965 80.0525 72.1307 79.7136 72.7612 79.7017C73.3917 79.6898 73.8556 79.999 73.921 79.9157C73.9865 79.8325 73.8794 79.7493 73.6712 79.6066C73.3984 79.4251 73.0763 79.3318 72.7487 79.3393C72.4211 79.3467 72.1036 79.4546 71.8393 79.6482C71.6489 79.8087 71.5835 79.9752 71.6192 79.9752Z" fill="#263238"/>
<path d="M79.0186 80.5996C79.0186 80.7573 79.0812 80.9085 79.1928 81.02C79.3043 81.1315 79.4556 81.1941 79.6134 81.1941C79.6884 81.1998 79.7639 81.1901 79.8351 81.1656C79.9063 81.1412 79.9717 81.1024 80.0274 81.0517C80.0831 81.0011 80.1278 80.9396 80.1589 80.8711C80.19 80.8025 80.2067 80.7284 80.2082 80.6531C80.2082 80.4954 80.1455 80.3442 80.0339 80.2327C79.9224 80.1212 79.7711 80.0586 79.6134 80.0586C79.4645 80.058 79.3207 80.1132 79.2106 80.2134C79.1005 80.3136 79.032 80.4514 79.0186 80.5996Z" fill="#263238"/>
<path d="M78.186 80.0763C78.2573 80.1536 78.6975 79.8148 79.328 79.8029C79.9585 79.791 80.4224 80.1001 80.5176 80.0228C80.6127 79.9456 80.4759 79.8504 80.2678 79.7077C79.994 79.525 79.6703 79.4315 79.3412 79.44C79.0121 79.4485 78.6938 79.5587 78.4298 79.7553C78.2157 79.9039 78.1503 80.0466 78.186 80.0763Z" fill="#263238"/>
<path d="M75.9019 87.2938C75.9019 87.3354 75.7472 87.4067 75.4617 87.3889C75.0901 87.3614 74.7421 87.196 74.4863 86.9252C74.2276 86.6553 74.0773 86.2998 74.064 85.9263C74.064 85.6469 74.1413 85.4864 74.177 85.4923C74.2127 85.4983 74.177 86.1761 74.7063 86.7111C75.2357 87.2462 75.9019 87.2105 75.9019 87.2938Z" fill="#263238"/>
<path d="M78.0077 111.111L87.2925 108.008C87.2925 108.008 93.752 123.293 95.4174 123.466C104.631 124.304 114.493 121.254 117.948 120.047C118.299 119.649 118.704 119.179 119.138 118.596C119.518 118.098 119.812 117.539 120.006 116.944C120.272 116.21 120.438 115.444 120.5 114.667C120.481 114.515 120.51 114.362 120.583 114.228C120.656 114.094 120.769 113.986 120.907 113.92C121.044 113.854 121.199 113.834 121.349 113.861C121.5 113.888 121.637 113.962 121.743 114.072C122.142 114.589 122.243 116.563 121.333 118.686C120.423 120.808 123.641 119.12 124.824 118.525C126.008 117.93 129.761 116.266 130.231 116.486C130.921 116.807 130.707 117.603 129.511 118.168C128.316 118.733 124.842 120.689 125.187 121.296C125.532 121.902 131.516 118.793 131.516 118.793C131.516 118.793 132.705 117.919 133.11 118.608C133.871 119.857 127.257 122.693 126.626 122.948C126.18 123.127 126.531 123.804 126.995 123.584C127.459 123.364 132.896 120.344 133.681 121.611C134.276 122.58 128.268 123.989 127.495 125.243C126.722 126.498 131.944 123.709 132.485 124.649C132.682 125.005 132.783 125.297 129.547 126.432C127.179 127.176 124.772 127.791 122.338 128.275C122.338 128.275 89.0293 143.174 83.0813 128.798C76.9728 114.221 78.0077 111.111 78.0077 111.111Z" fill="#EB996E"/>
<path d="M90.403 113.043C86.6855 104.345 81.82 100.939 79.2505 99.6782C78.3502 99.2414 77.3711 98.9907 76.3717 98.9409L76.0624 97.4427L63.7501 96.3369L63.4467 98.2394L61.6623 98.1383C61.6623 98.1383 51.0511 99.2025 51.0273 111.491C51.0273 117.24 54.1262 122.835 55.2207 125.576C55.9047 131.307 53.4363 141.705 53.5136 144.238L83.6877 146.378L84.9249 127.538L84.6453 125.754L94.5784 122.71L90.403 113.043Z" fill="#EBEBEB"/>
<path d="M157.211 71.4503C152.856 66.0585 146.999 62.0784 140.381 60.0129C133.763 57.9474 126.681 57.8893 120.03 59.8458C113.379 61.8024 107.458 65.6859 103.015 71.0054C98.5713 76.3249 95.8053 82.8416 95.0664 89.732C94.4702 95.3337 95.2348 100.997 97.2954 106.24C99.356 111.483 102.652 116.152 106.903 119.851L76.2173 155.849L80.6188 159.601L111.548 123.299C115.989 126.04 120.99 127.749 126.18 128.299C127.441 128.434 128.707 128.502 129.975 128.501C136.585 128.479 143.054 126.592 148.638 123.056C154.221 119.521 158.693 114.481 161.537 108.517C164.381 102.553 165.482 95.908 164.713 89.3461C163.945 82.7842 161.338 76.5726 157.193 71.4265L157.211 71.4503ZM159.031 96.5631C158.311 103.292 155.278 109.563 150.451 114.307C145.623 119.052 139.299 121.977 132.556 122.583C125.813 123.19 119.069 121.441 113.471 117.634C107.874 113.827 103.77 108.199 101.859 101.707C99.948 95.2145 100.348 88.261 102.991 82.0309C105.634 75.8007 110.357 70.6793 116.354 67.5393C122.351 64.3992 129.252 63.4348 135.881 64.8103C142.51 66.1858 148.457 69.8162 152.708 75.0828C155.131 78.0676 156.937 81.5029 158.022 85.19C159.107 88.8771 159.45 92.7427 159.031 96.5631Z" fill="#128671"/>
<path d="M154.742 68.9826C150.388 63.5882 144.532 59.6054 137.913 57.5382C131.294 55.471 124.211 55.4121 117.559 57.369C110.907 59.326 104.985 63.2108 100.542 68.5322C96.0986 73.8536 93.3341 80.3724 92.5979 87.2644C92.0006 92.8662 92.7647 98.5294 94.8254 103.773C96.8861 109.016 100.182 113.685 104.434 117.383L73.374 153.649L78.0789 157.413L109.098 120.808C113.54 123.546 118.54 125.255 123.73 125.808C124.99 125.94 126.257 126.007 127.524 126.01C134.134 125.988 140.603 124.1 146.187 120.565C151.771 117.03 156.242 111.99 159.086 106.026C161.93 100.062 163.031 93.4166 162.263 86.8547C161.494 80.2928 158.887 74.0812 154.742 68.9351V68.9826ZM156.562 94.0955C155.843 100.828 152.81 107.102 147.981 111.849C143.152 116.597 136.825 119.524 130.079 120.131C123.333 120.739 116.585 118.989 110.985 115.181C105.384 111.372 101.278 105.741 99.3666 99.2459C97.4548 92.7508 97.8553 85.7941 100.5 79.5611C103.145 73.3282 107.87 68.2046 113.87 65.0636C119.87 61.9226 126.775 60.9584 133.407 62.3354C140.038 63.7124 145.987 67.3454 150.24 72.6152C152.661 75.6005 154.467 79.0359 155.552 82.7228C156.637 86.4097 156.981 90.2751 156.562 94.0955Z" fill="#1FC9AA"/>
<path d="M111.548 109.969C111.46 109.894 111.382 109.808 111.316 109.713C111.173 109.535 110.953 109.279 110.721 108.929C109.998 107.949 109.344 106.92 108.765 105.849C106.827 102.311 105.649 98.4068 105.308 94.3874C104.967 90.368 105.47 86.3217 106.784 82.5078C107.173 81.3566 107.642 80.2342 108.188 79.1487C108.372 78.7563 108.544 78.4709 108.657 78.2747C108.703 78.1686 108.766 78.0703 108.842 77.9834C108.808 78.094 108.764 78.2014 108.711 78.3044C108.622 78.5125 108.467 78.8039 108.295 79.1962C107.795 80.2984 107.358 81.4278 106.986 82.5791C105.742 86.3786 105.275 90.3896 105.614 94.3731C105.954 98.3566 107.092 102.231 108.961 105.766C109.518 106.837 110.138 107.876 110.817 108.875C111.049 109.238 111.251 109.47 111.376 109.69C111.442 109.777 111.5 109.87 111.548 109.969Z" fill="#263238"/>
<path d="M113.006 73.9885C113.059 74.0599 112.702 74.3928 112.345 74.8625C111.988 75.3322 111.75 75.7543 111.667 75.7246C111.584 75.6948 111.703 75.1776 112.095 74.6723C112.488 74.1669 112.964 73.9172 113.006 73.9885Z" fill="#263238"/>
<path d="M82.1709 106.474C82.2666 106.74 82.3382 107.015 82.385 107.294C82.504 107.823 82.6586 108.596 82.843 109.559C83.1999 111.474 83.6341 114.137 84.0326 117.092C84.4311 120.047 84.6274 122.734 84.7404 124.678C84.7999 125.653 84.8356 126.462 84.8475 126.985C84.8757 127.268 84.8757 127.552 84.8475 127.835C84.7867 127.559 84.7509 127.279 84.7404 126.997C84.6869 126.402 84.6155 125.623 84.5322 124.696C84.3598 122.758 84.098 120.076 83.7352 117.128C83.3724 114.179 82.9679 111.521 82.6646 109.595C82.5218 108.679 82.4029 107.912 82.3077 107.312C82.2322 107.038 82.1863 106.757 82.1709 106.474Z" fill="#263238"/>
<path d="M98.5816 135.677C98.5816 135.677 65.273 150.606 59.325 136.23C53.2224 121.587 54.2573 118.477 54.2573 118.477L63.5421 115.374C63.5421 115.374 70.0076 130.659 71.667 130.832C80.8864 131.676 90.7482 128.62 94.2039 127.413C94.5549 127.021 94.9534 126.545 95.3935 125.969C95.8337 125.392 96.1787 124.779 96.5831 124.262C97.4634 123.162 98.1593 122.978 98.546 122.544C99.4619 121.504 100.33 122.265 99.9021 122.823C99.4738 123.382 98.5162 123.953 97.6062 126.081C96.6961 128.21 99.9378 127.158 101.223 126.825C102.638 126.45 105.297 125.416 105.297 125.416C105.362 126.04 104.655 127.294 103.459 127.859C102.811 128.174 102.146 128.452 101.466 128.691C101.466 128.691 103.923 128.388 103.988 128.953C104.054 129.518 103.263 133.656 100.646 134.898L98.5816 135.677Z" fill="#FFBE9D"/>
<path d="M61.3594 102.057L67.343 120.112L54.2575 125.285C54.2575 125.285 47.4292 107.55 56.0776 103.21L61.3594 102.057Z" fill="#EBEBEB"/>
<path d="M68.211 119.41C68.211 119.41 68.1396 119.363 68.0325 119.244C67.8842 119.058 67.7529 118.859 67.64 118.649C67.2758 117.877 66.96 117.083 66.6942 116.271C65.9626 114.25 64.9693 111.444 63.8927 108.346L62.3879 103.97C61.924 102.627 61.5611 101.378 60.8771 100.576C60.6223 100.25 60.2977 99.985 59.9272 99.8008C59.5567 99.6167 59.1496 99.5178 58.7359 99.5114C58.4303 99.5313 58.1305 99.6037 57.8496 99.7254C57.8496 99.7254 57.9091 99.66 58.0518 99.5827C58.262 99.4724 58.493 99.4076 58.7299 99.3925C59.1701 99.3727 59.6089 99.4565 60.0108 99.6372C60.4127 99.8179 60.7665 100.09 61.0437 100.433C61.7931 101.271 62.1797 102.549 62.6556 103.875C63.1314 105.201 63.6429 106.693 64.1842 108.245C65.2667 111.343 66.2244 114.19 66.9024 116.2C67.2474 117.222 67.4972 118.061 67.747 118.578C67.9969 119.095 68.2348 119.392 68.211 119.41Z" fill="#263238"/>
<path d="M67.9318 119.749C67.7814 119.873 67.6154 119.977 67.4381 120.058C67.1109 120.242 66.6292 120.492 66.0284 120.789C64.8388 121.384 63.1437 122.157 61.27 122.924C59.3964 123.691 57.618 124.303 56.3392 124.707C55.7027 124.91 55.1496 125.064 54.8165 125.159C54.6249 125.228 54.4248 125.27 54.2217 125.284C54.8772 124.979 55.5529 124.718 56.244 124.505C57.505 124.047 59.218 123.405 61.1273 122.644C63.0366 121.883 64.6961 121.14 65.9332 120.593C66.5813 120.271 67.2488 119.989 67.9318 119.749Z" fill="#263238"/>
<path d="M56.3986 124.619C55.8579 123.809 55.4969 122.893 55.3398 121.932C55.6525 122.309 55.8816 122.749 56.012 123.222C56.2417 123.654 56.3737 124.13 56.3986 124.619Z" fill="#263238"/>
<path d="M59.1644 123.555C59.0871 123.596 58.7302 123.073 58.4685 122.366C58.2618 121.937 58.1794 121.459 58.2306 120.986C58.4738 121.382 58.6525 121.813 58.76 122.265C58.9581 122.672 59.0944 123.107 59.1644 123.555Z" fill="#263238"/>
<path d="M62.0611 122.3C61.7 121.965 61.4421 121.534 61.3176 121.058C61.1005 120.613 61.0139 120.117 61.0678 119.625C61.3086 120.038 61.4907 120.482 61.6091 120.945C61.8207 121.374 61.9728 121.83 62.0611 122.3Z" fill="#263238"/>
<path d="M65.1599 121.051C64.8731 120.635 64.671 120.166 64.5651 119.672C64.3675 119.207 64.2644 118.708 64.2617 118.203C64.5549 118.614 64.7576 119.082 64.8565 119.576C65.0597 120.041 65.163 120.544 65.1599 121.051Z" fill="#263238"/>
<path d="M94.8165 122.52C93.1741 123.213 91.4918 123.809 89.7786 124.303C88.0971 124.892 86.3832 125.384 84.6455 125.778C86.289 125.086 87.9711 124.491 89.6834 123.994C91.3644 123.403 93.0783 122.911 94.8165 122.52Z" fill="#263238"/>
<path d="M86.8344 124.619C86.7511 124.655 86.4894 124.215 86.2396 123.644C85.9898 123.073 85.8649 122.58 85.9422 122.544C86.0195 122.508 86.2812 122.948 86.537 123.525C86.7927 124.102 86.9236 124.565 86.8344 124.619Z" fill="#263238"/>
<path d="M89.4037 124.042C89.3263 124.042 89.0468 123.554 88.8564 122.853C88.693 122.441 88.6477 121.992 88.7256 121.557C88.8148 121.557 88.9695 122.098 89.1538 122.746C89.3204 123.157 89.4053 123.598 89.4037 124.042Z" fill="#263238"/>
<path d="M92.1876 123.162C91.8157 122.367 91.6383 121.494 91.6701 120.617C91.8994 120.995 92.0398 121.42 92.0805 121.86C92.2161 122.28 92.2527 122.725 92.1876 123.162Z" fill="#263238"/>
<path d="M64.9574 98.0728C64.8682 98.0728 64.8266 97.7399 64.8503 97.3356C64.8741 96.9313 64.9753 96.6162 65.0585 96.6222C65.1418 96.6281 65.1894 96.961 65.1596 97.3594C65.1299 97.7577 65.0407 98.0787 64.9574 98.0728Z" fill="#263238"/>
<path d="M67.67 98.2339C67.5808 98.2339 67.5034 97.9128 67.4856 97.5145C67.4678 97.1161 67.5272 96.7832 67.6105 96.7832C67.6938 96.7832 67.7771 97.0983 67.7949 97.5026C67.8127 97.9069 67.7533 98.2279 67.67 98.2339Z" fill="#263238"/>
<path d="M69.7634 98.596C69.6802 98.596 69.6147 98.2571 69.6147 97.8409C69.6147 97.4247 69.6921 97.0918 69.7753 97.0918C69.8586 97.0918 69.93 97.4307 69.924 97.8409C69.9181 98.2511 69.8527 98.596 69.7634 98.596Z" fill="#263238"/>
<path d="M72.5949 98.9049C72.5176 98.9049 72.3451 98.5422 72.3332 98.031C72.3213 97.5197 72.4641 97.1273 72.5414 97.1451C72.6187 97.163 72.6247 97.5494 72.6425 98.0191C72.6604 98.4887 72.6842 98.8811 72.5949 98.9049Z" fill="#263238"/>
<path d="M74.9383 98.9054C74.8491 98.9054 74.7361 98.5308 74.6766 98.0433C74.6171 97.5558 74.6409 97.1515 74.7242 97.1456C74.8075 97.1396 74.9264 97.5201 74.9859 98.0076C75.0454 98.4952 75.0156 98.8935 74.9383 98.9054Z" fill="#263238"/>
</g>
<defs>
<clipPath id="clip0_4969_24877">
<rect width="394" height="254" fill="white"/>
</clipPath>
</defs>
</svg>
