<svg width="395" height="224" viewBox="0 0 395 224" fill="none" xmlns="http://www.w3.org/2000/svg">
<g clip-path="url(#clip0_4969_21925)">
<path d="M376.604 72.1962C377.31 72.9709 377.851 73.8786 378.196 74.8652C378.54 75.8518 378.681 76.8971 378.609 77.9387C378.452 80.024 377.813 82.0455 376.743 83.847C374.784 87.3783 371.12 90.2467 367.605 92.2752C365.589 88.2754 366.833 83.2299 367.605 80.7157C368.855 76.7159 373.557 70.2991 376.581 72.1962" fill="#EBEBEB"/>
<path d="M368.729 99.875C368.953 98.7293 369.479 97.6628 370.253 96.7837C371.027 95.9046 372.021 95.2442 373.136 94.8695C374.254 94.5114 375.433 94.3774 376.604 94.4755C377.776 94.5736 378.915 94.9018 379.957 95.4409C380.925 95.9209 381.882 96.6523 382.118 97.7265C382.194 98.2245 382.136 98.7336 381.95 99.2022C381.764 99.6709 381.456 100.082 381.058 100.395C380.25 101.013 379.292 101.407 378.281 101.538C374.824 102.109 371.431 102.063 368.729 99.8921" fill="#EBEBEB"/>
<path d="M359.995 109.583C360.116 109.333 360.259 109.094 360.421 108.869L361.654 106.972C362.714 105.395 364.177 103.115 366.516 101.258C368.475 99.6481 370.832 98.5868 373.344 98.1836C374.107 98.0725 374.88 98.0534 375.648 98.1265C375.855 98.1429 376.061 98.1715 376.265 98.2122C376.409 98.2122 376.478 98.2522 376.478 98.2636C375.447 98.2022 374.412 98.2443 373.39 98.3893C370.926 98.8556 368.623 99.935 366.695 101.526C364.39 103.326 362.927 105.56 361.827 107.109C361.279 107.892 360.836 108.526 360.513 108.954C360.362 109.18 360.188 109.391 359.995 109.583Z" fill="#E0E0E0"/>
<path d="M373.459 77.4131C373.434 77.5319 373.399 77.6484 373.355 77.7616L373.021 78.7387C372.721 79.5901 372.272 80.8072 371.707 82.31C370.555 85.3155 368.948 89.4468 367.052 93.9665C365.157 98.4863 363.348 102.538 361.994 105.463C361.32 106.92 360.761 108.092 360.369 108.891C360.179 109.269 360.023 109.577 359.908 109.817C359.859 109.927 359.799 110.032 359.729 110.131C359.757 110.015 359.797 109.902 359.85 109.794C359.96 109.549 360.092 109.223 360.265 108.84L361.804 105.366C363.106 102.429 364.886 98.3663 366.781 93.8465C368.677 89.3268 370.33 85.2127 371.511 82.2243L372.911 78.6873C373.073 78.2988 373.199 77.9788 373.303 77.7331C373.343 77.621 373.395 77.5137 373.459 77.4131Z" fill="#E0E0E0"/>
<path d="M362.357 99.9142C362.909 97.5141 362.876 95.0179 362.261 92.6329C361.646 90.2479 360.466 88.0428 358.819 86.2006C357.978 85.2693 356.739 84.3893 355.553 84.8121C354.366 85.235 353.985 86.7035 353.962 87.9548C353.96 90.5665 354.736 93.1206 356.194 95.2956C357.652 97.4705 359.726 99.1689 362.155 100.177" fill="#EBEBEB"/>
<path d="M357.903 89.9326C358.107 90.1019 358.291 90.2936 358.451 90.504C358.659 90.7246 358.852 90.9594 359.027 91.2068C359.24 91.4982 359.505 91.8068 359.741 92.1954C360.015 92.6048 360.267 93.0282 360.496 93.4639C360.769 93.958 361.013 94.4674 361.228 94.9895C361.719 96.1915 362.071 97.4453 362.276 98.7265C362.461 100.01 362.496 101.31 362.38 102.601C362.327 103.163 362.241 103.722 362.121 104.275C362.025 104.758 361.9 105.235 361.746 105.703C361.63 106.091 361.494 106.473 361.337 106.846C361.23 107.132 361.103 107.411 360.957 107.68C360.855 107.921 360.73 108.15 360.582 108.366C360.519 108.366 361.055 107.355 361.55 105.64C361.685 105.176 361.795 104.705 361.879 104.229C361.985 103.683 362.062 103.132 362.109 102.578C362.21 101.307 362.17 100.029 361.988 98.7664C361.783 97.51 361.445 96.2786 360.98 95.0924C360.749 94.5495 360.536 94.0353 360.283 93.5724C360.065 93.1376 359.824 92.7142 359.563 92.3039C358.595 90.784 357.823 89.9726 357.903 89.9326Z" fill="#E0E0E0"/>
<path d="M18.5976 36.5804C18.5976 36.5804 13.2972 38.2946 18.4363 49.5512C23.5754 60.8077 27.2453 66.4532 27.2453 66.4532C27.2453 66.4532 28.1268 69.053 25.9375 69.3502C23.7482 69.6473 19.024 68.6702 17.9178 71.2586C16.7655 73.9385 18.6668 76.6069 22.6132 79.0582C26.5597 81.5095 35.0115 87.1835 35.772 87.6978C36.5325 88.2121 37.2354 89.412 35.772 89.8691C34.3087 90.3262 23.5178 90.9205 24.1169 95.9831C24.7161 101.046 36.8494 106.097 38.1515 106.668C39.4535 107.24 39.7589 107.811 39.6148 108.542C39.4708 109.274 35.8239 109.114 32.7589 109.434C29.6939 109.754 26.1968 110.611 26.7902 113.502C27.3836 116.393 34.4066 122.742 52.0707 125.29L60.3324 125.942L65.1604 119.216C74.6204 104.206 74.2748 94.7889 72.4369 92.469C70.5991 90.1491 67.655 92.229 65.4485 94.3546C63.2419 96.4802 60.9777 99.3258 60.3324 98.9658C59.6872 98.6058 59.4279 98.0116 59.8312 96.6459C60.2345 95.2803 64.2155 82.8523 60.7069 79.1268C57.1983 75.4013 49.7605 83.1723 48.4699 83.9951C47.1794 84.8179 46.7127 83.4809 46.8049 82.5838C46.8971 81.6867 47.9917 71.6129 48.66 67.0417C49.3284 62.4705 48.493 59.3278 45.6987 58.4707C43.0025 57.625 40.6864 61.842 39.0445 63.3048C37.4025 64.7675 35.9737 62.4191 35.9737 62.4191C35.9737 62.4191 34.0091 56.008 28.6626 44.8314C23.3161 33.6548 18.4824 36.6661 18.4824 36.6661" fill="#EBEBEB"/>
<path d="M60.6779 127.879C56.7833 119.651 50.1117 104.92 44.3158 92.3038C38.52 79.6873 33.2657 68.2708 29.4114 60.0312L24.8427 50.2717L23.604 47.6204L23.2871 46.9233C23.2436 46.8419 23.2051 46.7579 23.1719 46.6719C23.1719 46.6719 23.218 46.7462 23.2986 46.9004L23.6385 47.5861C23.9324 48.1975 24.3645 49.0832 24.9233 50.2203C26.0352 52.5059 27.6196 55.8257 29.5669 59.9341C33.4615 68.1565 38.7446 79.5616 44.5463 92.1781C50.3479 104.795 56.9907 119.56 60.845 127.811" fill="#E0E0E0"/>
<path d="M24.4971 72.8877C24.6947 72.9322 24.8877 72.9953 25.0732 73.0763C25.4304 73.2077 25.9489 73.4191 26.5827 73.6819C27.8501 74.2133 29.5843 74.9904 31.4855 75.8818L36.3365 78.1674L37.8114 78.8531C37.9979 78.9245 38.1757 79.0165 38.3415 79.1274C38.1424 79.0906 37.9489 79.0292 37.7653 78.9445C37.4024 78.8131 36.8896 78.6017 36.2559 78.3331C34.9884 77.7617 33.2658 76.9903 31.3703 76.099L26.502 73.8134L25.0271 73.1334C24.8417 73.0715 24.6639 72.9891 24.4971 72.8877Z" fill="#E0E0E0"/>
<path d="M38.9234 78.6701C38.86 78.6701 40.3176 75.0246 42.1785 70.5963C44.0394 66.1679 45.6353 62.5967 45.6699 62.5967C45.7044 62.5967 44.2814 66.2422 42.4147 70.6763C40.5481 75.1103 38.9925 78.6701 38.9234 78.6701Z" fill="#E0E0E0"/>
<path d="M46.9434 98.412C47.0467 98.2378 47.1684 98.075 47.3063 97.9263C47.5829 97.5777 47.9343 97.1492 48.3491 96.6406C49.2248 95.555 50.4347 94.0465 51.7079 92.338C52.9812 90.6295 54.0816 89.0524 54.8709 87.8982L55.8042 86.5326C55.9099 86.36 56.0314 86.1974 56.1672 86.0469C56.0979 86.2377 56.003 86.4184 55.8849 86.584C55.689 86.9268 55.3952 87.4068 55.0207 87.9953C54.2717 89.1781 53.1944 90.7838 51.9096 92.4923C50.6248 94.2007 49.4034 95.6978 48.4874 96.7549C48.0265 97.2806 47.652 97.7034 47.3812 97.9891C47.2532 98.1473 47.1062 98.2893 46.9434 98.412Z" fill="#E0E0E0"/>
<path d="M32.7358 96.0635C32.9286 96.051 33.1221 96.0625 33.312 96.0978L34.8387 96.2864C36.1235 96.4635 37.898 96.7206 39.8568 97.0177C41.8156 97.3149 43.5844 97.5891 44.8634 97.8177L46.3786 98.092C46.5658 98.1134 46.7496 98.1576 46.9259 98.2234C46.7332 98.236 46.5396 98.2244 46.3498 98.1891L44.8288 98.0006C43.5383 97.8234 41.7638 97.5663 39.8049 97.2692C37.8461 96.972 36.0774 96.6978 34.7984 96.4692L33.2889 96.1949C33.1002 96.1717 32.9147 96.1276 32.7358 96.0635Z" fill="#E0E0E0"/>
<path d="M37.5752 114.411C37.8164 114.405 38.0575 114.423 38.2954 114.463L40.2542 114.703C41.9019 114.914 44.1776 115.223 46.6896 115.583C49.2015 115.943 51.4772 116.28 53.1192 116.543L55.0665 116.857C55.3065 116.889 55.5434 116.941 55.7751 117.011C55.532 117.017 55.2889 117 55.0492 116.96L53.0961 116.72C51.4484 116.508 49.1669 116.194 46.655 115.834C44.1431 115.474 41.8674 115.137 40.2254 114.88L38.2838 114.56C38.0435 114.532 37.8062 114.483 37.5752 114.411Z" fill="#E0E0E0"/>
<path d="M55.3604 116.828C55.489 116.604 55.6375 116.392 55.804 116.194C56.1266 115.76 56.5529 115.2 57.0657 114.52C58.1315 113.103 59.5949 111.143 61.1505 108.932C62.706 106.72 64.0657 104.686 65.0336 103.218L66.1858 101.464C66.3163 101.242 66.4647 101.032 66.6294 100.835C66.5287 101.072 66.4073 101.299 66.2665 101.515C66.0187 101.943 65.65 102.561 65.1834 103.309C64.25 104.818 62.9134 106.875 61.3521 109.086C59.7908 111.297 58.3101 113.251 57.204 114.64C56.6278 115.331 56.1957 115.891 55.8731 116.268C55.7208 116.471 55.5491 116.659 55.3604 116.828Z" fill="#E0E0E0"/>
<path d="M189.944 104.183C175.184 96.8177 169.63 80.0071 167.902 64.4308C167.614 61.8309 166.928 59.1453 167.838 56.6997C168.749 54.2542 171.416 52.2828 173.911 53.0428C175.979 53.6656 177.149 55.7798 178.52 57.4711C180.326 59.7308 182.741 61.4366 185.485 62.3909C187.271 63.008 189.403 63.2366 190.912 62.1052C192.981 60.551 192.796 57.4311 192.404 54.8598C191.675 50.0639 190.945 45.2718 190.215 40.4834C189.823 37.9121 189.437 35.2894 189.887 32.7295C190.336 30.1697 191.788 27.6498 194.156 26.6099C196.524 25.5699 199.785 26.5413 200.672 28.9869C201.041 30.004 200.983 31.1239 201.213 32.181C201.444 33.2381 202.112 34.3466 203.178 34.5009C204.244 34.6552 205.195 33.7752 205.857 32.9067C208.162 29.9297 209.487 26.3184 210.702 22.7472C211.918 19.1759 213.064 15.5304 215.081 12.3477C217.097 9.16503 220.134 6.43945 223.815 5.69663C227.496 4.95382 231.794 6.6623 233.258 10.1478C234.721 13.6334 233.131 17.6275 231.236 20.8959C228.437 25.7504 224.944 30.1771 220.865 34.038C220.128 34.7294 219.333 35.478 219.137 36.4779C218.826 38.2721 220.71 39.7406 222.501 40.0606C224.529 40.4206 226.598 39.9235 228.654 39.8663C230.711 39.8092 233.033 40.3863 234.076 42.1519C235.522 44.6318 233.707 47.7059 231.771 49.8258C227.929 54.0688 223.378 57.6235 218.319 60.3339C216.51 61.2995 214.591 62.1966 213.243 63.7622C211.895 65.3279 211.307 67.762 212.5 69.4362C213.692 71.1104 216.164 71.3561 218.111 70.699C220.059 70.0419 221.689 68.7106 223.492 67.7278C226.863 65.8821 231.501 65.4422 234.231 68.1906C236.023 69.9848 236.565 72.7618 236.156 75.2702C235.747 77.7787 234.508 80.0528 233.148 82.1899C228.401 89.6581 221.868 96.0635 214.009 100.092C206.151 104.12 198.604 105.989 189.95 104.189" fill="#F5F5F5"/>
<path d="M192.554 93.886C193.921 85.0713 195.794 76.3413 198.166 67.7388L199.998 60.9563C200.603 58.7335 201.202 56.5279 201.922 54.408C203.313 50.3375 204.93 46.3468 206.767 42.4544C208.496 38.7289 210.264 35.2547 211.952 32.0149C213.641 28.7751 215.283 25.7924 216.884 23.1354C219.397 18.93 222.242 14.929 225.394 11.1703C226.505 9.8389 227.404 8.83324 228.021 8.1647L228.724 7.40474C228.8 7.31355 228.885 7.2294 228.977 7.15332C228.917 7.25422 228.845 7.34813 228.764 7.43331L228.09 8.22755C227.514 8.91895 226.626 9.94175 225.538 11.2903C222.452 15.0777 219.655 19.0887 217.172 23.2896C215.588 25.9524 213.975 28.9408 212.304 32.1806C210.633 35.4205 208.876 38.9003 207.165 42.6201C205.34 46.5105 203.732 50.4972 202.348 54.5623C201.634 56.6765 201.041 58.8592 200.436 61.0877C199.831 63.3162 199.232 65.5789 198.615 67.8645C196.245 76.4499 194.362 85.1602 192.975 93.9546" fill="#E0E0E0"/>
<path d="M202.055 54.3737C201.878 54.0355 201.739 53.6791 201.64 53.3109C201.404 52.6195 201.064 51.5967 200.718 50.3567C199.981 47.8426 199.076 44.3456 198.097 40.483C197.117 36.6203 196.161 33.1405 195.389 30.6492C195.003 29.4035 194.68 28.3979 194.45 27.7065C194.307 27.3527 194.203 26.9849 194.139 26.6094C194.339 26.9326 194.502 27.2777 194.623 27.6379C194.911 28.3121 195.279 29.3064 195.712 30.5463C196.57 33.0148 197.578 36.4946 198.563 40.363L201.046 50.2653C201.35 51.4538 201.609 52.4519 201.824 53.2594C201.944 53.6209 202.021 53.9948 202.055 54.3737Z" fill="#E0E0E0"/>
<path d="M234.508 43.4092C234.084 43.5658 233.646 43.6825 233.2 43.7577C232.359 43.9577 231.132 44.2377 229.634 44.632C226.627 45.3976 222.507 46.5976 218.025 48.1175C213.543 49.6374 209.544 51.2088 206.687 52.4144C205.252 52.9858 204.106 53.523 203.311 53.8715C202.909 54.0786 202.489 54.247 202.055 54.3743C202.417 54.1144 202.802 53.8887 203.207 53.7001C203.979 53.3001 205.108 52.7401 206.525 52.1002C209.36 50.8088 213.353 49.1975 217.846 47.6604C221.68 46.3417 225.58 45.2203 229.53 44.3006C231.046 43.9463 232.284 43.7292 233.143 43.5749C233.591 43.476 234.049 43.4205 234.508 43.4092Z" fill="#E0E0E0"/>
<path d="M192.883 93.218C192.77 93.1097 192.673 92.9866 192.595 92.8523C192.393 92.5495 192.151 92.1781 191.851 91.7095C191.206 90.7382 190.313 89.3097 189.236 87.5326C187.075 83.9728 184.247 78.9616 181.199 73.3905C178.151 67.8193 175.368 62.8139 173.283 59.2426L170.805 54.9914L170.137 53.8486C170.05 53.7172 169.98 53.575 169.93 53.4258C170.043 53.5354 170.14 53.6604 170.218 53.7972L170.961 54.94C171.606 55.9114 172.499 57.3399 173.577 59.1226C175.737 62.6824 178.572 67.6936 181.642 73.2648C184.713 78.8359 187.467 83.8585 189.553 87.4583L192.03 91.7153C192.301 92.1781 192.52 92.5666 192.698 92.8581C192.773 92.9706 192.835 93.0914 192.883 93.218Z" fill="#E0E0E0"/>
<path d="M235.142 72.6992C235.014 72.7962 234.875 72.8769 234.727 72.9392L233.505 73.5277L228.983 75.7333C225.163 77.6018 219.915 80.236 214.124 83.1615C208.334 86.0871 203.051 88.6698 199.191 90.4583C197.261 91.3497 195.694 92.0582 194.582 92.5268L193.32 93.0525C193.178 93.127 193.024 93.179 192.865 93.2067C192.994 93.1115 193.133 93.031 193.28 92.9668L194.501 92.3554L199.03 90.1498C202.85 88.287 208.092 85.6528 213.888 82.7216C219.684 79.7903 224.956 77.2133 228.816 75.4248C230.746 74.5334 232.313 73.8249 233.425 73.3563L234.686 72.8306C234.831 72.764 234.984 72.7197 235.142 72.6992Z" fill="#E0E0E0"/>
<path d="M308.483 33.9008C308.483 24.5756 298.608 18.673 288.537 23.3414C286.261 24.3999 284.399 26.1706 283.237 28.3811C280.708 33.2494 281.825 38.8034 284.124 43.4204L291.959 63.1165C292.206 63.7447 292.639 64.2844 293.2 64.6649C293.761 65.0454 294.425 65.249 295.105 65.249C295.785 65.249 296.449 65.0454 297.01 64.6649C297.571 64.2844 298.004 63.7447 298.251 63.1165L305.936 43.3118C308.592 37.2607 308.483 33.9008 308.483 33.9008ZM299.023 42.0147C292.253 45.9174 285.392 38.7006 289.102 31.581C289.586 30.6311 290.333 29.8382 291.257 29.2954C298.026 25.3927 304.882 32.6095 301.172 39.7291C300.69 40.6785 299.944 41.4715 299.023 42.0147Z" fill="#F5F5F5"/>
<path d="M390.166 223.852C390.166 223.937 303.747 224 197.198 224C90.6483 224 4.19434 223.937 4.19434 223.852C4.19434 223.766 90.5792 223.703 197.198 223.703C303.816 223.703 390.166 223.772 390.166 223.852Z" fill="#263238"/>
<path d="M167.873 223.852L91.2936 223.503C86.8724 223.476 82.6423 221.712 79.5301 218.597C76.4179 215.483 74.6772 211.272 74.6895 206.887L75.5019 16.4794C75.5278 12.0925 77.3066 7.89487 80.4483 4.80679C83.59 1.71871 87.8382 -0.00774971 92.2615 0.00594017L168.841 0.354492C173.26 0.381687 177.488 2.14422 180.6 5.25627C183.712 8.36833 185.454 12.5764 185.445 16.9594L184.632 207.367C184.609 211.756 182.832 215.956 179.69 219.047C176.548 222.137 172.298 223.865 167.873 223.852Z" fill="#2C374A"/>
<path d="M168.731 6.92584L153.884 6.85727C152.907 6.87531 151.977 7.277 151.297 7.9743C150.618 8.6716 150.245 9.6076 150.261 10.5771V13.2512C150.268 13.7312 150.18 14.208 150.002 14.6542C149.824 15.1005 149.558 15.5075 149.221 15.8519C148.884 16.1964 148.482 16.4715 148.037 16.6616C147.593 16.8516 147.115 16.9529 146.631 16.9596L117.686 16.8282C116.709 16.7998 115.783 16.389 115.111 15.6855C114.438 14.9821 114.074 14.0432 114.097 13.0741V10.3999C114.114 9.4372 113.748 8.5065 113.079 7.80925C112.409 7.11201 111.49 6.70432 110.519 6.67443H105.299L92.3078 6.57729C89.21 6.5621 86.2329 7.76764 84.0311 9.92886C81.8293 12.0901 80.583 15.0301 80.5663 18.1024L79.777 203.956C79.7632 207.028 80.9802 209.98 83.1604 212.163C85.3406 214.345 88.3055 215.58 91.4033 215.595L167.833 215.944C169.367 215.951 170.888 215.657 172.308 215.081C173.728 214.505 175.02 213.657 176.11 212.586C177.199 211.515 178.066 210.241 178.659 208.838C179.253 207.434 179.562 205.929 179.568 204.407L180.358 18.5595C180.364 17.0385 180.069 15.5311 179.489 14.1233C178.908 12.7154 178.053 11.4348 176.974 10.3545C175.894 9.27425 174.611 8.41544 173.196 7.82714C171.782 7.23884 170.265 6.93258 168.731 6.92584Z" fill="#FAFAFA"/>
<path d="M80.4736 40.415H92.9987L104.176 51.5002L92.5608 63.0253L80.6061 51.1745L80.4736 40.415Z" fill="#EBEBEB"/>
<path d="M106.728 46.6376L100.454 40.415H114.575L106.728 46.6376Z" fill="#EBEBEB"/>
<path d="M112.219 51.7234L123.217 40.8154H161.645C161.645 40.8154 167.527 66.8712 144.361 83.6018L112.219 51.7234Z" fill="#EBEBEB"/>
<path d="M107.512 55.1973L95.7471 66.871L128.304 99.1607L140.069 87.0985L107.512 55.1973Z" fill="#EBEBEB"/>
<path d="M80.3354 73.4819L87.7041 65.8937L80.4737 58.7227L80.3354 73.4819Z" fill="#EBEBEB"/>
<path d="M92.1172 70.3682L80.7905 81.6019V97.2125L104.176 120.943L123.989 102.658L92.1172 70.3682Z" fill="#EBEBEB"/>
<path d="M148.768 86.8759C148.768 86.8759 173.035 69.2311 165.188 40.8154H180.277L180.092 121.017L148.768 86.8759Z" fill="#EBEBEB"/>
<path d="M144.211 91.498L132.475 103.652L168.454 139.33L179.458 127.765L144.211 91.498Z" fill="#EBEBEB"/>
<path d="M127.572 106.978L109.136 125.137L146.014 161.46L164.422 143.81L127.572 106.978Z" fill="#EBEBEB"/>
<path d="M117.911 197.962L146.101 168.975L172.919 196.088L117.911 197.962Z" fill="#EBEBEB"/>
<path d="M150.497 165.238L179.879 136.382C179.879 137.662 179.626 196.213 179.626 196.213L150.497 165.238Z" fill="#EBEBEB"/>
<path d="M125.36 149.027L142.016 165.547L109.136 199.208L93.938 181.129L125.36 149.027Z" fill="#EBEBEB"/>
<path d="M80.3584 183.476C81.9312 183.322 122.208 145.913 122.208 145.913L80.3584 102.903V183.476Z" fill="#EBEBEB"/>
<path d="M79.7769 191.996L89.4731 183.477L102.903 199.207H79.7769V193.19" fill="#EBEBEB"/>
<path d="M92.3074 29.09C91.2827 28.3401 90.3194 27.5109 89.4268 26.6101C89.4268 26.1758 89.4268 26.4901 89.4268 26.393L89.4671 26.3587L89.5362 26.2958L89.6803 26.1644L89.9568 25.9073L90.4811 25.4273L91.3856 24.6273C91.6595 24.3497 91.9695 24.1095 92.3074 23.9131C92.1019 24.2238 91.8537 24.5046 91.57 24.7473L90.7058 25.593L90.193 26.0844L89.9165 26.3472L89.7782 26.4787L89.7033 26.5415L89.6687 26.5758V26.3587C90.6186 27.1996 91.5009 28.1128 92.3074 29.09Z" fill="#263238"/>
<path d="M171.958 24.7304C171.959 24.8541 171.923 24.9753 171.854 25.0786C171.786 25.1819 171.688 25.2626 171.573 25.3104C171.458 25.3583 171.331 25.3711 171.209 25.3472C171.086 25.3234 170.974 25.264 170.886 25.1765C170.797 25.0891 170.737 24.9776 170.713 24.8562C170.689 24.7349 170.702 24.6092 170.751 24.4951C170.799 24.3811 170.88 24.2839 170.984 24.2159C171.088 24.1479 171.211 24.1122 171.335 24.1133C171.5 24.1133 171.659 24.1783 171.775 24.2941C171.892 24.4098 171.958 24.5668 171.958 24.7304Z" fill="#263238"/>
<path d="M171.779 26.4277C171.867 26.5148 171.926 26.6258 171.951 26.7466C171.975 26.8674 171.963 26.9927 171.915 27.1066C171.868 27.2205 171.787 27.3178 171.684 27.3863C171.581 27.4548 171.459 27.4914 171.335 27.4914C171.211 27.4914 171.089 27.4548 170.986 27.3863C170.883 27.3178 170.802 27.2205 170.755 27.1066C170.707 26.9927 170.695 26.8674 170.719 26.7466C170.744 26.6258 170.803 26.5148 170.891 26.4277C171.01 26.3126 171.169 26.248 171.335 26.248C171.501 26.248 171.66 26.3126 171.779 26.4277Z" fill="#263238"/>
<path d="M171.957 28.9988C171.942 29.153 171.87 29.2961 171.754 29.4002C171.639 29.5044 171.488 29.5621 171.332 29.5621C171.176 29.5621 171.025 29.5044 170.91 29.4002C170.794 29.2961 170.722 29.153 170.707 28.9988C170.699 28.9124 170.709 28.8252 170.736 28.7428C170.764 28.6604 170.808 28.5847 170.867 28.5204C170.926 28.4562 170.998 28.4048 171.078 28.3697C171.158 28.3346 171.245 28.3164 171.332 28.3164C171.42 28.3164 171.506 28.3346 171.586 28.3697C171.666 28.4048 171.738 28.4562 171.797 28.5204C171.856 28.5847 171.9 28.6604 171.928 28.7428C171.956 28.8252 171.966 28.9124 171.957 28.9988Z" fill="#263238"/>
<path d="M144.96 27.2617H118.009V29.4902H144.96V27.2617Z" fill="#263238"/>
<path d="M142.028 67.2426C142.028 56.8317 131.001 50.2378 119.755 55.4547C117.21 56.6336 115.128 58.6118 113.832 61.0829C111.003 66.517 112.253 72.7224 114.817 77.8764L123.574 99.881C123.851 100.582 124.334 101.184 124.961 101.609C125.588 102.033 126.33 102.26 127.089 102.26C127.848 102.26 128.589 102.033 129.216 101.609C129.843 101.184 130.327 100.582 130.603 99.881L139.182 77.7621C142.154 71.0196 142.028 67.2426 142.028 67.2426ZM131.485 76.3279C123.926 80.6877 116.263 72.6309 120.406 64.677C120.951 63.6282 121.784 62.7529 122.808 62.1515C130.373 57.7917 138.035 65.8484 133.887 73.8023C133.343 74.8528 132.51 75.7287 131.485 76.3279Z" fill="#1FC9AA"/>
<path d="M371.194 146.73H51.5459V193.248H371.194V146.73Z" fill="#176CFF"/>
<g opacity="0.5">
<path d="M371.194 146.73H51.5459V193.248H371.194V146.73Z" fill="black"/>
</g>
<path d="M96.5722 223.437C113.557 222.304 126.399 207.729 125.256 190.884C124.113 174.039 109.418 161.302 92.433 162.436C75.4484 163.569 62.6063 178.144 63.7493 194.989C64.8923 211.834 79.5876 224.571 96.5722 223.437Z" fill="#263238"/>
<path d="M63.6849 192.419C63.6849 192.448 63.6849 192.476 63.6849 192.499C63.6262 196.513 64.3654 200.5 65.8603 204.231C67.3551 207.962 69.5763 211.365 72.397 214.245C75.2177 217.125 78.5827 219.425 82.2999 221.015C86.017 222.605 90.0136 223.453 94.0613 223.512C98.109 223.57 102.129 222.837 105.891 221.354C109.653 219.872 113.084 217.669 115.987 214.871C118.891 212.074 121.21 208.736 122.814 205.049C124.417 201.363 125.272 197.399 125.331 193.385C125.331 193.356 125.331 193.327 125.331 193.305L63.6849 192.419Z" fill="#263238"/>
<path d="M72.8627 192.63C72.7993 196.875 74.0067 201.043 76.3321 204.607C78.6574 208.172 81.9964 210.972 85.9265 212.654C89.8566 214.336 94.2015 214.824 98.4114 214.056C102.621 213.289 106.507 211.3 109.577 208.343C112.648 205.385 114.765 201.59 115.66 197.439C116.556 193.287 116.19 188.966 114.609 185.021C113.028 181.076 110.303 177.684 106.778 175.276C103.253 172.867 99.0875 171.549 94.8075 171.489C89.0711 171.408 83.5372 173.589 79.4221 177.554C75.307 181.518 72.9477 186.941 72.8627 192.63Z" fill="#FAFAFA"/>
<path d="M94.8076 171.483C89.0708 171.4 83.5359 173.581 79.4205 177.546C75.3051 181.511 72.9462 186.935 72.8628 192.625L116.136 193.247C116.217 187.556 114.016 182.066 110.016 177.984C106.017 173.903 100.546 171.564 94.8076 171.483Z" fill="#E0E0E0"/>
<path d="M81.3203 192.751C81.2818 195.337 82.0174 197.876 83.4341 200.047C84.8507 202.218 86.8848 203.924 89.279 204.948C91.6732 205.972 94.32 206.27 96.8845 205.802C99.449 205.334 101.816 204.123 103.686 202.321C105.556 200.519 106.846 198.207 107.391 195.678C107.936 193.149 107.713 190.517 106.75 188.114C105.786 185.71 104.126 183.645 101.979 182.178C99.8315 180.71 97.2937 179.908 94.6865 179.871C92.9561 179.847 91.2378 180.16 89.6295 180.794C88.0213 181.427 86.5547 182.369 85.3135 183.565C84.0723 184.761 83.0808 186.188 82.3956 187.764C81.7105 189.34 81.3451 191.035 81.3203 192.751Z" fill="#263238"/>
<path d="M331.992 223.427C348.987 222.449 361.964 207.993 360.978 191.138C359.992 174.283 345.417 161.412 328.422 162.39C311.428 163.368 298.45 177.824 299.436 194.679C300.422 211.534 314.998 224.405 331.992 223.427Z" fill="#263238"/>
<path d="M299.38 192.419C299.38 192.448 299.38 192.476 299.38 192.499C299.321 196.513 300.06 200.5 301.555 204.231C303.05 207.962 305.271 211.365 308.092 214.245C310.913 217.125 314.278 219.425 317.995 221.015C321.712 222.605 325.708 223.453 329.756 223.512C333.804 223.57 337.823 222.837 341.586 221.354C345.348 219.872 348.778 217.669 351.682 214.871C354.586 212.074 356.905 208.736 358.508 205.049C360.112 201.363 360.967 197.399 361.026 193.385C361.026 193.356 361.026 193.327 361.026 193.305L299.38 192.419Z" fill="#263238"/>
<path d="M308.557 192.63C308.494 196.875 309.701 201.043 312.026 204.607C314.352 208.172 317.691 210.972 321.621 212.654C325.551 214.336 329.896 214.824 334.106 214.056C338.316 213.289 342.201 211.3 345.272 208.343C348.342 205.385 350.459 201.59 351.355 197.439C352.25 193.287 351.884 188.966 350.303 185.021C348.722 181.076 345.997 177.684 342.472 175.276C338.948 172.867 334.782 171.549 330.502 171.489C324.765 171.408 319.232 173.589 315.116 177.554C311.001 181.518 308.642 186.941 308.557 192.63Z" fill="#FAFAFA"/>
<path d="M330.502 171.483C324.765 171.4 319.23 173.581 315.115 177.546C310.999 181.511 308.641 186.935 308.557 192.625L351.83 193.247C351.912 187.556 349.711 182.066 345.711 177.984C341.711 173.903 336.24 171.564 330.502 171.483Z" fill="#E0E0E0"/>
<path d="M316.998 192.751C316.959 195.337 317.695 197.876 319.111 200.047C320.528 202.218 322.562 203.924 324.956 204.948C327.35 205.972 329.997 206.27 332.562 205.802C335.126 205.334 337.493 204.123 339.363 202.321C341.234 200.519 342.523 198.207 343.068 195.678C343.614 193.149 343.39 190.517 342.427 188.114C341.464 185.71 339.803 183.645 337.656 182.178C335.509 180.71 332.971 179.908 330.364 179.871C328.633 179.847 326.915 180.16 325.307 180.794C323.699 181.427 322.232 182.369 320.991 183.565C319.75 184.761 318.758 186.188 318.073 187.764C317.388 189.34 317.022 191.035 316.998 192.751Z" fill="#263238"/>
<path d="M134.9 120.566C134.9 120.566 89.513 123.885 72.6785 127.628C60.8217 130.262 37.9609 134.816 38.2375 149.078L40.0523 159.307C40.0523 159.307 31.5774 163.146 31.5774 172.952C31.5774 182.757 29.5091 197.956 49.3049 198.567C52.5658 198.664 58.7592 198.567 58.7592 198.567C58.7592 198.567 54.9625 156.752 93.6899 155.53C133.091 154.284 130.476 198.185 130.476 198.185H294.92C294.92 198.185 288.168 155.415 330.583 155.33C372.997 155.244 366.545 198.465 366.545 198.465C366.545 198.465 382.146 199.802 389.406 186.797C396.665 173.791 394.781 164.512 394.781 164.512L394.539 156.29C394.493 154.94 393.932 153.658 392.969 152.704C392.007 151.749 390.714 151.193 389.354 151.147C389.354 151.147 392.188 130.451 387.839 126.868C383.489 123.286 359.654 101.669 359.654 101.669L360.806 100.967C361.234 100.699 361.576 100.316 361.792 99.8638C362.009 99.4111 362.093 98.9068 362.032 98.4092C361.972 97.9116 361.771 97.4411 361.452 97.0523C361.133 96.6635 360.709 96.3724 360.23 96.2126C351.179 93.127 333.285 87.0188 329.079 85.5617C328.449 85.3397 327.792 85.2013 327.126 85.1503C324.614 84.9617 317.505 84.5161 304.455 84.3789C288.56 84.2075 225.451 84.3789 225.451 84.3789C225.451 84.3789 203.731 86.1503 191.632 91.43C178.946 96.984 134.9 120.566 134.9 120.566Z" fill="#176CFF"/>
<g opacity="0.4">
<path d="M43.0885 171.809C41.4408 171.478 38.9173 171.449 37.6614 172.552C36.7281 173.375 36.4803 174.706 36.3421 175.934C36.0774 177.617 36.1165 179.333 36.4573 181.003C36.6311 181.837 36.9767 182.626 37.4724 183.321C37.968 184.016 38.6032 184.602 39.3379 185.043C40.8474 185.854 42.9099 185.723 44.0795 184.471C45.1511 183.328 45.2721 181.614 45.2317 180.089C45.1914 177.883 45.37 176.014 44.9609 173.849C44.8707 173.389 44.6734 172.957 44.3848 172.586C44.2413 172.364 44.0481 172.178 43.8203 172.042C43.5925 171.907 43.3361 171.825 43.0712 171.803" fill="black"/>
</g>
<path d="M40.0638 159.307C44.8803 159.307 49.5527 159.044 54.3634 158.736C54.8874 158.758 55.4036 158.603 55.8267 158.296C56.0203 158.057 56.1642 157.782 56.2502 157.488C56.3362 157.194 56.3627 156.886 56.328 156.581C56.328 154.022 56.2243 151.107 54.2654 149.439C53.0671 148.422 51.4251 148.102 49.8523 147.959C45.9465 147.54 41.9956 147.93 38.249 149.102L40.0638 159.307Z" fill="#FAFAFA"/>
<path d="M140.126 196.876C140.126 196.876 140.126 196.739 140.091 196.465C140.057 196.191 140.045 195.785 140.011 195.265C139.953 194.202 139.867 192.654 139.757 190.654C139.648 188.654 139.509 186.202 139.221 183.368C138.924 180.159 138.355 176.981 137.522 173.866C136.47 170.104 134.91 166.5 132.884 163.152C130.589 159.287 127.539 155.914 123.914 153.233C116.142 147.747 105.639 144.662 94.652 144.513C83.6652 144.365 73.1566 147.81 65.5747 153.587C61.9404 156.254 58.7569 159.477 56.1435 163.135C53.8616 166.311 52.0062 169.769 50.6242 173.42C49.4841 176.438 48.7011 179.577 48.2908 182.774C47.9695 185.185 47.875 187.62 48.0085 190.048C48.1031 191.582 48.2955 193.109 48.5847 194.619C48.6768 195.128 48.7517 195.522 48.7978 195.796C48.8439 196.071 48.8612 196.202 48.8612 196.202C48.8612 196.202 48.8266 196.071 48.769 195.808L48.5213 194.665C48.2077 193.157 47.9998 191.63 47.8991 190.094C47.7424 187.658 47.8196 185.213 48.1295 182.791C48.5266 179.578 49.3 176.422 50.434 173.386C51.8113 169.706 53.6667 166.219 55.9533 163.015C58.5728 159.327 61.7704 156.079 65.4249 153.393C73.0413 147.587 83.573 144.107 94.6462 144.25C105.719 144.393 116.24 147.507 124.075 153.044C127.722 155.753 130.788 159.156 133.091 163.055C135.116 166.428 136.666 170.06 137.7 173.849C138.529 176.977 139.086 180.169 139.365 183.391C139.636 186.248 139.757 188.682 139.849 190.682C139.941 192.682 140.005 194.236 140.051 195.299C140.051 195.819 140.086 196.219 140.097 196.499C140.109 196.779 140.126 196.876 140.126 196.876Z" fill="white"/>
<path d="M141.854 197.584V197.242L141.82 196.23C141.791 195.327 141.751 194.007 141.693 192.282C141.595 188.813 141.451 183.745 141.267 177.294C141.082 170.843 140.869 163.009 140.622 154.038C140.558 151.792 140.501 149.467 140.431 147.096C140.391 145.884 140.445 144.671 140.593 143.467L140.852 141.627L141.232 139.782C141.829 137.26 142.688 134.807 143.796 132.462C144.937 130.004 146.347 127.677 148.002 125.525L176.48 107.732L184.171 102.932C186.764 101.224 189.485 99.7163 192.312 98.4237C195.202 97.0737 198.169 95.8889 201.196 94.8753C202.705 94.3496 204.255 93.9211 205.805 93.464C207.355 93.0069 208.933 92.6297 210.535 92.3212C216.574 91.0398 222.713 90.2751 228.885 90.0356C234.806 89.7541 240.739 89.7732 246.658 90.0927H246.825L246.785 90.2584L239.134 124.205C237.721 126.507 236.562 128.954 235.677 131.502C234.807 133.919 234.415 136.48 234.525 139.045C234.721 141.553 234.79 144.01 234.853 146.393C234.917 148.775 234.945 151.084 234.992 153.329C235.124 162.3 235.159 170.123 235.182 176.568C235.205 183.014 235.182 188.082 235.182 191.545C235.182 193.259 235.182 194.59 235.182 195.493C235.182 195.933 235.182 196.27 235.182 196.504C235.182 196.739 235.182 196.847 235.182 196.847C235.182 196.847 235.182 196.727 235.182 196.504C235.182 196.282 235.182 195.933 235.182 195.493C235.182 194.59 235.182 193.27 235.182 191.545C235.182 188.082 235.13 183.014 235.089 176.574C235.049 170.134 234.992 162.289 234.836 153.329C234.79 151.09 234.74 148.779 234.686 146.398C234.617 144.016 234.548 141.57 234.346 139.062C234.229 136.465 234.621 133.871 235.499 131.422C236.377 128.853 237.536 126.387 238.955 124.068V124.108C241.3 113.657 243.864 102.252 246.578 90.1556L246.71 90.327C240.804 90.0114 234.885 89.9961 228.977 90.2813C222.82 90.5176 216.696 91.2823 210.673 92.5669C209.077 92.8811 207.522 93.3211 205.96 93.7097C204.399 94.0982 202.872 94.5953 201.351 95.1153C198.324 96.1305 195.358 97.3172 192.467 98.6694C189.655 99.9534 186.947 101.451 184.367 103.149L176.67 107.949L148.192 125.702V125.674C146.541 127.812 145.134 130.125 143.998 132.571C142.891 134.898 142.034 137.334 141.44 139.839C140.143 144.736 140.794 149.553 140.806 154.038L141.382 177.294C141.538 183.739 141.659 188.813 141.739 192.276C141.78 193.99 141.803 195.327 141.826 196.23C141.826 196.668 141.826 197.005 141.826 197.242C141.854 197.47 141.854 197.584 141.854 197.584Z" fill="#263238"/>
<path d="M246.451 91.0358H246.721L247.511 91.0073L250.57 90.933L261.914 90.7158L300.157 90.0645H300.232L300.278 90.1216L305.636 96.6298C311.064 103.241 316.237 109.526 320.938 115.24L322.667 117.354C323.226 118.063 323.707 118.829 324.101 119.64C324.815 121.144 325.203 122.779 325.24 124.44C325.276 126.102 324.961 127.752 324.315 129.285L322.586 133.285L317.297 145.422L315.845 148.713L315.459 149.57C315.373 149.759 315.321 149.856 315.321 149.856C315.321 149.856 315.356 149.753 315.431 149.559C315.506 149.364 315.638 149.061 315.788 148.69C316.116 147.924 316.583 146.804 317.188 145.376L322.373 133.205C323.364 130.622 325.11 127.903 324.989 124.588C324.963 122.904 324.57 121.245 323.836 119.726C323.45 118.937 322.979 118.191 322.431 117.503L320.702 115.389L305.383 96.7955L300.031 90.2873L300.146 90.3444L261.897 90.9158L250.553 91.0473H247.493H246.71L246.451 91.0358Z" fill="#263238"/>
<path d="M227.121 141.479C227.121 141.479 227.283 141.479 227.577 141.411C228.009 141.335 228.421 141.171 228.786 140.931C229.367 140.555 229.802 139.995 230.019 139.342C230.151 138.937 230.206 138.511 230.181 138.085C230.167 137.611 230.045 137.146 229.823 136.725C229.566 136.247 229.184 135.845 228.717 135.563C228.249 135.28 227.715 135.127 227.168 135.12H223.284H214.383C213.631 135.121 212.908 135.402 212.355 135.908C211.816 136.395 211.472 137.058 211.387 137.777C211.3 138.471 211.429 139.174 211.756 139.794C212.09 140.375 212.609 140.831 213.231 141.091C213.847 141.3 214.5 141.38 215.149 141.325H217.033H220.421L225.324 141.371L226.655 141.399C226.811 141.396 226.967 141.408 227.121 141.434C226.967 141.452 226.811 141.461 226.655 141.462H225.324L220.421 141.508H217.033H215.149C214.821 141.508 214.504 141.508 214.153 141.508C213.8 141.486 213.454 141.407 213.127 141.274C212.444 140.995 211.874 140.499 211.508 139.862C211.143 139.194 211 138.428 211.099 137.674C211.19 136.872 211.575 136.132 212.18 135.593C212.786 135.055 213.57 134.756 214.383 134.754H223.284H227.173C227.761 134.766 228.335 134.936 228.834 135.244C229.333 135.553 229.738 135.99 230.008 136.508C230.239 136.958 230.363 137.455 230.371 137.959C230.389 138.405 230.325 138.851 230.181 139.274C229.937 139.953 229.468 140.529 228.85 140.908C228.469 141.148 228.037 141.299 227.588 141.348C227.438 141.41 227.282 141.454 227.121 141.479Z" fill="#263238"/>
<path d="M312.389 141.479C312.389 141.479 312.55 141.479 312.844 141.411C313.276 141.335 313.688 141.171 314.054 140.931C314.634 140.555 315.069 139.995 315.286 139.342C315.419 138.937 315.473 138.511 315.448 138.085C315.434 137.611 315.312 137.146 315.091 136.725C314.833 136.247 314.451 135.845 313.984 135.563C313.517 135.28 312.982 135.127 312.435 135.12H308.552H299.65C298.898 135.121 298.175 135.402 297.622 135.908C297.083 136.395 296.739 137.058 296.654 137.777C296.567 138.471 296.696 139.174 297.023 139.794C297.357 140.375 297.876 140.831 298.498 141.091C299.114 141.3 299.768 141.38 300.417 141.325H302.3H305.688L310.591 141.371L311.922 141.399C312.078 141.396 312.234 141.408 312.389 141.434C312.234 141.452 312.078 141.461 311.922 141.462H310.591L305.688 141.508H302.3H300.417C300.088 141.508 299.771 141.508 299.42 141.508C299.067 141.486 298.721 141.407 298.394 141.274C297.711 140.995 297.141 140.499 296.775 139.862C296.41 139.194 296.267 138.428 296.366 137.674C296.457 136.872 296.842 136.132 297.447 135.593C298.053 135.055 298.837 134.756 299.65 134.754H308.552H312.44C313.028 134.766 313.602 134.936 314.101 135.244C314.6 135.553 315.005 135.99 315.275 136.508C315.506 136.958 315.63 137.455 315.638 137.959C315.657 138.405 315.592 138.851 315.448 139.274C315.204 139.953 314.735 140.529 314.117 140.908C313.736 141.148 313.304 141.299 312.855 141.348C312.705 141.41 312.549 141.454 312.389 141.479Z" fill="#263238"/>
<path d="M387.107 127.686H370.053C368.907 127.685 367.782 127.995 366.8 128.582C365.819 129.169 365.017 130.011 364.482 131.017C364.043 131.849 363.798 132.768 363.766 133.707C363.734 134.646 363.916 135.58 364.298 136.439L370.981 151.507L388.057 151.341C388.057 151.341 391.693 132.24 387.107 127.686Z" fill="#FAFAFA"/>
<path d="M150.266 125.554L238.258 123.942L295.525 122.902L314.411 112.086C314.77 111.879 315.08 111.598 315.322 111.263C315.563 110.927 315.73 110.545 315.811 110.141C315.892 109.737 315.886 109.32 315.792 108.919C315.699 108.517 315.521 108.14 315.269 107.812L303.51 92.4926C302.906 91.7039 302.128 91.063 301.235 90.6192C300.342 90.1754 299.358 89.9406 298.36 89.9327L234.306 89.4185C234.306 89.4185 210.189 88.0243 191.182 98.5609C171.196 109.686 150.266 125.554 150.266 125.554Z" fill="#263238"/>
<path d="M190.589 91.001C190.589 91.001 195.002 92.9952 192.133 94.8408C189.264 96.6864 144.683 124.554 144.683 124.554L134.434 119.954C152.587 109.937 170.92 100.195 190.589 91.001Z" fill="#455A64"/>
<path d="M146.124 125.263L145.847 125.331L145.035 125.508L141.906 126.148C139.187 126.685 135.246 127.44 130.384 128.274C120.59 129.942 107.039 131.885 91.9617 133.177C88.1881 133.502 84.472 133.748 80.9461 133.999C77.4202 134.251 73.9519 134.451 70.691 134.742C64.1635 135.314 58.3215 136.251 53.5742 137.651C49.8009 138.691 46.1695 140.184 42.7603 142.096C41.5331 142.736 40.6574 143.365 40.0409 143.742L39.3381 144.182L39.0903 144.325C39.1643 144.265 39.2412 144.21 39.3208 144.159L40.0064 143.69C40.6171 143.296 41.4813 142.65 42.7027 141.976C46.0912 140.012 49.7144 138.476 53.4878 137.405C58.2466 135.971 64.1059 135.005 70.6392 134.428C73.9058 134.119 77.3396 133.902 80.9 133.668C84.4605 133.434 88.142 133.159 91.9099 132.834C106.981 131.542 120.549 129.634 130.326 128.017C135.217 127.211 139.158 126.491 141.883 125.988L145.023 125.417L145.841 125.268L146.124 125.263Z" fill="#263238"/>
<path d="M393.922 164.341C393.922 164.427 388.057 164.49 380.827 164.49C373.596 164.49 367.726 164.427 367.726 164.341C367.726 164.255 373.591 164.192 380.827 164.192C388.063 164.192 393.922 164.261 393.922 164.341Z" fill="#263238"/>
<path d="M286.63 179.186C286.63 179.271 253.526 179.334 212.695 179.334C171.865 179.334 138.755 179.271 138.755 179.186C138.755 179.1 171.854 179.037 212.695 179.037C253.537 179.037 286.63 179.106 286.63 179.186Z" fill="#263238"/>
<path d="M54.8588 164.832C54.8588 164.918 50.1749 164.981 44.4021 164.981C38.6292 164.981 33.9453 164.918 33.9453 164.832C33.9453 164.746 38.6292 164.684 44.4021 164.684C50.1749 164.684 54.8588 164.752 54.8588 164.832Z" fill="#263238"/>
<path d="M359.211 101.075C359.211 101.075 355.281 105.435 356.825 108.635C358.369 111.835 374.334 123.045 374.334 123.045L385.92 125.2L359.211 101.075Z" fill="#455A64"/>
<path d="M249.055 93.2646L246.451 121.166L293.071 119.846L311.859 109.018L299.697 93.2646H249.055Z" fill="#455A64"/>
<path d="M161.305 122.6C161.305 122.6 189.431 102.453 200.528 98.4471C211.238 94.5845 216.82 93.6131 226.88 93.3045C236.495 93.0302 242.355 93.3045 242.355 93.3045L234.922 121.675L161.305 122.6Z" fill="#455A64"/>
<path d="M157.191 122.668C157.191 121.801 157.424 120.949 157.866 120.2C158.307 119.451 158.941 118.832 159.703 118.406L166.167 114.806C168.008 113.778 170.086 113.239 172.199 113.24C173.5 113.242 174.793 113.446 176.03 113.846C177.377 114.308 178.55 115.167 179.392 116.307C180.234 117.447 180.705 118.815 180.743 120.228C180.78 121.178 180.622 122.124 180.281 123.012C179.94 123.899 179.422 124.709 178.757 125.393C178.093 126.077 177.296 126.621 176.415 126.992C175.533 127.363 174.585 127.554 173.628 127.554H162.105C160.801 127.551 159.551 127.035 158.63 126.119C157.708 125.203 157.191 123.962 157.191 122.668Z" fill="#176CFF"/>
<path d="M157.191 122.668C157.191 122.668 157.191 122.886 157.266 123.286C157.353 123.874 157.548 124.441 157.842 124.96C158.307 125.776 158.994 126.447 159.824 126.897C160.341 127.165 160.903 127.34 161.483 127.411C162.144 127.46 162.808 127.473 163.471 127.451L173.328 127.417C174.262 127.442 175.193 127.29 176.071 126.971C176.997 126.628 177.839 126.094 178.542 125.404C179.245 124.715 179.793 123.886 180.15 122.971C180.512 122.007 180.66 120.975 180.582 119.949C180.504 118.937 180.204 117.954 179.701 117.07C179.198 116.187 178.506 115.423 177.672 114.835C176.868 114.283 175.961 113.895 175.005 113.692C172.377 113.076 169.618 113.339 167.158 114.44C166.415 114.772 165.735 115.189 165.061 115.549L163.136 116.612L159.824 118.429C158.99 118.874 158.303 119.546 157.842 120.366C157.551 120.885 157.356 121.452 157.266 122.04C157.208 122.44 157.214 122.657 157.197 122.657C157.175 122.448 157.175 122.237 157.197 122.028C157.261 121.429 157.441 120.847 157.727 120.314C158.179 119.461 158.874 118.758 159.726 118.292L163.015 116.434L164.928 115.355C165.596 114.989 166.276 114.566 167.037 114.212C169.544 113.067 172.364 112.786 175.051 113.412C176.042 113.607 176.984 113.996 177.822 114.555C178.693 115.167 179.417 115.962 179.943 116.883C180.469 117.805 180.783 118.83 180.864 119.886C180.948 120.957 180.795 122.034 180.415 123.04C180.043 123.995 179.47 124.861 178.735 125.58C178 126.299 177.119 126.855 176.151 127.211C175.241 127.536 174.278 127.689 173.311 127.662L163.453 127.634C162.782 127.648 162.111 127.627 161.443 127.571C160.836 127.488 160.25 127.294 159.714 127C158.865 126.529 158.17 125.827 157.709 124.977C157.428 124.443 157.25 123.862 157.185 123.263C157.171 123.065 157.173 122.866 157.191 122.668Z" fill="#263238"/>
<path d="M373.885 197.133C373.885 197.133 373.885 197.001 373.885 196.738C373.885 196.476 373.931 196.081 373.965 195.596C374 195.11 374.058 194.453 374.092 193.71C374.127 192.967 374.15 192.099 374.179 191.133C374.207 190.167 374.179 189.082 374.179 187.905C374.179 186.728 374.092 185.442 373.931 184.071C373.669 180.963 373.112 177.886 372.266 174.882C371.768 173.13 371.154 171.412 370.428 169.74C369.657 167.933 368.728 166.197 367.651 164.551C365.25 160.924 362.196 157.767 358.64 155.238C354.727 152.42 350.359 150.283 345.724 148.918C340.919 147.461 335.687 146.93 330.364 146.89C325.172 146.842 320.003 147.588 315.039 149.101C312.689 149.837 310.407 150.772 308.218 151.895C306.131 152.995 304.148 154.28 302.295 155.735C298.85 158.411 295.781 161.532 293.169 165.014C292.021 166.613 291.007 168.302 290.139 170.066C289.347 171.7 288.647 173.377 288.042 175.088C286.201 180.245 285.08 185.629 284.712 191.087C284.619 193.024 284.631 194.516 284.683 195.556C284.712 196.058 284.735 196.441 284.746 196.698C284.758 196.956 284.746 197.093 284.746 197.093C284.746 197.093 284.746 196.961 284.7 196.698C284.654 196.436 284.642 196.041 284.602 195.556C284.526 194.065 284.526 192.572 284.602 191.082C284.921 185.592 286.012 180.174 287.846 174.985C288.451 173.266 289.147 171.58 289.931 169.934C290.807 168.158 291.824 166.453 292.973 164.837C295.593 161.332 298.672 158.189 302.128 155.489C303.992 154.023 305.986 152.726 308.085 151.615C310.289 150.483 312.586 149.541 314.953 148.798C319.944 147.268 325.145 146.514 330.37 146.564C335.716 146.604 340.971 147.135 345.816 148.609C350.482 149.987 354.878 152.144 358.813 154.986C360.636 156.317 362.34 157.8 363.906 159.42C365.394 160.94 366.721 162.608 367.864 164.397C368.945 166.058 369.876 167.809 370.647 169.631C371.371 171.303 371.981 173.021 372.473 174.774C373.314 177.793 373.86 180.885 374.104 184.008C374.259 185.379 374.259 186.665 374.323 187.847C374.386 189.03 374.323 190.133 374.323 191.082C374.323 192.03 374.236 192.916 374.202 193.664C374.167 194.413 374.092 195.036 374.046 195.55C374 196.064 373.966 196.436 373.942 196.693C373.919 196.95 373.885 197.133 373.885 197.133Z" fill="white"/>
<path d="M233.557 125.554H233.165L231.661 125.588L226.136 125.685C221.47 125.771 215.029 125.942 207.908 126.137C200.787 126.331 194.34 126.462 189.673 126.497C187.34 126.497 185.45 126.497 184.142 126.497H182.639H182.253C182.207 126.505 182.16 126.505 182.114 126.497C182.16 126.489 182.207 126.489 182.253 126.497H182.639L184.142 126.462L189.667 126.365C194.334 126.279 200.781 126.108 207.902 125.919C215.023 125.731 221.47 125.588 226.136 125.554C228.441 125.554 230.359 125.554 231.661 125.554H233.165H233.557Z" fill="white"/>
<path d="M226.05 134.142C224.372 134.293 222.687 134.342 221.003 134.291C219.319 134.342 217.634 134.293 215.956 134.142C217.634 133.995 219.319 133.945 221.003 133.993C222.687 133.945 224.372 133.995 226.05 134.142Z" fill="white"/>
<path d="M227.905 103.566C227.934 103.64 221.671 106.229 213.911 109.343C206.15 112.457 199.836 114.926 199.801 114.846C199.767 114.766 206.035 112.183 213.796 109.069C221.556 105.955 227.87 103.492 227.905 103.566Z" fill="white"/>
<path d="M215.207 105.527C215.242 105.607 209.273 108.212 201.881 111.349C194.489 114.486 188.475 116.972 188.44 116.897C188.406 116.823 194.374 114.218 201.766 111.075C209.158 107.932 215.173 105.441 215.207 105.527Z" fill="white"/>
<path d="M295.727 102.486C295.761 102.561 289.493 105.149 281.733 108.263C273.972 111.377 267.658 113.84 267.623 113.766C267.589 113.691 273.857 111.103 281.623 107.989C289.389 104.875 295.681 102.406 295.727 102.486Z" fill="white"/>
<path d="M283.006 104.435C283.04 104.515 277.072 107.121 269.686 110.258C262.3 113.395 256.273 115.88 256.239 115.806C256.204 115.732 262.173 113.126 269.565 109.984C276.957 106.841 283.006 104.384 283.006 104.435Z" fill="white"/>
<path d="M296.954 125.526C296.954 125.606 284.493 125.748 269.121 125.84C253.75 125.931 241.289 125.937 241.289 125.84C241.289 125.743 253.744 125.617 269.121 125.531C284.498 125.446 296.954 125.463 296.954 125.526Z" fill="white"/>
<path d="M310.752 133.668C310.752 133.748 307.261 133.845 302.946 133.885C298.63 133.925 295.139 133.885 295.139 133.811C295.139 133.736 298.63 133.628 302.946 133.588C307.261 133.548 310.752 133.582 310.752 133.668Z" fill="white"/>
<path d="M72.1425 129.439C72.0326 129.476 71.9184 129.499 71.8026 129.508L70.829 129.634C70.4026 129.679 69.8841 129.742 69.2849 129.845C68.6858 129.948 68.0002 130.022 67.2512 130.171C65.7475 130.434 63.9673 130.822 62.0199 131.314C59.9105 131.891 57.8319 132.574 55.792 133.359C53.6257 134.211 51.615 135.142 49.8175 136.062C48.02 136.982 46.4644 137.908 45.2085 138.736C44.5575 139.13 43.9929 139.53 43.4801 139.879C42.9673 140.227 42.5468 140.513 42.2011 140.765L41.4003 141.336C41.3085 141.406 41.2101 141.467 41.1064 141.519C41.1828 141.434 41.2677 141.358 41.3599 141.29L42.132 140.679C42.4661 140.416 42.8809 140.107 43.3822 139.748C43.8834 139.388 44.4307 138.988 45.1105 138.605C46.378 137.753 47.9451 136.822 49.7196 135.868C53.6044 133.808 57.7191 132.207 61.9796 131.097C63.9385 130.594 65.7302 130.222 67.2454 129.988C68.0002 129.851 68.6858 129.782 69.2907 129.702C69.8956 129.622 70.443 129.571 70.8405 129.542L71.8257 129.468C71.9305 129.451 72.0364 129.442 72.1425 129.439Z" fill="white"/>
<path d="M175.028 115.96C175.028 115.96 174.861 115.737 174.452 115.429C173.899 115.009 173.242 114.746 172.55 114.669C171.513 114.583 170.469 114.693 169.474 114.994C165.966 115.871 162.708 117.534 159.95 119.857C158.579 121 157.853 121.84 157.813 121.8C157.952 121.582 158.115 121.379 158.297 121.194C158.773 120.669 159.277 120.169 159.806 119.697C161.566 118.142 163.566 116.877 165.729 115.949C166.916 115.433 168.149 115.026 169.41 114.732C170.438 114.435 171.515 114.342 172.579 114.457C173.302 114.555 173.98 114.864 174.526 115.343C174.672 115.472 174.801 115.618 174.913 115.777C175.005 115.891 175.039 115.954 175.028 115.96Z" fill="white"/>
<path d="M360.519 100.869C359.715 101.062 358.89 101.146 358.064 101.121C357.095 101.092 356.131 100.973 355.184 100.766C353.934 100.475 352.707 100.093 351.514 99.6235C350.183 99.1263 348.765 98.4807 347.233 97.8464L344.842 96.8922C344.018 96.5665 343.148 96.2865 342.273 95.9665C338.427 94.675 334.506 93.6159 330.531 92.7952C323.305 91.3034 315.967 90.4013 308.592 90.0982C307.175 90.024 305.896 90.024 304.767 89.9954H301.886L300.065 90.0354H299.426C299.479 90.0253 299.534 90.0253 299.587 90.0354L300.06 90.0011L301.886 89.904L304.767 89.8525C305.919 89.8525 307.175 89.8525 308.592 89.9211C315.987 90.1605 323.348 91.04 330.589 92.5495C334.572 93.3611 338.499 94.4222 342.347 95.7265C343.223 96.0465 344.076 96.3322 344.923 96.6636L347.314 97.6407C348.846 98.2978 350.258 98.9378 351.577 99.4463C352.754 99.9171 353.966 100.299 355.201 100.589C356.135 100.811 357.088 100.945 358.047 100.989C358.653 101.01 359.259 100.989 359.862 100.926L360.328 100.869H360.519Z" fill="#263238"/>
<path d="M83.3256 101.657C81.0211 89.1553 79.4713 87.2354 78.1693 82.9327C76.8672 78.6301 74.7989 75.8359 72.2236 74.8474C70.4952 74.1846 61.8129 71.0819 58.794 72.1104C55.8404 73.1519 53.0285 74.5531 50.4229 76.2816C48.4008 77.6118 46.8684 79.5567 46.0558 81.8242L41.4468 94.7207L49.5587 102.72L53.6262 94.1493L58.0393 104.434L57.3883 114.805L82.6976 121.559C84.9791 117.902 84.6334 108.749 83.3256 101.657Z" fill="#1FC9AA"/>
<g opacity="0.2">
<path d="M76.7522 88.0176C75.6345 94.5258 75.4559 95.4458 74.3382 101.931C73.9522 104.165 72.8287 107.645 71.2271 109.268C70.0403 110.462 68.8765 111.611 67.223 111.999C65.6905 112.359 63.3572 112.399 61.9168 111.771C60.4765 111.142 59.2436 108.342 59.837 106.908C61.986 107.365 62.6485 108.051 64.4979 106.908C66.111 105.891 68.404 103.64 69.2798 101.954C72.9727 94.8687 73.9925 94.6172 76.7694 88.0176" fill="black"/>
</g>
<path d="M58.4138 100.629C58.0044 100.082 57.6311 99.5094 57.2961 98.9148L54.692 94.6693L52.0188 90.4923C51.6202 89.9303 51.2603 89.3424 50.9414 88.7324C51.0801 88.8575 51.202 88.9996 51.3044 89.1553C51.5233 89.4352 51.8286 89.8524 52.1916 90.3723C52.9291 91.4123 53.92 92.8694 54.9455 94.5093C55.971 96.1492 56.864 97.6691 57.4805 98.7833C57.7916 99.3547 58.0566 99.789 58.1949 100.109C58.2948 100.27 58.3686 100.445 58.4138 100.629Z" fill="#263238"/>
<path d="M76.0779 112.303C75.8945 112.397 75.7013 112.472 75.5018 112.525C75.2656 112.604 75.0252 112.669 74.7816 112.72C74.4632 112.805 74.14 112.872 73.8137 112.92C72.9691 113.069 72.1135 113.147 71.2557 113.154C70.2031 113.156 69.1525 113.066 68.1158 112.885C67.0801 112.692 66.064 112.407 65.0796 112.034C64.2831 111.725 63.5125 111.355 62.7751 110.925C62.4524 110.748 62.1989 110.554 61.9454 110.4C61.7356 110.264 61.5337 110.118 61.3405 109.96C61.1648 109.84 61.0043 109.7 60.8623 109.543C60.8969 109.497 61.6113 110.051 62.8788 110.743C63.6218 111.14 64.3919 111.485 65.1833 111.777C67.1282 112.496 69.1858 112.869 71.2614 112.88C72.1073 112.881 72.9523 112.825 73.7906 112.714C75.1964 112.514 76.0606 112.245 76.0779 112.303Z" fill="#263238"/>
<path d="M65.9206 92.823C65.8745 93.0458 63.1552 98.417 63.1552 98.417L50.319 91.7088L49.0112 86.2233C48.7954 85.3424 48.2366 84.5822 47.457 84.1089C46.6775 83.6356 45.7407 83.4878 44.8516 83.6977L41.0664 85.2348C40.9103 85.2953 40.7717 85.3933 40.6632 85.5199C40.5546 85.6466 40.4793 85.7979 40.4442 85.9605C40.3923 86.2347 40.4442 86.5319 40.9454 86.469C41.8845 86.3947 43.8261 86.189 43.8261 86.189L42.9331 89.3146C42.6973 90.1337 42.7881 91.0113 43.1865 91.7659L43.7627 92.8458L45.0129 94.8514H44.9841C44.9841 94.8514 57.463 107.565 64.4688 108.394C68.6803 108.891 73.4506 97.1827 73.4506 97.1827L65.9206 92.823Z" fill="#B78876"/>
<path d="M43.7339 86.4006C43.7339 86.4006 43.8318 86.2692 44.045 86.1263C44.3305 85.9292 44.6708 85.8253 45.0187 85.8292C45.2003 85.8393 45.3758 85.8977 45.5268 85.9982C45.6778 86.0988 45.7988 86.2378 45.8771 86.4006C45.9981 86.6577 45.9174 86.8292 45.8771 86.8177C45.8368 86.8063 45.8771 86.6577 45.7388 86.4635C45.6538 86.3401 45.5418 86.2375 45.4111 86.1632C45.2803 86.089 45.1344 86.0451 44.9841 86.0349C44.6723 86.0393 44.3661 86.1177 44.0911 86.2635C43.9125 86.3492 43.7512 86.4235 43.7339 86.4006Z" fill="#AA6550"/>
<path d="M45.3529 88.3495C45.3529 88.3495 45.2665 88.2466 45.1455 88.0924C44.9909 87.8955 44.7858 87.7434 44.5517 87.6519C44.3176 87.5605 44.0631 87.533 43.8146 87.5724C43.6187 87.5724 43.4977 87.6409 43.4862 87.6181C43.4747 87.5952 43.5784 87.5095 43.7858 87.441C44.0599 87.3616 44.3528 87.3746 44.6187 87.478C44.8845 87.5814 45.1083 87.7693 45.2549 88.0124C45.3586 88.2066 45.3702 88.3438 45.3529 88.3495Z" fill="#AA6550"/>
<path d="M68.5823 75.8703L65.1255 92.2066L74.3436 97.6977L77.881 87.6582C77.881 87.6582 76.3946 75.4646 68.5823 75.8703Z" fill="#1FC9AA"/>
<path d="M73.5486 76.1553C73.5486 76.1553 73.4737 76.2181 73.3124 76.3038C73.151 76.3895 72.9206 76.5153 72.6152 76.6695C72.0045 76.9781 71.1058 77.4123 69.9823 77.9095C67.0616 79.2336 63.9866 80.1933 60.8276 80.7665C57.6488 81.3299 54.3858 81.2208 51.2524 80.4465C50.3145 80.2021 49.4006 79.8751 48.5215 79.4694C48.2046 79.338 47.9454 79.1951 47.8129 79.1151C47.7302 79.0742 47.6512 79.0264 47.5767 78.9723C47.9141 79.0855 48.2449 79.2171 48.5676 79.3665C49.463 79.7253 50.3834 80.0193 51.3215 80.2465C54.4312 80.9525 57.6524 81.0303 60.7931 80.4751C63.9309 79.9022 66.9927 78.9762 69.919 77.7152C71.0712 77.2466 71.9527 76.841 72.5807 76.5724C72.8936 76.4123 73.217 76.2729 73.5486 76.1553Z" fill="#EBEBEB"/>
<path d="M75.9743 77.9609C75.8954 78.0317 75.8084 78.0931 75.7151 78.1438L74.9546 78.6295C74.5526 78.8906 74.1372 79.1309 73.7102 79.3494C73.2147 79.6066 72.6616 79.9208 72.0106 80.2065L71.0081 80.6637C70.6567 80.8237 70.2764 80.9551 69.8904 81.1094C69.1242 81.4236 68.2715 81.6808 67.3843 81.9665C63.4942 83.1301 59.4285 83.6078 55.372 83.3778C54.4386 83.3035 53.5514 83.2521 52.7333 83.1207C52.3185 83.0578 51.921 83.0178 51.5407 82.9493L50.4518 82.7321C49.7605 82.6121 49.144 82.4293 48.6024 82.2921C48.1367 82.1806 47.6771 82.0452 47.2255 81.8865L46.3671 81.5893C46.2643 81.5622 46.1655 81.5218 46.0732 81.4693C46.1795 81.4751 46.2843 81.4963 46.3844 81.5322L47.2601 81.7722C47.6346 81.8865 48.0955 82.0179 48.6428 82.1322C49.1901 82.2464 49.795 82.4236 50.4979 82.5264L51.581 82.7207C51.9555 82.7893 52.3531 82.8235 52.7333 82.875C53.5514 82.995 54.4617 83.0407 55.3547 83.1035C59.3811 83.3065 63.4132 82.8332 67.2806 81.7036C68.162 81.4293 69.0089 81.1836 69.7752 80.8751C70.1554 80.7265 70.5357 80.6008 70.8871 80.4522L71.8954 80.0123C72.5464 79.7494 73.0995 79.4409 73.6238 79.2009C74.148 78.9609 74.5513 78.7266 74.8855 78.5323L75.6805 78.0981C75.7718 78.0395 75.8707 77.9934 75.9743 77.9609Z" fill="#EBEBEB"/>
<path d="M74.3209 97.697C74.0626 97.5888 73.8124 97.4628 73.5719 97.3199L71.5439 96.1771L64.6304 92.2173L64.5439 92.1658V92.0687C64.7917 90.8516 65.0567 89.5374 65.3332 88.1889C65.7481 86.1547 66.1513 84.2234 66.4855 82.4749C66.6756 81.5949 66.8312 80.7607 67.004 79.9665C67.1603 79.2323 67.4081 78.5202 67.7415 77.8466C68.2244 76.8461 69.0793 76.07 70.1266 75.681C70.4102 75.5841 70.7082 75.5358 71.0081 75.5381C71.1112 75.5311 71.2146 75.5427 71.3135 75.5724C70.9204 75.5855 70.5317 75.6588 70.1612 75.7895C69.1716 76.2035 68.3741 76.97 67.9258 77.938C67.6143 78.6036 67.3842 79.3038 67.2402 80.0236C67.0847 80.8064 66.9234 81.6464 66.7505 82.5206C66.3933 84.292 66.0016 86.2233 65.5983 88.2346C65.3217 89.5888 65.0509 90.8973 64.8032 92.1144L64.7341 91.9658L71.6073 96.0171L73.5949 97.217C73.85 97.3566 74.0928 97.5172 74.3209 97.697Z" fill="#263238"/>
<path d="M77.1381 87.1719C77.1888 87.6803 77.1734 88.193 77.092 88.6975C76.9713 89.9187 76.7517 91.1283 76.4352 92.3145C76.1189 93.502 75.7106 94.6635 75.2138 95.7886C75.0335 96.2671 74.7915 96.7203 74.4937 97.1371C74.6346 96.6494 74.8098 96.1721 75.0179 95.7086C75.8924 93.4351 76.5183 91.075 76.8846 88.6689C76.937 88.1651 77.0217 87.6651 77.1381 87.1719Z" fill="#263238"/>
<path d="M27.1589 178.042L27.0552 186.762C27.0552 186.762 18.0791 189.59 17.9062 191.201L34.9482 192.001L35.6741 178.419L27.1589 178.042Z" fill="#455A64"/>
<path d="M32.3899 186.276C32.5517 186.333 32.6864 186.448 32.7682 186.598C32.8501 186.747 32.8734 186.922 32.8335 187.087C32.7827 187.25 32.6706 187.388 32.5203 187.471C32.3701 187.554 32.1934 187.576 32.027 187.533C31.8562 187.471 31.7143 187.349 31.6283 187.19C31.5423 187.031 31.5181 186.846 31.5603 186.67C31.6327 186.507 31.7661 186.377 31.9326 186.309C32.099 186.241 32.2856 186.239 32.4533 186.305" fill="#E0E0E0"/>
<path d="M34.948 192.002V190.63L18.5975 190.373C18.5975 190.373 17.8197 190.664 17.8831 191.202L34.948 192.002Z" fill="#E0E0E0"/>
<path d="M26.7841 186.664C26.7841 186.744 27.199 186.801 27.5907 187.087C27.9825 187.373 28.1669 187.727 28.2706 187.698C28.3743 187.67 28.2706 187.19 27.7578 186.853C27.2451 186.516 26.7669 186.584 26.7841 186.664Z" fill="#263238"/>
<path d="M24.958 187.309C24.958 187.389 25.2922 187.549 25.5341 187.909C25.7761 188.269 25.8625 188.647 25.949 188.647C26.0354 188.647 26.1045 188.184 25.7646 187.738C25.4247 187.292 24.9638 187.235 24.958 187.309Z" fill="#263238"/>
<path d="M23.8403 189.384C23.9152 189.384 24.0535 189.001 23.8403 188.538C23.6272 188.076 23.2642 187.876 23.2296 187.967C23.1951 188.058 23.4198 188.287 23.5696 188.67C23.7193 189.053 23.7482 189.373 23.8403 189.384Z" fill="#263238"/>
<path d="M27.0265 184.676C27.061 184.756 27.4471 184.676 27.9195 184.71C28.3919 184.745 28.7433 184.933 28.7894 184.865C28.8355 184.796 28.5014 184.482 27.9483 184.425C27.3952 184.367 26.9919 184.613 27.0265 184.676Z" fill="#263238"/>
<g opacity="0.3">
<path d="M27.1417 179.762L27.1187 181.316L35.5013 181.636L35.582 180.242L27.1417 179.762Z" fill="black"/>
</g>
<path d="M27.084 182.916C27.3591 183.007 27.6541 183.02 27.9367 182.956C28.2469 182.916 28.5509 182.837 28.8412 182.722C29.0146 182.658 29.1823 182.579 29.3424 182.487C29.442 182.441 29.5334 182.379 29.6132 182.304C29.671 182.248 29.708 182.174 29.7185 182.094C29.7289 182.015 29.7121 181.934 29.6708 181.864C29.6312 181.805 29.5783 181.756 29.5164 181.72C29.4545 181.685 29.3851 181.664 29.3136 181.659C29.2052 181.653 29.0966 181.663 28.991 181.687C28.808 181.722 28.6286 181.774 28.4552 181.842C28.1619 181.958 27.8881 182.118 27.6428 182.316C27.228 182.664 27.0667 182.967 27.107 182.984C27.1474 183.002 27.349 182.762 27.7638 182.482C28.0078 182.32 28.271 182.19 28.5474 182.093C28.709 182.038 28.8746 181.996 29.0428 181.967C29.2272 181.927 29.3827 181.933 29.4231 182.013C29.4634 182.093 29.4231 182.059 29.4231 182.11C29.3634 182.163 29.2977 182.209 29.2272 182.247C29.0716 182.333 28.9161 182.413 28.7663 182.482C28.4948 182.598 28.2133 182.69 27.9251 182.756C27.6416 182.791 27.3606 182.845 27.084 182.916Z" fill="#263238"/>
<path d="M27.2048 183.042C27.3761 182.808 27.467 182.525 27.4641 182.236C27.4961 181.924 27.4727 181.609 27.395 181.305C27.3485 181.123 27.2829 180.947 27.1991 180.779C27.1586 180.665 27.089 180.564 26.9971 180.484C26.9052 180.405 26.7941 180.351 26.6748 180.327C26.5995 180.325 26.5251 180.344 26.4606 180.382C26.3961 180.421 26.3444 180.477 26.3118 180.545C26.261 180.641 26.226 180.745 26.2081 180.853C26.1793 181.043 26.1793 181.235 26.2081 181.425C26.2397 181.744 26.3505 182.05 26.5308 182.316C26.8419 182.773 27.1876 182.887 27.1933 182.859C27.1991 182.83 26.9398 182.647 26.7036 182.213C26.5685 181.964 26.4898 181.689 26.4732 181.407C26.4639 181.243 26.4775 181.077 26.5135 180.916C26.5481 180.739 26.623 180.596 26.6921 180.619C26.7612 180.642 26.911 180.762 26.9744 180.91C27.0525 181.06 27.1162 181.217 27.1645 181.379C27.2473 181.655 27.2899 181.942 27.2913 182.23C27.2452 182.722 27.1415 183.024 27.2048 183.042Z" fill="#263238"/>
<path d="M61.8992 114.897C61.8992 114.897 35.2705 103.811 27.0318 103.349C21.8466 103.052 17.952 106.343 18.6549 111.645C19.0063 114.302 26.3635 145.358 26.3635 145.358L37.575 140.284L32.1824 118.805L54.0753 129.353L61.8992 114.897Z" fill="#263238"/>
<path d="M28.8355 113.371C28.749 113.446 29.6305 114.571 30.5638 116.063C31.4972 117.554 32.1194 118.84 32.2231 118.8C32.3268 118.76 31.8486 117.383 30.898 115.863C29.9474 114.343 28.9334 113.303 28.8355 113.371Z" fill="#455A64"/>
<path d="M26.6576 114.605C26.5999 114.703 27.9423 115.548 29.5382 116.702C31.1341 117.857 32.3324 118.868 32.4188 118.788C32.5053 118.708 31.353 117.525 29.7514 116.382C28.1497 115.24 26.7036 114.514 26.6576 114.605Z" fill="#455A64"/>
<path d="M82.669 121.559C82.669 121.559 79.3217 125.839 76.1299 127.01C72.097 128.479 42.4494 142.358 42.4494 142.358C42.4494 142.358 37.0684 182.007 37.4947 180.35L25.0791 180.053L26.4272 143.535C26.5886 138.861 30.368 133.49 34.4297 131.101L61.8995 114.896L82.669 121.559Z" fill="#263238"/>
<path d="M26.1909 150.221C26.2303 150.056 26.2478 149.887 26.2428 149.718C26.2428 149.352 26.2889 148.878 26.3177 148.284C26.3882 146.526 26.5536 144.773 26.8131 143.032C27.1768 140.46 28.0966 137.997 29.5094 135.81C30.3837 134.553 31.4622 133.448 32.7012 132.541C34.0456 131.57 35.4525 130.686 36.9127 129.896C42.8871 126.502 48.0435 123.039 51.8575 120.668C53.7587 119.468 55.3142 118.514 56.3743 117.862L57.6072 117.108C57.7564 117.026 57.8972 116.931 58.0278 116.822C57.8691 116.879 57.7167 116.952 57.5727 117.039C57.2789 117.194 56.8468 117.422 56.2994 117.731C55.199 118.342 53.6319 119.268 51.6904 120.434C47.8361 122.753 42.6509 126.176 36.711 129.576C35.2358 130.375 33.8154 131.271 32.4592 132.256C31.1892 133.19 30.0869 134.33 29.1983 135.627C27.7771 137.871 26.8704 140.397 26.5423 143.027C26.3051 144.779 26.1819 146.544 26.1736 148.312C26.1736 148.883 26.1736 149.381 26.1736 149.752C26.1653 149.908 26.1711 150.065 26.1909 150.221Z" fill="#455A64"/>
<path d="M71.7108 125.736C71.4807 125.382 71.2266 125.044 70.9503 124.725C70.378 123.899 69.9807 122.967 69.7827 121.985C69.5846 121.003 69.5898 119.991 69.798 119.011C69.926 118.608 70.0261 118.198 70.0976 117.782C69.8179 118.113 69.6206 118.505 69.5215 118.925C69.2264 119.94 69.183 121.01 69.3947 122.045C69.6015 123.08 70.0604 124.049 70.7314 124.868C71.2556 125.525 71.6877 125.77 71.7108 125.736Z" fill="#455A64"/>
<path d="M29.6419 180.053C29.6623 179.988 29.6739 179.921 29.6765 179.853C29.6765 179.693 29.7226 179.499 29.7514 179.253C29.8148 178.682 29.8954 177.928 29.9991 176.968C30.2008 174.933 30.4888 172.036 30.846 168.471C31.0131 166.677 31.2032 164.711 31.4222 162.603C31.6411 160.494 31.8427 158.237 31.9983 155.86C32.1538 153.483 32.4073 150.998 32.8452 148.432C33.2728 145.8 34.0476 143.235 35.1497 140.804C36.3006 138.401 37.8205 136.19 39.6551 134.25C41.3741 132.445 43.2563 130.8 45.2781 129.336C48.7431 126.916 52.3419 124.689 56.0575 122.668C59.2089 120.873 61.7208 119.342 63.3858 118.188C64.227 117.616 64.8607 117.154 65.287 116.828L65.7652 116.456C65.8728 116.373 65.9246 116.327 65.9208 116.319C65.8566 116.345 65.7965 116.38 65.7422 116.422L65.241 116.765C64.8031 117.068 64.1521 117.514 63.3052 118.068C61.6113 119.176 59.0879 120.668 55.9192 122.433C52.1732 124.426 48.5489 126.635 45.0649 129.05C43.0161 130.518 41.1104 132.173 39.3727 133.993C37.5054 135.959 35.96 138.203 34.7925 140.644C33.6858 143.105 32.9109 145.701 32.488 148.363C32.0559 150.935 31.837 153.432 31.6584 155.792C31.4798 158.151 31.3012 160.426 31.0822 162.534C30.8633 164.643 30.725 166.608 30.5695 168.408C30.2641 171.979 29.9934 174.876 29.8493 176.916C29.7725 177.899 29.7149 178.661 29.6765 179.202C29.6765 179.448 29.6477 179.648 29.6362 179.802C29.6246 179.956 29.6304 180.053 29.6419 180.053Z" fill="#455A64"/>
<path d="M58.8921 52.0083C58.4739 50.9404 57.6857 50.0553 56.6689 49.5118C55.6521 48.9683 54.4732 48.802 53.344 49.0427C52.8471 49.223 52.3275 49.3345 51.7999 49.3742C51.1605 49.2655 50.532 49.1011 49.9217 48.8828C49.2302 48.7716 48.5217 48.9194 47.934 49.2975C47.3462 49.6755 46.9212 50.2568 46.7415 50.9284C46.2003 50.7979 45.637 50.7861 45.0908 50.8937C44.5445 51.0012 44.0284 51.2256 43.5786 51.5512C43.1374 51.89 42.8242 52.3663 42.6893 52.9033C42.5545 53.4402 42.6059 54.0066 42.8354 54.511C43.06 54.9282 43.4115 55.2596 43.6362 55.6881C43.9761 56.3909 43.8205 57.2366 44.0568 57.9737C44.2785 58.5097 44.6479 58.973 45.1227 59.3105C45.5975 59.648 46.1585 59.8461 46.7415 59.8822C47.9145 59.942 49.0882 59.7771 50.1983 59.3965" fill="#263238"/>
<path d="M53.528 74.6072C53.3839 73.4987 53.2917 72.7215 53.2917 72.7215C53.2917 72.7215 49.5757 72.7215 48.1066 68.1504C47.3634 65.8648 46.8679 62.0478 46.5683 58.8937C46.5028 58.2218 46.5752 57.5437 46.781 56.9003C46.9869 56.2569 47.322 55.6615 47.7662 55.15C48.2103 54.6385 48.7543 54.2214 49.3653 53.9241C49.9763 53.6267 50.6417 53.4551 51.3214 53.4197L61.1847 52.9111L61.3979 54.4253L63.9962 73.2358C64.0902 73.9178 64.0473 74.6115 63.87 75.277C63.6927 75.9425 63.3845 76.5667 62.9631 77.1136C62.5417 77.6605 62.0155 78.1195 61.4147 78.464C60.8138 78.8086 60.1503 79.0319 59.4621 79.1212C58.7734 79.2127 58.0733 79.1684 57.4019 78.9909C56.7305 78.8134 56.101 78.5061 55.5497 78.0867C54.9983 77.6672 54.5359 77.144 54.189 76.5469C53.842 75.9498 53.6174 75.2906 53.528 74.6072Z" fill="#B78876"/>
<path d="M47.9457 61.5847C47.97 61.741 48.0544 61.8819 48.1811 61.9778C48.3079 62.0736 48.4672 62.1171 48.6255 62.099C48.7039 62.0941 48.7805 62.0734 48.8505 62.0381C48.9206 62.0028 48.9826 61.9537 49.0328 61.8937C49.0829 61.8338 49.1202 61.7643 49.1423 61.6896C49.1645 61.6148 49.1709 61.5364 49.1613 61.459C49.1399 61.3015 49.0562 61.1588 48.9287 61.0624C48.8013 60.966 48.6404 60.9237 48.4815 60.9448C48.4031 60.9496 48.3265 60.9704 48.2565 61.0057C48.1865 61.041 48.1245 61.0901 48.0743 61.15C48.0241 61.21 47.9868 61.2795 47.9647 61.3542C47.9426 61.429 47.9361 61.5074 47.9457 61.5847Z" fill="#263238"/>
<path d="M47.6918 60.7397C47.7783 60.8026 48.1816 60.3969 48.8441 60.294C49.5066 60.1912 49.9964 60.4426 50.0828 60.3512C50.1692 60.2598 50.0136 60.1798 49.7832 60.0655C49.4708 59.9135 49.1178 59.8635 48.775 59.9226C48.4358 59.9729 48.1223 60.1314 47.882 60.374C47.6918 60.5569 47.6458 60.7112 47.6918 60.7397Z" fill="#263238"/>
<path d="M54.1214 60.5454C54.1457 60.7012 54.2303 60.8416 54.3573 60.9365C54.4842 61.0315 54.6435 61.0736 54.8013 61.0539C54.8796 61.0497 54.9563 61.0297 55.0266 60.9951C55.0968 60.9605 55.1593 60.912 55.21 60.8526C55.2607 60.7932 55.2986 60.7242 55.3215 60.6497C55.3443 60.5753 55.3516 60.497 55.3428 60.4196C55.3186 60.2634 55.2342 60.1225 55.1074 60.0266C54.9807 59.9307 54.8214 59.8873 54.663 59.9054C54.5841 59.9095 54.5069 59.9297 54.4362 59.9647C54.3655 59.9996 54.3028 60.0486 54.252 60.1087C54.2012 60.1687 54.1634 60.2384 54.141 60.3135C54.1185 60.3887 54.1119 60.4676 54.1214 60.5454Z" fill="#263238"/>
<path d="M54.1099 59.848C54.1963 59.9166 54.5996 59.5052 55.2621 59.408C55.9247 59.3109 56.4144 59.5509 56.5008 59.4594C56.5873 59.368 56.4317 59.2937 56.2012 59.1737C55.8873 59.0268 55.5359 58.977 55.193 59.0309C54.8551 59.085 54.5427 59.2429 54.3 59.4823C54.1099 59.6651 54.0696 59.8137 54.1099 59.848Z" fill="#263238"/>
<path d="M52.5141 65.0138C52.1527 64.9655 51.7865 64.9655 51.4252 65.0138C51.2581 65.0138 51.0968 65.0138 51.0507 64.9053C50.9977 64.7398 50.9977 64.5622 51.0507 64.3967C51.1429 63.9739 51.2408 63.5282 51.3445 63.0654C51.6258 61.9294 51.8184 60.7737 51.9206 59.6084C51.5432 60.7268 51.2561 61.8732 51.0622 63.0368C50.97 63.5053 50.8778 63.951 50.7972 64.3796C50.7167 64.5913 50.7167 64.8249 50.7972 65.0367C50.8308 65.0908 50.8762 65.1369 50.93 65.1715C50.9838 65.2061 51.0447 65.2283 51.1083 65.2367C51.2039 65.2486 51.3007 65.2486 51.3964 65.2367C51.7769 65.2096 52.1525 65.1347 52.5141 65.0138Z" fill="#263238"/>
<path d="M53.292 72.7212C55.5186 72.4042 57.6128 71.4804 59.3414 70.0527C59.3414 70.0527 58.3158 73.5268 53.5282 73.8183L53.292 72.7212Z" fill="#AA6550"/>
<path d="M54.502 65.1558C54.3926 65.1558 54.502 65.8644 53.9835 66.4586C53.465 67.0529 52.693 67.0929 52.6988 67.19C52.7045 67.2872 52.8889 67.3043 53.2115 67.2586C53.6267 67.2032 54.0075 67.0002 54.2831 66.6872C54.553 66.3907 54.6938 66.0005 54.6749 65.6015C54.6576 65.3044 54.5481 65.1444 54.502 65.1558Z" fill="#263238"/>
<path d="M53.534 57.3453C53.6262 57.511 54.2657 57.3453 55.0435 57.2939C55.8212 57.2425 56.4722 57.3739 56.5471 57.2025C56.622 57.0311 56.4492 56.9739 56.1727 56.8425C55.8059 56.6838 55.4073 56.611 55.0076 56.6299C54.608 56.6487 54.218 56.7586 53.8681 56.9511C53.6146 57.1054 53.4937 57.2653 53.534 57.3453Z" fill="#263238"/>
<path d="M47.6285 58.8312C47.7668 58.9569 48.2046 58.7341 48.7289 58.6427C49.2532 58.5512 49.7429 58.5855 49.8236 58.4141C49.8581 58.3341 49.7602 58.197 49.5413 58.0941C49.2466 57.9641 48.9184 57.9281 48.6022 57.9913C48.2867 58.0464 47.9965 58.1983 47.7726 58.4255C47.6055 58.6084 47.5651 58.7684 47.6285 58.8312Z" fill="#263238"/>
<path d="M46.05 56.8313C46.05 56.8313 48.6598 57.7055 51.6557 55.7171C53.6203 54.4143 56.0055 53.5972 56.5989 53.9515C57.1923 54.3057 57.5783 56.4313 59.7388 56.8084C59.7388 56.8084 60.119 60.9225 61.7495 60.5683C62.9018 60.3168 62.2334 55.7799 61.7495 53.1915C61.6484 52.691 61.3813 52.2386 60.9908 51.9062C60.6003 51.5737 60.1088 51.3805 59.5948 51.3573L56.5586 51.2373L52.7676 52.2887L48.7002 53.3858L45.6006 54.6714L46.05 56.8313Z" fill="#263238"/>
<path d="M61.3867 58.8935C61.4443 58.8535 63.962 57.5393 64.4287 60.2649C64.8953 62.9904 62.0435 62.8876 62.0205 62.8133C61.9974 62.739 61.3867 58.8935 61.3867 58.8935Z" fill="#B78876"/>
<path d="M62.6829 61.6364C62.6829 61.6364 62.7405 61.6649 62.8269 61.6878C62.9483 61.7164 63.076 61.698 63.1841 61.6364C63.3408 61.4944 63.4573 61.3142 63.522 61.1137C63.5867 60.9132 63.5973 60.6994 63.5529 60.4936C63.5196 60.2592 63.435 60.035 63.3051 59.8365C63.2633 59.7561 63.2028 59.6868 63.1287 59.6341C63.0546 59.5815 62.9689 59.547 62.8788 59.5336C62.8216 59.5288 62.7644 59.5438 62.7171 59.5761C62.6698 59.6084 62.6353 59.656 62.6195 59.7108C62.6195 59.7908 62.6195 59.8422 62.6195 59.8536C62.6195 59.865 62.5562 59.8136 62.5562 59.6993C62.5611 59.6293 62.5894 59.5629 62.6368 59.5108C62.7034 59.4418 62.7941 59.4008 62.8903 59.3965C63.0075 59.3987 63.1221 59.4308 63.2231 59.4899C63.324 59.549 63.4079 59.6329 63.4664 59.7336C63.6241 59.9494 63.725 60.2008 63.7603 60.465C63.8174 60.7056 63.8008 60.9576 63.7125 61.1887C63.6242 61.4198 63.4683 61.6195 63.2648 61.7621C63.1946 61.7951 63.1178 61.8122 63.0401 61.8122C62.9624 61.8122 62.8856 61.7951 62.8154 61.7621C62.7002 61.7049 62.6771 61.6478 62.6829 61.6364Z" fill="#AA6550"/>
<path d="M47.3691 49.9231C47.3691 49.9231 47.4613 50.0716 47.6572 50.2888C47.9378 50.5967 48.2956 50.8254 48.6942 50.9516C49.2865 51.1414 49.9195 51.169 50.5263 51.0316C51.2809 50.8497 52.022 50.6168 52.7444 50.3345C53.4924 50.0424 54.2914 49.9006 55.095 49.9173C55.7747 49.9417 56.4178 50.2288 56.8868 50.7173C57.2062 51.0361 57.4003 51.4576 57.4341 51.9058C57.4581 52.0684 57.4299 52.2343 57.3535 52.3801C57.3247 52.3801 57.3535 52.2087 57.3189 51.9172C57.247 51.5124 57.0449 51.1416 56.7428 50.8602C56.2988 50.4382 55.7099 50.1993 55.095 50.1916C54.3279 50.1922 53.5677 50.3357 52.8539 50.6145C52.1194 50.9043 51.3621 51.1336 50.5897 51.3001C49.9376 51.4339 49.2606 51.3824 48.6366 51.1516C48.213 50.9973 47.8445 50.7232 47.5765 50.363C47.3691 50.1002 47.3691 49.9288 47.3691 49.9231Z" fill="#455A64"/>
<path d="M56.651 52.5338C56.651 52.5338 56.5127 52.3909 56.2247 52.1909C55.8138 51.9416 55.3409 51.811 54.8592 51.8138C54.1288 51.8111 53.4089 51.9857 52.7621 52.3223C51.9539 52.7553 51.1187 53.137 50.2617 53.4651C49.4486 53.7154 48.5924 53.7974 47.746 53.706C46.8997 53.6146 46.0813 53.3518 45.3416 52.9338C44.8941 52.684 44.4848 52.3723 44.126 52.0081C43.9863 51.8843 43.8693 51.7373 43.7803 51.5738C44.2904 52.021 44.8465 52.4136 45.4395 52.7452C46.8964 53.5035 48.5959 53.6616 50.1695 53.1852C51.0144 52.8462 51.8412 52.4648 52.6469 52.0424C53.3346 51.6972 54.101 51.5358 54.8708 51.5738C55.3938 51.5937 55.8975 51.7755 56.3111 52.0938C56.4622 52.2075 56.5797 52.3594 56.651 52.5338Z" fill="#455A64"/>
<path d="M48.1185 98.9662L34.7408 87.6582L30.3276 88.6467C30.3276 88.6467 34.977 98.2348 38.3416 101.749C38.3416 101.749 41.6659 106.16 47.1506 104.252C52.6354 102.343 48.1185 98.9662 48.1185 98.9662Z" fill="#B78876"/>
<path d="M33.7265 75.2012H28.0401C27.8255 75.2127 27.6162 75.2716 27.4274 75.3734C27.2387 75.4753 27.0751 75.6176 26.9488 75.7899C26.8224 75.9623 26.7364 76.1605 26.6969 76.37C26.6575 76.5795 26.6656 76.7951 26.7207 77.0011L32.4417 88.0462C32.5502 88.2566 32.7152 88.4331 32.9186 88.5561C33.122 88.6791 33.3557 88.7439 33.5939 88.7433H40.5075C40.67 88.7254 40.8255 88.6678 40.9602 88.5757C41.0948 88.4836 41.2044 88.36 41.2791 88.2157C41.3538 88.0714 41.3914 87.911 41.3885 87.7489C41.3855 87.5867 41.3421 87.4278 41.2622 87.2863L35.7487 76.4697C35.561 76.0949 35.2732 75.7784 34.9166 75.5547C34.56 75.3311 34.1483 75.2088 33.7265 75.2012Z" fill="#455A64"/>
<path d="M33.3466 75.8701H27.6602C27.497 75.8691 27.3363 75.9098 27.1935 75.9883C27.0507 76.0667 26.9308 76.1803 26.8451 76.318C26.7594 76.4558 26.711 76.6132 26.7044 76.7749C26.6978 76.9366 26.7333 77.0973 26.8075 77.2415L32.3902 88.0467C32.4997 88.2562 32.665 88.4319 32.8681 88.5548C33.0713 88.6777 33.3045 88.7431 33.5425 88.7438H40.3984C40.4925 88.7399 40.5842 88.7131 40.6655 88.6659C40.7468 88.6187 40.8152 88.5524 40.8647 88.4729C40.9141 88.3934 40.9432 88.3031 40.9493 88.2098C40.9554 88.1166 40.9383 88.0233 40.8996 87.9381L35.3803 77.1272C35.1938 76.75 34.9044 76.4322 34.5449 76.21C34.1854 75.9877 33.7702 75.87 33.3466 75.8701Z" fill="#263238"/>
<path d="M32.8622 80.3838L29.4054 81.7551L28.668 84.5207L30.333 88.6348L36.4227 89.5262L34.6367 87.7148L34.8614 86.1321C34.8614 86.1321 36.5897 85.6007 36.5897 85.3435C36.5897 85.0864 36.3766 84.2007 36.1173 84.1722C35.4353 84.3266 34.7667 84.5349 34.1182 84.795C34.1182 84.795 36.2325 83.1322 36.1749 82.8637C36.1173 82.5951 35.8869 81.9151 35.4663 81.8351C35.0457 81.7551 31.6235 83.3608 31.6235 83.3608L31.0474 84.6121L30.5634 82.6065C30.5634 82.6065 33.6112 81.7609 32.8622 80.3838Z" fill="#B78876"/>
<path d="M33.3004 86.8751C33.3004 86.8751 33.2139 86.7609 33.1794 86.5323C33.143 86.2413 33.1762 85.9458 33.2762 85.6699C33.3763 85.3939 33.5405 85.1452 33.7555 84.9438C33.9283 84.7953 34.0608 84.7438 34.0724 84.761C33.8094 85.0497 33.5937 85.3775 33.4329 85.7324C33.3303 86.1044 33.2856 86.4897 33.3004 86.8751Z" fill="#AA6550"/>
<path d="M31.6523 86.275C31.7198 85.9796 31.766 85.6798 31.7906 85.3779C31.8046 85.0405 31.8627 84.7063 31.9635 84.3837C32.0293 84.1765 32.1442 83.988 32.2985 83.8339C32.4529 83.6798 32.6422 83.5647 32.8507 83.498C33.6746 83.2009 34.4235 82.9609 34.9651 82.7838C35.2546 82.6753 35.5535 82.593 35.8581 82.5381C35.5899 82.6899 35.3059 82.8125 35.0112 82.9038C34.4754 83.1095 33.7264 83.3723 32.9141 83.6637C32.7243 83.7286 32.5513 83.8339 32.4071 83.9723C32.2791 84.1068 32.181 84.2664 32.119 84.4408C32.0135 84.7498 31.9458 85.0701 31.9174 85.3951C31.9062 85.706 31.815 86.009 31.6523 86.275Z" fill="#AA6550"/>
<path d="M30.8573 85.6578C30.8028 85.4343 30.8028 85.2012 30.8573 84.9778C30.9207 84.6121 31.0071 84.3264 31.0589 84.3321C31.113 84.5556 31.113 84.7886 31.0589 85.0121C30.9956 85.3778 30.9091 85.6635 30.8573 85.6578Z" fill="#AA6550"/>
<path d="M30.7652 77.9553C30.7652 78.0977 30.8077 78.2369 30.8875 78.3553C30.9673 78.4737 31.0806 78.566 31.2133 78.6205C31.3459 78.675 31.4919 78.6892 31.6327 78.6615C31.7735 78.6337 31.9029 78.5651 32.0044 78.4644C32.1059 78.3637 32.175 78.2355 32.2031 78.0958C32.2311 77.9561 32.2167 77.8114 32.1617 77.6798C32.1068 77.5483 32.0138 77.4358 31.8944 77.3567C31.775 77.2776 31.6347 77.2354 31.4911 77.2354C31.3955 77.2346 31.3008 77.2527 31.2124 77.2886C31.124 77.3245 31.0436 77.3775 30.9761 77.4445C30.9085 77.5116 30.8551 77.5912 30.8189 77.6789C30.7826 77.7666 30.7644 77.8606 30.7652 77.9553Z" fill="#FAFAFA"/>
<path d="M10.8425 186.87C11.7449 187.147 12.5815 187.603 13.3022 188.208C14.0229 188.814 14.6129 189.558 15.0367 190.396C15.8766 192.078 16.3161 193.929 16.3215 195.807C16.4367 199.418 14.9272 203.303 13.147 206.463C9.74208 204.292 8.38242 199.806 7.82933 197.521C6.96514 193.875 7.62769 186.767 10.8425 186.864" fill="#176CFF"/>
<path d="M17.5199 211.834C17.1649 210.847 17.0792 209.785 17.2715 208.754C17.4637 207.724 17.927 206.762 18.6145 205.966C19.3161 205.183 20.1682 204.547 21.1209 204.094C22.0736 203.642 23.1077 203.383 24.1626 203.332C25.1305 203.263 26.2137 203.389 26.8762 204.098C27.1674 204.446 27.3593 204.866 27.4323 205.313C27.5052 205.76 27.4564 206.218 27.291 206.64C26.9466 207.481 26.3841 208.216 25.6606 208.772C23.2812 210.783 20.6079 212.291 17.5199 211.834Z" fill="#176CFF"/>
<path d="M15.2501 223.303C15.2239 223.056 15.2239 222.807 15.2501 222.56C15.2501 222.028 15.2962 221.348 15.325 220.531C15.3475 218.281 15.7366 216.048 16.4772 213.92C17.2517 211.788 18.5839 209.899 20.3373 208.446C20.8694 208.02 21.4494 207.655 22.0657 207.361C22.2846 207.252 22.469 207.201 22.5842 207.149C22.6994 207.098 22.7686 207.086 22.7743 207.098C21.3529 207.795 20.0852 208.765 19.0448 209.952C18.0044 211.139 17.212 212.519 16.7135 214.012C15.9925 216.118 15.5906 218.319 15.5209 220.543C15.4633 221.394 15.4114 222.086 15.3653 222.566C15.3475 222.814 15.3089 223.061 15.2501 223.303Z" fill="#263238"/>
<path d="M10.8199 192.327C10.8544 192.43 10.8813 192.535 10.9005 192.641C10.9505 192.878 11.0138 193.18 11.0907 193.55C11.252 194.338 11.4709 195.487 11.7244 196.904C12.2372 199.761 12.8767 203.675 13.5046 208.029C14.1326 212.383 14.5993 216.337 14.8989 219.206C15.0487 220.64 15.1581 221.8 15.2273 222.606C15.2542 222.987 15.2772 223.295 15.2964 223.531C15.313 223.637 15.313 223.745 15.2964 223.851C15.2677 223.746 15.2484 223.639 15.2388 223.531C15.21 223.297 15.1697 222.994 15.1178 222.611C15.0141 221.783 14.8758 220.634 14.703 219.229C14.3573 216.372 13.8561 212.418 13.2396 208.063C12.6232 203.709 12.0009 199.807 11.54 196.95C11.3096 195.55 11.1252 194.407 10.9639 193.579C10.9063 193.201 10.8602 192.899 10.8199 192.664C10.8048 192.552 10.8048 192.439 10.8199 192.327Z" fill="#263238"/>
<path d="M12.6114 214.755C11.9336 212.654 10.7613 210.744 9.19142 209.182C7.62153 207.62 5.6992 206.451 3.58347 205.772C2.50035 205.435 1.14068 205.315 0.414762 206.178C-0.311161 207.041 0.0806063 208.355 0.639452 209.332C1.8415 211.351 3.61966 212.971 5.74942 213.988C7.87917 215.005 10.265 215.373 12.6057 215.046" fill="#176CFF"/>
<path d="M4.54581 209.074C4.77755 209.115 5.00511 209.176 5.22564 209.257C5.4905 209.334 5.75026 209.428 6.00342 209.537C6.30301 209.668 6.65445 209.783 7.01165 209.977C7.40649 210.169 7.79109 210.38 8.1639 210.611C8.60272 210.873 9.02769 211.157 9.43715 211.463C11.3225 212.867 12.8335 214.707 13.8388 216.822C14.0572 217.282 14.2495 217.753 14.4149 218.234C14.5664 218.648 14.6915 219.072 14.7894 219.502C14.8789 219.856 14.9481 220.215 14.9968 220.576C15.0469 220.847 15.0796 221.119 15.0947 221.394C15.1186 221.625 15.1224 221.858 15.1063 222.091C15.0429 222.091 15.0026 221.091 14.5935 219.542C14.4845 219.123 14.3537 218.709 14.2017 218.302C14.0364 217.831 13.8441 217.369 13.6256 216.92C13.1147 215.904 12.4946 214.946 11.7762 214.063C11.0374 213.182 10.2071 212.382 9.29888 211.674C8.901 211.369 8.48756 211.085 8.0602 210.823C7.68841 210.583 7.30376 210.364 6.90794 210.166C5.49643 209.406 4.52277 209.126 4.54581 209.074Z" fill="#263238"/>
</g>
<defs>
<clipPath id="clip0_4969_21925">
<rect width="395" height="224" fill="white"/>
</clipPath>
</defs>
</svg>
