<svg width="394" height="258" viewBox="0 0 394 258" fill="none" xmlns="http://www.w3.org/2000/svg">
<g clip-path="url(#clip0_4969_25576)">
<path d="M71.3893 219.258C78.4818 214.304 80.8678 208.197 81.6784 199.577C82.0542 195.251 81.4989 190.894 80.0498 186.801C78.6008 182.708 76.2917 178.974 73.2785 175.85C68.2385 170.693 61.3028 167.302 57.5441 161.137C53.5435 154.592 53.6808 145.618 48.1244 140.303C44.3068 136.658 38.7243 135.682 34.0831 133.156C30.2982 131.094 27.1866 128.018 23.722 125.452C20.2575 122.886 16.1457 120.759 11.851 121.08C5.3729 121.571 0.32639 127.939 0.0191549 134.439C-0.288081 140.938 3.33337 147.156 8.28836 151.365C11.8837 154.421 16.3092 156.758 18.6625 160.849C23.0814 168.526 18.4664 179.175 23.2383 186.676C26.7029 192.142 34.5668 194.753 35.6585 201.135C36.0572 203.484 35.3905 205.873 35.4101 208.256C35.4689 215.698 42.4176 221.7 49.739 223.015C57.0604 224.331 64.519 222.04 71.4154 219.258" fill="#F5F5F5"/>
<path d="M25.8926 147.241C26.1196 147.559 26.3804 147.851 26.6705 148.112L29.0238 150.481C30.0631 151.489 31.3182 152.739 32.6779 154.284C34.0376 155.829 35.7045 157.471 37.3126 159.52C38.1428 160.515 39.0122 161.556 39.9274 162.642C40.8425 163.729 41.6727 164.933 42.5944 166.137C44.477 168.526 46.2486 171.256 48.1704 174.083C52.1701 180.326 55.7241 186.844 58.806 193.588C61.7977 200.384 64.3054 207.383 66.3104 214.533C67.1471 217.851 68.01 220.986 68.546 223.984C68.8336 225.476 69.1997 226.903 69.3893 228.297C69.5788 229.692 69.8011 231.033 69.9907 232.316C70.4352 234.869 70.5855 237.205 70.8143 239.254C71.0431 241.303 71.1608 243.063 71.2261 244.49C71.2915 245.917 71.3765 246.971 71.4288 247.822C71.4377 248.213 71.4815 248.603 71.5595 248.987C71.6163 248.601 71.6338 248.211 71.6118 247.822C71.6118 246.964 71.6118 245.858 71.5726 244.477C71.5334 243.096 71.5072 241.244 71.3111 239.189C71.115 237.133 71.0235 234.784 70.6182 232.211C70.4395 230.902 70.2543 229.554 70.0626 228.166C69.8665 226.766 69.5396 225.319 69.2651 223.82C68.7617 220.797 67.9577 217.635 67.1013 214.297C65.1223 207.096 62.614 200.052 59.597 193.221C56.4948 186.422 52.8986 179.859 48.8372 173.586C46.8761 170.758 45.085 168.029 43.1631 165.646C42.2218 164.442 41.3589 163.244 40.4438 162.164L37.7898 159.062C36.1425 157.053 34.4559 155.41 33.0374 153.911C31.6189 152.412 30.3442 151.181 29.2656 150.206L26.7947 147.955C26.5155 147.691 26.2136 147.452 25.8926 147.241Z" fill="#E0E0E0"/>
<path d="M389.3 91.9143C389.3 91.9143 383.063 87.7843 375.461 102.721C367.859 117.657 365.002 126.283 365.002 126.283C365.002 126.283 362.989 129.412 360.845 127.363C358.7 125.315 355.759 119.509 352.111 120.563C348.326 121.643 347.078 125.871 347.797 132.089C348.516 138.307 349.601 151.973 349.699 153.21C349.797 154.447 349.091 156.215 347.411 155.056C345.731 153.898 336.03 143.085 331.18 148C326.33 152.916 331.18 169.894 331.677 171.76C332.174 173.625 331.807 174.424 330.918 174.888C330.029 175.353 327.121 171.406 324.238 168.441C321.355 165.476 317.492 162.55 314.929 165.62C312.367 168.69 311.55 181.433 323.662 202.129L329.899 211.352L341.057 210.73C364.852 207.948 374.513 199.603 375.422 195.728C376.33 191.853 371.663 190.492 367.578 189.988C363.492 189.484 358.583 189.504 358.426 188.522C358.269 187.54 358.674 186.761 360.459 186.035C362.243 185.308 378.71 178.959 379.704 172.126C380.697 165.293 366.244 164.049 364.309 163.401C362.374 162.753 363.374 161.117 364.401 160.463C365.427 159.808 376.991 152.418 382.384 149.257C387.777 146.096 390.391 142.548 388.979 138.87C387.613 135.322 381.214 136.468 378.292 135.983C375.37 135.499 376.651 132.01 376.651 132.01C376.651 132.01 381.75 124.496 389.077 109.442C396.405 94.3884 389.169 91.8423 389.169 91.8423" fill="#EBEBEB"/>
<path d="M382.469 105.279C382.469 105.279 382.43 105.391 382.331 105.6C382.233 105.809 382.083 106.13 381.9 106.536C381.501 107.367 380.926 108.565 380.194 110.11C378.703 113.219 376.527 117.696 373.814 123.2C368.382 134.249 360.74 149.447 352.288 166.202C343.835 182.958 336.148 198.143 330.67 209.165L324.192 222.216C323.427 223.748 322.839 224.946 322.427 225.771C322.224 226.163 322.074 226.464 321.963 226.687L321.793 226.994C321.793 226.994 321.832 226.883 321.93 226.674L322.362 225.738C322.76 224.907 323.336 223.702 324.068 222.158C325.552 219.055 327.735 214.578 330.448 209.067C335.88 198.019 343.522 182.821 351.98 166.058C360.439 149.296 368.107 134.124 373.592 123.109L380.07 110.051L381.835 106.503C382.037 106.111 382.188 105.803 382.299 105.587C382.41 105.371 382.469 105.279 382.469 105.279Z" fill="#E0E0E0"/>
<path d="M355.876 128.829C355.998 129.071 356.092 129.326 356.157 129.588C356.32 130.079 356.53 130.799 356.811 131.689C357.314 133.47 357.948 135.944 358.595 138.693C359.243 141.442 359.798 143.85 360.23 145.729L360.739 147.856C360.824 148.113 360.877 148.379 360.896 148.648C360.775 148.406 360.68 148.152 360.615 147.889C360.452 147.398 360.243 146.678 359.994 145.788C359.51 144.001 358.909 141.514 358.262 138.771C357.615 136.029 357.02 133.62 356.575 131.748C356.366 130.904 356.19 130.197 356.052 129.621C355.963 129.365 355.903 129.099 355.876 128.829Z" fill="#E0E0E0"/>
<path d="M361.896 148.845C361.896 148.753 366.91 147.222 373.16 145.422C379.409 143.622 384.488 142.241 384.514 142.332C384.54 142.424 379.5 143.956 373.251 145.756C367.002 147.556 361.923 148.937 361.896 148.845Z" fill="#E0E0E0"/>
<path d="M347.718 173.992C347.991 173.954 348.266 173.941 348.541 173.953H350.771C352.66 173.953 355.261 173.953 358.131 173.835C361.001 173.717 363.596 173.547 365.479 173.396L367.701 173.22C367.975 173.192 368.251 173.192 368.525 173.22C368.263 173.303 367.994 173.358 367.721 173.383C367.198 173.462 366.413 173.56 365.498 173.665C363.622 173.881 361.027 174.103 358.144 174.208C355.261 174.313 352.653 174.287 350.771 174.208C349.823 174.169 349.064 174.13 348.535 174.09C348.26 174.089 347.985 174.056 347.718 173.992Z" fill="#E0E0E0"/>
<path d="M338.272 157.092C338.442 157.28 338.587 157.489 338.704 157.714L339.782 159.481C340.678 160.973 341.894 163.055 343.221 165.372C344.548 167.689 345.731 169.783 346.574 171.308L347.555 173.128C347.688 173.342 347.794 173.573 347.869 173.815C347.702 173.625 347.557 173.416 347.437 173.193L346.359 171.432C345.463 169.934 344.247 167.852 342.92 165.542C341.593 163.231 340.41 161.137 339.573 159.605C339.188 158.892 338.854 158.296 338.593 157.786C338.458 157.569 338.35 157.335 338.272 157.092Z" fill="#E0E0E0"/>
<path d="M322.97 177.703C323.178 177.954 323.361 178.223 323.519 178.508L324.905 180.76C326.062 182.671 327.644 185.341 329.369 188.267C331.095 191.193 332.638 193.883 333.749 195.82L335.056 198.137C335.23 198.412 335.374 198.704 335.488 199.008C335.282 198.756 335.098 198.486 334.939 198.203L333.553 195.945C332.396 194.033 330.814 191.363 329.088 188.444C327.363 185.525 325.82 182.828 324.709 180.884L323.401 178.574C323.229 178.298 323.085 178.007 322.97 177.703Z" fill="#E0E0E0"/>
<path d="M335.317 198.412C335.661 198.354 336.009 198.33 336.357 198.34L339.187 198.242C341.58 198.164 344.881 198.039 348.515 197.804C352.15 197.568 355.445 197.267 357.824 197.031L360.648 196.756C360.992 196.706 361.34 196.686 361.687 196.697C361.352 196.792 361.008 196.858 360.661 196.894C360.007 196.998 359.04 197.129 357.857 197.28C355.477 197.574 352.189 197.934 348.542 198.144C344.894 198.353 341.586 198.471 339.194 198.491C337.998 198.491 337.03 198.491 336.357 198.491C336.009 198.498 335.661 198.471 335.317 198.412Z" fill="#E0E0E0"/>
<path d="M254.907 16.7686H299.783C300.721 16.7686 301.62 17.1416 302.283 17.8057C302.947 18.4697 303.319 19.3704 303.319 20.3095V50.0838C303.319 51.0229 302.947 51.9236 302.283 52.5876C301.62 53.2517 300.721 53.6248 299.783 53.6248H276.171L264.934 64.876V53.6248H254.907C254.213 53.6248 253.548 53.3489 253.058 52.8579C252.567 52.367 252.292 51.701 252.292 51.0067V19.3932C252.291 19.0488 252.358 18.7077 252.489 18.3893C252.62 18.0709 252.813 17.7815 253.056 17.5377C253.298 17.2939 253.587 17.1004 253.905 16.9685C254.222 16.8365 254.563 16.7686 254.907 16.7686Z" fill="#1FC9AA"/>
<path d="M269.798 35.8222C269.798 36.34 269.645 36.8462 269.357 37.2767C269.07 37.7073 268.662 38.0428 268.184 38.241C267.706 38.4392 267.18 38.491 266.673 38.39C266.166 38.289 265.7 38.0396 265.334 37.6735C264.969 37.3073 264.719 36.8408 264.619 36.333C264.518 35.8251 264.569 35.2987 264.767 34.8203C264.965 34.3419 265.3 33.933 265.73 33.6453C266.16 33.3577 266.666 33.2041 267.183 33.2041C267.877 33.2041 268.542 33.4799 269.032 33.9709C269.522 34.4619 269.798 35.1278 269.798 35.8222Z" fill="#FAFAFA"/>
<path d="M280.237 35.8222C280.237 36.34 280.084 36.8462 279.797 37.2767C279.509 37.7073 279.101 38.0428 278.623 38.241C278.145 38.4392 277.62 38.491 277.112 38.39C276.605 38.289 276.139 38.0396 275.774 37.6735C275.408 37.3073 275.159 36.8408 275.058 36.333C274.957 35.8251 275.009 35.2987 275.207 34.8203C275.405 34.3419 275.74 33.933 276.17 33.6453C276.6 33.3577 277.105 33.2041 277.623 33.2041C278.316 33.2041 278.981 33.4799 279.472 33.9709C279.962 34.4619 280.237 35.1278 280.237 35.8222Z" fill="#FAFAFA"/>
<path d="M290.684 35.8222C290.684 36.34 290.53 36.8462 290.243 37.2767C289.956 37.7073 289.547 38.0428 289.069 38.241C288.592 38.4392 288.066 38.491 287.559 38.39C287.052 38.289 286.586 38.0396 286.22 37.6735C285.854 37.3073 285.605 36.8408 285.504 36.333C285.403 35.8251 285.455 35.2987 285.653 34.8203C285.851 34.3419 286.186 33.933 286.616 33.6453C287.046 33.3577 287.552 33.2041 288.069 33.2041C288.762 33.2041 289.427 33.4799 289.918 33.9709C290.408 34.4619 290.684 35.1278 290.684 35.8222Z" fill="#FAFAFA"/>
<path d="M327.814 241.578C316.583 230.641 316.387 213.721 319.316 199.034C319.8 196.58 319.97 193.935 321.48 191.959C322.99 189.982 325.984 188.948 328.017 190.348C329.71 191.513 330.161 193.778 330.899 195.709C331.886 198.284 333.579 200.528 335.782 202.182C337.221 203.249 339.051 204.067 340.77 203.491C343.084 202.66 343.816 199.76 344.202 197.306C344.912 192.724 345.627 188.143 346.346 183.561C346.732 181.107 347.137 178.593 348.274 176.361C349.412 174.129 351.458 172.271 353.896 171.996C356.334 171.721 359.002 173.54 359.126 176.021C359.172 177.055 358.799 178.063 358.701 179.091C358.603 180.118 358.89 181.329 359.812 181.768C360.734 182.206 361.839 181.683 362.688 181.08C365.623 179.012 367.859 176.099 369.984 173.187C372.108 170.274 374.193 167.296 376.926 164.946C379.658 162.597 383.188 161.019 386.731 161.366C390.274 161.713 393.667 164.521 393.994 168.121C394.321 171.721 391.732 174.908 389.078 177.35C385.148 180.977 380.713 184.015 375.913 186.369C375.05 186.794 374.115 187.253 373.67 188.11C372.873 189.661 374.161 191.54 375.684 192.338C377.416 193.248 379.429 193.379 381.306 193.922C383.182 194.465 385.11 195.637 385.541 197.568C386.136 200.238 383.613 202.529 381.266 203.917C376.574 206.693 371.44 208.64 366.088 209.67C364.179 210.037 362.165 210.324 360.525 211.339C358.884 212.354 357.622 214.435 358.224 216.307C358.825 218.179 360.982 219.102 362.93 219.062C364.878 219.023 366.735 218.264 368.644 217.878C372.226 217.158 376.54 218.1 378.22 221.366C379.331 223.513 379.018 226.203 377.926 228.376C376.834 230.549 375.063 232.271 373.226 233.835C366.794 239.3 359.047 243.28 350.785 244.713C342.522 246.147 335.161 245.708 327.86 241.598" fill="#1FC9AA"/>
<path d="M325.854 252.509C327.656 245.762 330.101 239.204 333.155 232.925C336.917 225.272 341.116 217.841 345.732 210.671L349.328 205.003C350.511 203.144 351.687 201.305 352.949 199.577C355.372 196.258 357.978 193.077 360.754 190.047C363.369 187.135 365.984 184.471 368.442 181.997C370.899 179.523 373.233 177.271 375.449 175.301C378.923 172.176 382.639 169.33 386.562 166.792C387.954 165.896 389.052 165.234 389.83 164.829L390.687 164.331C390.782 164.272 390.883 164.222 390.987 164.181C390.9 164.252 390.808 164.317 390.713 164.377L389.876 164.907C389.144 165.365 388.059 166.053 386.686 166.969C382.804 169.551 379.12 172.419 375.665 175.55C373.468 177.513 371.154 179.798 368.716 182.278C366.278 184.759 363.689 187.429 361.074 190.342C358.314 193.361 355.722 196.529 353.309 199.833C352.06 201.554 350.896 203.387 349.707 205.245C348.517 207.104 347.334 208.996 346.118 210.894C341.515 218.055 337.314 225.467 333.534 233.095C330.475 239.345 328.008 245.869 326.167 252.581" fill="#263238"/>
<path d="M353.086 199.57C353.023 199.212 352.999 198.847 353.014 198.484C353.014 197.783 353.014 196.775 353.014 195.519C353.06 193.019 353.249 189.569 353.471 185.766C353.694 181.964 353.838 178.514 353.851 176.021C353.851 174.77 353.851 173.762 353.851 173.062C353.822 172.7 353.835 172.335 353.89 171.976C353.976 172.329 354.022 172.692 354.027 173.056C354.092 173.749 354.145 174.764 354.177 176.014C354.249 178.514 354.177 181.977 353.936 185.786C353.694 189.595 353.498 192.94 353.341 195.532C353.275 196.703 353.223 197.692 353.184 198.49C353.189 198.853 353.156 199.215 353.086 199.57Z" fill="#263238"/>
<path d="M385.574 198.818C385.137 198.839 384.7 198.819 384.267 198.759C383.443 198.7 382.253 198.608 380.789 198.543C377.847 198.379 373.781 198.307 369.291 198.418C364.8 198.53 360.74 198.818 357.805 199.106C356.341 199.237 355.19 199.381 354.341 199.472C353.909 199.546 353.471 199.579 353.033 199.57C353.442 199.436 353.862 199.342 354.288 199.289C355.099 199.145 356.249 198.955 357.746 198.778C360.681 198.405 364.747 198.071 369.258 197.954C373.101 197.845 376.948 197.932 380.782 198.215C382.253 198.327 383.443 198.464 384.26 198.582C384.705 198.615 385.145 198.693 385.574 198.818Z" fill="#263238"/>
<path d="M333.645 232.408C333.645 232.408 333.573 232.271 333.488 231.989C333.403 231.708 333.279 231.25 333.135 230.759C332.835 229.692 332.436 228.141 331.972 226.177C331.037 222.316 329.919 216.935 328.762 210.986C327.605 205.036 326.54 199.649 325.69 195.768C325.271 193.883 324.925 192.332 324.663 191.186C324.559 190.682 324.467 190.27 324.395 189.936C324.355 189.791 324.333 189.642 324.33 189.491C324.33 189.491 324.402 189.629 324.487 189.91C324.572 190.192 324.696 190.65 324.84 191.141C325.141 192.207 325.539 193.759 326.004 195.722C326.932 199.584 328.056 204.964 329.213 210.92C330.37 216.876 331.436 222.25 332.286 226.131L333.305 230.713C333.416 231.211 333.508 231.629 333.58 231.963C333.617 232.109 333.639 232.258 333.645 232.408Z" fill="#263238"/>
<path d="M377.736 225.725C377.593 225.779 377.444 225.814 377.292 225.83L375.985 226.04L371.258 226.76C367.271 227.375 361.773 228.285 355.7 229.293C349.628 230.3 344.156 231.184 340.136 231.695C338.136 231.963 336.515 232.159 335.39 232.271L334.083 232.395C333.934 232.42 333.781 232.42 333.632 232.395C333.775 232.34 333.924 232.305 334.076 232.29L335.384 232.081L340.103 231.361C344.091 230.746 349.595 229.836 355.668 228.828C361.741 227.82 367.251 226.956 371.258 226.426C373.259 226.157 374.88 225.961 376.004 225.85L377.312 225.725C377.453 225.707 377.595 225.707 377.736 225.725Z" fill="#263238"/>
<path d="M26.2135 189.95C29.75 189.001 33.6199 189.897 36.7314 191.822C39.7988 193.862 42.3572 196.581 44.2097 199.767C47.9684 205.783 49.2562 213.84 49.3804 220.935C41.5361 220.568 34.8423 214.344 31.6522 210.973C26.6123 205.645 20.7225 192.954 26.2135 189.976" fill="#1FC9AA"/>
<path d="M62.0028 225.713C58.7866 223.186 57.3681 218.735 58.0807 214.704C58.4878 212.691 59.2911 210.78 60.4437 209.082C61.5964 207.384 63.0753 205.933 64.7941 204.814C66.3564 203.747 68.2979 202.909 70.1086 203.459C70.9439 203.767 71.6813 204.294 72.2436 204.984C72.8059 205.675 73.1726 206.505 73.3052 207.386C73.5546 209.159 73.329 210.966 72.6515 212.622C70.6316 218.349 67.6311 223.52 62.0028 225.765" fill="#1FC9AA"/>
<path d="M69.1417 248.155C68.8224 247.771 68.5583 247.344 68.3573 246.886C67.9063 246.048 67.2656 244.817 66.527 243.279C64.5167 239.272 63.0525 235.012 62.1734 230.614C61.2451 225.378 61.925 220.495 63.2324 217.295C63.7162 216.017 64.3621 214.807 65.1542 213.695C65.4185 213.269 65.7471 212.887 66.1282 212.562C66.2655 212.648 64.8666 214.297 63.7553 217.491C62.4056 221.684 62.1291 226.149 62.9513 230.477C63.8322 234.807 65.2029 239.024 67.0369 243.044C68.39 246.172 69.2463 248.103 69.1417 248.155Z" fill="#263238"/>
<path d="M31.5479 199.217C32.1678 199.754 32.7388 200.345 33.254 200.984C34.313 202.156 35.8165 203.877 37.6533 206.024C41.3206 210.311 46.2952 216.326 51.6228 223.1C56.9503 229.875 61.6242 236.125 64.9319 240.707C66.5858 242.998 67.9062 244.863 68.7952 246.172C69.2895 246.823 69.7269 247.515 70.1026 248.241C69.5319 247.653 69.0094 247.021 68.5403 246.349L64.4743 241.041C61.0555 236.551 56.3163 230.359 50.9952 223.591C45.6741 216.823 40.7715 210.763 37.2154 206.384L32.999 201.18C32.4627 200.567 31.9773 199.91 31.5479 199.217Z" fill="#263238"/>
<path d="M56.6954 234.456C53.2945 231.781 49.3058 229.956 45.0599 229.132C40.8139 228.308 36.433 228.509 32.28 229.718C30.1817 230.372 27.848 231.635 27.6388 233.822C27.4296 236.008 29.4757 237.749 31.4498 238.711C35.5983 240.682 40.2367 241.38 44.7806 240.716C49.3244 240.052 53.5703 238.056 56.9831 234.98" fill="#1FC9AA"/>
<path d="M37.5029 233.724C37.9361 233.521 38.3963 233.382 38.8691 233.311C39.4107 233.173 39.9611 233.073 40.5165 233.01C41.2459 232.892 41.9814 232.816 42.7194 232.781C44.6471 232.671 46.581 232.756 48.4915 233.036C53.1928 233.723 57.6694 235.498 61.5653 238.22C63.1479 239.327 64.6152 240.59 65.9451 241.99C66.4646 242.519 66.9515 243.078 67.4028 243.666C67.766 244.091 68.098 244.541 68.3964 245.014C68.6916 245.388 68.9315 245.802 69.109 246.245C68.9848 246.336 67.8604 244.641 65.5463 242.383C64.1897 241.069 62.7197 239.877 61.1535 238.822C59.2202 237.554 57.1689 236.475 55.0284 235.602C52.8738 234.771 50.6427 234.155 48.3673 233.763C46.503 233.455 44.6151 233.315 42.7259 233.344C39.5359 233.409 37.5356 233.874 37.5029 233.724Z" fill="#263238"/>
<path d="M145.035 21.1936L139.55 25.7753L136.883 24.584L136.334 22.3194C136.334 22.3194 142.218 17.9668 142.002 17.7377C141.452 17.2092 140.741 16.8817 139.982 16.8083C138.568 16.6255 137.14 17.0089 136.007 17.8752L134.975 18.6541C134.028 19.3502 133.292 20.2957 132.85 21.3854C132.408 22.4751 132.277 23.6662 132.471 24.8262C132.481 24.8945 132.494 24.9622 132.51 25.0291L116.253 38.5581C115.157 38.1939 113.972 38.2031 112.882 38.5842C111.792 38.9653 110.858 39.6969 110.227 40.6649C109.596 41.6328 109.302 42.7828 109.392 43.9353C109.482 45.0879 109.95 46.1783 110.724 47.0364C111.497 47.8945 112.533 48.4722 113.669 48.6792C114.805 48.8863 115.977 48.7111 117.003 48.1811C118.029 47.651 118.851 46.7958 119.341 45.7489C119.831 44.702 119.961 43.5223 119.711 42.3936L135.785 28.8843C136.424 29.441 137.246 29.7397 138.093 29.7221C138.901 29.7374 139.704 29.5888 140.453 29.2851C141.203 28.9814 141.883 28.5289 142.453 27.9548L143.813 26.6458C144.487 25.9312 144.957 25.0475 145.172 24.088C145.387 23.1284 145.34 22.1285 145.035 21.1936ZM113.658 45.7186C113.224 45.5253 112.857 45.2075 112.604 44.8054C112.351 44.4033 112.222 43.9349 112.235 43.4596C112.248 42.9844 112.401 42.5236 112.675 42.1356C112.95 41.7476 113.333 41.4499 113.776 41.2802C114.22 41.1104 114.704 41.0763 115.167 41.182C115.63 41.2878 116.051 41.5288 116.377 41.8744C116.703 42.22 116.919 42.6547 116.998 43.1235C117.078 43.5923 117.016 44.074 116.822 44.5077C116.693 44.7981 116.508 45.0601 116.278 45.2785C116.047 45.4968 115.776 45.6673 115.479 45.7799C115.182 45.8925 114.866 45.9451 114.549 45.9345C114.232 45.924 113.92 45.8506 113.632 45.7186H113.658Z" fill="#176CFF"/>
<path d="M169.62 52.4147L152.114 53.8808L152.173 53.8481C149.187 57.4266 145.468 60.3215 141.268 62.3371C137.069 64.3527 132.486 65.442 127.829 65.5313C123.972 65.5845 120.134 64.9757 116.481 63.7314C112.531 62.3764 108.882 60.267 105.735 57.5199C102.291 54.5265 99.5108 50.8447 97.5733 46.7111C95.6358 42.5775 94.5836 38.0837 94.4845 33.5186C94.4388 32.9217 94.4388 32.3221 94.4845 31.7252C94.4845 31.1296 94.5499 30.5274 94.576 29.9252C94.6132 29.3231 94.6896 28.724 94.8048 28.1318L95.099 26.3188C95.2232 25.7232 95.3931 25.1341 95.5369 24.5451C95.6808 23.956 95.818 23.3473 96.0207 22.7713C96.2233 22.1953 96.439 21.6193 96.6744 21.0434L96.9881 20.1728C97.0927 19.8849 97.2496 19.61 97.3738 19.3285C99.3255 15.0373 102.167 11.2109 105.708 8.10343C109.025 5.17085 112.906 2.95083 117.114 1.5807C121.321 0.210581 125.765 -0.280486 130.17 0.137883C135.816 0.663239 141.229 2.64771 145.879 5.89698C150.529 9.14626 154.256 13.549 156.696 18.674C157.072 19.3917 157.395 20.1354 157.664 20.8994C157.932 21.6521 158.213 22.3851 158.461 23.1247C158.884 24.5682 159.214 26.0374 159.448 27.5231C159.546 28.2431 159.684 28.9435 159.743 29.6438C159.801 30.3441 159.808 31.0379 159.841 31.7121C159.841 32.0524 159.841 32.3666 159.893 32.7201C159.945 33.0735 159.86 33.3746 159.847 33.7084C159.847 34.3629 159.788 35.0174 159.756 35.6196V35.5607C165.959 46.1116 169.3 51.7863 169.659 52.4081L159.592 35.6654C159.618 35.0458 159.645 34.4109 159.671 33.7607C159.671 33.4335 159.703 33.1062 159.71 32.779C159.716 32.4517 159.677 32.1244 159.658 31.7775C159.625 31.123 159.586 30.4227 159.553 29.7223C159.52 29.022 159.344 28.3348 159.246 27.6148C159.011 26.1419 158.681 24.6859 158.259 23.2556C158.01 22.5226 157.729 21.7961 157.455 21.0499C157.186 20.2931 156.865 19.556 156.494 18.8442C154.351 14.3148 151.188 10.3452 147.253 7.24788C143.319 4.15054 138.719 2.01003 133.818 0.994863C128.916 -0.0203043 123.847 0.117589 119.007 1.39769C114.168 2.67778 109.692 5.06513 105.931 8.37179C102.43 11.4557 99.6227 15.2481 97.6941 19.4987C97.5634 19.7801 97.413 20.0419 97.3085 20.3299L96.9947 21.1939L96.341 22.9022C96.1383 23.4782 96.0272 24.0738 95.8638 24.6563C95.7004 25.2389 95.55 25.8214 95.4258 26.4104C95.3016 26.9995 95.2493 27.6017 95.1578 28.1908C95.048 28.7792 94.9738 29.3737 94.9355 29.9711C94.9029 30.5667 94.8702 31.1557 94.844 31.7514C94.8016 32.3419 94.8016 32.9346 94.844 33.5251C94.9926 40.1461 97.1583 46.5635 101.051 51.9177C104.944 57.2718 110.378 61.307 116.625 63.4827C120.244 64.7176 124.046 65.3263 127.869 65.2826C132.488 65.2017 137.036 64.1319 141.208 62.1449C145.379 60.158 149.078 57.3 152.055 53.763H152.088L169.62 52.4147Z" fill="#263238"/>
<path d="M322.068 79.001H74.3905C69.1304 79.001 64.8662 83.2706 64.8662 88.5374V246.075C64.8662 251.341 69.1304 255.611 74.3905 255.611H322.068C327.328 255.611 331.592 251.341 331.592 246.075V88.5374C331.592 83.2706 327.328 79.001 322.068 79.001Z" fill="#2C374A"/>
<path d="M54.0866 242.547H343.058V246.35C343.058 249.44 341.832 252.403 339.65 254.588C337.468 256.773 334.508 258 331.422 258H65.7158C62.6298 258 59.6702 256.773 57.4881 254.588C55.306 252.403 54.0801 249.44 54.0801 246.35V242.547H54.0866Z" fill="#2C374A"/>
<path d="M324.055 86.0244H72.3965V235.164H324.055V86.0244Z" fill="#F5F5F5"/>
<path d="M172.307 242.547H173.431H176.699L188.891 242.494L229.662 242.409H229.962L229.812 242.671C229.302 243.548 228.746 244.491 228.197 245.446C227.648 246.402 227.034 247.41 226.485 248.378L226.432 248.464H226.334L175.876 248.372H175.83V248.333L173.215 244.032L172.562 242.939L172.346 242.579L172.601 242.959C172.764 243.221 173 243.581 173.307 244.052C173.921 245.014 174.83 246.421 176 248.254L175.935 248.215L226.393 248.123L226.243 248.208L227.955 245.269C228.511 244.32 229.06 243.371 229.577 242.494L229.72 242.756L189.12 242.664L176.811 242.586H173.47H172.601L172.307 242.547Z" fill="#263238"/>
<path fill-rule="evenodd" clip-rule="evenodd" d="M164.489 113.763C164.946 113.149 165.485 112.601 166.09 112.133L165.711 110.045L168.934 108.664L170.176 110.386C170.933 110.284 171.7 110.284 172.457 110.386L173.66 108.645L176.928 109.954L176.595 112.048C177.205 112.509 177.752 113.048 178.223 113.652L180.308 113.272L181.687 116.499L179.968 117.742C180.069 118.5 180.069 119.269 179.968 120.027L181.707 121.238L180.399 124.51L178.314 124.176C177.854 124.789 177.315 125.339 176.713 125.813L177.092 127.894L173.869 129.275L172.627 127.554C171.868 127.655 171.098 127.655 170.339 127.554L169.136 129.301L165.868 127.992L166.201 125.898C165.588 125.438 165.038 124.899 164.567 124.294L162.488 124.674L161.122 121.421L162.841 120.177C162.737 119.419 162.737 118.651 162.841 117.893L161.122 116.682L162.429 113.409L164.521 113.743L164.489 113.763ZM167.979 117.389C167.698 118.078 167.627 118.834 167.775 119.563C167.923 120.293 168.283 120.961 168.81 121.485C169.338 122.01 170.009 122.365 170.738 122.508C171.467 122.65 172.222 122.573 172.908 122.286C173.594 121.999 174.179 121.515 174.59 120.895C175.001 120.275 175.219 119.548 175.217 118.804C175.215 118.059 174.992 117.333 174.578 116.715C174.164 116.098 173.576 115.617 172.889 115.334C172.431 115.145 171.942 115.049 171.448 115.051C170.953 115.052 170.464 115.151 170.008 115.342C169.552 115.533 169.138 115.812 168.79 116.163C168.442 116.514 168.166 116.931 167.979 117.389Z" fill="#E0E0E0"/>
<path fill-rule="evenodd" clip-rule="evenodd" d="M151.422 181.441C152.752 179.664 154.31 178.071 156.056 176.702L154.952 170.654L164.293 166.668L167.895 171.649C170.089 171.328 172.316 171.302 174.517 171.57L178.001 166.518L187.427 170.314L186.453 176.375C188.229 177.705 189.82 179.265 191.186 181.015L197.226 179.916L201.207 189.295L196.232 192.895C196.554 195.092 196.578 197.322 196.304 199.525L201.357 203.02L197.566 212.452L191.513 211.477C190.184 213.255 188.626 214.848 186.878 216.216L187.983 222.263L178.635 226.256L175.04 221.275C172.845 221.594 170.618 221.618 168.418 221.347L164.934 226.4L155.507 222.61L156.481 216.543C154.704 215.214 153.112 213.654 151.749 211.902L145.708 213.008L141.721 203.655L146.696 200.049C146.377 197.854 146.353 195.626 146.624 193.425L141.577 189.95L145.362 180.511L151.422 181.487V181.441ZM161.528 191.952C160.724 193.955 160.531 196.151 160.973 198.263C161.416 200.375 162.474 202.308 164.014 203.818C165.554 205.328 167.507 206.347 169.625 206.746C171.743 207.144 173.932 206.905 175.915 206.058C177.897 205.211 179.584 203.795 180.763 201.988C181.941 200.181 182.558 198.064 182.535 195.906C182.512 193.748 181.85 191.646 180.633 189.864C179.417 188.083 177.7 186.702 175.7 185.898C174.371 185.364 172.951 185.098 171.52 185.114C170.089 185.13 168.675 185.429 167.359 185.992C166.043 186.556 164.85 187.373 163.85 188.398C162.849 189.423 162.06 190.635 161.528 191.965V191.952Z" fill="#F5F5F5"/>
<path d="M109.807 199.865C109.952 199.396 110.173 198.954 110.461 198.556C111.247 197.42 112.402 196.592 113.729 196.213C114.72 195.925 115.768 195.894 116.775 196.123C117.781 196.352 118.712 196.834 119.482 197.522C119.933 197.914 120.321 198.373 120.632 198.884C120.962 199.411 121.207 199.988 121.358 200.592C121.693 201.87 121.608 203.222 121.116 204.448C120.624 205.674 119.751 206.709 118.626 207.399C117.587 208.048 116.378 208.369 115.154 208.322C114.048 208.282 112.972 207.943 112.043 207.34C111.06 206.702 110.282 205.794 109.801 204.725C109.32 203.657 109.157 202.471 109.33 201.312C109.398 200.816 109.546 200.334 109.768 199.885C109.641 200.362 109.538 200.844 109.461 201.332C109.307 202.666 109.602 204.013 110.297 205.161C110.806 206.003 111.518 206.705 112.368 207.201C113.217 207.697 114.178 207.973 115.161 208.001C116.314 208.034 117.452 207.725 118.429 207.111C119.496 206.46 120.326 205.484 120.796 204.326C121.267 203.167 121.354 201.889 121.044 200.677C120.762 199.545 120.15 198.522 119.286 197.738C118.503 197.037 117.549 196.553 116.521 196.338C115.622 196.154 114.693 196.183 113.808 196.423C112.505 196.764 111.354 197.534 110.539 198.609C110.023 199.375 109.846 199.885 109.807 199.865Z" fill="#263238"/>
<path d="M104.251 194.053H104.042L103.388 193.968L100.878 193.595L100.937 193.556L98.871 198.792L98.8383 198.687L101.643 200.605L101.688 200.644V200.703C101.546 201.913 101.564 203.137 101.741 204.342V204.408L101.682 204.454L98.9364 206.45L98.9756 206.306L101.198 211.47L101.048 211.392L104.388 210.776H104.473L104.525 210.848C105.28 211.806 106.159 212.658 107.14 213.381L107.219 213.434V213.525C107.055 214.566 106.872 215.712 106.689 216.883L106.591 216.713L111.821 218.807L111.631 218.866L113.559 216.065L113.612 215.986H113.71C114.914 216.131 116.131 216.116 117.331 215.941H117.429L117.488 216.019L119.482 218.775L119.279 218.722L124.443 216.51L124.345 216.7C124.149 215.64 123.947 214.501 123.737 213.355V213.251L123.816 213.185C124.771 212.44 125.622 211.571 126.346 210.6L126.411 210.515H126.516L129.869 211.058L129.68 211.163C130.386 209.417 131.085 207.672 131.778 205.926L131.837 206.129L129.045 204.166L128.96 204.107V204.009C129.107 202.804 129.094 201.584 128.921 200.383V200.284L129.006 200.226L131.758 198.262L131.699 198.458L129.503 193.281L129.68 193.379L126.333 193.981H126.241L126.182 193.903C125.427 192.944 124.548 192.09 123.567 191.363L123.496 191.311V191.219C123.685 190.067 123.862 188.955 124.038 187.862L124.13 188.019L118.9 185.911L119.057 185.865L117.096 188.654L117.05 188.719H116.978C115.772 188.558 114.55 188.558 113.344 188.719H113.278L113.239 188.667C112.52 187.665 111.866 186.762 111.278 185.905L111.396 185.937L106.212 188.156L106.258 188.071C106.493 189.38 106.689 190.506 106.846 191.422V191.455C106.12 192.02 105.449 192.651 104.839 193.34L104.401 193.864L104.251 194.034C104.287 193.967 104.328 193.904 104.375 193.844C104.467 193.72 104.604 193.536 104.793 193.301C105.38 192.592 106.037 191.945 106.755 191.37V191.422C106.578 190.512 106.375 189.413 106.101 188.078V188.019H106.16L111.317 185.787H111.396L111.441 185.852L113.442 188.601L113.331 188.555C114.554 188.373 115.796 188.356 117.024 188.503L116.913 188.555C117.521 187.665 118.155 186.736 118.835 185.754L118.894 185.669L118.992 185.708L124.221 187.796L124.332 187.835V187.947C124.156 189.04 123.979 190.152 123.796 191.304L123.737 191.16C124.733 191.913 125.626 192.793 126.391 193.778L126.241 193.726L129.581 193.111H129.706L129.758 193.229C130.468 194.913 131.205 196.637 131.967 198.399L132.02 198.524L131.909 198.602L129.163 200.566L129.228 200.409C129.408 201.638 129.422 202.887 129.268 204.12L129.196 203.963L131.994 205.894L132.105 205.972L132.052 206.097L129.961 211.333L129.908 211.457H129.771L126.418 210.92L126.588 210.848C125.835 211.843 124.956 212.734 123.973 213.499L124.032 213.329C124.241 214.481 124.45 215.62 124.646 216.674V216.811L124.515 216.785L119.345 218.991L119.22 219.043L119.142 218.938L117.181 216.176L117.338 216.248C116.109 216.422 114.863 216.433 113.631 216.281L113.788 216.216L111.827 219.01L111.755 219.115L111.638 219.069L106.408 216.962L106.29 216.916V216.792C106.48 215.626 106.67 214.481 106.833 213.44L106.892 213.584C105.909 212.831 105.029 211.951 104.277 210.966L104.414 211.019L101.074 211.621H100.969L100.924 211.523C100.152 209.703 99.4223 207.975 98.7337 206.339L98.6945 206.254L98.7729 206.195L101.532 204.231L101.486 204.342C101.312 203.117 101.301 201.873 101.453 200.644L101.499 200.743L98.7141 198.779L98.6553 198.74V198.674C99.5247 196.554 100.237 194.8 100.78 193.438V193.399H100.819L103.303 193.824L103.957 193.942L104.251 194.053Z" fill="#263238"/>
<path fill-rule="evenodd" clip-rule="evenodd" d="M91.4515 124.982C92.5057 122.109 93.9391 119.39 95.7135 116.898L91.8829 109.338L102.662 100.385L109.376 105.555C112.149 104.267 115.081 103.358 118.096 102.852L120.711 94.7949L134.654 96.104L135.752 104.508C138.626 105.568 141.345 107.008 143.838 108.789L151.389 104.953L160.325 115.746L155.167 122.462C156.443 125.236 157.347 128.168 157.854 131.18L165.894 133.798L164.587 147.759L156.193 148.852C155.154 151.728 153.733 154.451 151.97 156.948L155.801 164.508L145.022 173.462L138.308 168.298C135.53 169.576 132.592 170.474 129.575 170.968L126.96 179.026L113.017 177.716L111.919 169.319C109.047 168.271 106.328 166.845 103.832 165.078L96.2888 168.913L87.3463 158.12L92.4843 151.405C91.2028 148.626 90.295 145.69 89.7845 142.673L81.7441 140.055L83.0515 126.094L91.4384 124.995L91.4515 124.982ZM108.938 134.891C108.659 137.857 109.266 140.839 110.68 143.459C112.095 146.08 114.254 148.221 116.885 149.612C119.516 151.003 122.5 151.582 125.459 151.274C128.418 150.967 131.22 149.787 133.509 147.885C135.798 145.982 137.472 143.442 138.319 140.587C139.166 137.731 139.148 134.688 138.267 131.843C137.386 128.997 135.682 126.478 133.37 124.603C131.058 122.728 128.243 121.582 125.28 121.31C121.315 120.945 117.368 122.171 114.304 124.717C111.241 127.263 109.311 130.922 108.938 134.891Z" fill="#E0E0E0"/>
<path d="M331.592 242.547C331.592 242.638 271.877 242.71 198.239 242.71C124.601 242.71 64.8857 242.638 64.8857 242.547C64.8857 242.455 124.587 242.39 198.239 242.39C271.89 242.39 331.592 242.462 331.592 242.547Z" fill="#263238"/>
<path d="M188.133 41.8887C184.021 43.6952 181.629 48.1394 180.733 52.5443C179.838 56.9493 180.125 61.5047 179.74 65.9882C179.354 70.4717 178.125 75.1516 174.857 78.2344C171.81 81.1143 167.333 82.2859 164.737 85.5781C163.769 86.8039 163.128 88.2557 162.873 89.7975C162.619 91.3393 162.76 92.9206 163.282 94.3931C163.805 95.8656 164.692 97.1811 165.862 98.2162C167.031 99.2514 168.443 99.9723 169.967 100.311C167.914 103.584 168.941 108.1 171.568 110.915C174.196 113.729 178.047 115.064 181.845 115.64C188.525 116.661 195.651 115.536 201.292 111.811C206.933 108.087 210.882 101.62 210.868 94.8592" fill="black"/>
<path d="M170.32 108.375C170.005 107.931 169.76 107.441 169.595 106.922C169.134 105.496 169.044 103.975 169.333 102.504C169.524 101.489 169.84 100.502 170.274 99.5652C170.798 98.5066 171.431 97.5062 172.164 96.5805C173.907 94.5365 175.797 92.6224 177.818 90.8535C179.78 89.0388 181.617 87.0926 183.316 85.0282C184.706 83.3457 185.888 81.502 186.839 79.5368C187.471 78.2105 187.949 76.816 188.264 75.3805C188.388 74.8766 188.421 74.4707 188.48 74.2024C188.494 74.0618 188.524 73.9233 188.571 73.79C188.586 73.9293 188.586 74.0697 188.571 74.2089C188.532 74.4838 188.519 74.8962 188.414 75.4067C188.145 76.8673 187.693 78.288 187.068 79.6349C186.141 81.6325 184.969 83.5059 183.577 85.2115C181.884 87.3053 180.042 89.274 178.066 91.1022C176.055 92.8608 174.17 94.7593 172.425 96.7834C171.695 97.6829 171.066 98.6596 170.549 99.6961C170.108 100.605 169.786 101.566 169.588 102.556C169.281 103.994 169.335 105.485 169.745 106.896C169.907 107.4 170.1 107.894 170.32 108.375Z" fill="#455A64"/>
<path d="M237.304 56.6748C237.304 62.7226 240.089 68.2664 242.592 70.3085C246.142 73.1884 251.345 74.5826 254.77 75.5447C259.765 76.9389 263.922 81.3176 264.576 86.4753C265.23 91.6329 261.83 97.1374 256.81 98.4334C259.967 101.66 259.026 107.211 256.431 110.869C251.509 117.866 241.684 120.556 233.552 117.964C225.42 115.372 219.17 108.147 216.726 99.9453" fill="black"/>
<path d="M249.724 116.249C250.415 116.1 251.068 115.813 251.646 115.405C252.312 114.917 252.862 114.287 253.254 113.559C253.787 112.605 254.083 111.537 254.117 110.444C254.11 109.121 253.761 107.822 253.104 106.674C252.348 105.351 251.353 104.181 250.169 103.224C247.691 101.136 244.325 99.834 241.069 97.9882C239.465 97.0849 238.01 95.9391 236.755 94.5912C236.159 93.9408 235.651 93.2146 235.245 92.4313C234.859 91.6799 234.573 90.8811 234.395 90.0554C234.104 88.5287 234.034 86.9681 234.186 85.4214C234.297 83.9749 234.48 82.6462 234.604 81.4222C234.886 79.5101 234.856 77.5646 234.513 75.6624C234.428 75.3352 234.349 75.0472 234.277 74.7854C234.206 74.5235 234.101 74.3337 234.042 74.1636C233.969 73.995 233.906 73.8223 233.853 73.6465C233.952 73.8013 234.035 73.9658 234.101 74.1374C234.173 74.3076 234.284 74.5039 234.369 74.7526L234.637 75.6362C235.034 77.5481 235.1 79.514 234.833 81.4484C234.722 82.6724 234.552 84.0076 234.454 85.441C234.314 86.9716 234.393 88.5145 234.689 90.0227C235.049 91.6649 235.844 93.1798 236.99 94.408C238.226 95.7295 239.656 96.8531 241.233 97.7395C244.455 99.5918 247.842 100.914 250.384 103.054C251.592 104.039 252.603 105.242 253.365 106.602C254.041 107.799 254.388 109.154 254.372 110.529C254.328 111.657 254.007 112.756 253.437 113.729C253.018 114.467 252.439 115.102 251.744 115.588C251.302 115.885 250.814 116.107 250.299 116.243C250.108 116.264 249.916 116.266 249.724 116.249Z" fill="#455A64"/>
<path d="M261.491 96.0704C261.852 95.58 262.065 94.9962 262.105 94.3882C262.127 93.6783 261.965 92.9748 261.634 92.3461C261.216 91.5072 260.576 90.7987 259.784 90.2975C258.787 89.74 257.694 89.3738 256.562 89.2175C255.346 89.0015 254.019 88.923 252.64 88.707C249.612 88.2225 246.727 87.081 244.187 85.3624C241.641 83.6467 239.506 81.3867 237.938 78.7451C236.675 76.5863 235.807 74.2191 235.375 71.7548C235.075 70.0994 234.985 68.4126 235.107 66.7346C235.137 66.2806 235.189 65.8284 235.264 65.3797C235.276 65.2217 235.307 65.0657 235.356 64.915C235.389 64.915 235.277 65.5696 235.232 66.7477C235.056 70.9 236.085 75.0145 238.193 78.5946C239.753 81.1845 241.859 83.4025 244.364 85.094C246.869 86.7824 249.707 87.9139 252.685 88.4124C254.058 88.635 255.392 88.7266 256.607 88.9491C257.761 89.1205 258.871 89.514 259.876 90.1076C260.698 90.6348 261.355 91.3834 261.772 92.2676C262.101 92.9258 262.25 93.66 262.203 94.3948C262.164 94.8591 262.017 95.3077 261.772 95.7038C261.687 95.8282 261.602 95.9198 261.549 95.9853L261.491 96.0704Z" fill="#455A64"/>
<path d="M191.069 127.579C191.931 118.54 192.67 109.011 192.67 109.011C192.67 109.011 181.237 105.934 180.315 90.5072C179.446 75.8001 185.113 42.5896 185.113 42.5896C202.521 37.4058 221.897 43.8986 232.506 58.4879L224.309 131.795C223.361 140.303 215.294 146.26 206.202 145.166C197.024 144.06 190.251 136.193 191.069 127.579Z" fill="#FFBF9D"/>
<path d="M186.852 69.1369C186.8 69.6429 186.946 70.1496 187.259 70.55C187.573 70.9505 188.029 71.2135 188.532 71.2837C188.778 71.3286 189.03 71.3236 189.273 71.2691C189.517 71.2146 189.747 71.1116 189.95 70.9663C190.153 70.821 190.325 70.6363 190.455 70.4233C190.586 70.2102 190.672 69.9731 190.709 69.726C190.761 69.2199 190.615 68.7133 190.302 68.3129C189.989 67.9124 189.532 67.6494 189.029 67.5791C188.784 67.5343 188.531 67.5393 188.288 67.5938C188.044 67.6483 187.814 67.7513 187.611 67.8966C187.408 68.0419 187.236 68.2266 187.106 68.4396C186.976 68.6527 186.889 68.8898 186.852 69.1369Z" fill="#263238"/>
<path d="M183.91 66.6433C184.126 66.9247 185.708 65.9888 187.799 66.1851C189.891 66.3815 191.323 67.5989 191.578 67.3633C191.702 67.2585 191.499 66.7807 190.878 66.2244C190.034 65.5061 188.988 65.0671 187.884 64.9677C186.8 64.8545 185.708 65.0833 184.76 65.6222C184.067 66.0804 183.805 66.5189 183.91 66.6433Z" fill="#263238"/>
<path d="M208.241 71.6174C208.189 72.1245 208.335 72.6319 208.65 73.0326C208.965 73.4332 209.423 73.6956 209.927 73.7643C210.173 73.8091 210.425 73.8041 210.668 73.7496C210.912 73.6951 211.142 73.5921 211.345 73.4468C211.548 73.3015 211.72 73.1169 211.85 72.9038C211.981 72.6907 212.067 72.4536 212.104 72.2065C212.156 71.7005 212.01 71.1938 211.697 70.7934C211.384 70.3929 210.927 70.1299 210.424 70.0597C210.178 70.0148 209.926 70.0197 209.682 70.0742C209.438 70.1286 209.207 70.2315 209.004 70.3767C208.8 70.522 208.628 70.7066 208.497 70.9197C208.366 71.1328 208.279 71.3701 208.241 71.6174Z" fill="#263238"/>
<path d="M205.678 69.5554C205.894 69.8368 207.476 68.9009 209.568 69.1038C211.66 69.3067 213.091 70.511 213.346 70.2754C213.464 70.1772 213.268 69.6929 212.647 69.1365C211.802 68.4193 210.756 67.9805 209.653 67.8798C208.569 67.7666 207.476 67.9954 206.528 68.5343C205.835 68.9925 205.574 69.431 205.678 69.5554Z" fill="#263238"/>
<path d="M196.552 84.3546C196.552 84.2368 195.297 83.8834 193.212 83.4056C192.682 83.2943 192.192 83.1372 192.133 82.7511C192.146 82.1937 192.326 81.6531 192.65 81.1998L194.611 77.2727C197.376 71.6896 199.435 67.0752 199.187 66.964C198.938 66.8527 196.539 71.2969 193.774 76.88C193.12 78.261 192.467 79.5701 191.852 80.8071C191.456 81.4192 191.285 82.1506 191.369 82.8754C191.425 83.0736 191.527 83.2558 191.666 83.407C191.806 83.5583 191.98 83.6744 192.173 83.7459C192.461 83.8561 192.762 83.9287 193.068 83.9619C195.219 84.335 196.533 84.4725 196.552 84.3546Z" fill="#263238"/>
<path d="M192.67 109.01C199.801 109.826 207.019 108.641 213.516 105.587C213.516 105.587 207.535 115.536 192.5 112.616L192.67 109.01Z" fill="#EBAA87"/>
<path d="M196.945 89.493C197.392 89.0301 197.95 88.6887 198.565 88.5009C199.18 88.3131 199.833 88.2851 200.462 88.4196C200.919 88.5088 201.355 88.6884 201.742 88.948C202.129 89.2077 202.461 89.542 202.717 89.9315C202.963 90.3083 203.087 90.7519 203.072 91.2017C203.057 91.6515 202.903 92.0857 202.632 92.4449C202.261 92.7904 201.794 93.0158 201.292 93.0917C200.791 93.1676 200.278 93.0905 199.821 92.8703C198.867 92.4245 198.012 91.7925 197.305 91.0115C197.088 90.8279 196.906 90.6061 196.769 90.357C196.703 90.2341 196.675 90.0943 196.689 89.9555C196.703 89.8168 196.758 89.6853 196.847 89.5781" fill="#DE0909"/>
<path d="M202.573 86.4101C202.233 86.3577 202.004 88.6289 199.899 90.0558C197.794 91.4826 195.402 90.9917 195.356 91.3059C195.31 91.4434 195.853 91.8033 196.873 91.9604C198.201 92.1111 199.539 91.7865 200.651 91.0441C201.722 90.3339 202.473 89.232 202.743 87.9744C202.959 86.9991 202.73 86.4101 202.573 86.4101Z" fill="#263238"/>
<path d="M225.289 74.6934C226.948 74.5053 228.626 74.7793 230.14 75.4854C230.894 75.8402 231.572 76.3409 232.133 76.9587C232.694 77.5765 233.127 78.2992 233.408 79.0853C233.886 80.7002 233.732 82.4368 232.977 83.9418C232.218 85.4331 231.137 86.7366 229.813 87.7577C228.913 88.5523 227.837 89.122 226.675 89.4202C226.093 89.5655 225.484 89.5632 224.903 89.4135C224.322 89.2637 223.787 88.9714 223.348 88.5628" fill="#EBAA87"/>
<path d="M225.217 84.6289C225.028 84.6682 225.636 85.722 227.178 85.4667C227.992 85.2677 228.696 84.758 229.139 84.0464C229.666 83.2526 230.033 82.3632 230.218 81.4283C230.429 80.4357 230.286 79.4002 229.813 78.5026C229.61 78.1221 229.324 77.7921 228.977 77.5372C228.63 77.2822 228.229 77.1089 227.806 77.0299C226.283 76.8467 225.701 77.8612 225.845 77.907C225.989 77.9528 226.603 77.5536 227.577 77.907C228.551 78.2604 229.329 79.5891 228.963 81.1796C228.597 82.7701 227.825 84.2951 226.897 84.5897C225.969 84.8842 225.335 84.5046 225.217 84.6289Z" fill="#AA6550"/>
<path d="M192.447 49.0822C191.304 51.6822 189.582 53.9856 187.412 55.8156C185.242 57.6457 182.682 58.9538 179.929 59.6397C179.609 55.8893 179.387 52.093 180.001 48.3753C180.615 44.6577 182.119 40.9989 184.825 38.3873C187.532 35.7758 191.539 34.3686 195.173 35.3372" fill="black"/>
<path d="M193.493 42.1967C192.546 44.5852 192.23 47.1781 192.576 49.7248C192.922 52.2714 193.918 54.6855 195.469 56.7336C197.019 58.7818 199.072 60.3946 201.427 61.4163C203.782 62.4379 206.361 62.8337 208.914 62.5654C209.907 62.4607 210.953 62.2643 211.882 62.6243C212.81 62.9843 213.535 63.9334 214.13 64.8366C216.549 68.4561 219.105 72.2196 222.916 74.3141C226.727 76.4086 232.179 76.1991 234.728 72.6713C235.964 70.9564 236.33 68.7768 236.617 66.6824C237.585 59.6332 237.984 52.0603 234.624 45.79C232.133 41.1232 227.753 37.6608 222.909 35.5598C218.066 33.4588 212.758 32.621 207.482 32.2872C204.423 32.0974 201.253 32.0908 198.409 33.2559C195.565 34.4209 193.114 36.9997 192.951 40.0695" fill="black"/>
<path d="M235.944 68.6722C235.871 68.5044 235.81 68.3316 235.761 68.1552C235.656 67.8148 235.48 67.3108 235.251 66.6759C234.572 64.8736 233.706 63.1472 232.669 61.5248C231.126 59.1282 229.213 56.9919 227.001 55.1956C224.233 53.0663 221.176 51.3429 217.922 50.0772C214.496 48.6373 211.143 47.4591 208.208 46.0781C205.585 44.9003 203.123 43.3937 200.88 41.5946C199.376 40.3713 198.066 38.9257 196.997 37.3075C196.709 36.8663 196.449 36.4072 196.219 35.933C196.126 35.7756 196.049 35.6089 195.99 35.4355C196.095 35.5868 196.191 35.7442 196.278 35.9068C196.53 36.3569 196.805 36.7938 197.102 37.2159C198.199 38.7931 199.521 40.202 201.024 41.3983C203.265 43.1599 205.718 44.6331 208.325 45.7836C211.247 47.1384 214.601 48.3166 218.039 49.7565C221.322 51.0373 224.404 52.783 227.191 54.9403C229.419 56.7675 231.335 58.9449 232.865 61.3874C233.89 63.0349 234.73 64.791 235.369 66.6236C235.584 67.2781 235.741 67.7821 235.82 68.1355C235.876 68.3106 235.918 68.4902 235.944 68.6722Z" fill="#455A64"/>
<path d="M231.231 67.841C231.131 67.706 231.046 67.5612 230.976 67.409C230.806 67.1275 230.557 66.7086 230.191 66.2047C229.146 64.796 227.876 63.5688 226.433 62.5721C224.266 61.121 221.952 59.9033 219.53 58.9394C218.177 58.3569 216.745 57.7548 215.294 57.061C213.843 56.3672 212.359 55.5948 210.894 54.7178C208.122 53.0808 205.566 51.1017 203.285 48.8271C201.428 46.9626 199.828 44.8583 198.527 42.5698C197.657 41.0265 196.955 39.3939 196.435 37.7002C196.265 37.098 196.141 36.6267 196.082 36.306C196.035 36.1436 196.005 35.977 195.99 35.8086C196.056 35.9624 196.107 36.1225 196.141 36.2864C196.226 36.6071 196.369 37.0653 196.559 37.6609C197.119 39.327 197.846 40.9322 198.729 42.452C200.042 44.7046 201.644 46.7753 203.495 48.6111C205.769 50.8648 208.311 52.83 211.064 54.4625C212.516 55.333 213.986 56.1054 215.431 56.8057C216.876 57.506 218.294 58.1148 219.647 58.6907C222.083 59.6707 224.402 60.9175 226.563 62.4084C228.014 63.4336 229.277 64.7025 230.296 66.1588C230.568 66.5562 230.813 66.9717 231.028 67.4024C231.106 67.5434 231.174 67.69 231.231 67.841Z" fill="#455A64"/>
<path d="M179.981 65.668C179.924 65.5544 179.876 65.4362 179.838 65.3146C179.753 65.0855 179.622 64.7386 179.478 64.287C179.113 63.0067 178.894 61.6894 178.824 60.3599C178.625 55.8931 180.015 51.5004 182.747 47.9632C183.515 46.9614 184.392 46.0482 185.361 45.2404C186.309 44.468 187.283 43.8135 188.211 43.1983C189.896 42.1843 191.477 41.0071 192.931 39.6835C193.896 38.7791 194.682 37.6997 195.245 36.5025C195.624 35.6451 195.709 35.1214 195.742 35.128C195.74 35.2567 195.721 35.3845 195.683 35.5076C195.602 35.862 195.495 36.2099 195.363 36.5483C194.829 37.7778 194.058 38.8899 193.095 39.8209C191.651 41.1794 190.072 42.3857 188.381 43.4208C187.409 44.0538 186.468 44.7354 185.564 45.4629C184.612 46.2576 183.748 47.153 182.988 48.1334C181.515 50.033 180.423 52.2 179.772 54.515C179.23 56.4028 178.985 58.3638 179.047 60.3271C179.098 61.6513 179.282 62.967 179.596 64.2543C179.713 64.6906 179.812 65.0375 179.89 65.295C179.936 65.4151 179.967 65.5404 179.981 65.668Z" fill="#455A64"/>
<path d="M217.444 95.9527C213.88 95.9911 210.425 94.7222 207.73 92.3855L208.149 91.9208C210.454 94.0009 213.394 95.24 216.491 95.4371C219.588 95.6342 222.661 94.7778 225.211 93.0067C227.761 91.2356 229.639 88.6538 230.539 85.6801C231.439 82.7064 231.31 79.5154 230.172 76.6246L230.754 76.3955C231.852 79.4268 231.941 82.7331 231.005 85.8188C230.069 88.9045 228.16 91.6035 225.563 93.5113C223.166 95.129 220.335 95.9803 217.444 95.9527Z" fill="#176CFF"/>
<path d="M212.391 93.2888C212.391 93.8856 212.215 94.469 211.883 94.9652C211.552 95.4614 211.082 95.8481 210.531 96.0765C209.98 96.3049 209.374 96.3646 208.79 96.2482C208.205 96.1318 207.668 95.8444 207.247 95.4224C206.825 95.0004 206.538 94.4628 206.422 93.8775C206.306 93.2922 206.366 92.6855 206.594 92.1341C206.822 91.5828 207.208 91.1115 207.704 90.78C208.199 90.4484 208.782 90.2715 209.378 90.2715C210.177 90.2715 210.944 90.5894 211.509 91.1552C212.074 91.7211 212.391 92.4886 212.391 93.2888Z" fill="#176CFF"/>
<path d="M242.51 79.1838C243.188 73.6476 239.255 68.6094 233.726 67.9306C228.197 67.2518 223.165 71.1895 222.487 76.7258C221.809 82.262 225.742 87.3003 231.271 87.979C236.8 88.6578 241.832 84.7201 242.51 79.1838Z" fill="#176CFF"/>
<path d="M230.878 76.5525C230.807 75.6999 230.824 74.8423 230.931 73.9933L231.048 71.0022C231.048 69.8371 231.1 68.5084 231.048 67.0423C231.048 66.3092 230.996 65.5434 230.957 64.7515C230.917 63.9595 230.832 63.1282 230.754 62.2708C230.676 61.4134 230.525 60.5429 230.414 59.6527C230.329 59.2076 230.244 58.7495 230.159 58.2913C230.074 57.8331 229.983 57.3619 229.858 56.8972C228.988 52.8266 227.18 49.0162 224.577 45.7703C221.875 42.6047 218.416 40.177 214.523 38.7145C211.331 37.5066 208.01 36.672 204.626 36.2273C201.724 35.8215 199.351 35.6972 197.716 35.5728C196.862 35.5901 196.007 35.5199 195.167 35.3634C196.011 35.2237 196.868 35.1689 197.723 35.1997C200.057 35.1793 202.39 35.2908 204.711 35.5335C208.175 35.89 211.58 36.6772 214.85 37.8767C218.906 39.3494 222.511 41.853 225.309 45.1419C228.007 48.507 229.861 52.4707 230.715 56.7008C230.832 57.1786 230.924 57.6564 231.002 58.1342C231.081 58.612 231.159 59.0702 231.238 59.5284C231.342 60.4578 231.493 61.3479 231.538 62.2185C231.584 63.089 231.676 63.9333 231.682 64.7384C231.689 65.5434 231.735 66.3223 231.682 67.0619C231.682 68.5477 231.597 69.8829 231.532 71.0545C231.467 72.2261 231.349 73.2275 231.251 74.0522C231.207 74.8957 231.082 75.733 230.878 76.5525Z" fill="#176CFF"/>
<g opacity="0.4">
<path d="M239.73 77.9598C239.731 79.3362 239.324 80.682 238.562 81.827C237.799 82.9721 236.714 83.8649 235.444 84.3925C234.175 84.9201 232.778 85.0588 231.429 84.7911C230.081 84.5233 228.842 83.8612 227.87 82.8884C226.897 81.9157 226.235 80.676 225.966 79.3261C225.697 77.9763 225.835 76.5771 226.36 75.3053C226.886 74.0336 227.777 72.9466 228.92 72.1818C230.062 71.417 231.406 71.0088 232.781 71.0088C234.623 71.0088 236.389 71.7409 237.692 73.0443C238.995 74.3477 239.728 76.1157 239.73 77.9598Z" fill="black"/>
</g>
<path d="M230.499 71.48C230.597 71.4157 230.703 71.363 230.813 71.3229C231.122 71.1928 231.444 71.0962 231.774 71.0349C233.009 70.8234 234.28 71.0404 235.376 71.6502C236.14 72.0681 236.778 72.6827 237.226 73.4305C237.73 74.2928 237.986 75.2784 237.964 76.2777C237.948 77.1485 237.715 78.0014 237.287 78.7594C236.858 79.5173 236.248 80.1562 235.51 80.6183C234.773 81.0804 233.932 81.351 233.064 81.4056C232.196 81.4603 231.328 81.2973 230.538 80.9313C229.539 80.4422 228.727 79.6402 228.224 78.647C227.758 77.7605 227.551 76.7597 227.629 75.7606C227.719 74.8968 228.013 74.0667 228.486 73.3388C229.131 72.2584 230.157 71.4596 231.362 71.1004C231.687 71.0101 232.025 70.9704 232.362 70.9826C232.479 70.9862 232.596 71.0038 232.709 71.0349C232.267 71.036 231.827 71.0976 231.401 71.2182C230.256 71.6148 229.293 72.412 228.688 73.4632C228.203 74.2079 227.928 75.0706 227.894 75.9592C227.859 76.8479 228.066 77.7294 228.492 78.5096C228.972 79.4372 229.738 80.1853 230.676 80.6433C231.701 81.096 232.846 81.1976 233.934 80.9326C235.023 80.6675 235.993 80.0505 236.696 79.1772C237.317 78.3344 237.66 77.3184 237.677 76.2711C237.712 75.3269 237.486 74.3914 237.023 73.5679C236.609 72.8515 236.011 72.2593 235.291 71.8531C234.245 71.2436 233.026 70.9995 231.826 71.1593C231.378 71.238 230.934 71.3452 230.499 71.48Z" fill="#263238"/>
<path d="M232.722 84.8066C232.484 84.293 232.377 83.7288 232.408 83.1638C232.333 82.6056 232.394 82.0377 232.584 81.5078C232.71 82.0459 232.758 82.599 232.728 83.1507C232.806 83.7001 232.804 84.2578 232.722 84.8066Z" fill="#263238"/>
<path d="M236.552 83.4577C236.22 83.0422 235.975 82.5634 235.833 82.0504C235.592 81.5757 235.45 81.0569 235.415 80.5254C235.991 81.4144 236.378 82.4125 236.552 83.4577Z" fill="#263238"/>
<path d="M239.135 80.4341C239.076 80.4995 238.599 80.1657 238.069 79.6879C237.54 79.2101 237.167 78.7651 237.226 78.6996C237.285 78.6341 237.762 78.968 238.291 79.4458C238.821 79.9236 239.193 80.3686 239.135 80.4341Z" fill="#263238"/>
<path d="M239.317 76.2121C239.285 76.2972 238.945 76.2514 238.546 76.1074C238.147 75.9634 237.853 75.7801 237.892 75.695C237.931 75.6099 238.265 75.6558 238.664 75.7997C239.062 75.9437 239.35 76.127 239.317 76.2121Z" fill="#263238"/>
<path d="M228.191 83.2615C228.372 82.1428 228.9 81.1098 229.701 80.3096C229.533 80.8392 229.298 81.3451 229.002 81.815C228.793 82.329 228.521 82.8149 228.191 83.2615Z" fill="#263238"/>
<path d="M226.119 79.7073C226.054 79.6419 226.453 79.151 227.002 78.6143C227.551 78.0776 228.048 77.6848 228.113 77.7503C228.178 77.8157 227.78 78.3066 227.231 78.8433C226.682 79.3801 226.185 79.7728 226.119 79.7073Z" fill="#263238"/>
<path d="M227.74 74.8897C227.74 74.9748 227.479 75.1254 227.087 75.2235C226.694 75.3217 226.394 75.3348 226.374 75.2235C226.354 75.1123 226.629 74.9814 227.028 74.8832C227.426 74.785 227.714 74.8046 227.74 74.8897Z" fill="#263238"/>
<path d="M280.5 130.145C279.846 126.447 278.402 124.438 277.323 123.384C276.367 122.347 275.295 121.425 274.127 120.635C272.662 119.738 270.669 118.632 269.394 118.351C267.818 118.01 267.433 115.962 268.74 115.373C270.048 114.784 274.427 115.628 278.631 118.717C282.834 121.807 280.703 113.979 279.984 111.112C279.265 108.245 277.48 99.2779 278.134 98.3747C279.173 97.0656 280.814 97.9558 281.474 100.836C282.134 103.716 284.703 112.224 286.2 111.806C287.697 111.387 283.801 96.8431 283.801 96.8431C283.801 96.8431 282.494 93.8585 284.187 93.3218C287.285 92.3465 290.266 108.094 290.515 109.6C290.685 110.64 292.332 110.254 292.09 109.135C291.848 108.016 287.88 94.7028 291.024 93.6818C293.437 92.9029 293.6 106.615 295.953 108.958C298.307 111.302 294.764 98.5449 297.104 97.8904C297.973 97.6482 298.66 97.5893 299.634 105.182C300.163 109.259 299.823 114.882 301.412 122.664" fill="#B78876"/>
<path d="M272.662 159.416L286.952 179.948L280.094 126.997L300.522 118.927C300.522 118.927 326.304 217.891 291.73 219.278C291.73 219.278 267.798 218.624 249.939 177.153L272.662 159.416Z" fill="#B78876"/>
<path d="M295.581 118.54C295.62 118.592 295.136 118.913 294.502 119.62C293.674 120.55 293.097 121.676 292.828 122.893L292.75 123.279L292.469 122.991C292.14 122.656 291.786 122.348 291.41 122.068C290.135 121.136 288.639 120.554 287.069 120.379C285.86 120.248 285.108 120.379 285.108 120.307C285.748 120.073 286.433 119.993 287.109 120.072C289.272 120.171 291.312 121.11 292.796 122.69L292.43 122.788C292.718 121.493 293.376 120.31 294.325 119.384C294.671 119.007 295.101 118.718 295.581 118.54Z" fill="#AA6550"/>
<path d="M262.399 202.221L245.109 180.262L240.612 202.725C238.793 211.822 239.73 221.256 243.305 229.816L245.534 235.163H165.47L167.47 228.023C168.601 219.278 167.091 210.154 167.352 197.627L165.13 183.508L153.017 235.163H117.41C117.41 235.163 136.936 154.991 149.199 139.125C164.633 119.13 191.604 121.767 191.604 121.767L208.123 147.7L224.263 124.313C224.263 124.313 251.992 118.423 273.643 155.731L285.226 175.608L279.846 134.681L304.935 128.895C304.935 128.895 313.989 169.102 313.394 190.636C312.864 209.866 304.686 219.952 293.358 220.947C275.519 222.505 262.399 202.221 262.399 202.221Z" fill="#176CFF"/>
<path d="M191.605 121.768L191.886 118.534C191.886 118.534 204.123 121.257 208.228 142.653C208.228 142.653 212.346 122.906 225.525 120.917L227.747 126.611L219.655 147.706L205.443 151.869L191.611 147.706L185.31 135.198L191.605 121.768Z" fill="#176CFF"/>
<path d="M157.495 130.275C157.532 130.457 157.554 130.64 157.56 130.825C157.56 131.218 157.626 131.748 157.678 132.422C157.763 133.803 157.907 135.8 158.103 138.274C158.502 143.209 159.175 150.022 160.24 157.504C161.306 164.985 162.574 171.72 163.574 176.57C164.078 178.998 164.496 180.955 164.803 182.31C164.94 182.965 165.052 183.488 165.137 183.868C165.183 184.048 165.214 184.232 165.228 184.418C165.163 184.245 165.11 184.068 165.071 183.887C164.971 183.508 164.84 182.991 164.679 182.336C164.339 180.994 163.881 179.064 163.372 176.622C162.313 171.779 161.018 165.044 159.94 157.549C158.861 150.055 158.234 143.235 157.9 138.287C157.73 135.813 157.619 133.81 157.567 132.429C157.567 131.774 157.528 131.224 157.515 130.832C157.501 130.439 157.488 130.275 157.495 130.275Z" fill="#263238"/>
<path d="M227.446 123.554C227.398 123.662 227.339 123.765 227.27 123.861L226.721 124.712L224.681 127.828C222.968 130.446 220.654 134.144 218.255 138.3C218.164 138.464 218.066 138.621 217.981 138.778L217.824 139.046L217.693 138.765C217.275 137.725 216.68 136.766 215.935 135.931C215.593 135.557 215.168 135.269 214.694 135.092C214.221 134.914 213.711 134.852 213.209 134.91C212.302 135.107 211.501 135.634 210.96 136.389C210.462 137.035 210.081 137.764 209.836 138.542C209.378 139.982 209.11 141.193 208.764 141.979C208.642 142.282 208.5 142.578 208.339 142.862C208.221 143.054 208.156 143.146 208.143 143.137C208.143 143.137 208.365 142.725 208.652 141.933C208.94 141.141 209.182 139.969 209.626 138.477C209.861 137.664 210.242 136.901 210.751 136.225C211.321 135.402 212.184 134.829 213.163 134.622C213.711 134.55 214.269 134.612 214.789 134.801C215.308 134.99 215.775 135.301 216.15 135.708C216.932 136.563 217.554 137.552 217.987 138.627H217.7L217.974 138.15C220.38 133.987 222.726 130.295 224.511 127.716C225.394 126.407 226.126 125.367 226.636 124.653C226.884 124.326 227.08 124.051 227.237 123.835C227.297 123.734 227.367 123.64 227.446 123.554Z" fill="#263238"/>
<path d="M215.791 135.669C215.791 135.669 215.758 135.767 215.66 135.944L215.229 136.703L213.588 139.466L211.117 143.53L209.646 145.932C209.385 146.345 209.123 146.77 208.855 147.202C208.774 147.325 208.67 147.432 208.548 147.516C208.475 147.563 208.393 147.594 208.307 147.605C208.221 147.617 208.134 147.608 208.051 147.582C207.768 147.47 207.535 147.258 207.398 146.986C205.103 143.53 203.391 140.186 202.05 137.823C201.397 136.638 200.841 135.689 200.462 135.034C200.248 134.705 200.055 134.362 199.887 134.007C199.887 134.007 199.965 134.085 200.076 134.249C200.187 134.413 200.364 134.648 200.567 134.969C200.985 135.624 201.56 136.54 202.247 137.711C203.639 140.035 205.384 143.36 207.672 146.796C207.809 147.019 207.94 147.209 208.117 147.261C208.293 147.313 208.43 147.195 208.568 147.006L209.352 145.749L210.836 143.36L213.366 139.328L215.092 136.625C215.288 136.337 215.445 136.095 215.582 135.898C215.642 135.813 215.712 135.736 215.791 135.669Z" fill="#263238"/>
<path d="M260.124 137.587C260.071 137.733 260.008 137.875 259.935 138.012C259.791 138.313 259.595 138.713 259.347 139.21C258.824 140.244 258.091 141.75 257.215 143.622C256.34 145.494 255.346 147.752 254.3 150.278C253.254 152.805 252.189 155.619 251.156 158.604C250.123 161.588 249.26 164.494 248.541 167.112C247.822 169.731 247.234 172.139 246.756 174.155C246.279 176.171 245.946 177.814 245.724 178.946C245.612 179.489 245.521 179.921 245.456 180.255C245.431 180.409 245.392 180.561 245.338 180.707C245.339 180.551 245.356 180.395 245.39 180.242C245.442 179.908 245.514 179.47 245.599 178.933C245.782 177.788 246.103 176.138 246.534 174.109C246.966 172.08 247.541 169.685 248.253 167.034C248.966 164.383 249.855 161.51 250.868 158.525C251.881 155.54 252.993 152.726 254.039 150.193C255.084 147.66 256.124 145.415 257.032 143.55C257.941 141.684 258.699 140.192 259.255 139.177L259.909 138.012C259.965 137.863 260.037 137.721 260.124 137.587Z" fill="#263238"/>
<path d="M223.498 218.905C223.332 218.914 223.166 218.914 223.001 218.905L221.569 218.794C220.916 218.741 220.19 218.676 219.314 218.565C218.438 218.453 217.432 218.355 216.333 218.185C214.124 217.884 211.509 217.426 208.626 216.83C205.744 216.235 202.599 215.436 199.337 214.474C196.075 213.512 193.023 212.419 190.271 211.365C187.519 210.311 185.093 209.238 183.08 208.282C182.06 207.824 181.165 207.359 180.374 206.973C179.583 206.587 178.903 206.227 178.36 205.926L177.099 205.239C176.951 205.164 176.809 205.079 176.674 204.983C176.832 205.034 176.986 205.099 177.131 205.18L178.439 205.834C178.994 206.116 179.674 206.489 180.472 206.829C181.269 207.17 182.171 207.654 183.191 208.092C185.218 209.022 187.656 210.056 190.382 211.103C193.108 212.15 196.18 213.204 199.429 214.179C202.678 215.155 205.822 215.92 208.685 216.555C211.548 217.19 214.163 217.648 216.366 217.976C217.458 218.166 218.458 218.283 219.334 218.401C220.21 218.519 220.961 218.617 221.582 218.683L223.008 218.859C223.172 218.86 223.336 218.876 223.498 218.905Z" fill="#263238"/>
<path d="M219.955 220.306C219.848 220.348 219.736 220.376 219.622 220.391L218.667 220.574C217.837 220.725 216.628 220.915 215.131 221.124C207.333 222.176 199.45 222.45 191.598 221.942C190.088 221.838 188.872 221.733 188.035 221.641L187.068 221.523C186.955 221.512 186.844 221.492 186.734 221.464C186.847 221.449 186.962 221.449 187.074 221.464L188.042 221.517C188.885 221.576 190.101 221.648 191.611 221.72C194.618 221.864 198.802 221.962 203.377 221.805C207.953 221.648 212.124 221.255 215.144 220.902C216.641 220.725 217.85 220.568 218.687 220.457L219.654 220.332C219.753 220.31 219.854 220.301 219.955 220.306Z" fill="#263238"/>
<path d="M248.292 184.307C248.306 184.147 248.337 183.989 248.383 183.835L248.717 182.526L249.959 177.624C251.011 173.487 252.404 167.76 254.123 161.477C254.986 158.335 255.868 155.357 256.738 152.667C257.607 149.977 258.444 147.581 259.215 145.591C259.581 144.583 259.96 143.693 260.274 142.908C260.588 142.122 260.882 141.455 261.131 140.912L261.699 139.661C261.761 139.511 261.835 139.367 261.921 139.229C261.879 139.386 261.825 139.54 261.758 139.688C261.634 140.002 261.464 140.427 261.248 140.957C261.032 141.488 260.745 142.188 260.444 142.98C260.143 143.772 259.79 144.662 259.431 145.67C258.686 147.666 257.875 150.075 257.025 152.758C256.176 155.442 255.306 158.427 254.443 161.562C252.731 167.839 251.306 173.559 250.194 177.683C249.645 179.744 249.188 181.414 248.854 182.559L248.462 183.868C248.421 184.02 248.365 184.167 248.292 184.307Z" fill="#263238"/>
<path d="M164.712 183.233C164.59 183.11 164.476 182.979 164.372 182.84C164.163 182.566 163.829 182.186 163.463 181.656C162.386 180.169 161.431 178.597 160.607 176.956C159.381 174.521 158.377 171.98 157.606 169.364C156.671 166.163 155.977 162.896 155.527 159.592C154.573 152.562 154.416 146.135 154.128 141.514C153.998 139.197 153.874 137.325 153.782 136.029C153.736 135.407 153.697 134.91 153.671 134.543C153.658 134.369 153.658 134.194 153.671 134.02C153.714 134.189 153.742 134.362 153.756 134.537C153.795 134.87 153.86 135.374 153.926 136.022C154.063 137.331 154.22 139.184 154.377 141.494C154.723 146.122 154.913 152.543 155.867 159.546C156.312 162.836 156.996 166.089 157.913 169.279C158.657 171.885 159.626 174.421 160.809 176.858C161.613 178.499 162.533 180.08 163.561 181.59C163.914 182.134 164.215 182.52 164.424 182.808C164.533 182.94 164.63 183.082 164.712 183.233Z" fill="#263238"/>
<path d="M161.671 168.82C161.671 168.918 160.743 169.121 159.71 169.724C158.677 170.326 158.056 171.033 157.984 170.967C158.376 170.34 158.914 169.817 159.551 169.443C160.189 169.069 160.907 168.856 161.645 168.82H161.671Z" fill="#263238"/>
<path d="M161.063 160.417C160.228 160.647 159.41 160.94 158.619 161.294C157.881 161.748 157.177 162.255 156.514 162.812C156.998 162.045 157.677 161.42 158.48 160.999C159.284 160.579 160.184 160.378 161.09 160.417H161.063Z" fill="#263238"/>
<path d="M159.226 152.733C158.56 152.911 157.905 153.13 157.265 153.387C156.679 153.736 156.114 154.118 155.572 154.533C155.936 153.911 156.473 153.41 157.118 153.091C157.762 152.771 158.486 152.646 159.2 152.733H159.226Z" fill="#263238"/>
<path d="M158.331 144.786C158.331 144.878 157.514 145.042 156.573 145.441C155.632 145.84 154.939 146.331 154.88 146.259C155.277 145.738 155.821 145.348 156.442 145.14C157.023 144.838 157.681 144.715 158.331 144.786Z" fill="#263238"/>
<path d="M157.815 138.385C157.815 138.477 156.992 138.634 156.05 139.079C155.109 139.524 154.455 140.067 154.396 139.995C154.801 139.478 155.321 139.063 155.915 138.783C156.508 138.504 157.159 138.367 157.815 138.385Z" fill="#263238"/>
<path d="M249.972 174.502C249.894 174.56 249.469 173.984 248.665 173.677C248.175 173.533 247.675 173.43 247.168 173.369C247.417 173.24 247.694 173.172 247.975 173.172C248.256 173.172 248.533 173.24 248.783 173.369C249.698 173.736 250.057 174.475 249.972 174.502Z" fill="#263238"/>
<path d="M252.404 167.95C252.068 167.309 251.573 166.766 250.966 166.373C250.359 165.98 249.661 165.75 248.939 165.705C248.939 165.666 249.181 165.581 249.593 165.594C250.142 165.625 250.674 165.799 251.136 166.098C251.6 166.396 251.976 166.811 252.228 167.302C252.417 167.695 252.443 167.937 252.404 167.95Z" fill="#263238"/>
<path d="M254.228 160.744C253.773 160.237 253.206 159.843 252.574 159.592C251.941 159.341 251.258 159.24 250.58 159.298C250.58 159.265 250.789 159.147 251.181 159.095C251.695 159.031 252.217 159.098 252.698 159.291C253.178 159.482 253.603 159.79 253.934 160.188C254.182 160.495 254.26 160.731 254.228 160.744Z" fill="#263238"/>
<path d="M256.378 153.825C256.293 153.871 255.953 153.223 255.195 152.837C254.72 152.643 254.224 152.503 253.718 152.418C253.718 152.379 253.888 152.3 254.195 152.281C254.596 152.274 254.992 152.368 255.346 152.556C255.701 152.744 256.002 153.018 256.221 153.354C256.378 153.616 256.411 153.806 256.378 153.825Z" fill="#263238"/>
<path d="M258.889 147.47C258.531 147.013 258.086 146.631 257.582 146.344C257.032 146.141 256.448 146.043 255.862 146.056C255.862 146.024 256.032 145.899 256.379 145.84C256.835 145.785 257.297 145.858 257.714 146.051C258.131 146.244 258.486 146.55 258.739 146.933C258.895 147.234 258.922 147.457 258.889 147.47Z" fill="#263238"/>
<path d="M217.798 138.385C217.762 138.491 217.714 138.592 217.654 138.686L217.196 139.524C216.791 140.244 216.19 141.285 215.431 142.561C214.673 143.837 213.758 145.343 212.712 146.999C212.183 147.823 211.627 148.687 211.025 149.571C210.424 150.496 209.769 151.386 209.064 152.235C208.879 152.468 208.658 152.671 208.411 152.837C208.324 152.888 208.223 152.909 208.123 152.896C208.037 152.882 207.953 152.855 207.875 152.817C207.743 152.743 207.619 152.658 207.502 152.562C207.086 152.197 206.703 151.797 206.358 151.364C205.704 150.54 205.051 149.702 204.508 148.903C203.384 147.293 202.429 145.807 201.638 144.551C200.848 143.294 200.233 142.273 199.815 141.553L199.344 140.722C199.28 140.63 199.232 140.528 199.2 140.421C199.273 140.504 199.339 140.594 199.396 140.689L199.919 141.488C200.396 142.221 201.044 143.215 201.828 144.433C202.612 145.65 203.619 147.136 204.75 148.727C205.319 149.525 205.927 150.35 206.6 151.161C206.936 151.575 207.305 151.96 207.705 152.313C207.901 152.47 208.149 152.641 208.273 152.542C208.486 152.395 208.678 152.219 208.842 152.019C209.543 151.183 210.198 150.309 210.803 149.401C211.405 148.524 211.967 147.666 212.496 146.842C213.555 145.199 214.49 143.706 215.274 142.443C216.059 141.18 216.667 140.211 217.124 139.465C217.334 139.142 217.504 138.874 217.634 138.66C217.719 138.47 217.785 138.379 217.798 138.385Z" fill="#263238"/>
<path d="M203.868 147.699C203.829 147.699 203.757 147.477 203.783 147.097C203.833 146.604 204.023 146.136 204.332 145.749C204.635 145.356 205.046 145.06 205.515 144.898C205.875 144.787 206.11 144.806 206.117 144.845C205.538 145.107 205.017 145.484 204.587 145.952C204.229 146.478 203.984 147.073 203.868 147.699Z" fill="#263238"/>
<path d="M208.19 152.857C207.783 151.163 207.769 149.399 208.15 147.699C208.232 148.556 208.248 149.419 208.196 150.278C208.256 151.137 208.253 151.998 208.19 152.857Z" fill="#263238"/>
<path d="M213.039 146.285C212.947 146.285 212.744 145.585 212.065 145.029C211.628 144.727 211.156 144.48 210.659 144.296C210.659 144.256 210.855 144.21 211.169 144.263C211.576 144.336 211.957 144.515 212.274 144.78C212.593 145.043 212.836 145.387 212.98 145.775C213.084 146.095 213.078 146.272 213.039 146.285Z" fill="#263238"/>
<path d="M216.223 140.951C216.012 140.468 215.742 140.012 215.419 139.596C215.02 139.246 214.581 138.945 214.111 138.699C214.111 138.66 214.314 138.64 214.615 138.699C215.008 138.825 215.361 139.05 215.641 139.354C215.923 139.652 216.122 140.02 216.216 140.421C216.295 140.748 216.262 140.944 216.223 140.951Z" fill="#263238"/>
<path d="M200.618 142.823C200.579 142.823 200.475 142.581 200.461 142.169C200.451 141.594 200.588 141.026 200.86 140.519C201.131 140.011 201.524 139.579 202.004 139.262C202.377 139.033 202.658 138.981 202.658 139.014C202.021 139.428 201.5 139.997 201.142 140.668C200.784 141.339 200.602 142.089 200.612 142.849L200.618 142.823Z" fill="#263238"/>
<g opacity="0.4">
<path d="M191.434 121.715C192.833 127.095 195.173 135.859 197.703 142.712C197.797 143.035 197.962 143.333 198.187 143.583C198.84 144.191 199.932 143.818 200.54 143.17C201.055 142.503 201.516 141.796 201.919 141.056C202.125 140.688 202.414 140.373 202.762 140.136C203.11 139.899 203.509 139.745 203.926 139.688C204.269 139.697 204.607 139.781 204.914 139.935C205.221 140.089 205.491 140.308 205.704 140.578C206.126 141.122 206.492 141.708 206.796 142.326C206.865 142.497 206.97 142.651 207.103 142.778C207.235 142.906 207.394 143.004 207.567 143.066C207.654 143.092 207.747 143.092 207.834 143.066C207.921 143.041 207.999 142.99 208.057 142.92C208.116 142.85 208.153 142.765 208.163 142.674C208.174 142.584 208.157 142.492 208.116 142.411L205.881 136.599C205.881 136.599 204.854 132.338 201.305 132.999C197.33 133.739 199.134 140.284 199.134 140.284C199.134 140.284 191.375 121.486 191.434 121.715Z" fill="black"/>
</g>
<path d="M208.228 142.653C208.148 142.536 208.084 142.408 208.038 142.274C207.921 142.018 207.757 141.619 207.555 141.154C207.156 140.133 206.594 138.72 205.907 136.985C205.731 136.547 205.541 136.088 205.339 135.617C205.148 135.135 204.871 134.691 204.521 134.308C204.12 133.901 203.635 133.586 203.1 133.386C202.565 133.186 201.993 133.105 201.423 133.15C200.817 133.225 200.248 133.481 199.789 133.883C199.365 134.37 199.062 134.951 198.906 135.578C198.725 136.216 198.679 136.884 198.769 137.541C198.849 138.242 198.974 138.938 199.142 139.623C199.2 139.878 199.266 140.133 199.325 140.369L199.011 140.461C198.096 137.842 197.05 135.381 196.082 133.176C195.115 130.97 194.232 128.98 193.539 127.285C192.847 125.59 192.337 124.222 192.029 123.253C191.866 122.775 191.768 122.396 191.696 122.134C191.65 122.007 191.619 121.875 191.604 121.741C191.665 121.861 191.715 121.986 191.755 122.114C191.846 122.37 191.964 122.769 192.147 123.214C192.487 124.163 193.023 125.531 193.749 127.193C194.474 128.856 195.363 130.833 196.363 133.038C197.364 135.244 198.409 137.692 199.331 140.343L199.024 140.441C198.965 140.199 198.9 139.944 198.834 139.688C198.665 138.988 198.541 138.277 198.462 137.561C198.363 136.851 198.416 136.128 198.619 135.44C198.792 134.766 199.124 134.142 199.586 133.621C200.096 133.173 200.73 132.892 201.403 132.816C202.017 132.767 202.634 132.856 203.21 133.075C203.785 133.295 204.305 133.64 204.731 134.086C205.095 134.5 205.383 134.977 205.58 135.493C205.783 135.971 205.96 136.435 206.136 136.874C206.79 138.621 207.306 140.048 207.685 141.082C207.862 141.554 207.999 141.933 208.11 142.221C208.163 142.361 208.202 142.506 208.228 142.653Z" fill="#263238"/>
<g opacity="0.4">
<path d="M208.541 142.496C208.411 142.587 208.509 142.829 208.665 142.862C208.748 142.87 208.83 142.86 208.908 142.833C208.986 142.806 209.057 142.762 209.117 142.705C209.873 141.977 210.508 141.133 210.999 140.205C211.587 139.328 212.444 138.49 213.496 138.49C214.549 138.49 215.516 139.419 216.065 140.395C216.614 141.37 216.994 142.469 217.791 143.255C221.801 137.369 224.992 130.963 227.276 124.215C225.969 125.125 225.099 126.545 224.282 127.913C222.16 131.46 220.038 135.006 217.915 138.549C217.518 137.49 216.906 136.525 216.118 135.715C215.722 135.312 215.235 135.01 214.697 134.837C214.16 134.664 213.588 134.624 213.032 134.72C211.797 135.014 210.934 136.134 210.332 137.259C209.441 138.903 208.862 140.699 208.626 142.555" fill="black"/>
</g>
<path d="M292.024 194.93C291.857 194.708 291.715 194.469 291.599 194.217C291.344 193.745 290.991 193.052 290.58 192.194C289.508 189.942 288.551 187.637 287.71 185.289C286.87 182.942 286.15 180.555 285.553 178.135C285.324 177.206 285.16 176.453 285.056 175.923C284.99 175.654 284.949 175.38 284.932 175.104C285.042 175.359 285.125 175.625 285.18 175.896C285.337 176.472 285.54 177.205 285.775 178.076C286.285 179.915 287.037 182.442 288.017 185.184C288.998 187.927 290.017 190.355 290.789 192.096C291.161 192.921 291.442 193.614 291.71 194.158C291.841 194.404 291.947 194.662 292.024 194.93Z" fill="#263238"/>
<path d="M285.808 193.699C285.697 193.47 285.61 193.231 285.547 192.985C285.396 192.514 285.207 191.833 284.998 190.983C283.928 186.529 283.566 181.935 283.925 177.368C283.997 176.498 284.076 175.791 284.154 175.307C284.171 175.052 284.221 174.801 284.305 174.561C284.332 174.813 284.332 175.067 284.305 175.32C284.265 175.804 284.226 176.511 284.18 177.382C283.954 181.925 284.312 186.478 285.246 190.93C285.429 191.788 285.579 192.475 285.697 192.953C285.766 193.196 285.803 193.446 285.808 193.699Z" fill="#263238"/>
<path d="M305.784 136.402C305.956 136.446 306.123 136.51 306.281 136.592L306.379 136.638L306.281 136.677C302.211 138.043 298.047 139.111 293.822 139.871C290.174 140.526 286.834 140.932 284.415 141.128C283.206 141.226 282.225 141.285 281.545 141.305C281.193 141.336 280.839 141.336 280.486 141.305C280.831 141.237 281.181 141.193 281.532 141.174L284.395 140.892C286.801 140.637 290.128 140.238 293.763 139.544C299.829 138.438 304.817 136.965 306.274 136.586V136.664C306.101 136.597 305.936 136.509 305.784 136.402Z" fill="#263238"/>
<path d="M300.156 133.562C300.156 133.562 300.215 133.457 300.418 133.398C300.564 133.368 300.714 133.369 300.86 133.402C301.005 133.435 301.142 133.498 301.261 133.588C301.451 133.711 301.603 133.886 301.698 134.093C301.793 134.299 301.827 134.528 301.797 134.753C301.771 134.891 301.714 135.021 301.632 135.134C301.549 135.247 301.443 135.341 301.32 135.408C301.066 135.552 300.772 135.607 300.483 135.565C300.195 135.527 299.926 135.401 299.712 135.205C299.612 135.107 299.534 134.989 299.481 134.86C299.428 134.731 299.402 134.592 299.404 134.452C299.419 134.228 299.491 134.012 299.614 133.824C299.736 133.636 299.905 133.483 300.104 133.379C300.359 133.231 300.659 133.182 300.947 133.241C301.15 133.294 301.228 133.385 301.222 133.398C300.878 133.326 300.52 133.389 300.222 133.575C300.071 133.668 299.945 133.797 299.855 133.95C299.765 134.102 299.714 134.275 299.705 134.452C299.72 134.661 299.811 134.857 299.962 135.003C300.113 135.148 300.313 135.232 300.522 135.238C300.725 135.287 300.939 135.258 301.121 135.156C301.303 135.054 301.439 134.887 301.503 134.688C301.514 134.541 301.496 134.393 301.448 134.253C301.4 134.113 301.325 133.985 301.225 133.876C301.126 133.766 301.005 133.679 300.871 133.618C300.737 133.557 300.591 133.525 300.444 133.523C300.261 133.536 300.169 133.595 300.156 133.562Z" fill="#263238"/>
<path d="M203.018 147.404C202.906 147.515 202.786 147.618 202.658 147.712C202.41 147.902 202.07 148.216 201.58 148.543C200.219 149.516 198.763 150.348 197.233 151.024C194.96 152.031 192.557 152.714 190.094 153.053C188.641 153.249 187.174 153.328 185.708 153.288C184.134 153.233 182.568 153.038 181.028 152.706C177.864 151.993 175.014 150.827 172.327 150.088C171.068 149.726 169.779 149.472 168.477 149.329C167.335 149.215 166.184 149.228 165.045 149.368C163.397 149.537 161.813 150.096 160.423 150.998C159.932 151.355 159.458 151.738 159.005 152.143C159.391 151.664 159.845 151.242 160.351 150.893C161.74 149.934 163.343 149.332 165.019 149.139C166.168 148.988 167.329 148.964 168.483 149.067C169.81 149.198 171.122 149.445 172.406 149.806C175.118 150.513 177.968 151.672 181.093 152.379C182.616 152.705 184.165 152.899 185.721 152.961C187.169 153 188.618 152.928 190.055 152.745C192.496 152.421 194.881 151.76 197.141 150.782C198.67 150.135 200.132 149.341 201.508 148.412C202.011 148.105 202.358 147.81 202.619 147.64C202.743 147.547 202.877 147.468 203.018 147.404Z" fill="#FAFAFA"/>
<path d="M244.554 174.332C244.485 174.309 244.419 174.278 244.358 174.24L243.789 173.946C243.541 173.821 243.22 173.69 242.848 173.52C242.475 173.35 242.031 173.199 241.54 173.068C238.631 172.314 235.593 172.205 232.637 172.748C230.591 173.082 228.567 173.541 226.577 174.122C224.42 174.711 222.119 175.399 219.648 175.903C217.055 176.473 214.388 176.636 211.745 176.387C208.923 176.046 206.149 175.388 203.476 174.423C200.711 173.494 198.07 172.46 195.475 171.589C192.998 170.717 190.444 170.088 187.846 169.711C183.429 169.126 178.943 169.371 174.615 170.431C172.957 170.85 171.328 171.377 169.739 172.008C169.052 172.309 168.399 172.578 167.817 172.859C167.235 173.14 166.706 173.396 166.241 173.658L165.006 174.345L164.123 174.895L163.581 175.222C163.522 175.268 163.456 175.303 163.385 175.327L163.561 175.196L164.091 174.836C164.32 174.685 164.607 174.482 164.954 174.266L166.176 173.546C166.64 173.278 167.176 173.023 167.751 172.722C168.327 172.42 168.98 172.152 169.673 171.838C171.263 171.187 172.894 170.642 174.556 170.208C178.91 169.107 183.432 168.839 187.885 169.416C190.505 169.787 193.082 170.414 195.579 171.288C198.194 172.152 200.809 173.186 203.574 174.116C206.227 175.074 208.978 175.733 211.778 176.079C214.389 176.336 217.025 176.182 219.589 175.621C222.047 175.13 224.342 174.456 226.505 173.88C228.508 173.303 230.545 172.853 232.604 172.532C235.571 172.001 238.619 172.137 241.527 172.931C242.044 173.075 242.482 173.271 242.867 173.415C243.253 173.559 243.554 173.73 243.802 173.867L244.351 174.194C244.495 174.286 244.56 174.325 244.554 174.332Z" fill="#FAFAFA"/>
<path d="M211.613 146.914C212.163 147.069 212.722 147.191 213.287 147.281C214.832 147.455 216.397 147.331 217.895 146.914C220.107 146.236 222.274 145.423 224.386 144.479C225.666 143.959 226.992 143.565 228.348 143.301C229.808 143.041 231.293 142.955 232.773 143.046C235.629 143.232 238.432 143.896 241.069 145.01C243.212 145.915 245.279 146.99 247.253 148.223C248.946 149.257 250.273 150.187 251.175 150.782C251.613 151.084 251.959 151.326 252.221 151.516C252.346 151.594 252.464 151.684 252.574 151.784C252.438 151.726 252.308 151.654 252.188 151.568L251.109 150.913C250.168 150.324 248.828 149.454 247.122 148.446C245.141 147.252 243.077 146.205 240.944 145.311C238.337 144.213 235.568 143.55 232.747 143.347C231.291 143.261 229.831 143.343 228.394 143.589C227.053 143.848 225.739 144.234 224.471 144.741C222.04 145.684 219.896 146.705 217.934 147.117C216.409 147.524 214.816 147.615 213.254 147.385C212.687 147.31 212.134 147.152 211.613 146.914Z" fill="#FAFAFA"/>
<path d="M249.822 130.498C249.52 130.616 249.21 130.71 248.894 130.78C248.586 130.865 248.24 130.956 247.782 131.041C247.325 131.126 246.854 131.244 246.299 131.323C245.001 131.541 243.691 131.683 242.376 131.748C240.786 131.829 239.193 131.811 237.604 131.696C236.004 131.551 234.415 131.307 232.846 130.963C231.565 130.677 230.301 130.319 229.061 129.889C228.531 129.719 228.067 129.516 227.649 129.359C227.23 129.202 226.884 129.045 226.603 128.914C226.301 128.793 226.01 128.646 225.733 128.476C226.047 128.556 226.353 128.664 226.649 128.796C226.943 128.914 227.302 129.052 227.714 129.189C228.126 129.326 228.603 129.516 229.133 129.673C230.192 130.014 231.473 130.361 232.904 130.675C236.024 131.339 239.215 131.609 242.403 131.48C243.867 131.414 245.187 131.29 246.285 131.133C246.841 131.068 247.331 130.969 247.769 130.897C248.207 130.825 248.58 130.753 248.881 130.688C249.187 130.593 249.503 130.53 249.822 130.498Z" fill="#FAFAFA"/>
<path d="M157.763 134.7C157.849 134.609 157.943 134.526 158.044 134.451C158.24 134.294 158.528 134.059 158.907 133.797C159.658 133.221 160.757 132.409 162.175 131.467C165.817 128.951 169.805 126.98 174.013 125.615C178.249 124.267 182.745 123.952 187.127 124.699C188.445 124.941 189.737 125.312 190.983 125.805C191.428 125.969 191.755 126.146 191.983 126.244C192.101 126.291 192.212 126.35 192.317 126.42C192.317 126.42 191.827 126.244 190.944 125.923C189.691 125.475 188.4 125.142 187.087 124.928C182.741 124.256 178.298 124.596 174.105 125.923C169.941 127.289 165.982 129.218 162.339 131.657C160.92 132.573 159.796 133.358 159.024 133.902L158.129 134.556C158.014 134.621 157.891 134.67 157.763 134.7Z" fill="#FAFAFA"/>
<path d="M240.037 203.341C239.979 203.368 239.917 203.385 239.854 203.393L239.305 203.511C239.008 203.578 238.706 203.624 238.403 203.648L237.827 203.714H237.174C235.297 203.792 232.598 203.308 229.414 202.287C227.819 201.789 226.093 201.174 224.217 200.618C222.223 200.025 220.176 199.628 218.105 199.433C213.719 199.014 208.869 199.544 203.874 200.454C198.88 201.364 194.134 202.496 189.742 203.02C185.853 203.567 181.909 203.591 178.014 203.092C175.388 202.748 172.836 201.976 170.458 200.808L169.36 200.232L168.575 199.767L168.104 199.459L167.954 199.348C168.015 199.367 168.072 199.396 168.124 199.433L168.608 199.708L169.392 200.173L170.497 200.722C172.881 201.836 175.424 202.569 178.034 202.896C181.909 203.354 185.827 203.306 189.689 202.752C194.063 202.208 198.782 201.069 203.803 200.133C208.823 199.197 213.693 198.693 218.118 199.139C220.206 199.342 222.269 199.752 224.276 200.363C226.159 200.932 227.885 201.554 229.467 202.064C231.934 202.98 234.531 203.494 237.161 203.589H237.814L238.389 203.537C238.692 203.525 238.994 203.49 239.292 203.432L239.841 203.347L240.037 203.341Z" fill="#FAFAFA"/>
<g opacity="0.3">
<path d="M182.446 207.85C185.408 215.252 191.14 220.508 199.031 221.595C206.921 222.681 214.902 220.875 222.563 218.78C208.594 216.817 196.233 214.886 182.427 207.85" fill="black"/>
</g>
<path d="M242.037 228.205L241.847 228.133L241.292 227.898L239.18 226.955C237.337 226.15 234.702 224.907 231.414 223.48C229.626 222.697 227.773 222.069 225.878 221.601C223.703 221.081 221.449 220.977 219.236 221.294C218.04 221.47 216.86 221.74 215.706 222.099C214.506 222.475 213.326 222.912 212.17 223.408C209.81 224.442 207.463 225.725 205.044 227.021C202.704 228.321 200.275 229.454 197.775 230.411C195.436 231.31 192.964 231.814 190.461 231.904C188.187 231.927 185.933 231.482 183.839 230.594C182.039 229.819 180.292 228.927 178.609 227.924C177.047 227.027 175.641 226.216 174.367 225.594C173.279 225.046 172.149 224.586 170.987 224.219C170.558 224.079 170.122 223.963 169.68 223.873C169.366 223.79 169.047 223.729 168.725 223.689L168.13 223.591C168.061 223.587 167.993 223.573 167.928 223.552C167.995 223.541 168.063 223.541 168.13 223.552L168.732 223.617C169.058 223.646 169.381 223.699 169.699 223.774C170.141 223.853 170.578 223.958 171.007 224.089C172.18 224.431 173.323 224.869 174.425 225.398C175.733 226.006 177.138 226.811 178.701 227.688C180.385 228.674 182.132 229.548 183.93 230.306C186 231.168 188.226 231.593 190.467 231.557C192.93 231.46 195.359 230.955 197.658 230.064C200.13 229.108 202.533 227.979 204.848 226.687C207.26 225.378 209.614 224.108 211.993 223.074C213.16 222.562 214.354 222.112 215.569 221.726C216.741 221.371 217.939 221.104 219.151 220.927C221.399 220.613 223.686 220.729 225.891 221.268C227.801 221.756 229.665 222.413 231.46 223.231C234.729 224.691 237.343 225.96 239.187 226.805L241.272 227.8L241.815 228.068C241.978 228.166 242.043 228.199 242.037 228.205Z" fill="#FAFAFA"/>
</g>
<defs>
<clipPath id="clip0_4969_25576">
<rect width="394" height="258" fill="white"/>
</clipPath>
</defs>
</svg>
