<svg width="269" height="288" viewBox="0 0 269 288" fill="none" xmlns="http://www.w3.org/2000/svg">
<path d="M133.339 286.355L133.337 286.355C59.6288 285.926 0.898438 224.799 0.898438 151.21V5.17695C0.898438 2.84283 2.87919 0.953205 5.3504 0.75H60.9216C63.3083 0.75 65.3438 2.78633 65.3438 5.17695V18.7664V153.151C65.3438 191.311 96.0624 222.28 134.194 222.28C172.323 222.28 203.26 191.314 203.26 153.151V109.795V108.069V89.9495C203.26 87.5589 205.296 85.5226 207.682 85.5226H263.283C265.67 85.5226 267.705 87.5589 267.705 89.9495V152.72C267.705 226.941 207.485 286.999 133.339 286.355Z" stroke="white" stroke-width="1.5"/>
<path d="M263.276 61.4452H207.822C205.427 61.4452 203.394 59.4175 203.394 57.048V5.14719C203.394 2.77764 205.427 0.75 207.822 0.75H263.276C265.671 0.75 267.705 2.77763 267.705 5.14719V57.2624C267.705 59.5912 265.714 61.4452 263.276 61.4452Z" stroke="white" stroke-width="1.5"/>
</svg>
