<svg width="393" height="230" viewBox="0 0 393 230" fill="none" xmlns="http://www.w3.org/2000/svg">
<path d="M1.53951 227.368H390.984C391.835 227.368 392.524 227.568 392.524 227.814C392.524 228.06 391.835 228.26 390.984 228.26H1.53951C0.690398 228.26 0 228.06 0 227.814C0 227.568 0.690398 227.368 1.53951 227.368Z" fill="#817F7F"/>
<path d="M223.988 140.971L329.837 196.991L331.2 194.413L225.351 138.392L223.988 140.971Z" fill="#9BC1F9"/>
<path d="M284.812 226.117L282.59 226.098C282.883 204.542 283.142 171.807 282.652 169.97C282.682 170.062 282.733 170.146 282.799 170.217L284.604 169.171C284.896 169.496 285.072 169.693 285.134 178.856C285.164 183.574 285.153 190.089 285.098 198.22C285.001 212.064 284.813 225.979 284.812 226.117Z" fill="#13375B"/>
<path d="M303.343 167.141L302.148 166.129C306.524 160.958 308.93 151.104 309.106 137.631C309.172 131.225 308.805 124.821 308.009 118.464L309.56 118.246C310.365 124.676 310.736 131.152 310.671 137.631C310.591 143.746 310.061 149.176 309.093 153.77C307.863 159.578 305.928 164.076 303.343 167.141Z" fill="#184655"/>
<path d="M291.946 93.3534C292.593 93.3534 316.705 90.7336 317.134 93.9711C317.562 97.2086 318.427 122.451 314.118 123.315C309.809 124.179 288.883 120.298 288.883 120.298L291.946 93.3534Z" fill="#B75742"/>
<path d="M261.058 168.843C261.988 168.657 258.677 172.079 261.058 173.159C263.439 174.238 299.233 173.589 302.036 172.295C304.839 171.001 308.291 168.843 306.997 166.037C305.704 163.232 283.64 159.565 283.64 159.565L263.642 164.964C263.642 164.964 259.979 169.059 261.058 168.843Z" fill="#466EB6"/>
<path d="M269.171 223.657H298.413C298.524 223.657 298.634 223.679 298.737 223.722C298.839 223.764 298.932 223.826 299.01 223.905C299.089 223.983 299.151 224.076 299.193 224.179C299.236 224.281 299.258 224.391 299.258 224.502V226.115C299.258 226.154 299.242 226.192 299.215 226.22C299.187 226.247 299.149 226.263 299.11 226.263H268.479C268.459 226.263 268.44 226.259 268.422 226.252C268.404 226.244 268.388 226.233 268.374 226.22C268.361 226.206 268.35 226.19 268.342 226.172C268.335 226.154 268.331 226.135 268.331 226.115V224.51C268.33 224.399 268.351 224.288 268.393 224.185C268.434 224.082 268.496 223.988 268.574 223.909C268.652 223.83 268.745 223.767 268.847 223.724C268.95 223.68 269.06 223.658 269.171 223.657Z" fill="#346384"/>
<path d="M286.569 221.476H281.173C280.806 221.476 280.508 221.773 280.508 222.141V224.291C280.508 224.658 280.806 224.956 281.173 224.956H286.569C286.936 224.956 287.234 224.658 287.234 224.291V222.141C287.234 221.773 286.936 221.476 286.569 221.476Z" fill="#346384"/>
<path d="M269.779 160.155C270.491 159.8 289.573 146.413 289.573 146.413L266.217 144.125C266.217 144.125 229.702 149.123 224.376 153.564C223.992 153.882 223.64 154.2 223.314 154.485C222.053 155.633 221.25 157.199 221.051 158.893C220.852 160.587 221.272 162.295 222.233 163.704C225.833 168.996 223.578 168.444 229.693 177.138C236.932 187.421 253.89 207.816 253.89 207.816C255.944 210.336 258.739 213.85 258.769 214.306C258.815 215.033 258.491 222.97 257.658 223.697C256.825 224.425 254.395 224.941 255.179 225.761C255.769 226.379 260.32 226.247 263.335 226.079C264.216 226.031 265.319 219.005 265.668 217.972C266.175 216.471 267.414 213.094 266.938 212.048C266.713 211.538 265.64 210.492 264.129 209.507C263.162 208.883 260.542 205.519 258.631 202.97C258.631 202.97 241.228 170.386 239.427 169.112C237.625 167.839 230.585 159.793 230.585 159.793C230.585 159.793 242.33 164.239 242.871 164.239C243.412 164.239 269.061 160.511 269.779 160.155Z" fill="#F48C7F"/>
<path d="M264.048 209.463C264.048 209.463 259.37 222.642 257.541 223.277C257.055 223.445 254.722 223.874 254.281 224.906C254.149 225.223 254.281 226.255 254.281 226.255H264.032C264.032 226.255 265.266 220.45 265.753 217.899C265.753 217.899 268.335 211.665 268.048 211.098C267.761 210.531 264.048 209.463 264.048 209.463Z" fill="#0E2E35"/>
<path d="M291.946 146.617C291.946 146.617 271.738 144.658 264.794 146.617C257.85 148.576 229.896 157.127 227.938 159.264C225.979 161.401 200.696 212.296 200.684 212.318C199.3 215 197.913 217.558 197.351 218.18C196.586 219.03 195.697 219.879 194.811 220.419C194.462 220.632 193.494 221.246 193.224 221.372C189.148 223.339 188.118 223.958 186.842 224.895C186.063 225.468 185.425 226.089 186.392 226.073L204.148 225.799C204.148 225.799 204.931 225.481 205.616 224.211C206.302 222.941 205.107 221.156 204.84 219.798C204.653 218.857 205.316 217.156 206.237 215.394C206.237 215.394 230.607 186.712 231.142 184.573C231.677 182.434 236.484 169.256 236.484 169.256C248.229 169.256 283.939 169.878 289.943 164.267C295.947 158.656 291.946 146.617 291.946 146.617Z" fill="#F7A491"/>
<path d="M212.628 220.419C217.321 221.621 220.79 220.804 222.731 220.022C223.233 221.439 223.896 223.216 223.544 224.241C223.112 225.496 222.5 225.778 221.957 225.793C217.672 225.905 206.254 226.058 202.985 226.101C202.882 226.102 202.782 226.074 202.695 226.02C202.609 225.966 202.539 225.888 202.495 225.796C202.452 225.704 202.435 225.601 202.448 225.499C202.461 225.398 202.503 225.302 202.569 225.224C203.38 224.257 212.277 220.634 212.628 220.419Z" fill="#0E2E35"/>
<path d="M266.217 144.125C266.217 144.125 229.702 149.123 224.375 153.564L224.182 153.723L225.248 153.564C225.248 153.564 233.66 153.031 240.464 163.456C241.789 163.933 242.748 164.25 242.892 164.25C243.427 164.25 269.065 160.509 269.778 160.154C270.491 159.798 289.573 146.41 289.573 146.41L266.217 144.125Z" fill="#B75742"/>
<path d="M291.946 146.617C291.946 146.617 271.737 144.658 264.793 146.617C259.653 148.068 242.997 153.127 233.898 156.53C237.117 158.737 240.677 162.579 243.532 169.259C258.656 169.281 284.872 168.987 289.943 164.251C295.952 158.635 291.946 146.617 291.946 146.617Z" fill="#B75742"/>
<path d="M232.001 124.986L253.32 120.267C253.32 120.267 261.03 110.358 268.434 101.828C270.613 103.986 271.824 107.301 274.017 109.437L257.743 127.447C257.452 127.768 257.098 128.025 256.703 128.202C256.307 128.378 255.879 128.47 255.446 128.471L232.852 128.546L225.12 129.164V124.213L232.001 124.986Z" fill="#F48C7F"/>
<path d="M271.977 98.8208C268.249 97.8316 253.319 120.267 253.319 120.267C253.319 120.267 255.341 121.207 258.942 126.12L264.694 119.754L264.703 119.765C264.703 119.765 276.131 108.968 278.306 105.202C280.482 101.436 275.705 99.8116 271.977 98.8208Z" fill="#154EB0"/>
<path d="M263.78 72.8333C263.87 72.6507 263.926 72.5523 263.926 72.5523L263.918 72.476C264.186 71.8108 264.478 71.1502 264.802 70.4961C266.94 66.1582 272.231 63.6971 277.058 63.6908C278.517 63.681 279.971 63.8788 281.375 64.2783C283.35 65.1658 288.18 68.2477 289.437 77.3998C289.871 80.5727 289.258 83.8007 287.691 86.5931C288.991 87.4108 290.699 89.0653 291.937 92.4076C294.21 98.5476 305.575 99.9115 306.711 108.098C307.848 116.285 296.028 131.066 283.527 121.515C274.004 114.245 275.558 100.388 276.839 94.1844C273.871 94.594 270.68 94.0256 267.616 92.1806C263.715 89.8227 262.132 86.6423 261.708 83.5271C261.807 79.8879 262.435 76.2995 263.78 72.8333Z" fill="black"/>
<path d="M279.281 96.1118C279.281 96.1118 286.855 94.6161 290.31 97.5043C293.765 100.392 289.57 126.073 289.573 130.33C289.576 134.587 291.954 146.616 291.954 146.616C291.954 146.616 269.001 150.635 265.355 144.244C265.355 144.244 264.317 119.895 264.473 116.834C264.628 113.773 265.606 104.684 268.971 99.9082C269.906 98.5697 279.281 96.1118 279.281 96.1118Z" fill="#176CFF"/>
<path d="M275.205 94.0781C282.952 94.0781 288.47 87.0616 288.695 86.7647C288.799 86.6212 288.843 86.443 288.818 86.2677C288.793 86.0923 288.701 85.9336 288.561 85.825C288.421 85.7164 288.245 85.6665 288.069 85.6857C287.893 85.7049 287.731 85.7917 287.618 85.9279C287.565 85.9962 282.269 92.7126 275.2 92.7126C275.019 92.7126 274.845 92.7845 274.717 92.9126C274.589 93.0406 274.518 93.2143 274.518 93.3953C274.518 93.5764 274.589 93.7501 274.717 93.8781C274.845 94.0062 275.019 94.0781 275.2 94.0781H275.205Z" fill="#B75742"/>
<path d="M279.329 84.3932C279.329 84.3932 279.368 84.6202 279.44 85.0045C279.784 86.8542 281.106 92.9879 282 94.6757C283.08 96.7129 278.303 103.213 273.705 102.419C272.337 102.183 274.862 96.4477 274.742 95.8396C274.508 94.6773 274.194 93.0895 273.872 91.4636C273.689 90.5443 273.505 89.6138 273.332 88.7405C272.84 86.2541 272.44 84.2217 272.44 84.2217L279.329 84.3932Z" fill="#F7A491"/>
<path d="M279.44 85.0045C279.368 84.6202 279.329 84.3932 279.329 84.3932L272.44 84.2217C272.44 84.2217 272.84 86.2541 273.332 88.7405C273.504 89.6091 273.688 90.5347 273.869 91.4477C274.932 91.2889 276.043 90.7745 277.157 89.8012C278.296 88.8065 279.155 87.5311 279.649 86.1016C279.565 85.6666 279.494 85.2919 279.44 85.0045Z" fill="#F47458"/>
<path d="M251.762 205.22C251.762 205.22 258.729 213.576 258.775 214.304C258.821 215.031 258.497 222.968 257.664 223.696C256.831 224.423 254.401 224.939 255.185 225.76C255.776 226.377 260.326 226.246 263.341 226.077C264.222 226.03 265.325 219.004 265.674 217.97C266.181 216.469 267.42 213.092 266.944 212.046C266.719 211.536 265.646 210.49 264.135 209.505C262.548 208.478 256.46 200.009 256.46 200.009L251.762 205.22Z" fill="#F48C7F"/>
<path d="M264.048 209.463C264.048 209.463 259.37 222.642 257.541 223.277C257.055 223.445 254.722 223.874 254.281 224.906C254.149 225.223 254.281 226.255 254.281 226.255H264.032C264.032 226.255 265.266 220.45 265.753 217.899C265.753 217.899 268.335 211.665 268.048 211.098C267.761 210.531 264.048 209.463 264.048 209.463Z" fill="#184655"/>
<path d="M227.838 209.235C227.838 209.235 222.148 217.247 222.65 219.782C222.918 221.14 224.111 222.917 223.426 224.195C222.74 225.473 221.958 225.783 221.958 225.783L204.21 226.068C203.244 226.084 203.884 225.463 204.663 224.89C205.933 223.953 206.967 223.334 211.043 221.367C211.31 221.238 212.276 220.624 212.63 220.414C213.516 219.874 214.405 219.025 215.17 218.175C216.439 216.757 222.047 205.216 222.047 205.216L227.838 209.235Z" fill="#F7A491"/>
<path d="M212.628 220.419C217.321 221.621 220.79 220.804 222.731 220.022C223.233 221.439 223.896 223.216 223.544 224.241C223.112 225.496 222.5 225.778 221.957 225.793C217.672 225.905 206.254 226.058 202.985 226.101C202.882 226.102 202.782 226.074 202.695 226.02C202.609 225.966 202.539 225.888 202.495 225.796C202.452 225.704 202.435 225.601 202.448 225.499C202.461 225.398 202.503 225.302 202.569 225.224C203.38 224.257 212.277 220.634 212.628 220.419Z" fill="#184655"/>
<path d="M245.495 124.986L266.812 120.267C266.812 120.267 274.522 110.358 281.926 101.828C284.105 103.986 285.316 107.301 287.511 109.437L271.235 127.447C270.945 127.768 270.591 128.025 270.195 128.201C269.8 128.378 269.373 128.47 268.94 128.471L246.346 128.546L238.613 129.164V124.213L245.495 124.986Z" fill="#F7A491"/>
<path d="M201.699 100.709H236.857C237.312 100.709 237.758 100.846 238.136 101.1C238.513 101.355 238.807 101.716 238.979 102.138L249.805 128.553H269.188C269.317 128.553 269.445 128.578 269.564 128.627C269.683 128.677 269.791 128.749 269.882 128.84C269.973 128.931 270.045 129.039 270.094 129.158C270.144 129.277 270.169 129.405 270.169 129.534C270.169 129.794 270.066 130.044 269.882 130.228C269.698 130.412 269.448 130.515 269.188 130.515H214.021C213.279 130.515 212.552 130.3 211.929 129.897C211.306 129.494 210.812 128.919 210.508 128.241L199.607 103.948C199.449 103.599 199.381 103.215 199.409 102.832C199.438 102.449 199.561 102.08 199.77 101.758C199.978 101.435 200.264 101.17 200.601 100.987C200.938 100.804 201.315 100.708 201.699 100.709Z" fill="#2C374A"/>
<path d="M220.629 116.091C220.865 117.278 221.899 118.071 222.94 117.863C223.981 117.655 224.627 116.526 224.39 115.338C224.154 114.15 223.121 113.36 222.079 113.566C221.038 113.772 220.391 114.904 220.629 116.091Z" fill="white"/>
<path d="M273.369 67.6035C273.369 67.6035 277.086 67.186 279.416 70.117C281.746 73.0481 284.256 82.1128 278.463 87.0397C272.67 91.9667 266.958 86.3903 266.109 80.4758C265.26 74.5613 264.935 67.3892 273.369 67.6035Z" fill="#F7A491"/>
<path d="M264.404 80.3884C265.094 81.6936 266.253 82.4176 266.993 82.0032C267.732 81.5888 267.772 80.1947 267.081 78.8879C266.391 77.5812 265.231 76.8587 264.491 77.2731C263.752 77.6876 263.712 79.0864 264.404 80.3884Z" fill="#F7A491"/>
<path d="M272.954 66.6356C272.954 66.6356 277.918 75.2542 281.472 75.6527C285.025 76.0513 285.49 80.632 285.49 80.632C285.49 80.632 284.221 70.078 280.704 68.0424C277.186 66.0069 272.954 66.6356 272.954 66.6356Z" fill="black"/>
<path d="M280.539 77.8167C280.251 79.3474 280.832 80.751 281.836 80.9526C282.841 81.1543 283.899 80.0762 284.18 78.5439C284.461 77.0117 283.888 75.6097 282.884 75.4096C281.879 75.2096 280.828 76.2877 280.539 77.8167Z" fill="#F7A491"/>
<path d="M276.275 82.9189L270.985 84.0495C270.985 84.0495 271.536 86.0326 273.877 85.6023C276.731 85.0783 276.275 82.9189 276.275 82.9189Z" fill="white"/>
<path d="M288.334 96.2975C284.606 95.3067 272.441 113.196 272.441 113.198C269.129 117.291 266.813 120.267 266.813 120.267C266.813 120.267 268.835 121.207 272.436 126.119L278.188 119.754L278.197 119.765C278.197 119.765 289.625 108.968 291.801 105.202C293.977 101.436 292.063 97.2867 288.334 96.2975Z" fill="#154EB0"/>
<path d="M210.776 227.372H125.909L103.99 133.876H210.776V227.372Z" fill="#7D97F4"/>
<path d="M331.825 133.876H209.521V227.373H331.825V133.876Z" fill="#91B3FA"/>
<path d="M334.204 130.491H92.0186V133.875H334.204V130.491Z" fill="#13375B"/>
<path d="M230.598 0H154.639C154.015 -3.48408e-08 153.398 0.122973 152.821 0.361896C152.245 0.600819 151.721 0.951013 151.28 1.39247C150.839 1.83393 150.489 2.358 150.25 2.93475C150.012 3.51151 149.889 4.12965 149.889 4.75386V36.1128C149.889 37.3732 150.39 38.5819 151.28 39.4732C152.171 40.3644 153.38 40.8651 154.639 40.8651H214.441C216.861 44.2439 221.249 50.295 221.637 50.295C222 50.295 221.302 44.5789 220.81 40.8651H230.598C231.857 40.8651 233.066 40.3644 233.956 39.4732C234.847 38.5819 235.348 37.3732 235.348 36.1128V4.75386C235.348 4.12965 235.225 3.51151 234.987 2.93475C234.748 2.358 234.398 1.83393 233.957 1.39247C233.516 0.951013 232.992 0.600819 232.416 0.361896C231.839 0.122973 231.221 -3.48408e-08 230.598 0Z" fill="#1FC9AA"/>
<path d="M181.987 10.1689H160.512C160.029 10.1689 159.639 10.5599 159.639 11.0422V11.3661C159.639 11.8484 160.029 12.2394 160.512 12.2394H181.987C182.469 12.2394 182.86 11.8484 182.86 11.3661V11.0422C182.86 10.5599 182.469 10.1689 181.987 10.1689Z" fill="white"/>
<path d="M160.512 16.9326H174.45C174.681 16.9326 174.903 17.0246 175.067 17.1884C175.231 17.3522 175.323 17.5743 175.323 17.8059V18.1235C175.323 18.3551 175.231 18.5772 175.067 18.741C174.903 18.9047 174.681 18.9967 174.45 18.9967H160.512C160.28 18.9967 160.058 18.9047 159.894 18.741C159.731 18.5772 159.639 18.3551 159.639 18.1235V17.8059C159.639 17.5744 159.731 17.3525 159.895 17.1889C160.058 17.0252 160.28 16.933 160.512 16.9326Z" fill="white"/>
<path d="M195.649 16.9326H178.093C177.611 16.9326 177.22 17.3236 177.22 17.8059V18.1298C177.22 18.6121 177.611 19.0031 178.093 19.0031H195.649C196.131 19.0031 196.522 18.6121 196.522 18.1298V17.8059C196.522 17.3236 196.131 16.9326 195.649 16.9326Z" fill="white"/>
<path d="M199.841 16.9326H225.076C225.308 16.9326 225.53 17.0248 225.694 17.1889C225.858 17.3529 225.95 17.5755 225.95 17.8075V18.1251C225.95 18.3567 225.858 18.5788 225.695 18.7426C225.531 18.9063 225.309 18.9983 225.077 18.9983H199.842C199.611 18.9983 199.389 18.9063 199.225 18.7426C199.061 18.5788 198.969 18.3567 198.969 18.1251V17.8075C198.969 17.6928 198.991 17.5792 199.035 17.4732C199.079 17.3671 199.143 17.2708 199.224 17.1895C199.305 17.1083 199.401 17.0438 199.507 16.9997C199.612 16.9556 199.726 16.9328 199.841 16.9326Z" fill="white"/>
<path d="M225.184 10.1689H187.982C187.5 10.1689 187.109 10.5599 187.109 11.0422V11.3661C187.109 11.8484 187.5 12.2394 187.982 12.2394H225.184C225.666 12.2394 226.057 11.8484 226.057 11.3661V11.0422C226.057 10.5599 225.666 10.1689 225.184 10.1689Z" fill="white"/>
<path d="M225.185 30.1748H160.512C160.029 30.1748 159.639 30.5658 159.639 31.0481V31.372C159.639 31.8543 160.029 32.2453 160.512 32.2453H225.185C225.667 32.2453 226.058 31.8543 226.058 31.372V31.0481C226.058 30.5658 225.667 30.1748 225.185 30.1748Z" fill="white"/>
<path d="M193.078 23.6318H160.512C160.029 23.6318 159.639 24.0228 159.639 24.5051V24.829C159.639 25.3113 160.029 25.7023 160.512 25.7023H193.078C193.56 25.7023 193.951 25.3113 193.951 24.829V24.5051C193.951 24.0228 193.56 23.6318 193.078 23.6318Z" fill="white"/>
<path d="M225.184 23.6318H196.526C196.044 23.6318 195.653 24.0228 195.653 24.5051V24.829C195.653 25.3113 196.044 25.7023 196.526 25.7023H225.184C225.667 25.7023 226.057 25.3113 226.057 24.829V24.5051C226.057 24.0228 225.667 23.6318 225.184 23.6318Z" fill="white"/>
<path d="M331.825 164.262H209.521V179.076H331.825V164.262Z" fill="#BFCCFA"/>
<path d="M331.825 183.798H209.521V187.066H331.825V183.798Z" fill="#BFCCFA"/>
<path d="M79.572 78.7679C92.2039 84.079 96.2701 72.4754 95.9542 72.7819C96.1939 72.5199 98.0953 71.6704 99.311 71.0623C104.374 68.5218 107.434 62.6311 107.318 56.6991C114.582 52.1818 116.476 42.6154 111.492 37.328C113.025 31.4532 108.983 24.9956 103.842 22.0153C99.9506 15.0846 90.1311 18.0459 84.8396 23.4872C82.1574 26.2436 80.6036 30.283 80.6448 34.308C74.4186 36.9422 71.1602 43.9555 72.5759 51.0307C64.1753 58.0932 66.6813 73.3456 79.572 78.7679Z" fill="black"/>
<path d="M66.5939 119.353L64.437 118.797C64.4783 118.638 68.5746 102.004 72.9408 85.4532C75.5056 75.728 77.6625 67.9303 79.348 62.2714C82.681 51.1267 83.4127 50.817 84.065 50.5439L84.9077 52.6494C84.9975 52.614 85.0786 52.5599 85.1458 52.4906C84.6141 53.1051 82.5445 57.6986 74.8295 87.0394C70.5633 103.24 66.6336 119.194 66.5939 119.353Z" fill="#B75742"/>
<path d="M139.494 118.87C139.494 118.87 138.523 118.095 138.224 117.813C137.869 117.481 136.882 116.406 136.882 116.406C136.882 116.406 133.62 112.5 133.926 112.278C134.233 112.055 135.167 112.416 135.451 112.586C135.736 112.755 136.086 112.929 136.374 113.098C136.661 113.268 137.021 113.195 137.258 112.854C137.494 112.513 136.502 111.584 136.096 111.334C134.826 110.55 131.017 109.137 130.627 108.97C130.151 108.773 125.743 100.952 124.018 98.3923C121.32 94.1195 118.758 89.5911 118.474 89.137L112.665 68.2687L104.215 67.4287C104.215 67.4287 110.337 90.6772 110.775 91.8109C110.983 92.3476 118.004 101.765 118.007 101.762C121.756 106.18 125.07 110.064 125.684 110.829C125.684 110.829 126.913 113.611 127.589 115.434C128.265 117.257 129.619 118.651 129.889 119.132C130.555 120.39 131.432 121.524 132.482 122.485C133.963 123.843 133.176 121.863 133.176 121.863C133.176 121.863 130.881 118.846 131.147 118.699C131.354 118.587 132.511 120.312 134.134 121.831C134.552 122.222 134.966 122.606 135.348 122.955C136.353 123.873 137.201 123.505 136.301 122.373C135.899 121.856 135.46 121.369 134.988 120.915C134.499 120.475 134.194 119.91 133.837 119.475C133.133 118.613 132.609 117.994 132.66 117.982C132.711 117.971 132.707 117.697 133.163 118.098C133.71 118.575 134.65 119.866 135.512 120.51C135.999 120.875 136.974 121.703 136.974 121.703C136.974 121.703 138.697 122.867 138.788 122.784C139.275 122.336 138.278 121.144 137.551 120.737C137.221 120.234 136.172 119.394 136.172 119.394C136.172 119.394 134.426 117.209 134.734 116.952C134.983 116.741 140.156 121.15 140.614 120.666C140.989 120.267 139.494 118.87 139.494 118.87Z" fill="#F7A491"/>
<path d="M130.201 112.664C130.201 112.664 132.798 113.655 133.89 112.316C133.89 112.316 133.56 113.31 132.515 113.495C131.471 113.679 130.201 112.664 130.201 112.664Z" fill="#F47458"/>
<path d="M94.002 124.772L98.7887 169.051C98.7887 169.051 96.4493 178.419 96.7255 181.076C97.0016 183.732 101.938 218.632 101.938 218.632L101.715 220.548L101.596 226.226L119.989 226.369C119.989 226.369 116.114 224.572 110.691 221.02C110.289 220.756 109.365 219.919 109.14 218.249C107.692 207.493 110.557 171.617 110.557 171.617L112.814 124.917L94.002 124.772Z" fill="#F7A491"/>
<path d="M83.5353 133.164C82.5037 133.434 80.9166 171.43 80.0627 173.121C74.6458 183.799 73.3587 216.263 73.3587 216.263L71.124 220.809L71.6367 225.189C71.6367 225.189 75.6791 227.587 78.5153 225.969L78.0772 221.584L77.7423 215.723L91.4059 175.277L98.8828 134.025L83.5353 133.164Z" fill="#F7A491"/>
<path d="M118.546 153.762L119.195 127.543C119.308 120.132 116.922 113.022 113.993 106.266L107.792 95.4691C105.795 96.1264 104.694 90.0102 102.596 90.2531C101.008 90.4373 99.9276 90.8152 98.4579 90.9057C95.6868 91.0756 94.006 96.6789 91.0381 96.3265C91.0254 96.5043 89.1827 97.2109 89.1335 97.3379C87.7147 101.307 84.0928 105.54 82.1597 117.306C79.9647 130.663 79.9743 153.617 80.2552 155.184C101.235 156.15 106.236 156.909 118.546 153.762Z" fill="#2C374A"/>
<path d="M101.503 227.686H120.491C121.194 227.621 121.366 227.027 121.126 226.661C120.625 225.906 118.411 225.354 115.92 224.154C111.553 224.63 102.414 221.295 101.725 220.254C101.322 222.353 101.113 227.597 101.503 227.686Z" fill="#184655"/>
<path d="M71.1365 220.796C71.1365 220.796 72.8221 225.755 74.6457 225.612C76.4693 225.469 78.0643 221.56 78.0643 221.56C78.0643 221.56 78.7484 224.85 78.4294 226.661C78.1104 228.473 75.5122 230.332 73.7347 229.519C71.9571 228.706 69.5399 224.515 71.1365 220.796Z" fill="#184655"/>
<path d="M106.434 78.5091C108.199 78.2589 109.935 77.8394 111.62 77.2563C113.142 76.7069 115.672 75.5097 115.672 75.5097C115.672 75.5097 114.243 63.1567 110.672 55.6766C109.193 52.5851 107.698 51.0926 105.611 50.7354C105.589 50.7306 106.434 78.5091 106.434 78.5091Z" fill="#169780"/>
<path d="M111.03 64.5291C110.494 62.5253 109.296 59.8912 108.612 58.0732C107.453 54.9881 107.107 52.1062 106.085 50.8709C105.533 50.2056 98.4476 50.3057 97.5779 50.2168C97.2192 50.1786 95.8019 50.2723 94.429 50.3581C93.6243 50.4502 85.6427 51.0948 84.4841 51.6093C78.734 57.3745 75.9517 65.1373 71.6284 73.6193C71.6284 73.6193 74.8677 75.5246 77.4484 76.7266C78.5705 77.2474 80.7194 78.0825 80.7194 78.0825L85.7046 69.4957C85.7586 69.4529 86.022 69.1703 86.0919 69.3529C86.2077 69.6387 89.847 96.3978 89.847 96.3978C89.847 96.3978 104.599 97.6378 108.061 95.9357C108.061 95.9357 108.696 78.0714 109.976 72.8285C110.449 70.8978 111.894 67.7571 111.03 64.5291Z" fill="#1FC9AA"/>
<path d="M93.4595 42.1461C93.4595 42.1461 94.5705 48.3782 94.3435 50.8361C94.1165 53.294 95.1878 61.2171 99.9651 61.2425C104.742 61.2679 101.497 53.0177 101.046 50.6043C100.595 48.1908 99.8746 38.8975 99.8746 38.8975L93.4595 42.1461Z" fill="#F7A491"/>
<path d="M93.9245 45.128C96.2957 47.1206 98.9065 47.7415 100.614 47.2175C100.238 43.6291 99.8667 38.8975 99.8667 38.8975L93.4595 42.1461C93.4595 42.1461 93.6928 43.4655 93.9245 45.128Z" fill="#F47458"/>
<path d="M97.0671 25.4799C97.0671 25.4799 93.3516 25.8832 91.7185 29.2493C90.0853 32.6154 90.8948 42.736 97.0433 45.6401C101.901 47.9344 106.46 42.3391 106.504 36.3705C106.541 31.3452 105.241 23.4316 97.0671 25.4799Z" fill="#F7A491"/>
<path d="M98.4872 23.0234C97.8349 30.232 92.9323 33.9522 90.7357 34.7731C87.7202 31.5023 88.901 27.3597 91.3705 25.4226C93.8401 23.4855 98.4872 23.0234 98.4872 23.0234Z" fill="black"/>
<path d="M92.6818 37.0091C93.296 38.4381 93.0357 39.9338 92.0993 40.3435C91.1629 40.7531 89.9043 39.937 89.2885 38.5064C88.6727 37.0758 88.9345 35.5817 89.871 35.172C90.8074 34.7624 92.0659 35.5801 92.6818 37.0091Z" fill="#F7A491"/>
<path d="M97.5713 41.0465L102.968 40.9941C102.968 40.9941 102.863 43.0487 100.487 43.1408C97.5967 43.252 97.5713 41.0465 97.5713 41.0465Z" fill="white"/>
<path d="M87.8946 119.258V127.761C87.8946 132.181 84.7822 135.765 80.943 135.765H73.793V115.939H85.0155C85.3913 115.944 85.762 116.027 86.1035 116.184C86.4451 116.341 86.7497 116.568 86.9978 116.851C87.5866 117.513 87.9065 118.372 87.8946 119.258Z" fill="#B75742"/>
<path d="M86.9984 116.851H86.9507C85.4747 116.851 84.2796 118.229 84.2796 119.926V126.181C84.2796 131.471 80.5562 135.76 75.9615 135.76H71.6096C67.0149 135.76 63.2915 131.473 63.2915 126.181V119.958C63.2915 117.735 64.8548 115.939 66.7832 115.939H85.016C85.3919 115.944 85.7626 116.027 86.1041 116.184C86.4456 116.341 86.7503 116.568 86.9984 116.851Z" fill="#F47458"/>
<path d="M87.9141 119.079L85.6921 119.068C85.6921 118.909 85.7619 103.133 85.5508 87.044C85.427 77.6014 85.2334 69.8958 84.9715 64.1607C84.5256 54.3513 83.9812 52.592 83.8256 52.3062C83.7987 51.7775 84.0669 50.5596 84.0669 50.5596C84.2624 50.4782 84.4753 50.4474 84.6859 50.4702C84.8965 50.4929 85.0979 50.5685 85.2715 50.6898C85.8445 51.0852 86.2 51.8426 86.5523 54.8848C86.7697 56.7679 86.9665 59.4402 87.1332 62.8238C87.4157 68.5017 87.6268 76.2898 87.7601 85.9706C87.9871 102.441 87.9157 118.916 87.9141 119.079Z" fill="#B75742"/>
<path d="M99.0801 103.971C99.3658 104.032 101.324 104.148 101.324 104.148C101.324 104.148 104.195 102.401 104.606 103.23C104.732 103.478 101.631 105.245 101.631 105.245C101.631 105.245 98.6326 105.343 97.9152 105.323C96.5804 105.289 93.7744 104.91 89.6002 101.802C85.9895 99.9591 67.844 89.3685 67.5773 87.3535C67.4186 86.1627 70.1802 79.9465 72.8561 74.3193C74.0369 74.9783 75.8716 75.9833 77.4588 76.7248C78.2095 77.071 79.4173 77.5584 80.1346 77.8363C78.3999 81.185 76.7588 84.6337 76.9731 85.3466C77.1588 85.9722 92.6555 97.8044 92.6555 97.8044L95.7519 97.3805C95.7519 97.3805 101.212 98.0283 101.339 98.6825C101.466 99.3366 99.0341 99.1588 98.7119 99.2588C98.413 99.3472 98.1278 99.4765 97.8644 99.6431C98.7611 100.072 100.183 100.755 100.981 100.791C102.815 100.856 104.937 100.588 105.167 100.851C105.435 101.158 102.651 102.004 100.686 102.122C99.8832 102.164 99.396 101.918 99.0452 101.983C98.5691 102.084 99.4071 102.46 100.747 102.385C101.513 102.336 102.848 101.909 103.691 101.791C105.075 101.594 105.851 101.704 105.967 101.825C106.157 102.023 102.039 103.346 102.039 103.346C102.039 103.346 99.3579 103.697 98.7452 103.663C98.7373 103.674 98.3643 103.828 99.0801 103.971Z" fill="#F8A492"/>
</svg>
