<svg width="14" height="15" viewBox="0 0 14 15" fill="none" xmlns="http://www.w3.org/2000/svg">
<path d="M7 0.282715C5.09893 0.282715 4.86049 0.290781 4.11387 0.324824C3.36875 0.358867 2.85988 0.477129 2.41473 0.650215C1.95439 0.829043 1.56406 1.06844 1.17496 1.45768C0.785859 1.84678 0.546465 2.23725 0.3675 2.69744C0.194414 3.14273 0.0761523 3.6516 0.0421094 4.39658C0.0080664 5.1432 0 5.38164 0 7.28271C0 9.18379 0.0080664 9.42209 0.0421094 10.1687C0.0761523 10.9138 0.194414 11.4227 0.3675 11.8679C0.546328 12.3282 0.785723 12.7185 1.17496 13.1078C1.56406 13.4969 1.95453 13.7362 2.41473 13.9151C2.86002 14.0882 3.36889 14.2064 4.11387 14.2405C4.86049 14.2745 5.09893 14.2826 7 14.2826C8.90107 14.2826 9.13937 14.2745 9.886 14.2405C10.6311 14.2064 11.14 14.0882 11.5851 13.9151C12.0455 13.7362 12.4358 13.4969 12.825 13.1078C13.2141 12.7185 13.4535 12.3282 13.6324 11.8679C13.8054 11.4226 13.9237 10.9137 13.9578 10.1687C13.9918 9.42209 13.9999 9.18365 13.9999 7.28271C13.9999 5.38164 13.9918 5.1432 13.9578 4.39658C13.9237 3.65146 13.8054 3.1426 13.6324 2.69744C13.4535 2.23711 13.2141 1.84678 12.825 1.45768C12.4358 1.06857 12.0455 0.82918 11.5851 0.650215C11.1398 0.477129 10.631 0.358867 9.886 0.324824C9.13937 0.290781 8.90107 0.282715 7 0.282715ZM7 1.54395C8.86908 1.54395 9.09043 1.55105 9.82857 1.58469C10.5111 1.61586 10.8817 1.72988 11.1284 1.82572C11.4551 1.95273 11.6882 2.10436 11.9332 2.34936C12.1782 2.59436 12.3298 2.82746 12.4569 3.15422C12.5527 3.40086 12.6667 3.7715 12.6979 4.454C12.7315 5.19215 12.7386 5.4135 12.7386 7.28258C12.7386 9.15166 12.7315 9.37301 12.6979 10.1112C12.6667 10.7937 12.5527 11.1643 12.4569 11.4109C12.3298 11.7377 12.1782 11.9708 11.9332 12.2158C11.6882 12.4608 11.4551 12.6124 11.1284 12.7394C10.8817 12.8353 10.5111 12.9493 9.82857 12.9805C9.09057 13.0141 8.86922 13.0213 7 13.0213C5.13078 13.0213 4.90943 13.0142 4.17143 12.9805C3.48893 12.9493 3.11828 12.8353 2.87164 12.7394C2.54488 12.6124 2.31178 12.4608 2.06678 12.2158C1.82178 11.9708 1.67016 11.7377 1.54314 11.4109C1.4473 11.1643 1.33328 10.7937 1.30211 10.1112C1.26848 9.37301 1.26137 9.15166 1.26137 7.28258C1.26137 5.4135 1.26848 5.19215 1.30211 4.454C1.33328 3.7715 1.4473 3.40086 1.54314 3.15422C1.67016 2.82746 1.82178 2.59436 2.06678 2.34936C2.31178 2.10436 2.54488 1.95273 2.87164 1.82572C3.11828 1.72988 3.48893 1.61586 4.17143 1.58469C4.90957 1.55105 5.13092 1.54395 7 1.54395Z" fill="#050505"/>
<path d="M6.99988 9.61584C5.71117 9.61584 4.6665 8.57117 4.6665 7.2826C4.6665 5.99389 5.71117 4.94922 6.99988 4.94922C8.28846 4.94922 9.33313 5.99389 9.33313 7.2826C9.33313 8.57117 8.28846 9.61584 6.99988 9.61584ZM6.99988 3.68799C5.01459 3.68799 3.40527 5.2973 3.40527 7.2826C3.40527 9.26775 5.01459 10.8772 6.99988 10.8772C8.98504 10.8772 10.5945 9.26789 10.5945 7.2826C10.5945 5.2973 8.98504 3.68799 6.99988 3.68799Z" fill="#050505"/>
<path d="M11.5765 3.54605C11.5765 4.00994 11.2004 4.38605 10.7365 4.38605C10.2726 4.38605 9.89648 4.00994 9.89648 3.54605C9.89648 3.08217 10.2726 2.70605 10.7365 2.70605C11.2004 2.70605 11.5765 3.08217 11.5765 3.54605Z" fill="#050505"/>
</svg>
