<svg width="13" height="13" viewBox="0 0 13 13" fill="none" xmlns="http://www.w3.org/2000/svg">
<path d="M2.95126 4.18652H0.164062V12.2826H2.95126V4.18652Z" fill="#050505"/>
<path d="M1.57658 0.282715C0.623025 0.282715 0 0.888129 0 1.68169C0 2.45847 0.604175 3.08067 1.53969 3.08067H1.55773C2.52964 3.08067 3.13446 2.45863 3.13446 1.68169C3.11643 0.888129 2.52964 0.282715 1.57658 0.282715Z" fill="#050505"/>
<path d="M9.79213 3.99609C8.3137 3.99609 7.65152 4.78119 7.28069 5.33277V4.18644H4.49414C4.53103 4.9458 4.49414 12.2825 4.49414 12.2825H7.28053V7.76118C7.28053 7.5192 7.29857 7.27722 7.37234 7.10429C7.57352 6.62097 8.03225 6.12038 8.80218 6.12038C9.81 6.12038 10.2138 6.8631 10.2138 7.9509V12.2826H13.0005V7.63988C13.0005 5.15294 11.6256 3.99609 9.79213 3.99609Z" fill="#050505"/>
</svg>
