<svg width="15" height="13" viewBox="0 0 15 13" fill="none" xmlns="http://www.w3.org/2000/svg">
<path d="M4.70624 13C10.3703 13 13.4674 7.99738 13.4674 3.66183C13.4674 3.51879 13.4674 3.37602 13.4609 3.2399C14.0611 2.77702 14.5849 2.19848 15 1.53833C14.4507 1.79702 13.8571 1.97382 13.2312 2.05571C13.8698 1.64733 14.3552 1.00765 14.5849 0.238486C13.991 0.612831 13.3332 0.885083 12.6308 1.03477C12.069 0.394818 11.2708 0 10.3833 0C8.6846 0 7.30543 1.47026 7.30543 3.28058C7.30543 3.53927 7.33088 3.79105 7.3885 4.02927C4.82772 3.89314 2.56078 2.58639 1.04093 0.599006C0.77901 1.08209 0.625852 1.64707 0.625852 2.24607C0.625852 3.38267 1.16864 4.39005 1.99879 4.9755C1.49441 4.96194 1.02172 4.81225 0.606645 4.56712V4.60807C0.606645 6.20063 1.66678 7.52121 3.07788 7.82749C2.82245 7.90247 2.54781 7.94314 2.26694 7.94314C2.06888 7.94314 1.87731 7.92267 1.68574 7.88199C2.07537 9.18875 3.21183 10.135 4.55932 10.1621C3.50567 11.04 2.17739 11.5643 0.73436 11.5643C0.485416 11.5643 0.242708 11.5507 0 11.5167C1.34749 12.4555 2.96937 13 4.70624 13Z" fill="#050505"/>
</svg>
