<svg width="17" height="12" viewBox="0 0 17 12" fill="none" xmlns="http://www.w3.org/2000/svg">
<path d="M16.6447 10.1262C16.4492 10.8638 15.8733 11.4445 15.1418 11.6417C13.816 12 8.5 12 8.5 12C8.5 12 3.18401 12 1.85805 11.6417C1.12675 11.4447 0.550674 10.8638 0.355107 10.1262C0 8.78923 0 6 0 6C0 6 0 3.2106 0.355107 1.874C0.550674 1.13638 1.12675 0.555469 1.85805 0.358259C3.18401 -2.08616e-08 8.5 5.85829e-07 8.5 5.85829e-07C8.5 5.85829e-07 13.816 8.41277e-07 15.1418 0.358092C15.8733 0.555135 16.4492 1.13622 16.6447 1.87383C17 3.2106 17 6 17 6C17 6 17 8.78923 16.6447 10.1262Z" fill="#050505"/>
<path d="M6.7998 3.42843L11.2165 5.99986L6.7998 8.57129V3.42843Z" fill="white"/>
</svg>
