<svg width="574" height="389" viewBox="0 0 574 389" fill="none" xmlns="http://www.w3.org/2000/svg">
<path d="M574 387H0C17.9638 238.142 139.597 123 286.99 123C434.384 123 556.026 238.142 574 387Z" fill="#F8F8F8"/>
<path d="M434.489 229.582C435.395 207.262 437.35 187.911 439.69 174.391C443.417 152.843 446.771 140.445 446.812 140.31C447.299 138.416 454.394 130.746 470.16 130.983C485.925 131.22 484.431 141.277 484.431 141.277C484.438 141.578 484.401 141.879 484.323 142.17C484.167 142.691 469.693 195.175 470.322 262.939C470.322 263.886 470.437 265.536 470.369 266.625C470.369 266.625 433.846 267.572 433.846 266.625C432.541 260.694 433.163 244.265 434.489 229.582Z" fill="#D1A586"/>
<path d="M429.897 262.567C429.897 263.514 430.405 264.271 431.013 264.271C431.622 264.271 432.109 263.5 432.116 262.567H463.431C463.431 263.514 463.938 264.271 464.547 264.271C465.169 264.271 465.656 263.473 465.649 262.52C465.505 244.652 466.372 226.79 468.247 209.02C472.413 169.156 480.11 142.508 480.218 142.136C480.296 141.845 480.335 141.544 480.333 141.243C480.333 141.243 481.828 131.186 466.055 130.949C450.283 130.712 443.194 138.389 442.701 140.276C442.701 140.377 440.773 147.398 438.25 160.019C437.412 164.198 436.512 169 435.585 174.357C433.245 187.884 431.291 207.262 430.384 229.547C429.086 244.265 428.626 256.635 429.897 262.567Z" fill="#E5BD9E"/>
<path d="M429.897 262.567C429.897 263.514 430.405 264.271 431.013 264.271C431.622 264.271 432.109 263.5 432.116 262.567H463.431C463.431 263.514 463.938 264.271 464.547 264.271C465.169 264.271 465.656 263.473 465.649 262.519C465.505 244.652 466.372 226.79 468.247 209.02C463.072 183.718 443.059 164.381 438.25 160.018C437.412 164.198 436.512 169 435.585 174.357C433.245 187.884 431.291 207.261 430.384 229.547C429.086 244.265 428.626 256.635 429.897 262.567Z" fill="#DFB697"/>
<path d="M461.475 262.215H461.401L461.346 262.161C461.327 262.145 461.312 262.124 461.303 262.1C461.293 262.077 461.29 262.051 461.292 262.026V261.945C461.252 260.68 458.648 260.43 454.468 260.43H451.465C450.261 260.43 448.983 260.43 447.65 260.43C442.809 260.5 437.971 260.154 433.19 259.395C429.808 258.806 432.101 232.916 434.488 208.668C434.894 204.549 435.212 201.303 435.361 199.389C436.896 179.098 445.905 142.224 445.993 141.899C446.385 140.377 451.79 134.635 463.524 134.831C467.934 134.899 471.066 135.988 472.838 138.071C473.381 138.702 473.792 139.437 474.045 140.23C474.298 141.024 474.389 141.861 474.312 142.69C474.313 142.919 474.284 143.146 474.224 143.367C474.177 143.563 466.074 190.833 464.755 202.209C462.496 221.533 461.671 261.214 461.658 261.809V262.066L461.475 262.215ZM454.468 260.058C458.134 260.058 460.481 260.247 461.313 261.113C461.441 255.289 462.307 220.133 464.39 202.27C465.743 190.63 473.859 143.509 473.859 143.36C473.91 143.159 473.935 142.952 473.933 142.744C474 141.961 473.912 141.173 473.672 140.424C473.433 139.675 473.048 138.981 472.54 138.382C470.836 136.353 467.806 135.338 463.497 135.271H462.976C451.803 135.271 446.69 140.634 446.318 142.075C446.23 142.413 437.248 178.922 435.699 199.463C435.55 201.384 435.232 204.631 434.827 208.75C433.23 224.887 429.916 258.475 433.237 259.057C437.997 259.811 442.812 260.155 447.63 260.085C448.983 260.085 450.241 260.085 451.438 260.085C452.527 260.071 453.535 260.058 454.468 260.058Z" fill="#D1A586"/>
<path d="M467.989 264.271H345.21C345.21 264.271 348.071 252.699 419.176 254.423C469.497 255.641 467.989 264.271 467.989 264.271Z" fill="#E5BD9E"/>
<path d="M477.985 385.142C463.782 313.077 467.407 268.857 467.427 268.302C467.461 267.193 465.398 266.186 464.316 266.145C463.234 266.104 458.29 265.82 457.722 266.767C456.978 268.012 454.11 322.499 475.307 385.129L477.985 385.142Z" fill="#D1A586"/>
<path d="M363.35 385.142C377.553 313.077 373.922 268.857 373.908 268.302C373.867 267.193 375.937 266.186 377.012 266.145C378.088 266.104 383.046 265.82 383.614 266.767C384.358 268.012 387.225 322.499 366.029 385.129L363.35 385.142Z" fill="#D1A586"/>
<path d="M340.63 385.142C354.868 313.077 351.202 268.857 351.188 268.302C351.188 267.193 353.217 266.186 354.293 266.145C355.368 266.104 360.326 265.82 360.894 266.767C361.638 268.012 364.506 322.499 343.309 385.129L340.63 385.142Z" fill="#A0795F"/>
<path d="M455.111 385.142C440.907 313.077 444.539 268.857 444.553 268.302C444.593 267.193 442.524 266.186 441.448 266.145C440.373 266.104 435.422 265.82 434.854 266.767C434.103 268.012 431.242 322.499 452.439 385.129L455.111 385.142Z" fill="#A0795F"/>
<path d="M345.143 267.964H467.915C469.304 267.964 470.431 266.838 470.431 265.448V263.798C470.431 262.408 469.304 261.282 467.915 261.282H345.143C343.754 261.282 342.627 262.408 342.627 263.798V265.448C342.627 266.838 343.754 267.964 345.143 267.964Z" fill="#D1A586"/>
<path d="M321.687 157.212C316.472 154.175 313.882 151.74 310.087 151.192C306.293 150.644 299.421 150.218 298.461 148.771C296.114 145.227 293.645 138.308 295.383 138.761C297.122 139.214 303.615 143.692 305.657 142.988C307.7 142.285 302.539 140.634 303.784 139.606C305.028 138.578 310.71 141.128 312.008 144.03C312.468 145.044 328.626 150.07 328.626 150.07L321.687 157.212Z" fill="#FFB27D"/>
<path d="M395.47 341.423C395.945 341.935 396.261 342.574 396.381 343.261C396.501 343.949 396.42 344.656 396.147 345.299C395.213 347.883 392.089 350.771 388.531 353.652C388.071 354.024 387.665 354.328 387.307 354.673L387.036 354.917L386.82 355.113C383.472 358.197 384.737 358.9 378.704 365.163C371.845 372.299 367.125 372.427 365.785 371.778C364.649 371.223 366.955 367.443 369.512 363.188C369.641 362.986 369.762 362.776 369.884 362.566C370.229 362.005 370.56 361.43 370.905 360.862C373.902 355.742 373.13 353.341 372.42 345.718C371.845 339.53 362.789 311.13 362.789 311.13L375.931 308.864C375.931 308.864 379.894 331.481 384.25 334.964C386.583 336.817 389.194 336.844 391.433 338.217L391.899 338.508C393.214 339.317 394.415 340.297 395.47 341.423Z" fill="#FFB27D"/>
<path d="M395.47 341.423C395.945 341.935 396.261 342.573 396.381 343.261C396.501 343.948 396.42 344.656 396.147 345.298C395.004 347.882 391.987 350.757 388.518 353.631C388.064 354.003 387.665 354.348 387.307 354.673L387.036 354.916L386.82 355.112C383.472 358.196 384.737 358.9 378.704 365.163C371.845 372.298 367.125 372.427 365.785 371.778C364.649 371.223 366.955 367.442 369.512 363.188C374.312 361.317 378.531 358.209 381.74 354.179C385.866 348.91 388.626 342.14 391.433 338.217L391.899 338.508C393.214 339.317 394.415 340.297 395.47 341.423Z" fill="black"/>
<path d="M289.493 333.212C288.681 337.27 282.899 336.594 276.439 335.011C269.98 333.429 271.516 335.316 262.324 334.294C253.132 333.273 250.339 329.851 250.062 328.485C249.811 327.267 254.35 326.841 259.226 326.28L261.073 326.057C266.571 325.38 270.602 321.816 275.601 318.901C280.335 316.141 287.396 304.887 287.396 304.887L300.004 305.888C300.004 305.888 293.389 315.938 290.832 320.308C289.324 322.878 289.405 326.273 289.594 328.897C289.753 330.334 289.719 331.785 289.493 333.212Z" fill="#FFB27D"/>
<path d="M276.439 335.011C269.98 333.435 271.516 335.316 262.324 334.294C253.132 333.273 250.339 329.851 250.062 328.484C249.811 327.267 254.35 326.841 259.226 326.28L259.274 326.374C263.213 328.903 267.764 330.317 272.442 330.466C278.678 330.615 285.293 328.829 289.594 328.897C289.753 330.333 289.719 331.785 289.493 333.212C288.681 337.27 282.899 336.594 276.439 335.011Z" fill="black"/>
<path d="M337.817 252.578L364.993 325.712C367.744 325.918 370.509 325.667 373.177 324.968C376.856 323.906 381.077 321.113 381.077 321.113C381.077 321.113 374.313 250.887 361.977 236.285C349.64 221.682 337.817 252.578 337.817 252.578Z" fill="#3E4C64"/>
<path d="M445.31 222.994C445.31 222.994 367.218 196.616 349.802 202.209C332.386 207.803 280.097 311.859 280.097 311.859C280.097 311.859 281.274 313.429 284.5 314.639C287.496 315.762 294.747 315.688 294.747 315.688C294.747 315.688 341.936 275.242 347.557 263.446C353.177 251.651 355.423 240.41 361.043 241.532C366.663 242.655 433.514 269.06 448.678 253.328C463.842 237.596 459.885 217.163 459.885 217.163L445.31 222.994Z" fill="#2C374A"/>
<path d="M397.586 100.155C396.342 97.578 394.949 93.0059 394.266 84.8559C394.374 85.6675 395.774 95.948 399.73 101.765C415.963 112.431 447.075 148.034 446.48 154.777C446.48 154.777 457.444 136.184 457.633 136.069C457.633 136.069 477.863 110.368 453.893 95.6166C441.718 88.1294 441.766 78.5252 442.28 70.1723C442.794 61.8193 438.952 25.8915 414.549 35.2928C414.549 35.2928 410.633 33.5546 408.882 33.8184C409.676 33.9707 410.418 34.322 411.039 34.8396C408.212 34.6773 404.167 34.8802 400.792 36.801C391.844 41.8872 383.836 87.5004 397.586 100.155Z" fill="black"/>
<path d="M400.691 102.299C400.61 102.299 408.53 106.452 414.489 104.822C420.096 103.293 423.761 96.0292 423.68 96.0292C421.306 95.5625 420.623 92.2957 420.677 78.2817L419.602 78.4914L401.557 82.0625C401.557 82.0625 401.969 87.7438 401.976 93.0938C401.99 97.5577 401.719 101.819 400.691 102.299Z" fill="#FFB27D"/>
<path d="M401.557 82.035C401.557 82.035 401.97 87.7164 401.977 93.0664C412.074 92.7823 417.418 83.5974 419.602 78.4639L401.557 82.035Z" fill="#ED975D"/>
<path d="M421.462 76.5025C421.462 76.5025 426.757 68.136 428.029 60.9869C428.935 55.8872 426.331 36.9629 407.319 39.6886C403.49 40.2248 399.829 41.6114 396.606 43.7467C392.48 46.5333 386.521 52.5393 393.183 69.0626L394.915 74.6425L421.462 76.5025Z" fill="black"/>
<path d="M398.182 87.1015C398.182 87.1015 422.078 87.5006 422.092 72.6141C422.105 57.7276 425.203 47.7649 409.917 46.9127C394.632 46.0605 391.696 51.7012 390.479 56.6724C389.261 61.6436 391.974 86.6145 398.182 87.1015Z" fill="#FFB27D"/>
<path d="M399.062 46.52C399.062 46.52 405.602 63.9767 415.639 66.5604C425.676 69.144 430.032 66.4522 430.032 66.4522C425.081 62.0981 421.796 56.1595 420.739 49.6516C420.739 49.6516 404.006 38.2077 399.062 46.52Z" fill="black"/>
<path d="M400.691 47.9341C400.691 47.9341 395.808 51.8299 394.604 55.6243C393.4 59.4186 392.88 67.2102 390.607 66.9464C390.607 66.9464 385.676 55.0831 391.216 48.3669C397.1 41.2517 400.691 47.9341 400.691 47.9341Z" fill="black"/>
<path d="M453.894 166.572C456.247 156.691 448.232 137.489 439.866 121.642C432.271 107.256 424.391 95.5826 423.681 96.0019C403.661 107.892 401.848 98.031 401.848 98.031C401.848 98.031 383.661 100.446 378.514 109.313C371.385 121.568 363.634 158.362 356.012 157.814C352.508 157.563 317.304 144.334 317.304 144.334C317.304 144.334 311.434 149.826 312.57 156.569C312.57 156.569 329.952 168.209 344.649 175.636C352.427 179.565 359.454 182.318 362.755 181.533C369.451 179.957 379.914 164.435 385.568 155.298C385.571 155.275 385.571 155.253 385.568 155.23C392.785 196.068 382.978 205.368 387.942 209.676C393.184 214.221 400.678 207.512 417.154 214.654C427.976 219.341 442.97 226.152 453.068 227.302C458.364 227.924 462.314 227.005 463.599 223.427C467.373 213.011 449.396 185.409 453.894 166.572Z" fill="#176CFF"/>
<path d="M403.499 78.0788C403.499 78.0788 403.052 79.9659 398.345 79.675C398.345 79.675 394.402 79.4316 394.517 77.3552C394.517 77.3619 398.385 75.8807 403.499 78.0788Z" fill="white"/>
<path d="M463.626 223.406C462.341 226.984 458.391 227.904 453.095 227.282C446.101 224.238 415.895 212.537 416.247 204.617C416.748 192.882 422.05 192.504 418.276 178.023C415.266 166.39 443.166 144.767 447.616 140.066C455.983 155.94 456.213 156.691 453.859 166.572C449.395 185.409 467.373 213.011 463.626 223.406Z" fill="#0C4FC1"/>
<path d="M385.535 155.278C379.881 164.415 369.418 179.938 362.722 181.514C359.421 182.298 352.394 179.545 344.616 175.616C350.29 177.083 355.803 177.043 361.159 176.522C366.969 175.961 368.653 168.845 377.831 158.173C383.81 151.247 385.271 152.992 385.535 155.278Z" fill="#4A75CB"/>
<path d="M413.535 177.739C413.535 177.739 408.476 173.81 403.701 174.743C398.926 175.677 396.586 178.957 396.768 180.458C396.951 181.96 399.474 186.167 403.139 186.546C406.805 186.924 417.181 184.293 417.181 184.293L413.535 177.739Z" fill="#FFB27D"/>
<path d="M423.681 96.002C423.681 96.002 443.153 97.2059 449.896 106.607C459.365 119.843 475.861 173.87 471.37 186.227L412.128 185.984C412.128 185.984 410.695 179.268 412.69 176.021C414.685 172.775 447.15 167.533 448.645 166.038C450.14 164.543 429.917 136.82 429.917 132.329C429.917 127.838 423.681 96.002 423.681 96.002Z" fill="#176CFF"/>
<path d="M405.102 200.275H333.382L320.457 155.189H392.062L405.102 200.275Z" fill="#1C468A"/>
<path d="M427.393 198.517H333.63V200.275H427.393V198.517Z" fill="#163560"/>
<path d="M356.16 177.002C355.7 175.412 356.62 174.127 358.189 174.127C359.024 174.173 359.825 174.473 360.485 174.987C361.145 175.5 361.633 176.203 361.882 177.002C362.335 178.584 361.422 179.869 359.853 179.869C359.019 179.824 358.218 179.525 357.558 179.013C356.899 178.5 356.411 177.799 356.16 177.002Z" fill="#163560"/>
<path d="M215.377 119.526C215.377 119.526 222.655 113.574 225.272 113.547C227.89 113.52 232.861 112.194 232.665 113.053C232.469 113.912 228.282 115.014 228.999 115.407C229.716 115.799 235.803 114.169 237.501 115.15C239.199 116.131 243.189 120.182 239.99 121.913C236.791 123.645 227.139 126.492 224.684 126.168C222.229 125.843 216.568 125.444 216.568 125.444L215.377 119.526Z" fill="#FFB27D"/>
<path d="M122.392 340.787L128.5 366.508L137.644 366.454L137.982 340.787H122.392Z" fill="#FFB27D"/>
<path d="M199.327 341.89L216.96 366.177L223.473 357.811L213.017 338.501L199.327 341.89Z" fill="#FFB27D"/>
<path d="M163.725 30.9237C163.731 30.8607 163.731 30.7972 163.725 30.7343C163.607 29.4537 163.463 28.1844 163.292 26.9264C162.803 23.2566 162.071 19.6234 161.1 16.0507C160.573 14.1502 159.998 12.3781 159.376 10.7819C159.281 10.5384 159.186 10.3085 159.098 10.1056C157.61 6.48031 155.919 3.87633 154.188 2.89562C151.029 1.09653 147.242 0.907167 144.597 1.05596C145.181 0.570132 145.88 0.241806 146.626 0.102285C144.983 -0.147965 141.324 1.45499 141.324 1.45499C118.49 -7.33759 114.905 26.2703 115.386 34.0822C115.866 41.8941 107.709 44.4439 95.8323 50.592C73.1746 62.3334 71.186 78.0518 71.186 78.0518C71.3551 78.1601 71.5445 78.2751 71.7407 78.4171C72.8634 76.5098 75.1833 72.9319 77.1515 72.3908C75.9758 74.8841 74.9261 77.4349 74.0065 80.0336C76.8674 82.2182 80.7699 85.5188 85.0242 89.2184C90.6988 94.1626 96.928 99.8033 101.933 104.375C101.933 102.813 101.933 100.601 102.528 99.4313L103.482 105.16L103.604 105.911C106.789 108.833 109.292 111.166 110.563 112.363C110.698 112.478 110.813 112.593 110.915 112.681L111.483 113.215C111.301 111.186 114.114 106.452 118.524 100.642C118.828 100.236 119.153 99.8237 119.471 99.4043C120.891 97.5579 122.454 95.6303 124.124 93.6486C124.726 92.9316 125.335 92.2146 125.964 91.4842C126.471 90.8958 126.978 90.3141 127.499 89.7257C128.73 88.3256 130.002 86.9188 131.293 85.5053C134.675 81.8597 138.152 78.2683 141.574 75.0015C146.538 70.267 151.327 66.209 155.209 63.6321C155.358 63.4224 155.5 63.1992 155.629 62.9557C156.367 61.7328 156.992 60.4445 157.495 59.1072C157.658 58.6946 157.806 58.2821 157.948 57.8695C159.029 54.6509 159.817 51.3414 160.302 47.9813C160.057 51.382 159.512 54.7544 158.672 58.0589C158.523 58.5932 158.381 59.0869 158.226 59.5401C157.946 60.4166 157.607 61.2731 157.211 62.1035C157.888 61.4722 158.502 60.7769 159.044 60.0271C159.417 59.5152 159.76 58.9822 160.072 58.4309C163.826 51.7823 164.651 41.1501 163.725 30.9237Z" fill="black"/>
<path d="M154.222 64.1053C154.303 64.1392 146.891 67.9876 141.317 66.459C136.069 65.0319 132.647 58.2346 132.721 58.2211C134.939 57.7747 135.582 54.7243 135.535 41.6099L136.536 41.8128L153.444 45.1539C153.444 45.1539 153.059 50.4633 153.045 55.4683C153.039 59.6685 153.289 63.6589 154.222 64.1053Z" fill="#FFB27D"/>
<path d="M153.444 45.1536C153.444 45.1536 153.058 50.463 153.045 55.468C143.576 55.2042 138.605 46.5875 136.562 41.8125L153.444 45.1536Z" fill="#ED975D"/>
<path d="M134.817 39.9729C134.817 39.9729 129.866 32.1543 128.682 25.4651C127.83 20.6901 130.265 2.98999 148.046 5.53984C151.629 6.03571 155.054 7.33008 158.069 9.32739C161.931 11.9381 167.538 17.5654 161.275 32.9997L159.652 38.2144L134.817 39.9729Z" fill="black"/>
<path d="M220.721 351.061L211.773 351.338L202.087 351.636C202.087 351.636 179.713 326.726 167.167 286.801C166.876 285.874 166.565 284.934 166.241 283.987C159.376 263.96 145.138 238.827 137.631 216.075C136.44 212.449 135.365 209.041 134.405 205.814C134.1 204.78 133.796 203.785 133.512 202.764C127.986 183.556 126.383 170.976 124.909 157.448L179.078 157.881C179.078 157.881 187.823 249.919 220.721 351.061Z" fill="#2C374A"/>
<path d="M171.496 126.776C171.361 152.559 175.277 163.617 175.277 163.617C175.277 163.617 152.084 175.399 124.516 166.728C124.192 166.627 101.689 161.487 101.689 161.487C102.149 160.445 106.255 143.07 106.701 142.116C112.525 129.617 116.941 124.132 117.631 120.29C118.816 113.153 119.043 105.891 118.307 98.694C117.218 87.193 114.979 75.8299 111.625 64.775C119.139 63.0705 126.363 60.1555 134.181 57.2202C135.974 59.4589 141.283 61.7179 146.051 61.6097C151.543 61.4879 153.322 59.1342 153.038 56.5708C158.895 59.8241 163.562 62.9015 163.562 62.9015C168.533 71.5385 178.625 79.932 179.355 93.1817C179.524 96.435 171.503 126.046 171.496 126.776Z" fill="#B9FFF2"/>
<path d="M156.596 49.8882C156.596 49.8882 134.277 50.2602 134.236 36.3611C134.196 22.4621 131.321 13.1149 145.592 12.2898C159.863 11.4646 162.636 16.774 163.772 21.4205C164.909 26.0671 162.406 49.435 156.596 49.8882Z" fill="#FFB27D"/>
<path d="M155.77 11.9244C155.77 11.9244 149.683 28.2584 140.261 30.673C130.84 33.0876 126.795 30.5715 126.795 30.5715C131.428 26.5013 134.503 20.9472 135.493 14.8599C135.493 14.8599 151.15 4.15315 155.77 11.9244Z" fill="black"/>
<path d="M154.255 13.2502C154.255 13.2502 158.82 16.8958 159.936 20.4466C161.052 23.9975 161.553 31.2682 163.676 31.0382C163.676 31.0382 168.289 19.9393 163.108 13.656C157.603 7.00072 154.255 13.2502 154.255 13.2502Z" fill="black"/>
<path d="M128.189 365.069C128.567 368.626 128.17 372.223 127.026 375.613C127.026 375.613 125.531 382.437 132.247 382.559C138.963 382.681 140.613 382.052 139.856 377.872C139.098 373.692 137.644 366.455 137.644 366.455L128.189 365.069Z" fill="#FFB27D"/>
<path d="M140.742 386.61H126.025C125.423 383.587 126.755 377.141 126.979 375.897C126.987 375.826 127.001 375.756 127.019 375.687C127.021 375.664 127.021 375.642 127.019 375.619C134.621 382.586 139.383 375.437 139.383 375.437V375.477C140.519 378.203 140.756 385.548 140.742 386.61Z" fill="black"/>
<path d="M239.659 378.555C239.659 378.555 227.275 364.812 223.474 357.811L214.262 362.546L234.85 381.876L239.665 381.247L239.659 378.555Z" fill="#FFB27D"/>
<path d="M247.559 386.61H232.003C229.71 386.61 227.877 382.809 225.402 377.865C224.394 375.836 222.121 374.727 219.795 374.118L219.856 386.61H216.258L212.95 373.401C210.759 369.343 212.774 365.711 214.303 362.532C216.102 362.532 220.931 363.756 230.082 374.03C233.085 377.412 236.406 378.622 239.7 378.521L239.842 378.595C247.404 382.051 247.559 386.61 247.559 386.61Z" fill="black"/>
<path d="M211.772 351.325L202.087 351.622C202.087 351.622 179.713 326.712 167.167 286.787C166.876 285.86 166.565 284.92 166.24 283.974C159.375 263.947 145.138 238.813 137.63 216.061C136.44 212.436 135.364 209.027 134.404 205.801C134.1 204.766 133.795 203.772 133.511 202.75L141.485 196.697C141.485 196.697 165.442 235.479 172.855 271.982C179.294 303.703 205.09 341.856 211.772 351.325Z" fill="#3D4A60"/>
<path d="M142.325 275.397C142.461 293.145 141.561 333.956 139.248 350.844H130.672C125.937 350.844 123.563 350.777 123.563 350.777C117.767 321.403 113.641 297.101 110.638 276.155C108.17 258.969 105.985 244.231 104.301 231.549C102.617 218.868 101.426 208.094 101 199.085C100.939 197.664 100.885 196.278 100.858 194.939C100.831 193.599 100.858 192.274 100.858 191.002L147.669 186.437C147.06 217.515 142.244 265.076 142.325 275.397Z" fill="#2C374A"/>
<path d="M130.672 350.845C125.937 350.845 123.563 350.777 123.563 350.777C117.767 321.403 113.641 297.102 110.638 276.155C108.169 258.969 105.985 244.231 104.301 231.55C102.616 218.868 101.426 208.094 101 199.085L118.179 209.19C118.179 209.19 107.216 213.058 111.416 242.331C115.616 271.603 124.848 346.706 130.672 350.845Z" fill="#3D4A60"/>
<path d="M132.883 198.774C132.883 198.774 129.583 210.691 118.179 209.169C106.776 207.648 90.5503 200.803 90.5503 200.803C90.5503 200.803 95.4268 185.402 101.487 165.159C108.825 140.662 110.652 106.229 114.933 86.3101C116.137 80.7302 124.212 78.9175 124.517 75.5764L134.175 57.2134C134.175 57.2134 148.094 88.8869 148.852 96.8679C149.609 104.849 132.883 198.774 132.883 198.774Z" fill="#1FC9AA"/>
<path d="M124.909 120.384C124.395 133.316 119.877 155.365 101.704 165.024L101.487 165.125C108.826 140.628 108.731 117.104 112.985 97.2058C122.779 95.2038 125.187 113.249 124.909 120.384Z" fill="#17AB90"/>
<path d="M217.644 116.306C217.644 116.306 192.531 124.672 189.392 123.976C186.254 123.279 181.77 89.2519 179.349 77.5916C176.231 62.5698 164.327 59.5871 164.327 59.5871L153.032 56.5637C153.032 56.5637 165.964 88.5078 166.342 94.967C166.721 101.426 167.864 200.674 167.864 200.674C167.864 200.674 167.107 205.239 175.852 203.339C184.597 201.438 186.876 199.538 186.876 199.538C186.876 199.538 183.089 171.807 181.303 147.161C190.218 145.639 218.868 131.118 218.868 131.118C223.311 124.138 217.644 116.306 217.644 116.306Z" fill="#1FC9AA"/>
<path d="M104.665 149.955C104.665 149.955 114.547 148.217 116.988 150.631C119.43 153.046 122.805 163.421 120.011 164.003C117.218 164.584 110.712 157.496 109.088 158.071C107.465 158.646 104.509 159.546 103.813 157.997C103.116 156.448 98.2329 151.91 98.2329 151.91L104.665 149.955Z" fill="#FFB27D"/>
<path d="M111.875 147.398C111.875 147.398 105.829 150.036 104.665 149.955C103.502 149.873 107.229 152.281 107.229 152.281L109.089 150.502C109.089 150.502 112.416 149.495 111.875 147.398Z" fill="#FFB27D"/>
<path d="M134.175 57.2134C134.175 57.2134 112.2 58.1805 106.918 63.0908C101.635 68.0012 69.9821 105.924 69.4546 115.846C68.927 125.768 97.185 154.04 97.185 154.04C97.185 154.04 105.031 152.146 108.433 147.209C108.433 147.209 90.9085 115.961 91.95 114.595C92.9916 113.229 122.69 88.8937 125.091 94.3045C127.215 98.9713 134.175 57.2134 134.175 57.2134Z" fill="#1FC9AA"/>
<path d="M125.478 210.075L120.486 238.367L106.695 316.52L94.3654 386.387C94.2671 386.905 93.9898 387.373 93.5819 387.708C93.174 388.043 92.6613 388.224 92.1334 388.22C91.9077 388.223 91.684 388.179 91.4771 388.088C91.2703 387.998 91.0852 387.864 90.9345 387.696C90.7838 387.528 90.671 387.33 90.6036 387.114C90.5362 386.899 90.5159 386.672 90.544 386.448L101.17 307.247L112.546 222.527L114.257 209.751L125.478 210.075Z" fill="#C69D7F"/>
<path d="M120.485 238.374C121.161 226.2 112.544 222.541 112.544 222.541L114.256 209.764L125.476 210.082L120.485 238.374Z" fill="#A0795F"/>
<path d="M510.504 388.226C509.976 388.231 509.463 388.05 509.055 387.715C508.648 387.38 508.37 386.912 508.272 386.393L497.322 324.318L481.57 235.039L477.167 210.075L488.38 209.757L490.328 224.252L503.997 326.09L512.114 386.454C512.141 386.68 512.119 386.908 512.05 387.125C511.981 387.341 511.867 387.54 511.714 387.708C511.561 387.876 511.374 388.01 511.165 388.099C510.957 388.188 510.731 388.232 510.504 388.226Z" fill="#C69D7F"/>
<path d="M490.328 224.252C483.064 227.458 481.535 235.074 481.535 235.074L477.132 210.11L488.346 209.792L490.328 224.252Z" fill="#A0795F"/>
<path d="M510.241 200.276H68.4477C63.7822 200.276 60 204.058 60 208.723V211.429C60 216.094 63.7822 219.876 68.4477 219.876H510.241C514.906 219.876 518.688 216.094 518.688 211.429V208.723C518.688 204.058 514.906 200.276 510.241 200.276Z" fill="#E0B594"/>
<path d="M573.35 386H0.650422C0.291202 386 0 386.191 0 386.427V386.573C0 386.809 0.291202 387 0.650422 387H573.35C573.709 387 574 386.809 574 386.573V386.427C574 386.191 573.709 386 573.35 386Z" fill="#2E3552"/>
</svg>
