<svg width="377" height="344" viewBox="0 0 377 344" fill="none" xmlns="http://www.w3.org/2000/svg">
<path opacity="0.4" d="M48.2846 232.673C63.154 270.325 -23.3856 286.626 18.6503 333.481C18.6503 333.481 90.2933 370.511 178.788 304.324C267.283 238.137 292.778 261.051 292.778 261.051C339.123 231.904 375.975 230.039 376.229 175.451C376.293 157.17 373.932 138.934 369.224 121.334C367.983 116.649 366.573 112.007 364.996 107.405C350.688 65.6292 324.193 27.2351 287.622 7.22715C264.109 -5.63596 235.791 1.36493 212.583 10.6526C191.657 19.024 171.434 30.0594 149.516 34.575C132.055 38.1774 113.966 37.5394 96.3377 39.6635C90.0284 40.3677 83.7818 41.5892 77.6484 43.3181C51.3538 50.9613 29.0636 71.0653 14.6708 96.7736C9.71146 105.603 5.71333 115.073 2.75921 124.985C-8.69042 163.636 33.4343 195.01 48.2846 232.673Z" fill="#D6CEEA"/>
</svg>
