<?xml version="1.0" encoding="UTF-8"?>
<svg width="959px" height="294px" viewBox="0 0 959 294" version="1.1" xmlns="http://www.w3.org/2000/svg" xmlns:xlink="http://www.w3.org/1999/xlink">
    <!-- Generator: Sketch 49.3 (51167) - http://www.bohemiancoding.com/sketch -->
    <title>variation 4 copy</title>
    <desc>Created with Sketch.</desc>
    <defs></defs>
    <g id="variation-4-copy" stroke="none" stroke-width="1" fill="none" fill-rule="evenodd">
        <g id="Group-2" transform="translate(73.000000, 230.000000)">
            <path d="M208,27.7925926 L208,0.710318345 L211.787643,0.710318345 L211.787643,24.4962715 L223.9381,24.4962715 L223.9381,27.7925926 L208,27.7925926 Z M297.903294,27.7925926 L297.903294,0.710318345 L313.635136,0.710318345 L313.635136,4.00663942 L301.690937,4.00663942 L301.690937,12.4909204 L311.422553,12.4909204 L311.422553,15.7872414 L301.690937,15.7872414 L301.690937,24.4962715 L314.291411,24.4962715 L314.291411,27.7925926 L297.903294,27.7925926 Z M388.516154,13.9531773 C388.516154,12.0178276 388.869289,10.1917589 389.575569,8.47491639 C390.281849,6.75807391 391.244376,5.27849005 392.463178,4.0361204 C393.68198,2.79375076 395.15077,1.810483 396.869594,1.08628763 C398.588417,0.362092254 400.416593,0 402.354175,0 C403.566727,0 404.735509,0.112373458 405.860557,0.337123746 C406.985605,0.561874033 407.913756,0.833443224 408.645037,1.15183946 C409.376318,1.47023571 410.026336,1.78862717 410.595111,2.10702341 C411.163885,2.42541965 411.579521,2.69698884 411.842032,2.92173913 L412.217047,3.25886288 L410.304475,6.08695652 C410.216971,6.01203976 410.098218,5.91527373 409.948211,5.79665552 C409.798205,5.67803731 409.463821,5.46889782 408.945048,5.16923077 C408.426276,4.86956372 407.888761,4.60111601 407.332488,4.3638796 C406.776214,4.12664318 406.07307,3.91438221 405.223033,3.7270903 C404.372997,3.53979839 403.516723,3.44615385 402.654187,3.44615385 C400.591599,3.44615385 398.775923,3.91437659 397.207106,4.85083612 C395.63829,5.78729565 394.450757,7.0421326 393.644472,8.61538462 C392.838188,10.1886366 392.435052,11.9429112 392.435052,13.8782609 C392.435052,15.9384718 392.872564,17.780148 393.747601,19.4033445 C394.622639,21.026541 395.819547,22.281378 397.338361,23.167893 C398.857176,24.054408 400.554098,24.4976589 402.429178,24.4976589 C403.304215,24.4976589 404.166739,24.3821639 405.016775,24.1511706 C405.866812,23.9201772 406.585582,23.6392436 407.173107,23.3083612 C407.760632,22.9774788 408.282521,22.6466014 408.738791,22.3157191 C409.19506,21.9848367 409.535695,21.7007816 409.760704,21.4635452 L410.098217,21.1264214 L410.098217,17.2120401 L405.691801,17.2120401 L405.691801,13.9157191 L413.567097,13.9157191 L413.567097,27.5317726 L410.210721,27.5317726 L410.210721,25.8461538 L410.266973,24.6849498 L410.17322,24.6849498 C410.098216,24.7723527 409.982588,24.8909692 409.826332,25.0408027 C409.670075,25.1906362 409.326315,25.4559624 408.795043,25.8367893 C408.26377,26.2176162 407.701255,26.5547365 407.107479,26.8481605 C406.513704,27.1415845 405.738682,27.4069107 404.782392,27.6441472 C403.826101,27.8813836 402.847949,28 401.847906,28 C400.035329,28 398.316531,27.6535152 396.691462,26.9605351 C395.066393,26.2675551 393.650729,25.3123807 392.444427,24.0949833 C391.238126,22.8775859 390.281849,21.3886376 389.575569,19.6280936 C388.869289,17.8675497 388.516154,15.9759298 388.516154,13.9531773 Z M507.200797,27.7925926 L504.463193,20.0012882 L494.262809,20.0012882 L491.562708,27.7925926 L487.64381,27.7925926 L497.412928,0.710318345 L501.406828,0.710318345 L511.157196,27.7925926 L507.200797,27.7925926 Z M499.630447,4.26191007 L499.555444,4.26191007 C499.155427,5.89759272 498.799167,7.17740155 498.486654,8.10137495 L495.44904,16.6793014 L503.661849,16.6793014 L500.661736,8.10137495 C500.52423,7.68933276 500.367976,7.16492329 500.192968,6.52813081 C500.017961,5.89133832 499.880457,5.35444291 499.780453,4.91742847 L499.630447,4.26191007 Z M585.352334,27.7925926 L585.352334,0.710318345 L589.308603,0.710318345 L589.308603,24.4962715 L602,24.4962715 L602,27.7925926 L585.352334,27.7925926 Z" id="legal" fill="#121735"></path>
            <path d="M658,14.3389723 L807.994024,13" id="Line-Copy-6" stroke="#121735" stroke-width="3" stroke-linecap="square"></path>
            <path d="M0,14.3389723 L149.994024,13" id="Line-Copy-8" stroke="#121735" stroke-width="3" stroke-linecap="square"></path>
        </g>
        <path d="M159.950218,177.3125 C154.594606,177.3125 147.547853,172.390674 138.809749,162.546875 C135.991005,159.382797 123.800123,142.736479 102.236737,112.607422 C80.6733504,82.478365 69.2223774,67.4140625 67.8834744,67.4140625 C66.5445713,67.4140625 65.8751298,81.3357983 65.8751298,109.179688 C65.8751298,137.023577 67.7425192,154.882773 71.4773541,162.757812 C71.829697,163.531254 72.9924112,165.253893 74.9655316,167.925781 C76.9386519,170.59767 77.9251973,172.285153 77.9251973,172.988281 C77.9251973,176.64455 69.786198,178.472656 53.5079553,178.472656 L48.539945,178.472656 C40.083715,178.472656 35.8556634,176.855485 35.8556634,173.621094 L37.6526033,171.089844 L44.5232558,167.082031 C47.6238735,164.761707 49.6674317,161.369163 50.6539919,156.904297 C51.6405521,152.439431 52.1338248,135.793113 52.1338248,106.964844 C52.1338248,78.1365746 51.4820001,61.5605685 50.1783313,57.2363281 C48.8746626,52.9120878 46.3202147,49.1152507 42.5149112,45.8457031 C38.7096077,42.5761555 36.8069845,40.1328206 36.8069845,38.515625 C36.8069845,35.9843623 41.2288218,34.71875 50.072629,34.71875 C58.9164362,34.71875 65.2056629,35.4394459 68.9404978,36.8808594 C72.6753327,38.3222728 76.3924947,40.8534975 80.0920954,44.4746094 C83.791696,48.0957212 95.9473443,64.4256361 116.559405,93.4648438 C137.171465,122.504051 148.146783,137.023438 149.485686,137.023438 C150.824589,137.023438 151.49403,126.177843 151.49403,104.486328 C151.49403,82.7948134 150.842206,68.1523817 149.538537,60.5585938 C148.234868,52.9648058 146.702199,47.9023564 144.940485,45.3710938 L140.500986,40.9414062 C139.30302,39.7460878 138.704046,38.4804754 138.704046,37.1445312 C138.704046,35.38671 141.73415,34.5078125 147.794448,34.5078125 L152.551054,34.5078125 C166.081022,34.5078125 174.255255,35.5624895 177.073998,37.671875 L178.342426,39.5703125 C178.342426,41.3984466 176.615972,44.4745878 173.163011,48.7988281 C169.710051,53.1230685 167.525557,57.7284912 166.609466,62.6152344 C165.693374,67.5019776 165.235335,82.4959682 165.235335,107.597656 L165.023931,122.996094 L164.918228,128.058594 L164.918228,138.183594 L164.812526,148.308594 C164.812526,162.582103 164.601123,170.597647 164.178312,172.355469 C163.403157,175.660173 161.993807,177.3125 159.950218,177.3125 Z M346.363722,169.722656 C343.474511,175.277372 340.14492,178.054688 336.374851,178.054688 C332.604782,178.054688 329.363275,175.822288 326.650235,171.357422 C323.937194,166.892556 319.039701,155.11533 311.957609,136.025391 C304.875516,116.935451 300.27751,105.228537 298.163453,100.904297 C296.049395,96.5800565 293.054525,93.0644667 289.178753,90.3574219 C285.302981,87.6503771 283.365124,85.4179775 283.365124,83.6601562 C283.365124,79.7226366 288.156916,77.7539062 297.740643,77.7539062 L307.782366,77.7539062 C318.282185,77.7539062 323.532016,79.4413894 323.532016,82.8164062 L323.320611,83.8710938 C322.122645,88.2304905 321.523671,91.3945214 321.523671,93.3632812 C321.523671,101.941449 326.773502,119.027216 337.273321,144.621094 C338.964567,148.769552 340.180132,150.84375 340.920052,150.84375 C341.659972,150.84375 342.981238,148.488305 344.88389,143.777344 C355.31324,118.324091 360.527837,101.695352 360.527837,93.890625 C360.527837,91.2890495 360.281201,89.4785207 359.78792,88.4589844 C359.29464,87.439448 358.642816,86.1914136 357.832427,84.7148438 C357.022038,83.2382739 356.61685,82.2187528 356.61685,81.65625 C356.61685,79.0546745 359.858356,77.7539062 366.341466,77.7539062 L373.952035,77.7539062 C383.747168,77.7539062 388.644661,79.0370965 388.644661,81.6035156 C388.644661,84.1699347 386.689187,87.1581861 382.778181,90.5683594 C378.867174,93.9785327 376.312727,96.9316281 375.114761,99.4277344 C373.916795,101.923841 372.824548,104.455065 371.837988,107.021484 C370.851428,109.587903 369.547779,112.87498 367.927001,116.882812 L361.056349,134.179688 C352.106839,156.257923 347.209345,168.105461 346.363722,169.722656 Z" id="Novo" fill="#F8931D"></path>
        <path d="M278.538525,124.22575 L278.538525,129.347849 C278.538525,135.221218 277.340733,141.282308 274.945114,147.531299 C272.549495,153.780291 269.127234,159.260882 264.678228,163.973236 C255.50643,173.671125 244.555193,178.519997 231.82419,178.519997 L226.896085,178.519997 C220.735922,178.519997 215.020745,177.256558 209.750384,174.729644 C198.319859,169.266044 190.482881,160.626858 186.239213,148.811824 C184.117379,142.87016 183.056478,137.065173 183.056478,131.396688 L183.056478,126.27459 C183.056478,120.40122 184.25427,114.323057 186.649889,108.039918 C189.045508,101.620189 192.536214,96.0200838 197.122113,91.2394344 C206.157019,81.7464307 217.450481,77 231.002839,77 L232.953548,77 C245.410766,77 255.985553,81.3366669 264.678228,90.0101308 C269.19568,94.5176002 272.635053,99.8616031 274.996449,106.0423 C277.357844,112.222996 278.538525,118.284086 278.538525,124.22575 Z M255.43803,130.679595 L255.43803,128.118545 C255.43803,116.713282 253.076669,107.015538 248.353878,99.0250245 C246.232044,95.40539 243.545569,92.5882638 240.294372,90.5735616 C237.043175,88.5588594 234.048696,87.5515234 231.310846,87.5515234 L228.23078,87.5515234 C222.070617,87.5515234 216.749001,90.8125603 212.265771,97.3347319 C207.782541,103.856904 205.54096,111.42046 205.54096,120.025629 L205.335623,122.484237 L205.232954,126.172148 L205.232954,127.503893 L205.335623,128.733197 L205.438291,131.191804 C205.506738,132.011344 205.54096,132.830872 205.54096,133.650412 C205.54096,142.255581 208.347215,150.621592 213.959807,158.748696 C218.271921,164.96354 223.815985,168.070915 230.592164,168.070915 L231.721521,168.070915 L232.74821,167.968473 C239.661282,167.968473 245.171122,164.33182 249.277898,157.058403 C253.384673,149.784986 255.43803,140.992138 255.43803,130.679595 Z" id="Combined-Shape" fill="#F8931D"></path>
        <path d="M489.195715,124.22575 L489.195715,129.347849 C489.195715,135.221218 487.997923,141.282308 485.602304,147.531299 C483.206686,153.780291 479.784424,159.260882 475.335418,163.973236 C466.16362,173.671125 455.212384,178.519997 442.48138,178.519997 L437.553275,178.519997 C431.393112,178.519997 425.677935,177.256558 420.407574,174.729644 C408.97705,169.266044 401.140071,160.626858 396.896403,148.811824 C394.77457,142.87016 393.713669,137.065173 393.713669,131.396688 L393.713669,126.27459 C393.713669,120.40122 394.91146,114.323057 397.307079,108.039918 C399.702698,101.620189 403.193404,96.0200838 407.779303,91.2394344 C416.814209,81.7464307 428.107671,77 441.660029,77 L443.610738,77 C456.067956,77 466.642744,81.3366669 475.335418,90.0101308 C479.852871,94.5176002 483.292243,99.8616031 485.653639,106.0423 C488.015035,112.222996 489.195715,118.284086 489.195715,124.22575 Z M466.09522,130.679595 L466.09522,128.118545 C466.09522,116.713282 463.733859,107.015538 459.011068,99.0250245 C456.889234,95.40539 454.202759,92.5882638 450.951562,90.5735616 C447.700365,88.5588594 444.705886,87.5515234 441.968036,87.5515234 L438.88797,87.5515234 C432.727807,87.5515234 427.406191,90.8125603 422.922961,97.3347319 C418.439732,103.856904 416.19815,111.42046 416.19815,120.025629 L415.992813,122.484237 L415.890144,126.172148 L415.890144,127.503893 L415.992813,128.733197 L416.095482,131.191804 C416.163928,132.011344 416.19815,132.830872 416.19815,133.650412 C416.19815,142.255581 419.004405,150.621592 424.616998,158.748696 C428.929111,164.96354 434.473175,168.070915 441.249354,168.070915 L442.378711,168.070915 L443.4054,167.968473 C450.318472,167.968473 455.828313,164.33182 459.935088,157.058403 C464.041863,149.784986 466.09522,140.992138 466.09522,130.679595 Z" id="Combined-Shape" fill="#F8931D"></path>
        <path d="M572.764548,86.6054688 L572.764548,94.4101562 L572.658846,97.1523438 L572.658846,111.285156 C572.658846,130.62119 572.024638,144.296835 570.756203,152.3125 C567.93746,169.961026 559.974629,182.406214 546.867473,189.648438 C540.454832,193.16408 533.443313,194.921875 525.832706,194.921875 L523.401552,194.921875 C517.270785,194.921875 511.703851,193.357438 506.700581,190.228516 C501.697312,187.099594 499.195715,183.214867 499.195715,178.574219 L499.195715,176.359375 C499.195715,174.039051 499.953241,171.929697 501.468315,170.03125 C502.98339,168.132803 504.956481,167.183594 507.387647,167.183594 C509.818813,167.183594 512.743215,168.466784 516.160941,171.033203 C519.578668,173.599622 522.133116,174.882812 523.824362,174.882812 C528.475288,174.882812 532.403853,172.615257 535.610173,168.080078 C538.816494,163.544899 541.758513,156.496142 544.436319,146.933594 C547.114125,137.371046 548.453008,121.498158 548.453008,99.3144531 C548.453008,77.1307485 547.8188,63.8066629 546.550366,59.3417969 C545.281931,54.8769308 543.097438,51.343763 539.99682,48.7421875 C534.923083,44.5234164 532.386252,41.8164122 532.386252,40.6210938 C532.386252,37.175764 539.961511,35.453125 555.112256,35.453125 L560.608778,35.453125 L563.357039,35.5585938 C579.282939,35.5585938 587.245769,36.7890502 587.245769,39.25 C587.245769,40.5156313 585.519315,42.7480309 582.066354,45.9472656 C578.613394,49.1465004 576.464134,51.8007707 575.618511,53.9101562 C573.856797,58.4804916 572.975953,66.2851011 572.975953,77.3242188 L572.87025,80.171875 C572.799782,82.070322 572.764548,84.2148318 572.764548,86.6054688 Z" id="Path" fill="#121735" transform="translate(543.220742, 115.187500) rotate(-2.000000) translate(-543.220742, -115.187500) "></path>
        <path d="M675.667034,177.035156 C673.341571,177.035156 671.667967,176.40235 670.646173,175.136719 C669.624378,173.871087 668.65545,172.201182 667.739358,170.126953 C666.823267,168.052724 666.153825,167.015625 665.731014,167.015625 C664.533048,167.015625 662.330938,168.052724 659.124617,170.126953 C655.918297,172.201182 653.46955,173.660152 651.778304,174.503906 C646.49316,177.105482 641.031927,178.40625 635.39444,178.40625 C623.203376,178.40625 614.324467,173.589892 608.757449,163.957031 C605.515894,158.332003 603.895141,144.093864 603.895141,121.242188 C603.895141,107.953059 603.401869,99.7090004 602.415308,96.5097656 C601.428748,93.3105309 600.054631,91.0781313 598.292917,89.8125 C594.13527,86.7890474 592.056478,85.1015643 592.056478,84.75 L592.056478,82.8515625 C592.056478,79.9687356 599.666971,78.5273438 614.888185,78.5273438 C619.398175,78.5273438 622.252109,80.3378725 623.450075,83.9589844 C624.648041,87.5800962 625.247015,99.1288089 625.247015,118.605469 C625.247015,138.082129 626.127859,149.929666 627.889574,154.148438 C629.651288,158.367209 631.941483,161.302726 634.760226,162.955078 C637.57897,164.60743 640.979028,165.433594 644.960503,165.433594 C648.941978,165.433594 652.800075,164.238293 656.53491,161.847656 C660.269745,159.457019 663.141296,156.310566 665.149651,152.408203 C667.158006,148.50584 668.162168,140.086002 668.162168,127.148438 C668.162168,114.210873 667.563194,105.632834 666.365228,101.414062 C665.167262,97.1952914 663.810762,93.7324354 662.295688,91.0253906 C660.780613,88.3183458 660.023087,86.3320376 660.023087,85.0664062 C660.023087,80.3554452 668.162086,78 684.440329,78 C687.40001,78 689.144081,78.8437416 689.672595,80.53125 C690.20111,82.2187584 690.465363,86.8241811 690.465363,94.3476562 L690.253958,100.148438 C690.18349,102.117197 690.148256,103.611323 690.148256,104.630859 C690.148256,105.650396 690.077788,108.128887 689.936851,112.066406 L689.725446,117.972656 C689.584509,121.980489 689.514042,128.326128 689.514042,137.009766 C689.514042,145.693403 690.113016,151.705061 691.310982,155.044922 C692.508948,158.384782 693.953532,160.757805 695.644778,162.164062 C699.238676,165.046889 701.035597,167.01562 701.035597,168.070312 C701.035597,170.390637 698.48115,172.464835 693.372177,174.292969 C688.263205,176.121103 682.36155,177.035156 675.667034,177.035156 Z" id="Path" fill="#121735"></path>
        <path d="M731.859677,78 L735.564397,78 C738.760642,78 741.030668,80.2831299 742.374544,84.8494582 C743.71842,89.4157865 745.298359,91.6989164 747.114407,91.6989164 C747.695542,91.6989164 749.257321,90.5754715 751.799788,88.3285481 C754.342256,86.0816246 756.194598,84.5232979 757.356869,83.653521 C762.005953,80.2468952 766.400724,78.5436078 770.541314,78.5436078 C774.681905,78.5436078 778.023383,79.7032928 780.565851,82.0226977 C783.108319,84.3421025 784.379534,86.8789135 784.379534,89.6332068 L784.379534,91.3727517 C784.379534,93.4747123 783.562324,95.5585214 781.927881,97.6242413 C780.293437,99.6899612 778.059731,100.722806 775.226696,100.722806 C774.718202,100.722806 772.629778,100.016123 768.96136,98.6027353 C765.292942,97.189348 762.314667,96.4826649 760.026447,96.4826649 C757.738226,96.4826649 755.195796,97.5517496 752.399081,99.6899509 C749.602367,101.828152 747.205219,105.307207 745.207566,110.127221 C743.209912,114.947234 742.211101,123.22811 742.211101,134.970097 C742.211101,146.712084 742.955669,154.231916 744.444829,157.52982 C745.933989,160.827724 748.56722,164.198058 752.3446,167.640925 C756.121981,171.083792 758.010643,173.05888 758.010643,173.56625 C758.010643,176.68295 747.332438,178.241277 725.975709,178.241277 L721.39929,178.241277 L716.931833,178.349998 C709.66764,178.349998 706.035597,177.244674 706.035597,175.033991 C706.035597,172.823308 707.778978,170.558298 711.265791,168.238894 C714.752604,165.919489 717.02263,163.382678 718.075938,160.628384 C719.129246,157.874091 719.655892,151.749505 719.655892,142.254441 L719.655892,123.445611 L719.437968,114.095557 C719.437968,106.774936 718.82052,101.646954 717.585608,98.7114569 C716.350695,95.7759601 714.353071,93.1123086 711.592678,90.7204223 C708.832284,88.3285361 707.452108,86.5890086 707.452108,85.5017875 C707.452108,84.4145665 708.142196,83.4360823 709.522393,82.5663055 C714.389403,79.5220866 721.835089,78 731.859677,78 Z" id="Path" fill="#121735"></path>
        <g id="Group" transform="translate(789.056478, 36.000000)" fill="#121735">
            <path d="M14.7349277,83.3370824 L14.5213781,72.6831952 C14.5213781,64.1600428 11.6384862,58.2649508 5.87261612,54.9977424 C2.4558042,53.0800331 0.74742387,51.3399156 0.74742387,49.7773377 C0.74742387,48.7119436 1.67279655,47.6820782 3.52356967,46.6877104 C9.50299053,43.5625545 18.2584397,42 29.79018,42 L31.1782529,42 C34.381514,42 36.1966682,43.7756301 36.6237696,47.3269436 L36.6237696,79.7147607 C36.6237696,103.508561 37.1220472,117.571552 38.1186174,121.904154 C39.1151875,126.236757 41.0727067,129.361866 43.9912335,131.279575 C48.6181663,134.262678 50.931598,136.322409 50.931598,137.458829 L50.931598,138.524218 C50.931598,140.868085 47.5504286,142.040001 40.7879883,142.040001 L39.0795909,142.040001 L37.4779684,141.933462 L19.7533451,141.933462 L13.24008,142.040001 L6.83358967,142.040001 C2.27784045,142.040001 0,140.761547 0,138.204602 C0,136.570997 1.88633662,134.671073 5.65906645,132.504772 C9.43179627,130.338471 11.887593,127.142336 13.0265303,122.916273 C14.1654676,118.69021 14.7349277,111.605446 14.7349277,101.661768 L14.7349277,83.3370824 Z" id="Path"></path>
            <path d="M37.6704734,11 L37.6704734,13.53125 C37.4590677,14.3750042 37.3533664,15.3417914 37.3533664,16.4316406 C37.3533664,17.5214898 36.2611197,19.1562391 34.0765936,21.3359375 C31.8920676,23.5156359 29.0381328,24.6054688 25.5147036,24.6054688 L22.8721449,24.6054688 L22.4493355,24.5 L21.6037168,24.5 C21.0399681,24.3593743 20.617163,24.2890625 20.3352886,24.2890625 C18.1507625,24.2890625 16.0719705,23.3046973 14.0988502,21.3359375 C12.1257299,19.3671777 11.1391845,17.3984473 11.1391845,15.4296875 L10.8220775,13.3203125 L10.8220775,11.2109375 C10.8220775,7.90623348 12.072876,5.21680725 14.5745107,3.14257812 C17.0761455,1.068349 19.9476971,0.03125 23.189252,0.03125 L26.3603224,0.03125 C29.6018772,0.03125 32.2972601,1.1035049 34.4465519,3.24804688 C36.5958436,5.39258885 37.6704734,7.97654738 37.6704734,11 Z" id="Path"></path>
        </g>
        <path d="M845.056478,155.563972 C845.056478,150.668799 846.369336,148.221249 848.99509,148.221249 C849.755177,148.221249 851.793561,150.186184 855.110304,154.116111 C866.027915,162.872266 874.872429,167.83631 881.644111,169.008394 C886.619225,169.008394 890.765091,167.819092 894.081833,165.440451 C897.398576,163.061811 899.056922,159.631794 899.056922,155.150298 C899.056922,150.668801 896.638501,146.807878 891.801584,143.567411 C889.797719,142.257435 884.062605,139.551341 874.596069,135.449049 C865.129533,131.346756 858.599794,127.640959 855.006656,124.331546 C849.409653,119.229535 846.611194,112.83488 846.611194,105.14739 C846.611194,97.4599003 849.703319,91.0135369 855.887661,85.8081065 C862.072004,80.6026761 869.48274,78 878.12009,78 L880.918577,78 C883.06064,78 886.584626,78.4309066 891.490641,79.2927329 C896.396656,80.1545591 900.507973,80.5854657 903.824716,80.5854657 C907.141458,80.5854657 909.542606,81.6885868 911.02823,83.8948619 C912.513854,86.101137 913.256655,91.2720168 913.256655,99.4076563 C913.256655,103.337584 912.18564,105.302518 910.043577,105.302518 C908.799798,105.302518 906.4332,103.49271 902.943711,99.8730401 C899.454221,96.25337 895.947509,93.4438587 892.42347,91.4444218 C888.899432,89.444985 884.252607,88.4452816 878.482857,88.4452816 C872.713107,88.4452816 868.653613,90.4791609 866.304254,94.5469807 C865.060475,96.6843097 864.438596,98.7181891 864.438596,100.64868 C864.438596,102.510224 864.956829,104.268324 865.993311,105.92303 C868.204472,109.508227 874.958779,113.593222 886.256433,118.178138 C897.554087,122.763053 905.033921,126.572268 908.696157,129.605896 C914.984148,134.845799 918.128096,140.775075 918.128096,147.3939 L918.128096,150.082785 C918.128096,158.356316 914.863227,165.250823 908.33339,170.766511 C901.803553,176.282198 893.529096,179.040001 883.50977,179.040001 L880.711282,179.040001 C878.638318,179.040001 874.837941,178.48844 869.310037,177.385303 C863.782133,176.282165 859.947207,175.730605 857.805144,175.730605 L853.659236,175.937442 C850.757087,175.937442 848.597781,174.437887 847.181256,171.438732 C845.764731,168.439576 845.056478,163.148043 845.056478,155.563972 Z" id="Path" fill="#121735"></path>
        <path d="M937.127193,64.0221239 C937.659359,64.0221239 938.144004,63.8495592 938.58114,63.5044248 C939.018277,63.1592903 939.236842,62.6991179 939.236842,62.1238938 C939.236842,61.5103214 938.989769,61.0693229 938.495614,60.800885 C938.00146,60.532447 937.545324,60.3982301 937.127193,60.3982301 L934.447368,60.3982301 L934.447368,64.0221239 L937.127193,64.0221239 Z M939.635965,72.2477876 L936.5,66.5530973 L934.447368,66.5530973 L934.447368,72.2477876 L930.969298,72.2477876 L930.969298,57.5221239 L937.241228,57.5221239 C937.925442,57.5221239 938.59064,57.5988193 939.236842,57.7522124 C939.883044,57.9056055 940.47222,58.1548655 941.004386,58.5 C941.536552,58.8451345 941.96418,59.3148938 942.287281,59.909292 C942.610382,60.5036903 942.77193,61.2418835 942.77193,62.1238938 C942.77193,63.1209489 942.496348,63.9454245 941.945175,64.5973451 C941.394003,65.2492658 940.700297,65.728612 939.864035,66.0353982 L943.741228,72.2477876 L939.635965,72.2477876 Z M923.5,65.0575221 C923.5,63.2551532 923.842102,61.5582675 924.526316,59.9668142 C925.21053,58.3753608 926.141807,56.9948436 927.320175,55.8252212 C928.498544,54.6555989 929.876454,53.7256672 931.453947,53.0353982 C933.031441,52.3451293 934.713441,52 936.5,52 C938.286559,52 939.968559,52.3451293 941.546053,53.0353982 C943.123546,53.7256672 944.501456,54.6555989 945.679825,55.8252212 C946.858193,56.9948436 947.78947,58.3753608 948.473684,59.9668142 C949.157898,61.5582675 949.5,63.2551532 949.5,65.0575221 C949.5,66.859891 949.157898,68.5471898 948.473684,70.119469 C947.78947,71.6917483 946.858193,73.0626785 945.679825,74.2323009 C944.501456,75.4019233 943.123546,76.322268 941.546053,76.9933628 C939.968559,77.6644576 938.286559,78 936.5,78 C934.713441,78 933.031441,77.6644576 931.453947,76.9933628 C929.876454,76.322268 928.498544,75.4019233 927.320175,74.2323009 C926.141807,73.0626785 925.21053,71.6917483 924.526316,70.119469 C923.842102,68.5471898 923.5,66.859891 923.5,65.0575221 Z M925.552632,65.0575221 C925.552632,66.5531048 925.837716,67.9719697 926.407895,69.3141593 C926.978073,70.6563489 927.757305,71.8355406 928.745614,72.8517699 C929.733923,73.8679992 930.893268,74.6637139 932.223684,75.2389381 C933.5541,75.8141622 934.979525,76.1017699 936.5,76.1017699 C938.020475,76.1017699 939.4459,75.8141622 940.776316,75.2389381 C942.106732,74.6637139 943.266077,73.8679992 944.254386,72.8517699 C945.242695,71.8355406 946.021927,70.6563489 946.592105,69.3141593 C947.162284,67.9719697 947.447368,66.5531048 947.447368,65.0575221 C947.447368,63.5235912 947.162284,62.0855524 946.592105,60.7433628 C946.021927,59.4011732 945.242695,58.2315684 944.254386,57.2345133 C943.266077,56.2374581 942.106732,55.4513303 940.776316,54.8761062 C939.4459,54.3008821 938.020475,54.0132743 936.5,54.0132743 C934.979525,54.0132743 933.5541,54.3008821 932.223684,54.8761062 C930.893268,55.4513303 929.733923,56.2374581 928.745614,57.2345133 C927.757305,58.2315684 926.978073,59.4011732 926.407895,60.7433628 C925.837716,62.0855524 925.552632,63.5235912 925.552632,65.0575221 Z" id="®" fill="#121735"></path>
    </g>
</svg>