<svg xmlns="http://www.w3.org/2000/svg" id="prefix__logotype" width="28" height="28" viewBox="0 0 28 28">
    <path id="prefix__Path_8719" d="M24.5 0h-21A3.5 3.5 0 0 0 0 3.5v21A3.5 3.5 0 0 0 3.5 28h21a3.5 3.5 0 0 0 3.5-3.5v-21A3.5 3.5 0 0 0 24.5 0z" data-name="Path 8719" style="fill:#1976d2"/>
    <path id="prefix__Path_8720" d="M205.125 104.75h-4.375v-3.5c0-.966.784-.875 1.75-.875h1.75V96h-3.5a5.25 5.25 0 0 0-5.25 5.25v3.5H192v4.375h3.5v9.625h5.25v-9.625h2.625z" data-name="Path 8720" transform="translate(-181.5 -90.75)" style="fill:#fafafa"/>
</svg>
