<svg xmlns="http://www.w3.org/2000/svg" width="28.405" height="21.354" viewBox="0 0 28.405 21.354">
    <g id="prefix__brands-and-logotypes" transform="translate(0 -64)">
        <path id="prefix__Rectangle_3009" d="M0 0H23V21H0z" data-name="Rectangle 3009" transform="translate(3 64.354)" style="fill:#eceff1"/>
        <path id="prefix__Path_8721" d="M256 156.867l10.652 8.412v-16.607z" data-name="Path 8721" transform="translate(-241.797 -79.974)" style="fill:#cfd8dc"/>
        <path id="prefix__Path_8722" d="M25.742 64h-.888L14.2 72.412 3.551 64h-.888A2.664 2.664 0 0 0 0 66.663v15.978A2.664 2.664 0 0 0 2.663 85.3h.888V68.7L14.2 76.891 24.855 68.7v16.6h.888a2.664 2.664 0 0 0 2.663-2.663V66.663A2.664 2.664 0 0 0 25.742 64z" data-name="Path 8722" style="fill:#f44336"/>
    </g>
</svg>
