<svg width="515" height="304" viewBox="0 0 515 304" fill="none" xmlns="http://www.w3.org/2000/svg">
<path d="M481.3 303.218L29.0475 302.699C-3.8916 281.187 -1.60651 189.384 36.491 166.35C76.644 142.075 40.2907 109.327 72.9184 79.2017C99.3561 54.795 113.908 70.4838 136.192 47.8173C176.536 6.77254 234.71 -9.14846 356.539 6.9914C424.438 15.9853 427.665 48.6555 452.344 51.2372C502.132 56.4544 515.719 115.144 497.947 174.519C494.513 185.987 489.569 201.373 504.997 237.709C519.172 271.079 498.18 300.444 481.3 303.218Z" fill="#F8F8F8"/>
<path d="M281.352 172.549H60.0195V303.18H281.352V172.549Z" fill="#05356B"/>
<path d="M288.123 164.27H42.7002V186.094H288.123V164.27Z" fill="#0858B1"/>
<path d="M320.402 171.242H101.75V301.873H320.402V171.242Z" fill="#0086F5"/>
<path d="M204.871 276.196C248.389 276.196 283.666 263.102 283.666 246.95C283.666 230.798 248.389 217.704 204.871 217.704C161.354 217.704 126.076 230.798 126.076 246.95C126.076 263.102 161.354 276.196 204.871 276.196Z" fill="#007CE3"/>
<path d="M204.872 217.704C168.422 217.704 137.752 226.891 128.753 239.359C141.476 229.557 168.5 222.792 199.779 222.792C243.295 222.792 278.572 235.885 278.572 252.038C278.572 254.66 277.643 257.203 275.89 259.619C280.871 255.787 283.659 251.484 283.659 246.942C283.667 230.791 248.389 217.704 204.872 217.704Z" fill="#2374B8"/>
<path opacity="0.46" d="M101.75 172.549V209.427C114.623 195.692 320.402 189.483 320.402 189.483V172.549H101.75Z" fill="#2374B8"/>
<path d="M250.825 125.045C260.391 120.89 267.522 111.134 272.954 104.865C273.115 104.673 274.758 99.1924 276.402 98.788C276.551 98.7422 276.712 98.7567 276.85 98.8284C276.988 98.9001 277.092 99.0233 277.14 99.1713C277.299 99.6389 276.987 99.9187 276.674 100.858C276.362 101.797 276.358 102.927 276.674 102.843C277.349 102.652 280.73 96.5612 282.127 95.2887C282.824 94.6524 283.56 94.8805 282.043 97.3411C281.59 98.0713 281.067 98.8225 280.585 99.5163C279.435 101.161 278.954 102.374 279.358 102.027C280.562 100.99 284.957 94.593 286.016 95.1104C286.533 95.3634 281.226 101.873 280.077 103.558C282.14 102.331 286.328 95.8713 286.564 97.3373C286.71 98.2438 282.541 103.439 281.391 104.468C279.995 105.72 281.826 104.765 282.75 104.277C283.504 103.87 285.849 101.523 285.562 103.058C285.309 104.417 277.946 108.807 275.599 110.929C273.528 112.807 265.28 129.317 256.471 134.205C250.651 137.434 233.789 137.967 225.098 138.734C224.186 138.813 223.268 138.686 222.412 138.364C221.555 138.042 220.781 137.531 220.148 136.871L219.92 136.633C219.348 136.041 218.902 135.34 218.607 134.571C218.312 133.803 218.175 132.983 218.204 132.16C218.233 131.338 218.427 130.529 218.775 129.783C219.122 129.037 219.617 128.369 220.228 127.818C220.875 127.238 221.636 126.802 222.464 126.537C223.291 126.273 224.165 126.187 225.027 126.285C229.34 126.739 248.076 126.239 250.825 125.045Z" fill="#F1763F"/>
<path d="M240.679 124.872C239.997 124.543 231.73 126.689 227.793 126.191C223.856 125.693 229.632 140.087 229.632 140.087C229.632 140.087 239.639 139.985 242.197 139.353C244.99 138.661 243.655 126.312 240.679 124.872Z" fill="white"/>
<path opacity="0.39" d="M234.677 139.968C237.569 139.865 240.877 139.679 242.197 139.353C242.924 139.173 243.368 138.203 243.581 136.862C242.535 136.842 241.473 136.823 241.31 136.806C237.4 136.367 231.631 132.099 229.993 128.351C229.665 127.602 229.237 126.902 228.719 126.27C228.426 126.27 228.083 126.237 227.794 126.201C223.855 125.702 229.633 140.097 229.633 140.097L233.38 139.522C233.38 139.522 233.888 139.7 234.677 139.968Z" fill="#1D547B"/>
<path d="M190.765 143.406L181.222 164.751L189.123 165.221L201.804 143.954L190.765 143.406Z" fill="#F1763F"/>
<path d="M197.082 128.55L207.838 164.962L235.676 165.345C235.676 165.345 239.824 143.571 239.824 141.902C239.824 140.233 229.01 128.541 226.93 126.461C224.849 124.382 200.002 124.215 197.082 128.55Z" fill="white"/>
<path opacity="0.39" d="M214.517 165.033L197.082 128.55L207.823 164.955L214.517 165.033Z" fill="#1D547B"/>
<path d="M197.082 128.55L188.269 145.415L199.442 151.053L201.81 143.962C201.81 143.962 202.745 134.213 197.082 128.55Z" fill="white"/>
<path d="M195.105 116.032C198.561 116.032 201.362 112.877 201.362 108.985C201.362 105.094 198.561 101.939 195.105 101.939C191.649 101.939 188.848 105.094 188.848 108.985C188.848 112.877 191.649 116.032 195.105 116.032Z" fill="#26004A"/>
<path d="M219.626 125.467C216.635 123.723 208.024 123.723 205.786 125.961C203.548 128.199 220.774 143.193 228.493 143.193C229.28 143.193 223.897 127.956 219.626 125.467Z" fill="#320063"/>
<path d="M218.802 115.532C218.802 115.532 216.633 127.048 218.802 129.219C220.503 130.921 224.201 137.12 225.915 139.629C228.186 142.946 225.341 141.768 224.383 141.495C219.58 140.12 208.523 128.55 208.523 128.55L208.094 113.297L218.802 115.532Z" fill="#F1763F"/>
<g style="mix-blend-mode:multiply" opacity="0.68">
<path d="M209.167 113.52C210.529 117.755 212.905 121.494 215.361 122.966C216.164 123.444 216.991 123.88 217.838 124.273C217.902 120.296 218.796 115.532 218.796 115.532L209.167 113.52Z" fill="#FF682B"/>
</g>
<path d="M229.219 142.017C229.219 142.017 229.343 141.702 230.786 141.702C232.229 141.702 234.384 143.72 234.384 143.72C234.384 143.72 233.733 145.215 231.539 144.211C229.345 143.207 229.219 142.017 229.219 142.017Z" fill="#320063"/>
<path d="M215.928 95.4688C215.928 95.4688 226.811 106.776 225.998 115.294C225.186 123.813 214.204 119.112 209.606 115.662C205.008 112.213 203.875 94.4761 215.928 95.4688Z" fill="#F1763F"/>
<path d="M218.443 90.0703C220.265 91.6418 221.035 94.5509 219.966 96.7548C218.547 99.6754 214.709 99.5087 211.372 102.012C208.034 104.514 208.097 114.947 208.097 114.947C208.097 114.947 194.853 117.368 197.943 104.85C201.033 92.3317 202.865 95.5034 206.704 92.8319C210 90.536 214.498 86.7013 218.443 90.0703Z" fill="#320063"/>
<path d="M208.387 123.577C208.387 123.577 213.637 128.322 217.191 132.845C219.134 135.305 221.357 137.53 223.816 139.475L228.493 143.193C228.493 143.193 223.262 143.002 220.911 141.766C218.561 140.53 219.011 139.171 216.198 139.171C213.386 139.171 211.771 138.09 210.209 136.528C208.648 134.966 207.324 134.476 205.994 133.142C204.665 131.808 201.718 126.446 202.659 125.507C203.599 124.568 208.387 123.577 208.387 123.577Z" fill="#320063"/>
<path d="M229.893 143.145C229.739 143.483 229.488 143.768 229.173 143.963C228.857 144.158 228.491 144.256 228.12 144.243C227.75 144.231 227.391 144.109 227.089 143.892C226.788 143.676 226.557 143.375 226.427 143.028C226.296 142.68 226.271 142.302 226.356 141.941C226.44 141.579 226.629 141.251 226.9 140.997C227.17 140.743 227.51 140.575 227.876 140.514C228.242 140.453 228.617 140.502 228.956 140.654C229.181 140.756 229.384 140.901 229.553 141.081C229.723 141.262 229.855 141.474 229.942 141.705C230.029 141.937 230.069 142.183 230.061 142.43C230.052 142.677 229.995 142.92 229.893 143.145Z" fill="#320063"/>
<path d="M227.274 143.082C227.274 143.082 224.829 143.709 224.829 145.403C224.829 147.097 223.825 147.785 223.825 147.785C223.825 147.785 226.178 148.069 227.274 146.971C228.37 145.873 227.274 143.082 227.274 143.082Z" fill="#320063"/>
<path d="M327.175 164.27H78.1348V186.094H327.175V164.27Z" fill="#76BBF5"/>
<g style="mix-blend-mode:screen">
<path d="M327.175 164.27H78.1348V168.935H327.175V164.27Z" fill="#76BBF5"/>
</g>
<path d="M178.949 151.541L117.671 150.072L105.779 115.026L166.207 113.989L178.949 151.541Z" fill="#2C374A"/>
<path opacity="0.4" d="M117.671 150.071L178.949 151.541L177.886 148.408C170.104 147.988 153.638 146.325 138.526 139.738C125.354 133.989 115.684 122.874 110.393 114.947L105.779 115.026L117.671 150.071Z" fill="black"/>
<path d="M142.509 133.033C136.581 138.864 132.34 148.119 133.137 160.282L124.231 158.952C126.657 145.085 133.832 135.716 141.369 131.028L142.509 133.033Z" fill="black"/>
<path d="M152.743 164.27H118.167V157.931H146.403C147.236 157.93 148.06 158.094 148.829 158.413C149.599 158.731 150.298 159.198 150.886 159.787C151.475 160.375 151.942 161.074 152.261 161.844C152.579 162.613 152.743 163.437 152.743 164.27Z" fill="#2C374A"/>
<path d="M116.081 157.931H144.319C145.152 157.931 145.976 158.095 146.745 158.413C147.514 158.732 148.212 159.199 148.801 159.787C149.389 160.376 149.856 161.075 150.175 161.844C150.493 162.613 150.657 163.438 150.657 164.27H116.081V157.929V157.931Z" fill="black"/>
<path d="M362.135 277.181V289.204L359.016 293.097L354.048 290.883C354.048 290.883 354.644 288.643 354.688 286.897C354.732 285.151 354.211 279.231 354.211 279.231L362.135 277.181Z" fill="#E75237"/>
<path d="M362.686 287.591C362.686 287.591 364.071 289.295 364.588 292.288C365.105 295.282 364.437 298.166 364.437 298.166C364.437 298.166 349.893 299.891 344.113 299.187C338.333 298.484 337.762 297.514 337.804 295.885C337.846 294.256 345.63 294.26 347.83 292.173C350.029 290.086 353.003 285.711 354.417 286.303C355.83 286.895 355.723 289.517 357.589 289.561C359.455 289.605 361.802 286.654 362.686 287.591Z" fill="#00424C"/>
<path d="M387.525 281.042V293.066L384.405 296.958L379.438 294.745C379.438 294.745 380.032 292.505 380.078 290.759C380.124 289.013 379.601 283.093 379.601 283.093L387.525 281.042Z" fill="#E75237"/>
<path d="M388.083 291.453C388.083 291.453 389.468 293.156 389.987 296.15C390.507 299.143 389.834 302.027 389.834 302.027C389.834 302.027 375.293 303.752 369.51 303.049C363.728 302.345 363.159 301.376 363.201 299.747C363.243 298.118 371.03 298.122 373.227 296.033C375.425 293.944 378.4 289.573 379.814 290.165C381.228 290.757 381.123 293.379 382.987 293.423C384.851 293.467 387.194 290.515 388.083 291.453Z" fill="#00424C"/>
<path d="M355.22 207.694H313.15V236.346H355.22V207.694Z" fill="#7F3100"/>
<path opacity="0.38" d="M343.395 236.346H355.214V207.694H347.416C346.299 213.744 344.01 226.927 343.395 236.346Z" fill="#001C41"/>
<path d="M341.14 210.35H338.765V203.779C338.764 203.079 338.486 202.409 337.992 201.915C337.498 201.42 336.827 201.142 336.128 201.142H331.005C330.306 201.143 329.637 201.421 329.143 201.915C328.649 202.41 328.371 203.08 328.371 203.779V210.35H325.995V203.779C325.997 202.45 326.525 201.176 327.464 200.236C328.403 199.296 329.677 198.767 331.005 198.765H336.128C337.457 198.767 338.731 199.296 339.67 200.236C340.61 201.176 341.138 202.45 341.14 203.779V210.35Z" fill="#7F3100"/>
<path d="M331.364 189.177C331.364 189.177 328.592 194.227 328.592 196.306C328.592 198.386 327.404 203.832 329.977 204.326C332.55 204.821 337.304 203.238 337.304 203.238C337.304 203.238 337.995 200.264 335.819 196.801C333.642 193.338 336.511 188.386 336.511 188.386L331.364 189.177Z" fill="#F1763F"/>
<path d="M356.314 104.602C356.314 104.602 341.856 108.084 339.877 131.848C337.898 155.612 328.989 190.862 328.989 190.862C328.989 190.862 336.98 195.898 339.402 194.565C346.564 190.619 344.487 172.054 348.489 163.135L356.314 104.602Z" fill="#2C374A"/>
<path opacity="0.38" d="M351.54 140.322C346.558 162.037 339.922 187.999 335.395 194.112C337.025 194.718 338.554 195.032 339.403 194.564C346.564 190.619 344.487 172.054 348.49 163.135L351.54 140.322Z" fill="#001C41"/>
<path d="M360.281 103.446C360.281 103.446 354.131 103.034 348.489 113.134C342.847 123.233 341.812 182.753 344.677 189.817C347.958 197.92 354.43 193.041 354.43 193.041C354.43 193.041 357.864 154.36 356.273 134.646C354.683 114.932 360.281 103.446 360.281 103.446Z" fill="#000005"/>
<path d="M358.636 171.464C360.747 173.17 362.515 175.26 363.847 177.625C371.76 191.554 363.847 283.381 363.847 283.381L352.696 283.084V226.12C352.696 206.956 352.35 179.078 352.35 179.078L358.636 171.464Z" fill="#2C374A"/>
<path d="M352.34 178.421C352.34 178.421 359.045 186.433 363.341 196.971C364.682 200.277 378.476 236.338 378.476 288.984H388.276C388.276 288.984 388.797 250.597 388.276 230.329C387.845 213.529 384.119 179.078 384.119 173.137L352.181 171.671L352.34 178.421Z" fill="#2C374A"/>
<path opacity="0.38" d="M384.214 175.49C382.67 175.49 367.395 177.307 367.395 177.307C367.395 177.307 368.272 191.32 371.903 198.068C374.296 202.512 381.81 204.292 386.655 204.99C385.676 192.936 384.538 181.029 384.214 175.49Z" fill="#172235"/>
<path d="M358.288 104.223C354.84 108.542 350.709 116.227 349.973 124.719C349.295 132.555 352.349 179.078 352.349 179.078H388.282C388.282 179.078 391.698 109.422 388.282 106.005C386.762 104.485 378.304 102.707 376.106 102.441C368.841 101.563 360.034 102.038 358.288 104.223Z" fill="#1FC9AA"/>
<path d="M376.106 102.44C376.106 102.44 376.106 108.381 373.137 121.748C370.167 135.115 369.87 187.098 373.137 193.039C376.403 198.98 395.706 196.009 395.706 196.009C395.706 196.009 393.723 111.846 388.282 106.005C387.542 105.211 386.941 104.663 385.983 104.173C381.822 102.072 376.106 102.44 376.106 102.44Z" fill="#2C374A"/>
<path opacity="0.38" d="M390.713 114.246L384.086 105.693C384.086 105.693 378.8 117.36 380.465 123.977C382.13 130.595 388.598 146.805 386.433 148.971C384.268 151.137 391.491 147.572 391.491 147.572L390.713 114.246Z" fill="#001C41"/>
<path opacity="0.38" d="M371.1 144.617C371.065 145.579 371.032 146.551 371.003 147.534C370.922 150.229 371.496 152.904 372.676 155.329C373.856 157.754 375.606 159.857 377.777 161.456C383.676 165.801 390.805 170.372 394.852 170.481C394.574 163.704 394.221 156.198 393.788 148.764C386.7 147.524 371.1 144.615 371.1 144.615V144.617Z" fill="#001C41"/>
<path d="M354.428 121.007C354.428 121.007 358.553 130.315 359.164 134.646C359.775 138.977 360.811 146.552 360.811 146.552L374.474 145.512L375.522 121.007H354.428Z" fill="white"/>
<path d="M357.704 129.477C357.704 129.477 356.07 137.043 359.77 138.969C361.82 140.037 365.678 138.969 367.391 140.694C369.104 142.419 371.096 144.611 371.096 144.611L374.47 139.565L368.242 133.186C368.242 133.186 365.494 128.655 364.529 129.621C363.563 130.587 367.054 133.483 365.717 133.483C364.379 133.483 357.704 129.477 357.704 129.477Z" fill="#F1763F"/>
<path d="M385.778 104.075C385.778 104.075 383.388 104.458 381.848 112.243C379.932 121.921 389.173 138.977 386.994 144.126C384.816 149.276 370.797 134.424 370.797 134.424L369.81 137.179L367.395 143.929C367.395 143.929 386.4 166.899 395.706 165.117C405.011 163.335 397.284 106.187 385.778 104.075Z" fill="#2C374A"/>
<path d="M358.618 92.383L360.86 110.545L374.982 102.415L367.381 89.1423L358.618 92.383Z" fill="#FF916C"/>
<g style="mix-blend-mode:multiply" opacity="0.68">
<path d="M369.1 92.2201L367.376 89.1423L358.612 92.383L359.846 102.381C360.899 102.104 361.9 101.662 362.814 101.07C365.176 99.4584 367.529 95.9705 369.1 92.2201Z" fill="#FF682B"/>
</g>
<path d="M359.395 69.9323C359.395 69.9323 358.956 69.7522 356.454 73.1902C354.67 75.6394 353.591 78.5658 352.478 81.3599C350.819 85.5224 349.436 90.0509 350.687 94.5084C351.344 96.8503 360.743 97.4865 364.527 95.4666C368.311 93.4467 371.823 86.9808 371.601 82.3718C371.378 77.7628 361.081 69.0335 359.395 69.9323Z" fill="#FF916C"/>
<path d="M365.357 96.5212C365.932 97.7534 366.907 98.0946 369.848 98.1482C373.628 98.2191 377.383 95.3522 378.337 90.1127C381.253 74.0934 366.075 70.182 362.177 68.6488C360.713 68.0739 359.569 68.5492 358.711 69.3656C358.043 70.0213 357.231 70.5126 356.341 70.8007C355.45 71.0887 354.505 71.1656 353.58 71.0252C352.756 70.893 350.572 70.8336 349.98 72.0984C348.284 75.6936 348.238 79.4325 354.634 79.4325C369.127 79.4344 364.24 94.1448 365.357 96.5212Z" fill="black"/>
<path d="M363.858 91.3773C363.858 91.3773 364.144 87.3221 366.278 88.0159C368.412 88.7096 369.229 93.0561 367.274 93.9721C365.32 94.8881 363.858 91.3773 363.858 91.3773Z" fill="#FF916C"/>
<path d="M337.013 34.1474C337.013 28.8102 332.607 24.4849 327.156 24.4849H266.439C260.994 24.4849 256.582 28.8102 256.582 34.1474V49.6052C256.582 54.9405 260.989 59.2678 266.439 59.2678H325.357L331.36 80.8045C331.36 80.8045 337.013 50.9525 337.013 49.6052V34.1474Z" fill="#176CFF"/>
<path d="M259.538 62.2478C257.33 62.2531 255.161 61.6676 253.255 60.5518C251.35 59.4361 249.777 57.8309 248.701 55.9026H239.371C235.842 55.9026 232.981 59.0532 232.981 62.9416C233.018 78.7348 231.832 71.4543 237.579 90.1853L240.539 81.2452H278.733C282.264 81.2452 285.124 78.0928 285.124 74.2063V62.9416C285.124 62.7078 285.113 62.4759 285.094 62.2478H259.538Z" fill="#1FC9AA"/>
<path d="M327.202 35.581H263.211C262.891 35.5684 262.589 35.4323 262.367 35.2013C262.144 34.9704 262.021 34.6624 262.021 34.342C262.021 34.0216 262.144 33.7136 262.367 33.4826C262.589 33.2517 262.891 33.1156 263.211 33.103H327.202C327.522 33.1156 327.825 33.2517 328.047 33.4826C328.269 33.7136 328.393 34.0216 328.393 34.342C328.393 34.6624 328.269 34.9704 328.047 35.2013C327.825 35.4323 327.522 35.5684 327.202 35.581Z" fill="#EEEEEE"/>
<path d="M327.201 42.4609H263.21C262.882 42.4609 262.567 42.3304 262.335 42.0983C262.103 41.8661 261.973 41.5512 261.973 41.2229C261.973 40.8945 262.103 40.5796 262.335 40.3475C262.567 40.1153 262.882 39.9849 263.21 39.9849H327.201C327.53 39.9849 327.844 40.1153 328.076 40.3475C328.309 40.5796 328.439 40.8945 328.439 41.2229C328.439 41.5512 328.309 41.8661 328.076 42.0983C327.844 42.3304 327.53 42.4609 327.201 42.4609Z" fill="#EEEEEE"/>
<path d="M327.201 50.1342H263.21C262.882 50.1342 262.567 50.0038 262.335 49.7716C262.103 49.5394 261.973 49.2245 261.973 48.8962C261.973 48.5679 262.103 48.253 262.335 48.0208C262.567 47.7886 262.882 47.6582 263.21 47.6582H327.201C327.53 47.6582 327.844 47.7886 328.076 48.0208C328.309 48.253 328.439 48.5679 328.439 48.8962C328.439 49.2245 328.309 49.5394 328.076 49.7716C327.844 50.0038 327.53 50.1342 327.201 50.1342Z" fill="#EEEEEE"/>
<path d="M464.01 74.3327C462.887 74.5685 452.752 74.6815 452.752 82.0559C452.752 89.4303 452.9 92.3604 450.995 95.5839C449.091 98.8073 448.558 112.448 456.551 108.569C458.688 107.533 457.212 115.225 457.212 115.225C457.212 115.225 470.925 121.381 474.733 119.769C478.542 118.157 484.405 121.82 484.405 121.82C484.405 121.82 490.233 112.489 484.405 106.659C478.577 100.829 479.276 101.293 479.276 94.7061C479.276 88.1194 478.103 90.0148 475.32 86.0574C472.536 82.1 470.896 72.8878 464.01 74.3327Z" fill="black"/>
<path d="M491.208 191.974L486.466 132.649L482.713 133.763L490.053 191.974H491.208Z" fill="#451B00"/>
<path d="M450.415 220.408C450.415 220.408 455.619 274.566 453 281.283C450.381 288 446.103 299.546 446.103 299.546H450.915L460.753 286.472C460.753 286.472 460.516 285.87 461.328 283.249C462.141 280.627 468.043 252.448 465.915 239.171C465.309 235.406 464.56 217.269 462.71 214.197C458.039 206.45 450.415 216.492 450.415 220.408Z" fill="#FF916C"/>
<path d="M461.124 283.956C461.124 283.956 462.337 283.46 463.424 285.999C464.51 288.538 461.454 301.127 461.454 301.127L458.973 301.204C458.973 301.204 460.661 291.869 460.088 291.869C459.515 291.869 456.756 301.37 455.359 301.752C453.963 302.133 444.786 302.737 443.356 301.307C441.927 299.878 447.069 296.949 447.069 296.949C447.069 296.949 451.681 297.564 452.284 296.961C452.888 296.357 461.124 283.956 461.124 283.956Z" fill="#00424C"/>
<path d="M469.174 220.408C469.174 220.408 474.38 274.566 471.759 281.283C469.138 288 464.861 299.546 464.861 299.546H469.676L479.512 286.472C479.512 286.472 479.277 285.87 480.087 283.249C480.897 280.627 486.793 252.448 484.674 239.171C484.07 235.406 483.321 217.269 481.468 214.197C476.797 206.45 469.174 216.492 469.174 220.408Z" fill="#FF916C"/>
<g style="mix-blend-mode:multiply" opacity="0.68">
<path d="M483.511 226.082C480.921 225.626 475.53 224.681 469.476 223.66C469.719 226.343 470.085 230.476 470.478 235.35C473.351 235.777 479.747 236.551 484.318 235.752C484.094 233.121 483.835 229.566 483.511 226.082Z" fill="#FF682B"/>
</g>
<g style="mix-blend-mode:multiply" opacity="0.68">
<path d="M464.421 222.815C459.453 221.994 454.435 221.193 450.435 220.62C450.544 221.77 451.084 227.519 451.697 235.059C453.422 235.537 455.176 235.9 456.949 236.145C459.812 236.558 462.723 236.507 465.57 235.994C465.281 232.539 464.923 227.33 464.421 222.815Z" fill="#FF682B"/>
</g>
<path d="M488.283 231.678V199.317C488.283 190.799 485.007 168.404 479.765 157.264C474.523 146.124 452.904 157.264 452.904 157.264C452.904 157.264 447.969 168.099 446.658 183.825L445.401 232.577C460.972 234.995 473.167 235.187 488.283 231.678Z" fill="#1FC9AA"/>
<path opacity="0.38" d="M488.283 204.091L480.54 201.232L480.157 211.345C480.157 211.345 480.284 216.007 488.292 218.794L488.283 204.091Z" fill="#001C41"/>
<path d="M449.003 110.195C448.487 111.111 445.362 118.849 446.177 127.069C447.391 139.349 452.739 154.945 451.562 159.853C449.596 168.044 479.096 169.274 480.473 158.922C480.964 155.238 480.007 146.026 480.873 137.69C482.249 124.453 485.397 111.421 484.813 111.065C471.892 103.146 450.215 108.037 449.003 110.195Z" fill="#2C374A"/>
<g style="mix-blend-mode:multiply">
<path d="M463.088 113.056C463.088 113.056 462.38 118.928 466.842 123.391C470.785 127.335 476.76 129.97 482.132 128.122C483.575 118.797 485.253 111.333 484.815 111.066C481.153 108.82 476.789 107.603 472.384 107.063L462.364 107.713L463.088 113.056Z" fill="#51D5F4"/>
</g>
<g style="mix-blend-mode:multiply" opacity="0.57">
<path d="M450.646 150.317C451.221 153.115 451.631 155.569 451.714 157.453C453.647 157.137 455.672 156.945 457.237 157.131C460.601 157.53 473.789 158.281 480.546 158.21C480.669 156.604 480.619 154.285 480.563 151.583L454.547 147.724L450.646 150.317Z" fill="#00B0EF"/>
</g>
<path d="M484.812 111.065C484.812 111.065 487.627 110.9 490.205 124.416C492.784 137.933 488.47 154.519 485.592 155.993C482.714 157.467 456.549 154.152 456.549 154.152L457.407 144.69C457.407 144.69 477.582 143.607 479.793 141.396C480.335 140.852 479.764 138.23 480.231 135.359C481.662 126.549 484.812 111.065 484.812 111.065Z" fill="#2C374A"/>
<g style="mix-blend-mode:multiply">
<path d="M489.189 119.783C486.94 110.94 484.813 111.065 484.813 111.065C484.813 111.065 482.972 120.126 481.464 128.328C482.429 128.063 483.354 127.668 484.213 127.153C486.961 125.515 488.417 122.502 489.189 119.783Z" fill="#51D5F4"/>
</g>
<path d="M480.874 140.098C480.874 140.098 483.779 138.506 484.924 137.358C486.07 136.21 488.283 134.736 488.283 135.633C488.283 136.53 487.218 137.724 487.218 137.724C487.218 137.724 491.189 135.511 491.639 135.961C492.09 136.411 492.295 139.236 491.639 142.268C490.984 145.3 482.06 146.645 482.06 146.645L480.874 140.098Z" fill="#FF916C"/>
<path d="M479.883 283.956C479.883 283.956 481.098 283.46 482.182 285.999C483.267 288.538 480.213 301.127 480.213 301.127L477.734 301.204C477.734 301.204 479.42 291.869 478.849 291.869C478.278 291.869 475.515 301.37 474.118 301.752C472.722 302.133 463.546 302.737 462.117 301.307C460.688 299.878 465.83 296.949 465.83 296.949C465.83 296.949 470.442 297.564 471.043 296.961C471.645 296.357 479.883 283.956 479.883 283.956Z" fill="#00424C"/>
<path d="M484.213 110.212C477.617 131.223 479.631 152.565 482.196 195.544L480.96 195.647C476.41 152.018 473.511 130.65 479.341 108.778L484.213 110.212Z" fill="#7F3100"/>
<path d="M444.388 154.397C453.685 156.938 474.36 151.94 482.705 150.219L480.74 139.407C480.74 139.407 456.237 143.583 453.256 141.858C451.783 141.007 448.574 133.261 447.882 125.643C447.175 117.851 449.003 110.195 449.003 110.195C449.003 110.195 440.642 117.719 440.642 136.887C440.642 151.515 440.297 153.278 444.388 154.397Z" fill="#2C374A"/>
<path d="M448.974 133.084C448.974 133.084 451.014 135.192 452.614 136.798C454.214 138.404 456.553 142.488 456.553 142.488C456.553 142.488 453.235 142.929 452.089 142.929C450.943 142.929 447.422 140.472 446.112 140.472C444.801 140.472 445.374 138.586 446.93 139.079C448.485 139.571 450.041 139.897 450.041 139.897C450.041 139.897 446.562 137.072 444.964 135.474C443.366 133.876 444.885 132.946 446.192 134.253C447.028 135.074 447.964 135.787 448.978 136.375C448.978 136.375 444.391 131.624 445.209 130.806C446.027 129.987 448.974 133.084 448.974 133.084Z" fill="#FF916C"/>
<path d="M460.372 93.4337L459.247 106.787C459.247 106.787 454.755 122.626 458.362 123.945C461.97 125.263 467.175 107.397 467.175 107.397V90.3062L460.372 93.4337Z" fill="#1FC9AA"/>
<g style="mix-blend-mode:multiply" opacity="0.68">
<path d="M459.678 101.678C462.143 101.504 464.996 99.2711 467.169 96.1723V90.3062L460.371 93.4318L459.678 101.678Z" fill="#FF682B"/>
</g>
<path d="M460.372 77.9969C460.372 77.9969 456.416 76.2377 455.097 84.1525C453.779 92.0673 454.783 97.6689 458.69 98.2554C462.596 98.8418 467.991 94.1197 469.896 88.8419C471.8 83.5641 463.501 77.1614 460.372 77.9969Z" fill="#FF916C"/>
<path d="M486.924 110.237C486.281 108.917 485.43 107.71 484.402 106.661C478.574 100.831 479.274 101.295 479.274 94.7082C479.274 88.1215 478.101 90.0168 475.317 86.0595C472.533 82.1021 470.895 72.8553 464.013 74.2984C463.925 74.3176 456.122 75.684 457.576 78.5299C457.576 78.5299 458.996 77.4969 461.632 80.8679C464.268 84.2389 462.793 84.4477 465.431 85.6206C468.069 86.7934 467.048 91.3372 467.048 94.3403C467.048 97.3433 466.163 106.396 463.745 110.317C461.327 114.238 465.914 121.772 471.348 124.039C487.24 130.668 489.863 116.126 486.924 110.237Z" fill="black"/>
<path d="M483.365 209.864H483.064C482.684 209.864 482.308 209.788 481.957 209.641C481.607 209.493 481.289 209.277 481.023 209.006C480.757 208.734 480.548 208.412 480.408 208.059C480.268 207.705 480.2 207.327 480.208 206.947L480.518 191.424H484.957L486.214 206.755C486.249 207.15 486.201 207.548 486.073 207.924C485.946 208.299 485.741 208.644 485.473 208.936C485.205 209.229 484.88 209.462 484.517 209.622C484.154 209.781 483.762 209.864 483.365 209.864Z" fill="#7F3100"/>
<path d="M488.549 211.025H487.756C483.213 211.192 480.15 209.095 480.234 207.384L481.029 191.42H489.825C490.653 191.42 491.455 191.706 492.096 192.23C492.737 192.754 493.177 193.483 493.343 194.295L496.073 207.727C496.433 209.507 492.967 211.025 488.549 211.025Z" fill="#995327"/>
<path d="M480.208 206.947L480.518 191.424H481.913C482.743 191.424 483.542 191.736 484.153 192.299C484.763 192.862 485.139 193.634 485.206 194.461L486.214 206.765C486.54 210.772 480.131 210.96 480.208 206.947Z" fill="#7F3100"/>
<path d="M426.952 32.3068C426.952 26.9696 431.359 22.6443 436.809 22.6443H497.53C502.975 22.6443 507.387 26.9696 507.387 32.3068V47.7647C507.387 53.0999 502.981 57.4253 497.53 57.4253H438.614L432.61 78.9639C432.61 78.9639 426.952 49.11 426.952 47.7647V32.3068Z" fill="#176CFF"/>
<path d="M436.761 33.7385H500.752C501.08 33.7385 501.395 33.608 501.627 33.3759C501.859 33.1437 501.99 32.8288 501.99 32.5005C501.99 32.1721 501.859 31.8572 501.627 31.6251C501.395 31.3929 501.08 31.2625 500.752 31.2625H436.761C436.433 31.2625 436.118 31.3929 435.886 31.6251C435.654 31.8572 435.523 32.1721 435.523 32.5005C435.523 32.8288 435.654 33.1437 435.886 33.3759C436.118 33.608 436.433 33.7385 436.761 33.7385Z" fill="#EEEEEE"/>
<path d="M436.762 40.6202H500.753C500.92 40.6268 501.086 40.5996 501.242 40.5403C501.398 40.481 501.541 40.3908 501.661 40.2751C501.781 40.1594 501.877 40.0206 501.942 39.867C502.008 39.7134 502.041 39.5482 502.041 39.3813C502.041 39.2143 502.008 39.0491 501.942 38.8955C501.877 38.742 501.781 38.6032 501.661 38.4875C501.541 38.3718 501.398 38.2816 501.242 38.2222C501.086 38.1629 500.92 38.1358 500.753 38.1423H436.762C436.442 38.1549 436.139 38.291 435.917 38.5219C435.695 38.7529 435.571 39.0609 435.571 39.3813C435.571 39.7017 435.695 40.0097 435.917 40.2406C436.139 40.4716 436.442 40.6076 436.762 40.6202Z" fill="#EEEEEE"/>
<path d="M436.762 48.2936H500.753C500.92 48.3001 501.086 48.2729 501.242 48.2136C501.398 48.1543 501.541 48.0641 501.661 47.9484C501.781 47.8327 501.877 47.6939 501.942 47.5403C502.008 47.3868 502.041 47.2215 502.041 47.0546C502.041 46.8877 502.008 46.7225 501.942 46.5689C501.877 46.4153 501.781 46.2765 501.661 46.1608C501.541 46.0451 501.398 45.9549 501.242 45.8956C501.086 45.8363 500.92 45.8091 500.753 45.8157H436.762C436.442 45.8282 436.139 45.9643 435.917 46.1953C435.695 46.4262 435.571 46.7342 435.571 47.0546C435.571 47.375 435.695 47.683 435.917 47.914C436.139 48.1449 436.442 48.281 436.762 48.2936Z" fill="#EEEEEE"/>
<path d="M63.5362 302.804H32.9872L27.1533 265.265H69.3682L63.5362 302.804Z" fill="black"/>
<path d="M48.3334 267.256C59.9516 267.256 69.37 266.365 69.37 265.265C69.37 264.166 59.9516 263.274 48.3334 263.274C36.7153 263.274 27.2969 264.166 27.2969 265.265C27.2969 266.365 36.7153 267.256 48.3334 267.256Z" fill="#2C374A"/>
<path d="M78.6044 181.608C78.499 181.725 74.4201 185.866 69.4867 191.995C61.6104 201.769 51.1688 216.333 48.6494 225.797C48.4423 226.561 48.2855 227.337 48.18 228.121C48.1072 228.694 48.0356 229.283 47.9654 229.89C46.4748 242.491 45.2831 261.467 44.9364 267.232L43.7715 267.21C44.1298 261.222 45.4287 240.555 47.0285 227.966C47.1274 227.213 47.274 226.468 47.4673 225.733C47.6837 224.894 47.9635 224.018 48.2949 223.112C54.1307 207.206 76.6885 181.982 77.748 180.799L78.6044 181.608Z" fill="#2C374A"/>
<path d="M49.7201 267.253C49.3369 267.253 48.9384 267.253 48.5438 267.253C48.881 264.897 50.4328 252.011 47.969 229.882C47.817 228.531 47.6503 227.145 47.4689 225.726C47.3336 224.655 47.1873 223.564 47.0302 222.453C42.8957 193.06 48.4269 136.842 48.4825 136.277L49.6416 136.396C49.586 136.959 44.0682 193.037 48.1836 222.286C48.2219 222.56 48.2602 222.834 48.2966 223.104C48.4243 224.012 48.5431 224.907 48.653 225.787C51.7203 249.926 50.134 264.24 49.7201 267.253Z" fill="#2C374A"/>
<path d="M53.1841 268.46L52.0518 268.178C57.4737 245.243 57.8952 192.915 57.8991 192.388L59.0639 192.398C59.0601 192.925 58.6329 245.39 53.1841 268.46Z" fill="#2C374A"/>
<path d="M48.1861 268.339H47.0213C47.0213 253.876 31.7401 207.545 31.5811 207.091L32.2842 207.892C32.9337 209.754 48.1861 253.677 48.1861 268.339Z" fill="#19A38A"/>
<path d="M32.6154 209.423C32.6154 209.436 34.9968 201.395 34.8761 196.92C34.8014 194.249 34.7343 190.343 33.9929 187.629C33.6614 186.416 32.3778 186.418 31.9256 187.616C31.9371 187.562 29.025 176.623 27.4922 175.872C27.0037 175.615 25.5648 177.076 25.3158 176.506C22.7983 170.815 14.2649 162.298 14.2764 162.231C14.3339 167.258 14.4009 172.214 14.4795 177.127C20.618 187.332 26.8849 197.253 32.6154 209.423Z" fill="#19A38A"/>
<path d="M32.6028 209.474C32.6431 209.308 31.0165 188.285 28.2346 183.313C27.3667 181.675 26.5371 180.395 25.4891 179.655C24.6672 179.08 23.6613 179.383 23.6479 180.629V180.881C23.6345 182.254 22.165 182.85 21.709 181.677C19.2184 175.249 16.7277 168.887 14.2773 162.231C14.2581 162.361 11.8747 183.683 20.7339 192.836C29.5336 202.357 32.5875 209.566 32.6028 209.474Z" fill="#1FC9AA"/>
<path d="M47.0725 174.289C47.0725 174.289 52.893 168.601 54.3759 164.766C55.2611 162.467 56.6252 159.115 56.8263 156.357C56.847 156.084 56.7871 155.81 56.6542 155.57C56.5212 155.33 56.321 155.135 56.0781 155.007C55.8353 154.88 55.5605 154.827 55.2876 154.854C55.0147 154.881 54.7557 154.987 54.5426 155.159C54.5426 155.159 55.627 143.868 54.3089 142.227C53.8874 141.7 51.7684 142.103 51.7281 141.446C51.3162 134.834 45.5762 121.998 45.5762 121.998L40.0488 135.085L47.0725 174.289Z" fill="#11917A"/>
<path d="M47.0727 174.289C47.0727 174.289 53.1288 155.395 52.1862 149.222C51.8873 147.264 51.4984 145.629 50.6707 144.33C50.0193 143.314 48.8257 142.958 48.318 144.052L48.2145 144.274C48.0959 144.531 47.8935 144.74 47.6406 144.866C47.3877 144.992 47.0993 145.029 46.8229 144.97C46.5465 144.91 46.2984 144.759 46.1196 144.54C45.9407 144.321 45.8417 144.047 45.8388 143.764L45.5763 121.998C45.5763 121.998 34.8186 139.108 40.3708 153.025C45.9231 166.942 47.0727 174.289 47.0727 174.289Z" fill="#1FC9AA"/>
<path d="M69.9358 189.985C70.0144 190.019 68.7115 184.691 71.1543 181.32C73.9573 177.453 77.9711 175.548 82.3987 176.89C83.9563 177.361 84.784 179.446 84.2897 180.339C85.6692 180.498 90.1447 180.404 96.4135 182.842C97.3178 183.187 98.2738 184.166 98.6225 185.103L98.6379 185.142C99.887 188.423 103.983 188.068 108.834 196.065C114.774 202.414 114.737 224.352 113.362 224.574C111.373 218.903 108.328 214.289 104.788 210.791C98.7298 191.629 81.5174 184.676 69.9358 189.985Z" fill="#11917A"/>
<path d="M69.4873 191.729C69.723 191.242 69.4873 187.07 76.5876 185.188C81.9636 183.764 89.495 183.047 93.4264 185.397C95.5025 186.443 97.4597 187.71 99.2642 189.176C100.703 190.345 100.906 192.488 99.6953 192.214L99.4519 192.166C98.151 191.943 98.5476 194.274 99.8543 195.345C107.165 201.322 113.118 211.405 113.358 224.578C113.358 224.331 104.109 208.097 90.9415 198.206C76.6987 187.739 69.6118 191.675 69.4873 191.729Z" fill="#1FC9AA"/>
<path d="M62.1614 169.283L61.395 166.901C61.395 166.901 52.1317 182.054 53.0436 188.327C53.9556 194.599 58.5155 197.334 58.5155 197.334L62.1614 169.283Z" fill="#11917A"/>
<path d="M62.7313 164.266C62.7313 164.266 63.5302 164.841 63.5302 167.231C63.5302 169.621 58.4013 198.085 58.4013 198.085C58.4013 198.085 54.5236 191.186 55.0945 185.931C55.6654 180.677 61.7637 165.236 62.7313 164.266Z" fill="#1FC9AA"/>
<path d="M57.0234 268.339L56.1267 268.159C60.8801 242.257 51.0975 228.752 50.4997 227.958L45.3096 223.683L45.8843 222.934L50.7775 227.021C50.8791 227.159 61.9875 241.285 57.0234 268.339Z" fill="#19A38A"/>
<path d="M50.7489 227.006C50.6819 227.006 51.0976 220.829 49.4595 217.776C48.4518 215.962 46.8865 213.284 44.6181 211.822C43.6045 211.159 41.727 211.861 41.6791 212.901C41.9473 212.662 31.7796 207.757 28.7276 209.022C27.8233 209.314 26.7255 211.404 26.0147 211.356C18.4776 209.651 0.560074 220.145 0.897272 220.994C5.05714 221.579 9.15934 222.519 13.159 223.804C27.6566 218.702 41.5814 220.826 50.7489 227.006Z" fill="#19A38A"/>
<path d="M50.8218 227.351C50.8506 227.031 46.5417 213.074 34.4218 212.566C32.2625 212.476 30.3275 212.205 28.4154 212.744C26.9095 213.168 25.7753 214.292 26.5953 214.923L26.7582 215.053C27.6242 215.76 26.1834 217.389 24.8423 217.284C17.3894 216.678 9.1664 217.742 0.893555 220.925C0.966359 221.427 16.1326 228.296 30.7202 226.073C45.9574 224.712 49.5324 227.581 50.8218 227.351Z" fill="#1FC9AA"/>
<path d="M42.3229 268.531L42.8786 268.418C39.9377 252.395 45.9881 244.041 46.3597 243.55L49.5689 240.906L49.2202 240.442L45.9421 243.15C45.875 243.234 39.2518 251.795 42.3229 268.531Z" fill="#19A38A"/>
<path d="M45.9424 243.15C45.9845 243.15 45.9884 239.141 47.0019 237.251C47.6265 236.13 48.594 234.472 49.9983 233.57C50.6248 233.158 51.7859 233.593 51.8146 234.237C51.6498 234.089 57.9455 231.053 59.8269 231.835C60.3863 232.027 61.0646 233.311 61.5052 233.28C66.1685 232.226 77.252 238.717 77.0432 239.242C74.4679 239.604 71.9284 240.185 69.4524 240.98C60.4898 237.826 51.6096 239.325 45.9424 243.15Z" fill="#19A38A"/>
<path d="M45.9416 243.234C45.5431 243.135 51.5724 234.445 56.3047 234.066C57.6267 233.874 58.8375 233.844 60.0196 234.175C60.9508 234.438 61.6539 235.133 61.1462 235.517L61.0446 235.595C60.5082 236.034 61.401 237.042 62.2306 236.977C66.8402 236.594 71.9289 237.261 77.0424 239.235C76.9964 239.545 67.4457 242.322 58.4199 240.946C48.9975 240.108 45.9876 243.562 45.9416 243.234Z" fill="#1FC9AA"/>
<path d="M208.791 108.169C208.791 108.169 206.253 105.206 205.266 107.276C204.279 109.346 204.731 113.294 207.28 111.555C209.828 109.817 208.791 108.169 208.791 108.169Z" fill="#F1956C"/>
<path d="M514.789 301.873H0.893555V303.18H514.789V301.873Z" fill="black"/>
</svg>
