<svg width="656" height="655" viewBox="0 0 656 655" fill="none" xmlns="http://www.w3.org/2000/svg">
<circle cx="328.009" cy="327.146" r="268.189" stroke="#E1E1E1" stroke-width="0.886574"/>
<circle cx="328.009" cy="327.146" r="326.703" stroke="#E1E1E1" stroke-width="0.886574"/>
<path d="M540.343 326.259C540.343 444.02 445.276 539.48 328.008 539.48C210.741 539.48 115.674 444.02 115.674 326.259C115.674 208.499 210.741 113.038 328.008 113.038C445.276 113.038 540.343 208.499 540.343 326.259Z" stroke="#E1E1E1" stroke-width="0.886574"/>
<path fill-rule="evenodd" clip-rule="evenodd" d="M365.465 117.696C366.499 118.968 369.234 119.7 370.689 120.083C370.701 120.089 370.921 120.154 371.28 120.261C373.052 120.787 378.211 122.317 378.474 122.68C380.508 125.415 375.388 126.287 375.318 126.269C362.594 125.346 362.432 125.485 361.538 126.251L361.537 126.252C361.467 126.304 355.559 132.838 357.47 136.393C358.241 137.839 358.241 137.892 358.206 138.083C358.13 138.501 357.819 138.707 357.51 138.911C357.251 139.083 356.994 139.253 356.874 139.547C356.688 140.004 356.674 140.49 356.659 140.975C356.641 141.545 356.624 142.114 356.33 142.631C355.757 142.501 355.223 142.213 354.688 141.924C353.653 141.366 352.617 140.808 351.299 141.394C347.88 142.91 349.458 145.628 349.493 145.663C350.154 146.444 351.069 146.837 351.983 147.23C353.008 147.67 354.033 148.11 354.7 149.096C355.401 150.124 356.067 152.929 355.559 154.567C355.313 155.351 345.373 172.079 340.604 173.682C328.682 175.947 328.436 175.669 327.683 174.815L327.682 174.815C326.42 173.403 324.264 162.583 324.246 162.478C324.121 161.848 324.178 161.201 324.235 160.554C324.322 159.571 324.41 158.586 323.86 157.651C323.369 156.85 323.317 156.832 320.336 155.944C310.957 153.121 310.957 153.121 310.711 151.344C310.466 149.514 310.325 148.521 308.625 147.667C306.594 146.649 304.418 146.063 302.242 145.476C300.022 144.878 297.802 144.28 295.738 143.224C295.133 142.913 294.505 142.642 293.876 142.371C292.774 141.895 291.671 141.42 290.689 140.732C290.654 140.714 289.883 140.157 290.847 138.92C291.521 138.057 292.361 137.372 293.2 136.687C294.106 135.948 295.011 135.209 295.703 134.25C296.207 133.555 296.403 132.759 296.6 131.962C296.738 131.4 296.877 130.838 297.123 130.312C297.807 128.831 297.509 128.43 296.668 127.593C295.511 126.427 296.316 125.956 298.697 124.564L298.701 124.562C306.471 120.005 306.556 119.875 307.218 118.852L307.222 118.846C307.187 118.742 307.134 118.62 307.082 118.515C307.021 118.489 306.95 118.463 306.88 118.437L306.88 118.437C306.81 118.41 306.74 118.384 306.679 118.358C307.589 117.474 308.871 117.224 310.155 116.974C312.085 116.598 314.017 116.221 314.691 113.688C314.919 113.566 315.234 113.41 315.462 113.305C315.427 113.113 315.357 112.852 315.305 112.66C315.199 112.643 315.077 112.608 314.989 112.573C316.006 112.434 318.951 112.242 318.986 112.242C320.968 112.138 323.457 112.556 323.931 112.643C324.908 112.813 325.804 112.523 326.702 112.232C327.367 112.017 328.033 111.801 328.734 111.772C331.031 111.685 336.116 111.685 338.132 111.789C341.849 111.998 341.849 111.998 342.287 112.277H342.304C345.031 112.43 345.922 112.479 346.802 112.607C347.229 112.669 347.653 112.75 348.283 112.869H348.301C348.309 112.869 348.319 112.868 348.328 112.867C348.359 112.864 348.392 112.86 348.406 112.887C348.406 112.904 348.388 112.904 348.371 112.904C348.353 112.904 348.331 112.909 348.309 112.913C348.287 112.917 348.265 112.922 348.248 112.922C346.437 113.055 346.012 113.086 345.597 113.172C345.47 113.198 345.344 113.229 345.18 113.27L345.18 113.27L345.218 113.274C345.385 113.287 345.554 113.285 348.02 113.253C349.107 113.235 349.51 113.235 350.79 113.357C360.293 114.42 367.113 117.452 367.183 117.487C366.832 117.714 366.832 117.714 365.465 117.696ZM347.161 115.553C344.741 123.063 342.988 138.885 340.604 173.682C343.234 135.138 344.987 122.157 347.161 115.553ZM417.992 131.915L417.992 131.915C417.483 131.793 417.483 131.793 416.975 131.584C416.922 131.566 416.467 131.375 415.73 130.991C415.73 130.991 414.889 130.556 414.748 130.451L414.763 130.446L414.773 130.443C414.777 130.442 414.781 130.441 414.786 130.441C414.813 130.437 414.842 130.444 414.941 130.468C414.944 130.47 414.973 130.48 415.023 130.499C415.534 130.688 418.319 131.719 420.902 133.082L419.324 132.472C419.192 132.414 419.062 132.35 418.932 132.285C418.634 132.137 418.334 131.988 417.992 131.915ZM423.214 134.183C423.179 134.167 423.15 134.154 423.11 134.18C423.145 134.285 423.794 134.686 423.916 134.721C424.179 134.877 424.477 134.965 424.53 134.93C424.565 134.912 424.46 134.755 424.32 134.686C424.197 134.616 423.548 134.302 423.25 134.198C423.245 134.196 423.24 134.194 423.236 134.192C423.228 134.189 423.221 134.186 423.214 134.183ZM420.514 135.324C420.423 135.3 420.359 135.282 420.305 135.296C420.112 135.313 420.007 135.557 420.954 136.219C422.707 137.421 423.286 137.177 423.286 137.177C423.321 137.143 423.251 137.073 423.18 137.021C423.18 137.021 421.971 136.01 421.865 135.94C421.76 135.871 421.077 135.522 420.603 135.348C420.571 135.34 420.541 135.332 420.514 135.324ZM421.314 133.77C421.306 133.774 421.297 133.779 421.288 133.779C421.292 133.79 421.296 133.801 421.301 133.812C421.318 133.854 421.337 133.902 421.323 133.971C421.534 134.127 425.145 135.87 425.408 135.818C424.952 135.417 422.323 133.674 418.939 132.594C418.904 132.585 418.86 132.577 418.816 132.568L418.816 132.568C418.772 132.559 418.728 132.55 418.693 132.542C418.717 132.565 418.756 132.588 418.795 132.611C418.814 132.623 418.834 132.635 418.851 132.646C419.131 132.777 419.61 132.984 420.002 133.153L420.002 133.153L420.078 133.186C421.235 133.674 421.271 133.692 421.341 133.761L421.338 133.762L421.335 133.762L421.331 133.763C421.329 133.764 421.327 133.764 421.325 133.765C421.321 133.767 421.318 133.768 421.314 133.77ZM417.79 133.394L417.79 133.394C417.747 133.367 417.708 133.341 417.675 133.308C417.601 133.245 417.539 133.176 417.479 133.107C417.44 133.063 417.401 133.019 417.359 132.977C417.263 132.882 417.158 132.795 417.053 132.707L417.053 132.707L417.053 132.707C416.947 132.62 416.842 132.533 416.746 132.437C416.623 132.333 416.623 132.298 416.623 132.28C416.641 132.263 416.658 132.263 416.728 132.28C417.412 132.507 418.604 133.378 418.674 133.483V133.5C418.645 133.515 418.623 133.525 418.615 133.543C418.593 133.586 418.653 133.67 418.867 133.971C418.744 133.988 417.868 133.448 417.868 133.448C417.841 133.428 417.815 133.411 417.79 133.394ZM426.477 139.67C426.424 139.654 426.372 139.638 426.319 139.651C426.161 139.668 426.372 139.877 426.6 140.051C427.231 140.504 428.756 141.114 428.897 141.114C428.914 141.114 428.914 141.097 428.914 141.097C428.861 141.01 427.915 140.313 427.108 139.912C427.108 139.912 426.828 139.773 426.53 139.685C426.512 139.681 426.495 139.676 426.477 139.67ZM424.794 143.102L424.812 143.091C424.893 143.04 424.983 142.985 425.408 143.049C425.478 143.067 425.583 143.084 425.653 143.084C426.021 143.154 426.389 143.228 426.758 143.302C427.126 143.376 427.494 143.45 427.862 143.52C428.774 143.712 431.684 145.106 432.087 145.663C432.087 145.666 432.087 145.669 432.086 145.673C432.085 145.677 432.084 145.681 432.083 145.685L432.079 145.698C432.074 145.711 432.07 145.724 432.07 145.733C431.97 145.761 431.87 145.758 431.77 145.754C431.624 145.749 431.479 145.744 431.334 145.837C430.993 146.074 431.082 146.229 431.152 146.35L431.158 146.36C431.299 146.569 433.227 147.998 433.753 148.277C433.939 148.385 433.988 148.384 434.081 148.382C434.094 148.382 434.107 148.381 434.121 148.381C434.199 148.073 434.024 147.877 433.85 147.68C433.709 147.521 433.568 147.362 433.56 147.144C433.928 147.197 435.734 148.155 435.945 148.643L435.951 148.663C435.97 148.715 435.995 148.788 435.98 148.834C435.933 149.019 435.859 149.194 435.785 149.369C435.692 149.59 435.598 149.811 435.559 150.054C435.544 150.126 435.518 150.192 435.492 150.258C435.455 150.35 435.419 150.44 435.419 150.542C435.419 150.685 435.459 150.82 435.499 150.957C435.547 151.12 435.596 151.285 435.576 151.466L435.568 151.492L435.568 151.492C435.553 151.54 435.536 151.593 435.506 151.622C434.963 152.197 430.036 149.34 428.704 147.998C428.406 147.702 427.547 146.012 428.108 146.029C428.497 146.04 428.857 146.163 429.221 146.287C429.432 146.359 429.643 146.431 429.861 146.482C429.298 146.109 428.706 145.794 428.114 145.479C427.488 145.145 426.861 144.811 426.267 144.409C426.267 144.426 424.812 143.206 424.794 143.102ZM435.694 141.065C436.732 141.724 437.773 142.384 438.907 142.892C438.872 142.875 438.819 142.822 438.802 142.805C439.141 142.967 439.446 143.189 439.751 143.411L439.751 143.411C440.267 143.787 440.784 144.164 441.467 144.251C439.293 142.491 429.141 137.072 427.616 136.392C427.546 136.358 427.423 136.323 427.353 136.34C427.567 136.585 427.765 136.708 427.905 136.794L427.932 136.811L435.102 140.871C434.997 140.749 434.997 140.749 432.877 139.425L432.877 139.425L432.876 139.424C433.856 139.899 434.774 140.482 435.694 141.065ZM438.889 157.93C438.924 157.93 438.959 157.93 438.977 157.948C439.082 157.983 439.222 158.052 439.45 158.226C439.839 158.525 440.187 158.869 440.536 159.213C441.021 159.693 441.506 160.172 442.098 160.527C443.781 161.555 444.289 161.868 444.359 162.112L444.324 162.147C444.184 162.164 444.079 162.147 443.658 162.06C443.009 161.921 442.939 161.921 442.817 162.008C442.715 162.077 442.67 162.184 442.624 162.291C442.566 162.426 442.509 162.559 442.343 162.618C442.255 162.652 441.782 162.6 441.326 162.513C438.416 161.973 437.206 160.788 437.206 160.77C436.873 160.387 437.697 158.889 437.697 158.889C438.065 158.296 438.784 157.93 438.889 157.93ZM435.296 145.803C435.016 145.733 434.875 145.733 434.805 145.733C434.507 145.751 434.682 146.047 435.419 146.674C435.594 146.831 437.137 148.19 437.663 148.347C437.964 148.447 437.754 147.991 437.658 147.783L437.645 147.755C437.494 147.454 437.504 147.426 437.536 147.332L437.54 147.319C437.641 147.286 437.741 147.302 437.841 147.318C437.899 147.327 437.956 147.336 438.014 147.336C438.014 147.336 438.031 147.336 438.031 147.319C437.979 147.18 436.856 146.221 435.296 145.803ZM402.036 155.891C401.142 155.752 400.914 156.327 401.405 157.616C401.405 157.651 402.86 161.276 403.982 160.579C404.438 160.3 405.56 158.505 405.28 157.808C404.771 156.606 402.071 155.891 402.036 155.891ZM382.103 119.473C382.572 119.665 383.051 119.835 383.541 120.009C383.675 120.057 383.809 120.104 383.944 120.153C381.998 119.7 375.704 117.975 374.687 117.696C378.895 119.09 382.226 120.188 385.785 120.937C386.609 121.111 386.872 121.303 387.188 121.547C387.188 121.791 387.521 122.993 388.134 123.533C390.01 122.976 394.884 125.781 395.077 125.938C394.883 126.023 394.678 126.053 394.473 126.083C394.217 126.121 393.961 126.159 393.727 126.304C393.736 126.339 393.749 126.374 393.762 126.408C393.776 126.443 393.789 126.478 393.797 126.513L393.745 126.506C393.152 126.424 392.88 126.387 390.852 125.642C394.446 127.593 394.867 127.123 395.13 126.827C397.847 126.896 398.005 127.924 398.075 128.412C398.727 128.839 399.464 129.105 400.2 129.37C401.207 129.732 402.212 130.094 403.002 130.869C402.995 130.879 402.988 130.89 402.981 130.901L402.981 130.902C402.947 130.953 402.905 131.018 402.862 131.061L402.851 131.061C402.418 131.078 402.102 131.091 399.285 130.538C398.562 130.393 397.867 130.123 397.171 129.852C395.858 129.342 394.545 128.831 393.044 129.162C393.219 129.562 393.219 129.562 393.692 129.928C392.167 130.224 387.258 127.872 387.714 126.67C387.871 126.617 388.099 126.565 388.257 126.53C387.889 126.025 384.646 123.986 383.927 123.812C379.561 122.767 378.018 121.129 377.983 120.763C378.018 120.754 378.058 120.741 378.097 120.728C378.137 120.715 378.176 120.702 378.211 120.693C374.161 119.648 372.303 119.16 371.058 118.341C371.165 118.335 371.238 118.331 371.31 118.333C371.463 118.336 371.616 118.362 372.092 118.445C372.057 118.428 362.923 115.605 362.45 115.466C364.816 115.797 364.957 115.814 365.851 115.884C364.672 115.575 363.474 115.332 362.275 115.09C361.173 114.867 360.069 114.643 358.978 114.368C361.17 114.368 364.834 114.821 364.869 114.838C364.875 114.839 364.924 114.848 365.01 114.863L365.012 114.863L365.013 114.863C366.169 115.062 373.892 116.389 375.651 117.069C375.581 117.173 375.424 117.295 375.301 117.347L375.34 117.359C375.692 117.459 376.018 117.552 376.914 117.435C377.562 117.347 385.119 119.177 385.908 120.118C385.487 120.292 385.382 120.327 382.103 119.473ZM417.703 134.945L417.703 134.945C417.641 134.834 417.578 134.721 417.502 134.615C417.484 134.598 417.449 134.563 417.414 134.493C417.116 134.319 414.206 133.465 414.188 133.465C414.078 133.445 414.031 133.437 413.984 133.44C413.949 133.442 413.915 133.45 413.855 133.465C413.917 133.588 413.951 133.616 414.295 133.895L414.451 134.023C416.695 135.887 416.695 135.887 417.554 136.689C417.537 136.671 417.519 136.654 417.519 136.637C417.467 136.462 417.502 136.393 417.519 136.358L417.52 136.358C419.378 137.978 419.378 137.978 419.658 138.135C420.079 138.362 423.375 139.581 423.393 139.581C423.404 139.581 423.408 139.575 423.413 139.566C423.417 139.56 423.421 139.553 423.428 139.547C423.235 138.954 420.78 137.595 419.851 137.09C422.587 137.985 422.766 138.044 422.921 138.005C422.932 138.002 422.943 137.999 422.954 137.996C422.954 137.987 422.954 137.98 422.954 137.973C422.951 137.937 422.934 137.901 422.832 137.682L422.832 137.682C422.913 137.628 422.994 137.653 423.075 137.678C423.152 137.701 423.229 137.724 423.305 137.682C422.892 137.444 422.439 137.284 421.986 137.123C421.344 136.896 420.701 136.668 420.167 136.218V136.131C420.254 136.149 420.342 136.149 420.43 136.149C419.641 135.33 418.869 135.26 418.799 135.295C418.799 135.388 418.83 135.465 418.862 135.543C418.877 135.581 418.893 135.62 418.904 135.661C419.01 135.887 419.132 136.201 419.22 136.428C418.291 135.713 418.256 135.678 417.975 135.365C417.866 135.236 417.785 135.091 417.703 134.945ZM385.572 157.826C384.306 157.712 381.592 161.014 381.229 161.455C381.205 161.484 381.191 161.501 381.189 161.503L381.163 161.536C380.453 162.449 379.726 163.383 379.05 163.263C377.174 162.914 374.369 155.787 374.352 155.718C374.281 155.491 374.211 155.195 374.229 154.968L387.939 151.884C387.553 151.588 387.185 151.309 383.889 149.846C382.452 149.218 381.715 148.887 381.768 148.521C381.873 147.545 386.694 143.015 389.026 142.632C389.404 142.574 389.79 142.58 390.178 142.585C390.852 142.595 391.53 142.604 392.164 142.283C392.622 142.06 392.858 141.616 393.094 141.174C393.409 140.581 393.723 139.991 394.566 139.931C395.894 139.827 398.771 140.899 400.873 141.682L400.896 141.691C403.035 142.492 403.052 142.492 403.385 142.475L403.392 142.459C403.53 142.115 403.685 141.731 403.806 138.676C404.664 138.328 407.374 138.797 408.185 138.937L408.189 138.938C412.309 139.896 424.617 150.142 422.303 151.71C420.006 153.261 412.116 151.658 411.064 151.152L411.065 151.152C411.222 150.49 411.326 150.054 407.891 149.689C404.984 149.375 404.543 148.68 404.245 148.209L404.244 148.208C403.543 148.574 401.649 150.194 401.649 150.211C401.123 150.772 400.757 151.439 400.39 152.107C400.06 152.707 399.73 153.308 399.283 153.836C398.854 154.35 398.219 154.656 397.583 154.963C396.475 155.496 395.366 156.03 395.355 157.669C395.355 157.722 395.951 163.507 404.051 165.929C404.986 166.205 405.954 166.353 406.923 166.502L406.923 166.502C408.463 166.738 410.005 166.975 411.415 167.723C412.432 168.264 412.467 169.971 412.169 170.215C411.731 170.616 410.293 170.79 406.033 169.361C402.772 168.264 402.772 168.264 396.986 170.79C397.092 170.899 397.174 170.984 397.264 171.06C397.576 171.322 397.981 171.473 399.791 172.149C398.511 173.265 388.605 175.321 386.589 174.205C386.677 173.892 386.677 173.892 387.185 173.648C387.448 173.526 387.448 173.526 391.842 169.454L391.842 169.454L391.842 169.454L391.842 169.454L391.843 169.454L391.843 169.454L391.843 169.454L391.843 169.454L391.843 169.453L391.843 169.453L391.843 169.453L391.843 169.453L391.844 169.453L391.844 169.453L391.844 169.453L391.844 169.453L391.844 169.453L391.844 169.452L391.844 169.452L391.845 169.452L391.845 169.452L391.845 169.452L391.845 169.452L391.845 169.452L391.845 169.452L391.845 169.452L391.846 169.451L391.846 169.451L391.846 169.451L391.846 169.451L391.846 169.451L391.846 169.451L391.846 169.451L391.846 169.451L391.847 169.45L391.847 169.45L391.847 169.45L391.847 169.45L391.847 169.45L391.847 169.45L391.849 169.448C388.413 169.814 387.326 170.25 385.379 171.574L385.311 171.621C384.962 171.858 384.719 172.023 384.538 171.958C383.433 171.627 381.592 167.479 382.487 166.573C383.258 165.779 384.293 165.344 385.328 164.909C386.878 164.258 388.427 163.607 389.079 161.747C389.99 159.203 385.625 157.826 385.572 157.826ZM428.861 137.752C429.475 138.135 430.246 138.501 430.369 138.414C430.353 138.299 429.046 137.69 428.645 137.503L428.581 137.473C428.577 137.473 428.572 137.472 428.567 137.471C428.562 137.47 428.557 137.468 428.551 137.467C428.534 137.462 428.514 137.456 428.493 137.456L428.476 137.473C428.511 137.543 428.739 137.682 428.861 137.752ZM354.541 146.082L352.454 145.664C352.454 145.664 351.911 145.42 351.77 145.037C351.683 144.793 351.77 144.618 351.858 144.479C351.967 144.302 352.132 144.191 352.297 144.081C352.423 143.997 352.548 143.913 352.647 143.799C352.787 143.625 352.787 143.468 352.787 143.364C352.787 143.329 352.805 143.294 352.822 143.277C352.822 143.277 353.085 143.102 353.822 143.19C354.751 143.381 357.433 144.932 355.978 145.821C355.68 146.03 355.119 146.204 354.541 146.082ZM395.531 138.867C395.549 138.885 395.566 138.902 395.584 138.902L395.594 138.906L395.633 138.924C396.137 139.15 400.327 141.033 401.685 139.93C402.123 139.582 402.719 138.31 400.826 137.996C398.67 137.682 395.742 138.536 395.531 138.867ZM410.294 129.145C410.89 129.371 411.872 129.772 412.082 129.929L412.049 129.923C411.969 129.907 411.881 129.89 411.819 129.859C410.89 129.563 409.978 129.633 409.978 129.633C410.022 129.797 410.155 129.875 410.288 129.953C410.423 130.032 410.556 130.11 410.592 130.277C410.469 130.434 408.891 129.807 408.786 129.737C408.225 129.441 406.384 127.855 406.384 127.524C406.528 127.473 406.654 127.524 406.78 127.575C406.868 127.611 406.956 127.646 407.05 127.646C406.935 127.427 406.732 127.333 406.527 127.239C406.358 127.161 406.188 127.082 406.068 126.932C406.103 126.914 406.103 126.914 406.226 126.949C407.874 127.49 410.066 128.483 410.329 128.657C410.119 128.717 409.921 128.657 409.724 128.599C409.575 128.554 409.428 128.51 409.277 128.518C409.224 128.727 409.417 128.831 410.294 129.145ZM418.149 138.588C418.763 138.205 418.64 138.118 418.237 137.839C418.061 137.717 415.116 136.027 414.046 135.731C413.976 135.713 413.871 135.696 413.801 135.696C413.187 135.766 414.52 137.107 415.168 137.665C416.308 138.623 417.623 138.919 418.149 138.588ZM400.249 128.046C400.249 128.029 400.266 128.011 400.284 128.011C400.337 128.011 400.389 128.029 400.424 128.046C400.443 128.056 400.467 128.06 400.494 128.065C400.516 128.069 400.54 128.073 400.564 128.081C401.029 128.216 401.487 128.377 401.947 128.538L401.947 128.538C402.32 128.669 402.694 128.8 403.072 128.918C403.562 129.066 404.058 129.188 404.553 129.31C405.048 129.432 405.544 129.554 406.035 129.702C406.736 129.911 407.157 130.068 407.297 130.155C407.034 130.224 404.194 129.754 402.668 129.318C401.914 129.109 401.546 128.97 400.512 128.238C400.407 128.203 400.319 128.133 400.249 128.046ZM407.276 129.544C407.282 129.534 407.286 129.528 407.297 129.528C407.122 129.075 406.806 128.953 405.807 128.587C405.346 128.416 405.01 128.083 404.67 127.747C404.453 127.532 404.235 127.317 403.983 127.141C403.835 127.038 403.7 126.972 403.598 126.922L403.598 126.922C403.579 126.913 403.561 126.905 403.545 126.897L403.513 126.887L403.486 126.879L403.485 126.878C403.352 126.837 403.282 126.816 403.159 126.862C403.072 126.897 403.036 126.949 403.036 126.949C403.026 126.959 403.022 126.963 403.02 126.968C403.019 126.972 403.019 126.976 403.019 126.984C402.984 127.042 402.996 127.1 403.007 127.158C403.013 127.187 403.019 127.216 403.019 127.245C403.019 127.33 402.952 127.353 402.884 127.376C402.812 127.401 402.738 127.426 402.738 127.524C402.756 127.681 402.826 127.75 403.194 127.925C404.036 128.308 406.946 129.528 407.262 129.563C407.269 129.556 407.273 129.549 407.276 129.544ZM400.529 125.171C398.478 124.152 398.461 124.126 398.426 124.075L398.425 124.074C398.496 124.074 398.566 124.091 398.636 124.109C398.653 124.109 400.722 124.771 401.318 125.067C402.002 125.415 401.774 125.642 401.774 125.642C401.634 125.712 401.16 125.485 400.529 125.171ZM394.637 124.021C394.935 123.899 395.198 123.968 396.092 124.23L396.12 124.237L396.166 124.25L396.225 124.267L396.226 124.267C396.692 124.399 398.088 124.794 398.196 124.718C398.196 124.718 397.372 123.794 395.741 123.428C395.268 123.324 394.163 123.08 393.76 122.749C393.86 122.761 393.958 122.787 394.056 122.812C394.231 122.859 394.404 122.904 394.584 122.871C394.058 122.539 388.693 120.536 387.22 120.17C387.172 120.158 387.099 120.162 387.035 120.166C387.006 120.168 386.979 120.17 386.958 120.17C387.082 120.351 387.265 120.469 387.447 120.588C387.599 120.686 387.75 120.785 387.869 120.919C387.81 121.211 387.996 121.346 388.183 121.483C388.275 121.55 388.367 121.617 388.43 121.703C388.363 121.759 388.281 121.765 388.194 121.771C388.145 121.774 388.095 121.778 388.045 121.79C388.062 121.912 388.08 121.947 389.289 122.522C389.447 122.592 389.605 122.661 389.745 122.749C389.736 122.757 389.732 122.77 389.728 122.783C389.723 122.796 389.719 122.81 389.71 122.818C389.079 122.958 389.079 122.958 389.026 123.01C389.079 123.062 389.149 123.114 389.219 123.149C389.698 123.387 390.203 123.532 390.708 123.676C391.128 123.796 391.548 123.916 391.954 124.09C392.566 124.361 393.149 124.693 393.732 125.025C394.502 125.463 395.272 125.901 396.109 126.199C396.423 126.309 396.756 126.322 397.088 126.336C397.387 126.348 397.685 126.36 397.968 126.443L397.968 126.443C399.402 126.852 399.488 126.877 399.551 126.849C399.555 126.847 399.559 126.845 399.563 126.843C399.791 126.739 399.739 126.112 399.213 125.78C399.072 125.693 398.459 125.415 396.074 124.665C395.198 124.386 394.917 124.282 394.654 124.125C394.654 124.108 394.65 124.09 394.645 124.073C394.644 124.066 394.642 124.058 394.64 124.051C394.639 124.046 394.638 124.04 394.638 124.035C394.637 124.03 394.637 124.025 394.637 124.021ZM413.083 137.909C412.942 137.909 398.022 136.375 394.06 132.49C392.991 131.427 395.638 131.287 395.655 131.287C397.023 131.252 403.738 133.553 405.123 134.11C406.368 134.615 407.332 133.465 407.069 133.169C406.954 133.038 406.776 132.984 406.377 132.862L406.298 132.838C403.878 132.159 405.07 131.392 405.333 131.392C405.707 131.371 406.05 131.491 406.391 131.61C406.627 131.693 406.861 131.775 407.104 131.81C407.462 131.855 407.816 131.808 408.173 131.761C408.513 131.717 408.856 131.671 409.208 131.706C409.418 131.723 410.12 131.827 410.576 131.932C410.944 132.089 412.118 133.291 412.101 133.587L412.09 133.587C411.802 133.57 411.76 133.568 411.189 133.378C410.523 133.152 409.594 132.838 409.401 132.96C409.051 133.192 410.111 134.557 410.262 134.752L410.262 134.752L410.277 134.772C410.61 135.079 411 135.297 411.389 135.515C411.861 135.779 412.332 136.042 412.697 136.463C414.012 137.926 413.486 137.926 413.083 137.909ZM114.602 316.249L114.602 316.254L114.601 316.261C114.516 317.982 114.433 319.64 114.347 321.166C114.316 326.274 114.625 332.761 114.891 338.342C114.925 339.057 114.958 339.758 114.99 340.438C114.985 340.307 114.982 340.174 114.978 340.037L114.978 340.03C114.976 339.969 114.975 339.908 114.973 339.847C114.971 339.769 114.968 339.691 114.965 339.611L114.943 339.41C114.803 332.666 115.189 320.939 116.118 319.545L116.123 319.58C116.436 321.566 116.676 323.086 116.118 338.852C115.995 337.825 115.995 337.824 115.786 335.515L115.786 335.514L115.785 335.507C116.1 342.825 116.1 342.825 115.68 343.714C115.374 342.651 115.249 342.209 114.971 339.667C115.439 346.539 115.752 349.096 116.013 351.137L116.626 355.632L116.732 356.347C116.837 356.991 116.995 357.845 117.117 358.49C117.065 358.141 116.995 357.688 116.942 357.34L116.942 357.34L116.942 357.343L116.944 357.35C116.961 357.452 116.977 357.547 116.993 357.639C116.999 357.672 117.005 357.705 117.011 357.738C117.016 357.763 117.021 357.788 117.026 357.813C117.272 359.052 117.822 360.23 122.885 371.071C123.186 371.006 123.393 370.961 123.599 370.96C124.057 370.958 124.516 371.171 125.989 371.855C126.218 364.772 125.619 357.685 125.02 350.597C123.973 338.207 122.925 325.816 126.304 313.447C126.462 314.144 126.918 315.067 127.479 315.52C128.023 311.791 128.023 311.791 128.548 310.99L126.374 336.761C125.954 341.421 126.293 346.064 126.633 350.709V350.71V350.71V350.711V350.711V350.711V350.712V350.712V350.713V350.713V350.713V350.714V350.714V350.715V350.715V350.715V350.716V350.716V350.717V350.717V350.718V350.718V350.718V350.719V350.719V350.72V350.72V350.72V350.721C126.888 354.218 127.143 357.717 127.076 361.226C127.056 362.426 126.939 363.62 126.823 364.814C126.634 366.758 126.444 368.698 126.672 370.652L126.673 370.654C127.654 379.191 127.654 379.191 127.181 379.853C125.077 379.417 125.077 379.417 123.867 379.8C125.428 385.15 131.757 398.794 136.473 403.986C139.471 407.158 149.57 418.135 152.533 425.314C153.269 427.109 160.352 441.519 167.996 448.785C169.633 450.341 171.557 451.475 173.48 452.608L173.48 452.608C175.327 453.696 177.172 454.784 178.761 456.243C180.279 457.64 181.437 459.323 182.595 461.007C183.591 462.454 184.586 463.901 185.809 465.165L197.538 474.452L206.813 480.934L206.873 480.975C209.247 482.566 216.226 487.244 222.154 485.413C220.821 482.433 220.138 481.701 218.858 480.412C216.982 478.495 216.649 478.146 204.972 457.481C203.528 454.935 202.691 452.158 201.854 449.382C200.944 446.363 200.035 443.345 198.345 440.631C196.971 438.428 195.352 436.387 193.733 434.346C191.24 431.204 188.746 428.06 187.142 424.321C181.414 410.917 182.809 404.799 183.825 400.34L183.828 400.327C183.978 399.67 184.093 399.165 184.13 398.655C184.25 396.958 183.496 395.198 180.234 387.59L180.234 387.589C179.473 385.817 179.092 384.928 179.053 384.025C179.014 383.116 179.321 382.193 179.936 380.341C180.64 380.116 181.386 380.079 182.132 380.042C183.355 379.982 184.575 379.922 185.599 379.034C186.435 378.315 186.553 377.312 186.671 376.31C186.79 375.295 186.909 374.281 187.773 373.562C188.018 373.371 188.369 373.109 188.685 373.074C194.739 372.424 200.569 373.586 206.401 374.749L206.401 374.749C209.79 375.424 213.179 376.1 216.614 376.42C218.49 376.594 228.43 367.185 229.745 364.432C230.807 362.233 231.929 360.064 233.051 357.895L233.052 357.894L233.052 357.893L233.052 357.892L233.053 357.891L233.053 357.89L233.054 357.889L233.054 357.888L233.055 357.887L233.055 357.886L233.056 357.885L233.056 357.885L233.057 357.884L233.057 357.883L233.057 357.882L233.058 357.881L233.058 357.88L233.059 357.879L233.059 357.878L233.06 357.877L233.06 357.876L233.061 357.875L233.061 357.874L233.062 357.874L233.062 357.873L233.062 357.872L233.063 357.871L233.063 357.87L233.064 357.869L233.064 357.869L233.064 357.868L233.064 357.868L233.065 357.867L233.065 357.867L233.065 357.867L233.065 357.866L233.065 357.866L233.066 357.865L233.066 357.865L233.066 357.864L233.066 357.864L233.066 357.864L233.066 357.863L233.067 357.863L233.067 357.862L233.067 357.862L233.067 357.862L233.067 357.861L233.068 357.861L233.068 357.86L233.068 357.86L233.068 357.86L233.068 357.859L233.068 357.859L233.069 357.858L233.069 357.858L233.069 357.857C235.274 353.594 237.479 349.331 239.23 344.846C240.231 342.285 238.873 340.581 237.516 338.879C236.473 337.57 235.43 336.262 235.461 334.566C235.493 332.41 236.192 330.393 236.891 328.376C237.7 326.039 238.509 323.702 238.284 321.148C238.284 321.131 227.957 303.34 226.555 301.092C226.081 300.326 222.189 297.329 219.927 296.248C219.228 295.915 218.722 295.674 218.346 295.303C217.365 294.332 217.267 292.469 216.912 285.741C216.902 285.517 216.911 285.265 216.921 285.001C216.947 284.259 216.976 283.428 216.614 282.901C215.762 281.645 214.456 281.054 213.15 280.464C211.956 279.924 210.762 279.384 209.916 278.335C209.211 277.453 209.128 276.395 209.046 275.337C208.962 274.264 208.878 273.193 208.145 272.307C207.969 272.093 207.701 271.87 207.453 271.665L207.453 271.665L207.398 271.619L207.343 271.573C207.315 271.549 207.287 271.526 207.26 271.503C207.233 271.48 207.207 271.458 207.181 271.435C207.164 271.435 207.146 271.435 206.725 271.731C204.363 274.549 203.607 274.398 201.442 273.964L201.431 273.962C201.326 273.962 201.212 273.971 200.815 274.005L200.574 274.025L200.291 274.049C196.503 275.353 193.063 273.971 189.622 272.59C186.072 271.165 182.521 269.739 178.586 271.261C178.235 270.669 177.622 269.954 177.131 269.484C171.17 270.843 171.17 270.843 169.732 269.762L169.728 269.764C168.662 270.32 168.292 270.513 166.524 271.679C165.84 280.409 165.84 280.409 166.734 281.82C167.12 282.413 167.611 283.511 167.242 284.103C166.085 286.037 149.78 300.779 148.237 301.894C148.145 301.858 148.046 301.819 147.945 301.779L147.733 301.695L147.729 301.694C147.554 301.624 147.378 301.554 147.22 301.493C146.793 300.361 146.78 299.161 146.767 297.959C146.751 296.498 146.736 295.035 145.976 293.687C142.184 293.749 140.5 296.449 138.815 299.149C137.197 301.744 135.578 304.339 132.09 304.595C131.669 304.177 130.845 303.846 130.267 303.828C129.583 305.919 129.232 306.372 127.093 306.546C125.463 302.556 125.585 300.273 126.392 285.497C126.988 285.271 127.707 284.783 128.145 284.33C128.215 284.974 128.408 285.828 128.636 286.438C129.656 285.83 130.267 284.885 130.877 283.941C131.369 283.18 131.86 282.421 132.563 281.838C132.563 282.152 132.546 282.57 132.528 282.883L133.282 283.633C138.121 279.59 139.085 272.324 139.594 268.421C139.818 268.368 140.091 268.287 140.339 268.212L140.34 268.212C140.422 268.187 140.502 268.164 140.576 268.142C140.593 267.445 140.541 266.487 140.435 265.79C139.874 265.518 139.257 265.478 138.64 265.439C137.833 265.387 137.027 265.335 136.35 264.762C136.789 264.361 137.209 263.611 137.35 263.036C136.736 263.176 135.895 263.402 135.281 263.612C134.86 263.158 134.527 262.339 134.492 261.73C131.279 260.885 130.123 263.283 128.943 265.729C128.223 267.221 127.495 268.731 126.287 269.536C126.006 269.397 125.621 269.187 125.358 269.031C125.198 263.964 127.702 260.039 130.205 256.117C131.55 254.01 132.894 251.903 133.826 249.619C133.767 249.535 133.704 249.444 133.64 249.352C133.491 249.138 133.334 248.913 133.212 248.731L133.212 248.73L133.213 248.728C133.845 246.267 134.002 245.656 134.287 245.112C134.381 244.933 134.489 244.76 134.632 244.531C134.553 244.383 134.457 244.208 134.36 244.034C134.305 243.935 134.25 243.835 134.199 243.741C134.16 243.67 134.123 243.602 134.089 243.538C134.562 242.283 134.843 241.743 136.491 242.092C136.964 243.421 136.22 244.872 135.506 246.264C134.555 248.119 133.658 249.868 135.772 251.083C136.138 250.57 136.435 250.013 136.731 249.454C137.13 248.704 137.531 247.951 138.104 247.302C137.882 246.044 137.794 245.543 137.831 245.051C137.856 244.725 137.936 244.404 138.069 243.869C139.191 243.19 139.594 242.893 140.558 241.778C140.435 241.499 140.26 241.116 140.12 240.837C140.663 240.593 141.54 240.541 142.101 240.733C142.571 244.514 141.455 248.046 140.338 251.578C139.206 255.16 138.074 258.741 138.595 262.583C138.74 262.591 138.916 262.603 139.096 262.615L139.1 262.616L139.102 262.616C139.309 262.63 139.522 262.644 139.699 262.653C139.909 263.263 140.278 264.065 140.593 264.64C141.242 262.2 144.415 260.318 145.923 260.005C146.058 260.105 146.171 260.19 146.26 260.295C146.721 260.848 146.492 261.976 145.064 269.013C144.89 269.874 144.659 270.722 144.429 271.569C143.966 273.274 143.504 274.974 143.504 276.767C143.504 277.429 143.556 278.301 143.644 278.963L148.606 267.671C153.235 254.456 153.269 254.36 153.321 254.274L153.322 254.272L168.961 236.011C169.539 236.237 170.205 236.795 170.539 237.317C163.631 251.327 161.597 252.233 159.002 253.383C159.037 253.54 159.081 253.723 159.125 253.906C159.169 254.089 159.213 254.272 159.248 254.429C153.742 260.998 153.743 260.998 153.392 262.671C153.779 262.179 154.247 261.538 154.641 260.999L154.642 260.997L154.643 260.996L154.794 260.789C154.952 260.823 155.131 260.871 155.311 260.919L155.312 260.919C155.491 260.967 155.671 261.015 155.829 261.05C155.846 262.339 155.846 262.339 154.83 265.876L154.829 265.877C155.209 266.492 155.488 267.154 155.766 267.815L155.766 267.815C156.079 268.557 156.391 269.299 156.846 269.972C157.144 269.919 157.547 269.867 157.863 269.832C158.025 270.678 157.861 271.517 157.696 272.357C157.506 273.333 157.314 274.311 157.635 275.304C157.67 275.286 161.825 271.697 163.175 269.431L163.139 269.427C156.3 268.49 155.743 268.414 156.951 264.483C158.546 259.273 174.834 240.698 174.974 240.576C177.937 238.049 179.515 240.21 181.409 243.555C182.196 243.549 182.936 243.118 183.672 242.689C184.87 241.99 186.061 241.296 187.44 242.44L187.441 242.441L187.444 242.444L187.49 242.48C187.504 242.492 187.517 242.503 187.53 242.514C187.562 242.54 187.591 242.567 187.618 242.595C187.967 242.961 187.975 243.651 188.036 249.009C192.84 250.891 192.927 250.926 194.786 258.541C193.05 261.259 193.857 265.319 197.083 265.72L208.742 269.571C208.777 269.501 208.777 269.501 209.601 266.156C211.715 265.673 212.75 265.753 217.586 266.125L217.753 266.138C217.631 265.598 217.631 265.598 216.965 259.752L216.964 259.743C219.419 259.011 220.225 240.053 220.208 239.861C220.699 239.339 221.242 238.572 221.593 237.962C218.292 238.301 215.044 238.937 211.796 239.574C208.023 240.314 204.25 241.054 200.396 241.325C200.309 241.203 197.889 225.852 213.265 221.6C213.216 221.564 213.163 221.527 213.109 221.488C213.019 221.423 212.923 221.355 212.827 221.287C212.674 221.178 212.52 221.069 212.388 220.973C212.748 220.654 213.173 220.281 213.587 219.917C213.92 219.625 214.246 219.339 214.527 219.091C214.457 218.943 214.378 218.769 214.299 218.594C214.22 218.42 214.142 218.246 214.071 218.098C211.512 218.167 211.512 218.167 209.916 219.178C209.215 219.004 208.321 218.673 207.655 218.394C207.567 218.08 207.427 217.645 207.321 217.331C207.742 216.756 208.268 215.955 208.619 215.327L208.571 215.361C207.169 216.364 206.619 216.758 203.377 216.913C203.096 216.286 202.903 215.345 202.886 214.648C202.114 214.404 201.15 213.933 200.484 213.48C201.635 210.645 201.691 210.507 201.709 210.366L201.711 210.344C201.097 210.118 200.717 209.978 200.324 209.896C199.686 209.761 199.017 209.778 197.258 209.821C197.206 209.729 197.146 209.626 197.084 209.518L197.084 209.518C196.957 209.299 196.82 209.061 196.714 208.863C197.848 205.773 198.174 204.054 198.352 203.117L198.352 203.117L198.362 203.06C198.076 202.786 197.876 202.594 197.642 202.464C197.104 202.164 196.386 202.186 194.014 202.259C193.918 202.128 193.808 201.975 193.698 201.822L193.697 201.821C193.588 201.669 193.479 201.517 193.383 201.387C192.735 201.283 191.875 201.143 191.227 201.039C190.315 200.865 190.28 200.83 190.122 200.655C190.14 200.568 190.21 200.377 191.437 198.965C194.488 195.463 198.766 188.04 199.011 187.343C199.585 185.737 196.3 185.74 196.105 185.74H196.101C194.926 185.862 193.366 190.235 193.401 191.263C193.523 193.773 191.437 196.683 189.684 198.686C187.308 201.413 187.108 201.405 186.256 201.37L186.248 201.37C183.769 201.249 182.37 202.27 181.83 202.663L181.812 202.677L184.915 202.137C183.144 202.503 181.444 202.973 180.111 203.74C179.935 203.641 179.73 203.515 179.538 203.396L179.537 203.395C179.424 203.325 179.314 203.258 179.217 203.2V203.199C179.208 203.09 179.2 203 179.16 202.928C178.97 202.586 178.046 202.651 172.73 203.025H172.677C172.713 202.982 172.756 202.925 172.8 202.869L172.801 202.868C172.826 202.835 172.851 202.802 172.875 202.772L172.897 202.744L172.923 202.712C172.841 202.509 172.783 202.299 172.724 202.089C172.656 201.846 172.588 201.603 172.485 201.37C172.441 201.358 172.404 201.349 172.367 201.341C172.182 201.304 171.987 201.321 170.819 201.422C170.697 200.363 172.54 198.008 172.919 197.525L172.923 197.519C173.135 197.259 174.579 194.645 175.409 193.145L175.41 193.143L175.412 193.14C175.747 192.533 175.981 192.11 175.991 192.1C175.903 191.978 175.816 191.839 175.746 191.717C174.468 191.617 173.813 192.461 173.157 193.306C172.552 194.084 171.947 194.863 170.854 194.905C171.939 192.759 173.562 191.053 175.187 189.345C176.266 188.211 177.347 187.075 178.27 185.809C176.868 185.994 175.543 186.444 174.218 186.895C173.538 187.126 172.859 187.357 172.169 187.552C172.243 187.439 172.318 187.329 172.393 187.22L172.393 187.22C172.584 186.941 172.772 186.668 172.923 186.367C172.87 186.325 172.799 186.283 172.727 186.242C172.703 186.228 172.679 186.213 172.656 186.199L172.629 186.183L172.607 186.169L172.59 186.158C172.416 186.225 172.245 186.305 172.073 186.385C171.709 186.554 171.341 186.726 170.924 186.785C172.669 185.198 174.857 184.522 177.045 183.846C179.253 183.163 181.462 182.48 183.214 180.861C187.212 177.167 187.212 177.167 191.437 167.792C191.363 167.782 191.271 167.771 191.178 167.761L191.177 167.761C191.116 167.754 191.055 167.747 190.999 167.74C191.402 166.625 196.837 163.053 198.468 162.512C198.521 162.578 198.584 162.674 198.642 162.762L198.645 162.767C198.663 162.794 198.679 162.82 198.696 162.844C198.679 162.881 198.66 162.922 198.641 162.965L198.64 162.967L198.638 162.97L198.637 162.973C198.575 163.111 198.503 163.271 198.45 163.401C198.327 163.662 198.327 163.662 193.948 168.19L193.947 168.19L193.944 168.193C193.045 169.134 193.178 170.233 193.312 171.332C193.425 172.269 193.539 173.206 193.015 174.048C191.003 177.27 190.35 178.318 189.463 179.103C189.036 179.481 188.555 179.798 187.843 180.268C184.67 182.359 184.547 182.76 184.582 183.84C185.809 184.956 186.37 185.478 183.933 189.957C182.881 191.908 183.057 196.177 183.39 196.787C185.055 196.787 185.985 195.254 186.949 193.633C188.983 190.218 199.905 179.432 200.414 179.066C199.94 180.617 198.959 183.84 200.922 184.747C206.935 187.511 213.442 172.625 213.696 172.043L213.703 172.026C214.194 170.842 214.212 170.528 213.3 169.883C210.828 168.141 210.828 168.141 210.214 163.663C210.179 163.471 210.057 161.798 213.212 156.989C213.215 156.983 213.243 156.934 213.292 156.848L213.298 156.836L213.299 156.836C213.904 155.765 217.487 149.425 217.648 148.224L217.648 148.224C217.693 147.903 217.722 147.701 217.707 147.501C217.681 147.159 217.526 146.827 217.105 145.924C217.277 145.53 217.584 145.233 217.892 144.936C218.211 144.628 218.53 144.32 218.7 143.903C217.804 144.222 217.124 144.855 216.444 145.488C215.752 146.132 215.061 146.775 214.142 147.091L214.142 147.091C214.733 146.398 214.925 146.172 215.063 145.917C215.13 145.794 215.183 145.665 215.263 145.473L215.264 145.471L215.264 145.471C214.878 145.593 209.636 147.98 209.145 149.113C209.196 149.096 209.249 149.078 209.305 149.06C209.534 148.985 209.792 148.901 210.004 148.817C207.146 150.751 206.41 151.029 206.024 151.169C205.944 151.116 205.853 151.042 205.776 150.979L205.776 150.979L205.772 150.976L205.771 150.975C205.749 150.957 205.728 150.94 205.708 150.925C204.516 151.639 204.253 151.848 203.78 152.232C204.025 152.11 204.341 151.988 204.586 151.918C204.148 152.336 203.675 152.772 199.379 155.351C193.401 158.94 184.319 166.747 183.548 168.123C185.45 167.255 187.05 165.955 188.65 164.656C189.778 163.739 190.906 162.823 192.138 162.059C189.068 164.494 186.247 167.199 183.426 169.905L183.426 169.905C180.755 172.466 178.084 175.028 175.202 177.358C175.158 177.324 175.101 177.284 175.044 177.245L175.043 177.244L175.004 177.218L174.984 177.203L174.958 177.185C174.944 177.175 174.93 177.165 174.918 177.156L174.902 177.144L174.887 177.132C175.344 176.677 175.84 176.264 176.336 175.85C177.362 174.996 178.386 174.142 179.059 172.933C178.842 173.085 178.635 173.246 178.428 173.407C178.064 173.689 177.701 173.972 177.288 174.205C180.793 170.6 180.951 170.391 181.315 169.909L181.321 169.901C180.988 170.179 180.672 170.458 180.357 170.754L180.339 170.789L171.853 179.327C163.966 187.755 163.67 188.157 151.111 205.18L150.85 205.534C148.713 208.72 146.251 212.793 143.995 216.526L143.995 216.527C143.104 218 142.246 219.42 141.452 220.711C143.451 217.906 146.028 215.571 149.237 213.55C145.8 215.728 143.469 218.063 141.452 220.711L134.159 234.895C130.898 241.9 129.793 244.305 127.391 251.344C127.402 251.323 127.419 251.302 127.439 251.281C127.451 251.267 127.465 251.254 127.479 251.24L127.479 251.24C127.356 252.337 127.356 252.338 120.541 274.819L120.539 274.823L120.536 274.833C120.571 274.781 120.606 274.694 120.641 274.624L120.594 274.903L120.594 274.903L120.594 274.904C117.852 291.169 117.723 291.936 116.311 296.579L116.152 297.636C115.97 298.844 115.777 300.122 115.574 301.493C115.12 305.845 114.848 311.308 114.602 316.249ZM114.971 339.667L114.965 339.611L114.964 339.59L114.961 339.514L114.971 339.667ZM146.677 396.772C151.35 394.518 157.359 392.555 165.331 390.662C157.364 392.545 151.427 394.479 146.677 396.772ZM120.29 274.45C120.219 274.712 120.132 275.06 120.079 275.321L119.01 280.044C119.017 280.015 119.024 279.983 119.033 279.95C119.038 279.932 119.043 279.913 119.049 279.894C119.058 279.867 119.068 279.841 119.08 279.817C118.712 282.622 118.151 285.393 117.59 288.164C119.219 277.786 119.815 275.656 122.23 267.03L122.236 267.01C122.487 266.241 122.726 265.501 122.958 264.786L122.963 264.77C123.134 264.243 123.3 263.729 123.463 263.229C120.973 271.714 120.886 272.063 119.834 276.524C119.974 275.844 120.132 275.147 120.29 274.45ZM123.779 261.853C123.884 261.591 123.989 261.33 124.094 261.051C123.867 261.853 123.656 262.567 123.428 263.264L124.1 261.212L124.106 261.195L124.11 261.182L124.115 261.166C125.478 257.003 126.495 253.899 127.355 251.363C127.268 251.485 127.198 251.659 126.882 252.478L124.647 259.065C124.677 258.983 124.707 258.901 124.737 258.819L124.742 258.806L124.743 258.803C124.594 259.488 124.362 260.15 124.131 260.809C124.009 261.157 123.888 261.504 123.779 261.853ZM124.392 259.814C124.47 259.557 124.557 259.31 124.647 259.065L124.392 259.814ZM116.1 297.259C116.415 294.21 116.994 291.178 117.572 288.181C117.352 289.58 117.119 291.128 116.858 292.86L116.857 292.869L116.854 292.884C116.681 294.037 116.495 295.272 116.292 296.597C116.24 296.806 116.17 297.033 116.1 297.259ZM237.547 197.903C237.534 197.873 237.521 197.842 237.512 197.816C237.761 197.752 238.022 197.732 238.284 197.711C238.667 197.681 239.051 197.651 239.405 197.485C240.177 197.102 240.352 196.666 240.475 196.352C240.598 195.481 240.247 194.924 239.931 194.593L239.909 194.57C239.459 194.123 238.969 193.636 237.021 192.693L236.968 192.667C236.835 192.602 236.675 192.524 236.583 192.432C236.979 192.399 237.095 192.335 237.268 192.241L237.302 192.223C240.235 190.596 235.77 189.43 235.346 189.32L235.32 189.313C235.291 189.313 235.273 189.313 235.258 189.318C235.25 189.321 235.243 189.325 235.235 189.332L235.227 189.338L235.219 189.344C235.209 189.354 235.196 189.366 235.18 189.383C235.092 189.487 234.917 189.679 234.374 189.923C234.025 190.083 233.656 190.207 233.284 190.331C232.889 190.464 232.491 190.597 232.112 190.777C232.068 190.8 232.022 190.824 231.974 190.849C231.735 190.974 231.457 191.119 231.253 191.264C230.762 191.595 230.131 192.171 229.92 192.972C229.693 193.791 229.973 194.453 230.148 194.837C230.552 195.76 230.517 196.074 229.92 196.962C229.552 197.485 229.219 197.973 228.921 198.775C228.343 200.343 228.22 201.371 228.535 201.806C228.884 202.282 229.394 202.362 229.903 202.442C230.214 202.49 230.524 202.539 230.797 202.678C231.193 202.88 231.559 203.133 231.925 203.385C232.126 203.524 232.327 203.663 232.533 203.793C234.847 205.257 238.02 205.605 238.704 204.786C239.107 204.298 239.16 203.723 238.967 202.538C238.967 202.503 238.389 199.541 237.582 197.99L237.579 197.981L237.572 197.963C237.565 197.944 237.556 197.924 237.547 197.903ZM436.646 141.865C437.102 142.091 440.924 144.287 441.117 144.548L441.112 144.548C440.921 144.531 440.681 144.509 436.646 141.865ZM136.281 287.484L136.386 287.536C137.49 287.902 141.558 285.794 142.137 284.731C142.417 284.243 142.294 283.86 141.821 283.825C141.814 283.825 141.808 283.825 141.802 283.825C141.727 283.827 141.653 283.854 140.703 284.207L140.702 284.207L140.7 284.208L140.699 284.208L140.699 284.208C140.346 284.346 139.98 284.394 139.613 284.441C139.379 284.472 139.143 284.502 138.911 284.557C138.788 284.592 138.455 284.696 138.122 285.062C138.122 285.079 136.316 287.397 136.298 287.414C136.289 287.423 136.289 287.436 136.289 287.449C136.289 287.462 136.289 287.475 136.281 287.484ZM174.991 259.117C174.845 259.276 174.63 259.341 174.414 259.408C174.085 259.508 173.754 259.609 173.659 260.04C173.592 260.349 173.617 260.666 173.642 260.983C173.67 261.328 173.698 261.673 173.606 262.009C173.448 262.549 173.08 262.637 172.922 262.671C172.484 262.776 170.258 262.079 170.222 260.302C170.222 260.158 170.242 259.965 170.259 259.796L170.26 259.795L170.267 259.727C170.27 259.696 170.273 259.667 170.275 259.639C170.327 259.278 170.422 258.925 170.517 258.57L170.517 258.57L170.517 258.57C170.615 258.206 170.713 257.84 170.766 257.461C170.816 257.089 170.83 256.713 170.845 256.335V256.335C170.861 255.916 170.877 255.495 170.941 255.074C171.117 253.82 171.572 253.68 172.011 253.628C172.73 253.645 174.465 254.307 175.079 255.44C175.447 256.12 175.535 258.542 174.991 259.117ZM185.143 257.705C185.143 257.758 186.037 258.768 186.055 258.768L186.081 258.791C186.225 258.919 186.33 259.012 186.528 259.012C187.177 259.047 188.737 258.385 189.158 257.914C189.912 257.061 187.983 256.799 186.791 256.921C185.687 257.043 185.056 257.339 185.143 257.705ZM175.009 248.766L175.026 248.781C175.197 248.933 175.375 249.092 175.307 249.48C175.29 249.619 175.132 249.898 174.992 250.09C174.989 250.092 174.955 250.133 174.897 250.201L174.893 250.205L174.89 250.208L174.889 250.209C174.514 250.646 173.239 252.134 173.133 252.163C172.748 251.972 173.098 248.94 173.449 247.354C173.449 247.337 173.993 244.932 174.343 244.723H174.396C174.413 244.741 174.466 244.81 174.501 244.967C174.519 245.019 174.536 245.072 174.536 245.124C174.621 245.587 174.558 246.037 174.496 246.49C174.455 246.787 174.413 247.085 174.413 247.389C174.396 248.225 174.746 248.539 175.009 248.766ZM128.163 293.042C128.25 293.147 129.267 292.955 129.267 292.955C129.355 292.938 129.565 292.85 129.793 292.572C130.477 291.77 130.775 290.01 130.495 289.662C130.489 289.656 130.483 289.65 130.477 289.643C130.422 289.583 130.328 289.481 130.109 289.575C129.94 289.644 129.811 289.769 129.682 289.893C129.584 289.987 129.486 290.082 129.372 290.15C129.18 290.289 128.952 290.359 128.759 290.359C128.61 290.359 128.474 290.311 128.338 290.263C128.202 290.215 128.066 290.167 127.917 290.167C127.847 290.184 127.795 290.202 127.795 290.446V290.585C127.795 290.603 128.005 292.885 128.163 293.042ZM458.138 157.79L458.068 157.86C457.981 157.842 457.875 157.807 457.805 157.755C457.161 157.316 456.565 156.824 455.969 156.332L455.969 156.332C455.43 155.887 454.891 155.442 454.316 155.037C453.325 154.351 452.297 153.715 451.269 153.079C450.026 152.309 448.782 151.539 447.601 150.681L447.601 150.68L447.601 150.68C447.436 150.561 447.324 150.481 447.227 150.386C447.026 150.189 446.887 149.928 446.462 149.13C446.479 149.095 446.497 149.043 446.514 148.99C447.025 149.094 447.436 149.366 447.848 149.639C448.059 149.778 448.27 149.918 448.496 150.036L448.495 150.036L448.495 150.036C448.143 149.74 448.012 149.63 447.942 149.49C447.9 149.407 447.879 149.313 447.847 149.165L447.847 149.165C447.882 149.147 447.917 149.13 447.935 149.112C448.005 149.13 448.11 149.165 448.198 149.199C450.898 150.332 450.898 150.332 462.801 160.054L462.801 160.054L462.801 160.054L462.801 160.054L462.801 160.054L462.801 160.054L462.801 160.055L462.801 160.055L462.801 160.055L462.801 160.055L462.801 160.055L462.802 160.055L462.802 160.055L462.802 160.055L462.802 160.055L462.802 160.055L462.802 160.055L462.802 160.055L462.802 160.055L462.853 160.097C463.863 160.931 464.675 161.6 465.52 163.348L465.414 163.401C463.537 162.537 462.027 161.178 460.516 159.818C459.741 159.12 458.965 158.422 458.138 157.79ZM439.563 145.714C440.394 146.168 441.183 146.6 441.451 146.569C441.784 146.516 441.784 146.168 441.152 145.872C439.399 145.105 436.314 143.484 435.349 142.84C436.401 143.223 436.91 143.484 437.19 143.641C438.207 144.199 438.242 144.199 438.347 144.199C438.146 144.035 437.918 143.9 437.69 143.765C437.263 143.513 436.833 143.259 436.559 142.805L436.56 142.806L436.562 142.806L436.563 142.807L436.564 142.808L436.566 142.808L436.567 142.809L436.568 142.81L436.569 142.811L436.571 142.811L436.572 142.812L436.573 142.813L436.575 142.813L436.576 142.814L436.577 142.815L436.579 142.815L436.58 142.816L436.581 142.817C440.732 145.087 440.732 145.087 440.767 145.07C440.697 143.868 431.983 139.686 431.895 139.668C431.487 140.132 432.018 140.411 432.548 140.689C432.815 140.829 433.081 140.969 433.228 141.132C433.245 141.167 433.28 141.202 433.315 141.219C433.403 141.306 433.491 141.393 433.561 141.498L433.491 141.568C430.23 140.818 429.651 139.738 429.564 139.302C429.423 138.71 425.163 136.532 425.128 136.514C425.121 136.514 425.114 136.514 425.107 136.514L425.097 136.513C425.078 136.511 425.061 136.507 425.044 136.504C425.023 136.501 425.003 136.497 424.988 136.497C425.652 137.184 426.383 137.79 427.114 138.394L427.114 138.395C427.773 138.939 428.431 139.484 429.038 140.087C428.52 139.79 428.034 139.442 427.547 139.093L427.547 139.093L427.547 139.093C427.061 138.745 426.574 138.396 426.057 138.1C426.04 138.083 425.496 137.786 425.023 137.821L425.03 137.834C425.096 137.95 425.151 138.046 425.794 138.483C425.829 138.518 429.248 140.871 430.142 141.341C430.907 141.739 431.711 142.011 432.517 142.283C432.913 142.417 433.309 142.551 433.701 142.7C433.719 142.7 435.595 143.502 439.277 145.558C439.372 145.61 439.468 145.662 439.563 145.714ZM465.698 168.019C465.352 168.105 465.048 167.976 464.746 167.848C464.497 167.742 464.249 167.637 463.98 167.653C463.945 167.688 463.91 167.722 463.893 167.757C464.054 168.188 464.355 168.515 464.654 168.842C464.875 169.083 465.096 169.323 465.26 169.604C464.541 169.622 458.686 167.025 455.372 164.377C454.302 163.523 453.864 163.175 453.268 162.948L453.258 162.953L453.244 162.961L453.221 162.974L453.207 162.983C453.185 162.996 453.163 163.009 453.145 163.018L453.146 163.018C453.382 163.458 453.419 163.527 453.446 163.601C453.451 163.615 453.455 163.628 453.461 163.645C453.18 163.924 450.954 164.394 450.936 164.394L450.936 164.394C450.051 164.099 449.541 163.928 449.093 163.657C448.484 163.289 447.987 162.736 446.816 161.432L446.781 161.389L446.781 161.389C446.74 161.338 446.728 161.324 446.728 161.31C446.75 161.306 446.77 161.303 446.789 161.301C446.96 161.286 447.14 161.381 448.885 162.303C448.675 161.624 446.641 160.09 445.238 160.16C444.73 160.177 444.642 160.16 444.449 160.021C444.432 160.021 443.38 159.062 443.555 158.191C444.66 157.581 445.115 156.361 444.519 155.647L444.394 155.493C443.509 154.405 439.511 149.488 439.61 149.078C439.753 149.007 439.905 148.968 440.059 148.928C440.131 148.91 440.204 148.891 440.277 148.869C440.312 148.799 440.347 148.712 440.364 148.66C440.382 148.677 440.399 148.694 440.417 148.694C441.241 149.389 441.961 150.19 442.681 150.991L442.681 150.991C443.783 152.218 444.886 153.444 446.36 154.288C446.504 153.66 446.144 153.297 445.784 152.934C445.575 152.723 445.365 152.512 445.256 152.249C445.266 152.243 445.276 152.236 445.288 152.228C445.34 152.195 445.406 152.152 445.449 152.11C445.855 152.257 446.231 152.472 446.607 152.687L446.607 152.687C447.122 152.983 447.638 153.278 448.236 153.399C448.108 153.192 447.935 153.02 447.762 152.849C447.557 152.647 447.352 152.444 447.219 152.179L447.325 152.075C448.063 152.291 448.7 152.701 449.333 153.109C449.873 153.456 450.41 153.802 451.006 154.026C450.559 153.408 449.95 152.983 449.341 152.557C448.852 152.215 448.362 151.873 447.956 151.43C448.78 151.517 459.492 158.4 459.229 159.672C459.089 159.724 458.931 159.812 458.808 159.899L458.816 159.912C459.019 160.248 459.035 160.274 460.299 161.014C462.42 162.303 462.525 162.547 462.508 162.843C462.402 162.896 462.227 162.913 462.122 162.896C461.506 162.779 460.952 162.508 460.397 162.238C459.878 161.985 459.359 161.733 458.791 161.606C458.363 161.509 457.94 161.555 457.517 161.602C457.108 161.647 456.698 161.692 456.284 161.606C457.743 162.732 459.689 163.324 460.576 163.593L460.632 163.61C466.154 165.318 466.68 167.775 465.698 168.019ZM417.377 177.707C417.009 177.655 416.535 177.637 416.711 178.108C416.956 178.77 419.007 180.948 419.621 180.425C419.866 180.234 420.007 179.223 419.428 178.508C419.007 178.003 417.394 177.707 417.377 177.707ZM419.428 174.204C419.358 174.187 419.148 174.065 419.06 173.891C418.885 173.525 419.165 172.915 419.358 172.723C419.523 172.568 419.714 172.443 419.906 172.319C420.122 172.178 420.338 172.037 420.515 171.852C420.764 171.59 420.965 171.285 421.165 170.981C421.43 170.577 421.696 170.173 422.076 169.866C422.109 169.844 422.146 169.818 422.185 169.791C422.268 169.733 422.36 169.669 422.444 169.622C422.784 169.408 423.17 169.322 423.557 169.235C423.928 169.152 424.301 169.069 424.635 168.872C424.855 168.742 424.964 168.528 425.074 168.315C425.183 168.101 425.293 167.888 425.512 167.757C425.565 167.722 425.652 167.74 425.705 167.757C426.312 168.05 428.363 170.905 428.489 171.081L428.493 171.085L428.577 171.208L428.577 171.209L428.578 171.209L428.578 171.21C428.828 171.574 429.132 172.016 429.352 172.375L431.631 176.034C430.281 176.139 430.281 176.139 430.176 176.818L430.176 176.818C430.065 177.49 430.042 177.633 429.977 177.655C429.959 177.661 429.939 177.658 429.913 177.655C429.737 177.62 429.369 177.323 428.633 176.714L428.606 176.692C427.534 175.801 425.758 174.325 423.689 174.1C423.083 174.034 422.487 174.132 421.892 174.229C421.075 174.363 420.26 174.497 419.428 174.204ZM427.178 178.126C426.214 177.359 423.216 176.714 423.181 176.714C422.181 176.557 422.234 176.923 422.444 177.272C423.128 178.317 426.898 180.53 427.529 180.077C427.844 179.833 427.757 178.579 427.178 178.126ZM430.895 344.428C432.035 344.898 431.386 346.676 430.685 346.92C430.212 347.094 427.249 347.652 427.301 346.414C427.336 345.683 429.405 344.114 430.895 344.428ZM223.84 197.368C223.891 197.166 223.92 197.048 223.714 197.031C223.468 197.031 223.17 197.136 222.399 197.484L223.837 197.38L223.84 197.368ZM362.887 212.121C361.52 210.344 360.924 209.159 361.099 208.601C361.116 208.597 361.134 208.592 361.154 208.587C361.217 208.569 361.291 208.549 361.344 208.549C362.098 208.793 364.08 210.483 365.622 212.365C366.578 213.539 367.381 214.819 368.183 216.098C368.941 217.306 369.698 218.514 370.584 219.631C371.031 220.187 371.555 220.67 372.079 221.154L372.079 221.154L372.079 221.154L372.079 221.154L372.079 221.154L372.079 221.154L372.079 221.154L372.079 221.154L372.079 221.154L372.079 221.154L372.08 221.154C372.705 221.732 373.331 222.31 373.828 223.012C374.171 223.489 373.909 223.633 373.75 223.72L373.74 223.726C373.494 223.848 373.494 223.848 367.957 224.301L367.957 224.301L367.957 224.301L367.957 224.301L367.956 224.301L367.956 224.301L367.956 224.301L367.956 224.301L367.956 224.301L367.955 224.301L367.954 224.301C364.781 224.563 362.467 224.841 359.994 225.503C359.91 225.525 359.817 225.552 359.721 225.58C359.498 225.646 359.256 225.718 359.048 225.73C358.741 225.748 358.429 225.655 358.118 225.562C357.522 225.384 356.923 225.205 356.348 225.8C355.926 226.235 355.878 227.025 355.843 227.581L355.839 227.647C355.804 228.239 355.524 228.291 355.348 228.274C354.454 228.169 353.367 226.479 353.245 225.033C353.069 222.715 354.84 219.126 356.611 217.227L356.611 217.227C356.915 216.901 357.12 216.683 357.371 216.561C357.888 216.31 358.602 216.467 360.783 216.948C361.783 217.157 361.993 216.965 362.221 216.129C362.659 214.578 363.045 214.299 363.641 213.986C363.957 213.811 363.957 213.707 363.799 213.411C363.672 213.108 363.407 212.778 363.158 212.467L363.158 212.466C363.063 212.348 362.97 212.232 362.887 212.121ZM233.636 184.933C233.51 184.448 233.383 183.962 233.461 183.458C233.569 182.761 233.875 182.134 234.178 181.511C234.467 180.919 234.753 180.331 234.864 179.694C234.868 179.679 234.872 179.663 234.877 179.646C234.913 179.506 234.963 179.313 234.917 179.189C234.268 177.656 229.937 177.568 229.885 177.568C228.855 177.634 229.273 178.527 229.711 179.465C229.967 180.013 230.231 180.577 230.218 181.001C230.2 181.594 229.797 181.541 227.571 181.245C227.097 181.175 226.361 181.088 225.73 181.106C222.206 181.245 223.924 186.978 225.239 188.145H225.221C224.187 188.198 222.136 188.494 219.891 189.905C219.064 190.428 218.458 191.155 217.849 191.885C217.504 192.3 217.158 192.715 216.771 193.094C215.508 194.339 213.971 195.174 212.434 196.009C211.281 196.635 210.128 197.261 209.091 198.06C208.589 198.447 208.401 198.699 208.293 198.845L208.267 198.879C208.267 198.888 208.262 198.898 208.258 198.907C208.254 198.915 208.25 198.923 208.25 198.931C208.18 199.28 209.162 198.949 209.863 198.705C211.296 198.385 211.413 198.359 211.518 198.383C211.527 198.386 211.536 198.388 211.546 198.391L211.546 198.391C211.552 198.404 211.559 198.419 211.565 198.434L211.572 198.452L211.583 198.478C211.588 198.491 211.593 198.503 211.599 198.513C211.599 198.548 210.231 201.319 208.232 201.214C207.338 201.162 206.251 201.109 205.199 203.863C204.899 204.635 205.119 205.376 205.34 206.12C205.557 206.853 205.776 207.588 205.497 208.358C205.03 208.527 204.528 208.474 204.025 208.421C203.284 208.343 202.541 208.265 201.903 208.898C201.907 208.908 201.909 208.919 201.912 208.93C201.914 208.94 201.916 208.949 201.917 208.959C201.925 208.998 201.933 209.039 201.956 209.073L207.11 210.798C207.145 210.815 207.18 210.815 207.215 210.815C208.798 211.045 210.39 211.09 211.981 211.136C213.405 211.177 214.829 211.217 216.245 211.39L216.245 211.39L216.245 211.39L216.246 211.39L216.246 211.39L216.246 211.39L216.247 211.39L216.247 211.39L216.247 211.39C221.747 212.086 222.14 212.136 222.505 212.055C222.533 212.049 222.561 212.042 222.591 212.035L222.591 212.035C222.6 211.993 222.604 211.948 222.608 211.904V211.903V211.903C222.613 211.855 222.617 211.81 222.626 211.773C222.275 211.4 221.865 211.093 221.453 210.786L221.453 210.786C221.001 210.449 220.548 210.111 220.172 209.682C219.905 209.385 219.739 209.026 219.572 208.664L219.572 208.664C219.377 208.241 219.181 207.816 218.822 207.487L218.809 207.475C218.464 207.167 218.18 206.912 217.279 206.929L217.259 206.93C216.324 206.947 215.702 206.958 215.771 206.145C215.84 205.253 218.513 205.324 219.849 205.359L219.909 205.361C223.012 205.431 223.591 204.786 223.696 204.577C223.889 204.194 223.363 203.932 223.012 203.775C221.715 203.166 220.803 202.643 221.013 201.684C221.22 200.723 221.855 200.046 222.488 199.371C223.037 198.786 223.585 198.201 223.854 197.433L223.853 197.433C222.829 197.507 222.535 197.529 222.266 197.623C222.158 197.661 222.054 197.711 221.908 197.781C220.733 198.339 219.12 199.088 219.436 197.781C219.764 197.092 220.262 196.537 220.76 195.983C221.193 195.501 221.625 195.02 221.943 194.453C222.081 194.211 222.052 193.962 222.023 193.714C222.004 193.553 221.985 193.392 222.013 193.233C222.486 192.902 222.802 192.815 225.362 192.153L225.385 192.147C227.005 191.714 228.277 191.374 229.376 188.895C229.593 188.384 229.411 187.797 229.232 187.222C228.977 186.403 228.73 185.608 229.657 185.096C230.03 184.877 230.502 185.229 231.041 185.631L231.095 185.671C232.637 186.821 233.356 186.908 233.707 186.769C233.95 186.14 233.794 185.538 233.636 184.933ZM520.783 239.896C520.472 239.172 520.236 238.426 520.002 237.682C519.813 237.084 519.625 236.488 519.398 235.906C519.267 235.581 519.131 235.259 518.994 234.938C518.801 234.483 518.608 234.03 518.434 233.571C518.416 233.528 518.399 233.475 518.381 233.423C518.364 233.371 518.346 233.319 518.329 233.275C518.311 233.24 518.101 232.543 518.451 232.613C518.504 232.63 518.574 232.665 518.627 232.7C519.801 233.658 521.134 239.722 520.906 240.088C520.871 240.054 520.844 240.004 520.82 239.96C520.807 239.936 520.795 239.914 520.783 239.896ZM261.896 154.58L261.896 154.581C261.898 154.607 261.9 154.633 261.9 154.654C262.113 154.643 262.19 154.639 262.254 154.665C262.29 154.68 262.322 154.704 262.372 154.741L262.373 154.741L262.373 154.741C262.29 155.005 262.136 155.234 261.982 155.463C261.811 155.718 261.64 155.972 261.566 156.275C261.339 157.163 265.581 160.213 268.352 160.892C271.42 161.642 271.963 161.659 272.349 161.659C272.374 161.659 272.401 161.658 272.428 161.658C272.476 161.656 272.526 161.653 272.577 161.65C272.656 161.646 272.735 161.642 272.805 161.642C273.357 161.607 273.892 161.467 274.426 161.328C274.961 161.189 275.496 161.049 276.048 161.014C276.539 160.979 277.065 161.014 278.573 161.171C280.887 161.415 281.133 161.311 281.396 161.084C281.396 160.073 281.413 159.638 282.57 159.324C282.985 159.206 283.429 159.278 283.874 159.349C284.615 159.468 285.358 159.587 285.972 158.836C283.675 156.954 287.777 155.543 289.092 155.769C289.846 155.909 291.161 156.1 291.547 155.822C291.262 155.404 290.8 155.207 290.339 155.01C289.723 154.746 289.108 154.483 288.917 153.696C289.146 153.401 289.493 153.27 289.841 153.139C290.293 152.969 290.745 152.799 290.933 152.267C289.759 151.326 285.568 152.494 284.569 154.358C284.131 155.177 281.483 157.338 281.133 157.477C280.402 156.896 280.522 156.2 280.642 155.505C280.709 155.116 280.776 154.727 280.694 154.358L280.649 154.331L280.624 154.316L280.537 154.263L280.451 154.21C280.425 154.194 280.4 154.179 280.379 154.166C280.062 153.983 279.742 154.062 279.423 154.141C279.106 154.219 278.791 154.297 278.485 154.114C278.215 153.96 278.186 153.68 278.156 153.401C278.123 153.082 278.089 152.763 277.696 152.633C277.042 152.416 276.366 152.344 275.689 152.272C275.168 152.217 274.648 152.162 274.137 152.04C273.532 151.892 272.945 151.696 272.358 151.5L272.357 151.5C271.77 151.304 271.183 151.108 270.578 150.96C269.906 150.927 269.399 151.27 268.892 151.613C268.605 151.807 268.318 152.002 268.001 152.128C267.313 152.407 266.597 152.436 265.882 152.465C265.304 152.489 264.726 152.512 264.161 152.668C264.021 152.703 263.828 152.772 263.688 152.825C262.846 153.156 262.145 153.975 261.9 154.41C261.888 154.458 261.892 154.522 261.896 154.58ZM427.141 339.497C425.931 341.065 418.322 341.64 418.199 340.752C418.129 340.281 427.86 329.129 427.965 329.059L427.982 329.048C428.998 328.357 432.029 326.295 437.608 327.422C440.746 328.45 442.938 330.558 442.955 330.628C442.552 331.011 440.15 330.663 438.186 329.53C435.364 327.927 433.488 328.833 433.312 329.321C433.47 329.6 433.838 330 434.75 329.495C434.767 329.504 434.785 329.517 434.803 329.53C434.82 329.543 434.838 329.556 434.855 329.565C434.732 330.906 432.488 331.482 430.998 331.847C428.264 332.54 428.073 333.112 427.503 334.809L427.492 334.845C427.211 335.716 427.018 336.239 426.457 336.953L426.423 336.995C426.037 337.479 425.755 337.832 425.738 338.103C425.681 338.727 426.107 338.923 426.532 339.118C426.76 339.222 426.988 339.327 427.141 339.497ZM414.557 349.743C414.625 349.356 414.695 348.961 415.046 348.767C415.895 348.286 416.83 348.046 417.765 347.806L417.765 347.806C418.763 347.55 419.761 347.294 420.657 346.746C420.692 346.734 420.711 346.691 420.731 346.649C420.74 346.628 420.75 346.606 420.762 346.589L420.751 346.586C420.591 346.55 420.261 346.477 417.466 346.92C415.923 347.164 414.783 347.338 414.52 347.112C414.415 347.024 413.731 344.794 415.818 342.877L415.818 342.877L415.818 342.877L415.818 342.877C415.937 342.769 415.988 342.722 416.011 342.663C416.028 342.619 416.028 342.567 416.028 342.477C415.94 342.389 415.905 342.372 415.677 342.302C414.783 342.163 400.635 343.383 401.336 346.136C401.461 346.626 401.299 347.063 401.137 347.499C401.006 347.855 400.874 348.21 400.898 348.593C400.915 348.819 401.09 348.871 401.336 348.906C401.353 348.924 406.473 348.767 409.453 348.262C410.032 348.174 410.207 348.157 410.383 348.174C411.157 348.256 411.522 348.861 411.887 349.466C412.307 350.161 412.726 350.856 413.766 350.753C414.389 350.695 414.472 350.225 414.557 349.743ZM386.555 218.151C387.765 218.604 384.994 219.945 384.433 220.207C380.889 221.867 379.58 220.168 379.494 220.056L379.489 220.05C379.033 219.057 385.222 217.924 386.555 218.151ZM164.712 450.369C162.086 449.447 161.979 449.409 157.984 444.272C157.002 443.018 157.002 443.017 156.581 442.564L156.581 442.564C156.528 442.564 156.476 442.599 156.441 442.617C157.037 444.429 160.806 449.482 162.034 451.015L162.034 451.016L162.034 451.016C162.404 451.489 162.495 451.605 162.608 451.693C162.623 451.706 162.64 451.717 162.657 451.73C162.68 451.746 162.706 451.763 162.735 451.782L162.734 451.781C162.352 451.153 162.291 451.052 162.271 450.943C162.267 450.922 162.264 450.901 162.262 450.876C164.3 452.991 166.272 455.161 168.243 457.33L168.244 457.331C171.324 460.72 174.4 464.107 177.725 467.273C184.423 473.633 184.423 473.633 186.176 473.615C185.983 472.936 179.426 464.607 174.569 460.826C172.974 459.571 172.378 459.1 170.765 456.783C167.539 452.096 166.855 451.137 164.716 450.371L164.712 450.369ZM293.441 406.618C293.546 406.066 293.336 405.439 293.129 404.82C292.781 403.778 292.44 402.759 293.617 402.158C294.374 401.772 295.131 401.925 295.887 402.079C296.463 402.196 297.039 402.313 297.614 402.193C299.905 401.693 301.781 400.406 303.653 399.122C305.306 397.988 306.956 396.856 308.887 396.268C312.787 395.076 316.771 394.198 320.755 393.32C323.058 392.813 325.361 392.306 327.647 391.738C329.925 390.906 330.897 388.956 331.861 387.025C332.432 385.879 333 384.74 333.836 383.844C335.601 382.696 337.162 381.222 338.727 379.745C340.534 378.039 342.345 376.329 344.478 375.114C347.031 373.671 349.874 373.174 352.717 372.676C355.673 372.159 358.629 371.642 361.257 370.061C363.1 368.952 364.669 367.492 366.238 366.031L366.238 366.031C368.146 364.255 370.055 362.479 372.46 361.331C373.091 361.035 374.003 360.739 374.704 360.634L374.712 360.633C395.887 357.462 412.627 354.956 414.52 371.647C417.017 369.879 421.078 369.926 424.97 369.971C430.863 370.038 436.369 370.102 435.471 363.858C434.56 357.585 437.26 352.95 437.295 352.95C440.413 351.378 443.566 351.838 446.719 352.298C448.53 352.563 450.341 352.827 452.145 352.706C451.082 349.198 450.712 347.975 450.913 346.855C451.02 346.256 451.291 345.687 451.706 344.812C450.548 342.114 450.017 340.877 449.648 339.593C449.336 338.506 449.14 337.385 448.778 335.316C449.708 334.497 457.965 327.893 459.719 346.398C460.899 346.326 461.904 346.967 462.909 347.608C464.323 348.509 465.737 349.412 467.643 348.332C475.27 343.994 477.882 338.47 478.759 335.56C479.368 333.516 478.647 331.727 477.926 329.937C477.38 328.584 476.835 327.23 476.865 325.767C476.888 324.822 477.461 324.087 478.034 323.352C478.771 322.407 479.508 321.461 479.074 320.069C478.075 316.863 472.114 310.817 470.711 309.736C468.222 307.82 458.526 309.998 458.456 310.032C458.193 309.823 457.843 309.527 457.597 309.318C458.02 308.858 458.565 308.57 459.107 308.283C459.51 308.07 459.911 307.857 460.262 307.576C460.203 307.313 460.132 306.977 460.07 306.68L460.034 306.513C458.088 305.397 442.712 304.073 442.642 304.108C439.305 305.881 438.686 309.115 438.067 312.348C437.464 315.501 436.861 318.654 433.736 320.453C429.324 315.831 431.703 311.513 434.118 307.13C435.791 304.092 437.482 301.024 436.944 297.8C436.039 292.47 432.227 289.812 428.418 287.156C426.399 285.748 424.381 284.341 422.795 282.536C422.877 282.523 422.895 282.52 422.907 282.527C422.911 282.529 422.914 282.532 422.918 282.536C423.015 282.423 423.133 282.292 423.251 282.161C423.37 282.031 423.488 281.9 423.584 281.787C423.572 281.682 423.557 281.563 423.542 281.442C423.528 281.33 423.513 281.215 423.499 281.105L423.498 281.1C423.485 280.996 423.473 280.898 423.462 280.811C423.287 280.757 423.071 280.696 422.861 280.636L422.859 280.636C422.733 280.6 422.609 280.565 422.497 280.532C422.483 280.388 422.465 280.224 422.447 280.054L422.447 280.05L422.447 280.048C422.421 279.809 422.395 279.56 422.375 279.347C422.513 279.296 422.676 279.236 422.84 279.176L422.848 279.173C423.015 279.112 423.181 279.051 423.321 278.999L421.796 264.048C421.675 266.223 421.69 272.756 421.691 272.998L421.691 273.005C420.972 272.552 420.972 272.552 420.341 262.707C420.142 263.089 419.889 263.444 419.636 263.799C419.196 264.415 418.754 265.035 418.588 265.808C418.027 264.853 417.778 263.771 417.529 262.689C417.178 261.167 416.827 259.644 415.607 258.472C415.555 258.42 406.701 253.646 406.052 253.68C405.228 245.961 405.228 245.961 400.88 241.919C400.144 241.954 400.144 241.954 387.503 234.687C387.534 234.754 387.569 234.826 387.605 234.902C387.62 234.932 387.634 234.962 387.649 234.993C387.744 235.188 387.844 235.397 387.923 235.576C387.275 235.82 386.346 236.047 385.644 236.029V237.127C392.955 242.285 392.955 242.285 393.06 243.801C388.099 243.888 372.846 235.071 375.581 228.24C376.918 229.127 377.441 230.485 377.964 231.845C378.264 232.624 378.564 233.403 379.017 234.095L379.578 233.939C380.957 233.557 382.107 233.237 383.067 232.945C382.033 232.733 381.244 231.695 381.134 231.55C381.126 231.54 381.122 231.535 381.121 231.533C381.121 231.525 381.117 231.516 381.112 231.507C381.108 231.499 381.103 231.49 381.103 231.481C381.121 231.464 381.121 231.464 381.121 231.446C381.209 231.429 381.244 231.429 381.542 231.464C383.505 231.76 384.627 231.342 385.013 231.15C385.977 230.662 386.135 230.105 386.065 229.286C386.048 228.972 386.083 228.937 386.118 228.92C386.135 228.92 386.153 228.937 386.17 228.955C386.275 229.111 386.889 230.645 386.328 231.795C388.222 230.906 388.555 229.948 389.291 227.648C391.072 227.006 391.201 226.847 391.947 225.934L391.956 225.923L391.891 225.905C389.242 225.182 387.34 224.664 386.784 222.002C388.151 220.66 388.151 220.66 407.209 232.509C394.077 218.953 394.077 218.953 380.612 214.893C377.544 216.984 363.764 210.188 361.66 206.389C362.344 204.734 362.344 204.734 361.344 202.295C361.441 202.155 361.546 201.99 361.651 201.824C361.756 201.659 361.862 201.493 361.958 201.354C363.062 201.11 364.166 200.883 365.27 200.657L365.271 200.657L365.272 200.657H366.236L366.257 200.659C366.944 200.73 368.973 200.942 372.548 203.27C372.643 203.067 372.759 202.802 372.864 202.562L372.866 202.557C372.896 202.49 372.924 202.425 372.951 202.364C371.846 200.813 371.32 200.604 367.253 199.036C368.207 199.118 369.159 199.2 370.11 199.281L370.111 199.281C377.038 199.874 383.916 200.463 391.377 201.214C383.575 200.395 376.79 199.785 367.2 199.019C367.179 199.008 367.156 198.997 367.133 198.986C366.928 198.885 366.662 198.755 366.551 198.583C366.376 198.095 369.55 195.377 373.547 196.422C374.459 196.649 374.459 196.649 374.914 196.492C375.036 196.16 374.986 195.812 374.937 195.463C374.872 195.005 374.807 194.547 375.125 194.122C375.5 193.629 376.056 193.441 376.614 193.252C377.178 193.062 377.744 192.871 378.123 192.362C378.438 191.944 378.228 191.561 377.614 190.742C377.333 190.35 377.141 190.083 377.076 189.789C376.937 189.169 377.358 188.424 378.666 186.107C383.523 177.499 383.523 177.499 385.89 181.995C386.059 182.315 385.954 182.642 385.849 182.97C385.726 183.357 385.602 183.744 385.925 184.12C386.266 184.51 386.739 184.537 387.212 184.565C387.713 184.593 388.212 184.622 388.555 185.079C389.813 186.794 390.021 187.078 390.3 187.196C390.355 187.22 390.413 187.237 390.483 187.257C392.184 187.772 393.545 187.078 394.91 186.382C395.669 185.995 396.43 185.608 397.251 185.427C397.654 184.713 396.742 180.026 395.357 178.91C396.022 178.687 396.704 178.735 397.384 178.782C398.085 178.831 398.784 178.879 399.46 178.632C399.775 178.51 399.968 178.301 400.389 177.604C400.529 177.36 400.862 176.802 404.176 175.722C404.91 175.479 405.086 175.495 405.643 175.547L405.649 175.547C406.976 175.898 408.343 175.969 409.709 176.039C411.466 176.13 413.221 176.22 414.888 176.907C414.675 178.04 415.118 179.13 415.563 180.221C416.211 181.815 416.861 183.411 415.467 185.148C415.667 185.746 416.125 186.171 416.582 186.597C417.166 187.14 417.75 187.683 417.799 188.581C417.854 189.553 417.366 190.311 416.878 191.069C416.43 191.766 415.983 192.461 415.958 193.321L415.958 193.328C415.955 193.585 415.874 200.617 420.008 201.563C420.919 201.772 423.006 202.434 422.55 203.95C422.76 204.211 422.866 204.298 423.707 204.943C424.081 206.358 424.011 207.892 423.941 209.431C423.804 212.441 423.667 215.467 426.845 217.646C427.85 216.124 429.37 215.323 430.884 214.524C431.641 214.124 432.397 213.725 433.087 213.237C431.965 209.944 432.438 208.759 433.069 207.243C432.791 207.028 432.336 206.651 432.016 206.385L432.015 206.385L431.895 206.285C431.921 206.198 431.921 206.063 431.921 205.928C431.921 205.793 431.921 205.658 431.947 205.57C432.316 205.518 432.789 205.483 433.157 205.501C434.369 204.339 435.732 204.533 437.094 204.728C437.958 204.851 438.821 204.975 439.644 204.751C440.775 204.45 441.616 203.708 442.459 202.965C443.224 202.29 443.99 201.615 444.974 201.266C445.325 201.145 445.815 201.023 446.184 200.953C447.419 200.748 448.422 201.263 449.424 201.776C449.957 202.049 450.491 202.323 451.058 202.486C451.636 202.016 451.636 202.016 452.355 197.729L452.355 197.729C452.618 196.231 452.618 196.231 456.16 195.952C456.965 191.395 445.804 183.158 441.021 179.627L441.021 179.627L440.994 179.607C441.322 178.735 442.039 178.623 442.756 178.512C443.228 178.438 443.7 178.364 444.062 178.074C438.992 177.18 436.688 176.774 434.781 175.678C433.193 174.765 431.881 173.374 429.475 170.825C433.069 171.453 433.823 171.575 436.751 169.919C435.527 169.481 434.174 169.469 432.821 169.458C430.359 169.437 427.894 169.416 426.197 166.818C426.46 166.626 426.898 166.486 427.214 166.469L427.208 166.463C427.098 166.336 425.426 164.41 423.672 165.511C417.641 163.35 417.641 163.35 416.045 161.956C415.695 161.66 415.292 161.207 415.064 160.806C414.733 160.255 414.849 159.681 414.965 159.106C415.077 158.553 415.189 157.998 414.906 157.46C414.598 156.887 414.058 156.673 413.518 156.458C413.106 156.294 412.692 156.129 412.381 155.805C412.148 155.5 412.03 155.15 411.912 154.798C411.834 154.567 411.756 154.336 411.645 154.115L411.647 154.113C411.767 153.992 416.794 148.955 418.482 156.206C419.553 156.822 420.521 158.081 421.484 159.335C423.327 161.735 425.153 164.113 427.652 161.904C427.517 160.996 426.694 160.219 425.899 159.469C424.727 158.363 423.617 157.316 424.882 155.997C426.431 156.577 427.39 157.778 428.35 158.979L428.35 158.979C428.889 159.654 429.428 160.329 430.071 160.893C430.492 159.691 428.038 156.485 428.003 156.45C428.01 156.447 428.017 156.444 428.024 156.441C428.133 156.397 428.258 156.392 430.299 156.31C426.942 150.946 426.589 150.382 426.552 149.799C426.547 149.73 426.547 149.661 426.547 149.584C426.626 149.523 426.727 149.449 426.828 149.375L426.828 149.375C426.929 149.301 427.03 149.227 427.108 149.166C426.545 148.299 426.13 147.66 425.642 147.083C424.278 145.468 422.342 144.336 414.993 140.036C415.695 139.948 415.695 139.948 416.799 140.158C424.794 142.022 435.594 156.92 435.682 157.06L435.682 157.06C435.594 157.234 435.489 157.443 435.419 157.617C434.923 157.617 434.439 157.553 433.954 157.489C433.597 157.442 433.24 157.395 432.877 157.373C432.859 157.452 432.837 157.543 432.815 157.635C432.793 157.726 432.771 157.818 432.754 157.896C434.525 158.767 434.805 158.924 435.629 159.708L435.647 160.126H435.629C435.593 160.134 435.555 160.142 435.516 160.151C435.385 160.178 435.242 160.208 435.121 160.248C435.911 161.601 437.137 162.539 438.364 163.478C439.776 164.56 441.19 165.642 441.941 167.358C442.45 166.831 442.759 166.512 442.8 166.16C442.863 165.617 442.282 164.998 440.801 163.42L440.801 163.42C441.135 163.333 441.389 163.266 441.644 163.264C442.461 163.256 443.284 163.903 446.745 166.626C446.99 166.818 448.515 167.776 454.126 167.515C454.307 167.258 454.382 166.959 454.457 166.66C454.535 166.349 454.613 166.038 454.81 165.772C459.35 166.94 460.7 169.553 463.4 174.781C463.674 174.044 463.437 173.383 463.2 172.722C463.011 172.195 462.822 171.668 462.892 171.104C463.879 171.258 464.793 171.675 465.707 172.091C467.065 172.711 468.424 173.33 470.028 173.09C469.655 172.726 469.207 172.438 468.759 172.15L468.759 172.15C467.859 171.573 466.96 170.996 466.679 169.797C466.749 169.762 466.832 169.719 466.916 169.675C466.999 169.632 467.082 169.588 467.152 169.553C467.748 169.884 467.854 169.937 469.589 169.745C469.782 169.466 470.08 169.118 470.343 168.891C471.18 169.067 471.772 169.597 472.363 170.127C472.65 170.385 472.938 170.643 473.254 170.86C473.078 170.529 472.798 170.093 472.57 169.797L472.57 169.797C473.236 170.285 473.236 170.285 474.323 171.331L474.323 171.331C474.141 170.951 474.018 170.695 473.876 170.45C473.581 169.941 473.204 169.478 472.044 168.055L472.044 168.055C473.116 169.032 473.8 169.656 474.493 170.27C475.713 171.352 476.959 172.406 480.397 175.313C479.449 174.42 478.464 173.569 477.48 172.719C476.689 172.036 475.899 171.354 475.13 170.651C475.13 170.652 475.136 170.656 475.146 170.664L475.17 170.682L475.17 170.682C475.592 171.004 479.281 173.818 483.843 178.335C483.685 178.039 483.422 177.673 483.212 177.412L484.102 178.405C486.966 181.602 490.478 185.521 493.188 188.529L493.266 188.631C506.11 205.258 506.366 205.59 512.07 214.997L512.018 214.928C511.949 214.832 511.87 214.705 511.796 214.587C511.776 214.554 511.756 214.522 511.737 214.492L511.737 214.492C515.559 224.076 515.559 224.076 516.033 226.672C516.229 227.285 516.481 228.055 516.7 228.722L516.7 228.722L516.857 229.199C516.769 229.346 516.668 229.512 516.568 229.677L516.567 229.678L516.567 229.678C516.466 229.844 516.366 230.009 516.278 230.157C517.488 233.973 517.488 233.973 518.803 240.49C519.118 242.041 518.75 243.487 518.277 244.898C518.47 244.829 518.768 244.759 519.241 244.724C519.469 244.707 519.574 244.672 519.662 244.585C519.732 244.515 519.767 244.48 519.89 244.027C519.942 243.783 520.188 242.999 520.381 242.964L520.398 242.982C520.398 242.983 520.4 242.991 520.403 243.006C520.452 243.256 520.858 245.336 520.346 247.076C519.924 248.536 518.901 248.397 518.809 248.384L518.803 248.383C518.522 248.296 518.259 248.017 518.084 247.617C517.944 247.251 517.909 246.85 517.909 246.676C517.899 246.542 517.916 246.408 517.933 246.272C517.947 246.159 517.961 246.045 517.961 245.926C517.961 245.918 517.957 245.905 517.952 245.892C517.948 245.878 517.944 245.865 517.944 245.857L517.891 246.004C517.382 247.435 516.878 248.854 516.979 250.387C517.505 250.091 518.207 249.725 518.75 249.464C525.185 257.444 527.446 297.434 523.151 304.91C522.59 304.997 522.59 304.997 513.263 324.007C513.929 324.007 514.805 324.042 515.472 324.077C514.35 326.429 506.109 337.006 506.039 337.093C505.285 336.013 504.514 334.88 508.301 329.531C510.019 327.109 511.965 324.356 515.261 311.061C511.124 314.058 510.685 316.027 510.142 318.501C509.756 320.261 509.3 322.265 508.511 323.519C507.538 325.061 506.436 326.515 505.333 327.97C504.529 329.03 503.725 330.091 502.971 331.186C501.927 332.693 500.559 333.905 499.191 335.117C497.506 336.611 495.823 338.103 494.748 340.143C494.165 341.243 493.901 342.482 493.636 343.721C493.184 345.835 492.733 347.949 490.698 349.378C490.322 349.647 489.753 349.865 489.288 350.042C489.211 350.072 489.138 350.1 489.068 350.127C488.73 350.256 488.359 350.426 487.976 350.601L487.975 350.601C487.325 350.898 486.642 351.211 486.035 351.364C484.223 351.829 482.39 352.195 480.556 352.562L480.555 352.562C479.018 352.869 477.48 353.177 475.954 353.542C474.524 353.885 473.057 353.743 471.588 353.6C469.545 353.402 467.498 353.204 465.539 354.309L465.539 354.309C457.86 358.648 457.86 358.648 455.16 358.944C454.757 358.979 454.213 359.049 453.81 359.101C448.232 359.874 444.164 363.466 440.098 367.056C435.371 371.23 430.646 375.402 423.549 375.149C417.676 365.409 414.047 377.101 412.767 382.572C412.364 384.297 412.364 384.297 415.66 391.511C415.695 391.633 418.903 404.615 417.518 407.054C417.453 407.168 417.384 407.293 417.313 407.423C417.133 407.748 416.94 408.099 416.764 408.361C412.434 414.756 394.656 432.233 394.498 432.355C392.141 434.376 389.336 435.548 386.532 436.719C384.163 437.708 381.796 438.696 379.701 440.196C376.212 442.688 373.6 447.584 372.355 453.979C372.302 454.275 365.482 484.647 353.613 501.235C338.57 522.285 324.018 519.95 323.878 519.915C337.886 512.736 337.886 512.736 336.571 506.846C336.993 506.401 337.323 506.052 337.62 505.676C338.69 504.317 339.315 502.607 342.199 494.719L342.199 494.718C342.087 494.681 341.996 494.651 341.904 494.628C341.522 494.53 341.11 494.544 338.992 494.614H338.991C339.008 494.335 339.008 494.335 342.199 489.944L342.199 489.944C340.654 488.573 340.082 488.065 339.913 487.447C339.814 487.083 339.855 486.68 339.92 486.041C339.727 485.936 339.481 485.78 339.306 485.658C334.958 486.982 333.503 483.41 334.625 481.772L335.905 479.995C326.017 479.733 321.809 455.931 321.774 455.704C320.354 452.672 316.619 450.86 315.076 450.233C313.018 449.384 312.15 447.622 311.28 445.857C310.668 444.615 310.056 443.372 309.028 442.444C307.906 441.433 306.906 441.416 306.065 441.52C304.61 441.712 304.504 441.712 304.312 440.353C304.066 438.537 304.074 436.715 304.082 434.891C304.087 433.721 304.093 432.55 304.031 431.379C304.001 430.812 304.096 430.24 304.191 429.667C304.377 428.549 304.562 427.432 303.821 426.361C302.523 424.479 302.05 423.782 302.962 422.527C303.137 422.301 303.312 421.952 303.382 421.674C295.107 418.676 292.162 409.755 292.144 409.685C292.144 409.651 292.142 409.613 292.14 409.574C292.136 409.495 292.132 409.413 292.144 409.354C292.289 408.881 292.538 408.475 292.782 408.077C293.068 407.61 293.347 407.155 293.441 406.618ZM501.06 220.678C498.132 219.719 495.046 218.813 491.855 217.942C495.029 218.813 498.115 219.719 501.06 220.678ZM407.157 390.396C403.422 389.925 399.618 389.472 395.62 389.019C399.302 389.455 403.107 389.908 407.157 390.396ZM323.264 442.496C323.422 441.05 323.913 436.31 324.667 427.947C324.211 432.825 323.737 437.687 323.229 442.81L323.229 442.81C323.247 442.705 323.264 442.601 323.264 442.496ZM394.619 352.305C396.004 352.079 397.477 350.615 396.337 349.848C395.811 349.709 395.425 349.622 392.848 350.441C390.499 351.155 390.271 351.556 390.341 351.713C390.464 352.027 393.637 352.462 394.619 352.305Z" fill="url(#paint0_linear_3429_15590)"/>
<path d="M395.42 239.438C330.224 187.067 221.176 227.406 201.228 260.21" stroke="black" stroke-width="0.886574" stroke-dasharray="1.77 3.55"/>
<path d="M417.329 384.87C434.355 392.789 465.943 398.63 456.088 358.646" stroke="black" stroke-width="0.886574" stroke-dasharray="1.77 3.55"/>
<path d="M437.869 298.623C407.517 289.27 344.666 296.671 336.082 401.096" stroke="black" stroke-width="0.886574" stroke-dasharray="1.77 3.55"/>
<path d="M449.737 151.981C472.601 146.995 506.25 151.861 457.932 211.214" stroke="black" stroke-width="0.886574" stroke-dasharray="1.77 3.55"/>
<path d="M185.223 382.381C154.238 363.052 150.692 312.074 176.846 285.034" stroke="black" stroke-width="0.886574" stroke-dasharray="1.77 3.55"/>
<path d="M176.159 245.911C166.137 217.555 176.159 185.288 216.129 178.688" stroke="black" stroke-width="0.886574" stroke-dasharray="1.77 3.55"/>
<circle cx="2.51046" cy="2.51046" r="2.51046" transform="matrix(-1 0 0 1 203.711 258.684)" fill="black"/>
<circle cx="2.51046" cy="2.51046" r="2.51046" transform="matrix(-1 0 0 1 218.58 175.754)" fill="black"/>
<circle cx="2.51046" cy="2.51046" r="2.51046" transform="matrix(-1 0 0 1 178.49 244.689)" fill="black"/>
<circle cx="2.73868" cy="2.73868" r="2.73868" transform="matrix(-1 0 0 1 188.193 379.186)" fill="black"/>
<ellipse cx="2.28223" cy="2.05401" rx="2.28223" ry="2.05401" transform="matrix(-1 0 0 1 179.977 282.876)" fill="black"/>
<circle cx="2.9669" cy="2.9669" r="2.9669" transform="matrix(-1 0 0 1 398.615 237.688)" fill="black"/>
<ellipse cx="2.28223" cy="2.51046" rx="2.28223" ry="2.51046" transform="matrix(-1 0 0 1 339.275 400.639)" fill="black"/>
<ellipse cx="2.28223" cy="2.05401" rx="2.28223" ry="2.05401" transform="matrix(-1 0 0 1 439.238 297.026)" fill="black"/>
<ellipse cx="2.51046" cy="2.73868" rx="2.51046" ry="2.73868" transform="matrix(-1 0 0 1 461.148 208.931)" fill="black"/>
<ellipse cx="2.51046" cy="2.28223" rx="2.51046" ry="2.28223" transform="matrix(-1 0 0 1 419.154 382.381)" fill="black"/>
<ellipse cx="2.28223" cy="2.73868" rx="2.28223" ry="2.73868" transform="matrix(-1 0 0 1 457.953 354.994)" fill="black"/>
<circle cx="213.161" cy="213.161" r="213.161" transform="matrix(-1 0 0 1 540.666 113.724)" fill="url(#paint1_radial_3429_15590)"/>
<defs>
<linearGradient id="paint0_linear_3429_15590" x1="525.354" y1="184.993" x2="109.268" y2="192.829" gradientUnits="userSpaceOnUse">
<stop stop-color="#4488FF"/>
<stop offset="1" stop-color="#21D4DF"/>
</linearGradient>
<radialGradient id="paint1_radial_3429_15590" cx="0" cy="0" r="1" gradientUnits="userSpaceOnUse" gradientTransform="translate(213.161 213.161) rotate(90) scale(213.161)">
<stop stop-color="#2F7BFF" stop-opacity="0"/>
<stop offset="0.213542" stop-color="#2F7BFF" stop-opacity="0.05"/>
<stop offset="0.734375" stop-color="#2F7BFF" stop-opacity="0.05"/>
<stop offset="0.859375" stop-color="#2F7BFF" stop-opacity="0.15"/>
<stop offset="0.9999" stop-color="#2F7BFF" stop-opacity="0.2"/>
<stop offset="1" stop-color="#989898" stop-opacity="0.1"/>
</radialGradient>
</defs>
</svg>
