<svg width="84" height="85" viewBox="0 0 84 85" fill="none" xmlns="http://www.w3.org/2000/svg">
<path d="M70.875 7.17651L72.9028 11.4973L77.4375 12.1903L74.1562 15.5529L74.9306 20.3015L70.875 18.0598L66.8194 20.3015L67.5938 15.5529L64.3125 12.1903L68.8472 11.4973L70.875 7.17651Z" fill="#DDE8ED"/>
<path d="M18.375 11.114L20.4028 15.4348L24.9375 16.1278L21.6562 19.4904L22.4306 24.239L18.375 21.9973L14.3194 24.239L15.0938 19.4904L11.8125 16.1278L16.3472 15.4348L18.375 11.114Z" fill="#DDE8ED"/>
<path d="M2.625 39.989H13.125V50.489H2.625V39.989Z" fill="#1FC9AA"/>
<path d="M36.75 3.23901H47.25V13.739H36.75V3.23901Z" fill="#1FC9AA"/>
<path d="M70.875 42.614H81.375V53.114H70.875V42.614Z" fill="#1FC9AA"/>
<path d="M6.5625 39.989H9.1875V45.239H6.5625V39.989Z" fill="#26AA92"/>
<path d="M40.6875 3.23901H43.3125V8.48901H40.6875V3.23901Z" fill="#26AA92"/>
<path d="M74.8125 42.614H77.4375V47.864H74.8125V42.614Z" fill="#26AA92"/>
<path d="M40.6875 18.989H43.3125V24.239H40.6875V18.989Z" fill="#002C54"/>
<path d="M76.1247 38.6765H73.4997C73.4997 35.058 70.5557 32.114 66.9372 32.114C65.0734 32.114 63.291 32.9107 62.0455 34.302L60.0898 32.5511C61.8315 30.606 64.3279 29.489 66.9372 29.489C72.0021 29.489 76.1247 33.6116 76.1247 38.6765Z" fill="#002C54"/>
<path d="M52.3836 26.0924L49.9922 25.0109C50.8808 23.0487 52.5844 20.2295 55.6517 17.9378C57.3514 16.6673 59.2571 15.7145 61.3138 15.1055L62.0593 17.6228C60.2993 18.1426 58.6731 18.9577 57.2214 20.0405C54.603 21.9987 53.1448 24.4124 52.3836 26.0924Z" fill="#002C54"/>
<path d="M30.2388 25.9152C30.021 25.1579 29.4474 23.7259 28.068 22.6484C27.4301 22.1509 26.7017 21.7874 25.9023 21.5669L26.5993 19.0364C27.7333 19.3474 28.7715 19.8672 29.6837 20.5799C31.6485 22.1129 32.4557 24.1249 32.7628 25.1881L30.2388 25.9152Z" fill="#002C54"/>
<path d="M21.4351 36.7091C20.263 34.6839 18.0843 33.4265 15.7493 33.4265C13.4144 33.4265 11.2357 34.6839 10.0636 36.7091L7.79297 35.394C9.43097 32.5616 12.4799 30.8015 15.7493 30.8015C19.0188 30.8015 22.0677 32.5616 23.7057 35.394L21.4351 36.7091Z" fill="#002C54"/>
<path d="M60.3757 47.8641C60.3757 37.4219 51.6647 29.014 41.1135 29.5101C32.0677 29.9354 24.5064 37.1581 23.7006 46.1789C23.0679 53.2572 26.4621 59.5795 31.842 63.1548C33.2831 64.1129 34.1257 65.747 34.1257 67.4781V70.1766H49.8757V67.4755C49.8757 65.7404 50.7276 64.1063 52.1726 63.1443C57.1142 59.8551 60.3757 54.2468 60.3757 47.8641Z" fill="#3374E5"/>
<path d="M51.1468 50.1031L53.8125 50.069L53.7521 45.3558L51.0864 45.39C50.8528 44.5303 50.5037 43.7218 50.0522 42.9789L51.912 41.0705L48.5362 37.7801L46.6764 39.6885C45.9218 39.2566 45.1041 38.9272 44.2391 38.7159L44.205 36.0515L39.4918 36.1119L39.5259 38.7776C38.6662 39.0112 37.8577 39.3603 37.1149 39.8118L35.2065 37.952L31.9161 41.3278L33.8244 43.1876C33.3926 43.9423 33.0632 44.7599 32.8519 45.6249L30.1875 45.659L30.2479 50.3722L32.9136 50.3381C33.1472 51.1978 33.4963 52.0063 33.9478 52.7491L32.088 54.6575L35.4638 57.9479L37.3236 56.0396C38.0783 56.4714 38.8959 56.8008 39.7609 57.0121L39.795 59.6765L44.5082 59.6161L44.4741 56.9505C45.3337 56.7168 46.1423 56.3677 46.8851 55.9162L48.7935 57.776L52.0839 54.4003L50.1756 52.5405C50.6074 51.7871 50.9355 50.9694 51.1468 50.1031ZM42.0223 51.749C39.8422 51.7766 38.0533 50.0323 38.0258 47.8522C37.9982 45.6721 39.7425 43.8832 41.9213 43.8556C44.1013 43.8281 45.8903 45.5724 45.9178 47.7511C45.9467 49.9312 44.2024 51.7214 42.0223 51.749Z" fill="white"/>
<path d="M36.75 78.0515L36.8655 78.3993C37.5808 80.5426 39.5863 81.989 41.8464 81.989H42.1536C44.4137 81.989 46.4192 80.5426 47.1345 78.3993L47.25 78.0515H36.75Z" fill="#002C54"/>
<path d="M48.3 75.4265H35.7C34.8298 75.4265 34.125 74.8385 34.125 74.114C34.125 73.3895 34.8298 72.8015 35.7 72.8015H48.3C49.1702 72.8015 49.875 73.3895 49.875 74.114C49.875 74.8385 49.1702 75.4265 48.3 75.4265Z" fill="#002C54"/>
</svg>
