<svg width="64" height="65" viewBox="0 0 64 65" fill="none" xmlns="http://www.w3.org/2000/svg">
<g clip-path="url(#clip0_3243_13247)">
<g clip-path="url(#clip1_3243_13247)">
<path d="M28.7644 12.3897C28.4677 12.3897 28.1751 12.2535 27.9857 11.9962C27.1075 10.8029 25.5447 9.43403 23.0856 9.69666C20.1905 10.005 18.0405 9.08366 16.7465 8.25653C16.2971 7.96928 16.1657 7.37216 16.4529 6.92278C16.74 6.47328 17.3374 6.34203 17.7866 6.62916C18.8202 7.28966 20.5431 8.02553 22.8811 7.77603C26.4296 7.39928 28.577 9.54078 29.5414 10.8514C29.8575 11.2809 29.7655 11.8855 29.3359 12.2017C29.1635 12.3284 28.9631 12.3897 28.7644 12.3897Z" fill="#002C54"/>
<path d="M18.6544 17.518C18.4821 17.518 18.3078 17.472 18.1501 17.3752C17.6954 17.0962 17.5533 16.5015 17.8323 16.0469C19.0702 14.0303 21.3387 12.6443 24.3927 12.0388C26.6194 11.5974 28.4878 11.7183 28.5661 11.7238C29.0982 11.7603 29.4999 12.2212 29.4634 12.7533C29.4269 13.285 28.9649 13.6838 28.4351 13.6508C28.3681 13.6463 21.8106 13.2575 19.4783 17.0573C19.2961 17.3544 18.9789 17.518 18.6544 17.518Z" fill="#002C54"/>
<path d="M33.2097 54.5236C49.0698 54.5236 57.8395 31.2599 32.7939 13.292C32.1709 12.845 31.8009 12.1254 31.8093 11.3586C31.8162 10.725 32.0169 10.1099 32.3803 9.59076C33.5528 7.91639 35.2405 5.05214 36.2527 2.74514C36.495 2.19264 36.1482 1.59839 35.4998 1.59839C33.9954 1.59851 33.9954 0.614014 32.491 0.614014C30.9867 0.614014 30.9867 1.59851 29.4822 1.59851C28.2002 1.59851 27.6742 0.495514 27.0509 1.29776C25.2332 3.63726 31.4592 11.8644 31.4592 11.8644C3.96241 29.9406 12.8283 54.5238 29.0628 54.5238H33.2097V54.5236Z" fill="#3374E5"/>
<path d="M39.4437 11.8643C39.4437 11.8643 45.762 3.66376 43.9452 1.31139C43.3259 0.509639 42.7979 1.59851 41.5173 1.59851C40.0127 1.59839 40.0127 0.614014 38.508 0.614014C37.0035 0.614014 37.0035 1.59839 35.499 1.59839C35.4249 1.59839 35.3573 1.59426 35.2902 1.58964C34.6857 4.18089 31.9615 8.21776 30.4027 10.3793C31.0165 11.2801 31.4585 11.8641 31.4585 11.8641C31.0918 12.1053 30.7328 12.3478 30.3789 12.5911C56.6503 30.6485 47.8598 54.5235 31.7927 54.5235H41.9374C58.221 54.5236 67.032 30.0006 39.4437 11.8643Z" fill="#4B8BFA"/>
<path d="M40.6189 14.7811C36.9475 15.7083 33.3204 15.7083 29.6484 14.7811C28.3704 14.4583 27.6459 13.0212 28.1057 11.7148C28.1109 11.7002 28.116 11.6856 28.1211 11.671C28.5067 10.5757 29.6004 9.96108 30.6722 10.2302C33.6785 10.985 36.5877 10.9852 39.5949 10.2302C40.6667 9.96108 41.7604 10.5757 42.146 11.671C42.1511 11.6856 42.1562 11.7002 42.1614 11.7148C42.6214 13.0212 41.8969 14.4583 40.6189 14.7811Z" fill="#002C54"/>
<path d="M6.09766 58.7414L20.0797 63.9457C21.2672 64.3877 22.524 64.614 23.7912 64.614H38.2007C40.2172 64.614 42.1922 64.041 43.8955 62.9617L61.9377 51.5292C63.128 50.4722 63.3487 48.6959 62.4532 47.3798C61.4733 45.9398 59.8524 45.6895 58.0688 46.5329L40.503 54.2672L40.5238 51.4173C40.2912 49.078 38.49 47.2007 36.1625 46.8714L25.4655 45.6398C22.9979 45.2907 21.7649 44.4637 19.6137 43.2053C16.6768 41.4873 13.3355 40.5818 9.93303 40.5818H6.09766V58.7414Z" fill="#FFDDCE"/>
<path d="M19.1329 61.2049C20.3812 61.6695 21.7026 61.9075 23.0346 61.9075H38.1829C39.7956 61.9075 41.3826 61.558 42.8382 60.8916L53.4306 54.1796C54.4147 53.556 55.0395 52.4705 55.0075 51.3059C54.9905 50.6883 54.8018 50.07 54.4319 49.5265C54.4319 49.5265 54.1094 48.9739 53.778 48.4114L40.4054 54.2994L40.4261 51.4495C40.1935 49.1103 38.3924 47.2329 36.0649 46.9036L25.3679 45.672C22.9002 45.3229 21.6672 44.4959 19.516 43.2375C16.5791 41.5195 13.2379 40.614 9.83537 40.614H6V56.3166L19.1329 61.2049Z" fill="#FFDDCE"/>
<path d="M62.453 47.3798C61.4732 45.9398 59.8523 45.6896 58.0687 46.533L53.237 48.6603C53.471 49.0307 53.6572 49.3263 53.6572 49.3263C54.5527 50.6425 54.332 52.4187 53.1417 53.4757L42.6288 60.1372C41.2442 60.7711 39.7345 61.1036 38.2004 61.1036H23.7912C22.524 61.1036 21.2672 60.8772 20.0797 60.4352L6.09766 55.2308V58.7413L20.0797 63.9457C21.2672 64.3877 22.524 64.6141 23.7912 64.6141H35.5639H38.2008C40.2173 64.6141 42.1923 64.0411 43.8957 62.9617L61.9378 51.5292C63.1279 50.4722 63.3487 48.6958 62.453 47.3798Z" fill="#FFCBBE"/>
<path d="M39.2114 48.4812L39.2109 48.55L39.2563 48.53C39.2416 48.5135 39.2263 48.4976 39.2114 48.4812Z" fill="#F5DBCC"/>
<path d="M40.5034 54.2655H29.581C29.0476 54.2655 28.6152 53.8332 28.6152 53.2997C28.6152 52.7662 29.0475 52.334 29.581 52.334H40.5175L40.5034 54.2655Z" fill="#FFCBBE"/>
<path d="M9.107 61.5264C9.107 62.5409 8.28463 63.3633 7.27013 63.3633H2.83687C1.82237 63.3633 1 62.5409 1 61.5264V39.0344C1 38.0199 1.82237 37.1975 2.83687 37.1975H7.27013C8.28463 37.1975 9.107 38.0199 9.107 39.0344V61.5264Z" fill="#1FC9AA"/>
<path d="M37.5783 30.5424C37.136 30.386 36.729 30.2365 36.3535 30.0921V23.9346C37.4958 24.124 38.1815 24.7149 38.2318 24.7595C38.6241 25.1163 39.2311 25.09 39.5911 24.6996C39.9528 24.3075 39.9281 23.6968 39.536 23.335C39.4681 23.2721 38.2854 22.2066 36.3534 21.9841V20.611C36.3534 20.0776 35.9211 19.6453 35.3876 19.6453C34.8541 19.6453 34.4219 20.0775 34.4219 20.611V22.0624C34.189 22.107 33.9505 22.1638 33.7054 22.2375C32.0671 22.7309 30.8426 24.1356 30.5095 25.9033C30.2073 27.5073 30.7158 29.0499 31.8368 29.9291C32.4803 30.4339 33.2905 30.896 34.4219 31.39V39.0278C33.3043 38.9809 32.6179 38.7704 31.4183 37.9858C30.9719 37.6939 30.3735 37.8189 30.0815 38.2653C29.7895 38.7115 29.9146 39.31 30.361 39.602C31.9375 40.6334 32.9914 40.9024 34.4219 40.958V42.491C34.4219 43.0244 34.8541 43.4568 35.3876 43.4568C35.9211 43.4568 36.3534 43.0245 36.3534 42.491V40.8901C39.0644 40.4503 40.6464 38.2559 40.9904 36.2089C41.4206 33.6513 40.081 31.4271 37.5783 30.5424ZM33.0288 28.4093C32.4774 27.9769 32.2395 27.1536 32.4078 26.2609C32.5636 25.433 33.1329 24.4271 34.2626 24.0869C34.3164 24.0706 34.3693 24.0566 34.4221 24.0425V29.2591C33.8438 28.9705 33.3903 28.6928 33.0288 28.4093ZM39.0859 35.8884C38.8728 37.1558 37.9425 38.5088 36.3535 38.916V32.1543C36.5414 32.223 36.7334 32.2924 36.9344 32.3634C39.3378 33.2129 39.1888 35.2763 39.0859 35.8884Z" fill="white"/>
</g>
</g>
<defs>
<clipPath id="clip0_3243_13247">
<rect width="64" height="64" fill="white" transform="translate(0 0.614014)"/>
</clipPath>
<clipPath id="clip1_3243_13247">
<rect width="64" height="64" fill="white" transform="translate(0 0.614014)"/>
</clipPath>
</defs>
</svg>
