<svg width="64" height="65" viewBox="0 0 64 65" fill="none" xmlns="http://www.w3.org/2000/svg">
<g clip-path="url(#clip0_3243_13263)">
<g clip-path="url(#clip1_3243_13263)">
<path d="M27.7246 18.0549C27.3594 17.445 26.6805 17.0949 25.9716 17.1487L10.7349 18.3257C9.19226 18.445 7.81815 19.2535 6.96465 20.5442L0.57033 30.2156C-0.07679 31.1945 -0.179789 32.4194 0.294957 33.4924C0.769578 34.5654 1.7452 35.313 2.90456 35.4926L15.2595 37.4062C15.3556 37.4211 15.4516 37.4285 15.5468 37.4285C16.1797 37.4283 16.7785 37.1075 17.1263 36.5632L27.6959 20.028C28.0787 19.4288 28.0897 18.6649 27.7246 18.0549Z" fill="#5B97FF"/>
<path d="M46.559 36.8894C45.949 36.5242 45.1849 36.5353 44.5859 36.9182L28.0508 47.4877C27.4247 47.888 27.094 48.6202 27.2077 49.3546L29.1211 61.7095C29.3008 62.869 30.0485 63.8445 31.1216 64.3192C31.5679 64.5166 32.0404 64.6139 32.5106 64.6139C33.1707 64.6139 33.8266 64.4217 34.3982 64.0438L44.0698 57.6494C45.3605 56.7961 46.1691 55.4219 46.2881 53.8792L47.4651 38.6425C47.52 37.9337 47.169 37.2548 46.559 36.8894Z" fill="#2868D7"/>
<path d="M24.1082 52.1484C24.8544 52.8946 25.9148 53.2438 26.9556 53.0696C42.2195 50.5174 54.2981 37.8795 58.8964 28.9892C64.0025 19.1175 64.1916 8.68561 63.9247 3.79315C63.8332 2.11666 62.4969 0.780297 60.8204 0.688797C55.9279 0.42205 45.4961 0.611173 35.6243 5.71726C26.7341 10.3156 14.0962 22.3941 11.544 37.658C11.37 38.6989 11.719 39.7592 12.4653 40.5055L24.1082 52.1484Z" fill="#DDE8ED"/>
<path d="M62.9674 1.64673L18.2871 46.327L24.1086 52.1485C24.8548 52.8947 25.9152 53.2437 26.956 53.0697C42.2199 50.5175 54.2985 37.8796 58.8968 28.9894C64.0029 19.1177 64.192 8.6858 63.9251 3.79334C63.8794 2.95509 63.5224 2.20185 62.9674 1.64673Z" fill="#BFD5DE"/>
<path d="M43.8418 30.1434C41.4407 30.1436 39.0406 29.2298 37.2128 27.402C35.442 25.6313 34.4668 23.277 34.4668 20.7729C34.4668 18.2688 35.442 15.9144 37.2128 14.1438C40.8679 10.4886 46.8154 10.4885 50.4708 14.1438C52.2415 15.9144 53.2167 18.2688 53.2167 20.7729C53.2167 23.277 52.2415 25.6313 50.4708 27.402C48.6434 29.2294 46.2422 30.1432 43.8418 30.1434ZM38.5385 15.4697H38.5398H38.5385Z" fill="#1A558B"/>
<path d="M11.544 37.6578C11.37 38.6987 11.719 39.7591 12.4653 40.5053L24.1082 52.1482C24.8544 52.8945 25.9148 53.2435 26.9556 53.0695C30.277 52.5141 33.4472 51.4809 36.4227 50.113L14.5005 28.1909C13.1326 31.1663 12.0994 34.3366 11.544 37.6578Z" fill="#4D87ED"/>
<path d="M1.91205 53.3561C2.3918 53.3561 2.8718 53.1729 3.2378 52.8068L9.35942 46.6852C10.0917 45.9531 10.0917 44.7658 9.35942 44.0336C8.6273 43.3013 7.44017 43.3013 6.7078 44.0336L0.586297 50.1552C-0.145953 50.8873 -0.145953 52.0746 0.586297 52.8068C0.952422 53.1731 1.43217 53.3561 1.91205 53.3561Z" fill="#FDB43A"/>
<path d="M14.9701 49.6436C14.2379 48.9115 13.0507 48.9115 12.3184 49.6436L0.549187 61.4128C-0.183062 62.145 -0.183062 63.3322 0.549187 64.0645C0.915312 64.4306 1.39519 64.6136 1.87506 64.6136C2.35494 64.6136 2.83481 64.4305 3.20081 64.0643L14.9701 52.2951C15.7023 51.563 15.7023 50.3757 14.9701 49.6436Z" fill="#FDB43A"/>
<path d="M20.5801 55.2537C19.848 54.5216 18.6608 54.5216 17.9285 55.2537L11.807 61.3752C11.0748 62.1073 11.0748 63.2946 11.807 64.0268C12.1731 64.3929 12.653 64.5761 13.1328 64.5761C13.6125 64.5761 14.0925 64.3929 14.4585 64.0268L20.5801 57.9052C21.3124 57.1731 21.3124 55.9858 20.5801 55.2537Z" fill="#F57A21"/>
<path d="M0.548828 64.0646C0.914953 64.4307 1.39483 64.6137 1.8747 64.6137C2.35458 64.6137 2.83445 64.4306 3.20045 64.0644L14.9697 52.2952C15.702 51.5631 15.702 50.3758 14.9697 49.6436L0.548828 64.0646Z" fill="#F57A21"/>
<path d="M18.2871 46.3269L24.1086 52.1484C24.8548 52.8946 25.9152 53.2436 26.956 53.0696C30.2774 52.5142 33.4476 51.481 36.4231 50.1131L25.4621 39.1521L18.2871 46.3269Z" fill="#3374E5"/>
<path d="M37.2129 27.4023C39.0408 29.2302 41.4409 30.144 43.842 30.1438C46.2424 30.1435 48.6436 29.2297 50.471 27.4023C52.2418 25.6315 53.2169 23.2773 53.2169 20.7732C53.2169 18.269 52.2418 15.9147 50.471 14.144L37.2129 27.4023Z" fill="#002C54"/>
<path d="M43.8418 15.1509C42.4014 15.1509 40.9609 15.6991 39.8644 16.7958C38.802 17.8581 38.2168 19.2706 38.2168 20.7731C38.2168 22.2756 38.802 23.6881 39.8644 24.7505C42.0575 26.9436 45.6263 26.9438 47.8194 24.7505C48.8818 23.688 49.4669 22.2755 49.4669 20.773C49.4669 19.2705 48.8818 17.858 47.8194 16.7956C46.7228 15.6991 45.2824 15.1509 43.8418 15.1509Z" fill="#31ECCA"/>
<path d="M47.8182 16.7957L39.8633 24.7505C42.0564 26.9437 45.6252 26.9438 47.8182 24.7505C48.8805 23.688 49.4657 22.2755 49.4657 20.773C49.4657 19.2705 48.8807 17.858 47.8182 16.7957Z" fill="#1FC9AA"/>
</g>
</g>
<defs>
<clipPath id="clip0_3243_13263">
<rect width="64" height="64" fill="white" transform="translate(0 0.614014)"/>
</clipPath>
<clipPath id="clip1_3243_13263">
<rect width="64" height="64" fill="white" transform="translate(0 0.614014)"/>
</clipPath>
</defs>
</svg>
