<svg width="64" height="65" viewBox="0 0 64 65" fill="none" xmlns="http://www.w3.org/2000/svg">
<g clip-path="url(#clip0_3243_13275)">
<g clip-path="url(#clip1_3243_13275)">
<path d="M64 32.614C64 37.3474 62.9722 41.8406 61.1279 45.8831C57.9751 52.7937 52.4355 58.385 45.564 61.6062C44.3193 62.1887 43.0303 62.6941 41.7031 63.1145C40.2104 63.5916 38.6704 63.9583 37.0898 64.2102C37.0835 64.2117 37.0757 64.2131 37.0688 64.2131C36.2935 64.3372 35.5107 64.4324 34.7183 64.4993C34.5493 64.5134 34.3799 64.5266 34.21 64.5383C33.9707 64.554 33.7305 64.5681 33.4888 64.5789C32.9951 64.6023 32.499 64.614 32 64.614C31.4878 64.614 30.98 64.6023 30.4746 64.5774C30.2461 64.5671 30.0171 64.554 29.7886 64.5369C29.6177 64.5251 29.4478 64.5134 29.2778 64.4993C28.4668 64.4314 27.6636 64.3318 26.8711 64.2039C26.4922 64.1423 26.1147 64.0759 25.7412 64.0012C24.1201 63.6799 22.5449 63.2375 21.0234 62.6809C20.1416 62.3596 19.2783 62.0002 18.4346 61.6047C18.1475 61.47 17.8613 61.3303 17.5776 61.1853C16.8491 60.8171 16.1372 60.4211 15.4424 59.9993C11.9614 57.8914 8.91553 55.1379 6.46777 51.9055C4.99854 49.9646 3.74609 47.8513 2.74561 45.5994C0.980957 41.6316 0 37.2375 0 32.614C0 14.9407 14.3267 0.614014 32 0.614014C49.6733 0.614014 64 14.9407 64 32.614Z" fill="#3374E5"/>
<path d="M25.7417 42.1409V64.0012C24.1206 63.6799 22.5454 63.2375 21.0239 62.6809C20.1421 62.3596 19.2788 62.0002 18.4351 61.6047C18.1479 61.47 17.8618 61.3303 17.5781 61.1853C16.8496 60.8171 16.1377 60.4211 15.4429 59.9993C11.9619 57.8914 8.91602 55.1379 6.46826 51.9055C4.99902 49.9646 3.74658 47.8513 2.74609 45.5994V42.1409C2.74609 38.1287 5.4707 34.7522 9.1709 33.7634C9.30664 33.7268 9.44238 33.6926 9.58105 33.6643C9.94775 33.5833 10.3252 33.5281 10.7095 33.4968C10.9434 33.4788 11.1797 33.468 11.4185 33.468H17.0674C17.6982 33.468 18.3135 33.5349 18.9067 33.6643C18.9404 33.6707 18.9746 33.6785 19.0083 33.6863C19.1079 33.7087 19.2085 33.7332 19.3062 33.7595C19.3091 33.761 19.3115 33.761 19.314 33.762C20.291 34.0232 21.1987 34.4504 22.0073 35.012C24.2642 36.5779 25.7417 39.1863 25.7417 42.1409Z" fill="#BFD5DE"/>
<path d="M25.7402 42.1409V64.0012C24.1191 63.6799 22.5439 63.2375 21.0225 62.6809C20.1406 62.3596 19.2773 62.0002 18.4336 61.6047C18.1465 61.47 17.8604 61.3303 17.5767 61.1853C16.8481 60.8171 16.1362 60.4211 15.4414 59.9993C11.9604 57.8914 8.91455 55.1379 6.4668 51.9055V42.1409C6.4668 38.1287 9.19141 34.7522 12.8916 33.7634C13.0278 33.7268 13.1636 33.6926 13.3018 33.6643C13.6689 33.5833 14.0464 33.5281 14.4302 33.4968C14.6641 33.4788 14.9004 33.468 15.1396 33.468H17.0659C17.6968 33.468 18.312 33.5349 18.9053 33.6643C18.939 33.6707 18.9731 33.6785 19.0068 33.6863C19.1064 33.7087 19.207 33.7332 19.3047 33.7595C19.3076 33.761 19.3101 33.761 19.3125 33.762C20.2896 34.0232 21.1973 34.4504 22.0059 35.012C24.2627 36.5779 25.7402 39.1863 25.7402 42.1409Z" fill="#DDE8ED"/>
<path d="M19.335 33.6638L19.3145 33.762L16.7197 45.8298C16.4707 46.9895 15.4502 47.8303 14.2646 47.8313C14.2573 47.8313 14.2505 47.8313 14.2437 47.8313C14.2358 47.8313 14.2285 47.8313 14.2207 47.8313C13.0347 47.8303 12.0146 46.9895 11.7656 45.8298L9.1709 33.7629L9.15039 33.6638H19.335Z" fill="#BFD5DE"/>
<path d="M14.2427 37.0188L10.3379 39.1887L9.15039 33.6638L11.5767 32.2351" fill="#AEC3CC"/>
<path d="M14.2422 37.0188L18.147 39.1887L19.3345 33.6638L16.9082 32.2351" fill="#D8D5D0"/>
<path d="M2.58398 31.3777V18.2976C2.58398 16.9685 2.80566 15.6663 3.24316 14.427C4.88037 9.7688 9.30078 6.63794 14.2427 6.63794C14.855 6.63794 15.4658 6.6853 16.0596 6.77905C18.7744 7.20337 21.2656 8.58911 23.0718 10.6814C24.897 12.7961 25.9023 15.5007 25.9023 18.2976V31.3777" fill="#002C54"/>
<path d="M7.38037 18.8083C7.38037 23.4348 10.0898 28.7874 11.5776 31.3777H2.58398V18.2976C2.58398 16.969 2.80615 15.6667 3.24316 14.427C4.87061 9.79565 9.25049 6.67407 14.1582 6.63892C10.5737 6.72827 7.38037 12.4792 7.38037 18.8083Z" fill="#011B33"/>
<path d="M17.3369 30.1272V33.925C17.3369 35.3152 16.4204 36.4905 15.1577 36.8806C14.8687 36.9705 14.5605 37.0188 14.2422 37.0188C12.5332 37.0188 11.1484 35.634 11.1484 33.925V30.1272H17.3369Z" fill="#EAB599"/>
<path d="M17.3369 33.6843V33.925C17.3369 35.3152 16.4204 36.4905 15.1577 36.8806C14.0186 36.5305 13.1621 35.5398 13.0039 34.3279C13.2104 34.3406 13.4185 34.3469 13.627 34.3469C14.2124 34.3469 14.7866 34.3005 15.3452 34.2087C16.0342 34.0979 16.7002 33.9207 17.3369 33.6843Z" fill="#F6CAAE"/>
<path d="M5.75537 23.9036C5.75537 25.3362 4.70898 26.5242 3.33838 26.7444C3.18896 26.7688 3.03467 26.7815 2.87744 26.7815C1.28809 26.7815 0 25.4934 0 23.9036C0 22.3142 1.28809 21.0261 2.87744 21.0261C3.03467 21.0261 3.18896 21.0388 3.33838 21.0632C4.70898 21.2834 5.75537 22.4709 5.75537 23.9036Z" fill="#F6CAAE"/>
<path d="M5.75586 23.9036C5.75586 25.3362 4.70947 26.5242 3.33887 26.7444C3.09033 25.8396 2.95703 24.887 2.95703 23.9036C2.95703 22.9207 3.09033 21.968 3.33887 21.0632C4.70947 21.2834 5.75586 22.4709 5.75586 23.9036Z" fill="#EAB599"/>
<path d="M3.90479 23.9036C3.90479 24.4719 3.44434 24.9324 2.87598 24.9324C2.30811 24.9324 1.84766 24.4719 1.84766 23.9036C1.84766 23.3357 2.30811 22.8752 2.87598 22.8752C3.44434 22.8752 3.90479 23.3357 3.90479 23.9036Z" fill="#EAB599"/>
<path d="M21.6323 20.2292V30.1208C20.1035 31.5803 18.1431 32.5911 15.9619 32.9426C15.9448 32.9456 15.9263 32.9485 15.9092 32.9514C15.3672 33.0378 14.811 33.0808 14.2432 33.0808C8.33057 33.0808 3.53711 28.2874 3.53711 22.3748V18.2976C3.53711 17.7756 3.57422 17.262 3.64648 16.76C6.19385 18.592 9.84619 18.4109 12.1733 16.2117C12.9438 15.4836 13.4795 14.6169 13.7822 13.6975C13.9507 15.3074 14.687 16.8743 15.9922 18.1082C17.5459 19.575 19.5986 20.2825 21.6323 20.2292Z" fill="#EAB599"/>
<path d="M21.6323 20.2292V30.1208C20.1035 31.5803 18.1431 32.5911 15.9619 32.9426C15.9448 32.9456 15.9263 32.9485 15.9092 32.9514C10.7881 32.1511 6.87109 27.7195 6.87109 22.3748V18.2976C6.87109 18.1892 6.87305 18.0813 6.87695 17.9739C8.76465 18.1672 10.7256 17.5803 12.1733 16.2112C12.9438 15.4836 13.4795 14.6165 13.7822 13.6975C13.9507 15.3074 14.687 16.8743 15.9922 18.1082C17.5459 19.575 19.5986 20.2825 21.6323 20.2292Z" fill="#F6CAAE"/>
<path d="M19.9941 21.4705C19.9941 20.488 19.1978 19.6921 18.2158 19.6921C17.2339 19.6921 16.4375 20.488 16.4375 21.4705" fill="#EAB599"/>
<path d="M12.0503 21.4705C12.0503 20.488 11.2539 19.6921 10.272 19.6921C9.29004 19.6921 8.49414 20.488 8.49414 21.4705" fill="#EAB599"/>
<path d="M11.4878 22.2273C11.4878 22.8982 10.9438 23.4421 10.2729 23.4421C9.60205 23.4421 9.05859 22.8982 9.05859 22.2273C9.05859 21.5564 9.60205 21.0129 10.2729 21.0129C10.9438 21.0129 11.4878 21.5564 11.4878 22.2273Z" fill="#3D4159"/>
<path d="M19.4287 22.2273C19.4287 22.8982 18.8853 23.4421 18.2144 23.4421C17.5435 23.4421 17 22.8982 17 22.2273C17 21.5564 17.5435 21.0129 18.2144 21.0129C18.8853 21.0129 19.4287 21.5564 19.4287 22.2273Z" fill="#3D4159"/>
<path d="M15.459 25.2854H13.0298C12.7402 25.2854 12.5059 25.0505 12.5059 24.7615C12.5059 24.4724 12.7402 24.2375 13.0298 24.2375H15.459C15.748 24.2375 15.9824 24.4724 15.9824 24.7615C15.9824 25.0505 15.748 25.2854 15.459 25.2854Z" fill="#EAB599"/>
<path d="M14.2439 28.6003C13.3474 28.6003 12.451 28.3757 11.6336 27.926C11.4031 27.7996 11.3191 27.51 11.4456 27.2795C11.5725 27.0491 11.8621 26.9651 12.0926 27.0916C13.4397 27.8323 15.0481 27.8323 16.3953 27.0916C16.6258 26.9646 16.9153 27.0491 17.0423 27.2795C17.1687 27.51 17.0847 27.7996 16.8543 27.926C16.0369 28.3757 15.1404 28.6003 14.2439 28.6003Z" fill="#EAB599"/>
<path d="M11.2402 22.0129C11.2402 22.3005 11.0068 22.5334 10.7197 22.5334C10.4321 22.5334 10.1992 22.3005 10.1992 22.0129C10.1992 21.7253 10.4321 21.4924 10.7197 21.4924C11.0068 21.4924 11.2402 21.7253 11.2402 22.0129Z" fill="white"/>
<path d="M19.2417 22.0129C19.2417 22.3005 19.0088 22.5334 18.7217 22.5334C18.4341 22.5334 18.2012 22.3005 18.2012 22.0129C18.2012 21.7253 18.4341 21.4924 18.7217 21.4924C19.0088 21.4924 19.2417 21.7253 19.2417 22.0129Z" fill="white"/>
<path d="M21.5308 25.1858C21.5308 25.9221 20.9336 26.5193 20.1968 26.5193C19.4604 26.5193 18.8633 25.9221 18.8633 25.1858C18.8633 24.449 19.4604 23.8518 20.1968 23.8518C20.9336 23.8518 21.5308 24.449 21.5308 25.1858Z" fill="#EAB599"/>
<path d="M9.62402 25.1858C9.62402 25.9221 9.02734 26.5193 8.29053 26.5193C7.5542 26.5193 6.95703 25.9221 6.95703 25.1858C6.95703 24.449 7.5542 23.8518 8.29053 23.8518C9.02734 23.8518 9.62402 24.449 9.62402 25.1858Z" fill="#EAB599"/>
<path d="M61.1274 41.8772V45.8831C57.9746 52.7937 52.4351 58.385 45.5635 61.6062C44.3188 62.1887 43.0298 62.6941 41.7026 63.1145C40.21 63.5916 38.6699 63.9583 37.0894 64.2102C37.083 64.2117 37.0752 64.2131 37.0684 64.2131V41.8772C37.0684 37.1165 40.7349 33.2107 45.4004 32.8347C45.646 32.8137 45.8926 32.8049 46.1421 32.8049H52.0513C52.75 32.8049 53.4302 32.8816 54.0835 33.032C58.1167 33.9539 61.1274 37.5657 61.1274 41.8772Z" fill="#BFD5DE"/>
<path d="M61.1279 41.8772V45.8831C57.9751 52.7937 52.4355 58.385 45.564 61.6062C44.3193 62.1887 43.0303 62.6941 41.7031 63.1145V41.8772C41.7031 36.8669 45.7666 32.8049 50.7783 32.8049H52.0527C57.0659 32.8049 61.1279 36.8669 61.1279 41.8772Z" fill="#DDE8ED"/>
<path d="M40.2168 22.7971C40.2168 24.2961 39.1221 25.5388 37.6885 25.7693C37.5317 25.7947 37.3706 25.8079 37.2061 25.8079C35.543 25.8079 34.1953 24.4602 34.1953 22.7971C34.1953 21.134 35.543 19.7864 37.2061 19.7864C37.3706 19.7864 37.5317 19.7996 37.6885 19.825C39.1221 20.0559 40.2168 21.2986 40.2168 22.7971Z" fill="#D3A489"/>
<path d="M51.5342 36.0779L49.0981 39.9851L46.6621 36.0779" fill="#3374E5"/>
<path d="M52.3755 51.0222L49.0981 55.158L45.8203 51.0222L49.0986 38.9685L52.3755 51.0222Z" fill="#3374E5"/>
<path d="M40.2168 22.7971C40.2168 24.2961 39.1221 25.5388 37.6885 25.7693C37.4282 24.8225 37.2891 23.8259 37.2891 22.7971C37.2891 21.7688 37.4282 20.7722 37.6885 19.825C39.1221 20.0559 40.2168 21.2986 40.2168 22.7971Z" fill="#BF8E75"/>
<path d="M38.2827 22.7971C38.2827 23.3914 37.8008 23.8733 37.2065 23.8733C36.6123 23.8733 36.1309 23.3914 36.1309 22.7971C36.1309 22.2029 36.6123 21.7214 37.2065 21.7214C37.8008 21.7214 38.2827 22.2029 38.2827 22.7971Z" fill="#BF8E75"/>
<path d="M49.0972 36.5188L45.0122 38.7893L43.7695 33.0085L46.3076 31.5134" fill="#BFD5DE"/>
<path d="M49.0977 36.5188L53.1831 38.7893L54.4258 33.0085L51.8872 31.5134" fill="#BFD5DE"/>
<path d="M57.9785 22.7971C57.9785 24.2961 59.0732 25.5388 60.5068 25.7693C60.6636 25.7947 60.8247 25.8079 60.9893 25.8079C62.6523 25.8079 64 24.4602 64 22.7971C64 21.134 62.6523 19.7864 60.9893 19.7864C60.8247 19.7864 60.6636 19.7996 60.5068 19.825C59.0732 20.0559 57.9785 21.2986 57.9785 22.7971Z" fill="#D3A489"/>
<path d="M57.9785 22.7971C57.9785 24.2961 59.0732 25.5388 60.5068 25.7693C60.7676 24.8225 60.9062 23.8259 60.9062 22.7971C60.9062 21.7688 60.7676 20.7722 60.5068 19.825C59.0732 20.0559 57.9785 21.2986 57.9785 22.7971Z" fill="#BF8E75"/>
<path d="M62.0664 22.7971C62.0664 23.3914 61.5845 23.8733 60.9902 23.8733C60.396 23.8733 59.9141 23.3914 59.9141 22.7971C59.9141 22.2029 60.396 21.7214 60.9902 21.7214C61.5845 21.7214 62.0664 22.2029 62.0664 22.7971Z" fill="#BF8E75"/>
<path d="M60.3003 21.197C60.3003 26.7712 56.228 31.3957 50.896 32.2541C50.3115 32.3503 49.7109 32.3987 49.0981 32.3987C42.9111 32.3987 37.8965 27.384 37.8965 21.197C37.8965 18.2698 38.9131 13.8752 40.7515 11.8796C42.7983 9.65747 45.8384 9.99487 49.0981 9.99487C49.7109 9.99487 50.311 10.0437 50.896 10.1399C56.228 10.9983 60.3003 15.6223 60.3003 21.197Z" fill="#BF8E75"/>
<path d="M52.3345 29.3088V33.282C52.3345 34.7366 51.3755 35.9661 50.0542 36.3743C49.752 36.468 49.4297 36.5188 49.0962 36.5188C47.3086 36.5188 45.8594 35.0696 45.8594 33.282V29.3088H52.3345Z" fill="#BF8E75"/>
<path d="M52.3345 33.03V33.282C52.3345 34.7366 51.3755 35.9661 50.0542 36.3743C48.8623 36.0081 47.9663 34.9714 47.8008 33.7034C48.0171 33.7166 48.2344 33.7234 48.4531 33.7234C49.0654 33.7234 49.666 33.6746 50.251 33.5789C50.9717 33.4626 51.668 33.2776 52.3345 33.03Z" fill="#D3A489"/>
<path d="M60.3003 21.197C60.3003 26.7712 56.228 31.3958 50.896 32.2542C45.5645 31.3958 41.4922 26.7712 41.4922 21.197C41.4922 17.7644 43.0361 14.6921 45.4683 12.637C46.9849 11.3547 48.8477 10.4695 50.896 10.1394C55.8667 10.9397 59.7441 15.0144 60.2451 20.0798C60.2817 20.4475 60.3003 20.8206 60.3003 21.197Z" fill="#D3A489"/>
<path d="M49.099 26.7143C48.1605 26.7143 47.223 26.4794 46.3681 26.0092C46.1264 25.8769 46.0385 25.5736 46.1713 25.3324C46.3036 25.0912 46.6068 25.0033 46.848 25.1361C48.2572 25.9105 49.9403 25.9105 51.35 25.1361C51.5907 25.0033 51.8939 25.0912 52.0263 25.3324C52.1591 25.5736 52.0712 25.8769 51.83 26.0092C50.975 26.4794 50.0365 26.7143 49.099 26.7143Z" fill="#BF8E75"/>
<path d="M46.7134 20.5452C46.7134 21.2468 46.1445 21.8157 45.4424 21.8157C44.7407 21.8157 44.1719 21.2468 44.1719 20.5452C44.1719 19.843 44.7407 19.2742 45.4424 19.2742C46.1445 19.2742 46.7134 19.843 46.7134 20.5452Z" fill="#3D4159"/>
<path d="M54.0259 20.5452C54.0259 21.2468 53.457 21.8157 52.7554 21.8157C52.0532 21.8157 51.4844 21.2468 51.4844 20.5452C51.4844 19.843 52.0532 19.2742 52.7554 19.2742C53.457 19.2742 54.0259 19.843 54.0259 20.5452Z" fill="#3D4159"/>
<path d="M46.4521 20.3206C46.4521 20.6213 46.2085 20.8655 45.9077 20.8655C45.6069 20.8655 45.3633 20.6213 45.3633 20.3206C45.3633 20.0203 45.6069 19.7761 45.9077 19.7761C46.2085 19.7761 46.4521 20.0203 46.4521 20.3206Z" fill="white"/>
<path d="M53.8271 20.3206C53.8271 20.6213 53.5835 20.8655 53.2827 20.8655C52.9819 20.8655 52.7383 20.6213 52.7383 20.3206C52.7383 20.0203 52.9819 19.7761 53.2827 19.7761C53.5835 19.7761 53.8271 20.0203 53.8271 20.3206Z" fill="white"/>
<path d="M50.3672 23.7444H47.8257C47.5229 23.7444 47.2773 23.4988 47.2773 23.196C47.2773 22.8933 47.5229 22.6482 47.8257 22.6482H50.3672C50.6699 22.6482 50.9155 22.8933 50.9155 23.196C50.915 23.4988 50.6699 23.7444 50.3672 23.7444Z" fill="#BF8E75"/>
<path d="M52.7852 41.5798H57.6685V43.0745H52.7852V41.5798Z" fill="#BFD5DE"/>
<path d="M48.4414 6.79522C51.835 7.0374 54.5596 9.77861 54.7319 13.2293L54.7642 13.8772H56.7163L57.7676 20.8685L60.314 20.0804L59.9722 13.2298C59.7915 9.60479 56.7935 6.76397 53.1655 6.77764L48.4414 6.79522Z" fill="#011B33"/>
<path d="M59.7583 4.09106C62.4604 6.79321 62.4604 11.1746 59.7583 13.8767C57.0562 16.5789 52.6748 16.5789 49.9727 13.8767L59.7583 4.09106Z" fill="#002C54"/>
<path d="M49.9712 13.8768H41.479L40.4272 20.8685L37.8809 20.0804L38.2222 13.2293C38.4028 9.60527 41.4009 6.76348 45.0293 6.77715L57.2944 6.82354L58.916 9.74199" fill="#002C54"/>
<path d="M49.7534 6.79522C46.3599 7.0374 43.6353 9.77861 43.4629 13.2293L43.4307 13.8772H41.479L40.4272 20.8685L37.8809 20.0804L38.2227 13.2298C38.4033 9.60479 41.4014 6.76397 45.0293 6.77764L49.7534 6.79522Z" fill="#011B33"/>
<path d="M45.563 59.2068V61.6062C41.4448 63.5354 36.8486 64.614 31.999 64.614C27.1494 64.614 22.5518 63.5354 18.4336 61.6047V59.2068C18.4336 54.4719 21.6479 50.4895 26.0142 49.322C26.1738 49.2791 26.3345 49.2395 26.4976 49.2043C26.9312 49.1101 27.3765 49.0452 27.8286 49.0085C28.1055 48.9861 28.3838 48.9744 28.666 48.9744H35.3296C36.0752 48.9744 36.8003 49.053 37.5005 49.2043C37.541 49.2122 37.5815 49.2214 37.6206 49.2307C37.7383 49.2581 37.8555 49.2869 37.9717 49.3181C37.9761 49.3191 37.9771 49.3191 37.981 49.3206C39.1333 49.6287 40.2056 50.1331 41.1577 50.7952C43.8208 52.6423 45.563 55.7205 45.563 59.2068Z" fill="#1FC9AA"/>
<path d="M38.0063 49.2043L37.9814 49.3206L34.7178 64.4993C34.5488 64.5134 34.3794 64.5266 34.2095 64.5383C33.9702 64.554 33.73 64.5681 33.4883 64.5789C32.9946 64.6023 32.4985 64.614 31.9995 64.614C31.4873 64.614 30.9795 64.6023 30.4741 64.5774C30.2456 64.5671 30.0166 64.554 29.7881 64.5369C29.6172 64.5251 29.4473 64.5134 29.2773 64.4993L26.0146 49.322L25.9902 49.2043H38.0063Z" fill="#B5EEE4"/>
<path d="M34.7456 52.6667L31.9985 57.072L29.252 52.6667" fill="#002C54"/>
<path d="M34.2104 64.5383C33.9712 64.554 33.731 64.5681 33.4893 64.5789C32.9956 64.6023 32.4995 64.614 32.0005 64.614C31.4883 64.614 30.9805 64.6023 30.4751 64.5774C30.2466 64.5671 30.0176 64.554 29.7891 64.5369L32.0005 55.9255L34.2104 64.5383Z" fill="#002C54"/>
<path d="M31.9985 53.1633L27.3916 55.7234L25.9902 49.2053L28.8525 47.5193" fill="#B5EEE4"/>
<path d="M31.998 53.1633L36.6045 55.7234L38.0059 49.2053L35.1436 47.5193" fill="#B5EEE4"/>
<path d="M38.1802 58.0012H39.6416L37.0894 64.2102C35.9087 64.3997 34.707 64.5237 33.4883 64.5789L37.9722 49.3181L38.0063 49.2043L41.1582 50.2336L38.1802 58.0012Z" fill="#16927B"/>
<path d="M30.4736 64.5774C29.2534 64.5212 28.0508 64.3948 26.8701 64.2039L24.3203 58.0012H25.7817L22.8027 50.2336L25.9556 49.2043L25.9897 49.3181L30.4736 64.5774Z" fill="#16927B"/>
<path d="M35.6494 45.033V49.5129C35.6494 51.1536 34.5679 52.5398 33.0781 53.0002C32.7368 53.1062 32.3735 53.1633 31.9976 53.1633C29.9814 53.1633 28.3477 51.5291 28.3477 49.5129V45.033H35.6494Z" fill="#EAB599"/>
<path d="M35.6499 49.2292V49.5134C35.6499 51.1536 34.5684 52.5398 33.0786 53.0007C31.7344 52.5872 30.7236 51.4187 30.5371 49.9885C30.7812 50.0037 31.0264 50.011 31.2725 50.011C31.9634 50.011 32.6406 49.9563 33.2998 49.8484C34.1128 49.7175 34.8979 49.5081 35.6499 49.2292Z" fill="#F6CAAE"/>
<path d="M21.9839 37.6902C21.9839 39.3801 20.749 40.7815 19.1323 41.0417C18.9556 41.0701 18.7739 41.0852 18.5889 41.0852C16.7134 41.0852 15.1934 39.5657 15.1934 37.6902C15.1934 35.8147 16.7129 34.2947 18.5889 34.2947C18.7739 34.2947 18.9556 34.3098 19.1323 34.3386C20.749 34.5989 21.9839 36.0002 21.9839 37.6902Z" fill="#F6CAAE"/>
<path d="M21.9854 37.6902C21.9854 39.3801 20.7505 40.7815 19.1338 41.0417C18.8403 39.9739 18.6836 38.8499 18.6836 37.6902C18.6836 36.53 18.8403 35.4065 19.1338 34.3386C20.7505 34.5989 21.9854 36.0002 21.9854 37.6902Z" fill="#EAB599"/>
<path d="M19.8018 37.6902C19.8018 38.3601 19.2583 38.9036 18.5884 38.9036C17.918 38.9036 17.375 38.3601 17.375 37.6902C17.375 37.0198 17.918 36.4768 18.5884 36.4768C19.2583 36.4768 19.8018 37.0198 19.8018 37.6902Z" fill="#EAB599"/>
<path d="M42.0137 37.6902C42.0137 39.3801 43.2485 40.7815 44.8652 41.0417C45.0415 41.0701 45.2236 41.0852 45.4087 41.0852C47.2842 41.0852 48.8042 39.5657 48.8042 37.6902C48.8042 35.8147 47.2847 34.2947 45.4087 34.2947C45.2236 34.2947 45.0415 34.3098 44.8652 34.3386C43.2485 34.5989 42.0137 36.0002 42.0137 37.6902Z" fill="#F6CAAE"/>
<path d="M42.0137 37.6902C42.0137 39.3801 43.2485 40.7815 44.8652 41.0417C45.1587 39.9739 45.3154 38.8499 45.3154 37.6902C45.3154 36.53 45.1587 35.4065 44.8652 34.3386C43.2485 34.5989 42.0137 36.0002 42.0137 37.6902Z" fill="#EAB599"/>
<path d="M44.6304 31.0759V35.886C44.6304 42.1721 40.0381 47.3865 34.0254 48.3542C34.0054 48.3577 33.9839 48.3611 33.9639 48.3645C33.3242 48.467 32.668 48.5173 31.998 48.5173C25.022 48.5173 19.3672 42.8621 19.3672 35.8865V31.0759C19.3672 29.6072 19.6177 28.1956 20.0806 26.884C21.8081 21.968 26.4922 18.4436 31.998 18.4436H31.999C32.668 18.4436 33.3252 18.4954 33.9658 18.5964C40.0078 19.5403 44.6304 24.7688 44.6304 31.0759Z" fill="#EAB599"/>
<path d="M46.6221 37.6902C46.6221 38.3601 46.0791 38.9036 45.4087 38.9036C44.7388 38.9036 44.1953 38.3601 44.1953 37.6902C44.1953 37.0198 44.7388 36.4768 45.4087 36.4768C46.0791 36.4768 46.6221 37.0198 46.6221 37.6902Z" fill="#EAB599"/>
<path d="M44.6304 31.0759V35.886C44.6304 42.1716 40.0386 47.3865 34.0259 48.3543C34.0054 48.3577 33.9844 48.3611 33.9639 48.3645C27.9224 47.4202 23.3008 42.1921 23.3008 35.886V31.0759C23.3008 24.7688 27.9233 19.5403 33.9663 18.5964C40.0083 19.5403 44.6304 24.7688 44.6304 31.0759Z" fill="#F6CAAE"/>
<path d="M29.3071 35.1501C29.3071 35.9417 28.6655 36.5833 27.8745 36.5833C27.083 36.5833 26.4414 35.9417 26.4414 35.1501C26.4414 34.3591 27.083 33.7175 27.8745 33.7175C28.6655 33.7175 29.3071 34.3591 29.3071 35.1501Z" fill="#3D4159"/>
<path d="M37.5557 35.1501C37.5557 35.9417 36.9141 36.5833 36.1226 36.5833C35.3311 36.5833 34.6895 35.9417 34.6895 35.1501C34.6895 34.3591 35.3311 33.7175 36.1226 33.7175C36.9141 33.7175 37.5557 34.3591 37.5557 35.1501Z" fill="#3D4159"/>
<path d="M29.0171 34.8977C29.0171 35.2366 28.7422 35.5115 28.4028 35.5115C28.064 35.5115 27.7891 35.2366 27.7891 34.8977C27.7891 34.5583 28.064 34.2834 28.4028 34.2834C28.7422 34.2834 29.0171 34.5583 29.0171 34.8977Z" fill="white"/>
<path d="M37.3335 34.8977C37.3335 35.2366 37.0586 35.5115 36.7197 35.5115C36.3804 35.5115 36.1055 35.2366 36.1055 34.8977C36.1055 34.5583 36.3804 34.2834 36.7197 34.2834C37.0586 34.2834 37.3335 34.5583 37.3335 34.8977Z" fill="white"/>
<path d="M33.4316 38.1965H30.5654C30.2241 38.1965 29.9473 37.9197 29.9473 37.5784C29.9473 37.2366 30.2241 36.9602 30.5654 36.9602H33.4316C33.7729 36.9602 34.0498 37.2366 34.0498 37.5784C34.0493 37.9197 33.7725 38.1965 33.4316 38.1965Z" fill="#EAB599"/>
<path d="M32 42.1072C30.9424 42.1072 29.8842 41.842 28.9204 41.3118C28.6484 41.1623 28.5488 40.8205 28.6987 40.5491C28.8481 40.2771 29.1899 40.178 29.4619 40.3269C31.0512 41.2009 32.9487 41.2009 34.5381 40.3269C34.81 40.1775 35.1518 40.2766 35.3012 40.5491C35.4511 40.8205 35.3515 41.1623 35.0796 41.3118C34.1152 41.842 33.0576 42.1072 32 42.1072Z" fill="#EAB599"/>
<path d="M44.6309 26.7107V31.6379H42.2798V27.7791L25.3091 24.6257L21.7183 23.9583V31.6379H19.3672V26.7102C19.3672 21.093 23.9199 16.5403 29.5361 16.5403H34.4619C34.5957 16.5403 34.7295 16.5427 34.8633 16.5496C40.2925 16.7585 44.6309 21.2273 44.6309 26.7107Z" fill="#011B33"/>
<path d="M44.6304 26.7107V31.6379H42.2793V27.7791L25.3086 24.6257C26.2437 20.1345 30.1401 16.7317 34.8628 16.5496C40.292 16.7585 44.6304 21.2273 44.6304 26.7107Z" fill="#002C54"/>
</g>
</g>
<defs>
<clipPath id="clip0_3243_13275">
<rect width="64" height="64" fill="white" transform="translate(0 0.614014)"/>
</clipPath>
<clipPath id="clip1_3243_13275">
<rect width="64" height="64" fill="white" transform="translate(0 0.614014)"/>
</clipPath>
</defs>
</svg>
