<svg width="580" height="580" viewBox="0 0 580 580" fill="none" xmlns="http://www.w3.org/2000/svg">
<circle cx="290" cy="290" r="290" fill="#FBFBFB"/>
<g clip-path="url(#clip0_3832_19024)">
<path d="M494.988 375.144C451.82 478.288 336.831 536.069 237.116 520.483C220.89 517.946 176.405 510.391 137.019 474.749C61.1919 406.137 44.9776 270.28 106.14 174.529C150.655 104.844 230.451 65.3412 306.276 67.3168C322.609 67.743 385.2 70.3655 440.208 116.393C448.287 123.153 466.113 139.218 482.168 164.698C519.881 224.548 523.122 307.926 494.988 375.144Z" fill="url(#paint0_linear_3832_19024)"/>
<path d="M57.562 355.899C64.9338 324.436 89.0347 299.739 119.717 292.184C140.811 286.991 161.05 289.779 178.157 298.201C183.839 300.992 190.572 297.833 192.145 291.584C207.266 231.479 260.485 187.076 323.824 187.076C398.926 187.076 459.809 249.509 459.809 326.522C459.809 328.566 459.769 331.359 459.734 334.043C459.999 339.803 462.451 342.248 466.113 342.862C495.536 346.002 518.661 370.878 519.945 401.559C521.419 436.786 493.457 465.972 459.072 465.972H141.012C86.563 465.959 43.9331 414.081 57.562 355.899Z" fill="#176CFF"/>
<path opacity="0.21" d="M82.196 367.689C88.7774 339.597 110.296 317.546 137.693 310.802C156.528 306.164 174.597 308.653 189.87 316.166C194.936 318.658 200.956 315.831 202.36 310.257C215.862 256.593 263.38 216.946 319.931 216.946C386.988 216.946 441.35 272.69 441.35 341.453C441.35 343.278 441.313 345.772 441.281 348.163C441.519 353.306 443.71 355.489 446.977 356.038C473.25 358.842 493.897 381.052 495.043 408.445C496.359 439.9 471.394 465.959 440.691 465.959H156.705C108.09 465.959 70.0261 419.639 82.196 367.689Z" fill="#9FBCEE"/>
<path d="M119.125 503.648C119.132 504.89 119.628 506.078 120.507 506.955C121.386 507.832 122.575 508.325 123.817 508.328H377.51C378.752 508.325 379.941 507.832 380.82 506.955C381.699 506.078 382.195 504.89 382.201 503.648L384.312 357.841C384.312 355.264 381.276 350.23 375.71 350.609L127.772 344.192C126.171 344.15 124.578 344.434 123.09 345.026C121.602 345.619 120.249 346.507 119.115 347.638C117.98 348.769 117.087 350.118 116.49 351.605C115.893 353.091 115.604 354.684 115.641 356.285L119.125 503.648Z" fill="#2C374A"/>
<path d="M123.756 499.15C123.76 500.327 124.229 501.454 125.06 502.286C125.892 503.117 127.019 503.586 128.195 503.59H371.397C372.573 503.586 373.7 503.117 374.532 502.286C375.363 501.454 375.832 500.327 375.836 499.15L377.828 366.787C377.594 358.821 370.611 355.957 366.378 356.126L128.747 349.751C127.621 349.722 126.501 349.921 125.455 350.338C124.409 350.755 123.459 351.379 122.662 352.175C121.865 352.97 121.237 353.919 120.818 354.964C120.399 356.009 120.197 357.128 120.223 358.254L123.756 499.15Z" fill="#7D97F4"/>
<path d="M373.202 436.268C373.115 436.267 373.03 436.249 372.951 436.215C372.871 436.181 372.8 436.131 372.74 436.069C372.68 436.006 372.633 435.933 372.602 435.852C372.571 435.772 372.556 435.686 372.558 435.599L372.716 424.865C372.718 424.694 372.787 424.531 372.909 424.411C373.031 424.291 373.195 424.224 373.366 424.224C373.452 424.224 373.538 424.243 373.617 424.277C373.696 424.311 373.768 424.361 373.828 424.423C373.888 424.485 373.935 424.559 373.967 424.639C373.998 424.72 374.013 424.806 374.011 424.892L373.854 435.628C373.851 435.799 373.781 435.962 373.659 436.082C373.537 436.201 373.373 436.268 373.202 436.268Z" fill="white"/>
<path d="M373.588 409.963H373.578C373.492 409.962 373.408 409.944 373.33 409.91C373.251 409.876 373.18 409.827 373.121 409.766C373.061 409.705 373.014 409.632 372.983 409.553C372.952 409.473 372.936 409.388 372.938 409.303L373.541 368.186C373.529 365.744 372.789 363.793 371.337 362.404C368.629 359.808 364.331 359.942 364.15 359.95L288.201 357.913C288.028 357.908 287.865 357.835 287.746 357.71C287.627 357.584 287.563 357.417 287.568 357.244C287.566 357.158 287.583 357.072 287.617 356.992C287.65 356.912 287.7 356.84 287.763 356.781C287.826 356.721 287.9 356.675 287.982 356.646C288.063 356.617 288.15 356.605 288.236 356.611L364.14 358.648C364.613 358.62 369.191 358.541 372.239 361.463C373.954 363.106 374.83 365.369 374.843 368.191L374.238 409.323C374.235 409.493 374.166 409.656 374.044 409.776C373.922 409.896 373.759 409.963 373.588 409.963Z" fill="white"/>
<path d="M99.4883 520.439H396.693C397.214 520.439 397.637 520.017 397.637 519.495V508.572C397.637 508.051 397.214 507.628 396.693 507.628L99.4883 507.628C98.9669 507.628 98.5441 508.051 98.5441 508.572V519.495C98.5441 520.017 98.9669 520.439 99.4883 520.439Z" fill="#2C374A"/>
<path d="M229.267 497.133H135.631C133.972 497.133 132.382 496.474 131.21 495.302C130.037 494.129 129.378 492.539 129.378 490.88V368.642C129.378 367.801 129.548 366.968 129.878 366.194C130.207 365.42 130.689 364.721 131.295 364.137C131.901 363.554 132.619 363.099 133.405 362.799C134.191 362.5 135.029 362.362 135.869 362.394L229.509 365.979C231.125 366.04 232.655 366.724 233.777 367.889C234.899 369.054 235.526 370.608 235.525 372.226V490.88C235.526 491.702 235.364 492.516 235.049 493.275C234.735 494.034 234.274 494.724 233.692 495.305C233.111 495.885 232.421 496.346 231.661 496.659C230.902 496.973 230.088 497.134 229.267 497.133Z" fill="#91B3FA"/>
<path opacity="0.51" d="M210.642 410.347H148.618C148.126 410.347 147.727 410.746 147.727 411.238V417.7C147.727 418.192 148.126 418.591 148.618 418.591H210.642C211.134 418.591 211.533 418.192 211.533 417.7V411.238C211.533 410.746 211.134 410.347 210.642 410.347Z" fill="white"/>
<path opacity="0.51" d="M210.768 423.511H148.743C148.251 423.511 147.852 423.91 147.852 424.402V430.864C147.852 431.356 148.251 431.755 148.743 431.755H210.768C211.26 431.755 211.658 431.356 211.658 430.864V424.402C211.658 423.91 211.26 423.511 210.768 423.511Z" fill="white"/>
<path opacity="0.51" d="M211.14 436.953H149.116C148.624 436.953 148.225 437.352 148.225 437.844V444.306C148.225 444.798 148.624 445.197 149.116 445.197H211.14C211.632 445.197 212.031 444.798 212.031 444.306V437.844C212.031 437.352 211.632 436.953 211.14 436.953Z" fill="white"/>
<path opacity="0.51" d="M211.267 450.117H149.243C148.751 450.117 148.352 450.516 148.352 451.008V457.47C148.352 457.962 148.751 458.361 149.243 458.361H211.267C211.759 458.361 212.158 457.962 212.158 457.47V451.008C212.158 450.516 211.759 450.117 211.267 450.117Z" fill="white"/>
<path opacity="0.51" d="M346.664 410.337H256.712C256.22 410.337 255.821 410.736 255.821 411.228V417.69C255.821 418.182 256.22 418.581 256.712 418.581H346.664C347.156 418.581 347.555 418.182 347.555 417.69V411.228C347.555 410.736 347.156 410.337 346.664 410.337Z" fill="white"/>
<path opacity="0.51" d="M346.948 423.511H256.996C256.504 423.511 256.105 423.91 256.105 424.402V430.864C256.105 431.356 256.504 431.755 256.996 431.755H346.948C347.44 431.755 347.839 431.356 347.839 430.864V424.402C347.839 423.91 347.44 423.511 346.948 423.511Z" fill="white"/>
<path opacity="0.51" d="M309.571 436.953H256.996C256.504 436.953 256.105 437.352 256.105 437.844V444.306C256.105 444.798 256.504 445.197 256.996 445.197H309.571C310.063 445.197 310.462 444.798 310.462 444.306V437.844C310.462 437.352 310.063 436.953 309.571 436.953Z" fill="white"/>
<g opacity="0.51">
<path d="M304.519 379.613H303.122C302.789 379.613 302.47 379.48 302.234 379.244C301.999 379.009 301.867 378.689 301.867 378.356V373.574C301.866 372.753 301.54 371.966 300.959 371.385C300.378 370.805 299.591 370.479 298.77 370.479H290.113C289.292 370.479 288.504 370.805 287.924 371.385C287.343 371.966 287.017 372.753 287.016 373.574V378.351C287.016 378.684 286.884 379.004 286.649 379.239C286.413 379.475 286.094 379.608 285.761 379.608H284.364C284.031 379.608 283.711 379.476 283.475 379.24C283.24 379.004 283.107 378.685 283.107 378.351V373.574C283.107 372.654 283.288 371.743 283.64 370.893C283.993 370.043 284.509 369.271 285.159 368.62C285.81 367.97 286.582 367.454 287.432 367.102C288.282 366.75 289.193 366.569 290.113 366.569H298.77C299.69 366.569 300.601 366.75 301.451 367.102C302.301 367.454 303.073 367.97 303.724 368.62C304.374 369.271 304.89 370.043 305.242 370.893C305.595 371.743 305.776 372.654 305.776 373.574V378.351C305.776 378.517 305.744 378.681 305.682 378.834C305.619 378.987 305.526 379.126 305.409 379.243C305.293 379.36 305.154 379.454 305.001 379.517C304.848 379.58 304.684 379.613 304.519 379.613Z" fill="white"/>
<path d="M306.252 380.74H282.631C281.936 380.74 281.269 381.017 280.778 381.508C280.286 382 280.01 382.667 280.01 383.362V401.487C280.01 402.182 280.286 402.849 280.778 403.34C281.269 403.832 281.936 404.108 282.631 404.108H306.252C306.947 404.108 307.614 403.832 308.105 403.34C308.597 402.849 308.873 402.182 308.873 401.487V383.362C308.873 382.667 308.597 382 308.105 381.508C307.614 381.017 306.947 380.74 306.252 380.74ZM297.821 398.263C297.855 398.406 297.857 398.555 297.825 398.698C297.794 398.841 297.73 398.976 297.639 399.091C297.548 399.207 297.433 399.3 297.3 399.364C297.168 399.428 297.023 399.461 296.876 399.461H292.013C291.866 399.461 291.721 399.428 291.589 399.364C291.457 399.3 291.341 399.207 291.25 399.091C291.159 398.976 291.096 398.841 291.064 398.698C291.033 398.555 291.035 398.406 291.069 398.263L292.205 393.531C291.382 393.04 290.743 392.292 290.385 391.403C290.028 390.513 289.972 389.531 290.227 388.607C290.481 387.683 291.032 386.867 291.795 386.286C292.557 385.706 293.49 385.391 294.448 385.391C295.407 385.391 296.339 385.706 297.101 386.286C297.864 386.867 298.415 387.683 298.669 388.607C298.924 389.531 298.868 390.513 298.511 391.403C298.154 392.292 297.514 393.04 296.691 393.531L297.821 398.263Z" fill="white"/>
</g>
<path d="M373.277 167.957C373.182 167.957 373.088 167.933 373.005 167.887C372.874 167.814 372.778 167.693 372.737 167.549C372.696 167.406 372.713 167.252 372.786 167.121C373.149 166.469 373.5 165.813 373.84 165.152C373.909 165.019 374.027 164.919 374.17 164.873C374.312 164.828 374.467 164.841 374.6 164.909C374.733 164.978 374.833 165.096 374.879 165.238C374.924 165.381 374.912 165.536 374.843 165.669C374.498 166.337 374.141 167.006 373.772 167.674C373.722 167.761 373.65 167.834 373.563 167.883C373.476 167.933 373.377 167.958 373.277 167.957Z" fill="#91B3FA"/>
<path d="M307.459 206.701C307.124 206.701 306.79 206.701 306.456 206.701C306.312 206.693 306.177 206.63 306.078 206.525C305.979 206.421 305.923 206.282 305.923 206.138C305.923 205.994 305.979 205.855 306.078 205.751C306.177 205.646 306.312 205.584 306.456 205.576C307.912 205.596 309.381 205.576 310.833 205.506C310.982 205.5 311.126 205.554 311.236 205.654C311.346 205.754 311.413 205.894 311.421 206.042C311.428 206.191 311.375 206.337 311.274 206.447C311.174 206.557 311.034 206.623 310.885 206.63C309.763 206.676 308.604 206.701 307.459 206.701ZM299.316 206.264H299.255C297.786 206.097 296.303 205.9 294.853 205.658C294.777 205.649 294.704 205.624 294.638 205.586C294.572 205.548 294.514 205.497 294.468 205.436C294.422 205.375 294.389 205.306 294.371 205.232C294.353 205.158 294.35 205.081 294.363 205.005C294.376 204.93 294.403 204.858 294.444 204.794C294.486 204.73 294.539 204.675 294.603 204.632C294.666 204.589 294.737 204.56 294.812 204.545C294.887 204.531 294.964 204.532 295.038 204.548C296.469 204.787 297.928 204.989 299.383 205.145C299.526 205.16 299.658 205.23 299.751 205.339C299.844 205.449 299.892 205.59 299.885 205.734C299.877 205.877 299.815 206.013 299.711 206.112C299.607 206.211 299.469 206.267 299.325 206.268L299.316 206.264ZM318.018 205.962C317.876 205.96 317.741 205.905 317.638 205.808C317.536 205.711 317.473 205.579 317.463 205.438C317.454 205.297 317.497 205.158 317.585 205.047C317.673 204.937 317.799 204.864 317.939 204.842C319.38 204.64 320.832 204.391 322.256 204.105C322.33 204.086 322.407 204.083 322.482 204.095C322.557 204.107 322.629 204.134 322.693 204.175C322.758 204.216 322.813 204.269 322.857 204.332C322.9 204.394 322.93 204.465 322.945 204.54C322.96 204.615 322.96 204.692 322.944 204.766C322.929 204.841 322.898 204.911 322.854 204.974C322.811 205.036 322.755 205.089 322.69 205.13C322.626 205.17 322.553 205.196 322.478 205.208C321.033 205.499 319.558 205.751 318.096 205.957L318.018 205.962ZM287.935 204.143C287.886 204.143 287.837 204.136 287.79 204.123C286.363 203.744 284.93 203.316 283.532 202.851C283.461 202.828 283.397 202.791 283.341 202.743C283.285 202.695 283.239 202.636 283.206 202.57C283.172 202.504 283.153 202.432 283.147 202.359C283.142 202.285 283.151 202.211 283.174 202.141C283.197 202.071 283.234 202.006 283.282 201.95C283.33 201.894 283.389 201.848 283.455 201.815C283.521 201.782 283.593 201.762 283.666 201.756C283.74 201.751 283.814 201.76 283.884 201.783C285.265 202.24 286.675 202.662 288.079 203.037C288.21 203.073 288.324 203.155 288.399 203.268C288.474 203.381 288.506 203.518 288.489 203.653C288.471 203.787 288.406 203.911 288.304 204.002C288.202 204.092 288.071 204.142 287.935 204.143ZM329.312 203.475C329.177 203.475 329.046 203.427 328.944 203.339C328.842 203.251 328.774 203.129 328.754 202.996C328.734 202.863 328.762 202.726 328.834 202.612C328.905 202.498 329.016 202.413 329.145 202.373C330.54 201.952 331.936 201.482 333.298 200.981C333.436 200.935 333.587 200.945 333.719 201.009C333.85 201.072 333.952 201.184 334.002 201.321C334.053 201.458 334.048 201.609 333.989 201.743C333.931 201.876 333.822 201.982 333.687 202.037C332.305 202.539 330.886 203.022 329.472 203.451C329.422 203.464 329.37 203.47 329.318 203.468L329.312 203.475ZM277.019 200.311C276.941 200.311 276.863 200.295 276.792 200.264C275.439 199.667 274.089 199.024 272.781 198.352C272.648 198.284 272.547 198.165 272.501 198.023C272.456 197.881 272.468 197.726 272.537 197.593C272.605 197.46 272.723 197.36 272.865 197.314C273.008 197.268 273.162 197.281 273.295 197.349C274.584 198.018 275.914 198.644 277.246 199.231C277.364 199.283 277.46 199.375 277.519 199.489C277.578 199.604 277.595 199.736 277.569 199.862C277.542 199.988 277.473 200.101 277.373 200.183C277.273 200.264 277.148 200.309 277.019 200.309V200.311ZM340.095 199.273C339.967 199.272 339.844 199.229 339.745 199.149C339.646 199.07 339.576 198.959 339.548 198.835C339.52 198.711 339.534 198.581 339.589 198.466C339.644 198.351 339.736 198.259 339.851 198.203C341.159 197.573 342.466 196.894 343.738 196.186C343.868 196.113 344.023 196.095 344.166 196.136C344.31 196.177 344.431 196.273 344.504 196.404C344.577 196.534 344.595 196.688 344.554 196.832C344.513 196.976 344.417 197.097 344.286 197.17C342.994 197.889 341.667 198.577 340.337 199.218C340.263 199.251 340.182 199.268 340.101 199.266L340.095 199.273ZM266.828 194.84C266.72 194.84 266.614 194.809 266.523 194.75C265.282 193.954 264.047 193.11 262.847 192.243C262.787 192.199 262.736 192.144 262.698 192.08C262.659 192.017 262.634 191.946 262.623 191.873C262.611 191.8 262.615 191.725 262.632 191.653C262.65 191.581 262.682 191.513 262.726 191.453C262.769 191.393 262.825 191.343 262.888 191.304C262.952 191.266 263.022 191.24 263.095 191.229C263.169 191.218 263.243 191.221 263.315 191.239C263.388 191.256 263.455 191.288 263.515 191.332C264.685 192.188 265.903 193.018 267.128 193.804C267.23 193.87 267.308 193.967 267.351 194.081C267.393 194.195 267.397 194.319 267.363 194.436C267.329 194.552 267.258 194.654 267.161 194.727C267.064 194.8 266.946 194.84 266.824 194.84H266.828ZM350.1 193.456C349.98 193.456 349.863 193.418 349.767 193.347C349.67 193.276 349.599 193.176 349.563 193.061C349.527 192.946 349.529 192.823 349.568 192.71C349.607 192.596 349.681 192.498 349.779 192.43C350.976 191.604 352.166 190.732 353.312 189.838C353.429 189.744 353.579 189.701 353.727 189.718C353.876 189.735 354.012 189.81 354.105 189.927C354.199 190.044 354.242 190.193 354.225 190.342C354.208 190.491 354.133 190.627 354.016 190.72C352.846 191.628 351.646 192.514 350.431 193.353C350.336 193.417 350.222 193.451 350.107 193.449L350.1 193.456ZM257.602 187.862C257.465 187.862 257.333 187.812 257.23 187.722C256.128 186.745 255.039 185.716 253.989 184.68C253.932 184.628 253.887 184.566 253.855 184.497C253.823 184.428 253.805 184.353 253.803 184.276C253.801 184.2 253.815 184.124 253.843 184.053C253.871 183.982 253.913 183.918 253.967 183.864C254.021 183.81 254.085 183.767 254.156 183.739C254.227 183.71 254.303 183.696 254.379 183.698C254.455 183.7 254.53 183.717 254.6 183.749C254.669 183.78 254.732 183.826 254.783 183.882C255.816 184.909 256.89 185.918 257.977 186.877C258.062 186.953 258.123 187.053 258.15 187.164C258.177 187.275 258.17 187.392 258.129 187.499C258.089 187.606 258.016 187.698 257.922 187.762C257.828 187.827 257.717 187.862 257.602 187.862ZM359.102 186.174C358.989 186.174 358.878 186.14 358.785 186.077C358.692 186.014 358.619 185.924 358.577 185.819C358.536 185.714 358.526 185.599 358.551 185.489C358.575 185.379 358.632 185.278 358.714 185.201C359.773 184.198 360.816 183.16 361.812 182.106C361.916 182.004 362.056 181.946 362.201 181.945C362.347 181.943 362.487 181.998 362.593 182.098C362.699 182.198 362.762 182.335 362.769 182.48C362.776 182.626 362.727 182.768 362.631 182.878C361.619 183.949 360.561 185.005 359.488 186.02C359.384 186.114 359.249 186.167 359.108 186.167L359.102 186.174ZM249.545 179.555C249.463 179.555 249.381 179.536 249.306 179.501C249.231 179.466 249.165 179.415 249.112 179.351C248.17 178.219 247.247 177.043 246.368 175.854C246.286 175.734 246.253 175.586 246.277 175.442C246.301 175.298 246.38 175.169 246.498 175.082C246.616 174.995 246.762 174.958 246.907 174.977C247.052 174.996 247.183 175.071 247.274 175.186C248.14 176.356 249.049 177.516 249.978 178.632C250.046 178.715 250.09 178.815 250.103 178.921C250.117 179.027 250.1 179.134 250.054 179.231C250.009 179.328 249.937 179.409 249.847 179.467C249.757 179.524 249.652 179.555 249.545 179.555ZM366.888 177.616C366.763 177.616 366.642 177.575 366.544 177.497C366.485 177.452 366.436 177.395 366.4 177.331C366.363 177.267 366.34 177.196 366.331 177.123C366.321 177.049 366.327 176.975 366.346 176.903C366.366 176.832 366.4 176.765 366.445 176.707C367.341 175.555 368.212 174.367 369.032 173.175C369.12 173.06 369.248 172.983 369.391 172.96C369.534 172.937 369.68 172.97 369.799 173.052C369.918 173.134 370.001 173.258 370.031 173.4C370.061 173.541 370.036 173.689 369.96 173.812C369.124 175.024 368.243 176.23 367.332 177.399C367.28 177.464 367.213 177.517 367.137 177.554C367.062 177.59 366.979 177.609 366.895 177.609L366.888 177.616ZM242.842 170.121C242.745 170.121 242.649 170.096 242.564 170.048C242.48 170 242.409 169.931 242.359 169.847C241.597 168.577 240.865 167.273 240.186 165.97C240.117 165.837 240.104 165.682 240.15 165.539C240.195 165.396 240.295 165.277 240.428 165.208C240.561 165.139 240.716 165.126 240.859 165.171C241.001 165.217 241.12 165.317 241.189 165.45C241.858 166.732 242.581 168.017 243.332 169.269C243.383 169.354 243.411 169.452 243.413 169.551C243.414 169.651 243.389 169.749 243.34 169.836C243.291 169.923 243.22 169.995 243.134 170.045C243.048 170.095 242.95 170.122 242.85 170.121H242.842ZM237.661 159.769C237.549 159.768 237.439 159.735 237.347 159.672C237.254 159.609 237.182 159.52 237.14 159.416C236.583 158.045 236.062 156.645 235.589 155.251C235.547 155.111 235.561 154.96 235.628 154.831C235.695 154.701 235.81 154.602 235.948 154.556C236.086 154.509 236.237 154.518 236.369 154.58C236.501 154.642 236.603 154.753 236.655 154.89C237.12 156.262 237.634 157.642 238.183 158.993C238.217 159.079 238.231 159.171 238.221 159.263C238.212 159.355 238.18 159.443 238.128 159.52C238.077 159.596 238.007 159.659 237.926 159.702C237.844 159.746 237.753 159.768 237.661 159.769Z" fill="#91B3FA"/>
<path d="M234.157 148.704C234.03 148.704 233.907 148.661 233.807 148.582C233.708 148.504 233.638 148.394 233.608 148.271C233.437 147.533 233.275 146.795 233.124 146.056C233.094 145.91 233.124 145.758 233.206 145.634C233.288 145.51 233.416 145.423 233.562 145.393C233.709 145.364 233.86 145.393 233.985 145.475C234.109 145.558 234.195 145.686 234.225 145.832C234.373 146.561 234.533 147.285 234.705 148.005C234.736 148.149 234.71 148.3 234.631 148.425C234.553 148.55 234.429 148.639 234.285 148.674C234.243 148.688 234.2 148.698 234.157 148.704Z" fill="#91B3FA"/>
<path d="M243.696 91.3217C243.595 91.3215 243.497 91.2945 243.41 91.2433C243.324 91.1922 243.252 91.1188 243.204 91.0308C243.155 90.9428 243.131 90.8433 243.134 90.7428C243.137 90.6423 243.166 90.5444 243.22 90.4592C243.623 89.8208 244.035 89.1873 244.456 88.5588C244.542 88.4399 244.67 88.3588 244.814 88.3329C244.958 88.3069 245.107 88.3381 245.228 88.4199C245.35 88.5016 245.435 88.6274 245.465 88.7707C245.495 88.9139 245.469 89.0634 245.391 89.1873C244.973 89.8057 244.567 90.4297 244.172 91.0593C244.121 91.1396 244.051 91.2057 243.968 91.2516C243.885 91.2975 243.791 91.3216 243.696 91.3217Z" fill="#91B3FA"/>
<path d="M379.678 110.172C379.556 110.172 379.438 110.133 379.341 110.06C379.243 109.987 379.172 109.884 379.138 109.768C378.709 108.3 378.226 106.829 377.706 105.39C377.678 105.32 377.665 105.245 377.667 105.17C377.669 105.095 377.687 105.021 377.718 104.952C377.749 104.884 377.793 104.822 377.849 104.771C377.904 104.72 377.969 104.681 378.04 104.655C378.111 104.63 378.186 104.619 378.261 104.623C378.336 104.627 378.41 104.646 378.477 104.679C378.545 104.712 378.605 104.758 378.655 104.815C378.704 104.872 378.742 104.938 378.765 105.009C379.294 106.467 379.782 107.961 380.218 109.45C380.239 109.521 380.245 109.595 380.238 109.669C380.23 109.742 380.208 109.814 380.172 109.879C380.137 109.943 380.089 110.001 380.031 110.047C379.974 110.093 379.908 110.128 379.837 110.149C379.785 110.165 379.732 110.172 379.678 110.172ZM375.318 98.8064C375.213 98.8058 375.11 98.7757 375.021 98.7195C374.933 98.6634 374.862 98.5835 374.816 98.4888C374.148 97.1082 373.438 95.7327 372.692 94.4022C372.624 94.2722 372.609 94.1206 372.65 93.9797C372.692 93.8389 372.787 93.7199 372.915 93.6481C373.044 93.5764 373.195 93.5576 373.337 93.5957C373.479 93.6339 373.6 93.7259 373.675 93.8523C374.43 95.2028 375.156 96.5985 375.829 98.0008C375.861 98.0673 375.88 98.1395 375.884 98.2132C375.888 98.2869 375.878 98.3607 375.853 98.4305C375.829 98.5002 375.791 98.5644 375.742 98.6194C375.693 98.6745 375.633 98.7193 375.567 98.7513C375.49 98.7911 375.404 98.8123 375.318 98.8131V98.8064ZM369.174 88.3065C369.083 88.3067 368.994 88.2849 368.913 88.243C368.833 88.2011 368.763 88.1403 368.711 88.0658C367.837 86.8156 366.91 85.5737 365.957 84.377C365.867 84.2599 365.827 84.1122 365.845 83.9656C365.863 83.8191 365.937 83.6854 366.053 83.5934C366.168 83.5014 366.315 83.4584 366.462 83.4736C366.609 83.4889 366.744 83.5612 366.838 83.675C367.804 84.8918 368.746 86.152 369.634 87.4206C369.693 87.5049 369.727 87.6037 369.734 87.7063C369.741 87.8089 369.719 87.9114 369.672 88.0027C369.625 88.0939 369.553 88.1705 369.465 88.224C369.378 88.2776 369.277 88.3061 369.174 88.3065ZM249.437 83.3942C249.33 83.3941 249.226 83.3637 249.136 83.3064C249.046 83.2491 248.974 83.1673 248.929 83.0707C248.883 82.9741 248.867 82.8666 248.88 82.7608C248.894 82.655 248.937 82.5552 249.006 82.4732C249.992 81.2832 251.033 80.1048 252.097 78.9632C252.201 78.861 252.34 78.8029 252.486 78.8011C252.631 78.7993 252.772 78.854 252.878 78.9537C252.984 79.0533 253.048 79.1903 253.055 79.3357C253.063 79.4812 253.013 79.6238 252.918 79.7337C251.868 80.8519 250.844 82.0136 249.871 83.1852C249.819 83.2512 249.753 83.3048 249.678 83.3421C249.603 83.3794 249.521 83.3994 249.437 83.4009V83.3942ZM361.42 78.9298C361.345 78.9302 361.27 78.9157 361.201 78.887C361.131 78.8583 361.068 78.816 361.015 78.7626C359.956 77.6695 358.843 76.5898 357.713 75.5602C357.658 75.5105 357.613 75.4504 357.582 75.3835C357.55 75.3166 357.532 75.2441 357.528 75.1701C357.525 75.0961 357.536 75.0222 357.561 74.9525C357.585 74.8828 357.624 74.8186 357.674 74.7638C357.723 74.7089 357.783 74.6643 357.85 74.6327C357.917 74.601 357.99 74.5828 358.064 74.5792C358.138 74.5755 358.212 74.5865 358.281 74.6114C358.351 74.6363 358.415 74.6748 358.47 74.7245C359.62 75.7725 360.748 76.8656 361.824 77.9754C361.928 78.0828 361.984 78.2268 361.982 78.376C361.979 78.5251 361.918 78.6672 361.811 78.771C361.76 78.823 361.699 78.8644 361.632 78.8928C361.565 78.9212 361.493 78.936 361.42 78.9365V78.9298ZM257.932 74.686C257.817 74.6855 257.706 74.6502 257.612 74.5849C257.519 74.5196 257.447 74.4273 257.407 74.3203C257.367 74.2134 257.36 74.0967 257.388 73.9859C257.416 73.8751 257.477 73.7754 257.562 73.6999C258.732 72.677 259.949 71.6791 261.174 70.7314C261.232 70.6862 261.299 70.653 261.371 70.6336C261.442 70.6143 261.517 70.6092 261.59 70.6187C261.664 70.6281 261.734 70.652 261.799 70.6888C261.863 70.7257 261.919 70.7748 261.964 70.8334C262.01 70.892 262.043 70.9589 262.062 71.0304C262.081 71.1018 262.087 71.1764 262.077 71.2498C262.068 71.3232 262.044 71.394 262.007 71.4582C261.97 71.5224 261.921 71.5788 261.862 71.624C260.654 72.555 259.456 73.5394 258.303 74.5473C258.201 74.6396 258.069 74.6914 257.932 74.6927V74.686ZM352.276 70.9119C352.156 70.9115 352.039 70.8729 351.942 70.8016C350.715 69.889 349.445 69.0048 348.165 68.1725C348.047 68.0881 347.965 67.9612 347.938 67.8183C347.911 67.6755 347.941 67.5277 348.02 67.4059C348.1 67.2841 348.223 67.1978 348.365 67.165C348.506 67.1321 348.655 67.1554 348.78 67.2298C350.079 68.0755 351.369 68.9731 352.614 69.9041C352.709 69.9747 352.778 70.0733 352.814 70.186C352.85 70.2986 352.849 70.4195 352.812 70.5316C352.775 70.6438 352.704 70.7415 352.608 70.8109C352.513 70.8804 352.398 70.918 352.28 70.9186L352.276 70.9119ZM267.712 67.4404C267.589 67.4403 267.47 67.4004 267.373 67.3267C267.275 67.253 267.204 67.1495 267.171 67.0319C267.137 66.9142 267.143 66.7889 267.187 66.6747C267.231 66.5605 267.31 66.4638 267.414 66.3991C268.731 65.5801 270.088 64.7895 271.457 64.0591C271.522 64.0202 271.595 63.9949 271.67 63.9846C271.745 63.9744 271.821 63.9795 271.895 63.9996C271.968 64.0197 272.036 64.0544 272.096 64.1016C272.155 64.1488 272.205 64.2075 272.241 64.2743C272.277 64.341 272.299 64.4144 272.306 64.49C272.313 64.5656 272.305 64.6418 272.282 64.7141C272.259 64.7865 272.222 64.8534 272.172 64.9108C272.122 64.9683 272.062 65.0152 271.993 65.0486C270.646 65.7756 269.306 66.5529 268.009 67.3618C267.919 67.4179 267.815 67.4474 267.708 67.4471L267.712 67.4404ZM341.961 64.4769C341.872 64.477 341.783 64.4552 341.704 64.4134C340.347 63.7148 338.95 63.0479 337.551 62.4328C337.415 62.3727 337.307 62.2609 337.253 62.1219C337.199 61.9828 337.203 61.828 337.263 61.6915C337.323 61.555 337.435 61.4479 337.574 61.3938C337.713 61.3398 337.867 61.3431 338.004 61.4032C339.424 62.0266 340.845 62.7036 342.22 63.4089C342.332 63.4671 342.421 63.561 342.474 63.6758C342.526 63.7906 342.538 63.9196 342.508 64.042C342.478 64.1645 342.408 64.2734 342.309 64.3514C342.21 64.4293 342.087 64.4718 341.961 64.4719V64.4769ZM278.526 61.8745C278.396 61.8752 278.269 61.8305 278.168 61.7481C278.067 61.6657 277.998 61.5506 277.973 61.4227C277.947 61.2949 277.967 61.1621 278.029 61.0472C278.09 60.9323 278.19 60.8425 278.311 60.7931C279.74 60.1981 281.21 59.6398 282.679 59.1334C282.749 59.1092 282.823 59.0991 282.897 59.1035C282.97 59.1079 283.043 59.1268 283.109 59.1591C283.175 59.1913 283.235 59.2364 283.284 59.2916C283.333 59.3469 283.37 59.4112 283.395 59.481C283.419 59.5508 283.429 59.6247 283.424 59.6984C283.42 59.7722 283.401 59.8443 283.369 59.9107C283.337 59.9772 283.292 60.0366 283.236 60.0856C283.181 60.1346 283.117 60.1723 283.047 60.1964C281.598 60.6978 280.151 61.2461 278.742 61.8327C278.673 61.8604 278.6 61.8746 278.526 61.8745ZM330.732 59.8036C330.676 59.803 330.619 59.794 330.565 59.7769C329.113 59.3055 327.627 58.8743 326.147 58.4932C326.075 58.4749 326.008 58.4426 325.948 58.3983C325.889 58.3539 325.839 58.2983 325.802 58.2347C325.764 58.1711 325.739 58.1006 325.729 58.0274C325.718 57.9542 325.722 57.8796 325.74 57.8079C325.759 57.7363 325.791 57.6689 325.835 57.6097C325.88 57.5505 325.935 57.5007 325.999 57.4629C326.063 57.4252 326.133 57.4004 326.206 57.3899C326.279 57.3794 326.354 57.3835 326.426 57.4018C327.93 57.7896 329.434 58.2291 330.913 58.7072C331.04 58.7479 331.149 58.8326 331.219 58.9462C331.289 59.0597 331.317 59.1946 331.297 59.3267C331.277 59.4587 331.21 59.5793 331.109 59.6667C331.008 59.7541 330.879 59.8027 330.746 59.8036H330.732ZM290.101 58.1322C289.964 58.1304 289.833 58.0789 289.731 57.9871C289.63 57.8954 289.565 57.7698 289.549 57.6339C289.533 57.4979 289.568 57.3608 289.646 57.2483C289.724 57.1357 289.84 57.0554 289.973 57.0224C291.487 56.6664 293.028 56.3538 294.553 56.0914C294.7 56.0661 294.851 56.1003 294.973 56.1863C295.095 56.2724 295.177 56.4032 295.203 56.5502C295.228 56.6971 295.194 56.8481 295.108 56.9699C295.022 57.0917 294.891 57.1743 294.744 57.1995C293.24 57.4569 291.722 57.7662 290.232 58.1172C290.189 58.1271 290.145 58.1321 290.101 58.1322ZM318.898 57.0057C318.87 57.0081 318.841 57.0081 318.813 57.0057C317.309 56.7733 315.765 56.5861 314.242 56.4474C314.094 56.4339 313.957 56.3619 313.861 56.2474C313.766 56.1328 313.72 55.985 313.733 55.8365C313.747 55.688 313.819 55.5509 313.933 55.4555C314.048 55.3601 314.196 55.314 314.344 55.3275C315.89 55.4679 317.451 55.6618 318.984 55.8942C319.126 55.9131 319.255 55.9857 319.346 56.0972C319.436 56.2086 319.48 56.3505 319.469 56.4935C319.459 56.6366 319.393 56.7701 319.287 56.8666C319.181 56.963 319.042 57.0152 318.898 57.0123V57.0057ZM302.129 56.3154C301.98 56.3205 301.835 56.2662 301.726 56.1645C301.618 56.0627 301.554 55.9219 301.548 55.773C301.543 55.624 301.598 55.4792 301.699 55.3702C301.801 55.2613 301.942 55.1973 302.091 55.1922C303.635 55.0835 305.206 55.025 306.76 55.0083C306.904 55.0161 307.039 55.0788 307.138 55.1834C307.237 55.2881 307.293 55.4267 307.293 55.5707C307.293 55.7148 307.237 55.8534 307.138 55.958C307.039 56.0626 306.904 56.1253 306.76 56.1332C305.229 56.1465 303.682 56.2067 302.159 56.3137L302.129 56.3154Z" fill="#91B3FA"/>
<path d="M381.817 119.753C381.683 119.753 381.554 119.704 381.452 119.617C381.35 119.53 381.283 119.409 381.262 119.277C381.151 118.541 381.025 117.807 380.885 117.075C380.863 116.931 380.898 116.784 380.983 116.666C381.068 116.547 381.195 116.466 381.338 116.439C381.481 116.412 381.629 116.442 381.751 116.522C381.873 116.602 381.959 116.726 381.991 116.868C382.129 117.612 382.257 118.357 382.374 119.103C382.385 119.176 382.382 119.25 382.365 119.322C382.347 119.394 382.316 119.462 382.272 119.522C382.228 119.582 382.173 119.632 382.11 119.671C382.047 119.709 381.977 119.735 381.904 119.746C381.875 119.75 381.846 119.752 381.817 119.753Z" fill="#91B3FA"/>
<path d="M365.245 129.168C365.26 128.98 365.216 128.793 365.119 128.632C365.021 128.47 364.876 128.343 364.704 128.269L354.618 123.886C353.83 118.738 352.208 113.752 349.815 109.126L355.381 99.6489C355.477 99.4867 355.519 99.2988 355.502 99.1115C355.485 98.9242 355.41 98.7469 355.288 98.6042L346.714 88.5756C346.592 88.4328 346.428 88.3317 346.246 88.2864C346.063 88.2412 345.871 88.2541 345.697 88.3232L335.465 92.3581C331.266 89.2771 326.593 86.902 321.629 85.3264L318.863 74.6827C318.815 74.5017 318.712 74.3402 318.568 74.2204C318.424 74.1007 318.246 74.0286 318.059 74.0142L304.908 72.9896C304.721 72.9749 304.534 73.019 304.373 73.1158C304.211 73.2126 304.084 73.3571 304.009 73.5294L299.627 83.6165C294.48 84.4057 289.496 86.0281 284.87 88.4202L275.394 82.8527C275.232 82.7579 275.044 82.7159 274.856 82.7327C274.669 82.7495 274.491 82.8241 274.348 82.9463L264.321 91.5207C264.177 91.6428 264.076 91.8069 264.03 91.9897C263.985 92.1725 263.997 92.3651 264.067 92.5403L268.114 102.759C265.034 106.959 262.66 111.633 261.085 116.597L250.441 119.363C250.26 119.412 250.098 119.516 249.979 119.66C249.859 119.804 249.787 119.982 249.773 120.169L248.748 133.32C248.733 133.507 248.778 133.695 248.875 133.856C248.972 134.017 249.117 134.144 249.29 134.219L259.376 138.601C260.164 143.75 261.785 148.735 264.177 153.362L258.612 162.839C258.516 163.001 258.474 163.189 258.491 163.376C258.507 163.563 258.582 163.741 258.704 163.884L267.279 173.912C267.401 174.055 267.565 174.156 267.747 174.201C267.93 174.247 268.122 174.234 268.297 174.164L278.52 170.133C282.719 173.213 287.392 175.588 292.356 177.165L295.123 187.808C295.171 187.99 295.274 188.151 295.418 188.271C295.562 188.391 295.74 188.463 295.927 188.477L309.078 189.501C309.266 189.516 309.453 189.472 309.614 189.375C309.775 189.279 309.902 189.134 309.977 188.962L314.358 178.875C319.505 178.088 324.49 176.466 329.115 174.073L338.591 179.64C338.753 179.735 338.941 179.777 339.128 179.76C339.315 179.743 339.492 179.668 339.635 179.546L349.662 170.972C349.805 170.85 349.906 170.686 349.952 170.504C349.997 170.321 349.985 170.129 349.917 169.954L345.886 159.728C348.965 155.528 351.339 150.854 352.915 145.891L363.542 143.124C363.723 143.076 363.885 142.972 364.005 142.828C364.124 142.684 364.196 142.506 364.211 142.319L365.245 129.168Z" fill="#91B3FA"/>
<path opacity="0.7" d="M306.964 143.805C303.721 143.801 300.605 142.546 298.265 140.3C295.926 138.054 294.544 134.991 294.408 131.75C294.273 128.51 295.394 125.342 297.537 122.908C299.681 120.474 302.681 118.963 305.913 118.688C309.144 118.414 312.357 119.398 314.88 121.436C317.403 123.473 319.042 126.407 319.454 129.624C319.867 132.841 319.021 136.093 317.093 138.701C315.166 141.309 312.306 143.073 309.11 143.623C308.401 143.744 307.683 143.805 306.964 143.805ZM307.014 120.371C306.392 120.372 305.771 120.425 305.157 120.53C302.678 120.955 300.423 122.226 298.776 124.128C297.129 126.029 296.193 128.443 296.126 130.958C296.059 133.472 296.866 135.932 298.41 137.919C299.953 139.905 302.138 141.294 304.591 141.85C307.044 142.406 309.614 142.094 311.863 140.968C314.112 139.841 315.9 137.969 316.924 135.671C317.948 133.374 318.143 130.792 317.477 128.366C316.81 125.94 315.323 123.821 313.27 122.369C311.443 121.069 309.256 120.371 307.014 120.371Z" fill="white"/>
<path opacity="0.7" d="M306.764 163.924C305.902 163.924 305.039 163.89 304.173 163.823C295.981 163.184 288.331 159.482 282.746 153.454C277.161 147.427 274.051 139.517 274.036 131.299C274.036 130.439 274.07 129.575 274.138 128.707C274.695 121.676 277.51 115.014 282.164 109.715C286.818 104.416 293.061 100.765 299.961 99.3063C306.86 97.8475 314.046 98.6594 320.446 101.621C326.846 104.582 332.117 109.534 335.472 115.738L333.988 116.54C332.938 114.6 331.685 112.777 330.251 111.101C326.267 106.445 320.992 103.075 315.094 101.417C309.195 99.7591 302.937 99.8874 297.111 101.786C291.285 103.684 286.153 107.268 282.363 112.083C278.573 116.898 276.296 122.729 275.819 128.839C275.755 129.661 275.724 130.48 275.724 131.296C275.738 138.643 278.362 145.746 283.127 151.338C287.892 156.929 294.489 160.646 301.74 161.826C308.991 163.005 316.425 161.569 322.716 157.775C329.007 153.982 333.746 148.076 336.087 141.112L337.688 141.648C335.509 148.128 331.355 153.761 325.809 157.756C320.263 161.752 313.605 163.909 306.77 163.924H306.764Z" fill="white"/>
<path d="M436.742 186.428C436.643 186.427 436.546 186.401 436.46 186.351C436.375 186.301 436.304 186.229 436.255 186.143C436.206 186.057 436.181 185.959 436.181 185.86C436.182 185.761 436.209 185.664 436.259 185.579C436.637 184.94 437 184.288 437.334 183.64C437.368 183.574 437.414 183.515 437.471 183.468C437.527 183.42 437.593 183.383 437.663 183.361C437.734 183.338 437.808 183.33 437.882 183.336C437.956 183.342 438.028 183.363 438.093 183.397C438.159 183.43 438.218 183.477 438.266 183.534C438.314 183.59 438.35 183.655 438.372 183.726C438.395 183.797 438.403 183.871 438.397 183.945C438.391 184.019 438.371 184.09 438.337 184.156C437.992 184.825 437.621 185.493 437.23 186.152C437.181 186.237 437.109 186.308 437.024 186.356C436.938 186.404 436.841 186.429 436.742 186.428Z" fill="#91B3FA"/>
<path d="M400.426 205.261H400.381C398.852 205.141 397.331 204.931 395.825 204.635C395.683 204.602 395.559 204.515 395.479 204.392C395.399 204.269 395.371 204.12 395.399 203.977C395.427 203.833 395.51 203.706 395.63 203.623C395.75 203.54 395.898 203.506 396.043 203.53C397.505 203.818 398.984 204.022 400.47 204.14C400.612 204.155 400.743 204.223 400.836 204.331C400.93 204.439 400.979 204.579 400.973 204.722C400.968 204.865 400.908 205 400.807 205.1C400.705 205.201 400.569 205.259 400.426 205.263V205.261ZM407.78 205.143C407.636 205.143 407.497 205.088 407.392 204.989C407.288 204.89 407.225 204.754 407.217 204.61C407.209 204.466 407.256 204.325 407.35 204.215C407.443 204.105 407.575 204.035 407.718 204.019C409.2 203.854 410.671 203.602 412.123 203.266C412.195 203.249 412.27 203.247 412.342 203.259C412.415 203.271 412.485 203.297 412.548 203.336C412.61 203.375 412.664 203.426 412.707 203.486C412.75 203.546 412.781 203.614 412.798 203.686C412.814 203.758 412.817 203.832 412.805 203.905C412.792 203.978 412.766 204.048 412.727 204.11C412.688 204.173 412.637 204.227 412.577 204.27C412.517 204.313 412.449 204.344 412.377 204.36C410.882 204.708 409.368 204.968 407.843 205.139L407.78 205.143ZM388.876 202.535C388.804 202.535 388.732 202.522 388.664 202.495C387.243 201.917 385.857 201.255 384.513 200.514C384.448 200.479 384.391 200.431 384.345 200.373C384.299 200.316 384.265 200.25 384.244 200.179C384.224 200.108 384.217 200.034 384.225 199.96C384.233 199.887 384.256 199.816 384.291 199.751C384.327 199.687 384.375 199.63 384.432 199.584C384.49 199.538 384.556 199.503 384.627 199.483C384.698 199.462 384.772 199.456 384.845 199.464C384.919 199.472 384.99 199.494 385.054 199.53C386.361 200.249 387.708 200.89 389.089 201.452C389.21 201.501 389.311 201.59 389.373 201.705C389.436 201.82 389.456 201.953 389.431 202.082C389.406 202.21 389.337 202.326 389.236 202.409C389.134 202.491 389.007 202.536 388.876 202.535ZM419.229 202.034C419.101 202.033 418.976 201.989 418.876 201.908C418.776 201.827 418.707 201.714 418.68 201.589C418.653 201.463 418.67 201.332 418.728 201.217C418.786 201.102 418.882 201.01 418.999 200.957C420.36 200.349 421.684 199.661 422.965 198.897C423.092 198.829 423.241 198.813 423.38 198.852C423.519 198.891 423.638 198.982 423.712 199.106C423.786 199.23 423.81 199.377 423.778 199.518C423.746 199.659 423.661 199.782 423.541 199.863C422.223 200.649 420.86 201.358 419.458 201.985C419.388 202.016 419.311 202.031 419.234 202.03L419.229 202.034ZM378.71 196.433C378.579 196.433 378.452 196.387 378.351 196.303C377.173 195.319 376.054 194.267 374.998 193.154C374.896 193.045 374.84 192.901 374.844 192.752C374.848 192.603 374.911 192.461 375.019 192.359C375.127 192.256 375.272 192.201 375.421 192.205C375.57 192.209 375.711 192.272 375.814 192.38C376.84 193.461 377.928 194.482 379.071 195.438C379.163 195.512 379.229 195.612 379.261 195.725C379.293 195.838 379.289 195.958 379.249 196.069C379.209 196.179 379.136 196.275 379.039 196.341C378.943 196.408 378.828 196.443 378.71 196.441V196.433ZM429.182 195.584C429.068 195.584 428.956 195.55 428.862 195.485C428.769 195.42 428.697 195.329 428.656 195.222C428.615 195.116 428.608 195 428.635 194.889C428.662 194.778 428.722 194.678 428.807 194.603L429.142 194.303C430.133 193.399 431.077 192.443 431.969 191.44C432.071 191.34 432.207 191.282 432.35 191.279C432.493 191.275 432.631 191.326 432.738 191.421C432.844 191.517 432.911 191.649 432.923 191.791C432.935 191.933 432.893 192.075 432.805 192.187C431.887 193.22 430.915 194.204 429.895 195.136L429.561 195.442C429.458 195.532 429.326 195.581 429.19 195.58L429.182 195.584ZM370.864 187.534C370.769 187.535 370.676 187.511 370.593 187.466C370.51 187.42 370.44 187.355 370.389 187.275C369.561 185.983 368.81 184.644 368.14 183.264C368.108 183.197 368.089 183.125 368.084 183.052C368.08 182.978 368.09 182.904 368.115 182.834C368.139 182.765 368.177 182.701 368.226 182.645C368.275 182.59 368.334 182.545 368.4 182.513C368.467 182.481 368.539 182.462 368.612 182.458C368.686 182.454 368.76 182.464 368.83 182.488C368.899 182.512 368.963 182.55 369.019 182.599C369.074 182.648 369.119 182.708 369.151 182.774C369.803 184.114 370.533 185.416 371.337 186.672C371.391 186.757 371.422 186.855 371.426 186.956C371.43 187.057 371.406 187.157 371.358 187.245C371.309 187.334 371.238 187.408 371.151 187.459C371.064 187.511 370.965 187.538 370.864 187.538V187.534Z" fill="#91B3FA"/>
<path d="M366.086 176.652C365.962 176.651 365.841 176.61 365.743 176.534C365.645 176.458 365.574 176.352 365.543 176.232C365.349 175.502 365.173 174.753 365.023 174.011C365.008 173.938 365.008 173.864 365.022 173.791C365.036 173.719 365.064 173.65 365.105 173.588C365.146 173.527 365.198 173.474 365.259 173.433C365.321 173.391 365.389 173.363 365.462 173.348C365.534 173.333 365.608 173.333 365.681 173.347C365.753 173.361 365.822 173.389 365.884 173.43C365.945 173.471 365.998 173.523 366.039 173.584C366.081 173.646 366.109 173.714 366.124 173.787C366.271 174.507 366.442 175.232 366.626 175.945C366.663 176.089 366.642 176.242 366.567 176.371C366.492 176.5 366.369 176.593 366.224 176.631C366.179 176.644 366.133 176.651 366.086 176.652Z" fill="#91B3FA"/>
<path d="M370.728 146.113C370.628 146.113 370.53 146.085 370.443 146.034C370.357 145.983 370.286 145.909 370.238 145.821C370.189 145.733 370.165 145.634 370.168 145.534C370.171 145.433 370.2 145.336 370.254 145.251C370.657 144.609 371.089 143.972 371.526 143.355C371.615 143.242 371.745 143.167 371.888 143.147C372.031 143.126 372.177 143.162 372.295 143.246C372.412 143.33 372.493 143.456 372.521 143.598C372.548 143.74 372.52 143.887 372.441 144.009C372.014 144.607 371.606 145.227 371.205 145.847C371.155 145.928 371.084 145.996 371.001 146.042C370.918 146.089 370.824 146.113 370.728 146.113Z" fill="#91B3FA"/>
<path d="M439.067 151.585C438.957 151.586 438.85 151.555 438.758 151.496C438.666 151.436 438.593 151.351 438.549 151.251C437.975 149.901 437.324 148.586 436.599 147.311C436.534 147.182 436.521 147.033 436.562 146.895C436.604 146.757 436.697 146.64 436.823 146.568C436.948 146.497 437.097 146.476 437.237 146.511C437.377 146.546 437.499 146.633 437.576 146.755C438.323 148.067 438.992 149.421 439.582 150.811C439.64 150.949 439.641 151.104 439.585 151.242C439.529 151.381 439.42 151.491 439.283 151.55C439.214 151.576 439.14 151.588 439.067 151.585ZM432.927 141.658C432.846 141.659 432.765 141.641 432.691 141.607C432.617 141.573 432.552 141.523 432.499 141.461C432.212 141.127 431.917 140.793 431.617 140.458C430.93 139.705 430.206 138.972 429.464 138.285C429.407 138.236 429.36 138.175 429.327 138.107C429.294 138.039 429.275 137.965 429.271 137.889C429.267 137.814 429.278 137.738 429.304 137.667C429.33 137.596 429.37 137.531 429.422 137.476C429.474 137.42 429.536 137.376 429.605 137.345C429.674 137.315 429.749 137.298 429.825 137.297C429.9 137.296 429.976 137.31 430.046 137.339C430.116 137.367 430.179 137.409 430.233 137.463C430.997 138.179 431.737 138.934 432.447 139.708C432.758 140.042 433.061 140.385 433.356 140.737C433.427 140.819 433.472 140.919 433.487 141.026C433.502 141.133 433.485 141.242 433.44 141.34C433.395 141.437 433.322 141.52 433.231 141.578C433.14 141.635 433.035 141.666 432.927 141.665V141.658ZM376.72 138.772C376.608 138.771 376.498 138.737 376.406 138.674C376.313 138.611 376.241 138.522 376.199 138.418C376.158 138.314 376.148 138.199 376.172 138.09C376.195 137.98 376.251 137.88 376.332 137.802C376.555 137.585 376.785 137.37 377.022 137.157C377.903 136.355 378.827 135.583 379.773 134.866C379.832 134.816 379.899 134.779 379.973 134.757C380.046 134.734 380.123 134.727 380.199 134.735C380.275 134.744 380.348 134.767 380.415 134.805C380.482 134.843 380.54 134.894 380.586 134.955C380.632 135.016 380.666 135.085 380.684 135.16C380.703 135.234 380.706 135.311 380.693 135.387C380.681 135.462 380.653 135.534 380.612 135.599C380.571 135.663 380.517 135.719 380.453 135.762C379.536 136.459 378.635 137.209 377.779 137.988C377.554 138.195 377.328 138.406 377.111 138.616C377.005 138.717 376.865 138.772 376.72 138.772ZM424.119 134C424.013 134 423.909 133.97 423.819 133.913C422.579 133.13 421.296 132.42 419.975 131.785C419.846 131.717 419.748 131.602 419.702 131.464C419.656 131.325 419.666 131.174 419.729 131.042C419.792 130.911 419.904 130.809 420.041 130.758C420.178 130.708 420.329 130.712 420.463 130.771C421.823 131.424 423.144 132.156 424.42 132.962C424.524 133.027 424.604 133.124 424.647 133.238C424.691 133.352 424.696 133.477 424.662 133.595C424.628 133.712 424.557 133.815 424.459 133.888C424.361 133.962 424.242 134.001 424.119 134ZM386.271 132.053C386.144 132.053 386.021 132.01 385.922 131.931C385.823 131.852 385.753 131.742 385.724 131.619C385.695 131.496 385.708 131.366 385.761 131.252C385.815 131.137 385.905 131.043 386.019 130.986C387.371 130.316 388.76 129.723 390.18 129.211C390.319 129.165 390.471 129.176 390.603 129.24C390.735 129.304 390.836 129.418 390.886 129.556C390.936 129.694 390.93 129.846 390.869 129.979C390.808 130.113 390.698 130.218 390.561 130.271C389.181 130.768 387.831 131.344 386.517 131.996C386.44 132.033 386.356 132.053 386.271 132.053ZM413.43 129.33C413.381 129.33 413.332 129.323 413.285 129.31C411.868 128.934 410.43 128.64 408.98 128.429C408.906 128.418 408.836 128.393 408.773 128.356C408.709 128.318 408.654 128.268 408.609 128.208C408.565 128.149 408.533 128.082 408.515 128.01C408.497 127.938 408.493 127.864 408.503 127.791C408.513 127.717 408.537 127.646 408.575 127.582C408.612 127.519 408.662 127.463 408.721 127.419C408.781 127.374 408.848 127.342 408.92 127.325C408.992 127.307 409.067 127.304 409.14 127.316C410.634 127.533 412.115 127.835 413.574 128.222C413.706 128.257 413.822 128.338 413.898 128.452C413.975 128.566 414.007 128.703 413.99 128.839C413.972 128.975 413.906 129.1 413.803 129.19C413.7 129.281 413.567 129.33 413.43 129.33ZM397.386 128.506C397.246 128.504 397.112 128.449 397.01 128.353C396.908 128.257 396.845 128.126 396.834 127.986C396.823 127.847 396.865 127.708 396.951 127.597C397.037 127.486 397.161 127.412 397.299 127.388C398.79 127.152 400.294 127.002 401.802 126.938C401.877 126.932 401.953 126.942 402.024 126.966C402.096 126.99 402.162 127.028 402.219 127.078C402.275 127.129 402.321 127.19 402.353 127.258C402.386 127.326 402.404 127.4 402.407 127.476C402.411 127.551 402.399 127.626 402.372 127.697C402.346 127.768 402.305 127.833 402.253 127.887C402.201 127.942 402.139 127.986 402.07 128.016C402 128.046 401.926 128.062 401.85 128.063C400.385 128.125 398.924 128.271 397.475 128.499C397.445 128.505 397.415 128.509 397.385 128.509L397.386 128.506Z" fill="#91B3FA"/>
<path d="M441.671 160.718C441.537 160.717 441.407 160.669 441.306 160.582C441.204 160.495 441.137 160.374 441.116 160.241C441.002 159.514 440.865 158.781 440.712 158.069C440.688 157.926 440.721 157.78 440.802 157.66C440.883 157.541 441.007 157.457 441.148 157.427C441.29 157.397 441.437 157.421 441.561 157.497C441.684 157.572 441.774 157.692 441.811 157.831C441.978 158.572 442.11 159.336 442.227 160.074C442.239 160.147 442.236 160.222 442.218 160.294C442.201 160.366 442.169 160.434 442.126 160.493C442.082 160.553 442.027 160.604 441.964 160.642C441.901 160.681 441.831 160.706 441.758 160.718C441.729 160.719 441.7 160.719 441.671 160.718Z" fill="#91B3FA"/>
<path d="M433.159 165.281C433.166 165.184 433.143 165.088 433.093 165.005C433.043 164.922 432.969 164.857 432.88 164.818L427.699 162.568C427.295 159.923 426.462 157.361 425.232 154.985L428.092 150.118C428.141 150.034 428.162 149.938 428.153 149.842C428.145 149.746 428.106 149.655 428.043 149.581L423.64 144.432C423.577 144.358 423.493 144.306 423.399 144.282C423.305 144.259 423.207 144.266 423.117 144.301L417.866 146.372C415.708 144.79 413.308 143.57 410.758 142.76L409.337 137.293C409.313 137.199 409.26 137.115 409.186 137.053C409.111 136.991 409.019 136.954 408.923 136.947L402.168 136.42C402.072 136.413 401.975 136.435 401.893 136.485C401.81 136.535 401.745 136.609 401.706 136.698L399.455 141.879C396.811 142.285 394.251 143.118 391.875 144.346L387.006 141.486C386.923 141.438 386.826 141.416 386.73 141.425C386.634 141.434 386.543 141.472 386.47 141.535L381.321 145.939C381.247 146.002 381.196 146.086 381.172 146.18C381.149 146.274 381.156 146.373 381.192 146.462L383.263 151.716C381.68 153.872 380.46 156.273 379.651 158.823L374.183 160.245C374.09 160.27 374.006 160.323 373.945 160.397C373.883 160.47 373.845 160.562 373.837 160.658L373.31 167.414C373.303 167.51 373.326 167.606 373.376 167.689C373.426 167.772 373.501 167.837 373.59 167.875L378.77 170.126C379.174 172.771 380.007 175.332 381.237 177.708L378.378 182.577C378.329 182.66 378.307 182.756 378.315 182.853C378.323 182.949 378.362 183.04 378.424 183.113L382.83 188.263C382.893 188.336 382.977 188.388 383.071 188.412C383.164 188.435 383.263 188.429 383.353 188.393L388.604 186.323C390.762 187.904 393.162 189.124 395.712 189.935L397.134 195.4C397.158 195.494 397.211 195.577 397.286 195.639C397.36 195.701 397.452 195.739 397.548 195.746L404.304 196.273C404.4 196.28 404.496 196.257 404.578 196.207C404.661 196.158 404.726 196.084 404.765 195.995L407.016 190.814C409.66 190.408 412.221 189.574 414.597 188.345L419.465 191.205C419.548 191.254 419.645 191.276 419.741 191.267C419.837 191.259 419.928 191.221 420.002 191.158L425.151 186.752C425.224 186.689 425.276 186.605 425.299 186.511C425.322 186.417 425.315 186.319 425.279 186.229L423.205 180.979C424.788 178.822 426.008 176.421 426.817 173.87L432.285 172.45C432.378 172.425 432.461 172.372 432.523 172.298C432.585 172.224 432.623 172.133 432.631 172.037L433.159 165.281Z" fill="#91B3FA"/>
<path opacity="0.7" d="M403.221 173.21C401.446 173.21 399.74 172.525 398.459 171.297C397.178 170.07 396.42 168.395 396.344 166.622C396.268 164.849 396.88 163.115 398.052 161.782C399.223 160.449 400.864 159.621 402.632 159.469C404.4 159.318 406.158 159.855 407.54 160.969C408.921 162.083 409.819 163.687 410.046 165.447C410.272 167.207 409.811 168.987 408.757 170.414C407.703 171.842 406.139 172.808 404.39 173.11C404.004 173.176 403.613 173.21 403.221 173.21ZM403.242 161.176C402.009 161.175 400.816 161.615 399.879 162.417C398.942 163.219 398.323 164.33 398.133 165.549C397.943 166.768 398.196 168.014 398.845 169.063C399.493 170.112 400.496 170.894 401.671 171.268C402.846 171.642 404.117 171.584 405.253 171.103C406.388 170.623 407.315 169.752 407.865 168.648C408.414 167.543 408.551 166.279 408.25 165.083C407.949 163.887 407.231 162.838 406.224 162.125C405.353 161.506 404.311 161.175 403.242 161.176Z" fill="white"/>
<path opacity="0.7" d="M403.119 183.545C402.666 183.545 402.211 183.528 401.755 183.491C398.936 183.272 396.214 182.36 393.832 180.837C391.449 179.315 389.479 177.228 388.095 174.761C386.711 172.295 385.957 169.526 385.9 166.698C385.842 163.871 386.482 161.073 387.764 158.552C389.046 156.032 390.929 153.866 393.248 152.247C395.566 150.629 398.248 149.607 401.056 149.272C403.864 148.938 406.711 149.301 409.345 150.33C411.979 151.359 414.318 153.021 416.156 155.17C416.204 155.226 416.253 155.282 416.3 155.338C416.967 156.137 417.56 156.996 418.071 157.903V157.913L418.095 157.953C418.106 157.977 418.12 158 418.133 158.023L418.155 158.062L418.222 158.186L416.738 158.988C416.212 158.017 415.585 157.104 414.867 156.265C412.642 153.663 409.618 151.871 406.267 151.169C402.916 150.466 399.427 150.892 396.344 152.381C393.261 153.869 390.757 156.337 389.223 159.398C387.689 162.459 387.211 165.941 387.864 169.303C388.516 172.664 390.263 175.714 392.831 177.979C395.399 180.243 398.644 181.594 402.06 181.82C405.476 182.046 408.871 181.135 411.716 179.23C414.56 177.324 416.694 174.53 417.784 171.285L419.386 171.821C418.239 175.231 416.051 178.195 413.132 180.297C410.213 182.4 406.709 183.535 403.112 183.543L403.119 183.545Z" fill="white"/>
<path d="M293.557 243.915C294.243 243.273 295.057 242.783 295.946 242.477C296.834 242.171 297.777 242.056 298.713 242.14C318.964 243.962 356.747 234.205 381.439 208.937C383.154 207.182 386.286 208.175 388.245 209.642C415.708 230.171 461.231 234.421 477.033 235.29C478.616 235.379 480.115 236.03 481.262 237.124C482.41 238.219 483.129 239.687 483.293 241.264C497.666 380.083 407.29 430.386 388.546 439.266C387.535 439.743 386.421 439.96 385.306 439.895C384.19 439.831 383.108 439.487 382.16 438.897C288.738 380.701 292.738 305.016 291.447 248.944C291.425 248.005 291.602 247.071 291.966 246.204C292.33 245.338 292.872 244.558 293.557 243.915Z" fill="#1FC9AA"/>
<path opacity="0.61" d="M386.02 429.183C385.596 429.183 385.18 429.062 384.822 428.833C349.007 405.935 325.66 378.563 313.46 345.15C302.56 315.307 302.026 284.918 301.556 258.107L301.491 254.533C301.486 254.239 301.54 253.947 301.65 253.674C301.759 253.4 301.922 253.152 302.129 252.942C302.336 252.733 302.582 252.567 302.854 252.454C303.126 252.34 303.417 252.283 303.712 252.284C325.891 252.284 359.182 242.489 383.597 220.608C383.962 220.281 384.425 220.085 384.914 220.049C385.403 220.014 385.889 220.142 386.298 220.413C413.124 238.215 451.394 243.4 471.817 244.906C472.34 244.943 472.833 245.165 473.207 245.532C473.581 245.9 473.811 246.389 473.857 246.912C478.605 301.078 467.339 346.88 440.376 383.048C420.237 410.06 396.357 424.135 387.025 428.932C386.714 429.094 386.37 429.18 386.02 429.183ZM386.612 428.131C395.889 423.363 419.625 409.373 439.65 382.513C466.477 346.529 477.681 300.936 472.955 247C472.929 246.692 472.794 246.402 472.574 246.184C472.354 245.966 472.064 245.834 471.755 245.812C451.242 244.308 412.798 239.088 385.798 221.17C385.557 221.011 385.271 220.935 384.983 220.956C384.695 220.977 384.422 221.093 384.207 221.285C359.611 243.326 326.066 253.193 303.732 253.193C303.554 253.19 303.377 253.223 303.212 253.291C303.047 253.358 302.898 253.459 302.773 253.586C302.651 253.708 302.556 253.853 302.492 254.013C302.428 254.173 302.398 254.345 302.402 254.517L302.467 258.09C302.935 284.833 303.469 315.138 314.316 344.837C326.449 378.057 349.671 405.281 385.312 428.074C385.504 428.195 385.724 428.263 385.951 428.273C386.178 428.283 386.403 428.234 386.605 428.131H386.612Z" fill="white"/>
<path opacity="0.61" d="M418.675 296.318H414.45C413.442 296.318 412.476 295.917 411.764 295.205C411.051 294.492 410.651 293.526 410.651 292.518V278.079C410.651 275.597 409.665 273.216 407.91 271.46C406.155 269.705 403.774 268.719 401.292 268.719H375.117C372.635 268.719 370.254 269.705 368.499 271.46C366.744 273.216 365.758 275.597 365.758 278.079V292.518C365.758 293.017 365.66 293.511 365.47 293.972C365.279 294.433 364.999 294.852 364.647 295.205C364.294 295.558 363.875 295.837 363.415 296.028C362.954 296.219 362.46 296.318 361.961 296.318H357.736C357.237 296.318 356.743 296.219 356.282 296.028C355.822 295.837 355.403 295.558 355.05 295.205C354.697 294.852 354.418 294.433 354.227 293.972C354.036 293.511 353.938 293.017 353.938 292.518V278.079C353.938 272.461 356.169 267.073 360.141 263.101C364.113 259.129 369.5 256.897 375.117 256.897H401.294C404.075 256.897 406.829 257.445 409.398 258.509C411.968 259.574 414.303 261.134 416.269 263.101C418.236 265.068 419.796 267.403 420.86 269.973C421.924 272.543 422.472 275.297 422.472 278.079V292.518C422.472 293.017 422.374 293.511 422.183 293.972C421.992 294.433 421.713 294.852 421.36 295.205C421.007 295.558 420.589 295.837 420.128 296.028C419.667 296.219 419.173 296.318 418.675 296.318Z" fill="white"/>
<path opacity="0.61" d="M423.911 299.726H352.5C350.399 299.726 348.383 300.56 346.898 302.047C345.412 303.533 344.577 305.548 344.577 307.65V362.461C344.577 364.563 345.412 366.578 346.898 368.064C348.383 369.55 350.399 370.385 352.5 370.385H423.911C426.012 370.385 428.027 369.55 429.513 368.064C430.999 366.578 431.834 364.563 431.834 362.461V307.65C431.834 305.548 430.999 303.533 429.513 302.047C428.027 300.56 426.012 299.726 423.911 299.726ZM398.422 352.702C398.526 353.133 398.53 353.582 398.435 354.016C398.34 354.449 398.148 354.856 397.873 355.204C397.599 355.553 397.248 355.834 396.849 356.028C396.45 356.221 396.012 356.322 395.568 356.322H380.843C380.399 356.322 379.961 356.222 379.561 356.028C379.162 355.834 378.811 355.552 378.537 355.204C378.262 354.855 378.07 354.448 377.975 354.015C377.88 353.581 377.884 353.131 377.988 352.7L381.424 338.396C379.351 337.16 377.655 335.38 376.52 333.25C375.386 331.119 374.855 328.718 374.987 326.308C375.338 319.666 380.721 314.227 387.354 313.816C390.318 313.626 393.26 314.439 395.706 316.123C398.153 317.808 399.962 320.266 400.842 323.103C401.722 325.941 401.622 328.991 400.559 331.765C399.496 334.539 397.531 336.874 394.98 338.396L398.422 352.702Z" fill="white"/>
<path d="M114.478 281.813C114.478 281.813 120.26 282.119 120.97 294.014C120.97 294.014 107.559 306.038 89.4425 308.9C88.0821 309.116 91.3444 299.615 91.8341 298.328C94.1671 292.206 101.514 288.263 114.478 281.813Z" fill="black"/>
<path d="M179.612 267.816H167.412C167.412 267.816 129.953 226.44 105.384 222.265C105.384 222.265 88.281 244.099 106.295 284.895C107.744 288.176 111.797 289.633 114.819 287.703C115.697 287.155 116.379 286.342 116.766 285.381L115.313 250.557C115.313 250.557 147.267 278.507 152.823 283.9C158.378 289.294 186.608 285.991 179.612 267.816Z" fill="#1FC9AA"/>
<path d="M61.6164 354.687C66.7321 350.204 74.881 345.175 86.6449 343.733L90.6291 346.163C90.6291 346.163 88.0922 349.907 83.4562 353.86C79.1978 356.334 72.6198 359.685 67.1666 360.412C61.8604 361.121 61.0783 357.916 61.6164 354.687Z" fill="black"/>
<path d="M91.8341 298.328C94.9844 299.348 96.3715 303.812 104.368 300.86C110.206 298.708 115.735 295.794 120.812 292.196C120.877 292.772 120.934 293.374 120.979 294.014C120.979 294.014 106.837 307.466 88.7239 310.329C88.4123 310.375 88.0942 310.339 87.8011 310.224C87.508 310.108 87.2501 309.918 87.0532 309.673C86.8563 309.427 86.7272 309.134 86.6787 308.823C86.6302 308.511 86.6641 308.193 86.7769 307.899C88.0751 304.518 89.7729 301.305 91.8341 298.328Z" fill="#91B3FA"/>
<path d="M57.7642 358.515C58.962 357.157 60.2459 355.879 61.6081 354.687C61.0699 357.916 61.8521 361.12 67.1532 360.415C72.6065 359.688 79.1861 356.337 83.4428 353.863C78.1049 358.416 69.981 363.25 59.7296 362.966C57.4601 362.902 56.2584 360.224 57.7642 358.515Z" fill="#91B3FA"/>
<path d="M179.166 276.648L122.01 277.267C122.01 277.267 89.3707 304.274 83.4495 345.461C83.4495 345.461 82.4668 348.491 88.3679 349.009C88.3679 349.009 108.1 336.119 120.969 313.329C136.755 285.381 168.007 297.959 168.007 297.959C183.023 301.273 194.974 300.04 203.722 286.58L179.166 276.648Z" fill="#1FC9AA"/>
<path d="M177.818 230.6C177.818 230.6 171.664 261.44 141.517 273.64L130.794 272.376L128.264 276.411L153.417 277.213C153.417 277.213 174.918 268.689 186.311 245.488C186.687 244.721 192.961 231.765 177.818 230.6Z" fill="url(#paint1_linear_3832_19024)"/>
<path d="M174.525 276.143C174.525 276.143 181.521 257.122 183.025 238.64C183.025 238.64 177.906 234.241 174.707 232.342C174.206 232.046 173.834 231.572 173.667 231.014C173.499 230.457 173.548 229.857 173.803 229.333C176.156 224.459 190.38 205.325 191.446 205.059C197.237 203.613 220.991 192.318 237.72 215.203C244.906 225.024 236.296 255.259 203.723 286.573C193.243 288.286 183.438 285.266 174.525 276.143Z" fill="#2C374A"/>
<path d="M201.481 242.807C201.481 242.807 182.041 265.827 157.193 269.192C157.193 269.192 150.77 263.342 145.996 265.426C141.221 267.51 134.67 276.747 134.67 276.747H166.59C166.59 276.747 196.763 275.684 211.841 257.385C210.612 250.982 206.979 247.156 201.481 242.807Z" fill="url(#paint2_linear_3832_19024)"/>
<path d="M212.82 188.922L217.073 203.109C217.17 203.425 217.163 203.764 217.055 204.076C216.946 204.388 216.74 204.658 216.468 204.845C214.421 206.249 209.068 209.039 201.726 206.328C201.315 206.172 200.957 205.902 200.694 205.55C200.43 205.199 200.273 204.779 200.239 204.341L199.236 191.972L212.82 188.922Z" fill="url(#paint3_linear_3832_19024)"/>
<path d="M187.915 177.431C187.915 177.431 190.006 192.139 195.655 196.652C201.303 201.165 212.31 197.77 216.027 186.682L208.618 167.733L187.915 177.431Z" fill="url(#paint4_linear_3832_19024)"/>
<path d="M209.454 180.001C209.354 180.034 209.247 180.045 209.142 180.032C209.037 180.02 208.936 179.985 208.846 179.929C208.756 179.874 208.679 179.799 208.62 179.711C208.562 179.623 208.524 179.523 208.508 179.418C208.304 178.061 207.795 175.373 206.765 173.543C206.765 173.543 207.303 171.614 201.888 174.529C196.474 177.444 188.341 181.716 183.552 179.176C178.884 176.69 174.154 164.179 186.493 166.496C186.602 166.518 186.715 166.514 186.823 166.485C186.93 166.455 187.03 166.402 187.114 166.328C187.197 166.255 187.263 166.163 187.305 166.06C187.348 165.957 187.366 165.845 187.359 165.734C187.208 163.678 187.412 158.948 192.205 157.429C196.687 156.008 199.141 158.032 200.152 159.254C200.221 159.338 200.308 159.405 200.407 159.451C200.506 159.497 200.614 159.52 200.723 159.518C200.832 159.516 200.939 159.49 201.036 159.441C201.134 159.392 201.219 159.322 201.285 159.235C202.622 157.482 206.274 153.75 211.647 156.116C216.067 158.065 216.756 160.796 216.682 162.486C216.676 162.611 216.702 162.736 216.758 162.848C216.815 162.96 216.899 163.056 217.003 163.125C217.108 163.195 217.228 163.237 217.353 163.246C217.478 163.255 217.603 163.232 217.717 163.178C219.07 162.555 221.248 162.231 223.335 164.85C226.22 168.465 222.097 171.599 220.86 172.421C220.759 172.486 220.676 172.575 220.618 172.68C220.56 172.785 220.528 172.903 220.526 173.023C220.514 174.902 220.222 183.102 216.112 187.732C216.029 187.823 215.925 187.892 215.808 187.932C215.691 187.972 215.566 187.982 215.444 187.961C215.323 187.94 215.208 187.889 215.112 187.812C215.015 187.735 214.94 187.635 214.892 187.521L211.729 179.981C211.658 179.812 211.526 179.676 211.359 179.6C211.193 179.523 211.004 179.512 210.829 179.568L209.454 180.001Z" fill="black"/>
<path d="M209.387 181.527C209.387 181.527 211.319 173.656 214.254 176.212C217.189 178.768 213.49 184.39 210.128 185.463L209.387 181.527Z" fill="url(#paint5_linear_3832_19024)"/>
<path d="M136.269 278.534L121.941 230.744C121.656 229.792 121.087 228.95 120.311 228.33C119.534 227.71 118.587 227.341 117.596 227.272L98.2516 225.949C97.7984 225.918 97.3446 226 96.9309 226.188C96.5172 226.375 96.1566 226.663 95.8815 227.025C95.6063 227.386 95.4252 227.81 95.3544 228.259C95.2836 228.708 95.3252 229.167 95.4757 229.596L111.493 275.234C111.746 275.954 112.199 276.587 112.799 277.059C113.398 277.531 114.12 277.823 114.879 277.9L133.931 280.014L136.269 278.534Z" fill="#2C374A"/>
<path d="M133.928 280.014H134.021L174.612 277.969C175.094 277.944 175.546 277.729 175.87 277.371C176.193 277.013 176.361 276.542 176.337 276.06C176.312 275.578 176.098 275.125 175.74 274.802C175.382 274.478 174.91 274.31 174.428 274.335L133.837 276.387C133.361 276.407 132.912 276.614 132.586 276.962C132.26 277.31 132.084 277.773 132.096 278.249C132.108 278.726 132.307 279.179 132.649 279.511C132.992 279.842 133.451 280.026 133.928 280.023V280.014Z" fill="#2C374A"/>
<path d="M183.02 238.921C182.983 238.921 182.947 238.913 182.913 238.899C182.879 238.885 182.848 238.864 182.822 238.838C182.795 238.812 182.775 238.781 182.761 238.747C182.747 238.713 182.739 238.677 182.739 238.64C182.711 230.07 186.008 218.73 186.042 218.616C186.063 218.545 186.111 218.484 186.176 218.448C186.242 218.412 186.319 218.404 186.39 218.425C186.462 218.446 186.522 218.494 186.558 218.559C186.594 218.625 186.602 218.702 186.582 218.773C186.548 218.887 183.272 230.152 183.301 238.638C183.301 238.675 183.294 238.712 183.28 238.746C183.266 238.78 183.245 238.812 183.219 238.838C183.193 238.864 183.162 238.885 183.128 238.899C183.094 238.913 183.057 238.921 183.02 238.921Z" fill="black"/>
<path d="M201.481 243.089C201.42 243.087 201.361 243.066 201.313 243.029C201.255 242.982 201.218 242.915 201.209 242.84C201.201 242.766 201.222 242.691 201.268 242.633C201.357 242.521 210.179 231.304 213.199 223.651C213.212 223.615 213.231 223.583 213.256 223.555C213.281 223.527 213.312 223.505 213.346 223.489C213.38 223.474 213.417 223.465 213.454 223.464C213.492 223.463 213.529 223.47 213.564 223.483C213.599 223.496 213.631 223.516 213.659 223.541C213.686 223.567 213.708 223.597 213.724 223.631C213.739 223.665 213.748 223.702 213.749 223.74C213.75 223.777 213.744 223.814 213.731 223.849C210.681 231.578 201.806 242.86 201.718 242.974C201.691 243.011 201.655 243.041 201.614 243.061C201.572 243.081 201.527 243.091 201.481 243.089Z" fill="black"/>
<path d="M213.986 260.337L212.382 258.067C212.338 258.006 212.319 257.93 212.331 257.855C212.343 257.781 212.384 257.714 212.445 257.67C212.506 257.626 212.582 257.607 212.656 257.619C212.731 257.631 212.797 257.672 212.842 257.733L214.179 259.631C226.698 254.142 234.447 239.163 234.526 239.011C234.56 238.945 234.619 238.894 234.69 238.871C234.761 238.848 234.838 238.854 234.904 238.888C234.971 238.922 235.021 238.981 235.044 239.052C235.067 239.123 235.061 239.2 235.027 239.267C234.949 239.422 227.024 254.744 214.192 260.238L213.986 260.337Z" fill="black"/>
</g>
<defs>
<linearGradient id="paint0_linear_3832_19024" x1="553.37" y1="527.249" x2="217.22" y2="233.151" gradientUnits="userSpaceOnUse">
<stop stop-color="#DAE3FE"/>
<stop offset="1" stop-color="#E9EFFD"/>
</linearGradient>
<linearGradient id="paint1_linear_3832_19024" x1="144.894" y1="240.502" x2="171.823" y2="272.522" gradientUnits="userSpaceOnUse">
<stop stop-color="#FEBBBA"/>
<stop offset="1" stop-color="#FF928E"/>
</linearGradient>
<linearGradient id="paint2_linear_3832_19024" x1="176.29" y1="269.638" x2="122.463" y2="196.009" gradientUnits="userSpaceOnUse">
<stop stop-color="#FEBBBA"/>
<stop offset="1" stop-color="#FF928E"/>
</linearGradient>
<linearGradient id="paint3_linear_3832_19024" x1="209.213" y1="208.618" x2="207.229" y2="190.774" gradientUnits="userSpaceOnUse">
<stop stop-color="#FEBBBA"/>
<stop offset="1" stop-color="#FF928E"/>
</linearGradient>
<linearGradient id="paint4_linear_3832_19024" x1="198.639" y1="193.052" x2="207.379" y2="164.23" gradientUnits="userSpaceOnUse">
<stop stop-color="#FEBBBA"/>
<stop offset="1" stop-color="#FF928E"/>
</linearGradient>
<linearGradient id="paint5_linear_3832_19024" x1="207.689" y1="195.796" x2="216.43" y2="166.974" gradientUnits="userSpaceOnUse">
<stop stop-color="#FEBBBA"/>
<stop offset="1" stop-color="#FF928E"/>
</linearGradient>
<clipPath id="clip0_3832_19024">
<rect width="465" height="468" fill="white" transform="translate(55 55)"/>
</clipPath>
</defs>
</svg>
