<svg id="Component_1_1" data-name="Component 1 – 1" xmlns="http://www.w3.org/2000/svg" width="90" height="90" viewBox="0 0 90 90">
  <circle id="Ellipse_3" data-name="Ellipse 3" cx="45" cy="45" r="45" fill="#f2f9ff"/>
  <g id="_1" data-name="1" transform="translate(23.875 26)">
    <path id="Path_1" data-name="Path 1" d="M16.328,0A8.867,8.867,0,1,0,25.12,8.867,8.839,8.839,0,0,0,16.328,0Zm0,15.2a6.333,6.333,0,1,1,6.28-6.333A6.315,6.315,0,0,1,16.328,15.2Z" fill="#1fc9aa"/>
    <circle id="Ellipse_8" data-name="Ellipse 8" cx="7" cy="7" r="7" transform="translate(28 8)" fill="#2f7bff"/>
    <path id="Path_2" data-name="Path 2" d="M16.329,20.267A16.417,16.417,0,0,0,0,36.733a1.256,1.256,0,1,0,2.513,0,13.816,13.816,0,1,1,27.632,0,1.256,1.256,0,1,0,2.513,0A16.418,16.418,0,0,0,16.329,20.267Z" fill="#1fc9aa"/>
    <circle id="Ellipse_9" data-name="Ellipse 9" cx="7.25" cy="7.25" r="7.25" transform="translate(27.75 7.75)" fill="none" stroke="#1fc9aa" stroke-width="1.5"/>
    <path id="Path_3" data-name="Path 3" d="M37.665,16.943a1.992,1.992,0,0,1-.594,1.485,2.545,2.545,0,0,1-1.54.693V20.1h-.693v-.968a3.116,3.116,0,0,1-1.54-.5,2.456,2.456,0,0,1-.913-1.155l.88-.506a1.728,1.728,0,0,0,1.573,1.155V15.469q-.5-.176-.8-.319a4.289,4.289,0,0,1-.627-.407,1.606,1.606,0,0,1-.5-.616,2.238,2.238,0,0,1-.154-.858,1.907,1.907,0,0,1,.594-1.452,2.445,2.445,0,0,1,1.485-.649V10.2h.693v.979a2.55,2.55,0,0,1,1.177.462,2.46,2.46,0,0,1,.8,1.012l-.858.484a1.447,1.447,0,0,0-1.122-.957v2.53q.506.187.8.33a3.991,3.991,0,0,1,.649.407,1.52,1.52,0,0,1,.517.627A2.136,2.136,0,0,1,37.665,16.943Zm-3.894-3.674a.945.945,0,0,0,.253.682,2.4,2.4,0,0,0,.814.495V12.169a1.32,1.32,0,0,0-.781.363A1,1,0,0,0,33.771,13.269Zm1.76,4.84a1.332,1.332,0,0,0,.814-.385,1.09,1.09,0,0,0,.3-.77.945.945,0,0,0-.275-.715,2.527,2.527,0,0,0-.836-.517Z" fill="#fff"/>
  </g>
</svg>
