<svg id="Component_4_1" data-name="Component 4 – 1" xmlns="http://www.w3.org/2000/svg" width="90" height="90" viewBox="0 0 90 90">
  <circle id="Ellipse_7" data-name="Ellipse 7" cx="45" cy="45" r="45" fill="#f2f9ff"/>
  <g id="_4" data-name="4" transform="translate(22.5 21.093)">
    <path id="Path_41" data-name="Path 41" d="M30.59,26.492a.937.937,0,0,0-1.341,0L19.5,36.413a5.8,5.8,0,0,1-8.311,0,6.066,6.066,0,0,1,0-8.462l9.745-9.92a.978.978,0,0,0,0-1.365l-5.362-5.459a.934.934,0,0,0-1.34,0l-9.745,9.92a15.853,15.853,0,0,0,0,22.109,15.169,15.169,0,0,0,18.065,2.755.974.974,0,0,0,.392-1.305.94.94,0,0,0-1.282-.4A13.192,13.192,0,0,1,6.52,42.527l4.04-4.113a7.667,7.667,0,0,0,10.284-.636l4.784-4.87L29.651,37l-1.768,1.8a.978.978,0,0,0,0,1.365.937.937,0,0,0,1.341,0l6.728-6.85a.978.978,0,0,0,0-1.365ZM14.905,13.254l4.022,4.094-2.95,3-4.022-4.094ZM5.831,22.492l4.784-4.87,4.022,4.095-4.784,4.87A8.03,8.03,0,0,0,9.22,37.048L5.18,41.16A13.9,13.9,0,0,1,5.831,22.492Zm25.16,13.144-4.022-4.095,2.95-3,4.022,4.095Z" fill="#1fc9aa"/>
    <path id="Path_42" data-name="Path 42" d="M26.758,19.208l-2.219,2.259a.978.978,0,0,0,0,1.365.934.934,0,0,0,1.34,0L28.1,20.574a.978.978,0,0,0,0-1.365A.936.936,0,0,0,26.758,19.208Z" fill="#1fc9aa"/>
    <path id="Path_43" data-name="Path 43" d="M18.027,9.676a.936.936,0,0,0,.67-.283L19.86,8.209a.978.978,0,0,0,0-1.365.937.937,0,0,0-1.341,0L17.356,8.028a.978.978,0,0,0,0,1.365A.937.937,0,0,0,18.027,9.676Z" fill="#1fc9aa"/>
    <path id="Path_44" data-name="Path 44" d="M38.695,27.795l-1.163,1.184a.978.978,0,0,0,0,1.365.934.934,0,0,0,1.34,0l1.164-1.184a.978.978,0,0,0,0-1.365A.936.936,0,0,0,38.695,27.795Z" fill="#1fc9aa"/>
    <path id="Path_45" data-name="Path 45" d="M25.538,41.588a.945.945,0,0,0-.67.283.976.976,0,0,0,0,1.364.934.934,0,0,0,1.34,0,.976.976,0,0,0,0-1.364A.944.944,0,0,0,25.538,41.588Z" fill="#1fc9aa"/>
    <circle id="Ellipse_13" data-name="Ellipse 13" cx="3.5" cy="3.5" r="3.5" transform="translate(34 1)" fill="#2f7bff"/>
    <path id="Path_46" data-name="Path 46" d="M37.5,0a4.073,4.073,0,1,0,4.038,4.073A4.06,4.06,0,0,0,37.5,0Zm0,6.982a2.909,2.909,0,1,1,2.884-2.909A2.9,2.9,0,0,1,37.5,6.982Z" fill="#1fc9aa"/>
    <path id="Path_47" data-name="Path 47" d="M37.5,9.309A7.541,7.541,0,0,0,30,16.872a.577.577,0,1,0,1.154,0,6.346,6.346,0,1,1,12.692,0,.577.577,0,1,0,1.154,0A7.541,7.541,0,0,0,37.5,9.309Z" fill="#1fc9aa"/>
  </g>
</svg>
