<svg width="323" height="339" viewBox="0 0 323 339" fill="none" xmlns="http://www.w3.org/2000/svg">
<path d="M118.49 64.3505C116.034 58.4791 118.809 51.7307 124.69 49.2777C130.57 46.8246 137.329 49.5957 139.786 55.4672C142.243 61.3386 139.467 68.087 133.587 70.5401C127.706 72.9931 120.947 70.222 118.49 64.3505Z" fill="#006BCA" stroke="#070707" stroke-width="0.5" stroke-miterlimit="10"/>
<path d="M129.126 67.4885C124.936 67.4885 121.54 64.0978 121.54 59.915C121.54 55.7323 124.936 52.3416 129.126 52.3416C133.315 52.3416 136.711 55.7323 136.711 59.915C136.711 64.0978 133.315 67.4885 129.126 67.4885Z" stroke="black" stroke-width="1.133" stroke-miterlimit="10"/>
<path d="M162.997 68.5607C163.137 69.1184 163.702 69.4543 164.26 69.2958C166.577 68.6367 171.788 66.6404 174.245 72.4837C176.733 78.3904 171.858 83.4732 168.399 84.652C167.402 84.9942 165.117 85.8561 164.641 86.7941C163.175 89.6841 167.307 112.582 171.255 120.339C171.553 135.157 149.382 155.424 149.382 155.424C149.382 155.424 143.548 147.211 138.864 129.288C138.864 129.288 137.404 96.947 137.188 96.8266C133.564 94.7985 119.218 95.9076 119.542 70.5887C119.84 47.1331 136.191 44.2114 140.438 43.7931C144.018 43.4382 156.078 40.8588 162.997 68.5607Z" fill="white" stroke="black" stroke-miterlimit="10"/>
<path d="M128.64 44.8075C128.64 44.8075 142.205 75.9444 163.704 69.2645C163.704 69.2708 168.775 29.1852 128.64 44.8075Z" fill="black"/>
<path d="M143.222 41.6395L143.221 41.6395C142.92 41.6065 142.627 41.5903 142.327 41.5737C142.175 41.5653 142.021 41.5568 141.863 41.5459C141.001 41.5475 139.134 41.796 137.207 42.21C135.682 42.5376 134.154 42.9619 133.073 43.4336C135.41 43.653 137.769 44.1809 140.122 45.0662C150.068 48.8005 156.959 59.4859 159.985 69.4017C160.268 69.3575 160.613 69.2654 161.002 69.1394C161.483 68.9834 162.014 68.7809 162.55 68.5686C162.768 68.4826 162.986 68.3946 163.203 68.3075C163.95 68.0072 164.671 67.7173 165.212 67.5547C164.702 55.0741 155.637 42.9912 143.222 41.6395Z" fill="#006BCA" stroke="black" stroke-width="0.5"/>
<path d="M172.098 74.9742C172.098 74.9742 166.296 68.326 164.57 79.9049L172.098 74.9742Z" fill="#FF8163"/>
<path d="M124.542 78.5498L134 80.3497C134 80.3497 130.769 84.4375 128.122 83.4425C125.475 82.4411 124.542 78.5498 124.542 78.5498Z" fill="black"/>
<path d="M129.199 70.7478L129.555 77.0284L126.311 76.5658C125.714 76.477 125.422 75.7862 125.784 75.3046L129.199 70.7478Z" fill="black"/>
<path d="M139.227 65.5443C140.23 66.3492 138.827 62.9585 137.418 62.4832C136.009 62.0079 134.53 62.6099 134.123 63.8268C134.123 63.8268 136.821 63.6176 139.227 65.5443Z" fill="black"/>
<path d="M121.908 64.0224C120.81 64.6879 122.638 61.5064 124.098 61.2212C125.558 60.9296 126.941 61.7155 127.195 62.9704C127.195 62.9704 124.542 62.419 121.908 64.0224Z" fill="black"/>
<path d="M135.663 71.2349C135.542 72.3376 135.009 73.1869 134.476 73.1235C133.943 73.0664 133.606 72.1221 133.727 71.0194C133.848 69.9166 134.381 69.0674 134.914 69.1308C135.447 69.1941 135.784 70.1321 135.663 71.2349Z" fill="black"/>
<path d="M126.942 69.7394C126.827 70.7915 126.32 71.6027 125.805 71.5456C125.291 71.4886 124.974 70.5886 125.088 69.5366C125.202 68.4846 125.71 67.6733 126.224 67.7304C126.738 67.7874 127.056 68.6874 126.942 69.7394Z" fill="black"/>
<path d="M136.229 96.3516C136.229 96.3516 141.384 97.4353 146.506 95.6354C151.635 93.8355 141.58 106.834 136.229 96.3516Z" fill="black"/>
<path d="M164.406 323.396L163.92 323.512C162.758 318.638 155.217 319.709 155.801 324.684C156.159 327.707 156.292 330.735 156.491 335.283C156.522 335.994 156.555 336.743 156.591 337.534H156.09M164.406 323.396C163.752 320.653 161.288 319.601 159.135 319.91C158.057 320.064 157.019 320.56 156.286 321.385C155.546 322.219 155.143 323.362 155.305 324.743L155.305 324.743C155.66 327.746 155.792 330.753 155.991 335.301C156.022 336.006 156.055 336.749 156.09 337.534M164.406 323.396C164.753 324.851 165.177 326.371 165.675 328.156C165.778 328.527 165.884 328.909 165.994 329.304C166.607 331.515 167.316 334.125 168.109 337.43H230.536C224.384 306.388 219.474 284.388 217.516 276.731C211.428 252.964 205.836 239.243 195.291 220.598C188.738 220.396 181.77 219.902 174.667 219.399C170.238 219.085 165.757 218.767 161.291 218.514C149.623 217.853 138.025 217.631 127.574 219.043M164.406 323.396L127.269 218.58M156.09 337.534C156.098 337.699 156.105 337.866 156.113 338.034H99.8907C99.903 337.868 99.9153 337.701 99.9276 337.534M156.09 337.534H99.9276M99.9276 337.534H99.4263C103.121 287.704 111.504 244.591 127.269 218.58M99.9276 337.534C103.613 287.856 111.958 244.959 127.574 219.043M127.574 219.043C127.495 219.053 127.416 219.064 127.338 219.075L127.269 218.58M127.574 219.043C127.615 218.975 127.656 218.907 127.697 218.839L127.269 218.58" fill="#282B3B" stroke="black"/>
<path opacity="0.21" d="M127.609 227.782L223.336 297.509C223.336 297.509 215.928 256.403 200.479 227.44L127.609 227.782Z" fill="black"/>
<path d="M27.4698 178.69C27.4698 178.69 46.1125 195.871 76.2504 217.793L76.2948 217.901C76.3456 217.876 76.3964 217.85 76.4471 217.825C78.2816 218.116 85.4669 221.786 86.9903 221.653C86.9903 221.653 105.658 228.954 118.544 186.213C120.448 182.391 147.507 136.266 147.945 135.733C147.945 135.733 144.753 126.125 144.505 125.916C127.443 111.27 108.991 169.957 92.227 189.92C91.5351 190.744 90.3862 191.017 89.3897 190.611C87.3204 189.762 84.4831 188.361 84.4831 188.361L66.9132 179.767L36.077 159.721C36.077 159.721 33.6841 149.099 32.8526 147.908C31.2974 147.433 24.9626 147.192 24.9626 147.192C24.9626 147.192 5.48216 130.777 5.48216 134.783C5.48216 137.172 15.9999 148.985 15.9999 148.985C15.9999 148.985 10.6236 155.551 10.2618 159.842C9.89999 164.132 27.4698 178.69 27.4698 178.69Z" fill="white" stroke="black" stroke-miterlimit="10"/>
<path d="M87.77 186.698L87.4989 187.066L87.1084 186.829L60.6321 170.769C60.533 170.922 60.4073 171.115 60.2573 171.345C59.847 171.974 59.255 172.877 58.5273 173.974C57.0723 176.167 55.0746 179.137 52.905 182.242C50.7359 185.347 48.392 188.59 46.2449 191.329C44.3302 193.771 42.5456 195.846 41.1699 197.054C41.1791 197.062 41.1884 197.07 41.1979 197.078C41.5029 197.345 41.9528 197.735 42.5311 198.23C43.6877 199.219 45.3578 200.625 47.41 202.291C51.5153 205.624 57.146 209.992 63.2524 214.142C69.3626 218.294 75.9307 222.214 81.9134 224.66C84.9044 225.884 87.7326 226.732 90.2728 227.062C92.8149 227.393 95.0356 227.201 96.8396 226.38L96.8397 226.38C98.6332 225.565 100.782 223.44 103.181 220.232C105.566 217.044 108.148 212.857 110.824 208.011C116.177 198.321 121.883 186.045 127.114 173.974C132.345 161.906 137.097 150.054 140.541 141.219C142.263 136.802 143.658 133.139 144.623 130.581C145.105 129.301 145.479 128.298 145.733 127.615C145.852 127.297 145.944 127.049 146.008 126.874C145.977 126.845 145.943 126.814 145.905 126.78C145.684 126.582 145.352 126.304 144.914 125.989C144.036 125.358 142.738 124.583 141.058 124.011C137.716 122.873 132.823 122.526 126.675 125.826C125.303 126.564 123.757 127.911 122.08 129.76C120.408 131.604 118.631 133.92 116.794 136.565C113.12 141.856 109.228 148.431 105.483 155.105C102.753 159.969 100.106 164.878 97.6823 169.374C96.7809 171.046 95.9103 172.661 95.0776 174.195C92.0151 179.838 89.4504 184.421 87.77 186.698Z" fill="#2F7BFF" stroke="black"/>
<path opacity="0.93" d="M112.099 169.46C117.494 152.671 127.187 137.886 139.221 125.09C140.015 124.247 140.339 123.626 140.51 122.707C143.563 123.899 145.41 125.464 145.41 125.464C145.41 125.464 123.162 186.679 106.494 213.937C106.049 198.898 107.459 183.897 112.099 169.46Z" fill="#276BE1"/>
<path d="M138.345 120.848C138.202 121.258 137.998 121.779 137.744 122.393C137.161 123.806 136.297 125.754 135.248 128.086C134.867 128.935 134.461 129.835 134.035 130.78C132.116 135.033 129.79 140.19 127.466 145.622C124.626 152.261 121.793 159.299 119.718 165.584C117.635 171.892 116.34 177.368 116.519 180.915L116.519 180.915C116.799 186.512 117.344 193.839 117.869 200.897C118.034 203.105 118.196 205.286 118.347 207.38C118.665 211.769 118.936 215.774 119.078 218.821C119.15 220.344 119.189 221.634 119.186 222.615C119.184 223.106 119.172 223.526 119.147 223.863C119.139 223.973 119.129 224.08 119.116 224.181C119.247 224.22 119.41 224.268 119.608 224.322C120.235 224.493 121.207 224.729 122.575 224.982C125.31 225.489 129.624 226.066 135.912 226.334C148.43 226.868 168.765 226.178 200.026 221.285C199.753 214.357 198.738 191.722 197.781 170.602C197.292 159.804 196.818 149.404 196.467 141.703C196.291 137.853 196.146 134.677 196.044 132.464L195.927 129.903L195.898 129.272L195.894 129.269C195.738 129.178 195.509 129.045 195.215 128.874C194.627 128.533 193.781 128.045 192.749 127.459C190.685 126.285 187.878 124.717 184.905 123.137C181.93 121.557 178.796 119.968 176.076 118.75C174.716 118.142 173.465 117.629 172.394 117.257C171.468 116.935 170.701 116.728 170.122 116.647C170.018 116.788 169.87 116.983 169.678 117.217C169.276 117.709 168.683 118.378 167.914 119.092C166.379 120.517 164.123 122.143 161.269 122.877C157.586 123.829 153.307 124.559 149.278 124.642L149.278 124.642C145.916 124.709 143.746 124.509 142.043 123.797C140.587 123.188 139.515 122.222 138.345 120.848Z" fill="#2F7BFF" stroke="black"/>
<path d="M123.58 152.794L136.558 123.887L138.328 125.067L135.968 131.556L130.659 143.945L122.99 162.233L118.86 174.622L117.68 179.931L118.86 196.449L116.5 194.679C115.085 186.656 115.911 177.178 116.5 174.032L118.86 166.362L123.58 152.794Z" fill="#2F7BFF"/>
<g opacity="0.93">
<path opacity="0.93" d="M153.908 215.656C196.941 194.996 186.42 149.86 193.113 127.685C194.418 128.465 195.211 128.951 195.211 128.951C195.211 128.951 198.82 207.67 199.301 220.169C155.787 227.008 133.634 225.612 124.281 224.172C128.801 221.903 149.287 217.875 153.908 215.656Z" fill="#2668DC"/>
</g>
<path d="M155.061 84.4077C152.604 78.5362 155.379 71.7879 161.26 69.3348C167.14 66.8817 173.899 69.6529 176.356 75.5243C178.813 81.3958 176.038 88.1441 170.157 90.5972C164.276 93.0503 157.518 90.2791 155.061 84.4077Z" fill="#006BCA" stroke="black" stroke-width="0.5" stroke-miterlimit="10"/>
<path d="M163.238 79.8101L156.65 86.9082C154.123 89.6271 150.378 90.8693 146.722 90.1975L128.727 86.8892" stroke="#006BCA" stroke-width="1.133" stroke-miterlimit="10"/>
<path d="M127.33 88.1874L131.621 89.062C132.243 89.1888 132.859 88.7895 132.986 88.1621L133.297 86.6474C133.424 86.0263 133.024 85.4115 132.395 85.2848L128.105 84.4102C127.483 84.2834 126.867 84.6827 126.74 85.3101L126.429 86.8248C126.302 87.4459 126.708 88.0543 127.33 88.1874Z" fill="#006BCA"/>
<path d="M165.708 87.5452C161.518 87.5452 158.122 84.1544 158.122 79.9717C158.122 75.789 161.518 72.3982 165.708 72.3982C169.897 72.3982 173.293 75.789 173.293 79.9717C173.293 84.1544 169.897 87.5452 165.708 87.5452Z" stroke="black" stroke-width="1.133" stroke-miterlimit="10"/>
<path d="M185.698 133.682C197.308 124.886 224.672 157.658 224.672 157.658L247.643 182.843L285.671 151.954C286.217 148.867 287.245 143.632 288.312 141.199C289.441 138.6 289.042 134.43 288.743 132.351C288.648 131.705 289.346 131.185 289.994 131.439C291.098 131.87 292.457 132.82 292.66 134.899C292.882 137.149 294.088 140.438 294.177 142.225C294.196 142.656 294.602 142.859 295.027 142.701C297.014 141.972 297.884 140.894 300.505 138.892C301.362 138.093 303.761 136.179 306.256 132.706C308.757 129.233 312.146 124.417 313.302 126.14C314.127 127.376 309.696 134.557 308.897 135.565C307.189 137.732 305.361 141.934 305.317 142.092C305.12 142.796 310.814 137.77 313.27 134.646C315.726 131.521 318.018 128.207 319.338 128.333C320.658 128.466 318.767 131.648 318.767 131.648C318.767 131.648 321.274 129.772 321.947 130.545C322.404 131.071 319.808 136.198 317.891 139.583C321.42 137.238 321.433 139.019 321.433 139.019C321.433 139.019 315.98 147.004 313.448 148.493C311.41 149.691 308.687 152.98 308.23 153.646C307.792 154.28 300.734 160.896 293.993 163.964C288.242 171.15 242.591 227.796 236.916 223.005C194.515 187.159 169.182 146.193 185.698 133.682Z" fill="white" stroke="#010101" stroke-miterlimit="10"/>
<path d="M222.632 152.207L222.625 152.199L222.619 152.19L223.013 151.883C222.619 152.19 222.619 152.19 222.618 152.19L222.618 152.189L222.614 152.184L222.599 152.165L222.537 152.087C222.483 152.018 222.402 151.915 222.296 151.782C222.084 151.515 221.77 151.124 221.366 150.629C220.558 149.64 219.39 148.238 217.95 146.586C215.069 143.28 211.104 138.981 206.763 134.993C202.415 131 197.719 127.347 193.374 125.308C189.012 123.26 185.17 122.908 182.35 125.203L182.034 124.815L182.349 125.203C178.186 128.59 176.608 133.931 177.349 140.787C178.09 147.649 181.151 155.952 186.166 165.116C196.192 183.439 213.954 205.072 236.216 225.277C236.361 225.408 236.591 225.508 236.957 225.53C237.326 225.553 237.799 225.494 238.38 225.34C239.541 225.032 241.038 224.368 242.807 223.381C246.34 221.412 250.864 218.215 255.791 214.232C265.561 206.336 276.857 195.401 285.073 184.968C283.28 181.904 280.166 177.67 276.993 173.424C276.586 172.88 276.178 172.335 275.772 171.793C273.093 168.218 270.495 164.749 268.78 162.133L247.501 180.691L247.119 181.024L246.791 180.638L222.632 152.207Z" fill="#2F7BFF" stroke="black"/>
<path d="M321.828 337.304L0.898548 337.304" stroke="#1A1A1A" stroke-width="1.133" stroke-miterlimit="10"/>
<path d="M81.228 73.2831L72.4367 64.5054H39.3282C32.5871 64.5054 27.1219 59.0487 27.1219 52.3245V49.6817C27.1219 42.9511 32.5871 37.4944 39.3282 37.4944H69.0281C75.7692 37.4944 81.2344 42.9511 81.2344 49.6817V73.2831H81.228Z" fill="#1FC9AA"/>
<path d="M44.7148 50.6647C44.7148 52.3441 43.3501 53.7004 41.6744 53.7004C39.9923 53.7004 38.634 52.3378 38.634 50.6647C38.634 48.9852 39.9987 47.6289 41.6744 47.6289C43.3501 47.6226 44.7148 48.9852 44.7148 50.6647Z" fill="white"/>
<path d="M55.8711 50.6647C55.8711 52.3441 54.5064 53.7004 52.8243 53.7004C51.1422 53.7004 49.7838 52.3378 49.7838 50.6647C49.7838 48.9852 51.1486 47.6289 52.8243 47.6289C54.5064 47.6226 55.8711 48.9852 55.8711 50.6647Z" fill="white"/>
<path d="M67.0312 50.6647C67.0312 52.3441 65.6665 53.7004 63.9908 53.7004C62.3087 53.7004 60.9503 52.3378 60.9503 50.6647C60.9503 48.9852 62.315 47.6289 63.9908 47.6289C65.6665 47.6226 67.0312 48.9852 67.0312 50.6647Z" fill="white"/>
<path d="M88.5033 35.7887L97.2946 27.0111H130.403C137.144 27.0111 142.609 21.5543 142.609 14.8301V12.1873C142.609 5.45671 137.151 0 130.409 0H100.71C93.9685 0 88.5033 5.45671 88.5033 12.1873V35.7887Z" fill="#ABCAFF"/>
<path d="M125.028 13.1705C125.028 14.85 126.393 16.2063 128.069 16.2063C129.751 16.2063 131.109 14.8437 131.109 13.1705C131.109 11.491 129.745 10.1348 128.069 10.1348C126.393 10.1284 125.028 11.491 125.028 13.1705Z" fill="#2F7BFF"/>
<path d="M113.87 13.1705C113.87 14.85 115.234 16.2063 116.917 16.2063C118.599 16.2063 119.957 14.8437 119.957 13.1705C119.957 11.491 118.592 10.1348 116.917 10.1348C115.234 10.1284 113.87 11.491 113.87 13.1705Z" fill="#2F7BFF"/>
<path d="M102.712 13.1705C102.712 14.85 104.077 16.2063 105.753 16.2063C107.435 16.2063 108.793 14.8437 108.793 13.1705C108.793 11.491 107.428 10.1348 105.753 10.1348C104.07 10.1284 102.712 11.491 102.712 13.1705Z" fill="#2F7BFF"/>
</svg>
