<svg id="Component_2_1" data-name="Component 2 – 1" xmlns="http://www.w3.org/2000/svg" width="90" height="90" viewBox="0 0 90 90">
  <circle id="Ellipse_1" data-name="Ellipse 1" cx="45" cy="45" r="45" fill="#f2f9ff"/>
  <g id="_2" data-name="2" transform="translate(19.499 19.499)">
    <path id="Path_4" data-name="Path 4" d="M45.9,28.05v-1.7a.85.85,0,0,0,.85-.85V20.4a.85.85,0,0,0-.85-.85H41.31l-.164-.638a15.693,15.693,0,0,0-1.734-4.153l-.34-.569,3.259-3.265a.843.843,0,0,0,0-1.19L38.721,6.12a.863.863,0,0,0-1.19,0L34.266,9.385l-.569-.34A15.75,15.75,0,0,0,29.539,7.31L28.9,7.144V2.55a.85.85,0,0,0-.85-.85h-5.1a.85.85,0,0,0-.85.85V7.14l-.639.165a15.762,15.762,0,0,0-4.154,1.732l-.569.341L13.476,6.12a.863.863,0,0,0-1.194,0L8.671,9.73a.845.845,0,0,0,0,1.2l3.265,3.265-.34.569a15.7,15.7,0,0,0-1.734,4.153L9.7,19.55H5.1a.85.85,0,0,0-.85.85v5.1a.85.85,0,0,0,.85.85v1.7a2.55,2.55,0,0,1-2.55-2.55V20.4A2.55,2.55,0,0,1,5.1,17.85H8.389A17.4,17.4,0,0,1,9.8,14.464L7.466,12.126a2.541,2.541,0,0,1,0-3.6l3.612-3.612a2.6,2.6,0,0,1,3.6,0l2.337,2.337A17.4,17.4,0,0,1,20.4,5.839V2.55A2.551,2.551,0,0,1,22.95,0h5.1A2.55,2.55,0,0,1,30.6,2.55v3.29a17.315,17.315,0,0,1,3.386,1.414l2.338-2.338a2.6,2.6,0,0,1,3.6,0l3.612,3.611a2.543,2.543,0,0,1,0,3.6L41.2,14.463a17.431,17.431,0,0,1,1.414,3.387H45.9a2.55,2.55,0,0,1,2.55,2.55v5.1A2.551,2.551,0,0,1,45.9,28.05Z" fill="#1fc9aa"/>
    <path id="Path_5" data-name="Path 5" d="M37.4,22.95H35.7a10.2,10.2,0,1,0-20.4,0H13.6a11.9,11.9,0,1,1,23.8,0Z" fill="#1fc9aa"/>
    <circle id="Ellipse_10" data-name="Ellipse 10" cx="3.5" cy="3.5" r="3.5" transform="translate(22 21)" fill="#2f7bff"/>
    <circle id="Ellipse_11" data-name="Ellipse 11" cx="4" cy="4" r="4" transform="translate(36 24)" fill="#2f7bff"/>
    <circle id="Ellipse_12" data-name="Ellipse 12" cx="4" cy="4" r="4" transform="translate(7 24)" fill="#2f7bff"/>
    <path id="Path_6" data-name="Path 6" d="M25.5,29.75a5.1,5.1,0,1,1,5.1-5.1A5.1,5.1,0,0,1,25.5,29.75Zm0-8.5a3.4,3.4,0,1,0,3.4,3.4A3.4,3.4,0,0,0,25.5,21.25Z" fill="#1fc9aa"/>
    <path id="Path_7" data-name="Path 7" d="M39.952,33.15a5.1,5.1,0,1,1,5.1-5.1A5.1,5.1,0,0,1,39.952,33.15Zm0-8.5a3.4,3.4,0,1,0,3.4,3.4A3.4,3.4,0,0,0,39.952,24.65Z" fill="#1fc9aa"/>
    <path id="Path_8" data-name="Path 8" d="M11.05,33.15a5.1,5.1,0,1,1,5.1-5.1A5.1,5.1,0,0,1,11.05,33.15Zm0-8.5a3.4,3.4,0,1,0,3.4,3.4A3.4,3.4,0,0,0,11.05,24.65Z" fill="#1fc9aa"/>
    <path id="Path_9" data-name="Path 9" d="M47.656,35.331A7.563,7.563,0,0,0,43.35,34h-6.8a7.593,7.593,0,0,0-1.234.111,7.635,7.635,0,0,0-2.081-2.16,3.285,3.285,0,0,0-.392-.254A7.593,7.593,0,0,0,28.9,30.6H22.1a7.564,7.564,0,0,0-6.414,3.512A7.626,7.626,0,0,0,14.449,34H7.65a7.569,7.569,0,0,0-4.3,1.329A7.65,7.65,0,0,0,0,41.65v3.4a5.957,5.957,0,0,0,3.462,5.4A5.752,5.752,0,0,0,5.95,51h8.5V49.3H6.8V39.951H5.1v9.265a3.982,3.982,0,0,1-.925-.307A4.256,4.256,0,0,1,1.7,45.051v-3.4a5.956,5.956,0,0,1,2.606-4.918A5.882,5.882,0,0,1,7.651,35.7h6.8c.15,0,.295.016.44.026a7.638,7.638,0,0,0-.44,2.524v8.5A4.255,4.255,0,0,0,18.7,51h2.55V37.4h-1.7V49.3H18.7a2.55,2.55,0,0,1-2.55-2.55v-8.5A5.95,5.95,0,0,1,22.1,32.3h6.8a5.938,5.938,0,0,1,3.1.874,2.147,2.147,0,0,1,.248.158,6.022,6.022,0,0,1,1.906,2.125,5.933,5.933,0,0,1,.7,2.792v8.5A2.55,2.55,0,0,1,32.3,49.3h-.85V37.4h-1.7V51H32.3a4.255,4.255,0,0,0,4.25-4.25v-8.5a7.682,7.682,0,0,0-.439-2.524c.146-.01.291-.026.439-.026h6.8A5.886,5.886,0,0,1,46.7,36.734a5.956,5.956,0,0,1,2.6,4.917v3.4a4.258,4.258,0,0,1-2.488,3.864,3.91,3.91,0,0,1-.912.3V39.951H44.2V49.3h-7.65V51h8.5a5.748,5.748,0,0,0,2.474-.542A5.958,5.958,0,0,0,51,45.051v-3.4A7.654,7.654,0,0,0,47.656,35.331Z" fill="#1fc9aa"/>
    <path id="Path_10" data-name="Path 10" d="M22.1,49.3h6.8V51H22.1Z" fill="#1fc9aa"/>
  </g>
</svg>
