<svg id="Component_5_1" data-name="Component 5 – 1" xmlns="http://www.w3.org/2000/svg" width="90" height="90" viewBox="0 0 90 90">
  <circle id="Ellipse_5" data-name="Ellipse 5" cx="45" cy="45" r="45" fill="#f2f9ff"/>
  <g id="_5" data-name="5" transform="translate(28.503 24.764)">
    <path id="Path_28" data-name="Path 28" d="M16.031,5.234H12.82V8.42h3.211Z" fill="#2f7bff"/>
    <path id="Path_29" data-name="Path 29" d="M9.414,5.234H6.2V8.42H9.414Z" fill="#2f7bff"/>
    <rect id="Rectangle_7" data-name="Rectangle 7" width="39.258" height="20.779" rx="1.5" transform="translate(21.277 0.5) rotate(90)" fill="none" stroke="#1fc9aa" stroke-width="1"/>
    <path id="Path_30" data-name="Path 30" d="M27.441,17.5H24.23v3.186h3.211Z" fill="#2f7bff"/>
    <rect id="Rectangle_8" data-name="Rectangle 8" width="17.159" height="27.059" transform="translate(5.941 12.54)" fill="#f4f9ff"/>
    <path id="Path_31" data-name="Path 31" d="M20.824,17.5H17.613v3.186h3.211Z" fill="#2f7bff"/>
    <path id="Path_32" data-name="Path 32" d="M14.211,17.5H11v3.186h3.211Z" fill="#2f7bff"/>
    <path id="Path_33" data-name="Path 33" d="M27.441,23.873H24.23v3.186h3.211Z" fill="#2f7bff"/>
    <path id="Path_34" data-name="Path 34" d="M20.824,23.873H17.613v3.186h3.211Z" fill="#2f7bff"/>
    <path id="Path_35" data-name="Path 35" d="M14.211,23.873H11v3.186h3.211Z" fill="#2f7bff"/>
    <path id="Path_36" data-name="Path 36" d="M20.824,30.25H17.613v3.186h3.211Z" fill="#2f7bff"/>
    <path id="Path_37" data-name="Path 37" d="M27.633,30.358H24.422v3.186h3.211Z" fill="#2f7bff"/>
    <path id="Path_38" data-name="Path 38" d="M14.211,30.25H11v3.186h3.211Z" fill="#2f7bff"/>
    <rect id="Rectangle_9" data-name="Rectangle 9" width="28.136" height="27.204" rx="1.5" transform="translate(32.496 11.837) rotate(90)" fill="none" stroke="#1fc9aa" stroke-width="1"/>
  </g>
</svg>
