<svg width="149" height="46" viewBox="0 0 149 46" fill="none" xmlns="http://www.w3.org/2000/svg">
<rect x="1.36835" y="0.568542" width="147.11" height="44.8633" rx="6.78167" fill="#0C0D10"/>
<path d="M96.3295 21.1959V23.3246H94.9126V24.7205H96.3295V29.4637C96.3295 31.0833 97.1076 31.7311 99.0651 31.7311C99.4091 31.7311 99.7367 31.6926 100.023 31.6463V30.2658C99.7776 30.2889 99.622 30.3043 99.3517 30.3043C98.4754 30.3043 98.0904 29.9187 98.0904 29.0395V24.7205H100.023V23.3246H98.0904V21.1959H96.3295Z" fill="white"/>
<path d="M105.01 31.8468C107.614 31.8468 109.211 30.2041 109.211 27.4816C109.211 24.7745 107.606 23.124 105.01 23.124C102.405 23.124 100.8 24.7745 100.8 27.4816C100.8 30.2041 102.397 31.8468 105.01 31.8468ZM105.01 30.3738C103.478 30.3738 102.618 29.3171 102.618 27.4816C102.618 25.6614 103.478 24.5971 105.01 24.5971C106.533 24.5971 107.401 25.6614 107.401 27.4816C107.401 29.3094 106.533 30.3738 105.01 30.3738Z" fill="white"/>
<path d="M110.578 31.6849H112.339V26.7258C112.339 25.5457 113.281 24.7514 114.616 24.7514C114.927 24.7514 115.451 24.8054 115.599 24.8516V23.2166C115.41 23.1703 115.074 23.1472 114.812 23.1472C113.649 23.1472 112.658 23.7487 112.404 24.574H112.273V23.286H110.578V31.6849Z" fill="white"/>
<path d="M119.971 24.5354C121.273 24.5354 122.125 25.3915 122.166 26.7103H117.661C117.759 25.3992 118.669 24.5354 119.971 24.5354ZM122.158 29.4174C121.83 30.073 121.101 30.4355 120.036 30.4355C118.628 30.4355 117.719 29.5022 117.661 28.0292V27.9366H123.959V27.3582C123.959 24.7205 122.461 23.124 119.979 23.124C117.465 23.124 115.868 24.8285 115.868 27.5124C115.868 30.1964 117.432 31.8468 119.987 31.8468C122.027 31.8468 123.452 30.9213 123.853 29.4174H122.158Z" fill="white"/>
<path d="M84.7818 28.5833C84.9176 30.6457 86.7427 31.9647 89.4592 31.9647C92.3624 31.9647 94.1791 30.5817 94.1791 28.3755C94.1791 26.6408 93.1434 25.6816 90.6307 25.13L89.2809 24.8182C87.685 24.4665 87.0398 23.9949 87.0398 23.1715C87.0398 22.1323 88.0415 21.4529 89.5441 21.4529C90.9702 21.4529 91.9549 22.1164 92.1332 23.1795H93.9838C93.8734 21.237 92.0568 19.8701 89.5695 19.8701C86.8955 19.8701 85.1129 21.237 85.1129 23.2914C85.1129 24.9861 86.123 25.9933 88.3386 26.4809L89.9176 26.8407C91.539 27.2004 92.2521 27.728 92.2521 28.6073C92.2521 29.6305 91.1315 30.3739 89.6035 30.3739C87.9651 30.3739 86.8276 29.6784 86.6663 28.5833H84.7818Z" fill="white"/>
<path d="M66.5406 23.1472C65.3285 23.1472 64.2801 23.7179 63.7396 24.6742H63.6085V23.286H61.9131V34.4768H63.674V30.4123H63.8133C64.2801 31.2992 65.2875 31.8237 66.557 31.8237C68.8093 31.8237 70.2426 30.1501 70.2426 27.4816C70.2426 24.8131 68.8093 23.1472 66.5406 23.1472ZM66.041 30.3352C64.5668 30.3352 63.6413 29.24 63.6413 27.4893C63.6413 25.7308 64.5668 24.6357 66.0492 24.6357C67.5398 24.6357 68.4326 25.7077 68.4326 27.4816C68.4326 29.2632 67.5398 30.3352 66.041 30.3352Z" fill="white"/>
<path d="M76.4043 23.1472C75.1921 23.1472 74.1438 23.7179 73.6032 24.6742H73.4722V23.286H71.7768V34.4768H73.5377V30.4123H73.6769C74.1438 31.2992 75.1512 31.8237 76.4207 31.8237C78.673 31.8237 80.1063 30.1501 80.1063 27.4816C80.1063 24.8131 78.673 23.1472 76.4043 23.1472ZM75.9047 30.3352C74.4305 30.3352 73.505 29.24 73.505 27.4893C73.505 25.7308 74.4305 24.6357 75.9129 24.6357C77.4035 24.6357 78.2962 25.7077 78.2962 27.4816C78.2962 29.2632 77.4035 30.3352 75.9047 30.3352Z" fill="white"/>
<path d="M58.7538 31.6849H60.7741L56.3514 20.1499H54.3056L49.8828 31.6849H51.8353L52.9643 28.6233H57.6332L58.7538 31.6849ZM55.2309 22.2443H55.3752L57.1494 27.1204H53.4482L55.2309 22.2443Z" fill="white"/>
<path d="M50.9266 10.7697V16.6546H53.0799C54.857 16.6546 55.8861 15.5738 55.8861 13.6938C55.8861 11.8423 54.8488 10.7697 53.0799 10.7697H50.9266ZM51.8524 11.6017H52.9766C54.2123 11.6017 54.9438 12.3765 54.9438 13.706C54.9438 15.0559 54.2247 15.8226 52.9766 15.8226H51.8524V11.6017Z" fill="white"/>
<path d="M59.0379 16.7402C60.3521 16.7402 61.1581 15.8715 61.1581 14.4319C61.1581 13.0005 60.348 12.1278 59.0379 12.1278C57.7236 12.1278 56.9136 13.0005 56.9136 14.4319C56.9136 15.8715 57.7195 16.7402 59.0379 16.7402ZM59.0379 15.9613C58.265 15.9613 57.8311 15.4026 57.8311 14.4319C57.8311 13.4695 58.265 12.9067 59.0379 12.9067C59.8066 12.9067 60.2447 13.4695 60.2447 14.4319C60.2447 15.3985 59.8066 15.9613 59.0379 15.9613Z" fill="white"/>
<path d="M68.0212 12.2134H67.1326L66.3308 15.6024H66.2605L65.3348 12.2134H64.4834L63.5576 15.6024H63.4915L62.6856 12.2134H61.7846L63.0245 16.6546H63.9379L64.8636 13.3839H64.9339L65.8638 16.6546H66.7854L68.0212 12.2134Z" fill="white"/>
<path d="M69.0445 16.6546H69.933V14.0568C69.933 13.3635 70.3505 12.9312 71.0076 12.9312C71.6647 12.9312 71.9788 13.286 71.9788 13.9997V16.6546H72.8674V13.7794C72.8674 12.7232 72.3136 12.1278 71.3093 12.1278C70.6315 12.1278 70.1852 12.4255 69.9661 12.9189H69.9V12.2134H69.0445V16.6546Z" fill="white"/>
<path d="M74.2668 16.6546H75.1554V10.4802H74.2668V16.6546Z" fill="white"/>
<path d="M78.4973 16.7402C79.8115 16.7402 80.6174 15.8715 80.6174 14.4319C80.6174 13.0005 79.8074 12.1278 78.4973 12.1278C77.183 12.1278 76.3729 13.0005 76.3729 14.4319C76.3729 15.8715 77.1789 16.7402 78.4973 16.7402ZM78.4973 15.9613C77.7244 15.9613 77.2904 15.4026 77.2904 14.4319C77.2904 13.4695 77.7244 12.9067 78.4973 12.9067C79.266 12.9067 79.7041 13.4695 79.7041 14.4319C79.7041 15.3985 79.266 15.9613 78.4973 15.9613Z" fill="white"/>
<path d="M83.265 15.9898C82.7814 15.9898 82.4301 15.7574 82.4301 15.3577C82.4301 14.9662 82.7112 14.7582 83.3311 14.7174L84.4305 14.6481V15.0192C84.4305 15.5698 83.9345 15.9898 83.265 15.9898ZM83.0377 16.728C83.6287 16.728 84.1205 16.4751 84.3891 16.0306H84.4594V16.6546H85.3149V13.6204C85.3149 12.6824 84.6784 12.1278 83.5501 12.1278C82.5293 12.1278 81.8019 12.6172 81.711 13.3798H82.5706C82.6698 13.0658 83.0129 12.8863 83.5088 12.8863C84.1164 12.8863 84.4305 13.1514 84.4305 13.6204V14.0037L83.2112 14.0731C82.1408 14.1383 81.5374 14.5992 81.5374 15.3985C81.5374 16.21 82.1698 16.728 83.0377 16.728Z" fill="white"/>
<path d="M88.3303 16.728C88.9502 16.728 89.4751 16.4384 89.7437 15.9531H89.814V16.6546H90.6654V10.4802H89.7768V12.9189H89.7107C89.4668 12.4296 88.9461 12.14 88.3303 12.14C87.1937 12.14 86.4622 13.0291 86.4622 14.4319C86.4622 15.8389 87.1854 16.728 88.3303 16.728ZM88.5824 12.9271C89.3263 12.9271 89.7933 13.5103 89.7933 14.436C89.7933 15.3658 89.3304 15.9409 88.5824 15.9409C87.8302 15.9409 87.3797 15.374 87.3797 14.4319C87.3797 13.498 87.8343 12.9271 88.5824 12.9271Z" fill="white"/>
<path d="M96.4275 16.7402C97.7417 16.7402 98.5476 15.8715 98.5476 14.4319C98.5476 13.0005 97.7376 12.1278 96.4275 12.1278C95.1132 12.1278 94.3031 13.0005 94.3031 14.4319C94.3031 15.8715 95.1091 16.7402 96.4275 16.7402ZM96.4275 15.9613C95.6546 15.9613 95.2206 15.4026 95.2206 14.4319C95.2206 13.4695 95.6546 12.9067 96.4275 12.9067C97.1962 12.9067 97.6343 13.4695 97.6343 14.4319C97.6343 15.3985 97.1962 15.9613 96.4275 15.9613Z" fill="white"/>
<path d="M99.7239 16.6546H100.612V14.0568C100.612 13.3635 101.03 12.9312 101.687 12.9312C102.344 12.9312 102.658 13.286 102.658 13.9997V16.6546H103.547V13.7794C103.547 12.7232 102.993 12.1278 101.989 12.1278C101.311 12.1278 100.865 12.4255 100.646 12.9189H100.579V12.2134H99.7239V16.6546Z" fill="white"/>
<path d="M107.639 11.1082V12.2338H106.924V12.972H107.639V15.48C107.639 16.3365 108.032 16.679 109.02 16.679C109.193 16.679 109.358 16.6586 109.503 16.6342V15.9042C109.379 15.9164 109.301 15.9246 109.164 15.9246C108.722 15.9246 108.528 15.7207 108.528 15.2557V12.972H109.503V12.2338H108.528V11.1082H107.639Z" fill="white"/>
<path d="M110.696 16.6546H111.584V14.0608C111.584 13.3879 111.989 12.9353 112.717 12.9353C113.345 12.9353 113.68 13.2941 113.68 14.0037V16.6546H114.568V13.7876C114.568 12.7313 113.977 12.1319 113.019 12.1319C112.341 12.1319 111.866 12.4296 111.646 12.9271H111.576V10.4802H110.696V16.6546Z" fill="white"/>
<path d="M117.774 12.8741C118.431 12.8741 118.861 13.3268 118.882 14.0241H116.608C116.658 13.3308 117.117 12.8741 117.774 12.8741ZM118.877 15.4556C118.712 15.8022 118.344 15.9939 117.807 15.9939C117.096 15.9939 116.637 15.5004 116.608 14.7215V14.6726H119.787V14.3667C119.787 12.972 119.03 12.1278 117.778 12.1278C116.509 12.1278 115.703 13.0291 115.703 14.4483C115.703 15.8675 116.493 16.7402 117.782 16.7402C118.811 16.7402 119.53 16.2508 119.733 15.4556H118.877Z" fill="white"/>
<path d="M39.8301 22.1319C39.8506 20.4405 40.7012 18.8401 42.0506 17.9542C41.1993 16.656 39.7734 15.8328 38.29 15.7833C36.7077 15.6059 35.1738 16.7943 34.3675 16.7943C33.5456 16.7943 32.3042 15.8009 30.9674 15.8302C29.2249 15.8904 27.6005 16.9482 26.7528 18.5749C24.9305 21.9439 26.2898 26.8953 28.0354 29.6186C28.9088 30.9521 29.9295 32.4417 31.2651 32.3888C32.572 32.3309 33.0601 31.4989 34.6377 31.4989C36.2007 31.4989 36.6586 32.3888 38.0213 32.3552C39.4237 32.3309 40.3073 31.0158 41.1501 29.6697C41.7776 28.7195 42.2604 27.6693 42.5808 26.5581C40.9327 25.8138 39.8321 24.0427 39.8301 22.1319Z" fill="white"/>
<path d="M37.2562 13.9923C38.0209 13.0121 38.3976 11.7522 38.3064 10.4802C37.1382 10.6112 36.0591 11.2074 35.2841 12.15C34.5262 13.071 34.1319 14.3087 34.2064 15.5321C35.3751 15.545 36.5239 14.9649 37.2562 13.9923Z" fill="white"/>
<rect x="1.36835" y="0.568542" width="147.11" height="44.8633" rx="6.78167" stroke="#A6A6A6" stroke-width="1.04333"/>
</svg>
