<svg xmlns="http://www.w3.org/2000/svg" width="67.528" height="67.528" viewBox="0 0 67.528 67.528">
    <g data-name="authentication right">
        <path d="M8.753 62.775h2.251v2.251H8.753z" data-name="Path 10039" transform="translate(-2 -2)"/>
        <path d="M2 62.775h4.5v2.251H2z" data-name="Path 10040" transform="translate(-2 -2)"/>
        <path d="M2 67.277h9v2.251H2z" data-name="Path 10041" transform="translate(-2 -2)"/>
        <path d="M2 58.273h9v2.251H2z" data-name="Path 10042" transform="translate(-2 -2)"/>
        <path d="M60.524 62.775h2.251v2.251h-2.251z" data-name="Path 10043" transform="translate(-2 -2)"/>
        <path d="M65.026 62.775h4.5v2.251h-4.5z" data-name="Path 10044" transform="translate(-2 -2)"/>
        <path d="M60.524 67.277h9v2.251h-9z" data-name="Path 10045" transform="translate(-2 -2)"/>
        <path d="M60.524 58.273h9v2.251h-9z" data-name="Path 10046" transform="translate(-2 -2)"/>
        <path d="M53.218 59.5a20.107 20.107 0 0 0 2.8-10.234v-1.122h2.176a4.582 4.582 0 0 0 4.577-4.576v-2.1a4.582 4.582 0 0 0-4.577-4.576h-1.781l6.033-6.031a1.125 1.125 0 0 0 .33-.8V18.882A16.9 16.9 0 0 0 45.893 2H25.635A16.9 16.9 0 0 0 8.753 18.882v11.18a1.125 1.125 0 0 0 .33.8l6.033 6.032H13.33a4.582 4.582 0 0 0-4.577 4.572v2.1a4.582 4.582 0 0 0 4.577 4.576h2.176v1.128a20.107 20.107 0 0 0 2.8 10.234l-3.271 3.272h-1.782v2.251h2.251a1.125 1.125 0 0 0 .8-.33l3.285-3.285a20.18 20.18 0 0 0 32.355 0l3.283 3.288a1.125 1.125 0 0 0 .8.33h2.251v-2.255h-1.789zm7.307-18.038v2.1a2.329 2.329 0 0 1-2.326 2.325h-2.176v-6.746h2.176a2.329 2.329 0 0 1 2.326 2.325zm-49.521-22.58A14.648 14.648 0 0 1 25.635 4.251h20.259a14.648 14.648 0 0 1 14.631 14.631V29.6l-4.5 4.5v-3.963a1.125 1.125 0 0 0-.842-1.089l-25.888-6.754a1.133 1.133 0 0 0-.823.1l-12.38 6.753a1.125 1.125 0 0 0-.586.988V34.1l-4.5-4.5zm2.326 27.011a2.329 2.329 0 0 1-2.326-2.325v-2.1a2.329 2.329 0 0 1 2.326-2.325h2.176v6.753zm22.434 21.384A18.029 18.029 0 0 1 17.753 49.27V30.805l11.4-6.22 24.613 6.421V49.27a18.029 18.029 0 0 1-18.002 18.007z" data-name="Path 10047" transform="translate(-2 -2)"/>
        <path d="M35.764 29.011a13.506 13.506 0 1 0 13.505 13.506 13.506 13.506 0 0 0-13.505-13.506zm0 24.76a11.255 11.255 0 1 1 11.254-11.254 11.255 11.255 0 0 1-11.254 11.254z" data-name="Path 10048" transform="translate(-2 -2)"/>
        <path d="M40.129 35.628l-6.621 6.616-2.11-2.114a1.125 1.125 0 0 0-1.591 0l-3.183 3.182a1.125 1.125 0 0 0 0 1.591l6.093 6.093a1.125 1.125 0 0 0 1.591 0l10.6-10.6a1.125 1.125 0 0 0 0-1.591l-3.183-3.183a1.125 1.125 0 0 0-1.596.006zm-6.621 12.984l-4.5-4.5 1.594-1.6 2.115 2.115a1.125 1.125 0 0 0 1.591 0l6.617-6.615 1.591 1.591z" data-name="Path 10049" transform="translate(-2 -2)"/>
    </g>
</svg>
