<svg xmlns="http://www.w3.org/2000/svg" width="49.941" height="48.976" viewBox="0 0 49.941 48.976">
    <path id="prefix__Path_8928" fill="#da2419" d="M-464.294 281.18h-48.695a.621.621 0 0 0-.5.249.633.633 0 0 0-.1.553l4.964 16.4a.625.625 0 0 0 .6.443h38.77a.621.621 0 0 0 .6-.443l4.962-16.4a.62.62 0 0 0-.1-.553.623.623 0 0 0-.501-.249zm-5.423 16.4h-37.845l-4.588-15.157h47.018zm-19.436-47.459l-19.7 28.843a.619.619 0 0 0-.036.642.616.616 0 0 0 .55.334h19.7a.623.623 0 0 0 .623-.623v-28.844a.623.623 0 0 0-.438-.6.628.628 0 0 0-.699.249zm-.109 28.573h-17.9l17.9-26.205zm3.367-18.729a.619.619 0 0 0-.421.589v18.763a.623.623 0 0 0 .623.623h14.732a.617.617 0 0 0 .559-.351.622.622 0 0 0-.069-.656L-485.2 260.17a.636.636 0 0 0-.695-.204zm.825 2.387l12.828 16.341h-12.828z" data-name="Path 8928" transform="translate(513.61 -249.849)"/>
</svg>
