<svg xmlns="http://www.w3.org/2000/svg" width="21.558" height="21.555" viewBox="0 0 21.558 21.555">
    <path id="prefix__blog" fill="none" stroke="#000" d="M17.988 7.741c-.445 0-.856-.143-.856-1.178V5.6A5.767 5.767 0 0 0 11.326.033h-6A5.4 5.4 0 0 0 0 5.493V15.021a5.4 5.4 0 0 0 5.221 5.565h9.046c3.585 0 6.288-2.509 6.288-5.834v-4.441c.002-1.921-.646-2.57-2.567-2.57zM6.426 5.172h4.282a1.285 1.285 0 0 1 0 2.569H6.426a1.285 1.285 0 0 1 0-2.569zm7.708 10.278H6.426a1.285 1.285 0 0 1 0-2.569h7.708a1.285 1.285 0 0 1 0 2.569z" transform="translate(.501 .467)"/>
</svg>
