<svg xmlns="http://www.w3.org/2000/svg" width="51.412" height="51.026" viewBox="0 0 51.412 51.026">
    <g>
        <path d="M29.99 19.266l18.873 3.749a3.165 3.165 0 0 1 2.549 3.128v21.85a3.209 3.209 0 0 1-3.213 3.213h-19.28a1.061 1.061 0 0 0 1.071-1.071v-1.071h18.209a1.074 1.074 0 0 0 1.071-1.071V26.142a1.076 1.076 0 0 0-.835-1.05L29.99 21.451z" data-name="Path 13681" transform="translate(0 -.18)"/>
        <path d="M41.772 29.784a1.071 1.071 0 1 1 0 2.142h-4.284a1.071 1.071 0 1 1 0-2.142z" data-name="Path 13682" transform="translate(0 -.18)"/>
        <path d="M41.772 36.211a1.071 1.071 0 1 1 0 2.142h-4.284a1.071 1.071 0 1 1 0-2.142z" data-name="Path 13683" transform="translate(0 -.18)"/>
        <path d="M41.772 42.637a1.071 1.071 0 1 1 0 2.142h-4.284a1.071 1.071 0 1 1 0-2.142z" data-name="Path 13684" transform="translate(0 -.18)"/>
        <path d="M29.99 50.135a1.071 1.071 0 0 1-2.142 0v-29.99a1.139 1.139 0 0 1 .386-.835 1.126 1.126 0 0 1 .9-.214l.857.171v30.868z" data-name="Path 13685" transform="translate(0 -.18)"/>
        <path d="M27.851 49.064v1.071a1.061 1.061 0 0 0 1.071 1.071h-8.571a1.061 1.061 0 0 0 1.071-1.071v-1.071z" data-name="Path 13686" transform="translate(0 -.18)"/>
        <path d="M22.492 10.505a1.071 1.071 0 1 1 0 2.142h-4.284a1.071 1.071 0 1 1 0-2.142z" data-name="Path 13687" transform="translate(0 -.18)"/>
        <path d="M23.564 18.002a1.061 1.061 0 0 1-1.071 1.071h-4.285a1.071 1.071 0 1 1 0-2.142h4.284a1.061 1.061 0 0 1 1.072 1.071z" data-name="Path 13688" transform="translate(0 -.18)"/>
        <path d="M22.492 23.358a1.071 1.071 0 1 1 0 2.142h-4.284a1.071 1.071 0 1 1 0-2.142z" data-name="Path 13689" transform="translate(0 -.18)"/>
        <path d="M22.492 29.784a1.071 1.071 0 1 1 0 2.142h-4.284a1.071 1.071 0 1 1 0-2.142z" data-name="Path 13690" transform="translate(0 -.18)"/>
        <path d="M12.854 30.855a1.061 1.061 0 0 1-1.071 1.071H7.498a1.071 1.071 0 1 1 0-2.142h4.284a1.061 1.061 0 0 1 1.072 1.071z" data-name="Path 13691" transform="translate(0 -.18)"/>
        <path d="M11.782 10.505a1.071 1.071 0 1 1 0 2.142H7.498a1.071 1.071 0 1 1 0-2.142z" data-name="Path 13692" transform="translate(0 -.18)"/>
        <path d="M11.782 16.931a1.071 1.071 0 1 1 0 2.142H7.498a1.071 1.071 0 1 1 0-2.142z" data-name="Path 13693" transform="translate(0 -.18)"/>
        <path d="M11.782 23.358a1.071 1.071 0 1 1 0 2.142H7.498a1.071 1.071 0 1 1 0-2.142z" data-name="Path 13694" transform="translate(0 -.18)"/>
        <path d="M19.28 39.424a1.074 1.074 0 0 0-1.071-1.071h-6.427a1.061 1.061 0 0 0-1.071 1.071v9.64H8.569v-9.64a3.209 3.209 0 0 1 3.213-3.213h6.427a3.209 3.209 0 0 1 3.213 3.213v9.64H19.28z" data-name="Path 13695" transform="translate(0 -.18)"/>
        <path d="M10.711 49.064h10.711v1.071a1.061 1.061 0 0 1-1.071 1.071H9.64a1.061 1.061 0 0 1-1.071-1.071v-1.071z" data-name="Path 13696" transform="translate(0 -.18)"/>
        <path d="M3.749.222L27.291 3.8a3.2 3.2 0 0 1 2.7 3.17v12.3l-.857-.171a1.126 1.126 0 0 0-.9.214 1.139 1.139 0 0 0-.386.835V6.97a1.083 1.083 0 0 0-.9-1.071L3.406 2.343a.593.593 0 0 0-.193-.021 1.01 1.01 0 0 0-.685.257 1.024 1.024 0 0 0-.386.814v44.6a1.074 1.074 0 0 0 1.071 1.071h5.356v1.071a1.061 1.061 0 0 0 1.071 1.071H3.213A3.209 3.209 0 0 1 0 47.993v-44.6A3.154 3.154 0 0 1 1.135.951 3.216 3.216 0 0 1 3.749.222z" data-name="Path 13697" transform="translate(0 -.18)"/>
    </g>
</svg>
