<svg width="60" height="55" viewBox="0 0 60 55" fill="none" xmlns="http://www.w3.org/2000/svg">
<g filter="url(#filter0_d_1914_40329)">
<path d="M4.9377 4.58984H17.1883H29.3763C29.8941 4.58984 30.3138 5.00961 30.3138 5.52739V12.3699C30.3138 13.2189 29.9766 14.033 29.3763 14.6333C28.776 15.2336 27.9618 15.5709 27.1129 15.5709H17.1883H7.20113C6.35218 15.5709 5.538 15.2336 4.9377 14.6333C4.3374 14.033 4.00016 13.2189 4.00016 12.3699V5.52739C4.00016 5.00968 4.41999 4.58984 4.9377 4.58984Z" fill="url(#paint0_linear_1914_40329)"/>
<g filter="url(#filter1_b_1914_40329)">
<path d="M23.7513 6.95875C24.2695 6.95875 24.6888 6.53942 24.6888 6.02121V2.27104C24.6888 1.75283 24.2695 1.3335 23.7513 1.3335C23.2331 1.3335 22.8138 1.75283 22.8138 2.27104V6.02121C22.8138 6.53942 23.2331 6.95875 23.7513 6.95875Z" fill="url(#paint1_linear_1914_40329)" fill-opacity="0.9"/>
<path d="M23.7513 6.83875C24.2032 6.83875 24.5688 6.47314 24.5688 6.02121V2.27104C24.5688 1.8191 24.2032 1.4535 23.7513 1.4535C23.2994 1.4535 22.9338 1.8191 22.9338 2.27104V6.02121C22.9338 6.47314 23.2994 6.83875 23.7513 6.83875Z" stroke="white" stroke-opacity="0.3" stroke-width="0.24"/>
</g>
<g filter="url(#filter2_b_1914_40329)">
<path d="M10.6254 6.95875C11.1437 6.95875 11.563 6.53942 11.563 6.02121V2.27104C11.563 1.75283 11.1437 1.3335 10.6254 1.3335C10.1072 1.3335 9.6879 1.75283 9.6879 2.27104V6.02121C9.6879 6.53942 10.1072 6.95875 10.6254 6.95875Z" fill="url(#paint2_linear_1914_40329)" fill-opacity="0.9"/>
<path d="M10.6254 6.83875C11.0774 6.83875 11.443 6.47314 11.443 6.02121V2.27104C11.443 1.8191 11.0774 1.4535 10.6254 1.4535C10.1735 1.4535 9.8079 1.8191 9.8079 2.27104V6.02121C9.8079 6.47314 10.1735 6.83875 10.6254 6.83875Z" stroke="white" stroke-opacity="0.3" stroke-width="0.24"/>
</g>
<g filter="url(#filter3_b_1914_40329)">
<path d="M17.1882 1.3335C17.7064 1.3335 18.1257 1.75283 18.1257 2.27104V6.02121C18.1257 6.53942 17.7064 6.95875 17.1882 6.95875C16.67 6.95875 16.2506 6.53942 16.2506 6.02121V2.27104C16.2506 1.75283 16.67 1.3335 17.1882 1.3335Z" fill="url(#paint3_linear_1914_40329)" fill-opacity="0.9"/>
<path d="M18.0057 2.27104C18.0057 1.8191 17.6401 1.4535 17.1882 1.4535C16.7363 1.4535 16.3706 1.8191 16.3706 2.27104V6.02121C16.3706 6.47314 16.7363 6.83875 17.1882 6.83875C17.6401 6.83875 18.0057 6.47314 18.0057 6.02121V2.27104Z" stroke="white" stroke-opacity="0.3" stroke-width="0.24"/>
</g>
<g filter="url(#filter4_d_1914_40329)">
<path d="M17.1684 10.0913H30.274V29.7672C30.274 30.3105 29.8549 30.751 29.3379 30.751H17.1684H4.93648C4.4195 30.751 4.00037 30.3105 4.00037 29.7672V10.0913H17.1684Z" fill="url(#paint4_linear_1914_40329)" fill-opacity="0.6" shape-rendering="crispEdges"/>
<path d="M30.154 29.7672V10.2113H17.1684H4.12037V29.7672C4.12037 30.2499 4.49132 30.631 4.93648 30.631H17.1684H29.3379C29.7831 30.631 30.154 30.2499 30.154 29.7672Z" stroke="white" stroke-opacity="0.3" stroke-width="0.24" shape-rendering="crispEdges"/>
</g>
<g filter="url(#filter5_bd_1914_40329)">
<path d="M17.1881 10.0972H30.3137V11.0347C30.3137 20.7388 35.6132 25.2727 35.6664 25.3167C35.9676 25.5712 36.0784 25.9869 35.9429 26.3568C35.8083 26.7257 35.4576 26.9729 35.0639 26.9729H17.1881H10.6253C10.4055 26.9729 10.1932 26.896 10.0247 26.7559C9.78207 26.5527 4 21.6644 4 11.0347V10.0972H17.1881Z" fill="url(#paint5_linear_1914_40329)" fill-opacity="0.6" shape-rendering="crispEdges"/>
<path d="M17.1881 10.0972H30.3137V11.0347C30.3137 20.7388 35.6132 25.2727 35.6664 25.3167C35.9676 25.5712 36.0784 25.9869 35.9429 26.3568C35.8083 26.7257 35.4576 26.9729 35.0639 26.9729H17.1881H10.6253C10.4055 26.9729 10.1932 26.896 10.0247 26.7559C9.78207 26.5527 4 21.6644 4 11.0347V10.0972H17.1881Z" fill="white" fill-opacity="0.2" shape-rendering="crispEdges"/>
<path d="M35.7174 26.2745L35.7175 26.2742C35.8182 25.9993 35.736 25.6897 35.5115 25.5C35.3674 25.3787 30.0737 20.7799 30.0737 11.0347V10.3372H17.1881H4.24V11.0347C4.24 21.5633 9.96243 26.3906 10.1786 26.5718C10.3039 26.6758 10.4618 26.7329 10.6253 26.7329H17.1881H35.0639C35.3561 26.7329 35.6172 26.5493 35.7174 26.2745Z" stroke="white" stroke-opacity="0.3" stroke-width="0.48" shape-rendering="crispEdges"/>
</g>
</g>
<defs>
<filter id="filter0_d_1914_40329" x="4" y="1.3335" width="56" height="53.4175" filterUnits="userSpaceOnUse" color-interpolation-filters="sRGB">
<feFlood flood-opacity="0" result="BackgroundImageFix"/>
<feColorMatrix in="SourceAlpha" type="matrix" values="0 0 0 0 0 0 0 0 0 0 0 0 0 0 0 0 0 0 127 0" result="hardAlpha"/>
<feOffset dx="12" dy="12"/>
<feGaussianBlur stdDeviation="6"/>
<feComposite in2="hardAlpha" operator="out"/>
<feColorMatrix type="matrix" values="0 0 0 0 0.123264 0 0 0 0 0.137744 0 0 0 0 0.208333 0 0 0 0.1 0"/>
<feBlend mode="normal" in2="BackgroundImageFix" result="effect1_dropShadow_1914_40329"/>
<feBlend mode="normal" in="SourceGraphic" in2="effect1_dropShadow_1914_40329" result="shape"/>
</filter>
<filter id="filter1_b_1914_40329" x="20.4137" y="-1.0665" width="6.67512" height="10.4255" filterUnits="userSpaceOnUse" color-interpolation-filters="sRGB">
<feFlood flood-opacity="0" result="BackgroundImageFix"/>
<feGaussianBlur in="BackgroundImage" stdDeviation="1.2"/>
<feComposite in2="SourceAlpha" operator="in" result="effect1_backgroundBlur_1914_40329"/>
<feBlend mode="normal" in="SourceGraphic" in2="effect1_backgroundBlur_1914_40329" result="shape"/>
</filter>
<filter id="filter2_b_1914_40329" x="7.28787" y="-1.0665" width="6.67512" height="10.4255" filterUnits="userSpaceOnUse" color-interpolation-filters="sRGB">
<feFlood flood-opacity="0" result="BackgroundImageFix"/>
<feGaussianBlur in="BackgroundImage" stdDeviation="1.2"/>
<feComposite in2="SourceAlpha" operator="in" result="effect1_backgroundBlur_1914_40329"/>
<feBlend mode="normal" in="SourceGraphic" in2="effect1_backgroundBlur_1914_40329" result="shape"/>
</filter>
<filter id="filter3_b_1914_40329" x="13.8506" y="-1.0665" width="6.67512" height="10.4255" filterUnits="userSpaceOnUse" color-interpolation-filters="sRGB">
<feFlood flood-opacity="0" result="BackgroundImageFix"/>
<feGaussianBlur in="BackgroundImage" stdDeviation="1.2"/>
<feComposite in2="SourceAlpha" operator="in" result="effect1_backgroundBlur_1914_40329"/>
<feBlend mode="normal" in="SourceGraphic" in2="effect1_backgroundBlur_1914_40329" result="shape"/>
</filter>
<filter id="filter4_d_1914_40329" x="0.400367" y="4.09131" width="33.4737" height="27.8597" filterUnits="userSpaceOnUse" color-interpolation-filters="sRGB">
<feFlood flood-opacity="0" result="BackgroundImageFix"/>
<feColorMatrix in="SourceAlpha" type="matrix" values="0 0 0 0 0 0 0 0 0 0 0 0 0 0 0 0 0 0 127 0" result="hardAlpha"/>
<feOffset dy="-2.4"/>
<feGaussianBlur stdDeviation="1.8"/>
<feComposite in2="hardAlpha" operator="out"/>
<feColorMatrix type="matrix" values="0 0 0 0 0.2875 0 0 0 0 0.059695 0 0 0 0 0.0467188 0 0 0 0.12 0"/>
<feBlend mode="normal" in2="BackgroundImageFix" result="effect1_dropShadow_1914_40329"/>
<feBlend mode="normal" in="SourceGraphic" in2="effect1_dropShadow_1914_40329" result="shape"/>
</filter>
<filter id="filter5_bd_1914_40329" x="1.12" y="7.21717" width="38.48" height="24.556" filterUnits="userSpaceOnUse" color-interpolation-filters="sRGB">
<feFlood flood-opacity="0" result="BackgroundImageFix"/>
<feGaussianBlur in="BackgroundImage" stdDeviation="1.44"/>
<feComposite in2="SourceAlpha" operator="in" result="effect1_backgroundBlur_1914_40329"/>
<feColorMatrix in="SourceAlpha" type="matrix" values="0 0 0 0 0 0 0 0 0 0 0 0 0 0 0 0 0 0 127 0" result="hardAlpha"/>
<feOffset dx="1.2" dy="2.4"/>
<feGaussianBlur stdDeviation="1.2"/>
<feComposite in2="hardAlpha" operator="out"/>
<feColorMatrix type="matrix" values="0 0 0 0 0.458646 0 0 0 0 0.479306 0 0 0 0 0.495833 0 0 0 0.08 0"/>
<feBlend mode="normal" in2="effect1_backgroundBlur_1914_40329" result="effect2_dropShadow_1914_40329"/>
<feBlend mode="normal" in="SourceGraphic" in2="effect2_dropShadow_1914_40329" result="shape"/>
</filter>
<linearGradient id="paint0_linear_1914_40329" x1="17.157" y1="4.58984" x2="17.157" y2="14.4481" gradientUnits="userSpaceOnUse">
<stop stop-color="#FF964A"/>
<stop offset="1" stop-color="#FF4A4A"/>
</linearGradient>
<linearGradient id="paint1_linear_1914_40329" x1="24.0572" y1="2.02403" x2="22.5963" y2="2.34611" gradientUnits="userSpaceOnUse">
<stop stop-color="white" stop-opacity="0.8"/>
<stop offset="1" stop-color="white" stop-opacity="0.6"/>
</linearGradient>
<linearGradient id="paint2_linear_1914_40329" x1="10.9314" y1="2.02403" x2="9.47044" y2="2.34611" gradientUnits="userSpaceOnUse">
<stop stop-color="white" stop-opacity="0.8"/>
<stop offset="1" stop-color="white" stop-opacity="0.6"/>
</linearGradient>
<linearGradient id="paint3_linear_1914_40329" x1="17.4941" y1="2.02403" x2="16.0332" y2="2.34611" gradientUnits="userSpaceOnUse">
<stop stop-color="white" stop-opacity="0.8"/>
<stop offset="1" stop-color="white" stop-opacity="0.6"/>
</linearGradient>
<linearGradient id="paint4_linear_1914_40329" x1="21.424" y1="12.6274" x2="8.85248" y2="23.2015" gradientUnits="userSpaceOnUse">
<stop stop-color="white" stop-opacity="0.4"/>
<stop offset="1" stop-color="white" stop-opacity="0.8"/>
</linearGradient>
<linearGradient id="paint5_linear_1914_40329" x1="25.2211" y1="12.1688" x2="15.0596" y2="24.9126" gradientUnits="userSpaceOnUse">
<stop stop-color="white" stop-opacity="0.6"/>
<stop offset="1" stop-color="white" stop-opacity="0.2"/>
</linearGradient>
</defs>
</svg>
