<svg xmlns="http://www.w3.org/2000/svg" width="112.261" height="73.598" viewBox="0 0 112.261 73.598">
    <g id="Group_13157" data-name="Group 13157" opacity="0.4" transform="translate(-65.137 -136.611)">
        <path id="Path_14165" fill="#f8f8f8" d="M72.516 166.647l2.524-4.919 15.145-20.538h71.135l18.7 24.6-104.178.861z" data-name="Path 14165" transform="translate(-4.984 -3.093)"/>
        <g id="Group_13152" data-name="Group 13152" transform="translate(65.136 136.611)">
            <path id="Path_14166" d="M176.183 164.788H66.351a1.21 1.21 0 0 1-1.092-.729 1.372 1.372 0 0 1 .135-1.368L84.1 137.109a1.187 1.187 0 0 1 .957-.5H156.4a1.185 1.185 0 0 1 .936.471l19.787 25.581a1.369 1.369 0 0 1 .163 1.38 1.211 1.211 0 0 1-1.103.747zm-107.341-2.6H173.6l-17.779-22.984H85.65z" data-name="Path 14166" transform="translate(-65.136 -136.611)"/>
        </g>
        <g id="Group_13153" data-name="Group 13153" transform="translate(73.161 162.191)">
            <path id="Path_14167" d="M91.161 263.449a1.3 1.3 0 0 1-1.3-1.3V216.73a1.3 1.3 0 0 1 2.6 0v45.421a1.3 1.3 0 0 1-1.3 1.298z" data-name="Path 14167" transform="translate(-89.863 -215.432)"/>
        </g>
        <g id="Group_13154" data-name="Group 13154" transform="translate(166.769 162.191)">
            <path id="Path_14168" d="M403.413 263.449a1.3 1.3 0 0 1-1.3-1.3V216.73a1.3 1.3 0 0 1 2.6 0v45.421a1.3 1.3 0 0 1-1.3 1.298z" data-name="Path 14168" transform="translate(-402.115 -215.432)"/>
        </g>
        <g id="Group_13155" data-name="Group 13155" transform="translate(147.385 162.191)">
            <path id="Path_14169" d="M337.73 245.576a1.3 1.3 0 0 1-1.3-1.3V216.73a1.3 1.3 0 1 1 2.6 0v27.548a1.3 1.3 0 0 1-1.3 1.298z" data-name="Path 14169" transform="translate(-336.432 -215.432)"/>
        </g>
        <g id="Group_13156" data-name="Group 13156" transform="translate(92.7 162.191)">
            <path id="Path_14170" d="M157.351 245.576a1.3 1.3 0 0 1-1.3-1.3V216.73a1.3 1.3 0 1 1 2.6 0v27.548a1.3 1.3 0 0 1-1.3 1.298z" data-name="Path 14170" transform="translate(-156.053 -215.432)"/>
        </g>
    </g>
</svg>
