<svg width="32" height="32" viewBox="0 0 32 32" fill="none" xmlns="http://www.w3.org/2000/svg">
<g clip-path="url(#clip0_1914_40294)">
<g filter="url(#filter0_d_1914_40294)">
<rect y="2" width="16.5163" height="24.7745" rx="3.33333" fill="url(#paint0_linear_1914_40294)"/>
<g filter="url(#filter1_bd_1914_40294)">
<path d="M3.78455 4.66666C3.78455 3.1939 4.97845 2 6.45121 2H26.2364C27.7092 2 28.9031 3.19391 28.9031 4.66667V24.1078C28.9031 25.5805 27.7092 26.7745 26.2364 26.7745H6.45121C4.97845 26.7745 3.78455 25.5805 3.78455 24.1078V4.66666Z" fill="url(#paint1_linear_1914_40294)" fill-opacity="0.8" shape-rendering="crispEdges"/>
<path d="M3.78455 4.66666C3.78455 3.1939 4.97845 2 6.45121 2H26.2364C27.7092 2 28.9031 3.19391 28.9031 4.66667V24.1078C28.9031 25.5805 27.7092 26.7745 26.2364 26.7745H6.45121C4.97845 26.7745 3.78455 25.5805 3.78455 24.1078V4.66666Z" fill="white" fill-opacity="0.2" shape-rendering="crispEdges"/>
<path d="M4.14687 4.66666C4.14687 3.39401 5.17856 2.36233 6.45121 2.36233H26.2364C27.5091 2.36233 28.5408 3.39401 28.5408 4.66667V24.1078C28.5408 25.3804 27.5091 26.4121 26.2364 26.4121H6.45121C5.17856 26.4121 4.14687 25.3804 4.14687 24.1078V4.66666Z" stroke="white" stroke-opacity="0.2" stroke-width="0.72465" shape-rendering="crispEdges"/>
</g>
<g filter="url(#filter2_d_1914_40294)">
<path d="M6.70972 2.66667C6.70972 2.29848 7.00819 2 7.37638 2H12.9248C13.293 2 13.5915 2.29848 13.5915 2.66667V10.6073C13.5915 11.1635 12.9505 11.4751 12.5131 11.1316L10.5624 9.59948C10.3207 9.40965 9.98053 9.40965 9.73883 9.59948L7.78817 11.1316C7.35073 11.4751 6.70972 11.1635 6.70972 10.6073V2.66667Z" fill="url(#paint2_linear_1914_40294)" fill-opacity="0.8" shape-rendering="crispEdges"/>
<path d="M6.70972 2.66667C6.70972 2.29848 7.00819 2 7.37638 2H12.9248C13.293 2 13.5915 2.29848 13.5915 2.66667V10.6073C13.5915 11.1635 12.9505 11.4751 12.5131 11.1316L10.5624 9.59948C10.3207 9.40965 9.98053 9.40965 9.73883 9.59948L7.78817 11.1316C7.35073 11.4751 6.70972 11.1635 6.70972 10.6073V2.66667Z" fill="url(#paint3_linear_1914_40294)" shape-rendering="crispEdges"/>
<path d="M7.07204 2.66667C7.07204 2.49858 7.2083 2.36233 7.37638 2.36233H12.9248C13.0929 2.36233 13.2292 2.49858 13.2292 2.66667V10.6073C13.2292 10.8612 12.9366 11.0035 12.7369 10.8466L10.7862 9.31454C10.4131 9.02153 9.8881 9.02153 9.51503 9.31454L7.56437 10.8466C7.36467 11.0035 7.07204 10.8612 7.07204 10.6073V2.66667Z" stroke="white" stroke-opacity="0.4" stroke-width="0.72465" shape-rendering="crispEdges"/>
</g>
<path d="M6.70972 21.0972H11.699" stroke="white" stroke-width="2" stroke-linecap="round" stroke-linejoin="round"/>
<path d="M6.70972 17.8281H13.5915" stroke="white" stroke-width="2" stroke-linecap="round" stroke-linejoin="round"/>
<path d="M25.9785 29.8713C22.7293 29.8713 19.9569 27.2285 19.9569 23.8497C19.9569 20.5137 22.7049 17.8281 25.9785 17.8281C29.3756 17.8281 32 20.6157 32 23.8497C32 27.1699 29.2987 29.8713 25.9785 29.8713Z" fill="url(#paint4_linear_1914_40294)"/>
<path d="M23.0646 20.8233C23.8508 20.0176 24.8778 19.5785 25.9575 19.5785C28.2175 19.5785 30.0746 21.48 30.0746 23.8391C30.0746 26.1982 28.2175 28.0998 25.9575 28.0998C23.6975 28.0998 21.8404 26.1982 21.8404 23.8391C21.8404 22.7026 22.2751 21.6326 23.0646 20.8233ZM23.0646 20.8233L22.826 20.5905L23.0646 20.8233Z" fill="white" fill-opacity="0.4" stroke="url(#paint5_linear_1914_40294)" stroke-width="0.666667"/>
<path d="M24.522 24.2549L25.3563 25.131L27.6804 22.6904" stroke="white" stroke-width="2.33333" stroke-linecap="square"/>
</g>
</g>
<defs>
<filter id="filter0_d_1914_40294" x="0" y="2" width="65.3333" height="61.2044" filterUnits="userSpaceOnUse" color-interpolation-filters="sRGB">
<feFlood flood-opacity="0" result="BackgroundImageFix"/>
<feColorMatrix in="SourceAlpha" type="matrix" values="0 0 0 0 0 0 0 0 0 0 0 0 0 0 0 0 0 0 127 0" result="hardAlpha"/>
<feOffset dx="16.6667" dy="16.6667"/>
<feGaussianBlur stdDeviation="8.33333"/>
<feComposite in2="hardAlpha" operator="out"/>
<feColorMatrix type="matrix" values="0 0 0 0 0.121569 0 0 0 0 0.137255 0 0 0 0 0.207843 0 0 0 0.1 0"/>
<feBlend mode="normal" in2="BackgroundImageFix" result="effect1_dropShadow_1914_40294"/>
<feBlend mode="normal" in="SourceGraphic" in2="effect1_dropShadow_1914_40294" result="shape"/>
</filter>
<filter id="filter1_bd_1914_40294" x="-2.88212" y="-2" width="35.7852" height="32.7744" filterUnits="userSpaceOnUse" color-interpolation-filters="sRGB">
<feFlood flood-opacity="0" result="BackgroundImageFix"/>
<feGaussianBlur in="BackgroundImage" stdDeviation="2"/>
<feComposite in2="SourceAlpha" operator="in" result="effect1_backgroundBlur_1914_40294"/>
<feColorMatrix in="SourceAlpha" type="matrix" values="0 0 0 0 0 0 0 0 0 0 0 0 0 0 0 0 0 0 127 0" result="hardAlpha"/>
<feOffset dx="-3.33333"/>
<feGaussianBlur stdDeviation="1.66667"/>
<feComposite in2="hardAlpha" operator="out"/>
<feColorMatrix type="matrix" values="0 0 0 0 0.11026 0 0 0 0 0.304167 0 0 0 0 0.204276 0 0 0 0.12 0"/>
<feBlend mode="normal" in2="effect1_backgroundBlur_1914_40294" result="effect2_dropShadow_1914_40294"/>
<feBlend mode="normal" in="SourceGraphic" in2="effect2_dropShadow_1914_40294" result="shape"/>
</filter>
<filter id="filter2_d_1914_40294" x="5.04305" y="2" width="13.5485" height="15.9421" filterUnits="userSpaceOnUse" color-interpolation-filters="sRGB">
<feFlood flood-opacity="0" result="BackgroundImageFix"/>
<feColorMatrix in="SourceAlpha" type="matrix" values="0 0 0 0 0 0 0 0 0 0 0 0 0 0 0 0 0 0 127 0" result="hardAlpha"/>
<feOffset dx="1.66667" dy="3.33333"/>
<feGaussianBlur stdDeviation="1.66667"/>
<feComposite in2="hardAlpha" operator="out"/>
<feColorMatrix type="matrix" values="0 0 0 0 0.458824 0 0 0 0 0.478431 0 0 0 0 0.494118 0 0 0 0.08 0"/>
<feBlend mode="normal" in2="BackgroundImageFix" result="effect1_dropShadow_1914_40294"/>
<feBlend mode="normal" in="SourceGraphic" in2="effect1_dropShadow_1914_40294" result="shape"/>
</filter>
<linearGradient id="paint0_linear_1914_40294" x1="8.25815" y1="2" x2="8.25815" y2="24.2413" gradientUnits="userSpaceOnUse">
<stop stop-color="#667EEA"/>
<stop offset="1" stop-color="#764BA2"/>
</linearGradient>
<linearGradient id="paint1_linear_1914_40294" x1="12.2455" y1="5.04121" x2="26.4017" y2="14.5341" gradientUnits="userSpaceOnUse">
<stop stop-color="white" stop-opacity="0.6"/>
<stop offset="1" stop-color="white" stop-opacity="0.2"/>
</linearGradient>
<linearGradient id="paint2_linear_1914_40294" x1="9.02779" y1="3.22493" x2="13.6819" y2="5.34783" gradientUnits="userSpaceOnUse">
<stop stop-color="white" stop-opacity="0.6"/>
<stop offset="1" stop-color="white" stop-opacity="0.2"/>
</linearGradient>
<linearGradient id="paint3_linear_1914_40294" x1="12.0823" y1="3.40051" x2="6.18665" y2="8.57541" gradientUnits="userSpaceOnUse">
<stop stop-color="white" stop-opacity="0.2"/>
<stop offset="1" stop-color="white"/>
</linearGradient>
<linearGradient id="paint4_linear_1914_40294" x1="25.9785" y1="17.8281" x2="25.9785" y2="28.6399" gradientUnits="userSpaceOnUse">
<stop stop-color="#667EEA"/>
<stop offset="1" stop-color="#764BA2"/>
</linearGradient>
<linearGradient id="paint5_linear_1914_40294" x1="23.8179" y1="20.0252" x2="28.2642" y2="27.2562" gradientUnits="userSpaceOnUse">
<stop stop-color="white" stop-opacity="0.2"/>
<stop offset="1" stop-color="white" stop-opacity="0"/>
</linearGradient>
<clipPath id="clip0_1914_40294">
<rect width="32" height="32" fill="white"/>
</clipPath>
</defs>
</svg>
