<svg xmlns="http://www.w3.org/2000/svg" width="57.875" height="57.875" viewBox="0 0 57.875 57.875">
    <g data-name="Group 11942">
        <g data-name="Group 11941">
            <path d="M1.824.236l-.05-.035A1.13 1.13 0 0 0 .487 2.06l.044.031A1.13 1.13 0 1 0 1.824.237z" data-name="Path 8894" transform="translate(41.886 10.494)"/>
        </g>
    </g>
    <g data-name="Group 11944">
        <g data-name="Group 11943">
            <path d="M48.431 19.246a1.128 1.128 0 0 0-.218-.376 26.063 26.063 0 0 0-4.2-5.361 1.13 1.13 0 0 0-1.583 1.614 23.936 23.936 0 0 1 2.848 3.36H37.31a23.626 23.626 0 0 0-4.942-9.218 23.524 23.524 0 0 1 3.212 1.173 1.13 1.13 0 1 0 .929-2.061 25.632 25.632 0 0 0-9.493-2.247v-5a1.13 1.13 0 1 0-2.261 0v5a25.7 25.7 0 0 0-17.174 7.556 26.049 26.049 0 0 0-4.017 5.178 1.129 1.129 0 0 0-.225.386A25.741 25.741 0 0 0 0 31.99a25.741 25.741 0 0 0 3.337 12.736 1.127 1.127 0 0 0 .23.394 26.046 26.046 0 0 0 4.015 5.173 25.886 25.886 0 0 0 36.608 0 26.046 26.046 0 0 0 4.01-5.172 1.128 1.128 0 0 0 .23-.394 25.977 25.977 0 0 0 0-25.481zM27.016 8.5c3.122.722 6.048 4.39 7.918 9.985h-7.918zm0 12.246h19.661a23.43 23.43 0 0 1 2.807 10.114H27.016zm0 12.377h9.943a44.4 44.4 0 0 1-1.35 10.116h-8.593zM24.755 8.494v9.989h-7.922a28.1 28.1 0 0 1 1.428-3.5c1.823-3.691 4.095-5.947 6.494-6.489zM14.813 30.86a44.406 44.406 0 0 1 1.349-10.116h8.593V30.86zm9.943 2.261v10.116h-8.593a44.4 44.4 0 0 1-1.35-10.116zM19.4 9.271a19.351 19.351 0 0 0-3.165 4.714 30.977 30.977 0 0 0-1.775 4.5H6.514A23.713 23.713 0 0 1 19.4 9.271zM5.113 20.744h8.72a47.162 47.162 0 0 0-1.281 10.116H2.288a23.461 23.461 0 0 1 2.825-10.116zM2.288 33.121h10.264a47.155 47.155 0 0 0 1.282 10.116h-8.72a23.46 23.46 0 0 1-2.826-10.116zM6.515 45.5h7.944a30.977 30.977 0 0 0 1.774 4.5 19.353 19.353 0 0 0 3.167 4.709A23.713 23.713 0 0 1 6.515 45.5zm19.371 10.115c-2.81 0-5.518-2.351-7.625-6.621a28.082 28.082 0 0 1-1.427-3.5h7.921v2.468a1.13 1.13 0 1 0 2.261 0V45.5h7.922a28.1 28.1 0 0 1-1.427 3.5c-2.111 4.263-4.811 6.615-7.625 6.615zm6.487-.906a19.351 19.351 0 0 0 3.165-4.714 30.965 30.965 0 0 0 1.774-4.5h7.944a23.713 23.713 0 0 1-12.883 9.214zm14.284-11.472h-8.719a47.141 47.141 0 0 0 1.282-10.116h10.263a23.458 23.458 0 0 1-2.826 10.116z" data-name="Path 8895" transform="translate(3.052)"/>
        </g>
    </g>
    <g data-name="Group 11946">
        <g data-name="Group 11945">
            <path d="M1.929.331a1.129 1.129 0 1 0 .331.8 1.139 1.139 0 0 0-.331-.8z" data-name="Path 8896" transform="translate(27.807 51.178)"/>
        </g>
    </g>
    <g data-name="Group 11948">
        <g data-name="Group 11947">
            <path d="M6.358 2.614H4.874V1.13a1.13 1.13 0 0 0-2.261 0v1.484H1.129a1.13 1.13 0 0 0 0 2.261h1.484v1.483a1.13 1.13 0 0 0 2.261 0V4.875h1.484a1.13 1.13 0 0 0 0-2.261z" data-name="Path 8897" transform="translate(50.387)"/>
        </g>
    </g>
    <g data-name="Group 11950">
        <g data-name="Group 11949">
            <path d="M6.358 2.614H4.875V1.13a1.13 1.13 0 0 0-2.261 0v1.484H1.13a1.13 1.13 0 0 0 0 2.261h1.484v1.483a1.13 1.13 0 0 0 2.261 0V4.875h1.484a1.13 1.13 0 0 0 0-2.261z" data-name="Path 8898" transform="translate(3.49 3.686)"/>
        </g>
    </g>
    <g data-name="Group 11952">
        <g data-name="Group 11951">
            <path d="M6.358 2.614H4.875V1.13a1.13 1.13 0 0 0-2.261 0v1.484H1.13a1.13 1.13 0 0 0 0 2.261h1.484v1.484a1.13 1.13 0 1 0 2.261 0V4.875h1.483a1.13 1.13 0 0 0 0-2.261z" data-name="Path 8899" transform="translate(0 50.387)"/>
        </g>
    </g>
    <g data-name="Group 11954">
        <g data-name="Group 11953">
            <path d="M6.358 2.614H4.874V1.13a1.13 1.13 0 1 0-2.261 0v1.484H1.129a1.13 1.13 0 1 0 0 2.261h1.485v1.484a1.13 1.13 0 0 0 2.261 0V4.875h1.484a1.13 1.13 0 1 0 0-2.261z" data-name="Path 8900" transform="translate(48.277 48.277)"/>
        </g>
    </g>
    <g data-name="Group 11956">
        <g data-name="Group 11955">
            <path d="M6.358 2.614H4.874V1.127a1.13 1.13 0 0 0-2.261 0v1.484H1.129a1.13 1.13 0 0 0 0 2.261h1.484v1.484a1.13 1.13 0 0 0 2.261 0V4.872h1.484a1.13 1.13 0 0 0 0-2.261z" data-name="Path 8901" transform="translate(37.41 22.548)"/>
        </g>
    </g>
</svg>
