<svg xmlns="http://www.w3.org/2000/svg" width="53.285" height="53" viewBox="0 0 53.285 53">
    <path d="M26.645 41.516A11.669 11.669 0 0 1 14.989 29.86v-9.879h-.777a.888.888 0 1 1 0-1.776h4.662V8.991a.888.888 0 0 1 1.776 0v9.213h11.989V8.991a.888.888 0 0 1 1.776 0v9.213h4.662a.888.888 0 1 1 0 1.776H16.765v9.879a9.879 9.879 0 0 0 19.758 0v-6.881a.888.888 0 1 1 1.776 0v6.882a11.668 11.668 0 0 1-11.654 11.656zm0-5.883a.888.888 0 0 0 .795-.491l2.661-5.326a.889.889 0 0 0-.794-1.285h-3.889l2.021-4.043a.888.888 0 0 0-1.588-.794l-2.665 5.322a.889.889 0 0 0 .794 1.285h3.891l-2.02 4.046a.889.889 0 0 0 .794 1.285zm24.4-.684a.888.888 0 0 0-1.145.515 24.911 24.911 0 0 1-19.278 15.725 2.666 2.666 0 0 1-3.089-2.631V45.4h1a.888.888 0 1 0 0-1.776h-3.775a.888.888 0 1 0 0 1.776h1v3.158a4.443 4.443 0 0 0 5.143 4.385 26.692 26.692 0 0 0 20.658-16.849.888.888 0 0 0-.515-1.146zm.962-3.726a.888.888 0 0 0-1.055.681q-.047.22-.1.439a.888.888 0 0 0 1.729.406q.055-.235.106-.471a.888.888 0 0 0-.681-1.055zM26.645 0a26.652 26.652 0 0 0-16.268 47.739.888.888 0 1 0 1.085-1.406 24.865 24.865 0 1 1 40.047-19.692.888.888 0 1 0 1.776 0A26.626 26.626 0 0 0 26.645 0z"/>
</svg>
