<svg xmlns="http://www.w3.org/2000/svg" width="63.113" height="63.113" viewBox="0 0 63.113 63.113">
    <path d="M52.989 31.557a21.432 21.432 0 1 0-37.243 14.454l-4.558 4.558a1.052 1.052 0 0 0 1.488 1.488l4.564-4.564a21.42 21.42 0 0 0 35.749-15.936zM41.9 30.5h-9.292V13.215c2.929 2.312 8.865 8.102 9.292 17.285zM30.5 12.257V30.5h-9.285a22.84 22.84 0 0 1 5.8-13.949 1.052 1.052 0 1 0-1.584-1.385A24.9 24.9 0 0 0 19.11 30.5h-6.853A19.355 19.355 0 0 1 30.5 12.257zM12.257 32.608h6.852a25.593 25.593 0 0 0 8.932 17.955 19.366 19.366 0 0 1-15.784-17.955zm8.956 0H30.5v17.279a23.581 23.581 0 0 1-9.287-17.279zm11.4 18.248V32.608H41.9a22.921 22.921 0 0 1-6.166 14.352 1.052 1.052 0 1 0 1.556 1.416A24.979 24.979 0 0 0 44 32.608h3.331a1.052 1.052 0 1 0 0-2.1H44a25.6 25.6 0 0 0-8.923-17.958 19.329 19.329 0 0 1-2.468 38.306zm22.607 3l-5.1-5.1a1.052 1.052 0 0 0-1.487 1.487l5.127 5.127a5.061 5.061 0 1 0 1.459-1.516zm2.835 7.15a2.958 2.958 0 1 1 2.958-2.958 2.962 2.962 0 0 1-2.962 2.961zM7.738 9.357l5.127 5.127A1.052 1.052 0 0 0 14.352 13l-5.1-5.1a5.062 5.062 0 1 0-1.514 1.457zM5.062 2.1A2.958 2.958 0 1 1 2.1 5.062 2.962 2.962 0 0 1 5.062 2.1zm0 50.885a5.062 5.062 0 1 0 5.062 5.062 5.068 5.068 0 0 0-5.062-5.058zm0 8.021a2.958 2.958 0 1 1 2.958-2.958 2.962 2.962 0 0 1-2.958 2.961zm45.055-46.653l5.1-5.1a5.062 5.062 0 1 0-1.459-1.516l-5.127 5.127a1.052 1.052 0 0 0 1.488 1.488zM58.051 2.1a2.958 2.958 0 1 1-2.958 2.958A2.962 2.962 0 0 1 58.051 2.1z" data-name="2922260"/>
</svg>
