<svg xmlns="http://www.w3.org/2000/svg" width="67.821" height="71.868" viewBox="0 0 67.821 71.868">
    <g>
        <path d="M37.802 20.015l-1.215.44a5.725 5.725 0 0 0-3.652 4.284l-.413 2.161a3.645 3.645 0 0 0 3.58 4.331h10.536a3.646 3.646 0 0 0 3.59-4.287l-.385-2.15a5.713 5.713 0 0 0-3.665-4.352l-1.289-.467v-1.9a1.046 1.046 0 0 0-.013-.157 5.166 5.166 0 0 0 1.479-3.6v-2.827a5.01 5.01 0 0 0-10.02 0v2.92a5 5 0 0 0 1.476 3.536 1.042 1.042 0 0 0-.009.13zm9.967 5.15l.385 2.15a1.54 1.54 0 0 1-1.517 1.811H36.101a1.539 1.539 0 0 1-1.512-1.83l.412-2.161a3.609 3.609 0 0 1 2.3-2.7l.8-.288c.02.02.04.041.062.06a4.856 4.856 0 0 0 6.366 0 1.036 1.036 0 0 0 .091-.091l.84.3a3.6 3.6 0 0 1 2.309 2.749zM38.44 11.491a2.9 2.9 0 0 1 5.714-.722c-.135.066-.274.129-.416.185a3.5 3.5 0 0 1-2.639.24 1.053 1.053 0 1 0-1.209 1.724 3.486 3.486 0 0 0 2.009.541 7.006 7.006 0 0 0 2.35-.448v1.309a3.049 3.049 0 0 1-.913 2.162 2.942 2.942 0 0 1-.907.609l-.068.029a2.717 2.717 0 0 1-1.073.192 2.918 2.918 0 0 1-2.847-2.9zm2.806 7.926h.1a4.885 4.885 0 0 0 1.44-.217v1.691a2.749 2.749 0 0 1-2.875 0v-1.68a4.942 4.942 0 0 0 1.336.209z" data-name="Path 10078" transform="translate(-14.416)"/>
        <path d="M24.782 49.256h32.783a1.053 1.053 0 0 0 0-2.106H24.782a1.053 1.053 0 0 0 0 2.106z" data-name="Path 10079" transform="translate(-14.416)"/>
        <path d="M24.782 54.933h32.783a1.053 1.053 0 1 0 0-2.105H24.782a1.053 1.053 0 1 0 0 2.105z" data-name="Path 10080" transform="translate(-14.416)"/>
        <path d="M24.782 60.609h32.783a1.053 1.053 0 0 0 0-2.106H24.782a1.053 1.053 0 0 0 0 2.106z" data-name="Path 10081" transform="translate(-14.416)"/>
        <path d="M24.782 66.285h32.783a1.053 1.053 0 1 0 0-2.105H24.782a1.053 1.053 0 1 0 0 2.105z" data-name="Path 10082" transform="translate(-14.416)"/>
        <path d="M23.729 36.85a1.053 1.053 0 0 0 1.053 1.053h32.783a1.053 1.053 0 1 0 0-2.105H24.782a1.053 1.053 0 0 0-1.053 1.053z" data-name="Path 10083" transform="translate(-14.416)"/>
        <path d="M24.782 43.58h32.783a1.053 1.053 0 0 0 0-2.106H24.782a1.053 1.053 0 0 0 0 2.106z" data-name="Path 10084" transform="translate(-14.416)"/>
        <path d="M20.897 49.259a1.057 1.057 0 1 0-1.057-1.057 1.057 1.057 0 0 0 1.057 1.057z" data-name="Path 10085" transform="translate(-14.416)"/>
        <path d="M20.897 37.906a1.057 1.057 0 1 0-1.057-1.057 1.057 1.057 0 0 0 1.057 1.057z" data-name="Path 10086" transform="translate(-14.416)"/>
        <path d="M20.897 43.583a1.057 1.057 0 1 0-1.057-1.057 1.057 1.057 0 0 0 1.057 1.057z" data-name="Path 10087" transform="translate(-14.416)"/>
        <path d="M20.897 54.936a1.057 1.057 0 1 0-1.057-1.057 1.057 1.057 0 0 0 1.057 1.057z" data-name="Path 10088" transform="translate(-14.416)"/>
        <path d="M20.897 60.612a1.057 1.057 0 1 0-1.057-1.057 1.057 1.057 0 0 0 1.057 1.057z" data-name="Path 10089" transform="translate(-14.416)"/>
        <path d="M20.897 66.289a1.057 1.057 0 1 0-1.057-1.057 1.057 1.057 0 0 0 1.057 1.057z" data-name="Path 10090" transform="translate(-14.416)"/>
        <path d="M80.559 16.58a7.278 7.278 0 0 1-1.02-1.514 7.673 7.673 0 0 1-.379-1.88 5.871 5.871 0 0 0-1.306-3.621 5.873 5.873 0 0 0-3.622-1.305 7.675 7.675 0 0 1-1.88-.379 7.272 7.272 0 0 1-1.514-1.02 7.93 7.93 0 0 0-2.516-1.518v-.319A5.03 5.03 0 0 0 63.3 0H19.441a5.03 5.03 0 0 0-5.025 5.024v4.064a1.053 1.053 0 1 0 2.106 0V5.024a2.922 2.922 0 0 1 2.919-2.919H63.3a2.922 2.922 0 0 1 2.919 2.919v.319A7.933 7.933 0 0 0 63.7 6.861a7.28 7.28 0 0 1-1.514 1.02 7.688 7.688 0 0 1-1.88.379 5.872 5.872 0 0 0-3.621 1.306 5.871 5.871 0 0 0-1.306 3.621 7.675 7.675 0 0 1-.379 1.88 7.273 7.273 0 0 1-1.02 1.514 5.907 5.907 0 0 0-1.68 3.567 5.908 5.908 0 0 0 1.678 3.568A7.278 7.278 0 0 1 55 25.23a7.673 7.673 0 0 1 .379 1.88 5.871 5.871 0 0 0 1.306 3.621 5.872 5.872 0 0 0 3.621 1.306c.369.046.727.09 1.057.152V48.1a1.617 1.617 0 0 0 2.613 1.273l2.238-1.752v19.223a2.922 2.922 0 0 1-2.914 2.919H19.441a2.922 2.922 0 0 1-2.919-2.919v-53.12a1.053 1.053 0 1 0-2.106 0v53.12a5.03 5.03 0 0 0 5.025 5.024H63.3a5.03 5.03 0 0 0 5.025-5.024V47.622l2.238 1.752a1.617 1.617 0 0 0 2.613-1.274V36.353a1.053 1.053 0 1 0-2.106 0V47.1l-2.8-2.191a1.618 1.618 0 0 0-2 0l-2.8 2.194V33.254l.231.182a5.908 5.908 0 0 0 3.568 1.678 5.909 5.909 0 0 0 3.568-1.678 7.282 7.282 0 0 1 1.514-1.02 7.689 7.689 0 0 1 1.88-.379 5.873 5.873 0 0 0 3.622-1.306 5.873 5.873 0 0 0 1.306-3.621 7.68 7.68 0 0 1 .379-1.88 7.272 7.272 0 0 1 1.02-1.514 5.907 5.907 0 0 0 1.678-3.568 5.908 5.908 0 0 0-1.678-3.568zm-1.652 5.83a8.82 8.82 0 0 0-1.313 2.012 9.259 9.259 0 0 0-.524 2.428 4.355 4.355 0 0 1-.705 2.391 4.357 4.357 0 0 1-2.391.705 9.262 9.262 0 0 0-2.428.524 8.819 8.819 0 0 0-2.012 1.313 4.344 4.344 0 0 1-2.263 1.224 4.343 4.343 0 0 1-2.263-1.224A8.824 8.824 0 0 0 63 30.47c-.051-.021-.227-.088-.265-.1a10.473 10.473 0 0 0-2.163-.424 4.357 4.357 0 0 1-2.391-.705 4.355 4.355 0 0 1-.705-2.39 9.261 9.261 0 0 0-.524-2.428 8.824 8.824 0 0 0-1.313-2.012 4.343 4.343 0 0 1-1.224-2.262 4.342 4.342 0 0 1 1.224-2.262 8.819 8.819 0 0 0 1.313-2.012 9.253 9.253 0 0 0 .524-2.428 4.355 4.355 0 0 1 .705-2.391 4.357 4.357 0 0 1 2.391-.705A9.262 9.262 0 0 0 63 9.826a8.819 8.819 0 0 0 2.012-1.313 4.356 4.356 0 0 1 2.259-1.224h.008a4.356 4.356 0 0 1 2.259 1.224 8.824 8.824 0 0 0 2.012 1.313 9.256 9.256 0 0 0 2.428.524 4.356 4.356 0 0 1 2.391.705 4.355 4.355 0 0 1 .705 2.39 9.259 9.259 0 0 0 .524 2.428 8.824 8.824 0 0 0 1.313 2.012 4.343 4.343 0 0 1 1.224 2.262 4.342 4.342 0 0 1-1.224 2.262z" data-name="Path 10091" transform="translate(-14.416)"/>
        <path d="M74.033 16.802l-3.582-1.014-2.071-3.094a1.33 1.33 0 0 0-2.21 0l-2.071 3.094-3.583 1.014a1.33 1.33 0 0 0-.683 2.1l2.3 2.926-.143 3.719a1.329 1.329 0 0 0 1.788 1.3l3.494-1.285 3.494 1.285a1.33 1.33 0 0 0 1.788-1.3l-.143-3.72 2.3-2.926a1.33 1.33 0 0 0-.683-2.1zm-3.451 3.95a1.332 1.332 0 0 0-.283.873l.109 2.847-2.674-.984a1.331 1.331 0 0 0-.918 0l-2.675.984.109-2.848a1.334 1.334 0 0 0-.284-.873l-1.762-2.239 2.743-.776a1.332 1.332 0 0 0 .742-.54l1.585-2.368 1.585 2.368a1.333 1.333 0 0 0 .743.54l2.742.776z" data-name="Path 10092" transform="translate(-14.416)"/>
    </g>
</svg>
