<svg xmlns="http://www.w3.org/2000/svg" width="53.503" height="53.503" viewBox="0 0 53.503 53.503">
    <g>
        <path d="M54.5 13.741v-4.77l-2.265-.62c-.074-.2-.157-.4-.247-.591l1.169-2.04-3.372-3.373-2.041 1.166c-.2-.09-.393-.173-.591-.247L46.533 1h-4.77l-.62 2.265c-.2.074-.4.157-.591.247l-2.04-1.166-3.373 3.373 1.166 2.041c-.049.106-.085.215-.129.323a11.036 11.036 0 0 0-2.557.761A14.663 14.663 0 0 0 7.041 17.4v.06A6.9 6.9 0 0 0 7.9 31.2h.506l11.579 11.579V54.5h15.533V42.779L47.094 31.2h.506a6.9 6.9 0 0 0 3.923-12.578l1.634-1.634-1.166-2.041c.09-.2.173-.393.247-.591zM33.792 42.065v10.712H21.711V42.065L9.228 29.582a1.578 1.578 0 0 1 2.232-2.232l6.74 6.744a9.559 9.559 0 0 0 5.37 2.686l2.245.321-.687 8.237 2.62 2.62 2.619-2.619-.687-8.243 2.246-.315a9.559 9.559 0 0 0 5.37-2.686l6.743-6.743a1.578 1.578 0 0 1 2.232 2.231zM20.908 31.2a6.869 6.869 0 0 0 1.521 3.529 7.816 7.816 0 0 1-3.006-1.859l-1.67-1.67zm13.688 0h3.154l-1.671 1.671a7.826 7.826 0 0 1-3.006 1.859A6.876 6.876 0 0 0 34.6 31.2zm-6.011 13.48l-.833.833-.833-.833.62-7.445H27.965zm-.833-9.165a5.178 5.178 0 1 1 5.178-5.178 5.183 5.183 0 0 1-5.178 5.181zM52.777 24.3a5.183 5.183 0 0 1-4.472 5.124 3.269 3.269 0 0 0 .157-.958 3.3 3.3 0 0 0-5.639-2.336l-3.347 3.347H34.6a6.9 6.9 0 0 0-13.688 0h-4.88L12.68 26.13a3.284 3.284 0 0 0-5.48 3.293 5.175 5.175 0 1 1 4.955-8.083l1.416-.988a6.92 6.92 0 0 0-4.8-2.9v-.055A12.937 12.937 0 0 1 32.6 10.41l.426.663.7-.364a9.392 9.392 0 0 1 4.381-1.079 9.538 9.538 0 0 1 9.334 7.77 6.908 6.908 0 0 0-6.741 6.9h1.726a5.178 5.178 0 1 1 10.355 0zM47.3 12.735a11.339 11.339 0 0 0-5.267-4.106 3.441 3.441 0 0 1 5.267 4.106zM51 16.7l-1.1 1.1a6.827 6.827 0 0 0-.7-.208 11.041 11.041 0 0 0-.925-3.159 5.165 5.165 0 0 0-8.145-6.339 11.108 11.108 0 0 0-1.964-.187l.1-.19-.975-1.709L38.8 4.5l1.709.975.419-.223a6.8 6.8 0 0 1 1.182-.494l.452-.139.52-1.894h2.134l.519 1.892.452.139a6.866 6.866 0 0 1 1.182.494l.419.223L49.5 4.5 51 6.007l-.975 1.709.223.419a6.8 6.8 0 0 1 .494 1.182l.139.452 1.893.52v2.134l-1.892.519-.139.452a6.867 6.867 0 0 1-.494 1.182l-.223.419z" data-name="Path 13668" transform="translate(-1 -1)"/>
        <path d="M35.771 18.869l1.116 1.116H18.616l1.116-1.116-1.22-1.22-3.2 3.2 3.2 3.2 1.22-1.22-1.116-1.116h18.271l-1.116 1.116 1.22 1.22 3.2-3.2-3.2-3.2z" data-name="Path 13669" transform="translate(-1 -1)"/>
        <path d="M25.45 6.816a11.075 11.075 0 0 0-1.871-.484l-.285 1.7a9.494 9.494 0 0 1 1.581.408z" data-name="Path 13670" transform="translate(-1 -1)"/>
        <path d="M21.711 6.178a11.179 11.179 0 0 0-11.063 9.35l1.7.285a9.456 9.456 0 0 1 9.36-7.909z" data-name="Path 13671" transform="translate(-1 -1)"/>
    </g>
</svg>
