<svg xmlns="http://www.w3.org/2000/svg" width="61.747" height="73.677" viewBox="0 0 61.747 73.677">
    <g data-name="marketing (1)">
        <path d="M91.382 32.259a19.028 19.028 0 1 0-27.087 17.249v.6h-1.041v10.7h1.041v4.768l8.059 8.1 8.059-8.1v-4.768h1.041v-10.7h-1.041v-.6a19.182 19.182 0 0 0 4.642-3.079l-1.441-1.605a17.052 17.052 0 0 1-4.7 2.995l-.655.28v2.009h-4.821V38.385h-2.169v11.719h-4.821v-2.011l-.658-.279a16.883 16.883 0 1 1 19.233-4.421l1.62 1.424a19.008 19.008 0 0 0 4.739-12.558zM67.969 66.21h8.772l-4.386 4.409zm11.329-7.559h-8.229v2.157h7.185v3.245h-11.8v-3.245h2.482v-2.157h-3.523v-2.117h9.7v-2.157h-9.7V52.26h13.886v2.117h-2.05v2.157h2.05v2.117z" data-name="Path 10011" transform="translate(-41.481)"/>
        <path d="M75.132 18.923l-.445 2.111a12.893 12.893 0 0 1 8.937 6.7l1.922-.978a15.039 15.039 0 0 0-10.414-7.833z" data-name="Path 10012" transform="translate(-41.481)"/>
        <path d="M87.109 33.336a14.612 14.612 0 0 0-.686-4.448l-2.055.656a12.457 12.457 0 0 1 .584 3.792z" data-name="Path 10013" transform="translate(-41.481)"/>
        <path d="M96.704 47.534l1.079-1.868 1.85 1.069-1.078 1.868z" data-name="Path 10014" transform="translate(-41.481)"/>
        <path d="M91.221 44.36l1.079-1.868 3.628 2.095-1.078 1.868z" data-name="Path 10015" transform="translate(-41.481)"/>
        <path d="M48.779 19.855l1.079-1.868 3.628 2.095-1.078 1.868z" data-name="Path 10016" transform="translate(-41.481)"/>
        <path d="M45.077 17.72l1.079-1.868 1.85 1.069-1.078 1.867z" data-name="Path 10017" transform="translate(-41.481)"/>
        <path d="M94.76 31.143h8.467V33.3H94.76z" data-name="Path 10018" transform="translate(-41.481)"/>
        <path d="M41.481 31.143h8.466V33.3h-8.466z" data-name="Path 10019" transform="translate(-41.481)"/>
        <path d="M45.079 46.722l1.85-1.069 1.08 1.868-1.852 1.069z" data-name="Path 10020" transform="translate(-41.481)"/>
        <path d="M48.778 44.587l3.629-2.095 1.078 1.868-3.629 2.095z" data-name="Path 10021" transform="translate(-41.481)"/>
        <path d="M91.222 20.082l3.629-2.095 1.078 1.868L92.3 21.95z" data-name="Path 10022" transform="translate(-41.481)"/>
        <path d="M96.7 16.919l1.85-1.069 1.08 1.868-1.851 1.069z" data-name="Path 10023" transform="translate(-41.481)"/>
        <path d="M82.625 12.276l4.231-7.329 1.868 1.079-4.231 7.329z" data-name="Path 10024" transform="translate(-41.481)"/>
        <path d="M71.276 5.622h2.157v4.193h-2.157z" data-name="Path 10025" transform="translate(-41.481)"/>
        <path d="M71.276 0h2.157v3.547h-2.157z" data-name="Path 10026" transform="translate(-41.481)"/>
        <path d="M55.983 6.024l1.868-1.079 4.231 7.33-1.868 1.078z" data-name="Path 10027" transform="translate(-41.481)"/>
    </g>
</svg>
