<svg xmlns="http://www.w3.org/2000/svg" width="62" height="62" viewBox="0 0 62 62">
    <g data-name="Layer 19">
        <path d="M47 1a16 16 0 1 0 16 16A16 16 0 0 0 47 1zm0 30a14 14 0 1 1 14-14 14 14 0 0 1-14 14z" data-name="Path 9281" transform="translate(-1 -1)"/>
        <path d="M17 31a16 16 0 1 0 16 16 16 16 0 0 0-16-16zm0 30a14 14 0 1 1 14-14 14 14 0 0 1-14 14z" data-name="Path 9282" transform="translate(-1 -1)"/>
        <path d="M54 7H40a1 1 0 0 0-1 1v18a1 1 0 0 0 1 1h14a1 1 0 0 0 1-1V8a1 1 0 0 0-1-1zm-1 18H41V9h12z" data-name="Path 9283" transform="translate(-1 -1)"/>
        <path d="M43 12h8v2h-8z" data-name="Path 9284" transform="translate(-1 -1)"/>
        <path d="M43 16h8v2h-8z" data-name="Path 9285" transform="translate(-1 -1)"/>
        <path d="M43 20h8v2h-8z" data-name="Path 9286" transform="translate(-1 -1)"/>
        <path d="M17 42a2 2 0 0 1 2 2h2a4 4 0 0 0-3-3.86V38h-2v2.14A4 4 0 0 0 17 48a2 2 0 1 1-2 2h-2a4 4 0 0 0 3 3.86V56h2v-2.14A4 4 0 0 0 17 46a2 2 0 0 1 0-4z" data-name="Path 9287" transform="translate(-1 -1)"/>
        <path d="M17 35a12 12 0 1 0 12 12 12 12 0 0 0-12-12zm0 22a10 10 0 1 1 10-10 10 10 0 0 1-10 10z" data-name="Path 9288" transform="translate(-1 -1)"/>
        <path d="M46.13 50.15l1.23 1.57c.54-.42 1.07-.87 1.58-1.33l-1.36-1.47c-.46.42-.95.84-1.45 1.23z" data-name="Path 9289" transform="translate(-1 -1)"/>
        <path d="M51.27 44.57l1.67 1.09c.38-.57.73-1.17 1.06-1.77l-1.76-1c-.3.6-.63 1.11-.97 1.68z" data-name="Path 9290" transform="translate(-1 -1)"/>
        <path d="M53.08 41.22l1.83.81c.27-.63.52-1.28.75-1.93l-1.89-.65c-.21.6-.44 1.2-.69 1.77z" data-name="Path 9291" transform="translate(-1 -1)"/>
        <path d="M48.93 47.57l1.47 1.35a17.028 17.028 0 0 0 1.34-1.57l-1.58-1.23c-.39.49-.8.98-1.23 1.45z" data-name="Path 9292" transform="translate(-1 -1)"/>
        <path d="M54.31 37.63l1.94.49c.16-.66.3-1.34.42-2l-2-.32a18.443 18.443 0 0 1-.36 1.83z" data-name="Path 9293" transform="translate(-1 -1)"/>
        <path d="M54.92 33.88l2 .16c0-.67.08-1.36.08-2h-2a14.393 14.393 0 0 1-.08 1.84z" data-name="Path 9294" transform="translate(-1 -1)"/>
        <path d="M39.48 53.76l.65 1.89c.65-.22 1.3-.48 1.92-.75l-.8-1.83q-.87.38-1.77.69z" data-name="Path 9295" transform="translate(-1 -1)"/>
        <path d="M43 52.23l.91 1.77c.6-.33 1.2-.69 1.77-1.06l-1.09-1.68c-.53.34-1.08.67-1.59.97z" data-name="Path 9296" transform="translate(-1 -1)"/>
        <path d="M32 55v2a17.651 17.651 0 0 0 2.06-.08l-.16-2A14.939 14.939 0 0 1 32 55z" data-name="Path 9297" transform="translate(-1 -1)"/>
        <path d="M35.8 54.69l.32 2c.68-.11 1.36-.25 2-.42l-.49-1.94c-.58.12-1.21.25-1.83.36z" data-name="Path 9298" transform="translate(-1 -1)"/>
        <path d="M24.52 10.24l-.65-1.89c-.65.22-1.29.48-1.92.75l.8 1.84c.58-.26 1.18-.49 1.77-.7z" data-name="Path 9299" transform="translate(-1 -1)"/>
        <path d="M21 11.77L20.09 10c-.6.33-1.2.69-1.77 1.06l1.09 1.68c.53-.34 1.08-.67 1.59-.97z" data-name="Path 9300" transform="translate(-1 -1)"/>
        <path d="M17.87 13.85l-1.23-1.57c-.55.42-1.08.87-1.58 1.33l1.36 1.47c.46-.42.95-.84 1.45-1.23z" data-name="Path 9301" transform="translate(-1 -1)"/>
        <path d="M32 9V7a17.651 17.651 0 0 0-2.06.08l.16 2A14.939 14.939 0 0 1 32 9z" data-name="Path 9302" transform="translate(-1 -1)"/>
        <path d="M28.2 9.31l-.32-2c-.68.11-1.36.25-2 .42l.49 1.94c.63-.12 1.21-.25 1.83-.36z" data-name="Path 9303" transform="translate(-1 -1)"/>
        <path d="M15.07 16.43l-1.47-1.35c-.46.5-.91 1-1.34 1.57l1.58 1.23c.39-.5.81-.99 1.23-1.45z" data-name="Path 9304" transform="translate(-1 -1)"/>
        <path d="M9.08 30.12l-2-.16A17.31 17.31 0 0 0 7 32h2a14.7 14.7 0 0 1 .08-1.88z" data-name="Path 9305" transform="translate(-1 -1)"/>
        <path d="M9.69 26.37l-1.94-.49c-.16.66-.3 1.34-.42 2l2 .32a18.442 18.442 0 0 1 .36-1.83z" data-name="Path 9306" transform="translate(-1 -1)"/>
        <path d="M12.73 19.43l-1.67-1.09c-.38.58-.74 1.18-1.06 1.77l1.76.95c.3-.55.63-1.06.97-1.63z" data-name="Path 9307" transform="translate(-1 -1)"/>
        <path d="M10.92 22.78L9.09 22c-.27.63-.52 1.28-.75 1.93l1.89.65c.21-.58.44-1.23.69-1.8z" data-name="Path 9308" transform="translate(-1 -1)"/>
    </g>
</svg>
