<svg xmlns="http://www.w3.org/2000/svg" width="59.096" height="48.919" viewBox="0 0 59.096 48.919">
    <path id="prefix__Path_8939" fill="#fff" d="M-305.849 252.3l.006-.009.01-.019.026-.046.016-.031.02-.046.013-.037.013-.042.011-.043.009-.039.007-.047v-.212l-.007-.04-.007-.046-.009-.031-.014-.05-.01-.029-.02-.049-.014-.033-.021-.04-.023-.039-.02-.032-.03-.04-.02-.027-.034-.037-.023-.024-.034-.03-.031-.027-.03-.023-.042-.029-.011-.007-7.4-4.627-.016-.009-.03-.017-.02-.01-.032-.016-.026-.011-.017-.007-.043-.014-.016-.006h-.016l-.049-.013h-.032l-.052-.007H-314.158l-.036.009-.043.013-.039.013-.027.01-.011.006-.04.019-.027.013-13.249 7.066-7.875-9.626-.007-.01-.02-.02a.487.487 0 0 0-.037-.04l-.024-.021-.039-.034-.039-.029-.026-.019-.042-.024-.032-.019-.04-.019-.037-.016-.037-.014-.043-.014h-.006l-.04-.01-.036-.009h-.016l-25.9-4.626h-.026l-.046-.006h-.167l-.046.006-.039.007-.043.01-.04.011-.039.013-.042.016-.036.017-.04.019-.037.021-.034.023-.039.027-.021.016-.009.007-.037.033-.027.026-.031.034-.026.029-.026.036-.024.033-.023.037-.02.036-.019.037-.017.04-.014.037-.014.043-.01.037-.01.047v.037l-.006.047v.168l.006.044.007.039.009.043.011.04.013.039.016.042.017.037.02.039.021.037.021.034.027.039.016.021 5.534 6.917h-6.82l-.04.006-.046.01-.036.009-.046.014-.034.013-.042.017-.037.019-.036.019-.039.023-.031.021-.037.029-.029.024-.034.03-.029.03-.029.03-.03.037-.014.019-.007.011-.029.043-.017.03-.023.043-.017.034-.016.042-.014.039-.011.039-.011.044-.006.036-.009.049v.214l.006.04.01.044.009.037.014.044.013.036.017.042.017.037.02.036.023.039.021.03.029.039.023.029.031.034.029.029.032.027.037.032.019.014 19.926 14.491-3.619 23.522v.021c0 .024-.006.05-.007.074v.029a.337.337 0 0 0 0 .054V287.11l.009.049.007.033.013.049.01.032.017.044.014.034.019.037.02.039.019.03.027.042.02.024.033.042.021.023.036.036.03.026.033.029.044.032.024.016a.735.735 0 0 0 .064.037l.01.006c.03.014.06.027.092.039l.023.007.064.02.044.009.031.007h.011a.852.852 0 0 0 .12.01.648.648 0 0 0 .106-.009h.021a.921.921 0 0 0 .206-.059l.019-.007a.706.706 0 0 0 .092-.049l.017-.01.072-.05.02-.016c.026-.021.05-.044.074-.069l.017-.02c.023-.026.044-.053.066-.082a.762.762 0 0 0 .059-.1v-.007l6.336-12.671 20.99-9.127.017-.007.049-.026H-319.106l.019-.011.039-.023.024-.017.009-.007.029-.021h.007l.006-.006.024-.021.021-.022.01-.01.007-.007.017-.019.021-.023.02-.024.01-.013.009-.011.009-.013.02-.029.006-.009.019-.033.019-.032.017-.039.014-.031.014-.042v-.024l3.9-12.334h8.232c.033 0 .064 0 .095-.006h.027l.073-.014.027-.007a.548.548 0 0 0 .073-.023l.023-.009c.031-.013.062-.026.092-.042l.08-.05.029-.021.05-.042.027-.024a.64.64 0 0 0 .06-.064l.007-.007c.034-.062.054-.091.072-.123zm-9.6-3.328L-319.874 263l-6.643-8.118zm-44.524-7.908l22.587 4.033-6.454 16.134zm38.484 22.7l-20.855-1.6 6.417-16.042zm-18.73 9.069l-2.235-8.942 19.373 1.491zm-1.512 1.1l-3.858 7.716 2.2-14.331zm-6.565-15.5L-361.273 249h5.428zm34.8-9.9l3.888 2.429h-4.654z" data-name="Path 8939" transform="translate(364.807 -238.941)"/>
</svg>
