<svg xmlns="http://www.w3.org/2000/svg" width="20.846" height="26.061" viewBox="0 0 20.846 26.061">
    <g>
        <path d="M61.651 2.92a7.463 7.463 0 1 0 7.488 7.463 7.486 7.486 0 0 0-7.488-7.463zm0 13.908a6.445 6.445 0 1 1 6.474-6.445 6.467 6.467 0 0 1-6.474 6.445z" data-name="Path 14577" transform="translate(-51.228)"/>
        <path d="M61.651 0a10.414 10.414 0 0 0-10.423 10.382 13.936 13.936 0 0 0 1.6 6.315 22.06 22.06 0 0 0 3.488 4.917 28.772 28.772 0 0 0 5.056 4.367.509.509 0 0 0 .55 0 28.769 28.769 0 0 0 5.056-4.367A22.061 22.061 0 0 0 70.47 16.7a13.936 13.936 0 0 0 1.6-6.315A10.415 10.415 0 0 0 61.651 0zm4.6 20.906a29.08 29.08 0 0 1-4.6 4.031 29.076 29.076 0 0 1-4.6-4.031c-2.192-2.386-4.806-6.148-4.806-10.524a9.405 9.405 0 0 1 18.81 0c.001 4.376-2.612 8.138-4.805 10.524z" data-name="Path 14578" transform="translate(-51.228)"/>
        <path d="M65.16 8.955l-1.944-.573L62.07 6.71a.509.509 0 0 0-.84 0l-1.146 1.672-1.944.573a.509.509 0 0 0-.26.8l1.236 1.606-.056 2.026a.509.509 0 0 0 .679.494l1.909-.679 1.909.679a.509.509 0 0 0 .679-.494l-.056-2.026 1.236-1.606a.509.509 0 0 0-.26-.8zm-1.893 1.927a.509.509 0 0 0-.105.324l.04 1.464-1.38-.491a.509.509 0 0 0-.341 0l-1.38.491.04-1.464a.509.509 0 0 0-.105-.324l-.893-1.161 1.4-.414a.509.509 0 0 0 .276-.2l.828-1.208.828 1.208a.509.509 0 0 0 .276.2l1.4.414z" data-name="Path 14579" transform="translate(-51.228)"/>
    </g>
</svg>
