<svg width="155" height="32" viewBox="0 0 155 32" fill="none" xmlns="http://www.w3.org/2000/svg">
<path d="M18.2852 7.4678C18.0384 7.4678 17.8295 7.67681 17.8295 7.92382V9.51988V9.67189V13.491C17.8295 16.8162 15.1333 19.5143 11.8104 19.5143C8.48754 19.5143 5.81026 16.8162 5.81026 13.491V1.65356V0.456507C5.81026 0.209497 5.6014 0.000488281 5.35456 0.000488281H0.455707C0.208866 0.0194891 0 0.209497 0 0.456507V13.32C0 19.8373 5.20265 25.2525 11.7345 25.2905C18.3042 25.3475 23.6398 20.0273 23.6398 13.453V7.92382C23.6398 7.67681 23.4309 7.4678 23.1841 7.4678H18.2852Z" fill="#176CFF"/>
<path d="M8.92443 24.6442C8.92443 24.6442 16.5006 21.9651 17.4879 15.4858C17.4879 15.4858 16.3107 19.4 11.8296 19.514L7.95605 24.6632L8.31682 24.7772L8.92443 24.6442Z" fill="url(#paint0_linear_5779_821)"/>
<path d="M23.1647 5.51023H18.2848C18.038 5.51023 17.8291 5.30122 17.8291 5.05421V0.456019C17.8291 0.209009 18.038 0 18.2848 0H23.1647C23.4115 0 23.6204 0.209009 23.6204 0.456019V5.07321C23.6204 5.32022 23.4115 5.51023 23.1647 5.51023Z" fill="#1FC9AA"/>
<path d="M31.8992 7.42966V10.6598C32.222 9.55775 32.8676 8.68371 33.817 8.03769C34.7664 7.41066 35.8677 7.08765 37.0829 7.08765V13.4529C35.7727 13.2439 34.5575 13.4909 33.4752 14.1749C32.4119 14.859 31.8802 15.999 31.8802 17.5761V24.7584H26.127V7.42966H31.8992Z" fill="#176CFF"/>
<path d="M48.0776 25.2711C45.5523 25.2711 43.4636 24.739 41.7547 23.675C40.0648 22.6109 38.8686 21.1289 38.166 19.2478L43.4636 16.1697C44.356 18.3168 45.951 19.3998 48.2485 19.3998C50.1473 19.3998 51.0967 18.8488 51.0967 17.7657C51.0967 17.0817 50.5461 16.4927 49.4637 16.0367C49.103 15.9037 48.0776 15.5807 46.4257 15.1056C44.0712 14.4406 42.2864 13.5096 41.0522 12.2935C39.8369 11.0965 39.2103 9.5004 39.2103 7.50531C39.2103 5.26322 40.0078 3.45814 41.6028 2.07109C43.2358 0.684029 45.2485 0 47.6219 0C49.6536 0 51.4575 0.47502 53.0334 1.44406C54.6094 2.3941 55.8057 3.78116 56.6411 5.54823L51.4385 8.60736C50.679 6.80228 49.4258 5.90925 47.6599 5.90925C46.9384 5.90925 46.3877 6.06125 45.989 6.34626C45.5902 6.63128 45.4004 7.03029 45.4004 7.50531C45.4004 8.03734 45.6852 8.49335 46.2548 8.85437C46.8244 9.21538 47.9257 9.6524 49.5587 10.1274C50.7739 10.4884 51.7233 10.8115 52.4069 11.0965C53.1664 11.4195 53.9449 11.8565 54.7613 12.4075C56.4513 13.5096 57.2867 15.2766 57.2867 17.7087C57.2867 20.0838 56.4513 21.9459 54.7613 23.295C53.0714 24.606 50.8499 25.2711 48.0776 25.2711Z" fill="#176CFF"/>
<path d="M70.0647 6.95459C72.3812 6.95459 74.299 7.82863 75.856 9.5957C77.432 11.3438 78.2105 13.5289 78.2105 16.113C78.2105 18.6971 77.432 20.8822 75.856 22.6682C74.28 24.3973 72.3622 25.2714 70.0647 25.2714C67.957 25.2714 66.3241 24.5873 65.1469 23.2003V31.6936H59.3936V7.42961H65.1469V9.02568C66.3241 7.63862 67.957 6.95459 70.0647 6.95459ZM66.1532 18.8301C66.8178 19.5141 67.6912 19.8751 68.7925 19.8751C69.8748 19.8751 70.7483 19.5331 71.4318 18.8301C72.0964 18.1081 72.4382 17.196 72.4382 16.094C72.4382 14.9919 72.0964 14.0799 71.4318 13.3579C70.7672 12.6738 69.8938 12.3128 68.7925 12.3128C67.7102 12.3128 66.8368 12.6548 66.1532 13.3579C65.4886 14.0799 65.1469 14.9919 65.1469 16.094C65.1469 17.196 65.4886 18.1271 66.1532 18.8301Z" fill="#176CFF"/>
<path d="M92.8493 9.02535V7.42928H98.6026V24.758H92.8493V23.1619C91.6721 24.549 90.0391 25.233 87.9315 25.233C85.596 25.233 83.6592 24.359 82.1212 22.6299C80.5832 20.8818 79.8047 18.6967 79.8047 16.0746C79.8047 13.4335 80.5832 11.2674 82.1212 9.55737C83.6592 7.8093 85.615 6.91626 87.9315 6.91626C90.0391 6.95426 91.6721 7.63829 92.8493 9.02535ZM86.5833 18.8298C87.2289 19.5138 88.1024 19.8748 89.2226 19.8748C90.3429 19.8748 91.2164 19.5328 91.8619 18.8298C92.5265 18.1077 92.8683 17.1957 92.8683 16.0936C92.8683 14.9916 92.5265 14.0796 91.8619 13.3575C91.2164 12.6735 90.3429 12.3125 89.2226 12.3125C88.1024 12.3125 87.2289 12.6545 86.5833 13.3575C85.9188 14.0796 85.577 14.9916 85.577 16.0936C85.577 17.1957 85.9188 18.1267 86.5833 18.8298Z" fill="#176CFF"/>
<path d="M110.129 17.4808L112.826 7.42936H119.205L113.281 24.4731C112.351 27.0762 111.06 28.9573 109.37 30.1163C107.68 31.2754 105.496 31.7884 102.819 31.6744V26.2591C104.034 26.2591 104.965 26.1071 105.591 25.8031C106.218 25.4991 106.73 24.9671 107.11 24.1691L100.18 7.39136H106.617L110.129 17.4808Z" fill="#176CFF"/>
<path d="M128.377 25.2523C125.738 25.2523 123.555 24.3783 121.789 22.6112C120.042 20.8631 119.149 18.678 119.149 16.0939C119.149 13.5098 120.023 11.3437 121.789 9.57666C123.536 7.82858 125.738 6.93555 128.377 6.93555C130.086 6.93555 131.643 7.33456 133.029 8.1326C134.435 8.93063 135.498 10.0137 136.276 11.4007L131.359 14.2509C130.732 13.1108 129.726 12.5598 128.34 12.5598C127.371 12.5598 126.555 12.8828 125.909 13.5478C125.263 14.2129 124.941 15.0489 124.941 16.0939C124.941 17.139 125.263 17.975 125.909 18.64C126.555 19.3051 127.371 19.6281 128.34 19.6281C129.745 19.6281 130.751 19.0581 131.359 17.899L136.276 20.7491C135.517 22.1362 134.435 23.2382 133.029 24.0363C131.643 24.8343 130.086 25.2523 128.377 25.2523Z" fill="#176CFF"/>
<path d="M154.77 18.2027H142.826C143.396 19.6088 144.687 20.3118 146.7 20.3118C147.915 20.3118 148.978 19.9128 149.852 19.0958L154.01 22.0029C152.32 24.15 149.852 25.233 146.567 25.233C143.643 25.233 141.288 24.378 139.504 22.6679C137.757 20.9388 136.864 18.7537 136.864 16.1126C136.864 13.5095 137.738 11.3244 139.466 9.55737C141.193 7.8093 143.396 6.91626 146.073 6.91626C148.656 6.91626 150.801 7.7903 152.472 9.51937C154.162 11.2294 154.998 13.3955 154.998 16.0366C155.017 16.8727 154.941 17.5947 154.77 18.2027ZM142.75 14.2316H149.396C148.959 12.6165 147.877 11.7995 146.149 11.7995C144.364 11.7995 143.244 12.6165 142.75 14.2316Z" fill="#176CFF"/>
<defs>
<linearGradient id="paint0_linear_5779_821" x1="17.7327" y1="18.9926" x2="10.4692" y2="20.7216" gradientUnits="userSpaceOnUse">
<stop stop-color="#082C6B"/>
<stop offset="1" stop-color="#2F7BFF" stop-opacity="0"/>
</linearGradient>
</defs>
</svg>
