<svg xmlns="http://www.w3.org/2000/svg" width="62.82" height="58.46" viewBox="0 0 62.82 58.46">
    <g>
        <path d="M41.593 24.54a1.227 1.227 0 1 0-1.227-1.227 1.227 1.227 0 0 0 1.227 1.227zm0 0" data-name="Path 8906" transform="translate(.001)"/>
        <path d="M8.956 7.362a1.227 1.227 0 1 0-1.227-1.227 1.227 1.227 0 0 0 1.227 1.227zm0 0" data-name="Path 8907" transform="translate(.001)"/>
        <path d="M14.5 39.992l1.86.8a6.167 6.167 0 0 0 4.834 0l1.858-.8a24.291 24.291 0 0 0 2.43-1.209 23.764 23.764 0 0 0 14.289 18.386l1.86.8a6.168 6.168 0 0 0 4.834 0l1.859-.8a23.642 23.642 0 0 0 14.5-21.427V20.859a3.685 3.685 0 0 0-3.681-3.681H37.544V3.681A3.685 3.685 0 0 0 33.863 0H3.68A3.685 3.685 0 0 0 0 3.681v14.884a23.642 23.642 0 0 0 14.5 21.427zm45.87-19.133v14.884a21.3 21.3 0 0 1-13.01 19.171l-1.858.8a3.7 3.7 0 0 1-2.9 0l-1.86-.8a21.206 21.206 0 0 1-12.956-17.622 24.35 24.35 0 0 0 4.6-4.367 6.133 6.133 0 0 0 7.993-.1 1.227 1.227 0 1 0-1.624-1.84 3.683 3.683 0 0 1-4.87 0c-.018-.016-.037-.03-.056-.045a22.762 22.762 0 0 0 3.689-11.305h21.62a1.228 1.228 0 0 1 1.227 1.227zM2.453 3.681A1.228 1.228 0 0 1 3.68 2.454h30.183a1.228 1.228 0 0 1 1.227 1.227v14.884a21.16 21.16 0 0 1-13.01 19.171l-1.858.8a3.7 3.7 0 0 1-2.9 0l-1.86-.8A21.3 21.3 0 0 1 2.453 18.565zm0 0" data-name="Path 8908" transform="translate(.001)"/>
        <path d="M26.133 22.086H11.41a1.227 1.227 0 0 0-1.227 1.227 8.589 8.589 0 0 0 17.177 0 1.227 1.227 0 0 0-1.227-1.227zm-7.362 7.362a6.147 6.147 0 0 1-6.012-4.909h12.024a6.147 6.147 0 0 1-6.011 4.909zm0 0" data-name="Path 8909" transform="translate(.001)"/>
        <path d="M11.41 14.724a3.677 3.677 0 0 1 2.435.92 1.227 1.227 0 1 0 1.624-1.84 6.135 6.135 0 0 0-8.117 0 1.227 1.227 0 0 0 1.623 1.84 3.677 3.677 0 0 1 2.435-.92zm0 0" data-name="Path 8910" transform="translate(.001)"/>
        <path d="M22.075 13.804a1.227 1.227 0 1 0 1.623 1.84 3.683 3.683 0 0 1 4.869 0 1.227 1.227 0 1 0 1.624-1.84 6.136 6.136 0 0 0-8.117 0zm0 0" data-name="Path 8911" transform="translate(.001)"/>
        <path d="M13.864 7.362h14.723a1.227 1.227 0 0 0 0-2.454H13.864a1.227 1.227 0 0 0 0 2.454zm0 0" data-name="Path 8912" transform="translate(.001)"/>
        <path d="M35.458 47.852a1.227 1.227 0 0 0 1.227 1.227h14.723a1.227 1.227 0 0 0 1.227-1.227 8.589 8.589 0 0 0-17.177 0zm8.589-6.135a6.146 6.146 0 0 1 6.012 4.908H38.035a6.146 6.146 0 0 1 6.012-4.908zm0 0" data-name="Path 8913" transform="translate(.001)"/>
        <path d="M53.844 30.981a3.681 3.681 0 0 1-4.869 0 1.227 1.227 0 1 0-1.623 1.84 6.134 6.134 0 0 0 8.116 0 1.227 1.227 0 1 0-1.623-1.84zm0 0" data-name="Path 8914" transform="translate(.001)"/>
        <path d="M46.501 24.54h7.362a1.227 1.227 0 1 0 0-2.454h-7.362a1.227 1.227 0 0 0 0 2.454zm0 0" data-name="Path 8915" transform="translate(.001)"/>
    </g>
</svg>
