<svg xmlns="http://www.w3.org/2000/svg" width="95.733" height="70.832" viewBox="0 0 95.733 70.832">
    <defs>
        <style>
            .cls-2{fill:#f8f8f8}.cls-3{fill:#fff}
        </style>
    </defs>
    <g id="Group_13168" data-name="Group 13168" opacity="0.4" transform="translate(-38.581 -113.147)">
        <path id="Path_14626" d="M93.42 114.19l-2.433.81-2.062 2.948-.295 9.359.295 3.979.958 2.211 2.284 1.179h9.211l3.243.295 6.043 5.011v-5.674l2.137.663 2.579-.663 1.916-3.021.737-4.5-.737-8.843-1.105-2.432-1.991-1.322z" class="cls-2" data-name="Path 14626"/>
        <path id="Path_14625" d="M62.331 122.178h12.244l2.211.567L78.43 127v5.442l-3.117 3-5.159.51h-1.418l-5.158 5.612-.283-2.891-.4-2.041-1.813-1.417-1.3-1.474-1.3-4.138.283-3.458 1.757-2.437z" class="cls-2" data-name="Path 14625"/>
        <path id="Path_14185" d="M184.127 298.667h-55.02a.907.907 0 1 1 0-1.814h55.021a.907.907 0 0 1 0 1.814z" data-name="Path 14185" transform="translate(-69.303 -142.062)"/>
        <path id="Path_14187" d="M155.407 180.94h-9.564a.907.907 0 0 1 0-1.814h9.564a.907.907 0 0 1 0 1.814z" data-name="Path 14187" transform="translate(-82.246 -51.023)"/>
        <path id="Path_14188" d="M302.064 145.076h-16.283a.907.907 0 1 1 0-1.813h16.283a.907.907 0 0 1 0 1.813z" data-name="Path 14188" transform="translate(-190.461 -23.289)"/>
        <path id="Path_14189" d="M302.064 170.267h-16.283a.907.907 0 1 1 0-1.813h16.283a.907.907 0 0 1 0 1.813z" data-name="Path 14189" transform="translate(-190.461 -42.769)"/>
        <path id="Path_14191" d="M252.437 299.654h-2.712a.736.736 0 0 0-.736.736v2.694a.736.736 0 0 0 .736.736h17.4a.773.773 0 0 0 .773-.773v-2.362a.773.773 0 0 0-.773-.773h-2.835v-12.886a2.4 2.4 0 0 0-2.405-2.405h-7.115a2.4 2.4 0 0 0-2.405 2.419z" class="cls-2" data-name="Path 14191" transform="translate(-162.711 -132.603)"/>
        <path id="Path_14192" d="M264.033 301.634h-17.4a1.645 1.645 0 0 1-1.643-1.643V297.3a1.645 1.645 0 0 1 1.643-1.643h1.8l-.067-11.7a3.312 3.312 0 0 1 3.312-3.331h7.116a3.316 3.316 0 0 1 3.312 3.312v11.979h1.928a1.682 1.682 0 0 1 1.68 1.68v2.362a1.682 1.682 0 0 1-1.681 1.675zM246.8 299.82h17.1v-2.1h-3.608v-13.787a1.5 1.5 0 0 0-1.5-1.5h-7.116a1.5 1.5 0 0 0-1.5 1.507l.077 13.526H246.8z" data-name="Path 14192" transform="translate(-159.618 -129.51)"/>
        <path id="Line_214" d="M0 0L0 4.295" class="cls-3" data-name="Line 214" transform="translate(89.771 165.777)"/>
        <path id="Path_14193" d="M261.307 347.424a.907.907 0 0 1-.907-.907v-4.3a.907.907 0 0 1 1.814 0v4.3a.907.907 0 0 1-.907.907z" data-name="Path 14193" transform="translate(-171.535 -176.445)"/>
        <path id="Line_215" d="M0 0L0 4.295" class="cls-3" data-name="Line 215" transform="translate(101.566 165.777)"/>
        <path id="Path_14194" d="M313.339 347.424a.907.907 0 0 1-.907-.907v-4.3a.907.907 0 0 1 1.814 0v4.3a.907.907 0 0 1-.907.907z" data-name="Path 14194" transform="translate(-211.772 -176.445)"/>
        <path id="Line_216" d="M0 0L0 11.511" class="cls-3" data-name="Line 216" transform="translate(95.733 171.561)"/>
        <path id="Path_14195" d="M287.607 380.156a.907.907 0 0 1-.907-.907v-11.51a.907.907 0 0 1 1.814 0v11.511a.907.907 0 0 1-.907.906z" data-name="Path 14195" transform="translate(-191.873 -196.178)"/>
        <path id="Path_14196" d="M273.108 403.069a.912.912 0 0 1-.227-.029l-6.483-1.668-6.01 1.123a.907.907 0 0 1-.333-1.782l6.406-1.2 6.873 1.768a.907.907 0 0 1-.225 1.785z" data-name="Path 14196" transform="translate(-170.696 -221.453)"/>
        <path id="Line_217" d="M0 0L0 11.511" class="cls-3" data-name="Line 217" transform="translate(45.696 165.805)"/>
        <path id="Path_14197" d="M66.874 354.767a.907.907 0 0 1-.907-.907v-11.511a.907.907 0 1 1 1.814 0v11.511a.907.907 0 0 1-.907.907z" data-name="Path 14197" transform="translate(-21.178 -176.544)"/>
        <path id="Path_14198" d="M52.374 377.679a.908.908 0 0 1-.227-.029l-6.483-1.668-6.01 1.123a.907.907 0 1 1-.333-1.783l6.405-1.2 6.872 1.768a.907.907 0 0 1-.225 1.785z" data-name="Path 14198" transform="translate(0 -201.819)"/>
        <path id="Path_14199" d="M60.527 325.562v2.405a.773.773 0 0 1-.773.773H44.721a.816.816 0 0 1-.816-.816v-3.136h15.849a.773.773 0 0 1 .773.774z" class="cls-2" data-name="Path 14199" transform="translate(-4.117 -163.666)"/>
        <path id="Path_14200" d="M56.661 326.554H41.628a1.725 1.725 0 0 1-1.723-1.723v-4.042h16.756a1.682 1.682 0 0 1 1.68 1.68v2.405a1.682 1.682 0 0 1-1.68 1.68zm-14.942-1.813h14.808V322.6H41.719z" data-name="Path 14200" transform="translate(-1.024 -160.572)"/>
        <path id="Path_14201" d="M55.545 248.9v15.376h-11.61c-.017 0-.03-.086-.03-.193V248.9a2.362 2.362 0 0 1 2.362-2.362h6.915a2.362 2.362 0 0 1 2.363 2.362z" class="cls-2" data-name="Path 14201" transform="translate(-4.117 -103.152)"/>
        <path id="Path_14202" d="M53.358 262.089H40.842a.969.969 0 0 1-.937-1.1v-15.183a3.273 3.273 0 0 1 3.269-3.269h6.915a3.273 3.273 0 0 1 3.269 3.269zm-11.64-1.813h9.826v-14.47a1.457 1.457 0 0 0-1.456-1.456h-6.914a1.457 1.457 0 0 0-1.456 1.456z" data-name="Path 14202" transform="translate(-1.024 -100.059)"/>
        <path id="Line_218" d="M0 0L0 11.511" class="cls-3" data-name="Line 218" transform="translate(127.2 165.805)"/>
        <path id="Path_14203" d="M426.418 354.767a.907.907 0 0 1-.907-.907v-11.511a.907.907 0 1 1 1.814 0v11.511a.907.907 0 0 1-.907.907z" data-name="Path 14203" transform="translate(-299.218 -176.544)"/>
        <path id="Path_14204" d="M396.958 377.679a.907.907 0 0 1-.225-1.785l6.872-1.768 6.405 1.2a.907.907 0 0 1-.333 1.783l-6.01-1.123-6.483 1.668a.908.908 0 0 1-.226.025z" data-name="Path 14204" transform="translate(-276.437 -201.819)"/>
        <path id="Path_14205" d="M382.245 325.562v2.405a.773.773 0 0 0 .773.773h15.033a.816.816 0 0 0 .816-.816v-3.136h-15.849a.773.773 0 0 0-.773.774z" class="cls-2" data-name="Path 14205" transform="translate(-265.76 -163.666)"/>
        <path id="Path_14206" d="M394.958 326.554h-15.033a1.682 1.682 0 0 1-1.68-1.68v-2.405a1.682 1.682 0 0 1 1.68-1.68h16.756v4.042a1.725 1.725 0 0 1-1.723 1.723zm-14.9-1.813h14.809V322.6h-14.808z" data-name="Path 14206" transform="translate(-262.666 -160.572)"/>
        <path id="Path_14207" d="M404.224 248.9v15.376h11.61c.017 0 .03-.086.03-.193V248.9a2.362 2.362 0 0 0-2.362-2.362h-6.915a2.362 2.362 0 0 0-2.363 2.362z" class="cls-2" data-name="Path 14207" transform="translate(-282.756 -103.152)"/>
        <path id="Path_14208" d="M412.741 262.089h-12.516v-16.283a3.273 3.273 0 0 1 3.269-3.269h6.915a3.273 3.273 0 0 1 3.269 3.269v15.184a.968.968 0 0 1-.937 1.099zm-10.7-1.813h9.826v-14.47a1.457 1.457 0 0 0-1.456-1.456h-6.915a1.457 1.457 0 0 0-1.456 1.456z" data-name="Path 14208" transform="translate(-279.664 -100.059)"/>
        <path id="Path_14186" d="M128.668 169.647a.907.907 0 0 1-.9-.831l-.4-4.709c-1.767-.387-4.07-2.089-4.472-8.193a7.24 7.24 0 0 1 4.57-7.563.912.912 0 0 1 .287-.046h12.083a.916.916 0 0 1 .149.012c3.183.531 4.7 3.224 4.652 8.234-.051 4.865-3.214 6.894-4.879 7.287a.907.907 0 0 1-.208.024h-4.83l-5.4 5.512a.906.906 0 0 1-.652.273zm-.75-19.529a5.427 5.427 0 0 0-3.218 5.682c.161 2.435.832 6.531 3.527 6.6a.907.907 0 0 1 .881.83l.292 3.469 4.285-4.371a.907.907 0 0 1 .647-.272h5.088c.538-.168 3.353-1.25 3.4-5.517.06-5.735-2.139-6.256-3.063-6.414z" data-name="Path 14186" transform="translate(-65.185 -27.188)"/>
        <path id="Path_14190" d="M278.608 141.2a.907.907 0 0 1-.617-.242l-5.729-5.32a93.628 93.628 0 0 1-11.511-.024c-5.1-.425-5.009-5.173-4.9-10.67.023-1.162.047-2.364.032-3.624-.037-3.133.659-5.431 2.069-6.828a4.222 4.222 0 0 1 2.878-1.305c.8 0 17.238-.085 20.722 0 4.673.114 5.516 4.485 5.437 12.512-.093 9.493-4.606 9.9-4.8 9.916H279.514v4.677a.907.907 0 0 1-.906.907zm-6.014-7.4a.907.907 0 0 1 .617.242l4.49 4.169v-3.5a.907.907 0 0 1 .907-.907h3.459c.281-.058 3.036-.824 3.108-8.122.088-9.005-1.112-10.619-3.668-10.682-3.469-.085-20.5 0-20.676 0h-.023c-.116 0-3.185.111-3.112 6.3.015 1.288-.009 2.5-.032 3.681-.114 5.77-.024 8.555 3.238 8.827a95.628 95.628 0 0 0 11.635 0z" data-name="Path 14190" transform="translate(-167.993)"/>
    </g>
</svg>
