<svg width="149" height="46" viewBox="0 0 149 46" fill="none" xmlns="http://www.w3.org/2000/svg">
<rect x="0.521667" y="0.568542" width="147.11" height="44.8633" rx="4.695" fill="black"/>
<path d="M74.162 23.4377C71.9042 23.4377 70.064 25.1913 70.064 27.6066C70.064 30.0072 71.9042 31.7755 74.162 31.7755C76.4207 31.7755 78.2609 30.0072 78.2609 27.6066C78.26 25.1913 76.4198 23.4377 74.162 23.4377ZM74.162 30.1346C72.9246 30.1346 71.8581 29.0926 71.8581 27.6076C71.8581 26.1068 72.9256 25.0805 74.162 25.0805C75.3993 25.0805 76.4658 26.1068 76.4658 27.6076C76.4658 29.0916 75.3993 30.1346 74.162 30.1346ZM65.2211 23.4377C62.9633 23.4377 61.1231 25.1913 61.1231 27.6066C61.1231 30.0072 62.9633 31.7755 65.2211 31.7755C67.4798 31.7755 69.32 30.0072 69.32 27.6066C69.32 25.1913 67.4798 23.4377 65.2211 23.4377ZM65.2211 30.1346C63.9837 30.1346 62.9172 29.0926 62.9172 27.6076C62.9172 26.1068 63.9847 25.0805 65.2211 25.0805C66.4584 25.0805 67.5249 26.1068 67.5249 27.6076C67.5259 29.0916 66.4584 30.1346 65.2211 30.1346ZM54.5868 24.7178V26.4862H58.7319C58.608 27.4811 58.2836 28.2075 57.7883 28.7123C57.1854 29.3279 56.2418 30.0072 54.5868 30.0072C52.0353 30.0072 50.0406 27.9065 50.0406 25.3011C50.0406 22.6956 52.0353 20.595 54.5868 20.595C55.9634 20.595 56.9685 21.1478 57.7105 21.8585L58.9325 20.6107C57.8958 19.6001 56.5202 18.8267 54.5868 18.8267C51.0917 18.8267 48.1533 21.7321 48.1533 25.3011C48.1533 28.8701 51.0917 31.7755 54.5868 31.7755C56.4731 31.7755 57.8967 31.1433 59.0093 29.9591C60.1535 28.7907 60.5097 27.1478 60.5097 25.8216C60.5097 25.4118 60.479 25.0325 60.4166 24.7169H54.5868V24.7178ZM98.0799 26.0912C97.7401 25.1599 96.7033 23.4377 94.5847 23.4377C92.4815 23.4377 90.7334 25.1276 90.7334 27.6066C90.7334 29.9435 92.4661 31.7755 94.7854 31.7755C96.6563 31.7755 97.7391 30.6071 98.1883 29.9278L96.7964 28.9799C96.3328 29.6749 95.6983 30.1326 94.7854 30.1326C93.8734 30.1326 93.2235 29.7062 92.806 28.8691L98.2651 26.5636L98.0799 26.0912ZM92.5122 27.4811C92.4661 25.8696 93.7342 25.0492 94.6471 25.0492C95.3584 25.0492 95.9613 25.4128 96.1629 25.9333L92.5122 27.4811ZM88.0744 31.5236H89.8676V19.2697H88.0744V31.5236ZM85.1351 24.3699H85.0736C84.6714 23.8798 83.8977 23.4377 82.9243 23.4377C80.8825 23.4377 79.0116 25.2697 79.0116 27.6233C79.0116 29.9601 80.8825 31.7765 82.9243 31.7765C83.8987 31.7765 84.6714 31.3344 85.0736 30.8296H85.1351V31.4295C85.1351 33.0243 84.2999 33.8771 82.955 33.8771C81.8569 33.8771 81.1763 33.0724 80.8979 32.3931L79.3361 33.0567C79.7843 34.1614 80.9747 35.52 82.955 35.52C85.0583 35.52 86.837 34.2565 86.837 31.1766V23.6915H85.136V24.3699H85.1351ZM83.0789 30.1346C81.8415 30.1346 80.8057 29.076 80.8057 27.6233C80.8057 26.1539 81.8415 25.0805 83.0789 25.0805C84.2999 25.0805 85.2589 26.1539 85.2589 27.6233C85.2589 29.076 84.2999 30.1346 83.0789 30.1346ZM106.483 19.2697H102.191V31.5236H103.982V26.8812H106.482C108.467 26.8812 110.42 25.4138 110.42 23.076C110.42 20.7381 108.468 19.2697 106.483 19.2697ZM106.529 25.1756H103.982V20.9753H106.529C107.868 20.9753 108.629 22.1075 108.629 23.076C108.629 24.0248 107.868 25.1756 106.529 25.1756ZM117.599 23.4161C116.302 23.4161 114.959 23.9993 114.404 25.2923L115.993 25.9696C116.333 25.2923 116.967 25.0707 117.63 25.0707C118.556 25.0707 119.498 25.6383 119.513 26.6469V26.7734C119.189 26.5842 118.494 26.3009 117.645 26.3009C115.932 26.3009 114.187 27.2625 114.187 29.0593C114.187 30.6992 115.592 31.7549 117.166 31.7549C118.37 31.7549 119.034 31.2031 119.451 30.5561H119.512V31.502H121.242V26.8038C121.243 24.6296 119.652 23.4161 117.599 23.4161ZM117.382 30.1317C116.797 30.1317 115.978 29.8317 115.978 29.0907C115.978 28.1447 116.997 27.782 117.878 27.782C118.664 27.782 119.035 27.9556 119.513 28.1918C119.374 29.3279 118.417 30.1317 117.382 30.1317ZM127.541 23.6837L125.488 28.9966H125.427L123.296 23.6837H121.366L124.562 31.109L122.74 35.2396H124.608L129.533 23.6837H127.541ZM111.409 31.5236H113.199V19.2697H111.409V31.5236Z" fill="white"/>
<path d="M54.8992 12.8095C54.8992 13.6463 54.6661 14.3123 54.199 14.8096C53.6688 15.4008 52.977 15.6964 52.1272 15.6964C51.3132 15.6964 50.6204 15.3968 50.0517 14.7976C49.4821 14.1975 49.1973 13.4546 49.1973 12.5679C49.1973 11.6801 49.4821 10.9372 50.0517 10.3381C50.6204 9.73792 51.3132 9.43835 52.1272 9.43835C52.5314 9.43835 52.9177 9.52223 53.2843 9.68899C53.6519 9.85675 53.9461 10.0794 54.1661 10.358L53.6707 10.8853C53.2975 10.411 52.7833 10.1743 52.1263 10.1743C51.5322 10.1743 51.019 10.396 50.5856 10.8393C50.1523 11.2827 49.9361 11.8589 49.9361 12.5669C49.9361 13.2748 50.1523 13.851 50.5856 14.2944C51.019 14.7377 51.5322 14.9594 52.1263 14.9594C52.7561 14.9594 53.2815 14.7367 53.7017 14.2904C53.9743 13.9998 54.1322 13.5954 54.1745 13.0771H52.1263V12.3572H54.8588C54.887 12.5139 54.8992 12.6647 54.8992 12.8095Z" fill="white"/>
<path d="M59.2327 10.3072H56.6646V12.2064H58.9808V12.9264H56.6646V14.8257H59.2327V15.5626H55.9399V9.57122H59.2327V10.3072Z" fill="white"/>
<path d="M62.2885 15.5626H61.5638V10.3072H59.9883V9.57122H63.8639V10.3072H62.2885V15.5626Z" fill="white"/>
<path d="M66.6679 15.5626V9.57122H67.3926V15.5626H66.6679Z" fill="white"/>
<path d="M70.6066 15.5626H69.8819V10.3072H68.3064V9.57122H72.182V10.3072H70.6066V15.5626Z" fill="white"/>
<path d="M79.5184 14.7887C78.9638 15.3938 78.2748 15.6964 77.4505 15.6964C76.6261 15.6964 75.9371 15.3938 75.3834 14.7887C74.8288 14.1836 74.5525 13.4426 74.5525 12.5669C74.5525 11.6912 74.8288 10.9502 75.3834 10.3451C75.9371 9.73996 76.6261 9.4364 77.4505 9.4364C78.2701 9.4364 78.9582 9.74096 79.5147 10.3491C80.0712 10.9572 80.3494 11.6962 80.3494 12.5669C80.3494 13.4426 80.0721 14.1836 79.5184 14.7887ZM75.9183 14.2864C76.3356 14.7358 76.846 14.9595 77.4505 14.9595C78.0549 14.9595 78.5662 14.7348 78.9826 14.2864C79.4 13.8371 79.6096 13.2639 79.6096 12.5669C79.6096 11.8699 79.4 11.2967 78.9826 10.8474C78.5662 10.398 78.0549 10.1743 77.4505 10.1743C76.846 10.1743 76.3356 10.399 75.9183 10.8474C75.5019 11.2967 75.2922 11.8699 75.2922 12.5669C75.2922 13.2639 75.5019 13.8371 75.9183 14.2864Z" fill="white"/>
<path d="M81.3665 15.5626V9.57122H82.2482L84.9892 14.2315H85.0202L84.9892 13.0772V9.57122H85.7139V15.5626H84.9572L82.0893 10.6756H82.0583L82.0893 11.83V15.5626H81.3665Z" fill="white"/>
<path d="M54.8992 12.8095C54.8992 13.6463 54.6661 14.3123 54.199 14.8096C53.6688 15.4008 52.977 15.6964 52.1272 15.6964C51.3132 15.6964 50.6204 15.3968 50.0517 14.7976C49.4821 14.1975 49.1973 13.4546 49.1973 12.5679C49.1973 11.6801 49.4821 10.9372 50.0517 10.3381C50.6204 9.73792 51.3132 9.43835 52.1272 9.43835C52.5314 9.43835 52.9177 9.52223 53.2843 9.68899C53.6519 9.85675 53.9461 10.0794 54.1661 10.358L53.6707 10.8853C53.2975 10.411 52.7833 10.1743 52.1263 10.1743C51.5322 10.1743 51.019 10.396 50.5856 10.8393C50.1523 11.2827 49.9361 11.8589 49.9361 12.5669C49.9361 13.2748 50.1523 13.851 50.5856 14.2944C51.019 14.7377 51.5322 14.9594 52.1263 14.9594C52.7561 14.9594 53.2815 14.7367 53.7017 14.2904C53.9743 13.9998 54.1322 13.5954 54.1745 13.0771H52.1263V12.3572H54.8588C54.887 12.5139 54.8992 12.6647 54.8992 12.8095Z" stroke="white" stroke-width="0.208667" stroke-miterlimit="10"/>
<path d="M59.2327 10.3072H56.6646V12.2064H58.9808V12.9264H56.6646V14.8257H59.2327V15.5626H55.9399V9.57122H59.2327V10.3072Z" stroke="white" stroke-width="0.208667" stroke-miterlimit="10"/>
<path d="M62.2885 15.5626H61.5638V10.3072H59.9883V9.57122H63.8639V10.3072H62.2885V15.5626Z" stroke="white" stroke-width="0.208667" stroke-miterlimit="10"/>
<path d="M66.6679 15.5626V9.57122H67.3926V15.5626H66.6679Z" stroke="white" stroke-width="0.208667" stroke-miterlimit="10"/>
<path d="M70.6066 15.5626H69.8819V10.3072H68.3064V9.57122H72.182V10.3072H70.6066V15.5626Z" stroke="white" stroke-width="0.208667" stroke-miterlimit="10"/>
<path d="M79.5184 14.7887C78.9638 15.3938 78.2748 15.6964 77.4505 15.6964C76.6261 15.6964 75.9371 15.3938 75.3834 14.7887C74.8288 14.1836 74.5525 13.4426 74.5525 12.5669C74.5525 11.6912 74.8288 10.9502 75.3834 10.3451C75.9371 9.73996 76.6261 9.4364 77.4505 9.4364C78.2701 9.4364 78.9582 9.74096 79.5147 10.3491C80.0712 10.9572 80.3494 11.6962 80.3494 12.5669C80.3494 13.4426 80.0721 14.1836 79.5184 14.7887ZM75.9183 14.2864C76.3356 14.7358 76.846 14.9595 77.4505 14.9595C78.0549 14.9595 78.5662 14.7348 78.9826 14.2864C79.4 13.8371 79.6096 13.2639 79.6096 12.5669C79.6096 11.8699 79.4 11.2967 78.9826 10.8474C78.5662 10.398 78.0549 10.1743 77.4505 10.1743C76.846 10.1743 76.3356 10.399 75.9183 10.8474C75.5019 11.2967 75.2922 11.8699 75.2922 12.5669C75.2922 13.2639 75.5019 13.8371 75.9183 14.2864Z" stroke="white" stroke-width="0.208667" stroke-miterlimit="10"/>
<path d="M81.3665 15.5626V9.57122H82.2482L84.9892 14.2315H85.0202L84.9892 13.0772V9.57122H85.7139V15.5626H84.9572L82.0893 10.6756H82.0583L82.0893 11.83V15.5626H81.3665Z" stroke="white" stroke-width="0.208667" stroke-miterlimit="10"/>
<g filter="url(#filter0_ii_4469_22528)">
<path d="M19.2211 10.2244C18.9429 10.5189 18.7784 10.9759 18.7784 11.5677V32.7117C18.7784 33.3044 18.9429 33.7605 19.2211 34.0549L19.2918 34.1238L31.1363 22.2793V22.1397V22.0001L19.2918 10.1546L19.2211 10.2244Z" fill="url(#paint0_linear_4469_22528)"/>
<path d="M35.0853 26.2282L31.1378 22.2788V22.1392V21.9996L35.0863 18.0511L35.1752 18.1018L39.8532 20.7596C41.1888 21.5187 41.1888 22.7606 39.8532 23.5207L35.1752 26.1785L35.0853 26.2282Z" fill="url(#paint1_linear_4469_22528)"/>
<g filter="url(#filter1_i_4469_22528)">
<path d="M35.1745 26.1783L31.1361 22.14L19.2218 34.0552C19.6616 34.5218 20.3891 34.5792 21.2085 34.1145L35.1745 26.1783Z" fill="url(#paint2_linear_4469_22528)"/>
</g>
<path d="M35.1745 18.1011L21.2085 10.1659C20.3891 9.70028 19.6616 9.7586 19.2218 10.2252L31.1371 22.1404L35.1745 18.1011Z" fill="url(#paint3_linear_4469_22528)"/>
</g>
<rect x="0.521667" y="0.568542" width="147.11" height="44.8633" rx="4.695" stroke="#A6A6A6" stroke-width="1.04333"/>
<defs>
<filter id="filter0_ii_4469_22528" x="18.7784" y="9.84457" width="22.0764" height="24.5909" filterUnits="userSpaceOnUse" color-interpolation-filters="sRGB">
<feFlood flood-opacity="0" result="BackgroundImageFix"/>
<feBlend mode="normal" in="SourceGraphic" in2="BackgroundImageFix" result="shape"/>
<feColorMatrix in="SourceAlpha" type="matrix" values="0 0 0 0 0 0 0 0 0 0 0 0 0 0 0 0 0 0 127 0" result="hardAlpha"/>
<feOffset dy="-0.1565"/>
<feComposite in2="hardAlpha" operator="arithmetic" k2="-1" k3="1"/>
<feColorMatrix type="matrix" values="0 0 0 0 0 0 0 0 0 0 0 0 0 0 0 0 0 0 0.12 0"/>
<feBlend mode="normal" in2="shape" result="effect1_innerShadow_4469_22528"/>
<feColorMatrix in="SourceAlpha" type="matrix" values="0 0 0 0 0 0 0 0 0 0 0 0 0 0 0 0 0 0 127 0" result="hardAlpha"/>
<feOffset dy="0.1565"/>
<feComposite in2="hardAlpha" operator="arithmetic" k2="-1" k3="1"/>
<feColorMatrix type="matrix" values="0 0 0 0 1 0 0 0 0 1 0 0 0 0 1 0 0 0 0.25 0"/>
<feBlend mode="normal" in2="effect1_innerShadow_4469_22528" result="effect2_innerShadow_4469_22528"/>
</filter>
<filter id="filter1_i_4469_22528" x="19.2218" y="22.14" width="15.9526" height="12.2954" filterUnits="userSpaceOnUse" color-interpolation-filters="sRGB">
<feFlood flood-opacity="0" result="BackgroundImageFix"/>
<feBlend mode="normal" in="SourceGraphic" in2="BackgroundImageFix" result="shape"/>
<feColorMatrix in="SourceAlpha" type="matrix" values="0 0 0 0 0 0 0 0 0 0 0 0 0 0 0 0 0 0 127 0" result="hardAlpha"/>
<feOffset dy="-0.1565"/>
<feComposite in2="hardAlpha" operator="arithmetic" k2="-1" k3="1"/>
<feColorMatrix type="matrix" values="0 0 0 0 0 0 0 0 0 0 0 0 0 0 0 0 0 0 0.08 0"/>
<feBlend mode="normal" in2="shape" result="effect1_innerShadow_4469_22528"/>
</filter>
<linearGradient id="paint0_linear_4469_22528" x1="30.0864" y1="11.344" x2="14.042" y2="27.3884" gradientUnits="userSpaceOnUse">
<stop stop-color="#00A0FF"/>
<stop offset="0.0066" stop-color="#00A1FF"/>
<stop offset="0.2601" stop-color="#00BEFF"/>
<stop offset="0.5122" stop-color="#00D2FF"/>
<stop offset="0.7604" stop-color="#00DFFF"/>
<stop offset="1" stop-color="#00E3FF"/>
</linearGradient>
<linearGradient id="paint1_linear_4469_22528" x1="41.5917" y1="22.1392" x2="18.4593" y2="22.1392" gradientUnits="userSpaceOnUse">
<stop stop-color="#FFE000"/>
<stop offset="0.4087" stop-color="#FFBD00"/>
<stop offset="0.7754" stop-color="#FFA500"/>
<stop offset="1" stop-color="#FF9C00"/>
</linearGradient>
<linearGradient id="paint2_linear_4469_22528" x1="32.9814" y1="24.3331" x2="11.2231" y2="46.0913" gradientUnits="userSpaceOnUse">
<stop stop-color="#FF3A44"/>
<stop offset="1" stop-color="#C31162"/>
</linearGradient>
<linearGradient id="paint3_linear_4469_22528" x1="16.2211" y1="3.18652" x2="25.9368" y2="12.9022" gradientUnits="userSpaceOnUse">
<stop stop-color="#32A071"/>
<stop offset="0.0685" stop-color="#2DA771"/>
<stop offset="0.4762" stop-color="#15CF74"/>
<stop offset="0.8009" stop-color="#06E775"/>
<stop offset="1" stop-color="#00F076"/>
</linearGradient>
</defs>
</svg>
