<svg xmlns="http://www.w3.org/2000/svg" width="21.406" height="21.406" viewBox="0 0 21.406 21.406">
    <path d="M10.7 21.406A10.7 10.7 0 0 1 3.135 3.135a10.703 10.703 0 0 1 15.137 15.137 10.633 10.633 0 0 1-7.572 3.134zm0-20.069a9.365 9.365 0 1 0 9.369 9.363A9.376 9.376 0 0 0 10.7 1.338z" data-name="Path 14575"/>
    <path d="M10.703 10.035a1.672 1.672 0 1 1 1.672-1.672.669.669 0 1 0 1.338 0 3.015 3.015 0 0 0-2.341-2.934v-.745a.669.669 0 1 0-1.338 0v.745a3.01 3.01 0 0 0 .669 5.945 1.672 1.672 0 1 1-1.672 1.672.669.669 0 0 0-1.338 0 3.015 3.015 0 0 0 2.341 2.934v.745a.669.669 0 0 0 1.338 0v-.745a3.01 3.01 0 0 0-.669-5.945z" data-name="Path 14576"/>
</svg>
