<svg xmlns="http://www.w3.org/2000/svg" id="prefix__no-phone" width="56.895" height="56.895" viewBox="0 0 56.895 56.895">
    <g id="prefix__Group_12230" data-name="Group 12230" transform="translate(4.445 4.445)">
        <g id="prefix__Group_12229" data-name="Group 12229">
            <path id="prefix__Path_9275" d="M79.269 45.48a24 24 0 0 0-30.975.373.833.833 0 0 0 1.091 1.26 22.338 22.338 0 0 1 28.1-.917l-2.729 2.729A4.175 4.175 0 0 0 70.781 46H57.224a4.172 4.172 0 0 0-4.167 4.167v20.459L46.2 77.487a22.339 22.339 0 0 1 .917-28.1.833.833 0 1 0-1.26-1.091 24 24 0 0 0-.373 30.974.833.833 0 0 0 .6.3h.04a.834.834 0 0 0 .589-.244l7.762-7.762.01-.01 24.843-24.842a.834.834 0 0 0-.059-1.232zM54.724 68.959V51.581H72.1zm.013-19.046a2.5 2.5 0 0 1 2.487-2.246h13.557a2.5 2.5 0 0 1 2.487 2.246z" data-name="Path 9275" transform="translate(-40 -40)"/>
        </g>
    </g>
    <g id="prefix__Group_12232" data-name="Group 12232" transform="translate(12.878 12.878)">
        <g id="prefix__Group_12231" data-name="Group 12231">
            <path id="prefix__Path_9276" d="M149.979 116.19a.834.834 0 0 0-1.232-.059l-7.757 7.757-.02.02-20.208 20.208-.013.013-4.618 4.618a.834.834 0 0 0 .059 1.232 24 24 0 0 0 33.789-33.789zm-9.244 10.31v14.625h-14.624zm-18.557 18.557l2.266-2.266h16.291v2.5a2.5 2.5 0 0 1-2.5 2.5h-13.556a2.5 2.5 0 0 1-2.5-2.5zm9.279 8.735a22.378 22.378 0 0 1-13.485-4.529l2.729-2.729a4.174 4.174 0 0 0 3.978 2.924h13.557a4.172 4.172 0 0 0 4.167-4.167v-20.458l6.861-6.861a22.337 22.337 0 0 1-17.807 35.82z" data-name="Path 9276" transform="translate(-115.887 -115.887)"/>
        </g>
    </g>
    <g id="prefix__Group_12234" data-name="Group 12234">
        <g id="prefix__Group_12233" data-name="Group 12233">
            <path id="prefix__Path_9277" d="M48.563 8.332A28.447 28.447 0 0 0 8.332 48.563 28.447 28.447 0 0 0 48.563 8.332zm-20.115 46.9a26.78 26.78 0 1 1 26.78-26.78 26.811 26.811 0 0 1-26.781 26.776z" data-name="Path 9277"/>
            <path id="prefix__Path_9278" fill="none" stroke="#000" stroke-linecap="round" stroke-width="1.7px" d="M7.271 19.178S10.992 11 18.08 7.726" data-name="Path 9278"/>
        </g>
    </g>
    <path id="prefix__Path_9309" d="M19.875 4.96L8.73 11.747 4.123 21.884H8.73l7.541-10.473 6.7-3.267z" data-name="Path 9309" style="mix-blend-mode:screen;isolation:isolate"/>
</svg>
