<svg xmlns="http://www.w3.org/2000/svg" width="40.239" height="52.822" viewBox="0 0 40.239 52.822">
    <g>
        <path d="M1.745 24.392l1.761-1.761a.88.88 0 0 0 .17-1.016l-.792-1.575v-5.074h1.76V47.54a5.287 5.287 0 0 0 5.282 5.282h25.531a5.287 5.287 0 0 0 5.282-5.282V.88a.88.88 0 0 0-.88-.88H10.806a.88.88 0 0 0-.88.88v8.413A3.485 3.485 0 0 0 8.165 8.8a3.522 3.522 0 0 0-3.521 3.521v.88H2a.88.88 0 0 0-.88.88v6.163a.879.879 0 0 0 .092.393l.6 1.191L.5 23.145zm8.181-5.9H6.4v-3.526h3.526zM38.978 47.54a3.522 3.522 0 0 1-3.521 3.521H9.926A3.522 3.522 0 0 1 6.4 47.54V20.248h32.578zm-3.521-29.053h-1.849a4.838 4.838 0 0 0-9.508 0h-1.849V7.812a3.536 3.536 0 0 0 2.53-2.53h8.145a3.536 3.536 0 0 0 2.53 2.53zm-3.665 0h-5.876a3.061 3.061 0 0 1 5.875 0zM32.816 1.76h6.163v16.727h-1.762V7.043a.88.88 0 0 0-.88-.88A1.761 1.761 0 0 1 34.576 4.4a.88.88 0 0 0-.88-.88h-9.684a.88.88 0 0 0-.88.88 1.761 1.761 0 0 1-1.761 1.761.88.88 0 0 0-.88.88v11.446H18.73V1.76zm-15.847 0v16.727h-1.761V1.76zm-5.282 0h1.761v16.727h-1.761zM6.4 12.325a1.761 1.761 0 0 1 3.521 0v.88H6.4zm0 0" data-name="Path 13672" transform="translate(-.5)"/>
        <path d="M35.458 46.659a.88.88 0 0 1-.88.88h-6.163V49.3h6.163a2.641 2.641 0 0 0 2.641-2.641v-24.65h-1.761zm0 0" data-name="Path 13673" transform="translate(-.5)"/>
        <path d="M24.892 47.54h4.769v1.761h-4.769zm0 0" data-name="Path 13674" transform="translate(-.5)"/>
        <path d="M8.165 22.009h18.488v1.761H8.165zm0 0" data-name="Path 13675" transform="translate(-.5)"/>
    </g>
</svg>
