<svg xmlns="http://www.w3.org/2000/svg" width="62.62" height="62.711" viewBox="0 0 62.62 62.711">
    <g data-name="Group 11958">
        <g data-name="Group 11957">
            <path d="M31.118 29.545a.919.919 0 0 0-.919.919v5.618a14.18 14.18 0 0 1-28.361 0v-5.618a.919.919 0 0 0-1.838 0v5.618A16.045 16.045 0 0 0 12.585 51.73l-.576 4.315H8.128a4.524 4.524 0 0 0-4.519 4.519 2.152 2.152 0 0 0 2.149 2.149h20.516a2.152 2.152 0 0 0 2.149-2.149 4.524 4.524 0 0 0-4.519-4.519h-3.876l-.576-4.315a16.045 16.045 0 0 0 12.585-15.647v-5.618a.919.919 0 0 0-.919-.92zm-4.532 31.017a.312.312 0 0 1-.311.311H5.762a.312.312 0 0 1-.311-.311 2.684 2.684 0 0 1 2.677-2.681h15.776a2.685 2.685 0 0 1 2.681 2.681zm-8.412-4.519h-4.31l.538-4.025a16.136 16.136 0 0 0 3.235 0z" data-name="Path 8916" transform="translate(-.372) translate(.372)"/>
            <path d="M37.792 8.069H56.17a.919.919 0 1 0 0-1.838H37.792a.919.919 0 0 0 0 1.838z" data-name="Path 8917" transform="translate(-.372) translate(.372)"/>
            <path d="M37.792 15.026H56.17a.919.919 0 1 0 0-1.838H37.792a.919.919 0 0 0 0 1.838z" data-name="Path 8918" transform="translate(-.372) translate(.372)"/>
            <path d="M7.064 41.697a.919.919 0 0 0 .369-1.246 9.775 9.775 0 0 1-1.178-4.653v-1.427h19.529v1.427a9.775 9.775 0 0 1-9.764 9.764 9.667 9.667 0 0 1-6-2.058.919.919 0 1 0-1.13 1.449 11.488 11.488 0 0 0 7.127 2.446 11.615 11.615 0 0 0 11.6-11.6v-15.02a11.6 11.6 0 1 0-23.2 0v15.018a11.619 11.619 0 0 0 1.4 5.531.919.919 0 0 0 1.246.369zm8.955-30.681a9.78 9.78 0 0 1 9.565 7.805H19.71a.919.919 0 0 0 0 1.838h6.069v2.436H19.71a.919.919 0 0 0 0 1.838h6.074v2.436H19.71a.919.919 0 0 0 0 1.838h6.074v3.325H6.255v-3.325h6.072a.919.919 0 1 0 0-1.838H6.255v-2.436h6.072a.919.919 0 1 0 0-1.838H6.255v-2.316-.12h6.069a.919.919 0 1 0 0-1.838H6.452a9.78 9.78 0 0 1 9.566-7.805z" data-name="Path 8919" transform="translate(-.372) translate(.372)"/>
            <path d="M55.335 0H37.484a7.294 7.294 0 0 0-7.285 7.285v1.677a.919.919 0 0 0 1.838 0V7.285a5.454 5.454 0 0 1 5.448-5.448h17.851a5.454 5.454 0 0 1 5.447 5.448v7.648a5.454 5.454 0 0 1-5.447 5.448H45.063a2.857 2.857 0 0 0-2.3 1.173l-4.361 6V23a2.818 2.818 0 0 0-2.167-2.765 5.424 5.424 0 0 1-4.195-5.3v-1.678a.919.919 0 1 0-1.838 0v1.676a7.255 7.255 0 0 0 5.612 7.092 1 1 0 0 1 .75.976v5.593a1.5 1.5 0 0 0 2.711.881l4.975-6.841a1.014 1.014 0 0 1 .817-.416h10.272a7.294 7.294 0 0 0 7.285-7.285V7.285A7.294 7.294 0 0 0 55.335 0z" data-name="Path 8920" transform="translate(-.372) translate(.372)"/>
        </g>
    </g>
</svg>
