<svg xmlns="http://www.w3.org/2000/svg" width="51.502" height="47.372" viewBox="0 0 51.502 47.372">
    <g id="prefix__Group_11981" data-name="Group 11981">
        <g id="prefix__Group_11980" data-name="Group 11980">
            <path id="prefix__Path_8933" fill="#da2419" d="M-160.16 250.449a6.027 6.027 0 0 0-1.252.463 28.259 28.259 0 0 1-4.6 1.548c-.978.276-1.948.557-2.881.894-3 1.088-6.055 1.991-9.072 3.042-2.921 1.017-5.817 2.134-8.77 3.057-2.982.932-5.837 2.267-8.79 3.292-3.02 1.048-6.092 1.963-9.092 3.066-1.484.544-3.032.9-4.494 1.5-.606.246-1.638.477-1.707 1.28-.06.723.758 1.257 1.243 1.633 1.21.935 2.455 1.83 3.67 2.755a25.335 25.335 0 0 0 3.509 2.054c1.227.654 2.432 1.333 2.751 2.738.812 3.574.922 7.291 1.353 10.917.219 1.845.516 3.676.679 5.529.083.934-.07 2.651.7 3.365a.714.714 0 0 0 .581.185.425.425 0 0 0 .434-.107c.941-.981 1.716-2.177 2.553-3.244 1.01-1.287 2.028-2.576 2.954-3.925s1.853-2.694 2.871-4a10.55 10.55 0 0 0 1.057-1.456c1.688 1.06 3.443 2.044 5.191 2.963 1.392.733 3.208 2.52 4.5.74 1.541-2.117 2.467-4.832 3.6-7.18 2.266-4.7 4.248-9.542 6.44-14.279 1.239-2.677 2.679-5.27 3.931-7.947.61-1.3 1.187-2.632 1.72-3.971a41.413 41.413 0 0 0 1.71-4.195c.202-.736-.25-.828-.789-.717zm-39.031 25.111a15.635 15.635 0 0 0-3.152-2.024 30.818 30.818 0 0 1-3.722-2.409c-.579-.428-1.16-.852-1.74-1.28a8.108 8.108 0 0 1-1.441-1.071 11.161 11.161 0 0 1 2.339-.752c1.154-.352 2.28-.743 3.414-1.153 2.17-.782 4.375-1.507 6.562-2.237 4.318-1.445 8.554-3.148 12.84-4.684 4.1-1.472 8.243-2.811 12.37-4.213 2.079-.706 4.119-1.531 6.2-2.248-1.4.855-2.774 1.776-4.187 2.619-3.092 1.843-6.145 3.836-9.124 5.874-3.352 2.294-6.794 4.445-10.079 6.844s-6.7 4.726-10.189 6.83c-.033-.032-.058-.066-.091-.096zm2.926 18.545c-.044-.524-.089-1.048-.152-1.571-.2-1.628-.447-3.251-.614-4.883-.316-3.1-.633-6.178-1.131-9.263a8.7 8.7 0 0 0-.451-1.976 16.833 16.833 0 0 0 4.52-2.545c1.79-1.229 3.632-2.384 5.39-3.656 3.325-2.4 6.85-4.505 10.162-6.913a57.242 57.242 0 0 1 4.835-3.146c1.492-.869 2.837-1.952 4.339-2.81.5-.286.992-.6 1.478-.914-1 .845-1.983 1.7-2.969 2.556-1.618 1.4-3.347 2.671-5 4.033-1.773 1.461-3.451 3.042-5.176 4.561-2.844 2.506-5.473 5.254-8.32 7.742-.653.57-1.3 1.219-1.92 1.827a17.17 17.17 0 0 0-1.849 1.969 3.939 3.939 0 0 0-.579 2.452c-.113.567-.173 1.153-.245 1.594-.239 1.455-.543 2.9-.8 4.349-.288 1.607-.649 3.179-1.064 4.759-.163.609-.311 1.222-.454 1.835zm7.475-8.064c-.971 1.223-1.8 2.525-2.682 3.814-.909 1.328-1.913 2.592-2.883 3.877-.208.275-.428.548-.649.825.337-1.4.735-2.778 1.05-4.18.607-2.708.911-5.489 1.552-8.187a3.943 3.943 0 0 1 .243-.952.605.605 0 0 0 .057-.092.226.226 0 0 0 .064.03 5.918 5.918 0 0 1 1.01.809c.921.679 1.906 1.286 2.853 1.932.2.133.4.259.6.391-.478.503-.832 1.251-1.215 1.733zm26.767-31.957c-.507 1.346-1.106 2.644-1.677 3.961-1.065 2.46-2.283 4.925-3.583 7.268-2.353 4.243-4.071 8.887-6.019 13.324-1.065 2.427-2.244 4.859-3.456 7.215a7.948 7.948 0 0 1-.843 1.568c-.569.649-1.053.516-1.773.112-1.037-.581-2.111-1.1-3.132-1.719-2.172-1.315-4.3-2.659-6.421-4.051-.864-.567-1.647-1.249-2.5-1.819a1.859 1.859 0 0 0-.553-.252c.047-.066.1-.13.15-.193a33.579 33.579 0 0 1 3.819-3.623c1.239-1.04 2.286-2.284 3.468-3.385 1.514-1.409 2.98-2.837 4.531-4.2 1.614-1.425 3.192-2.894 4.84-4.279 1.625-1.368 3.35-2.608 4.954-4 2.722-2.364 5.6-4.594 8.293-6.983.169-.093.337-.189.494-.292-.207.441-.418.888-.592 1.349z" data-name="Path 8933" transform="translate(210.822 -250.41)"/>
        </g>
    </g>
</svg>
