<svg xmlns="http://www.w3.org/2000/svg" width="110.913" height="100.47" viewBox="0 0 110.913 100.47">
    <g>
        <path d="M108.992 56.057h-6.735a50.253 50.253 0 0 0-93.6 0H1.922A1.924 1.924 0 0 0 0 57.978v32.728a1.924 1.924 0 0 0 1.921 1.921h6.736a50.179 50.179 0 0 0 4.7 9.133 1.625 1.625 0 1 0 2.721-1.776 46.952 46.952 0 0 1-3.917-7.357h21.8c.5 2.854 1.107 5.558 1.809 8.094a50.05 50.05 0 0 0-12.607 7.744q-1.346-1.272-2.6-2.657a1.625 1.625 0 1 0-2.412 2.177 50.245 50.245 0 0 0 84.1-15.358h6.735a1.924 1.924 0 0 0 1.921-1.921V57.978a1.924 1.924 0 0 0-1.921-1.921zm-23.726-18a46.843 46.843 0 0 1-11.061 6.786c-2.382-7.3-5.606-12.976-9.349-16.529a47.234 47.234 0 0 1 20.41 9.743zm-48 18c.437-2.4.959-4.709 1.563-6.91a50.244 50.244 0 0 0 15.007 2.8v4.112zm19.819-4.112a50.243 50.243 0 0 0 15.012-2.8c.6 2.19 1.119 4.5 1.558 6.912H57.081zm0-3.226v-21.2c4.126.838 7.343 4.727 9.4 8.049a48.28 48.28 0 0 1 4.69 10.471 46.944 46.944 0 0 1-14.089 2.675zM46.1 28.306a30.315 30.315 0 0 0-5.752 7.867 1.626 1.626 0 1 0 2.871 1.527c3.095-5.836 6.812-9.376 10.613-10.167v21.19a46.939 46.939 0 0 1-14.081-2.673q.24-.738.492-1.458a1.625 1.625 0 0 0-3.066-1.077q-.233.662-.455 1.34a46.844 46.844 0 0 1-11.075-6.792A47.233 47.233 0 0 1 46.1 28.306zM23.178 40.23a50.054 50.054 0 0 0 12.6 7.736c-.715 2.567-1.323 5.271-1.818 8.09h-21.8A46.822 46.822 0 0 1 23.178 40.23zm14.084 52.4h16.57v4.112a50.242 50.242 0 0 0-15.012 2.8c-.598-2.193-1.12-4.503-1.558-6.915zm36.39 0c-.439 2.412-.96 4.722-1.558 6.912a50.24 50.24 0 0 0-15.012-2.8v-4.115zm-29.219 20.481a48.27 48.27 0 0 1-4.69-10.471 46.951 46.951 0 0 1 14.088-2.675v21.2c-4.125-.843-7.342-4.731-9.398-8.054zm12.648 8.049v-21.2a46.942 46.942 0 0 1 14.089 2.68 48.3 48.3 0 0 1-4.69 10.471c-2.056 3.323-5.272 7.212-9.4 8.049zm-31.45-10.521a46.855 46.855 0 0 1 11.077-6.8c2.382 7.3 5.607 12.98 9.352 16.532a47.139 47.139 0 0 1-20.429-9.732zm39.226 9.729c3.743-3.553 6.967-9.227 9.349-16.529a46.847 46.847 0 0 1 11.061 6.786 47.234 47.234 0 0 1-20.411 9.743zm22.879-11.915a50.061 50.061 0 0 0-12.592-7.732c.7-2.536 1.309-5.24 1.809-8.094h21.8a46.82 46.82 0 0 1-11.017 15.826zm19.928-19.076H3.249V59.306h85.693a1.625 1.625 0 0 0 0-3.249H76.953c-.5-2.854-1.107-5.558-1.809-8.094a50.05 50.05 0 0 0 12.592-7.733 46.82 46.82 0 0 1 11.013 15.827h-2.225a1.625 1.625 0 1 0 0 3.249h11.14z" data-name="Path 9266" transform="translate(0 -24.104)"/>
        <path d="M38.71 81.464h-9.071V65.596a1.625 1.625 0 0 0-3.249 0v17.493a1.625 1.625 0 0 0 1.625 1.625h10.7a1.625 1.625 0 0 0 0-3.249z" data-name="Path 9267" transform="translate(0 -24.104)"/>
        <path d="M64.947 64.042a1.625 1.625 0 0 0-2.029 1.079l-3.794 12.41L55.33 65.12a1.625 1.625 0 1 0-3.107.95l5.348 17.493a1.625 1.625 0 0 0 3.107 0l5.348-17.493a1.625 1.625 0 0 0-1.079-2.029z" data-name="Path 9268" transform="translate(0 -24.104)"/>
        <path d="M82.899 67.22a1.625 1.625 0 0 0 0-3.249h-10.7a1.625 1.625 0 0 0-1.625 1.625v17.493a1.625 1.625 0 0 0 1.625 1.625h10.7a1.625 1.625 0 0 0 0-3.249h-9.07v-5.5h9.07a1.625 1.625 0 0 0 0-3.249h-9.07v-5.5h9.07z" data-name="Path 9269" transform="translate(0 -24.104)"/>
        <path d="M46.046 63.971a1.625 1.625 0 0 0-1.625 1.625v17.493a1.625 1.625 0 1 0 3.249 0V65.596a1.625 1.625 0 0 0-1.624-1.625z" data-name="Path 9270" transform="translate(0 -24.104)"/>
        <path d="M13.758 69.377a4.963 4.963 0 1 0 4.963 4.963 4.969 4.969 0 0 0-4.963-4.963zm0 6.677a1.714 1.714 0 1 1 1.714-1.714 1.716 1.716 0 0 1-1.714 1.716z" data-name="Path 9271" transform="translate(0 -24.104)"/>
        <path d="M97.155 69.377a4.963 4.963 0 1 0 4.963 4.963 4.969 4.969 0 0 0-4.963-4.963zm0 6.677a1.714 1.714 0 1 1 1.714-1.714 1.716 1.716 0 0 1-1.714 1.716z" data-name="Path 9272" transform="translate(0 -24.104)"/>
    </g>
</svg>
