<svg xmlns="http://www.w3.org/2000/svg" width="120.172" height="120.185" viewBox="0 0 120.172 120.185">
    <path d="M90.577 86.976a2.515 2.515 0 0 1-1.773-.731L78.182 75.622a2.502 2.502 0 1 0-3.537 3.541 2.504 2.504 0 0 1-3.541 3.541 7.511 7.511 0 0 1 10.619-10.622L92.35 82.704a2.5 2.5 0 0 1-1.773 4.272z" data-name="Path 9244"/>
    <path d="M83.49 79.895a2.515 2.515 0 0 1-1.773-.731 7.536 7.536 0 0 1 0-10.622 7.7 7.7 0 0 1 10.627 0l7.081 7.081a2.504 2.504 0 0 1-3.541 3.541l-7.081-7.081a2.506 2.506 0 1 0-3.546 3.541 2.5 2.5 0 0 1-1.768 4.272z" data-name="Path 9245"/>
    <path d="M91.508 120.185a22.281 22.281 0 0 1-5.519-.691l-17.463-4.452a2.48 2.48 0 0 1-1.542-1.162 8.992 8.992 0 0 1 1.462-10.813 9.62 9.62 0 0 1 6.305-2.549l-21.359-21.36a7.517 7.517 0 0 1 0-10.622 7.7 7.7 0 0 1 10.627 0l21.244 21.245a2.504 2.504 0 0 1-3.541 3.541l-21.25-21.245a2.572 2.572 0 0 0-3.541 0 2.506 2.506 0 0 0 0 3.541l26.559 26.563a2.5 2.5 0 0 1-2.559 4.147c-2.133-.7-7.117-1.553-8.95.28a3.806 3.806 0 0 0-1.027 3.886l16.266 4.147a17.6 17.6 0 0 0 16.722-4.592l6.1-6.1a17.556 17.556 0 0 0 0-24.79L99.421 68.536a2.562 2.562 0 0 0-3.541 0 2.491 2.491 0 0 0-.005 3.541 2.504 2.504 0 0 1-3.541 3.541 7.5 7.5 0 0 1 .005-10.627 7.678 7.678 0 0 1 10.622 0l10.623 10.622a22.567 22.567 0 0 1 0 31.872l-6.1 6.1a22.579 22.579 0 0 1-15.971 6.6z" data-name="Path 9246"/>
    <path d="M52.585 105.17H12.52A12.535 12.535 0 0 1 0 92.65V27.544a12.535 12.535 0 0 1 12.52-12.52h10.017a2.504 2.504 0 1 1 0 5.008H12.52a7.521 7.521 0 0 0-7.512 7.512V92.65a7.521 7.521 0 0 0 7.512 7.512h40.065a2.504 2.504 0 0 1 0 5.008z" data-name="Path 9247"/>
    <path d="M57.593 30.049H27.544a7.521 7.521 0 0 1-7.512-7.512V12.52a2.5 2.5 0 0 1 2.5-2.5h7.763a12.523 12.523 0 0 1 24.54 0h7.763a2.5 2.5 0 0 1 2.5 2.5v10.017a7.521 7.521 0 0 1-7.505 7.512zM25.04 15.024v7.512a2.508 2.508 0 0 0 2.5 2.5h30.053a2.508 2.508 0 0 0 2.5-2.5v-7.512h-7.508a2.5 2.5 0 0 1-2.5-2.5 7.512 7.512 0 1 0-15.024 0 2.5 2.5 0 0 1-2.5 2.5z" data-name="Path 9248"/>
    <path d="M82.634 60.097a2.5 2.5 0 0 1-2.5-2.5V27.544a7.521 7.521 0 0 0-7.517-7.512h-10.02a2.504 2.504 0 1 1 0-5.008h10.02a12.535 12.535 0 0 1 12.52 12.52v30.049a2.5 2.5 0 0 1-2.503 2.504z" data-name="Path 9249"/>
    <path d="M67.609 45.073H17.524a2.504 2.504 0 1 1 0-5.008h50.085a2.504 2.504 0 1 1 0 5.008z" data-name="Path 9250"/>
    <path d="M67.609 60.097H17.524a2.504 2.504 0 0 1 0-5.008h50.085a2.504 2.504 0 1 1 0 5.008z" data-name="Path 9251"/>
    <path d="M42.569 75.122H17.524a2.504 2.504 0 0 1 0-5.008h25.045a2.504 2.504 0 0 1 0 5.008z" data-name="Path 9252"/>
</svg>
