<svg xmlns="http://www.w3.org/2000/svg" width="21.34" height="22.24" viewBox="0 0 21.34 22.24">
    <g>
        <g data-name="Group 13587">
            <g data-name="Group 13586">
                <path d="M20.311 11.408a.652.652 0 0 1 0-.576l.829-1.7a1.931 1.931 0 0 0-.833-2.564l-1.666-.882a.652.652 0 0 1-.339-.466l-.326-1.86a1.931 1.931 0 0 0-2.181-1.585l-1.87.265a.652.652 0 0 1-.548-.178L12.018.549a1.931 1.931 0 0 0-2.7 0L7.965 1.862a.652.652 0 0 1-.548.178l-1.87-.265A1.93 1.93 0 0 0 3.366 3.36l-.325 1.86a.652.652 0 0 1-.339.466l-1.668.885a1.931 1.931 0 0 0-.833 2.564l.829 1.7a.652.652 0 0 1 0 .576l-.829 1.7a1.931 1.931 0 0 0 .833 2.564l1.668.885a.652.652 0 0 1 .339.466l.326 1.86a1.929 1.929 0 0 0 1.9 1.6 1.983 1.983 0 0 0 .278-.02l1.87-.265a.652.652 0 0 1 .548.178l1.357 1.313a1.931 1.931 0 0 0 2.7 0l1.357-1.313a.652.652 0 0 1 .548-.178l1.87.265a1.93 1.93 0 0 0 2.181-1.585l.326-1.86a.652.652 0 0 1 .339-.467l1.668-.885a1.931 1.931 0 0 0 .832-2.567zm-.6 3.128l-1.668.885a1.926 1.926 0 0 0-1 1.377l-.326 1.86a.653.653 0 0 1-.738.536l-1.87-.265a1.926 1.926 0 0 0-1.619.526l-1.357 1.313a.653.653 0 0 1-.912 0l-1.357-1.313a1.924 1.924 0 0 0-1.343-.546 1.969 1.969 0 0 0-.276.02l-1.87.265a.653.653 0 0 1-.738-.536l-.326-1.86a1.926 1.926 0 0 0-1-1.377l-1.668-.885a.653.653 0 0 1-.282-.867l.829-1.7a1.926 1.926 0 0 0 0-1.7l-.829-1.7a.653.653 0 0 1 .282-.867l1.668-.885a1.926 1.926 0 0 0 1-1.377l.326-1.86a.653.653 0 0 1 .738-.536l1.87.265a1.926 1.926 0 0 0 1.619-.526l1.357-1.313a.653.653 0 0 1 .912 0l1.357 1.313a1.926 1.926 0 0 0 1.619.526l1.87-.265a.653.653 0 0 1 .738.536l.324 1.862a1.926 1.926 0 0 0 1 1.377l1.668.885a.653.653 0 0 1 .282.867l-.829 1.7a1.926 1.926 0 0 0 0 1.7l.829 1.7a.653.653 0 0 1-.285.865z" data-name="Path 14565" transform="translate(-10.359 .002) translate(10.359 -.002)"/>
            </g>
        </g>
        <g data-name="Group 13589">
            <g data-name="Group 13588">
                <path d="M9.561.188a.641.641 0 0 0-.907 0L.189 8.653a.641.641 0 1 0 .907.907l8.465-8.465a.641.641 0 0 0 0-.907z" data-name="Path 14566" transform="translate(-10.359 .002) translate(16.155 6.244)"/>
            </g>
        </g>
        <g data-name="Group 13591">
            <g data-name="Group 13590">
                <path d="M2.352 0a2.352 2.352 0 1 0 2.352 2.352A2.354 2.354 0 0 0 2.352 0zm0 3.42a1.069 1.069 0 1 1 1.069-1.069A1.07 1.07 0 0 1 2.352 3.42z" data-name="Path 14567" transform="translate(-10.359 .002) translate(16.112 5.346)"/>
            </g>
        </g>
        <g data-name="Group 13593">
            <g data-name="Group 13592">
                <path d="M2.352 0a2.352 2.352 0 1 0 2.352 2.352A2.354 2.354 0 0 0 2.352 0zm0 3.42a1.069 1.069 0 1 1 1.069-1.069A1.07 1.07 0 0 1 2.352 3.42z" data-name="Path 14568" transform="translate(-10.359 .002) translate(21.243 12.187)"/>
            </g>
        </g>
    </g>
</svg>
