<svg xmlns="http://www.w3.org/2000/svg" width="106.519" height="107.756" viewBox="0 0 106.519 107.756">
    <g>
        <path d="M106.5 23.234a1.723 1.723 0 0 0-.092-.461c-.019-.058-.034-.113-.059-.169a1.8 1.8 0 0 0-.36-.526L84.435.526a1.767 1.767 0 0 0-.528-.36c-.054-.024-.107-.039-.163-.058a1.767 1.767 0 0 0-.471-.094C83.242.02 83.21 0 83.172 0H29.294a8.991 8.991 0 0 0-8.98 8.98V22.2a34.055 34.055 0 0 0 0 62.32v14.26a8.991 8.991 0 0 0 8.98 8.98H97.54a8.99 8.99 0 0 0 8.98-8.98V23.347c0-.039-.019-.074-.023-.113zm-6.109-1.683H86.764a1.8 1.8 0 0 1-1.8-1.8V6.131zM3.63 53.357a30.491 30.491 0 0 1 30.531-30.531q1.531 0 3.033.147a30.448 30.448 0 0 1 27.121 25.812 30.831 30.831 0 0 1 .375 4.572 30.53 30.53 0 0 1-61.06 0zm51.389 26.979c.246-.19.488-.379.729-.574a33.61 33.61 0 0 0 2.545-2.272 33.756 33.756 0 0 0 2.272-2.543c.2-.24.384-.485.574-.73.217-.284.453-.553.661-.843L77.111 88.7a5.347 5.347 0 0 1 0 7.6 5.471 5.471 0 0 1-7.6 0L54.177 81c.289-.21.56-.444.843-.661zm42.52 23.829H29.294a5.388 5.388 0 0 1-5.388-5.388V85.919c.111.036.228.06.341.094.288.088.579.158.87.239.672.18 1.349.36 2.033.494.336.07.672.135 1.011.195.684.12 1.374.215 2.067.295.31.035.615.079.925.105 1 .085 2 .14 3.008.14a33.9 33.9 0 0 0 16.917-4.507l15.879 15.862a8.98 8.98 0 1 0 12.692-12.681L63.776 70.273a33.888 33.888 0 0 0 4.507-16.916q0-1.706-.165-3.385a34.115 34.115 0 0 0-33.957-30.737c-1.011 0-2.013.056-3.008.14-.31.027-.618.07-.927.106q-1.037.116-2.062.295-.512.089-1.02.2c-.675.14-1.345.305-2.01.488-.3.081-.6.153-.9.242-.111.034-.224.058-.336.094V8.98a5.388 5.388 0 0 1 5.388-5.388h52.09v16.163a5.388 5.388 0 0 0 5.388 5.388h16.163v73.634a5.388 5.388 0 0 1-5.388 5.388zm0 0" data-name="Path 9253"/>
        <path d="M74.193 12.576a1.8 1.8 0 0 0-1.8-1.8H32.886a1.8 1.8 0 0 0 0 3.592h39.511a1.8 1.8 0 0 0 1.796-1.792zm0 0" data-name="Path 9254"/>
        <path d="M93.947 43.102H72.396a1.8 1.8 0 0 0 0 3.592h21.551a1.8 1.8 0 1 0 0-3.592zm0 0" data-name="Path 9255"/>
        <path d="M93.947 53.878H72.396a1.8 1.8 0 0 0 0 3.592h21.551a1.8 1.8 0 1 0 0-3.592zm0 0" data-name="Path 9256"/>
        <path d="M95.743 66.454a1.8 1.8 0 0 0-1.8-1.8H70.6a1.8 1.8 0 1 0 0 3.592h23.347a1.8 1.8 0 0 0 1.796-1.792zm0 0" data-name="Path 9257"/>
        <path d="M95.743 77.229a1.8 1.8 0 0 0-1.8-1.8H77.784a1.8 1.8 0 1 0 0 3.592h16.163a1.8 1.8 0 0 0 1.796-1.792zm0 0" data-name="Path 9258"/>
        <path d="M74.192 23.351a1.8 1.8 0 0 0-1.8-1.8H58.029a1.8 1.8 0 1 0 0 3.592h14.367a1.8 1.8 0 0 0 1.796-1.792zm0 0" data-name="Path 9259"/>
        <path d="M95.744 34.127a1.8 1.8 0 0 0-1.8-1.8H67.009a1.8 1.8 0 1 0 0 3.592h26.939a1.8 1.8 0 0 0 1.796-1.792zm0 0" data-name="Path 9260"/>
        <path d="M27.498 44.899H40.07a1.8 1.8 0 0 0 0-3.592H27.498a1.8 1.8 0 0 0 0 3.592zm0 0" data-name="Path 9261"/>
        <path d="M49.049 53.882a1.8 1.8 0 0 0-1.8-1.8H20.314a1.8 1.8 0 0 0 0 3.592h26.939a1.8 1.8 0 0 0 1.796-1.792zm0 0" data-name="Path 9262"/>
        <path d="M40.07 62.858H27.498a1.8 1.8 0 1 0 0 3.592H40.07a1.8 1.8 0 1 0 0-3.592zm0 0" data-name="Path 9263"/>
        <path d="M46.944 77.046a26.337 26.337 0 0 0 10.477-10.163c.142-.248.3-.488.43-.74.069-.13.124-.264.19-.394.273-.524.538-1.049.773-1.585s.421-1.047.613-1.575c.055-.153.125-.3.18-.456a26.953 26.953 0 1 0-12.663 14.924zm-23.976-3.2a23.172 23.172 0 0 1-5.318-3.984 23.648 23.648 0 0 1-2.931-3.565q-.637-.952-1.173-1.956a23.349 23.349 0 1 1 41.142.1v.015a22.951 22.951 0 0 1-9.432 9.427 23.28 23.28 0 0 1-22.288-.034zm0 0" data-name="Path 9264"/>
        <path d="M97.54 86.205a1.8 1.8 0 0 0-1.8 1.8v7.184a1.8 1.8 0 0 1-1.8 1.8h-7.184a1.8 1.8 0 0 0 0 3.592h7.184a5.388 5.388 0 0 0 5.388-5.388v-7.188a1.8 1.8 0 0 0-1.788-1.8zm0 0" data-name="Path 9265"/>
    </g>
</svg>
