<svg xmlns="http://www.w3.org/2000/svg" width="45.023" height="51" viewBox="0 0 45.023 51">
    <path d="M22.512 0L0 6.4v13.283a33.034 33.034 0 0 0 22.014 31.141l.5.176.5-.176a33.034 33.034 0 0 0 22.009-31.141V6.4zm0 41.332a24.146 24.146 0 0 1-9.036-7.621 23.827 23.827 0 0 1-4.354-11.263l13.39-3.807L35.9 22.448a23.826 23.826 0 0 1-4.354 11.263 24.145 24.145 0 0 1-9.034 7.621zm13.547-21.946l-13.547-3.852-13.547 3.852v-6.214L22.512 9.32l13.547 3.852zm-33.07.3V8.658l18.029-5.126v3.106L5.977 10.915v8.768a26.846 26.846 0 0 0 5.073 15.773 27.143 27.143 0 0 0 9.968 8.471v3.293a30.092 30.092 0 0 1-18.03-27.537zm39.047 0a30.092 30.092 0 0 1-18.03 27.534v-3.293a27.143 27.143 0 0 0 9.968-8.471 26.847 26.847 0 0 0 5.073-15.773v-8.768L24.006 6.638V3.532l18.029 5.126z" data-name="Path 13698"/>
</svg>
