<svg xmlns="http://www.w3.org/2000/svg" width="58.029" height="58.033" viewBox="0 0 58.029 58.033">
    <g transform="translate(-.016 .001)">
        <path d="M4.55 22.671a4.539 4.539 0 0 0 4.534-4.534V9.071h9.066a1.133 1.133 0 0 0 1.133-1.133v-3.4A4.539 4.539 0 0 0 14.75.003h-6.8a1.133 1.133 0 0 0-1.134 1.133v13.077a4.533 4.533 0 1 0-2.266 8.458zm4.533-20.4h5.667a2.269 2.269 0 0 1 2.267 2.267v2.265H9.083zm-4.533 13.6a2.267 2.267 0 1 1-2.267 2.267 2.269 2.269 0 0 1 2.267-2.267z" data-name="Path 8902"/>
        <path d="M53.512 35.364h-6.8a1.133 1.133 0 0 0-1.133 1.133v13.077a4.532 4.532 0 1 0 2.267 3.924v-9.066h9.067a1.133 1.133 0 0 0 1.133-1.133v-3.4a4.539 4.539 0 0 0-4.534-4.535zm-10.2 20.4a2.267 2.267 0 1 1 2.267-2.267 2.269 2.269 0 0 1-2.267 2.268zm12.467-13.6h-7.934v-4.532h5.667a2.269 2.269 0 0 1 2.267 2.267z" data-name="Path 8903"/>
        <path d="M29.007 29.041a1.134 1.134 0 0 0-1.6 0l-2.4 2.4a1.133 1.133 0 0 0 1.6 1.6l2.4-2.4a1.133 1.133 0 0 0 0-1.6z" data-name="Path 8904"/>
        <circle cx="1.133" cy="1.133" r="1.133" data-name="Ellipse 181" transform="translate(26.084 36.725)"/>
        <path d="M28.589 20.642L9.563 39.328a2.846 2.846 0 0 0-.525 3.27l-3.953 3.953a1.133 1.133 0 0 0 0 1.6l1.6 1.6L.348 56.1a1.133 1.133 0 1 0 1.6 1.6l6.341-6.34 1.6 1.6a1.134 1.134 0 0 0 1.6 0l4.1-4.1a2.8 2.8 0 0 0 2.779-.714l6.009-5.9a1.133 1.133 0 1 0-1.578-1.615l-6.013 5.906a.566.566 0 0 1-.744.054c-.053-.04.274.283-4.867-4.859a.566.566 0 0 1 0-.8l19.009-18.679c2.988-2.987 3.723-6.613 4.371-9.812l.008-.039 11.084 11.083-.044.009c-3.214.665-6.857 1.418-9.8 4.362l-5.734 5.631a1.133 1.133 0 0 0 1.589 1.613l5.741-5.634c2.864-2.866 6.62-3.279 10.159-4.066l2.308 2.3a1.133 1.133 0 0 0 1.6-1.6l-1.389-1.389a10.507 10.507 0 0 0 4.148-2.459A13.035 13.035 0 0 0 35.799 3.82a10.479 10.479 0 0 0-2.466 4.14l-1.394-1.389a1.133 1.133 0 0 0-1.6 1.6l2.312 2.312c-.78 3.538-1.16 7.257-4.06 10.156zm-17.89 29.916L7.49 47.352l3.047-3.052 3.206 3.206zm26.7-45.135a10.768 10.768 0 0 1 15.226 15.228 9.309 9.309 0 0 1-4.364 2.242L35.148 9.78a9.231 9.231 0 0 1 2.251-4.357z" data-name="Path 8905"/>
    </g>
</svg>
