<svg xmlns="http://www.w3.org/2000/svg" width="62.493" height="62.712" viewBox="0 0 62.493 62.712">
    <g>
        <path d="M32.032 7.969a1.234 1.234 0 0 0 1.23-1.234v-5.5a1.234 1.234 0 1 0-2.467 0v5.5a1.234 1.234 0 0 0 1.237 1.234z" data-name="Path 8921" transform="translate(-.894)"/>
        <path d="M62.183 42.378L60 40.209a4.131 4.131 0 0 0-4.888-.7l-4.106-4.1.2-.2a4.281 4.281 0 0 0 0-6.045 4.234 4.234 0 0 0-2.147-1.161 4.308 4.308 0 0 0 .17-1.2 4.272 4.272 0 0 0-3.4-4.184 4.307 4.307 0 0 0 .17-1.2 4.268 4.268 0 0 0-3.4-4.182 4.269 4.269 0 0 0-4.563-5.448l-8.137-1.54c-1.241-.235-2.791-.391-3.769.5a2.227 2.227 0 0 0-.187.193 4.29 4.29 0 0 0-4.5.99 4.244 4.244 0 0 0-1.25 3.024 4.313 4.313 0 0 0 .17 1.2 4.272 4.272 0 0 0-3.4 4.179 4.3 4.3 0 0 0 .17 1.2 4.277 4.277 0 0 0-2.651 6.6 4.275 4.275 0 0 0-1.642 7.072l.2.2-4.107 4.1a4.124 4.124 0 0 0-4.666.809L2.1 42.489a4.121 4.121 0 0 0 0 5.819l2.721 2.718a1.233 1.233 0 0 0 1.743-1.745L3.84 46.563a1.654 1.654 0 0 1 0-2.327l2.181-2.174a1.652 1.652 0 0 1 2.012-.247 1.244 1.244 0 0 0 .155.19 1.228 1.228 0 0 0 .354.247l12.5 12.486a1.215 1.215 0 0 0 .595.6 1.651 1.651 0 0 1-.068 2.252l-2.178 2.176a1.657 1.657 0 0 1-2.332 0l-2.721-2.721a1.234 1.234 0 0 0-1.744 1.744l2.723 2.723a4.13 4.13 0 0 0 5.817 0l2.18-2.177a4.125 4.125 0 0 0 .578-5.094l4.622-4.616.015-.015c.529-.547 2-.445 3.428-.346a17.742 17.742 0 0 0 3.245.022l5.062 5.056a4.122 4.122 0 0 0 .7 4.883l2.18 2.177a4.125 4.125 0 0 0 5.818 0l13.221-13.205a4.12 4.12 0 0 0 0-5.82zM29.448 12.669l5.352 1.013-3.2 3.2a7.776 7.776 0 0 1-1.919-1.395 5.675 5.675 0 0 1-1.815-2.8 1.078 1.078 0 0 1-.005-.122 4.18 4.18 0 0 1 1.592.108zm-6.254 1.006a1.82 1.82 0 0 1 2.3-.218 8.823 8.823 0 0 0 2.475 3.815 9.135 9.135 0 0 0 3.554 2.2 1.811 1.811 0 0 1-2.767 2.312l-5.563-5.553a1.816 1.816 0 0 1 0-2.557zm-3.223 5.383a1.819 1.819 0 0 1 2.563 0l4.48 4.471a1.813 1.813 0 0 1-2.566 2.562l-3.4-3.4-.016-.016-1.062-1.059a1.81 1.81 0 0 1 0-2.558zm-3.229 5.381a1.825 1.825 0 0 1 2.555-.009l3.409 3.407a1.811 1.811 0 0 1-2.565 2.556L18.9 29.159l-2.158-2.16a1.815 1.815 0 0 1 0-2.56zm-2.149 6.47a1.823 1.823 0 0 1 2.567 0l1.237 1.236a1.811 1.811 0 0 1-2.567 2.554l-.155-.154-.006-.006-.007-.006-1.069-1.065a1.812 1.812 0 0 1 0-2.558zm25.138 14.019a1.233 1.233 0 0 0-1.744 0l-1.1 1.1c-1.043 1.043-2.932.912-4.76.785-1.984-.138-4.036-.28-5.364 1.083l-4.544 4.538L10.86 41.08l4.021-4.014a4.278 4.278 0 0 0 6.512-3.648v-.032h.032a4.267 4.267 0 0 0 4.276-4.271v-.032h.032a4.262 4.262 0 0 0 4.276-4.3h.033a4.279 4.279 0 0 0 3.651-6.5l3.524-3.523a1.81 1.81 0 0 1 .926-.493c.037 0 .073-.01.109-.017a1.808 1.808 0 0 1 1.535 3.059l-1.073 1.069-.011.01-1.236 1.234a1.234 1.234 0 0 0 1.743 1.746l1.078-1.076.163-.162a1.817 1.817 0 0 1 2.56.006 1.81 1.81 0 0 1 0 2.557l-1.079 1.082-1.24 1.234a1.234 1.234 0 1 0 1.741 1.748l1.242-1.237a1.81 1.81 0 0 1 2.562 2.559l-2.152 2.153a1.234 1.234 0 1 0 1.745 1.744l1.055-1.055.018-.017a1.81 1.81 0 0 1 2.563 2.558l-1.072 1.071-1.7 1.7a1.234 1.234 0 0 0 1.743 1.746l.833-.832 3.99 3.986-11.366 11.349-4.071-4.066a4.851 4.851 0 0 0 .81-.652l1.1-1.1a1.233 1.233 0 0 0 0-1.744zm20.709 1.528L47.22 59.657a1.658 1.658 0 0 1-2.331 0l-2.18-2.177a1.649 1.649 0 0 1 0-2.325L55.93 41.95a1.658 1.658 0 0 1 2.332 0l2.179 2.173a1.654 1.654 0 0 1 0 2.328z" data-name="Path 8922" transform="translate(-.894)"/>
        <path d="M15.651 6.929a1.234 1.234 0 0 0 1.743-1.746L12.899.696a1.234 1.234 0 0 0-1.743 1.746z" data-name="Path 8923" transform="translate(-.894)"/>
        <path d="M47.54 7.291a1.23 1.23 0 0 0 .872-.361l4.492-4.486A1.236 1.236 0 0 0 51.155.697l-4.491 4.486a1.233 1.233 0 0 0 .872 2.106z" data-name="Path 8924" transform="translate(-.894)"/>
        <path d="M8.479 53.061a1.234 1.234 0 0 0 .015 1.744 1.234 1.234 0 1 0-.018-1.748z" data-name="Path 8925" transform="translate(-.894)"/>
        <path d="M42.748 43.147a1.234 1.234 0 1 0-.554-2.336h-.007a1.233 1.233 0 0 0 .561 2.332z" data-name="Path 8926" transform="translate(-.894)"/>
    </g>
</svg>
