<svg width="32" height="32" viewBox="0 0 32 32" fill="none" xmlns="http://www.w3.org/2000/svg">
<g clip-path="url(#clip0_1914_40307)">
<g filter="url(#filter0_d_1914_40307)">
<path fill-rule="evenodd" clip-rule="evenodd" d="M31.9493 22.1382C31.9493 16.6916 27.5979 12.2764 22.2301 12.2764C16.8623 12.2764 12.5109 16.6916 12.5109 22.1382C12.5109 27.5847 16.8623 32 22.2301 32C24.0298 32 25.7153 31.5037 27.1608 30.6385L32 32L30.6546 27.0594C31.4781 25.6111 31.9493 23.9305 31.9493 22.1382Z" fill="url(#paint0_linear_1914_40307)"/>
<g filter="url(#filter1_bd_1914_40307)">
<path fill-rule="evenodd" clip-rule="evenodd" d="M14.3005 28.3787C20.866 28.3787 26.1883 22.9783 26.1883 16.3165C26.1883 9.6548 20.866 4.25439 14.3005 4.25439C7.73512 4.25439 2.41279 9.6548 2.41279 16.3165C2.41279 18.5499 3.011 20.6415 4.0537 22.4354L2.4126 28.441L8.36758 26.7714C10.1136 27.7937 12.1398 28.3787 14.3005 28.3787Z" fill="url(#paint1_linear_1914_40307)" fill-opacity="0.8" shape-rendering="crispEdges"/>
<path fill-rule="evenodd" clip-rule="evenodd" d="M14.3005 28.3787C20.866 28.3787 26.1883 22.9783 26.1883 16.3165C26.1883 9.6548 20.866 4.25439 14.3005 4.25439C7.73512 4.25439 2.41279 9.6548 2.41279 16.3165C2.41279 18.5499 3.011 20.6415 4.0537 22.4354L2.4126 28.441L8.36758 26.7714C10.1136 27.7937 12.1398 28.3787 14.3005 28.3787Z" fill="white" fill-opacity="0.2" shape-rendering="crispEdges"/>
<path d="M4.0537 22.4354L4.32228 22.5088C4.34195 22.4368 4.33191 22.36 4.29442 22.2955L4.0537 22.4354ZM2.4126 28.441L2.14402 28.3676C2.11758 28.4643 2.14522 28.5678 2.21637 28.6385C2.28752 28.7092 2.39119 28.7361 2.48776 28.7091L2.4126 28.441ZM8.36758 26.7714L8.50826 26.5311C8.44307 26.4929 8.36516 26.4829 8.29242 26.5033L8.36758 26.7714ZM25.9099 16.3165C25.9099 22.8283 20.7084 28.1003 14.3005 28.1003V28.6571C21.0236 28.6571 26.4667 23.1282 26.4667 16.3165H25.9099ZM14.3005 4.53282C20.7084 4.53282 25.9099 9.80474 25.9099 16.3165H26.4667C26.4667 9.50487 21.0236 3.97597 14.3005 3.97597V4.53282ZM2.69122 16.3165C2.69122 9.80474 7.8927 4.53282 14.3005 4.53282V3.97597C7.57754 3.97597 2.13436 9.50487 2.13436 16.3165H2.69122ZM4.29442 22.2955C3.27584 20.5431 2.69122 18.4996 2.69122 16.3165H2.13436C2.13436 18.6002 2.74616 20.74 3.81298 22.5753L4.29442 22.2955ZM2.68118 28.5144L4.32228 22.5088L3.78512 22.362L2.14402 28.3676L2.68118 28.5144ZM8.29242 26.5033L2.33743 28.1729L2.48776 28.7091L8.44275 27.0395L8.29242 26.5033ZM14.3005 28.1003C12.1907 28.1003 10.213 27.5292 8.50826 26.5311L8.2269 27.0117C10.0143 28.0582 12.0888 28.6571 14.3005 28.6571V28.1003Z" fill="white" fill-opacity="0.2"/>
</g>
<g filter="url(#filter2_d_1914_40307)">
<ellipse cx="6.49655" cy="6.56645" rx="6.49655" ry="6.56645" fill="url(#paint2_linear_1914_40307)"/>
<g filter="url(#filter3_d_1914_40307)">
<mask id="path-5-outside-1_1914_40307" maskUnits="userSpaceOnUse" x="3.24023" y="1.61914" width="6" height="10" fill="black">
<rect fill="white" x="3.24023" y="1.61914" width="6" height="10"/>
<path fill-rule="evenodd" clip-rule="evenodd" d="M4.24023 4.85328H5.34115C5.34115 4.23731 5.83496 3.73624 6.44202 3.73621C7.0491 3.73621 7.54293 4.23729 7.54293 4.85328C7.54293 5.17051 7.41564 5.4633 7.18456 5.67785L6.44202 6.36743V6.3677L5.8919 6.87865V8.24167H6.44202V8.24172H6.99247V7.37061L7.92783 6.50197C8.38282 6.07944 8.64385 5.47858 8.64385 4.85328C8.64385 3.62132 7.65621 2.61917 6.44207 2.61914M4.24023 4.85328C4.24023 3.62132 5.22788 2.61917 6.44202 2.61914L4.24023 4.85328ZM6.99281 10.4759V9.35884H5.8919V10.4759H6.99281Z"/>
</mask>
<path fill-rule="evenodd" clip-rule="evenodd" d="M4.24023 4.85328H5.34115C5.34115 4.23731 5.83496 3.73624 6.44202 3.73621C7.0491 3.73621 7.54293 4.23729 7.54293 4.85328C7.54293 5.17051 7.41564 5.4633 7.18456 5.67785L6.44202 6.36743V6.3677L5.8919 6.87865V8.24167H6.44202V8.24172H6.99247V7.37061L7.92783 6.50197C8.38282 6.07944 8.64385 5.47858 8.64385 4.85328C8.64385 3.62132 7.65621 2.61917 6.44207 2.61914M4.24023 4.85328C4.24023 3.62132 5.22788 2.61917 6.44202 2.61914L4.24023 4.85328ZM6.99281 10.4759V9.35884H5.8919V10.4759H6.99281Z" fill="white"/>
<path d="M4.24023 4.85328L4.14108 4.75556L4.33939 4.951L4.24023 4.85328ZM6.34292 2.52142L4.14108 4.75556L4.33939 4.951L6.54123 2.71686L6.34292 2.52142ZM4.33939 4.951L6.54117 2.71686L6.34286 2.52142L4.14108 4.75556L4.33939 4.951ZM5.34115 4.85328V5.13171H5.61958V4.85328H5.34115ZM4.24023 4.85328H3.96181V5.13171H4.24023V4.85328ZM6.44202 3.73621V3.45778L6.442 3.45778L6.44202 3.73621ZM7.18456 5.67785L6.99512 5.4738L6.99509 5.47383L7.18456 5.67785ZM6.44202 6.36743L6.25255 6.16341L6.16359 6.24603V6.36743H6.44202ZM6.44202 6.3677L6.6315 6.57171L6.72044 6.48909V6.3677H6.44202ZM5.8919 6.87865L5.70241 6.67464L5.61347 6.75725V6.87865H5.8919ZM5.8919 8.24167H5.61347V8.5201H5.8919V8.24167ZM6.44202 8.24167H6.72044V7.96324H6.44202V8.24167ZM6.44202 8.24172H6.16359V8.52015H6.44202V8.24172ZM6.99247 8.24172V8.52015H7.2709V8.24172H6.99247ZM6.99247 7.37061L6.80301 7.16659L6.71405 7.24921V7.37061H6.99247ZM7.92783 6.50197L7.73836 6.29795L7.92783 6.50197ZM6.99281 9.35884H7.27124V9.08041H6.99281V9.35884ZM6.99281 10.4759V10.7543H7.27124V10.4759H6.99281ZM5.8919 9.35884V9.08041H5.61347V9.35884H5.8919ZM5.8919 10.4759H5.61347V10.7543H5.8919V10.4759ZM5.34115 4.57485H4.24023V5.13171H5.34115V4.57485ZM6.442 3.45778C5.67737 3.45782 5.06272 4.08738 5.06272 4.85328H5.61958C5.61958 4.38724 5.99255 4.01466 6.44203 4.01464L6.442 3.45778ZM6.44202 4.01464C6.89152 4.01464 7.26451 4.38723 7.26451 4.85328H7.82136C7.82136 4.08736 7.20668 3.45778 6.44202 3.45778V4.01464ZM7.26451 4.85328C7.26451 5.09358 7.16909 5.31228 6.99512 5.4738L7.374 5.88189C7.66219 5.61433 7.82136 5.24744 7.82136 4.85328H7.26451ZM6.99509 5.47383L6.25255 6.16341L6.63148 6.57145L7.37403 5.88187L6.99509 5.47383ZM6.16359 6.36743V6.3677H6.72044V6.36743H6.16359ZM6.25253 6.16369L5.70241 6.67464L6.08138 7.08265L6.6315 6.57171L6.25253 6.16369ZM5.61347 6.87865V8.24167H6.17032V6.87865H5.61347ZM5.8919 8.5201H6.44202V7.96324H5.8919V8.5201ZM6.16359 8.24167V8.24172H6.72044V8.24167H6.16359ZM6.44202 8.52015H6.99247V7.96329H6.44202V8.52015ZM7.2709 8.24172V7.37061H6.71405V8.24172H7.2709ZM7.18194 7.57463L8.11729 6.706L7.73836 6.29795L6.80301 7.16659L7.18194 7.57463ZM8.11729 6.706C8.62944 6.23038 8.92228 5.55541 8.92228 4.85328H8.36542C8.36542 5.40174 8.1362 5.92849 7.73836 6.29795L8.11729 6.706ZM8.92228 4.85328C8.92228 3.47139 7.8138 2.34075 6.44208 2.34071L6.44207 2.89757C7.49863 2.8976 8.36542 3.77126 8.36542 4.85328H8.92228ZM4.51866 4.85328C4.51866 3.77126 5.38546 2.8976 6.44202 2.89757L6.44201 2.34071C5.07029 2.34075 3.96181 3.47139 3.96181 4.85328H4.51866ZM6.71439 9.35884V10.4759H7.27124V9.35884H6.71439ZM5.8919 9.63727H6.99281V9.08041H5.8919V9.63727ZM6.17032 10.4759V9.35884H5.61347V10.4759H6.17032ZM6.99281 10.1975H5.8919V10.7543H6.99281V10.1975Z" fill="white" mask="url(#path-5-outside-1_1914_40307)"/>
</g>
</g>
</g>
</g>
<defs>
<filter id="filter0_d_1914_40307" x="0" y="0" width="59.8429" height="59.8429" filterUnits="userSpaceOnUse" color-interpolation-filters="sRGB">
<feFlood flood-opacity="0" result="BackgroundImageFix"/>
<feColorMatrix in="SourceAlpha" type="matrix" values="0 0 0 0 0 0 0 0 0 0 0 0 0 0 0 0 0 0 127 0" result="hardAlpha"/>
<feOffset dx="13.9214" dy="13.9214"/>
<feGaussianBlur stdDeviation="6.96072"/>
<feComposite in2="hardAlpha" operator="out"/>
<feColorMatrix type="matrix" values="0 0 0 0 0.121569 0 0 0 0 0.137255 0 0 0 0 0.207843 0 0 0 0.1 0"/>
<feBlend mode="normal" in2="BackgroundImageFix" result="effect1_dropShadow_1914_40307"/>
<feBlend mode="normal" in="SourceGraphic" in2="effect1_dropShadow_1914_40307" result="shape"/>
</filter>
<filter id="filter1_bd_1914_40307" x="-1.20699" y="0.634927" width="31.8502" height="32.2607" filterUnits="userSpaceOnUse" color-interpolation-filters="sRGB">
<feFlood flood-opacity="0" result="BackgroundImageFix"/>
<feGaussianBlur in="BackgroundImage" stdDeviation="1.67057"/>
<feComposite in2="SourceAlpha" operator="in" result="effect1_backgroundBlur_1914_40307"/>
<feColorMatrix in="SourceAlpha" type="matrix" values="0 0 0 0 0 0 0 0 0 0 0 0 0 0 0 0 0 0 127 0" result="hardAlpha"/>
<feOffset dx="1.39214" dy="1.39214"/>
<feGaussianBlur stdDeviation="1.39214"/>
<feComposite in2="hardAlpha" operator="out"/>
<feColorMatrix type="matrix" values="0 0 0 0 0.286275 0 0 0 0 0.0588235 0 0 0 0 0.0470588 0 0 0 0.12 0"/>
<feBlend mode="normal" in2="effect1_backgroundBlur_1914_40307" result="effect2_dropShadow_1914_40307"/>
<feBlend mode="normal" in="SourceGraphic" in2="effect2_dropShadow_1914_40307" result="shape"/>
</filter>
<filter id="filter2_d_1914_40307" x="-0.278429" y="-0.278429" width="16.3342" height="16.474" filterUnits="userSpaceOnUse" color-interpolation-filters="sRGB">
<feFlood flood-opacity="0" result="BackgroundImageFix"/>
<feColorMatrix in="SourceAlpha" type="matrix" values="0 0 0 0 0 0 0 0 0 0 0 0 0 0 0 0 0 0 127 0" result="hardAlpha"/>
<feOffset dx="1.39214" dy="1.39214"/>
<feGaussianBlur stdDeviation="0.835287"/>
<feComposite in2="hardAlpha" operator="out"/>
<feColorMatrix type="matrix" values="0 0 0 0 0 0 0 0 0 0 0 0 0 0 0 0 0 0 0.05 0"/>
<feBlend mode="normal" in2="BackgroundImageFix" result="effect1_dropShadow_1914_40307"/>
<feBlend mode="normal" in="SourceGraphic" in2="effect1_dropShadow_1914_40307" result="shape"/>
</filter>
<filter id="filter3_d_1914_40307" x="3.96179" y="2.34082" width="7.74474" height="11.1979" filterUnits="userSpaceOnUse" color-interpolation-filters="sRGB">
<feFlood flood-opacity="0" result="BackgroundImageFix"/>
<feColorMatrix in="SourceAlpha" type="matrix" values="0 0 0 0 0 0 0 0 0 0 0 0 0 0 0 0 0 0 127 0" result="hardAlpha"/>
<feOffset dx="1.39214" dy="1.39214"/>
<feGaussianBlur stdDeviation="0.696072"/>
<feComposite in2="hardAlpha" operator="out"/>
<feColorMatrix type="matrix" values="0 0 0 0 0.130625 0 0 0 0 0.141389 0 0 0 0 0.15 0 0 0 0.1 0"/>
<feBlend mode="normal" in2="BackgroundImageFix" result="effect1_dropShadow_1914_40307"/>
<feBlend mode="normal" in="SourceGraphic" in2="effect1_dropShadow_1914_40307" result="shape"/>
</filter>
<linearGradient id="paint0_linear_1914_40307" x1="30.6929" y1="27.0684" x2="13.7177" y2="17.3838" gradientUnits="userSpaceOnUse">
<stop stop-color="#FFDD00"/>
<stop offset="1" stop-color="#FBB034"/>
</linearGradient>
<linearGradient id="paint1_linear_1914_40307" x1="7.28319" y1="9.58404" x2="17.7709" y2="21.6428" gradientUnits="userSpaceOnUse">
<stop stop-color="white" stop-opacity="0.6"/>
<stop offset="1" stop-color="white" stop-opacity="0.2"/>
</linearGradient>
<linearGradient id="paint2_linear_1914_40307" x1="3.24874" y1="12.252" x2="9.84919" y2="0.942015" gradientUnits="userSpaceOnUse">
<stop stop-color="#FFDD00"/>
<stop offset="1" stop-color="#FBB034"/>
</linearGradient>
<clipPath id="clip0_1914_40307">
<rect width="32" height="32" fill="white"/>
</clipPath>
</defs>
</svg>
