<svg xmlns="http://www.w3.org/2000/svg" width="72.385" height="72.385" viewBox="0 0 72.385 72.385">
    <g>
        <path d="M12.731 55.978a5.9 5.9 0 0 0-2.852.728A33.38 33.38 0 0 1 42.837 3.489 1.414 1.414 0 0 0 43.4.717 36.462 36.462 0 0 0 36.192 0a36.192 36.192 0 0 0-28.4 58.623 5.94 5.94 0 1 0 4.943-2.644zm2.2 8.137a3.11 3.11 0 1 1 .911-2.2 3.089 3.089 0 0 1-.912 2.2zm0 0" data-name="Path 10093" transform="translate(0 .001)"/>
        <path d="M64.596 13.761a5.925 5.925 0 1 0-2.09 1.918 33.38 33.38 0 0 1-32.895 53.23 1.414 1.414 0 0 0-.555 2.773 36.486 36.486 0 0 0 7.136.7 36.193 36.193 0 0 0 28.4-58.624zm-7.141-1.092a3.111 3.111 0 1 1 2.2.911 3.09 3.09 0 0 1-2.2-.912zm0 0" data-name="Path 10094" transform="translate(0 .001)"/>
        <path d="M30.358 60.509a1.414 1.414 0 0 0 1.414 1.414h8.84a1.414 1.414 0 0 0 1.414-1.414v-2.741a22.139 22.139 0 0 0 5.306-2.2l1.935 1.935a1.413 1.413 0 0 0 2 0l6.248-6.253a1.414 1.414 0 0 0 0-2l-1.933-1.933a22.139 22.139 0 0 0 2.2-5.306h2.73a1.414 1.414 0 0 0 1.414-1.414v-8.836a1.414 1.414 0 0 0-1.414-1.414h-2.731a22.143 22.143 0 0 0-2.2-5.306l1.922-1.922a1.414 1.414 0 0 0 0-2l-6.253-6.248a1.414 1.414 0 0 0-2 0l-1.92 1.92a22.14 22.14 0 0 0-5.306-2.2v-2.716a1.414 1.414 0 0 0-1.412-1.414h-8.837a1.414 1.414 0 0 0-1.414 1.414v2.716a22.121 22.121 0 0 0-5.306 2.2l-1.92-1.92a1.414 1.414 0 0 0-2 0l-6.253 6.249a1.413 1.413 0 0 0 0 2l1.922 1.922a22.135 22.135 0 0 0-2.2 5.306h-2.729a1.414 1.414 0 0 0-1.411 1.413v8.84a1.413 1.413 0 0 0 1.414 1.414h2.73a22.139 22.139 0 0 0 2.2 5.306l-1.933 1.933a1.414 1.414 0 0 0 0 2l6.248 6.253a1.414 1.414 0 0 0 1 .415 1.414 1.414 0 0 0 1-.414l1.935-1.935a22.158 22.158 0 0 0 5.306 2.2zm-4.752-7.913a1.414 1.414 0 0 0-1.767.188l-1.721 1.721-4.25-4.253 1.72-1.72a1.413 1.413 0 0 0 .187-1.771 19.351 19.351 0 0 1-2.678-6.463 1.414 1.414 0 0 0-1.382-1.117h-2.428v-6.012h2.428a1.414 1.414 0 0 0 1.382-1.117 19.353 19.353 0 0 1 2.678-6.459 1.413 1.413 0 0 0-.188-1.767l-1.712-1.709 4.253-4.25 1.707 1.708a1.415 1.415 0 0 0 1.767.188 19.344 19.344 0 0 1 6.462-2.678 1.415 1.415 0 0 0 1.117-1.382v-2.414h6.012v2.414a1.413 1.413 0 0 0 1.117 1.382 19.36 19.36 0 0 1 6.465 2.676 1.413 1.413 0 0 0 1.767-.188l1.708-1.707 4.253 4.25-1.709 1.709a1.413 1.413 0 0 0-.188 1.767 19.365 19.365 0 0 1 2.678 6.462 1.413 1.413 0 0 0 1.382 1.117h2.429v6.012h-2.429a1.414 1.414 0 0 0-1.382 1.117 19.348 19.348 0 0 1-2.678 6.462 1.414 1.414 0 0 0 .188 1.767l1.72 1.72-4.25 4.253-1.721-1.721a1.413 1.413 0 0 0-1.767-.188 19.364 19.364 0 0 1-6.462 2.678 1.414 1.414 0 0 0-1.117 1.382v2.439h-6.011v-2.439a1.415 1.415 0 0 0-1.117-1.382 19.353 19.353 0 0 1-6.462-2.678zm0 0" data-name="Path 10095" transform="translate(0 .001)"/>
        <path d="M47.874 36.192a11.682 11.682 0 1 0-11.682 11.682 11.695 11.695 0 0 0 11.682-11.682zm-20.536 0a8.854 8.854 0 1 1 8.854 8.854 8.864 8.864 0 0 1-8.853-8.854zm0 0" data-name="Path 10096" transform="translate(0 .001)"/>
        <path d="M49.21 5.347a1.415 1.415 0 1 0-1-.414 1.424 1.424 0 0 0 1 .414zm0 0" data-name="Path 10097" transform="translate(0 .001)"/>
        <path d="M23.237 67.063a1.414 1.414 0 1 0 1 .414 1.425 1.425 0 0 0-1-.414zm0 0" data-name="Path 10098" transform="translate(0 .001)"/>
    </g>
</svg>
