<svg xmlns="http://www.w3.org/2000/svg" width="73.611" height="71.922" viewBox="0 0 73.611 71.922">
    <g>
        <path d="M30.244 64.394l-.216 1.056.208-1.058a1.078 1.078 0 1 0-.417 2.116h.02a1.1 1.1 0 0 0 .2.02 1.079 1.079 0 0 0 .2-2.138zm0 0" data-name="Path 10050"/>
        <path d="M38.488 64.74l.107 1.073-.111-1.072a1.078 1.078 0 0 0 .109 2.151c.037 0 .075 0 .112-.006h.03a1.079 1.079 0 0 0-.247-2.143zm0 0" data-name="Path 10051"/>
        <path d="M34.36 64.876h-.016a1.072 1.072 0 0 0-1.118 1.029 1.084 1.084 0 0 0 1.036 1.125h.05a1.078 1.078 0 0 0 .048-2.155zm0 0" data-name="Path 10052"/>
        <path d="M26.26 63.298l-.013-.005a1.072 1.072 0 0 0-1.373.653 1.082 1.082 0 1 0 1.386-.648zm0 0" data-name="Path 10053"/>
        <path d="M42.557 63.985l.266 1.045-.269-1.044a1.078 1.078 0 1 0 .538 2.088l.029-.007a1.078 1.078 0 0 0-.563-2.082zm0 0" data-name="Path 10054"/>
        <path d="M46.455 62.626l.427.99-.431-.988a1.078 1.078 0 1 0 .861 1.977l.026-.012a1.078 1.078 0 0 0-.884-1.967zm0 0" data-name="Path 10055"/>
        <path d="M22.141 13.472a1.079 1.079 0 1 0-.5-2.031l-.013.007a1.077 1.077 0 0 0 .517 2.024zm0 0" data-name="Path 10056"/>
        <path d="M9.669 25.516a1.078 1.078 0 0 0 1.456-.454l.019-.038a1.079 1.079 0 1 0-1.475.492zm0 0" data-name="Path 10057"/>
        <path d="M8.151 29.576a1.077 1.077 0 0 0 1.367-.676l.014-.043a1.079 1.079 0 1 0-1.381.718zm0 0" data-name="Path 10058"/>
        <path d="M11.796 21.743a1.077 1.077 0 0 0 1.506-.238l.014-.019a1.078 1.078 0 0 0-1.754-1.254l.869.639-.872-.635a1.078 1.078 0 0 0 .238 1.506zm0 0" data-name="Path 10059"/>
        <path d="M18.481 15.8a1.083 1.083 0 1 0-.625-1.959l-.027.02a1.079 1.079 0 0 0 .651 1.94zm0 0" data-name="Path 10060"/>
        <path d="M7.188 45.924a1.078 1.078 0 1 0-.014-.047zm0 0" data-name="Path 10061"/>
        <path d="M15.223 18.642a1.082 1.082 0 1 0-.753-1.849l-.018.018a1.077 1.077 0 0 0 .771 1.831zm0 0" data-name="Path 10062"/>
        <path d="M8.383 41.224a1.078 1.078 0 0 0-2.14.267l.006.043a1.078 1.078 0 0 0 2.134-.31zm0 0" data-name="Path 10063"/>
        <path d="M7.025 38.135h.033a1.078 1.078 0 0 0 1.077-1.047v-.046a1.079 1.079 0 1 0-1.111 1.092zm0 0" data-name="Path 10064"/>
        <path d="M7.262 33.81a1.113 1.113 0 0 0 .192.017 1.079 1.079 0 0 0 1.06-.888c0-.016.005-.031.007-.047a1.079 1.079 0 1 0-1.259.919zm0 0" data-name="Path 10065"/>
        <path d="M58.127 22.083a1.078 1.078 0 0 0 1.775-1.224l-.9.6.893-.6a1.078 1.078 0 0 0-1.785 1.21zm0 0" data-name="Path 10066"/>
        <path d="M63.635 32.934a1.078 1.078 0 0 0-.951 1.192l.006.047a1.079 1.079 0 0 0 1.066.926 1.1 1.1 0 0 0 .154-.011 1.086 1.086 0 0 0-.275-2.154zm0 0" data-name="Path 10067"/>
        <path d="M61.814 29.892v.014a1.078 1.078 0 0 0 1.034.774 1.062 1.062 0 0 0 .3-.044 1.078 1.078 0 0 0 .731-1.339v-.014a1.078 1.078 0 0 0-2.069.609zm0 0" data-name="Path 10068"/>
        <path d="M60.29 25.86a1.084 1.084 0 0 0 .973.605 1.078 1.078 0 0 0 .965-1.551l-.977.455.976-.458a1.078 1.078 0 0 0-1.953.915zm0 0" data-name="Path 10069"/>
        <path d="M55.411 18.715a1.087 1.087 0 1 0-.033-.034zm0 0" data-name="Path 10070"/>
        <path d="M63.984 37.437a1.085 1.085 0 0 0-.092 2.168h.061a1.078 1.078 0 0 0 1.075-1.019v-.044a1.077 1.077 0 0 0-1.044-1.105zm0 0" data-name="Path 10071"/>
        <path d="M48.515 13.421l.026.014a1.074 1.074 0 0 0 1.452-.443 1.082 1.082 0 0 0-.438-1.46l-.522.943.518-.946a1.078 1.078 0 1 0-1.037 1.891zm0 0" data-name="Path 10072"/>
        <path d="M52.158 15.786l.017.013a1.078 1.078 0 0 0 1.3-1.719l-.007-.005a1.078 1.078 0 1 0-1.31 1.711zm0 0" data-name="Path 10073"/>
        <path d="M72.945 53.761l-5.062-5.071a2.277 2.277 0 0 0-3.224 0l-.117.117-.332-.332a4.352 4.352 0 0 1-.944-1.412 1.051 1.051 0 0 0-.077-.2 4.36 4.36 0 0 1-.251-1.465v-1.435a1.086 1.086 0 1 0-.007-1.917 6.079 6.079 0 0 0-1.782-4.055l-4.911-4.919a5.826 5.826 0 0 0-7.45-.669l-.521-.524V19.547a6.123 6.123 0 0 0-1.519-4.038 4.351 4.351 0 0 1-1.081-2.872v-.9h.074a2.282 2.282 0 0 0 2.28-2.28V2.28A2.282 2.282 0 0 0 45.741 0H25.6a2.282 2.282 0 0 0-2.28 2.28v7.173a2.282 2.282 0 0 0 2.28 2.28h.166v.473a4.326 4.326 0 0 1-1.273 3.077l-2.174 2.178a6.083 6.083 0 0 0-1.789 4.326v6.957a5.814 5.814 0 0 0 .626 2.628 5.79 5.79 0 0 0-3.784 1.7l-4.911 4.919a6.084 6.084 0 0 0-1.789 4.326V45.4A4.326 4.326 0 0 1 9.4 48.475l-.329.329-.117-.117a2.277 2.277 0 0 0-3.224 0L.665 53.761a2.286 2.286 0 0 0 0 3.225L2.4 58.721A1.078 1.078 0 1 0 3.925 57.2l-1.733-1.739a.125.125 0 0 1 0-.177l5.062-5.071a.121.121 0 0 1 .171 0l.88.882 12.018 12.038 1.346 1.349a.125.125 0 0 1 0 .177l-5.062 5.071a.121.121 0 0 1-.172 0l-9.457-9.474a1.078 1.078 0 0 0-1.526 1.524l9.458 9.474a2.277 2.277 0 0 0 3.224 0l5.066-5.072a2.285 2.285 0 0 0 0-3.224l-.06-.058.639-.64A4.333 4.333 0 0 1 26.568 61a6.1 6.1 0 0 0 3.926-1.78l4.65-4.66a3.692 3.692 0 0 0 2.669-2.813 3.677 3.677 0 0 0 5.254-3.327v-2.56a3.675 3.675 0 0 0 5.2-3.352v-7.571l3.317 3.333a1.078 1.078 0 0 0 1.529-1.521l-2.767-2.779a3.673 3.673 0 0 1 4.365.627l4.911 4.919a3.942 3.942 0 0 1 1.159 2.8V45.4a6.469 6.469 0 0 0 1.9 4.6l.335.335-1.563 1.565-9.46 9.476-.527-.528-.016-.016-.093-.093a6.492 6.492 0 0 0-4.176-1.893 3.954 3.954 0 0 1-2.543-1.154L41.1 54.168a1.08 1.08 0 1 0-1.525 1.532l3.541 3.521A6.1 6.1 0 0 0 47.043 61a4.335 4.335 0 0 1 2.789 1.264l.052.052a1.038 1.038 0 0 0 .089.09l.5.5-.055.056a2.285 2.285 0 0 0 0 3.224l5.062 5.071a2.278 2.278 0 0 0 3.225 0l14.24-14.272a2.285 2.285 0 0 0 0-3.224zM63.66 43.038h-.02l-.2-.04zM28.968 57.695a3.947 3.947 0 0 1-2.539 1.152 6.492 6.492 0 0 0-4.176 1.893l-.636.637-.573-.574-.022-.022-10.429-10.447.334-.334a6.47 6.47 0 0 0 1.9-4.6v-3.08a3.94 3.94 0 0 1 1.159-2.8L18.9 34.6a3.672 3.672 0 0 1 4.371-.623L20.5 36.748a1.078 1.078 0 0 0 1.526 1.524l3.308-3.315v13.462a3.677 3.677 0 0 0 5.274 3.317 3.7 3.7 0 0 0 1.827 2.483zM46.11 42.507a1.522 1.522 0 1 1-3.043 0V30.479a1.079 1.079 0 1 0-2.157 0v17.94a1.52 1.52 0 0 1-3.02.252v-18.2a1.09 1.09 0 0 0-2.179.012v17.936a3.7 3.7 0 0 0 .022.4V51a1.521 1.521 0 1 1-3.042 0V30.454a1.079 1.079 0 0 0-2.157 0v17.964a1.521 1.521 0 1 1-3.042 0V28.361a1.079 1.079 0 1 0-2.157 0v3.71a1.059 1.059 0 0 0-.259.124 3.69 3.69 0 0 1-2.39-3.451v-6.957a3.942 3.942 0 0 1 1.159-2.8l2.174-2.178a6.468 6.468 0 0 0 1.9-4.6v-.473h2.168a1.079 1.079 0 0 0 0-2.157H25.6a.123.123 0 0 1-.123-.124V2.28a.123.123 0 0 1 .123-.124h20.14a.124.124 0 0 1 .124.124v7.173a.123.123 0 0 1-.124.124H35.152a1.079 1.079 0 1 0 0 2.157h8.358v.9a6.511 6.511 0 0 0 1.615 4.295 3.964 3.964 0 0 1 .984 2.615zm25.308 12.954L57.175 69.729a.115.115 0 0 1-.086.036.117.117 0 0 1-.089-.036l-5.062-5.071a.125.125 0 0 1 0-.177l.815-.817 8.269-8.283 5.159-5.168a.12.12 0 0 1 .171 0l5.062 5.071a.125.125 0 0 1 .004.177zm0 0" data-name="Path 10074"/>
        <path d="M29.013 4.712a1.15 1.15 0 1 0 1.148 1.15 1.15 1.15 0 0 0-1.148-1.15zm0 0" data-name="Path 10075"/>
        <path d="M66.623 53.87a1.15 1.15 0 1 0 1.148 1.15 1.151 1.151 0 0 0-1.148-1.15zm0 0" data-name="Path 10076"/>
        <path d="M17.969 64.87a1.148 1.148 0 1 0-1.148 1.15 1.15 1.15 0 0 0 1.148-1.15zm0 0" data-name="Path 10077"/>
    </g>
</svg>
