<svg xmlns="http://www.w3.org/2000/svg" width="22.058" height="20.334" viewBox="0 0 22.058 20.334">
    <g>
        <g data-name="Group 13595">
            <g data-name="Group 13594">
                <path d="M.431 0A.431.431 0 0 0 0 .431v2.563a.431.431 0 0 0 .862 0V.431A.431.431 0 0 0 .431 0z" data-name="Path 14569" transform="translate(0 -20) translate(10.598 20)"/>
            </g>
        </g>
        <g data-name="Group 13597">
            <g data-name="Group 13596">
                <path d="M1.77 1.156L.739.126a.431.431 0 0 0-.609.61l1.031 1.03a.431.431 0 0 0 .609-.61z" data-name="Path 14570" transform="translate(0 -20) translate(6.821 22.522)"/>
            </g>
        </g>
        <g data-name="Group 13599">
            <g data-name="Group 13598">
                <path d="M1.831.127a.431.431 0 0 0-.609 0l-1.1 1.1a.431.431 0 0 0 .61.609l1.1-1.1a.431.431 0 0 0-.001-.609z" data-name="Path 14571" transform="translate(0 -20) translate(13.279 22.523)"/>
            </g>
        </g>
        <g data-name="Group 13601">
            <g data-name="Group 13600">
                <path d="M19.236 4.901h-.348a2.183 2.183 0 0 0 .453-1.333V2.96a2.195 2.195 0 1 0-4.389 0v.473L11.711.192a.649.649 0 0 0-.682-.152.65.65 0 0 0-.682.152L7.106 3.433V2.96a2.195 2.195 0 0 0-4.39 0v.608a2.183 2.183 0 0 0 .453 1.333h-.347A2.825 2.825 0 0 0 0 7.723v5.708a.431.431 0 0 0 .431.431h1.82a.431.431 0 0 0 .124-.018.431.431 0 0 0 .124.018h4.825a.431.431 0 0 0 .431-.431v-1.465a.431.431 0 1 0-.862 0V13H2.93V8.091a.431.431 0 0 0-.862 0V13H.862V7.722a1.962 1.962 0 0 1 1.96-1.96h2.994a.43.43 0 0 0 .3-.125l4.475-4.475a4.744 4.744 0 0 1-.809 2.5L6.967 7.848a.431.431 0 0 0-.073.241v4.417a.431.431 0 1 0 .862 0V8.221L10.5 4.148a5.638 5.638 0 0 0 .528-.983 5.635 5.635 0 0 0 .528.983l2.746 4.078v5.208a.431.431 0 0 0 .431.431h4.825a.431.431 0 0 0 .124-.018.431.431 0 0 0 .124.018h1.82a.431.431 0 0 0 .431-.431V7.726a2.825 2.825 0 0 0-2.821-2.825zM6.244 3.568a1.333 1.333 0 1 1-2.666 0V2.96a1.333 1.333 0 1 1 2.666 0zm9.569-.608a1.333 1.333 0 1 1 2.666 0v.608a1.333 1.333 0 1 1-2.666 0zM21.2 13h-1.21V8.222a.431.431 0 1 0-.862 0V13h-3.963V8.091a.431.431 0 0 0-.073-.241l-2.82-4.187a4.744 4.744 0 0 1-.809-2.5l4.475 4.475.016.015a.429.429 0 0 0 .288.111h2.994a1.962 1.962 0 0 1 1.96 1.96z" data-name="Path 14572" transform="translate(0 -20) translate(0 26.473)"/>
            </g>
        </g>
        <g data-name="Group 13603">
            <g data-name="Group 13602">
                <path d="M.735.126a.43.43 0 1 0 .126.3.434.434 0 0 0-.126-.3z" data-name="Path 14573" transform="translate(0 -20) translate(19.128 34.133)"/>
            </g>
        </g>
        <g data-name="Group 13605">
            <g data-name="Group 13604">
                <path d="M.735.126a.431.431 0 1 0 .126.3.434.434 0 0 0-.126-.3z" data-name="Path 14574" transform="translate(0 -20) translate(6.893 36.414)"/>
            </g>
        </g>
    </g>
</svg>
