<svg width="32" height="32" viewBox="0 0 32 32" fill="none" xmlns="http://www.w3.org/2000/svg">
<g clip-path="url(#clip0_1905_40250)">
<g filter="url(#filter0_d_1905_40250)">
<g filter="url(#filter1_b_1905_40250)">
<path fill-rule="evenodd" clip-rule="evenodd" d="M22.431 5.68018C19.8177 5.68018 17.6992 7.79869 17.6992 10.412C17.6992 13.0253 19.8177 15.1439 22.431 15.1439H22.7815C25.3949 15.1439 27.5134 13.0253 27.5134 10.412C27.5134 7.79869 25.3949 5.68018 22.7815 5.68018H22.431ZM31.7795 27.4734C31.5691 28.4206 30.6649 28.9999 29.6946 28.9999H15.7981C14.8278 28.9999 13.9236 28.4206 13.7132 27.4734C13.569 26.8244 13.4929 26.1498 13.4929 25.4574C13.4929 20.3469 17.6358 16.204 22.7463 16.204C27.8569 16.204 31.9998 20.3469 31.9998 25.4574C31.9998 26.1498 31.9237 26.8244 31.7795 27.4734Z" fill="url(#paint0_linear_1905_40250)"/>
</g>
<g filter="url(#filter2_bd_1905_40250)">
<mask id="path-2-inside-1_1905_40250" fill="white">
<path fill-rule="evenodd" clip-rule="evenodd" d="M20.0749 30.0405C21.0823 30.0405 22.0077 29.4153 22.2081 28.4281C22.3552 27.7033 22.4324 26.9532 22.4324 26.185C22.4324 19.9904 17.4108 14.9688 11.2162 14.9688C5.02167 14.9688 0 19.9904 0 26.185C0 26.9532 0.0772288 27.7033 0.224346 28.4281C0.424731 29.4153 1.35013 30.0405 2.35747 30.0405H20.0749Z"/>
</mask>
<path fill-rule="evenodd" clip-rule="evenodd" d="M20.0749 30.0405C21.0823 30.0405 22.0077 29.4153 22.2081 28.4281C22.3552 27.7033 22.4324 26.9532 22.4324 26.185C22.4324 19.9904 17.4108 14.9688 11.2162 14.9688C5.02167 14.9688 0 19.9904 0 26.185C0 26.9532 0.0772288 27.7033 0.224346 28.4281C0.424731 29.4153 1.35013 30.0405 2.35747 30.0405H20.0749Z" fill="url(#paint1_linear_1905_40250)" fill-opacity="0.8" shape-rendering="crispEdges"/>
<path fill-rule="evenodd" clip-rule="evenodd" d="M20.0749 30.0405C21.0823 30.0405 22.0077 29.4153 22.2081 28.4281C22.3552 27.7033 22.4324 26.9532 22.4324 26.185C22.4324 19.9904 17.4108 14.9688 11.2162 14.9688C5.02167 14.9688 0 19.9904 0 26.185C0 26.9532 0.0772288 27.7033 0.224346 28.4281C0.424731 29.4153 1.35013 30.0405 2.35747 30.0405H20.0749Z" fill="white" fill-opacity="0.2" shape-rendering="crispEdges"/>
<path d="M22.2081 28.4281L21.7377 28.3326L22.2081 28.4281ZM21.9524 26.185C21.9524 26.9209 21.8784 27.6391 21.7377 28.3326L22.6785 28.5236C22.8319 27.7676 22.9124 26.9854 22.9124 26.185H21.9524ZM11.2162 15.4487C17.1457 15.4487 21.9524 20.2555 21.9524 26.185H22.9124C22.9124 19.7253 17.6758 14.4888 11.2162 14.4888V15.4487ZM0.48 26.185C0.48 20.2555 5.28676 15.4487 11.2162 15.4487V14.4888C4.75657 14.4888 -0.48 19.7253 -0.48 26.185H0.48ZM0.694753 28.3326C0.553979 27.6391 0.48 26.9209 0.48 26.185H-0.48C-0.48 26.9854 -0.399522 27.7676 -0.246061 28.5236L0.694753 28.3326ZM2.35747 30.5205H20.0749V29.5605H2.35747V30.5205ZM-0.246061 28.5236C0.00826339 29.7765 1.16762 30.5205 2.35747 30.5205V29.5605C1.53264 29.5605 0.841198 29.0541 0.694753 28.3326L-0.246061 28.5236ZM21.7377 28.3326C21.5912 29.0541 20.8998 29.5605 20.0749 29.5605V30.5205C21.2648 30.5205 22.4242 29.7765 22.6785 28.5236L21.7377 28.3326Z" fill="white" fill-opacity="0.3" mask="url(#path-2-inside-1_1905_40250)"/>
</g>
<g filter="url(#filter3_b_1905_40250)">
<rect x="5.43298" y="2" width="11.5667" height="11.5667" rx="5.78336" fill="url(#paint2_linear_1905_40250)" fill-opacity="0.8"/>
<rect x="5.43298" y="2" width="11.5667" height="11.5667" rx="5.78336" fill="white" fill-opacity="0.2"/>
<rect x="5.67298" y="2.24" width="11.0867" height="11.0867" rx="5.54336" stroke="white" stroke-opacity="0.2" stroke-width="0.48"/>
</g>
</g>
</g>
<defs>
<filter id="filter0_d_1905_40250" x="0" y="2" width="55.9998" height="52.0405" filterUnits="userSpaceOnUse" color-interpolation-filters="sRGB">
<feFlood flood-opacity="0" result="BackgroundImageFix"/>
<feColorMatrix in="SourceAlpha" type="matrix" values="0 0 0 0 0 0 0 0 0 0 0 0 0 0 0 0 0 0 127 0" result="hardAlpha"/>
<feOffset dx="12" dy="12"/>
<feGaussianBlur stdDeviation="6"/>
<feComposite in2="hardAlpha" operator="out"/>
<feColorMatrix type="matrix" values="0 0 0 0 0.121569 0 0 0 0 0.137255 0 0 0 0 0.207843 0 0 0 0.1 0"/>
<feBlend mode="normal" in2="BackgroundImageFix" result="effect1_dropShadow_1905_40250"/>
<feBlend mode="normal" in="SourceGraphic" in2="effect1_dropShadow_1905_40250" result="shape"/>
</filter>
<filter id="filter1_b_1905_40250" x="10.6129" y="2.80018" width="24.2668" height="29.0798" filterUnits="userSpaceOnUse" color-interpolation-filters="sRGB">
<feFlood flood-opacity="0" result="BackgroundImageFix"/>
<feGaussianBlur in="BackgroundImage" stdDeviation="1.44"/>
<feComposite in2="SourceAlpha" operator="in" result="effect1_backgroundBlur_1905_40250"/>
<feBlend mode="normal" in="SourceGraphic" in2="effect1_backgroundBlur_1905_40250" result="shape"/>
</filter>
<filter id="filter2_bd_1905_40250" x="-2.88" y="11.3688" width="31.3124" height="22.2718" filterUnits="userSpaceOnUse" color-interpolation-filters="sRGB">
<feFlood flood-opacity="0" result="BackgroundImageFix"/>
<feGaussianBlur in="BackgroundImage" stdDeviation="1.44"/>
<feComposite in2="SourceAlpha" operator="in" result="effect1_backgroundBlur_1905_40250"/>
<feColorMatrix in="SourceAlpha" type="matrix" values="0 0 0 0 0 0 0 0 0 0 0 0 0 0 0 0 0 0 127 0" result="hardAlpha"/>
<feOffset dx="2.4"/>
<feGaussianBlur stdDeviation="1.8"/>
<feComposite in2="hardAlpha" operator="out"/>
<feColorMatrix type="matrix" values="0 0 0 0 0.286275 0 0 0 0 0.0588235 0 0 0 0 0.0470588 0 0 0 0.12 0"/>
<feBlend mode="normal" in2="effect1_backgroundBlur_1905_40250" result="effect2_dropShadow_1905_40250"/>
<feBlend mode="normal" in="SourceGraphic" in2="effect2_dropShadow_1905_40250" result="shape"/>
</filter>
<filter id="filter3_b_1905_40250" x="2.55298" y="-0.88" width="17.3268" height="17.3269" filterUnits="userSpaceOnUse" color-interpolation-filters="sRGB">
<feFlood flood-opacity="0" result="BackgroundImageFix"/>
<feGaussianBlur in="BackgroundImage" stdDeviation="1.44"/>
<feComposite in2="SourceAlpha" operator="in" result="effect1_backgroundBlur_1905_40250"/>
<feBlend mode="normal" in="SourceGraphic" in2="effect1_backgroundBlur_1905_40250" result="shape"/>
</filter>
<linearGradient id="paint0_linear_1905_40250" x1="18.1203" y1="27.4358" x2="30.9282" y2="9.83122" gradientUnits="userSpaceOnUse">
<stop stop-color="#176CFF"/>
<stop offset="1" stop-color="#17D5FF"/>
</linearGradient>
<linearGradient id="paint1_linear_1905_40250" x1="7.55618" y1="16.8189" x2="16.8639" y2="25.9814" gradientUnits="userSpaceOnUse">
<stop stop-color="white" stop-opacity="0.6"/>
<stop offset="1" stop-color="white" stop-opacity="0.2"/>
</linearGradient>
<linearGradient id="paint2_linear_1905_40250" x1="9.32914" y1="3.41988" x2="15.9033" y2="7.76802" gradientUnits="userSpaceOnUse">
<stop stop-color="white" stop-opacity="0.6"/>
<stop offset="1" stop-color="white" stop-opacity="0.2"/>
</linearGradient>
<clipPath id="clip0_1905_40250">
<rect width="32" height="32" fill="white"/>
</clipPath>
</defs>
</svg>
