<svg xmlns="http://www.w3.org/2000/svg" width="78.174" height="67.529" viewBox="0 0 78.174 67.529">
    <g>
        <path d="M56.711 64.626a16.3 16.3 0 1 0 16.3 16.3 16.318 16.318 0 0 0-16.3-16.3zm0 30.309A14.009 14.009 0 1 1 70.72 80.926a14.025 14.025 0 0 1-14.009 14.009z" data-name="Path 10028" transform="translate(0 -34.86)"/>
        <path d="M56.711 71.581a1.145 1.145 0 0 0 1.145-1.145v-.524a1.145 1.145 0 0 0-2.29 0v.524a1.145 1.145 0 0 0 1.145 1.145z" data-name="Path 10029" transform="translate(0 -34.86)"/>
        <path d="M63.69 72.327l-.371.371a1.145 1.145 0 0 0 1.62 1.619l.371-.371a1.145 1.145 0 0 0-1.62-1.619z" data-name="Path 10030" transform="translate(0 -34.86)"/>
        <path d="M66.056 80.926a1.145 1.145 0 0 0 1.145 1.145h.525a1.145 1.145 0 0 0 0-2.29h-.525a1.145 1.145 0 0 0-1.145 1.145z" data-name="Path 10031" transform="translate(0 -34.86)"/>
        <path d="M46.22 79.781h-.525a1.145 1.145 0 1 0 0 2.29h.525a1.145 1.145 0 0 0 0-2.29z" data-name="Path 10032" transform="translate(0 -34.86)"/>
        <path d="M64.938 87.534a1.145 1.145 0 0 0-1.619 1.62l.371.371a1.145 1.145 0 1 0 1.619-1.62z" data-name="Path 10033" transform="translate(0 -34.86)"/>
        <path d="M56.711 90.272a1.145 1.145 0 0 0-1.145 1.145v.525a1.145 1.145 0 1 0 2.29 0v-.525a1.145 1.145 0 0 0-1.145-1.145z" data-name="Path 10034" transform="translate(0 -34.86)"/>
        <path d="M48.483 87.534l-.371.371a1.145 1.145 0 0 0 1.62 1.619l.371-.371a1.146 1.146 0 0 0-1.62-1.62z" data-name="Path 10035" transform="translate(0 -34.86)"/>
        <path d="M48.483 74.317a1.145 1.145 0 0 0 1.62-1.619l-.371-.371a1.145 1.145 0 0 0-1.62 1.619z" data-name="Path 10036" transform="translate(0 -34.86)"/>
        <path d="M59.832 79.781h-1.976v-4.9a1.145 1.145 0 0 0-2.29 0v6.044a1.145 1.145 0 0 0 1.145 1.145h3.121a1.145 1.145 0 0 0 0-2.29z" data-name="Path 10037" transform="translate(0 -34.86)"/>
        <path d="M74.13 68.388a1.145 1.145 0 1 0-1.858 1.34 19.186 19.186 0 1 1-2.908-3.2 1.145 1.145 0 0 0 1.512-1.72 21.433 21.433 0 0 0-9.482-4.822l2.732-11.736a4.8 4.8 0 0 0-4.676-5.89h-15.1v-3.05a4.455 4.455 0 0 0-4.45-4.45H24.353a4.455 4.455 0 0 0-4.45 4.45v3.045h-6.915a1.145 1.145 0 1 0 0 2.29H59.45a2.511 2.511 0 0 1 2.45 3.081L59.131 59.6A21.433 21.433 0 0 0 45.8 62.449h-7.663v-1.328a2.847 2.847 0 0 0-2.843-2.843h-6.335a2.847 2.847 0 0 0-2.843 2.843v1.328H7.96a2.732 2.732 0 0 1-2.669-2.119l-2.934-12.6A2.511 2.511 0 0 1 4.8 44.645h3.609a1.145 1.145 0 1 0 0-2.29H4.8a4.8 4.8 0 0 0-4.677 5.89l2.934 12.6a5.04 5.04 0 0 0 .973 2.01v14.984a5.507 5.507 0 0 0 5.5 5.5h7.13a1.145 1.145 0 0 0 0-2.29H9.535a3.214 3.214 0 0 1-3.211-3.211V64.469a5.062 5.062 0 0 0 1.635.27h18.157v1.315a2.847 2.847 0 0 0 2.843 2.846h6.334a2.847 2.847 0 0 0 2.843-2.843v-1.318h4.5A21.41 21.41 0 0 0 35.25 81.05H21.238a1.145 1.145 0 1 0 0 2.29h14.147A21.462 21.462 0 1 0 74.13 68.388zM22.193 39.31a2.162 2.162 0 0 1 2.16-2.16H39.9a2.162 2.162 0 0 1 2.16 2.16v3.045H22.193zm13.654 26.744a.554.554 0 0 1-.553.553h-6.335a.554.554 0 0 1-.553-.553V61.12a.554.554 0 0 1 .553-.553h6.334a.554.554 0 0 1 .553.553z" data-name="Path 10038" transform="translate(0 -34.86)"/>
    </g>
</svg>
