<svg width="152" height="32" viewBox="0 0 152 32" fill="none" xmlns="http://www.w3.org/2000/svg">
<path d="M18.657 7.75335C18.4173 7.75335 18.2144 7.95639 18.2144 8.19634V9.74678V9.89444V13.6044C18.2144 16.8345 15.5952 19.4555 12.3673 19.4555C9.13944 19.4555 6.5387 16.8345 6.5387 13.6044V2.10532V0.942495C6.5387 0.702546 6.3358 0.499512 6.09602 0.499512H1.33721C1.09743 0.517969 0.894531 0.702546 0.894531 0.942495V13.4383C0.894531 19.7693 5.94846 25.0297 12.2935 25.0666C18.6755 25.122 23.8585 19.9538 23.8585 13.5675V8.19634C23.8585 7.95639 23.6556 7.75335 23.4159 7.75335H18.657Z" fill="#2F7BFF"/>
<path d="M9.56179 24.4386C9.56179 24.4386 16.9213 21.836 17.8805 15.542C17.8805 15.542 16.7369 19.3443 12.3839 19.455L8.62109 24.457L8.97155 24.5678L9.56179 24.4386Z" fill="url(#paint0_linear)"/>
<path d="M23.3979 5.85173H18.6575C18.4177 5.85173 18.2148 5.6487 18.2148 5.40875V0.942006C18.2148 0.702057 18.4177 0.499023 18.6575 0.499023H23.3979C23.6377 0.499023 23.8406 0.702057 23.8406 0.942006V5.42721C23.8406 5.66715 23.6377 5.85173 23.3979 5.85173Z" fill="#1FC9AA"/>
<path d="M31.8807 7.75314V10.8909C32.1943 9.82039 32.8214 8.97134 33.7437 8.34378C34.6659 7.73468 35.7357 7.4209 36.9162 7.4209V13.6042C35.6435 13.4012 34.463 13.6411 33.4116 14.3056C32.3787 14.9701 31.8623 16.0775 31.8623 17.6095V24.5865H26.2734V7.75314H31.8807Z" fill="#2F7BFF"/>
<path d="M47.597 25.0845C45.1438 25.0845 43.1149 24.5677 41.4548 23.5341C39.8132 22.5005 38.6512 21.0608 37.9688 19.2335L43.1149 16.2433C43.9818 18.329 45.5312 19.3811 47.763 19.3811C49.6075 19.3811 50.5298 18.8458 50.5298 17.7938C50.5298 17.1293 49.9949 16.5571 48.9435 16.1141C48.5931 15.9849 47.597 15.6711 45.9923 15.2097C43.7051 14.5637 41.9713 13.6593 40.7724 12.478C39.5919 11.3151 38.9832 9.7647 38.9832 7.82665C38.9832 5.64865 39.7579 3.89517 41.3073 2.54777C42.8936 1.20036 44.8487 0.535889 47.1544 0.535889C49.128 0.535889 50.8802 0.997329 52.4112 1.93867C53.9421 2.86155 55.1041 4.20895 55.9157 5.92551L50.8618 8.89719C50.124 7.14372 48.9066 6.27621 47.1912 6.27621C46.4903 6.27621 45.9554 6.42387 45.5681 6.70073C45.1807 6.9776 44.9963 7.36521 44.9963 7.82665C44.9963 8.34346 45.273 8.78644 45.8263 9.13714C46.3797 9.48783 47.4495 9.91236 49.0357 10.3738C50.2162 10.7245 51.1385 11.0383 51.8025 11.3151C52.5403 11.6289 53.2965 12.0534 54.0897 12.5887C55.7313 13.6593 56.5428 15.3758 56.5428 17.7384C56.5428 20.0456 55.7313 21.8544 54.0897 23.1649C52.4481 24.4385 50.29 25.0845 47.597 25.0845Z" fill="#2F7BFF"/>
<path d="M68.9559 7.2915C71.2062 7.2915 73.0692 8.14055 74.5816 9.85711C76.1126 11.5552 76.8688 13.6778 76.8688 16.1881C76.8688 18.6983 76.1126 20.8209 74.5816 22.556C73.0507 24.2356 71.1878 25.0846 68.9559 25.0846C66.9085 25.0846 65.3223 24.4202 64.1787 23.0728V31.3233H58.5898V7.75294H64.1787V9.30338C65.3223 7.95598 66.9085 7.2915 68.9559 7.2915ZM65.1563 18.8275C65.8018 19.492 66.6503 19.8427 67.7201 19.8427C68.7715 19.8427 69.6199 19.5104 70.284 18.8275C70.9295 18.1261 71.2615 17.2402 71.2615 16.1696C71.2615 15.0991 70.9295 14.2131 70.284 13.5117C69.6384 12.8472 68.7899 12.4966 67.7201 12.4966C66.6687 12.4966 65.8203 12.8288 65.1563 13.5117C64.5107 14.2131 64.1787 15.0991 64.1787 16.1696C64.1787 17.2402 64.5107 18.1446 65.1563 18.8275Z" fill="#2F7BFF"/>
<path d="M91.0897 9.30319V7.75275H96.6785V24.5861H91.0897V23.0357C89.9461 24.3831 88.3598 25.0475 86.3124 25.0475C84.0437 25.0475 82.1623 24.1985 80.6683 22.5188C79.1742 20.8207 78.418 18.6981 78.418 16.151C78.418 13.5854 79.1742 11.4812 80.6683 9.82C82.1623 8.1219 84.0621 7.25439 86.3124 7.25439C88.3598 7.29131 89.9461 7.95578 91.0897 9.30319ZM85.0028 18.8273C85.63 19.4918 86.4784 19.8425 87.5667 19.8425C88.6549 19.8425 89.5034 19.5102 90.1305 18.8273C90.7761 18.1259 91.1081 17.24 91.1081 16.1694C91.1081 15.0989 90.7761 14.2129 90.1305 13.5115C89.5034 12.8471 88.6549 12.4964 87.5667 12.4964C86.4784 12.4964 85.63 12.8286 85.0028 13.5115C84.3573 14.2129 84.0253 15.0989 84.0253 16.1694C84.0253 17.24 84.3573 18.1444 85.0028 18.8273Z" fill="#2F7BFF"/>
<path d="M107.872 17.5168L110.491 7.75274H116.689L110.934 24.3092C110.03 26.8379 108.776 28.6652 107.134 29.7911C105.493 30.917 103.372 31.4154 100.771 31.3047V26.0442C101.951 26.0442 102.855 25.8966 103.464 25.6013C104.073 25.3059 104.571 24.7891 104.939 24.0139L98.207 7.71582H104.46L107.872 17.5168Z" fill="#2F7BFF"/>
<path d="M125.601 25.0661C123.037 25.0661 120.916 24.217 119.201 22.5005C117.504 20.8024 116.637 18.6798 116.637 16.1695C116.637 13.6593 117.485 11.5551 119.201 9.83856C120.898 8.14046 123.037 7.27295 125.601 7.27295C127.261 7.27295 128.774 7.66056 130.12 8.43578C131.485 9.211 132.518 10.2631 133.274 11.6105L128.497 14.3791C127.888 13.2717 126.911 12.7364 125.564 12.7364C124.623 12.7364 123.83 13.0502 123.203 13.6962C122.576 14.3422 122.262 15.1544 122.262 16.1695C122.262 17.1847 122.576 17.9968 123.203 18.6428C123.83 19.2889 124.623 19.6026 125.564 19.6026C126.929 19.6026 127.907 19.0489 128.497 17.923L133.274 20.6916C132.536 22.039 131.485 23.1096 130.12 23.8848C128.774 24.66 127.261 25.0661 125.601 25.0661Z" fill="#2F7BFF"/>
<path d="M151.237 18.2182H139.635C140.189 19.5841 141.443 20.267 143.398 20.267C144.579 20.267 145.612 19.8794 146.46 19.0857L150.5 21.9097C148.858 23.9954 146.46 25.0475 143.269 25.0475C140.429 25.0475 138.141 24.2169 136.408 22.5558C134.711 20.8761 133.844 18.7535 133.844 16.1879C133.844 13.6592 134.692 11.5366 136.371 9.82C138.049 8.1219 140.189 7.25439 142.79 7.25439C145.298 7.25439 147.382 8.10344 149.006 9.78309C150.647 11.4443 151.459 13.5484 151.459 16.114C151.477 16.9262 151.403 17.6276 151.237 18.2182ZM139.562 14.3606H146.017C145.593 12.7917 144.542 11.998 142.863 11.998C141.13 11.998 140.041 12.7917 139.562 14.3606Z" fill="#2F7BFF"/>
<defs>
<linearGradient id="paint0_linear" x1="18.1182" y1="18.9485" x2="11.0624" y2="20.6281" gradientUnits="userSpaceOnUse">
<stop stop-color="#082C6B"/>
<stop offset="1" stop-color="#2F7BFF" stop-opacity="0"/>
</linearGradient>
</defs>
</svg>
