<svg width="120" height="28" viewBox="0 0 120 28" fill="none" xmlns="http://www.w3.org/2000/svg">
<path d="M14.1336 7.13191C13.9428 7.13191 13.7814 7.29902 13.7814 7.49651V8.7726V8.89413V11.9476C13.7814 14.6062 11.6973 16.7634 9.12886 16.7634C6.56045 16.7634 4.49105 14.6062 4.49105 11.9476V2.48329V1.52622C4.49105 1.32873 4.32961 1.16162 4.13881 1.16162H0.352239C0.161443 1.17681 0 1.32873 0 1.52622V11.8109C0 17.0216 4.0214 21.3512 9.07016 21.3816C14.1483 21.4272 18.2724 17.1735 18.2724 11.9173V7.49651C18.2724 7.29902 18.111 7.13191 17.9202 7.13191H14.1336Z" fill="white"/>
<path d="M6.89792 20.8638C6.89792 20.8638 12.7539 18.7218 13.5171 13.5415C13.5171 13.5415 12.6071 16.671 9.14345 16.7621L6.14941 20.879L6.42827 20.9702L6.89792 20.8638Z" fill="url(#paint0_linear_9526_274523)"/>
<path d="M17.9054 5.5662H14.1335C13.9427 5.5662 13.7812 5.39909 13.7812 5.2016V1.52524C13.7813 1.32775 13.9427 1.16064 14.1335 1.16064H17.9054C18.0962 1.16064 18.2576 1.32775 18.2576 1.52524V5.21679C18.2576 5.41429 18.0962 5.5662 17.9054 5.5662Z" fill="#1FC9AA"/>
<path d="M24.658 7.13087V9.71344C24.9075 8.83233 25.4065 8.13351 26.1403 7.617C26.8742 7.11568 27.7254 6.85742 28.6647 6.85742V11.9466C27.652 11.7795 26.7127 11.977 25.8761 12.5239C25.0543 13.0708 24.6433 13.9823 24.6433 15.2432V20.9856H20.1963V7.13087H24.658Z" fill="white"/>
<path d="M37.1622 21.3957C35.2102 21.3957 33.5958 20.9704 32.2749 20.1196C30.9686 19.2689 30.044 18.084 29.501 16.58L33.5958 14.119C34.2856 15.8356 35.5184 16.7015 37.2943 16.7015C38.7619 16.7015 39.4958 16.261 39.4958 15.395C39.4958 14.8481 39.0701 14.3772 38.2336 14.0126C37.9547 13.9063 37.1622 13.648 35.8853 13.2682C34.0654 12.7365 32.6858 11.9921 31.7318 11.0199C30.7925 10.0628 30.3082 8.78671 30.3082 7.19159C30.3082 5.39899 30.9246 3.95579 32.1574 2.8468C33.4196 1.73781 34.9754 1.19092 36.8099 1.19092C38.3803 1.19092 39.7746 1.57071 40.9928 2.34548C42.2109 3.10506 43.1356 4.21404 43.7813 5.62686L39.7599 8.0727C39.1729 6.6295 38.2042 5.9155 36.8393 5.9155C36.2816 5.9155 35.856 6.03703 35.5477 6.2649C35.2395 6.49278 35.0928 6.8118 35.0928 7.19159C35.0928 7.61696 35.3129 7.98155 35.7532 8.27019C36.1935 8.55883 37.0448 8.90824 38.307 9.28803C39.2463 9.57667 39.9801 9.83493 40.5085 10.0628C41.0955 10.3211 41.6973 10.6705 42.3284 11.111C43.6346 11.9921 44.2803 13.4049 44.2803 15.3495C44.2803 17.2484 43.6346 18.7372 42.3284 19.8158C41.0221 20.864 39.305 21.3957 37.1622 21.3957Z" fill="white"/>
<path d="M54.1584 6.75098C55.949 6.75098 57.4313 7.44979 58.6348 8.86261C59.853 10.2602 60.4547 12.0073 60.4547 14.0733C60.4547 16.1394 59.853 17.8864 58.6348 19.3144C57.4166 20.6968 55.9343 21.3957 54.1584 21.3957C52.5293 21.3957 51.2671 20.8488 50.3572 19.7398V26.5304H45.9102V7.13077H50.3572V8.40686C51.2671 7.29787 52.5293 6.75098 54.1584 6.75098ZM51.135 16.2457C51.6487 16.7926 52.3238 17.0812 53.1751 17.0812C54.0117 17.0812 54.6868 16.8078 55.2151 16.2457C55.7288 15.6684 55.993 14.9392 55.993 14.0581C55.993 13.177 55.7288 12.4478 55.2151 11.8705C54.7015 11.3236 54.0263 11.035 53.1751 11.035C52.3385 11.035 51.6634 11.3084 51.135 11.8705C50.6214 12.4478 50.3572 13.177 50.3572 14.0581C50.3572 14.9392 50.6214 15.6836 51.135 16.2457Z" fill="white"/>
<path d="M71.7694 8.40648V7.13039H76.2164V20.9851H71.7694V19.709C70.8594 20.818 69.5972 21.3649 67.9681 21.3649C66.1629 21.3649 64.6659 20.6661 63.4771 19.2836C62.2883 17.886 61.6865 16.139 61.6865 14.0426C61.6865 11.9309 62.2883 10.1991 63.4771 8.83184C64.6659 7.43422 66.1776 6.72021 67.9681 6.72021C69.5972 6.7506 70.8594 7.29749 71.7694 8.40648ZM66.9261 16.2453C67.4251 16.7922 68.1002 17.0809 68.9661 17.0809C69.8321 17.0809 70.5072 16.8074 71.0062 16.2453C71.5199 15.6681 71.7841 14.9389 71.7841 14.0577C71.7841 13.1766 71.5199 12.4474 71.0062 11.8702C70.5072 11.3233 69.8321 11.0346 68.9661 11.0346C68.1002 11.0346 67.4251 11.3081 66.9261 11.8702C66.4124 12.4474 66.1482 13.1766 66.1482 14.0577C66.1482 14.9389 66.4124 15.6832 66.9261 16.2453Z" fill="white"/>
<path d="M85.1251 15.1673L87.2092 7.13097H92.1406L87.5614 20.7578C86.8423 22.8391 85.8443 24.343 84.5381 25.2697C83.2318 26.1964 81.544 26.6066 79.4746 26.5154V22.1858C80.4139 22.1858 81.1331 22.0643 81.6174 21.8212C82.1017 21.5782 82.498 21.1528 82.7915 20.5148L77.4346 7.10059H82.41L85.1251 15.1673Z" fill="white"/>
<path d="M99.2295 21.38C97.1895 21.38 95.5017 20.6812 94.1367 19.2684C92.7865 17.8708 92.0967 16.1237 92.0967 14.0577C92.0967 11.9916 92.7718 10.2598 94.1367 8.84698C95.487 7.44936 97.1895 6.73535 99.2295 6.73535C100.55 6.73535 101.754 7.05437 102.825 7.69242C103.911 8.33047 104.733 9.19639 105.335 10.3054L101.534 12.5841C101.049 11.6726 100.272 11.2321 99.2002 11.2321C98.4517 11.2321 97.8206 11.4903 97.3216 12.022C96.8226 12.5537 96.5731 13.2222 96.5731 14.0577C96.5731 14.8932 96.8226 15.5617 97.3216 16.0934C97.8206 16.6251 98.4517 16.8833 99.2002 16.8833C100.286 16.8833 101.064 16.4276 101.534 15.5009L105.335 17.7796C104.748 18.8886 103.911 19.7697 102.825 20.4078C101.754 21.0458 100.55 21.38 99.2295 21.38Z" fill="white"/>
<path d="M119.631 15.744H110.399C110.84 16.8682 111.838 17.4303 113.394 17.4303C114.333 17.4303 115.155 17.1112 115.83 16.458L119.044 18.7823C117.738 20.499 115.83 21.3649 113.291 21.3649C111.031 21.3649 109.211 20.6813 107.831 19.314C106.481 17.9316 105.791 16.1846 105.791 14.0729C105.791 11.9917 106.466 10.2447 107.802 8.83184C109.137 7.43422 110.84 6.72021 112.909 6.72021C114.905 6.72021 116.564 7.41903 117.855 8.80146C119.161 10.1687 119.807 11.9005 119.807 14.0122C119.822 14.6806 119.763 15.2579 119.631 15.744ZM110.341 12.569H115.478C115.14 11.2777 114.303 10.6244 112.968 10.6244C111.588 10.6244 110.722 11.2777 110.341 12.569Z" fill="white"/>
<defs>
<linearGradient id="paint0_linear_9526_274523" x1="13.7063" y1="16.3453" x2="8.07218" y2="17.6418" gradientUnits="userSpaceOnUse">
<stop stop-color="#082C6B"/>
<stop offset="1" stop-color="#2F7BFF" stop-opacity="0"/>
</linearGradient>
</defs>
</svg>
