<svg id="Component_3_1" data-name="Component 3 – 1" xmlns="http://www.w3.org/2000/svg" width="71" height="71" viewBox="0 0 71 71">
  <circle id="Ellipse_9" data-name="Ellipse 9" cx="35.5" cy="35.5" r="35.5" fill="#f2f9ff"/>
  <g id="Group_15053" data-name="Group 15053" transform="translate(20 20)">
    <path id="Path_5" data-name="Path 5" d="M.5,6,7,8.5C9,6.5,13.167,6,15,6c5.6-.4,8.333,1.5,9,2.5L30.5,6,15.5.5Z" fill="#2f7bff"/>
    <path id="Path_6" data-name="Path 6" d="M30.673,5.531l-15-5.5a.493.493,0,0,0-.344,0l-15,5.5a.5.5,0,0,0,0,.938L6.5,8.733v3.546A1.993,1.993,0,0,0,5.5,14V24a2,2,0,0,0,2,2H13v2H12a1.5,1.5,0,0,0-1.5,1.5v1a.5.5,0,0,0,.5.5h9a.5.5,0,0,0,.5-.5v-1A1.5,1.5,0,0,0,19,28H18V26h5.5a2,2,0,0,0,2-2V14a1.993,1.993,0,0,0-1-1.722V8.732l3-1.1v2.959A1.5,1.5,0,0,0,26.5,12v2a.5.5,0,0,0,.5.5h.066l-.482.722.832.555L28,14.9l.584.876.832-.555-.481-.721H29a.5.5,0,0,0,.5-.5V12a1.5,1.5,0,0,0-1-1.408V7.265l2.172-.8a.5.5,0,0,0,0-.938ZM27.5,12a.5.5,0,0,1,1,0v1.5h-1Zm-20,1h16a1,1,0,0,1,1,1v8H6.5V14A1,1,0,0,1,7.5,13Zm12,16.5V30h-8v-.5A.5.5,0,0,1,12,29h7A.5.5,0,0,1,19.5,29.5ZM17,28H14V26h3Zm6.5-3H7.5a1,1,0,0,1-1-1V23h18v1A1,1,0,0,1,23.5,25ZM7.5,12V8.5c0-.7,2.75-2,8-2s8,1.3,8,2V12Zm16.76-4.244C23.275,6.272,19.369,5.5,15.5,5.5S7.725,6.272,6.74,7.756L1.951,6,15.5,1.032,29.051,6Z" fill="#1fc9aa"/>
    <path id="Path_7" data-name="Path 7" d="M17,14l-3,3,.707.707,3-3Z" fill="#1fc9aa"/>
    <path id="Path_8" data-name="Path 8" d="M17,14l-3,3,.707.707,3-3Z" fill="#1fc9aa"/>
    <path id="Path_9" data-name="Path 9" d="M17,14l-3,3,.707.707,3-3Z" fill="#1fc9aa"/>
  </g>
</svg>
