<svg id="Component_4_1" data-name="Component 4 – 1" xmlns="http://www.w3.org/2000/svg" width="71" height="71" viewBox="0 0 71 71">
  <circle id="Ellipse_8" data-name="Ellipse 8" cx="35.5" cy="35.5" r="35.5" fill="#f2f9ff"/>
  <g id="Group_15052" data-name="Group 15052" transform="translate(19.504 19.504)">
    <path id="Path_3" data-name="Path 3" d="M6.4,14.934v2.133h4.8V14.934c1.707-.636,2.489-2.754,2.667-3.733.427-3.413-3.022-5.333-4.8-5.867A5.437,5.437,0,0,0,3.734,9.067,4.4,4.4,0,0,0,6.4,14.934Z" fill="#2f7bff"/>
    <path id="Path_4" data-name="Path 4" d="M8.706,0a.544.544,0,0,0-.531.56V2.63a.543.543,0,1,0,1.085.024V.56A.521.521,0,0,0,8.706,0ZM.555,3.434A.543.543,0,0,0,0,3.97a.487.487,0,0,0,.169.39L1.616,5.82a.535.535,0,0,0,.772,0,.548.548,0,0,0,0-.779L.94,3.58A.545.545,0,0,0,.555,3.434Zm16.326,0a.618.618,0,0,0-.386.17L15.048,5.066a.548.548,0,0,0,0,.779.535.535,0,0,0,.772,0l1.447-1.461a.548.548,0,0,0,0-.779A.375.375,0,0,0,16.881,3.434ZM8.73,4.822A5.711,5.711,0,0,0,5.836,15.416v1.34a.567.567,0,0,0,.458.633h4.775a.559.559,0,0,0,.555-.536V15.416A5.711,5.711,0,0,0,8.73,4.822Zm0,1.12a4.577,4.577,0,0,1,4.558,4.6A4.664,4.664,0,0,1,10.8,14.612a.555.555,0,0,0-.289.487v1.193H9.26V13.2l1.3-1a.55.55,0,0,0,.1-.779.514.514,0,0,0-.434-.219.573.573,0,0,0-.338.122L8.73,12.25l-1.182-.925a.559.559,0,0,0-.772.073.575.575,0,0,0,.1.779L6.9,12.2l1.3,1v3.093H6.921V15.1a.586.586,0,0,0-.289-.487,4.65,4.65,0,0,1-2.46-4.091A4.556,4.556,0,0,1,8.73,5.942Zm13.143,1.51a6.19,6.19,0,0,0-6.149,6.21,6.284,6.284,0,0,0,3.038,5.358,10.383,10.383,0,0,0-7.379,9.961v2.241a.682.682,0,0,0,.169.56l.024.024a.58.58,0,0,0,.555.17h19.1a.667.667,0,0,0,.555-.17l.024-.024a.593.593,0,0,0,.169-.56V28.981a10.4,10.4,0,0,0-7.114-9.887,6.238,6.238,0,0,0,3.159-5.431A6.159,6.159,0,0,0,21.872,7.452Zm0,1.291a4.92,4.92,0,0,1,0,9.839H21.7a4.921,4.921,0,0,1,.169-9.839ZM6.39,19.264a.548.548,0,0,0-.024,1.1h4.7a.548.548,0,0,0,.024-1.1H6.39Zm15.289.609h.193a9.008,9.008,0,0,1,8.8,9.108v1.7H12.636v-1.7A9.055,9.055,0,0,1,21.679,19.872Z" fill="#1fc9aa"/>
  </g>
</svg>
