<svg id="Component_1_1" data-name="Component 1 – 1" xmlns="http://www.w3.org/2000/svg" width="71" height="71" viewBox="0 0 71 71">
  <circle id="Ellipse_4" data-name="Ellipse 4" cx="35.5" cy="35.5" r="35.5" fill="#f2f9ff"/>
  <g id="Group_15045" data-name="Group 15045" transform="translate(19 23)">
    <path id="Path_1" data-name="Path 1" d="M21.3,0c-3.089,0-5.382,1.861-6.8,4.5C13.085,1.861,10.793,0,7.7,0A7.819,7.819,0,0,0,0,8.139c0,5.914,5.753,9.627,13.94,16.654a.862.862,0,0,0,1.119,0C23.239,17.773,29,14.055,29,8.14A7.819,7.819,0,0,0,21.3,0ZM14.5,23.061C6.96,16.637,1.7,13.068,1.7,8.14c0-3.691,2.581-6.473,6-6.473,3.3,0,5.344,3,5.978,5.222a.855.855,0,0,0,1.638,0c.625-2.2,2.646-5.222,5.978-5.222,3.423,0,6,2.783,6,6.473C27.3,13.071,22.031,16.644,14.5,23.061Z" fill="#1fc9aa"/>
    <path id="Path_2" data-name="Path 2" d="M23.691,24.885C19.178,20.953,16,18.871,16,15.558A4.35,4.35,0,0,1,20.25,11,4.232,4.232,0,0,1,24,13.52,4.232,4.232,0,0,1,27.75,11,4.35,4.35,0,0,1,32,15.558c0,3.312-3.174,5.391-7.691,9.326A.47.47,0,0,1,23.691,24.885Z" fill="#2f7bff"/>
  </g>
</svg>
