<svg width="261" height="195" viewBox="0 0 261 195" fill="none" xmlns="http://www.w3.org/2000/svg">
<path d="M10.8968 84.5728H10.1758V82.5199H10.8968V84.5728ZM10.8968 81.0779H10.1758V78.917H10.8968V81.0779ZM10.8968 77.4749H10.1758V75.314H10.8968V77.4749ZM10.8968 73.8719H10.1758V71.711H10.8968V73.8719ZM10.8968 70.2668H10.1758V68.1059H10.8968V70.2668ZM10.8968 66.6638H10.1758V64.5007H10.8968V66.6638ZM10.8968 63.0608H10.1758V60.8977H10.8968V63.0608ZM10.8968 59.4578H10.1758V57.2947H10.8968V59.4578ZM10.8968 55.8549H10.1758V53.6918H10.8968V55.8549ZM10.8968 52.2519H10.1758V50.0888H10.8968V52.2519ZM10.8968 48.6467H10.1758V46.4836H10.8968V48.6467ZM10.8968 45.0438H10.1758V42.8806H10.8968V45.0438ZM10.8968 41.4408H10.1758V39.2777H10.8968V41.4408ZM10.8968 37.8378H10.1758V35.6747H10.8968V37.8378ZM10.8968 34.2348H10.1758V32.0717H10.8968V34.2348ZM10.8968 30.6319H10.1758V28.4688H10.8968V30.6319ZM10.8968 27.0267H10.1758V24.8636H10.8968V27.0267ZM10.8968 23.4237H10.1758V21.2606H10.8968V23.4237ZM10.8968 19.8208H10.1758V17.6576H10.8968V19.8208ZM10.8968 16.2178H10.1758V14.4758C10.1758 14.3325 10.178 14.1892 10.1824 14.0459L10.9034 14.0679C10.899 14.2046 10.8968 14.3391 10.8968 14.4758V16.2178ZM109.822 12.6986H109.101V10.5355H109.822V12.6986ZM11.0159 12.6655L10.3015 12.5729C10.3985 11.8409 10.5506 11.111 10.7579 10.4054L11.4503 10.6083C11.2518 11.2786 11.1063 11.9709 11.0159 12.6655ZM11.9111 9.28305L11.243 9.00963C11.5208 8.33049 11.8538 7.66238 12.233 7.02954L12.8504 7.39998C12.491 8.00415 12.1735 8.63699 11.9111 9.28305ZM109.822 9.09563H109.101V6.93252H109.822V9.09563ZM13.6354 6.23795L13.0577 5.80577C13.4987 5.21703 13.9904 4.65696 14.5152 4.14099L15.0202 4.65476C14.5196 5.14647 14.0544 5.67788 13.6354 6.23795ZM109.822 5.49266H109.101V3.32955H109.822V5.49266ZM16.072 3.72425L15.6221 3.16197C16.1976 2.70113 16.8128 2.28218 17.4523 1.91615L17.8117 2.54016C17.2031 2.88855 16.6188 3.28766 16.072 3.72425ZM19.0641 1.90292L18.7709 1.24583C19.4434 0.945945 20.1468 0.69678 20.859 0.50274L21.0486 1.19732C20.3695 1.38033 19.7036 1.61847 19.0641 1.90292ZM109.822 1.88969H109.101V0.721035H108.828V0H109.82V1.88969H109.822ZM22.4179 0.901845L22.3011 0.18963C23.0265 0.07056 23.7674 0.006615 24.5061 0L24.5127 0.721035C23.8115 0.72765 23.1059 0.78939 22.4179 0.901845ZM107.388 0.721035H105.227V0H107.388V0.721035ZM103.785 0.721035H101.624V0H103.785V0.721035ZM100.182 0.721035H98.0208V0H100.182V0.721035ZM96.5787 0.721035H94.4178V0H96.5787V0.721035ZM92.9736 0.721035H90.8105V0H92.9736V0.721035ZM89.3706 0.721035H87.2075V0H89.3706V0.721035ZM85.7676 0.721035H83.6045V0H85.7676V0.721035ZM82.1646 0.721035H80.0015V0H82.1646V0.721035ZM78.5617 0.721035H76.4008V0H78.5617V0.721035ZM74.9587 0.721035H72.7978V0H74.9587V0.721035ZM71.3535 0.721035H69.1926V0H71.3535V0.721035ZM67.7506 0.721035H65.5897V0H67.7506V0.721035ZM64.1476 0.721035H61.9845V0H64.1476V0.721035ZM60.5446 0.721035H58.3815V0H60.5446V0.721035ZM56.9416 0.721035H54.7785V0H56.9416V0.721035ZM53.3387 0.721035H51.1756V0H53.3387V0.721035ZM49.7335 0.721035H47.5704V0H49.7335V0.721035ZM46.1305 0.721035H43.9674V0H46.1305V0.721035ZM42.5276 0.721035H40.3644V0H42.5276V0.721035ZM38.9246 0.721035H36.7615V0H38.9246V0.721035ZM35.3216 0.721035H33.1585V0H35.3216V0.721035ZM31.7186 0.721035H29.5555V0H31.7186V0.721035ZM28.1135 0.721035H25.9504V0H28.1135V0.721035Z" fill="#F6F6F6"/>
<path d="M241.051 118.267H238.529V117.546H240.33V117.48H241.051V118.267ZM237.089 118.267H234.928V117.546H237.089V118.267ZM233.484 118.267H231.323V117.546H233.484V118.267ZM229.881 118.267H227.72V117.546H229.881V118.267ZM226.278 118.267H224.117V117.546H226.278V118.267ZM222.675 118.267H220.514V117.546H222.675V118.267ZM219.072 118.267H216.911V117.546H219.072V118.267ZM215.469 118.267H213.308V117.546H215.469V118.267ZM211.864 118.267H209.703V117.546H211.864V118.267ZM208.261 118.267H206.1V117.546H208.261V118.267ZM204.658 118.267H202.497V117.546H204.658V118.267ZM201.055 118.267H198.894V117.546H201.055V118.267ZM197.452 118.267H195.291V117.546H197.452V118.267ZM193.849 118.267H191.686V117.546H193.849V118.267ZM190.244 118.267H188.081V117.546H190.244V118.267ZM186.641 118.267H184.48V117.546H186.641V118.267ZM183.038 118.267H180.877V117.546H183.038V118.267ZM179.435 118.267H177.274V117.546H179.435V118.267ZM175.832 118.267H173.671V117.546H175.832V118.267ZM172.227 118.267H170.066V117.546H172.227V118.267ZM168.624 118.267H166.463V117.546H168.624V118.267ZM165.021 118.267H162.86V117.546H165.021V118.267ZM161.418 118.267H159.255V117.546H161.418V118.267ZM157.815 118.267H155.652V117.546H157.815V118.267ZM154.212 118.267H152.049V117.546H154.212V118.267ZM150.607 118.267H148.443V117.546H150.607V118.267ZM147.004 118.267H144.843V117.546H147.004V118.267ZM143.401 118.267H141.24V117.546H143.401V118.267ZM139.798 118.267H137.637V117.546H139.798V118.267ZM136.195 118.267H134.034V117.546H136.195V118.267ZM132.592 118.267H130.431V117.546H132.592V118.267ZM128.987 118.267H126.826V117.546H128.987V118.267ZM125.384 118.267H123.223V117.546H125.384V118.267ZM121.781 118.267H119.62V117.546H121.781V118.267ZM118.178 118.267H116.017V117.546H118.178V118.267ZM114.575 118.267H112.412V117.546H114.575V118.267ZM110.972 118.267H108.809V117.546H110.972V118.267ZM107.367 118.267H105.206V117.546H107.367V118.267ZM103.764 118.267H101.603V117.546H103.764V118.267ZM101.596 116.832H100.875V114.671H101.596V116.832ZM241.051 116.038H240.33V113.877H241.051V116.038ZM101.596 113.229H100.875V111.066H101.596V113.229ZM241.051 112.435H240.33V110.272H241.051V112.435ZM101.596 109.624H100.875V107.461H101.596V109.624ZM241.051 108.832H240.33V106.669H241.051V108.832ZM101.596 106.021H100.875V103.86H101.596V106.021ZM241.051 105.229H240.33V103.068H241.051V105.229ZM101.596 102.418H100.875V100.257H101.596V102.418ZM241.051 101.626H240.33V99.4653H241.051V101.626ZM101.596 98.8148H100.875V96.6539H101.596V98.8148ZM241.051 98.0232H240.33V95.8623H241.051V98.0232ZM101.596 95.2119H100.875V93.051H101.596V95.2119ZM241.051 94.4181H240.33V92.255H241.051V94.4181ZM101.596 91.6089H100.875V89.4458H101.596V91.6089ZM241.051 90.8151H240.33V88.652H241.051V90.8151ZM101.596 88.0037H100.875V85.8406H101.596V88.0037ZM241.051 87.2121H240.33V85.049H241.051V87.2121ZM101.596 84.4007H100.875V82.2376H101.596V84.4007ZM241.051 83.6091H240.33V81.4482H241.051V83.6091ZM101.596 80.7978H100.875V78.6369H101.596V80.7978ZM241.051 80.0062H240.33V77.8453H241.051V80.0062ZM101.596 77.1948H100.875V75.0339H101.596V77.1948ZM241.051 76.4032H240.33V74.2423H241.051V76.4032ZM101.596 73.5918H100.875V71.4309H101.596V73.5918ZM241.051 72.798H240.33V70.6371H241.051V72.798ZM101.596 69.9889H100.875V67.828H101.596V69.9889ZM241.051 69.1951H240.33V67.032H241.051V69.1951ZM101.596 66.3837H100.875V64.2206H101.596V66.3837ZM241.051 65.5921H240.33V63.429H241.051V65.5921ZM101.596 62.7807H100.875V60.6176H101.596V62.7807ZM241.051 61.9891H240.33V59.826H241.051V61.9891ZM101.596 59.1777H100.875V57.0146H101.596V59.1777ZM241.051 58.3861H240.33V56.2252H241.051V58.3861ZM101.596 55.5748H100.875V53.4117H101.596V55.5748ZM241.051 54.7832H240.33V52.6201H241.051V54.7832ZM101.596 51.9718H100.875V49.8087H101.596V51.9718ZM241.051 51.178H240.33V49.0149H241.051V51.178ZM101.596 48.3688H100.875V46.2057H101.596V48.3688ZM241.051 47.575H240.33V45.4119H241.051V47.575ZM101.596 44.7636H100.875V42.6005H101.596V44.7636ZM241.051 43.9721H240.33V41.8089H241.051V43.9721ZM101.596 41.1607H100.875V38.9976H101.596V41.1607ZM241.051 40.3691H240.33V38.206H241.051V40.3691ZM101.596 37.5577H100.875V35.3946H101.596V37.5577ZM241.051 36.7661H240.33V34.603H241.051V36.7661ZM101.596 33.9547H100.875V31.7916H101.596V33.9547ZM241.051 33.1631H240.33V31H241.051V33.1631ZM101.596 30.3518H100.875V28.1887H101.596V30.3518ZM241.051 29.558H240.33V27.3949H241.051V29.558ZM101.596 26.7466H100.875V24.5835H101.596V26.7466ZM240.306 25.977C240.264 25.2759 240.167 24.5747 240.019 23.8933L240.723 23.7412C240.879 24.46 240.979 25.1987 241.025 25.9351L240.306 25.977ZM101.596 23.1436H100.875V20.9805H101.596V23.1436ZM239.653 22.5394C239.437 21.8757 239.166 21.2231 238.849 20.5968L239.49 20.2705C239.825 20.9298 240.11 21.6178 240.339 22.3167L239.653 22.5394ZM101.596 19.5406H100.875V17.3775H101.596V19.5406ZM238.15 19.3775C237.772 18.7909 237.345 18.2265 236.879 17.7017L237.417 17.2232C237.907 17.7766 238.357 18.3698 238.754 18.9872L238.15 19.3775ZM235.896 16.6984C235.38 16.2221 234.824 15.7833 234.244 15.3952L234.648 14.7977C235.257 15.2078 235.843 15.6687 236.386 16.1692L235.896 16.6984ZM101.596 15.9377H100.875V13.7746H101.596V15.9377ZM233.041 14.6698C232.421 14.339 231.773 14.0546 231.113 13.8253L231.352 13.1439C232.046 13.3865 232.73 13.6864 233.38 14.0348L233.041 14.6698ZM229.766 13.4306C229.087 13.2696 228.386 13.1594 227.687 13.1042L227.744 12.3854C228.481 12.445 229.217 12.5596 229.932 12.7294L229.766 13.4306ZM226.278 13.0601H224.117V12.3391H226.278V13.0601ZM222.675 13.0601H220.512V12.3391H222.675V13.0601ZM219.07 13.0601H216.907V12.3391H219.07V13.0601ZM215.467 13.0601H213.304V12.3391H215.467V13.0601ZM211.864 13.0601H209.703V12.3391H211.864V13.0601ZM208.261 13.0601H206.1V12.3391H208.261V13.0601ZM204.658 13.0601H202.497V12.3391H204.658V13.0601ZM201.055 13.0601H198.894V12.3391H201.055V13.0601ZM197.45 13.0601H195.289V12.3391H197.45V13.0601ZM193.847 13.0601H191.686V12.3391H193.847V13.0601ZM190.244 13.0601H188.083V12.3391H190.244V13.0601ZM186.641 13.0601H184.478V12.3391H186.641V13.0601ZM183.038 13.0601H180.875V12.3391H183.038V13.0601ZM179.435 13.0601H177.274V12.3391H179.435V13.0601ZM175.83 13.0601H173.669V12.3391H175.83V13.0601ZM172.227 13.0601H170.066V12.3391H172.227V13.0601ZM168.624 13.0601H166.463V12.3391H168.624V13.0601ZM165.021 13.0601H162.86V12.3391H165.021V13.0601ZM161.418 13.0601H159.257V12.3391H161.418V13.0601ZM157.813 13.0601H155.652V12.3391H157.813V13.0601ZM154.21 13.0601H152.049V12.3391H154.21V13.0601ZM150.607 13.0601H148.446V12.3391H150.607V13.0601ZM147.004 13.0601H144.843V12.3391H147.004V13.0601ZM143.401 13.0601H141.24V12.3391H143.401V13.0601ZM139.798 13.0601H137.637V12.3391H139.798V13.0601ZM136.192 13.0601H134.029V12.3391H136.192V13.0601ZM132.59 13.0601H130.426V12.3391H132.59V13.0601ZM128.987 13.0601H126.823V12.3391H128.987V13.0601ZM125.384 13.0601H123.223V12.3391H125.384V13.0601ZM121.781 13.0601H119.62V12.3391H121.781V13.0601ZM118.178 13.0601H116.017V12.3391H118.178V13.0601ZM114.572 13.0601H112.412V12.3391H114.572V13.0601ZM110.969 13.0601H108.809V12.3391H110.969V13.0601ZM107.367 13.0601H105.206V12.3391H107.367V13.0601ZM103.764 13.0601H101.603V12.3391H103.764V13.0601Z" fill="#F6F6F6"/>
<path d="M135.129 35.9522C135.129 29.6194 140.264 24.484 146.597 24.484C147.364 24.484 148.112 24.5634 148.835 24.7067C148.835 24.6317 148.829 24.559 148.829 24.484C148.829 15.3597 156.226 7.96191 165.351 7.96191C171.353 7.96191 176.605 11.1636 179.5 15.9506C181.564 12.921 185.039 10.9298 188.982 10.9298C195.314 10.9298 200.45 16.0653 200.45 22.3981C200.45 23.4984 200.287 24.5568 199.998 25.5644C205.003 26.797 208.719 31.3018 208.719 36.6865C208.719 43.0192 203.583 48.1547 197.25 48.1547H145.17C139.512 47.4513 135.129 41.7999 135.129 35.9522Z" fill="#F6F6F6"/>
<path d="M90.2425 81.7108C90.0265 78.121 88.9945 74.6724 87.2812 71.5986L90.2139 69.9625C88.7432 67.3253 86.8336 64.9307 84.5492 62.8999L82.3156 65.4136C79.7357 63.1204 76.6245 61.3454 73.081 60.3355L73.9961 57.1206L73.9542 57.1096C71.4978 56.415 69.0172 56.082 66.5785 56.082C66.0471 56.082 65.5179 56.0975 64.9931 56.1283L65.1915 59.4821C61.6018 59.6938 58.151 60.7236 55.075 62.4346L53.4433 59.4998C50.8039 60.9683 48.4093 62.8756 46.3763 65.16L48.8878 67.3959C46.5924 69.9757 44.8151 73.0848 43.803 76.626L40.5881 75.7087L40.5705 75.7727C39.8759 78.2291 39.543 80.7097 39.543 83.1484C39.543 83.671 39.5584 84.1936 39.5893 84.7118L42.9431 84.5155C43.1526 88.1075 44.1779 91.5583 45.8868 94.6343L42.9519 96.2638C44.4182 98.9032 46.3233 101.3 48.6055 103.335L50.8436 100.826C53.4212 103.124 56.5303 104.903 60.0693 105.917L59.1476 109.132L59.2314 109.156C61.6878 109.851 64.1684 110.184 66.6071 110.184C67.1518 110.184 67.6964 110.169 68.2366 110.135L68.0338 106.784C71.6235 106.566 75.0721 105.531 78.1437 103.814L79.782 106.746C82.4192 105.273 84.8116 103.362 86.8402 101.075L84.3243 98.8436C86.6153 96.2616 88.3881 93.1481 89.3958 89.6047L92.6085 90.5153L92.6151 90.4933C93.3097 88.0369 93.6427 85.5563 93.6427 83.1176C93.6427 82.5795 93.6272 82.0437 93.5942 81.5101L90.2425 81.7108ZM60.7176 103.891L60.883 103.307L60.7176 103.891ZM80.3818 87.0336C78.6001 93.3465 72.8451 97.4655 66.6005 97.4677C65.3106 97.4677 63.9986 97.2913 62.6911 96.9209C56.3782 95.1392 52.2592 89.3842 52.257 83.1396C52.257 81.8497 52.4334 80.5377 52.8038 79.2301C54.5855 72.9172 60.3405 68.7983 66.5851 68.7961C67.875 68.7961 69.187 68.9725 70.4968 69.3407C76.8097 71.1223 80.9286 76.8774 80.9308 83.122C80.9264 84.4119 80.7522 85.7239 80.3818 87.0336Z" fill="#F6F6F6"/>
<path d="M99.274 110.735C99.274 110.735 99.8958 110.669 100.207 113.165C100.365 114.442 98.1384 112.581 97.8672 112.493C98.3192 111.908 98.7933 111.322 99.274 110.735Z" fill="black"/>
<path d="M242.298 60.2209C242.298 60.2209 258.562 78.9127 260.129 126.034L218.627 146.119L207.465 141.689L206.923 140.812L210.065 138.876C208.169 102.297 186.688 92.8042 186.688 92.8042L189.636 86.9963L242.298 60.2209Z" fill="#2F7BFF"/>
<path d="M194.909 140.117C193.273 134.878 190.023 128.303 187.78 123.582C184.407 116.468 176.991 107.45 173.099 104.242C172.416 103.677 171.838 103.289 171.415 103.124C170.833 102.903 170.431 102.881 170.16 102.982L186.682 92.8042C186.682 92.8042 208.166 102.297 210.06 138.875L206.918 140.811L194.81 148.273C196.455 147.155 196.126 144.002 194.909 140.117Z" fill="#282B3B"/>
<path d="M194.915 140.117C196.132 144.002 196.46 147.155 194.818 148.273C194.758 148.315 194.69 148.359 194.613 148.397C192.981 149.272 190.372 145.252 189.66 144.088C192.535 141.674 194.774 140.212 194.915 140.117Z" fill="black"/>
<path d="M194.908 140.113C194.767 140.207 192.529 141.669 189.656 144.084C186.701 146.558 183.072 150.046 180.333 154.083L179.923 154.242C177.476 147.929 169.804 142.765 161.425 137.577C153.194 132.481 142.496 127.145 139.248 125.555C138.619 125.238 138.269 125.072 138.269 125.072C137.435 124.944 136.683 124.821 136.033 124.702C135.841 124.671 135.656 124.64 135.473 124.609C133.773 124.296 132.849 124.069 132.849 124.069L132.829 124.093C132.747 124.204 132.663 124.307 132.58 124.409C124.498 134.704 118.051 134.585 114.717 133.416C113.304 132.929 112.71 131.253 113.48 129.967L121.927 115.966C122.267 115.401 122.666 114.879 123.109 114.404C123.85 113.608 124.736 112.949 125.715 112.46L142.026 104.255C144.551 102.987 147.435 102.636 150.189 103.265L164.032 106.409C166.052 106.861 168.151 106.645 170.032 105.794C170.164 105.737 170.294 105.673 170.424 105.607L173.097 104.235C176.988 107.445 184.404 116.462 187.777 123.575C190.02 128.298 193.27 134.873 194.908 140.113Z" fill="white" stroke="#231F20" stroke-width="0.5" stroke-miterlimit="10"/>
<path d="M170.018 169.295C170.604 172.834 170.311 177.106 162.935 179.174L162.417 179.214C162.556 180.858 162.247 182.581 161.138 184.031C159.123 186.688 154.817 186.254 153.319 186.007C154.124 187.987 153.857 190.314 151.723 192.867C148.751 196.408 139.007 191.123 131.677 186.322C126.917 183.205 123.173 180.283 122.959 180.118C122.932 171.41 116.291 168.462 114.533 170.868C114.582 170.442 111.433 162.645 107.799 163.155C106.379 163.357 105.511 163.84 105.01 164.727C104.975 164.398 103.502 160.156 99.4909 159.995C97.3211 159.907 96.2319 160.841 95.7534 162.473C95.7534 162.473 94.4326 157.816 91.2464 157.973C89.5948 158.054 88.4989 158.793 87.8551 160.233L83.4451 158.085L79.7539 156.288C79.9568 149.325 82.2456 132.346 97.8636 112.495C98.1348 112.581 98.9595 112.841 100.203 113.167C104.668 114.323 114.494 116.278 122.926 113.789L123.115 114.413C122.672 114.887 122.271 115.41 121.933 115.974L113.486 129.976C112.716 131.261 113.307 132.937 114.723 133.424C118.094 134.602 124.65 134.71 132.855 124.075C132.855 124.075 134.828 124.56 138.275 125.079C138.275 125.079 151.61 131.502 161.434 137.583C169.813 142.774 177.486 147.936 179.932 154.249C180.359 155.342 180.63 156.471 180.719 157.635C181.321 165.543 177.55 168.727 170.236 169.258L170.018 169.295Z" fill="white"/>
<path d="M169.5 167L169.204 166.409C166.829 162.14 156.998 154.502 157 154.5M170.018 169.295C170.604 172.834 170.311 177.106 162.935 179.174L162.417 179.214C162.556 180.858 162.247 182.581 161.138 184.031C159.123 186.688 154.817 186.254 153.319 186.007C154.124 187.987 153.857 190.314 151.723 192.867C148.751 196.408 139.007 191.123 131.677 186.322C126.917 183.205 123.173 180.283 122.959 180.118C122.932 171.41 116.291 168.462 114.533 170.868C114.582 170.442 111.433 162.645 107.799 163.155C106.379 163.357 105.511 163.84 105.01 164.727C104.975 164.398 103.502 160.156 99.4909 159.995C97.3211 159.907 96.2319 160.841 95.7534 162.473C95.7534 162.473 94.4326 157.816 91.2464 157.973C89.5948 158.054 88.4989 158.793 87.8551 160.233L83.4451 158.085L79.7539 156.288C79.9568 149.325 82.2456 132.346 97.8636 112.495C98.1348 112.581 98.9595 112.841 100.203 113.167C104.668 114.323 114.494 116.278 122.926 113.789L123.115 114.413C122.672 114.887 122.271 115.41 121.933 115.974L113.486 129.976C112.716 131.261 113.307 132.937 114.723 133.424C118.094 134.602 124.65 134.71 132.855 124.075C132.855 124.075 134.828 124.56 138.275 125.079C138.275 125.079 151.61 131.502 161.434 137.583C169.813 142.774 177.486 147.936 179.932 154.249C180.359 155.342 180.63 156.471 180.719 157.635C181.321 165.543 177.55 168.727 170.236 169.258L170.018 169.295Z" stroke="#231F20" stroke-width="0.5" stroke-miterlimit="10"/>
<path d="M170.128 103L170.17 102.98C170.441 102.879 170.842 102.901 171.424 103.121C171.848 103.287 172.426 103.675 173.109 104.239L170.437 105.611C170.307 105.675 170.174 105.741 170.044 105.798L170.011 105.752C170.007 105.752 169.133 103.467 170.128 103Z" fill="black"/>
<path d="M131.679 186.318L131.659 186.343C131.659 186.343 122.788 193.359 117.637 190.305C116.857 189.838 116.231 189.207 115.73 188.457C115.474 188.087 115.249 187.69 115.06 187.267C113.018 182.852 113.858 175.763 114.127 172.081C114.162 171.585 114.306 171.177 114.535 170.864C116.295 168.458 122.936 171.413 122.96 180.113C123.172 180.279 126.918 183.2 131.679 186.318Z" fill="white" stroke="#231F20" stroke-width="0.5" stroke-miterlimit="10"/>
<path d="M114.524 170.863C114.297 171.177 114.152 171.584 114.117 172.081C113.848 175.761 113.007 182.852 115.049 187.266H115.043C114.985 187.273 114.928 187.271 114.868 187.271C110.836 187.511 108.518 186.018 107.131 183.745C106.904 183.377 106.71 182.993 106.529 182.592C105.184 179.56 105.041 175.604 104.73 172.411C104.355 168.553 104.207 166.134 104.999 164.723C105.499 163.843 106.368 163.353 107.788 163.15C111.426 162.641 114.573 170.438 114.524 170.863Z" fill="white" stroke="#231F20" stroke-width="0.5" stroke-miterlimit="10"/>
<path d="M97.8599 112.493C82.2441 132.344 79.9553 149.321 79.7524 156.286C79.6863 158.46 79.8296 159.662 79.8296 159.662C79.8296 159.662 69.5036 157.208 62.99 153.561H62.9834C62.2888 153.171 61.645 152.776 61.0584 152.359C54.9197 148.062 56.9263 137.341 62.0551 123.141C66.1674 111.781 75.3468 105.139 78.8462 102.947L99.2711 110.733C98.7882 111.322 98.3141 111.908 97.8599 112.493Z" fill="#282B3B"/>
<path d="M106.542 182.592C106.484 182.598 106.427 182.596 106.37 182.603C100.127 182.998 97.6601 179.963 96.6039 176.358C96.5267 176.114 96.4627 175.851 96.3988 175.598C95.7924 173.031 95.7946 170.261 95.6094 168.31C95.3889 165.964 95.325 163.933 95.7571 162.467C95.8475 162.154 95.9688 161.865 96.1144 161.602C96.7031 160.518 97.7483 159.922 99.4946 159.988C103.506 160.156 104.978 164.392 105.014 164.72C104.222 166.132 104.37 168.55 104.745 172.409C105.053 175.604 105.197 179.56 106.542 182.592Z" fill="white" stroke="#231F20" stroke-width="0.5" stroke-miterlimit="10"/>
<path d="M96.3933 175.595C96.3272 175.589 96.2699 175.587 96.2037 175.58C88.1753 174.839 87.3572 171.382 87.1566 166.07C87.0574 163.492 87.2646 161.558 87.8556 160.227C88.5016 158.796 89.5953 158.048 91.2469 157.966C93.9083 157.836 95.2644 161.053 95.6458 162.123C95.7186 162.339 95.7539 162.467 95.7539 162.467C95.3217 163.933 95.3857 165.964 95.6062 168.31C95.7892 170.262 95.787 173.029 96.3933 175.595Z" fill="white" stroke="#231F20" stroke-width="0.5" stroke-miterlimit="10"/>
<path d="M106.695 182.524L107.129 183.745C106.902 183.377 106.708 182.994 106.527 182.592C106.47 182.599 106.413 182.597 106.355 182.603C105.407 180.103 105.105 178.127 104.9 176.207C104.761 174.895 104.666 173.607 104.549 172.432C104.183 168.571 104.011 166.141 104.845 164.639L104.999 164.725L105.16 164.818C104.408 166.136 104.534 168.544 104.909 172.403C105.028 173.587 105.12 174.866 105.259 176.171C105.493 178.383 105.864 180.641 106.695 182.524Z" fill="#151515"/>
<path d="M114.296 172.099C114.108 174.641 113.659 178.784 114.058 182.539C114.225 184.116 114.545 185.618 115.716 188.458C115.46 188.087 115.235 187.69 115.045 187.267H115.039C114.982 187.273 114.924 187.271 114.865 187.271C114.086 185.21 113.842 183.909 113.698 182.577C113.292 178.764 113.749 174.606 113.936 172.072C113.967 171.547 114.124 171.111 114.377 170.765L114.518 170.866L114.668 170.974C114.459 171.254 114.324 171.631 114.296 172.099Z" fill="#151515"/>
<path d="M96.1189 172.813C96.196 173.538 96.2776 174.063 96.4298 174.872C96.518 175.333 96.5709 175.803 96.5863 176.273L96.5885 176.359C96.5113 176.114 96.4474 175.851 96.3835 175.598C96.3173 175.591 96.26 175.589 96.1938 175.582C95.9888 174.676 95.8543 173.757 95.7594 172.853C95.583 171.183 95.5345 169.578 95.4155 168.33C95.2016 165.975 95.1288 163.933 95.5698 162.421L95.6316 162.125C95.7043 162.341 95.7396 162.469 95.7396 162.469C95.83 162.156 95.9513 161.867 96.0968 161.605C95.5103 164.341 95.5764 166.189 95.7727 168.299C95.8962 169.567 95.9425 171.157 96.1189 172.813Z" fill="#151515"/>
<path d="M78.8465 102.947C75.3472 105.139 66.1678 111.781 62.0554 123.141C56.9266 137.339 54.9201 148.062 61.0588 152.359C61.6475 152.776 62.2892 153.171 62.9838 153.561L56.9443 155.986C51.37 158.216 45.1607 158.31 39.5137 156.251L1.28561 142.285C-5.13314 91.0337 14.5707 65.8459 14.5707 65.8459L76.4607 95.3665C78.0108 96.1735 79.7153 102.398 78.8465 102.947Z" fill="#2F7BFF"/>
<path d="M83.4461 158.081L79.8387 159.66H79.8321C79.8321 159.66 79.691 158.458 79.7549 156.284L83.4461 158.081Z" fill="black"/>
<path d="M150.085 148.668C150.085 148.668 150.376 148.904 150.888 149.327C152.676 150.804 157.161 154.553 161.287 158.354C163.351 160.255 165.324 162.169 166.824 163.818C167.573 164.643 168.204 165.399 168.667 166.052C169.13 166.702 169.452 167.218 169.534 167.598C169.65 168.136 169.739 168.74 169.833 169.326C169.849 169.426 169.941 169.492 170.041 169.476C170.14 169.461 170.206 169.368 170.191 169.269C170.094 168.674 169.975 168.098 169.858 167.558C169.739 167.018 169.344 166.347 168.749 165.549C166.663 162.767 162.063 158.487 157.973 154.89C153.885 151.294 150.315 148.39 150.315 148.39C150.238 148.328 150.125 148.339 150.061 148.416C149.997 148.491 150.008 148.606 150.085 148.668Z" fill="#282B3B"/>
<path d="M160.661 173.899C160.432 173.586 159.984 173.17 159.338 172.621C154.833 168.799 141.158 159.441 141.154 159.437C141.072 159.382 140.96 159.402 140.902 159.483C140.847 159.565 140.867 159.677 140.948 159.735C140.948 159.735 141.229 159.926 141.718 160.264C143.438 161.45 147.762 164.442 151.83 167.377C153.863 168.846 155.832 170.299 157.378 171.503C158.15 172.105 158.818 172.645 159.334 173.092C159.848 173.538 160.214 173.897 160.368 174.111C161.195 175.245 162 177.057 162.202 178.969C162.211 179.055 162.22 179.141 162.227 179.227C162.233 179.326 162.322 179.401 162.421 179.392C162.52 179.383 162.595 179.297 162.586 179.198C162.58 179.108 162.571 179.019 162.562 178.929C162.35 176.942 161.526 175.088 160.661 173.899Z" fill="#282B3B"/>
<path d="M149.862 181.794C147.22 179.99 133.452 171.485 133.45 171.485C133.366 171.432 133.254 171.459 133.203 171.545C133.15 171.629 133.177 171.741 133.263 171.792C133.265 171.794 134.123 172.323 135.457 173.15C139.452 175.626 147.699 180.753 149.661 182.094C151.238 183.17 152.539 184.526 153.152 186.08C153.189 186.173 153.293 186.219 153.385 186.182C153.478 186.144 153.524 186.04 153.487 185.948C152.832 184.296 151.476 182.896 149.862 181.794Z" fill="#282B3B"/>
<path d="M158.366 127.222C158.37 127.323 158.284 127.405 158.189 127.4C152.705 127.345 142.803 126.027 139.246 125.557C138.618 125.239 138.267 125.074 138.267 125.074C137.434 124.946 136.682 124.823 136.031 124.704C136.607 124.803 137.242 124.902 137.925 125.001C141.583 125.539 151.984 126.979 158.187 127.045C158.289 127.041 158.37 127.127 158.366 127.222Z" fill="#282B3B"/>
<path d="M80.0634 33.7632H75.3712C75.1838 31.4545 73.2588 29.6178 70.9039 29.6178H63.8721C64.0155 29.0996 64.0992 28.5572 64.0992 27.9949C64.0992 24.6256 61.343 21.8694 57.9738 21.8694H47.1891C43.8198 21.8694 41.0636 24.6256 41.0636 27.9949C41.0636 28.5572 41.1474 29.0996 41.2907 29.6178H40.3315C37.9766 29.6178 36.0516 31.4545 35.8664 33.7632H34.4552C31.2558 33.7632 28.6406 36.3805 28.6406 39.5777C28.6406 42.7772 31.258 45.3923 34.4552 45.3923H80.0634C83.2629 45.3923 85.878 42.775 85.878 39.5777C85.8802 36.3805 83.2629 33.7632 80.0634 33.7632Z" fill="#F6F6F6"/>
<path d="M139.098 61.156H137.784V85.4308L128.722 96.8748H112.089V62.4702H139.098V61.156H137.784H139.098V59.8418H110.775C110.429 59.8418 110.092 59.9829 109.847 60.2277C109.602 60.4724 109.461 60.8098 109.461 61.156V98.1868C109.461 98.5329 109.602 98.8703 109.847 99.1151C110.092 99.3598 110.429 99.5009 110.775 99.5009H129.357C129.76 99.5009 130.137 99.3201 130.386 99.0026L140.128 86.7031C140.313 86.4694 140.413 86.1849 140.413 85.8873V61.156C140.413 60.8098 140.271 60.4724 140.027 60.2277C139.782 59.9829 139.442 59.8418 139.098 59.8418V61.156Z" fill="#F6F6F6"/>
<path d="M129.357 98.1867H130.671V87.2014H136.382L128.327 97.3708L129.357 98.1867H130.671H129.357L130.387 99.0025L140.129 86.703C140.442 86.3083 140.501 85.7681 140.281 85.3161C140.062 84.8641 139.602 84.573 139.099 84.573H129.357C129.011 84.573 128.674 84.7141 128.429 84.9589C128.184 85.2036 128.043 85.541 128.043 85.8872V98.1867C128.043 98.7467 128.396 99.2429 128.925 99.4281C129.454 99.6133 130.041 99.4413 130.387 99.0025L129.357 98.1867Z" fill="#F6F6F6"/>
<path d="M115.949 69.0871H134.224V66.4587H115.949" fill="#F6F6F6"/>
<path d="M115.949 74.0969H134.224V71.4685H115.949" fill="#F6F6F6"/>
<path d="M115.949 79.1066H130.427V76.4783H115.949" fill="#F6F6F6"/>
<path d="M191.016 69.0873H189.572C189.572 72.7454 188.093 76.0463 185.696 78.4453C183.297 80.8422 179.996 82.3217 176.338 82.3217C172.68 82.3217 169.379 80.8422 166.98 78.4453C164.583 76.0463 163.103 72.7454 163.103 69.0873C163.103 65.427 164.583 62.1283 166.98 59.7293C169.379 57.3325 172.678 55.8529 176.338 55.8529C179.998 55.8529 183.297 57.3325 185.696 59.7293C188.093 62.1283 189.572 65.4292 189.572 69.0873H191.016H192.461C192.461 60.1835 185.244 52.9666 176.338 52.9644C167.434 52.9644 160.217 60.1813 160.215 69.0873C160.215 77.9911 167.432 85.2081 176.338 85.2103C185.244 85.2103 192.461 77.9933 192.461 69.0873H191.016Z" fill="#F6F6F6"/>
<path d="M175.549 58.8913V69.0034L171.07 73.7398C170.523 74.3197 170.548 75.2326 171.128 75.7816C171.707 76.3284 172.62 76.3042 173.169 75.7243L178.04 70.5712C178.294 70.3022 178.435 69.9472 178.435 69.5789V58.8913C178.435 58.0931 177.789 57.447 176.991 57.447C176.195 57.447 175.549 58.0931 175.549 58.8913Z" fill="#F6F6F6"/>
</svg>
