<svg width="948" height="521" viewBox="0 0 948 521" fill="none" xmlns="http://www.w3.org/2000/svg">
<g opacity="0.2">
<path d="M429.448 195.869L435.051 193.714L441.517 184.231V177.766L447.982 173.887L456.603 167.852L465.654 171.731L479.016 163.542L488.068 162.249L498.413 163.542L507.464 159.663L511.344 167.852L507.464 171.731L517.378 177.766H522.982L529.447 184.231L538.068 187.249L542.378 184.231V177.766H551.861L563.068 184.231H574.274H584.619L590.223 195.869L592.809 202.335L597.55 211.386L600.998 220.007V226.904L607.033 232.076L610.481 242.421L617.378 247.162L623.412 254.49L625.998 261.386L630.74 264.403L638.498 266.127L653.153 261.386V272.162L646.688 282.938L640.653 292.42L632.464 300.179L623.412 310.524L615.654 319.144L610.481 328.627L613.067 340.265L617.378 345.868V355.351V363.972L613.067 371.299L604.878 373.454L600.998 379.058L595.395 385.523L597.55 396.299L595.395 401.04L589.361 405.351L586.343 409.23V413.54L585.05 418.713L574.705 431.213L565.223 437.678L557.033 441.557L552.723 437.678L547.119 441.557H539.792L536.775 437.678V431.213L533.326 423.454L526.43 415.265V409.23L523.844 396.299L519.964 385.523L514.361 376.903V369.144L517.378 361.817L519.964 353.196V345.868V340.265L517.378 333.799L514.361 324.317L511.344 320.869L507.464 314.834V307.938V297.593V292.42L501.43 287.679H493.24L489.792 282.938L484.189 279.921L476.861 282.938L467.81 285.524H456.603L445.396 287.679L438.068 285.524L427.293 276.903L424.275 272.162L420.396 266.127L416.948 261.386L414.793 258.369V252.765L411.775 248.455L414.793 243.283V234.231V229.921V224.748V218.714L420.396 211.386L424.275 202.335L429.448 195.869Z" stroke="#1FC9AA"/>
<path d="M644.962 358.367L636.772 367.419L628.582 372.16V383.367L624.703 391.557V400.178L628.582 404.919H636.772L641.513 400.178V391.557L647.117 377.764L649.703 367.419V358.367L647.117 354.057L644.962 358.367Z" stroke="#1FC9AA"/>
<path d="M907.896 432.506L897.12 437.247H882.896L876.862 440.696L870.396 444.144L867.379 440.696V437.247L870.396 427.765V414.834V401.472L874.706 393.713L890.224 384.661H897.12L907.896 373.886L910.913 370.006L916.517 363.972L925.568 360.955L931.603 363.972L934.62 359.662L940.223 355.782L950.568 352.765C959.878 351.386 959.045 355.351 957.465 357.506L952.723 363.972L957.465 367.42L968.671 373.886L976.43 363.972V357.506L981.171 350.61L983.326 357.506L988.93 363.972V375.61L992.809 380.782L999.275 393.713L1005.74 401.472V409.23L1002.29 423.454L995.826 432.506L988.93 437.247L983.326 448.023L976.43 453.626H969.964L966.947 456.644L962.637 459.23L957.465 456.644H950.568L945.396 453.626V448.023L943.241 444.144L938.93 437.247L934.62 440.696L929.447 432.506L923.844 430.351H919.103L907.896 432.506Z" stroke="#1FC9AA"/>
<path d="M281.602 518.281L269.964 511.816H261.775L250.568 507.075L244.964 498.023L237.637 487.678L240.654 483.799V478.195L237.637 472.592L231.602 464.833V457.075L229.447 436.385L226.43 417.851V400.61V384.662L217.809 374.748L207.034 367.851L200.137 358.369L193.241 347.162L187.206 332.938L182.465 330.783V320.869L187.206 316.989L182.465 311.386L187.206 302.334L193.241 292.852L196.258 288.541V282.507L193.241 272.162V269.145L196.258 272.162L200.137 269.145L204.447 263.973H209.189L213.499 258.369H217.809L219.965 266.128L217.809 272.162L213.499 266.128L222.982 260.524H229.447L233.327 263.973L240.223 266.128L248.413 263.973L253.585 266.128L263.499 278.197L267.809 282.507H274.706L284.619 285.524L288.93 292.852L291.947 299.317V304.49L297.119 307.507L301.861 311.386H307.895L310.912 313.541L316.947 316.989H325.999L333.326 320.869L341.516 325.61L346.257 327.765V332.938V340.265L339.36 351.472L333.326 358.369V367.851V381.213L325.999 393.713L319.964 395.868L310.912 400.61L304.447 406.644V412.679L301.861 424.316L294.533 436.385L288.93 441.558H283.757H279.016L281.602 446.299V453.196L275.999 457.075H269.964V464.833H261.775V469.575L265.223 472.592L261.775 480.351V483.799V487.678L265.223 492.851V498.023L261.775 503.195L265.223 507.075L261.775 518.281H267.809L272.982 520.437L281.602 518.281Z" stroke="#1FC9AA"/>
<path d="M1002.72 338.541L1012.2 347.592L1009.19 350.61L1002.72 347.592L995.393 341.127L991.082 338.541H986.341L983.324 343.282L974.703 341.127L969.962 338.541H965.651L969.962 332.075L965.651 328.196L953.582 323.455L947.117 321.299V316.989L942.807 309.662H953.582V313.11L958.324 321.299L962.634 316.989L969.962 313.11L977.72 316.989L991.082 321.299L1000.13 328.196L1002.72 338.541Z" stroke="#1FC9AA"/>
<path d="M880.733 289.834L872.113 296.3L863.492 300.61L865.216 310.524L869.527 317.42L880.733 321.731H889.354V317.42L895.82 308.369L898.406 304.92V298.886L895.82 293.714L898.406 286.386L895.82 282.076H889.354L880.733 289.834Z" stroke="#1FC9AA"/>
<path d="M874.269 332.075L883.751 337.679L879.01 340.265L869.527 337.679H862.2H853.579L851.424 332.075H858.751H866.079H874.269Z" stroke="#1FC9AA"/>
<path d="M851.86 318.714V325.179C851.86 330.351 845.826 329.633 842.809 328.627L836.774 322.162L831.171 310.093L822.55 297.593L815.223 290.697V284.662L829.447 290.697L833.757 297.593L842.809 304.059V308.369L851.86 318.714Z" stroke="#1FC9AA"/>
<path d="M898.41 245.438L900.565 236.818C901.427 233.369 904.085 235.381 905.307 236.818V245.438L910.048 249.317L915.22 257.507L922.548 266.128L925.565 274.317V283.8H919.531L915.22 279.059L910.048 268.283L905.307 257.507L898.41 245.438Z" stroke="#1FC9AA"/>
<path d="M835.047 294.144L831.167 282.506L823.84 271.299V257.938L829.012 263.11V268.713L831.167 273.455L835.047 278.196L842.374 282.506L845.391 289.834V300.179H842.374L835.047 294.144Z" stroke="#1FC9AA"/>
<path d="M797.979 226.042L794.099 218.715L780.737 220.87L777.72 229.491L770.824 234.232L757.893 246.301L755.738 253.197V266.559C754.703 274.835 748.985 273.456 746.255 271.732L738.496 256.215L729.014 234.232V223.456H723.41H717.376V216.56H710.91L703.583 206.215L698.841 210.094L686.772 206.215H675.997L669.531 201.042L654.445 199.318L647.549 191.129L642.807 187.249L639.79 191.129L644.962 197.163L647.549 206.215H654.445L659.186 212.249L666.945 206.215L671.255 210.094L680.307 216.56V223.456L673.41 234.232L664.359 238.542L654.445 244.146L644.962 249.318L637.635 256.215H628.583L624.273 249.318V241.559L619.531 234.232L611.342 226.042V218.715L598.411 203.629L594.532 193.284L589.79 197.163L584.618 182.939H592.376L594.532 172.594V163.112L587.204 165.698L577.721 163.112H567.377L561.773 151.905V148.026H556.601L551.428 151.905L554.015 157.939L551.428 163.112L545.394 160.094L547.549 155.784L540.222 151.905L537.204 140.698L529.446 135.957L518.239 128.198C513.411 123.715 514.791 128.629 516.084 131.646L521.687 138.112C526.141 141.416 534.36 148.026 531.601 148.026C528.842 148.026 529.015 154.635 529.446 157.939L521.687 148.026L509.618 138.112L503.584 133.801L492.808 138.112H486.774L482.894 145.008L473.843 151.905V160.094L463.067 163.112H453.153L445.395 157.939L448.412 138.112H466.084L469.963 133.801V124.75L463.067 116.991L473.843 114.836L482.894 109.664L494.963 100.181H499.705L503.584 96.3017V88.1121L508.325 84.2328V89.8362L513.929 88.1121V82.0776L509.618 79.0604L503.584 82.0776L497.118 79.0604V67.8536L516.084 53.6295L529.446 43.7158L540.222 37.6814H558.756L569.963 43.7158L587.204 45.871C592.721 50.3537 589.503 52.9111 587.204 53.6295H580.308L569.963 50.1813L580.308 58.8019H587.204L592.376 53.6295L598.411 50.1813L600.997 45.871L608.325 50.1813L619.531 45.871H634.187L649.273 43.7158H658.755L653.583 37.6814L655.738 33.371H664.79L670.824 37.6814L679.876 33.371L686.772 29.0607H696.255V24.3194L710.479 20.8711H719.531L724.272 17.4229H732.462L740.651 20.8711H752.72L755.738 24.3194L752.72 29.0607L768.668 31.2159H772.117H779.875H787.203H800.996L816.513 37.6814H825.565H832.892L835.047 31.2159L849.271 33.371L866.082 37.6814H880.737H890.651L901.857 43.7158H922.978L926.857 41.1296H937.202L953.15 43.7158L967.374 48.0261L976.426 51.4744H986.34L992.374 57.9398H979.874L973.409 53.6295L967.374 57.9398L976.426 62.2502V66.9915L967.374 73.457H958.323C949.357 75.8708 951.139 79.9225 953.15 81.6466L960.478 84.6638L962.633 95.8707V107.509H958.323L947.116 95.8707L939.788 84.6638L943.236 70.4398L939.788 66.9915L934.616 70.4398H929.012H922.978V77.7673H912.633H897.116L890.651 81.6466L886.34 91.9914L893.237 95.8707H900.133L909.616 99.7499H914.788L922.978 107.509L929.012 113.543V118.284L931.599 126.905L926.857 124.319L922.978 118.284L916.943 109.664H914.788L916.943 118.284V126.905L912.633 137.25H905.737L901.857 140.698L900.133 145.87V149.75L901.857 154.06L909.616 159.663L912.633 165.698L909.616 170.439H901.857L900.133 162.681L890.651 156.215L886.34 149.75C880.823 152.853 878.869 151.043 878.582 149.75L873.409 145.87L866.082 154.06L873.409 159.663H878.582L886.34 162.681L876.426 169.146L886.34 178.198L890.651 184.663L893.237 193.715L890.651 205.353L886.34 213.973L876.426 218.715L866.082 220.87L860.478 226.042L854.875 220.87L849.271 224.749L846.685 231.646L854.875 241.559L860.478 251.042V261.818L854.875 266.559L850.996 271.732H846.685V266.559L839.358 261.818L830.737 256.215H827.72V261.818L823.41 256.215L819.961 246.301L816.513 241.559L812.203 244.146H807.892V238.542L804.875 231.646L797.979 226.042Z" stroke="#1FC9AA"/>
<path d="M919.962 181.215L917.807 175.181L919.1 171.301L922.979 167.422H928.151L934.186 163.543L940.22 156.646L937.634 151.043L932.893 141.991V136.388V129.922L938.496 133.802L946.255 136.388L944.1 140.698H938.496V147.164H942.375L946.255 153.198V157.939L947.979 163.543V170.439H940.22L935.479 175.181L930.307 174.319H926.427L922.979 172.595L920.824 174.319L924.272 178.198L922.979 183.37L919.962 181.215Z" stroke="#1FC9AA"/>
<path d="M649.273 165.266L638.928 158.37V148.025L628.152 137.249V131.215L638.928 121.301L647.118 127.766L643.669 131.215H638.928V137.249L647.118 141.128H652.721L655.738 145.87L649.273 148.025L652.721 154.059L655.738 160.525L649.273 165.266Z" stroke="#1FC9AA"/>
<path d="M582.468 143.715L572.554 147.163L566.52 138.543L569.106 130.784L577.726 123.888L582.468 130.784H589.364V123.888H597.554V130.784L604.881 135.526L611.778 143.715L604.881 147.163L594.106 143.715H582.468Z" stroke="#1FC9AA"/>
<path d="M472.541 90.6979L479.868 101.474L482.886 104.06L479.868 107.939L469.524 110.956H461.334L463.92 104.06V101.474L469.524 95.4393L463.92 90.6979V86.8186V82.5083H469.524L472.541 90.6979Z" stroke="#1FC9AA"/>
<path d="M448.844 96.7322L455.74 93.715C461.257 91.3012 460.051 94.7207 458.757 96.7322L455.74 103.198L448.844 106.646V96.7322Z" stroke="#1FC9AA"/>
<path d="M418.672 57.9396L428.155 54.9224H438.93L443.672 57.9396L434.189 63.543H423.844L418.672 57.9396Z" stroke="#1FC9AA"/>
<path d="M339.794 54.4912L344.105 47.5947C349.967 45.1809 349.995 40.2671 349.277 38.112L344.105 28.6292L334.622 20.8707H327.294L319.967 17.8534V13.1121H334.622L344.105 8.37075L357.467 5.78455L378.587 8.37075L391.518 3.62939H416.518H434.19L444.535 8.37075L438.07 17.8534L434.19 25.181L426.001 28.6292L419.535 32.5085L426.001 38.112L419.535 41.5602L407.466 45.4395L398.846 47.5947L391.518 50.6119L378.587 54.4912L366.518 60.9566L357.467 73.4566H349.277L339.794 66.5601V54.4912Z" stroke="#1FC9AA"/>
<path d="M293.238 10.5253L285.049 17.8528L295.394 21.7321L303.583 17.8528L313.928 14.4046L332.893 10.5253L345.393 1.47363L322.98 4.05982H307.894V10.5253H303.583H293.238Z" stroke="#1FC9AA"/>
<path d="M272.982 29.4907H264.361L255.74 34.2321L264.361 39.4045H272.982H282.895L290.654 48.8872V51.9044H282.895L277.723 57.9388L282.895 64.4043L293.24 67.4215L299.705 61.3871V54.9216H303.154C312.809 57.3354 312.636 53.9159 311.343 51.9044L306.171 45.0079L299.705 37.2493L293.24 34.2321H288.068L282.895 31.6459L272.982 29.4907Z" stroke="#1FC9AA"/>
<path d="M181.169 26.4736L174.704 29.4909L166.945 32.5081L169.532 37.2494L174.704 32.5081H183.325L186.773 37.2494L181.169 44.1459H188.928H194.1H200.997L208.755 42.4218L217.807 41.1287V37.2494V32.5081H214.79H210.911L207.031 29.4909L202.721 32.5081L197.118 29.4909L188.928 26.4736H181.169Z" stroke="#1FC9AA"/>
<path d="M303.155 113.111L311.344 118.283L303.155 120.869H294.965L291.086 118.283L294.965 115.266L303.155 107.938V113.111Z" stroke="#1FC9AA"/>
<path d="M219.964 157.076L235.05 145.438L244.533 142.421L250.567 135.093L260.912 129.49H264.792V135.093H271.257L281.171 129.49L271.257 125.179L274.705 116.128H267.378L271.257 109.231H283.326H292.809L302.291 104.49L308.757 98.4555L302.291 96.3003L297.55 89.4038L294.964 74.7487L283.326 81.2142L279.016 74.7487V70.0073L264.792 65.697L257.464 70.0073L253.154 79.059V85.0935L244.533 92.852L237.205 96.3003V101.904L230.74 107.076L226.43 101.904L229.016 91.5589L219.964 89.4038L214.361 85.0935L205.74 79.059L211.344 70.0073L222.981 65.697L230.74 61.3867L240.654 58.3695L246.688 54.9212L257.464 58.3695L254.878 63.9729L244.533 61.3867L250.567 51.473H260.912L267.378 46.7316V41.9903H260.912L250.567 46.7316L246.688 41.9903L244.533 35.0938L237.205 38.111V41.9903L230.74 46.7316V41.9903H226.43V46.7316H219.964L211.344 48.8868L205.74 46.7316L195.395 48.8868V51.473L183.758 48.8868L171.689 41.9903H157.896H146.689L129.016 46.7316L116.948 41.9903L87.2064 38.111H74.7065L57.8962 41.9903L52.2928 44.5765C49.5629 44.5765 44.6204 45.9558 46.6894 51.473L39.7929 54.9212H31.1722C30.3102 56.2143 29.7067 59.3177 34.1895 61.3867L27.724 65.697H19.9654L16.0861 72.5935L10.4827 74.7487L16.0861 79.059L1 91.5589L27.724 81.2142L42.3791 74.7487H46.6894L60.4824 70.0073L72.5513 74.7487L81.603 81.2142L85.9133 86.8176C84.4765 91.99 81.603 103.714 81.603 109.231C89.3615 109.231 94.5339 117.421 90.2236 119.145C86.7753 120.524 78.4421 130.352 74.7065 135.093L64.7927 148.455L67.8099 170.869L74.7065 180.352V188.541L77.7237 200.61L81.603 209.662L85.9133 214.834V200.61L81.603 192.42V185.955H85.9133V195.869L92.8098 206.644L100.999 219.575V229.489L119.965 241.558H137.206L143.672 249.317L154.878 253.627H159.189L163.068 260.955L170.827 270.868L181.602 276.472L189.792 270.868H181.602L172.982 260.955V244.575H163.068L159.189 241.558L163.068 227.334C164.648 225.035 165.654 221.127 157.034 223.886L150.999 232.075L141.085 235.524L134.189 229.489L129.448 219.575L134.189 203.627L137.206 195.869L150.999 188.541L163.068 192.42L172.982 185.955L179.447 188.541L187.206 192.42V203.627L189.792 206.644L195.395 203.627V195.869L191.947 185.955L200.137 180.352L207.033 174.748L217.809 170.869V161.386L219.964 157.076Z" stroke="#1FC9AA"/>
<path d="M222.983 235.092H210.914L214.362 228.195H218.673L230.742 230.782L222.983 235.092Z" stroke="#1FC9AA"/>
<path d="M193.238 215.697H179.014L182.893 218.714L190.221 222.594L196.686 227.335L210.048 225.18L205.738 222.594L193.238 215.697Z" stroke="#1FC9AA"/>
<path d="M187.203 125.181H199.272L191.513 131.646L187.203 141.129L189.358 145.008L194.531 141.129L199.272 129.491H207.031V136.387L216.082 131.646V125.181H211.341L207.031 122.594L202.72 117.853H191.513L187.203 125.181Z" stroke="#1FC9AA"/>
<path d="M262.637 23.4559L283.757 27.3352L288.499 23.4559H275.999L268.24 19.5767L262.637 23.4559Z" stroke="#1FC9AA"/>
<path d="M285.908 6.64648L282.891 12.6809H276.857L270.822 10.5258L276.857 6.64648H285.908Z" stroke="#1FC9AA"/>
<path d="M523.841 91.1276L527.72 83.8L530.306 78.6277L532.461 74.7484L527.72 69.576V64.8346L536.771 61.8174L542.375 53.1968L548.409 57.9381L540.22 64.8346L542.375 72.5932H557.03L562.633 74.7484L557.03 78.6277H548.409V83.8H542.375V91.1276L536.771 95.0069H532.461L523.841 98.0241L519.53 95.0069H510.479L516.082 91.1276H523.841Z" stroke="#1FC9AA"/>
<path d="M898.41 318.283L902.289 308.369C900.22 305.265 903.152 302.191 904.876 301.041C904.876 298.972 916.082 300.179 921.686 301.041C921.686 307.938 913.64 305.639 909.617 303.627L906.6 306.645L907.893 310.955H914.358L909.617 314.834L912.203 320.869L909.617 323.886L906.6 318.283L904.876 320.869V328.627L898.41 327.334V318.283Z" stroke="#1FC9AA"/>
</g>
</svg>
