<svg id="Component_2_1" data-name="Component 2 – 1" xmlns="http://www.w3.org/2000/svg" width="71" height="71" viewBox="0 0 71 71">
  <circle id="Ellipse_7" data-name="Ellipse 7" cx="35.5" cy="35.5" r="35.5" fill="#f2f9ff"/>
  <circle id="Ellipse_6" data-name="Ellipse 6" cx="35.5" cy="35.5" r="35.5" fill="#f2f9ff"/>
  <g id="Group_15054" data-name="Group 15054" transform="translate(19 19)">
    <path id="Path_10" data-name="Path 10" d="M16.494,6.4A12.8,12.8,0,1,0,29.3,19.2,12.817,12.817,0,0,0,16.494,6.4Zm0,23.73A10.928,10.928,0,1,1,27.421,19.2,10.94,10.94,0,0,1,16.494,30.125Z" fill="#1fc9aa"/>
    <path id="Path_11" data-name="Path 11" d="M22.083,21.578a.937.937,0,0,0-1.322.1,5.621,5.621,0,0,1-8.538,0A.937.937,0,0,0,10.8,22.9a7.5,7.5,0,0,0,11.384,0A.938.938,0,0,0,22.083,21.578Z" fill="#1fc9aa"/>
    <path id="Path_12" data-name="Path 12" d="M11.285,17.723a.938.938,0,0,0,.938-.937.545.545,0,0,1,1.09,0,.937.937,0,0,0,1.875,0,2.42,2.42,0,0,0-4.84,0A.937.937,0,0,0,11.285,17.723Z" fill="#1fc9aa"/>
    <path id="Path_13" data-name="Path 13" d="M20.209,14.366a2.423,2.423,0,0,0-2.42,2.42.938.938,0,0,0,1.875,0,.545.545,0,1,1,1.09,0,.938.938,0,0,0,1.875,0A2.423,2.423,0,0,0,20.209,14.366Z" fill="#1fc9aa"/>
    <path id="Path_14" data-name="Path 14" d="M24.211,5.266h1.368a.937.937,0,1,0,0-1.875H24.211a.937.937,0,1,0,0,1.875Z" fill="#2f7bff"/>
    <path id="Path_15" data-name="Path 15" d="M27.641,8.658a.938.938,0,0,0,.938-.938V6.353a.937.937,0,0,0-1.875,0V7.72A.937.937,0,0,0,27.641,8.658Z" fill="#2f7bff"/>
    <path id="Path_16" data-name="Path 16" d="M31.063,3.391H29.7a.937.937,0,1,0,0,1.875h1.368a.937.937,0,1,0,0-1.875Z" fill="#2f7bff"/>
    <path id="Path_17" data-name="Path 17" d="M27.641,3.243a.938.938,0,0,0,.938-.937V.938a.938.938,0,0,0-1.875,0V2.305A.937.937,0,0,0,27.641,3.243Z" fill="#2f7bff"/>
    <path id="Path_18" data-name="Path 18" d="M2.029,4.641H.938a.938.938,0,0,0,0,1.875H2.029a.938.938,0,0,0,0-1.875Z" fill="#2f7bff"/>
    <path id="Path_19" data-name="Path 19" d="M4.918,8.6V7.507a.938.938,0,0,0-1.875,0V8.6a.938.938,0,0,0,1.875,0Z" fill="#2f7bff"/>
    <path id="Path_20" data-name="Path 20" d="M5.938,6.516H7.029a.938.938,0,0,0,0-1.875H5.938a.938.938,0,0,0,0,1.875Z" fill="#2f7bff"/>
    <path id="Path_21" data-name="Path 21" d="M3.98,4.588a.938.938,0,0,0,.938-.938V2.559a.938.938,0,0,0-1.875,0V3.651A.937.937,0,0,0,3.98,4.588Z" fill="#2f7bff"/>
  </g>
</svg>
