<svg width="50" height="51" viewBox="0 0 50 51" fill="none" xmlns="http://www.w3.org/2000/svg">
<path d="M44.151 16.3539L44.1116 16.1427C43.9706 15.3996 44.4241 14.6735 45.1477 14.4802L47.3748 13.8876C48.1724 13.6754 48.9818 14.1904 49.1366 15.0092L49.2362 15.5331C49.391 16.3519 48.828 17.1318 48.0088 17.2324L45.7215 17.5123C44.9782 17.603 44.291 17.097 44.151 16.3539Z" fill="#2F7BFF"/>
<path d="M41.1266 9.91213L40.9876 9.74977C40.4976 9.17702 40.5302 8.31938 41.0625 7.78647L42.6981 6.14789C43.2837 5.5612 44.239 5.59805 44.7793 6.22858L45.1244 6.632C45.6636 7.26252 45.5621 8.22276 44.9025 8.72379L43.0609 10.1213C42.4605 10.5765 41.6156 10.4849 41.1266 9.91213Z" fill="#2F7BFF"/>
<path d="M35.3175 5.86201L35.1173 5.79128C34.4095 5.54326 34.0141 4.78324 34.2103 4.0531L34.8156 1.8079C35.0325 1.00306 35.8784 0.552826 36.6573 0.826752L37.1561 1.00206C37.935 1.27599 38.3224 2.15953 37.9991 2.92552L37.096 5.06613C36.8022 5.7624 36.0253 6.11003 35.3175 5.86201Z" fill="#2F7BFF"/>
<path d="M37.5427 16.4913C26.558 15.6167 15.5733 15.6167 4.58864 16.4913C2.94814 16.6218 1.6379 17.9177 1.46143 19.5702C0.497233 28.553 0.497233 37.5368 1.46143 46.5196C1.63888 48.1721 2.94912 49.468 4.58864 49.5985C15.5733 50.473 26.558 50.473 37.5427 49.5985C39.1833 49.468 40.4935 48.1721 40.67 46.5196C41.6342 37.5368 41.6342 28.553 40.67 19.5702C40.4935 17.9177 39.1823 16.6218 37.5427 16.4913Z" fill="white"/>
<path d="M5.30439 49.6533C5.06483 49.6354 4.82723 49.6184 4.58864 49.5985C2.94912 49.468 1.6379 48.1721 1.46143 46.5196C0.497233 37.5378 0.497233 28.553 1.46143 19.5703C1.34213 20.9419 2.03915 22.7807 3.29221 24.7928C2.82293 32.2187 2.98659 39.6445 3.78416 47.0714C3.89853 48.1452 4.4733 49.0746 5.30439 49.6533Z" fill="white"/>
<path d="M40.669 19.5703C40.8701 21.8882 38.7406 25.5389 35.5375 29.1099C34.4983 30.2673 33.3468 31.4158 32.1243 32.5066C31.4283 33.1281 30.7096 33.7318 29.9741 34.3075C27.0747 36.5836 23.9405 38.4313 21.0637 39.2999C18.2372 38.4473 15.1652 36.6493 12.3081 34.43C10.3433 32.902 8.48092 31.1758 6.87098 29.4187C6.78619 29.325 6.7014 29.2334 6.61859 29.1408C3.3987 25.5608 1.25638 21.8942 1.45848 19.5703C1.63594 17.9178 2.94618 16.6228 4.5857 16.4924C15.5704 15.6178 26.5541 15.6178 37.5398 16.4924C39.1813 16.6228 40.4915 17.9178 40.669 19.5703Z" fill="white"/>
<path d="M37.5344 20.5215C31.9267 26.9363 26.0262 33.0524 19.8289 38.8725C19.0787 38.5837 18.3166 38.236 17.5505 37.8386C15.7927 36.9262 14.0142 35.7538 12.3106 34.43C10.3457 32.9019 8.48339 31.1757 6.87344 29.4186C6.78866 29.325 6.70387 29.2333 6.62106 29.1407C5.6194 28.0271 4.72126 26.9045 3.96706 25.8177C3.72749 25.4721 3.50173 25.1304 3.29173 24.7927C3.07681 24.4481 2.87865 24.1084 2.69922 23.7767C8.77225 17.0949 15.1765 10.7498 21.9121 4.7384C22.6367 4.09293 23.7113 4.04213 24.4892 4.62285C29.5359 8.38809 33.9231 12.8197 37.6497 17.9197C38.2245 18.7046 38.1752 19.7894 37.5344 20.5215Z" fill="white"/>
<path d="M32.9251 21.923C32.9744 21.9738 33.0247 22.0216 33.0769 22.0675C30.4397 24.988 27.7265 27.8588 24.9779 30.6359C22.5645 33.0743 20.0791 35.4839 17.5522 37.8376C15.7944 36.9252 14.0159 35.7528 12.3123 34.429C11.9859 34.175 11.6626 33.916 11.3431 33.651C10.4746 32.9348 9.63166 32.1828 8.82816 31.4128C8.14593 30.7584 7.49328 30.09 6.87513 29.4166C6.79034 29.323 6.70556 29.2314 6.62274 29.1387C5.62109 28.0251 4.72295 26.9025 3.96875 25.8158C6.55373 22.957 9.21069 20.146 11.9041 17.4247C14.6528 14.6476 17.4941 11.9063 20.3837 9.24176C20.43 9.29355 20.4773 9.34535 20.5266 9.39516C21.8891 10.7718 24.0965 10.7718 25.457 9.39516C25.6562 9.19395 25.8258 8.97381 25.9667 8.74072C28.7233 11.0686 31.2668 13.6385 33.5699 16.4236C33.3392 16.566 33.1223 16.7364 32.9231 16.9376C31.5626 18.3172 31.5626 20.5474 32.9251 21.923Z" fill="white"/>
<path d="M23.0945 28.7385C25.9455 25.858 26.1705 21.4152 23.5971 18.8151C21.0237 16.2151 16.6264 16.4424 13.7754 19.323C10.9245 22.2035 10.6994 26.6463 13.2728 29.2464C15.8462 31.8464 20.2435 31.619 23.0945 28.7385Z" fill="#2F7BFF"/>
<path d="M11.7976 33.3183C11.6606 33.4577 11.5068 33.5683 11.3431 33.653C10.4745 32.9368 9.63162 32.1847 8.82812 31.4147C8.9139 31.1687 9.05488 30.9396 9.2491 30.7434C9.95302 30.0322 11.0947 30.0322 11.7976 30.7434C12.5025 31.4546 12.5025 32.6071 11.7976 33.3183Z" fill="#2F7BFF"/>
<path d="M26.3569 17.853C27.3522 17.853 28.1591 17.0377 28.1591 16.0321C28.1591 15.0265 27.3522 14.2112 26.3569 14.2112C25.3616 14.2112 24.5547 15.0265 24.5547 16.0321C24.5547 17.0377 25.3616 17.853 26.3569 17.853Z" fill="#2F7BFF"/>
<path d="M49.96 15.3926L49.8605 14.8687C49.7481 14.276 49.3941 13.7511 48.8884 13.4293C48.3826 13.1076 47.7615 13.011 47.1838 13.1654L44.9567 13.7581C43.8604 14.0499 43.1693 15.1596 43.3822 16.2841L43.4226 16.4943C43.6188 17.5322 44.5268 18.2704 45.5492 18.2704C45.635 18.2704 45.7217 18.2654 45.8085 18.2544L48.0957 17.9745C48.6892 17.9018 49.2315 17.5801 49.5834 17.093C49.9344 16.6049 50.0724 15.9853 49.96 15.3926ZM48.3866 16.2114C48.2732 16.3678 48.1066 16.4664 47.9163 16.4903L45.6291 16.7702C45.2732 16.8131 44.9419 16.569 44.8749 16.2134L44.8344 16.0032C44.7674 15.6476 44.9863 15.297 45.3323 15.2044L47.5594 14.6117C47.6176 14.5958 47.6767 14.5888 47.7359 14.5888C47.8631 14.5888 47.9873 14.6247 48.0987 14.6954C48.2614 14.799 48.3698 14.9603 48.4063 15.1506L48.5059 15.6745C48.5423 15.8638 48.4999 16.055 48.3866 16.2114Z" fill="#1FC9AA"/>
<path d="M45.3455 9.32147C45.8237 8.95889 46.1342 8.40705 46.1973 7.80641C46.2614 7.20577 46.0741 6.60014 45.6827 6.14293L45.3377 5.73951C44.9472 5.28231 44.3804 5.00739 43.7829 4.98448C43.1855 4.96057 42.5999 5.19166 42.1759 5.61699L40.5404 7.25557C39.7359 8.06141 39.6856 9.37227 40.427 10.2389L40.566 10.4012C40.9909 10.8983 41.5962 11.1563 42.2065 11.1563C42.66 11.1563 43.1174 11.0138 43.5029 10.72L45.3455 9.32147ZM41.6859 9.42307L41.5469 9.26071C41.3123 8.98678 41.3281 8.57241 41.5824 8.31741L43.218 6.67883C43.3481 6.54934 43.5177 6.47862 43.6991 6.47862C43.708 6.47862 43.7169 6.47862 43.7267 6.47961C43.918 6.48758 44.0925 6.57225 44.2187 6.71867L44.5637 7.12209C44.6889 7.26852 44.7471 7.45578 44.7264 7.64803C44.7057 7.84028 44.6101 8.01061 44.4573 8.12715L42.6156 9.52467C42.3278 9.74082 41.9196 9.697 41.6859 9.42307Z" fill="#1FC9AA"/>
<path d="M34.8719 6.49756L35.0721 6.56828C35.3047 6.64996 35.5433 6.68881 35.778 6.68881C36.6239 6.68881 37.4264 6.18479 37.7744 5.36002L38.6774 3.21942C38.9121 2.6636 38.9072 2.02908 38.6656 1.47625C38.4241 0.924417 37.9617 0.494104 37.3968 0.295882L36.8989 0.120569C36.335 -0.0776533 35.708 -0.0298408 35.1786 0.252054C34.6501 0.533948 34.2568 1.02901 34.099 1.61172L33.4937 3.85692C33.1959 4.96159 33.8013 6.12203 34.8719 6.49756ZM34.9222 4.25037L35.5276 2.00518C35.5778 1.81791 35.6991 1.66551 35.8687 1.57487C35.9692 1.52108 36.0777 1.49418 36.1871 1.49418C36.263 1.49418 36.3389 1.50713 36.4129 1.53303L36.9107 1.70834C37.0921 1.77209 37.2341 1.90457 37.312 2.08188C37.3899 2.25918 37.3909 2.45442 37.3159 2.63272L36.4129 4.77332C36.2719 5.10602 35.8973 5.27436 35.5591 5.15582L35.359 5.0851C35.0188 4.96657 34.8276 4.59901 34.9222 4.25037Z" fill="#1FC9AA"/>
<path d="M37.5988 15.7463C37.3632 15.7274 37.1276 15.7094 36.892 15.6915C33.4305 11.2868 29.415 7.36716 24.9283 4.02029C23.8773 3.23636 22.4024 3.3021 21.4215 4.17667C19.2664 6.10013 17.125 8.07638 15.0576 10.0506C14.7609 10.3345 14.7471 10.8077 15.028 11.1075C15.309 11.4073 15.7773 11.4213 16.0741 11.1374C18.1296 9.17507 20.2582 7.20978 22.4015 5.29728C22.8629 4.88589 23.5559 4.85402 24.0499 5.22257C29.0138 8.92505 33.3891 13.3457 37.0546 18.362C37.4184 18.8601 37.3879 19.5603 36.9797 20.0255C31.5199 26.272 25.6963 32.3173 19.6656 38.002C19.3955 37.8905 19.1224 37.7709 18.8474 37.6424C21.11 35.5168 23.344 33.3413 25.4991 31.1638C28.2546 28.3798 30.9875 25.4891 33.6218 22.5705C33.7559 22.4221 33.8249 22.2259 33.814 22.0247C33.8032 21.8245 33.7125 21.6362 33.5626 21.5037C33.5193 21.4649 33.4838 21.431 33.4453 21.3922C32.9267 20.8682 32.6408 20.1719 32.6408 19.4309C32.6408 18.6898 32.9267 17.9925 33.4453 17.4685C33.5971 17.3151 33.7687 17.1787 33.956 17.0631C34.1394 16.9496 34.2646 16.7613 34.2991 16.5462C34.3336 16.332 34.2744 16.1129 34.1364 15.9455C31.8127 13.1345 29.2228 10.5178 26.4396 8.16802C26.275 8.02857 26.0581 7.9688 25.8451 8.00366C25.6332 8.03853 25.4459 8.16503 25.3335 8.35031C25.2191 8.53956 25.0831 8.71288 24.9312 8.86728C24.4127 9.39122 23.7235 9.68009 22.99 9.68009C22.2565 9.68009 21.5664 9.39122 21.0478 8.86728C21.0064 8.82544 20.968 8.78161 20.9286 8.73878C20.7964 8.59236 20.6121 8.5047 20.4159 8.49573C20.2197 8.48577 20.0284 8.5565 19.8825 8.68997C16.984 11.3625 14.123 14.1227 11.3783 16.8958C8.91262 19.387 6.45284 21.9799 4.05617 24.6115C4.00884 24.5378 3.96251 24.4651 3.91814 24.3924C3.81068 24.2191 3.70716 24.0487 3.60956 23.8804C6.9379 20.2337 10.4141 16.6378 13.9495 13.1863C14.2433 12.8995 14.2512 12.4263 13.9672 12.1295C13.6833 11.8326 13.215 11.8247 12.9212 12.1116C11.8111 13.1953 10.7069 14.295 9.61063 15.4036C7.92181 15.4963 6.21426 15.6098 4.52939 15.7453C2.54086 15.9037 0.939792 17.4775 0.723884 19.4876C-0.241295 28.4824 -0.241295 37.6046 0.723884 46.6003C0.939792 48.6104 2.54086 50.1842 4.52939 50.3426C10.0188 50.7799 15.5486 50.9991 21.0745 50.9991C25.4616 50.9991 29.8459 50.8606 34.2015 50.5847C34.6096 50.5588 34.9192 50.2042 34.8936 49.7918C34.8679 49.3794 34.516 49.0676 34.1088 49.0925C24.3358 49.7121 14.4227 49.6314 4.64572 48.8525C3.36999 48.7509 2.3427 47.7428 2.19778 46.4539C2.00257 44.1987 4.48009 40.1078 8.5094 36.0298C8.79826 35.7379 8.79826 35.2638 8.50841 34.9719C8.21955 34.68 7.75027 34.6801 7.4614 34.9729C4.88036 37.5847 2.95001 40.1386 1.82709 42.3629C1.36668 36.1602 1.36668 29.9167 1.82807 23.7151C1.89807 23.8535 1.97102 23.993 2.04792 24.1344C2.2313 24.4741 2.43833 24.8287 2.66311 25.1913C2.87508 25.5309 3.10873 25.8865 3.35915 26.2471C4.12813 27.3538 5.04008 28.4963 6.06934 29.6408C6.13539 29.7155 6.20342 29.7892 6.27144 29.8639L6.32862 29.9267C7.98786 31.7376 9.89949 33.4997 11.8575 35.0227C13.6636 36.4262 15.4648 37.5976 17.2098 38.5031C18.0084 38.9174 18.8 39.277 19.5611 39.5709C19.992 39.7372 20.4258 39.8876 20.8507 40.0161C20.9197 40.037 20.9916 40.048 21.0626 40.048C21.1336 40.048 21.2056 40.038 21.2746 40.0171C24.0725 39.1724 27.2372 37.4034 30.4265 34.8992C31.165 34.3195 31.9004 33.7029 32.6122 33.0674C33.8456 31.9657 35.0139 30.8033 36.0835 29.6119C37.9666 27.5132 39.3951 25.502 40.2982 23.7151C40.7596 29.9167 40.7606 36.1602 40.2992 42.3629C39.1772 40.1396 37.2469 37.5857 34.6648 34.9739C34.376 34.682 33.9077 34.681 33.6178 34.9729C33.329 35.2648 33.328 35.7379 33.6169 36.0308C37.6442 40.1058 40.1207 44.1937 39.9295 46.4499C39.7875 47.7418 38.7592 48.7519 37.4786 48.8545C37.3346 48.8664 37.1897 48.8774 37.0458 48.8883C36.6386 48.9192 36.332 49.2778 36.3625 49.6892C36.3911 50.0826 36.7165 50.3815 37.1 50.3815C37.1187 50.3815 37.1365 50.3805 37.1552 50.3795C37.3031 50.3685 37.451 50.3576 37.5969 50.3456C39.5874 50.1872 41.1874 48.6134 41.4024 46.6033C42.3685 37.6076 42.3685 28.4853 41.4024 19.4916C41.1894 17.4795 39.5893 15.9057 37.5988 15.7463ZM4.64572 17.2375C5.77554 17.1468 6.91522 17.0671 8.05293 16.9954C6.29905 18.8013 4.5708 20.6321 2.87902 22.4769C2.36834 21.3483 2.1337 20.3791 2.19679 19.64C2.34073 18.3491 3.36901 17.3391 4.64572 17.2375ZM11.3537 32.6938C10.8134 32.2356 10.282 31.7615 9.76344 31.2774C9.76541 31.2754 9.7664 31.2734 9.76837 31.2714C10.1824 30.8531 10.8568 30.8531 11.2709 31.2714C11.472 31.4746 11.5824 31.7436 11.5824 32.0304C11.5834 32.2745 11.5025 32.5046 11.3537 32.6938ZM12.5052 33.6361C12.867 33.1819 13.0632 32.6221 13.0632 32.0304C13.0632 31.3441 12.799 30.6997 12.3179 30.2136C11.327 29.2125 9.71414 29.2125 8.72235 30.2136C8.71249 30.2235 8.70361 30.2345 8.69376 30.2444C8.25405 29.8052 7.82717 29.3599 7.41605 28.9117L7.35986 28.8499C7.29577 28.7802 7.23268 28.7105 7.16761 28.6377C6.32961 27.7054 5.57541 26.778 4.91881 25.8746C7.37267 23.1732 9.89555 20.5106 12.4243 17.9546C14.9935 15.3588 17.6653 12.774 20.3755 10.2628C21.1178 10.8555 22.0298 11.1772 22.99 11.1772C24.1189 11.1772 25.1807 10.733 25.9782 9.92612C26.0127 9.89126 26.0463 9.8564 26.0788 9.82054C28.3759 11.8127 30.532 13.9902 32.5018 16.3101C32.4663 16.343 32.4318 16.3768 32.3983 16.4107C31.5997 17.2175 31.16 18.2903 31.16 19.4309C31.16 20.403 31.4795 21.3254 32.0651 22.0725C29.5885 24.8008 27.0302 27.5002 24.4511 30.106C22.1796 32.401 19.8194 34.694 17.4306 36.9282C15.9065 36.0995 14.3379 35.0616 12.7605 33.8364C12.6747 33.7716 12.59 33.7039 12.5052 33.6361ZM34.9892 28.6069C33.956 29.7574 32.8272 30.8809 31.6342 31.9458C30.9461 32.5604 30.2343 33.157 29.5205 33.7168C26.6871 35.9411 23.8961 37.5508 21.4077 38.4015C27.2116 32.8891 32.8183 27.046 38.0878 21.0176C38.9544 20.0265 39.0205 18.5374 38.2446 17.4755C38.2239 17.4476 38.2022 17.4197 38.1815 17.3909C39.121 17.7355 39.8171 18.5971 39.9324 19.643C40.0951 21.5924 38.2022 25.0259 34.9892 28.6069Z" fill="#1FC9AA"/>
<path d="M23.6212 29.2692C25.1296 27.7452 26.0188 25.771 26.1224 23.711C26.2279 21.6222 25.518 19.6958 24.123 18.2863C21.2649 15.3986 16.3887 15.6257 13.2536 18.7943C11.7452 20.3183 10.857 22.2926 10.7525 24.3525C10.647 26.4413 11.3568 28.3678 12.7518 29.7772C14.0946 31.1339 15.882 31.8023 17.7246 31.8023C19.8058 31.8023 21.959 30.9487 23.6212 29.2692ZM12.2313 24.4282C12.3171 22.7389 13.0515 21.1132 14.3007 19.8512C16.859 17.2663 20.7956 17.0392 23.077 19.3432C24.1723 20.4498 24.7283 21.9729 24.6445 23.6333C24.5588 25.3227 23.8243 26.9483 22.5752 28.2104C21.1999 29.5999 19.4263 30.3082 17.7256 30.3082C16.2626 30.3082 14.8537 29.7842 13.7988 28.7184C12.7035 27.6127 12.1465 26.0887 12.2313 24.4282Z" fill="#1FC9AA"/>
<path d="M26.3539 18.6001C27.0045 18.6001 27.6562 18.35 28.1511 17.849C29.1419 16.8479 29.1419 15.2183 28.1511 14.2163C27.1603 13.2152 25.5474 13.2152 24.5556 14.2163C23.5648 15.2173 23.5648 16.8469 24.5556 17.849C25.0515 18.35 25.7032 18.6001 26.3539 18.6001ZM25.6026 15.2741C25.8097 15.0649 26.0818 14.9603 26.3539 14.9603C26.626 14.9603 26.8981 15.0649 27.1051 15.2741C27.5192 15.6925 27.5192 16.3738 27.1051 16.7922C26.691 17.2105 26.0167 17.2105 25.6026 16.7922C25.1885 16.3738 25.1885 15.6925 25.6026 15.2741Z" fill="#1FC9AA"/>
<path d="M20.4355 24.1364C20.7066 24.4999 20.684 25.2042 20.1052 25.7949C19.5512 26.3616 19.3343 26.531 18.6787 26.7322C18.3238 26.8408 18.0832 27.1904 18.1374 27.5609C18.1946 27.9464 18.517 28.2024 18.8699 28.2024C18.9399 28.2024 19.0119 28.1925 19.0829 28.1705C19.7868 27.9574 20.2019 27.7203 20.6169 27.3637L20.7638 27.5121C20.9087 27.6585 21.098 27.7313 21.2873 27.7313C21.4707 27.7313 21.6551 27.6625 21.797 27.5251C22.0987 27.2342 22.0829 26.7302 21.7881 26.4324L21.6205 26.263C22.3008 25.1842 22.1736 23.982 21.6156 23.2349C20.9354 22.3245 19.7582 22.1462 18.6166 22.7797C17.9511 23.1482 17.1998 23.5417 16.6685 23.6572C16.5087 23.6921 16.4023 23.5955 16.3411 23.5088C16.2169 23.3335 16.1597 23.0217 16.3697 22.6701C16.6251 22.2418 16.9376 21.9938 17.19 21.8523C17.4582 21.7019 17.6119 21.4051 17.5676 21.0993L17.5646 21.0764C17.4927 20.5693 16.9425 20.2914 16.4979 20.5355C16.3895 20.5952 16.2761 20.665 16.1607 20.7457L16.0592 20.6431C15.7723 20.3532 15.302 20.3243 15.0072 20.6052C14.7016 20.8961 14.6967 21.3812 14.9905 21.679L15.1433 21.8334C15.1295 21.8553 15.1157 21.8762 15.1029 21.8981C14.6257 22.699 14.6385 23.6722 15.1374 24.3784C15.5692 24.989 16.2751 25.2719 16.98 25.1195C17.5587 24.994 18.239 24.6962 19.3294 24.0915C19.6133 23.9341 20.1329 23.7309 20.4355 24.1364Z" fill="#1FC9AA"/>
</svg>
