<svg width="48" height="48" viewBox="0 0 48 48" fill="none" xmlns="http://www.w3.org/2000/svg">
<g clip-path="url(#clip0_3960_21208)">
<path d="M3 19.002C0.787502 19.5948 0 21.2522 0 22.5V28.6289C0 30.7557 2.23242 35.2558 2.23242 36.7559V38.25H12.2051C12.8867 36.5 14.25 36 14.25 33V32.25H6C4.7535 32.25 3.75 31.2465 3.75 30V19.002H3Z" fill="#FFC6A0"/>
<path d="M39.0063 35.4611L46.4813 41.9697C47.5921 42.9369 47.4429 44.718 46.3718 45.7289C45.3006 46.7399 43.4927 46.8018 42.6144 45.6192L36.6196 37.5493L39.0063 35.4611Z" fill="#E4EFF8"/>
<path d="M39.0059 35.4609L36.6196 37.5498L37.2363 38.3804C38.3465 37.96 39.3706 37.3404 40.2583 36.5522L39.0059 35.4609Z" fill="#C4DCF0"/>
<path d="M39.0059 35.4609L37.8765 36.4497L44.25 42C45.3608 42.9672 45.2112 44.7478 44.1401 45.7588C43.9166 45.9697 43.6568 46.1283 43.3843 46.2539C44.3182 46.7129 45.5579 46.4984 46.3726 45.7295C47.4436 44.7185 47.5917 42.9364 46.4809 41.9692L39.0059 35.4609Z" fill="#C4DCF0"/>
<path d="M1.5 38.25H13.5V41.25H1.5V38.25Z" fill="#E4EFF8"/>
<path d="M11.6294 38.25C9.28658 39.9286 4.0499 40.3471 1.5 40.4546V41.25H13.5V38.25H11.6294Z" fill="#C4DCF0"/>
<path d="M3 33V2.25C3 1.00352 4.0035 0 5.25 0H45.75C46.9965 0 48 1.00352 48 2.25V30.75C48 31.9965 46.9965 33 45.75 33H41.25H3Z" fill="#549AD4"/>
<path d="M46.4268 0.114258C48.4053 31.0204 12.3324 32.9292 5.12842 33H40.5H45.75C46.9965 33 48 31.9965 48 30.75V2.25C48 1.24131 47.338 0.401697 46.4268 0.114258Z" fill="#3588CB"/>
<path d="M6 30V5.25C6 4.00352 7.0035 3 8.25 3H42.75C43.9965 3 45 4.00352 45 5.25V27.75C45 28.9965 43.9965 30 42.75 30H37.5H6Z" fill="#E4EFF8"/>
<path d="M11.25 18H15.75V24H11.25V18Z" fill="#FF5151"/>
<path d="M8.25 3C7.0035 3 6 4.00352 6 5.25V30H6.65039C5.47544 21.8706 8.34086 3.43335 45 4.80469C44.7942 3.77326 43.8877 3 42.7939 3H8.25Z" fill="#C4DCF0"/>
<path d="M15.75 15H20.25V24H15.75V15Z" fill="#B4D305"/>
<path d="M45 12.1963C41.6282 22.0777 32.3509 27.2714 23.9912 30H37.5H42.75C43.9965 30 45 28.9965 45 27.75V12.1963Z" fill="#C4DCF0"/>
<path d="M9.68359 34.4844C9.67509 30.7422 6.6836 29.9844 6.6836 28.4844V25.2671C6.57022 21.5172 2.93359 20.7671 2.93359 23.0171V34.5L9.68359 34.4844Z" fill="#FFC6A0"/>
<path d="M3.4082 21.9639C4.2833 22.3926 5.12981 23.4883 5.18359 25.2671V28.4839C5.18359 29.9838 8.18359 31.5 8.18359 34.492C8.93359 34.492 9.59915 33.6796 9.48472 33C8.85748 30.4432 6.68359 29.7727 6.68359 28.4839V25.2671C6.61273 22.9234 5.1662 21.7515 4.09082 21.7515C3.8318 21.7515 3.59966 21.8279 3.4082 21.9639Z" fill="#FFAF7A"/>
<path d="M12.4277 33C10.271 36.1961 5.57575 37.4471 2.23242 37.9351V38.25H12.2051C12.8867 36.5 14.25 36 14.25 33H12.4277Z" fill="#FFAF7A"/>
<path d="M18 15H20.25V24H18V15Z" fill="#94AC04"/>
<path d="M13.5 18H15.75V24H13.5V18Z" fill="#FF2929"/>
<path d="M23.25 24H20.25V10.5H24.75V22.5L23.25 24Z" fill="#549AD4"/>
<path d="M22.5 10.5V24H23.25L24.75 22.5V10.5H22.5Z" fill="#3588CB"/>
<path d="M38.582 22.5412C42.2778 26.4578 42.0987 32.6288 38.1821 36.3245C34.2655 40.0203 28.0945 39.8412 24.3987 35.9246C20.703 32.008 20.8821 25.837 24.7987 22.1412C28.7153 18.4455 34.8863 18.6246 38.582 22.5412Z" fill="#FF5151"/>
<path d="M37.6113 21.6606C40.7834 25.6246 40.3846 31.359 36.6943 34.8457C33.1487 38.1844 27.6837 38.3963 23.8901 35.3423C24.0533 35.5498 24.2248 35.7507 24.4043 35.9443C28.1014 39.8635 34.2756 40.0432 38.1943 36.3457C42.1125 32.6488 42.2921 26.4757 38.5957 22.5571C38.2884 22.2362 37.9595 21.9367 37.6113 21.6606Z" fill="#FF2929"/>
<path d="M36.3981 24.6022C38.9556 27.3125 38.8316 31.5828 36.1214 34.1403C33.4111 36.6977 29.1407 36.5738 26.5833 33.8635C24.0259 31.1532 24.1498 26.8829 26.8601 24.3255C29.5703 21.768 33.8407 21.8919 36.3981 24.6022Z" fill="#E4EFF8"/>
<path d="M31.7959 22.5059C29.973 22.426 28.1954 23.0876 26.8682 24.3398C24.1565 26.898 24.0319 31.17 26.5899 33.8818C26.8814 34.189 27.2011 34.4681 27.5449 34.7153C25.5493 31.9705 25.9018 28.1708 28.3682 25.8398C30.7263 23.618 34.3305 23.385 36.9551 25.2847C36.7878 25.0511 36.6058 24.8285 36.4102 24.6182C35.2054 23.3407 33.5502 22.583 31.7959 22.5059Z" fill="#C4DCF0"/>
<path d="M0.75 40.5H14.25V48H0.75V40.5Z" fill="#38668C"/>
<path d="M12.6299 40.5C10.2398 44.0223 4.3642 45.9299 0.75 46.3096V48H14.25V40.5L12.6299 40.5Z" fill="#2C5170"/>
<path d="M28.5006 10.5C27.4998 10.4994 27.4998 11.9998 28.5006 12.0004H33.75C34.7509 12.001 34.7509 10.5006 33.75 10.5H28.5006Z" fill="#549AD4"/>
<path d="M28.5006 13.5004C27.4998 13.4998 27.4998 15.0001 28.5006 15.0007H39C40.0009 15.0014 40.0009 13.501 39 13.5004H28.5006Z" fill="#B4D305"/>
<path d="M28.5006 16.5004C27.4998 16.4998 27.4998 18.0001 28.5006 18.0007H39C40.0009 18.0014 40.0009 16.501 39 16.5004H28.5006Z" fill="#FF5151"/>
</g>
<defs>
<clipPath id="clip0_3960_21208">
<rect width="48" height="48" fill="white"/>
</clipPath>
</defs>
</svg>
