<svg width="48" height="48" viewBox="0 0 48 48" fill="none" xmlns="http://www.w3.org/2000/svg">
<path d="M28.9167 15H18.0833C17.4853 15 17 15.6313 17 16.4091V44.5909C17 45.3687 17.4853 46 18.0833 46H28.9167C29.5147 46 30 45.3687 30 44.5909V16.4091C30 15.6313 29.5147 15 28.9167 15Z" fill="#FFC107"/>
<path d="M12.9167 29H2.08333C1.48533 29 1 29.6347 1 30.4167V44.5833C1 45.3653 1.48533 46 2.08333 46H12.9167C13.5147 46 14 45.3653 14 44.5833V30.4167C14 29.6347 13.5147 29 12.9167 29Z" fill="#FFC107"/>
<path d="M44.9167 1H34.0833C33.4853 1 33 1.63 33 2.40625V44.5938C33 45.37 33.4853 46 34.0833 46H44.9167C45.5147 46 46 45.37 46 44.5938V2.40625C46 1.63 45.5147 1 44.9167 1Z" fill="#FFA000"/>
</svg>
