<svg width="48" height="48" viewBox="0 0 48 48" fill="none" xmlns="http://www.w3.org/2000/svg">
<g clip-path="url(#clip0_3960_21173)">
<path d="M43.6234 0.384789C43.2538 0.014313 42.6969 -0.0956011 42.2146 0.10661L0.790546 17.4668C0.275179 17.6827 -0.0422745 18.2067 0.0045614 18.7639C0.0513973 19.3211 0.451866 19.7846 0.996022 19.9113L19.1338 24.1358C19.4275 24.2042 19.6572 24.433 19.7269 24.7266L24.0639 43.0033C24.1926 43.5459 24.6556 43.9443 25.211 43.9901C25.2466 43.9931 25.2821 43.9945 25.3174 43.9945C25.8321 43.9945 26.3021 43.6862 26.5042 43.205L43.8993 1.79528C44.102 1.31266 43.993 0.755266 43.6234 0.384789Z" fill="#59A7FF"/>
<path d="M43.6237 0.384974C43.6199 0.381192 43.6159 0.377841 43.6121 0.374146L19.5093 24.3423C19.6147 24.4455 19.6917 24.5776 19.7271 24.7268L24.0641 43.0035C24.1929 43.5461 24.6558 43.9445 25.2112 43.9903C25.2469 43.9933 25.2824 43.9947 25.3177 43.9947C25.8324 43.9947 26.3024 43.6864 26.5044 43.2052L43.8995 1.79547C44.1023 1.31284 43.9933 0.75545 43.6237 0.384974Z" fill="#0082FF"/>
</g>
<defs>
<clipPath id="clip0_3960_21173">
<rect width="48" height="48" fill="white"/>
</clipPath>
</defs>
</svg>
