<svg width="455" height="315" viewBox="0 0 455 315" fill="none" xmlns="http://www.w3.org/2000/svg">
<path d="M44.1127 311.877C27.5325 286.591 2.16055 237.029 0.188507 205.774C-2.72879 159.576 28.8732 167.469 51.9466 143.488C62.0101 133.028 32.9951 98.8949 75.8943 71.5593C102.509 54.6018 139.969 88.4224 162.046 46.1258C184.664 2.78371 271.744 -12.3878 342.513 12.307C450.378 49.9463 339.726 86.7907 409.897 116.573C451.88 134.391 431.954 173.17 427.76 185.782C424.106 196.768 403.462 209.764 433.527 238.187C458.564 261.851 438.943 299.822 431.671 311.875L44.1127 311.877Z" fill="#F8F8F8"/>
<path d="M453.144 311.855H7.9729C7.00046 311.855 6.2131 312.084 6.2131 312.365C6.2131 312.647 7.00046 312.875 7.9729 312.875H453.144C454.115 312.875 454.904 312.647 454.904 312.365C454.904 312.084 454.115 311.855 453.144 311.855Z" fill="#817F7F"/>
<path d="M198.866 213.095L77.8706 277.132L76.3121 274.184L197.307 210.148L198.866 213.095Z" fill="#9BC1F9"/>
<path d="M129.338 310.425L131.878 310.404C131.542 285.763 131.247 248.343 131.807 246.244C131.772 246.349 131.714 246.446 131.638 246.527L129.576 245.331C129.242 245.703 129.04 245.928 128.97 256.402C128.935 261.794 128.948 269.241 129.011 278.536C129.122 294.361 129.336 310.267 129.338 310.425Z" fill="#13375B"/>
<path d="M108.155 243.009L109.521 241.853C104.519 235.941 101.769 224.678 101.567 209.277C101.492 201.954 101.911 194.634 102.821 187.367L101.049 187.118C100.129 194.468 99.7042 201.871 99.7786 209.277C99.8693 216.267 100.475 222.474 101.582 227.725C102.988 234.364 105.2 239.506 108.155 243.009Z" fill="#184655"/>
<path d="M121.183 158.666C120.442 158.666 92.8807 155.671 92.3909 159.372C91.901 163.073 90.9123 191.928 95.8379 192.915C100.764 193.902 124.684 189.467 124.684 189.467L121.183 158.666Z" fill="#B75742"/>
<path d="M156.491 244.957C155.428 244.744 159.212 248.656 156.491 249.89C153.77 251.124 112.853 250.382 109.649 248.902C106.445 247.423 102.5 244.957 103.978 241.749C105.457 238.542 130.678 234.352 130.678 234.352L153.537 240.523C153.537 240.523 157.725 245.203 156.491 244.957Z" fill="#466EB6"/>
<path d="M147.217 307.616H113.789C113.663 307.616 113.537 307.641 113.42 307.689C113.303 307.738 113.197 307.809 113.107 307.899C113.017 307.988 112.946 308.095 112.898 308.212C112.849 308.329 112.824 308.454 112.824 308.581V310.425C112.824 310.47 112.842 310.513 112.874 310.545C112.905 310.576 112.948 310.594 112.993 310.594H148.008C148.03 310.594 148.052 310.59 148.072 310.581C148.093 310.573 148.111 310.56 148.127 310.545C148.142 310.529 148.155 310.51 148.163 310.49C148.172 310.469 148.176 310.447 148.176 310.425V308.59C148.177 308.463 148.154 308.337 148.106 308.219C148.058 308.101 147.988 307.994 147.899 307.904C147.81 307.813 147.703 307.741 147.586 307.692C147.469 307.642 147.344 307.616 147.217 307.616Z" fill="#346384"/>
<path d="M127.329 305.122H133.498C133.917 305.122 134.258 305.462 134.258 305.882V308.34C134.258 308.76 133.917 309.1 133.498 309.1H127.329C126.909 309.1 126.569 308.76 126.569 308.34V305.882C126.569 305.462 126.909 305.122 127.329 305.122Z" fill="#346384"/>
<path d="M146.522 235.025C145.707 234.618 123.895 219.316 123.895 219.316L150.593 216.7C150.593 216.7 192.333 222.414 198.422 227.491C198.861 227.854 199.263 228.217 199.635 228.543C201.077 229.856 201.995 231.645 202.222 233.581C202.449 235.518 201.969 237.471 200.871 239.081C196.756 245.131 199.334 244.499 192.344 254.438C184.069 266.192 164.684 289.505 164.684 289.505C162.337 292.386 159.142 296.402 159.107 296.923C159.055 297.754 159.425 306.828 160.377 307.659C161.33 308.49 164.107 309.08 163.211 310.018C162.536 310.724 157.335 310.574 153.888 310.381C152.881 310.327 151.62 302.296 151.221 301.114C150.642 299.399 149.225 295.538 149.769 294.342C150.027 293.76 151.253 292.564 152.981 291.438C154.085 290.725 157.081 286.879 159.265 283.966C159.265 283.966 179.158 246.719 181.217 245.263C183.276 243.807 191.324 234.611 191.324 234.611C191.324 234.611 177.899 239.693 177.28 239.693C176.662 239.693 147.342 235.431 146.522 235.025Z" fill="#F48C7F"/>
<path d="M153.073 291.39C153.073 291.39 158.421 306.454 160.511 307.18C161.066 307.372 163.733 307.862 164.237 309.042C164.388 309.405 164.237 310.585 164.237 310.585H153.091C153.091 310.585 151.681 303.949 151.124 301.033C151.124 301.033 148.172 293.907 148.501 293.259C148.829 292.611 153.073 291.39 153.073 291.39Z" fill="#0E2E35"/>
<path d="M121.183 219.55C121.183 219.55 144.283 217.31 152.22 219.55C160.158 221.79 192.112 231.564 194.35 234.007C196.589 236.45 225.49 294.627 225.504 294.653C227.086 297.718 228.672 300.642 229.314 301.354C230.188 302.325 231.204 303.296 232.217 303.913C232.616 304.156 233.723 304.858 234.031 305.002C238.69 307.251 239.867 307.958 241.326 309.029C242.217 309.685 242.946 310.394 241.841 310.376L221.544 310.062C221.544 310.062 220.649 309.699 219.866 308.247C219.082 306.795 220.448 304.755 220.753 303.203C220.967 302.127 220.208 300.183 219.156 298.168C219.156 298.168 191.299 265.382 190.687 262.938C190.076 260.493 184.581 245.428 184.581 245.428C171.155 245.428 130.335 246.14 123.472 239.726C116.609 233.311 121.183 219.55 121.183 219.55Z" fill="#F7A491"/>
<path d="M211.85 303.911C206.486 305.285 202.52 304.35 200.301 303.457C199.728 305.076 198.969 307.107 199.372 308.28C199.866 309.714 200.566 310.037 201.186 310.053C206.085 310.182 219.136 310.356 222.874 310.405C222.99 310.407 223.105 310.375 223.204 310.313C223.303 310.251 223.383 310.162 223.433 310.057C223.483 309.951 223.502 309.834 223.487 309.718C223.472 309.602 223.424 309.493 223.349 309.403C222.422 308.298 212.251 304.156 211.85 303.911Z" fill="#0E2E35"/>
<path d="M150.593 216.7C150.593 216.7 192.333 222.414 198.422 227.491L198.643 227.672L197.424 227.491C197.424 227.491 187.809 226.881 180.031 238.798C178.516 239.342 177.42 239.705 177.255 239.705C176.644 239.705 147.337 235.429 146.522 235.023C145.708 234.616 123.895 219.312 123.895 219.312L150.593 216.7Z" fill="#B75742"/>
<path d="M121.183 219.55C121.183 219.55 144.283 217.31 152.22 219.55C158.097 221.209 177.135 226.992 187.536 230.881C183.857 233.404 179.788 237.796 176.524 245.432C159.236 245.457 129.269 245.122 123.472 239.707C116.604 233.288 121.183 219.55 121.183 219.55Z" fill="#B75742"/>
<path d="M189.705 194.824L165.337 189.43C165.337 189.43 156.523 178.103 148.06 168.353C145.569 170.819 144.185 174.609 141.677 177.05L160.28 197.637C160.612 198.005 161.017 198.298 161.469 198.5C161.922 198.702 162.411 198.807 162.906 198.808L188.733 198.893L197.572 199.599V193.94L189.705 194.824Z" fill="#F48C7F"/>
<path d="M144.009 164.915C148.271 163.784 165.337 189.43 165.337 189.43C165.337 189.43 163.026 190.505 158.909 196.12L152.334 188.844L152.323 188.857C152.323 188.857 139.261 176.515 136.774 172.21C134.286 167.905 139.747 166.048 144.009 164.915Z" fill="#154EB0"/>
<path d="M153.38 135.209C153.277 135.001 153.213 134.888 153.213 134.888L153.222 134.801C152.916 134.041 152.582 133.286 152.212 132.538C149.768 127.579 143.719 124.766 138.202 124.759C136.534 124.748 134.872 124.974 133.268 125.43C131.009 126.445 125.488 129.968 124.051 140.429C123.555 144.056 124.255 147.746 126.047 150.938C124.561 151.873 122.609 153.764 121.194 157.585C118.596 164.603 105.604 166.162 104.305 175.52C103.006 184.879 116.517 201.774 130.807 190.857C141.693 182.546 139.917 166.707 138.453 159.616C141.845 160.084 145.492 159.434 148.995 157.325C153.454 154.63 155.263 150.994 155.748 147.433C155.635 143.273 154.917 139.172 153.38 135.209Z" fill="black"/>
<path d="M135.66 161.819C135.66 161.819 127.002 160.109 123.053 163.411C119.103 166.712 123.898 196.068 123.894 200.934C123.891 205.8 121.173 219.55 121.173 219.55C121.173 219.55 147.41 224.144 151.578 216.839C151.578 216.839 152.764 189.006 152.586 185.507C152.409 182.007 151.291 171.618 147.445 166.159C146.376 164.629 135.66 161.819 135.66 161.819Z" fill="#176CFF"/>
<path d="M140.319 159.494C131.464 159.494 125.156 151.473 124.898 151.134C124.779 150.97 124.729 150.766 124.758 150.566C124.786 150.365 124.892 150.184 125.052 150.06C125.212 149.936 125.413 149.879 125.615 149.901C125.816 149.923 126 150.022 126.13 150.178C126.19 150.256 132.244 157.933 140.324 157.933C140.531 157.933 140.73 158.015 140.876 158.162C141.022 158.308 141.104 158.506 141.104 158.713C141.104 158.92 141.022 159.119 140.876 159.265C140.73 159.412 140.531 159.494 140.324 159.494H140.319Z" fill="#B75742"/>
<path d="M135.606 148.422C135.606 148.422 135.56 148.682 135.479 149.121C135.085 151.236 133.574 158.247 132.552 160.176C131.317 162.505 136.778 169.935 142.034 169.028C143.597 168.758 140.711 162.202 140.849 161.507C141.116 160.178 141.475 158.363 141.843 156.505C142.052 155.454 142.262 154.39 142.46 153.392C143.022 150.55 143.479 148.226 143.479 148.226L135.606 148.422Z" fill="#F7A491"/>
<path d="M135.479 149.121C135.56 148.682 135.606 148.422 135.606 148.422L143.479 148.226C143.479 148.226 143.022 150.55 142.46 153.392C142.264 154.385 142.054 155.443 141.847 156.486C140.631 156.305 139.361 155.717 138.088 154.604C136.786 153.467 135.804 152.009 135.239 150.375C135.335 149.878 135.417 149.45 135.479 149.121Z" fill="#F47458"/>
<path d="M167.117 286.54C167.117 286.54 159.153 296.092 159.1 296.923C159.048 297.755 159.418 306.828 160.37 307.659C161.323 308.49 164.1 309.08 163.204 310.019C162.529 310.725 157.328 310.574 153.881 310.382C152.874 310.327 151.613 302.296 151.214 301.114C150.635 299.399 149.218 295.539 149.762 294.342C150.02 293.76 151.246 292.564 152.973 291.438C154.788 290.264 161.747 280.583 161.747 280.583L167.117 286.54Z" fill="#F48C7F"/>
<path d="M153.073 291.39C153.073 291.39 158.421 306.454 160.511 307.18C161.066 307.372 163.733 307.862 164.237 309.042C164.388 309.405 164.237 310.585 164.237 310.585H153.091C153.091 310.585 151.681 303.949 151.124 301.033C151.124 301.033 148.172 293.907 148.501 293.259C148.829 292.611 153.073 291.39 153.073 291.39Z" fill="#184655"/>
<path d="M194.464 291.128C194.464 291.128 200.968 300.287 200.395 303.185C200.088 304.737 198.724 306.768 199.508 308.229C200.292 309.69 201.186 310.044 201.186 310.044L221.473 310.371C222.578 310.389 221.846 309.679 220.956 309.024C219.504 307.953 218.321 307.245 213.662 304.997C213.358 304.85 212.253 304.147 211.848 303.908C210.836 303.29 209.82 302.319 208.945 301.348C207.494 299.728 201.084 286.534 201.084 286.534L194.464 291.128Z" fill="#F7A491"/>
<path d="M211.85 303.911C206.486 305.285 202.52 304.35 200.301 303.457C199.728 305.076 198.969 307.107 199.372 308.28C199.866 309.714 200.566 310.037 201.186 310.053C206.085 310.182 219.136 310.356 222.874 310.405C222.99 310.407 223.105 310.375 223.204 310.313C223.303 310.251 223.383 310.162 223.433 310.057C223.483 309.951 223.502 309.834 223.487 309.718C223.472 309.602 223.424 309.493 223.349 309.403C222.422 308.298 212.251 304.156 211.85 303.911Z" fill="#184655"/>
<path d="M174.28 194.824L149.913 189.43C149.913 189.43 141.1 178.103 132.636 168.353C130.145 170.819 128.761 174.609 126.252 177.05L144.857 197.637C145.189 198.004 145.593 198.298 146.045 198.5C146.497 198.701 146.986 198.806 147.48 198.808L173.308 198.893L182.146 199.599V193.94L174.28 194.824Z" fill="#F7A491"/>
<path d="M224.344 167.073H184.155C183.634 167.074 183.125 167.229 182.693 167.52C182.261 167.811 181.926 168.224 181.729 168.707L169.354 198.901H147.197C147.05 198.901 146.904 198.93 146.768 198.986C146.632 199.043 146.509 199.125 146.404 199.23C146.3 199.334 146.218 199.457 146.161 199.593C146.105 199.729 146.076 199.875 146.076 200.023C146.076 200.32 146.194 200.605 146.404 200.816C146.615 201.026 146.9 201.144 147.197 201.144H210.258C211.107 201.144 211.937 200.899 212.65 200.438C213.362 199.977 213.926 199.319 214.275 198.545L226.735 170.776C226.916 170.376 226.994 169.938 226.961 169.5C226.929 169.063 226.787 168.64 226.549 168.272C226.311 167.903 225.984 167.601 225.599 167.391C225.214 167.182 224.782 167.072 224.344 167.073Z" fill="#2C374A"/>
<path d="M202.704 184.655C202.434 186.013 201.253 186.918 200.063 186.681C198.873 186.443 198.134 185.153 198.405 183.795C198.675 182.437 199.856 181.533 201.046 181.769C202.236 182.005 202.977 183.299 202.704 184.655Z" fill="white"/>
<path d="M142.418 129.231C142.418 129.231 138.169 128.753 135.506 132.104C132.842 135.454 129.972 145.816 136.594 151.448C143.216 157.08 149.746 150.706 150.716 143.945C151.687 137.184 152.059 128.986 142.418 129.231Z" fill="#F7A491"/>
<path d="M152.666 143.845C151.877 145.337 150.553 146.165 149.707 145.691C148.862 145.217 148.817 143.624 149.606 142.13C150.395 140.636 151.721 139.81 152.567 140.284C153.412 140.758 153.457 142.357 152.666 143.845Z" fill="#F7A491"/>
<path d="M142.894 128.123C142.894 128.123 137.219 137.975 133.157 138.431C129.095 138.886 128.563 144.123 128.563 144.123C128.563 144.123 130.014 132.058 134.035 129.731C138.055 127.405 142.894 128.123 142.894 128.123Z" fill="black"/>
<path d="M134.221 140.905C134.552 142.654 133.888 144.259 132.739 144.489C131.591 144.72 130.381 143.488 130.06 141.736C129.738 139.985 130.393 138.382 131.542 138.153C132.69 137.925 133.891 139.157 134.221 140.905Z" fill="#F7A491"/>
<path d="M139.096 146.738L145.143 148.031C145.143 148.031 144.514 150.297 141.838 149.806C138.576 149.207 139.096 146.738 139.096 146.738Z" fill="white"/>
<path d="M125.312 162.031C129.574 160.899 143.48 181.348 143.48 181.35C147.266 186.029 149.913 189.43 149.913 189.43C149.913 189.43 147.602 190.505 143.485 196.12L136.911 188.844L136.9 188.857C136.9 188.857 123.837 176.515 121.35 172.21C118.863 167.905 121.051 163.162 125.312 162.031Z" fill="#154EB0"/>
<path d="M213.968 311.859H310.978L336.034 204.985H213.968V311.859Z" fill="#7D97F4"/>
<path d="M75.5986 204.985H215.403V311.861H75.5986V204.985Z" fill="#91B3FA"/>
<path d="M72.8792 201.117H349.719V204.985H72.8792V201.117Z" fill="#13375B"/>
<path d="M191.31 51.9539H278.137C278.85 51.9539 279.556 52.0944 280.215 52.3675C280.874 52.6406 281.473 53.041 281.977 53.5456C282.481 54.0502 282.881 54.6493 283.154 55.3086C283.427 55.9678 283.567 56.6744 283.567 57.3879V93.2341C283.567 94.6748 282.995 96.0565 281.977 97.0753C280.958 98.094 279.577 98.6664 278.137 98.6664H209.779C207.012 102.529 201.996 109.446 201.553 109.446C201.138 109.446 201.936 102.912 202.498 98.6664H191.31C189.87 98.6664 188.489 98.094 187.47 97.0753C186.452 96.0565 185.88 94.6748 185.88 93.2341V57.3879C185.88 56.6744 186.02 55.9678 186.293 55.3086C186.566 54.6493 186.965 54.0502 187.47 53.5456C187.974 53.041 188.573 52.6406 189.232 52.3675C189.89 52.0944 190.597 51.9539 191.31 51.9539Z" fill="#1FC9AA"/>
<path d="M246.876 63.5769H271.425C271.976 63.5769 272.422 64.0238 272.422 64.5752V64.9454C272.422 65.4967 271.976 65.9437 271.425 65.9437H246.876C246.325 65.9437 245.878 65.4967 245.878 64.9454V64.5752C245.878 64.0238 246.325 63.5769 246.876 63.5769Z" fill="white"/>
<path d="M271.425 71.3069H255.492C255.227 71.3069 254.974 71.4121 254.786 71.5993C254.599 71.7865 254.494 72.0404 254.494 72.3051V72.6681C254.494 72.9329 254.599 73.1868 254.786 73.374C254.974 73.5612 255.227 73.6664 255.492 73.6664H271.425C271.689 73.6664 271.943 73.5612 272.13 73.374C272.317 73.1868 272.422 72.9329 272.422 72.6681V72.3051C272.422 72.0405 272.317 71.7869 272.13 71.5998C271.943 71.4127 271.689 71.3074 271.425 71.3069Z" fill="white"/>
<path d="M231.259 71.3069H251.328C251.879 71.3069 252.326 71.7538 252.326 72.3051V72.6754C252.326 73.2267 251.879 73.6736 251.328 73.6736H231.259C230.708 73.6736 230.261 73.2267 230.261 72.6754V72.3051C230.261 71.7538 230.708 71.3069 231.259 71.3069Z" fill="white"/>
<path d="M226.468 71.3069H197.622C197.357 71.3069 197.102 71.4123 196.915 71.5998C196.727 71.7874 196.622 72.0417 196.622 72.3069V72.6699C196.622 72.9347 196.727 73.1886 196.914 73.3758C197.101 73.563 197.355 73.6682 197.62 73.6682H226.466C226.731 73.6682 226.984 73.563 227.172 73.3758C227.359 73.1886 227.464 72.9347 227.464 72.6699V72.3069C227.464 72.1759 227.439 72.046 227.389 71.9248C227.339 71.8036 227.265 71.6934 227.173 71.6005C227.08 71.5077 226.971 71.434 226.85 71.3836C226.729 71.3332 226.599 71.3071 226.468 71.3069Z" fill="white"/>
<path d="M197.498 63.5769H240.024C240.575 63.5769 241.021 64.0238 241.021 64.5752V64.9454C241.021 65.4967 240.575 65.9437 240.024 65.9437H197.498C196.947 65.9437 196.5 65.4967 196.5 64.9454V64.5752C196.5 64.0238 196.947 63.5769 197.498 63.5769Z" fill="white"/>
<path d="M197.497 86.446H271.425C271.976 86.446 272.422 86.893 272.422 87.4443V87.8145C272.422 88.3659 271.976 88.8128 271.425 88.8128H197.497C196.946 88.8128 196.499 88.3659 196.499 87.8145V87.4443C196.499 86.893 196.946 86.446 197.497 86.446Z" fill="white"/>
<path d="M234.198 78.9663H271.425C271.976 78.9663 272.422 79.4132 272.422 79.9646V80.3348C272.422 80.8861 271.976 81.3331 271.425 81.3331H234.198C233.647 81.3331 233.201 80.8861 233.201 80.3348V79.9646C233.201 79.4132 233.647 78.9663 234.198 78.9663Z" fill="white"/>
<path d="M197.498 78.9663H230.257C230.808 78.9663 231.255 79.4132 231.255 79.9646V80.3348C231.255 80.8861 230.808 81.3331 230.257 81.3331H197.498C196.946 81.3331 196.5 80.8861 196.5 80.3348V79.9646C196.5 79.4132 196.946 78.9663 197.498 78.9663Z" fill="white"/>
<path d="M75.5986 239.72H215.403V256.654H75.5986V239.72Z" fill="#BFCCFA"/>
<path d="M75.5986 262.052H215.403V265.787H75.5986V262.052Z" fill="#BFCCFA"/>
<path d="M363.946 141.994C349.506 148.065 344.858 134.801 345.219 135.151C344.945 134.852 342.772 133.881 341.382 133.186C335.595 130.282 332.097 123.548 332.229 116.767C323.926 111.603 321.761 100.668 327.458 94.6242C325.705 87.9087 330.326 80.5271 336.202 77.1204C340.651 69.1979 351.875 72.5829 357.924 78.8029C360.99 81.9537 362.766 86.5711 362.719 91.1721C369.836 94.1832 373.561 102.2 371.943 110.288C381.545 118.361 378.681 135.796 363.946 141.994Z" fill="black"/>
<path d="M295.45 187.833C295.45 187.833 296.561 186.947 296.902 186.624C297.308 186.245 298.436 185.016 298.436 185.016C298.436 185.016 302.165 180.551 301.815 180.297C301.464 180.043 300.396 180.455 300.071 180.649C299.746 180.844 299.345 181.041 299.017 181.236C298.689 181.43 298.277 181.346 298.006 180.956C297.736 180.566 298.87 179.504 299.334 179.219C300.786 178.323 305.14 176.707 305.586 176.517C306.131 176.292 311.169 167.351 313.141 164.425C316.225 159.541 319.153 154.365 319.478 153.846L326.118 129.991L335.777 129.031C335.777 129.031 328.779 155.606 328.279 156.902C328.041 157.516 320.015 168.28 320.011 168.277C315.726 173.328 311.938 177.767 311.236 178.642C311.236 178.642 309.832 181.822 309.059 183.906C308.286 185.989 306.738 187.583 306.43 188.133C305.668 189.571 304.665 190.867 303.465 191.966C301.773 193.518 302.673 191.254 302.673 191.254C302.673 191.254 305.296 187.806 304.991 187.637C304.755 187.51 303.433 189.481 301.577 191.218C301.1 191.665 300.626 192.104 300.189 192.503C299.041 193.552 298.072 193.131 299.1 191.837C299.56 191.246 300.061 190.69 300.601 190.171C301.16 189.668 301.508 189.022 301.916 188.525C302.722 187.539 303.32 186.831 303.262 186.819C303.204 186.806 303.208 186.492 302.687 186.951C302.061 187.496 300.987 188.971 300.002 189.708C299.445 190.126 298.331 191.071 298.331 191.071C298.331 191.071 296.361 192.402 296.258 192.307C295.701 191.795 296.84 190.432 297.671 189.968C298.048 189.392 299.247 188.432 299.247 188.432C299.247 188.432 301.243 185.935 300.891 185.641C300.606 185.399 294.694 190.44 294.169 189.886C293.741 189.43 295.45 187.833 295.45 187.833Z" fill="#F7A491"/>
<path d="M306.072 180.738C306.072 180.738 303.104 181.871 301.856 180.341C301.856 180.341 302.233 181.477 303.427 181.688C304.621 181.898 306.072 180.738 306.072 180.738Z" fill="#F47458"/>
<path d="M347.451 194.581L341.979 245.196C341.979 245.196 344.653 255.904 344.337 258.941C344.022 261.977 338.38 301.871 338.38 301.871L338.634 304.061L338.77 310.552L317.745 310.715C317.745 310.715 322.175 308.661 328.374 304.601C328.833 304.299 329.889 303.343 330.147 301.433C331.801 289.139 328.526 248.129 328.526 248.129L325.947 194.746L347.451 194.581Z" fill="#F7A491"/>
<path d="M359.415 204.172C360.595 204.48 362.409 247.913 363.385 249.846C369.577 262.052 371.048 299.161 371.048 299.161L373.603 304.358L373.017 309.365C373.017 309.365 368.396 312.106 365.154 310.256L365.654 305.243L366.037 298.544L350.419 252.311L341.872 205.156L359.415 204.172Z" fill="#F7A491"/>
<path d="M319.394 227.716L318.652 197.745C318.523 189.274 321.25 181.147 324.599 173.424L331.687 161.082C333.97 161.833 335.229 154.842 337.627 155.12C339.441 155.33 340.677 155.762 342.357 155.866C345.524 156.06 347.446 162.465 350.838 162.062C350.853 162.265 352.959 163.073 353.015 163.218C354.637 167.756 358.777 172.594 360.987 186.043C363.496 201.311 363.485 227.551 363.164 229.342C339.182 230.446 333.465 231.313 319.394 227.716Z" fill="#2C374A"/>
<path d="M338.877 312.22H317.172C316.368 312.146 316.172 311.467 316.446 311.048C317.019 310.186 319.55 309.554 322.397 308.182C327.389 308.726 337.836 304.915 338.623 303.724C339.084 306.124 339.323 312.118 338.877 312.22Z" fill="#184655"/>
<path d="M373.588 304.343C373.588 304.343 371.661 310.011 369.577 309.848C367.492 309.685 365.669 305.216 365.669 305.216C365.669 305.216 364.887 308.977 365.252 311.048C365.616 313.119 368.586 315.244 370.618 314.315C372.65 313.385 375.413 308.594 373.588 304.343Z" fill="#184655"/>
<path d="M333.241 141.696C331.223 141.41 329.239 140.931 327.313 140.264C325.574 139.636 322.682 138.268 322.682 138.268C322.682 138.268 324.315 124.147 328.397 115.597C330.087 112.063 331.796 110.357 334.182 109.948C334.208 109.943 333.241 141.696 333.241 141.696Z" fill="#169780"/>
<path d="M327.986 125.717C328.599 123.426 329.969 120.415 330.751 118.337C332.075 114.81 332.471 111.516 333.639 110.104C334.27 109.344 342.369 109.458 343.363 109.356C343.773 109.313 345.393 109.42 346.963 109.518C347.883 109.623 357.006 110.36 358.331 110.948C364.904 117.538 368.084 126.412 373.026 136.108C373.026 136.108 369.323 138.286 366.373 139.66C365.09 140.255 362.634 141.21 362.634 141.21L356.936 131.394C356.874 131.345 356.573 131.022 356.493 131.231C356.36 131.557 352.2 162.146 352.2 162.146C352.2 162.146 335.337 163.563 331.38 161.617C331.38 161.617 330.655 141.197 329.191 135.204C328.65 132.997 326.999 129.407 327.986 125.717Z" fill="#1FC9AA"/>
<path d="M348.071 100.129C348.071 100.129 346.801 107.253 347.061 110.062C347.32 112.872 346.096 121.929 340.635 121.958C335.174 121.987 338.884 112.556 339.399 109.797C339.915 107.038 340.738 96.4153 340.738 96.4153L348.071 100.129Z" fill="#F7A491"/>
<path d="M347.54 103.537C344.829 105.815 341.845 106.525 339.893 105.926C340.323 101.824 340.747 96.4153 340.747 96.4153L348.071 100.129C348.071 100.129 347.805 101.637 347.54 103.537Z" fill="#F47458"/>
<path d="M343.948 81.0788C343.948 81.0788 348.195 81.5398 350.062 85.3876C351.929 89.2354 351.003 100.804 343.975 104.124C338.422 106.746 333.211 100.35 333.16 93.5278C333.119 87.7834 334.605 78.7375 343.948 81.0788Z" fill="#F7A491"/>
<path d="M342.324 78.2712C343.07 86.5113 348.674 90.7638 351.185 91.7022C354.632 87.9633 353.282 83.228 350.459 81.0137C347.636 78.7994 342.324 78.2712 342.324 78.2712Z" fill="black"/>
<path d="M348.96 94.2595C348.258 95.893 348.556 97.6027 349.626 98.071C350.697 98.5392 352.135 97.6063 352.839 95.971C353.543 94.3357 353.244 92.6278 352.173 92.1595C351.103 91.6913 349.664 92.626 348.96 94.2595Z" fill="#F7A491"/>
<path d="M343.371 98.8731L337.202 98.8132C337.202 98.8132 337.322 101.162 340.038 101.267C343.342 101.394 343.371 98.8731 343.371 98.8731Z" fill="white"/>
<path d="M341.646 170.801C341.319 170.87 339.08 171.002 339.08 171.002C339.08 171.002 335.798 169.006 335.328 169.953C335.185 170.237 338.73 172.257 338.73 172.257C338.73 172.257 342.157 172.369 342.977 172.346C344.503 172.307 347.71 171.874 352.482 168.322C356.609 166.215 377.351 154.109 377.656 151.805C377.838 150.444 374.681 143.338 371.622 136.906C370.272 137.659 368.175 138.808 366.361 139.656C365.503 140.051 364.122 140.609 363.302 140.926C365.285 144.754 367.161 148.696 366.916 149.511C366.704 150.226 348.99 163.752 348.99 163.752L345.45 163.267C345.45 163.267 339.209 164.008 339.064 164.755C338.919 165.503 341.698 165.3 342.066 165.414C342.408 165.515 342.734 165.663 343.035 165.853C342.01 166.343 340.385 167.124 339.472 167.166C337.377 167.24 334.951 166.933 334.688 167.235C334.381 167.585 337.564 168.552 339.81 168.687C340.728 168.736 341.285 168.454 341.685 168.529C342.23 168.643 341.272 169.073 339.741 168.988C338.864 168.932 337.339 168.443 336.375 168.309C334.793 168.084 333.906 168.209 333.774 168.347C333.556 168.574 338.264 170.086 338.264 170.086C338.264 170.086 341.328 170.487 342.028 170.449C342.037 170.462 342.464 170.638 341.646 170.801Z" fill="#F8A492"/>
<path d="M362.965 87.8503C363.609 83.1461 364.341 71.071 353.645 67.9663C344.14 65.2055 337.322 70.9064 334.102 74.6815C332.706 74.8961 328.951 73.8789 328.289 74.6551C328.137 75.1196 328.289 76.0163 332.112 77.5305L332.091 77.5658C345.91 80.5941 357.67 84.4515 362.645 91.0727C363.094 91.2829 363.573 91.4208 364.065 91.4814C364.509 91.4814 363.368 89.632 362.965 87.8503Z" fill="#FFB655"/>
<path d="M343.971 77.807C343.971 77.807 348.317 67.5607 358.616 70.295L358.816 69.8599C357.074 68.8081 355.215 67.9644 353.277 67.3461C350.022 66.8315 342.487 68.087 338.147 75.9959C340.373 77.1278 343.971 77.807 343.971 77.807Z" fill="#FFDD69"/>
<path d="M125.317 135.058C125.829 130.893 127.963 120.422 137.801 120.204C146.542 120.012 151.061 126.441 152.967 130.395C154.11 130.894 157.547 130.881 157.934 131.694C157.959 132.124 157.631 132.855 154.022 133.289L154.031 133.325C141.559 132.768 130.633 133.378 124.874 137.899C124.444 137.976 124.005 137.984 123.572 137.923C123.187 137.81 124.578 136.491 125.317 135.058Z" fill="#FFB655"/>
<path d="M143.831 130.801C143.831 130.801 142.454 121.068 133.037 121.057L132.967 120.638C134.694 120.138 136.473 119.842 138.268 119.756C141.164 120.057 147.31 122.844 149.215 130.583C147.054 131.052 143.831 130.801 143.831 130.801Z" fill="#FFDD69"/>
</svg>
