<svg width="48" height="48" viewBox="0 0 48 48" fill="none" xmlns="http://www.w3.org/2000/svg">
<path d="M34.8389 21.2902V21.8335C34.8389 22.4992 34.9462 23.1606 35.1567 23.7921L36.3872 27.4837H38.7098V18.9676H37.1614C35.8787 18.9677 34.8389 20.0075 34.8389 21.2902Z" fill="#5A4146"/>
<path d="M45.4392 22.8985L44.1292 27.4839L37.9356 22.0645C37.0804 22.0645 36.3872 21.3713 36.3872 20.5162C36.3872 19.2335 37.4271 18.1936 38.7098 18.1936H44.1291C44.9843 18.1936 45.6775 18.8869 45.6775 19.742V21.1972C45.6776 21.7725 45.5973 22.3451 45.4392 22.8985Z" fill="#694B4B"/>
<path d="M42.5802 29.8069H37.9351V33.2334H42.5802V29.8069Z" fill="#E6AF78"/>
<path d="M37.9355 31.2285C38.6536 31.5202 39.4366 31.6845 40.2581 31.6845C41.0796 31.6845 41.8626 31.5202 42.5807 31.2285V29.8064H37.9355V31.2285Z" fill="#D29B6E"/>
<path d="M46.3154 32.7517L42.5804 31.6846L40.258 33.2258L37.9354 31.6845L34.2006 32.7517C33.2035 33.0366 32.5161 33.9479 32.5161 34.9849V40.6451C32.5161 41.0727 32.8627 41.4193 33.2903 41.4193H47.2258C47.6534 41.4193 48 41.0727 48 40.6451V34.9849C48 33.9478 47.3125 33.0366 46.3154 32.7517Z" fill="#D5DCED"/>
<path d="M41.0323 41.4192H39.4839L39.871 33.2328H40.6452L41.0323 41.4192Z" fill="#AFB9D2"/>
<path d="M40.2579 30.5806C37.6924 30.5806 35.6128 28.5008 35.6128 25.9354V25.0284C35.6128 24.6178 35.7759 24.2239 36.0663 23.9335L37.4702 22.5296C37.7675 22.2323 38.1739 22.0614 38.5941 22.0746C41.0689 22.1527 43.2595 22.6829 44.457 23.8524C44.7501 24.1387 44.9031 24.5392 44.9031 24.9489V25.9354C44.9031 28.5009 42.8234 30.5806 40.2579 30.5806Z" fill="#F0C087"/>
<path d="M37.9354 25.2204C37.9354 24.3274 38.6854 23.6175 39.5766 23.6743C41.1395 23.7741 43.4587 24.0353 44.8816 24.7196C44.8352 24.393 44.6948 24.0847 44.457 23.8523C43.2595 22.6828 41.0689 22.1527 38.5941 22.0746L38.594 22.0747C38.1739 22.0614 37.7674 22.2323 37.4702 22.5295L36.0664 23.9333C35.7759 24.2237 35.6128 24.6175 35.6128 25.0283V25.9353C35.6128 28.0537 37.0323 29.8373 38.9709 30.3958C38.3256 29.5997 37.9354 28.5891 37.9354 27.4837L37.9354 25.2204Z" fill="#E6AF78"/>
<path d="M44.9033 37.2918C44.9033 36.6757 45.148 36.085 45.5836 35.6495L47.5764 33.6566C47.8428 34.0373 48.0001 34.4957 48.0001 34.985V40.6452C48.0001 41.0728 47.6535 41.4194 47.2259 41.4194H44.9033V37.2918Z" fill="#C7CFE2"/>
<path d="M40.6452 34.7812H39.871C39.6572 34.7812 39.4839 34.6079 39.4839 34.3941V33.2328H41.0323V34.3941C41.0323 34.6079 40.859 34.7812 40.6452 34.7812Z" fill="#959CB5"/>
<path d="M40.2579 33.2258L38.9457 34.2281C38.7196 34.4008 38.3928 34.3316 38.2562 34.082L37.0791 31.9323L37.5529 31.2096C37.658 31.0493 37.882 31.022 38.0225 31.1523L40.2579 33.2258Z" fill="#C7CFE2"/>
<path d="M40.2578 33.2258L41.57 34.2282C41.7961 34.4009 42.1229 34.3317 42.2595 34.0822L43.4366 31.9325L42.9628 31.2097C42.8577 31.0494 42.6337 31.0222 42.4932 31.1525L40.2578 33.2258Z" fill="#C7CFE2"/>
<path d="M13.8582 30.2574C13.1966 28.5044 12.6719 25.491 12.5586 23.9221C12.3429 20.9366 10.093 18.5028 7.0516 18.5028C4.01016 18.5028 1.76025 20.9367 1.54463 23.9221C1.43129 25.4909 0.906567 28.5044 0.244973 30.2574C0.0991919 30.6438 0.267473 31.0699 0.648004 31.2424C1.35694 31.5637 2.86847 32.1931 4.69144 32.4383H9.41166C11.2261 32.1926 12.7482 31.5627 13.4551 31.2424C13.8357 31.0699 14.004 30.6438 13.8582 30.2574Z" fill="#5A4146"/>
<path d="M13.4552 31.2425C13.8356 31.07 14.004 30.6439 13.8581 30.2574C13.1966 28.5045 12.6718 25.4911 12.5585 23.9222C12.343 20.9366 10.093 18.5029 7.05166 18.5029C7.04398 18.5029 7.03638 18.5029 7.02869 18.503C4.69497 18.5124 3.87026 21.6952 5.87923 22.8827C5.99988 22.954 6.07722 22.9883 6.07722 22.9883L7.83682 32.4383H9.41173C11.2262 32.1924 12.7483 31.5627 13.4552 31.2425Z" fill="#694B4B"/>
<path d="M12.6516 33.9926L10.1462 32.74C9.62156 32.4777 9.29016 31.9414 9.29025 31.3549L9.29044 29.0323H4.64512V31.355C4.64512 31.9415 4.31381 32.4776 3.78919 32.7399L1.28381 33.9926C0.496969 34.386 0 35.1902 0 36.0698V40.645C0 41.0725 0.346594 41.4192 0.774188 41.4192H13.1613C13.5889 41.4192 13.9355 41.0725 13.9355 40.645V36.0699C13.9355 35.1902 13.4384 34.386 12.6516 33.9926Z" fill="#E6AF78"/>
<path d="M6.96798 32.129C7.80161 32.129 8.60008 31.9571 9.33208 31.6512C9.31286 31.5536 9.29045 31.4566 9.29045 31.3549L9.29064 29.0322H4.64533V31.355C4.64533 31.4573 4.62292 31.5548 4.60352 31.6527C5.33598 31.957 6.13408 32.129 6.96798 32.129Z" fill="#D29B6E"/>
<path d="M12.6516 33.9926L10.8668 33.1002C10.0391 34.3782 8.60372 35.2258 6.96778 35.2258C5.33184 35.2258 3.89634 34.3782 3.06872 33.1001L1.28391 33.9926C0.497063 34.386 0 35.1902 0 36.0698V40.645C0 41.0726 0.346594 41.4192 0.774188 41.4192H13.1613C13.5889 41.4192 13.9355 41.0726 13.9355 40.645V36.0699C13.9355 35.1902 13.4384 34.386 12.6516 33.9926Z" fill="#D5DCED"/>
<path d="M6.96796 30.5806C4.60621 30.5806 2.65621 28.8181 2.36137 26.5367C2.31862 26.2061 2.47752 25.882 2.77508 25.7319C3.13152 25.5521 3.64949 25.2489 4.14543 24.8064C4.69771 24.3137 5.02171 23.794 5.20471 23.4125C5.3623 23.084 5.72455 22.8982 6.07762 22.9883C8.80349 23.6836 10.6593 25.1017 11.3326 25.6807C11.5133 25.8362 11.6175 26.0654 11.5989 26.3031C11.4113 28.6966 9.40968 30.5806 6.96796 30.5806Z" fill="#F0C087"/>
<path d="M11.3325 25.6807C10.6592 25.1017 8.80337 23.6835 6.0775 22.9883C5.72444 22.8982 5.36219 23.084 5.20459 23.4125C5.06603 23.7014 4.837 24.0695 4.49715 24.4452C4.49706 24.4462 4.49678 24.4469 4.49669 24.4479C4.39122 24.5674 4.2789 24.6872 4.1454 24.8064C3.64947 25.249 3.1315 25.5521 2.77506 25.7319C2.4775 25.882 2.31869 26.2062 2.36134 26.5368C2.62619 28.5857 4.2295 30.2166 6.26369 30.5276C5.33678 29.8971 4.64537 29.0299 4.64537 27.4839V26.3799C4.82125 26.2501 4.99834 26.1206 5.17628 25.9618C5.60659 25.5778 5.98225 25.1337 6.28347 24.6556C8.36875 25.3063 9.7825 26.3902 10.3185 26.851C10.4652 26.9797 10.8293 27.3153 11.2553 27.7149C11.4386 27.2739 11.5598 26.8006 11.5987 26.3033C11.6174 26.0654 11.5132 25.8362 11.3325 25.6807Z" fill="#E6AF78"/>
<path d="M0.471937 34.6743C0.173719 35.0701 0 35.5556 0 36.0698V40.645C0 41.0726 0.346594 41.4192 0.774188 41.4192H3.09675V37.5183C3.09675 37.0479 2.88291 36.603 2.51559 36.3092L0.471937 34.6743Z" fill="#C7CFE2"/>
<path d="M35.1229 32.9361L28.6453 30.5805L24.0001 32.129L19.355 30.5806L12.8774 32.9362C11.6536 33.3812 10.8389 34.5443 10.8389 35.8464V40.6451C10.8389 41.0726 11.1855 41.4193 11.6131 41.4193H36.3872C36.8148 41.4193 37.1614 41.0726 37.1614 40.6451V35.8464C37.1614 34.5442 36.3468 33.3811 35.1229 32.9361Z" fill="#FF507D"/>
<path d="M23.189 33.6774L22.4517 41.4192H25.5484L24.8111 33.6774H23.189Z" fill="#707487"/>
<path d="M24.8126 34.741H23.187C22.8876 34.741 22.645 34.4984 22.645 34.1991V32.129H25.3545V34.1991C25.3546 34.4983 25.112 34.741 24.8126 34.741Z" fill="#5B5D6E"/>
<path d="M36.3279 33.7364C36.8506 34.2975 37.1612 35.0448 37.1612 35.8463V40.645C37.1612 41.0726 36.8146 41.4192 36.3871 41.4192H32.5161V38.8309C32.5161 38.0096 32.8424 37.2219 33.4231 36.6412L36.3279 33.7364Z" fill="#D23C69"/>
<path d="M32.5162 14.6146V8.12894C32.5162 7.27375 31.8229 6.58057 30.9678 6.58057H21.6775C18.2569 6.58057 15.4839 9.3535 15.4839 12.7742V14.6146C15.4839 15.4467 15.618 16.2734 15.8812 17.0628L16.1389 17.8359C16.2179 18.0727 16.2581 18.3207 16.2581 18.5703V18.9677H31.7419V18.5703C31.7419 18.3207 31.7821 18.0727 31.8611 17.8359L32.1188 17.0628C32.382 16.2733 32.5162 15.4466 32.5162 14.6146Z" fill="#5A4146"/>
<path d="M19.355 9.72569C19.355 11.4627 20.7631 12.8708 22.5001 12.8708H22.9356L23.1458 18.9676H31.742V18.5703C31.742 18.3206 31.7822 18.0726 31.8611 17.8358L32.1189 17.0627C32.382 16.2733 32.5162 15.4466 32.5162 14.6145V8.12894C32.5162 7.27375 31.8229 6.58057 30.9678 6.58057H22.5001C20.7631 6.58057 19.355 7.98869 19.355 9.72569Z" fill="#694B4B"/>
<path d="M28.6451 25.1616H19.3545V32.1291H28.6451V25.1616Z" fill="#E6AF78"/>
<path d="M19.3551 27.7791C20.7227 28.5714 22.306 29.0321 24.0002 29.0321C25.6944 29.0321 27.2778 28.5714 28.6453 27.7791V25.1612H19.355L19.3551 27.7791Z" fill="#D29B6E"/>
<path d="M24.0001 32.129L21.531 34.5982C21.1991 34.9301 20.6505 34.8927 20.3669 34.5188L17.8066 31.1453L18.4763 29.7341C18.6739 29.3176 19.1894 29.165 19.5818 29.4069L24.0001 32.129Z" fill="#D23C69"/>
<path d="M24 32.129L26.4692 34.5982C26.8011 34.9301 27.3496 34.8927 27.6333 34.5188L30.1935 31.1453L29.5238 29.7341C29.3262 29.3176 28.8108 29.165 28.4183 29.4069L24 32.129Z" fill="#D23C69"/>
<path d="M23.9998 27.4838C19.724 27.4838 16.2578 24.0176 16.2578 19.7419V18.8348C16.2578 18.4242 16.4209 18.0304 16.7113 17.7399L17.3526 17.0986C17.643 16.8082 17.8061 16.4144 17.8061 16.0037V14.1478C17.8061 13.7893 18.0468 13.4779 18.3957 13.3955C20.2267 12.963 25.9246 11.9386 29.8022 14.7905C30.054 14.9756 30.1932 15.2798 30.1932 15.5924V16.0037C30.1932 16.4143 30.3563 16.8081 30.6467 17.0986L31.288 17.7399C31.5783 18.0303 31.7415 18.4241 31.7415 18.8348V19.7419C31.7417 24.0176 28.2755 27.4838 23.9998 27.4838Z" fill="#F0C087"/>
<path d="M29.8022 14.7906C27.0751 12.7848 23.4525 12.698 20.903 12.9726C19.8276 13.0883 18.9391 13.2673 18.3959 13.3956C18.047 13.478 17.8063 13.7894 17.8063 14.1479V16.0037C17.8063 16.4144 17.6432 16.8082 17.3527 17.0987L16.7114 17.74C16.4209 18.0305 16.2578 18.4243 16.2578 18.835V19.742C16.2578 23.7005 19.2306 26.9593 23.0642 27.422C21.7284 26.0308 20.9029 24.1456 20.9029 22.0645V16.4057C20.9029 15.6211 21.4863 14.9654 22.2647 14.8678C24.1227 14.6348 27.5256 14.4948 30.1932 16.0039V15.5925C30.1934 15.2799 30.0539 14.9756 29.8022 14.7906Z" fill="#E6AF78"/>
<path d="M11.6722 33.7364C11.1495 34.2975 10.8389 35.0448 10.8389 35.8463V40.645C10.8389 41.0726 11.1855 41.4192 11.6131 41.4192H15.484V38.8309C15.484 38.0096 15.1577 37.2219 14.577 36.6412L11.6722 33.7364Z" fill="#D23C69"/>
</svg>
