<svg xmlns="http://www.w3.org/2000/svg" width="576.04" height="465.225" viewBox="0 0 576.04 465.225">
    <defs>
        <style>
            .prefix__cls-1{fill:#d8d8d8}.prefix__cls-2{fill:#da2419}.prefix__cls-4{fill:#ff6161}.prefix__cls-6{opacity:.35}.prefix__cls-7{fill:#fff}.prefix__cls-8{fill:#ee9956}.prefix__cls-9{fill:#f4ba8e}.prefix__cls-10{fill:#7e3434}.prefix__cls-11{fill:#ff4d43}.prefix__cls-12{fill:#7c1f1f}.prefix__cls-13{fill:#ffc228}
        </style>
    </defs>
    <g id="prefix__Group_12931" data-name="Group 12931" transform="translate(-202.443 -276.998)">
        <g id="prefix__Group_12926" data-name="Group 12926" transform="translate(202.443 276.998)">
            <g id="prefix__Group_12912" data-name="Group 12912" transform="translate(118.702 197.132)">
                <g id="prefix__Group_12910" data-name="Group 12910">
                    <g id="prefix__Group_12892" data-name="Group 12892">
                        <rect id="prefix__Rectangle_3600" width="305.062" height="185.074" class="prefix__cls-1" data-name="Rectangle 3600" rx="4.146" transform="rotate(180 152.531 92.537)"/>
                    </g>
                    <g id="prefix__Group_12893" data-name="Group 12893" transform="translate(11.383 8.583)">
                        <rect id="prefix__Rectangle_3601" width="282.295" height="153.935" class="prefix__cls-2" data-name="Rectangle 3601" rx="1.738" transform="rotate(180 141.148 76.968)"/>
                    </g>
                    <g id="prefix__Group_12894" data-name="Group 12894" transform="translate(145.3 167.471)">
                        <path id="prefix__Path_13701" d="M295.472 392.735a7.231 7.231 0 1 1-7.231-7.231 7.233 7.233 0 0 1 7.231 7.231z" data-name="Path 13701" transform="translate(-281.01 -385.504)"/>
                    </g>
                    <g id="prefix__Group_12900" data-name="Group 12900" transform="translate(27.712 56.438)">
                        <g id="prefix__Group_12895" data-name="Group 12895">
                            <rect id="prefix__Rectangle_3602" width="148.734" height="87.811" fill="#f5dada" data-name="Rectangle 3602" rx="2.163" transform="rotate(180 74.367 43.906)"/>
                        </g>
                        <g id="prefix__Group_12896" data-name="Group 12896" transform="translate(10.976 62.511)">
                            <rect id="prefix__Rectangle_3603" width="75.677" height="12.825" class="prefix__cls-4" data-name="Rectangle 3603" rx="1.352"/>
                        </g>
                        <g id="prefix__Group_12897" data-name="Group 12897" transform="translate(10.976 45.84)">
                            <rect id="prefix__Rectangle_3604" width="75.677" height="11.557" class="prefix__cls-4" data-name="Rectangle 3604" rx="1.352"/>
                        </g>
                        <g id="prefix__Group_12898" data-name="Group 12898" transform="translate(10.976 29.457)">
                            <rect id="prefix__Rectangle_3605" width="75.677" height="11.557" class="prefix__cls-4" data-name="Rectangle 3605" rx="1.352"/>
                        </g>
                        <g id="prefix__Group_12899" data-name="Group 12899" transform="translate(10.976 13.075)">
                            <rect id="prefix__Rectangle_3606" width="75.677" height="11.557" class="prefix__cls-4" data-name="Rectangle 3606" rx="1.352"/>
                        </g>
                    </g>
                    <g id="prefix__Group_12909" data-name="Group 12909" transform="translate(131.303 20.579)">
                        <g id="prefix__Group_12901" data-name="Group 12901">
                            <rect id="prefix__Rectangle_3607" width="148.734" height="87.812" class="prefix__cls-4" data-name="Rectangle 3607" rx="2.163" transform="rotate(180 74.367 43.906)"/>
                        </g>
                        <g id="prefix__Group_12902" data-name="Group 12902" transform="translate(88.416 6.662)">
                            <path id="prefix__Rectangle_3608" d="M1.352 0h49.976a1.352 1.352 0 0 1 1.352 1.352V24.3a1.353 1.353 0 0 1-1.353 1.353H1.352A1.352 1.352 0 0 1 0 24.3V1.352A1.352 1.352 0 0 1 1.352 0z" class="prefix__cls-2" data-name="Rectangle 3608" transform="rotate(180 26.34 12.825)"/>
                        </g>
                        <g id="prefix__Group_12903" data-name="Group 12903" transform="translate(88.416 37.427)">
                            <rect id="prefix__Rectangle_3609" width="52.68" height="11.557" class="prefix__cls-2" data-name="Rectangle 3609" rx="1.352" transform="rotate(180 26.34 5.779)"/>
                        </g>
                        <g id="prefix__Group_12904" data-name="Group 12904" transform="translate(88.416 53.809)">
                            <rect id="prefix__Rectangle_3610" width="52.68" height="11.558" class="prefix__cls-2" data-name="Rectangle 3610" rx="1.352" transform="rotate(180 26.34 5.779)"/>
                        </g>
                        <g id="prefix__Group_12905" data-name="Group 12905" transform="translate(88.416 70.191)">
                            <path id="prefix__Rectangle_3611" d="M1.352 0h49.976a1.352 1.352 0 0 1 1.352 1.352v8.853a1.353 1.353 0 0 1-1.353 1.353H1.352A1.352 1.352 0 0 1 0 10.206V1.352A1.352 1.352 0 0 1 1.352 0z" class="prefix__cls-2" data-name="Rectangle 3611" transform="rotate(180 26.34 5.779)"/>
                        </g>
                        <g id="prefix__Group_12906" data-name="Group 12906" transform="translate(11.793 37.427)">
                            <rect id="prefix__Rectangle_3612" width="52.68" height="11.557" class="prefix__cls-2" data-name="Rectangle 3612" rx="1.352" transform="rotate(180 26.34 5.779)"/>
                        </g>
                        <g id="prefix__Group_12907" data-name="Group 12907" transform="translate(11.793 53.809)">
                            <rect id="prefix__Rectangle_3613" width="52.68" height="11.558" class="prefix__cls-2" data-name="Rectangle 3613" rx="1.352" transform="rotate(180 26.34 5.779)"/>
                        </g>
                        <g id="prefix__Group_12908" data-name="Group 12908" transform="translate(11.793 70.191)">
                            <path id="prefix__Rectangle_3614" fill="#f4b3d9" d="M1.352 0h49.976a1.352 1.352 0 0 1 1.352 1.352v8.853a1.353 1.353 0 0 1-1.353 1.353H1.352A1.352 1.352 0 0 1 0 10.206V1.352A1.352 1.352 0 0 1 1.352 0z" data-name="Rectangle 3614" transform="rotate(180 26.34 5.779)"/>
                        </g>
                    </g>
                </g>
                <path id="prefix__Rectangle_3615" d="M0 0H74.371V20.637H0z" class="prefix__cls-1" data-name="Rectangle 3615" transform="rotate(180 94.858 102.856)"/>
                <path id="prefix__Path_13702" d="M266.956 420.746h142.329a7.084 7.084 0 0 0 7.083-7.08 18.407 18.407 0 0 0-18.407-18.407H278.283a18.4 18.4 0 0 0-18.407 18.407 7.081 7.081 0 0 0 7.08 7.08z" class="prefix__cls-1" data-name="Path 13702" transform="translate(-185.59 -195.009)"/>
                <g id="prefix__Group_12911" class="prefix__cls-6" data-name="Group 12911" transform="translate(50.583 8.584)">
                    <path id="prefix__Path_13703" d="M308.571 394.6c-1.61-1.858-3.575-3.515-5.333-5.232-3.847-3.753-7.708-7.5-11.542-11.264-13.074-12.839-26.949-25.749-38.874-39.886h14.237c9.966 8.676 19.405 18.075 29 26.966 7.208 6.68 14.681 13.353 21.428 20.5 5.178 5.487 7.332 13.454 1.395 19.331-5.521 5.46-14 5.484-21.206 5.914-3.619.218-8.169 1.156-12.063 1.062 1.129 1.526 2.194 3.347 3.007 4.385 11.929 15.252 23.448 30.827 34.415 46.784 6.532 9.506 13.021 19.163 19.227 29h-16.433c-3.011-4.768-6.062-9.513-9.2-14.2-10.817-16.139-21.989-32.03-33.71-47.527q-4.1-5.423-8.293-10.783c-2.671-3.417-5.655-6.64-5.205-11.284.857-8.891 10.847-9.388 17.685-9.741 4.805-.245 9.614-.481 14.419-.743 1.73-.094 7.335.017 8.384-1.794-.178.293-.676-.725-1.338-1.488z" class="prefix__cls-7" data-name="Path 13703" transform="translate(-252.822 -338.219)"/>
                    <path id="prefix__Path_13704" d="M426.929 492.154h-86.9c-26.519-31.717-56.273-69.641-52-72.846 7.362-5.514 54.086-9.382 53.223-14.368-.592-3.407-44.318-41.6-72.006-66.72h73.464c.091.094.181.2.272.3 49.852 48.8 66.206 74.7 63.821 79.748s-43.155 3.891-44.4 8.364c-.733 2.642 36.055 36.768 64.526 65.522z" class="prefix__cls-7" data-name="Path 13704" transform="translate(-214.039 -338.219)"/>
                </g>
            </g>
            <g id="prefix__Group_12914" data-name="Group 12914" transform="translate(386.229 114.114)">
                <path id="prefix__Path_13705" d="M340.77 361.352c-11.932 4.247-21.206 87.954-20.665 91.989.995 7.4 51.909 74.741 51.909 74.741l7.96-9.835-29.946-64.718s24.352-61.734 25.47-71.808.487-32.91-34.728-20.369z" class="prefix__cls-8" data-name="Path 13705" transform="translate(-311.018 -200.674)"/>
                <path id="prefix__Path_13706" d="M362.085 359.2c14.778 8.733 7.833 45.323 2.8 60.43s-14.55 26.3-11.751 32.449 8.394 26.858 5.595 37.49-12.308 45.88-12.308 45.88h-10.633s-4.476-66.583-6.156-74.976-6.714-72.739 0-90.642c2.812-7.503 20.144-17.907 32.453-10.631z" class="prefix__cls-9" data-name="Path 13706" transform="translate(-296.486 -202.924)"/>
                <path id="prefix__Path_13707" d="M360.478 327.605c16.579 3.706 24.62 19.64 17.3 39.782-8.3 22.833-.433 67.712-.433 67.712s-15.077 5.02-24.281 4.6-20.037-6.747-20.037-6.747-3.75-47.429-10.037-63.33 1.924-49.967 37.488-42.017z" class="prefix__cls-2" data-name="Path 13707" transform="translate(-308.714 -274.465)"/>
                <path id="prefix__Path_13708" d="M337.514 351.756c10.255 5.051 33.511 3.132 44.724-2.379 8.979 27.5 15.595 72.937 13.357 86.364s-3.152 20.235-4.909 21.73c-.4.336-2.419.521-5.316.6-1.331.037-.151-15.635-1.777-15.632-1.062 0-4.862 15.682-5.995 15.672-10.141-.1-22.443-.645-22.443-.645s-35.235-6.1-37.164-7.836 10.87-31.267 16.055-42.429c6.154-13.247 3.468-55.445 3.468-55.445z" data-name="Path 13708" transform="translate(-316.415 -220.283)"/>
                <path id="prefix__Path_13709" d="M343.888 327.2c-16.4 7.03-25.531 29.412-25.443 38.925s0 6.714 0 6.714l16.872-2.8z" class="prefix__cls-2" data-name="Path 13709" transform="translate(-314.885 -272.637)"/>
                <path id="prefix__Path_13710" d="M329.9 326.42c19.059 0 29.718 10.662 34.167 29.311 2.473 10.363 4.069 16.132 4.069 16.132h-21.818z" class="prefix__cls-2" data-name="Path 13710" transform="translate(-287.839 -274.466)"/>
                <path id="prefix__Path_13711" d="M343.126 326.047c2.759.218 3.689 4.1 4.062 7.285s-5.477 16.24-6.562 16.24-6.492-6.9-6.492-6.9l-6.569 7.772s-2.644-17.359-2.14-19.093 3.191-6.451 17.701-5.304z" class="prefix__cls-10" data-name="Path 13711" transform="translate(-298.562 -275.766)"/>
                <path id="prefix__Path_13712" d="M331.13 351.554c7.134 2.3 7.859-2.251 9.526-5.48s-1.905-23.616-3.975-24.859-7.54 1.741-8.535 3.481-4.724 24.372 2.984 26.858z" class="prefix__cls-8" data-name="Path 13712" transform="translate(-296.18 -287.447)"/>
                <path id="prefix__Path_13713" d="M318.834 341.682c-.5 7.87.746 29.506 2.735 31.5s9.862-29.341 9.862-29.341z" class="prefix__cls-8" data-name="Path 13713" transform="translate(-314.223 -238.444)"/>
                <g id="prefix__Group_12913" data-name="Group 12913" transform="translate(31.588 64.286)">
                    <path id="prefix__Path_13714" d="M332.295 398.386c-.191-2.248-.165-5.047-.131-8.011.051-4.842.1-9.852-.766-13.29l-.517-2.06a125.664 125.664 0 0 1-3.935-20.423c-.477-4.123.232-11.3.558-14.2a30.691 30.691 0 0 0 .175-3.411c.02-2.527.034-4.049 2.7-6.9l.958.9c-2.315 2.477-2.329 3.663-2.345 6.012a32.727 32.727 0 0 1-.185 3.555c-.323 2.846-1.018 9.909-.558 13.9a124.958 124.958 0 0 0 3.9 20.249l.521 2.056c.911 3.609.857 8.7.8 13.629-.03 2.93-.057 5.7.128 7.883z" class="prefix__cls-10" data-name="Path 13714" transform="translate(-326.785 -330.09)"/>
                </g>
                <path id="prefix__Path_13715" d="M330.392 340.2l1.862 7.151s-13.552 3.1-13.649 2.823-.46-7.271 0-8.017 11.787-1.957 11.787-1.957z" class="prefix__cls-10" data-name="Path 13715" transform="translate(-315.046 -241.954)"/>
                <path id="prefix__Path_13716" d="M323.79 377.678c2.416-13.5 14.923-28.118 12.826-33.952a6.428 6.428 0 0 1-.218-2.994 15.472 15.472 0 0 1-1.351-7.96 1 1 0 0 1 1.25-.954c1.519.43 1.566 2.12 1.865 3.458 2.665-4.738 7.369-9.126 10-7.386 4.187 2.772 1.885 12.44-1.26 15s-4 8.118-4.4 19.99c-.289 8.511-8.031 48.528-18.172 48.243s-1.757-26.651-.54-33.445z" class="prefix__cls-9" data-name="Path 13716" transform="translate(-312.68 -271.917)"/>
                <path id="prefix__Path_13717" d="M396.807 342.331c1.052 3.616 4.664 31.1-.091 35.262s-56.247 1.032-62.681.81c-14.375-.5-17.759-8.542-16.361-9.7s3.511 2.809 7.654 3.108c3.115.225 6.331.5 7.843.6 3.525.245-6.136-3.421-6.015-4.872s7.712 0 10.276 2.379c4.052 3.76 42.043-1.159 44.123-3.72s-.309-24.516-.309-24.516z" class="prefix__cls-8" data-name="Path 13717" transform="translate(-317.385 -238.444)"/>
                <path id="prefix__Path_13718" d="M324.689 334.915c-5.45-12.833 9.563-28.051 24.5-22.944a26.767 26.767 0 0 1 15.759 15.138s8.548-10.259 18.935-5.541c17.376 7.893 2.016 31.432-4.163 36.583s-1.9 19.755-1.9 19.755-11.855-2.352-13.72-13.293 9.3-24.274 9.325-28c.04-6.559-9.425-5.259-9.425-5.259s.46 11.253-2.355 15.941-13.545 7.077-13.545 7.077z" data-name="Path 13718" transform="translate(-302.844 -310.958)"/>
                <path id="prefix__Path_13719" d="M336.405 341.688a2.315 2.315 0 0 1 2.248-1.737c4.005.013 13.478.044 15.561-.007 2.655-.06 1.969 6.4 1.626 7.4-.255.743-11.825.622-17.685.514a2.629 2.629 0 0 1-2.5-3.286z" class="prefix__cls-10" data-name="Path 13719" transform="translate(-274.453 -242.547)"/>
                <path id="prefix__Path_13720" d="M333.412 356.2c-6.038-1.636-12.2-10.948-9.1-24.281s9.708-21.845 20.719-18.606 14.368 9.046 13.585 20.43-17.233 24.617-25.204 22.457z" class="prefix__cls-9" data-name="Path 13720" transform="translate(-302.989 -307.028)"/>
                <path id="prefix__Path_13721" d="M335.627 318.559c4.281-.286 5 .4 3.548 4.657s-6.163 3.747-6.163 3.747z" class="prefix__cls-9" data-name="Path 13721" transform="translate(-280.499 -293.154)"/>
                <path id="prefix__Path_13722" d="M329.288 313.885c-2.144 5.8 4.039 15.786 7.954 19.167s9.2 1.042 9.2 1.042l1.989-5.931-5.571-10.6-9.476-5.85z" data-name="Path 13722" transform="translate(-290.329 -309.175)"/>
                <path id="prefix__Path_13723" d="M339.81 312.76s-2.194 5.981-5.508 8.945-9.913 4.056-9.913 4.056 4.224-11.586 8.458-12.95 6.963-.051 6.963-.051z" data-name="Path 13723" transform="translate(-300.851 -308.051)"/>
                <path id="prefix__Path_13724" d="M329.9 318.7c.45.7 1.008 13.713-.1 14.116s-4.987.235-5.682-.645 4.845-14.944 5.782-13.471z" class="prefix__cls-8" data-name="Path 13724" transform="translate(-301.637 -292.938)"/>
                <path id="prefix__Path_13725" d="M353.047 408.965a10.821 10.821 0 0 1-5.4 1.616 17.164 17.164 0 0 1-6.311-1.616s.343 9.822-4.133 11.811-12.685 4.23-13.182 5.968a6 6 0 0 0 0 3.236s24.372 1.741 27.356 0 1.67-21.015 1.67-21.015z" class="prefix__cls-2" data-name="Path 13725" transform="translate(-302.25 -79.642)"/>
                <path id="prefix__Path_13726" d="M345.043 404.287c2.8 2.178 10.353 10.518 9.607 13.8s-16.663 20.44-18.155 19.946a4.858 4.858 0 0 1-1.969-2.275 3.437 3.437 0 0 1 .366-3.837c2.08-2.517 5.763-7.218 5.581-8.716-.245-2.083-3.989-8.354-3.989-8.354a59.338 59.338 0 0 0 4.987-3.676c2.735-2.234 3.572-6.888 3.572-6.888z" class="prefix__cls-2" data-name="Path 13726" transform="translate(-277.922 -90.683)"/>
            </g>
            <g id="prefix__Group_12918" data-name="Group 12918" transform="translate(105.064 16.089)">
                <path id="prefix__Path_13727" d="M287.035 290.34c2.564.272 16.767 5.057 14.1 7.789s-1.512 8.437 2.073 10.192 5.974 7.433 3.9 9.855-6.613 7.651-3.9 9.422 2.554 10.706 0 10.625-4.3 1.109-3.427 5.776.191 6.082-2.322 8.172-27.974 4.684-29.923 0-15.85 1.388-17.02-.719-7.651-11.959-8.794-11.757-3.686-2.537-3.071-6.65 3.777-11.153 3.071-14.869-.843-8.979 2.513-12.927 3.8-1.959 4.237-7.12.541-7.265 5.313-7.964 5.346-2.893 8.347-5.087 6.7-4.822 10.333-2.191 10.541 7.027 14.57 7.453z" data-name="Path 13727" transform="translate(-222.28 -281.786)"/>
                <path id="prefix__Path_13728" d="M250.054 300.011c12.413-1.156 49.97 43.249 44.893 47.483s-21.1-4.288-30.467-17.234-14.426-30.249-14.426-30.249z" class="prefix__cls-2" data-name="Path 13728" transform="translate(-195.135 -238.825)"/>
                <path id="prefix__Path_13729" d="M262.641 299.05c-17.362.79-16.132 29.331-14.7 40.292 3.29 25.215-9.866 41.66-7.473 67.853.474 5.191 53.767 1.885 57.453-3.38 2.036-2.91-9.916-15.806-10.924-32.641-.82-13.626 5.555-23.152 5.289-35.558-.24-11.166-6.48-37.616-29.645-36.566z" class="prefix__cls-2" data-name="Path 13729" transform="translate(-218.461 -241.111)"/>
                <path id="prefix__Path_13730" d="M243.529 329.011c-9.133 5.373 28.747 18.807 31.905 26.18s54.751 9.476 64.227 7.9 23.165-4.247 18.427-16.337c-2.507-6.394-46.179-19.15-63.286-19.1-23.463.074-47.056-1.123-51.273 1.357z" class="prefix__cls-11" data-name="Path 13730" transform="translate(-213.879 -174.059)"/>
                <path id="prefix__Path_13731" d="M245.1 329.18c-9.13 5.373-3.159 17.9 0 25.272s54.751 9.476 64.227 7.9 23.165-4.247 18.428-16.337-73.706-22.1-82.655-16.835z" class="prefix__cls-11" data-name="Path 13731" transform="translate(-218.29 -173.321)"/>
                <path id="prefix__Path_13732" d="M259.387 350.706c3.138-19.234 23.085-21.169 25.853-15.091 3.716 8.169.356 41-2.933 64.375a124.54 124.54 0 0 1-21.542-2.07c-1.929-16.727-3.078-36.804-1.378-47.214z" class="prefix__cls-11" data-name="Path 13732" transform="translate(-175.059 -161.984)"/>
                <path id="prefix__Path_13733" d="M275.8 354.071c-1.872 13.3 1.243 23.545.739 24.439-1.4 2.466-8.669 3.968-11.969.863-1.512-1.421-3.713-13.2-5.349-27.372 7.102 1.299 9.379 2.02 16.579 2.07z" class="prefix__cls-9" data-name="Path 13733" transform="translate(-173.51 -116.064)"/>
                <path id="prefix__Path_13734" d="M290.28 380.567c-1.156 2.587-7.466 2.339-11.045-.433-1.6-1.237-4.926-11.657-8.011-24.543 7.376-1.267 10.82-1.818 17.5-4.859-.564 16.516 2.043 28.743 1.556 29.835z" class="prefix__cls-9" data-name="Path 13734" transform="translate(-145.169 -119.06)"/>
                <path id="prefix__Path_13735" d="M269.33 352.318c1.29-19.446 20.961-23.276 24.294-17.487 4.073 7.067 4.268 34.966 3.485 57.7a86.441 86.441 0 0 1-21.193 6.418c-3.838-16.023-7.299-35.855-6.586-46.631z" class="prefix__cls-11" data-name="Path 13735" transform="translate(-149.861 -162.416)"/>
                <path id="prefix__Path_13736" d="M260.641 364.377c-1.835 9.294 4.486 7.584 6.848 8.357 4.533 1.482 27.819 1.018 28.639-1.845 1.841-6.445-15.165-10.635-20.783-11.62s-14.26 2.856-14.704 5.108z" class="prefix__cls-2" data-name="Path 13736" transform="translate(-170.924 -99.284)"/>
                <path id="prefix__Path_13737" d="M246.588 327.213c.44.38.763.669.921.82 1.892 1.828 4.963-1.5 8.75-2.083s9.862 4.973 9.506 7.933-12.443 2.5-15.064 1.707c-.474-.144-2.345-.958-5.067-2.2-.234-1.906.719-4.063.954-6.177z" class="prefix__cls-9" data-name="Path 13737" transform="translate(-205.654 -177.651)"/>
                <path id="prefix__Path_13738" d="M233.72 358.012c.77-2.52 15.4-39.674 26.657-53.686 5.444-6.774 19.526-2.127 14.57 12.295-1.539 4.483-21.875 38.182-21.912 40.353-.034 1.989 19.721 24.849 23.958 29.691-.521 2.06-3.861 3.572-3.888 5.491-11.448-7.266-40.013-32.081-39.385-34.144z" class="prefix__cls-2" data-name="Path 13738" transform="translate(-233.71 -235.805)"/>
                <path id="prefix__Path_13739" d="M274.833 363.119c-4.6 8.283 3.39 7.678 6.431 8.589 4.57 1.368 24.351 8.5 26.008 6.028 3.736-5.568-17.1-17.409-22.46-19.375-1.632-.599-8.863 2.752-9.979 4.758z" class="prefix__cls-2" data-name="Path 13739" transform="translate(-139.944 -101.221)"/>
                <path id="prefix__Path_13740" d="M246.487 313.326c-.282 4.486 6.1 7.9 8.468 7.5s5.632-1.415 5.833-3.737c.242-2.836 1.273-19.953-2.278-22.718s-11.21 6.062-12.023 18.955z" class="prefix__cls-8" data-name="Path 13740" transform="translate(-203.574 -253.28)"/>
                <g id="prefix__Group_12915" data-name="Group 12915" transform="translate(99.381 42.577)">
                    <path id="prefix__Path_13741" d="M274.362 317.733c1.149-5.168.585-7.937 1.435-11.643.282-1.227 1.408-5.958.726-6.388s-1.942 5.084-2.2 4.661c-.235-.38 1.7-7.634 1.021-7.96s-2.547 6.556-2.792 6.29c-.38-.413 1.552-8.135.911-8.233-1.042-.165-2.073 7.809-2.53 7.661-.306-.1.958-6.112.034-6.472s-2.429 9.093-2.416 10.141-3.7-4.862-5.128-3.669c-.753.632 1.865 4.916 4.331 7.638 1.915 2.117-.181 4.426-1.438 7.7-.753 1.959 7.782 1.71 7.782 1.71z" class="prefix__cls-9" data-name="Path 13741" transform="translate(-263.286 -294.457)"/>
                </g>
                <path id="prefix__Path_13742" d="M249.969 298.374c.366 1.166 1.31 3.434 2.033 5.155 2.07 4.94-2.927 5.091-1.751 7.332 1.082 2.07 3.239 2.782 5.386 3 3.159.316-.46-13.777-2.587-14.993-2.873-1.647-3.081-.494-3.081-.494z" class="prefix__cls-12" data-name="Path 13742" transform="translate(-195.335 -243.563)"/>
                <g id="prefix__Group_12916" data-name="Group 12916" transform="translate(91.28 60.107)">
                    <path id="prefix__Path_13743" d="M278.725 314.909c1.347-9.3 1.942-13.189 1.942-13.189l-7.292-2.046s-9.775 27.92-11.475 34.046-1.734 14.99 3.4 16.653c8.62 2.533 12.078-26.173 13.425-35.464z" class="prefix__cls-2" data-name="Path 13743" transform="translate(-260.875 -299.674)"/>
                </g>
                <path id="prefix__Path_13744" d="M245.293 303.094c-2.288 10.894 3.575 21.344 13.095 23.34s15.373-5.994 17.658-16.888.138-20.565-9.382-22.564-19.086 5.218-21.371 16.112z" class="prefix__cls-9" data-name="Path 13744" transform="translate(-207.541 -270.306)"/>
                <path id="prefix__Path_13745" d="M258.616 293.4c-1.663-.326-7.759 11.216-7.644 12.3s3.468 2.02 5.04.985 2.604-13.285 2.604-13.285z" class="prefix__cls-8" data-name="Path 13745" transform="translate(-192.974 -254.401)"/>
                <path id="prefix__Path_13746" d="M280.928 298.163c-.481 3.444-3.253 6.361-5.662 5.48s-3.622-2.409-4.99 0-2.026 3.512-4.22 3.73-3.827-2.631-5.86 0-3.461-4.593-5.706-4.6-4.879 6.989-2.685 8.316 2.849 3.992.659 3.975-1.764 2.4-3.622 2.614-5.756-2.4-5.756-2.4v-8.35l4.335-8.77 7.07-8.989 5.739-2.849 4.654-1.536 15.43 4.167 1.529 9.207z" data-name="Path 13746" transform="translate(-211.583 -274.699)"/>
                <g id="prefix__Group_12917" data-name="Group 12917" transform="translate(53.935 66.357)">
                    <path id="prefix__Path_13747" d="M256.636 388.748c-.175-1.223-.427-2.594-.706-4.1-1.227-6.65-2.91-15.759-.608-26.411 1.882-8.7 1.327-17.883.79-26.768l-.067-1.072c-.464-7.789-1.936-19.009-6.284-28.209l1.4-.659c4.456 9.419 5.958 20.847 6.431 28.773l.064 1.072c.548 8.992 1.109 18.286-.82 27.184-2.234 10.353-.585 19.284.618 25.806.282 1.529.538 2.92.716 4.163z" class="prefix__cls-12" data-name="Path 13747" transform="translate(-249.761 -301.534)"/>
                </g>
                <path id="prefix__Path_13748" d="M248.093 297.647c3.078 3.3 12.433 9.415 10.423 15.242-.686 1.989-.686 4.214-1.831 3.494-3.138-1.972-11.509-9.3-10.3-14.123a23.958 23.958 0 0 1 1.708-4.613z" class="prefix__cls-12" data-name="Path 13748" transform="translate(-204.078 -244.352)"/>
            </g>
            <g id="prefix__Group_12919" class="prefix__cls-6" data-name="Group 12919" transform="translate(208.262 392.676)">
                <path id="prefix__Path_13749" d="M266.842 401.1c3.985-4.2 9.946-3.458 15.235-3.367 5.847.1 12.577.229 18.4 0 2.1-.081 1.68-3.975-.6-3.874-10.766.477-14.644-.148-22.413.138-4.62.168-10.78.477-12.913 5.336-.615 1.408 1.059 3.064 2.288 1.768z" class="prefix__cls-7" data-name="Path 13749" transform="translate(-264.422 -393.858)"/>
            </g>
            <g id="prefix__Group_12920" class="prefix__cls-6" data-name="Group 12920" transform="translate(248.797 392.674)">
                <path id="prefix__Path_13750" d="M279.153 397.736c5.85.034 12.577.229 18.4 0 2.1-.081 1.68-3.975-.6-3.874-10.766.477-10.141 0-17.913 0-3.616-.004-3.227 3.854.113 3.874z" class="prefix__cls-7" data-name="Path 13750" transform="translate(-276.485 -393.858)"/>
            </g>
            <g id="prefix__Group_12921" data-name="Group 12921" transform="translate(499.895 197.176)">
                <path id="prefix__Path_13751" d="M396.784 336.253q7.51 1.22 11.442 3.317a35.446 35.446 0 0 1 8.72 7.248 38.952 38.952 0 0 1 6.8 9.439 32.685 32.685 0 0 1 3.162 20.306 34.259 34.259 0 0 1-6.358 15.427q-4.914 6.5-14.56 10.763a41.3 41.3 0 0 0-8.972 5.212 21.167 21.167 0 0 0-4.741 6.1c-1.186 2.174-2.167 3.5-2.94 4.005s-2.114.595-4.005.286q-2.238-.363-11.882-3.179t-11.408-3.518a3.351 3.351 0 0 1-2.174-2.019 5.463 5.463 0 0 1-.212-2.534q.292-1.83 4.254-9.52t6.146-9.627q2.45-2.308 8.162-4.093a27.929 27.929 0 0 0 7.745-3.431 9.056 9.056 0 0 0 3.411-4.966l.336-.78.1-.608q.857-5.277-4.422-6.136-4.259-.691-13.249 8.474-3 3.06-4.214 2.86a.851.851 0 0 1-.578-.3l-.608-.1q-3.76-1.235-12.732-12.692-3.095-4.042-2.765-6.072t3.491-6.1a52.842 52.842 0 0 1 32.752-18.226 38.054 38.054 0 0 1 9.299.464zm-26.115 83.891a18.029 18.029 0 0 1 11.116 5.971q4.214 4.854 2.863 13.172a13.741 13.741 0 0 1-1.67 5.148 13.9 13.9 0 0 1-7.262 6.216 17.9 17.9 0 0 1-10.017 1.394q-7.107-1.154-10.743-6.327t-2.591-12.92l.229-1.421a8.82 8.82 0 0 1 3.017-5.759 16.75 16.75 0 0 1 10.7-5.558 13.615 13.615 0 0 1 4.357.084z" class="prefix__cls-2" data-name="Path 13751" transform="translate(-351.212 -335.678)"/>
            </g>
            <g id="prefix__Group_12922" data-name="Group 12922" transform="translate(473.889 83.924)">
                <path id="prefix__Path_13752" d="M362.322 303.459a24.24 24.24 0 0 1 7.419-1.485 22.541 22.541 0 0 1 7.043 1.532 24.645 24.645 0 0 1 6.6 3.327 20.757 20.757 0 0 1 7.735 10.521 21.732 21.732 0 0 1 .934 10.561A22.837 22.837 0 0 1 387 338.248a26.457 26.457 0 0 0-3.528 5.568 13.412 13.412 0 0 0-.884 4.832 7.536 7.536 0 0 1-.487 3.118 3.82 3.82 0 0 1-2.174 1.334q-1.366.454-7.628 1.69t-7.463 1.361a2.138 2.138 0 0 1-1.818-.5 3.526 3.526 0 0 1-.864-1.368 32.437 32.437 0 0 1-.39-6.613q-.025-5.494.642-7.228a13.655 13.655 0 0 1 3.4-4.7 17.716 17.716 0 0 0 3.36-4.2 5.729 5.729 0 0 0 .467-3.8l-.037-.538-.124-.37q-1.063-3.231-4.291-2.164-2.606.857-4.986 8.663-.791 2.6-1.539 2.843a.516.516 0 0 1-.413 0l-.37.124q-2.485.4-10.9-3.424-2.929-1.371-3.337-2.614a10.486 10.486 0 0 1 .178-4.462 33.565 33.565 0 0 1 13.125-19.876 24.272 24.272 0 0 1 5.383-2.465zm9.862 54.946a11.437 11.437 0 0 1 8.014.111q3.8 1.5 5.474 6.586a8.7 8.7 0 0 1 .568 3.39 8.842 8.842 0 0 1-2.272 5.635 11.342 11.342 0 0 1-5.239 3.72 9.844 9.844 0 0 1-7.91-.417 11.174 11.174 0 0 1-5.249-6.525l-.286-.87a5.606 5.606 0 0 1 .013-4.13 10.633 10.633 0 0 1 4.4-6.267 8.693 8.693 0 0 1 2.488-1.232z" class="prefix__cls-4" data-name="Path 13752" transform="translate(-343.472 -301.974)"/>
            </g>
            <g id="prefix__Group_12923" data-name="Group 12923" transform="translate(527.133)">
                <path id="prefix__Path_13753" d="M387.9 278.1a17.163 17.163 0 0 1 4.731 2.463 16 16 0 0 1 3.189 3.952 17.476 17.476 0 0 1 2.154 4.741 14.622 14.622 0 0 1-.4 9.193 15.275 15.275 0 0 1-4.15 6.21 16.064 16.064 0 0 1-7.339 3.441 18.6 18.6 0 0 0-4.4 1.5 9.526 9.526 0 0 0-2.621 2.261 5.334 5.334 0 0 1-1.643 1.5 2.713 2.713 0 0 1-1.784-.228q-.948-.353-4.936-2.44t-4.7-2.55a1.493 1.493 0 0 1-.773-1.079 2.472 2.472 0 0 1 .128-1.132 23.015 23.015 0 0 1 2.705-3.8 17.134 17.134 0 0 1 3.548-3.683 9.607 9.607 0 0 1 3.945-1.079 12.453 12.453 0 0 0 3.7-.823 4.047 4.047 0 0 0 1.935-1.878l.215-.313.1-.259a2.114 2.114 0 0 0-1.4-3.081q-1.809-.681-6.563 2.55c-1.055.719-1.757 1.015-2.1.884a.382.382 0 0 1-.228-.181l-.259-.1q-1.537-.877-4.469-6.694-1-2.046-.679-2.91a7.4 7.4 0 0 1 2.07-2.372 23.675 23.675 0 0 1 15.984-5.114 17.232 17.232 0 0 1 4.04 1.021zm-18.86 34.523a8.066 8.066 0 0 1 4.355 3.6q1.421 2.5.094 6.035a6.082 6.082 0 0 1-1.186 2.11 6.221 6.221 0 0 1-3.733 2.09 8.031 8.031 0 0 1-4.52-.272 6.935 6.935 0 0 1-4.16-3.723 7.866 7.866 0 0 1 0-5.9l.228-.6a3.963 3.963 0 0 1 1.831-2.265 7.5 7.5 0 0 1 5.185-1.5 6.064 6.064 0 0 1 1.906.425z" class="prefix__cls-2" data-name="Path 13753" transform="translate(-359.318 -276.998)"/>
            </g>
            <g id="prefix__Group_12924" data-name="Group 12924" transform="translate(0 171.585)">
                <path id="prefix__Path_13754" d="M231.7 329.5q3.584-1.583 4.849-1.428c.457-.04 1.008.665 1.653 2.13q1.769 3.992 5.652 16.572 17.918 54.053 20.107 73.582l.279 4.405-11.767 5.195-7.288 3.458q-3.79 1.673-5.682 1.438t-3.525-2.849a87.688 87.688 0 0 1-4.714-9.6l-2.819-6.381q-6.608-14.954-14.829-34.919t-9.849-24.724q-1.653-4.279-1.247-6.6 1.094-4.536 13.753-12.036A145.667 145.667 0 0 1 231.7 329.5zm17.591 107.823q9.173-4.047 16.274-1.468t10.712 10.759a21.735 21.735 0 0 1 .433 17.446 22.023 22.023 0 0 1-12.01 12.46 17.352 17.352 0 0 1-5.736 1.583 23.257 23.257 0 0 1-13.212-2.389q-6.925-3.256-9.123-8.246a20.674 20.674 0 0 1-.964-13.515 25.444 25.444 0 0 1 7.288-12.638 21.139 21.139 0 0 1 6.342-3.988z" class="prefix__cls-4" data-name="Path 13754" transform="translate(-202.443 -328.062)"/>
            </g>
            <g id="prefix__Group_12925" data-name="Group 12925" transform="translate(41.152 82.739)">
                <path id="prefix__Path_13755" d="M254.916 303.63a5.731 5.731 0 0 1 2.261.934c.185.121.178.558-.023 1.3q-.549 2.041-2.9 7.96-9.652 25.807-14.758 33.831l-1.233 1.744-6.011-1.613-3.794-.911a5.814 5.814 0 0 1-2.577-1.183 2.531 2.531 0 0 1-.464-2.144 42.051 42.051 0 0 1 1.136-5.047l.877-3.263q2.046-7.636 5.01-17.658t3.794-12.305a6.514 6.514 0 0 1 1.536-2.866q1.789-1.376 8.834-.359a70.09 70.09 0 0 1 8.312 1.58zm-26.1 45.968q4.687 1.26 6.579 4.388a9.051 9.051 0 0 1 .77 7.305 10.523 10.523 0 0 1-5.134 6.709 10.678 10.678 0 0 1-8.31 1.045 8.392 8.392 0 0 1-2.641-1.146 11.25 11.25 0 0 1-4.254-4.909 8.442 8.442 0 0 1-.934-5.877 10.026 10.026 0 0 1 3.74-5.386 12.316 12.316 0 0 1 6.583-2.547 10.2 10.2 0 0 1 3.598.42z" class="prefix__cls-2" data-name="Path 13755" transform="translate(-214.69 -301.621)"/>
            </g>
        </g>
        <g id="prefix__Group_12930" data-name="Group 12930" transform="translate(445.804 301.829)">
            <g id="prefix__Group_12929" data-name="Group 12929">
                <path id="prefix__Path_13756" d="M334.436 412.11l5.447-15.981a19.709 19.709 0 0 1 10.286-13.829 51.781 51.781 0 1 0-62.9-12.517 20.212 20.212 0 0 1 4.573 16.976l-.961 16.841c13.719 3.853 28.774 7.808 43.555 8.51z" class="prefix__cls-13" data-name="Path 13756" transform="translate(-274.867 -284.388)"/>
                <path id="prefix__Path_13757" d="M331.411 308.668a1.045 1.045 0 0 0-1.425-.39l-27.315 15.578-17.871-24.372a1.043 1.043 0 0 0-1.683 1.233l18.145 24.755-6.435 32.97a1.044 1.044 0 0 0 2.05.4l6.432-32.95 27.708-15.8a1.048 1.048 0 0 0 .394-1.424z" class="prefix__cls-7" data-name="Path 13757" transform="translate(-255.861 -249.762)"/>
                <path id="prefix__Path_13758" d="M280.436 319.865l-.8 13.979a18.21 18.21 0 0 0 14.381 21.356l4.1.8a18.207 18.207 0 0 0 21.358-14.382l4.513-13.246c-14.782-.698-29.839-4.653-43.552-8.507z" class="prefix__cls-13" data-name="Path 13758" transform="translate(-264.418 -200.654)"/>
                <g id="prefix__Group_12927" data-name="Group 12927" transform="translate(6.081 94.809)">
                    <rect id="prefix__Rectangle_3616" width="56.786" height="15.289" class="prefix__cls-7" data-name="Rectangle 3616" rx="1.462" transform="rotate(11.07 4.19 43.224)"/>
                    <rect id="prefix__Rectangle_3617" width="56.786" height="15.289" class="prefix__cls-7" data-name="Rectangle 3617" rx="1.462" transform="rotate(11.045 -69.346 36.212)"/>
                    <rect id="prefix__Rectangle_3618" width="56.786" height="15.289" class="prefix__cls-7" data-name="Rectangle 3618" rx="1.462" transform="rotate(11.045 -142.88 29.103)"/>
                    <path id="prefix__Path_13759" d="M332.234 315.629a4.878 4.878 0 0 1 .007 1.912L331.2 322.9a4.912 4.912 0 0 1-5.763 3.881l-46.092-9a5.1 5.1 0 0 1-.759-.232 4.916 4.916 0 0 0 3.871 3.854l46.092 9a4.912 4.912 0 0 0 5.763-3.881l1.048-5.36a4.905 4.905 0 0 0-3.126-5.533z" class="prefix__cls-13" data-name="Path 13759" transform="translate(-272.184 -305.461)"/>
                    <path id="prefix__Path_13760" d="M331.422 319.77a4.879 4.879 0 0 1 .01 1.912l-1.048 5.363a4.914 4.914 0 0 1-5.763 3.881l-46.089-9a4.727 4.727 0 0 1-.759-.229 4.907 4.907 0 0 0 3.871 3.851l46.089 9a4.914 4.914 0 0 0 5.766-3.881l1.045-5.363a4.906 4.906 0 0 0-3.122-5.534z" class="prefix__cls-13" data-name="Path 13760" transform="translate(-274.091 -295.687)"/>
                    <path id="prefix__Path_13761" d="M330.615 323.924a4.86 4.86 0 0 1 .007 1.909l-1.045 5.363a4.914 4.914 0 0 1-5.766 3.881l-46.089-9a5.136 5.136 0 0 1-.759-.232 4.911 4.911 0 0 0 3.871 3.854l46.092 9a4.912 4.912 0 0 0 5.763-3.881l1.045-5.363a4.9 4.9 0 0 0-3.119-5.531z" class="prefix__cls-13" data-name="Path 13761" transform="translate(-276.005 -285.883)"/>
                </g>
                <g id="prefix__Group_12928" data-name="Group 12928" transform="translate(31.615 44.49)">
                    <path id="prefix__Path_13762" d="M284.992 301.775c.615-.88.827-.685 1.505.03 1.374 1.455.259.148.642 1.324a4.632 4.632 0 0 0 .181.706 2.183 2.183 0 0 0 1.643 1.089c2.339.356 4.3-2.665 5.729-4.049.272-.265.7-.857 1.042-.985.578-.218.393-.218.467.161.087.437-.514 1.492-.655 1.929a15.026 15.026 0 0 0-.877 4.328 7.372 7.372 0 0 0 2.671 6.1 5.007 5.007 0 0 0 5.521.733c1.945-1.072 2.611-3.182 3.34-5.134a7.8 7.8 0 0 1 1.472-2.883c.783-.766 1.119-.736 1.058.316-.044.82-.255 1.626-.279 2.453-.06 2.12 1.129 4.523 3.5 4.617a3.452 3.452 0 0 0 2.47-.985c.722-.645 1.189-1.878 1.993-2.392 1.781-1.136 4.3 4.247 6.361 1.25a.688.688 0 0 0-.558-1.122c-2.463-.1-3.182-3.629-6.035-2.806-1.358.393-3.444 4.1-4.681 3-1.845-1.636 1.186-5.363-1.263-7.023-1.714-1.159-3.821.171-4.849 1.6-1.267 1.754-1.415 4.069-2.695 5.79-2.208 2.964-5.195-.511-5.326-3.058a15.771 15.771 0 0 1 .723-4.634c.272-1.055.726-2.228.3-3.316-.7-1.784-2.668-1.287-3.837-.265-1.391 1.216-2.322 3.108-3.814 4.2-.289.138-.578.276-.867.41-.669.672-1.052.591-1.142-.249-.42-.786-.134-.511-.3-1.052a2.993 2.993 0 0 0-.474-1.105 2.109 2.109 0 0 0-3.653.568c-.181.407.4.86.682.457z" class="prefix__cls-7" data-name="Path 13762" transform="translate(-284.276 -297.628)"/>
                </g>
                <path id="prefix__Path_13763" d="M304.5 291.471a2.411 2.411 0 0 0-2.729-3.747c-6.888 2.554-15.759 7.2-20.948 15.239-9.378 14.519 2.631 20.044 10.36 8.374 4.817-7.259 9.23-14.665 13.317-19.866z" class="prefix__cls-7" data-name="Path 13763" transform="translate(-268.895 -276.887)"/>
            </g>
        </g>
    </g>
</svg>
