<svg xmlns="http://www.w3.org/2000/svg" width="717.932" height="462.227" viewBox="0 0 717.932 462.227">
    <defs>
        <style>
            .prefix__cls-1{fill:#93c7ea}.prefix__cls-2{fill:#ff8383}.prefix__cls-3{fill:#d15e79}.prefix__cls-4{fill:#86294e}.prefix__cls-5{fill:#ffd2d4}.prefix__cls-12,.prefix__cls-7{fill:#da2419}.prefix__cls-8{fill:#ff6b6b}.prefix__cls-9{fill:#e0eef7}.prefix__cls-10{fill:#6eacce}.prefix__cls-12,.prefix__cls-13{stroke:#da2419;stroke-linecap:round;stroke-linejoin:round}.prefix__cls-12{stroke-width:2.761px}.prefix__cls-13{fill:none;stroke-width:.658px}
        </style>
    </defs>
    <g id="prefix__Group_13172" data-name="Group 13172" transform="translate(-890.013 -3295)">
        <g id="prefix__Group_12991" data-name="Group 12991" transform="translate(1122.66 3475.896)">
            <g id="prefix__Group_12962" data-name="Group 12962" transform="translate(0 143.11)">
                <path id="prefix__Path_13864" d="M372.575 446.991a23.165 23.165 0 0 0 28.6-15.983l18.38-64.96a23.166 23.166 0 0 0-15.983-28.6 23.168 23.168 0 0 0-28.6 15.983l-18.38 64.961a23.164 23.164 0 0 0 15.983 28.599z" class="prefix__cls-1" data-name="Path 13864" transform="translate(-291.583 -330.645)"/>
                <path id="prefix__Path_13865" d="M453.235 440.733a23.166 23.166 0 0 0 .318-32.76l-47.272-48.2a23.166 23.166 0 0 0-32.76-.318 23.164 23.164 0 0 0-.318 32.759l47.272 48.2a23.166 23.166 0 0 0 32.76.319z" class="prefix__cls-1" data-name="Path 13865" transform="translate(-346.009 -324.934)"/>
                <g id="prefix__Group_12961" data-name="Group 12961">
                    <path id="prefix__Path_13866" d="M417.214 351.733a20.3 20.3 0 1 0 28.145-5.644 20.3 20.3 0 0 0-28.145 5.644z" class="prefix__cls-2" data-name="Path 13866" transform="translate(-404.059 -328.497)"/>
                    <path id="prefix__Path_13867" d="M416.518 360.062a5.289 5.289 0 0 0 6.441-3.8l1.8-6.984a5.289 5.289 0 0 0-3.8-6.441 5.289 5.289 0 0 0-6.442 3.8l-1.8 6.984a5.289 5.289 0 0 0 3.801 6.441z" class="prefix__cls-2" data-name="Path 13867" transform="translate(-372.874 -328.504)"/>
                    <path id="prefix__Path_13868" d="M421.057 339.694l7.193 18.206a5.49 5.49 0 0 0 7.124 3.09 5.492 5.492 0 0 0 3.09-7.125l-7.192-18.207a5.489 5.489 0 0 0-7.123-3.089 5.49 5.49 0 0 0-3.092 7.125z" class="prefix__cls-2" data-name="Path 13868" transform="translate(-397.772 -332.185)"/>
                    <path id="prefix__Path_13869" d="M429.657 342.627l8.685 17.544a5.488 5.488 0 0 0 7.356 2.485 5.49 5.49 0 0 0 2.485-7.357l-8.683-17.545a5.493 5.493 0 0 0-7.357-2.485 5.49 5.49 0 0 0-2.486 7.358z" class="prefix__cls-2" data-name="Path 13869" transform="translate(-419.046 -331.302)"/>
                    <path id="prefix__Path_13870" d="M435.148 350.107l12.13 15.366a5.492 5.492 0 0 0 7.713.908 5.492 5.492 0 0 0 .907-7.713L443.769 343.3a5.493 5.493 0 0 0-7.713-.908 5.492 5.492 0 0 0-.908 7.715z" class="prefix__cls-2" data-name="Path 13870" transform="translate(-433.967 -329.013)"/>
                </g>
            </g>
            <g id="prefix__Group_12982" data-name="Group 12982" transform="translate(82.914)">
                <g id="prefix__Group_12963" data-name="Group 12963" transform="translate(36.621 73.544)">
                    <path id="prefix__Rectangle_3627" d="M7.1 0h12.865a7.1 7.1 0 0 1 7.1 7.1v44.379H0V7.1A7.1 7.1 0 0 1 7.1 0z" class="prefix__cls-2" data-name="Rectangle 3627" transform="rotate(177.44 14.019 26.742)"/>
                    <path id="prefix__Path_13871" d="M342.273 281.763l27.042-1.063.417 10.622c.409 10.408-8.063 19.544-18.452 18.787a18.779 18.779 0 0 1-1.942-.243 18.969 18.969 0 0 1-6.048-2.212z" class="prefix__cls-3" data-name="Path 13871" transform="translate(-342.273 -280.7)"/>
                </g>
                <g id="prefix__Group_12981" data-name="Group 12981">
                    <ellipse id="prefix__Ellipse_251" cx="33.723" cy="25.974" data-name="Ellipse 251" rx="33.723" ry="25.974" transform="scale(-1) rotate(15.79 251.787 -325.82)"/>
                    <ellipse id="prefix__Ellipse_252" cx="29.962" cy="19.503" data-name="Ellipse 252" rx="29.962" ry="19.503" transform="rotate(-170.4 32.463 32.3)"/>
                    <ellipse id="prefix__Ellipse_253" cx="29.962" cy="19.503" data-name="Ellipse 253" rx="29.962" ry="19.503" transform="rotate(-137.22 42.686 23.261)"/>
                    <path id="prefix__Path_13872" d="M339.845 285.64c-2.662 14.917 5.145 28.79 17.436 30.983 12.289 2.193 24.411-8.123 27.073-23.039l2.094-11.741c2.662-14.917-5.143-28.79-17.43-30.983-12.292-2.193-24.416 8.123-27.078 23.041z" class="prefix__cls-2" data-name="Path 13872" transform="translate(-318.89 -217.739)"/>
                    <path id="prefix__Path_13873" d="M335.074 250.306c6.8-6.152 18.629-3.177 26.425 6.647s8.606 22.774 1.808 28.928-18.628 3.178-26.424-6.647-8.606-22.775-1.809-28.928z" data-name="Path 13873" transform="translate(-287.866 -218.955)"/>
                    <g id="prefix__Group_12980" data-name="Group 12980" transform="translate(11.644 54.042)">
                        <g id="prefix__Group_12974" data-name="Group 12974" transform="translate(0 .938)">
                            <g id="prefix__Group_12967" data-name="Group 12967" transform="translate(8.52 5.991)">
                                <g id="prefix__Group_12964" data-name="Group 12964" transform="translate(14.414 .007)">
                                    <path id="prefix__Path_13874" d="M365.32 275.009a1.232 1.232 0 0 0 .708-2.244 8 8 0 0 0-8.241-.351 1.237 1.237 0 0 0 1.244 2.138 5.486 5.486 0 0 1 5.591.245 1.233 1.233 0 0 0 .698.212z" class="prefix__cls-4" data-name="Path 13874" transform="translate(-357.174 -271.4)"/>
                                </g>
                                <g id="prefix__Group_12965" data-name="Group 12965">
                                    <path id="prefix__Path_13875" d="M369.077 275.015a1.218 1.218 0 0 0 .7-.218 5.484 5.484 0 0 1 5.591-.245 1.237 1.237 0 0 0 1.244-2.138 7.954 7.954 0 0 0-8.241.351 1.235 1.235 0 0 0 .707 2.248z" class="prefix__cls-4" data-name="Path 13875" transform="translate(-367.84 -271.395)"/>
                                </g>
                                <g id="prefix__Group_12966" data-name="Group 12966" transform="translate(16.983 5.602)">
                                    <path id="prefix__Path_13876" d="M360.309 276.88a1.289 1.289 0 1 0 1.238-1.338 1.289 1.289 0 0 0-1.238 1.338z" class="prefix__cls-4" data-name="Path 13876" transform="translate(-360.308 -275.541)"/>
                                </g>
                                <path id="prefix__Path_13877" d="M369.461 277.24a1.289 1.289 0 1 0 1.239-1.34 1.289 1.289 0 0 0-1.239 1.34z" class="prefix__cls-4" data-name="Path 13877" transform="translate(-364.844 -269.813)"/>
                            </g>
                            <g id="prefix__Group_12971" data-name="Group 12971">
                                <g id="prefix__Group_12968" data-name="Group 12968" transform="translate(0 2.105)">
                                    <path id="prefix__Path_13878" d="M376.21 288.8c.136 0 .274 0 .412-.01a10.042 10.042 0 1 0-.412.01zm.022-18.57a8.428 8.428 0 0 1 .323 16.849 8.553 8.553 0 0 1-6.053-2.234 8.426 8.426 0 0 1 5.387-14.609l.343-.002z" class="prefix__cls-5" data-name="Path 13878" transform="translate(-366.079 -268.519)"/>
                                </g>
                                <g id="prefix__Group_12969" data-name="Group 12969" transform="translate(20.543)">
                                    <path id="prefix__Path_13879" d="M360.408 289.741c.153 0 .307 0 .459-.011a11.387 11.387 0 0 0 7.283-19.74 11.39 11.39 0 0 0-16.091.631 11.39 11.39 0 0 0 8.349 19.119zm.024-20.849a9.459 9.459 0 0 1 9.443 9.09 9.472 9.472 0 0 1-9.084 9.825 9.461 9.461 0 1 1-.743-18.907c.128-.008.252-.008.384-.008z" class="prefix__cls-5" data-name="Path 13879" transform="translate(-349.032 -266.962)"/>
                                </g>
                                <g id="prefix__Group_12970" data-name="Group 12970" transform="translate(17.403 11.404)">
                                    <path id="prefix__Path_13880" d="M368.911 277.166l-4.189.165a.881.881 0 0 1-.916-.847.881.881 0 0 1 .846-.916l4.189-.165a.882.882 0 0 1 .917.847.883.883 0 0 1-.847.916z" class="prefix__cls-5" data-name="Path 13880" transform="translate(-363.805 -275.402)"/>
                                </g>
                            </g>
                            <g id="prefix__Group_12972" data-name="Group 12972" transform="translate(14.113 16.751)">
                                <path id="prefix__Path_13881" d="M365.314 281.714c.119 1.472 1.828 2.812 3.816 3s3.5-.862 3.385-2.334-1.828-2.813-3.817-3-3.503.861-3.384 2.334z" class="prefix__cls-4" data-name="Path 13881" transform="translate(-365.307 -279.359)"/>
                            </g>
                            <g id="prefix__Group_12973" data-name="Group 12973" transform="translate(14.963 25.57)">
                                <path id="prefix__Path_13882" d="M360.657 287.336a6.461 6.461 0 0 0 6.941 5.92c3.7-.146 5.834-3.809 5.7-7.225a32.036 32.036 0 0 0-12.641 1.305z" class="prefix__cls-4" data-name="Path 13882" transform="translate(-360.657 -285.885)"/>
                                <path id="prefix__Path_13883" d="M367.419 289.475c2.925-.339 4.728-1.342 4.9-3.54a31.866 31.866 0 0 0-10.67 1.186c.498 1.979 2.904 2.685 5.77 2.354z" class="prefix__cls-5" data-name="Path 13883" transform="translate(-361.012 -285.886)"/>
                            </g>
                        </g>
                        <g id="prefix__Group_12979" data-name="Group 12979" transform="translate(28.249)">
                            <g id="prefix__Group_12977" data-name="Group 12977" transform="translate(0 26.544)">
                                <g id="prefix__Group_12975" data-name="Group 12975" transform="translate(.882)">
                                    <path id="prefix__Path_13884" fill="#201028" d="M344.929 294.612l7.271-.007a11.8 11.8 0 0 0 7.927-3.051l4.549-4.106a.882.882 0 0 0-1.182-1.309l-4.549 4.106a10.047 10.047 0 0 1-6.745 2.6l-7.271.007a.882.882 0 1 0 0 1.765z" data-name="Path 13884" transform="translate(-344.047 -285.912)"/>
                                </g>
                                <g id="prefix__Group_12976" data-name="Group 12976" transform="translate(0 6.049)">
                                    <path id="prefix__Path_13885" d="M357.155 293.922h2.947a1.765 1.765 0 0 0 0-3.531h-2.947a1.765 1.765 0 0 0 0 3.529z" class="prefix__cls-5" data-name="Path 13885" transform="translate(-355.39 -290.389)"/>
                                </g>
                            </g>
                            <g id="prefix__Group_12978" data-name="Group 12978" transform="translate(6.513)">
                                <circle id="prefix__Ellipse_254" cx="14.782" cy="14.782" r="14.782" class="prefix__cls-7" data-name="Ellipse 254" transform="rotate(-109.908 18.312 15.401)"/>
                                <ellipse id="prefix__Ellipse_255" cx="12.619" cy="11.537" class="prefix__cls-8" data-name="Ellipse 255" rx="12.619" ry="11.537" transform="rotate(-92.252 20.37 11.118)"/>
                                <path id="prefix__Path_13886" d="M335.221 281.637c.111 2.821 1.975 5.039 4.164 4.952s3.872-2.443 3.762-5.264-1.975-5.039-4.164-4.952-3.872 2.443-3.762 5.264z" class="prefix__cls-9" data-name="Path 13886" transform="translate(-315.93 -262.719)"/>
                            </g>
                        </g>
                    </g>
                </g>
            </g>
            <g id="prefix__Group_12983" data-name="Group 12983" transform="translate(85.737 102.735)">
                <path id="prefix__Path_13887" d="M326.951 476.864l70.708 1.992a21.36 21.36 0 0 0 20.5-22.183L413.7 338.344a14.7 14.7 0 0 0-10.233-13.435l-52.713-16.784-42.139 20.195a14.7 14.7 0 0 0-8.338 13.839l4.491 114.2a21.36 21.36 0 0 0 22.183 20.505z" class="prefix__cls-1" data-name="Path 13887" transform="translate(-300.149 -300.259)"/>
                <path id="prefix__Path_13888" d="M367.911 333.313c-.243 12.339-.1 24.662.1 36.984.162 12.322.6 24.634 1.04 36.946.524 12.308 1.055 24.616 1.858 36.912.182 2.989.332 6.357 1.462 9.416a21.436 21.436 0 0 0 22.212 14.447 21.444 21.444 0 0 1-15.9-7.461 20.06 20.06 0 0 1-4.191-7.669c-.865-2.812-.84-5.693-.87-8.84-.164-12.322-.6-24.634-1.046-36.946-.528-12.307-1.058-24.615-1.865-36.913-.764-12.298-1.589-24.589-2.8-36.876z" class="prefix__cls-10" data-name="Path 13888" transform="translate(-367.783 -291.413)"/>
                <path id="prefix__Rectangle_3628" d="M0 0h38.241v24.06a3.787 3.787 0 0 1-3.787 3.787H3.786A3.786 3.786 0 0 1 0 24.06V0z" class="prefix__cls-1" data-name="Rectangle 3628" transform="rotate(176.309 34.259 15.013)"/>
            </g>
            <g id="prefix__Group_12990" data-name="Group 12990" transform="translate(93.628 137.743)">
                <g id="prefix__Group_12984" data-name="Group 12984" transform="translate(77.673)">
                    <path id="prefix__Path_13889" d="M327.728 435.124a23.164 23.164 0 0 0 12.508-30.278L314.343 342.5a23.166 23.166 0 0 0-30.279-12.508 23.166 23.166 0 0 0-12.509 30.278l25.894 62.348a23.165 23.165 0 0 0 30.279 12.506z" class="prefix__cls-1" data-name="Path 13889" transform="translate(-268.35 -328.212)"/>
                    <path id="prefix__Path_13890" d="M318.473 329.528a22.769 22.769 0 0 0-10.7 7.517 23.931 23.931 0 0 0-4.87 12.512c-.612 4.535.846 9.369 2.513 13.271l4.89 12.031c3.358 7.98 6.721 15.956 10.337 23.828l5.436 11.805c1.931 3.885 3.75 7.817 5.78 11.659-1.29-4.149-2.793-8.214-4.182-12.323l-4.526-12.182c-3.024-8.119-6.3-16.132-9.585-24.142l-5.071-11.957a33.787 33.787 0 0 1-2.193-5.817 22.485 22.485 0 0 1-.7-6.022 23.531 23.531 0 0 1 12.871-20.18z" class="prefix__cls-10" data-name="Path 13890" transform="translate(-302.759 -327.75)"/>
                </g>
                <g id="prefix__Group_12989" data-name="Group 12989" transform="translate(0 43.896)">
                    <g id="prefix__Group_12987" data-name="Group 12987" transform="translate(3.703)">
                        <g id="prefix__Group_12985" data-name="Group 12985" transform="translate(24.152 8.208)">
                            <path id="prefix__Path_13891" d="M347.227 388.907l11.8-.761a8.045 8.045 0 0 0 7.5-8.537l-.343-5.318a8.045 8.045 0 0 0-8.536-7.5l-11.8.761zm10.76-16.833a2.744 2.744 0 0 1 2.91 2.559l.343 5.318a2.743 2.743 0 0 1-2.558 2.91l-6.513.42-.7-10.788z" class="prefix__cls-4" data-name="Path 13891" transform="translate(-345.851 -366.774)"/>
                        </g>
                        <g id="prefix__Group_12986" data-name="Group 12986">
                            <path id="prefix__Path_13892" d="M367.357 408.006l10.2-.658a11.242 11.242 0 0 0 10.495-11.942l-2.116-32.8c-.235-3.659-32.875-1.554-32.638 2.105l2.115 32.8a11.242 11.242 0 0 0 11.944 10.495z" class="prefix__cls-3" data-name="Path 13892" transform="translate(-353.299 -360.699)"/>
                            <path id="prefix__Path_13893" d="M356.826 365.21c.085 1.319 6.145 2 13.535 1.523s13.311-1.931 13.227-3.248-6.145-2-13.535-1.523-13.312 1.93-13.227 3.248z" class="prefix__cls-4" data-name="Path 13893" transform="translate(-353.574 -360.309)"/>
                        </g>
                    </g>
                    <path id="prefix__Path_13894" d="M384.678 397.848a23.164 23.164 0 0 0-23.528-22.8l-67.5 1.065a23.167 23.167 0 0 0-22.8 23.528 23.165 23.165 0 0 0 23.528 22.8l67.5-1.066a23.165 23.165 0 0 0 22.8-23.527z" class="prefix__cls-1" data-name="Path 13894" transform="translate(-234.791 -355.66)"/>
                    <path id="prefix__Path_13895" d="M378.66 375.323c-8.668-.592-17.329-.8-25.99-.942-8.661-.186-17.318-.095-25.975 0l-12.984.3c-4.241.03-9.261.609-13.177 2.977a23.973 23.973 0 0 0-9.542 9.452 22.788 22.788 0 0 0-2.631 12.813 23.54 23.54 0 0 1 13.392-19.84 22.76 22.76 0 0 1 5.8-1.757 33.955 33.955 0 0 1 6.21-.3l12.986-.112c8.656-.181 17.312-.364 25.963-.823 8.653-.426 17.303-.903 25.948-1.768z" class="prefix__cls-10" data-name="Path 13895" transform="translate(-252.301 -355.932)"/>
                    <g id="prefix__Group_12988" data-name="Group 12988" transform="translate(0 10.339)">
                        <circle id="prefix__Ellipse_256" cx="20.297" cy="20.297" r="20.297" class="prefix__cls-2" data-name="Ellipse 256" transform="scale(-1) rotate(50.31 45.676 -60.818)"/>
                        <path id="prefix__Path_13896" d="M355.8 386.385a4.853 4.853 0 0 0 3-6.174l-2.163-6.255a4.854 4.854 0 0 0-6.175-3 4.852 4.852 0 0 0-3 6.174l2.165 6.255a4.853 4.853 0 0 0 6.173 3z" class="prefix__cls-2" data-name="Path 13896" transform="translate(-312.329 -367.53)"/>
                        <path id="prefix__Path_13897" d="M365.541 386.9l18.014 1.677a5.075 5.075 0 0 0 5.522-4.577 5.075 5.075 0 0 0-4.583-5.524l-18.013-1.676a5.074 5.074 0 0 0-5.522 4.582 5.074 5.074 0 0 0 4.582 5.518z" class="prefix__cls-2" data-name="Path 13897" transform="translate(-360.937 -365.392)"/>
                        <path id="prefix__Path_13898" d="M364.074 399.467l18.055-1.165a5.073 5.073 0 0 0 4.736-5.39 5.074 5.074 0 0 0-5.39-4.737l-18.053 1.165a5.073 5.073 0 0 0-4.737 5.39 5.073 5.073 0 0 0 5.389 4.737z" class="prefix__cls-2" data-name="Path 13898" transform="translate(-355.654 -361.393)"/>
                    </g>
                </g>
            </g>
        </g>
        <g id="prefix__Group_13001" data-name="Group 13001" transform="translate(998.018 3599.176)">
            <g id="prefix__Group_12996" data-name="Group 12996">
                <g id="prefix__Group_12992" data-name="Group 12992" transform="translate(20.777 20.773)">
                    <path id="prefix__Path_13899" d="M532.177 357.331a2.117 2.117 0 0 0 1.5-3.613L513.463 333.5a2.116 2.116 0 0 0-2.993 2.993l20.211 20.214a2.1 2.1 0 0 0 1.496.624z" class="prefix__cls-7" data-name="Path 13899" transform="translate(-509.85 -332.883)"/>
                </g>
                <g id="prefix__Group_12995" data-name="Group 12995">
                    <g id="prefix__Group_12993" data-name="Group 12993" transform="translate(55.38)">
                        <path id="prefix__Path_13900" d="M501.316 350.327a2.116 2.116 0 0 0 2.116-2.116v-28.585a2.117 2.117 0 1 0-4.233 0v28.585a2.117 2.117 0 0 0 2.117 2.116z" class="prefix__cls-7" data-name="Path 13900" transform="translate(-499.199 -317.509)"/>
                    </g>
                    <g id="prefix__Group_12994" data-name="Group 12994" transform="translate(0 55.38)">
                        <path id="prefix__Path_13901" d="M521.144 362.728h28.587a2.117 2.117 0 1 0 0-4.233h-28.587a2.117 2.117 0 1 0 0 4.233z" class="prefix__cls-7" data-name="Path 13901" transform="translate(-519.027 -358.495)"/>
                    </g>
                </g>
            </g>
            <g id="prefix__Group_13000" data-name="Group 13000" transform="translate(50.042 54.117)">
                <g id="prefix__Group_12998" data-name="Group 12998">
                    <path id="prefix__Path_13902" d="M528.59 429.728h-174.9c-4.878 0-6.382-3.952-6.382-8.833h190.118a8.833 8.833 0 0 1-8.836 8.833z" class="prefix__cls-10" data-name="Path 13902" transform="translate(-322.622 -335.317)"/>
                    <path id="prefix__Path_13903" d="M405.066 420.9h-62c0 4.88 4.491 8.833 10.033 8.833h52.229c5.717-.088 5.453-8.833-.262-8.833z" class="prefix__cls-10" data-name="Path 13903" transform="translate(-188.954 -335.317)"/>
                    <g id="prefix__Group_12997" data-name="Group 12997">
                        <path id="prefix__Path_13904" d="M539.588 445.708h-125.56a7.763 7.763 0 0 1-7.625-6.316l-16.923-72.618a7.763 7.763 0 0 1 7.628-9.214h125.555a7.764 7.764 0 0 1 7.63 6.317l16.921 72.616a7.766 7.766 0 0 1-7.626 9.215z" class="prefix__cls-9" data-name="Path 13904" transform="translate(-389.34 -357.56)"/>
                        <path id="prefix__Path_13905" d="M395.675 363.5a7.75 7.75 0 0 0-3.1-4.852 7.735 7.735 0 0 0-3.1 7.749l16.92 72.619a7.747 7.747 0 0 0 3.093 4.847 7.745 7.745 0 0 0 3.1-7.746z" class="prefix__cls-10" data-name="Path 13905" transform="translate(-254.722 -357.179)"/>
                        <path id="prefix__Path_13906" fill="#fff" d="M447.158 401.011h20.591a7.65 7.65 0 0 0 7.649-7.649 7.649 7.649 0 0 0-7.649-7.648h-20.591a7.649 7.649 0 0 0-7.649 7.648 7.65 7.65 0 0 0 7.649 7.649z" data-name="Path 13906" transform="translate(-385.173 -347.672)"/>
                    </g>
                </g>
                <g id="prefix__Group_12999" data-name="Group 12999" transform="translate(159.005 83.6)">
                    <path id="prefix__Path_13907" d="M356.2 423.844h6.178a2.206 2.206 0 0 0 2.206-2.207 2.206 2.206 0 0 0-2.206-2.206H356.2a2.206 2.206 0 0 0-2.207 2.206 2.206 2.206 0 0 0 2.207 2.207z" class="prefix__cls-10" data-name="Path 13907" transform="translate(-317.808 -419.431)"/>
                    <path id="prefix__Path_13908" d="M365.122 423.844h6.178a2.206 2.206 0 0 0 2.207-2.207 2.206 2.206 0 0 0-2.207-2.206h-6.178a2.206 2.206 0 0 0-2.206 2.206 2.206 2.206 0 0 0 2.206 2.207z" class="prefix__cls-10" data-name="Path 13908" transform="translate(-338.794 -419.431)"/>
                    <path id="prefix__Path_13909" d="M374.049 423.844h6.178a2.206 2.206 0 0 0 2.206-2.207 2.206 2.206 0 0 0-2.206-2.206h-6.178a2.206 2.206 0 0 0-2.207 2.206 2.206 2.206 0 0 0 2.207 2.207z" class="prefix__cls-10" data-name="Path 13909" transform="translate(-359.781 -419.431)"/>
                    <path id="prefix__Path_13910" d="M382.974 423.844h6.178a2.206 2.206 0 0 0 2.207-2.207 2.206 2.206 0 0 0-2.207-2.206h-6.178a2.206 2.206 0 0 0-2.207 2.206 2.206 2.206 0 0 0 2.207 2.207z" class="prefix__cls-10" data-name="Path 13910" transform="translate(-380.768 -419.431)"/>
                </g>
            </g>
        </g>
        <g id="prefix__Group_13035" data-name="Group 13035" transform="translate(890.013 3295)">
            <g id="prefix__Group_13012" data-name="Group 13012" transform="translate(333.607 26.58)">
                <g id="prefix__Group_13009" data-name="Group 13009" transform="translate(0 80.518)">
                    <path id="prefix__Path_13922" d="M404.893 215.525l-13.854 14.858-105.6-44.046z" class="prefix__cls-7" data-name="Path 13922" transform="translate(-282.052 -166.498)"/>
                    <path id="prefix__Path_13923" d="M382.447 171.655l10.43 15.735-7.051 15.419 15.819 2.69 13.979 30.691-151.091-45.721z" class="prefix__cls-8" data-name="Path 13923" transform="translate(-264.533 -171.655)"/>
                    <path id="prefix__Path_13924" d="M356.155 198.719l7.051-15.419-81.839 3.827z" class="prefix__cls-7" data-name="Path 13924" transform="translate(-234.861 -167.565)"/>
                </g>
                <g id="prefix__Group_13010" data-name="Group 13010" transform="translate(113.577 135.901)">
                    <path id="prefix__Path_13925" d="M196.1 340.908q1.743 0 3.489-.022a2.114 2.114 0 0 0 2.093-2.14 2.071 2.071 0 0 0-2.142-2.093c-5.483.062-10.927-.023-16.9-.276h-.091a2.118 2.118 0 0 0-.089 4.233c4.784.201 9.249.298 13.64.298zm20.46-.835a1.723 1.723 0 0 0 .186-.007c5.832-.5 11.572-1.247 17.056-2.223a2.117 2.117 0 0 0 1.713-2.458 2.151 2.151 0 0 0-2.458-1.713c-5.356.954-10.969 1.685-16.678 2.174a2.117 2.117 0 0 0 .18 4.227zm33.421-6.111a2.043 2.043 0 0 0 .622-.1 122.473 122.473 0 0 0 16.143-6.2 2.117 2.117 0 1 0-1.8-3.833 118.989 118.989 0 0 1-15.585 5.991 2.119 2.119 0 0 0 .62 4.144zm30.673-14.447a2.111 2.111 0 0 0 1.173-.355 112.3 112.3 0 0 0 13.627-10.7 2.118 2.118 0 1 0-2.869-3.116 108.169 108.169 0 0 1-13.109 10.3 2.117 2.117 0 0 0 1.178 3.879zm24.958-22.935a2.123 2.123 0 0 0 1.659-.8 113 113 0 0 0 9.721-14.351 2.118 2.118 0 0 0-3.682-2.1 108.579 108.579 0 0 1-9.356 13.805 2.116 2.116 0 0 0 1.658 3.437zm16.775-29.46a2.122 2.122 0 0 0 1.982-1.371 103.952 103.952 0 0 0 4.76-16.691 2.118 2.118 0 1 0-4.158-.815 99.665 99.665 0 0 1-4.567 16.009 2.122 2.122 0 0 0 1.982 2.869zm6.756-33.231a2.119 2.119 0 0 0 2.111-1.982c.22-3.46.33-7.1.33-10.824v-.858q-.01-2.76-.1-5.533a2.117 2.117 0 0 0-2.117-2.047h-.067a2.117 2.117 0 0 0-2.047 2.185q.087 2.71.1 5.4v.851c0 3.633-.111 7.184-.324 10.556a2.114 2.114 0 0 0 1.971 2.248c.049.003.1.003.143.003z" class="prefix__cls-7" data-name="Path 13925" transform="translate(-180.431 -212.643)"/>
                </g>
                <g id="prefix__Group_13011" data-name="Group 13011" transform="translate(167.051)">
                    <path id="prefix__Path_13926" d="M169.35 235.628q4.85 0 9.545-.118a2.117 2.117 0 0 0-.055-4.233h-.055q-8.2.207-16.918.045a2 2 0 0 0-2.158 2.075 2.112 2.112 0 0 0 2.075 2.158q3.83.073 7.566.073zm-24.528-.711a2.116 2.116 0 0 0 .113-4.229c-5.476-.311-11.165-.72-16.908-1.227a2.117 2.117 0 1 0-.373 4.218c5.789.511 11.52.928 17.047 1.235.038.003.08.003.121.003zm51.009-.269H196c5.9-.459 11.631-1.086 17.051-1.862a2.117 2.117 0 0 0 1.8-2.4 2.15 2.15 0 0 0-2.4-1.8c-5.329.762-10.976 1.378-16.782 1.827a2.118 2.118 0 0 0 .162 4.229zm-84.912-2.705a2.117 2.117 0 0 0 .241-4.22q-8.251-.967-16.822-2.186a2.118 2.118 0 0 0-.6 4.193q8.63 1.23 16.933 2.2a1.92 1.92 0 0 0 .248.013zm118.574-2.173a2.192 2.192 0 0 0 .466-.051c4.094-.92 8.087-1.954 11.861-3.078q2.41-.72 4.74-1.493a2.117 2.117 0 0 0-1.33-4.02q-2.27.75-4.617 1.451c-3.685 1.1-7.58 2.107-11.578 3a2.119 2.119 0 0 0 .458 4.187zm32.169-10.878a2.108 2.108 0 0 0 .924-.215 103.033 103.033 0 0 0 14.951-8.811 2.118 2.118 0 1 0-2.462-3.447 99.145 99.145 0 0 1-14.336 8.446 2.12 2.12 0 0 0 .923 4.027zM188.753 217a2.118 2.118 0 0 0 2.117-2.117v-.751c0-5.34.214-10.765.638-16.129a2.12 2.12 0 0 0-4.227-.331c-.427 5.471-.645 11.011-.645 16.46v.751a2.118 2.118 0 0 0 2.117 2.117zm100.291-17.96a2.114 2.114 0 0 0 1.565-.689 73.7 73.7 0 0 0 10.18-14.2 2.12 2.12 0 1 0-3.716-2.04 69.368 69.368 0 0 1-9.593 13.385 2.117 2.117 0 0 0 1.565 3.544zm-97.564-16a2.119 2.119 0 0 0 2.086-1.758 144.28 144.28 0 0 1 3.74-16.367 2.116 2.116 0 1 0-4.06-1.193 148.787 148.787 0 0 0-3.858 16.843 2.124 2.124 0 0 0 1.731 2.448 2.195 2.195 0 0 0 .361.024zm113.8-13.531a2.117 2.117 0 0 0 2.04-1.554q.393-1.427.738-2.878a41.013 41.013 0 0 0 1.131-9.388 36.083 36.083 0 0 0-.407-5.432 2.116 2.116 0 0 0-4.185.634 32.1 32.1 0 0 1 .358 4.8 36.778 36.778 0 0 1-1.02 8.413c-.218.916-.449 1.827-.7 2.723a2.115 2.115 0 0 0 1.475 2.606 2.174 2.174 0 0 0 .574.073zM201.3 150.512a2.121 2.121 0 0 0 1.911-1.2 71.742 71.742 0 0 1 8.691-14.017 2.119 2.119 0 0 0-3.3-2.654 76.335 76.335 0 0 0-9.207 14.836 2.123 2.123 0 0 0 1.909 3.038zm98.729-13.275a2.1 2.1 0 0 0 1.282-.431 2.119 2.119 0 0 0 .4-2.967 48 48 0 0 0-13.262-11.718 2.119 2.119 0 1 0-2.213 3.613 43.769 43.769 0 0 1 12.1 10.669 2.111 2.111 0 0 0 1.691.833zm-77.309-12.594a2.1 2.1 0 0 0 1.158-.345 47.856 47.856 0 0 1 14.844-6.425 2.119 2.119 0 0 0-1.013-4.116 52.161 52.161 0 0 0-16.154 7 2.116 2.116 0 0 0 1.165 3.887zm49.067-5.4a2.119 2.119 0 0 0 .6-4.151 79.926 79.926 0 0 0-16.649-3.009l-.638-.02a2.256 2.256 0 0 0-2.158 2.075 2.115 2.115 0 0 0 2.075 2.158l.461.018a75.384 75.384 0 0 1 15.709 2.84 2.166 2.166 0 0 0 .6.091z" class="prefix__cls-7" data-name="Path 13926" transform="translate(-91.92 -112.065)"/>
                </g>
            </g>
            <g id="prefix__Group_13022" data-name="Group 13022" transform="translate(32.094 48.181)">
                <g id="prefix__Group_13019" data-name="Group 13019">
                    <path id="prefix__Path_13927" d="M616.619 128.051H503.411a25.624 25.624 0 0 0-25.623 25.624v58.391a25.623 25.623 0 0 0 25.623 25.623h74.029l26.627 23.495v-23.495h12.553a25.623 25.623 0 0 0 25.624-25.623v-58.391a25.624 25.624 0 0 0-25.625-25.624z" class="prefix__cls-7" data-name="Path 13927" transform="translate(-477.788 -128.051)"/>
                    <g id="prefix__Group_13018" data-name="Group 13018" transform="translate(38.881 29.713)">
                        <g id="prefix__Group_13013" data-name="Group 13013">
                            <path id="prefix__Path_13928" d="M590.046 156.466h-80.27a3.212 3.212 0 0 1 0-6.425h80.27a3.212 3.212 0 0 1 0 6.425z" class="prefix__cls-8" data-name="Path 13928" transform="translate(-506.564 -150.041)"/>
                        </g>
                        <g id="prefix__Group_13014" data-name="Group 13014" transform="translate(0 21.406)">
                            <path id="prefix__Path_13929" d="M590.046 172.307h-80.27a3.212 3.212 0 1 1 0-6.424h80.27a3.212 3.212 0 0 1 0 6.424z" class="prefix__cls-8" data-name="Path 13929" transform="translate(-506.564 -165.883)"/>
                        </g>
                        <g id="prefix__Group_13015" data-name="Group 13015" transform="translate(0 42.81)">
                            <path id="prefix__Path_13930" d="M572.241 188.149H560.47a3.213 3.213 0 0 1 0-6.425h11.772a3.213 3.213 0 0 1 0 6.425z" class="prefix__cls-8" data-name="Path 13930" transform="translate(-557.258 -181.724)"/>
                        </g>
                        <g id="prefix__Group_13016" data-name="Group 13016" transform="translate(26.758 42.81)">
                            <path id="prefix__Path_13931" d="M552.439 188.149h-11.773a3.213 3.213 0 0 1 0-6.425h11.773a3.213 3.213 0 0 1 0 6.425z" class="prefix__cls-8" data-name="Path 13931" transform="translate(-537.456 -181.724)"/>
                        </g>
                        <g id="prefix__Group_13017" data-name="Group 13017" transform="translate(53.514 42.81)">
                            <path id="prefix__Path_13932" d="M536.532 188.149h-26.758a3.213 3.213 0 0 1 0-6.425h26.758a3.213 3.213 0 0 1 0 6.425z" class="prefix__cls-8" data-name="Path 13932" transform="translate(-506.564 -181.724)"/>
                        </g>
                    </g>
                </g>
                <g id="prefix__Group_13021" data-name="Group 13021" transform="translate(137.721 116.607)">
                    <path id="prefix__Path_13933" d="M423.39 214.35h86.658a15.431 15.431 0 0 1 15.432 15.431v49.971a15.421 15.421 0 0 1-14.3 15.374l17.87 29.282-47.093-29.224H423.39a15.431 15.431 0 0 1-15.431-15.432v-49.971a15.431 15.431 0 0 1 15.431-15.431z" class="prefix__cls-8" data-name="Path 13933" transform="translate(-407.959 -214.35)"/>
                    <g id="prefix__Group_13020" data-name="Group 13020" transform="translate(34.51 13.782)">
                        <circle id="prefix__Ellipse_257" cx="10.26" cy="10.26" r="10.26" class="prefix__cls-12" data-name="Ellipse 257" transform="rotate(-135 18.135 9.487)"/>
                        <path id="prefix__Path_13934" d="M436.14 264.868h48.5a15.543 15.543 0 0 0-15.54-15.544h-17.41a15.544 15.544 0 0 0-15.545 15.544z" class="prefix__cls-12" data-name="Path 13934" transform="translate(-436.14 -215.849)"/>
                    </g>
                </g>
            </g>
            <g id="prefix__Group_13034" data-name="Group 13034">
                <g id="prefix__Group_13025" data-name="Group 13025" transform="translate(248.001)">
                    <g id="prefix__Group_13023" data-name="Group 13023">
                        <path id="prefix__Path_13935" d="M419.616 175.912a42.446 42.446 0 0 0 8.538-.869 2.121 2.121 0 0 0 1.648-2.5 2.152 2.152 0 0 0-2.5-1.648 38.327 38.327 0 0 1-13.3.369 2.12 2.12 0 0 0-.627 4.193 42.752 42.752 0 0 0 6.241.455zm-19.225-4.947a2.12 2.12 0 0 0 1.03-3.975 37.6 37.6 0 0 1-10.321-8.39 2.117 2.117 0 1 0-3.205 2.766 41.965 41.965 0 0 0 11.469 9.334 2.122 2.122 0 0 0 1.028.265zm40.367-1.138a2.1 2.1 0 0 0 1.123-.324 41.984 41.984 0 0 0 10.935-9.956 2.119 2.119 0 1 0-3.358-2.585 37.814 37.814 0 0 1-9.831 8.956 2.116 2.116 0 0 0 1.131 3.909zm-58.4-19.818a2.124 2.124 0 0 0 1.985-2.858A37.469 37.469 0 0 1 382 134.065a2.117 2.117 0 0 0-4.233 0 41.677 41.677 0 0 0 2.6 14.562 2.123 2.123 0 0 0 1.992 1.382zm75.229-2.1a2.119 2.119 0 0 0 2.024-1.5 41.94 41.94 0 0 0 1.85-12.34c0-.789-.02-1.569-.065-2.344a2.167 2.167 0 0 0-2.234-1.993 2.116 2.116 0 0 0-1.993 2.235c.038.692.058 1.4.058 2.1a37.8 37.8 0 0 1-1.665 11.1 2.119 2.119 0 0 0 1.4 2.647 2.045 2.045 0 0 0 .626.093zm-76.536-21.3a2.118 2.118 0 0 0 2.055-1.611 37.294 37.294 0 0 1 5.439-12.127 2.117 2.117 0 1 0-3.494-2.392 41.456 41.456 0 0 0-6.053 13.5 2.112 2.112 0 0 0 1.544 2.565 2.036 2.036 0 0 0 .51.056zm74.991-6.3a2.123 2.123 0 0 0 1.94-2.967 41.551 41.551 0 0 0-8.225-12.293 2.116 2.116 0 1 0-3.047 2.936 37.457 37.457 0 0 1 7.391 11.053 2.115 2.115 0 0 0 1.942 1.262zm-59.4-16.536a2.094 2.094 0 0 0 1.224-.39 37.264 37.264 0 0 1 12.023-5.652 2.119 2.119 0 1 0-1.089-4.1 41.486 41.486 0 0 0-13.389 6.294 2.117 2.117 0 0 0 1.231 3.844zm40.222-3.375a2.119 2.119 0 0 0 .92-4.027 41.536 41.536 0 0 0-14.251-3.96 2.119 2.119 0 0 0-.393 4.22 37.388 37.388 0 0 1 12.8 3.554 2.089 2.089 0 0 0 .93.204z" class="prefix__cls-7" data-name="Path 13935" transform="translate(-377.77 -92.393)"/>
                    </g>
                    <g id="prefix__Group_13024" data-name="Group 13024" transform="translate(14.084 21.557)">
                        <path id="prefix__Path_13936" d="M415.956 108.347c15.333 0 27.762 8.215 27.762 18.353v.053c-.011 2.646-2.1 4.46-4.051 3.627l-7.287-3.11c-1.754-.749-2.605-3.3-1.816-5.452l.9-2.444a109.966 109.966 0 0 1-30.9 0l.9 3.136a4.421 4.421 0 0 1-1.686 5.028l-7.207 3.935c-1.752.957-3.8-.328-4.2-2.721a12.311 12.311 0 0 1-.172-2.05c-.006-10.14 12.424-18.355 27.757-18.355z" class="prefix__cls-7" data-name="Path 13936" transform="translate(-388.193 -108.347)"/>
                        <path id="prefix__Path_13937" d="M394.493 144.228h38.479l-5.7-17.866a8.08 8.08 0 0 0-7.7-5.622h-11.681a8.082 8.082 0 0 0-7.7 5.622z" class="prefix__cls-8" data-name="Path 13937" transform="translate(-385.96 -103.995)"/>
                    </g>
                </g>
                <g id="prefix__Group_13033" data-name="Group 13033" transform="translate(0 217.604)">
                    <g id="prefix__Group_13026" data-name="Group 13026">
                        <path id="prefix__Path_13938" d="M603.153 336.957a42.127 42.127 0 0 0 8.549-.873 2.123 2.123 0 0 0 1.646-2.505 2.146 2.146 0 0 0-2.507-1.644 38.079 38.079 0 0 1-13.293.369 2.119 2.119 0 1 0-.627 4.191 43.071 43.071 0 0 0 6.232.462zm-19.221-4.944a2.119 2.119 0 0 0 1.031-3.971 37.708 37.708 0 0 1-10.318-8.394 2.117 2.117 0 1 0-3.206 2.764 41.9 41.9 0 0 0 11.469 9.331 2.084 2.084 0 0 0 1.025.27zm40.363-1.14a2.106 2.106 0 0 0 1.124-.324 42 42 0 0 0 10.931-9.956 2.119 2.119 0 1 0-3.358-2.585 37.718 37.718 0 0 1-9.829 8.956 2.117 2.117 0 0 0 1.131 3.909zm-58.4-19.815a2.152 2.152 0 0 0 .738-.134 2.12 2.12 0 0 0 1.249-2.724 37.469 37.469 0 0 1-2.342-13.085 2.117 2.117 0 1 0-4.233 0 41.66 41.66 0 0 0 2.6 14.56 2.117 2.117 0 0 0 1.993 1.382zm75.233-2.109a2.118 2.118 0 0 0 2.023-1.5A41.855 41.855 0 0 0 645 295.114c0-.786-.022-1.565-.066-2.342a2.219 2.219 0 0 0-2.231-2 2.118 2.118 0 0 0-2 2.231c.038.7.059 1.4.059 2.107a37.585 37.585 0 0 1-1.662 11.089 2.119 2.119 0 0 0 1.4 2.648 2.086 2.086 0 0 0 .633.101zm-76.547-21.3a2.118 2.118 0 0 0 2.055-1.609 37.392 37.392 0 0 1 5.439-12.124 2.118 2.118 0 1 0-3.5-2.392 41.459 41.459 0 0 0-6.052 13.5 2.115 2.115 0 0 0 1.544 2.565 2.031 2.031 0 0 0 .519.061zm74.994-6.3a2.121 2.121 0 0 0 1.942-2.967 41.737 41.737 0 0 0-8.229-12.293 2.116 2.116 0 1 0-3.047 2.936 37.562 37.562 0 0 1 7.394 11.053 2.121 2.121 0 0 0 1.945 1.268zm-59.4-16.525a2.094 2.094 0 0 0 1.224-.391 37.2 37.2 0 0 1 12.023-5.656 2.119 2.119 0 1 0-1.089-4.1 41.557 41.557 0 0 0-13.389 6.3 2.118 2.118 0 0 0 1.231 3.844zm40.222-3.389a2.119 2.119 0 0 0 .92-4.027 41.531 41.531 0 0 0-14.254-3.958 2.119 2.119 0 0 0-.393 4.22 37.28 37.28 0 0 1 12.807 3.55 2.071 2.071 0 0 0 .923.212z" class="prefix__cls-7" data-name="Path 13938" transform="translate(-561.311 -253.438)"/>
                    </g>
                    <g id="prefix__Group_13032" data-name="Group 13032" transform="translate(15.193 23.886)">
                        <path id="prefix__Rectangle_3630" d="M0 0H49.252V27.929H0z" class="prefix__cls-8" data-name="Rectangle 3630" transform="translate(2.358 10.253)"/>
                        <g id="prefix__Group_13031" data-name="Group 13031">
                            <g id="prefix__Group_13027" data-name="Group 13027">
                                <path id="prefix__Path_13939" d="M614.375 279.137v-3.417a4.555 4.555 0 0 0-4.555-4.555 4.556 4.556 0 0 0-4.556 4.555v5.667h9.111" class="prefix__cls-7" data-name="Path 13939" transform="translate(-605.264 -271.099)"/>
                                <path id="prefix__Path_13940" d="M584.656 275.672V304.7h33.578v-29.028a4.556 4.556 0 0 0-4.555-4.556h-33.2l.923.192a4.556 4.556 0 0 1 3.254 4.364z" class="prefix__cls-9" data-name="Path 13940" transform="translate(-575.634 -271.116)"/>
                            </g>
                            <g id="prefix__Group_13030" data-name="Group 13030" transform="translate(11.68 4.684)">
                                <path id="prefix__Rectangle_3631" d="M0 0H7.446V7.643H0z" class="prefix__cls-7" data-name="Rectangle 3631" transform="translate(21.387 .044)"/>
                                <g id="prefix__Group_13029" data-name="Group 13029">
                                    <g id="prefix__Group_13028" data-name="Group 13028">
                                        <path id="prefix__Line_190" d="M18.928 0L0 0" class="prefix__cls-13" data-name="Line 190" transform="translate(.178)"/>
                                        <path id="prefix__Line_191" d="M18.928 0L0 0" class="prefix__cls-13" data-name="Line 191" transform="translate(.178 2.574)"/>
                                        <path id="prefix__Line_192" d="M18.928 0L0 0" class="prefix__cls-13" data-name="Line 192" transform="translate(.178 5.148)"/>
                                        <path id="prefix__Line_193" d="M18.928 0L0 0" class="prefix__cls-13" data-name="Line 193" transform="translate(0 7.722)"/>
                                    </g>
                                    <path id="prefix__Line_194" d="M28.655 0L0 0" class="prefix__cls-13" data-name="Line 194" transform="translate(.178 10.261)"/>
                                    <path id="prefix__Line_195" d="M28.655 0L0 0" class="prefix__cls-13" data-name="Line 195" transform="translate(.178 12.835)"/>
                                    <path id="prefix__Line_196" d="M28.655 0L0 0" class="prefix__cls-13" data-name="Line 196" transform="translate(.178 15.353)"/>
                                    <path id="prefix__Line_197" d="M13.927 0L0 0" class="prefix__cls-13" data-name="Line 197" transform="translate(14.906 17.927)"/>
                                </g>
                            </g>
                        </g>
                        <path id="prefix__Path_13941" d="M573.81 306.633h37.153V278.7z" class="prefix__cls-7" data-name="Path 13941" transform="translate(-559.352 -268.451)"/>
                        <path id="prefix__Path_13942" d="M619.918 306.633h-37.153V278.7z" class="prefix__cls-7" data-name="Path 13942" transform="translate(-580.407 -268.451)"/>
                        <path id="prefix__Path_13943" d="M573.811 302.648h49.253l-22.119-11.814a4.4 4.4 0 0 0-5.013 0z" class="prefix__cls-7" data-name="Path 13943" transform="translate(-571.453 -264.466)"/>
                    </g>
                </g>
            </g>
        </g>
    </g>
</svg>
