<svg width="433" height="337" viewBox="0 0 433 337" fill="none" xmlns="http://www.w3.org/2000/svg">
<path d="M317.84 214.826C320.532 212.901 323.355 211.164 326.286 209.628C341.49 201.816 355.726 193.796 367.601 181.49C381.666 166.912 391.525 147.225 391.527 126.57C391.529 105.914 380.408 84.7481 362.107 76.1846C339.331 65.5223 313.276 75.6605 288.495 78.2161C256.548 81.5103 224.786 71.7858 193.261 65.0719C161.736 58.3579 127.473 54.9403 98.8321 69.7218C75.7793 81.6337 58.8038 105.185 54.3661 131.43C49.9283 157.675 58.1367 185.984 75.866 205.582C101.442 233.859 141.674 241.474 178.98 243.267C206.467 244.597 234.018 243.643 261.347 240.413C273.662 238.955 285.188 236.449 296.065 230.324C303.896 225.921 310.576 219.922 317.84 214.826Z" stroke="#F4EBD7" stroke-width="1.32447" stroke-miterlimit="10"/>
<path d="M148.552 240.746C129.348 238.474 110.022 233.833 93.0555 223.675C76.0886 213.518 61.6038 197.274 55.951 177.414C50.2983 157.553 54.7663 134.141 69.3053 120.897C87.4071 104.416 114.226 107.036 137.797 102.705C168.183 97.1342 194.835 79.0974 222.094 64.017C249.353 48.9365 280.038 36.2904 310.512 42.673C335.049 47.8125 357.155 65.8189 368.428 89.842C379.701 113.865 379.87 143.337 368.861 167.02C352.99 201.205 317.943 219.532 284.01 231.47C259.026 240.261 233.331 246.88 207.21 251.255C197.622 252.857 187.837 254.157 178.189 252.639C168.54 251.12 158.887 246.453 152.912 238.097L148.552 240.746Z" fill="#D3EEEF"/>
<rect x="202.434" y="1.52824" width="147.73" height="274.573" rx="15.2824" fill="#2C374A" stroke="#2C374A" stroke-width="3.05647"/>
<path fill-rule="evenodd" clip-rule="evenodd" d="M217.754 3.0564C210.158 3.0564 204 9.21432 204 16.8105V260.819C204 268.415 210.158 274.573 217.754 274.573H334.919C342.515 274.573 348.673 268.415 348.673 260.819V16.8105C348.673 9.21433 342.515 3.0564 334.919 3.0564H301.807V12.2258C301.807 13.6325 300.667 14.7729 299.26 14.7729H253.413C252.007 14.7729 250.866 13.6325 250.866 12.2258V3.0564H217.754Z" fill="#F1F1F1"/>
<path d="M0 279.044H432.984" stroke="#102048" stroke-width="2.54706" stroke-miterlimit="10"/>
<path opacity="0.15" d="M52.7001 303.037C64.0634 303.037 73.2752 301.283 73.2752 299.119C73.2752 296.955 64.0634 295.201 52.7001 295.201C41.3368 295.201 32.125 296.955 32.125 299.119C32.125 301.283 41.3368 303.037 52.7001 303.037Z" fill="#1F3C88"/>
<path d="M43.2615 291.493C38.8108 291.493 33.8555 284.976 33.8555 280.56C33.8555 276.07 37.4334 272.419 41.8321 272.419C46.2308 272.419 49.8131 276.07 49.8131 280.56C49.8131 284.788 48.0328 291.493 43.2615 291.493ZM41.8321 275.126C38.9256 275.126 36.5627 277.562 36.5627 280.56C36.5627 283.865 40.5694 288.79 43.2615 288.79C45.737 288.79 47.1037 283.926 47.1037 280.56C47.1037 277.562 44.7386 275.126 41.8321 275.126Z" fill="#1F3C88"/>
<path d="M58.6538 298.536H46.939C46.0006 298.536 45.0965 298.183 44.4061 297.548C43.7157 296.912 43.2893 296.041 43.2116 295.106L40.7881 265.908H65.2898L62.3746 295.166C62.2827 296.089 61.8511 296.945 61.1635 297.568C60.4759 298.191 59.5814 298.536 58.6538 298.536Z" fill="#1F3C88"/>
<path d="M43.6297 230.905C42.8088 233.651 42.4428 236.48 42.9085 239.2C43.1399 240.556 43.5265 241.881 44.0607 243.148C44.6215 244.416 45.2964 245.63 46.077 246.776C46.8762 247.931 47.754 249.031 48.7041 250.066C48.9337 250.315 49.1828 250.622 49.434 250.932C49.6852 251.242 49.9408 251.523 50.1704 251.842L50.8201 252.842C51.0249 253.19 51.2044 253.552 51.3572 253.925C51.5295 254.296 51.6651 254.682 51.7622 255.079C51.8785 255.481 51.9511 255.894 51.9788 256.312C52.0048 256.521 52.0048 256.733 51.9788 256.942L51.9355 257.572C51.9052 257.789 51.8489 257.984 51.8034 258.19C51.765 258.395 51.7055 258.596 51.6258 258.79L51.3897 259.363C51.2923 259.545 51.1883 259.721 51.0865 259.896C50.9873 260.073 50.8736 260.241 50.7465 260.399C50.6316 260.563 50.5049 260.719 50.3675 260.864C49.8426 261.459 49.2209 261.961 48.5287 262.348L48.0782 261.631C49.0788 260.75 49.9018 259.563 50.179 258.339C50.2255 258.19 50.2539 258.036 50.2635 257.88C50.2787 257.724 50.3112 257.572 50.3155 257.419L50.296 256.953C50.3005 256.798 50.2822 256.643 50.2419 256.494C50.1983 256.184 50.1214 255.88 50.0123 255.586C49.9172 255.285 49.7917 254.995 49.6376 254.72C49.4888 254.429 49.3247 254.147 49.146 253.873L48.5655 253.061C48.3489 252.799 48.1107 252.554 47.8876 252.299L47.1686 251.517C46.6553 250.964 46.142 250.412 45.672 249.817C45.1847 249.233 44.7271 248.625 44.3011 247.995C43.4438 246.722 42.7236 245.361 42.1526 243.936C41.5952 242.492 41.2353 240.979 41.0827 239.438C40.7665 236.345 41.5007 233.244 42.8565 230.591L43.6297 230.905Z" fill="#D3DFFF"/>
<path d="M54.2707 230.069C55.8545 231.351 57.014 233.082 57.5974 235.035C57.8839 236.028 58.0297 237.056 58.0305 238.089C58.0228 239.109 57.9036 240.126 57.6753 241.121C57.44 242.094 57.1234 243.046 56.7289 243.967L56.4733 244.595C56.3975 244.792 56.3044 244.987 56.2394 245.184L56.0943 245.767C56.0337 245.966 56.0272 246.154 55.9838 246.349C55.953 246.537 55.9399 246.728 55.9449 246.919C55.9419 247.103 55.9578 247.288 55.9925 247.469C56.0207 247.648 56.0642 247.825 56.1225 247.997C56.1933 248.166 56.2765 248.329 56.3715 248.485C56.7484 249.134 57.4696 249.667 58.2254 250.001L58.0587 250.83C56.9587 250.724 55.9352 250.221 55.1803 249.414C54.9893 249.195 54.8169 248.96 54.6649 248.712C54.5253 248.455 54.408 248.186 54.314 247.909C54.2226 247.634 54.1609 247.35 54.1299 247.062C54.0887 246.782 54.0742 246.499 54.0866 246.217C54.0891 245.941 54.1116 245.666 54.1537 245.394L54.314 244.606C54.3812 244.348 54.4721 244.108 54.5501 243.856C54.6281 243.605 54.7125 243.35 54.7905 243.155C55.113 242.325 55.3814 241.475 55.594 240.61C55.7958 239.762 55.9248 238.898 55.9795 238.028C56.0165 237.168 55.9599 236.307 55.8106 235.46C55.5117 233.757 54.7125 232.152 53.6621 230.632L54.2707 230.069Z" fill="#D3DFFF"/>
<path opacity="0.15" d="M365.253 304.949C387.979 304.949 406.403 302.221 406.403 298.857C406.403 295.492 387.979 292.764 365.253 292.764C342.526 292.764 324.103 295.492 324.103 298.857C324.103 302.221 342.526 304.949 365.253 304.949Z" fill="#1F3C88"/>
<path d="M367.874 199.635H362.098V256.126H367.874V199.635Z" fill="#27481F"/>
<path d="M366.427 195.84C366.367 199.102 366.108 202.356 365.654 205.587C365.409 207.298 365.203 208.285 365.203 208.285C349.436 203.167 342.202 193.395 339.192 183.534C338.91 182.636 338.672 181.732 338.466 180.831C335.282 167.113 339.549 154.041 339.549 154.041C346.779 155.557 352.111 158.703 356.048 162.758C356.724 163.453 357.348 164.166 357.943 164.909C365.209 174.024 366.6 186.582 366.427 195.84Z" fill="#1FC9AA"/>
<path d="M386.868 168.53C386.554 179.497 382.287 192.275 369.054 204.545C368.041 205.487 366.969 206.431 365.843 207.36C365.723 207.462 365.604 207.56 365.485 207.657C365.485 207.657 363.293 204.443 361.034 199.21C361.002 199.132 360.969 199.063 360.944 198.994C360.07 196.958 359.305 194.877 358.652 192.761C358.044 190.801 357.538 188.812 357.136 186.8C355.544 178.728 355.54 169.153 359.952 159.678C363.254 152.542 369.048 145.466 378.556 139.114C378.545 139.116 387.355 151.699 386.868 168.53Z" fill="#1FC9AA"/>
<path opacity="0.5" d="M369.052 204.545C368.038 205.487 366.966 206.431 365.84 207.36C365.721 207.462 365.602 207.56 365.483 207.657C365.483 207.657 363.291 204.443 361.032 199.21C361.002 199.139 360.971 199.059 360.941 198.994C360.75 198.548 360.558 198.086 360.369 197.612C360.295 197.43 360.224 197.239 360.153 197.055C360.029 196.737 359.903 196.421 359.782 196.092C359.685 195.834 359.592 195.563 359.498 195.297C359.405 195.03 359.297 194.747 359.202 194.463C359.014 193.908 358.83 193.341 358.649 192.761C358.041 190.801 357.535 188.812 357.133 186.8C355.834 180.216 355.591 172.632 357.941 164.926C357.35 164.183 356.722 163.47 356.046 162.775C354.53 166.782 352.063 175.963 351.769 184.243C348.124 182.815 343.742 181.644 338.464 180.849C338.681 181.75 338.897 182.653 339.19 183.552C336.943 183.015 334.509 182.549 331.887 182.155C333.959 189.226 342.283 211.75 363.977 212.086C364.53 212.098 365.09 212.093 365.656 212.071C366.55 212.043 367.464 211.971 368.406 211.854C368.402 211.854 369.383 208.785 369.052 204.545Z" fill="#119E85"/>
<path d="M365.803 210.88C365.806 210.898 365.806 210.916 365.803 210.934C365.803 211.07 365.781 211.2 365.766 211.324C365.756 211.383 365.748 211.443 365.744 211.504C365.734 211.605 365.723 211.703 365.705 211.8C365.669 212.099 365.625 212.374 365.582 212.641C365.554 212.814 365.521 212.981 365.489 213.145C365.343 213.933 365.139 214.709 364.878 215.467C363.401 215.564 361.92 215.564 360.443 215.467C334.752 213.734 329.472 181.808 329.472 181.808C330.299 181.912 331.108 182.026 331.897 182.151C334.522 182.54 336.957 183.006 339.2 183.547C348.487 185.757 354.632 189.085 358.66 192.767C359.795 193.797 360.827 194.934 361.742 196.163C363.818 198.931 365.166 202.176 365.662 205.6C365.753 206.208 365.814 206.797 365.851 207.371C365.926 208.54 365.91 209.713 365.803 210.88Z" fill="#1FC9AA"/>
<path opacity="0.38" d="M386.868 168.53C386.696 174.583 385.313 180.539 382.8 186.049C380.046 192.152 375.671 198.411 369.054 204.545C369.026 204.567 369 204.595 368.972 204.616C368.582 204.978 368.181 205.342 367.77 205.699C367.651 205.808 367.532 205.916 367.408 206.024C366.899 206.47 366.379 206.919 365.842 207.363C365.805 206.789 365.745 206.2 365.654 205.591C365.158 202.167 363.81 198.922 361.734 196.155C360.819 194.925 359.787 193.788 358.652 192.759C358.044 190.799 357.537 188.81 357.136 186.798C358.506 187.591 359.81 188.494 361.034 189.499C361.797 190.13 362.52 190.806 363.2 191.524C366.6 182.677 373.418 173.613 386.868 168.53Z" fill="#119E85"/>
<path opacity="0.2" d="M365.803 210.88C365.806 210.898 365.806 210.916 365.803 210.934C365.803 211.07 365.781 211.2 365.766 211.324C365.756 211.383 365.749 211.443 365.745 211.503C365.734 211.605 365.723 211.703 365.706 211.8C365.669 212.099 365.625 212.374 365.582 212.64C365.55 212.814 365.522 212.981 365.489 213.145C365.343 213.933 365.139 214.709 364.878 215.467C363.401 215.563 361.92 215.563 360.443 215.467C360.204 213.695 359.518 207.105 361.049 199.223C361.244 198.221 361.482 197.198 361.749 196.163C363.825 198.931 365.173 202.175 365.669 205.599C365.76 206.208 365.82 206.797 365.857 207.371C365.931 208.54 365.912 209.713 365.803 210.88Z" fill="#119E85"/>
<path d="M390.521 248.907L384.171 290.49C383.828 292.733 382.693 294.779 380.971 296.257C379.25 297.735 377.056 298.547 374.787 298.547H355.728C353.46 298.544 351.268 297.73 349.547 296.253C347.827 294.775 346.691 292.732 346.345 290.49L339.993 248.907H390.521Z" fill="#176CFF"/>
<path d="M364.196 215.517C364.196 215.517 357.237 174.247 401.496 168.302C401.496 168.296 404.272 213.522 364.196 215.517Z" fill="#1FC9AA"/>
<path opacity="0.4" d="M390.521 248.907L384.171 290.49C383.828 292.733 382.693 294.779 380.971 296.257C379.25 297.735 377.056 298.547 374.787 298.547H355.728C353.73 298.547 351.782 297.917 350.164 296.745C348.545 295.573 347.338 293.92 346.714 292.021C371.473 288.054 378.118 262.567 379.454 248.922L390.521 248.907Z" fill="#5895FE"/>
<path opacity="0.15" d="M298.505 299.357C298.505 294.28 253.271 290.163 197.467 290.163C141.663 290.163 96.4277 294.278 96.4277 299.357C96.4277 303.472 126.188 306.963 167.208 308.133C171.676 315.462 164.219 324.227 158.504 327.389C148.47 327.889 141.266 329.007 142.401 331.387C147.764 342.649 193.343 330.666 193.343 330.666C193.343 330.666 211.165 331.775 211.165 330.079C211.165 329.299 208.027 328.587 202.864 328.045L203.245 328.024L184.004 308.471C188.409 308.526 192.897 308.553 197.467 308.553C253.271 308.553 298.505 304.436 298.505 299.357Z" fill="#1F3C88"/>
<path d="M307.43 231.819C306.098 253.795 295.02 275.756 276.86 287.841C255.213 302.25 224.946 299.062 200.295 300.897C178.983 302.484 157.509 303.847 136.187 301.579C118.72 299.716 101.101 292.797 92.7586 275.839C84.3986 258.841 83.4933 236.259 91.8533 219.056C94.5072 213.644 98.03 208.704 102.282 204.432C102.964 203.733 103.674 203.05 104.393 202.385C104.881 201.935 105.376 201.493 105.877 201.06C106.646 200.393 107.436 199.743 108.238 199.111C108.504 198.894 108.768 198.699 109.039 198.496C109.31 198.292 109.576 198.089 109.847 197.887C110.117 197.686 110.388 197.486 110.663 197.292L111.28 196.858C111.623 196.613 111.969 196.375 112.32 196.144C115.432 194.049 118.701 192.199 122.099 190.61C125.368 189.068 128.74 187.756 132.191 186.683C143.406 183.203 155.116 181.969 166.688 180.448C191.242 177.225 216.242 176.117 240.99 176.143C261.186 176.143 283.927 179.175 297.431 196.501C305.059 206.288 308.193 219.3 307.43 231.819Z" fill="#1FC9AA"/>
<path d="M243.949 193.171C243.949 193.171 249.147 188.278 251.919 185.446C254.691 182.613 248.655 182.522 245.688 186.05C242.721 189.578 243.949 193.171 243.949 193.171Z" fill="#F9B384"/>
<path d="M122.103 190.604C118.706 192.193 115.436 194.043 112.325 196.137C111.974 196.37 111.627 196.608 111.285 196.852L110.668 197.285C110.393 197.48 110.122 197.681 109.851 197.881C109.581 198.08 109.31 198.281 109.043 198.489C108.777 198.697 108.508 198.899 108.242 199.104C107.452 199.735 106.678 200.378 105.914 201.038L105.881 201.056C105.379 201.489 104.884 201.931 104.398 202.381C103.679 203.046 102.968 203.728 102.286 204.428C102.305 204.721 102.417 205 102.605 205.225C102.794 205.451 103.049 205.61 103.334 205.68C107.397 206.503 109.433 210.379 112.708 212.584C115.14 214.219 118.012 214.668 120.763 213.73C117.802 220.011 116.169 226.224 117.447 233.244C117.84 235.368 118.507 237.431 119.431 239.384C115.625 236.568 111.959 230.504 110.451 224.362C110.348 223.943 110.084 223.583 109.715 223.36C109.346 223.136 108.904 223.069 108.486 223.172C108.067 223.275 107.707 223.539 107.484 223.908C107.26 224.277 107.193 224.719 107.296 225.137C109.163 232.739 113.914 240.044 118.852 242.897C119.948 243.539 121.15 243.98 122.402 244.196C123.379 245.453 124.474 246.614 125.672 247.661L132.971 249.702L138.927 211.259L122.103 190.604Z" fill="#19947E"/>
<path d="M143.259 216.42C128.168 210.542 117.692 204.292 111.608 200.131C109.679 198.807 108.171 196.957 107.261 194.801C106.352 192.645 106.081 190.273 106.479 187.968L114.261 142.607C114.652 140.308 115.612 138.142 117.053 136.308C118.494 134.473 120.371 133.028 122.513 132.103C133.812 127.247 145.708 123.919 157.887 122.208C162.443 121.931 167.015 122.021 171.557 122.478C176.601 122.977 188.145 126.377 195.483 128.658C197.53 129.293 199.406 130.382 200.972 131.845C202.539 133.308 203.754 135.105 204.527 137.104C207.605 145.035 212.603 158.426 214.198 165.665C219.703 190.662 218.8 188.813 218.8 188.813L224.485 227.255L164.113 230.638L148.682 223.6L143.259 216.42Z" fill="#176CFF"/>
<path d="M180.627 79.026C180.627 79.026 175.28 68.0628 161.068 73.0701C150.78 70.8372 142.929 83.0198 150.51 99.6011L164.789 102.919L180.627 79.026Z" fill="#102048"/>
<path d="M173.047 110.025V129.42C173.047 131.603 172.18 133.696 170.637 135.239C169.093 136.783 167 137.65 164.817 137.65C161.863 137.649 159.031 136.476 156.942 134.387C154.853 132.298 153.679 129.465 153.679 126.511V110.025H173.047Z" fill="#F9B384"/>
<path d="M173.048 118.071V128.651C164.421 128.694 158.699 117.54 158.699 117.54L173.048 118.071Z" fill="#E28B6D"/>
<path d="M181.571 107.589C181.052 110.274 180.309 113.023 179.243 115.444C177.381 119.693 174.537 122.931 170.194 123.024C160.033 123.241 152.192 109.351 152.192 109.351L153.817 90.4007L161.531 81.7375L182.793 94.8645C182.764 99.1337 182.356 103.392 181.571 107.589Z" fill="#F9B384"/>
<path d="M153.479 103.798C153.479 103.798 155.576 95.2695 162.885 89.7207C162.885 89.7207 173.513 103.595 184.747 96.8939C195.981 90.1929 191.11 76.9967 180.619 79.026L168.571 77.6746L153.479 82.4783L150.906 94.3231L153.479 103.798Z" fill="#102048"/>
<path opacity="0.4" d="M164.146 202.084C153.909 179.963 141.003 190.521 137.845 182.4C133.418 171.018 134.258 158.143 134.234 154.244L128.068 188.964C128.068 188.964 141.836 190.264 146.926 198.563L164.146 202.084Z" fill="#1F3C88"/>
<path d="M134.547 153.651C134.164 156.622 133.711 159.581 133.248 162.53C132.784 165.48 132.258 168.432 131.769 171.384C131.279 174.336 130.714 177.273 130.136 180.21L129.254 184.611C128.936 186.075 128.639 187.541 128.295 188.999L127.849 188.921C128.026 187.433 128.251 185.954 128.453 184.47L129.135 180.032C129.6 177.078 130.099 174.128 130.632 171.183C131.184 168.242 131.693 165.294 132.28 162.359C132.867 159.425 133.445 156.49 134.103 153.568L134.547 153.651Z" fill="#1F3C88"/>
<path d="M194.363 148.16C195.181 152.018 195.939 155.886 196.68 159.758C197.421 163.631 198.114 167.51 198.833 171.386C199.552 175.263 200.193 179.151 200.847 183.038L201.791 188.886C202.084 190.835 202.396 192.785 202.658 194.734L202.242 194.807C201.809 192.882 201.441 190.948 201.04 189.016L199.909 183.212C199.18 179.339 198.468 175.462 197.772 171.581C197.107 167.696 196.403 163.819 195.773 159.927C195.142 156.035 194.504 152.145 193.94 148.243L194.363 148.16Z" fill="#1F3C88"/>
<path opacity="0.4" d="M197.224 166.065C197.945 173.104 186.033 209.336 169.068 209.878L180.077 228.981L193.265 225.924L206.788 216.42L197.224 166.065Z" fill="#1F3C88"/>
<path d="M241.806 212.425H219.755L224.703 170.144H246.754L241.806 212.425Z" fill="#2C374A"/>
<path d="M244.907 208.936C244.499 211.678 244.365 215.704 235.871 215.197L233.367 213.911L235.734 211.312L240.846 208.713L244.907 208.936Z" fill="#F9B384"/>
<path d="M245.708 201.535C245.708 201.535 250.356 207.599 245.684 209.477C242.513 210.711 239.137 211.332 235.734 211.305C237.9 205.213 244.939 205.62 244.939 205.62L245.708 201.535Z" fill="#F9B384"/>
<path d="M245.842 197.611C245.842 197.611 252.249 203.567 246.293 205.237C237.883 207.593 235.284 207.762 235.284 207.762C234.834 203.296 243.181 200.398 243.181 200.398L245.842 197.611Z" fill="#F9B384"/>
<path d="M244.534 192.421C244.534 192.421 253.288 197.745 245.075 200.723C236.863 203.701 234.922 203.655 234.922 203.655C234.472 199.19 243.271 197.656 243.271 197.656L244.534 192.421Z" fill="#F9B384"/>
<path d="M234.922 203.655C234.922 203.655 244.467 202.304 247.308 200.002" stroke="#E28B6D" stroke-width="1.27353" stroke-miterlimit="10"/>
<path d="M235.284 207.762C235.284 207.762 245.21 206.363 248.324 204.197" stroke="#E28B6D" stroke-width="1.27353" stroke-miterlimit="10"/>
<path d="M235.734 211.305C235.734 211.305 241.623 211.509 244.939 209.884" stroke="#E28B6D" stroke-width="1.27353" stroke-miterlimit="10"/>
<path d="M165.188 298.179C166.179 297.637 181.881 301.066 199.299 288.162L176.829 281.755L165.188 298.179Z" fill="#102048"/>
<path d="M264.96 223.647C265.707 222.582 266.352 221.011 265.41 220.113C264.429 219.17 262.827 219.998 261.798 220.886C260.002 222.444 258.336 224.146 256.816 225.975L218.882 233.025L166.903 245.658L175.842 257.065C201.831 258.96 216.632 259.448 232.897 256.578C241.188 255.114 248.597 253.607 254.122 249.102C255.437 248.019 256.682 246.215 255.827 244.749C255.248 243.759 254.046 243.497 252.838 243.507C255.614 242.855 258.309 241.895 260.873 240.644C262.017 240.092 263.288 239.226 263.255 237.959C263.238 237.049 262.502 236.28 261.657 235.955C260.812 235.63 259.881 235.656 258.978 235.721C255.513 235.988 252.103 236.745 248.851 237.97C254.765 233.826 260.791 229.545 264.96 223.647ZM248.76 238.019C248.76 238.006 248.76 238.002 248.777 237.991C248.796 237.985 248.814 237.978 248.831 237.97C248.809 237.985 248.781 238.002 248.76 238.019Z" fill="#19947E"/>
<path d="M177.912 228.602C177.912 228.602 228.538 204.508 245.052 205.591C261.566 206.674 261.025 227.249 254.798 236.183C248.571 245.117 233.952 257.029 180.078 253.509L177.912 228.602Z" fill="black"/>
<path d="M203.245 328.023C200.505 328.799 196.618 328.987 191.268 328.136C191.268 328.136 184.338 329.934 177.515 331.348C172.898 332.305 168.332 333.081 166 333.009C165.798 333.009 165.599 332.994 165.393 332.977C160.914 332.658 155.273 330.324 152.279 326.988C152.279 326.988 152.269 326.967 152.258 326.962C151.462 326.107 150.855 325.094 150.475 323.989C148.851 318.931 152.284 312.798 170.873 314.058C170.873 314.058 177.006 312.618 178.453 308.102C179.9 303.587 169.248 281.935 169.248 281.935L184.409 271.648L199.299 288.162C199.299 288.162 201.556 303.052 201.556 307.925C201.556 307.925 207.869 316.95 208.774 320.92C209.353 323.454 208.086 326.652 203.245 328.023Z" fill="#D3DFFF"/>
<path d="M118.006 190.894C119.738 190.225 121.51 189.685 123.299 189.187C124.196 188.942 125.097 188.715 126.015 188.537C126.472 188.444 126.935 188.364 127.405 188.301C127.642 188.269 127.875 188.245 128.12 188.225C128.374 188.211 128.628 188.216 128.88 188.238C130.83 188.455 132.588 189.055 134.34 189.703C136.092 190.35 137.788 191.108 139.462 191.914C141.137 192.719 142.776 193.592 144.385 194.513C145.994 195.433 147.573 196.417 149.111 197.458C152.165 199.568 155.104 201.883 157.631 204.605L157.311 204.926C155.951 203.696 154.534 202.534 153.059 201.441C151.597 200.337 150.086 199.301 148.537 198.318C145.455 196.334 142.258 194.532 138.964 192.923C137.323 192.111 135.653 191.359 133.955 190.688C132.257 190.056 130.52 189.376 128.792 189.142C128.586 189.114 128.378 189.101 128.17 189.105C127.953 189.105 127.737 189.133 127.52 189.157C127.074 189.204 126.626 189.269 126.177 189.347C125.281 189.503 124.382 189.685 123.487 189.887C121.701 190.294 119.918 190.766 118.168 191.307L118.006 190.894Z" fill="#1F3C88"/>
<path d="M127.015 261.767C133.105 261.36 139.092 261.796 143.438 260.277C148.086 258.653 160.223 259.736 160.223 259.736L153.555 250.124L126.482 256.894L127.015 261.767Z" fill="#19947E"/>
<path d="M127.286 244.034C121.06 234.017 121.06 214.254 128.911 205.32C137.884 195.111 157.066 191.242 167.083 203.154C177.1 215.066 195.509 258.653 199.299 288.162C199.299 288.162 178.995 281.394 165.188 298.179C165.188 298.179 147.049 256.758 143.259 241.597L132.972 249.719L127.286 244.034Z" fill="#2C374A"/>
<path d="M143.259 241.597C143.259 241.597 140.552 240.605 136.762 243.131C136.762 243.131 107.162 242.5 100.576 249.178C93.9894 255.855 99.04 264.789 108.697 265.783C116.8 266.614 132.521 260.329 137.379 258.287C138.363 257.871 139.41 257.623 140.476 257.553L148.49 257.029L143.259 241.597Z" fill="#D3DFFF"/>
<path d="M155.071 104.351C155.071 104.351 153.085 97.771 148.717 99.4148C144.349 101.059 146.677 109.624 155.297 112.007L155.071 104.351Z" fill="#F9B384"/>
<path d="M150.428 140.63C152.558 142.165 154.873 143.426 157.317 144.385C159.752 145.299 162.32 145.878 164.898 145.815C167.477 145.78 170.015 145.15 172.311 143.974L173.177 143.541C173.461 143.385 173.721 143.188 173.994 143.014C174.548 142.675 175.076 142.293 175.573 141.873L176.333 141.256L176.714 140.946C176.84 140.84 176.948 140.73 177.067 140.604C177.528 140.14 177.996 139.68 178.473 139.222L178.798 139.495C178.365 140.009 177.931 140.521 177.498 141.031C177.388 141.156 177.282 141.288 177.165 141.41L176.799 141.756L176.058 142.458C175.562 142.919 175.032 143.342 174.473 143.723C174.195 143.92 173.931 144.136 173.643 144.314L172.755 144.821C170.357 146.165 167.657 146.88 164.908 146.9C162.179 146.894 159.479 146.331 156.975 145.245C154.499 144.182 152.203 142.741 150.168 140.974L150.428 140.63Z" fill="#1F3C88"/>
<path d="M138.771 224.312L141.117 232.52C141.916 235.251 142.661 237.996 143.499 240.714C144.337 243.432 145.13 246.158 145.986 248.866C146.419 250.219 146.837 251.577 147.307 252.916C147.523 253.587 147.74 254.269 147.985 254.936C148.229 255.603 148.463 256.273 148.693 256.946L148.301 257.111C147.696 255.811 147.128 254.5 146.596 253.178C146.064 251.85 145.578 250.507 145.08 249.167C144.119 246.477 143.268 243.752 142.462 241.017C141.656 238.281 140.909 235.527 140.231 232.756C139.553 229.986 138.897 227.212 138.355 224.409L138.771 224.312Z" fill="#102048"/>
<path opacity="0.1" d="M203.245 328.023C200.505 328.799 196.618 328.987 191.268 328.136C191.268 328.136 179.807 331.073 172.564 332.223C180.01 330.733 190.839 321.528 189.62 315.709C200.315 319.228 203.223 324.576 203.245 328.023Z" fill="#1F3C88"/>
<path opacity="0.4" d="M174.457 329.041C173.076 330.742 171.018 331.894 168.859 332.474C167.727 332.774 166.564 332.943 165.393 332.977C160.915 332.658 155.273 330.324 152.28 326.988C152.28 326.988 152.269 326.967 152.258 326.962C151.941 326.531 151.651 326.081 151.392 325.613C152.939 327.067 154.69 328.287 156.59 329.236C157.518 329.697 158.479 330.088 159.466 330.406C159.946 330.59 160.451 330.698 160.949 330.839C161.448 330.97 161.954 331.071 162.465 331.142C166.492 331.824 170.786 331.402 174.457 329.041Z" fill="#1F3C88"/>
<path d="M153.122 105.284C153 104.693 152.76 104.133 152.416 103.638C152.098 103.138 151.694 102.698 151.223 102.339C150.761 102.016 150.261 101.856 149.839 102.083C149.416 102.31 149.044 102.843 148.736 103.382L148.438 103.278C148.567 102.629 148.804 101.929 149.477 101.464C149.824 101.234 150.246 101.147 150.655 101.221C151.031 101.292 151.385 101.447 151.693 101.674C152.252 102.097 152.706 102.645 153.016 103.274C153.358 103.882 153.509 104.578 153.449 105.273L153.122 105.284Z" fill="#E28B6D"/>
<path d="M178.88 105.12C178.689 106.053 177.985 106.698 177.307 106.562C176.629 106.426 176.235 105.555 176.426 104.613C176.617 103.671 177.318 103.034 177.996 103.172C178.674 103.311 179.068 104.186 178.88 105.12Z" fill="#102048"/>
<path d="M168.325 104.707C168.478 103.766 168.05 102.913 167.367 102.802C166.685 102.69 166.007 103.363 165.854 104.304C165.701 105.245 166.129 106.098 166.812 106.209C167.494 106.32 168.172 105.648 168.325 104.707Z" fill="#102048"/>
<path d="M172.807 105.981C172.872 106.75 172.902 107.515 172.911 108.264C172.953 108.565 173.095 108.843 173.314 109.055C173.597 109.337 173.86 109.64 174.1 109.96C174.235 110.156 174.33 110.377 174.382 110.61C174.431 110.836 174.446 111.068 174.427 111.298C174.392 111.759 174.218 112.198 173.929 112.559C173.775 112.74 173.585 112.887 173.372 112.992C173.156 113.092 172.92 113.141 172.681 113.137C172.251 113.111 171.837 112.961 171.49 112.704L171.64 112.425C171.96 112.553 172.307 112.602 172.651 112.568C172.796 112.549 172.936 112.498 173.059 112.418C173.182 112.339 173.286 112.233 173.364 112.108C173.695 111.615 173.743 110.844 173.424 110.376C173.258 110.109 172.991 109.858 172.718 109.527C172.404 109.175 172.227 108.723 172.218 108.251C172.276 107.465 172.372 106.694 172.491 105.927L172.807 105.981Z" fill="#E28B6D"/>
<path d="M164.079 101.448C164.516 101.01 165.03 100.657 165.595 100.405C166.185 100.134 166.831 100.01 167.479 100.043C168.139 100.085 168.773 100.318 169.303 100.712C169.806 101.089 170.221 101.57 170.52 102.122L170.269 102.317C169.857 101.938 169.41 101.6 168.933 101.308C168.475 101.044 167.965 100.886 167.438 100.846C166.388 100.766 165.32 101.182 164.276 101.7L164.079 101.448Z" fill="#102048"/>
<path d="M175.097 102.375C175.305 101.803 175.731 101.336 176.281 101.076C176.818 100.804 177.413 100.671 178.014 100.688C178.614 100.698 179.202 100.859 179.723 101.158C180.243 101.454 180.653 101.91 180.892 102.458L180.626 102.631C179.928 101.928 178.983 101.524 177.992 101.505C177.035 101.483 176.019 101.747 175.393 102.523L175.097 102.375Z" fill="#102048"/>
<path d="M167.704 115.089L174.886 115.602C174.886 115.602 170.881 120.915 167.704 115.089Z" fill="white"/>
<path opacity="0.4" d="M181.572 107.589C181.052 110.274 180.31 113.023 179.244 115.444C178.393 115.04 177.705 114.359 177.293 113.512C176.881 112.665 176.769 111.703 176.977 110.785C177.184 109.866 177.697 109.045 178.433 108.457C179.169 107.869 180.083 107.549 181.024 107.55C181.208 107.548 181.391 107.561 181.572 107.589Z" fill="#EE6F57"/>
<path opacity="0.4" d="M164.901 114.575C167.015 113.687 168.009 111.253 167.121 109.139C166.233 107.025 163.8 106.031 161.685 106.919C159.571 107.807 158.577 110.24 159.465 112.354C160.353 114.469 162.786 115.463 164.901 114.575Z" fill="#EE6F57"/>
<path d="M104.909 102.54C109.575 97.3679 112.18 90.662 112.228 83.696C112.276 76.7299 109.763 69.9889 105.168 64.7531C100.573 59.5173 94.2153 56.1514 87.3019 55.2947C80.3886 54.438 73.4013 56.1501 67.6672 60.1059C61.9331 64.0617 57.8515 69.9856 56.1975 76.7527C54.5436 83.5197 55.4325 90.6585 58.6954 96.8133C61.9583 102.968 67.3681 107.71 73.8972 110.139C80.4263 112.568 87.62 112.514 94.1122 109.988L109.372 116.217L104.909 102.54Z" fill="white" stroke="#8CBFBE" stroke-width="1.78294" stroke-miterlimit="10"/>
<path d="M71.1146 87.215C72.7916 87.215 74.151 85.8555 74.151 84.1785C74.151 82.5015 72.7916 81.1421 71.1146 81.1421C69.4376 81.1421 68.0781 82.5015 68.0781 84.1785C68.0781 85.8555 69.4376 87.215 71.1146 87.215Z" fill="#8CBFBE"/>
<path d="M83.8079 87.215C85.4849 87.215 86.8444 85.8555 86.8444 84.1785C86.8444 82.5015 85.4849 81.1421 83.8079 81.1421C82.1309 81.1421 80.7715 82.5015 80.7715 84.1785C80.7715 85.8555 82.1309 87.215 83.8079 87.215Z" fill="#8CBFBE"/>
<path d="M96.5013 87.215C98.1783 87.215 99.5377 85.8555 99.5377 84.1785C99.5377 82.5015 98.1783 81.1421 96.5013 81.1421C94.8243 81.1421 93.4648 82.5015 93.4648 84.1785C93.4648 85.8555 94.8243 87.215 96.5013 87.215Z" fill="#8CBFBE"/>
<path d="M177.596 3.30103H121.681C120.154 3.3056 118.69 3.91455 117.61 4.99484C116.53 6.07513 115.922 7.53892 115.918 9.06638V33.0591C115.922 34.5866 116.53 36.0504 117.61 37.1306C118.69 38.2109 120.154 38.8199 121.681 38.8245H126.844L135.237 51.4381L137.732 38.8245H177.596C179.123 38.8199 180.587 38.211 181.667 37.1308C182.747 36.0505 183.356 34.5868 183.361 33.0591V9.06638C183.356 7.53872 182.747 6.07493 181.667 4.99471C180.587 3.91448 179.123 3.3056 177.596 3.30103Z" fill="white" stroke="#8CBFBE" stroke-width="1.78294" stroke-miterlimit="10"/>
<path d="M173.587 12.0334H125.692V14.784H173.587V12.0334Z" fill="#8CBFBE"/>
<path d="M173.587 19.2888H125.692V22.0394H173.587V19.2888Z" fill="#C6EAE9"/>
<path d="M173.587 26.5422H125.692V29.2928H173.587V26.5422Z" fill="#C6EAE9"/>
<path d="M303.921 95.5204C307.625 79.9974 298.043 64.4108 282.52 60.7068C266.997 57.0028 251.411 66.584 247.707 82.107C244.003 97.63 253.584 113.217 269.107 116.921C284.63 120.625 300.216 111.043 303.921 95.5204Z" fill="#1FC9AA"/>
<path d="M264.174 90.1872L273.246 96.9088L288.783 80.7866" stroke="white" stroke-width="2.1361" stroke-miterlimit="10" stroke-linecap="round" stroke-linejoin="round"/>
<path d="M239.5 135H319.5" stroke="black"/>
<path d="M236 135H316" stroke="#D9D9D9" stroke-width="3" stroke-linecap="round" stroke-linejoin="round"/>
<path d="M247 147H305" stroke="#D9D9D9" stroke-width="3" stroke-linecap="round" stroke-linejoin="round"/>
</svg>
