<svg width="343" height="342" viewBox="0 0 343 342" fill="none" xmlns="http://www.w3.org/2000/svg">
<path d="M213.501 308.712C213.501 308.712 208.007 264.011 247.053 250.42C252.573 249.952 230.043 273.188 233.615 267.983C233.615 267.983 247.835 251.934 256.791 251.594L260.244 252.682C260.244 252.682 241.066 268.952 245.131 273.273C250.115 274.769 262.931 254.162 267.881 253.516L272.823 252.861C272.823 252.861 256.136 269.709 257.148 273.511C260.55 272.66 273.401 253.04 278.929 253.524C280.549 253.675 282.111 254.209 283.484 255.081C284.858 255.954 286.005 257.14 286.83 258.542C286.83 258.542 269.82 266.443 269.684 270.832C269.548 275.22 274.787 278.75 278.861 272.779C282.935 266.809 285.367 262.191 291.618 261.323C297.869 260.456 307.88 264.87 311.375 268.816C314.675 272.388 287.698 277.78 293.081 280.723C298.465 283.666 314.097 272.218 319.446 275.152C324.796 278.086 344.11 301.245 342.409 302.606C340.708 303.967 322.848 305.591 322.848 305.591C322.848 305.591 315.645 296.372 307.99 294.586C300.336 292.8 307.412 300.48 307.412 300.48L284.321 292.494L247.41 296.329L213.501 308.712Z" fill="#EBEBEB"/>
<path d="M222.365 314.674C222.365 314.674 209.114 317.599 202.531 308.414C195.949 299.229 198.389 299.765 199.784 297.596C201.179 295.427 209.497 305.871 210.458 303.549C211.419 301.228 200.303 294.466 199.682 291.166C199.061 287.867 199.121 283.172 201.383 282.704C203.645 282.236 224.848 301.483 229.67 298.974C234.492 296.465 224.788 288.896 219.6 286.557C214.413 284.218 204.819 283.078 206.648 281.046C208.476 279.013 216.173 268.884 238.515 271.69C245.004 275.16 245.702 291.728 248.993 291.821C252.285 291.915 242.257 273.349 245.115 273.298C247.973 273.247 249.257 272.949 250.754 277.21C252.251 281.471 254.003 292.451 259.259 292.229C264.515 292.008 254.436 276.725 257.558 276.53C260.679 276.334 266.437 277.669 268.053 280.076C269.669 282.483 268.903 290.784 273.079 290.426C277.255 290.069 271.795 281.726 276.243 282.662C280.691 283.597 308.561 301.151 308.561 301.151C308.561 301.151 288.201 287.305 222.365 314.674Z" fill="#EBEBEB"/>
<path d="M185.189 217.923C183.59 217.174 183.845 225.331 181.115 230.876C178.385 236.421 174.974 239.151 173.758 237.135C172.542 235.12 181.123 224.038 181.362 219.165C181.6 214.291 175.621 209.418 174.337 209.359C173.052 209.299 172.636 227.661 170.203 230.127C167.771 232.594 166.954 229.617 168.757 226.139C170.56 222.66 172.882 212.208 171.037 209.826C169.191 207.445 163.246 204.996 162.702 206.101C162.158 207.207 164.862 212.242 165.492 216.026C166.121 219.811 165.492 223.511 162.251 222.031C159.011 220.551 162.821 210.337 162.251 208.032C161.681 205.727 154.784 203.21 153.313 203.295C151.841 203.38 141.04 213.016 140.896 215.941C142.477 220.423 151.629 227.448 153.916 227.584C156.204 227.72 159.172 230.646 155.354 231.565C151.101 231.981 140.998 220.508 140.36 220.143C139.722 219.777 137.978 221.963 137.97 225.373C137.961 228.784 147.325 234.371 150.923 235.222C154.52 236.072 162.158 239.763 155.175 241.651C148.193 243.54 138.259 232.56 136.252 233.419C134.245 234.278 135.282 239.874 135.665 242.017C136.048 244.16 139.552 246.27 143.456 246.848C147.359 247.426 158.628 245.138 157.327 249.093C156.026 253.048 137.613 246.839 136.26 247.741C134.908 248.642 134.857 253.031 137.621 256.773C140.232 260.337 157.097 253.643 158.245 256.96C155.515 262.505 141.942 258.806 140.054 260.49C138.166 262.174 140.734 266.715 142.563 269.42C144.391 272.124 146.543 271.759 151.382 269.922C156.221 268.085 161.494 260.889 161.835 263.968C160.695 267.157 150.634 271.793 149.23 273.672C148.933 276.419 153.985 280.289 155.388 281.828C156.791 283.368 166.249 264.053 167.431 266.724C168.613 269.394 158.781 279.421 158.39 280.697C157.999 281.973 162.166 283.844 164.701 282.194C177.824 273.221 175 261.332 173.418 257.071C179.023 269.522 186.133 268.365 189.033 266.97C191.933 265.576 194.816 258.746 193.898 257.045C192.979 255.344 189.832 259.741 184.747 259.945C179.661 260.149 177.875 256.458 177.943 255.166C178.011 253.873 188.676 256.748 192.112 250.267C195.548 243.786 193.294 232.755 192.18 232.203C191.066 231.65 185.291 242.408 182.629 243.259C179.967 244.109 178.861 243.208 179.661 240.325C180.46 237.442 190.062 231.964 189.926 228.052C189.79 224.14 186.788 218.697 185.189 217.923ZM168.587 255.242C168.79 255.687 168.896 256.169 168.899 256.658C168.902 257.146 168.802 257.63 168.606 258.077C168.409 258.524 168.12 258.925 167.758 259.253C167.396 259.58 166.968 259.828 166.504 259.979C163.604 260.651 162.438 256.901 162.634 252.895C162.83 248.889 167.244 251.679 168.587 255.276V255.242ZM163.408 247.409C160.856 245.258 162.83 242.187 165.109 244.322C167.388 246.457 163.408 247.443 163.408 247.443V247.409Z" fill="#EBEBEB"/>
<path d="M173.345 75.7924C187.298 61.8394 187.298 39.2172 173.345 25.2642C159.392 11.3112 136.77 11.3112 122.817 25.2642C108.864 39.2172 108.864 61.8395 122.817 75.7924C136.77 89.7454 159.392 89.7454 173.345 75.7924Z" stroke="#C2D6FF" stroke-width="2" stroke-linecap="round" stroke-linejoin="round"/>
<path d="M300.703 65.6948H214.328C210.373 65.6948 207.167 68.9009 207.167 72.8559V153.303C207.167 157.258 210.373 160.464 214.328 160.464H300.703C304.658 160.464 307.864 157.258 307.864 153.303V72.8559C307.864 68.9009 304.658 65.6948 300.703 65.6948Z" stroke="white" stroke-miterlimit="10"/>
<path d="M131.923 54.791V143.998C131.925 146.083 132.755 148.082 134.23 149.556C135.705 151.029 137.705 151.857 139.79 151.857H293.583C295.667 151.857 297.666 151.029 299.14 149.555C300.613 148.081 301.441 146.083 301.441 143.998V54.791H131.923Z" fill="#EBEBEB"/>
<path d="M293.583 37.0161H139.79C137.703 37.0161 135.702 37.845 134.227 39.3203C132.752 40.7956 131.923 42.7966 131.923 44.8831V60.7872H301.441V44.8831C301.441 42.7981 300.614 40.7984 299.14 39.3233C297.667 37.8482 295.668 37.0184 293.583 37.0161Z" fill="#1FC9AA"/>
<path d="M149.835 48.9061C148.832 48.9061 147.869 48.5074 147.159 47.7976C146.45 47.0878 146.051 46.1252 146.051 45.1214V31.7773C146.051 30.7736 146.45 29.8109 147.159 29.1012C147.869 28.3914 148.832 27.9927 149.835 27.9927C150.839 27.9927 151.802 28.3914 152.512 29.1012C153.221 29.8109 153.62 30.7736 153.62 31.7773V45.1214C153.62 46.1252 153.221 47.0878 152.512 47.7976C151.802 48.5074 150.839 48.9061 149.835 48.9061Z" fill="url(#paint0_linear_5060_22033)"/>
<path d="M194.401 48.9061C193.397 48.9061 192.434 48.5074 191.725 47.7976C191.015 47.0878 190.616 46.1252 190.616 45.1214V31.7773C190.616 30.7736 191.015 29.8109 191.725 29.1012C192.434 28.3914 193.397 27.9927 194.401 27.9927C195.399 28.0016 196.353 28.4043 197.055 29.1131C197.757 29.8219 198.152 30.7794 198.151 31.7773V45.1214C198.152 46.1193 197.757 47.0768 197.055 47.7856C196.353 48.4944 195.399 48.8971 194.401 48.9061Z" fill="url(#paint1_linear_5060_22033)"/>
<path d="M238.974 48.9061C237.97 48.9061 237.008 48.5074 236.298 47.7976C235.588 47.0878 235.189 46.1252 235.189 45.1214V31.7773C235.189 30.7736 235.588 29.8109 236.298 29.1012C237.008 28.3914 237.97 27.9927 238.974 27.9927C239.978 27.9927 240.941 28.3914 241.65 29.1012C242.36 29.8109 242.759 30.7736 242.759 31.7773V45.1214C242.759 46.1252 242.36 47.0878 241.65 47.7976C240.941 48.5074 239.978 48.9061 238.974 48.9061Z" fill="url(#paint2_linear_5060_22033)"/>
<path d="M283.531 48.9061C282.527 48.9061 281.564 48.5074 280.855 47.7976C280.145 47.0878 279.746 46.1252 279.746 45.1214V31.7773C279.746 30.7736 280.145 29.8109 280.855 29.1012C281.564 28.3914 282.527 27.9927 283.531 27.9927C284.535 27.9927 285.497 28.3914 286.207 29.1012C286.917 29.8109 287.315 30.7736 287.315 31.7773V45.1214C287.315 46.1252 286.917 47.0878 286.207 47.7976C285.497 48.5074 284.535 48.9061 283.531 48.9061Z" fill="url(#paint3_linear_5060_22033)"/>
<path d="M173.036 71.1716H155.031C154.303 71.1716 153.713 71.7618 153.713 72.4899V90.4946C153.713 91.2227 154.303 91.8129 155.031 91.8129H173.036C173.764 91.8129 174.354 91.2227 174.354 90.4946V72.4899C174.354 71.7618 173.764 71.1716 173.036 71.1716Z" fill="white"/>
<path d="M199.358 71.1716H181.353C180.625 71.1716 180.035 71.7618 180.035 72.4899V90.4946C180.035 91.2227 180.625 91.8129 181.353 91.8129H199.358C200.086 91.8129 200.676 91.2227 200.676 90.4946V72.4899C200.676 71.7618 200.086 71.1716 199.358 71.1716Z" fill="white"/>
<path d="M225.689 71.1716H207.684C206.956 71.1716 206.366 71.7618 206.366 72.4899V90.4946C206.366 91.2227 206.956 91.8129 207.684 91.8129H225.689C226.417 91.8129 227.007 91.2227 227.007 90.4946V72.4899C227.007 71.7618 226.417 71.1716 225.689 71.1716Z" fill="white"/>
<path d="M252.011 71.1716H234.007C233.279 71.1716 232.688 71.7618 232.688 72.4899V90.4946C232.688 91.2227 233.279 91.8129 234.007 91.8129H252.011C252.74 91.8129 253.33 91.2227 253.33 90.4946V72.4899C253.33 71.7618 252.74 71.1716 252.011 71.1716Z" fill="white"/>
<path d="M278.335 71.1716H260.33C259.602 71.1716 259.012 71.7618 259.012 72.4899V90.4946C259.012 91.2227 259.602 91.8129 260.33 91.8129H278.335C279.063 91.8129 279.653 91.2227 279.653 90.4946V72.4899C279.653 71.7618 279.063 71.1716 278.335 71.1716Z" fill="white"/>
<path d="M173.036 96.1758H155.031C154.303 96.1758 153.713 96.766 153.713 97.494V115.499C153.713 116.227 154.303 116.817 155.031 116.817H173.036C173.764 116.817 174.354 116.227 174.354 115.499V97.494C174.354 96.766 173.764 96.1758 173.036 96.1758Z" fill="white"/>
<path d="M199.358 96.1758H181.353C180.625 96.1758 180.035 96.766 180.035 97.494V115.499C180.035 116.227 180.625 116.817 181.353 116.817H199.358C200.086 116.817 200.676 116.227 200.676 115.499V97.494C200.676 96.766 200.086 96.1758 199.358 96.1758Z" fill="#1FC9AA"/>
<path d="M225.689 96.1758H207.684C206.956 96.1758 206.366 96.766 206.366 97.494V115.499C206.366 116.227 206.956 116.817 207.684 116.817H225.689C226.417 116.817 227.007 116.227 227.007 115.499V97.494C227.007 96.766 226.417 96.1758 225.689 96.1758Z" fill="white"/>
<path d="M252.011 96.1758H234.007C233.279 96.1758 232.688 96.766 232.688 97.494V115.499C232.688 116.227 233.279 116.817 234.007 116.817H252.011C252.74 116.817 253.33 116.227 253.33 115.499V97.494C253.33 96.766 252.74 96.1758 252.011 96.1758Z" fill="white"/>
<path d="M278.335 96.1758H260.33C259.602 96.1758 259.012 96.766 259.012 97.494V115.499C259.012 116.227 259.602 116.817 260.33 116.817H278.335C279.063 116.817 279.653 116.227 279.653 115.499V97.494C279.653 96.766 279.063 96.1758 278.335 96.1758Z" fill="white"/>
<path d="M173.036 121.189H155.031C154.303 121.189 153.713 121.779 153.713 122.507V140.512C153.713 141.24 154.303 141.83 155.031 141.83H173.036C173.764 141.83 174.354 141.24 174.354 140.512V122.507C174.354 121.779 173.764 121.189 173.036 121.189Z" fill="white"/>
<path d="M199.358 121.189H181.353C180.625 121.189 180.035 121.779 180.035 122.507V140.512C180.035 141.24 180.625 141.83 181.353 141.83H199.358C200.086 141.83 200.676 141.24 200.676 140.512V122.507C200.676 121.779 200.086 121.189 199.358 121.189Z" fill="white"/>
<path d="M225.689 121.189H207.684C206.956 121.189 206.366 121.779 206.366 122.507V140.512C206.366 141.24 206.956 141.83 207.684 141.83H225.689C226.417 141.83 227.007 141.24 227.007 140.512V122.507C227.007 121.779 226.417 121.189 225.689 121.189Z" fill="white"/>
<path d="M252.011 121.189H234.007C233.279 121.189 232.688 121.779 232.688 122.507V140.512C232.688 141.24 233.279 141.83 234.007 141.83H252.011C252.74 141.83 253.33 141.24 253.33 140.512V122.507C253.33 121.779 252.74 121.189 252.011 121.189Z" fill="white"/>
<path d="M278.335 121.189H260.33C259.602 121.189 259.012 121.779 259.012 122.507V140.512C259.012 141.24 259.602 141.83 260.33 141.83H278.335C279.063 141.83 279.653 141.24 279.653 140.512V122.507C279.653 121.779 279.063 121.189 278.335 121.189Z" fill="white"/>
<path d="M88.608 200.496C69.5433 200.496 51.2592 192.924 37.776 179.446C24.2929 165.968 16.7148 147.686 16.708 128.622" stroke="#BBD4FF" stroke-width="2" stroke-linecap="round" stroke-linejoin="round"/>
<path d="M316.207 74.9053V101.891" stroke="#8182EE" stroke-width="2" stroke-linecap="round" stroke-linejoin="round"/>
<path d="M318.554 173.782H238.914C236.932 173.782 235.325 175.389 235.325 177.372V192.349C235.325 194.331 236.932 195.938 238.914 195.938H318.554C320.536 195.938 322.143 194.331 322.143 192.349V177.372C322.143 175.389 320.536 173.782 318.554 173.782Z" fill="#DCE9FF"/>
<path d="M309.3 182.925H249.826C249.375 182.925 248.942 182.746 248.623 182.427C248.304 182.108 248.125 181.676 248.125 181.224C248.125 180.773 248.304 180.341 248.623 180.022C248.942 179.703 249.375 179.523 249.826 179.523H309.3C309.751 179.523 310.184 179.703 310.503 180.022C310.822 180.341 311.001 180.773 311.001 181.224C311.001 181.676 310.822 182.108 310.503 182.427C310.184 182.746 309.751 182.925 309.3 182.925Z" fill="white"/>
<path d="M261.256 190.001H249.826C249.375 190.001 248.942 189.822 248.623 189.503C248.304 189.184 248.125 188.751 248.125 188.3C248.125 187.849 248.304 187.417 248.623 187.098C248.942 186.779 249.375 186.599 249.826 186.599H261.256C261.708 186.599 262.14 186.779 262.459 187.098C262.778 187.417 262.957 187.849 262.957 188.3C262.957 188.751 262.778 189.184 262.459 189.503C262.14 189.822 261.708 190.001 261.256 190.001Z" fill="white"/>
<path d="M318.274 159.24C328.683 148.831 328.683 131.955 318.274 121.546C307.864 111.137 290.988 111.137 280.579 121.546C270.17 131.955 270.17 148.831 280.579 159.24C290.988 169.65 307.864 169.65 318.274 159.24Z" fill="#EBEBEB"/>
<path d="M315.015 155.981C323.623 147.372 323.623 133.414 315.015 124.805C306.406 116.196 292.448 116.196 283.839 124.805C275.23 133.414 275.23 147.372 283.839 155.981C292.448 164.59 306.406 164.59 315.015 155.981Z" fill="url(#paint4_linear_5060_22033)"/>
<path d="M299.095 125.254V142.697L307.157 134.635" stroke="#BBD4FF" stroke-width="2" stroke-linecap="round" stroke-linejoin="round"/>
<path d="M276.727 216.222C276.729 217.2 276.441 218.156 275.899 218.969C275.357 219.783 274.586 220.418 273.683 220.793C272.78 221.168 271.786 221.267 270.827 221.078C269.868 220.888 268.987 220.418 268.295 219.727C267.603 219.037 267.132 218.156 266.94 217.198C266.749 216.239 266.846 215.245 267.22 214.341C267.594 213.438 268.227 212.666 269.04 212.122C269.853 211.579 270.808 211.289 271.786 211.289C273.095 211.289 274.351 211.808 275.277 212.733C276.203 213.658 276.725 214.913 276.727 216.222Z" stroke="#BBD4FF" stroke-width="2" stroke-linecap="round" stroke-linejoin="round"/>
<path d="M276.064 231.531C276.064 231.921 275.949 232.302 275.732 232.627C275.515 232.951 275.207 233.204 274.846 233.353C274.486 233.503 274.089 233.542 273.706 233.466C273.324 233.39 272.972 233.202 272.696 232.926C272.42 232.65 272.232 232.298 272.156 231.915C272.08 231.533 272.119 231.136 272.268 230.775C272.418 230.415 272.671 230.107 272.995 229.89C273.32 229.673 273.701 229.557 274.091 229.557C274.615 229.557 275.116 229.765 275.486 230.135C275.857 230.505 276.064 231.007 276.064 231.531Z" stroke="#BBD4FF" stroke-linecap="round" stroke-linejoin="round"/>
<path d="M31.2427 188.768C31.2427 189.946 30.8936 191.097 30.2394 192.076C29.5852 193.055 28.6554 193.818 27.5676 194.269C26.4798 194.719 25.2827 194.837 24.1279 194.607C22.973 194.378 21.9122 193.811 21.0797 192.978C20.2471 192.145 19.68 191.085 19.4503 189.93C19.2206 188.775 19.3385 187.578 19.7891 186.49C20.2397 185.402 21.0028 184.472 21.9818 183.818C22.9608 183.164 24.1119 182.815 25.2893 182.815C26.8683 182.815 28.3825 183.442 29.499 184.559C30.6155 185.675 31.2427 187.189 31.2427 188.768Z" fill="#BBD4FF"/>
<path d="M121.403 30.1527C121.403 30.8037 121.21 31.44 120.848 31.9813C120.487 32.5226 119.973 32.9444 119.371 33.1935C118.77 33.4427 118.108 33.5078 117.47 33.3808C116.831 33.2538 116.245 32.9404 115.784 32.4801C115.324 32.0198 115.011 31.4333 114.884 30.7948C114.757 30.1564 114.822 29.4946 115.071 28.8931C115.32 28.2917 115.742 27.7777 116.283 27.416C116.824 27.0544 117.461 26.8613 118.112 26.8613C118.985 26.8613 119.822 27.2081 120.439 27.8254C121.056 28.4426 121.403 29.2798 121.403 30.1527Z" fill="#176CFF"/>
<path d="M299.103 205.216C299.103 205.867 298.91 206.504 298.549 207.045C298.187 207.586 297.673 208.008 297.071 208.257C296.47 208.506 295.808 208.572 295.17 208.445C294.531 208.318 293.945 208.004 293.485 207.544C293.024 207.083 292.711 206.497 292.584 205.859C292.457 205.22 292.522 204.558 292.771 203.957C293.02 203.355 293.442 202.841 293.983 202.48C294.525 202.118 295.161 201.925 295.812 201.925C296.685 201.925 297.522 202.272 298.139 202.889C298.756 203.506 299.103 204.343 299.103 205.216Z" fill="#BBD4FF"/>
<path d="M161.129 319.547C161.129 319.547 175.357 267.251 131.183 244.33C124.694 242.817 147.495 274.37 144.178 267.557C144.178 267.557 129.992 245.997 119.378 244.05L115.126 244.756C115.126 244.756 135.18 267.387 129.584 271.886C123.393 272.805 111.664 246.057 105.89 244.433L100.106 242.8C100.106 242.8 117.116 265.763 115.228 270.1C111.299 268.535 99.3918 242.885 92.7155 242.544C90.7607 242.444 88.8099 242.81 87.0248 243.613C85.2397 244.416 83.6715 245.633 82.4502 247.163C82.4502 247.163 101.373 259.503 100.761 264.751C100.149 269.998 93.3364 273.306 89.4837 265.49C85.631 257.675 83.5303 251.755 76.2417 249.646C68.953 247.537 56.2553 251.075 51.416 255.174C46.8744 258.865 78.0872 269.93 71.1643 272.533C64.2413 275.135 47.5463 258.746 40.6234 261.349C33.7004 263.951 6.79107 288.198 8.57709 290.112C10.3631 292.026 31.3956 297.018 31.3956 297.018C31.3956 297.018 41.5589 287.271 50.9567 286.463C60.3546 285.655 49.0857 294.118 49.0857 294.118L79.516 288.037L122.831 298.966L161.129 319.547Z" fill="#EBEBEB"/>
<path d="M149.545 325.084C149.545 325.084 164.854 330.85 174.209 321.044C183.564 311.238 180.63 311.442 179.312 308.627C177.994 305.812 166.317 316.817 165.568 313.908C164.82 311 179.236 304.783 180.545 300.981C181.855 297.179 182.586 291.549 179.95 290.605C177.313 289.661 148.822 308.967 143.524 305.148C138.225 301.33 151.067 293.999 157.65 292.093C164.233 290.188 175.859 290.495 174.031 287.756C172.202 285.017 164.777 271.597 137.681 271.104C129.355 274.123 125.672 293.743 121.734 293.284C117.796 292.825 132.935 272.43 129.542 271.886C126.148 271.342 124.668 270.755 122.151 275.577C119.634 280.399 115.653 293.174 109.394 291.991C103.134 290.809 117.805 274.352 114.097 273.578C110.389 272.804 103.321 273.417 100.991 276.002C98.6606 278.588 98.0907 288.606 93.2175 287.475C88.3442 286.344 96.2452 277.329 90.7851 277.669C85.325 278.009 49.1113 294.135 49.1113 294.135C49.1113 294.135 91.8822 274.182 149.545 325.084Z" fill="#EBEBEB"/>
<path d="M179.321 238.122C179.321 238.122 165.5 243.386 158.263 255.233C151.025 267.081 130.622 285.511 113.51 278.928C96.3984 272.345 82.578 242.731 75.3319 241.413C68.0857 240.095 61.5115 245.359 65.4663 255.233C69.421 265.107 92.4436 302.622 125.357 310.515C158.271 318.407 184.585 293.403 184.585 293.403C184.585 293.403 197.087 250.632 179.321 238.122Z" fill="#176CFF"/>
<path d="M203.671 172.311C203.671 172.311 217.491 172.966 225.392 189.423C233.293 205.88 235.258 203.881 249.087 208.508C262.916 213.134 258.953 234.175 266.854 238.122C274.755 242.068 289.23 249.969 289.885 271.69C290.54 293.412 254.351 317.098 223.419 298.013C192.487 278.928 196.433 255.233 189.851 244.05C183.268 232.866 175.392 234.175 170.766 222.328C166.139 210.481 176.03 200.607 176.719 194.033C177.408 187.458 185.241 167.744 203.671 172.311Z" fill="black"/>
<path d="M205.804 172.609C205.804 172.609 187.374 166.094 170.645 181.403C153.916 196.711 161.29 220.236 180.29 233.844C195.879 225.628 210.907 176.861 210.907 176.861L205.804 172.609Z" fill="black"/>
<path d="M232.791 254.74C221.437 235.987 201.697 233.027 201.697 233.027C192.342 231.046 178.496 237.467 172.576 242.893C166.657 248.319 161.716 267.557 161.716 267.557C161.716 267.557 148.882 284.83 148.882 292.731C148.882 300.632 155.294 307.045 155.294 311.442C155.294 314.844 155.014 323.961 153.781 329.421C168.969 329.427 184.089 327.396 198.737 323.383C218.656 317.923 230.732 305.659 239.697 290.282C240.071 279.523 239.101 265.159 232.791 254.74Z" fill="#176CFF"/>
<path opacity="0.54" d="M211.979 236.378L211.52 236.166C197.224 256.866 177.424 260.098 175.221 260.396C173.274 253.847 173.461 246.609 173.954 241.736L173.41 242.178C172.951 247.137 172.84 254.281 174.805 260.736L174.864 260.932H175.068C175.298 260.889 196.764 258.474 211.979 236.378Z" fill="white"/>
<path d="M186.543 215.822C186.543 215.822 177.026 226.734 177.349 255.897C182.834 255.208 193.312 250.607 201.894 242.085C205.508 238.487 205.491 236.131 203.867 231.258C203.068 228.877 203.816 222.932 205.032 216.188C204.956 206.467 186.543 215.822 186.543 215.822Z" fill="url(#paint5_linear_5060_22033)"/>
<path d="M180.291 183.963C178.156 187.203 172.823 195.742 170.17 203.686C169.611 205.344 169.384 207.095 169.503 208.841C169.623 210.587 170.085 212.291 170.864 213.858C171.643 215.425 172.723 216.822 174.043 217.971C175.363 219.119 176.896 219.996 178.556 220.551C188.583 223.8 203.109 224.387 206.97 219.326C212.703 211.816 225.596 199.102 217.066 185.239C208.782 171.767 194.953 169.99 182.315 181.539C181.543 182.261 180.863 183.075 180.291 183.963Z" fill="url(#paint6_linear_5060_22033)"/>
<path d="M185.505 177.457C185.505 177.457 178.701 192.859 208.629 210.081L212.448 212.573C212.448 212.573 222.815 204.647 221.114 193.505C219.413 182.364 213.349 177.15 207.583 173.561C201.817 169.972 188.515 174.072 185.505 177.457Z" fill="black"/>
<path d="M208.297 212.445C208.297 212.445 214.463 208.652 215.237 213.542C216.011 218.433 206.962 221.537 205.567 219.266C204.172 216.995 208.297 212.445 208.297 212.445Z" fill="url(#paint7_linear_5060_22033)"/>
<path opacity="0.54" d="M209.504 319.411C216.674 297.451 212.762 275.824 212.711 275.543L211.758 275.756C211.809 276.028 215.772 297.996 208.288 319.981L209.504 319.411Z" fill="white"/>
<path d="M64.8289 226.564C64.8289 226.564 54.6911 220.381 51.9695 222.116C49.248 223.851 50.4897 226.317 50.4897 229.277C50.4897 232.237 50.4897 240.155 55.1844 242.136C57.8251 243.322 60.7885 243.583 63.5957 242.876L64.8289 226.564Z" fill="url(#paint8_linear_5060_22033)"/>
<path d="M62.0733 235.613C60.4311 236.166 58.7017 236.414 56.9704 236.344H56.8938C54.8549 236.252 52.8444 235.829 50.9404 235.094C51.0085 235.477 51.085 235.859 51.1786 236.234C53.0278 236.892 54.9664 237.264 56.9278 237.339C57.3871 237.441 58.7819 237.833 58.7054 238.887C58.6926 239.039 58.6393 239.185 58.551 239.309C58.4628 239.433 58.3428 239.531 58.2036 239.593C57.1915 240.154 54.8952 240.061 51.978 238.641C52.2137 239.146 52.4985 239.628 52.8285 240.078C54.0487 240.589 55.3507 240.877 56.6727 240.928C57.3831 240.955 58.0886 240.8 58.7224 240.478C59.0036 240.335 59.2436 240.122 59.4193 239.86C59.595 239.598 59.7005 239.295 59.7259 238.981C59.7536 238.662 59.7047 238.342 59.5834 238.046C59.4621 237.75 59.2719 237.487 59.0285 237.28C60.2078 237.177 61.3702 236.932 62.49 236.548L62.0733 235.613Z" fill="#FF957A"/>
<path d="M50.5574 223.646C50.3978 224.008 50.2973 224.393 50.2598 224.786C51.8417 226.368 55.4562 228.979 63.017 230.51L63.2126 229.54C55.0735 227.899 51.7056 224.948 50.5574 223.646Z" fill="#FF957A"/>
<path d="M62.0228 233.359L61.9463 232.372C57.9327 232.63 53.936 231.657 50.4902 229.583C50.4902 229.923 50.4902 230.306 50.4902 230.739C53.5299 232.468 56.9612 233.39 60.4579 233.418C60.9767 233.418 61.4955 233.401 62.0228 233.359Z" fill="#FF957A"/>
<path d="M75.6804 243.369C75.6804 243.369 70.4839 238.921 69.727 236.693C68.9701 234.465 69.4803 229.532 68.026 227.337C66.5717 225.143 66.5377 218.935 67.031 216.706C67.2776 214.487 63.8246 215.473 63.578 218.195C63.3313 220.916 63.578 223.136 63.3228 225.356C63.0677 227.576 59.8699 232.279 60.3631 235.987C60.8564 239.695 59.6147 242.17 61.843 243.896C62.955 244.857 64.336 245.451 65.7977 245.597L68.5193 248.812L75.6804 243.369Z" fill="url(#paint9_linear_5060_22033)"/>
<path d="M63.7741 245.606C63.9782 244.9 71.6666 243.633 72.6531 239.44C74.3541 238.453 76.8545 241.413 76.3612 244.126C75.8679 246.839 71.9132 250.3 67.7203 250.547C63.5274 250.794 63.2468 247.341 63.7741 245.606Z" fill="#2C374A"/>
<path d="M132.985 174.122C157.467 149.64 157.467 109.948 132.985 85.4662C108.503 60.9845 68.8106 60.9846 44.3289 85.4662C19.8473 109.948 19.8473 149.64 44.3289 174.122C68.8106 198.604 108.503 198.604 132.985 174.122Z" fill="#1FC9AA"/>
<path d="M173.869 128.307C173.901 126.462 174.187 124.631 174.72 122.864C175.628 120.498 176.673 118.186 177.849 115.941C178.836 114.623 179.661 117.753 179.499 119.403C179.338 121.053 178.504 122.702 178.836 123.034L179.168 123.357C179.168 123.357 177.186 123.034 182.136 120.389C187.086 117.744 187.902 118.084 188.889 116.273C190.045 114.461 191.364 113.466 191.364 115.422C191.364 117.378 193.014 120.695 189.22 124.489C185.427 128.282 181.966 127.788 181.141 128.741C180.615 129.398 180.172 130.118 179.823 130.884L173.869 128.307Z" fill="url(#paint10_linear_5060_22033)"/>
<path d="M115.892 139.075C115.892 139.075 118.971 138.224 125.57 145.232C132.17 152.24 140.956 160.617 149.741 160.175C158.527 159.733 172.636 126.768 172.636 126.768C175.717 127.338 178.595 128.701 180.988 130.723C180.988 130.723 176.693 172.184 161.206 179.957C147.998 186.583 130.435 184.354 119.447 175.127C108.459 165.899 97.4364 139.959 115.892 139.075Z" fill="white"/>
<mask id="mask0_5060_22033" style="mask-type:luminance" maskUnits="userSpaceOnUse" x="25" y="67" width="127" height="126">
<path d="M132.984 174.122C157.466 149.641 157.466 109.948 132.984 85.4665C108.502 60.9848 68.8096 60.9848 44.328 85.4665C19.8463 109.948 19.8463 149.641 44.328 174.122C68.8096 198.604 108.502 198.604 132.984 174.122Z" fill="white"/>
</mask>
<g mask="url(#mask0_5060_22033)">
<path d="M93.7609 111.731L96.2699 131.769H77.168L80.6124 107.351L93.7609 111.731Z" fill="url(#paint11_linear_5060_22033)"/>
<path d="M94.0334 113.883L80.2301 110.115L79.5752 114.725C80.1535 117.149 81.914 121.316 87.3146 124.208C89.8773 125.393 92.695 125.922 95.5133 125.747L94.0334 113.883Z" fill="#FF6746"/>
<path d="M75.2629 102.061C76.0114 110.047 86.3192 123.944 94.3393 123.196C102.359 122.447 104.945 107.326 104.188 99.3395C104.053 97.4075 103.532 95.5219 102.657 93.7939C101.783 92.0659 100.571 90.5303 99.0941 89.2774C97.6171 88.0245 95.9045 87.0796 94.0569 86.4983C92.2094 85.917 90.2643 85.711 88.336 85.8925C86.4077 86.074 84.5352 86.6393 82.8286 87.5551C81.1219 88.4709 79.6157 89.7187 78.3984 91.2252C77.1811 92.7317 76.2774 94.4664 75.7404 96.3273C75.2034 98.1882 75.044 100.138 75.2714 102.061H75.2629Z" fill="url(#paint12_linear_5060_22033)"/>
<path d="M74.6667 94.7046C74.6667 94.7046 73.8162 87.654 78.7405 85.2642C83.6648 82.8743 96.8303 86.0636 101.593 80.1017C106.356 74.1398 112.53 83.5037 109.545 88.2494C106.56 92.9951 105.208 98.4552 90.2731 95.9973C82.9164 94.8066 81.326 99.7735 81.7682 102.155C82.2105 104.536 84.7449 108.516 84.7449 109.512C84.7449 110.507 83.1545 110.507 82.5592 109.707C81.9638 108.908 81.1729 104.545 78.3918 105.14C75.6107 105.735 78.9871 111.697 81.3685 112.488C81.5831 112.806 81.7136 113.174 81.7479 113.556C81.7821 113.938 81.7188 114.323 81.5641 114.674C80.9688 115.669 71.6304 108.516 71.4348 101.764C71.2392 95.0107 74.6667 94.7046 74.6667 94.7046Z" fill="#2C374A"/>
<path d="M96.2698 127.542L90.1378 130.323L77.9333 126.572L74.4123 130.824C74.4123 130.824 50.7008 139.746 50.2245 142.093C49.7482 144.441 61.9697 212.046 61.9697 212.046V217.217H115.958L116.851 141.124L98.6426 131.768L96.2698 127.542Z" fill="#176CFF"/>
<path d="M83.2571 106.722C84.473 108.252 85.3774 110.006 85.9191 111.884C87.0163 115.329 89.5167 110.481 94.5261 109.231C99.5354 107.98 103.295 110.319 103.133 113.143C102.971 115.966 99.3228 123.349 93.8712 123.825C88.4196 124.301 84.2012 119.717 83.5718 116.426C82.9424 113.134 82.7894 110.013 81.5391 107.972C81.3776 106.101 83.2571 106.722 83.2571 106.722Z" fill="#2C374A"/>
<path d="M90.9457 137.246L95.011 186.863L91.0987 192.655L86.7188 186.863L88.7514 136.931L90.9457 137.246Z" fill="#254DA1"/>
<path d="M72.1504 131.454C72.1504 131.454 84.0572 164.096 76.4029 211.901C68.7485 259.707 65.1935 308.508 65.1935 308.508C65.1935 308.508 40.1297 308.831 33.8701 307.181C33.8701 307.181 41.7796 261.357 48.0477 227.397C54.3158 193.437 53.6524 196.406 53.6524 195.419C53.6524 194.432 49.6976 156.841 49.6976 156.841L47.4013 141.158C47.4013 141.158 64.2324 133.436 72.1504 131.454Z" fill="white"/>
<path d="M102.045 133.546C102.045 133.546 116.554 269.377 116.554 310.26H139.415C139.415 310.26 136.336 254.876 129.745 227.618C123.154 200.36 118.306 139.678 118.306 139.678C118.306 139.678 113.033 136.183 102.045 133.546Z" fill="white"/>
<path d="M76.2666 131.785L83.6828 140.027L89.7808 136.565L94.569 140.528L98.8555 132.942" stroke="#218498" stroke-width="0.25" stroke-miterlimit="10"/>
<path d="M47.4352 141.158C47.4352 141.158 30.8252 159.92 30.8252 203.005C30.8252 245.64 31.4886 250.913 31.4886 250.913H41.3797C41.3797 250.913 45.7767 211.357 48.847 193.769C51.9172 176.181 67.7532 165.193 66.435 152.01C65.1167 138.828 53.4991 137.339 47.4352 141.158Z" fill="white"/>
<path d="M118.306 139.678C118.306 139.678 127.355 144.288 129.907 166.97L132.458 189.652L113.467 190.214L118.306 139.678Z" fill="white"/>
</g>
<path d="M57.4813 88.8956H26.5492C24.0409 88.8956 21.6354 89.892 19.8618 91.6656C18.0882 93.4392 17.0918 95.8447 17.0918 98.353V111.025C17.0918 113.533 18.0882 115.939 19.8618 117.713C21.6354 119.486 24.0409 120.483 26.5492 120.483H50.3628L56.7754 126.904V120.483H57.5153C58.758 120.484 59.9887 120.24 61.1371 119.765C62.2855 119.29 63.3291 118.594 64.2082 117.716C65.0873 116.837 65.7847 115.794 66.2605 114.646C66.7363 113.498 66.9812 112.268 66.9812 111.025V98.353C66.9812 97.1075 66.7352 95.8742 66.2573 94.724C65.7794 93.5738 65.0789 92.5293 64.1962 91.6505C63.3135 90.7718 62.2659 90.076 61.1136 89.6033C59.9612 89.1305 58.7269 88.89 57.4813 88.8956Z" fill="#FDFEFF"/>
<path d="M56.8253 102.963H26.2078C25.7567 102.963 25.324 102.784 25.005 102.465C24.686 102.146 24.5068 101.713 24.5068 101.262C24.5068 100.811 24.686 100.378 25.005 100.059C25.324 99.74 25.7567 99.5608 26.2078 99.5608H56.8253C57.2764 99.5608 57.709 99.74 58.028 100.059C58.347 100.378 58.5262 100.811 58.5262 101.262C58.5262 101.713 58.347 102.146 58.028 102.465C57.709 102.784 57.2764 102.963 56.8253 102.963Z" fill="#BBD4FF"/>
<path d="M37.6559 110.039H26.2254C25.7743 110.039 25.3416 109.86 25.0226 109.541C24.7036 109.222 24.5244 108.789 24.5244 108.338C24.5244 107.887 24.7036 107.454 25.0226 107.135C25.3416 106.816 25.7743 106.637 26.2254 106.637H37.6559C38.107 106.637 38.5397 106.816 38.8587 107.135C39.1777 107.454 39.3569 107.887 39.3569 108.338C39.3569 108.789 39.1777 109.222 38.8587 109.541C38.5397 109.86 38.107 110.039 37.6559 110.039Z" fill="#BBD4FF"/>
<path d="M208.271 319.981C208.271 319.981 204.41 297.945 191.372 299.076C178.334 300.207 178.326 311.553 178.326 311.553C178.326 311.553 173.223 305.31 165.858 309.852C158.492 314.393 159.054 320.619 159.054 320.619C159.054 320.619 152.25 316.656 147.147 321.758C142.044 326.861 143.175 329.693 143.175 329.693C143.175 329.693 180.954 332.364 208.271 319.981Z" fill="#EBEBEB"/>
<path d="M226.522 293.948C226.522 293.948 222.551 284.312 229.924 279.77C233.896 279.209 235.027 284.312 235.027 284.312C235.027 284.312 235.597 274.667 244.663 274.106C253.729 273.545 248.635 285.443 248.635 285.443C248.635 285.443 254.308 284.312 256.009 288.845C257.71 293.378 247.419 299.187 247.419 299.187L226.522 293.948Z" fill="url(#paint13_linear_5060_22033)"/>
<path d="M229.925 313.228C228.119 316.442 226.561 319.788 225.264 323.238C233.097 324.055 240.845 325.543 248.423 327.686C250.268 325.135 254.895 322.694 257.14 321.733C257.447 323.255 256.596 326.921 255.754 329.974C266.099 333.19 276.177 337.211 285.895 342C285.223 335.196 281.643 325.05 281.643 325.05C277.441 313.058 271.105 305.038 262.218 298.77C259.819 299.263 255.414 299.943 253.5 300.896C254.26 298.657 255.315 296.529 256.639 294.568C243.813 287.382 228.743 286.251 215.943 292.587C192.299 304.281 190.709 325.807 190.709 325.807C198.414 323.859 207.906 322.175 216.07 322.498C218.367 320.253 224.516 314.58 229.925 313.228Z" fill="#EBEBEB"/>
<defs>
<linearGradient id="paint0_linear_5060_22033" x1="149.835" y1="-1.4341" x2="149.835" y2="70.0832" gradientUnits="userSpaceOnUse">
<stop stop-color="#D8E2F6"/>
<stop offset="0.01" stop-color="#DAE3F6"/>
<stop offset="0.12" stop-color="#EBF0FA"/>
<stop offset="0.26" stop-color="#F6F9FD"/>
<stop offset="0.46" stop-color="#FDFEFF"/>
<stop offset="1" stop-color="white"/>
</linearGradient>
<linearGradient id="paint1_linear_5060_22033" x1="194.401" y1="-1.4341" x2="194.401" y2="70.0832" gradientUnits="userSpaceOnUse">
<stop stop-color="#D8E2F6"/>
<stop offset="0.01" stop-color="#DAE3F6"/>
<stop offset="0.12" stop-color="#EBF0FA"/>
<stop offset="0.26" stop-color="#F6F9FD"/>
<stop offset="0.46" stop-color="#FDFEFF"/>
<stop offset="1" stop-color="white"/>
</linearGradient>
<linearGradient id="paint2_linear_5060_22033" x1="238.966" y1="-1.4341" x2="238.966" y2="70.0832" gradientUnits="userSpaceOnUse">
<stop stop-color="#D8E2F6"/>
<stop offset="0.01" stop-color="#DAE3F6"/>
<stop offset="0.12" stop-color="#EBF0FA"/>
<stop offset="0.26" stop-color="#F6F9FD"/>
<stop offset="0.46" stop-color="#FDFEFF"/>
<stop offset="1" stop-color="white"/>
</linearGradient>
<linearGradient id="paint3_linear_5060_22033" x1="283.531" y1="-1.4341" x2="283.531" y2="70.0832" gradientUnits="userSpaceOnUse">
<stop stop-color="#D8E2F6"/>
<stop offset="0.01" stop-color="#DAE3F6"/>
<stop offset="0.12" stop-color="#EBF0FA"/>
<stop offset="0.26" stop-color="#F6F9FD"/>
<stop offset="0.46" stop-color="#FDFEFF"/>
<stop offset="1" stop-color="white"/>
</linearGradient>
<linearGradient id="paint4_linear_5060_22033" x1="291.253" y1="174.94" x2="303.202" y2="124.438" gradientUnits="userSpaceOnUse">
<stop stop-color="#D8E2F6"/>
<stop offset="0.01" stop-color="#DAE3F6"/>
<stop offset="0.12" stop-color="#EBF0FA"/>
<stop offset="0.26" stop-color="#F6F9FD"/>
<stop offset="0.46" stop-color="#FDFEFF"/>
<stop offset="1" stop-color="white"/>
</linearGradient>
<linearGradient id="paint5_linear_5060_22033" x1="186.653" y1="254.519" x2="194.843" y2="225.441" gradientUnits="userSpaceOnUse">
<stop stop-color="#FFB58E"/>
<stop offset="0.3" stop-color="#FEB28B"/>
<stop offset="0.55" stop-color="#FDA981"/>
<stop offset="0.77" stop-color="#FA9A70"/>
<stop offset="0.97" stop-color="#F68558"/>
<stop offset="1" stop-color="#F58255"/>
</linearGradient>
<linearGradient id="paint6_linear_5060_22033" x1="186.125" y1="172.345" x2="201.927" y2="225.654" gradientUnits="userSpaceOnUse">
<stop stop-color="#FFB58E"/>
<stop offset="0.33" stop-color="#FEB38B"/>
<stop offset="0.59" stop-color="#FCAD81"/>
<stop offset="0.83" stop-color="#F9A370"/>
<stop offset="1" stop-color="#F5985F"/>
</linearGradient>
<linearGradient id="paint7_linear_5060_22033" x1="208.442" y1="178.137" x2="209.922" y2="208.746" gradientUnits="userSpaceOnUse">
<stop stop-color="#FFB58E"/>
<stop offset="0.33" stop-color="#FEB38B"/>
<stop offset="0.59" stop-color="#FCAD81"/>
<stop offset="0.83" stop-color="#F9A370"/>
<stop offset="1" stop-color="#F5985F"/>
</linearGradient>
<linearGradient id="paint8_linear_5060_22033" x1="50.209" y1="232.534" x2="64.8289" y2="232.534" gradientUnits="userSpaceOnUse">
<stop stop-color="#FFB58E"/>
<stop offset="0.33" stop-color="#FEB38B"/>
<stop offset="0.59" stop-color="#FCAD81"/>
<stop offset="0.83" stop-color="#F9A370"/>
<stop offset="1" stop-color="#F5985F"/>
</linearGradient>
<linearGradient id="paint9_linear_5060_22033" x1="60.3291" y1="232.126" x2="75.7059" y2="232.126" gradientUnits="userSpaceOnUse">
<stop stop-color="#FFB58E"/>
<stop offset="0.33" stop-color="#FEB38B"/>
<stop offset="0.59" stop-color="#FCAD81"/>
<stop offset="0.83" stop-color="#F9A370"/>
<stop offset="1" stop-color="#F5985F"/>
</linearGradient>
<linearGradient id="paint10_linear_5060_22033" x1="193.184" y1="102.248" x2="176.897" y2="133.351" gradientUnits="userSpaceOnUse">
<stop stop-color="#FFB58E"/>
<stop offset="0.33" stop-color="#FEB38B"/>
<stop offset="0.59" stop-color="#FCAD81"/>
<stop offset="0.83" stop-color="#F9A370"/>
<stop offset="1" stop-color="#F5985F"/>
</linearGradient>
<linearGradient id="paint11_linear_5060_22033" x1="95.9637" y1="108.27" x2="82.1433" y2="129.005" gradientUnits="userSpaceOnUse">
<stop stop-color="#FFB58E"/>
<stop offset="0.33" stop-color="#FEB38B"/>
<stop offset="0.59" stop-color="#FCAD81"/>
<stop offset="0.83" stop-color="#F9A370"/>
<stop offset="1" stop-color="#F5985F"/>
</linearGradient>
<linearGradient id="paint12_linear_5060_22033" x1="104.945" y1="86.5908" x2="83.2235" y2="112.752" gradientUnits="userSpaceOnUse">
<stop stop-color="#FFB58E"/>
<stop offset="0.33" stop-color="#FEB38B"/>
<stop offset="0.59" stop-color="#FCAD81"/>
<stop offset="0.83" stop-color="#F9A370"/>
<stop offset="1" stop-color="#F5985F"/>
</linearGradient>
<linearGradient id="paint13_linear_5060_22033" x1="225.459" y1="286.634" x2="256.196" y2="286.634" gradientUnits="userSpaceOnUse">
<stop stop-color="#6060E7"/>
<stop offset="1" stop-color="#8182EE"/>
</linearGradient>
</defs>
</svg>
