<svg width="334" height="340" viewBox="0 0 334 340" fill="none" xmlns="http://www.w3.org/2000/svg">
<g clip-path="url(#clip0_5060_22213)">
<path d="M253.767 0.221084L232.268 11.0331C231.48 11.3687 230.809 11.9292 230.337 12.6448C229.865 13.3604 229.614 14.1994 229.614 15.0572V25.1396C229.595 34.3054 232.261 43.2751 237.28 50.9351C241.154 56.8313 246.292 64.4151 254.84 68.7414H258.691C268.209 65.7934 275.309 58.0768 279.646 51.4437C284.665 43.7832 287.331 34.8138 287.312 25.6481V15.0572C287.312 14.2004 287.061 13.3624 286.591 12.6471C286.121 11.9318 285.451 11.3706 284.666 11.0331L260.176 0.56748C259.081 0.103161 254.854 -0.243236 253.767 0.221084Z" fill="#E0E0E0"/>
<path d="M252.9 0.567424L228.409 11.033C227.622 11.3687 226.951 11.9292 226.479 12.6447C226.007 13.3603 225.755 14.1993 225.756 15.0571V25.1395C225.756 34.4803 228.52 43.611 233.697 51.3763C238.874 59.1416 246.232 65.1925 254.84 68.7635C264.351 65.8154 271.451 58.0989 275.795 51.4657C280.815 43.7975 283.48 34.8208 283.461 25.6481V15.0571C283.461 14.1993 283.21 13.3603 282.738 12.6447C282.266 11.9292 281.595 11.3687 280.808 11.033L256.317 0.567424C255.776 0.339385 255.195 0.221924 254.608 0.221924C254.022 0.221924 253.441 0.339385 252.9 0.567424Z" fill="#F5F5F5"/>
<path d="M283.38 22.9138C283.414 23.0663 283.428 23.2221 283.424 23.3781C283.424 23.7245 283.461 24.1667 283.483 24.7121C283.505 25.2575 283.542 26.0019 283.483 26.8274C283.424 27.6528 283.483 28.5962 283.351 29.628C283.219 30.6598 283.182 31.8391 282.969 33.0109C282.873 33.6153 282.8 34.2417 282.675 34.883C282.55 35.5242 282.395 36.1727 282.256 36.8434C281.578 39.7533 280.631 42.5933 279.426 45.3265C278.188 48.0462 276.712 50.6506 275.016 53.1093C274.2 54.2149 273.443 55.3204 272.635 56.1974C272.238 56.6618 271.9 57.1334 271.495 57.5462L270.378 58.7328C269.68 59.4698 268.967 60.1184 268.372 60.6932C267.776 61.2681 267.232 61.7177 266.784 62.0788L265.821 62.919C265.707 63.0239 265.581 63.1154 265.446 63.1917C265.544 63.0694 265.655 62.9582 265.777 62.8601L266.769 61.9683C267.203 61.5924 267.732 61.1207 268.305 60.4942C268.879 59.8678 269.584 59.2929 270.261 58.5117L271.356 57.3103C271.731 56.8976 272.091 56.4259 272.473 55.9616C273.267 55.0403 274.002 53.9717 274.803 52.8661C276.467 50.4186 277.918 47.832 279.139 45.1348C280.33 42.4217 281.277 39.6075 281.969 36.7255L282.403 34.7798C282.535 34.1459 282.616 33.5195 282.719 32.9225C282.939 31.7285 283.028 30.6009 283.138 29.5691C283.248 28.5372 283.263 27.6086 283.322 26.7831C283.38 25.9577 283.373 25.2575 283.373 24.6753C283.373 24.093 283.373 23.6877 283.373 23.3413C283.361 23.1989 283.363 23.0557 283.38 22.9138Z" fill="#E0E0E0"/>
<path d="M252.782 44.8326L238.736 33.6373L242.632 28.7214L252.055 36.2316L265.806 20.7911L270.481 24.9774L252.782 44.8326Z" fill="white"/>
<path d="M319.138 55.3941H316.478V40.8823C316.478 39.2403 315.827 37.6656 314.669 36.5046C313.511 35.3436 311.941 34.6913 310.303 34.6913C308.666 34.6913 307.096 35.3436 305.938 36.5046C304.78 37.6656 304.129 39.2403 304.129 40.8823V55.3941H301.469V40.8823C301.469 38.5366 302.398 36.2871 304.052 34.6285C305.706 32.9699 307.95 32.0381 310.289 32.0381C312.628 32.0381 314.871 32.9699 316.525 34.6285C318.18 36.2871 319.109 38.5366 319.109 40.8823L319.138 55.3941Z" fill="#EBEBEB"/>
<path d="M319.939 45.5475H300.66C299.41 45.5475 298.396 46.5638 298.396 47.8175V61.9903C298.396 63.244 299.41 64.2603 300.66 64.2603H319.939C321.19 64.2603 322.203 63.244 322.203 61.9903V47.8175C322.203 46.5638 321.19 45.5475 319.939 45.5475Z" fill="#EBEBEB"/>
<path d="M312.126 55.3867C312.363 55.1457 312.55 54.8601 312.676 54.5464C312.802 54.2327 312.865 53.8971 312.861 53.5589C312.865 53.0685 312.731 52.5869 312.476 52.1684C312.222 51.7499 311.855 51.4112 311.418 51.1904C310.982 50.9697 310.492 50.8757 310.005 50.9191C309.518 50.9626 309.052 51.1416 308.661 51.4362C308.27 51.7307 307.969 52.1289 307.792 52.5859C307.615 53.043 307.568 53.5406 307.658 54.0227C307.748 54.5048 307.97 54.9521 308.3 55.3142C308.629 55.6763 309.054 55.9388 309.524 56.0721L308.966 58.5632H311.457L310.957 56.0721C311.393 55.9475 311.788 55.7113 312.104 55.3867" fill="#FAFAFA"/>
<path d="M16.971 267.198C14.1164 265.406 10.8905 264.294 7.5409 263.947C5.9974 263.785 4.31424 263.829 3.07944 264.765C2.93608 264.848 2.81742 264.967 2.73594 265.111C2.65445 265.255 2.61316 265.418 2.61639 265.584C2.69168 265.817 2.84819 266.016 3.05739 266.144C5.05967 267.576 7.41483 268.432 9.86752 268.617C12.3202 268.803 14.7768 268.312 16.971 267.198Z" fill="#E0E0E0"/>
<path d="M16.7285 266.932C14.5452 265.323 12.5064 263.525 10.6354 261.559C8.76052 259.579 7.44405 257.135 6.82071 254.477C6.69657 254.083 6.65923 253.667 6.71126 253.257C6.76329 252.847 6.90345 252.454 7.12206 252.104C11.9731 255.907 15.7877 260.83 16.7285 266.932Z" fill="#E0E0E0"/>
<path d="M16.9196 267.161C16.4722 264.5 16.5121 261.781 17.0372 259.135C17.5769 256.467 19.0957 254.1 21.2929 252.501C22.1308 254.469 21.7706 256.739 21.1826 258.788C20.2687 261.972 18.8411 264.985 16.9563 267.706" fill="#E0E0E0"/>
<path d="M21.6824 275.718C18.8254 276.181 16.1826 277.523 14.1192 279.557C11.9489 281.535 10.4376 284.133 9.79004 287.001C12.6272 286.824 15.0306 284.79 16.7726 282.579C18.5145 280.368 19.7126 277.87 21.6456 275.769" fill="#E0E0E0"/>
<path d="M22.719 277.081C21.5812 274.186 21.1822 271.052 21.5583 267.963C21.9343 264.874 23.0736 261.928 24.8726 259.393C26.519 265.289 25.909 271.922 22.719 277.081Z" fill="#E0E0E0"/>
<path d="M29.0034 284.591C26.3619 284.431 23.7316 285.051 21.4386 286.376C19.1455 287.7 17.2907 289.671 16.1041 292.042C15.9497 292.359 15.8027 292.779 16.0232 293.052C16.1337 293.161 16.2694 293.241 16.4182 293.285C16.5669 293.328 16.7241 293.335 16.8758 293.303C19.4189 293.14 21.668 291.607 23.5276 289.861C25.3871 288.114 27.0115 286.095 29.0622 284.584" fill="#E0E0E0"/>
<path d="M28.8051 284.193C27.4509 279.821 27.3667 275.153 28.5626 270.735C29.0403 269.003 29.8341 267.183 31.4291 266.372C31.493 266.329 31.5652 266.299 31.6411 266.285C31.717 266.271 31.795 266.273 31.8701 266.291C31.9991 266.36 32.0965 266.476 32.142 266.615C32.6812 267.825 32.9135 269.149 32.8182 270.47C32.724 271.789 32.5224 273.098 32.2155 274.384C31.7157 276.771 31.4805 279.336 30.1355 281.4C29.8284 281.896 29.5511 282.411 29.3049 282.94C29.0624 283.464 29.0624 283.677 28.8345 284.061" fill="#E0E0E0"/>
<path d="M45.4523 286.669C44.8927 284.213 44.8744 281.663 45.3987 279.199C45.9229 276.735 46.9772 274.415 48.4878 272.401C48.701 272.113 48.9876 271.811 49.3478 271.841C49.8917 271.892 50.0313 272.622 50.0093 273.167C49.7838 278.005 48.2046 282.682 45.4523 286.662" fill="#E0E0E0"/>
<path d="M46.9521 287.701C49.8648 288.391 52.8919 288.438 55.8244 287.84C58.757 287.242 61.5253 286.013 63.9381 284.237C61.0961 282.804 57.8458 282.406 54.7432 283.11C51.6709 283.847 48.8632 285.188 46.9521 287.701Z" fill="#E0E0E0"/>
<path d="M48.2158 284.569C51.4131 279.351 57.5357 275.946 63.6509 275.629C62.9159 278.12 60.9093 280.051 58.6088 281.223C56.2504 282.284 53.7573 283.013 51.1999 283.39C50.215 283.581 48.8626 283.795 48.2599 284.569" fill="#E0E0E0"/>
<path d="M45.7684 269.364C46.7379 266.425 47.3981 263.391 47.7382 260.314C48.0799 257.217 47.4532 254.09 45.9448 251.366C42.9607 257.152 42.6594 263.896 45.6802 269.681" fill="#E0E0E0"/>
<path d="M55.8086 264.294C59.2999 257.941 66.4147 252.863 73.6104 252.148C70.8321 259.083 63.2615 264.441 55.8086 264.294Z" fill="#E0E0E0"/>
<path d="M53.6182 265.525C58.8146 266.321 63.2467 269.652 68.1051 271.671C69.1254 272.161 70.2548 272.377 71.3832 272.298C71.9074 272.291 72.4169 272.123 72.8432 271.817C73.2695 271.511 73.592 271.082 73.7674 270.586C73.9427 270.091 73.9625 269.553 73.824 269.046C73.6855 268.539 73.3955 268.087 72.9928 267.75C72.3051 267.104 71.4954 266.603 70.6114 266.276C65.3194 264.065 59.6378 264.014 54.0665 265.355" fill="#E0E0E0"/>
<path d="M50.6045 269.18C51.7805 269.519 52.1847 270.131 53.1182 270.927C56.307 273.644 60.081 275.581 64.1432 276.587C64.5622 276.69 65.1134 276.735 65.3266 276.359C65.5397 275.983 65.2751 275.622 65.0399 275.327C63.2807 273.251 60.9953 271.69 58.4249 270.809C55.8892 269.858 53.6915 268.716 50.6633 268.966" fill="#E0E0E0"/>
<path d="M47.209 247.092C49.3422 249.064 51.8632 250.566 54.61 251.503C57.3569 252.44 60.2687 252.79 63.1585 252.531C63.427 252.54 63.689 252.448 63.8935 252.273C64.2978 251.831 63.8127 251.153 63.3496 250.799C58.6603 247.114 52.9788 245.64 47.2237 247.114" fill="#E0E0E0"/>
<path d="M51.2373 245.61C54.0605 243.528 57.3346 242.145 60.7924 241.574C64.2503 241.003 67.7938 241.26 71.1338 242.323C68.5295 244.741 65.19 246.21 61.6523 246.495C58.1558 246.817 54.63 246.518 51.2373 245.61Z" fill="#E0E0E0"/>
<path d="M49.6348 235.462C49.1791 230.767 49.4731 227.067 49.1497 222.35C49.1497 221.974 49.0467 221.525 48.6939 221.385C48.2015 221.2 47.7972 221.797 47.6355 222.299C46.9534 224.484 46.7782 226.796 47.1234 229.06C47.4686 231.323 48.3251 233.478 49.6274 235.358" fill="#E0E0E0"/>
<path d="M49.2969 235.978C52.3666 234.004 55.0127 231.435 57.0806 228.423C58.6094 226.323 59.903 223.81 59.5575 221.23C58.4792 221.259 57.4201 221.523 56.4541 222.004C55.4881 222.485 54.6383 223.172 53.9641 224.016C52.6293 225.715 51.6584 227.672 51.1123 229.765C50.4949 231.828 50.0613 233.951 49.3263 235.978" fill="#E0E0E0"/>
<path d="M56.9187 233.855C63.9083 231.269 70.3802 227.45 76.0288 222.579C73.7503 221.657 71.141 222.21 68.8625 223.131C63.6898 225.096 59.4162 228.896 56.8525 233.811" fill="#E0E0E0"/>
<path d="M51.4424 238.55C54.9541 239.05 58.5174 239.067 62.0338 238.601C65.4662 238.027 68.7149 236.656 71.9196 235.307C72.1999 235.223 72.4403 235.04 72.5958 234.791C72.6441 234.642 72.6469 234.481 72.6037 234.33C72.5604 234.179 72.4732 234.044 72.3532 233.943C72.105 233.749 71.8161 233.612 71.508 233.545C68.0167 232.573 64.2535 233.03 60.821 234.187C57.5518 235.31 54.4085 236.772 51.4424 238.55Z" fill="#E0E0E0"/>
<path d="M31.3548 247.254C28.9513 242.39 29.1498 236.715 31.1857 231.703C32.6557 233.914 32.8248 236.774 32.5602 239.434C32.2956 242.095 31.4871 244.822 31.4283 247.49" fill="#E0E0E0"/>
<path d="M21.7342 242.397C18.7266 242.357 15.7439 242.947 12.9771 244.13C10.2103 245.313 7.72038 247.062 5.66699 249.266C8.70449 249.631 11.781 249.061 14.487 247.63C17.166 246.204 19.6928 244.507 22.0282 242.566" fill="#E0E0E0"/>
<path d="M15.2806 240.23C12.3406 239.994 9.52553 239.633 6.70312 240.496C5.27909 240.898 3.95825 241.603 2.83063 242.563C1.70302 243.523 0.795164 244.716 0.168945 246.06C2.93713 246.283 5.71413 245.756 8.20988 244.534C10.6908 243.315 13.0573 241.875 15.2806 240.23Z" fill="#E0E0E0"/>
<path d="M24.8358 240.333C22.1971 238.601 19.485 236.833 16.4127 236.11C13.3403 235.388 9.79763 235.926 7.63672 238.248C10.121 239.722 13.1419 239.884 16.0305 239.884C18.919 239.884 22.447 239.847 25.1665 240.812" fill="#E0E0E0"/>
<path d="M24.8499 240.473C20.337 236.051 18.6318 228.047 20.4399 221.974C24.001 227.443 25.5596 233.981 24.8499 240.473Z" fill="#E0E0E0"/>
<path d="M37.2354 227.885C38.088 225.895 38.7054 223.817 39.4404 221.797C40.1362 219.748 41.2054 217.847 42.5935 216.189C43.9998 214.508 46.0088 213.449 48.1869 213.241C47.4912 216.302 46.1673 219.185 44.2995 221.705C42.4317 224.225 40.0609 226.327 37.3383 227.878" fill="#E0E0E0"/>
<path d="M35.0302 230.509C33.6264 228.563 31.9947 225.925 30.0837 224.473C28.1727 223.021 25.6737 222.144 23.3584 222.697C24.5658 224.818 26.249 226.628 28.2749 227.984C30.3007 229.34 32.6136 230.204 35.0302 230.509Z" fill="#E0E0E0"/>
<path d="M35.4634 228.047C34.463 225.727 33.7234 223.302 33.2584 220.817C32.7966 218.303 33.1954 215.706 34.3903 213.447C36.8673 218.142 37.6685 223.183 35.6178 228.084" fill="#E0E0E0"/>
<path d="M37.2861 213.44C38.69 208.789 42.9383 205.333 47.5321 203.785C48.0994 203.551 48.715 203.46 49.3255 203.519C49.6306 203.551 49.9194 203.673 50.155 203.87C50.3907 204.067 50.5625 204.33 50.6485 204.625C50.8175 205.414 50.1634 206.099 49.546 206.652C45.9604 209.724 41.7893 212.034 37.2861 213.44Z" fill="#E0E0E0"/>
<path d="M37.3381 209.659C37.5145 206.652 37.6983 203.608 38.6759 200.763C39.6534 197.918 41.5277 195.258 44.2545 194.012C44.7176 197.041 43.3872 200.055 41.7776 202.665C40.1679 205.274 38.2275 207.735 37.2646 210.646" fill="#E0E0E0"/>
<path d="M37.2351 211.722C36.0738 208.332 35.9562 204.021 33.9276 201.065C32.509 199.002 30.2526 197.594 29.0251 195.405C28.288 197.504 28.3908 199.807 29.3118 201.832C30.2333 203.834 31.5025 205.656 33.0603 207.212C34.5303 208.819 35.8386 210.027 37.2351 211.722Z" fill="#E0E0E0"/>
<path d="M37.2863 311.625C37.1981 311.625 37.1172 288.998 37.1099 261.088C37.1025 233.177 37.176 210.543 37.2642 210.543C37.3524 210.543 37.4333 233.162 37.4406 261.088C37.448 289.013 37.3745 311.625 37.2863 311.625Z" fill="#E0E0E0"/>
<path d="M57.0068 243.834C56.7371 243.972 56.4538 244.08 56.1615 244.159L53.8242 244.947C51.8544 245.618 49.1496 246.591 46.2169 247.799C43.2843 249.008 40.5648 250.062 39.0066 251.418C38.3752 251.937 37.872 252.595 37.5366 253.342C37.3087 253.872 37.272 254.197 37.2426 254.197C37.2132 254.197 37.2426 254.108 37.2426 253.953C37.2799 253.73 37.3365 253.511 37.4116 253.298C37.706 252.508 38.1908 251.804 38.8228 251.249C39.7656 250.449 40.8206 249.794 41.9539 249.303C43.2034 248.713 44.5926 248.102 46.0626 247.497C49.0026 246.288 51.7295 245.345 53.7213 244.726C54.7209 244.416 55.5294 244.188 56.0954 244.033C56.3923 243.938 56.6974 243.872 57.0068 243.834Z" fill="#E0E0E0"/>
<path d="M63.4744 227.915C63.4054 228.009 63.3237 228.093 63.2318 228.165L62.4968 228.851L59.792 231.312L50.7956 239.346C47.2822 242.485 44.2467 245.478 42.1446 247.733C41.0862 248.861 40.2556 249.797 39.6897 250.445L39.0355 251.182C38.9672 251.275 38.8855 251.357 38.793 251.425C38.8478 251.322 38.9144 251.226 38.9914 251.138C39.1237 250.954 39.3222 250.681 39.5941 250.349C40.1307 249.671 40.9392 248.713 41.9755 247.563C44.6904 244.588 47.5609 241.758 50.5751 239.088C54.1031 235.963 57.3077 233.147 59.6376 231.128C60.7843 230.14 61.7251 229.337 62.4086 228.74L63.1436 228.106C63.2446 228.028 63.3559 227.963 63.4744 227.915Z" fill="#E0E0E0"/>
<path d="M47.0182 242.537C46.9226 242.493 47.6576 240.798 48.3926 238.646C49.1276 236.494 49.4731 234.688 49.5686 234.703C49.4924 236.089 49.1998 237.454 48.7013 238.749C48.3857 239.667 48.0201 240.568 47.6062 241.446C47.4585 241.834 47.2608 242.201 47.0182 242.537Z" fill="#E0E0E0"/>
<path d="M37.309 256.231C37.103 256.045 36.9204 255.835 36.7651 255.604L35.376 253.821C34.2147 252.31 32.605 250.224 30.7969 247.925C28.9888 245.625 27.3351 243.598 26.1297 242.117L24.7405 240.378C24.5545 240.171 24.3896 239.946 24.248 239.707C24.4626 239.884 24.6595 240.081 24.836 240.297C25.1962 240.687 25.7107 241.269 26.3061 241.992C27.5556 243.466 29.2461 245.456 31.0542 247.74C32.8623 250.025 34.4425 252.162 35.5597 253.681C36.1257 254.418 36.5667 255.088 36.868 255.531C37.0384 255.748 37.1862 255.983 37.309 256.231Z" fill="#E0E0E0"/>
<path d="M32.9792 250.666C32.1078 249.7 31.4868 248.533 31.1711 247.269C30.8272 246.158 30.6878 244.995 30.7595 243.834H30.9065C30.8864 243.975 30.839 244.11 30.7669 244.232C30.7669 244.232 30.7669 244.077 30.7669 243.812H30.9139C30.9826 244.943 31.1748 246.062 31.4872 247.151C31.8994 248.357 32.398 249.532 32.9792 250.666Z" fill="#E0E0E0"/>
<path d="M27.4011 243.657C27.0101 243.363 26.5857 243.115 26.1368 242.92C24.9992 242.576 23.8011 242.481 22.6235 242.64C21.431 242.727 20.2482 242.917 19.0882 243.208C18.6061 243.357 18.1151 243.475 17.6182 243.562C18.0473 243.296 18.5164 243.102 19.0073 242.987C20.171 242.625 21.3719 242.398 22.5868 242.309C23.806 242.146 25.0462 242.28 26.203 242.699C26.701 242.87 27.1245 243.208 27.4011 243.657Z" fill="#E0E0E0"/>
<path d="M26.0775 241.918C26.0775 241.97 25.3425 241.623 24.1371 241.181C20.996 240.109 17.6346 239.855 14.3689 240.444C13.1194 240.665 12.3697 240.901 12.3477 240.849C12.5057 240.747 12.6796 240.673 12.8622 240.628C13.3428 240.459 13.8339 240.321 14.3322 240.215C15.9746 239.854 17.6608 239.735 19.3375 239.862C21.0113 239.993 22.6575 240.365 24.2253 240.967C24.6987 241.149 25.1603 241.361 25.6071 241.601C25.7792 241.682 25.9378 241.789 26.0775 241.918Z" fill="#E0E0E0"/>
<path d="M37.2354 234.703C36.6599 233.094 36.1885 231.449 35.8242 229.779C35.3494 228.137 34.9811 226.465 34.7217 224.775C35.2977 226.384 35.7715 228.029 36.1402 229.698C36.6107 231.341 36.9765 233.013 37.2354 234.703Z" fill="#E0E0E0"/>
<path d="M37.353 234.703C36.9011 233.684 36.3779 232.699 35.7874 231.755C35.1255 230.861 34.3496 230.058 33.4795 229.367C33.8076 229.451 34.1119 229.61 34.3688 229.831C35.0239 230.308 35.5931 230.894 36.052 231.563C36.7542 232.476 37.2031 233.559 37.353 234.703Z" fill="#E0E0E0"/>
<path d="M37.2863 299.56C37.2863 299.56 37.1834 299.015 36.9262 298.086C36.5659 296.734 36.0735 295.42 35.4562 294.165C33.283 290.072 30.5955 286.275 27.4594 282.867C25.6733 280.818 23.9387 278.887 22.4687 277.037C21.1454 275.413 19.9511 273.688 18.8966 271.878C18.1873 270.655 17.5848 269.372 17.0958 268.045C16.9268 267.573 16.8092 267.205 16.743 266.954C16.7 266.827 16.6681 266.696 16.6475 266.564C16.6475 266.564 16.8386 267.08 17.2134 268.001C17.7475 269.299 18.3764 270.555 19.095 271.76C20.172 273.542 21.3756 275.244 22.6965 276.852C24.1665 278.68 25.9158 280.597 27.7019 282.645C30.8609 286.074 33.5412 289.917 35.6693 294.069C36.2836 295.343 36.7592 296.68 37.0879 298.056C37.1749 298.431 37.2412 298.81 37.2863 299.191C37.2976 299.314 37.2976 299.437 37.2863 299.56Z" fill="#E0E0E0"/>
<path d="M55.1105 279.38C54.8085 279.571 54.497 279.745 54.1771 279.904C53.3301 280.378 52.5194 280.915 51.7516 281.51C50.614 282.393 49.5497 283.367 48.569 284.422C47.4518 285.601 46.3052 286.972 45.1292 288.446C42.7845 291.394 40.5869 294.018 39.2492 296.103C38.5803 297.135 38.0952 298.005 37.7791 298.617C37.6281 298.942 37.4562 299.257 37.2646 299.56C37.2646 299.56 37.2647 299.464 37.3529 299.295C37.4411 299.125 37.5146 298.874 37.6616 298.558C38.0787 297.672 38.55 296.813 39.0728 295.985C40.8581 293.298 42.7943 290.714 44.8719 288.247C46.0479 286.773 47.2166 285.402 48.3558 284.215C49.3582 283.164 50.4475 282.2 51.6119 281.333C52.4061 280.737 53.2523 280.215 54.1403 279.771C54.3787 279.648 54.6241 279.54 54.8753 279.447C55.0272 279.388 55.1056 279.366 55.1105 279.38Z" fill="#E0E0E0"/>
<path d="M55.4562 285.925C54.8049 286.068 54.1441 286.164 53.479 286.213C51.8929 286.375 50.3255 286.686 48.797 287.141C47.2852 287.634 45.8684 288.381 44.6075 289.352C43.6447 290.089 43.189 290.716 43.1375 290.686C43.0861 290.657 43.211 290.502 43.4242 290.229C43.7312 289.844 44.0759 289.491 44.4532 289.175C45.7036 288.128 47.1435 287.333 48.6941 286.832C50.2417 286.369 51.8374 286.087 53.4496 285.991C54.115 285.908 54.7867 285.885 55.4562 285.925Z" fill="#E0E0E0"/>
<path d="M43.7181 289.957C43.6152 289.898 44.5046 288.534 45.1881 286.699C45.8717 284.864 45.9893 283.228 46.0995 283.25C46.1623 283.601 46.1623 283.96 46.0995 284.311C45.9993 285.165 45.8071 286.005 45.5262 286.817C45.2239 287.619 44.8397 288.387 44.3796 289.109C44.2087 289.427 43.985 289.714 43.7181 289.957Z" fill="#E0E0E0"/>
<path d="M60.8805 261.795C60.7847 261.868 60.6781 261.925 60.5645 261.965L59.6384 262.385C59.2268 262.562 58.7343 262.783 58.1684 263.078C57.6024 263.373 56.9556 263.667 56.2794 264.073L55.2063 264.684C54.8315 264.906 54.4713 265.156 54.0671 265.421C53.2733 265.9 52.4795 266.497 51.6269 267.102C49.8254 268.473 48.1255 269.973 46.5406 271.59C44.9854 273.226 43.5531 274.975 42.2556 276.823C41.6749 277.7 41.109 278.518 40.6533 279.329C40.4254 279.727 40.1829 280.11 39.9771 280.493L39.4405 281.599C39.0583 282.292 38.7864 282.955 38.5144 283.523C38.2425 284.09 38.0367 284.591 37.875 284.997C37.7133 285.402 37.5883 285.689 37.4854 285.94C37.4451 286.053 37.3933 286.162 37.3311 286.264C37.3451 286.145 37.3773 286.028 37.4266 285.918L37.7574 284.952C37.9044 284.532 38.0881 284.016 38.3454 283.441C38.6026 282.867 38.8599 282.189 39.2347 281.488C39.4111 281.127 39.6022 280.751 39.7933 280.368C39.9844 279.985 40.227 279.631 40.4622 279.189C40.9105 278.363 41.4691 277.538 42.0424 276.654C44.6223 272.871 47.8204 269.552 51.5019 266.836C52.3619 266.232 53.1704 265.643 53.9715 265.171C54.3758 264.928 54.7506 264.67 55.1255 264.434L56.2206 263.829C56.9115 263.439 57.573 263.151 58.139 262.879C58.6175 262.639 59.1081 262.425 59.609 262.238L60.5645 261.869C60.6672 261.834 60.773 261.809 60.8805 261.795Z" fill="#E0E0E0"/>
<path d="M46.79 271.273C46.9065 270.819 47.1639 270.414 47.525 270.116C48.3945 269.358 49.5037 268.932 50.6562 268.915C51.7827 268.91 52.8992 269.128 53.9416 269.556C54.3818 269.698 54.7999 269.902 55.1838 270.16C54.7339 270.076 54.2933 269.947 53.8681 269.777C52.8373 269.42 51.7542 269.238 50.6635 269.239C49.5822 269.262 48.5366 269.632 47.6794 270.293C47.3575 270.596 47.0601 270.923 46.79 271.273Z" fill="#E0E0E0"/>
<path d="M44.666 273.455C45.0844 272.531 45.3833 271.558 45.5554 270.558C45.6149 269.547 45.5482 268.532 45.3569 267.537C45.546 267.785 45.6721 268.076 45.7244 268.384C46.1046 269.841 45.9235 271.389 45.2173 272.718C44.938 273.219 44.6954 273.477 44.666 273.455Z" fill="#E0E0E0"/>
<path d="M21.6973 302.803C22.1824 311.455 24.7843 320.248 28.7827 329.144H46.1655C49.9802 320.336 52.3983 311.558 52.8246 302.803H21.6973Z" fill="#E0E0E0"/>
<path d="M50.0097 316.799C50.0097 316.887 44.284 316.961 37.228 316.961C30.172 316.961 24.4463 316.887 24.4463 316.799C24.4463 316.71 30.1646 316.622 37.2353 316.622C44.3061 316.622 50.0097 316.71 50.0097 316.799Z" fill="#FAFAFA"/>
<path d="M49.6198 319.931C49.6198 320.02 44.2543 320.093 37.6393 320.093C31.0242 320.093 25.6514 320.02 25.6514 319.931C25.6514 319.843 31.0169 319.769 37.6393 319.769C44.2616 319.769 49.6198 319.843 49.6198 319.931Z" fill="#FAFAFA"/>
<path d="M29.0621 308.515C29.2777 311.186 29.2777 313.87 29.0621 316.541C28.8465 313.87 28.8465 311.186 29.0621 308.515Z" fill="#FAFAFA"/>
<path d="M38.3746 308.515C38.5902 311.282 38.5902 314.061 38.3746 316.828C38.159 314.061 38.159 311.282 38.3746 308.515Z" fill="#FAFAFA"/>
<path d="M47.1207 308.411C47.3363 311.235 47.3363 314.071 47.1207 316.895C46.9051 314.071 46.9051 311.235 47.1207 308.411Z" fill="#FAFAFA"/>
<path d="M52.2733 308.515C52.2733 308.603 45.5627 308.677 37.2866 308.677C29.0104 308.677 22.2852 308.603 22.2852 308.515C22.2852 308.426 29.0031 308.353 37.2866 308.353C45.57 308.353 52.2733 308.389 52.2733 308.515Z" fill="#FAFAFA"/>
<path d="M321.968 227.834C323.559 227.129 324.909 225.972 325.851 224.506C326.792 223.041 327.285 221.33 327.268 219.586C327.268 214.663 323.593 210.654 318.969 210.639C314.346 210.624 310.612 214.589 310.598 219.483C310.564 221.24 311.05 222.968 311.995 224.449C312.939 225.93 314.3 227.097 315.904 227.804C303.079 229.742 303.659 243.716 303.659 243.716L333.993 243.856C333.993 243.856 334.684 229.757 321.968 227.834Z" fill="#EBEBEB"/>
<path d="M185.61 24.6237C186.727 24.4037 187.757 23.8631 188.573 23.0676C189.39 22.2722 189.959 21.2561 190.211 20.1426C190.42 19.4281 190.482 18.6784 190.393 17.9391C190.303 17.1999 190.065 16.4866 189.692 15.8428C189.318 15.199 188.818 14.6382 188.222 14.1946C187.625 13.7509 186.945 13.4337 186.222 13.2623C185.5 13.0909 184.75 13.0689 184.018 13.1977C183.287 13.3264 182.589 13.6032 181.968 14.0111C181.347 14.4191 180.815 14.9496 180.405 15.5704C179.995 16.1912 179.715 16.8893 179.583 17.622C179.3 18.7395 179.354 19.9159 179.739 21.0023C180.124 22.0887 180.821 23.0361 181.744 23.7245C173.269 23.0538 171.586 32.0602 171.586 32.0602L190.917 36.6518C190.917 36.6518 193.445 27.7118 185.61 24.6237Z" fill="#EBEBEB"/>
<path d="M322.798 99.6518C323.725 99.0705 324.462 98.2292 324.916 97.2322C325.371 96.2352 325.524 95.1264 325.356 94.0431C325.301 93.326 325.1 92.6278 324.765 91.9917C324.43 91.3557 323.969 90.7952 323.409 90.3449C322.85 89.8946 322.204 89.5641 321.513 89.3738C320.821 89.1834 320.098 89.1373 319.387 89.2382C318.677 89.3392 317.995 89.5851 317.383 89.9607C316.772 90.3363 316.243 90.8336 315.831 91.422C315.418 92.0104 315.13 92.6774 314.985 93.3818C314.839 94.0861 314.84 94.8128 314.985 95.5171C315.121 96.6139 315.578 97.6456 316.299 98.4814C317.02 99.3173 317.972 99.9196 319.035 100.212C311.237 102.578 312.846 111.216 312.846 111.216L331.721 108.57C331.721 108.57 330.876 99.7034 322.798 99.6518Z" fill="#F5F5F5"/>
<path d="M19.9474 102.327L9.75293 94.198L12.5753 90.6308L19.4109 96.0847L29.3922 84.8821L32.7806 87.9186L19.9474 102.327Z" fill="#F5F5F5"/>
<path d="M328.781 329.402C328.781 329.512 255.171 329.593 164.398 329.593C73.6252 329.593 0 329.512 0 329.402C0 329.291 73.5885 329.21 164.398 329.21C255.208 329.21 328.781 329.299 328.781 329.402Z" fill="#263238"/>
<path d="M33.8546 114.097L11.3121 125.44C10.4943 125.797 9.79876 126.387 9.31152 127.136C8.82428 127.885 8.56666 128.761 8.57049 129.656V140.232C8.54461 149.852 11.3382 159.268 16.6041 167.31C20.6686 173.516 26.0562 181.446 35.0159 185.979H39.0584C49.0398 182.927 56.4853 174.798 61.035 167.841C66.3031 159.799 69.0992 150.384 69.0759 140.763V129.656C69.0748 128.758 68.8109 127.88 68.3171 127.13C67.8233 126.381 67.1212 125.793 66.2976 125.44L40.5799 114.466C39.4406 113.979 35.0306 113.611 33.8546 114.097Z" fill="#176CFF"/>
<path opacity="0.3" d="M33.8546 114.097L11.3121 125.44C10.4943 125.797 9.79876 126.387 9.31152 127.136C8.82428 127.885 8.56666 128.761 8.57049 129.656V140.232C8.54461 149.852 11.3382 159.268 16.6041 167.31C20.6686 173.516 26.0562 181.446 35.0159 185.979H39.0584C49.0398 182.927 56.4853 174.798 61.035 167.841C66.3031 159.799 69.0992 150.384 69.0759 140.763V129.656C69.0748 128.758 68.8109 127.88 68.3171 127.13C67.8233 126.381 67.1212 125.793 66.2976 125.44L40.5799 114.466C39.4406 113.979 35.0306 113.611 33.8546 114.097Z" fill="black"/>
<path d="M32.9501 114.466L7.26171 125.44C6.43818 125.793 5.73603 126.381 5.2422 127.13C4.74838 127.88 4.48455 128.758 4.4834 129.656V140.232C4.48397 150.027 7.38168 159.601 12.8099 167.744C18.2382 175.887 25.9531 182.233 34.9787 185.979C44.9527 182.927 52.3982 174.798 56.9552 167.841C62.2234 159.8 65.0194 150.384 64.9962 140.763V129.656C64.9956 128.759 64.7329 127.881 64.2404 127.132C63.748 126.383 63.0474 125.794 62.2252 125.44L36.5001 114.466C35.9381 114.229 35.3346 114.108 34.7251 114.108C34.1155 114.108 33.5121 114.229 32.9501 114.466Z" fill="#176CFF"/>
<path opacity="0.3" d="M40.8283 162.436C49.4987 159.064 53.8013 149.282 50.4382 140.588C47.0751 131.894 37.32 127.579 28.6495 130.952C19.979 134.324 15.6765 144.106 19.0396 152.8C22.4026 161.494 32.1578 165.808 40.8283 162.436Z" fill="black"/>
<path d="M34.736 147.632C38.5964 147.632 41.7258 144.494 41.7258 140.623C41.7258 136.752 38.5964 133.614 34.736 133.614C30.8756 133.614 27.7461 136.752 27.7461 140.623C27.7461 144.494 30.8756 147.632 34.736 147.632Z" fill="white"/>
<path d="M21.9766 157.699C23.1007 155.341 24.8748 153.355 27.0891 151.976C29.3033 150.596 31.8651 149.882 34.4716 149.916C37.1443 149.917 39.7674 150.64 42.0647 152.01C44.362 153.379 46.2484 155.345 47.5253 157.699C47.5253 157.699 43.4019 163.816 34.2952 163.595C31.9351 163.586 29.6064 163.052 27.4764 162.033C25.3465 161.013 23.4682 159.533 21.9766 157.699Z" fill="white"/>
<path d="M51.5748 146.696C51.5664 146.605 51.5664 146.514 51.5748 146.423C51.5748 146.224 51.5748 145.959 51.5087 145.627C51.5087 145.45 51.5087 145.251 51.5087 145.037C51.5087 144.824 51.4352 144.588 51.3984 144.3C51.3218 143.715 51.2039 143.137 51.0456 142.568C50.646 140.994 50.0143 139.489 49.1714 138.102C48.0658 136.261 46.6187 134.65 44.9084 133.356C42.8422 131.78 40.435 130.715 37.8817 130.245C34.9504 129.704 31.9281 129.959 29.1278 130.982C28.37 131.246 27.633 131.567 26.9228 131.941C26.2127 132.331 25.5301 132.769 24.8795 133.252C24.2179 133.752 23.587 134.291 22.9906 134.867C22.4059 135.474 21.8609 136.119 21.3589 136.798C20.3299 138.195 19.5286 139.747 18.9848 141.397C17.8381 144.816 17.8381 148.517 18.9848 151.936C19.5253 153.586 20.3269 155.139 21.3589 156.535C21.8608 157.215 22.4058 157.863 22.9906 158.473C23.5852 159.049 24.2162 159.585 24.8795 160.08C26.1556 161.056 27.5768 161.824 29.0911 162.357C31.8914 163.381 34.9137 163.635 37.845 163.094C40.173 162.655 42.3821 161.727 44.3277 160.372C46.2733 159.017 47.9113 157.264 49.1346 155.23C49.9682 153.853 50.5901 152.357 50.9795 150.793C51.1371 150.223 51.255 149.641 51.3323 149.054C51.3323 148.804 51.4205 148.568 51.4425 148.317C51.4646 148.066 51.4425 147.904 51.4425 147.727L51.5087 146.924C51.5012 146.833 51.5012 146.742 51.5087 146.651C51.5166 146.742 51.5166 146.833 51.5087 146.924C51.5087 147.13 51.5087 147.396 51.5087 147.735C51.5087 147.912 51.5087 148.111 51.5087 148.324C51.5087 148.538 51.4499 148.781 51.4131 149.061C51.3544 149.657 51.2462 150.246 51.0897 150.823C50.7168 152.42 50.0994 153.949 49.2596 155.356C47.2622 158.775 44.1334 161.384 40.4166 162.731C36.6999 164.077 32.6302 164.075 28.9147 162.726C28.1581 162.453 27.4213 162.128 26.7097 161.753C25.9862 161.345 25.2934 160.884 24.637 160.375C23.9533 159.872 23.305 159.323 22.6966 158.731C22.1115 158.118 21.5665 157.468 21.0649 156.785C20.0068 155.358 19.183 153.771 18.6247 152.083C18.0665 150.341 17.7716 148.525 17.75 146.696C17.7704 144.865 18.0678 143.049 18.632 141.308C19.1848 139.619 20.0063 138.031 21.0649 136.606C21.5816 135.913 22.1413 135.253 22.7407 134.631C23.3469 134.039 23.9927 133.49 24.6737 132.987C25.3254 132.488 26.0106 132.035 26.7244 131.631C27.4359 131.254 28.1727 130.926 28.9294 130.651C31.7876 129.612 34.8706 129.358 37.8597 129.914C40.2307 130.371 42.477 131.331 44.4481 132.729C46.4192 134.127 48.0697 135.931 49.289 138.021C50.129 139.431 50.7463 140.962 51.1191 142.561C51.2755 143.136 51.3837 143.722 51.4425 144.315C51.4425 144.573 51.5234 144.809 51.5381 145.052V145.649C51.5381 145.988 51.5381 146.253 51.5381 146.452C51.5571 146.532 51.5694 146.614 51.5748 146.696Z" fill="#263238"/>
<path d="M64.9083 137.896C64.9425 138.058 64.9598 138.223 64.9597 138.389C64.9597 138.743 64.9597 139.208 65.0185 139.79C65.0773 140.372 65.0773 141.139 65.0185 142.001C65.0185 142.436 65.0185 142.893 65.0185 143.386C65.0185 143.88 65.0185 144.396 64.923 144.934C64.8201 146.018 64.7466 147.212 64.5187 148.479C64.4232 149.113 64.3423 149.769 64.21 150.44C64.0777 151.11 63.916 151.796 63.769 152.503C63.0622 155.55 62.0781 158.525 60.829 161.392C59.5382 164.243 57.996 166.974 56.2205 169.55C55.3679 170.708 54.5815 171.828 53.7289 172.793C53.3173 173.28 52.9351 173.774 52.5308 174.208L51.3622 175.447C50.6272 176.265 49.8922 176.921 49.2601 177.503C48.7312 178.024 48.1742 178.516 47.5916 178.977L46.5038 179.861C46.3845 179.969 46.2539 180.062 46.1143 180.141C46.2188 180.018 46.3344 179.904 46.4597 179.802L47.4961 178.866C47.9591 178.468 48.5104 177.975 49.1131 177.392C49.7158 176.81 50.4508 176.125 51.1637 175.307L52.3103 174.054C52.7072 173.619 53.0453 173.125 53.4863 172.639C54.3169 171.673 55.0886 170.553 55.9339 169.388C57.6785 166.822 59.1983 164.11 60.4762 161.281C61.7183 158.427 62.7023 155.467 63.4162 152.437L63.8719 150.388C64.0042 149.725 64.0924 149.069 64.2027 148.442C64.4379 147.189 64.5261 146.003 64.6437 144.927C64.7098 144.389 64.7539 143.873 64.7686 143.386L64.8348 142.008C64.9009 141.146 64.8862 140.401 64.8862 139.797C64.8862 139.193 64.8862 138.758 64.8862 138.397C64.881 138.229 64.8884 138.062 64.9083 137.896Z" fill="#263238"/>
<path d="M243.631 329.402H69.8326C68.6939 329.383 67.5702 329.138 66.5256 328.684C65.4811 328.229 64.5362 327.572 63.7451 326.75C62.9539 325.929 62.332 324.959 61.9148 323.896C61.4976 322.834 61.2935 321.699 61.3139 320.558V54.1854C61.2935 53.0436 61.4976 51.909 61.9148 50.8464C62.332 49.7838 62.9539 48.8141 63.7451 47.9927C64.5362 47.1713 65.4811 46.5144 66.5256 46.0594C67.5702 45.6044 68.6939 45.3604 69.8326 45.3412H243.631C244.77 45.3604 245.893 45.6045 246.937 46.0595C247.981 46.5146 248.926 47.1717 249.716 47.9932C250.507 48.8147 251.128 49.7844 251.544 50.847C251.961 51.9095 252.164 53.044 252.143 54.1854V320.572C252.162 321.712 251.957 322.845 251.54 323.906C251.123 324.967 250.501 325.935 249.711 326.755C248.921 327.575 247.977 328.231 246.934 328.685C245.891 329.139 244.768 329.383 243.631 329.402Z" fill="#263238"/>
<path d="M160.061 316.482C160.089 318.091 159.639 319.672 158.767 321.023C157.896 322.375 156.643 323.436 155.168 324.071C153.694 324.706 152.064 324.887 150.486 324.59C148.909 324.293 147.455 323.532 146.311 322.404C145.166 321.276 144.382 319.832 144.058 318.256C143.735 316.679 143.887 315.042 144.494 313.553C145.102 312.063 146.138 310.788 147.47 309.891C148.803 308.994 150.371 308.515 151.976 308.515C154.102 308.497 156.147 309.326 157.663 310.82C159.18 312.314 160.042 314.351 160.061 316.482Z" fill="#455A64"/>
<path d="M176.283 60.3616H137.328C136.965 60.3558 136.607 60.2784 136.274 60.1338C135.941 59.9892 135.639 59.7802 135.387 59.5187C135.134 59.2573 134.936 58.9485 134.802 58.6101C134.669 58.2716 134.603 57.9101 134.609 57.5462C134.597 56.8105 134.877 56.1001 135.386 55.5709C135.896 55.0418 136.595 54.737 137.328 54.7234H176.283C177.017 54.737 177.715 55.0418 178.225 55.5709C178.735 56.1001 179.015 56.8105 179.003 57.5462C179.009 57.9101 178.943 58.2716 178.81 58.6101C178.676 58.9485 178.477 59.2573 178.225 59.5187C177.972 59.7802 177.671 59.9892 177.338 60.1338C177.005 60.2784 176.646 60.3558 176.283 60.3616Z" fill="#455A64"/>
<path d="M245.961 65.6239H67.1641V302.84H245.961V65.6239Z" fill="white"/>
<path d="M245.961 65.6239H238.332V302.84H245.961V65.6239Z" fill="#F5F5F5"/>
<path d="M242.147 150.845C241.516 150.843 240.912 150.591 240.467 150.143C240.022 149.695 239.772 149.089 239.772 148.457V95.9889C239.772 95.3568 240.022 94.7506 240.467 94.303C240.912 93.8554 241.516 93.6029 242.147 93.601C242.778 93.601 243.384 93.8525 243.83 94.3004C244.277 94.7482 244.528 95.3556 244.528 95.9889V148.457C244.528 149.09 244.277 149.698 243.83 150.146C243.384 150.593 242.778 150.845 242.147 150.845Z" fill="#E0E0E0"/>
<path d="M222.647 119.603H90.817C89.8112 119.603 88.8465 119.202 88.1352 118.489C87.424 117.776 87.0244 116.808 87.0244 115.8C87.0244 114.791 87.424 113.824 88.1352 113.111C88.8465 112.397 89.8112 111.997 90.817 111.997H222.647C223.653 111.997 224.618 112.397 225.329 113.111C226.04 113.824 226.44 114.791 226.44 115.8C226.44 116.808 226.04 117.776 225.329 118.489C224.618 119.202 223.653 119.603 222.647 119.603Z" fill="#E0E0E0"/>
<path d="M202.369 91.8321H119.438C118.432 91.8321 117.468 91.4314 116.756 90.7182C116.045 90.005 115.646 89.0377 115.646 88.0291C115.646 87.0205 116.045 86.0532 116.756 85.34C117.468 84.6268 118.432 84.2261 119.438 84.2261H202.369C203.374 84.2261 204.339 84.6268 205.05 85.34C205.762 86.0532 206.161 87.0205 206.161 88.0291C206.161 89.0377 205.762 90.005 205.05 90.7182C204.339 91.4314 203.374 91.8321 202.369 91.8321Z" fill="#176CFF"/>
<path d="M203.927 134.911H109.538C108.532 134.911 107.567 134.51 106.856 133.797C106.145 133.084 105.745 132.116 105.745 131.108C105.745 130.099 106.145 129.132 106.856 128.419C107.567 127.705 108.532 127.305 109.538 127.305H203.927C204.425 127.305 204.918 127.403 205.378 127.594C205.838 127.785 206.256 128.065 206.609 128.419C206.961 128.772 207.24 129.191 207.431 129.652C207.621 130.114 207.719 130.608 207.719 131.108C207.719 131.607 207.621 132.102 207.431 132.563C207.24 133.024 206.961 133.444 206.609 133.797C206.256 134.15 205.838 134.43 205.378 134.621C204.918 134.812 204.425 134.911 203.927 134.911Z" fill="#E0E0E0"/>
<path d="M161.311 201.648H88.6852C87.6793 201.648 86.7147 201.247 86.0034 200.534C85.2922 199.82 84.8926 198.853 84.8926 197.845C84.8926 197.345 84.9907 196.851 85.1813 196.389C85.3719 195.928 85.6512 195.509 86.0034 195.155C86.3556 194.802 86.7737 194.522 87.2338 194.331C87.694 194.14 88.1871 194.042 88.6852 194.042H161.311C161.809 194.042 162.302 194.14 162.762 194.331C163.222 194.522 163.64 194.802 163.993 195.155C164.345 195.509 164.624 195.928 164.815 196.389C165.005 196.851 165.103 197.345 165.103 197.845C165.103 198.853 164.704 199.82 163.993 200.534C163.281 201.247 162.317 201.648 161.311 201.648Z" fill="#E0E0E0"/>
<path d="M220.515 185.706H88.6852C87.6793 185.706 86.7147 185.305 86.0034 184.592C85.2922 183.879 84.8926 182.911 84.8926 181.903C84.8926 181.404 84.9907 180.91 85.1814 180.449C85.3721 179.988 85.6516 179.569 86.0039 179.216C86.3561 178.864 86.7743 178.584 87.2344 178.394C87.6945 178.204 88.1875 178.106 88.6852 178.107H220.515C221.013 178.106 221.506 178.204 221.966 178.394C222.426 178.584 222.844 178.864 223.197 179.216C223.549 179.569 223.828 179.988 224.019 180.449C224.21 180.91 224.308 181.404 224.308 181.903C224.308 182.402 224.21 182.897 224.019 183.358C223.829 183.82 223.549 184.239 223.197 184.592C222.845 184.945 222.427 185.225 221.967 185.416C221.507 185.607 221.013 185.706 220.515 185.706Z" fill="#E0E0E0"/>
<path d="M220.516 229.396H105.128C103.033 229.396 101.335 231.099 101.335 233.199C101.335 235.299 103.033 237.002 105.128 237.002H220.516C222.61 237.002 224.308 235.299 224.308 233.199C224.308 231.099 222.61 229.396 220.516 229.396Z" fill="#E0E0E0"/>
<path d="M220.515 253.239H88.6852C87.6793 253.239 86.7147 252.838 86.0034 252.125C85.2922 251.412 84.8926 250.444 84.8926 249.436C84.8965 248.43 85.2978 247.466 86.0086 246.756C86.7194 246.046 87.6819 245.647 88.6852 245.647H220.515C221.013 245.647 221.507 245.746 221.967 245.937C222.427 246.128 222.845 246.408 223.197 246.761C223.549 247.114 223.829 247.534 224.019 247.995C224.21 248.456 224.308 248.951 224.308 249.45C224.304 250.456 223.903 251.42 223.192 252.13C222.481 252.84 221.519 253.239 220.515 253.239Z" fill="#E0E0E0"/>
<path d="M220.515 269.762H88.6852C87.6793 269.762 86.7147 269.362 86.0034 268.649C85.2922 267.935 84.8926 266.968 84.8926 265.959C84.8926 264.951 85.2922 263.984 86.0034 263.27C86.7147 262.557 87.6793 262.156 88.6852 262.156H220.515C221.013 262.156 221.507 262.255 221.967 262.446C222.427 262.637 222.845 262.917 223.197 263.27C223.549 263.624 223.829 264.043 224.019 264.504C224.21 264.966 224.308 265.46 224.308 265.959C224.308 266.968 223.908 267.935 223.197 268.649C222.486 269.362 221.521 269.762 220.515 269.762Z" fill="#E0E0E0"/>
<path d="M94.6165 233.199C94.6165 233.981 94.3853 234.745 93.9521 235.395C93.5189 236.044 92.9031 236.551 92.1828 236.849C91.4625 237.148 90.67 237.226 89.9056 237.073C89.1412 236.92 88.4393 236.543 87.8886 235.99C87.3379 235.437 86.9633 234.732 86.8121 233.965C86.6609 233.198 86.74 232.404 87.0393 231.682C87.3386 230.96 87.8447 230.344 88.4935 229.911C89.1424 229.478 89.9048 229.247 90.6843 229.249C91.7279 229.251 92.728 229.668 93.4653 230.408C94.2025 231.149 94.6165 232.153 94.6165 233.199Z" fill="#176CFF"/>
<path d="M220.515 170.855H105.12C104.114 170.855 103.149 170.454 102.438 169.741C101.727 169.028 101.327 168.061 101.327 167.052C101.327 166.043 101.727 165.076 102.438 164.363C103.149 163.65 104.114 163.249 105.12 163.249H220.515C221.013 163.249 221.506 163.347 221.967 163.538C222.427 163.73 222.845 164.01 223.197 164.363C223.549 164.716 223.829 165.135 224.019 165.597C224.21 166.058 224.308 166.552 224.308 167.052C224.308 167.551 224.21 168.046 224.019 168.507C223.829 168.969 223.549 169.388 223.197 169.741C222.845 170.094 222.427 170.374 221.967 170.565C221.506 170.757 221.013 170.855 220.515 170.855Z" fill="#E0E0E0"/>
<path d="M90.6769 171.002C92.8527 171.002 94.6165 169.234 94.6165 167.052C94.6165 164.87 92.8527 163.102 90.6769 163.102C88.5011 163.102 86.7373 164.87 86.7373 167.052C86.7373 169.234 88.5011 171.002 90.6769 171.002Z" fill="#176CFF"/>
<path d="M216.834 293.944H187.25C185.647 293.944 184.111 293.306 182.978 292.169C181.845 291.033 181.208 289.492 181.208 287.886C181.208 286.279 181.845 284.738 182.978 283.602C184.111 282.466 185.647 281.827 187.25 281.827H216.834C218.436 281.827 219.973 282.466 221.106 283.602C222.239 284.738 222.875 286.279 222.875 287.886C222.875 289.492 222.239 291.033 221.106 292.169C219.973 293.306 218.436 293.944 216.834 293.944Z" fill="#1FC9AA"/>
<path d="M64.4313 8.0703L33.767 23.496C32.6449 23.9744 31.6878 24.773 31.0148 25.7925C30.3418 26.812 29.9825 28.0074 29.9817 29.23V43.6166C29.9454 56.7097 33.7487 69.5246 40.9185 80.4673C46.4458 88.884 53.7664 99.674 65.9601 105.835H71.4579C85.0261 101.686 95.1544 90.6234 101.35 81.1675C108.52 70.2248 112.324 57.4099 112.287 44.3167V29.23C112.289 28.0107 111.934 26.8177 111.267 25.7985C110.599 24.7794 109.648 23.9789 108.531 23.496L73.5747 8.54936C72.0165 7.90816 65.9895 7.40698 64.4313 8.0703Z" fill="#1FC9AA"/>
<path opacity="0.3" d="M64.4313 8.0703L33.767 23.496C32.6449 23.9744 31.6878 24.773 31.0148 25.7925C30.3418 26.812 29.9825 28.0074 29.9817 29.23V43.6166C29.9454 56.7097 33.7487 69.5246 40.9185 80.4673C46.4458 88.884 53.7664 99.674 65.9601 105.835H71.4579C85.0261 101.686 95.1544 90.6234 101.35 81.1675C108.52 70.2248 112.324 57.4099 112.287 44.3167V29.23C112.289 28.0107 111.934 26.8177 111.267 25.7985C110.599 24.7794 109.648 23.9789 108.531 23.496L73.5747 8.54936C72.0165 7.90816 65.9895 7.40698 64.4313 8.0703Z" fill="black"/>
<path d="M63.196 8.54939L28.2613 23.4961C27.14 23.9747 26.184 24.7736 25.5122 25.7932C24.8404 26.8128 24.4826 28.008 24.4834 29.23V43.6166C24.4852 56.938 28.4267 69.9596 35.8095 81.0346C43.1923 92.1096 53.6847 100.74 65.9596 105.835C79.5278 101.686 89.6561 90.6234 95.8448 81.1675C103.018 70.2263 106.821 57.4104 106.782 44.3167V29.23C106.782 28.008 106.425 26.8128 105.753 25.7932C105.081 24.7736 104.125 23.9747 103.004 23.4961L68.1058 8.54939C67.3301 8.21606 66.4949 8.04419 65.6509 8.04419C64.8069 8.04419 63.9717 8.21606 63.196 8.54939Z" fill="#1FC9AA"/>
<path d="M106.672 40.4401C106.681 40.4962 106.681 40.5534 106.672 40.6096C106.672 40.7422 106.672 40.9044 106.672 41.1034C106.672 41.5751 106.708 42.2089 106.738 43.0123C106.767 43.8156 106.811 44.8474 106.738 46.0266C106.738 46.6163 106.738 47.2427 106.679 47.906C106.679 48.2451 106.679 48.5841 106.679 48.9379C106.679 49.2916 106.613 49.6749 106.576 50.0213C106.429 51.4953 106.333 53.1167 106.025 54.834C105.885 55.6889 105.775 56.5881 105.598 57.4946C105.422 58.4011 105.202 59.3371 104.996 60.2953C104.025 64.438 102.674 68.4817 100.961 72.3749C99.2095 76.2504 97.1188 79.9623 94.713 83.467C93.5517 85.0442 92.508 86.5699 91.332 87.8891C90.7661 88.5524 90.2516 89.2231 89.7003 89.8127L88.1127 91.5079C87.1278 92.6134 86.1135 93.4904 85.2683 94.3085C84.8346 94.7065 84.4451 95.0898 84.0702 95.4214L83.0412 96.2542L81.5712 97.463L81.1816 97.7725C81.0934 97.8388 81.042 97.8683 81.042 97.8609C81.042 97.8536 81.042 97.8167 81.1522 97.7356L81.5197 97.404L82.9383 96.1437L83.9746 95.2372C84.3495 94.9055 84.7097 94.5002 85.1507 94.1022C85.9812 93.2767 86.9735 92.3923 87.9437 91.2794L89.5092 89.5695C90.0531 88.9799 90.5603 88.3092 91.1115 87.6459C92.2508 86.334 93.3165 84.8084 94.4484 83.2238C96.8307 79.7266 98.9039 76.0274 100.645 72.1686C102.343 68.295 103.694 64.277 104.68 60.1626C104.893 59.2118 105.091 58.2832 105.297 57.3841C105.503 56.4849 105.591 55.5857 105.738 54.7308C106.061 53.0209 106.172 51.4069 106.333 49.9402C106.378 49.5791 106.414 49.2032 106.451 48.8715C106.488 48.5399 106.451 48.1787 106.495 47.8471C106.525 47.1838 106.554 46.5573 106.583 45.9677C106.664 44.7958 106.642 43.7566 106.642 42.9607V41.1108V40.6096C106.641 40.5517 106.651 40.4941 106.672 40.4401Z" fill="#263238"/>
<path d="M79.4693 59.772H75.7428V39.4377C75.6772 37.1799 74.7366 35.0365 73.1207 33.4627C71.5048 31.889 69.3408 31.0086 67.0882 31.0086C64.8355 31.0086 62.6715 31.889 61.0556 33.4627C59.4397 35.0365 58.4991 37.1799 58.4335 39.4377V59.772H54.707V39.4377C54.7858 36.1974 56.1248 33.1164 58.4381 30.8526C60.7514 28.5887 63.8557 27.3215 67.0882 27.3215C70.3206 27.3215 73.4249 28.5887 75.7382 30.8526C78.0515 33.1164 79.3905 36.1974 79.4693 39.4377V59.772Z" fill="#F5F5F5"/>
<path d="M79.4982 45.975H54.6698C52.3113 45.975 50.3994 47.8921 50.3994 50.257V67.9159C50.3994 70.2808 52.3113 72.198 54.6698 72.198H79.4982C81.8566 72.198 83.7685 70.2808 83.7685 67.9159V50.257C83.7685 47.8921 81.8566 45.975 79.4982 45.975Z" fill="white"/>
<path d="M79.5055 72.198C79.8792 72.1583 80.2499 72.0943 80.6153 72.0063C81.5058 71.7487 82.2875 71.2057 82.841 70.4603C83.3945 69.715 83.6893 68.8083 83.6803 67.8791C83.6803 67.0168 83.6803 66.0807 83.6803 65.071C83.6803 63.059 83.6803 60.7669 83.6803 58.2315C83.6803 55.6962 83.6803 52.9324 83.6803 49.9548C83.625 49.2127 83.3703 48.4995 82.9433 47.8909C82.5162 47.2823 81.9327 46.801 81.2548 46.4982C80.5317 46.1997 79.7481 46.0785 78.9689 46.1445H76.4993L54.6771 46.1371C53.7598 46.1368 52.8692 46.4464 52.1491 47.0161C51.4289 47.5858 50.9213 48.3822 50.7081 49.2768C50.6127 49.7222 50.5732 50.1777 50.5905 50.6329V54.7823C50.5905 58.4674 50.5905 61.9461 50.5905 65.2995C50.6566 66.9652 50.3112 68.6824 51.1638 69.9943C51.5412 70.6387 52.0855 71.1687 52.739 71.5281C53.3925 71.8875 54.1307 72.063 54.8755 72.0358H63.1443L75.1175 72.1022H78.3662H79.2115C79.3093 72.0929 79.4077 72.0929 79.5055 72.1022C79.4078 72.1132 79.3092 72.1132 79.2115 72.1022H78.3662H75.1175L63.1443 72.1611H54.8755C54.2682 72.1884 53.6618 72.0906 53.0937 71.8737C52.5256 71.6567 52.0078 71.3252 51.5725 70.8998C51.1372 70.4743 50.7934 69.9638 50.5626 69.3999C50.3317 68.836 50.2187 68.2306 50.2303 67.6211V65.2995C50.2303 61.9461 50.2303 58.4305 50.2303 54.7823V50.6624C50.2082 50.1677 50.2502 49.6722 50.3553 49.1883C50.5941 48.2224 51.1509 47.3655 51.9355 46.7562C52.7267 46.1287 53.7051 45.7861 54.7138 45.7833H76.4552H78.9248C79.7534 45.7199 80.5851 45.8564 81.3503 46.1813C82.0815 46.5086 82.7099 47.0294 83.1683 47.6877C83.6267 48.346 83.8977 49.117 83.9522 49.918C83.9522 52.925 83.9522 55.6815 83.9522 58.2168C83.9522 60.7521 83.9522 63.0442 83.9522 65.0563C83.9522 66.066 83.9522 67.002 83.9522 67.8643C83.953 68.6714 83.729 69.4627 83.3054 70.1491C82.7291 71.1021 81.8027 71.7903 80.7256 72.0653C80.3307 72.1855 79.9169 72.2305 79.5055 72.198Z" fill="#263238"/>
<path d="M69.649 59.7645C69.9854 59.4281 70.2521 59.0283 70.4337 58.5882C70.6154 58.148 70.7084 57.6761 70.7074 57.1997C70.7117 56.5131 70.5246 55.8389 70.1672 55.2532C69.8098 54.6675 69.2963 54.1936 68.6846 53.8849C68.073 53.5762 67.3875 53.445 66.7054 53.5061C66.0233 53.5672 65.3719 53.8182 64.8245 54.2307C64.2771 54.6432 63.8555 55.2009 63.6073 55.8409C63.3591 56.4809 63.2942 57.1776 63.4198 57.8526C63.5454 58.5276 63.8566 59.154 64.3183 59.6611C64.78 60.1682 65.3738 60.5359 66.0328 60.7227L65.2463 64.2161H68.7376L68.0026 60.7227C68.6126 60.548 69.1671 60.2179 69.6122 59.7645" fill="#1FC9AA"/>
<path d="M297.294 86.0613V115.925C297.36 121.084 298.117 129.191 289.944 128.926C282.895 128.189 281.021 121.46 280.969 116.64C280.969 114.355 280.918 112.446 280.896 112.218C280.896 112.218 273.178 111.584 272.524 103.934C272.208 100.249 272.179 92.5765 272.23 85.6412C272.261 82.0494 273.64 78.6009 276.091 75.9816C278.543 73.3624 281.887 71.7643 285.46 71.5053L286.195 71.4537C294.185 71.3358 297.426 78.0647 297.294 86.0613Z" fill="#FFBF9D"/>
<path d="M280.918 112.218C284.444 111.946 287.818 110.668 290.642 108.533C290.642 108.533 288.628 114.304 280.962 114.171L280.918 112.218Z" fill="#FF9A6C"/>
<path d="M285.292 88.7808C285.446 88.9356 286.328 88.2207 287.599 88.1912C288.871 88.1617 289.804 88.7808 289.966 88.6187C290.128 88.4565 289.878 88.2575 289.459 87.9701C288.9 87.5933 288.236 87.4025 287.563 87.4247C286.894 87.4458 286.251 87.6809 285.725 88.0954C285.343 88.4197 285.218 88.7071 285.292 88.7808Z" fill="#263238"/>
<path d="M285.27 92.3996C285.285 92.6707 285.406 92.9249 285.607 93.107C285.808 93.2892 286.072 93.3845 286.343 93.3725C286.475 93.3735 286.605 93.3479 286.727 93.2974C286.849 93.2468 286.959 93.1722 287.052 93.0781C287.144 92.9839 287.217 92.8721 287.266 92.7492C287.314 92.6263 287.338 92.4949 287.335 92.3628C287.318 92.0936 287.197 91.8417 286.998 91.6601C286.799 91.4786 286.538 91.3817 286.269 91.3899C286.137 91.3899 286.007 91.4161 285.885 91.4669C285.763 91.5177 285.653 91.5922 285.56 91.6861C285.467 91.7799 285.393 91.8913 285.344 92.0138C285.294 92.1362 285.269 92.2674 285.27 92.3996Z" fill="#263238"/>
<path d="M282.095 97.7282C281.461 97.5803 280.812 97.511 280.161 97.5218C279.86 97.5218 279.573 97.4703 279.507 97.2713C279.458 96.9626 279.504 96.6463 279.64 96.3647C279.875 95.6277 280.11 94.8391 280.375 94.0137C281.367 90.6676 282.065 87.9259 281.933 87.889C281.801 87.8522 280.882 90.5276 279.89 93.8736C279.654 94.6991 279.426 95.4877 279.206 96.2394C279.046 96.6151 279.023 97.0349 279.14 97.426C279.189 97.5297 279.262 97.6204 279.353 97.6908C279.443 97.7611 279.549 97.8093 279.662 97.8314C279.833 97.8515 280.005 97.8515 280.176 97.8314C280.817 97.8736 281.461 97.8389 282.095 97.7282Z" fill="#263238"/>
<path d="M285.836 83.327C285.961 83.6144 286.982 83.4007 288.21 83.4596C289.437 83.5186 290.415 83.7913 290.584 83.5186C290.643 83.3933 290.452 83.128 290.04 82.8774C289.492 82.5688 288.878 82.3946 288.25 82.369C287.621 82.3434 286.996 82.4671 286.424 82.73C285.99 82.9437 285.784 83.1943 285.836 83.327Z" fill="#263238"/>
<path d="M273.701 85.2431C273.84 85.479 274.832 85.2431 276.045 85.1842C277.258 85.1252 278.25 85.3021 278.383 85.0589C278.434 84.941 278.236 84.7346 277.817 84.5503C277.25 84.3234 276.64 84.2228 276.031 84.2555C275.413 84.2726 274.806 84.4235 274.252 84.6978C273.84 84.9115 273.642 85.1326 273.701 85.2431Z" fill="#263238"/>
<path d="M262.146 78.7796C262.189 78.6241 262.262 78.4788 262.362 78.3522C262.462 78.2256 262.586 78.1203 262.727 78.0425C263.336 77.7644 264.009 77.655 264.674 77.7256C266.71 77.688 268.695 77.0832 270.407 75.9789C271.207 74.8268 272.099 73.7422 273.075 72.736C275.391 70.3481 277.287 68.7193 279.257 67.9233C281.8 66.8989 286.056 66.4493 288.709 67.1863C291.362 67.9233 293.744 70.0459 294.119 72.7655C295.589 71.5052 297.838 71.52 299.653 72.2496H299.697C301.711 72.9866 302.858 75.1092 303.453 77.1729C304.049 79.2365 304.306 81.4476 305.394 83.2975C305.621 83.6807 305.893 84.145 305.695 84.5504C305.603 84.6972 305.469 84.8124 305.31 84.8809C305.151 84.9493 304.975 84.9677 304.806 84.9336C304.465 84.8605 304.144 84.7147 303.865 84.5062C304.093 85.0516 304.313 85.5896 304.541 86.1276C303.805 86.256 303.05 86.208 302.336 85.9876C301.965 87.8274 301.487 89.6436 300.903 91.4268C300.15 91.3378 299.391 91.5236 298.764 91.95C298.029 92.5912 297.742 93.7926 296.559 93.3356C295.963 93.0998 295.42 91.8616 295.214 91.2351C293.884 87.1533 293.446 82.8326 293.928 78.5658C293.091 77.6731 292.094 76.9478 290.987 76.4285L291.076 76.5096C288.944 75.7725 286.533 75.0355 284.512 76.0379C282.947 76.8191 282.028 78.4479 280.837 79.723C279.759 80.935 278.447 81.9147 276.98 82.6026C275.513 83.2906 273.922 83.6724 272.304 83.7249C272.193 85.877 272.37 88.9209 272.26 91.0951L270.452 87.6459C270.309 87.4069 270.179 87.1609 270.062 86.9089V86.8351C269.881 86.4142 269.677 86.0033 269.452 85.6043C269.202 85.806 268.888 85.9112 268.567 85.901C268.246 85.8908 267.939 85.7658 267.702 85.5486C267.465 85.3314 267.313 85.0363 267.274 84.7167C267.235 84.3971 267.312 84.0741 267.489 83.806C267.671 83.5557 267.889 83.3345 268.136 83.1501C267.874 83.4063 267.55 83.5893 267.195 83.6811C266.84 83.7729 266.468 83.7702 266.115 83.6733C265.765 83.5664 265.46 83.3467 265.247 83.0481C265.035 82.7496 264.926 82.3891 264.939 82.0224C264.969 81.7759 265.063 81.5416 265.212 81.3426C265.36 81.1436 265.557 80.9867 265.784 80.8874C264.838 80.9636 263.89 80.7531 263.065 80.2831C262.477 79.9662 261.948 79.4576 262.146 78.7796Z" fill="#263238"/>
<path d="M291.701 73.6573C291.967 73.8811 292.213 74.1278 292.436 74.3944C293.04 75.1225 293.443 75.9967 293.605 76.9297C293.738 77.5696 293.805 78.2217 293.803 78.8754C293.803 79.6124 293.752 80.3494 293.693 81.1307C293.624 81.9641 293.607 82.801 293.642 83.6365C293.662 84.0826 293.719 84.5263 293.811 84.9632C293.879 85.4291 294.064 85.8701 294.347 86.2456C294.481 86.3943 294.651 86.5058 294.84 86.5691C295.029 86.6324 295.232 86.6454 295.428 86.6067C295.8 86.5383 296.14 86.3462 296.39 86.0613C296.806 85.4911 297.06 84.8188 297.125 84.1156H296.971C297.199 84.6942 297.511 85.2357 297.897 85.7223C298.267 86.1696 298.793 86.4594 299.367 86.533C299.637 86.56 299.909 86.5115 300.154 86.393C300.381 86.2738 300.568 86.089 300.69 85.8623C300.801 85.6537 300.856 85.4204 300.852 85.1843C300.84 84.9644 300.752 84.7556 300.602 84.5947L300.521 84.6684C300.976 85.1889 301.534 85.6082 302.16 85.8992C302.381 85.9974 302.55 86.0638 302.667 86.0982L302.851 86.1424L302.682 86.0687C302.565 86.0171 302.395 85.9508 302.19 85.8476C301.583 85.5393 301.043 85.1134 300.602 84.5947L300.521 84.6684C300.646 84.8288 300.718 85.0242 300.728 85.2276C300.737 85.431 300.683 85.6323 300.573 85.8034C300.464 86.0032 300.297 86.1652 300.095 86.2677C299.867 86.3779 299.611 86.4189 299.36 86.3856C298.823 86.3238 298.329 86.0605 297.978 85.6486C297.609 85.1704 297.309 84.6418 297.089 84.0787L296.979 83.8355L296.927 84.1009C296.848 84.7738 296.595 85.4143 296.192 85.9581C295.962 86.2084 295.658 86.3787 295.325 86.4446C295.159 86.4784 294.987 86.4683 294.825 86.4154C294.664 86.3624 294.52 86.2683 294.406 86.1424C294.141 85.7911 293.972 85.3773 293.914 84.9411C293.823 84.5136 293.764 84.0801 293.737 83.6439C293.702 82.8133 293.719 81.9813 293.789 81.1528C293.833 80.3568 293.884 79.6051 293.877 78.8902C293.872 78.2283 293.798 77.5687 293.656 76.9223C293.477 75.9717 293.049 75.0863 292.414 74.3575C292.218 74.0851 291.977 73.8483 291.701 73.6573Z" fill="#455A64"/>
<path d="M268.1 81.0938L268.166 81.1454C268.226 81.1967 268.29 81.2435 268.357 81.2854C268.457 81.3676 268.565 81.4392 268.68 81.4992C268.83 81.5879 268.985 81.6691 269.143 81.7424C270.166 82.2072 271.287 82.4098 272.407 82.332C274.073 82.2193 275.671 81.6254 277.008 80.6221C278.625 79.3879 279.972 77.8323 280.962 76.0526C281.521 75.1314 281.969 74.1806 282.432 73.3036C282.907 72.4472 283.501 71.663 284.196 70.9746C284.808 70.3495 285.566 69.8883 286.401 69.6332C286.779 69.5283 287.171 69.4835 287.562 69.5006C287.919 69.5276 288.27 69.602 288.606 69.7217C289.2 69.9238 289.743 70.2504 290.201 70.6798C290.547 71.0038 290.837 71.3822 291.061 71.8001C291.239 72.1652 291.37 72.5516 291.451 72.9498C291.451 72.9498 291.451 72.9498 291.451 72.8687C291.451 72.7877 291.451 72.7287 291.414 72.6329C291.353 72.3341 291.254 72.0443 291.12 71.7706C290.605 70.7566 289.721 69.9806 288.65 69.6037C288.297 69.4803 287.929 69.4035 287.555 69.3753C287.149 69.3581 286.743 69.4029 286.35 69.5079C285.49 69.7625 284.708 70.2316 284.079 70.8714C283.385 71.5674 282.798 72.3621 282.337 73.2299C281.829 74.1143 281.374 75.0577 280.83 75.9789C279.846 77.7353 278.518 79.2745 276.927 80.5042C275.618 81.4987 274.051 82.0948 272.414 82.2215C271.312 82.3086 270.204 82.1265 269.187 81.6908C268.813 81.5147 268.449 81.3153 268.1 81.0938Z" fill="#455A64"/>
<path d="M267.409 77.733C267.409 77.733 267.497 77.8141 267.681 77.9247C267.94 78.0821 268.21 78.22 268.49 78.3374C268.905 78.5146 269.336 78.6551 269.776 78.7575C270.314 78.8844 270.863 78.9585 271.415 78.9786C271.968 78.9923 272.522 78.9553 273.069 78.868C273.511 78.7932 273.947 78.6797 274.37 78.529C274.658 78.4303 274.938 78.3095 275.208 78.1679C275.309 78.1221 275.405 78.0652 275.494 77.9983C275.494 77.9983 275.061 78.1826 274.333 78.4111C273.909 78.5377 273.476 78.6362 273.039 78.7059C272.504 78.7806 271.963 78.8126 271.422 78.8017C270.881 78.7777 270.343 78.7111 269.813 78.6027C269.38 78.5072 268.955 78.3791 268.541 78.2195C267.835 77.9468 267.424 77.7035 267.409 77.733Z" fill="#455A64"/>
<path d="M273.649 88.7809C273.796 88.9356 274.678 88.2207 275.957 88.1913C277.236 88.1618 278.162 88.7809 278.324 88.6187C278.486 88.4566 278.228 88.2576 277.817 87.9702C277.255 87.5937 276.589 87.403 275.913 87.4248C275.247 87.4454 274.605 87.6805 274.083 88.0954C273.693 88.4197 273.569 88.7072 273.649 88.7809Z" fill="#263238"/>
<path d="M274.95 92.3996C274.967 92.6687 275.088 92.9207 275.287 93.1022C275.486 93.2838 275.747 93.3807 276.016 93.3725C276.148 93.3735 276.279 93.348 276.401 93.2975C276.524 93.247 276.635 93.1726 276.728 93.0785C276.821 92.9844 276.894 92.8727 276.944 92.7498C276.993 92.6269 277.018 92.4953 277.016 92.3628C276.997 92.093 276.875 91.841 276.674 91.6597C276.474 91.4783 276.212 91.3816 275.943 91.3899C275.811 91.3899 275.681 91.4161 275.559 91.467C275.438 91.5179 275.328 91.5925 275.236 91.6865C275.143 91.7805 275.071 91.8919 275.022 92.0143C274.973 92.1367 274.948 92.2677 274.95 92.3996Z" fill="#263238"/>
<path d="M297.096 91.7731C297.221 91.7068 302.241 89.8348 302.439 95.075C302.638 100.315 297.36 99.4455 297.346 99.2981C297.331 99.1507 297.096 91.7731 297.096 91.7731Z" fill="#FFBF9D"/>
<path d="M298.896 97.2492C298.896 97.2492 298.992 97.3082 299.146 97.3745C299.366 97.4597 299.61 97.4597 299.829 97.3745C300.158 97.1457 300.42 96.8331 300.588 96.4691C300.756 96.1051 300.824 95.7027 300.785 95.3035C300.785 94.8537 300.681 94.41 300.484 94.0063C300.426 93.8421 300.329 93.6948 300.201 93.5776C300.073 93.4605 299.917 93.3774 299.749 93.3356C299.644 93.3148 299.535 93.3305 299.44 93.3801C299.345 93.4296 299.27 93.5102 299.227 93.6083C299.161 93.7558 299.227 93.8589 299.168 93.8737C299.109 93.8884 299.058 93.7926 299.087 93.5715C299.114 93.4414 299.181 93.3229 299.278 93.2325C299.42 93.1212 299.598 93.0661 299.778 93.0777C299.994 93.1126 300.198 93.2019 300.37 93.3373C300.542 93.4726 300.677 93.6496 300.763 93.8516C301.009 94.3036 301.138 94.8105 301.138 95.3256C301.138 96.3795 300.653 97.3892 299.903 97.6398C299.764 97.6865 299.617 97.7015 299.472 97.6836C299.327 97.6657 299.188 97.6155 299.065 97.5366C298.896 97.3745 298.845 97.2566 298.896 97.2492Z" fill="#FF9A6C"/>
<path d="M285.813 98.7747C285.857 98.7747 285.857 99.0843 285.681 99.5118C285.425 100.087 285.006 100.574 284.476 100.912C283.96 101.26 283.347 101.436 282.726 101.413C282.248 101.369 281.991 101.207 281.991 101.17C281.991 101.133 282.285 101.17 282.726 101.17C283.287 101.128 283.828 100.946 284.299 100.639C284.775 100.333 285.174 99.9223 285.468 99.4381C285.666 99.0327 285.754 98.76 285.813 98.7747Z" fill="#263238"/>
<path d="M312.127 306.001L313.685 323.69L319.212 337.369C319.303 337.607 319.342 337.862 319.327 338.117C319.312 338.371 319.243 338.62 319.125 338.845C319.007 339.071 318.842 339.269 318.642 339.426C318.441 339.584 318.21 339.696 317.963 339.757C317.67 339.844 317.362 339.863 317.061 339.812C316.761 339.761 316.476 339.641 316.228 339.462C313.075 337.162 301.705 328.702 301.58 327.603C301.418 326.174 298.515 308.758 298.515 308.758L312.127 306.001Z" fill="#455A64"/>
<path d="M318.007 339.779L301.308 325.606L301.477 326.918C301.587 327.655 301.602 328.023 302.101 328.473C306.539 332.504 311.202 336.278 316.066 339.779C316.366 339.919 316.692 339.992 317.022 339.992C317.352 339.992 317.678 339.919 317.977 339.779H318.007Z" fill="#263238"/>
<path d="M304.556 320.078C304.8 320.205 304.987 320.421 305.077 320.681C305.167 320.942 305.154 321.227 305.041 321.479C304.894 321.722 304.663 321.903 304.393 321.988C304.122 322.074 303.83 322.058 303.571 321.943C303.316 321.808 303.122 321.58 303.029 321.306C302.936 321.032 302.951 320.732 303.071 320.469C303.249 320.23 303.509 320.065 303.8 320.007C304.092 319.948 304.395 320 304.651 320.152" fill="white"/>
<path d="M312.818 332.482C312.928 332.527 313.244 331.554 314.288 330.949C314.95 330.625 315.664 330.418 316.397 330.338C316.397 330.293 316.154 330.183 315.713 330.168C315.132 330.163 314.559 330.319 314.06 330.618C313.572 330.901 313.179 331.321 312.928 331.826C312.766 332.21 312.766 332.475 312.818 332.482Z" fill="#263238"/>
<path d="M314.419 334.716C314.515 334.789 315.051 334.148 315.992 333.794C316.586 333.622 317.19 333.487 317.8 333.389C317.491 333.247 317.154 333.177 316.814 333.185C316.474 333.193 316.14 333.278 315.838 333.433C314.765 333.846 314.331 334.679 314.419 334.716Z" fill="#263238"/>
<path d="M309.988 329.704C310.724 329.118 311.503 328.588 312.318 328.119C313.199 327.758 314.106 327.46 315.03 327.227C314.028 327.076 313.006 327.269 312.127 327.773C310.612 328.502 309.922 329.66 309.988 329.704Z" fill="#263238"/>
<path d="M309.039 324.353C309.098 324.456 310.09 323.94 311.428 323.764C312.766 323.587 313.875 323.764 313.905 323.668C313.116 323.288 312.223 323.185 311.369 323.373C310.504 323.425 309.682 323.77 309.039 324.353Z" fill="#263238"/>
<path d="M308.451 319.165C309.225 318.775 310.068 318.545 310.931 318.486C311.794 318.428 312.66 318.543 313.479 318.825C313.479 318.781 313.28 318.582 312.817 318.391C312.208 318.151 311.552 318.05 310.899 318.096C310.247 318.133 309.613 318.322 309.047 318.649C308.606 318.899 308.407 319.128 308.451 319.165Z" fill="#263238"/>
<path d="M310.767 317.499C310.767 317.499 310.811 317.256 310.723 316.828C310.594 316.219 310.344 315.643 309.988 315.133C309.746 314.73 309.38 314.417 308.944 314.241C308.793 314.196 308.632 314.195 308.481 314.24C308.33 314.284 308.195 314.372 308.092 314.492C308.004 314.61 307.941 314.745 307.906 314.888C307.87 315.031 307.864 315.179 307.886 315.325C308.013 315.932 308.347 316.476 308.829 316.864C309.312 317.252 309.913 317.461 310.532 317.455C311.15 317.464 311.757 317.293 312.279 316.962C312.802 316.631 313.216 316.154 313.472 315.59C313.53 315.452 313.557 315.303 313.549 315.154C313.541 315.004 313.5 314.859 313.428 314.728C313.334 314.6 313.204 314.503 313.055 314.449C312.906 314.395 312.744 314.387 312.59 314.425C312.145 314.57 311.743 314.823 311.421 315.162C310.964 315.585 310.583 316.083 310.297 316.637C310.178 316.832 310.103 317.051 310.076 317.278C310.496 316.559 311.019 315.906 311.627 315.339C311.916 315.054 312.269 314.841 312.656 314.72C312.74 314.697 312.828 314.7 312.91 314.729C312.991 314.758 313.062 314.812 313.112 314.882C313.152 314.972 313.173 315.068 313.173 315.166C313.173 315.264 313.152 315.361 313.112 315.45C312.878 315.928 312.515 316.331 312.064 316.612C311.613 316.894 311.092 317.043 310.561 317.042C310.037 317.044 309.527 316.869 309.114 316.546C308.701 316.222 308.408 315.769 308.283 315.258C308.247 315.056 308.289 314.848 308.4 314.676C308.456 314.608 308.53 314.558 308.614 314.533C308.698 314.508 308.788 314.509 308.871 314.536C309.239 314.685 309.555 314.942 309.775 315.273C310.24 315.947 310.576 316.702 310.767 317.499Z" fill="#263238"/>
<path d="M267.629 306.915L268.32 321.914C268.32 321.914 252.378 327.618 252.224 330.404L283.13 330.176L283.064 306.761L267.629 306.915Z" fill="#455A64"/>
<path d="M277.868 320.58C278.159 320.652 278.412 320.832 278.576 321.083C278.74 321.335 278.802 321.64 278.75 321.936C278.662 322.226 278.467 322.473 278.206 322.627C277.945 322.781 277.636 322.832 277.339 322.769C277.033 322.693 276.766 322.503 276.594 322.237C276.422 321.972 276.357 321.65 276.413 321.339C276.535 321.04 276.764 320.798 277.056 320.662C277.347 320.525 277.679 320.504 277.986 320.602" fill="#E0E0E0"/>
<path d="M283.131 330.176L283.028 327.817L253.43 328.915C253.43 328.915 252.063 329.49 252.224 330.389L283.131 330.176Z" fill="#263238"/>
<path d="M267.82 321.781C267.82 321.921 268.555 321.98 269.29 322.43C270.025 322.879 270.437 323.476 270.577 323.417C270.716 323.358 270.481 322.54 269.57 322.009C268.658 321.479 267.784 321.641 267.82 321.781Z" fill="#263238"/>
<path d="M264.587 323.056C264.587 323.196 265.212 323.432 265.726 324.029C266.241 324.626 266.402 325.267 266.549 325.26C266.696 325.252 266.792 324.442 266.13 323.712C265.469 322.982 264.594 322.923 264.587 323.056Z" fill="#263238"/>
<path d="M262.778 326.726C262.918 326.726 263.117 326.048 262.727 325.252C262.337 324.456 261.624 324.176 261.558 324.294C261.492 324.412 261.941 324.825 262.249 325.466C262.558 326.107 262.631 326.719 262.778 326.726Z" fill="#263238"/>
<path d="M268.063 318.332C268.129 318.464 268.798 318.265 269.673 318.332C270.547 318.398 271.194 318.627 271.268 318.509C271.341 318.391 270.709 317.882 269.702 317.838C268.695 317.794 268.026 318.221 268.063 318.332Z" fill="#263238"/>
<path d="M262.249 199.2C262.249 200.063 265.836 319.96 265.836 319.96H284.946L288.819 217.397C288.819 217.397 293.34 271.023 293.34 272.18C293.34 273.337 297.323 320.535 297.323 320.535L315.037 319.172L313.868 211.229L311.707 195.397L262.249 199.2Z" fill="#2C374A"/>
<path d="M290.812 213.602C290.57 213.739 290.31 213.844 290.04 213.911C289.533 214.088 288.791 214.331 287.879 214.648L287.71 214.7V214.53C287.607 213.093 287.482 211.162 287.372 209.047C287.247 206.755 287.159 204.684 287.115 203.151C287.115 202.414 287.078 201.787 287.078 201.367C287.056 201.148 287.071 200.926 287.122 200.711C287.184 200.922 287.218 201.14 287.225 201.36C287.277 201.78 287.328 202.392 287.379 203.136C287.497 204.61 287.629 206.711 287.747 209.032C287.865 211.148 287.945 213.079 287.989 214.523L287.806 214.405C288.732 214.147 289.482 213.941 290.011 213.808C290.27 213.713 290.539 213.644 290.812 213.602Z" fill="#455A64"/>
<path d="M289.341 201.139C289.341 201.139 289.4 201.043 289.599 200.977C289.878 200.903 290.174 200.929 290.437 201.05C290.634 201.123 290.803 201.258 290.918 201.434C291.034 201.611 291.089 201.82 291.076 202.031C291.051 202.297 290.94 202.548 290.76 202.745C290.579 202.942 290.339 203.074 290.076 203.121C289.809 203.162 289.536 203.127 289.287 203.022C289.038 202.916 288.823 202.744 288.665 202.524C288.555 202.355 288.496 202.156 288.496 201.953C288.496 201.75 288.555 201.552 288.665 201.382C288.817 201.153 289.039 200.98 289.297 200.888C289.488 200.822 289.599 200.837 289.606 200.851C289.613 200.866 289.172 200.991 288.908 201.493C288.83 201.626 288.793 201.78 288.801 201.934C288.809 202.089 288.861 202.237 288.952 202.362C289.071 202.52 289.23 202.643 289.412 202.718C289.594 202.793 289.793 202.818 289.988 202.79C290.17 202.755 290.338 202.666 290.469 202.534C290.6 202.403 290.688 202.235 290.723 202.053C290.738 201.902 290.705 201.75 290.63 201.618C290.555 201.486 290.441 201.38 290.304 201.316C290.01 201.156 289.673 201.094 289.341 201.139Z" fill="#455A64"/>
<path d="M298.118 202.384C298.015 202.384 297.868 201.869 297.794 201.22C297.721 200.571 297.743 200.033 297.846 200.026C297.949 200.019 298.096 200.535 298.169 201.183C298.243 201.832 298.221 202.384 298.118 202.384Z" fill="#455A64"/>
<path d="M299.44 202.244C299.337 202.244 299.249 201.692 299.249 201.006C299.249 200.321 299.323 199.768 299.433 199.768C299.543 199.768 299.624 200.321 299.624 201.006C299.624 201.692 299.55 202.244 299.44 202.244Z" fill="#455A64"/>
<path d="M276.412 203.07C276.31 203.07 276.148 202.458 276.052 201.684C275.957 200.91 275.964 200.262 276.052 200.254C276.141 200.247 276.317 200.866 276.412 201.647C276.508 202.429 276.515 203.062 276.412 203.07Z" fill="#455A64"/>
<path d="M278.022 203.188C277.682 202.775 277.514 202.247 277.552 201.714C277.472 201.198 277.59 200.671 277.882 200.24C277.993 200.24 277.882 200.918 277.934 201.714C277.985 202.51 278.125 203.158 278.022 203.188Z" fill="#455A64"/>
<path d="M271.981 201.588C271.989 201.765 271.966 201.942 271.915 202.112C271.822 202.59 271.695 203.06 271.532 203.519C270.987 205.067 270.187 206.512 269.166 207.794C268.105 209.116 266.845 210.265 265.432 211.199C264.997 211.487 264.546 211.748 264.08 211.98C263.91 212.076 263.73 212.153 263.543 212.209C263.543 212.165 264.234 211.781 265.285 211.022C266.637 210.06 267.849 208.914 268.886 207.617C269.888 206.353 270.702 204.95 271.305 203.453C271.753 202.311 271.922 201.574 271.981 201.588Z" fill="#455A64"/>
<path d="M313.288 209.666C313.099 209.722 312.904 209.752 312.707 209.755C312.174 209.797 311.638 209.797 311.105 209.755C309.36 209.586 307.681 209 306.21 208.045C304.816 207.129 303.692 205.857 302.954 204.36C302.739 203.924 302.572 203.467 302.454 202.996C302.394 202.831 302.367 202.656 302.373 202.48C302.432 202.48 302.593 203.217 303.174 204.271C303.95 205.697 305.063 206.909 306.415 207.801C307.841 208.724 309.452 209.318 311.134 209.541C312.45 209.688 313.28 209.607 313.288 209.666Z" fill="#455A64"/>
<path d="M282.161 270.381C282.161 270.463 278.971 269.77 275.09 268.848C271.209 267.927 268.078 267.102 268.108 267.021C268.137 266.94 271.298 267.625 275.178 268.554C279.059 269.482 282.183 270.3 282.161 270.381Z" fill="#455A64"/>
<path d="M312.942 266.018C312.986 266.092 310.23 267.529 306.79 269.239C303.35 270.949 300.513 272.268 300.469 272.187C300.425 272.106 303.181 270.669 306.621 268.966C310.061 267.264 312.898 265.945 312.942 266.018Z" fill="#455A64"/>
<path d="M252.974 158.598L255.583 161.878V156.24H263.815C263.815 156.24 264.726 169.145 264.55 171.894C264.355 173.327 264.017 174.737 263.543 176.102C263.297 176.897 262.851 177.615 262.248 178.187C261.645 178.758 260.905 179.165 260.1 179.366C259.295 179.568 258.451 179.558 257.651 179.337C256.851 179.117 256.121 178.693 255.531 178.107C254.61 177.208 253.751 176.248 252.959 175.233C249.284 170.516 243.228 159.018 243.228 159.018L249.578 155.215L252.974 158.598Z" fill="#FFBF9D"/>
<path d="M252.451 157.994C252.762 158.518 253.121 159.011 253.524 159.468C254.259 160.33 255.185 161.517 256.281 162.799C257.376 164.082 258.419 165.217 259.221 165.991C259.627 166.437 260.097 166.82 260.617 167.126C260.244 166.658 259.842 166.215 259.412 165.799C258.677 164.988 257.662 163.831 256.567 162.549C254.399 159.94 252.547 157.906 252.451 157.994Z" fill="#FF9A6C"/>
<path d="M271.745 118.954L280.418 115.542L296.404 114.628L303.924 117.495L293.626 123.229L284.747 122.905L271.745 118.954Z" fill="#FFBF9D"/>
<path d="M261.506 200.837C262.293 200.969 314.669 203.202 314.669 203.202L312.861 155.952L312.707 146.681L309.767 118.593C309.767 118.593 301.932 115.888 297.941 114.599C297.941 114.599 293.736 119.021 285.739 118.873C277.926 118.763 276.295 116.994 276.295 116.994L265.373 121.195C265.373 121.195 257.604 123.988 256.266 127.437C254.928 130.887 252.591 149.953 252.591 149.953H263.917L263.616 183.834L261.506 200.837Z" fill="#176CFF"/>
<g opacity="0.2">
<path d="M294.442 137.815L296.067 149.717L303.924 153.233L309.73 148.273V137.218L294.442 137.815Z" fill="black"/>
</g>
<path d="M309.524 141.212C309.524 141.308 306.261 141.389 302.233 141.389C298.205 141.389 294.935 141.308 294.935 141.212C297.363 141.027 299.799 140.966 302.233 141.028C304.665 140.966 307.099 141.027 309.524 141.212Z" fill="#263238"/>
<path d="M257.979 132.368C258.016 132.471 258.045 132.577 258.067 132.685C258.118 132.921 258.184 133.215 258.273 133.591C258.555 134.729 258.903 135.848 259.316 136.945C259.838 138.352 260.573 140.011 261.477 141.868C262.381 143.725 263.102 145.944 263.903 148.302C263.903 151.132 263.903 154.198 263.844 157.463C263.77 164.686 263.697 171.223 263.653 175.992C263.609 178.336 263.579 180.244 263.55 181.608C263.55 182.242 263.535 182.75 263.506 183.134C263.509 183.311 263.497 183.489 263.469 183.664C263.456 183.485 263.456 183.305 263.469 183.126C263.469 182.753 263.469 182.244 263.469 181.601C263.469 180.244 263.469 178.328 263.469 175.984C263.469 171.216 263.528 164.679 263.565 157.463C263.565 154.228 263.623 151.132 263.645 148.302V148.354C262.859 145.995 262.102 143.806 261.279 141.927C260.493 140.309 259.791 138.651 259.177 136.96C258.779 135.853 258.458 134.72 258.214 133.569C258.14 133.164 258.081 132.832 258.052 132.641C258.019 132.552 257.995 132.461 257.979 132.368Z" fill="#263238"/>
<path d="M313.508 126.855C313.534 127.191 313.534 127.529 313.508 127.865C313.508 128.602 313.449 129.501 313.405 130.607C313.31 132.98 313.185 136.149 313.045 139.65C312.906 143.151 312.744 146.327 312.641 148.7C312.575 149.806 312.523 150.727 312.479 151.442C312.478 151.779 312.443 152.114 312.376 152.444C312.35 152.108 312.35 151.771 312.376 151.435C312.376 150.698 312.376 149.798 312.428 148.693C312.487 146.371 312.59 143.173 312.737 139.642C312.884 136.112 313.045 132.906 313.192 130.599C313.266 129.442 313.339 128.506 313.405 127.857C313.41 127.521 313.445 127.186 313.508 126.855Z" fill="#263238"/>
<g opacity="0.3">
<path d="M258.008 134.1C257.808 139.286 259.657 144.342 263.153 148.17C262.087 143.298 259.426 138.765 258.008 134.1Z" fill="black"/>
</g>
<g opacity="0.3">
<path d="M281.014 180.849C283.476 180.52 285.722 179.266 287.298 177.341C288.956 175.484 290.376 173.426 291.524 171.216C293.006 168.21 293.847 164.926 293.994 161.576C290.944 169.779 286.475 176.265 281.014 180.849Z" fill="black"/>
</g>
<path d="M294.964 158.001C294.959 158.103 294.944 158.204 294.92 158.303C294.868 158.539 294.802 158.819 294.729 159.158C294.655 159.497 294.538 159.977 294.376 160.492C294.214 161.008 294.06 161.598 293.825 162.239C293.31 163.748 292.706 165.224 292.017 166.661C290.33 170.179 288.166 173.446 285.585 176.368C284.532 177.56 283.402 178.683 282.204 179.729C281.712 180.193 281.219 180.561 280.8 180.9C280.381 181.239 280.014 181.512 279.698 181.726L278.963 182.22C278.794 182.323 278.706 182.382 278.698 182.367C278.763 182.289 278.837 182.22 278.919 182.161L279.602 181.615C279.904 181.394 280.264 181.107 280.668 180.753C281.072 180.399 281.55 180.016 282.035 179.552C283.196 178.483 284.298 177.351 285.335 176.161C286.592 174.693 287.763 173.152 288.841 171.548C289.895 169.931 290.857 168.255 291.722 166.529C292.418 165.11 293.038 163.656 293.582 162.173C293.832 161.546 294.008 160.957 294.177 160.448C294.346 159.94 294.486 159.497 294.589 159.136C294.692 158.775 294.765 158.532 294.839 158.303C294.912 158.075 294.949 157.994 294.964 158.001Z" fill="#263238"/>
<path d="M293.45 143.217C293.439 143.38 293.417 143.543 293.384 143.703C293.325 144.05 293.244 144.507 293.149 145.074C293.053 145.642 292.906 146.393 292.693 147.226C292.48 148.059 292.289 149.024 291.958 150.056C291.811 150.572 291.649 151.118 291.48 151.685C291.311 152.253 291.091 152.827 290.885 153.424C290.495 154.641 289.966 155.893 289.415 157.22C287.001 162.946 283.756 168.283 279.786 173.059C278.853 174.135 277.978 175.181 277.082 176.08C276.641 176.537 276.229 176.994 275.803 177.4C275.376 177.805 274.972 178.203 274.575 178.571C273.84 179.308 273.046 179.95 272.37 180.51C271.694 181.07 271.15 181.534 270.665 181.895L269.555 182.736C269.434 182.842 269.301 182.933 269.158 183.008C269.265 182.889 269.384 182.781 269.511 182.684L270.577 181.792C271.047 181.416 271.62 180.952 272.245 180.37C272.87 179.788 273.627 179.168 274.384 178.395L275.589 177.215C276.008 176.803 276.413 176.346 276.846 175.889C277.736 174.982 278.596 173.936 279.522 172.852C283.457 168.085 286.694 162.779 289.136 157.095C289.679 155.776 290.209 154.537 290.606 153.336C290.819 152.732 291.039 152.164 291.216 151.604C291.392 151.044 291.554 150.506 291.715 149.99C292.054 148.966 292.267 148.015 292.495 147.182C292.722 146.349 292.884 145.634 293.002 145.045C293.119 144.455 293.23 144.035 293.303 143.688C293.335 143.526 293.384 143.368 293.45 143.217Z" fill="#263238"/>
<path d="M252.062 128.528L272.231 159.276C272.327 159.422 272.379 159.592 272.382 159.766C272.384 159.94 272.336 160.112 272.244 160.26C272.152 160.407 272.019 160.525 271.861 160.599C271.704 160.673 271.528 160.7 271.356 160.677L248.13 157.729C248.008 157.712 247.89 157.67 247.784 157.607C247.678 157.544 247.586 157.46 247.512 157.36L225.33 126.98C225.22 126.84 225.154 126.67 225.139 126.492C225.124 126.314 225.162 126.136 225.247 125.979C225.332 125.822 225.461 125.694 225.618 125.61C225.776 125.526 225.954 125.49 226.131 125.506L250.026 127.275C250.439 127.313 250.837 127.445 251.19 127.663C251.544 127.88 251.842 128.176 252.062 128.528Z" fill="#E0E0E0"/>
<path d="M252.062 128.528C252.012 128.428 251.95 128.334 251.878 128.248C251.674 127.994 251.425 127.779 251.143 127.614C250.665 127.364 250.132 127.235 249.592 127.238L247.446 127.061L233.672 125.978L229.108 125.624L226.682 125.44C226.469 125.44 226.286 125.44 226.043 125.44C225.795 125.448 225.558 125.545 225.374 125.713C225.188 125.883 225.067 126.115 225.035 126.366C225.003 126.617 225.06 126.871 225.198 127.084L231.651 135.965C236.208 142.207 241.206 149.069 246.461 156.277C246.799 156.726 247.101 157.161 247.468 157.633C247.581 157.758 247.722 157.854 247.88 157.913C248.024 157.964 248.175 157.994 248.328 158.001L249.151 158.105L252.4 158.517L258.751 159.313L270.761 160.787C271.01 160.787 271.216 160.854 271.496 160.868C271.639 160.869 271.781 160.842 271.913 160.788C272.046 160.733 272.166 160.653 272.267 160.551C272.46 160.353 272.572 160.091 272.583 159.814C272.572 159.545 272.474 159.286 272.304 159.077L270.746 156.69L267.806 152.267L262.543 144.286C259.324 139.429 256.722 135.486 254.907 132.751L252.812 129.619C252.577 129.28 252.393 129.007 252.253 128.816C252.194 128.72 252.128 128.629 252.055 128.543C252.105 128.644 252.162 128.743 252.224 128.838L252.746 129.663C253.216 130.4 253.9 131.469 254.774 132.832L262.315 144.44L267.541 152.444L270.481 156.903L272.01 159.24C272.142 159.395 272.22 159.589 272.231 159.792C272.223 159.986 272.145 160.17 272.01 160.308C271.873 160.444 271.688 160.521 271.496 160.522C271.297 160.522 271.025 160.463 270.797 160.441L258.765 158.901L252.415 158.097L249.166 157.684L248.35 157.581C248.228 157.571 248.108 157.549 247.99 157.515C247.887 157.475 247.794 157.412 247.718 157.331C247.395 156.889 247.071 156.454 246.748 156.004C241.485 148.811 236.458 141.957 231.916 135.714C229.63 132.604 227.469 129.641 225.44 126.87C225.364 126.76 225.32 126.632 225.311 126.5C225.302 126.367 225.329 126.234 225.389 126.115C225.449 125.996 225.541 125.896 225.653 125.825C225.766 125.755 225.895 125.716 226.028 125.713C226.197 125.713 226.432 125.713 226.631 125.75L229.056 125.926L233.628 126.251L247.446 127.209L249.607 127.356C250.134 127.339 250.657 127.452 251.129 127.688C251.496 127.897 251.815 128.184 252.062 128.528Z" fill="#263238"/>
<path d="M225.33 127.003C225.489 127.044 225.651 127.068 225.815 127.076L227.226 127.224L232.474 127.688L250.32 129.162L250.181 129.081C251.298 130.747 252.452 132.471 253.606 134.24C258.317 141.5 262.426 148.177 265.535 152.923C267.078 155.304 268.364 157.205 269.261 158.517L270.305 159.991C270.418 160.171 270.548 160.339 270.694 160.493C270.598 160.304 270.49 160.122 270.371 159.947L269.386 158.407L265.763 152.754C262.72 147.971 258.64 141.279 253.929 134.012C252.775 132.221 251.614 130.496 250.489 128.852L250.438 128.779H250.386L232.533 127.452L227.278 127.098L225.859 127.017C225.683 126.999 225.507 126.994 225.33 127.003Z" fill="#263238"/>
<path d="M239.155 131.697C239.169 131.636 239.195 131.578 239.232 131.527C239.268 131.477 239.315 131.434 239.368 131.401C239.422 131.369 239.481 131.348 239.543 131.339C239.605 131.33 239.668 131.334 239.729 131.351C239.965 131.405 240.182 131.525 240.353 131.697C240.463 131.797 240.533 131.932 240.553 132.079C240.574 132.226 240.542 132.375 240.464 132.501C240.236 132.788 239.729 132.677 239.479 132.442C239.366 132.356 239.277 132.242 239.22 132.112C239.164 131.981 239.141 131.839 239.155 131.697Z" fill="white"/>
<path d="M250.004 148.929C250.004 148.929 250.915 146.718 248.593 146.452C245.785 146.306 242.971 146.306 240.162 146.452C240.162 146.452 236.818 146.806 237.524 149.209C237.524 149.209 235.554 150.978 236.612 152.894C237.671 154.81 238.082 154.235 238.082 154.235C238.082 154.235 237.803 156.572 239.552 156.918C239.552 156.918 241.463 159.181 243.227 159.041C244.991 158.901 252.452 155.297 252.944 154.619C253.436 153.94 254.142 153.513 253.723 152.724C253.723 152.724 254.635 150.653 252.665 150.336C252.679 150.3 252.54 148.582 250.004 148.929Z" fill="#FFBF9D"/>
<path d="M239.405 149.717C239.922 149.825 240.451 149.865 240.978 149.835C241.948 149.835 243.286 149.835 244.763 149.835C246.037 149.872 247.31 149.798 248.571 149.614C249.57 149.378 249.967 148.789 249.923 148.774C249.491 149.048 249.013 149.241 248.512 149.341C247.593 149.496 246.233 149.4 244.756 149.452C243.279 149.504 241.941 149.518 240.971 149.563C240.445 149.551 239.919 149.603 239.405 149.717Z" fill="#FF9A6C"/>
<path d="M241.066 153.255C241.222 153.346 241.395 153.404 241.574 153.424C242.057 153.523 242.551 153.555 243.044 153.52C243.761 153.465 244.471 153.335 245.16 153.13C245.939 152.916 246.77 152.614 247.645 152.348C248.457 152.079 249.298 151.903 250.151 151.825C250.888 151.894 251.629 151.745 252.283 151.398C252.538 151.225 252.719 150.961 252.79 150.661C252.837 150.436 252.806 150.202 252.701 149.997C252.518 149.666 252.268 149.644 252.275 149.658C252.283 149.673 252.452 149.761 252.562 150.064C252.632 150.268 252.627 150.492 252.548 150.693C252.468 150.895 252.319 151.061 252.128 151.162C251.5 151.439 250.81 151.543 250.129 151.464C249.246 151.519 248.374 151.688 247.534 151.965L245.065 152.783C244.397 152.991 243.714 153.144 243.022 153.24C242.371 153.285 241.718 153.29 241.066 153.255Z" fill="#FF9A6C"/>
<path d="M243.566 156.24C244.101 156.209 244.63 156.108 245.139 155.938C246.094 155.695 247.402 155.319 248.814 154.854C250.225 154.39 251.518 153.911 252.43 153.535C252.948 153.372 253.442 153.142 253.9 152.85C253.856 152.746 251.563 153.587 248.755 154.478C245.947 155.37 243.536 156.137 243.566 156.24Z" fill="#FF9A6C"/>
<path d="M242.97 159.011C243.409 159.05 243.851 159 244.271 158.864C245.296 158.614 246.293 158.261 247.248 157.81C248.365 157.301 249.342 156.778 250.048 156.402C250.451 156.231 250.827 156.003 251.165 155.724C249.757 156.18 248.392 156.76 247.086 157.456C244.888 158.517 242.955 158.901 242.97 159.011Z" fill="#FF9A6C"/>
<path d="M317.221 137.94C317.221 137.94 312.472 157.014 306.541 164.06C300.793 170.884 291.789 167.745 288.673 158.901C285.557 150.056 280 129.928 280 129.928L286.821 124.696L298.581 147.609L303.895 131.992L317.221 137.94Z" fill="#FFBF9D"/>
<path d="M280.316 130.474L275.31 123.199C274.582 123.042 273.868 122.82 273.179 122.536C272.613 122.204 272.054 119.315 272.069 118.755C272.084 118.195 271.099 116.876 271.496 116.5C271.893 116.124 273.23 116.102 273.157 115.564C273.157 115.446 272.165 114.237 272.944 113.353C273.373 113.068 273.852 112.866 274.355 112.756L274.274 109.977C274.274 109.977 275.744 106.705 277.295 107.892C277.295 107.892 283.05 112.314 283.631 113.051C284.211 113.788 286.431 122.993 286.821 124.725" fill="#FFBF9D"/>
<path d="M286.821 124.71C286.813 124.546 286.788 124.383 286.747 124.224C286.666 123.87 286.571 123.413 286.446 122.838C286.181 121.63 285.777 119.89 285.233 117.746C284.954 116.67 284.652 115.535 284.263 114.245C284.167 113.935 284.064 113.618 283.932 113.294C283.78 112.964 283.548 112.677 283.256 112.461C282.727 111.997 282.175 111.54 281.61 111.076C280.47 110.154 279.258 109.196 278.001 108.216C277.683 107.933 277.327 107.697 276.942 107.516C276.718 107.462 276.483 107.462 276.259 107.515C276.034 107.569 275.825 107.675 275.649 107.825C274.992 108.398 274.468 109.107 274.112 109.904V109.948C274.112 110.221 274.112 110.508 274.112 110.796C274.112 111.444 274.112 112.093 274.171 112.726L274.304 112.55C273.957 112.634 273.617 112.747 273.289 112.889C273.106 112.965 272.939 113.075 272.797 113.213C272.67 113.361 272.575 113.535 272.518 113.721C272.424 114.09 272.455 114.479 272.606 114.827C272.667 114.993 272.743 115.154 272.834 115.306L272.959 115.52V115.571C272.962 115.588 272.962 115.606 272.959 115.623C272.959 115.682 272.812 115.77 272.672 115.822C272.532 115.874 272.378 115.925 272.224 115.977C272.064 116.019 271.907 116.071 271.753 116.131C271.56 116.187 271.392 116.307 271.275 116.471C271.199 116.66 271.199 116.871 271.275 117.06C271.32 117.219 271.376 117.374 271.444 117.524C271.569 117.819 271.709 118.099 271.812 118.372C271.864 118.496 271.894 118.628 271.9 118.763C271.903 118.921 271.918 119.078 271.944 119.234C271.988 119.537 272.04 119.831 272.106 120.126C272.22 120.694 272.375 121.253 272.569 121.799C272.662 122.084 272.812 122.348 273.01 122.573C273.25 122.729 273.513 122.846 273.789 122.919C274.296 123.074 274.796 123.199 275.259 123.31L275.178 123.258L278.853 128.535L279.882 129.965C279.996 130.138 280.124 130.3 280.264 130.452C280.17 130.268 280.065 130.091 279.948 129.921L278.978 128.447C278.104 127.143 276.876 125.322 275.369 123.096V123.052H275.377C274.906 122.934 274.414 122.801 273.907 122.647C273.671 122.579 273.446 122.48 273.238 122.352C273.08 122.158 272.96 121.935 272.885 121.696C272.697 121.162 272.55 120.615 272.444 120.06C272.385 119.772 272.334 119.485 272.29 119.19C272.29 119.05 272.29 118.895 272.29 118.763C272.283 118.591 272.248 118.422 272.187 118.261C272.077 117.959 271.937 117.679 271.819 117.392C271.755 117.257 271.703 117.116 271.665 116.972C271.625 116.862 271.625 116.742 271.665 116.633C271.749 116.544 271.856 116.481 271.974 116.448C272.12 116.39 272.27 116.341 272.422 116.301C272.576 116.249 272.738 116.205 272.9 116.139C273.102 116.076 273.271 115.936 273.37 115.748C273.397 115.688 273.41 115.622 273.407 115.557C273.405 115.51 273.392 115.465 273.37 115.424V115.365L273.245 115.151C273.166 115.011 273.097 114.866 273.039 114.716C272.921 114.44 272.895 114.132 272.966 113.839C273.005 113.698 273.075 113.567 273.172 113.456C273.282 113.359 273.409 113.281 273.547 113.228C273.856 113.094 274.175 112.986 274.502 112.903L274.634 112.867V112.726C274.634 112.093 274.598 111.451 274.576 110.803C274.576 110.515 274.576 110.221 274.576 109.955V110.036C274.902 109.293 275.386 108.629 275.994 108.091C276.124 107.97 276.283 107.883 276.454 107.838C276.626 107.793 276.806 107.791 276.979 107.833C277.321 108.001 277.64 108.214 277.927 108.467C279.191 109.447 280.404 110.398 281.543 111.311C282.117 111.768 282.668 112.218 283.19 112.668C283.454 112.855 283.664 113.11 283.8 113.405C283.925 113.707 284.028 114.024 284.131 114.326C284.52 115.564 284.866 116.736 285.13 117.797C285.681 119.912 286.137 121.63 286.453 122.86C286.608 123.428 286.725 123.885 286.813 124.231C286.799 124.391 286.802 124.551 286.821 124.71Z" fill="#FF9A6C"/>
<path d="M274.354 112.756C274.354 112.815 274.935 112.756 275.824 112.859C276.357 112.941 276.882 113.062 277.397 113.22C278.073 113.316 278.758 113.316 279.433 113.22C280.013 113.139 280.603 113.19 281.16 113.372C281.716 113.553 282.224 113.859 282.645 114.267C282.971 114.63 283.232 115.046 283.417 115.498C283.42 115.235 283.37 114.975 283.269 114.733C283.168 114.49 283.018 114.272 282.829 114.09C282.447 113.668 281.974 113.338 281.447 113.124C280.8 112.873 280.101 112.784 279.411 112.866C278.765 112.947 278.11 112.947 277.464 112.866C276.933 112.718 276.389 112.622 275.839 112.579C275.338 112.539 274.833 112.599 274.354 112.756Z" fill="#FF9A6C"/>
<path d="M276.39 112.601C276.471 112.645 276.706 112.306 276.677 111.827C276.648 111.348 276.376 111.046 276.302 111.09C276.229 111.135 276.302 111.459 276.302 111.827C276.302 112.196 276.295 112.564 276.39 112.601Z" fill="#FF9A6C"/>
<path d="M272.98 115.667C274.435 115.806 275.902 115.692 277.317 115.328C277.831 115.159 278.372 115.089 278.912 115.122C279.33 115.214 279.699 115.458 279.948 115.807C280.165 116.154 280.356 116.516 280.522 116.891C280.547 116.444 280.42 116.002 280.161 115.638C279.897 115.209 279.474 114.902 278.985 114.783C278.402 114.714 277.81 114.772 277.251 114.952C274.921 115.483 272.98 115.564 272.98 115.667Z" fill="#FF9A6C"/>
<path d="M272.216 118.291C272.566 118.373 272.931 118.373 273.282 118.291C273.936 118.217 274.818 117.989 275.773 117.797C276.215 117.699 276.666 117.654 277.118 117.665C277.47 117.671 277.809 117.795 278.081 118.018C278.325 118.244 278.492 118.54 278.559 118.866C278.559 118.866 278.625 118.77 278.618 118.571C278.588 118.291 278.46 118.03 278.258 117.834C277.96 117.54 277.565 117.364 277.148 117.34C276.655 117.306 276.16 117.343 275.678 117.451C274.693 117.642 273.84 117.908 273.208 118.04C272.87 118.09 272.537 118.174 272.216 118.291Z" fill="#FF9A6C"/>
<path d="M273.906 120.369C273.847 120.414 274.34 120.93 275.236 120.93L275.06 120.775C275.06 120.93 275.06 121.084 275.112 121.239C275.135 121.871 275.275 122.493 275.523 123.074C275.621 122.452 275.601 121.817 275.464 121.202L275.398 120.738V120.576H275.244C274.792 120.557 274.343 120.488 273.906 120.369Z" fill="#FF9A6C"/>
<path d="M309.709 118.623C309.709 118.623 319.433 120.981 319.411 133.916C319.389 146.85 316.471 153.233 316.471 153.233L298.544 143.423L302.572 133.378L309.709 118.623Z" fill="#176CFF"/>
<path d="M316.471 153.233C316.341 153.195 316.218 153.141 316.103 153.071L315.059 152.54L311.237 150.521L298.456 143.615L298.309 143.541L298.367 143.386L299.33 140.866C300.477 137.881 301.535 135.036 302.564 132.449C303.064 131.159 303.534 129.928 303.983 128.764C304.374 127.682 304.848 126.632 305.401 125.624C306.14 124.116 307.254 122.824 308.635 121.873C309.023 121.629 309.451 121.457 309.9 121.364C310.013 121.34 310.129 121.325 310.245 121.32H310.37C309.782 121.443 309.221 121.673 308.716 121.998C307.39 122.971 306.331 124.264 305.637 125.757C305.108 126.762 304.654 127.804 304.277 128.874C303.843 130.032 303.38 131.262 302.888 132.56L299.683 140.991L298.72 143.512L298.632 143.276L311.392 150.3L315.155 152.422L316.162 153.012C316.272 153.074 316.376 153.148 316.471 153.233Z" fill="#263238"/>
</g>
<defs>
<clipPath id="clip0_5060_22213">
<rect width="334" height="340" fill="white"/>
</clipPath>
</defs>
</svg>
