<svg width="125" height="138" viewBox="0 0 125 138" fill="none" xmlns="http://www.w3.org/2000/svg">
<path d="M0 0H125V138L62.498 117.055L0 136.604V0Z" fill="#F4F9FF"/>
<path d="M89.1254 39H36.8746C33.086 39 30 42.086 30 45.8746V76.1254C30 79.9152 33.086 83 36.8746 83H89.1241C92.914 83 95.9987 79.914 95.9987 76.1254V45.8746C96 42.086 92.914 39 89.1254 39ZM93.2504 76.1254C93.2504 78.3993 91.3993 80.2504 89.1254 80.2504H36.8746C34.6007 80.2504 32.7496 78.3993 32.7496 76.1254V45.8746C32.7496 43.6007 34.6007 41.7496 36.8746 41.7496H89.1241C91.398 41.7496 93.2491 43.6007 93.2491 45.8746L93.2504 76.1254Z" fill="#1FC9AA"/>
<path d="M94.6246 47.25H31.3754C30.6162 47.25 30 47.8662 30 48.6254V56.8755C30 57.6348 30.6162 58.251 31.3754 58.251H94.6259C95.3851 58.251 96.0013 57.6348 96.0013 56.8755V48.6254C96 47.8662 95.3838 47.25 94.6246 47.25ZM93.2504 55.5001H32.7496V49.9996H93.2491L93.2504 55.5001Z" fill="#1FC9AA"/>
<path d="M56.1254 66.4998H39.6254C38.8662 66.4998 38.25 67.1159 38.25 67.8752C38.25 68.6345 38.8662 69.2506 39.6254 69.2506H56.1254C56.8847 69.2506 57.5009 68.6345 57.5009 67.8752C57.5009 67.1159 56.8834 66.4998 56.1254 66.4998Z" fill="#1FC9AA"/>
<path d="M56.1254 72.0002H39.6254C38.8662 72.0002 38.25 72.6164 38.25 73.3757C38.25 74.1349 38.8662 74.7511 39.6254 74.7511H56.1254C56.8847 74.7511 57.5009 74.1349 57.5009 73.3757C57.4996 72.6164 56.8834 72.0002 56.1254 72.0002Z" fill="#1FC9AA"/>
<circle cx="82" cy="69" r="4" fill="#2F7BFF"/>
<path d="M83.6246 63.7502H80.875C78.6011 63.7502 76.75 65.6014 76.75 67.8753V70.6249C76.75 72.8988 78.6011 74.7499 80.875 74.7499H83.6246C85.8985 74.7499 87.7496 72.8988 87.7496 70.6249V67.8753C87.7496 65.6014 85.8985 63.7502 83.6246 63.7502ZM85 70.6249C85 71.3842 84.3838 72.0003 83.6246 72.0003H80.875C80.1157 72.0003 79.4996 71.3842 79.4996 70.6249V67.8753C79.4996 67.116 80.1157 66.4998 80.875 66.4998H83.6246C84.3838 66.4998 85 67.116 85 67.8753V70.6249Z" fill="#1FC9AA"/>
</svg>
