<svg width="125" height="138" viewBox="0 0 125 138" fill="none" xmlns="http://www.w3.org/2000/svg">
<path d="M0 0H125V138L62.498 117.055L0 136.604V0Z" fill="#F4F9FF"/>
<path d="M64.5219 72.695H80.7831C80.9187 72.7033 81.0545 72.6826 81.1815 72.6342C81.3085 72.5859 81.4239 72.511 81.5199 72.4146C81.616 72.3181 81.6906 72.2023 81.7387 72.0748C81.7869 71.9472 81.8075 71.8109 81.7993 71.6748V62.4923C81.8075 62.3561 81.7869 62.2198 81.7387 62.0922C81.6906 61.9647 81.616 61.8489 81.5199 61.7525C81.4239 61.656 81.3085 61.5811 81.1815 61.5328C81.0545 61.4844 80.9187 61.4637 80.7831 61.472H64.5219C64.3863 61.4637 64.2505 61.4844 64.1235 61.5328C63.9964 61.5811 63.8811 61.656 63.785 61.7525C63.689 61.8489 63.6144 61.9647 63.5663 62.0922C63.5181 62.2198 63.4974 62.3561 63.5057 62.4923V71.6757C63.4976 71.8117 63.5183 71.948 63.5665 72.0754C63.6147 72.2028 63.6893 72.3185 63.7854 72.4149C63.8814 72.5112 63.9967 72.586 64.1237 72.6343C64.2507 72.6826 64.3864 72.7033 64.5219 72.695ZM65.5381 63.5116H79.7669V70.6545H65.5381V63.5116Z" fill="#1FC9AA"/>
<path d="M37.0826 59.4285H45.2132C45.4827 59.4285 45.7412 59.321 45.9318 59.1297C46.1224 58.9383 46.2294 58.6788 46.2294 58.4082C46.2294 58.1376 46.1224 57.8781 45.9318 57.6868C45.7412 57.4954 45.4827 57.3879 45.2132 57.3879H37.0826C36.8131 57.3879 36.5546 57.4954 36.364 57.6868C36.1735 57.8781 36.0664 58.1376 36.0664 58.4082C36.0664 58.6788 36.1735 58.9383 36.364 59.1297C36.5546 59.321 36.8131 59.4285 37.0826 59.4285Z" fill="#1FC9AA"/>
<path d="M49.2779 59.4285H57.4085C57.6781 59.4285 57.9365 59.321 58.1271 59.1297C58.3177 58.9383 58.4248 58.6788 58.4248 58.4082C58.4248 58.1376 58.3177 57.8781 58.1271 57.6868C57.9365 57.4954 57.6781 57.3879 57.4085 57.3879H49.2779C49.0084 57.3879 48.7499 57.4954 48.5594 57.6868C48.3688 57.8781 48.2617 58.1376 48.2617 58.4082C48.2617 58.6788 48.3688 58.9383 48.5594 59.1297C48.7499 59.321 49.0084 59.4285 49.2779 59.4285Z" fill="#1FC9AA"/>
<path d="M37.0826 63.5105H50.2952C50.5647 63.5105 50.8232 63.403 51.0138 63.2117C51.2043 63.0203 51.3114 62.7608 51.3114 62.4902C51.3114 62.2196 51.2043 61.9601 51.0138 61.7688C50.8232 61.5775 50.5647 61.47 50.2952 61.47H37.0826C36.8131 61.47 36.5546 61.5775 36.364 61.7688C36.1735 61.9601 36.0664 62.2196 36.0664 62.4902C36.0664 62.7608 36.1735 63.0203 36.364 63.2117C36.5546 63.403 36.8131 63.5105 37.0826 63.5105Z" fill="#1FC9AA"/>
<path d="M57.4086 61.4692H54.36C54.0904 61.4692 53.832 61.5767 53.6414 61.7681C53.4508 61.9594 53.3438 62.2189 53.3438 62.4895C53.3438 62.7601 53.4508 63.0196 53.6414 63.211C53.832 63.4023 54.0904 63.5098 54.36 63.5098H57.4086C57.6781 63.5098 57.9366 63.4023 58.1272 63.211C58.3177 63.0196 58.4248 62.7601 58.4248 62.4895C58.4248 62.2189 58.3177 61.9594 58.1272 61.7681C57.9366 61.5767 57.6781 61.4692 57.4086 61.4692Z" fill="#1FC9AA"/>
<path d="M92.0666 48.8166C91.7448 48.3793 91.3334 48.0163 90.8601 47.7522C90.3868 47.4881 89.8625 47.3291 89.3227 47.2857L86.8836 46.9889V42.082C86.8805 41.0004 86.4511 39.9639 85.6893 39.1991C84.9275 38.4342 83.8952 38.0031 82.8179 38H36.0658C34.9884 38.0031 33.9561 38.4342 33.1943 39.1991C32.4325 39.9639 32.0031 41.0004 32 42.082V74.7355C32.0029 75.6149 32.2875 76.47 32.8117 77.1745C33.336 77.879 34.0721 78.3955 34.9113 78.6476C34.8882 79.6535 35.2462 80.6308 35.9131 81.3819C36.58 82.133 37.5059 82.6019 38.5039 82.694L85.4598 88H85.8665C86.847 88.0103 87.7982 87.6648 88.5452 87.0271C89.2922 86.3894 89.7848 85.5023 89.9323 84.529L92.9809 51.7797C93.0346 51.2494 92.9813 50.7138 92.8242 50.2047C92.6672 49.6956 92.4095 49.2235 92.0666 48.8166ZM34.0324 45.1429H84.8503V51.2627H34.0324V45.1429ZM36.0648 40.0406H82.8179C83.3564 40.0422 83.8724 40.2578 84.2532 40.6401C84.6339 41.0224 84.8486 41.5404 84.8503 42.0811V43.1023H34.0324V42.082C34.0339 41.541 34.2486 41.0226 34.6296 40.6401C35.0106 40.2575 35.5269 40.042 36.0658 40.0406H36.0648ZM34.0324 74.7346V53.306H84.8503V74.7346C84.8486 75.2752 84.6339 75.7933 84.2532 76.1756C83.8724 76.5579 83.3564 76.7734 82.8179 76.7751H36.0658C35.5271 76.7737 35.0109 76.5583 34.6299 76.1759C34.2489 75.7936 34.0341 75.2754 34.0324 74.7346ZM90.9485 51.3677L87.8989 84.1226C87.8433 84.6632 87.5769 85.1597 87.158 85.5039C86.739 85.848 86.2015 86.0118 85.6627 85.9594L38.8096 80.6535C38.3412 80.6041 37.9039 80.3947 37.5708 80.0604C37.2378 79.726 37.0292 79.2869 36.9801 78.8166H82.8179C83.8952 78.8134 84.9275 78.3824 85.6893 77.6175C86.4511 76.8527 86.8805 75.8162 86.8836 74.7346V48.918L89.2217 49.1217C89.4811 49.1341 89.7344 49.2047 89.963 49.3283C90.1916 49.4519 90.3897 49.6254 90.5427 49.836C90.7074 50.0519 90.8281 50.2984 90.8977 50.5612C90.9673 50.8241 90.9846 51.0982 90.9485 51.3677Z" fill="#1FC9AA"/>
<rect x="65" y="63" width="15" height="8" fill="#2F7BFF"/>
</svg>
