<svg width="125" height="138" viewBox="0 0 125 138" fill="none" xmlns="http://www.w3.org/2000/svg">
<path d="M0 0H125V138L62.498 117.055L0 136.604V0Z" fill="#F4F9FF"/>
<path d="M77.7379 54.0516C77.7379 56.9759 76.8735 59.8345 75.254 62.266C73.6346 64.6974 71.3327 66.5925 68.6396 67.7115C65.9466 68.8306 62.9832 69.1233 60.1242 68.5527C57.2653 67.9822 54.6392 66.5739 52.5781 64.5061C50.517 62.4383 49.1134 59.8037 48.5448 56.9356C47.9762 54.0675 48.2682 51.0946 49.3838 48.393C50.4995 45.6913 52.3886 43.3822 54.8124 41.7577C57.2362 40.1332 60.0857 39.2662 63.0007 39.2664C66.9093 39.2666 70.6578 40.8244 73.4215 43.5972C76.1853 46.3699 77.7379 50.1305 77.7379 54.0516V54.0516Z" stroke="#1FC9AA" stroke-width="3" stroke-linecap="round" stroke-linejoin="round"/>
<circle cx="63" cy="54" r="8" fill="#2F7BFF"/>
<path d="M72.5113 54.049C72.5113 55.9357 71.9536 57.7799 70.9089 59.3487C69.8642 60.9174 68.3792 62.1402 66.6418 62.8624C64.9044 63.5846 62.9926 63.7737 61.1481 63.406C59.3035 63.0382 57.6091 62.13 56.279 60.7963C54.9489 59.4625 54.0428 57.763 53.6754 55.9127C53.308 54.0625 53.4957 52.1444 54.2149 50.4011C54.934 48.6579 56.1522 47.1676 57.7155 46.1189C59.2787 45.0701 61.1169 44.5099 62.9975 44.509C65.5196 44.509 67.9384 45.5141 69.7218 47.3032C71.5052 49.0923 72.507 51.5188 72.507 54.049H72.5113Z" stroke="#1FC9AA" stroke-width="3" stroke-linecap="round" stroke-linejoin="round"/>
<path d="M55.02 66.4916L52.4727 85.7336L62.9996 79.3975L73.5266 85.7336L70.9792 66.4705" stroke="#1FC9AA" stroke-width="3" stroke-linecap="round" stroke-linejoin="round"/>
</svg>
