<svg width="125" height="138" viewBox="0 0 125 138" fill="none" xmlns="http://www.w3.org/2000/svg">
<path d="M0 0H125V138L62.498 117.055L0 136.604V0Z" fill="#F4F9FF"/>
<path d="M77.633 67.6405C78.8369 67.6405 79.8129 66.6645 79.8129 65.4606C79.8129 64.2567 78.8369 63.2808 77.633 63.2808C76.4291 63.2808 75.4531 64.2567 75.4531 65.4606C75.4531 66.6645 76.4291 67.6405 77.633 67.6405Z" fill="#1FC9AA"/>
<circle cx="75" cy="83" r="7" fill="#2F7BFF"/>
<circle cx="85" cy="83" r="7" fill="#2F7BFF"/>
<path d="M90.0187 76.7715C89.4045 76.2769 88.7206 75.8758 87.9891 75.5813V70.9935H90.9903C91.2556 70.9935 91.5099 70.8881 91.6975 70.7005C91.885 70.513 91.9904 70.2586 91.9904 69.9934V59.9953C91.9901 59.7302 91.8847 59.4761 91.6971 59.2888C91.5096 59.1014 91.2554 58.9962 90.9903 58.9962H87.9891V46.998C87.9891 46.7327 87.8837 46.4783 87.6962 46.2908C87.5086 46.1032 87.2542 45.9979 86.989 45.9979H82.9905V42.9985C82.9905 42.7333 82.8851 42.4789 82.6976 42.2914C82.51 42.1038 82.2556 41.9985 81.9904 41.9985H73.9925V39.0001C73.9925 38.7348 73.8871 38.4805 73.6996 38.2929C73.512 38.1054 73.2576 38 72.9924 38H38.0841C36.7821 38.003 35.5338 38.5195 34.6104 39.4374L34.4383 39.6095C33.9017 40.1442 33.4969 40.7965 33.256 41.5148C33.0151 42.233 32.9447 42.9975 33.0504 43.7477C33.0224 43.8287 33.0055 43.9131 33 43.9986V76.1631C33 78.239 33.8246 80.2298 35.2924 81.6978C36.7601 83.1657 38.7509 83.9906 40.8268 83.9908H67.065C67.2408 85.4006 67.7896 86.738 68.6546 87.865C69.5197 88.992 70.6698 89.8678 71.9862 90.4021C73.3027 90.9363 74.7378 91.1097 76.1436 90.9043C77.5494 90.6989 78.875 90.1222 79.9836 89.2337C80.798 89.9207 81.7416 90.438 82.7587 90.7553C83.7759 91.0726 84.8462 91.1835 85.9069 91.0815C86.9675 90.9795 87.997 90.6665 88.9351 90.1611C89.8731 89.6557 90.7007 88.9679 91.3692 88.1383C92.0378 87.3086 92.5338 86.3537 92.8283 85.3297C93.1227 84.3056 93.2096 83.2331 93.0837 82.175C92.9579 81.117 92.622 80.0947 92.0957 79.1683C91.5693 78.2418 90.8632 77.4299 90.0187 76.7801V76.7715ZM89.9893 60.9907V68.9942H77.0603C75.9996 68.9942 74.9823 68.5729 74.2323 67.8228C73.4822 67.0728 73.0608 66.0555 73.0608 64.9948C73.0608 63.9341 73.4822 62.9168 74.2323 62.1668C74.9823 61.4168 75.9996 60.9954 77.0603 60.9954H89.9893V60.9907ZM35.852 41.024L36.0231 40.8529C36.5704 40.307 37.3112 39.9995 38.0841 39.9973H71.9923V41.9937H39.9988C39.7447 42.0094 39.5061 42.1214 39.3318 42.3069C39.1574 42.4923 39.0603 42.7373 39.0603 42.9919C39.0603 43.2465 39.1574 43.4915 39.3318 43.6769C39.5061 43.8624 39.7447 43.9744 39.9988 43.9901H80.9913V45.9865H37.914C37.3401 45.9841 36.7798 45.8123 36.3031 45.4928C35.8265 45.1732 35.4548 44.7201 35.2346 44.1902C35.0144 43.6603 34.9555 43.0771 35.0654 42.5139C35.1752 41.9507 35.4488 41.4324 35.852 41.024ZM67.0622 81.9916H40.8268C40.0612 81.9921 39.3031 81.8417 38.5957 81.5491C37.8882 81.2564 37.2454 80.8272 36.704 80.286C36.1625 79.7448 35.733 79.1022 35.44 78.395C35.147 77.6877 34.9963 76.9296 34.9964 76.1641V47.0246C35.8393 47.6515 36.8606 47.9923 37.9111 47.9971H85.9898V58.9962H77.0622C75.4712 58.9962 73.9454 59.6282 72.8205 60.7531C71.6955 61.8781 71.0635 63.4039 71.0635 64.9948C71.0635 66.5858 71.6955 68.1115 72.8205 69.2365C73.9454 70.3615 75.4712 70.9935 77.0622 70.9935H85.9898V75.0613C85.6582 75.0174 85.3242 74.9943 84.9897 74.9919C83.1706 74.9883 81.4057 75.6106 79.9912 76.7544C78.8831 75.8633 77.5571 75.2841 76.1503 75.0769C74.7435 74.8697 73.3069 75.0419 71.9889 75.5756C70.6709 76.1094 69.5194 76.9855 68.6532 78.1132C67.7871 79.241 67.2378 80.5796 67.0622 81.9906V81.9916ZM74.9916 88.9903C73.8052 88.9903 72.6454 88.6385 71.659 87.9794C70.6725 87.3202 69.9036 86.3834 69.4496 85.2873C68.9956 84.1912 68.8768 82.985 69.1082 81.8214C69.3397 80.6578 69.911 79.5889 70.7499 78.75C71.5889 77.9111 72.6577 77.3398 73.8214 77.1083C74.985 76.8768 76.1911 76.9956 77.2872 77.4497C78.3833 77.9037 79.3202 78.6725 79.9793 79.659C80.6385 80.6455 80.9903 81.8053 80.9903 82.9917C80.9903 83.7794 80.8351 84.5595 80.5337 85.2873C80.2322 86.015 79.7904 86.6763 79.2333 87.2334C78.6763 87.7904 78.015 88.2322 77.2872 88.5337C76.5594 88.8352 75.7794 88.9903 74.9916 88.9903ZM84.9897 88.9903C83.6892 88.9907 82.4243 88.565 81.3886 87.7782C82.4305 86.3998 82.9942 84.7191 82.9942 82.9912C82.9942 81.2633 82.4305 79.5826 81.3886 78.2042C82.1481 77.6319 83.0328 77.2485 83.9696 77.0856C84.9065 76.9226 85.8687 76.9848 86.7767 77.2669C87.6848 77.5491 88.5128 78.0432 89.1923 78.7084C89.8718 79.3736 90.3834 80.1909 90.6848 81.0927C90.9863 81.9946 91.0689 82.9552 90.9259 83.8953C90.7829 84.8354 90.4184 85.7281 89.8624 86.4995C89.3065 87.271 88.575 87.8992 87.7285 88.3323C86.8819 88.7654 85.9445 88.9909 84.9935 88.9903H84.9897Z" fill="#1FC9AA"/>
</svg>
