<svg width="336" height="279" viewBox="0 0 336 279" fill="none" xmlns="http://www.w3.org/2000/svg">
<path d="M0.853516 277.952L335.729 277.908" stroke="black" stroke-width="1.133" stroke-miterlimit="10"/>
<path d="M204.206 277.611H97.7272C87.0441 277.611 78.3848 268.952 78.3848 258.269V19.3324C78.3848 8.65931 87.0441 0 97.7272 0H204.206C214.89 0 223.539 8.65931 223.539 19.3324V258.269C223.539 268.952 214.88 277.611 204.206 277.611Z" fill="url(#paint0_linear_2860_17792)"/>
<path d="M208.546 270.493H93.9914C87.5976 270.493 82.4121 265.307 82.4121 258.913V18.6982C82.4121 12.3044 87.5976 7.1189 93.9914 7.1189H208.546C214.94 7.1189 220.125 12.3044 220.125 18.6982V258.913C220.125 265.307 214.94 270.493 208.546 270.493Z" fill="white"/>
<path d="M152.764 12.9789C152.764 11.4686 151.536 10.2502 150.035 10.2502C148.525 10.2502 147.307 11.4787 147.307 12.9789C147.307 14.4893 148.535 15.7076 150.035 15.7076C151.546 15.7177 152.764 14.4893 152.764 12.9789Z" fill="#231854"/>
<path d="M180.645 149.081H121.289C117.372 149.081 114.2 145.909 114.2 141.993V140.996C114.2 137.079 117.372 133.907 121.289 133.907H180.645C184.562 133.907 187.734 137.079 187.734 140.996V141.993C187.734 145.909 184.552 149.081 180.645 149.081Z" fill="#176CFF"/>
<path d="M147.669 213.563H121.782C117.593 213.563 114.2 210.17 114.2 205.981C114.2 201.792 117.593 198.399 121.782 198.399H147.669C151.858 198.399 155.251 201.792 155.251 205.981C155.251 210.17 151.858 213.563 147.669 213.563Z" fill="#176CFF"/>
<path d="M186.345 161.063H115.58C114.815 161.063 114.19 160.439 114.19 159.673V159.13C114.19 158.364 114.815 157.74 115.58 157.74H186.335C187.1 157.74 187.724 158.364 187.724 159.13V159.673C187.734 160.439 187.11 161.063 186.345 161.063Z" fill="#D2D2D2"/>
<path d="M186.345 167.749H115.58C114.815 167.749 114.19 167.125 114.19 166.36V165.816C114.19 165.051 114.815 164.426 115.58 164.426H186.335C187.1 164.426 187.724 165.051 187.724 165.816V166.36C187.734 167.125 187.11 167.749 186.345 167.749Z" fill="#D2D2D2"/>
<path d="M186.345 174.435H115.58C114.815 174.435 114.19 173.811 114.19 173.045V172.502C114.19 171.736 114.815 171.112 115.58 171.112H186.335C187.1 171.112 187.724 171.736 187.724 172.502V173.045C187.734 173.811 187.11 174.435 186.345 174.435Z" fill="#D2D2D2"/>
<path d="M186.345 181.121H115.58C114.815 181.121 114.19 180.496 114.19 179.731V179.187C114.19 178.422 114.815 177.798 115.58 177.798H186.335C187.1 177.798 187.724 178.422 187.724 179.187V179.731C187.734 180.496 187.11 181.121 186.345 181.121Z" fill="#D2D2D2"/>
<path d="M158.836 187.806H115.288C114.684 187.806 114.19 187.313 114.19 186.709V185.581C114.19 184.977 114.684 184.484 115.288 184.484H158.836C159.44 184.484 159.934 184.977 159.934 185.581V186.709C159.924 187.313 159.44 187.806 158.836 187.806Z" fill="#D2D2D2"/>
<path d="M186.345 227.317H115.58C114.815 227.317 114.19 226.693 114.19 225.927V225.384C114.19 224.618 114.815 223.994 115.58 223.994H186.335C187.1 223.994 187.724 224.618 187.724 225.384V225.927C187.734 226.693 187.11 227.317 186.345 227.317Z" fill="#D2D2D2"/>
<path d="M186.345 234.003H115.58C114.815 234.003 114.19 233.378 114.19 232.613V232.069C114.19 231.304 114.815 230.68 115.58 230.68H186.335C187.1 230.68 187.724 231.304 187.724 232.069V232.613C187.734 233.378 187.11 234.003 186.345 234.003Z" fill="#D2D2D2"/>
<path d="M186.345 240.688H115.58C114.815 240.688 114.19 240.064 114.19 239.299V238.755C114.19 237.99 114.815 237.366 115.58 237.366H186.335C187.1 237.366 187.724 237.99 187.724 238.755V239.299C187.734 240.064 187.11 240.688 186.345 240.688Z" fill="#D2D2D2"/>
<path d="M186.345 247.374H115.58C114.815 247.374 114.19 246.75 114.19 245.985V245.441C114.19 244.676 114.815 244.052 115.58 244.052H186.335C187.1 244.052 187.724 244.676 187.724 245.441V245.985C187.734 246.75 187.11 247.374 186.345 247.374Z" fill="#D2D2D2"/>
<path d="M158.836 254.06H115.288C114.684 254.06 114.19 253.567 114.19 252.963V251.835C114.19 251.231 114.684 250.737 115.288 250.737H158.836C159.44 250.737 159.934 251.231 159.934 251.835V252.963C159.924 253.567 159.44 254.06 158.836 254.06Z" fill="#D2D2D2"/>
<path d="M179.075 106.434C179.075 108.166 177.665 109.584 175.942 109.584C174.219 109.584 172.81 108.166 172.81 106.434C172.81 94.2574 162.989 84.381 150.882 84.381C138.774 84.381 128.954 94.2574 128.954 106.434C128.954 108.166 127.544 109.584 125.821 109.584C124.098 109.584 122.688 108.166 122.688 106.434C122.688 90.7762 135.313 78.0802 150.882 78.0802C166.45 78.0802 179.075 90.7762 179.075 106.434ZM150.882 74.9299C141.359 74.9299 133.652 67.18 133.652 57.6029C133.652 48.0258 141.359 40.2759 150.882 40.2759C160.405 40.2759 168.111 48.0258 168.111 57.6029C168.111 67.18 160.405 74.9299 150.882 74.9299ZM150.882 68.6292C156.943 68.6292 161.846 63.6988 161.846 57.6029C161.846 51.5069 156.943 46.5766 150.882 46.5766C144.82 46.5766 139.918 51.5069 139.918 57.6029C139.918 63.6988 144.82 68.6292 150.882 68.6292Z" fill="#1FC9AA"/>
<path d="M245.82 45.5533L245.821 45.5541L278.403 74.1855C278.404 74.1859 278.404 74.1862 278.405 74.1866C278.638 74.3933 278.778 74.7016 278.778 75.0149C278.778 75.3185 278.642 75.626 278.401 75.8391C278.401 75.8396 278.4 75.84 278.4 75.8405L245.817 104.472L245.812 104.477L245.806 104.482C245.619 104.647 245.381 104.738 245.117 104.738C244.977 104.738 244.824 104.707 244.677 104.64L244.674 104.639C244.298 104.468 244.046 104.086 244.046 103.646V91.3744V88.3744H241.046H196.239C195.658 88.3744 195.164 87.8963 195.164 87.2826V62.7395C195.164 62.1258 195.658 61.6477 196.239 61.6477H241.049H244.049V58.6477V46.3761C244.049 45.9391 244.299 45.5598 244.67 45.387C245.081 45.2068 245.514 45.2842 245.82 45.5533Z" fill="#176CFF" stroke="white" stroke-width="6"/>
<defs>
<linearGradient id="paint0_linear_2860_17792" x1="174.676" y1="8.33257" x2="126.269" y2="274.679" gradientUnits="userSpaceOnUse">
<stop offset="0.1781" stop-color="#20215B"/>
<stop offset="0.6516" stop-color="#1B0C36"/>
</linearGradient>
</defs>
</svg>
