<svg width="333" height="278" viewBox="0 0 333 278" fill="none" xmlns="http://www.w3.org/2000/svg">
<circle cx="156.041" cy="152.041" r="125.041" fill="#F0F7FF"/>
<path d="M208.478 277H61.4245C56.5669 277 52.4236 273.066 52.1732 268.213L39.0119 13.0804C38.7615 8.22757 42.4978 4.29297 47.3554 4.29297H194.409C199.267 4.29297 203.41 8.22757 203.66 13.0804L216.822 268.21C217.072 273.066 213.336 277 208.478 277Z" fill="#7C7C7C"/>
<path opacity="0.8" d="M208.478 277H61.4245C56.5669 277 52.4236 273.066 52.1732 268.213L39.0119 13.0804C38.7615 8.22757 42.4978 4.29297 47.3554 4.29297H194.409C199.267 4.29297 203.41 8.22757 203.66 13.0804L216.822 268.21C217.072 273.066 213.336 277 208.478 277Z" fill="white"/>
<path d="M214.799 260.818H74.1591C69.5121 260.818 65.551 257.054 65.3119 252.412L52.7255 8.40652C52.4836 3.76403 56.0577 0 60.7048 0H201.347C205.994 0 209.955 3.76403 210.194 8.40652L222.781 252.414C223.02 257.054 219.446 260.818 214.799 260.818Z" fill="#F6F6F6"/>
<path d="M214.798 255.204H74.1588C72.5197 255.204 71.0087 253.765 70.9233 252.125L58.334 8.117C58.2885 7.22717 58.6499 6.65006 58.9572 6.32596C59.2645 6.00187 59.8194 5.61523 60.7016 5.61523H201.341C202.98 5.61523 204.491 7.05375 204.576 8.69696L217.163 252.702C217.208 253.592 216.847 254.169 216.537 254.496C216.235 254.817 215.683 255.204 214.798 255.204ZM60.7044 5.90237C59.9219 5.90237 59.4381 6.24068 59.1678 6.52213C58.8974 6.80642 58.5816 7.31246 58.6214 8.10279L71.2079 252.111C71.2847 253.606 72.662 254.917 74.156 254.917H214.795C215.578 254.917 216.062 254.578 216.329 254.297C216.6 254.013 216.915 253.507 216.876 252.716L204.292 8.71118C204.215 7.2158 202.838 5.90237 201.344 5.90237H60.7044Z" fill="white"/>
<path opacity="0.3" d="M165.617 94.5461C181.61 78.1496 180.567 51.2205 163.286 34.3982C146.006 17.5759 119.033 17.2306 103.04 33.6271C87.0469 50.0235 88.0904 76.9526 105.371 93.7749C122.651 110.597 149.624 110.943 165.617 94.5461Z" fill="white"/>
<path d="M168.778 64.0962C169.085 70.0407 167.864 75.6185 165.46 80.4884C160.204 91.2148 149.199 98.5097 136.106 98.5097C123.013 98.5097 111.258 91.2148 104.892 80.4884C101.987 75.6185 100.191 70.0407 99.8836 64.0962C98.9018 45.0884 113.529 29.6826 132.555 29.6826C151.581 29.6826 167.796 45.0856 168.778 64.0962Z" fill="white"/>
<path d="M165.46 80.4859C160.204 91.2122 149.2 98.5072 136.107 98.5072C123.014 98.5072 111.258 91.2122 104.893 80.4859C113.267 74.6977 123.498 71.3203 134.704 71.3203C145.91 71.3203 156.491 74.7005 165.46 80.4859Z" fill="#1FC9AA"/>
<path d="M145 63.2922C150.763 57.3829 150.387 47.6775 144.159 41.6146C137.931 35.5517 128.21 35.4271 122.446 41.3364C116.682 47.2457 117.059 56.9511 123.286 63.014C129.514 69.0769 139.236 69.2015 145 63.2922Z" fill="#1FC9AA"/>
<path d="M194.642 165.901H84.5231C82.5567 165.901 80.8806 164.309 80.7781 162.344L79.9444 146.18C79.8419 144.215 81.3558 142.623 83.3222 142.623H193.442C195.408 142.623 197.084 144.215 197.187 146.18L198.02 162.344C198.123 164.309 196.609 165.901 194.642 165.901Z" fill="white"/>
<path d="M160.921 133.745H114.929C112.963 133.745 111.287 132.153 111.184 130.188L111.008 126.757C110.905 124.792 112.419 123.2 114.386 123.2H160.378C162.344 123.2 164.02 124.792 164.123 126.757L164.299 130.188C164.399 132.153 162.887 133.745 160.921 133.745Z" fill="#D2D2D2"/>
<path d="M178.023 243.385H109.138C105.789 243.385 102.934 240.673 102.761 237.327L102.351 229.389C102.177 226.043 104.753 223.331 108.102 223.331H176.988C180.337 223.331 183.191 226.043 183.365 229.389L183.775 237.327C183.945 240.673 181.373 243.385 178.023 243.385Z" fill="#D2D2D2"/>
<path d="M196.655 204.866H86.5328C84.5665 204.866 82.8904 203.274 82.7879 201.309L81.9541 185.144C81.8517 183.18 83.3656 181.588 85.332 181.588H195.451C197.418 181.588 199.094 183.18 199.196 185.144L200.03 201.309C200.133 203.271 198.621 204.866 196.655 204.866Z" fill="white"/>
<path d="M98.5264 154.262C98.6374 156.436 96.9641 158.199 94.7872 158.199C92.6103 158.199 90.7549 156.436 90.6439 154.262C90.5329 152.087 92.2062 150.324 94.3831 150.324C96.5601 150.324 98.4154 152.087 98.5264 154.262Z" fill="#1A2E35"/>
<path d="M110.638 154.262C110.749 156.436 109.075 158.199 106.899 158.199C104.722 158.199 102.866 156.436 102.755 154.262C102.644 152.087 104.317 150.324 106.494 150.324C108.671 150.324 110.527 152.087 110.638 154.262Z" fill="#1A2E35"/>
<path d="M122.749 154.262C122.86 156.436 121.187 158.199 119.01 158.199C116.833 158.199 114.978 156.436 114.867 154.262C114.756 152.087 116.429 150.324 118.606 150.324C120.783 150.324 122.638 152.087 122.749 154.262Z" fill="#1A2E35"/>
<path d="M134.86 154.262C134.971 156.436 133.298 158.199 131.121 158.199C128.944 158.199 127.089 156.436 126.978 154.262C126.867 152.087 128.54 150.324 130.717 150.324C132.894 150.324 134.749 152.087 134.86 154.262Z" fill="#1A2E35"/>
<path d="M100.535 193.225C100.646 195.399 98.9729 197.162 96.796 197.162C94.619 197.162 92.7637 195.399 92.6527 193.225C92.5417 191.05 94.215 189.287 96.3919 189.287C98.5689 189.287 100.424 191.05 100.535 193.225Z" fill="#1A2E35"/>
<path d="M112.647 193.225C112.758 195.399 111.084 197.162 108.907 197.162C106.73 197.162 104.875 195.399 104.764 193.225C104.653 191.05 106.326 189.287 108.503 189.287C110.68 189.287 112.536 191.05 112.647 193.225Z" fill="#1A2E35"/>
<path d="M124.761 193.225C124.872 195.399 123.199 197.162 121.022 197.162C118.845 197.162 116.989 195.399 116.878 193.225C116.767 191.05 118.441 189.287 120.617 189.287C122.792 189.287 124.647 191.05 124.761 193.225Z" fill="#1A2E35"/>
<path d="M136.872 193.225C136.983 195.399 135.31 197.162 133.133 197.162C130.956 197.162 129.101 195.399 128.99 193.225C128.879 191.05 130.552 189.287 132.729 189.287C134.903 189.287 136.758 191.05 136.872 193.225Z" fill="#1A2E35"/>
<path d="M148.983 193.225C149.094 195.399 147.421 197.162 145.244 197.162C143.067 197.162 141.212 195.399 141.101 193.225C140.99 191.05 142.663 189.287 144.84 189.287C147.017 189.287 148.87 191.05 148.983 193.225Z" fill="#1A2E35"/>
<path d="M161.095 193.225C161.206 195.399 159.533 197.162 157.356 197.162C155.179 197.162 153.323 195.399 153.212 193.225C153.101 191.05 154.775 189.287 156.951 189.287C159.128 189.287 160.981 191.05 161.095 193.225Z" fill="#1A2E35"/>
<path d="M285.02 161.532C285.02 161.532 284.192 162.885 284.09 163.991C284.007 164.866 283.27 166.174 282.952 166.896C282.633 167.618 281.606 170.888 281.569 171.74C281.554 172.087 282.331 174.282 282.22 174.981C282.109 175.684 281.708 177.074 282.34 177.165C282.971 177.259 283.686 176.119 283.686 176.119C283.686 176.119 283.626 176.764 284.161 177.011C285.197 177.492 285.746 177.068 285.746 177.068C285.746 177.068 286.127 177.779 286.608 177.873C287.667 178.083 288.185 177.659 288.185 177.659C288.185 177.659 288.651 178.057 289.383 178.043C290.319 178.026 290.712 177.216 290.712 177.216C290.712 177.216 291.898 177.455 292.24 176.903C292.584 176.352 292.524 175.76 292.667 175.26C292.809 174.76 292.701 170.239 291.164 166.981C289.628 163.726 291.557 160.551 291.557 160.551L285.02 161.532Z" fill="white" stroke="#231F20" stroke-miterlimit="10"/>
<path d="M185.074 66.2511C185.074 66.2511 185.225 67.1495 185.484 67.5105C185.484 67.5105 186.005 68.1303 186.349 68.5937C186.457 68.7415 186.548 68.8723 186.599 68.9633C186.81 69.3414 187.154 70.2369 187.914 71.0045C188.671 71.7721 191.622 74.2141 191.622 74.2141L194.152 72.0706L196.779 70.8936C196.779 70.8936 195.307 64.5084 194.684 63.7124C194.621 63.6356 194.559 63.5589 194.493 63.4963C193.902 62.8737 193.196 62.6577 192.849 62.3648C192.721 62.2596 191.369 61.2874 190.888 61.4125C190.219 61.5859 189.826 61.9782 189.676 62.4245C189.676 62.4245 188.381 62.8225 187.877 63.5788C187.877 63.5788 186.671 63.9057 186.315 65.0287C186.312 65.0287 185.128 65.4977 185.074 66.2511Z" fill="white" stroke="#231F20" stroke-miterlimit="10"/>
<path d="M276.885 261.125C276.885 261.125 277.519 265.52 277.596 266.179C277.676 266.839 284.645 265.79 284.645 265.79L285.208 260.559C285.211 260.559 277.756 260.505 276.885 261.125Z" fill="#424773"/>
<path d="M284.336 265.939C284.394 266.18 284.472 266.501 284.56 266.88C284.762 267.75 285.021 268.922 285.251 270.137C285.481 271.355 285.678 272.603 285.761 273.628C285.802 274.142 285.813 274.586 285.788 274.935C285.762 275.306 285.699 275.49 285.657 275.553L284.336 265.939ZM284.336 265.939C284.042 266.004 283.624 266.08 283.069 266.142C281.913 266.273 280.168 266.346 277.736 266.142C277.677 266.21 277.603 266.293 277.517 266.389C277.272 266.66 276.922 267.035 276.504 267.446C275.676 268.261 274.55 269.251 273.42 269.863L273.419 269.863C272.443 270.39 271.229 270.777 270.114 271.132C269.95 271.184 269.788 271.236 269.63 271.287C268.999 271.49 268.415 271.689 267.914 271.907C267.408 272.127 267.024 272.352 266.77 272.592C266.581 272.77 266.301 273.113 266.116 273.515C265.93 273.919 265.871 274.313 266 274.651C266.125 274.978 266.476 275.383 267.403 275.706C268.333 276.03 269.78 276.247 271.971 276.229C274.194 276.211 276.13 276.234 277.793 276.257C277.939 276.26 278.083 276.262 278.224 276.264C279.701 276.285 280.946 276.302 281.986 276.285C283.13 276.267 283.989 276.206 284.611 276.072C285.243 275.936 285.529 275.745 285.657 275.553L284.336 265.939Z" fill="#292C47" stroke="black"/>
<path d="M226.948 261.125C226.948 261.125 227.583 265.52 227.66 266.179C227.739 266.839 234.708 265.79 234.708 265.79L235.272 260.559C235.272 260.559 227.819 260.505 226.948 261.125Z" fill="#424773"/>
<path d="M234.4 265.951C234.458 266.191 234.534 266.508 234.621 266.88C234.823 267.75 235.082 268.922 235.312 270.137C235.542 271.355 235.74 272.603 235.822 273.629C235.863 274.142 235.874 274.586 235.849 274.935C235.823 275.306 235.76 275.49 235.718 275.553C235.594 275.739 235.314 275.923 234.681 276.048C234.057 276.171 233.197 276.218 232.05 276.227C231.279 276.233 230.38 276.222 229.355 276.209C227.381 276.184 224.938 276.154 222.024 276.229C218.923 276.31 216.715 276.154 215.162 275.869C213.6 275.582 212.752 275.174 212.317 274.793C211.912 274.439 211.862 274.108 211.907 273.84C211.96 273.532 212.155 273.246 212.326 273.084L212.327 273.084C212.417 272.998 212.609 272.881 212.935 272.744C213.25 272.611 213.649 272.478 214.114 272.343C215.044 272.073 216.197 271.81 217.393 271.544C217.569 271.505 217.746 271.466 217.922 271.427C218.943 271.201 219.973 270.973 220.882 270.741C221.935 270.473 222.883 270.184 223.478 269.863C224.61 269.251 225.737 268.261 226.565 267.446C226.983 267.035 227.333 266.66 227.578 266.389C227.664 266.294 227.737 266.211 227.796 266.144C230.286 266.372 232.034 266.299 233.18 266.161C233.712 266.097 234.114 266.019 234.4 265.951Z" fill="#292C47" stroke="black"/>
<path d="M285.121 263.89C285.115 264.02 285.11 264.137 285.105 264.237L277.021 264.421L277.007 264.339C276.952 264.006 276.87 263.517 276.765 262.893C276.554 261.645 276.252 259.858 275.883 257.699C275.145 253.38 274.14 247.573 273.074 241.621C272.009 235.67 270.882 229.572 269.899 224.671C269.407 222.221 268.951 220.067 268.556 218.379C268.165 216.707 267.825 215.45 267.561 214.826L267.561 214.826C266.598 212.55 263.696 203.195 260.984 193.904C259.631 189.269 258.329 184.663 257.346 180.987C256.854 179.149 256.442 177.546 256.144 176.289C255.842 175.018 255.664 174.134 255.627 173.715L255.627 173.715C255.614 173.573 255.641 173.339 255.736 172.998C255.829 172.665 255.978 172.264 256.18 171.801C256.584 170.875 257.184 169.737 257.921 168.461C259.395 165.91 261.395 162.846 263.411 159.888C265.426 156.932 267.452 154.09 268.975 151.987C269.736 150.936 270.371 150.069 270.815 149.466C270.908 149.34 270.993 149.226 271.068 149.123C271.233 149.407 271.445 149.781 271.689 150.232C272.289 151.342 273.085 152.92 273.865 154.788C275.43 158.535 276.913 163.4 276.675 167.987C276.427 172.74 277.028 177.696 277.807 182.668C278.026 184.069 278.259 185.47 278.492 186.869C279.088 190.45 279.682 194.016 280.035 197.533C280.546 202.637 281.792 210.979 282.993 219.015C283.083 219.617 283.173 220.218 283.262 220.815C284.545 229.413 285.701 237.31 285.781 240.197C285.861 243.105 285.688 249.223 285.493 254.632C285.396 257.333 285.294 259.851 285.216 261.694C285.177 262.615 285.144 263.368 285.121 263.89Z" fill="#282B3B" stroke="black"/>
<path d="M272.886 148.035C273.276 148.074 273.595 148.107 273.836 148.132C272.459 156.824 269.375 161.256 266.099 164.698C265.257 165.583 264.401 166.404 263.548 167.221L263.541 167.228C262.693 168.041 261.847 168.852 261.037 169.707C259.409 171.426 257.917 173.336 256.787 175.869C252.389 185.728 245.534 203.354 245.534 218.412C245.534 225.82 243.344 237.399 241.139 247.166C240.038 252.041 238.938 256.45 238.112 259.641C237.699 261.236 237.355 262.526 237.115 263.417C236.996 263.857 236.902 264.2 236.838 264.434H226.309C226.771 260.829 227.612 249.331 228.391 238.085C228.742 233.009 229.081 227.98 229.368 223.733C229.757 217.961 230.048 213.635 230.141 212.604L229.643 212.559L230.141 212.604C230.272 211.15 230.421 206.732 230.593 201.606C230.636 200.327 230.68 199.003 230.726 197.671C230.957 190.972 231.229 184.04 231.552 181.189C231.875 178.335 233.267 170.481 234.584 163.315C235.241 159.738 235.878 156.34 236.351 153.837C236.587 152.585 236.783 151.557 236.919 150.842C236.987 150.484 237.04 150.205 237.076 150.015L237.113 149.823C237.498 149.274 238.281 148.774 239.48 148.354C240.715 147.921 242.308 147.602 244.147 147.377C247.822 146.928 252.4 146.866 256.884 146.986C261.364 147.106 265.731 147.406 268.981 147.677C270.605 147.813 271.949 147.941 272.886 148.035Z" fill="#282B3B" stroke="black"/>
<path d="M265.683 68.2806C265.584 64.2379 262.493 61.9977 260.186 60.8321C260.186 60.8321 251.395 57.5514 247.343 64.2379C243.291 70.9216 243.681 84.3061 248.111 85.9522C248.419 86.0659 248.74 86.1682 249.067 86.2563C249.067 86.2563 249.435 88.6273 248.828 89.7958C248.225 90.9642 260.217 90.9927 260.217 90.9927C260.217 90.9927 261.19 84.6387 263.037 79.2713C263.037 79.2684 263.04 79.2656 263.04 79.2599C264.594 75.5727 265.757 71.3481 265.683 68.2806Z" fill="white" stroke="#231F20" stroke-miterlimit="10"/>
<path d="M263.035 79.2715C263.035 79.2715 262.207 80.6361 258.829 80.1073C255.451 79.5785 251.328 75.0867 249.919 74.5949C248.507 74.1031 248.496 73.2729 248.496 73.2729L247.614 74.5608L246.114 74.6546C246.114 74.6546 247.48 70.6375 245.42 69C243.36 67.3625 247.56 55.9965 258.396 59.7804C258.396 59.7804 266.72 62.0718 266.415 66.7996C266.108 71.5302 264.896 76.9175 263.035 79.2715Z" fill="black"/>
<path d="M248.114 89.6535C248.114 89.6535 248.151 87.4218 249.164 87.2086C250.177 86.9953 260.339 86.0174 261.583 86.5064V89.1048C261.583 89.1048 259.19 90.5774 248.114 89.6535Z" fill="#9ABFFE"/>
<path d="M248.715 71.553C248.905 70.7598 250.923 68.494 251.697 70.9218C252.471 73.3497 250.53 76.6134 249.446 76.3319C248.365 76.0533 248.237 73.5629 248.715 71.553Z" fill="white" stroke="#231F20" stroke-miterlimit="10"/>
<path d="M291.344 132.761C291.244 131.016 281.614 95.2942 278.814 94.0206C273.945 91.823 261.584 89.1052 261.584 89.1052L248.115 89.6539C248.115 89.6539 238.275 92.1159 231.306 93.0341C226.946 93.2843 214.712 88.5196 214.712 88.5196C214.712 88.5196 209.138 84.4684 207.797 83.0185C204.789 79.7634 197.123 69.5999 196.574 69.7847C195.945 69.9951 188.859 73.8074 189.517 74.5267C190.094 75.789 194.832 81.6482 200.612 88.4769C202.245 90.4044 207.988 95.9908 209.348 97.1962C214.433 101.699 233.067 110.342 235.19 111.985C235.19 111.985 236.579 128.585 236.268 131.709C236.066 133.745 231.471 173.048 231.616 174.134C231.761 175.217 254.728 176.596 263.92 175.584C273.111 174.572 278.504 172.986 278.504 172.986C278.504 172.986 273.473 144.164 273.695 140.724C274.051 135.203 275.411 124.605 276.102 119.405C277.827 125.247 279.58 131.254 280.547 134.777C281.284 137.455 283.066 163.024 283.382 164.053C283.697 165.082 292.513 166.492 292.513 166.492C292.513 166.492 291.443 134.507 291.344 132.761Z" fill="#2F7BFF" stroke="#231F20" stroke-miterlimit="10"/>
<path d="M262.69 61.6201C262.69 61.6201 273.9 62.4957 263.035 79.2718L262.69 61.6201Z" fill="black"/>
<path d="M189.471 62.1995L186.392 58.2251L187.291 57.4404L190.888 61.4092L189.471 62.0147" fill="white"/>
<path d="M189.471 62.1995L186.392 58.2251L187.291 57.4404L190.888 61.4092L189.471 62.0147" stroke="#231F20" stroke-miterlimit="10"/>
<path d="M0 277L332.582 276.956" stroke="black" stroke-width="1.133" stroke-miterlimit="10"/>
</svg>
