<svg width="263" height="357" viewBox="0 0 263 357" fill="none" xmlns="http://www.w3.org/2000/svg">
<g clip-path="url(#clip0_2860_17924)">
<path d="M134.719 71.7006C135.068 68.4046 135.641 62.3763 135.261 61.9737C134.735 61.4208 131.41 55.2637 130.944 55.4033C130.477 55.5482 130.139 57.003 130.112 58.1571C130.096 58.9623 130.81 63.4553 131.239 66.1017C130.423 65.6294 129.517 65.4307 128.6 65.7797C126.788 66.4614 127.619 69.8325 127.994 71.0833C126.595 69.8808 125.383 68.818 124.766 68.2275C124.246 64.2659 123.152 56.8365 122.149 55.9777C120.771 54.7967 116.969 54.0291 116.604 53.97C116.245 53.911 115.982 58.6831 116.684 60.3365C117.221 61.9684 127.64 83.8269 127.64 83.8269L135.577 77.4927C135.582 77.4927 135.255 74.2558 134.719 71.7006Z" fill="white" stroke="black" stroke-width="0.7" stroke-miterlimit="10"/>
<path d="M213.41 48.8654L208.519 49.1982L205.077 39.4123C206.38 36.5028 206.524 32.5949 205.892 28.4239C206.058 26.3412 206.203 21.628 204.326 19.9962C204.036 19.7439 203.79 19.6472 203.575 19.6633C200.61 11.6489 195.703 4.57921 191.504 3.7257C183.873 2.17971 169.678 11.9334 173.796 21.3113C176.762 28.0589 182.446 44.0771 195.166 44.5226L196.555 49.166L191.531 49.7564C191.531 49.7564 195.306 59.4189 205.082 57.5723C214.858 55.7257 213.41 48.8654 213.41 48.8654Z" fill="white" stroke="black" stroke-width="0.7" stroke-miterlimit="10"/>
<path d="M187.67 35.6529L194.556 33.41C194.556 33.41 193.919 37.3003 191.813 37.6017C189.704 37.8988 187.67 35.6529 187.67 35.6529Z" fill="black"/>
<path d="M187.665 28.3592L190.19 32.4024L187.885 33.2744C187.46 33.4323 187.016 33.0796 187.078 32.6281L187.665 28.3592Z" fill="black"/>
<path d="M192.365 21.2545C193.32 21.4246 191.159 19.6821 190.057 19.8786C188.956 20.0752 188.201 21.0129 188.377 21.969C188.373 21.9713 190.074 20.8515 192.365 21.2545Z" fill="black"/>
<path d="M180.405 26.5396C179.925 27.3809 179.968 24.6027 180.826 23.8824C181.681 23.1579 182.879 23.1769 183.504 23.9182C183.5 23.9205 181.555 24.5166 180.405 26.5396Z" fill="black"/>
<path d="M192.096 26.3306C192.419 27.107 192.378 27.8651 192.003 28.0168C191.631 28.1728 191.065 27.6678 190.743 26.8913C190.42 26.1149 190.461 25.3568 190.835 25.2051C191.21 25.0533 191.774 25.5541 192.096 26.3306Z" fill="black"/>
<path d="M185.809 28.5041C186.118 29.2445 186.079 29.9681 185.72 30.1171C185.36 30.2662 184.823 29.7837 184.515 29.0432C184.206 28.3028 184.245 27.5792 184.604 27.4302C184.964 27.2811 185.501 27.7636 185.809 28.5041Z" fill="black"/>
<path d="M180.677 348.024C180.677 348.024 156.165 177.525 182.844 131.876C187.643 123.663 231.821 45.5581 236.186 57.8777C240.551 70.1973 229.338 348.024 229.338 348.024H217.326C217.326 348.024 206.541 192.282 202.503 185.814C198.363 179.184 192.663 348.024 192.663 348.024H180.677Z" fill="#13151C"/>
<path d="M190.888 348.025C190.888 348.025 191.103 353.049 190.888 353.479C190.674 353.908 170.65 357.574 168.28 356.925C165.909 356.281 167.851 353.269 169.143 352.512C170.435 351.75 180.683 348.025 180.683 348.025H190.888Z" fill="#0F1D29"/>
<path d="M218.312 348.025C218.312 348.025 218.098 353.049 218.312 353.479C218.527 353.908 238.551 357.574 240.921 356.925C243.291 356.281 241.35 353.269 240.058 352.512C238.765 351.75 228.517 348.025 228.517 348.025H218.312Z" fill="#0F1D29"/>
<path d="M165.206 19.7757C165.206 19.7757 170.124 25.702 178.377 21.0855C186.63 16.469 194.207 13.7689 195.8 14.1178C197.398 14.4721 199.881 24.3331 200.632 24.5371L205.758 27.6452C205.758 27.6452 209.791 17.8915 205.066 9.21143C200.353 0.531345 192.513 -1.34209 190.711 0.821219C190.711 0.821219 180.522 0.955419 174.607 8.54043C168.692 16.1254 165.206 19.7757 165.206 19.7757Z" fill="#0F1D29"/>
<path d="M260.176 113.246C248.457 71.4623 236.345 57.486 236.345 57.486C234.094 48.046 185.738 43.3369 174.208 56.7137C173.298 57.7722 172.619 58.9441 172.21 60.2348C167.212 69.0105 154.541 91.1361 153.927 90.9309C153.162 90.6771 135.6 75.6153 135.6 75.6153L125.163 83.5809C125.163 83.5809 146.29 117.047 151.886 117.771C154.422 118.101 161.655 112.23 168.812 105.707C167.363 134.61 166.205 166.31 166.205 166.31C166.205 166.31 212.154 170.382 236.534 166.445C236.194 168.584 235.882 170.685 235.618 172.694C233.873 186.027 234.967 194.641 234.967 194.641C234.967 194.641 271.894 155.029 260.176 113.246ZM237.525 160.537C237.729 152.977 238.074 138.844 238.262 123.328C240.422 126.687 242.016 129.809 242.221 131.936C242.512 134.939 239.77 147.7 237.525 160.537Z" fill="#2F7BFF" stroke="black" stroke-width="0.7" stroke-miterlimit="10"/>
<path d="M243.125 183.618L235.462 172.405C235.462 172.405 230.459 180.269 230.968 183.57C231.478 186.866 234.566 202.299 234.566 202.299L243.125 183.618Z" fill="white" stroke="black" stroke-width="0.7" stroke-miterlimit="10"/>
<path d="M125.952 72.3665L133.55 70.6809C134.081 70.5628 134.36 70.0475 134.167 69.5322L127.555 51.8929C127.362 51.3775 126.772 51.0555 126.241 51.1736L118.637 52.8538C118.106 52.9718 117.827 53.4872 118.02 54.0025L124.632 71.6418C124.831 72.1625 125.421 72.4846 125.952 72.3665Z" fill="#07203D"/>
<path d="M126.885 72.1624L134.484 70.4768C135.014 70.3587 135.293 69.8434 135.1 69.3281L128.488 51.6888C128.295 51.1735 127.705 50.8514 127.174 50.9695L119.575 52.655C119.045 52.7731 118.766 53.2885 118.959 53.8038L125.571 71.4431C125.764 71.9531 126.354 72.2805 126.885 72.1624Z" fill="#052F6B"/>
<path d="M134.444 68.0162L125.209 70.0606L124.188 67.3378L124.188 67.3375L123.904 66.5755L123.904 66.5752L122.568 63.0163L122.568 63.0162L122.295 62.2862L122.295 62.2862L119.385 54.5142L119.8 54.4228L119.8 54.4226L120.475 54.2778L120.475 54.2778L120.476 54.2776L124.793 53.3221L124.794 53.3219L125.598 53.1396L125.598 53.1394L128.624 52.4699L130.594 57.7317L130.594 57.732L131.393 59.8789L131.393 59.8793L133.962 66.7342L133.962 66.7353L134.246 67.475L134.444 68.0162Z" fill="white" stroke="#757575" stroke-width="0.3"/>
<path d="M129.244 60.9539L128.911 60.8412L128.477 59.2737C128.203 58.2752 127.174 57.6472 126.133 57.7975L126.048 57.4861C126.021 57.3895 125.919 57.3305 125.817 57.3573C125.715 57.3842 125.656 57.4808 125.683 57.572L125.769 57.8834C124.777 58.2108 124.203 59.22 124.476 60.2185L124.911 61.7859L124.68 62.0329C124.637 62.0758 124.621 62.1402 124.637 62.1993L124.83 62.8971C124.857 62.9937 124.959 63.0528 125.061 63.026L126.257 62.7414C126.466 63.1709 126.97 63.4124 127.458 63.2997C127.946 63.1816 128.262 62.7468 128.225 62.2798L129.421 61.9953C129.523 61.9738 129.582 61.8718 129.555 61.7806L129.362 61.0827C129.351 61.0237 129.303 60.9754 129.244 60.9539ZM127.367 62.9508C127.077 63.0206 126.782 62.8917 126.632 62.6556L127.855 62.3657C127.844 62.6341 127.651 62.881 127.367 62.9508ZM129.147 61.6893C128.981 61.7269 125.345 62.5858 125.147 62.6341L125.029 62.2046L125.259 61.9577C125.302 61.9148 125.318 61.8504 125.302 61.7913L124.846 60.1326C124.605 59.2683 125.147 58.3933 126.048 58.1786C126.949 57.9639 127.876 58.4953 128.118 59.3596L128.573 61.0183C128.589 61.0774 128.632 61.1257 128.697 61.1418L129.029 61.2545L129.147 61.6893Z" fill="#1FC9AA"/>
<path d="M124.991 62.8327L124.873 62.1455L125.082 61.8288L124.583 59.6118L124.953 58.5704L125.865 58.0122L126.455 57.9478C126.455 57.9478 127.039 58.0283 127.087 58.0497C127.136 58.0766 127.886 58.5812 127.886 58.5812L128.224 59.1556L128.401 60.0198L128.605 60.7069L128.916 60.8411L129.141 61.2061L129.297 61.5497L129.232 61.9577L124.991 62.8327Z" fill="#1FC9AA"/>
<path d="M134.682 55.9726L133.781 55.5592C134.575 53.82 133.803 51.7587 132.065 50.9642L132.478 50.0624C134.709 51.0877 135.701 53.7341 134.682 55.9726Z" fill="#407BFF"/>
<path d="M136.479 56.7935L135.578 56.3801C136.822 53.6478 135.615 50.4055 132.886 49.1601L133.299 48.2583C136.527 49.7345 137.953 53.5619 136.479 56.7935Z" fill="#407BFF"/>
<path d="M138.281 57.6149L137.38 57.2016C139.08 53.4708 137.434 49.0583 133.707 47.3567L134.12 46.4548C138.34 48.3873 140.207 53.3903 138.281 57.6149Z" fill="#407BFF"/>
<path d="M120.364 74.9108C118.128 73.8909 117.141 71.2391 118.16 69.0006L119.061 69.4139C118.268 71.1532 119.04 73.2145 120.777 74.009L120.364 74.9108Z" fill="#407BFF"/>
<path d="M119.543 76.714C116.315 75.2378 114.888 71.4104 116.358 68.1788L117.259 68.5922C116.015 71.3245 117.221 74.5668 119.951 75.8122L119.543 76.714Z" fill="#407BFF"/>
<path d="M118.723 78.5178C114.503 76.5906 112.631 71.5823 114.562 67.3577L115.463 67.771C113.763 71.5018 115.414 75.9143 119.136 77.6159L118.723 78.5178Z" fill="#407BFF"/>
</g>
<g clip-path="url(#clip1_2860_17924)">
<path d="M6.67567 69.7405H5.96094V83.8833H6.67567V69.7405Z" fill="#1FC9AA"/>
<path d="M6.67567 87.7947H5.96094V92.3316H6.67567V87.7947Z" fill="#1FC9AA"/>
<path d="M78.7634 118.388H18.2258C12.8582 118.388 8.46973 113.974 8.46973 108.574V65.1104C8.46973 59.7107 12.8582 55.296 18.2258 55.296H78.7634C84.131 55.296 88.5194 59.7107 88.5194 65.1104V108.567C88.5194 113.974 84.131 118.388 78.7634 118.388Z" fill="#1FC9AA"/>
<path d="M7.50474 55.0731C7.31891 55.0731 7.14022 55.0012 6.99728 54.8646L1.47957 49.3139C1.20082 49.0335 1.20082 48.5806 1.47957 48.3002C1.75831 48.0197 2.20859 48.0197 2.48733 48.3002L8.00505 53.8508C8.28379 54.1312 8.28379 54.5842 8.00505 54.8646C7.86925 55.0012 7.69057 55.0731 7.50474 55.0731Z" fill="#1FC9AA"/>
<path d="M11.0498 53.5487C10.7139 53.5487 10.4137 53.3115 10.3494 52.9663L9.33445 47.6601C9.26297 47.2719 9.51313 46.8908 9.89908 46.8189C10.285 46.747 10.6638 46.9986 10.7353 47.3869L11.7502 52.6931C11.8217 53.0814 11.5715 53.4624 11.1856 53.5343C11.1427 53.5415 11.0927 53.5487 11.0498 53.5487Z" fill="#1FC9AA"/>
<path d="M5.98929 58.6394C5.94641 58.6394 5.89638 58.6322 5.85349 58.625L0.578788 57.604C0.192834 57.5321 -0.0644683 57.151 0.0141519 56.7628C0.0856249 56.3745 0.464432 56.1157 0.850386 56.1948L6.12509 57.2158C6.51104 57.2877 6.76835 57.6687 6.68973 58.057C6.6254 58.4021 6.32521 58.6394 5.98929 58.6394Z" fill="#1FC9AA"/>
<path d="M87.0752 83.9768L104.622 78.5627L87.0752 97.2783V83.9768Z" fill="#1FC9AA"/>
<path d="M65.8767 98.1124H31.1123C31.1123 96.243 31.8485 94.4527 33.1636 93.1369L33.8569 92.4323C34.9861 91.3034 35.6151 89.7648 35.6151 88.1614V80.0295C35.6151 72.7173 41.6403 66.8215 48.9662 67.0804C50.0455 67.1235 51.0818 67.2961 52.0753 67.5908C51.6894 68.619 51.4749 69.7406 51.4749 70.9054C51.4749 76.111 55.6704 80.3387 60.8522 80.3387C61.0309 80.3387 61.2024 80.3315 61.374 80.3243C61.374 80.3315 61.374 80.3315 61.374 80.3387V88.1614C61.374 89.7648 62.0101 91.3034 63.1322 92.4323L63.8255 93.1369C64.483 93.7984 64.9976 94.5749 65.3478 95.4161C65.6909 96.2645 65.8767 97.1777 65.8767 98.1124Z" fill="white"/>
<path d="M55.3634 100.003C55.1919 103.771 52.047 106.748 48.2304 106.611C44.6639 106.489 41.8479 103.548 41.6191 100.003H55.3634Z" fill="white"/>
<path d="M65.5918 76.1055C68.4467 73.4679 68.6355 69.0015 66.0136 66.1296C63.3917 63.2576 58.9519 63.0677 56.097 65.7052C53.2421 68.3428 53.0532 72.8092 55.6751 75.6811C58.2971 78.5531 62.7369 78.7431 65.5918 76.1055Z" fill="#10195D"/>
<path d="M62.2385 67.5045V74.6082H60.2873V69.9563C59.9729 70.2008 59.6655 70.3949 59.3725 70.5387C59.0794 70.6897 58.7078 70.8335 58.2646 70.9701V69.3811C58.9222 69.1654 59.4297 68.9138 59.7942 68.6118C60.1587 68.3098 60.4446 67.9431 60.6447 67.5045H62.2385Z" fill="white"/>
</g>
<defs>
<clipPath id="clip0_2860_17924">
<rect width="148.674" height="357" fill="white" transform="translate(113.8)"/>
</clipPath>
<clipPath id="clip1_2860_17924">
<rect width="104.622" height="71.5835" fill="white" transform="translate(0 46.8046)"/>
</clipPath>
</defs>
</svg>
