<svg width="320" height="249" viewBox="0 0 320 249" fill="none" xmlns="http://www.w3.org/2000/svg">
<path d="M319.118 248L0.651831 247.958" stroke="#1A1A1A" stroke-width="1.133" stroke-miterlimit="10"/>
<path d="M37.2622 149.817L42.4105 109.955C42.96 105.708 45.1804 101.856 48.5825 99.256L73.6955 80.0673L87.3076 123.359L56.0829 158.235L37.2622 149.817Z" fill="white" stroke="black" stroke-miterlimit="10"/>
<path d="M73.0932 93.4676L55.473 108.108C54.8634 108.609 54.5999 109.416 54.7956 110.177L61.0616 134.611C61.4794 136.239 63.5793 136.68 64.6143 135.357L77.184 119.308C77.7259 118.614 77.7597 117.653 77.2705 116.922L76.0549 93.8972C75.3888 92.9099 74.0152 92.7102 73.0932 93.4676Z" fill="#EFEFEF"/>
<path d="M78.8322 154.852H297.255C299.983 154.852 302.196 152.636 302.196 149.904V5.85637C302.196 3.12427 299.983 0.908447 297.255 0.908447H78.8322C76.1038 0.908447 73.8909 3.12427 73.8909 5.85637V149.908C73.8909 152.64 76.1038 154.852 78.8322 154.852Z" fill="#2F2D4F"/>
<path d="M84.8995 11.422H289.586V143.803H84.8995V11.422Z" fill="#7498FF"/>
<path d="M156.998 56.7786C149.719 65.9622 138.365 70.8235 127.245 74.4939C116.124 78.1643 104.502 81.1112 94.8607 87.7663C91.3833 90.1667 88.2146 93.0156 84.899 95.6347V11.422H162.267C166.786 26.8084 167.02 44.1356 156.998 56.7786Z" fill="#547DEC"/>
<path d="M84.8995 11.422H289.586V24.6152H84.8995V11.422Z" fill="#CFE3FF"/>
<path d="M122.986 18.4007C122.986 20.0626 124.329 21.4079 125.989 21.4079C127.649 21.4079 128.992 20.0626 128.992 18.4007C128.992 16.7389 127.649 15.3936 125.989 15.3936C124.329 15.3936 122.986 16.7426 122.986 18.4007Z" fill="#7498FF"/>
<path d="M109.908 18.4005C109.908 20.0624 111.251 21.4077 112.911 21.4077C114.571 21.4077 115.914 20.0624 115.914 18.4005C115.914 16.7386 114.571 15.3933 112.911 15.3933C111.251 15.3933 109.908 16.7424 109.908 18.4005Z" fill="#7498FF"/>
<path d="M96.8296 18.4005C96.8296 20.0624 98.1731 21.4077 99.8328 21.4077C101.492 21.4077 102.836 20.0624 102.836 18.4005C102.836 16.7386 101.492 15.3933 99.8328 15.3933C98.1769 15.3933 96.8296 16.7424 96.8296 18.4005Z" fill="#7498FF"/>
<path d="M200.918 21.4081H276.309C277.969 21.4081 279.312 20.0627 279.312 18.4009C279.312 16.739 277.969 15.3937 276.309 15.3937H200.914C199.254 15.3937 197.911 16.739 197.911 18.4009C197.914 20.0627 199.258 21.4081 200.918 21.4081Z" fill="white"/>
<path d="M180.881 139.341C187.094 132.091 196.924 129.317 206.159 126.905C211.217 125.583 216.279 124.264 221.337 122.941C226.147 121.686 231.001 120.412 235.397 118.091C244.61 113.23 250.902 104.287 256.254 95.3412C261.605 86.395 266.524 76.9325 274.209 69.8931C278.292 66.1322 283.828 62.8386 289.586 61.5612V143.807H177.844C178.713 142.224 179.703 140.717 180.881 139.341Z" fill="#547DEC"/>
<path d="M87.9328 143.805H286.553C288.227 143.805 289.586 142.445 289.586 140.768V29.5657C289.586 27.8887 288.227 26.5283 286.553 26.5283H87.9328C86.2581 26.5283 84.8995 27.8887 84.8995 29.5657V140.764C84.8995 142.445 86.2581 143.805 87.9328 143.805Z" fill="white"/>
<path d="M214.469 80.776C204.465 80.776 196.356 72.6556 196.356 62.6386C196.356 52.6216 204.465 44.5012 214.469 44.5012C224.472 44.5012 232.582 52.6216 232.582 62.6386C232.582 72.6556 224.472 80.776 214.469 80.776Z" fill="#1FC9AA"/>
<path d="M207.345 57.4905C207.345 61.2099 210.355 64.2284 214.07 64.2284C217.784 64.2284 220.799 61.2137 220.799 57.4905C220.799 53.7711 217.788 50.7563 214.07 50.7563C210.355 50.7563 207.345 53.7711 207.345 57.4905Z" fill="white"/>
<path d="M225.353 77.0596C225.353 70.9586 220.415 66.0144 214.322 66.0144C208.229 66.0144 203.292 70.9586 203.292 77.0596C203.292 77.0596 208.35 81.3669 214.469 81.4724C220.588 81.5779 225.353 77.0596 225.353 77.0596Z" fill="white"/>
<path d="M155.257 90.2194H176.501V123.566H155.257V90.2194Z" fill="#D3DFFF"/>
<path d="M125.981 90.1664H149.863V101.181H125.981V90.1664Z" fill="#A4C9FF"/>
<path d="M125.981 106.552H149.863V123.615H125.981V106.552Z" fill="#D3DFFF"/>
<path d="M136.703 78.8802H165.779V81.0697H136.703V78.8802Z" fill="#D3DFFF"/>
<path d="M125.714 74.0827H176.768V44.5271H125.714V74.0827ZM176.233 73.5476H126.248V45.0622H176.233V73.5476Z" fill="#86A7FF"/>
<path d="M129.455 50.9825C131.149 50.6434 132.827 51.7475 133.9 53.1079C134.408 53.7523 134.825 54.4607 135.239 55.173C135.699 55.9643 136.146 56.7595 136.7 57.4868C137.75 58.866 139.379 60.0191 141.088 59.7591C143.858 59.3371 145.374 55.5272 148.174 55.5762C149.484 55.5988 150.605 56.507 151.497 57.4679C152.389 58.4326 153.202 59.5255 154.365 60.1322C155.987 60.9839 157.989 60.705 159.671 59.9815C161.354 59.2579 162.829 58.1312 164.428 57.2381C167.108 55.742 170.152 54.9506 173.212 54.8677V69.3234H129.271V56.0246V51.0277C129.331 51.0127 129.391 50.9938 129.455 50.9825Z" fill="#D3DFFF"/>
<path d="M159.671 59.9851C157.989 60.7087 155.987 60.9838 154.365 60.1359C153.206 59.5291 152.389 58.4325 151.497 57.4716C150.605 56.5069 149.484 55.6025 148.174 55.5799C145.374 55.5309 143.858 59.3407 141.088 59.7628C139.379 60.0228 137.75 58.8697 136.7 57.4904C136.146 56.7631 135.699 55.968 135.239 55.1766C136.94 55.2558 138.645 55.3387 140.117 54.5511C141.584 53.7673 142.544 52.241 144.008 51.4459C146.635 50.0252 149.845 51.3818 152.461 52.8214C154.022 53.6806 155.769 54.6076 157.5 54.1818C159.457 53.7032 160.608 51.7022 162.238 50.5113C165.361 48.2315 170.051 49.3356 172.723 52.1393L172.726 52.1431C173.046 52.4785 173.212 52.9118 173.212 53.3527V54.8714C170.149 54.9505 167.104 55.7419 164.428 57.2417C162.829 58.1348 161.354 59.2616 159.671 59.9851Z" fill="#A4C9FF"/>
<path d="M190.752 92.0358H232.582V93.8672H190.752V92.0358Z" fill="#86A7FF"/>
<path d="M196.563 96.584H232.582V98.4154H196.563V96.584Z" fill="#86A7FF"/>
<path d="M209.863 101.133H232.582V102.964H209.863V101.133Z" fill="#86A7FF"/>
<path d="M195.791 109.597H232.582V111.428H195.791V109.597Z" fill="#D3DFFF"/>
<path d="M200.902 114.145H232.582V115.976H200.902V114.145Z" fill="#D3DFFF"/>
<path d="M277.148 148.49H285.954C287.96 148.49 289.586 146.862 289.586 144.854V29.9434C289.586 27.9348 287.96 26.3069 285.954 26.3069H277.148C275.142 26.3069 273.516 27.9348 273.516 29.9434V144.857C273.52 146.862 275.146 148.49 277.148 148.49Z" fill="#176CFF"/>
<path d="M279.236 52.4182C279.267 52.4182 279.297 52.4069 279.323 52.3843L281.626 50.2966L283.929 52.3843C283.982 52.4333 284.065 52.4295 284.11 52.3767C284.159 52.324 284.155 52.2411 284.103 52.1959L281.713 50.029C281.664 49.9838 281.589 49.9838 281.54 50.029L279.15 52.1959C279.097 52.2449 279.093 52.324 279.142 52.3767C279.169 52.4069 279.203 52.4182 279.236 52.4182Z" fill="#FAFAFA"/>
<path d="M279.89 54.2498H283.36C283.432 54.2498 283.488 54.1933 283.488 54.1217V51.7023C283.488 51.6307 283.432 51.5742 283.36 51.5742C283.289 51.5742 283.232 51.6307 283.232 51.7023V53.9898H280.018V51.7023C280.018 51.6307 279.962 51.5742 279.89 51.5742C279.819 51.5742 279.763 51.6307 279.763 51.7023V54.1217C279.763 54.1895 279.823 54.2498 279.89 54.2498Z" fill="#FAFAFA"/>
<path d="M279.368 70.7403H283.888C283.959 70.7403 284.016 70.6837 284.016 70.6121V67.7218C284.016 67.3638 283.726 67.0736 283.368 67.0736H282.19C281.897 67.0736 281.63 67.2507 281.517 67.522L281.314 68.0044H279.883C279.526 68.0044 279.236 68.2946 279.236 68.6526V70.6084C279.236 70.68 279.296 70.7403 279.368 70.7403ZM283.76 70.4802H279.492V68.6526C279.492 68.4378 279.669 68.2607 279.883 68.2607H281.4C281.453 68.2607 281.498 68.2305 281.517 68.1815L281.754 67.62C281.829 67.4429 281.998 67.3299 282.19 67.3299H283.368C283.583 67.3299 283.76 67.507 283.76 67.7218V70.4802Z" fill="#FAFAFA"/>
<path d="M272.734 43.6154H286.255C286.918 43.6154 287.452 43.0765 287.452 42.417V31.4623C287.452 30.799 286.914 30.2639 286.255 30.2639H272.734C272.071 30.2639 271.537 30.8028 271.537 31.4623V42.4133C271.537 43.0765 272.071 43.6154 272.734 43.6154Z" fill="#FAFAFA"/>
<path d="M282.906 87.9961C282.977 87.9961 283.045 87.9735 283.105 87.932C283.21 87.8567 283.263 87.7286 283.24 87.6004L283.052 86.3945C283.049 86.3682 283.056 86.3418 283.075 86.3229L283.933 85.46C284.023 85.3695 284.057 85.2339 284.016 85.1133C283.974 84.9889 283.873 84.9022 283.745 84.8796L282.544 84.6874C282.518 84.6837 282.495 84.6648 282.48 84.6422L281.927 83.5569C281.81 83.3271 281.434 83.3271 281.317 83.5569L280.764 84.6422C280.753 84.6648 280.73 84.6837 280.7 84.6874L279.5 84.8796C279.372 84.8985 279.266 84.9889 279.229 85.1133C279.187 85.2376 279.221 85.3695 279.311 85.46L280.17 86.3229C280.188 86.3418 280.2 86.3682 280.192 86.3945L280.004 87.6004C279.985 87.7286 280.038 87.8567 280.139 87.932C280.245 88.0074 280.38 88.0187 280.497 87.9584L281.581 87.4045C281.603 87.3932 281.633 87.3932 281.656 87.4045L282.751 87.9584C282.8 87.9848 282.853 87.9961 282.906 87.9961ZM281.626 87.1407C281.573 87.1407 281.521 87.152 281.472 87.1784L280.388 87.7323C280.346 87.7549 280.313 87.7361 280.297 87.7248C280.286 87.7172 280.256 87.6909 280.264 87.6419L280.452 86.436C280.471 86.3267 280.433 86.2174 280.354 86.142L279.496 85.2791C279.462 85.2452 279.47 85.2075 279.473 85.1924C279.477 85.1773 279.496 85.1434 279.541 85.1359L280.742 84.9437C280.851 84.9249 280.945 84.857 280.994 84.7628L281.547 83.6775C281.57 83.6361 281.607 83.6323 281.622 83.6323C281.637 83.6323 281.675 83.6361 281.697 83.6775L282.251 84.7628C282.3 84.8608 282.394 84.9286 282.503 84.9437L283.703 85.1359C283.749 85.1434 283.767 85.1773 283.771 85.1924C283.775 85.2075 283.782 85.2452 283.749 85.2791L282.89 86.142C282.815 86.2174 282.778 86.3305 282.796 86.436L282.985 87.6419C282.992 87.6871 282.962 87.7135 282.951 87.7248C282.939 87.7323 282.906 87.7549 282.86 87.7323L281.777 87.1784C281.735 87.152 281.682 87.1407 281.626 87.1407Z" fill="white"/>
<path d="M279.105 104.205H284.186C284.257 104.205 284.313 104.148 284.313 104.077V100.87C284.313 100.798 284.257 100.742 284.186 100.742H279.105C279.033 100.742 278.977 100.798 278.977 100.87V104.077C278.977 104.148 279.033 104.205 279.105 104.205ZM284.058 103.949H279.233V100.998H284.058V103.949Z" fill="#FAFAFA"/>
<path d="M281.58 103.303C281.61 103.303 281.64 103.292 281.667 103.27L284.267 100.963C284.32 100.914 284.323 100.835 284.278 100.782C284.229 100.73 284.15 100.726 284.098 100.771L281.584 102.998L279.19 100.771C279.138 100.722 279.059 100.726 279.01 100.779C278.961 100.831 278.964 100.911 279.017 100.959L281.493 103.266C281.52 103.292 281.55 103.303 281.58 103.303Z" fill="#FAFAFA"/>
<path d="M284.11 104.065C284.144 104.065 284.174 104.053 284.201 104.027C284.25 103.978 284.25 103.895 284.201 103.846L282.654 102.297C282.605 102.248 282.522 102.248 282.473 102.297C282.424 102.346 282.424 102.429 282.473 102.478L284.02 104.027C284.046 104.053 284.08 104.065 284.11 104.065Z" fill="#FAFAFA"/>
<path d="M279.07 104.17C279.104 104.17 279.134 104.159 279.161 104.133L280.813 102.478C280.862 102.429 280.862 102.346 280.813 102.297C280.764 102.248 280.681 102.248 280.632 102.297L278.98 103.952C278.931 104.001 278.931 104.084 278.98 104.133C279.006 104.159 279.037 104.17 279.07 104.17Z" fill="#FAFAFA"/>
<path d="M281.555 39.8733C283.173 39.8733 284.486 38.5581 284.486 36.9377C284.486 35.3173 283.173 34.0021 281.555 34.0021C279.936 34.0021 278.623 35.3173 278.623 36.9377C278.623 38.5581 279.936 39.8733 281.555 39.8733Z" fill="#1FC9AA"/>
<path opacity="0.22" d="M110.106 113.086C110.106 113.086 113.707 121.904 108.303 128.318C102.899 134.732 94.4913 136.936 94.4913 136.936C94.4913 136.936 96.0908 150.767 90.0882 154.573H76.8787L75.6782 125.511L110.106 113.086Z" fill="#2F2D4F"/>
<path d="M65.4467 175.322L68.5138 165.599C68.6644 165.128 69.0144 164.744 69.4773 164.563L80.9744 159.958C91.5344 155.73 91.1468 139.167 90.8457 134.74C90.8006 134.069 91.1656 133.443 91.7715 133.149L103.837 127.263C107.954 125.254 111.322 119.862 111.322 115.276V115.253C111.322 110.452 107.634 107.86 103.126 109.487L72.3676 120.597C72.0063 120.725 71.7052 120.977 71.5095 121.305L55.3797 148.415C54.9845 149.082 54.1754 149.384 53.4415 149.139L39.8068 144.62C38.8773 144.311 37.8875 144.877 37.6767 145.83L31.3166 174.466C31.0871 175.499 31.8736 176.478 32.9311 176.478H63.8698C64.5924 176.478 65.2284 176.011 65.4467 175.322Z" fill="white" stroke="black" stroke-miterlimit="10"/>
<path d="M66.0862 157.271C88.5046 153.261 82.901 130.014 82.901 130.014L111.032 117.657C110.148 121.591 107.25 125.597 103.833 127.263L91.7675 133.149L90.7514 133.647C90.7514 133.647 90.804 134.118 90.8567 134.924C90.8605 134.992 90.8643 135.056 90.868 135.128C90.8756 135.244 90.8831 135.373 90.8868 135.497C90.8906 135.561 90.8944 135.617 90.8981 135.682C90.9057 135.877 90.917 136.085 90.9245 136.3C90.9282 136.356 90.9282 136.416 90.9282 136.473C90.932 136.642 90.9395 136.812 90.9433 136.993C90.9433 137.08 90.9471 137.17 90.9471 137.26C90.9508 137.423 90.9508 137.585 90.9508 137.754C90.9508 137.856 90.9508 137.961 90.9508 138.067C90.9508 138.233 90.9508 138.399 90.9471 138.572C90.9471 138.685 90.9433 138.802 90.9433 138.915C90.9395 139.092 90.9358 139.273 90.932 139.457C90.9282 139.571 90.9245 139.687 90.9207 139.8C90.9132 140.004 90.9057 140.211 90.8944 140.418C90.8906 140.524 90.8868 140.626 90.8793 140.731C90.8605 141.048 90.8417 141.368 90.8191 141.692C90.8191 141.707 90.8153 141.726 90.8153 141.741C90.7928 142.054 90.7627 142.367 90.7325 142.687C90.7213 142.793 90.71 142.902 90.6987 143.007C90.6761 143.237 90.6498 143.471 90.6197 143.704C90.6046 143.836 90.5858 143.964 90.5707 144.096C90.5406 144.311 90.5143 144.53 90.4804 144.748C90.4616 144.888 90.439 145.027 90.4164 145.167C90.3825 145.385 90.3449 145.604 90.3073 145.822C90.2847 145.958 90.2584 146.097 90.232 146.233C90.1869 146.463 90.1417 146.697 90.0928 146.926C90.0664 147.051 90.0401 147.175 90.0137 147.3C89.9498 147.586 89.8783 147.876 89.8067 148.163C89.7879 148.23 89.7729 148.298 89.7578 148.366C89.6675 148.72 89.5659 149.071 89.4605 149.421C89.4304 149.519 89.3965 149.613 89.3664 149.711C89.2874 149.964 89.2046 150.216 89.118 150.465C89.0729 150.593 89.0277 150.717 88.9788 150.842C88.8998 151.06 88.817 151.279 88.7304 151.494C88.6777 151.626 88.6213 151.761 88.5648 151.893C88.4783 152.1 88.3879 152.304 88.2939 152.507C88.2336 152.639 88.1734 152.771 88.1095 152.899C88.0078 153.107 87.9025 153.31 87.7971 153.51C87.7331 153.63 87.6729 153.747 87.6052 153.868C87.4772 154.094 87.3417 154.316 87.2063 154.539C87.1536 154.625 87.1046 154.712 87.0482 154.799C86.8525 155.1 86.6493 155.394 86.4348 155.68C86.3934 155.737 86.3444 155.79 86.2993 155.846C86.1262 156.072 85.9455 156.295 85.7573 156.51C85.6746 156.604 85.588 156.694 85.5052 156.785C85.3471 156.958 85.1891 157.128 85.0197 157.29C84.9219 157.388 84.8165 157.482 84.7149 157.576C84.5531 157.727 84.3837 157.874 84.2106 158.013C84.1015 158.104 83.9886 158.194 83.8757 158.281C83.6988 158.416 83.5144 158.548 83.3262 158.676C83.2096 158.756 83.0966 158.835 82.9762 158.91C82.7692 159.042 82.551 159.166 82.3289 159.287C82.2235 159.347 82.1182 159.407 82.009 159.464C81.6741 159.634 81.3316 159.796 80.9741 159.939C79.5628 160.504 78.3209 161.001 77.2182 161.442L76.8118 161.604C76.0064 161.929 75.2801 162.219 74.629 162.479L73.2102 163.048C68.7544 164.834 68.7506 164.834 68.7506 164.834L65.4502 175.306C65.2319 175.996 64.5959 176.463 63.8733 176.463H56.5196L60.8852 158.055L66.0862 157.271Z" fill="#EFEFEF"/>
<path d="M109.192 116.237L108.022 113.961C107.427 112.804 106.069 112.269 104.846 112.714L99.0125 114.828C97.5523 115.359 96.8862 117.051 97.5937 118.434L99.2684 121.716C99.9421 123.039 101.59 123.521 102.87 122.771L108.195 119.651C109.384 118.954 109.817 117.458 109.192 116.237Z" fill="#DDDDDD"/>
<path d="M28.0049 180.334L69.0107 186.861C70.1322 187.038 71.1897 186.273 71.3666 185.15L72.7929 176.159C72.9698 175.036 72.2058 173.977 71.0843 173.8L30.0786 167.273C28.9571 167.096 27.8996 167.861 27.7227 168.984L26.2964 177.975C26.1157 179.102 26.8835 180.157 28.0049 180.334Z" fill="#F1E8E1"/>
<path d="M46.4519 183.274L68.6181 186.805C69.9579 187.019 71.2148 186.104 71.4294 184.762L72.7315 176.554C72.946 175.213 72.0315 173.954 70.6918 173.739L48.5255 170.208C47.1857 169.994 45.9288 170.909 45.7142 172.251L44.4121 180.459C44.1976 181.8 45.1121 183.059 46.4519 183.274Z" fill="#DDD3D2"/>
<path d="M11.7425 247.958L23.5708 175.571L75.4941 183.839L64.9604 247.958H11.7425Z" fill="#222C78"/>
<path d="M33.2201 247.958L43.0576 188.146C43.8667 183.044 48.6537 179.565 53.7493 180.376L75.4941 183.839L64.9604 247.958H33.2201Z" fill="#10195D"/>
<path opacity="0.22" d="M229.673 101.887L258.587 154.852H240.244C235.807 141.3 228.239 118.241 226.203 112.306C223.268 103.756 229.673 101.887 229.673 101.887Z" fill="#2F2D4F"/>
<path d="M291.053 182.489L289.642 172.593C289.435 171.131 289.736 169.646 290.481 168.369C291.844 166.029 293.868 161.815 293.578 157.795C293.149 151.799 284.117 132.226 284.117 132.226C284.117 132.226 281.98 127.515 276.846 127.515C273.587 127.515 266.019 129.588 260.927 131.099C257.977 131.977 254.819 130.655 253.367 127.937L239.435 100.775C237.7 97.5302 233.624 96.377 230.452 98.2311C227.844 99.7535 226.632 102.878 227.527 105.764L242.366 153.589C243.017 155.692 242.558 157.975 241.151 159.671C239.593 161.548 237.926 164.476 238.404 168.071C239.036 172.815 247.364 177.794 251.677 180.073C253.318 180.94 254.5 182.47 254.94 184.275L256.513 190.753C257.371 194.292 260.965 196.428 264.48 195.494L286.3 189.687C289.476 188.839 291.516 185.749 291.053 182.489Z" fill="white" stroke="black" stroke-miterlimit="10"/>
<path d="M238.689 107.113L232.702 108.967C232.702 108.967 229.424 103.401 232.273 100.975C235.126 98.5477 237.692 104.257 238.689 107.113Z" fill="#DDDDDD"/>
<path d="M239.709 169.68C239.265 167.543 238.761 163.986 239.57 162.43C246.416 174.33 265.489 176.942 265.489 176.942L269.113 192.272L269.534 193.956L264.243 195.373C261.146 196.063 257.871 194.548 256.765 191.043L255.282 184.942C254.868 183.243 254.161 181.422 252.652 180.544C248.41 178.08 240.567 173.807 239.709 169.68Z" fill="#EFEFEF"/>
<path d="M295.815 195.836L254.809 202.363C253.688 202.54 252.63 201.775 252.453 200.652L251.027 191.661C250.85 190.538 251.614 189.479 252.735 189.302L293.741 182.771C294.863 182.594 295.92 183.359 296.097 184.482L297.523 193.473C297.704 194.6 296.936 195.655 295.815 195.836Z" fill="#F1E8E1"/>
<path d="M277.367 198.772L255.2 202.299C253.86 202.514 252.604 201.598 252.389 200.257L251.087 192.049C250.872 190.707 251.787 189.449 253.127 189.234L275.293 185.707C276.633 185.492 277.89 186.408 278.104 187.749L279.406 195.957C279.621 197.298 278.706 198.557 277.367 198.772Z" fill="#DDD3D2"/>
<path d="M256.31 247.957L248.324 199.337L300.247 191.069L309.543 247.957H256.31Z" fill="#222C78"/>
<path d="M256.309 247.957L248.324 199.337L270.068 195.874C275.164 195.064 279.951 198.542 280.76 203.644L288.05 247.957H256.309Z" fill="#10195D"/>
<path d="M63.5039 136.462L62.262 136.138L55.7137 134.974L41.4204 141.086L38.1274 144.696L37.7549 146.464L49.1127 150.824L58.7395 150.477L62.1152 141.681L63.2066 136.711L63.5039 136.462Z" fill="white"/>
</svg>
