<svg width="321" height="311" viewBox="0 0 321 311" fill="none" xmlns="http://www.w3.org/2000/svg">
<g clip-path="url(#clip0_2860_17470)">
<path d="M133.523 75.9024C133.09 75.9024 132.742 75.5487 132.742 75.116C132.742 74.6833 133.093 74.2644 133.523 74.2644C133.955 74.2644 134.303 74.5563 134.303 74.9889V75.116C134.303 75.5487 133.952 75.9024 133.523 75.9024Z" fill="#2E97E6"/>
<path d="M133.523 149.109C133.09 149.109 132.742 148.756 132.742 148.323V148.069C132.742 147.636 133.093 147.282 133.523 147.282C133.955 147.282 134.303 147.636 134.303 148.069V148.323C134.303 148.756 133.952 149.109 133.523 149.109ZM133.523 142.454C133.09 142.454 132.742 142.101 132.742 141.668V141.414C132.742 140.981 133.093 140.628 133.523 140.628C133.955 140.628 134.303 140.981 134.303 141.414V141.668C134.303 142.101 133.952 142.454 133.523 142.454ZM133.523 135.799C133.09 135.799 132.742 135.446 132.742 135.013V134.756C132.742 134.323 133.093 133.969 133.523 133.969C133.955 133.969 134.303 134.323 134.303 134.756V135.013C134.303 135.446 133.952 135.799 133.523 135.799ZM133.523 129.141C133.09 129.141 132.742 128.787 132.742 128.355V128.101C132.742 127.668 133.093 127.314 133.523 127.314C133.955 127.314 134.303 127.668 134.303 128.101V128.355C134.303 128.787 133.952 129.141 133.523 129.141ZM133.523 122.49C133.09 122.49 132.742 122.136 132.742 121.703V121.449C132.742 121.017 133.093 120.663 133.523 120.663C133.955 120.663 134.303 121.017 134.303 121.449V121.703C134.303 122.136 133.952 122.49 133.523 122.49ZM133.523 115.835C133.09 115.835 132.742 115.481 132.742 115.048V114.794C132.742 114.362 133.093 114.008 133.523 114.008C133.955 114.008 134.303 114.362 134.303 114.794V115.048C134.303 115.481 133.952 115.835 133.523 115.835ZM133.523 109.177C133.09 109.177 132.742 108.823 132.742 108.39V108.136C132.742 107.703 133.093 107.35 133.523 107.35C133.955 107.35 134.303 107.703 134.303 108.136V108.39C134.303 108.823 133.952 109.177 133.523 109.177ZM133.523 102.522C133.09 102.522 132.742 102.168 132.742 101.735V101.481C132.742 101.049 133.093 100.695 133.523 100.695C133.955 100.695 134.303 101.049 134.303 101.481V101.735C134.303 102.168 133.952 102.522 133.523 102.522ZM133.523 95.8668C133.09 95.8668 132.742 95.5131 132.742 95.0804V94.8263C132.742 94.3937 133.093 94.04 133.523 94.04C133.955 94.04 134.303 94.3937 134.303 94.8263V95.0804C134.303 95.5131 133.952 95.8668 133.523 95.8668ZM133.523 89.2154C133.09 89.2154 132.742 88.8617 132.742 88.429V88.1715C132.742 87.7388 133.093 87.3851 133.523 87.3851C133.955 87.3851 134.303 87.7388 134.303 88.1715V88.429C134.303 88.8617 133.952 89.2154 133.523 89.2154ZM133.523 82.5571C133.09 82.5571 132.742 82.2034 132.742 81.7707V81.5166C132.742 81.0839 133.093 80.7302 133.523 80.7302C133.955 80.7302 134.303 81.0839 134.303 81.5166V81.7707C134.303 82.2034 133.952 82.5571 133.523 82.5571Z" fill="#2E97E6"/>
<path d="M133.523 155.633C133.09 155.633 132.742 155.28 132.742 154.847C132.742 154.414 133.093 153.999 133.523 153.999C133.955 153.999 134.303 154.287 134.303 154.72V154.847C134.303 155.28 133.952 155.633 133.523 155.633Z" fill="#2E97E6"/>
<path d="M206.928 76.1702C206.495 76.1702 206.147 75.8165 206.147 75.3838C206.147 74.9511 206.498 74.5356 206.928 74.5356C207.361 74.5356 207.708 74.8241 207.708 75.2568V75.3838C207.708 75.8165 207.357 76.1702 206.928 76.1702Z" fill="#2E97E6"/>
<path d="M206.928 149.377C206.495 149.377 206.147 149.023 206.147 148.59V148.336C206.147 147.904 206.498 147.55 206.928 147.55C207.361 147.55 207.708 147.904 207.708 148.336V148.59C207.708 149.023 207.357 149.377 206.928 149.377ZM206.928 142.722C206.495 142.722 206.147 142.368 206.147 141.936V141.681C206.147 141.249 206.498 140.895 206.928 140.895C207.361 140.895 207.708 141.249 207.708 141.681V141.936C207.708 142.368 207.357 142.722 206.928 142.722ZM206.928 136.067C206.495 136.067 206.147 135.713 206.147 135.281V135.023C206.147 134.59 206.498 134.237 206.928 134.237C207.361 134.237 207.708 134.59 207.708 135.023V135.281C207.708 135.713 207.357 136.067 206.928 136.067ZM206.928 129.409C206.495 129.409 206.147 129.055 206.147 128.622V128.368C206.147 127.936 206.498 127.582 206.928 127.582C207.361 127.582 207.708 127.936 207.708 128.368V128.622C207.708 129.055 207.357 129.409 206.928 129.409ZM206.928 122.754C206.495 122.754 206.147 122.4 206.147 121.968V121.713C206.147 121.281 206.498 120.927 206.928 120.927C207.361 120.927 207.708 121.281 207.708 121.713V121.968C207.708 122.404 207.357 122.754 206.928 122.754ZM206.928 116.102C206.495 116.102 206.147 115.749 206.147 115.316V115.062C206.147 114.629 206.498 114.276 206.928 114.276C207.361 114.276 207.708 114.629 207.708 115.062V115.316C207.708 115.749 207.357 116.102 206.928 116.102ZM206.928 109.444C206.495 109.444 206.147 109.09 206.147 108.658V108.404C206.147 107.971 206.498 107.617 206.928 107.617C207.361 107.617 207.708 107.971 207.708 108.404V108.658C207.708 109.09 207.357 109.444 206.928 109.444ZM206.928 102.789C206.495 102.789 206.147 102.436 206.147 102.003V101.749C206.147 101.316 206.498 100.962 206.928 100.962C207.361 100.962 207.708 101.316 207.708 101.749V102.003C207.708 102.436 207.357 102.789 206.928 102.789ZM206.928 96.1344C206.495 96.1344 206.147 95.7807 206.147 95.348V95.0939C206.147 94.6612 206.498 94.3076 206.928 94.3076C207.361 94.3076 207.708 94.6612 207.708 95.0939V95.348C207.708 95.7807 207.357 96.1344 206.928 96.1344ZM206.928 89.4795C206.495 89.4795 206.147 89.1258 206.147 88.6931V88.4356C206.147 88.0029 206.498 87.6492 206.928 87.6492C207.361 87.6492 207.708 88.0029 207.708 88.4356V88.6931C207.708 89.1258 207.357 89.4795 206.928 89.4795ZM206.928 82.8246C206.495 82.8246 206.147 82.4709 206.147 82.0383V81.7842C206.147 81.3515 206.498 80.9978 206.928 80.9978C207.361 80.9978 207.708 81.3515 207.708 81.7842V82.0383C207.708 82.4709 207.357 82.8246 206.928 82.8246Z" fill="#2E97E6"/>
<path d="M206.928 155.901C206.495 155.901 206.147 155.547 206.147 155.115C206.147 154.682 206.498 154.267 206.928 154.267C207.361 154.267 207.708 154.558 207.708 154.991V155.115C207.708 155.547 207.357 155.901 206.928 155.901Z" fill="#2E97E6"/>
<path d="M157.988 71.6175C157.556 71.6175 157.208 71.2638 157.208 70.8311C157.208 70.3984 157.559 69.9795 157.988 69.9795C158.421 69.9795 158.769 70.2679 158.769 70.7006V70.8311C158.769 71.2638 158.421 71.6175 157.988 71.6175Z" fill="#2E97E6"/>
<path d="M157.988 144.821C157.556 144.821 157.208 144.467 157.208 144.034V143.78C157.208 143.348 157.559 142.994 157.988 142.994C158.421 142.994 158.769 143.348 158.769 143.78V144.034C158.769 144.467 158.421 144.821 157.988 144.821ZM157.988 138.166C157.556 138.166 157.208 137.812 157.208 137.379V137.125C157.208 136.693 157.559 136.339 157.988 136.339C158.421 136.339 158.769 136.693 158.769 137.125V137.379C158.769 137.812 158.421 138.166 157.988 138.166ZM157.988 131.511C157.556 131.511 157.208 131.157 157.208 130.725V130.467C157.208 130.034 157.559 129.681 157.988 129.681C158.421 129.681 158.769 130.034 158.769 130.467V130.725C158.769 131.157 158.421 131.511 157.988 131.511ZM157.988 124.853C157.556 124.853 157.208 124.499 157.208 124.066V123.812C157.208 123.379 157.559 123.026 157.988 123.026C158.421 123.026 158.769 123.379 158.769 123.812V124.066C158.769 124.499 158.421 124.853 157.988 124.853ZM157.988 118.198C157.556 118.198 157.208 117.844 157.208 117.411V117.157C157.208 116.725 157.559 116.371 157.988 116.371C158.421 116.371 158.769 116.725 158.769 117.157V117.411C158.769 117.844 158.421 118.198 157.988 118.198ZM157.988 111.546C157.556 111.546 157.208 111.193 157.208 110.76V110.506C157.208 110.073 157.559 109.719 157.988 109.719C158.421 109.719 158.769 110.073 158.769 110.506V110.76C158.769 111.193 158.421 111.546 157.988 111.546ZM157.988 104.888C157.556 104.888 157.208 104.534 157.208 104.102V103.847C157.208 103.415 157.559 103.061 157.988 103.061C158.421 103.061 158.769 103.415 158.769 103.847V104.102C158.769 104.534 158.421 104.888 157.988 104.888ZM157.988 98.2331C157.556 98.2331 157.208 97.8794 157.208 97.4467V97.1926C157.208 96.76 157.559 96.4063 157.988 96.4063C158.421 96.4063 158.769 96.76 158.769 97.1926V97.4467C158.769 97.8794 158.421 98.2331 157.988 98.2331ZM157.988 91.5782C157.556 91.5782 157.208 91.2245 157.208 90.7919V90.5378C157.208 90.1051 157.559 89.7514 157.988 89.7514C158.421 89.7514 158.769 90.1051 158.769 90.5378V90.7919C158.769 91.2245 158.421 91.5782 157.988 91.5782ZM157.988 84.9233C157.556 84.9233 157.208 84.5697 157.208 84.137V83.8795C157.208 83.4468 157.559 83.0931 157.988 83.0931C158.421 83.0931 158.769 83.4468 158.769 83.8795V84.137C158.769 84.5697 158.421 84.9233 157.988 84.9233ZM157.988 78.2685C157.556 78.2685 157.208 77.9148 157.208 77.4821V77.228C157.208 76.7953 157.559 76.4417 157.988 76.4417C158.421 76.4417 158.769 76.7953 158.769 77.228V77.4821C158.769 77.9148 158.421 78.2685 157.988 78.2685Z" fill="#2E97E6"/>
<path d="M157.988 151.349C157.556 151.349 157.208 150.995 157.208 150.562C157.208 150.13 157.559 149.714 157.988 149.714C158.421 149.714 158.769 150.003 158.769 150.435V150.562C158.769 150.995 158.421 151.349 157.988 151.349Z" fill="#2E97E6"/>
<path d="M182.458 71.346C182.025 71.346 181.678 70.9923 181.678 70.5596C181.678 70.1269 182.029 69.708 182.458 69.708C182.888 69.708 183.239 69.9999 183.239 70.4326V70.5596C183.239 70.9923 182.888 71.346 182.458 71.346Z" fill="#2E97E6"/>
<path d="M182.458 144.553C182.025 144.553 181.678 144.199 181.678 143.767V143.513C181.678 143.08 182.029 142.726 182.458 142.726C182.888 142.726 183.239 143.08 183.239 143.513V143.767C183.239 144.199 182.888 144.553 182.458 144.553ZM182.458 137.898C182.025 137.898 181.678 137.545 181.678 137.112V136.858C181.678 136.425 182.029 136.071 182.458 136.071C182.888 136.071 183.239 136.425 183.239 136.858V137.112C183.239 137.545 182.888 137.898 182.458 137.898ZM182.458 131.243C182.025 131.243 181.678 130.89 181.678 130.457V130.199C181.678 129.767 182.029 129.413 182.458 129.413C182.888 129.413 183.239 129.767 183.239 130.199V130.457C183.239 130.89 182.888 131.243 182.458 131.243ZM182.458 124.585C182.025 124.585 181.678 124.231 181.678 123.799V123.545C181.678 123.112 182.029 122.758 182.458 122.758C182.888 122.758 183.239 123.112 183.239 123.545V123.799C183.239 124.231 182.888 124.585 182.458 124.585ZM182.458 117.93C182.025 117.93 181.678 117.576 181.678 117.144V116.89C181.678 116.457 182.029 116.103 182.458 116.103C182.888 116.103 183.239 116.457 183.239 116.89V117.144C183.239 117.576 182.888 117.93 182.458 117.93ZM182.458 111.279C182.025 111.279 181.678 110.925 181.678 110.492V110.238C181.678 109.806 182.029 109.452 182.458 109.452C182.888 109.452 183.239 109.806 183.239 110.238V110.492C183.239 110.925 182.888 111.279 182.458 111.279ZM182.458 104.62C182.025 104.62 181.678 104.267 181.678 103.834V103.58C181.678 103.147 182.029 102.794 182.458 102.794C182.888 102.794 183.239 103.147 183.239 103.58V103.834C183.239 104.267 182.888 104.62 182.458 104.62ZM182.458 97.9655C182.025 97.9655 181.678 97.6118 181.678 97.1792V96.9251C181.678 96.4924 182.029 96.1387 182.458 96.1387C182.888 96.1387 183.239 96.4924 183.239 96.9251V97.1792C183.239 97.6118 182.888 97.9655 182.458 97.9655ZM182.458 91.3106C182.025 91.3106 181.678 90.957 181.678 90.5243V90.2702C181.678 89.8375 182.029 89.4838 182.458 89.4838C182.888 89.4838 183.239 89.8375 183.239 90.2702V90.5243C183.239 90.957 182.888 91.3106 182.458 91.3106ZM182.458 84.6558C182.025 84.6558 181.678 84.3021 181.678 83.8694V83.6119C181.678 83.1792 182.029 82.8255 182.458 82.8255C182.888 82.8255 183.239 83.1792 183.239 83.6119V83.8694C183.239 84.3021 182.888 84.6558 182.458 84.6558ZM182.458 78.0009C182.025 78.0009 181.678 77.6472 181.678 77.2145V76.9604C181.678 76.5278 182.029 76.1741 182.458 76.1741C182.888 76.1741 183.239 76.5278 183.239 76.9604V77.2145C183.239 77.6472 182.888 78.0009 182.458 78.0009Z" fill="#2E97E6"/>
<path d="M182.458 151.081C182.025 151.081 181.678 150.727 181.678 150.294C181.678 149.862 182.029 149.443 182.458 149.443C182.888 149.443 183.239 149.735 183.239 150.167V150.294C183.239 150.727 182.888 151.081 182.458 151.081Z" fill="#2E97E6"/>
<path d="M221.296 71.4865H115.238C109.683 71.4865 105.137 66.9057 105.137 61.3085V45.7015C105.137 40.1042 109.683 35.5234 115.238 35.5234H221.296C226.851 35.5234 231.397 40.1042 231.397 45.7015V61.3085C231.394 66.9057 226.851 71.4865 221.296 71.4865Z" fill="#1FC9AA"/>
<path d="M203.776 48.6621C214.672 37.6833 214.672 19.8831 203.776 8.90434C192.88 -2.07446 175.214 -2.07446 164.318 8.90433C153.422 19.8831 153.422 37.6833 164.318 48.6621C175.214 59.6409 192.88 59.6409 203.776 48.6621Z" fill="#1FC9AA"/>
<path d="M145.918 49.2658C156.307 49.2658 164.73 40.7794 164.73 30.3108C164.73 19.8422 156.307 11.3557 145.918 11.3557C135.528 11.3557 127.105 19.8422 127.105 30.3108C127.105 40.7794 135.528 49.2658 145.918 49.2658Z" fill="#1FC9AA"/>
<path d="M177.476 35.4991L176.307 36.8177L184.738 36.9379L183.689 28.5077L182.107 30.2865C175.281 25.6336 165.933 26.5882 160.289 32.9443C157.515 36.0691 156.182 39.9597 156.107 43.8572L162.975 43.8469C163.05 41.6046 163.83 39.376 165.428 37.5766C168.533 34.0775 173.553 33.3426 177.476 35.4991Z" fill="white"/>
<path d="M184.543 54.6636C187.317 51.5388 188.65 47.6482 188.725 43.7507L181.858 43.761C181.783 46.0034 181.002 48.232 179.404 50.0313C176.299 53.527 171.279 54.2619 167.357 52.1054L168.526 50.7902L160.091 50.67L161.144 59.1002L162.725 57.3215C169.551 61.9744 178.9 61.0198 184.543 54.6636Z" fill="white"/>
<path d="M81.738 70.0991H74.9492V70.3704H81.738V70.0991Z" fill="#ECECEC"/>
</g>
<path d="M103.132 65.8455H97.6533V66.0622H103.132V65.8455Z" fill="#ECECEC"/>
<path d="M4.15824 240.945C2.40083 244.142 1.35574 247.536 0.970703 250.947L3.92721 251.282C3.56143 254.495 3.85571 257.728 4.73579 260.779L1.88653 261.605C2.86837 264.966 4.49101 268.144 6.71596 270.929L7.23576 270.52L9.04267 269.082C10.9843 271.519 13.4403 273.624 16.3473 275.218L14.9144 277.822C18.1185 279.578 21.5205 280.621 24.9446 280.994L25.2801 278.044C28.4979 278.42 31.7349 278.127 34.7932 277.246L35.621 280.089C38.9901 279.109 42.1804 277.479 44.9719 275.259L44.9608 275.254L44.4328 274.579L43.1237 272.938C45.5659 271.001 47.6698 268.558 49.2677 265.658L51.8777 267.088C53.6379 263.891 54.6885 260.485 55.0625 257.069L52.106 256.734C52.4828 253.524 52.183 250.305 51.3002 247.254L54.1494 246.428C53.1676 243.066 51.5339 239.883 49.309 237.098L46.9795 238.942C45.0379 236.505 42.5901 234.406 39.6831 232.812L41.116 230.208C37.912 228.452 34.4989 227.403 31.0749 227.03L30.7393 229.98C27.5243 229.604 24.2955 229.903 21.2372 230.784L20.4094 227.941C17.0294 228.915 13.8501 230.551 11.0586 232.771L11.0723 232.793L12.2907 234.321L12.9068 235.095C10.4645 237.032 8.35511 239.483 6.76272 242.375L4.15824 240.945ZM16.4903 247.701C19.9886 241.349 27.9836 239.027 34.3504 242.515C40.7282 246.011 43.0549 253.988 39.5566 260.34C36.0528 266.703 28.0579 269.025 21.68 265.529C15.3132 262.041 12.9865 254.064 16.4903 247.701Z" fill="#D2D2D2"/>
<path d="M294.514 197.639C293.015 199.008 291.86 200.608 291.046 202.336L292.542 203.039C291.775 204.666 291.351 206.42 291.269 208.181L289.621 208.11C289.536 210.055 289.822 212.015 290.496 213.878L290.842 213.757L292.05 213.324C292.635 214.951 293.554 216.498 294.797 217.854L293.576 218.971C294.948 220.466 296.552 221.619 298.287 222.425L298.991 220.933C300.617 221.704 302.374 222.126 304.14 222.206L304.068 223.85C306.018 223.935 307.987 223.644 309.852 222.972L309.846 222.966L309.69 222.516L309.294 221.418C310.924 220.834 312.47 219.923 313.829 218.68L314.948 219.898C316.447 218.529 317.608 216.924 318.416 215.192L316.92 214.49C317.693 212.868 318.111 211.12 318.193 209.356L319.841 209.427C319.926 207.482 319.635 205.517 318.963 203.654L317.407 204.211C316.821 202.583 315.908 201.041 314.662 199.686L315.883 198.569C314.511 197.073 312.902 195.915 311.167 195.109L310.462 196.601C308.837 195.83 307.085 195.413 305.317 195.331L305.388 193.687C303.436 193.597 301.469 193.893 299.602 194.563L299.604 194.576L299.973 195.597L300.16 196.113C298.529 196.697 296.978 197.611 295.625 198.852L294.514 197.639ZM299.794 203.39C302.77 200.668 307.396 200.871 310.124 203.84C312.855 206.815 312.654 211.43 309.676 214.15C306.695 216.874 302.069 216.674 299.338 213.699C296.609 210.728 296.813 206.115 299.794 203.39Z" stroke="#D2D2D2" stroke-width="0.695786" stroke-miterlimit="10"/>
<path d="M43.334 298.873V141.427C43.334 140.395 44.1701 139.561 45.2042 139.561H295.837C296.871 139.561 297.707 140.395 297.707 141.427V298.871C297.707 299.902 296.871 300.737 295.837 300.737H45.2042C44.1728 300.739 43.334 299.902 43.334 298.873Z" fill="#2C374A"/>
<path d="M293.035 143.775H48.2686V295.767H293.035V143.775Z" fill="white"/>
<path d="M316.365 301.842V305.821C316.365 306.024 316.354 306.224 316.329 306.419C316.032 308.996 313.837 310.999 311.175 310.999H26.5581C23.8958 310.999 21.7011 308.999 21.4068 306.419C21.3821 306.224 21.3711 306.021 21.3711 305.821V301.842H316.365Z" fill="#2C374A"/>
<path d="M316.329 306.42C316.032 308.997 313.837 311 311.175 311H26.5575C23.8952 311 21.7005 309 21.4062 306.42H316.329Z" fill="#2C374A"/>
<path d="M222.127 98.0026C222.097 97.9697 222.061 97.9367 222.031 97.9038C209.058 111.769 188.357 123.132 166.207 127.973C166.198 129.449 166.163 137.626 165.995 175.321C165.769 225.605 213.734 250.175 221.179 253.945C199.303 165.593 216.44 112.154 222.127 98.0026Z" fill="#176CFF"/>
<path d="M222.127 98.0022C216.439 112.153 199.303 165.593 221.178 253.945C228.392 250.633 276.961 226.099 277.187 175.814C277.354 138.12 277.393 129.943 277.398 128.466C255.344 123.439 234.981 111.936 222.127 98.0022Z" fill="#176CFF"/>
<path d="M221.145 255.674L220.472 255.334C205.882 247.944 195.631 239.205 189.606 233.173C172.807 216.366 164.339 196.9 164.435 175.31L164.512 157.828C164.614 134.913 164.642 129.175 164.644 127.962L164.65 126.713L165.871 126.447C187.37 121.75 207.936 110.68 220.887 96.8365L222.028 95.6182L223.274 96.9435C236.137 110.889 256.5 122.103 277.745 126.944L278.966 127.221L278.961 128.47C278.953 129.946 278.917 138.123 278.749 175.818C278.515 227.828 227.633 252.692 221.833 255.356L221.145 255.674ZM167.763 129.219C167.752 131.944 167.719 139.221 167.634 157.844L167.557 175.327C167.359 219.492 204.46 243.592 221.209 252.209C229.289 248.359 275.408 224.261 275.625 175.807C275.768 143.916 275.815 133.151 275.831 129.699C254.998 124.71 235.081 113.773 222.023 100.165C208.866 113.63 188.792 124.387 167.763 129.219Z" fill="#176CFF"/>
<path d="M221.259 244.975L220.398 244.528C215.183 241.822 204.986 235.843 195.274 226.198C180.385 211.413 172.876 194.331 172.962 175.422L173.149 133.795L174.551 133.433C192.475 128.82 208.825 120.35 220.588 109.582L221.913 108.366L223.184 109.637L221.96 111.056L223.239 109.686C234.903 120.517 251.137 129.103 268.959 133.856L270.359 134.226L270.172 175.856C270.089 194.762 262.43 211.778 247.405 226.431C237.911 235.692 227.934 241.517 222.832 244.168L221.259 244.975ZM176.886 136.688L176.713 175.439C176.633 193.308 183.767 209.492 197.923 223.541C206.77 232.33 216.041 237.961 221.272 240.752C226.234 238.159 235.736 232.572 244.779 223.753C259.058 209.827 266.338 193.706 266.418 175.837L266.591 137.088C249.319 132.267 233.539 123.944 221.847 113.484C210.062 123.835 194.213 132.02 176.886 136.688ZM221.944 111.056L221.952 111.047L221.944 111.056Z" fill="#4688F9"/>
<path d="M199.49 168.496V201.501C199.49 205.175 244.465 205.175 244.465 201.501V168.496H199.49ZM224.251 186.022V195.377C224.251 196.622 223.236 197.657 221.987 197.657C220.717 197.657 219.702 196.622 219.702 195.377V186C217.777 185.133 216.421 183.19 216.421 180.954C216.421 177.892 218.918 175.422 221.987 175.422C225.056 175.422 227.532 177.892 227.532 180.954C227.532 183.212 226.198 185.155 224.251 186.022Z" fill="white"/>
<path d="M240.526 166.142H235.974V163.919C235.974 156.22 229.695 149.955 221.978 149.955C214.261 149.955 207.982 156.22 207.982 163.919V166.142H203.431V163.919C203.431 153.714 211.753 145.411 221.981 145.411C232.209 145.411 240.529 153.714 240.529 163.919V166.142H240.526Z" fill="white"/>
<path d="M145.296 223.527H74.0264V237.582H145.296V223.527Z" fill="white"/>
<path d="M88.2728 234.11C89.9725 234.11 91.3504 232.735 91.3504 231.04C91.3504 229.344 89.9725 227.969 88.2728 227.969C86.5732 227.969 85.1953 229.344 85.1953 231.04C85.1953 232.735 86.5732 234.11 88.2728 234.11Z" fill="#1A2E35"/>
<path d="M98.8217 234.109C100.521 234.109 101.899 232.734 101.899 231.039C101.899 229.343 100.521 227.968 98.8217 227.968C97.122 227.968 95.7441 229.343 95.7441 231.039C95.7441 232.734 97.122 234.109 98.8217 234.109Z" fill="#1A2E35"/>
<path d="M109.369 234.109C111.068 234.109 112.446 232.734 112.446 231.039C112.446 229.343 111.068 227.968 109.369 227.968C107.669 227.968 106.291 229.343 106.291 231.039C106.291 232.734 107.669 234.109 109.369 234.109Z" fill="#1A2E35"/>
<path d="M122.993 231.039C122.993 232.734 121.615 234.109 119.915 234.109C118.216 234.109 116.838 232.734 116.838 231.039C116.838 229.343 118.216 227.968 119.915 227.968C121.615 227.971 122.993 229.346 122.993 231.039Z" fill="#1A2E35"/>
<path d="M130.465 234.109C132.165 234.109 133.543 232.734 133.543 231.039C133.543 229.343 132.165 227.968 130.465 227.968C128.766 227.968 127.388 229.343 127.388 231.039C127.388 232.734 128.766 234.109 130.465 234.109Z" fill="#1A2E35"/>
<path d="M145.296 204.883H74.0264V218.938H145.296V204.883Z" fill="white"/>
<path d="M88.2728 215.464C89.9725 215.464 91.3504 214.09 91.3504 212.394C91.3504 210.698 89.9725 209.323 88.2728 209.323C86.5732 209.323 85.1953 210.698 85.1953 212.394C85.1953 214.09 86.5732 215.464 88.2728 215.464Z" fill="#1A2E35"/>
<path d="M98.8207 215.465C100.52 215.465 101.898 214.09 101.898 212.394C101.898 210.698 100.52 209.323 98.8207 209.323C97.121 209.323 95.7432 210.698 95.7432 212.394C95.7432 214.09 97.121 215.465 98.8207 215.465Z" fill="#1A2E35"/>
<path d="M109.368 215.465C111.067 215.465 112.445 214.09 112.445 212.394C112.445 210.698 111.067 209.323 109.368 209.323C107.668 209.323 106.29 210.698 106.29 212.394C106.29 214.09 107.668 215.465 109.368 215.465Z" fill="#1A2E35"/>
<path d="M122.993 212.394C122.993 214.09 121.615 215.465 119.915 215.465C118.216 215.465 116.838 214.09 116.838 212.394C116.838 210.698 118.216 209.323 119.915 209.323C121.615 209.326 122.993 210.698 122.993 212.394Z" fill="#1A2E35"/>
<path d="M130.465 215.465C132.165 215.465 133.543 214.09 133.543 212.394C133.543 210.698 132.165 209.323 130.465 209.323C128.766 209.323 127.388 210.698 127.388 212.394C127.388 214.09 128.766 215.465 130.465 215.465Z" fill="#1A2E35"/>
<path d="M121.916 257.34H96.8203C95.7779 257.34 94.9336 256.498 94.9336 255.458V249.451C94.9336 248.411 95.7779 247.569 96.8203 247.569H121.916C122.959 247.569 123.803 248.411 123.803 249.451V255.458C123.803 256.498 122.959 257.34 121.916 257.34Z" fill="#176CFF"/>
<path d="M109.848 199.365C116.179 199.365 121.311 194.244 121.311 187.928C121.311 181.611 116.179 176.49 109.848 176.49C103.517 176.49 98.3848 181.611 98.3848 187.928C98.3848 194.244 103.517 199.365 109.848 199.365Z" fill="white"/>
<path d="M109.864 187.467C110.983 187.467 112.017 186.924 112.677 186.092C113.164 185.491 113.453 184.718 113.453 183.859C113.453 181.883 111.847 180.25 109.867 180.25C107.859 180.25 106.25 181.883 106.25 183.859C106.25 184.718 106.536 185.491 107.026 186.092C107.68 186.924 108.714 187.467 109.864 187.467Z" fill="#005CEA"/>
<path d="M116.216 193.896C116.216 196.173 103.472 196.173 103.472 193.896L103.474 191.242C103.978 187.615 115.179 187.464 116.216 191.242V193.896Z" fill="#005CEA"/>
<defs>
<clipPath id="clip0_2860_17470">
<rect width="156.445" height="155.232" fill="white" transform="translate(74.9492 0.669434)"/>
</clipPath>
</defs>
</svg>
