<svg width="38" height="38" viewBox="0 0 38 38" fill="none" xmlns="http://www.w3.org/2000/svg">
<g clip-path="url(#clip0_8349_2364)">
<rect x="2" y="2" width="34" height="34" rx="17" fill="#E9ECEF"/>
<path fill-rule="evenodd" clip-rule="evenodd" d="M19.226 8.93011C16.8739 8.93011 14.967 10.7915 14.967 13.0877C14.967 15.3839 16.8739 17.2453 19.226 17.2453C21.5782 17.2453 23.485 15.3839 23.485 13.0877C23.485 10.7915 21.5782 8.93011 19.226 8.93011ZM12.4116 13.0877C12.4116 9.41381 15.4626 6.43555 19.226 6.43555C22.9895 6.43555 26.0404 9.41381 26.0404 13.0877C26.0404 16.7616 22.9895 19.7399 19.226 19.7399C15.4626 19.7399 12.4116 16.7616 12.4116 13.0877Z" fill="#176CFF"/>
<path fill-rule="evenodd" clip-rule="evenodd" d="M19.226 24.0823C16.4042 24.0823 13.9562 24.8835 12.2789 26.0531C10.5986 27.2247 9.85619 28.6198 9.85619 29.9029C9.85619 31.186 10.5985 32.5811 12.2789 33.7527C13.9561 34.9223 16.4042 35.7236 19.226 35.7236C22.0478 35.7236 24.4958 34.9224 26.173 33.7528C27.8534 32.5812 28.5958 31.186 28.5958 29.9029C28.5958 28.6198 27.8535 27.2248 26.1731 26.0532C24.496 24.8836 22.0478 24.0823 19.226 24.0823ZM10.7936 24.0232C12.9516 22.5184 15.9329 21.5877 19.226 21.5877C22.5191 21.5877 25.5004 22.5184 27.6584 24.0232C29.8183 25.5291 31.1513 27.6085 31.1513 29.9029C31.1513 32.1974 29.8183 34.2767 27.6584 35.7827C25.5004 37.2875 22.5191 38.2182 19.226 38.2182C15.9329 38.2182 12.9516 37.2875 10.7936 35.7826M10.7936 24.0232C8.63384 25.5291 7.30078 27.6085 7.30078 29.9029C7.30078 32.1974 8.63384 34.2767 10.7936 35.7826" fill="#176CFF"/>
<path d="M29.7789 29.8567C29.7789 33.5306 25.2025 36.5089 19.5573 36.5089C13.912 36.5089 9.33564 33.5306 9.33564 29.8567C9.33564 26.1828 13.912 23.2046 19.5573 23.2046C25.2025 23.2046 29.7789 26.1828 29.7789 29.8567Z" fill="#176CFF"/>
<path d="M24.4788 12.8567C24.4788 15.306 22.1059 17.2915 19.1787 17.2915C16.2515 17.2915 13.8786 15.306 13.8786 12.8567C13.8786 10.4075 16.2515 8.42196 19.1787 8.42196C22.1059 8.42196 24.4788 10.4075 24.4788 12.8567Z" fill="#176CFF"/>
</g>
<rect x="1" y="1" width="36" height="36" rx="18" stroke="white" stroke-width="2"/>
<defs>
<clipPath id="clip0_8349_2364">
<rect x="2" y="2" width="34" height="34" rx="17" fill="white"/>
</clipPath>
</defs>
</svg>
