<svg width="66" height="38" viewBox="0 0 66 38" fill="none" xmlns="http://www.w3.org/2000/svg">
<g clip-path="url(#clip0_8349_2865)">
<rect x="0.90625" y="2" width="34" height="34" rx="17" fill="#E9ECEF"/>
<path fill-rule="evenodd" clip-rule="evenodd" d="M18.1323 8.93011C15.7801 8.93011 13.8733 10.7915 13.8733 13.0877C13.8733 15.3839 15.7801 17.2453 18.1323 17.2453C20.4844 17.2453 22.3913 15.3839 22.3913 13.0877C22.3913 10.7915 20.4844 8.93011 18.1323 8.93011ZM11.3178 13.0877C11.3178 9.41381 14.3688 6.43555 18.1323 6.43555C21.8957 6.43555 24.9467 9.41381 24.9467 13.0877C24.9467 16.7616 21.8957 19.7399 18.1323 19.7399C14.3688 19.7399 11.3178 16.7616 11.3178 13.0877Z" fill="#ADB5BD"/>
<path fill-rule="evenodd" clip-rule="evenodd" d="M18.1323 24.0823C15.3105 24.0823 12.8625 24.8835 11.1852 26.0531C9.50487 27.2247 8.76244 28.6198 8.76244 29.9029C8.76244 31.186 9.50479 32.5811 11.1851 33.7527C12.8624 34.9223 15.3105 35.7236 18.1323 35.7236C20.9541 35.7236 23.4021 34.9224 25.0793 33.7528C26.7597 32.5812 27.5021 31.186 27.5021 29.9029C27.5021 28.6198 26.7598 27.2248 25.0794 26.0532C23.4022 24.8836 20.9541 24.0823 18.1323 24.0823ZM9.69988 24.0232C11.8579 22.5184 14.8392 21.5877 18.1323 21.5877C21.4254 21.5877 24.4067 22.5184 26.5646 24.0232C28.7245 25.5291 30.0575 27.6085 30.0575 29.9029C30.0575 32.1974 28.7245 34.2767 26.5646 35.7827C24.4067 37.2875 21.4254 38.2182 18.1323 38.2182C14.8392 38.2182 11.8579 37.2875 9.69988 35.7826M9.69988 24.0232C7.54009 25.5291 6.20703 27.6085 6.20703 29.9029C6.20703 32.1974 7.54009 34.2767 9.69988 35.7826" fill="#ADB5BD"/>
<path d="M28.6852 29.8567C28.6852 33.5306 24.1088 36.5089 18.4635 36.5089C12.8183 36.5089 8.24189 33.5306 8.24189 29.8567C8.24189 26.1828 12.8183 23.2046 18.4635 23.2046C24.1088 23.2046 28.6852 26.1828 28.6852 29.8567Z" fill="#ADB5BD"/>
<path d="M23.3851 12.8567C23.3851 15.306 21.0121 17.2915 18.0849 17.2915C15.1578 17.2915 12.7848 15.306 12.7848 12.8567C12.7848 10.4075 15.1578 8.42196 18.0849 8.42196C21.0121 8.42196 23.3851 10.4075 23.3851 12.8567Z" fill="#ADB5BD"/>
</g>
<rect x="1.18006" y="2.27381" width="33.4524" height="33.4524" rx="16.7262" stroke="white" stroke-width="0.547619"/>
<g clip-path="url(#clip1_8349_2865)">
<rect x="29.9062" y="2" width="34" height="34" rx="17" fill="#E9ECEF"/>
<path fill-rule="evenodd" clip-rule="evenodd" d="M47.1323 8.93011C44.7801 8.93011 42.8733 10.7915 42.8733 13.0877C42.8733 15.3839 44.7801 17.2453 47.1323 17.2453C49.4844 17.2453 51.3913 15.3839 51.3913 13.0877C51.3913 10.7915 49.4844 8.93011 47.1323 8.93011ZM40.3178 13.0877C40.3178 9.41381 43.3688 6.43555 47.1323 6.43555C50.8957 6.43555 53.9467 9.41381 53.9467 13.0877C53.9467 16.7616 50.8957 19.7399 47.1323 19.7399C43.3688 19.7399 40.3178 16.7616 40.3178 13.0877Z" fill="#ADB5BD"/>
<path fill-rule="evenodd" clip-rule="evenodd" d="M47.1323 24.0823C44.3105 24.0823 41.8625 24.8835 40.1852 26.0531C38.5049 27.2247 37.7624 28.6198 37.7624 29.9029C37.7624 31.186 38.5048 32.5811 40.1851 33.7527C41.8624 34.9223 44.3105 35.7236 47.1323 35.7236C49.9541 35.7236 52.4021 34.9224 54.0793 33.7528C55.7597 32.5812 56.5021 31.186 56.5021 29.9029C56.5021 28.6198 55.7598 27.2248 54.0794 26.0532C52.4022 24.8836 49.9541 24.0823 47.1323 24.0823ZM38.6999 24.0232C40.8579 22.5184 43.8392 21.5877 47.1323 21.5877C50.4254 21.5877 53.4067 22.5184 55.5646 24.0232C57.7245 25.5291 59.0575 27.6085 59.0575 29.9029C59.0575 32.1974 57.7245 34.2767 55.5646 35.7827C53.4067 37.2875 50.4254 38.2182 47.1323 38.2182C43.8392 38.2182 40.8579 37.2875 38.6999 35.7826M38.6999 24.0232C36.5401 25.5291 35.207 27.6085 35.207 29.9029C35.207 32.1974 36.5401 34.2767 38.6999 35.7826" fill="#ADB5BD"/>
<path d="M57.6852 29.8567C57.6852 33.5306 53.1088 36.5089 47.4635 36.5089C41.8183 36.5089 37.2419 33.5306 37.2419 29.8567C37.2419 26.1828 41.8183 23.2046 47.4635 23.2046C53.1088 23.2046 57.6852 26.1828 57.6852 29.8567Z" fill="#ADB5BD"/>
<path d="M52.3851 12.8567C52.3851 15.306 50.0121 17.2915 47.0849 17.2915C44.1578 17.2915 41.7848 15.306 41.7848 12.8567C41.7848 10.4075 44.1578 8.42196 47.0849 8.42196C50.0121 8.42196 52.3851 10.4075 52.3851 12.8567Z" fill="#ADB5BD"/>
</g>
<rect x="28.9062" y="1" width="36" height="36" rx="18" stroke="white" stroke-width="2"/>
<defs>
<clipPath id="clip0_8349_2865">
<rect x="0.90625" y="2" width="34" height="34" rx="17" fill="white"/>
</clipPath>
<clipPath id="clip1_8349_2865">
<rect x="29.9062" y="2" width="34" height="34" rx="17" fill="white"/>
</clipPath>
</defs>
</svg>
