<svg width="33" height="32" viewBox="0 0 33 32" fill="none" xmlns="http://www.w3.org/2000/svg">
<path d="M1.57292 32H2.17292H15.5063H18.1729H31.5729H32.2396C32.6396 32 32.9062 31.7333 32.9062 31.3333C32.9062 31 32.6396 30.6667 32.3062 30.6667V0.666667C32.3062 0.266667 31.9729 0 31.6396 0H18.2396C17.9062 0 17.5729 0.266667 17.5729 0.666667V30.6667H16.2396V7.86667C16.2396 7.53333 15.9729 7.2 15.5729 7.2H2.23958C1.90625 7.2 1.57292 7.53333 1.57292 7.86667V30.6667C1.17292 30.6667 0.90625 31 0.90625 31.3333C0.90625 31.6667 1.17292 32 1.57292 32ZM25.9062 3.26667H29.3729V7.2H25.9062V3.26667ZM25.9062 10.4667H29.3729V14.4H25.9062V10.4667ZM25.9062 17.6H29.3729V21.5333H25.9062V17.6ZM25.2396 24.8H28.7063V28.7333H25.2396V24.8ZM20.5063 3.26667H23.9729V7.2H20.5063V3.26667ZM20.5063 10.4667H23.9729V14.4H20.5063V10.4667ZM20.5063 17.6H23.9729V21.5333H20.5063V17.6ZM19.8396 24.8H23.3062V28.7333H19.8396V24.8ZM9.83958 10.4667H13.3063V14.4H9.83958V10.4667ZM9.83958 17.6H13.3063V21.5333H9.83958V17.6ZM9.83958 24.8H13.3063V28.7333H9.83958V24.8ZM4.50625 10.4667H7.97292V14.4H4.50625V10.4667ZM4.50625 17.6H7.97292V21.5333H4.50625V17.6ZM4.50625 24.8H7.97292V28.7333H4.50625V24.8Z" fill="#ADB5BD"/>
</svg>
