<svg width="56" height="57" viewBox="0 0 56 57" fill="none" xmlns="http://www.w3.org/2000/svg">
<path d="M24.3353 17.0859H23.773C23.1151 17.0859 22.582 17.5617 22.582 18.1556V22.6873H25.5271V18.1556C25.5271 17.5649 24.9932 17.0859 24.3353 17.0859Z" fill="#98C539"/>
<path d="M32.2298 17.0859H31.6667C31.0105 17.0859 30.4766 17.5617 30.4766 18.1556V22.6873H33.4225V18.1556C33.4208 17.5649 32.8877 17.0859 32.2298 17.0859Z" fill="#98C539"/>
<path d="M27.999 9.16064C16.5622 9.16064 7.25781 18.2668 7.25781 29.4608C7.25878 33.7412 8.64129 37.9119 11.208 41.3776C13.7747 44.8432 17.3945 47.4268 21.5506 48.7595C21.8014 48.8452 22.0673 48.8811 22.3325 48.865C22.5977 48.8489 22.857 48.7813 23.0951 48.6659C23.3333 48.5506 23.5455 48.3899 23.7195 48.1933C23.8934 47.9967 24.0255 47.7681 24.1081 47.5209C24.1906 47.2737 24.222 47.0129 24.2003 46.7537C24.1786 46.4945 24.1042 46.2421 23.9817 46.0114C23.8591 45.7806 23.6907 45.5761 23.4864 45.4099C23.2821 45.2436 23.046 45.1189 22.7918 45.043C20.2791 44.2341 17.9968 42.8564 16.1303 41.022C14.5792 39.5045 13.3498 37.7019 12.5129 35.7178C11.676 33.7337 11.2481 31.6073 11.2537 29.4608C11.2537 20.4228 18.7627 13.0707 27.999 13.0707C37.2353 13.0707 44.7458 20.4228 44.7458 29.4608C44.7521 31.6134 44.3221 33.7458 43.4807 35.7346C42.6393 37.7234 41.4033 39.5292 39.8441 41.0474C38.6288 42.1123 35.6197 44.2572 33.8122 44.2572C32.8837 44.2572 32.1918 43.9709 31.6246 43.358C30.1954 41.7991 29.8811 38.6431 29.8948 36.4443C31.5742 36.3621 33.1571 35.6516 34.3164 34.4597C35.4756 33.2677 36.1226 31.6853 36.1237 30.0397V23.9562H19.8751V30.0397C19.8766 31.6507 20.4967 33.2023 21.6123 34.3868C22.7279 35.5714 24.2576 36.3023 25.8981 36.4348C25.877 39.0515 26.253 43.3485 28.6455 45.9644C29.9661 47.4068 31.7542 48.168 33.813 48.168C37.6768 48.168 42.077 44.3476 42.5631 43.9139L42.6271 43.8544C44.571 41.9729 46.1126 39.7315 47.1621 37.2608C48.2117 34.7901 48.7481 32.1397 48.7401 29.464C48.7401 18.2668 39.4374 9.16461 27.999 9.16461V9.16064Z" fill="#98C539"/>
</svg>
