<svg width="56" height="57" viewBox="0 0 56 57" fill="none" xmlns="http://www.w3.org/2000/svg">
<path d="M23.9493 34.1965C23.4125 34.076 22.9327 33.7773 22.5886 33.3493C22.2446 32.9213 22.0568 32.3894 22.0561 31.8409V30.9112C22.0563 30.7553 22.0712 30.5998 22.1007 30.4467C21.7219 30.3919 21.3396 30.3648 20.9569 30.3658H17.0186C15.2837 30.3571 13.5974 30.9372 12.2373 32.0108C10.8771 33.0844 9.92417 34.5875 9.53516 36.2728H24.386L23.9493 34.1965Z" fill="#0E92BB"/>
<path d="M28.0489 47.7374C27.1029 47.0673 26.4463 46.0654 26.2109 44.9328L25.1368 39.835H9.33203V46.7995C9.33246 47.075 9.4424 47.3391 9.63777 47.534C9.83314 47.7289 10.098 47.8387 10.3744 47.8393H13.746V42.8014C13.746 42.6726 13.7973 42.5491 13.8886 42.4581C13.98 42.367 14.1039 42.3159 14.2331 42.3159C14.3623 42.3159 14.4862 42.367 14.5775 42.4581C14.6689 42.5491 14.7202 42.6726 14.7202 42.8014V47.8393H23.7315V45.5631C23.7315 45.4343 23.7829 45.3109 23.8742 45.2198C23.9656 45.1288 24.0894 45.0776 24.2186 45.0776C24.3478 45.0776 24.4717 45.1288 24.5631 45.2198C24.6544 45.3109 24.7057 45.4343 24.7057 45.5631V47.8393H27.5991C27.7548 47.8393 27.9085 47.8045 28.0489 47.7374Z" fill="#0E92BB"/>
<path d="M42.1814 29.4709C42.1662 29.4717 42.1511 29.4717 42.1359 29.4709C42.0722 29.465 42.0103 29.4467 41.9537 29.4169C41.8971 29.3872 41.847 29.3466 41.8061 29.2975C41.7652 29.2485 41.7345 29.1919 41.7156 29.1309C41.6967 29.07 41.69 29.006 41.6959 28.9425C41.7162 28.7273 41.7259 28.5031 41.7259 28.2765C41.7055 26.335 40.9174 24.4798 39.5327 23.114C38.148 21.7483 36.2786 20.9822 34.3305 20.9822C32.3825 20.9822 30.5131 21.7483 29.1284 23.114C27.7437 24.4798 26.9555 26.335 26.9351 28.2765C26.9351 28.5031 26.9457 28.7273 26.966 28.9425C26.972 29.006 26.9653 29.07 26.9465 29.131C26.9276 29.1919 26.8969 29.2485 26.8561 29.2976C26.8152 29.3467 26.7651 29.3874 26.7085 29.4172C26.652 29.4469 26.5901 29.4653 26.5264 29.4713C26.4627 29.4772 26.3984 29.4706 26.3373 29.4518C26.2762 29.433 26.2193 29.4024 26.1701 29.3617C26.1208 29.321 26.0801 29.2711 26.0502 29.2147C26.0203 29.1583 26.0018 29.0966 25.9958 29.0331C25.9731 28.7904 25.9609 28.5331 25.9609 28.2765C25.9827 26.0783 26.874 23.9774 28.4413 22.4306C30.0085 20.8838 32.125 20.0161 34.3305 20.0161C36.5361 20.0161 38.6526 20.8838 40.2198 22.4306C41.7871 23.9774 42.6784 26.0783 42.7001 28.2765C42.7001 28.5331 42.6888 28.7879 42.666 29.0331C42.6547 29.1539 42.5984 29.266 42.5083 29.3475C42.4181 29.429 42.3006 29.4738 42.1789 29.4733L42.1814 29.4709Z" fill="#0E92BB"/>
<path d="M27.1652 44.7332C27.3405 45.5489 27.7903 46.2803 28.44 46.8061C29.0898 47.3318 29.9004 47.6203 30.7373 47.6236H37.922C38.759 47.6204 39.5696 47.332 40.2194 46.8062C40.8692 46.2805 41.319 45.549 41.4941 44.7332L43.7031 34.2544H24.957L27.1652 44.7332Z" fill="#0E92BB"/>
<path d="M20.9559 29.3901C21.0128 29.3901 21.0696 29.3901 21.1256 29.3901V11.2929C21.1312 11.0094 21.0799 10.7277 20.9749 10.4642C20.8699 10.2008 20.7133 9.9608 20.5141 9.7584C20.315 9.55599 20.0773 9.3952 19.8151 9.28544C19.5528 9.17568 19.2713 9.11914 18.9868 9.11914C18.7024 9.11914 18.4208 9.17568 18.1586 9.28544C17.8964 9.3952 17.6587 9.55599 17.4595 9.7584C17.2604 9.9608 17.1037 10.2008 16.9987 10.4642C16.8937 10.7277 16.8425 11.0094 16.8481 11.2929V29.3901C16.9049 29.3901 16.9617 29.3901 17.0177 29.3901H20.9559Z" fill="#0E92BB"/>
<path d="M9.33203 37.2393V38.8657H24.9322L24.5896 37.2393H9.33203Z" fill="#0E92BB"/>
<path d="M24.4748 29.4712H44.1781C44.562 29.4712 44.9301 29.6232 45.2016 29.8938C45.4731 30.1643 45.6256 30.5313 45.6256 30.9139V31.8437C45.6256 32.2263 45.4731 32.5933 45.2016 32.8639C44.9301 33.1344 44.562 33.2865 44.1781 33.2865H24.4748C24.091 33.2862 23.723 33.1342 23.4515 32.8636C23.1801 32.5931 23.0276 32.2263 23.0273 31.8437V30.9115C23.028 30.5293 23.1808 30.163 23.4522 29.8929C23.7236 29.6229 24.0914 29.4712 24.4748 29.4712Z" fill="#0E92BB"/>
</svg>
