<svg width="56" height="57" viewBox="0 0 56 57" fill="none" xmlns="http://www.w3.org/2000/svg">
<path d="M31.007 18.7884C31.006 18.373 30.9156 17.9626 30.7419 17.5838C30.5682 17.2051 30.315 16.8666 29.9989 16.5905C29.6827 16.3143 29.3108 16.1068 28.9073 15.9814C28.5039 15.8561 28.078 15.8157 27.6576 15.8629C27.2372 15.9101 26.8316 16.0439 26.4675 16.2555C26.1033 16.4671 25.7888 16.7518 25.5444 17.0909C25.3 17.43 25.1313 17.8159 25.0492 18.2234C24.9672 18.6308 24.9737 19.0507 25.0683 19.4556H30.9308C30.982 19.2367 31.0075 19.0129 31.007 18.7884Z" fill="#7E1BBA"/>
<path d="M37.1182 17.3443C36.9145 17.2963 36.7274 17.196 36.5761 17.0538C36.4248 16.9116 36.3147 16.7325 36.257 16.5348C36.0777 15.9252 35.8268 15.3381 35.5092 14.7854C35.4053 14.6042 35.3529 14.3989 35.3575 14.1911C35.362 13.9832 35.4234 13.7804 35.5351 13.6037L36.5494 11.9839L35.0652 10.5525L33.3638 11.5489C33.1862 11.6532 32.9838 11.71 32.7768 11.7137C32.5698 11.7173 32.3655 11.6676 32.1842 11.5696C31.6089 11.259 30.9995 11.0136 30.3677 10.838C30.1662 10.782 29.9834 10.6746 29.8379 10.5267C29.6924 10.3787 29.5896 10.1956 29.5397 9.99588L29.0739 8.14307H26.9528L26.4861 9.98793C26.4354 10.1882 26.3312 10.3715 26.1845 10.5192C26.0377 10.6669 25.8535 10.7736 25.6508 10.8285C25.0198 11.0021 24.4109 11.2456 23.836 11.5545C23.6548 11.6517 23.4509 11.7009 23.2444 11.697C23.0379 11.6931 22.8361 11.6363 22.6588 11.5322L20.9518 10.5287L19.4675 11.96L20.4802 13.5727C20.5917 13.7502 20.6526 13.9537 20.6564 14.1622C20.6602 14.3706 20.607 14.5762 20.5021 14.7575C20.1823 15.3098 19.9294 15.897 19.7486 16.507C19.6903 16.7039 19.5801 16.8822 19.429 17.0238C19.2779 17.1654 19.0913 17.2653 18.8882 17.3133L16.9648 17.7674V19.4516H22.6637C22.5664 18.7078 22.6318 17.9522 22.8553 17.2351C23.0789 16.518 23.4556 15.8559 23.9603 15.2928C24.465 14.7298 25.0862 14.2788 25.7824 13.9699C26.4786 13.6609 27.2339 13.5011 27.9979 13.5011C28.762 13.5011 29.5173 13.6609 30.2135 13.9699C30.9097 14.2788 31.5308 14.7298 32.0356 15.2928C32.5403 15.8559 32.917 16.518 33.1405 17.2351C33.3641 17.9522 33.4295 18.7078 33.3322 19.4516H39.031V17.7968L37.1182 17.3443Z" fill="#7E1BBA"/>
<path d="M7.25781 43.5005V48.0546C7.25803 48.2673 7.34422 48.4713 7.49748 48.6217C7.65074 48.7721 7.85855 48.8567 8.07529 48.857H47.9218C48.1386 48.857 48.3466 48.7724 48.4999 48.622C48.6532 48.4715 48.7393 48.2674 48.7393 48.0546V43.5005H35.8031L34.9013 45.696C34.8129 45.9111 34.6609 46.0954 34.4651 46.2252C34.2692 46.355 34.0383 46.4244 33.8019 46.4244H22.1733C21.9371 46.4243 21.7063 46.3549 21.5106 46.2251C21.3148 46.0953 21.163 45.9111 21.0747 45.696L20.173 43.5005H7.25781Z" fill="#7E1BBA"/>
<path d="M44.7849 21.7827H11.2157C11.0063 21.7829 10.8055 21.8647 10.6574 22.01C10.5093 22.1554 10.426 22.3525 10.4258 22.558V41.1745H20.9752C21.2115 41.1748 21.4423 41.2443 21.6382 41.374C21.834 41.5038 21.986 41.6879 22.0746 41.9029L22.9772 44.0984H33.004L33.9058 41.9029C33.9941 41.6878 34.1459 41.5036 34.3416 41.3738C34.5374 41.244 34.7681 41.1746 35.0044 41.1745H45.5749V22.558C45.5746 22.3525 45.4914 22.1554 45.3433 22.01C45.1952 21.8647 44.9944 21.7829 44.7849 21.7827ZM23.8279 30.1252L19.5193 32.2444L23.8279 34.3644V36.5949L16.6237 32.9537V31.5359L23.8279 27.8938V30.1252ZM27.2614 36.7158H25.0837L29.1508 26.344H31.3383L27.2614 36.7158ZM39.3769 32.9664L32.1728 36.5933V34.3668L36.5113 32.2484L32.1728 30.126V27.8994L39.3769 31.5223V32.9664Z" fill="#7E1BBA"/>
</svg>
