<svg width="56" height="57" viewBox="0 0 56 57" fill="none" xmlns="http://www.w3.org/2000/svg">
<path d="M44.5674 9.94107H40.6236V7.8695C40.6236 6.72724 39.6771 5.80762 38.5235 5.80762C37.37 5.80762 36.4136 6.73692 36.4136 7.8695V9.93139H30.1035V7.8695C30.1035 6.73692 29.157 5.80762 28.0035 5.80762C26.8499 5.80762 25.9034 6.73692 25.9034 7.8695V9.93139H19.5933V7.8695C19.5835 6.73692 18.6468 5.80762 17.4834 5.80762C16.32 5.80762 15.3833 6.73692 15.3833 7.8695V9.93139H11.4396C7.81126 9.94107 4.86328 12.8258 4.86328 16.3881V22.3221H51.1338V16.3881C51.1338 12.8258 48.1957 9.94107 44.5674 9.94107Z" fill="#1FC9AA"/>
<path d="M4.86328 42.7072C4.86328 46.2668 7.81064 49.1492 11.4382 49.1589H44.5589C48.1864 49.1589 51.1239 46.2668 51.1338 42.7072V24.3872H4.86328V42.7072ZM20.2014 34.4081C21.0195 33.6053 22.3503 33.6053 23.1783 34.4081L25.8989 37.0777L32.8287 30.2875C33.6665 29.4944 34.9973 29.5137 35.8056 30.3359C36.5942 31.1387 36.5942 32.4058 35.8056 33.199L27.3972 41.4498C26.5791 42.2526 25.2483 42.2526 24.4203 41.4498L20.2112 37.3196C19.3832 36.5264 19.3832 35.2206 20.2014 34.4081Z" fill="#1FC9AA"/>
</svg>
