<svg width="56" height="57" viewBox="0 0 56 57" fill="none" xmlns="http://www.w3.org/2000/svg">
<path d="M37.7291 12.5367C34.1568 9.56631 29.4603 8.38464 24.9312 9.30732C16.6465 11.0313 11.3121 19.2463 13.0105 27.6475C13.7521 31.3139 15.7694 34.5756 18.6878 36.858C21.3431 38.8329 23.6076 41.3014 25.3538 44.1423L26.5419 46.1495C27.0283 46.9669 28.0729 47.234 28.8782 46.7403C29.1174 46.5946 29.3168 46.3923 29.4603 46.1495L30.6005 44.2151C32.1235 41.5038 34.1967 39.1485 36.6845 37.3113C43.6455 32.4551 45.3998 22.7913 40.6155 15.7256C39.8102 14.5277 38.8374 13.4513 37.7291 12.5286V12.5367ZM28.0011 31.4515C24.2455 31.4515 21.1995 28.3597 21.1995 24.5476C21.1995 20.7355 24.2455 17.6437 28.0011 17.6437C31.7567 17.6437 34.8027 20.7355 34.8027 24.5476C34.8027 28.3597 31.7567 31.4515 28.0011 31.4515Z" fill="#613ACE"/>
</svg>
