<svg width="56" height="57" viewBox="0 0 56 57" fill="none" xmlns="http://www.w3.org/2000/svg">
<path d="M31.3018 15.0568L33.9549 16.881V10.4443H27.0195V16.7357L29.2433 15.0962C30.1725 14.4666 30.9953 14.8524 31.2975 15.0612L31.3018 15.0568Z" fill="#04C7CD"/>
<path d="M3.10938 20.9785H14.8476V24.8204H3.10938V20.9785Z" fill="#04C7CD"/>
<path d="M7.53906 30.3018H14.8472V34.1426H7.53906V30.3018Z" fill="#04C7CD"/>
<path d="M7.53906 11.7998H14.8472V15.6417H7.53906V11.7998Z" fill="#04C7CD"/>
<path d="M17.4688 35.3549H28.5407C28.9385 27.9794 35.0402 22.1023 42.482 22.1023C42.6994 22.1023 42.9168 22.1023 43.1341 22.1176V10.4443H37.5118V20.2748C37.5118 21.6859 35.8901 22.5537 34.7294 21.7558L30.3362 18.7337L26.2963 21.7241C25.1432 22.5767 23.4705 21.7165 23.4705 20.2781V10.4443H17.4688V35.3549Z" fill="#04C7CD"/>
<path d="M42.4827 25.6875C36.7452 25.6875 32.0781 30.3688 32.0781 36.1224C32.0781 41.876 36.7462 46.5573 42.4827 46.5573C48.2193 46.5573 52.8874 41.876 52.8874 36.1224C52.8874 30.3688 48.2203 25.6875 42.4827 25.6875ZM42.9425 40.0736C42.6458 40.3883 42.2462 40.585 41.8171 40.6275C41.3879 40.6701 40.9578 40.5557 40.6057 40.3053L36.8191 37.5728L38.8841 34.6567L41.4057 36.4798L46.8096 30.6377L49.4094 33.0806L42.9425 40.0736Z" fill="#04C7CD"/>
</svg>
