<svg width="56" height="57" viewBox="0 0 56 57" fill="none" xmlns="http://www.w3.org/2000/svg">
<path d="M33.332 41.5672C32.6498 41.8384 31.9471 42.0572 31.2304 42.2216L30.937 45.9726C30.919 46.2036 30.8127 46.4194 30.6395 46.5768C30.4663 46.7342 30.2389 46.8216 30.0029 46.8216H25.9937C25.7579 46.8216 25.5307 46.7343 25.3577 46.577C25.1846 46.4198 25.0784 46.2042 25.0604 45.9734L24.767 42.2232C23.2207 41.8724 21.7451 41.2703 20.4012 40.4418L17.4845 42.8955C17.3054 43.0464 17.0749 43.1252 16.8391 43.1162C16.6032 43.1073 16.3796 43.0112 16.2129 42.8473L13.3795 40.0664C13.2125 39.9023 13.1147 39.6824 13.1059 39.4506C13.0971 39.2188 13.1779 38.9924 13.332 38.8166L15.832 35.9539C14.9901 34.6339 14.3776 33.1858 14.0195 31.6688L10.1987 31.3809C9.96361 31.3636 9.74381 31.2599 9.58316 31.0906C9.42252 30.9212 9.33284 30.6986 9.33203 30.4672V26.5322C9.33197 26.3007 9.42095 26.0778 9.58118 25.9079C9.7414 25.7381 9.96106 25.6339 10.1962 25.6162L14.017 25.3282C14.3744 23.8106 14.9879 22.3622 15.832 21.0432L13.332 18.1837C13.1784 18.0082 13.0979 17.7822 13.1068 17.5509C13.1156 17.3196 13.213 17.1002 13.3795 16.9364L16.2129 14.1554C16.3796 13.9906 16.6037 13.8937 16.8402 13.8843C17.0767 13.8749 17.3081 13.9537 17.4879 14.1047L20.4045 16.5585C21.7492 15.7321 23.2246 15.1311 24.7704 14.7803L25.0637 11.0293C25.0814 10.7979 25.1876 10.5816 25.361 10.4238C25.5344 10.266 25.7622 10.1785 25.9987 10.1787H30.0079C30.2437 10.1787 30.4709 10.266 30.6439 10.4232C30.817 10.5805 30.9231 10.7961 30.9412 11.0269L30.9587 11.2453C30.0025 12.6826 29.4483 14.3414 29.3514 16.0554C29.2546 17.7693 29.6186 19.4782 30.407 21.0104C29.0713 20.5958 27.648 20.5328 26.2796 20.8276C24.9112 21.1224 23.6457 21.7647 22.6097 22.6903C21.5737 23.6159 20.8035 24.7924 20.3761 26.1019C19.9488 27.4114 19.8793 28.8081 20.1746 30.1522C20.4699 31.4964 21.1197 32.7409 22.0589 33.7611C22.9981 34.7814 24.1939 35.5417 25.5265 35.966C26.8591 36.3902 28.2818 36.4636 29.6524 36.1787C31.0229 35.8938 32.2932 35.2606 33.3362 34.3425L33.332 41.5672Z" fill="#FF487B"/>
<path d="M42.6666 22.9891V43.55C42.6666 44.4177 42.3154 45.2498 41.6903 45.8634C41.0652 46.4769 40.2173 46.8216 39.3333 46.8216C38.4492 46.8216 37.6014 46.4769 36.9762 45.8634C36.3511 45.2498 35.9999 44.4177 35.9999 43.55V22.9891C34.8163 22.3973 33.8189 21.5008 33.1146 20.3955C32.4102 19.2902 32.0254 18.0176 32.0012 16.7141C31.9771 15.4106 32.3145 14.1252 32.9775 12.9954C33.6405 11.8657 34.604 10.9342 35.7649 10.3007C35.7895 10.2898 35.8163 10.2849 35.8432 10.2864C35.8701 10.2879 35.8962 10.2958 35.9193 10.3094C35.9424 10.323 35.9618 10.3418 35.9758 10.3644C35.9899 10.3869 35.9981 10.4125 35.9999 10.4389V18.0308L39.3333 19.3395L42.6666 18.0308V10.4389C42.6673 10.4121 42.6749 10.3859 42.6887 10.3627C42.7024 10.3396 42.722 10.3203 42.7455 10.3065C42.7689 10.2928 42.7956 10.2852 42.8229 10.2843C42.8502 10.2834 42.8772 10.2893 42.9016 10.3015C44.0625 10.9349 45.0261 11.8663 45.6891 12.996C46.3521 14.1257 46.6896 15.411 46.6655 16.7145C46.6413 18.018 46.2564 19.2905 45.552 20.3958C44.8476 21.501 43.8502 22.3975 42.6666 22.9891Z" fill="#FF487B"/>
</svg>
