<svg width="56" height="57" viewBox="0 0 56 57" fill="none" xmlns="http://www.w3.org/2000/svg">
<path d="M28.0022 19.7749C26.2441 19.7749 24.5255 20.2866 23.0638 21.2452C21.602 22.2039 20.4627 23.5665 19.7899 25.1607C19.1171 26.7549 18.9411 28.5091 19.2841 30.2015C19.6271 31.8938 20.4736 33.4484 21.7168 34.6685C22.9599 35.8887 24.5438 36.7196 26.268 37.0562C27.9923 37.3929 29.7796 37.2201 31.4038 36.5598C33.028 35.8994 34.4163 34.7812 35.393 33.3465C36.3697 31.9117 36.8911 30.2249 36.8911 28.4994C36.8884 26.1863 35.951 23.9687 34.2846 22.3332C32.6182 20.6976 30.3588 19.7775 28.0022 19.7749ZM33.9797 26.8883L27.2073 33.5355C27.0893 33.6513 26.9493 33.7432 26.7952 33.8059C26.6411 33.8686 26.4759 33.9008 26.3091 33.9008C26.1422 33.9008 25.977 33.8686 25.8229 33.8059C25.6688 33.7432 25.5288 33.6513 25.4109 33.5355L22.0246 30.2119C21.7864 29.9781 21.6526 29.661 21.6526 29.3303C21.6526 28.9996 21.7864 28.6825 22.0246 28.4487C22.2628 28.2149 22.5859 28.0835 22.9228 28.0835C23.2597 28.0835 23.5828 28.2149 23.821 28.4487L26.3091 30.8916L32.1833 25.1251C32.4216 24.8913 32.7446 24.7599 33.0815 24.7599C33.4184 24.7599 33.7415 24.8913 33.9797 25.1251C34.218 25.3589 34.3518 25.676 34.3518 26.0067C34.3518 26.3373 34.218 26.6545 33.9797 26.8883Z" fill="#FFAE10"/>
<path d="M42.3598 15.0045C39.9869 15.0108 37.6363 14.5646 35.4441 13.6917C33.2518 12.8188 31.2615 11.5365 29.5883 9.91912L28.8472 9.20677C28.7361 9.09989 28.6042 9.0151 28.459 8.95725C28.3137 8.8994 28.1581 8.86963 28.0009 8.86963C27.8437 8.86963 27.688 8.8994 27.5428 8.95725C27.3976 9.0151 27.2656 9.09989 27.1545 9.20677L26.4134 9.91912C24.7402 11.5365 22.7499 12.8188 20.5577 13.6917C18.3654 14.5646 16.0148 15.0108 13.6419 15.0045C13.3245 15.0045 13.0202 15.1257 12.7958 15.3414C12.5714 15.5571 12.4453 15.8496 12.4453 16.1547V27.6275C12.4462 32.1278 13.9078 36.5158 16.6264 40.1797C19.345 43.8436 23.1852 46.6008 27.6116 48.0671C27.8641 48.1507 28.1384 48.1507 28.391 48.0671C32.8172 46.6007 36.6572 43.8434 39.3756 40.1795C42.0941 36.5156 43.5556 32.1277 43.5564 27.6275V16.1547C43.5564 15.8496 43.4304 15.5571 43.206 15.3414C42.9816 15.1257 42.6772 15.0045 42.3598 15.0045ZM28.0009 38.7751C22.0626 38.7751 17.2316 34.1314 17.2316 28.4234C17.2316 22.7154 22.0626 18.0717 28.0009 18.0717C33.9391 18.0717 38.7701 22.7154 38.7701 28.4234C38.7701 34.1314 33.9391 38.7751 28.0009 38.7751Z" fill="#FFAE10"/>
</svg>
