<svg width="56" height="57" viewBox="0 0 56 57" fill="none" xmlns="http://www.w3.org/2000/svg">
<path d="M10.1476 27.9991C10.2269 28.1549 10.2682 28.3262 10.2682 28.4999C10.2682 28.6736 10.2269 28.845 10.1476 29.0008L8.6567 31.9523C8.2562 32.7373 8.18857 33.6427 8.46824 34.4753C8.74791 35.3079 9.35275 36.0019 10.1538 36.4093L13.1566 37.9504C13.3156 38.0313 13.4533 38.1465 13.5589 38.2871C13.6645 38.4276 13.7353 38.5898 13.7658 38.761L14.3523 41.9966C14.5052 42.8591 15.0003 43.6298 15.732 44.1446C16.4637 44.6593 17.3742 44.8774 18.2696 44.7524L21.6356 44.2886C21.8134 44.2635 21.9947 44.2783 22.1656 44.3319C22.3365 44.3855 22.4924 44.4764 22.6212 44.5975L25.0641 46.8857C25.7124 47.4972 26.582 47.8394 27.4874 47.8394C28.3929 47.8394 29.2625 47.4972 29.9108 46.8857L32.3489 44.6013C32.4773 44.4796 32.6329 44.3881 32.8036 44.3338C32.9744 44.2796 33.1558 44.2641 33.3337 44.2886L36.6966 44.7486C37.5926 44.8749 38.5041 44.6574 39.2366 44.1425C39.9691 43.6276 40.4645 42.8561 40.6171 41.9928L41.2043 38.758C41.2347 38.5868 41.3054 38.4247 41.4109 38.2842C41.5164 38.1436 41.6539 38.0284 41.8127 37.9474L44.8124 36.4109C45.6133 36.0033 46.2181 35.3093 46.4979 34.4768C46.7776 33.6443 46.7104 32.739 46.3103 31.9538L44.8187 29.003C44.7393 28.8472 44.698 28.6759 44.698 28.5022C44.698 28.3285 44.7393 28.1571 44.8187 28.0013L46.3064 25.0476C46.7069 24.2624 46.7744 23.357 46.4945 22.5244C46.2147 21.6917 45.6097 20.9978 44.8085 20.5905L41.8127 19.0494C41.6539 18.9684 41.5164 18.8532 41.4109 18.7127C41.3054 18.5721 41.2347 18.41 41.2043 18.2388L40.6171 15.0033C40.4791 14.2224 40.0599 13.5138 39.4337 13.0032C38.8075 12.4926 38.0147 12.2128 37.1956 12.2135C37.0287 12.2136 36.8619 12.2249 36.6966 12.2474L33.3337 12.7075C33.156 12.7323 32.9748 12.7173 32.804 12.6636C32.6333 12.6099 32.4776 12.519 32.3489 12.3978L29.9061 10.1141C29.2577 9.50286 28.3881 9.16078 27.4827 9.16078C26.5774 9.16078 25.7078 9.50286 25.0594 10.1141L22.6189 12.3978C22.4901 12.5191 22.3343 12.6101 22.1634 12.6638C21.9925 12.7175 21.8111 12.7325 21.6333 12.7075L18.2696 12.2474C17.3735 12.1212 16.4619 12.3387 15.7293 12.8535C14.9967 13.3684 14.5011 14.1399 14.3484 15.0033L13.7619 18.2388C13.7314 18.4101 13.6606 18.5722 13.555 18.7128C13.4494 18.8533 13.3117 18.9685 13.1527 19.0494L10.153 20.589C9.35197 20.9964 8.74713 21.6904 8.46746 22.523C8.18779 23.3556 8.25541 24.261 8.65592 25.0461L10.1476 27.9991ZM32.0928 38.5382C31.2565 38.5382 30.4391 38.2983 29.7437 37.8489C29.0484 37.3995 28.5065 36.7607 28.1865 36.0134C27.8665 35.266 27.7827 34.4437 27.9459 33.6503C28.109 32.857 28.5117 32.1282 29.103 31.5562C29.6943 30.9842 30.4477 30.5947 31.2679 30.4369C32.0881 30.2791 32.9382 30.3601 33.7108 30.6696C34.4834 30.9792 35.1438 31.5034 35.6084 32.176C36.073 32.8486 36.3209 33.6393 36.3209 34.4482C36.3197 35.5318 35.8745 36.5707 35.0828 37.3373C34.2912 38.104 33.2177 38.5358 32.0975 38.5382H32.0928ZM34.2795 20.3495C34.4971 20.1461 34.7885 20.0335 35.0911 20.036C35.3937 20.0386 35.6831 20.156 35.897 20.363C36.1109 20.57 36.2321 20.85 36.2346 21.1427C36.2371 21.4354 36.1206 21.7173 35.9102 21.9276L20.6906 36.6496C20.5836 36.7532 20.4565 36.8354 20.3165 36.8915C20.1766 36.9476 20.0267 36.9765 19.8752 36.9765C19.7237 36.9766 19.5738 36.9477 19.4338 36.8917C19.2939 36.8357 19.1667 36.7535 19.0596 36.65C18.9525 36.5464 18.8675 36.4234 18.8095 36.2881C18.7515 36.1527 18.7216 36.0077 18.7216 35.8612C18.7216 35.7147 18.7514 35.5696 18.8093 35.4342C18.8672 35.2988 18.9521 35.1758 19.0592 35.0722L34.2795 20.3495ZM22.8727 18.4609C23.7089 18.4609 24.5264 18.7008 25.2217 19.1502C25.917 19.5996 26.459 20.2384 26.779 20.9857C27.099 21.733 27.1827 22.5554 27.0196 23.3488C26.8564 24.1421 26.4538 24.8709 25.8624 25.4429C25.2711 26.0149 24.5177 26.4044 23.6975 26.5622C22.8774 26.72 22.0272 26.639 21.2546 26.3295C20.482 26.0199 19.8217 25.4957 19.3571 24.8231C18.8925 24.1505 18.6445 23.3598 18.6445 22.5509C18.646 21.4666 19.0919 20.4271 19.8845 19.6604C20.6771 18.8937 21.7517 18.4623 22.8727 18.4609Z" fill="#2692FF"/>
<path d="M22.8166 24.4287C23.2268 24.4287 23.6278 24.3093 23.9688 24.0856C24.3099 23.8619 24.5758 23.544 24.7327 23.172C24.8897 22.8001 24.9308 22.3907 24.8508 21.9958C24.7707 21.601 24.5732 21.2382 24.2831 20.9535C23.9931 20.6688 23.6235 20.4749 23.2212 20.3964C22.8189 20.3179 22.4018 20.3582 22.0228 20.5122C21.6438 20.6663 21.3199 20.9272 21.092 21.262C20.8641 21.5968 20.7425 21.9904 20.7425 22.393C20.7431 22.9327 20.9619 23.4501 21.3507 23.8317C21.7395 24.2134 22.2667 24.4281 22.8166 24.4287Z" fill="#2692FF"/>
<path d="M32.1486 36.6431C32.5588 36.6431 32.9599 36.5237 33.301 36.2999C33.6421 36.0762 33.9079 35.7582 34.0649 35.3862C34.2218 35.0142 34.2628 34.6048 34.1827 34.2099C34.1026 33.815 33.905 33.4523 33.6149 33.1676C33.3247 32.8829 32.9551 32.6891 32.5527 32.6107C32.1503 32.5322 31.7333 32.5726 31.3543 32.7268C30.9753 32.881 30.6514 33.1421 30.4236 33.477C30.1958 33.8119 30.0743 34.2055 30.0745 34.6082C30.0752 35.1478 30.2939 35.6651 30.6828 36.0466C31.0716 36.4281 31.5988 36.6426 32.1486 36.6431Z" fill="#2692FF"/>
</svg>
