<svg width="56" height="57" viewBox="0 0 56 57" fill="none" xmlns="http://www.w3.org/2000/svg">
<path d="M27.999 32.7285C27.7566 32.7285 27.5197 32.7974 27.3181 32.9264C27.1166 33.0555 26.9595 33.2389 26.8667 33.4535C26.774 33.6681 26.7497 33.9043 26.797 34.1321C26.8443 34.3599 26.961 34.5692 27.1324 34.7334C27.3038 34.8977 27.5222 35.0095 27.7599 35.0548C27.9977 35.1002 28.2441 35.0769 28.468 34.988C28.692 34.8991 28.8834 34.7486 29.0181 34.5555C29.1527 34.3623 29.2246 34.1352 29.2246 33.903C29.2246 33.5915 29.0955 33.2928 28.8656 33.0725C28.6358 32.8523 28.3241 32.7285 27.999 32.7285Z" fill="#5EAA52"/>
<path d="M37.8057 25.6812H18.1963C17.2215 25.6822 16.2869 26.0537 15.5976 26.7143C14.9083 27.3748 14.5206 28.2704 14.5195 29.2045V43.2979C14.5206 44.232 14.9083 45.1276 15.5976 45.7881C16.2869 46.4487 17.2215 46.8202 18.1963 46.8213H37.8057C38.7805 46.8202 39.7151 46.4487 40.4044 45.7881C41.0937 45.1276 41.4814 44.232 41.4825 43.2979V29.2045C41.4814 28.2704 41.0937 27.3748 40.4044 26.7143C39.7151 26.0537 38.7805 25.6822 37.8057 25.6812ZM29.2266 37.2096V40.949C29.2266 41.2605 29.0975 41.5592 28.8676 41.7795C28.6378 41.9997 28.3261 42.1235 28.001 42.1235C27.676 42.1235 27.3642 41.9997 27.1344 41.7795C26.9045 41.5592 26.7754 41.2605 26.7754 40.949V37.2096C25.9577 36.9325 25.2685 36.3874 24.8296 35.6705C24.3908 34.9536 24.2305 34.1111 24.3772 33.2919C24.5239 32.4727 24.968 31.7296 25.6311 31.1939C26.2943 30.6582 27.1337 30.3644 28.001 30.3644C28.8683 30.3644 29.7078 30.6582 30.3709 31.1939C31.034 31.7296 31.4782 32.4727 31.6248 33.2919C31.7715 34.1111 31.6112 34.9536 31.1724 35.6705C30.7335 36.3874 30.0443 36.9325 29.2266 37.2096Z" fill="#5EAA52"/>
<path d="M28 9.16064C25.4005 9.16334 22.9083 10.1541 21.0702 11.9155C19.232 13.677 18.1981 16.0652 18.1953 18.5562V23.3323H23.0977V18.5562C23.0977 17.3103 23.6142 16.1154 24.5335 15.2344C25.4529 14.3534 26.6998 13.8584 28 13.8584C29.3002 13.8584 30.5471 14.3534 31.4665 15.2344C32.3859 16.1154 32.9024 17.3103 32.9024 18.5562V23.3323H37.8047V18.5562C37.8019 16.0652 36.768 13.677 34.9299 11.9155C33.0918 10.1541 30.5995 9.16334 28 9.16064Z" fill="#5EAA52"/>
</svg>
