<svg width="333" height="251" viewBox="0 0 333 251" fill="none" xmlns="http://www.w3.org/2000/svg">
<circle cx="167.041" cy="125.041" r="125.041" fill="#F0F7FF"/>
<path d="M0 250L332.582 249.956" stroke="black" stroke-width="1.133" stroke-miterlimit="10"/>
<path d="M101.757 7H96.3457V7.21412H101.757V7Z" fill="#ECECEC"/>
<path d="M292.772 240.102H43.8698C42.6175 240.102 41.6016 239.088 41.6016 237.839V80.9848C41.6016 79.7354 42.6175 78.7217 43.8698 78.7217H292.772C294.024 78.7217 295.04 79.7354 295.04 80.9848V237.839C295.04 239.088 294.024 240.102 292.772 240.102Z" fill="#B3D1FF"/>
<path d="M42.6943 237.17V81.6546C42.6943 80.6355 43.5202 79.8115 44.5416 79.8115H292.099C293.121 79.8115 293.946 80.6355 293.946 81.6546V237.167C293.946 238.186 293.121 239.01 292.099 239.01H44.5416C43.5229 239.013 42.6943 238.186 42.6943 237.17Z" fill="black"/>
<path d="M290 84H46.8994V234H290V84Z" fill="#AAE0FF"/>
<path d="M290 84H47V108H290V84Z" fill="#CFE3FF"/>
<path d="M244.273 96.1405C244.273 97.876 242.87 99.281 241.136 99.281C239.403 99.281 238 97.876 238 96.1405C238 94.405 239.403 93 241.136 93C242.87 93 244.273 94.4089 244.273 96.1405Z" fill="#1FC9AA"/>
<path d="M257.93 96.1405C257.93 97.876 256.527 99.281 254.794 99.281C253.06 99.281 251.657 97.876 251.657 96.1405C251.657 94.405 253.06 93 254.794 93C256.527 93 257.93 94.4089 257.93 96.1405Z" fill="#1FC9AA"/>
<path d="M271.587 96.1405C271.587 97.876 270.184 99.281 268.451 99.281C266.718 99.281 265.314 97.876 265.314 96.1405C265.314 94.405 266.718 93 268.451 93C270.18 93 271.587 94.4089 271.587 96.1405Z" fill="#1FC9AA"/>
<path d="M169.863 100H66.132C63.8485 100 62 98.2105 62 96C62 93.7895 63.8485 92 66.132 92H169.868C172.151 92 174 93.7895 174 96C173.995 98.2105 172.146 100 169.863 100Z" fill="white"/>
<path d="M77.3704 108H76.9814V234H77.3704V108Z" fill="#3294CC"/>
<path d="M257.389 108H257V234H257.389V108Z" fill="#3294CC"/>
<path d="M107.389 108H107V234H107.389V108Z" fill="#3294CC"/>
<path d="M137.389 108H137V234H137.389V108Z" fill="#3294CC"/>
<path d="M167.389 108H167V234H167.389V108Z" fill="#3294CC"/>
<path d="M197.389 108H197V234H197.389V108Z" fill="#3294CC"/>
<path d="M227.389 108H227V234H227.389V108Z" fill="#3294CC"/>
<path d="M290 211.684H46.998V211.955H290V211.684Z" fill="#3294CC"/>
<path d="M290 186.724H46.998V186.995H290V186.724Z" fill="#3294CC"/>
<path d="M290 161.76H46.998V162.031H290V161.76Z" fill="#3294CC"/>
<path d="M290 136.8H46.998V137.071H290V136.8Z" fill="#3294CC"/>
<path d="M312.375 240.102V244.032C312.375 244.232 312.364 244.43 312.34 244.622C312.046 247.167 309.878 249.146 307.249 249.146H26.1233C23.4938 249.146 21.326 247.17 21.0353 244.622C21.0109 244.43 21 244.229 21 244.032V240.102H312.375Z" fill="#599AFF"/>
<path d="M312.339 244.624C312.046 247.169 309.878 249.148 307.249 249.148H26.1232C23.4936 249.148 21.3258 247.172 21.0352 244.624H312.339Z" fill="#3358CC"/>
<path d="M62.463 176H34.7793V203.487H62.463V176Z" fill="#7B9EDB"/>
<path d="M70.9991 176H43.3145V203.487H70.9991V176Z" fill="#B5CEFA"/>
<path d="M57.4513 194.331C56.3347 194.336 55.4327 195.238 55.4375 196.347C55.4423 197.455 56.3509 198.35 57.4675 198.346C58.5842 198.341 59.4852 197.439 59.4814 196.33C59.4766 195.221 58.568 194.326 57.4513 194.331Z" fill="#EBF2F9"/>
<path d="M57.4685 184.849C58.5852 184.844 59.4871 183.942 59.4823 182.833C59.4776 181.725 58.569 180.83 57.4523 180.834C56.3356 180.839 55.4337 181.741 55.4385 182.85C55.4423 183.959 56.3519 184.854 57.4685 184.849Z" fill="#EBF2F9"/>
<path d="M66.0881 187.701L48.7607 187.772L48.7775 191.787L66.1049 191.716L66.0881 187.701Z" fill="#EBF2F9"/>
<path d="M21.1333 250H66.9746V203.487H21.1333L21.1333 250Z" fill="#7B9EDB"/>
<path d="M52.8414 203.486H7V250H52.8414V203.486Z" fill="#B5CEFA"/>
<path d="M43.8107 223.345H32.813V212.187H26.1168V223.345H15.1191V230.14H26.1168V241.299H32.813V230.14H43.8107V223.345Z" fill="#EBF2F9"/>
<path d="M52.8418 203.487L66.9757 210.471V203.487H52.8418Z" fill="#5981C7"/>
<g clip-path="url(#clip0)">
<path d="M298.659 85.4293C295.255 84.3157 292.899 85.7203 292.899 85.7203C283.099 86.1185 282.736 96.0224 283.887 99.7087C285.503 104.885 279.787 108.967 286.126 111.061C293.482 113.492 299.655 109.654 299.236 110.906C322.5 112.713 306.401 87.9649 298.659 85.4293Z" fill="#212332"/>
<path d="M287.046 113.378L288.242 133.543C288.239 133.549 288.236 133.555 288.232 133.562C288.204 133.614 288.162 133.692 288.106 133.792C287.994 133.992 287.826 134.281 287.606 134.636C287.167 135.345 286.517 136.313 285.681 137.347C285.478 137.598 285.155 137.76 284.707 137.83C284.259 137.901 283.707 137.876 283.085 137.772C281.84 137.564 280.364 137.049 278.967 136.435C277.572 135.823 276.271 135.119 275.38 134.543C274.931 134.254 274.598 134.004 274.408 133.82C274.369 133.782 274.34 133.75 274.318 133.725C274.333 133.71 274.346 133.696 274.359 133.682C274.407 133.629 274.455 133.565 274.503 133.493C274.6 133.35 274.709 133.16 274.828 132.933C275.067 132.479 275.357 131.857 275.683 131.121C276.198 129.961 276.808 128.505 277.457 126.957C277.632 126.541 277.809 126.119 277.988 125.694C278.833 123.683 279.717 121.611 280.527 119.88C281.342 118.138 282.066 116.777 282.591 116.161C283.579 115.002 284.765 114.288 285.706 113.864C286.177 113.652 286.584 113.513 286.873 113.427C286.937 113.408 286.994 113.392 287.046 113.378Z" fill="#2F7BFF" stroke="black" stroke-width="0.5"/>
<path d="M324.552 236.454C324.552 236.454 327.502 239.108 326.927 240.994C326.352 242.879 323.689 244.135 323.33 246.441C322.97 248.745 321.532 250.003 320.237 250.003C318.941 250.003 314.063 250.003 314.063 250.003C314.063 250.003 313.111 248.382 315.412 247.892C317.714 247.404 318.581 244.695 318.439 242.182C318.295 239.668 318.654 236.316 318.654 236.316L323.545 235.198L324.552 236.454Z" fill="#212332"/>
<path d="M299.59 237.581C299.59 237.581 300.651 248.822 299.357 249.45L282.788 249.417C282.788 249.417 282.788 247.531 285.449 247.113C288.109 246.693 292.785 245.157 293.577 241.736C294.369 238.314 299.59 237.581 299.59 237.581Z" fill="#212332"/>
<path d="M306.802 143.248C306.793 143.252 306.785 143.255 306.78 143.257L298.094 145.356L298.094 145.356L295.099 146.078L285.639 143.293C285.638 143.287 285.636 143.282 285.634 143.276C285.602 143.187 285.556 143.055 285.498 142.883C285.382 142.541 285.218 142.045 285.027 141.427C284.644 140.191 284.151 138.474 283.714 136.545C282.837 132.673 282.194 128.001 283.059 124.662C283.937 121.274 285.047 118.404 285.938 116.382C286.383 115.37 286.773 114.571 287.051 114.026C287.19 113.753 287.302 113.543 287.378 113.403C287.402 113.358 287.423 113.32 287.44 113.289C287.487 113.279 287.55 113.267 287.628 113.252C287.827 113.214 288.126 113.161 288.521 113.1C289.31 112.977 290.485 112.822 292.022 112.691C295.069 112.432 299.538 112.272 305.239 112.664L312.09 126.085C312.092 126.11 312.094 126.144 312.097 126.187C312.103 126.288 312.112 126.438 312.121 126.63C312.141 127.014 312.164 127.569 312.179 128.253C312.21 129.621 312.209 131.501 312.087 133.551C312.009 134.854 311.295 136.407 310.525 137.774C310.143 138.452 309.754 139.075 309.432 139.588L309.412 139.621C309.106 140.109 308.852 140.515 308.746 140.758C308.26 141.865 307.748 142.495 307.37 142.845C307.181 143.02 307.025 143.126 306.919 143.187C306.867 143.218 306.827 143.237 306.802 143.248Z" fill="#2F7BFF" stroke="black" stroke-width="0.5"/>
<path d="M287.5 113.5L286.5 114L284.5 117.5L283 121.5L281.5 126.5L282 129H283.5L286 121L288.5 113.5H287.5Z" fill="#2F7BFF"/>
<path d="M313.167 133.662C313.003 136.392 309.372 139.954 308.975 140.858C307.979 143.126 306.854 143.496 306.854 143.496L298.153 145.599L295.832 142.372C295.832 142.372 309.916 138.51 307.249 126.268L313.167 133.662Z" fill="#163560"/>
<path d="M286.243 145.582H298.739C298.74 145.687 298.741 145.824 298.743 145.992C298.748 146.423 298.758 147.056 298.778 147.869C298.816 149.495 298.891 151.837 299.039 154.704C299.333 160.438 299.916 168.274 301.067 176.679L301.315 176.645L301.067 176.679C302.214 185.048 301.862 200.975 301.22 214.832C300.9 221.756 300.507 228.156 300.195 232.824C300.038 235.158 299.902 237.06 299.805 238.378C299.757 239.037 299.718 239.55 299.691 239.898C299.686 239.968 299.681 240.031 299.677 240.088C299.67 240.172 299.665 240.241 299.661 240.294L299.658 240.332C299.638 240.349 299.613 240.369 299.583 240.393C299.48 240.474 299.314 240.593 299.07 240.734C298.583 241.016 297.785 241.388 296.559 241.729L296.559 241.729C295.709 241.965 294.989 241.91 294.484 241.797C294.231 241.74 294.032 241.669 293.898 241.613C293.831 241.585 293.78 241.561 293.747 241.545C293.731 241.536 293.719 241.53 293.711 241.526L293.704 241.522L293.703 241.521L293.703 241.521L293.703 241.521L293.703 241.521L293.703 241.521L293.697 241.518L293.69 241.515L293.69 241.515L293.689 241.514L293.685 241.512L293.664 241.501C293.645 241.491 293.617 241.476 293.581 241.456C293.509 241.415 293.404 241.355 293.278 241.276C293.023 241.117 292.681 240.883 292.329 240.585C291.616 239.981 290.899 239.142 290.735 238.146L290.489 238.187L290.735 238.146C290.546 237 288.093 219.95 285.724 202.559C284.54 193.864 283.377 185.087 282.53 178.171C282.106 174.713 281.761 171.722 281.532 169.44C281.302 167.147 281.191 165.595 281.228 164.996C281.379 162.534 282.64 157.65 283.875 153.353C284.491 151.211 285.097 149.224 285.549 147.773C285.775 147.048 285.963 146.456 286.094 146.046C286.158 145.847 286.208 145.69 286.243 145.582Z" fill="#212332" stroke="black" stroke-width="0.5"/>
<path d="M289.623 146.574C289.602 146.664 289.573 146.788 289.538 146.941C289.458 147.289 289.347 147.789 289.219 148.4C288.962 149.621 288.641 151.282 288.378 153.04C288.115 154.799 287.912 156.648 287.892 158.251C287.882 159.052 287.918 159.786 288.013 160.412C288.108 161.042 288.261 161.546 288.473 161.9L289.623 146.574ZM289.623 146.574L306.185 145.155C306.238 145.227 306.315 145.332 306.414 145.468C306.613 145.743 306.9 146.144 307.245 146.644C307.937 147.647 308.865 149.05 309.815 150.656C311.721 153.879 313.686 157.877 314.019 161.077C314.266 163.443 314.474 167.977 314.709 173.101C314.796 175.014 314.888 177.009 314.987 179.004C315.349 186.324 315.808 193.661 316.538 196.863C316.856 198.259 317.357 199.929 317.946 201.892C320.053 208.919 323.289 219.706 323.298 235.134C323.282 235.161 323.259 235.199 323.228 235.245C323.157 235.35 323.044 235.499 322.879 235.667C322.552 236.002 322.019 236.415 321.205 236.704C320.673 236.892 319.955 237.077 319.247 237.238C317.951 237.53 316.622 236.905 316.033 235.735C314.236 232.168 310.476 224.632 307.092 217.392C305.4 213.772 303.803 210.228 302.593 207.292C301.988 205.824 301.48 204.511 301.106 203.417C300.731 202.318 300.495 201.457 300.425 200.888L300.177 200.918L289.623 146.574Z" fill="#282B3B" stroke="black" stroke-width="0.5"/>
<path d="M285.298 143.068C285.298 143.068 287.215 144.565 291.026 144.639C295.577 144.729 306.851 143.495 306.851 143.495C306.851 143.495 307.353 144.875 307.333 146.332C307.333 146.332 293.562 149.759 285.582 146.833C285.582 146.833 284.553 144.924 285.298 143.068Z" fill="#163560"/>
<path d="M289.934 148.506C288.789 148.506 287.857 147.467 287.857 146.189C287.857 144.911 288.789 143.872 289.934 143.872C291.079 143.872 292.011 144.911 292.011 146.189C292.011 147.464 291.079 148.506 289.934 148.506ZM289.934 144.548C289.169 144.548 288.545 145.283 288.545 146.187C288.545 147.09 289.169 147.825 289.934 147.825C290.7 147.825 291.323 147.09 291.323 146.187C291.323 145.283 290.7 144.548 289.934 144.548Z" fill="white"/>
<path d="M289.535 129.373L299.505 152.474L279.349 152.659L269.379 129.558L289.535 129.373Z" fill="#1FC9AA" stroke="black" stroke-width="0.5"/>
<path d="M295.842 143.898L296.874 142.082L295.48 140.393L295.452 140.369C295.424 140.345 295.382 140.311 295.33 140.269C295.225 140.184 295.078 140.07 294.909 139.951C294.561 139.708 294.155 139.471 293.838 139.406C293.838 139.406 293.838 139.406 293.838 139.406L295.842 143.898ZM295.842 143.898C295.788 143.909 295.717 143.924 295.631 143.942C295.43 143.984 295.149 144.043 294.83 144.115C294.192 144.258 293.395 144.45 292.772 144.641C292.009 144.875 291.113 144.732 290.294 144.429C289.478 144.126 288.782 143.678 288.433 143.355C288.398 143.323 288.363 143.29 288.326 143.256C287.958 142.917 287.497 142.493 287.174 142.084C286.995 141.858 286.875 141.658 286.829 141.498C286.786 141.349 286.812 141.271 286.873 141.211C286.872 141.212 286.873 141.211 286.874 141.211C286.882 141.206 286.93 141.182 287.063 141.165C287.202 141.148 287.388 141.144 287.616 141.15C287.87 141.156 288.153 141.173 288.462 141.191C288.719 141.206 288.993 141.223 289.284 141.235C289.909 141.261 290.58 141.266 291.198 141.189C291.812 141.113 292.402 140.952 292.844 140.624L293.343 140.254L292.763 140.18L295.842 143.898Z" fill="white" stroke="black" stroke-width="0.5"/>
<path d="M270.728 133.646L270.737 133.639L270.744 133.63L270.744 133.63L270.744 133.63L270.744 133.63L270.744 133.63L270.746 133.628L270.756 133.618C270.764 133.608 270.777 133.594 270.795 133.576C270.829 133.54 270.88 133.489 270.944 133.43C271.072 133.31 271.249 133.161 271.447 133.033C271.647 132.903 271.853 132.807 272.043 132.777C272.224 132.748 272.383 132.779 272.524 132.898C272.642 132.997 272.732 133.243 272.738 133.647C272.744 134.032 272.671 134.492 272.548 134.927C272.424 135.364 272.255 135.755 272.08 136.008C271.992 136.137 271.913 136.213 271.854 136.249C271.805 136.278 271.788 136.271 271.783 136.268C271.782 136.268 271.782 136.268 271.782 136.268L271.782 136.268C271.651 136.209 271.487 136.051 271.317 135.795C271.152 135.548 271.002 135.238 270.888 134.923C270.773 134.607 270.699 134.296 270.679 134.048C270.669 133.923 270.674 133.824 270.688 133.751C270.703 133.675 270.724 133.65 270.728 133.646Z" fill="white" stroke="black" stroke-width="0.5"/>
<path d="M301.262 123.954L301.263 123.954C302.754 125.425 304.04 126.68 305.148 127.761C307.1 129.666 308.495 131.028 309.47 132.063C310.99 133.675 311.559 134.559 311.586 135.545M301.262 123.954L311.336 135.552M301.262 123.954C301.038 123.733 300.909 123.408 300.876 122.974C300.843 122.539 300.909 122.016 301.055 121.428C301.347 120.255 301.947 118.88 302.623 117.56C303.299 116.243 304.045 114.994 304.622 114.072C304.911 113.612 305.157 113.234 305.331 112.971C305.412 112.85 305.477 112.753 305.524 112.684C305.564 112.688 305.613 112.694 305.67 112.702C305.858 112.726 306.132 112.769 306.469 112.839C307.144 112.98 308.072 113.233 309.081 113.681C311.097 114.575 313.426 116.241 314.718 119.336M301.262 123.954L314.718 119.336M311.586 135.545L311.336 135.552M311.586 135.545C311.586 135.545 311.586 135.545 311.586 135.545L311.336 135.552M311.586 135.545C311.589 135.656 311.538 135.744 311.496 135.8C311.451 135.86 311.393 135.914 311.331 135.963C311.207 136.063 311.035 136.169 310.829 136.28C310.416 136.503 309.831 136.766 309.138 137.051C307.75 137.623 305.9 138.297 304.054 138.94C302.206 139.584 300.359 140.198 298.973 140.651C298.28 140.878 297.702 141.065 297.298 141.194C297.096 141.259 296.937 141.31 296.829 141.345L296.705 141.384L296.701 141.385M311.336 135.552C311.363 136.482 296.587 141.159 296.587 141.159M296.701 141.385C296.711 141.378 296.722 141.37 296.732 141.363L296.587 141.159M296.701 141.385C296.074 141.848 295.707 142.57 295.498 143.206C295.393 143.525 295.33 143.815 295.293 144.025C295.286 144.064 295.281 144.099 295.276 144.132C305.601 145.996 311.988 145.44 315.837 144.218C319.724 142.984 320.99 141.085 321.17 140.333C321.418 139.295 321.319 137.867 320.971 136.184C320.624 134.507 320.036 132.607 319.329 130.638C318.268 127.678 316.948 124.582 315.795 121.878C315.412 120.981 315.048 120.128 314.718 119.336M296.701 141.385L296.673 141.394L296.665 141.397L296.663 141.397L296.662 141.397C296.662 141.397 296.662 141.398 296.587 141.159M296.587 141.159L314.718 119.336" fill="#2F7BFF" stroke="black" stroke-width="0.5"/>
<path d="M306 113H305L302.5 114L301 116L299 122.5L299.5 125.5L307 132L307.5 130.5L308 129.5L307.5 128L303 123.5L302 122L305 116L306 113Z" fill="#2F7BFF"/>
<path d="M300.64 112.58L300.641 112.579C300.64 112.58 300.663 112.546 300.662 112.418C300.661 112.297 300.641 112.131 300.601 111.911C300.556 111.665 300.493 111.373 300.417 111.025C300.356 110.742 300.286 110.42 300.211 110.054L300.211 110.054C300.191 109.955 300.17 109.852 300.148 109.745C299.862 108.359 299.448 106.348 299.424 104.092L299.276 104.117L299.276 104.117L292.158 105.298C292.161 105.329 292.163 105.364 292.166 105.401C292.182 105.612 292.203 105.912 292.224 106.27C292.267 106.984 292.31 107.93 292.314 108.848L292.314 108.849L292.314 108.849V108.85V108.85V108.85V108.85V108.85V108.85V108.85V108.85V108.85V108.85V108.85V108.851V108.851V108.851V108.851V108.851V108.851V108.851V108.851V108.851V108.851V108.851V108.852V108.852V108.852V108.852V108.852V108.852V108.852V108.852V108.852V108.852V108.852V108.853V108.853V108.853V108.853V108.853V108.853V108.853V108.853V108.853V108.853V108.853V108.853V108.854V108.854V108.854V108.854V108.854V108.854V108.854V108.854V108.854V108.854V108.854V108.855V108.855V108.855V108.855V108.855V108.855V108.855V108.855V108.855V108.855V108.855V108.856V108.856V108.856V108.856V108.856V108.856V108.856V108.856V108.856V108.856V108.856V108.857V108.857V108.857V108.857V108.857V108.857V108.857V108.857V108.857V108.857V108.857V108.858V108.858V108.858V108.858V108.858V108.858V108.858V108.858V108.858V108.858V108.858V108.859V108.859V108.859V108.859V108.859V108.859V108.859V108.859V108.859V108.859V108.859V108.86V108.86V108.86V108.86V108.86V108.86V108.86V108.86V108.86V108.86V108.86V108.86V108.861V108.861V108.861V108.861V108.861V108.861V108.861V108.861V108.861V108.861V108.861V108.862V108.862V108.862V108.862V108.862V108.862V108.862V108.862V108.862V108.862V108.862V108.863V108.863V108.863V108.863V108.863V108.863V108.863V108.863V108.863V108.863V108.863V108.864V108.864V108.864V108.864V108.864V108.864V108.864V108.864V108.864V108.864V108.864V108.865V108.865V108.865V108.865V108.865V108.865V108.865V108.865V108.865V108.865V108.865V108.866V108.866V108.866V108.866V108.866V108.866V108.866V108.866V108.866V108.866V108.866V108.867V108.867V108.867V108.867V108.867V108.867V108.867V108.867V108.867V108.867V108.867V108.867V108.868V108.868V108.868V108.868V108.868V108.868V108.868V108.868V108.868V108.868V108.868V108.869V108.869V108.869V108.869V108.869V108.869V108.869V108.869V108.869V108.869V108.869V108.87V108.87V108.87V108.87V108.87V108.87V108.87V108.87V108.87V108.87V108.87V108.871V108.871V108.871V108.871V108.871V108.871V108.871V108.871V108.871V108.871V108.871V108.872V108.872V108.872V108.872V108.872V108.872V108.872V108.872V108.872V108.872V108.872V108.873V108.873V108.873V108.873V108.873V108.873V108.873V108.873V108.873V108.873V108.873V108.874V108.874V108.874V108.874V108.874V108.874V108.874V108.874V108.874V108.874V108.874V108.874V108.875V108.875V108.875V108.875V108.875V108.875V108.875V108.875V108.875V108.875V108.875V108.876V108.876V108.876V108.876V108.876V108.876V108.876V108.876V108.876V108.876V108.876V108.877V108.877V108.877V108.877V108.877V108.877V108.877V108.877V108.877V108.877V108.877V108.878V108.878V108.878V108.878V108.878V108.878V108.878V108.878V108.878V108.878V108.878V108.879V108.879V108.879V108.879V108.879V108.879V108.879V108.879V108.879V108.879V108.879V108.88V108.88V108.88V108.88V108.88V108.88V108.88V108.88V108.88V108.88V108.88V108.881V108.881V108.881V108.881V108.881V108.881V108.881V108.881V108.881V108.881V108.881V108.881V108.882V108.882V108.882V108.882V108.882V108.882V108.882V108.882V108.882V108.882V108.882V108.883V108.883V108.883V108.883V108.883V108.883V108.883V108.883V108.883V108.883V108.883V108.884V108.884V108.884V108.884V108.884V108.884V108.884V108.884V108.884V108.884V108.884V108.885V108.885V108.885V108.885V108.885V108.885V108.885V108.885V108.885V108.885V108.885V108.886V108.886V108.886V108.886V108.886V108.886V108.886V108.886V108.886V108.886V108.886V108.887V108.887V108.887V108.887V108.887V108.887V108.887V108.887V108.887V108.887V108.887V108.887V108.888V108.888V108.888V108.888V108.888V108.888V108.888V108.888V108.888V108.888V108.888V108.889V108.889V108.889V108.889V108.889V108.889V108.889V108.889V108.889V108.889V108.889V108.89V108.89V108.89V108.89V108.89V108.89V108.89V108.89V108.89V108.89V108.89V108.891V108.891V108.891V108.891V108.891V108.891V108.891V108.891V108.891V108.891V108.891V108.892V108.892V108.892V108.892V108.892V108.892V108.892V108.892V108.892V108.892V108.892V108.893V108.893V108.893V108.893V108.893V108.893V108.893V108.893V108.893V108.893V108.893V108.894V108.894V108.894V108.894V108.894V108.894V108.894V108.894V108.894V108.894V108.894V108.894V108.895V108.895V108.895V108.895V108.895V108.895V108.895V108.895V108.895V108.895H292.064L300.64 112.58ZM300.64 112.58C300.572 112.67 300.44 112.779 300.234 112.896C300.031 113.01 299.771 113.123 299.465 113.228C298.853 113.438 298.073 113.61 297.228 113.7C295.528 113.883 293.62 113.733 292.298 112.969L300.64 112.58Z" fill="white" stroke="black" stroke-width="0.5"/>
<path d="M292 105.268C292 105.268 292.5 108.001 292.5 110.001C296.417 109.901 298.15 105.809 299 104.001L292 105.268Z" fill="#F1F1F1"/>
<path d="M299.881 101.134L299.881 101.133C299.736 100.233 299.627 99.3644 299.524 98.5529C299.459 98.0368 299.397 97.544 299.331 97.0812C299.158 95.8748 298.955 94.8519 298.6 94.0367C298.248 93.2299 297.751 92.6371 296.989 92.274C296.218 91.9067 295.147 91.7604 293.624 91.9113L299.881 101.134ZM299.881 101.134C300.105 102.531 299.706 103.651 298.976 104.558C298.24 105.473 297.163 106.175 296.036 106.705C294.912 107.233 293.755 107.581 292.876 107.798C292.438 107.906 292.07 107.981 291.813 108.029C291.684 108.053 291.583 108.07 291.515 108.081C291.481 108.086 291.454 108.09 291.437 108.093L291.42 108.095C291.191 108.111 290.936 108.018 290.653 107.792C290.367 107.563 290.072 107.215 289.778 106.768C289.19 105.875 288.632 104.633 288.153 103.308C287.675 101.985 287.281 100.593 287.017 99.4049C286.75 98.2058 286.624 97.2476 286.663 96.7786L286.663 96.7783M299.881 101.134L286.663 96.7783M286.663 96.7783C286.745 95.7832 286.985 94.7366 287.921 93.8566M286.663 96.7783L287.921 93.8566M287.921 93.8566C288.865 92.9692 290.555 92.2162 293.624 91.9113L287.921 93.8566Z" fill="white" stroke="black" stroke-width="0.5"/>
<path d="M290.834 104.492L293.93 103.484C293.93 103.484 293.644 105.233 292.697 105.368C291.749 105.502 290.834 104.492 290.834 104.492Z" fill="black"/>
<path d="M290.832 101.212L291.968 103.03L290.931 103.422C290.74 103.493 290.54 103.335 290.568 103.132L290.832 101.212Z" fill="black"/>
<path d="M292.946 98.0184C293.375 98.0949 292.403 97.3114 291.908 97.3998C291.413 97.4882 291.073 97.9098 291.153 98.3396C291.151 98.3407 291.915 97.8372 292.946 98.0184Z" fill="black"/>
<path d="M287.569 100.394C287.353 100.772 287.372 99.5231 287.758 99.1993C288.142 98.8736 288.681 98.8821 288.962 99.2154C288.96 99.2164 288.086 99.4844 287.569 100.394Z" fill="black"/>
<path d="M292.825 100.3C292.97 100.65 292.951 100.99 292.783 101.059C292.616 101.129 292.361 100.902 292.216 100.553C292.071 100.203 292.09 99.8627 292.258 99.7944C292.426 99.7262 292.68 99.9514 292.825 100.3Z" fill="black"/>
<path d="M289.998 101.279C290.137 101.611 290.119 101.937 289.958 102.004C289.796 102.071 289.554 101.854 289.416 101.521C289.277 101.188 289.294 100.863 289.456 100.796C289.618 100.729 289.859 100.946 289.998 101.279Z" fill="black"/>
<path d="M289.203 92.2048C289.203 92.2048 292.951 98.7112 297.149 99.0984C301.35 99.4878 302.928 98.1467 302.928 98.1467C302.928 98.1467 299.442 96.2084 298.115 92.0779C298.115 92.0801 290.654 88.6016 289.203 92.2048Z" fill="#212332"/>
<path d="M289.947 92.6641C289.947 92.6641 288.114 93.688 287.537 95.2172C286.974 96.7115 286.599 98.6323 287.114 100.835C287.114 100.835 284.373 96.4446 286.168 93.4342C288.074 90.2423 289.947 92.6641 289.947 92.6641Z" fill="#212332"/>
</g>
<defs>
<clipPath id="clip0">
<rect width="58" height="165" fill="white" transform="translate(269 85)"/>
</clipPath>
</defs>
</svg>
