<svg width="333" height="308" viewBox="0 0 333 308" fill="none" xmlns="http://www.w3.org/2000/svg">
<circle r="125.041" transform="matrix(-1 0 0 1 165.959 182.046)" fill="#F0F7FF"/>
<path d="M0 307.048L332.582 307.004" stroke="black" stroke-width="1.133" stroke-miterlimit="10"/>
<path d="M131.018 306.71H42.1443C33.2275 306.71 26 299.482 26 290.566V91.1359C26 82.2275 33.2275 75 42.1443 75H131.018C139.935 75 147.154 82.2275 147.154 91.1359V290.566C147.154 299.482 139.926 306.71 131.018 306.71Z" fill="url(#paint0_linear)"/>
<path d="M134.64 300.769H39.0261C33.6895 300.769 29.3613 296.441 29.3613 291.104V90.6071C29.3613 85.2705 33.6895 80.9424 39.0261 80.9424H134.64C139.976 80.9424 144.304 85.2705 144.304 90.6071V291.104C144.304 296.441 139.976 300.769 134.64 300.769Z" fill="white"/>
<g clip-path="url(#clip0)">
<path d="M87.584 163.783C73.8386 163.783 62.6572 152.616 62.6572 138.892C62.6557 125.167 73.8386 114 87.584 114C101.329 114 112.511 125.167 112.511 138.892C112.511 152.618 101.328 163.783 87.584 163.783ZM87.584 115.23C74.5188 115.23 63.8885 125.845 63.8885 138.892C63.8885 151.94 74.5188 162.554 87.584 162.554C100.649 162.554 111.279 151.938 111.279 138.892C111.279 125.845 100.649 115.23 87.584 115.23Z" fill="#E3EAFF"/>
<path d="M100.338 151.629C107.383 144.594 107.383 133.189 100.338 126.154C93.2935 119.119 81.8717 119.119 74.827 126.154C67.7822 133.189 67.7822 144.594 74.827 151.629C81.8717 158.664 93.2935 158.664 100.338 151.629Z" fill="#E3EAFF"/>
<path d="M101.246 146.454C98.5973 151.267 93.4722 154.528 87.5838 154.528C81.6938 154.528 76.5687 151.267 73.9199 146.454C75.5944 143.477 78.2185 141.104 81.3813 139.74C80.0285 138.254 79.2051 136.282 79.2051 134.117C79.2051 129.497 82.9558 125.75 87.5838 125.75C92.2102 125.75 95.9609 129.497 95.9609 134.117C95.9609 136.282 95.1375 138.256 93.7847 139.74C96.9475 141.104 99.5716 143.477 101.246 146.454Z" fill="#2F7BFF"/>
<path d="M120.595 203.452H53.4052C50.4194 203.452 48 201.035 48 198.053V183.861C48 180.88 50.4194 178.464 53.4052 178.464H120.595C123.581 178.464 126 180.88 126 183.861V198.053C126 201.035 123.581 203.452 120.595 203.452Z" fill="#E3EAFF"/>
<path d="M72.2297 187.444V194.474C72.2297 196.369 70.6921 197.904 68.7945 197.904H55.4815C54.7828 197.904 54.1318 197.695 53.5885 197.336C52.6604 196.722 52.0479 195.67 52.0479 194.474V187.444C52.0479 185.549 53.5854 184.014 55.4815 184.014H68.7945C69.5686 184.014 70.2843 184.27 70.8584 184.704C71.691 185.328 72.2297 186.324 72.2297 187.444Z" fill="#79AAFF"/>
<path d="M99.3656 193.817H77.2753C75.6932 193.817 74.4111 192.537 74.4111 190.957C74.4111 189.377 75.6932 188.097 77.2753 188.097H99.3656C100.948 188.097 102.23 189.377 102.23 190.957C102.23 192.537 100.948 193.817 99.3656 193.817Z" fill="#96BCFF"/>
<path d="M119.09 193.817H108.019C106.437 193.817 105.155 192.537 105.155 190.957C105.155 189.377 106.437 188.097 108.019 188.097H119.09C120.672 188.097 121.954 189.377 121.954 190.957C121.953 192.537 120.671 193.817 119.09 193.817Z" fill="#1FC9AA"/>
<path d="M70.8584 184.704L53.5885 197.336C52.6604 196.722 52.0479 195.67 52.0479 194.474V187.444C52.0479 185.549 53.5854 184.014 55.4815 184.014H68.7945C69.5686 184.014 70.2843 184.27 70.8584 184.704Z" fill="#97BDFF"/>
<path d="M67.7629 193.951C67.7629 195.226 66.7286 196.258 65.4527 196.258C64.1768 196.258 63.1426 195.226 63.1426 193.951C63.1426 192.677 64.1768 191.645 65.4527 191.645C66.7286 191.645 67.7629 192.677 67.7629 193.951Z" fill="#4578D0"/>
<path d="M70.506 193.951C70.506 195.226 69.4718 196.258 68.1959 196.258C66.92 196.258 65.8857 195.226 65.8857 193.951C65.8857 192.677 66.92 191.645 68.1959 191.645C69.4718 191.645 70.506 192.677 70.506 193.951Z" fill="#C2CFF8"/>
<path d="M120.595 233.726H53.4052C50.4194 233.726 48 231.31 48 228.329V214.137C48 211.155 50.4194 208.739 53.4052 208.739H120.595C123.581 208.739 126 211.155 126 214.137V228.329C126 231.31 123.581 233.726 120.595 233.726Z" fill="#E3EAFF"/>
<path d="M72.2297 217.718V224.748C72.2297 226.643 70.6921 228.179 68.7945 228.179H55.4815C54.7828 228.179 54.1318 227.97 53.5885 227.61C52.6604 226.997 52.0479 225.944 52.0479 224.748V217.718C52.0479 215.823 53.5854 214.288 55.4815 214.288H68.7945C69.5686 214.288 70.2843 214.545 70.8584 214.978C71.691 215.602 72.2297 216.598 72.2297 217.718Z" fill="#13937C"/>
<path d="M99.3656 224.093H77.2753C75.6932 224.093 74.4111 222.813 74.4111 221.233C74.4111 219.653 75.6932 218.373 77.2753 218.373H99.3656C100.948 218.373 102.23 219.653 102.23 221.233C102.23 222.813 100.948 224.093 99.3656 224.093Z" fill="#96BCFF"/>
<path d="M119.09 224.093H108.019C106.437 224.093 105.155 222.813 105.155 221.233C105.155 219.653 106.437 218.373 108.019 218.373H119.09C120.672 218.373 121.954 219.653 121.954 221.233C121.953 222.813 120.671 224.093 119.09 224.093Z" fill="#1FC9AA"/>
<path d="M70.8584 214.978L53.5885 227.61C52.6604 226.997 52.0479 225.944 52.0479 224.748V217.718C52.0479 215.823 53.5854 214.288 55.4815 214.288H68.7945C69.5686 214.288 70.2843 214.545 70.8584 214.978Z" fill="#1FC9AA"/>
<path d="M65.5242 226.534C66.7995 226.497 67.803 225.434 67.7655 224.161C67.7279 222.887 66.6637 221.885 65.3883 221.922C64.113 221.96 63.1095 223.023 63.147 224.296C63.1845 225.57 64.2488 226.572 65.5242 226.534Z" fill="#1FC9AA"/>
<path d="M70.506 224.225C70.506 225.499 69.4718 226.532 68.1959 226.532C66.92 226.532 65.8857 225.499 65.8857 224.225C65.8857 222.951 66.92 221.918 68.1959 221.918C69.4718 221.918 70.506 222.951 70.506 224.225Z" fill="#188470"/>
<path d="M120.595 264H53.4052C50.4194 264 48 261.584 48 258.602V244.41C48 241.429 50.4194 239.013 53.4052 239.013H120.595C123.581 239.013 126 241.429 126 244.41V258.602C126 261.584 123.581 264 120.595 264Z" fill="#E3EAFF"/>
<path d="M72.2297 248.43V255.46C72.2297 257.355 70.6921 258.891 68.7945 258.891H55.4815C54.7828 258.891 54.1318 258.681 53.5885 258.322C52.6604 257.709 52.0479 256.656 52.0479 255.46V248.43C52.0479 246.535 53.5854 245 55.4815 245H68.7945C69.5686 245 70.2843 245.257 70.8584 245.69C71.691 246.314 72.2297 247.31 72.2297 248.43Z" fill="#79AAFF"/>
<path d="M99.3656 254.803H77.2753C75.6932 254.803 74.4111 253.523 74.4111 251.943C74.4111 250.363 75.6932 249.083 77.2753 249.083H99.3656C100.948 249.083 102.23 250.363 102.23 251.943C102.23 253.523 100.948 254.803 99.3656 254.803Z" fill="#96BCFF"/>
<path d="M119.09 254.803H108.019C106.437 254.803 105.155 253.523 105.155 251.943C105.155 250.363 106.437 249.083 108.019 249.083H119.09C120.672 249.083 121.954 250.363 121.954 251.943C121.953 253.523 120.671 254.803 119.09 254.803Z" fill="#1FC9AA"/>
<path d="M70.8584 245.69L53.5885 258.322C52.6604 257.709 52.0479 256.656 52.0479 255.46V248.43C52.0479 246.535 53.5854 245 55.4815 245H68.7945C69.5686 245 70.2843 245.257 70.8584 245.69Z" fill="#97BDFF"/>
<path d="M67.7629 254.938C67.7629 256.212 66.7286 257.245 65.4527 257.245C64.1768 257.245 63.1426 256.212 63.1426 254.938C63.1426 253.664 64.1768 252.631 65.4527 252.631C66.7286 252.631 67.7629 253.664 67.7629 254.938Z" fill="#4578D0"/>
<path d="M70.506 254.938C70.506 256.212 69.4718 257.245 68.1959 257.245C66.92 257.245 65.8857 256.212 65.8857 254.938C65.8857 253.664 66.92 252.631 68.1959 252.631C69.4718 252.631 70.506 253.664 70.506 254.938Z" fill="#C2CFF8"/>
</g>
<path d="M88.0814 85.8322C88.0814 84.5716 87.0561 83.5547 85.8039 83.5547C84.5433 83.5547 83.5264 84.58 83.5264 85.8322C83.5264 87.0928 84.5517 88.1097 85.8039 88.1097C87.0645 88.1181 88.0814 87.0928 88.0814 85.8322Z" fill="#231854"/>
<path opacity="0.1" d="M49.5567 291.171V90.5308C49.5567 81.9502 56.5154 75 65.0876 75H41.5308C32.9502 75 26 81.9502 26 90.5308V291.171C26 299.751 32.9502 306.702 41.5308 306.702H65.0876C56.5154 306.71 49.5567 299.751 49.5567 291.171Z" fill="#BDCBD7"/>
<path d="M294.018 306.71H205.144C196.228 306.71 189 299.482 189 290.566V91.1359C189 82.2275 196.228 75 205.144 75H294.018C302.935 75 310.154 82.2275 310.154 91.1359V290.566C310.154 299.482 302.926 306.71 294.018 306.71Z" fill="url(#paint1_linear)"/>
<path d="M297.278 300.769H201.665C196.328 300.769 192 296.441 192 291.104V90.6071C192 85.2705 196.328 80.9424 201.665 80.9424H297.278C302.615 80.9424 306.943 85.2705 306.943 90.6071V291.104C306.943 296.441 302.615 300.769 297.278 300.769Z" fill="white"/>
<path d="M210.558 183.711L203 175.299C203 175.299 205.78 169.394 213.942 169.184C219.001 169.054 223.47 164 223.47 164L231.069 172.457C231.069 172.457 226.152 179.387 220.366 179.439C214.246 179.494 210.558 183.711 210.558 183.711Z" fill="#D4DEFF"/>
<path d="M221.358 172.098C222.151 174.265 220.726 176.764 218.175 177.68C215.624 178.596 212.914 177.583 212.121 175.417C211.329 173.25 212.754 170.75 215.305 169.834C217.855 168.918 220.565 169.932 221.358 172.098Z" fill="#C6D1F1"/>
<path d="M279 190.927L284.37 181C284.37 181 290.921 181.555 293.928 189.077C295.793 193.74 302.119 196.16 302.119 196.16L296.72 206.139C296.72 206.139 288.462 203.948 286.422 198.583C284.264 192.908 279 190.927 279 190.927Z" fill="#D4DEFF"/>
<path d="M293.718 196.981C291.938 198.464 289.08 197.997 287.333 195.939C285.587 193.88 285.616 191.01 287.396 189.527C289.177 188.044 292.036 188.511 293.781 190.568C295.526 192.627 295.499 195.499 293.718 196.981Z" fill="#C6D1F1"/>
<path d="M257.455 185.747C273.985 189.691 284.188 206.289 280.244 222.819C276.299 239.349 259.702 249.552 243.172 245.607C226.642 241.663 216.439 225.065 220.383 208.535C224.327 192.005 240.925 181.803 257.455 185.747Z" fill="#1FC9AA" stroke="#EEF2FF" stroke-width="6"/>
<g clip-path="url(#clip1)">
<path d="M232.074 218.958L243.917 232.841C243.917 232.841 254.684 210.916 267.756 199.862C268.089 199.579 267.723 199.062 267.343 199.281C254.716 206.552 241.783 223.843 241.783 223.843L232.282 218.711C232.121 218.622 231.956 218.82 232.074 218.958Z" fill="white"/>
</g>
<path d="M251.081 85.8322C251.081 84.5716 250.056 83.5547 248.804 83.5547C247.543 83.5547 246.526 84.58 246.526 85.8322C246.526 87.0928 247.552 88.1097 248.804 88.1097C250.065 88.1181 251.081 87.0928 251.081 85.8322Z" fill="#231854"/>
<path opacity="0.1" d="M212.557 291.171V90.5308C212.557 81.9502 219.515 75 228.088 75H204.531C195.95 75 189 81.9502 189 90.5308V291.171C189 299.751 195.95 306.702 204.531 306.702H228.088C219.515 306.71 212.557 299.751 212.557 291.171Z" fill="#BDCBD7"/>
<g clip-path="url(#clip2)">
<path d="M251.507 276.612C253.379 282.967 249.742 289.637 243.387 291.509C237.031 293.381 230.361 289.745 228.489 283.389C226.619 277.032 230.255 270.362 236.611 268.492C242.966 266.62 249.636 270.256 251.507 276.612Z" fill="#D4DEFF"/>
<path d="M241.886 289.126L241.241 286.934C239.976 287.284 238.558 287.276 237.639 286.957L237.732 285.35C238.667 285.642 239.917 285.722 241.133 285.363C242.673 284.909 243.453 283.713 243.089 282.477C242.737 281.283 241.674 280.794 239.877 280.616C237.408 280.4 235.745 279.804 235.189 277.916C234.659 276.114 235.537 274.37 237.438 273.457L236.794 271.265L238.139 270.869L238.759 272.974C240.073 272.633 241.066 272.719 241.804 272.903L241.683 274.495C241.15 274.369 240.12 274.153 238.731 274.562C237.06 275.054 236.725 276.238 236.98 277.107C237.312 278.235 238.281 278.562 240.399 278.788C242.903 279.041 244.365 279.838 244.932 281.769C245.437 283.484 244.717 285.442 242.589 286.468L243.254 288.726L241.886 289.126Z" fill="#ACBAE4"/>
</g>
<g clip-path="url(#clip3)">
<path d="M230.173 66.2298C229.459 66.2298 228.88 65.64 228.88 64.9118C228.88 63.8376 228.853 62.7535 228.8 61.6843C228.762 60.9577 229.312 60.3382 230.024 60.3004C230.737 60.2658 231.344 60.8226 231.381 61.5492C231.436 62.6613 231.465 63.7931 231.465 64.9101C231.465 65.64 230.885 66.2298 230.173 66.2298Z" fill="#D5DEFB"/>
<path d="M229.417 56.3013C228.792 56.3013 228.241 55.8367 228.142 55.1876C227.813 53.0441 227.368 50.8957 226.821 48.8001C226.636 48.0966 227.047 47.375 227.737 47.1872C228.426 46.9993 229.134 47.4178 229.318 48.1213C229.888 50.3043 230.352 52.5449 230.695 54.779C230.804 55.4989 230.323 56.1728 229.617 56.2848C229.549 56.2963 229.483 56.3013 229.417 56.3013ZM106.057 56.2453C105.99 56.2453 105.923 56.2403 105.855 56.2288C105.149 56.1151 104.667 55.4413 104.779 54.7213C105.124 52.4856 105.59 50.2466 106.162 48.0636C106.346 47.3602 107.055 46.9433 107.745 47.1311C108.435 47.319 108.843 48.0422 108.659 48.7457C108.11 50.8381 107.664 52.9865 107.333 55.1315C107.231 55.7823 106.682 56.2453 106.057 56.2453ZM226.053 43.4341C225.533 43.4341 225.044 43.1128 224.846 42.5873C224.085 40.5625 223.208 38.5558 222.242 36.6216C221.917 35.9724 222.171 35.18 222.806 34.8488C223.443 34.5177 224.22 34.7763 224.544 35.4238C225.552 37.4404 226.465 39.5327 227.26 41.6432C227.515 42.322 227.182 43.0848 226.517 43.3451C226.363 43.4061 226.207 43.4341 226.053 43.4341ZM109.431 43.3847C109.278 43.3847 109.121 43.3567 108.968 43.2973C108.302 43.0354 107.969 42.2742 108.225 41.5938C109.019 39.4866 109.934 37.3959 110.942 35.3826C111.267 34.7335 112.045 34.4765 112.68 34.8093C113.317 35.1404 113.569 35.9345 113.242 36.582C112.275 38.5146 111.398 40.518 110.635 42.5395C110.44 43.0634 109.95 43.3847 109.431 43.3847ZM220.121 31.567C219.698 31.567 219.284 31.3561 219.037 30.9673C217.879 29.15 216.612 27.3723 215.271 25.6853C214.822 25.1202 214.908 24.2898 215.462 23.8318C216.016 23.3738 216.83 23.4611 217.279 24.0262C218.677 25.7841 219.997 27.636 221.203 29.5306C221.593 30.1402 221.423 30.9574 220.824 31.3544C220.607 31.4994 220.363 31.567 220.121 31.567ZM115.367 31.5307C115.125 31.5307 114.881 31.4615 114.663 31.3165C114.065 30.9195 113.895 30.1023 114.285 29.4927C115.493 27.5997 116.814 25.7495 118.212 23.9933C118.661 23.4282 119.475 23.3408 120.029 23.8005C120.583 24.2585 120.669 25.0889 120.218 25.654C118.877 27.3394 117.609 29.1154 116.451 30.931C116.204 31.3198 115.789 31.5307 115.367 31.5307ZM211.901 21.2188C211.57 21.2188 211.239 21.0903 210.987 20.8317C209.483 19.2978 207.883 17.8266 206.232 16.4591C205.678 16.0011 205.594 15.1708 206.043 14.6057C206.492 14.0406 207.307 13.9532 207.861 14.4129C209.581 15.8364 211.249 17.3702 212.816 18.9683C213.32 19.484 213.32 20.3176 212.816 20.8317C212.562 21.0903 212.231 21.2188 211.901 21.2188ZM123.592 21.1908C123.26 21.1908 122.929 21.0623 122.677 20.8053C122.173 20.2913 122.173 19.456 122.677 18.9419C124.246 17.3438 125.913 15.8116 127.635 14.3882C128.189 13.9302 129.004 14.0175 129.453 14.5826C129.902 15.1477 129.816 15.978 129.262 16.4361C127.609 17.8019 126.008 19.2715 124.504 20.8053C124.254 21.0623 123.923 21.1908 123.592 21.1908ZM201.761 12.8313C201.518 12.8313 201.274 12.7621 201.056 12.6171C199.273 11.4325 197.41 10.3336 195.518 9.34675C194.883 9.0156 194.631 8.22149 194.956 7.57401C195.281 6.92653 196.059 6.66787 196.694 7.00067C198.667 8.02873 200.609 9.17541 202.466 10.4094C203.064 10.8065 203.234 11.6236 202.845 12.2332C202.597 12.6204 202.184 12.8313 201.761 12.8313ZM133.739 12.8082C133.315 12.8082 132.902 12.5973 132.655 12.2085C132.265 11.5989 132.435 10.7817 133.034 10.3847C134.894 9.15069 136.839 8.00566 138.813 6.97761C139.448 6.64645 140.227 6.90347 140.551 7.55259C140.876 8.20007 140.622 8.99418 139.988 9.32533C138.094 10.3106 136.228 11.4095 134.445 12.594C134.225 12.739 133.981 12.8082 133.739 12.8082ZM190.14 6.77661C189.985 6.77661 189.83 6.7486 189.676 6.68764C187.691 5.90836 185.642 5.22958 183.589 4.66942C182.899 4.4816 182.49 3.75834 182.675 3.05484C182.859 2.35135 183.568 1.93452 184.258 2.12234C186.398 2.70721 188.534 3.41565 190.604 4.22788C191.269 4.48984 191.602 5.251 191.345 5.93143C191.15 6.45534 190.66 6.77661 190.14 6.77661ZM145.372 6.75684C144.852 6.75684 144.362 6.43557 144.165 5.91001C143.91 5.23123 144.243 4.46842 144.908 4.20811C146.98 3.39753 149.115 2.69074 151.259 2.10751C151.949 1.9197 152.657 2.33817 152.841 3.04166C153.025 3.74516 152.615 4.46677 151.925 4.65459C149.87 5.2131 147.82 5.89189 145.834 6.66952C145.682 6.72883 145.527 6.75684 145.372 6.75684ZM177.531 3.33163C177.465 3.33163 177.397 3.32668 177.329 3.31515C175.234 2.97906 173.09 2.75005 170.962 2.63802C170.25 2.60013 169.702 1.98065 169.739 1.2541C169.776 0.527536 170.385 -0.030976 171.096 0.00691711C173.314 0.123892 175.547 0.362783 177.731 0.713706C178.436 0.827386 178.917 1.50122 178.807 2.22119C178.705 2.86867 178.156 3.33163 177.531 3.33163ZM157.988 3.32339C157.363 3.32339 156.813 2.85879 156.713 2.20966C156.603 1.48969 157.085 0.815853 157.789 0.703821C159.973 0.354545 162.206 0.118949 164.426 0.00362205C165.138 -0.0326235 165.746 0.525888 165.783 1.25245C165.82 1.97901 165.271 2.59848 164.558 2.63637C162.429 2.74676 160.287 2.97411 158.19 3.30856C158.122 3.31845 158.054 3.32339 157.988 3.32339Z" fill="#D5DEFB"/>
<path d="M105.292 66.2294C104.578 66.2294 104 65.6396 104 64.9114C104 63.7944 104.027 62.6625 104.084 61.5504C104.12 60.8239 104.725 60.2637 105.441 60.3016C106.153 60.3395 106.703 60.9573 106.666 61.6855C106.612 62.7531 106.585 63.8389 106.585 64.913C106.585 65.6396 106.006 66.2294 105.292 66.2294Z" fill="#D5DEFB"/>
<path d="M122.787 66.2296C122.072 66.2296 121.494 65.6398 121.494 64.9116C121.494 63.7847 121.533 62.6462 121.612 61.5259C121.662 60.7993 122.281 60.254 122.993 60.3051C123.706 60.3561 124.242 60.9871 124.19 61.7137C124.116 62.7714 124.079 63.8473 124.079 64.9132C124.079 65.6398 123.501 66.2296 122.787 66.2296Z" fill="#D5DEFB"/>
<path d="M123.809 56.4644C123.718 56.4644 123.626 56.4545 123.534 56.4348C122.836 56.2799 122.394 55.5781 122.545 54.868C123.011 52.6801 123.636 50.507 124.405 48.4113C124.655 47.7292 125.4 47.3833 126.067 47.6386C126.736 47.894 127.075 48.6535 126.825 49.3339C126.1 51.3126 125.51 53.3621 125.071 55.4265C124.94 56.0427 124.405 56.4644 123.809 56.4644ZM211.647 56.4298C211.052 56.4298 210.517 56.0081 210.385 55.3919C209.944 53.3292 209.353 51.2813 208.627 49.3043C208.377 48.6222 208.716 47.8627 209.385 47.6073C210.052 47.352 210.799 47.6979 211.049 48.38C211.818 50.4757 212.445 52.6455 212.912 54.8317C213.063 55.5435 212.621 56.2453 211.925 56.4002C211.829 56.4199 211.737 56.4298 211.647 56.4298ZM128.284 44.2431C128.074 44.2431 127.861 44.1904 127.663 44.0816C127.037 43.7323 126.807 42.9316 127.151 42.2924C128.205 40.3318 129.407 38.4306 130.723 36.6381C131.151 36.0565 131.962 35.9379 132.533 36.3745C133.103 36.8111 133.219 37.6381 132.791 38.2197C131.547 39.9117 130.411 41.7075 129.418 43.5577C129.182 43.9959 128.739 44.2431 128.284 44.2431ZM207.168 44.2217C206.711 44.2217 206.269 43.9745 206.034 43.5363C205.039 41.6878 203.905 39.892 202.661 38.2032C202.233 37.6217 202.348 36.7946 202.918 36.358C203.488 35.9214 204.299 36.0384 204.727 36.62C206.046 38.4092 207.248 40.3104 208.301 42.2693C208.643 42.9069 208.414 43.7093 207.789 44.0586C207.592 44.1689 207.378 44.2217 207.168 44.2217ZM135.958 33.8109C135.626 33.8109 135.295 33.6824 135.043 33.4254C134.539 32.9097 134.539 32.0761 135.043 31.5621C136.594 29.9804 138.271 28.4993 140.025 27.1582C140.597 26.7216 141.407 26.8402 141.835 27.4218C142.263 28.005 142.147 28.8305 141.576 29.2671C139.92 30.5324 138.337 31.9328 136.872 33.4254C136.62 33.6808 136.289 33.8109 135.958 33.8109ZM199.49 33.7961C199.159 33.7961 198.829 33.6676 198.577 33.4106C197.11 31.9179 195.527 30.5192 193.869 29.2539C193.298 28.8173 193.181 27.9919 193.609 27.4086C194.037 26.8254 194.847 26.7084 195.419 27.1434C197.173 28.4828 198.85 29.964 200.403 31.5456C200.908 32.0596 200.908 32.8949 200.404 33.4089C200.152 33.6659 199.821 33.7961 199.49 33.7961ZM146.19 25.9918C145.733 25.9918 145.29 25.7446 145.055 25.3064C144.712 24.6672 144.942 23.8665 145.568 23.5172C147.492 22.443 149.51 21.5023 151.562 20.7213C152.231 20.4676 152.976 20.8136 153.224 21.4957C153.475 22.1777 153.134 22.9372 152.465 23.191C150.528 23.9291 148.625 24.8171 146.807 25.8303C146.614 25.939 146.4 25.9918 146.19 25.9918ZM189.251 25.9802C189.041 25.9802 188.829 25.9275 188.632 25.8188C186.813 24.8055 184.906 23.9175 182.968 23.1811C182.299 22.9274 181.958 22.1679 182.209 21.4858C182.457 20.8037 183.202 20.4561 183.871 20.7114C185.926 21.4924 187.945 22.4331 189.873 23.5073C190.499 23.8566 190.729 24.6573 190.386 25.2965C190.152 25.7315 189.708 25.9802 189.251 25.9802ZM158.165 21.4331C157.57 21.4331 157.034 21.0113 156.903 20.3935C156.751 19.6817 157.195 18.9799 157.892 18.8267C160.031 18.3538 162.226 18.0342 164.418 17.876C165.129 17.825 165.748 18.372 165.798 19.0985C165.848 19.8251 165.312 20.4544 164.599 20.5055C162.53 20.6554 160.455 20.9569 158.438 21.4034C158.347 21.4248 158.255 21.4331 158.165 21.4331ZM177.265 21.4265C177.175 21.4265 177.082 21.4166 176.99 21.3968C174.971 20.952 172.898 20.6521 170.829 20.5039C170.116 20.4528 169.58 19.8234 169.63 19.0969C169.68 18.3703 170.296 17.8233 171.01 17.8744C173.202 18.0309 175.399 18.3489 177.538 18.8201C178.236 18.9733 178.679 19.6751 178.528 20.3869C178.396 21.0047 177.861 21.4265 177.265 21.4265Z" fill="#D5DEFB"/>
<path d="M212.678 66.2295C211.964 66.2295 211.385 65.6396 211.385 64.9114C211.385 63.8455 211.348 62.7697 211.274 61.7119C211.224 60.9854 211.76 60.356 212.471 60.3033C213.185 60.2506 213.8 60.7992 213.852 61.5241C213.93 62.6428 213.97 63.7829 213.97 64.9098C213.97 65.6397 213.39 66.2295 212.678 66.2295Z" fill="#D5DEFB"/>
<path d="M229.945 67.0004C229.94 67.0004 229.936 67.0004 229.929 67.0004C229.68 66.9955 229.446 66.8736 229.297 66.6693L221.049 55.3557C220.782 54.9916 220.856 54.4759 221.215 54.2041C221.572 53.9322 222.078 54.008 222.344 54.3738L229.971 64.8339L237.566 55.219C237.845 54.8647 238.354 54.8087 238.7 55.0937C239.047 55.3788 239.102 55.8977 238.823 56.2503L230.574 66.694C230.42 66.8868 230.188 67.0004 229.945 67.0004Z" fill="#D5DEFB"/>
<path d="M122.761 67.0004C122.756 67.0004 122.751 67.0004 122.745 67.0004C122.494 66.9955 122.262 66.8736 122.113 66.6693L113.864 55.3557C113.597 54.9916 113.672 54.4759 114.03 54.2041C114.387 53.9322 114.893 54.008 115.16 54.3738L122.787 64.8339L130.383 55.219C130.662 54.8647 131.171 54.8087 131.517 55.0937C131.864 55.3788 131.919 55.8977 131.64 56.2503L123.391 66.694C123.236 66.8868 123.005 67.0004 122.761 67.0004Z" fill="#D5DEFB"/>
</g>
<path d="M265.946 139.097L265.945 139.097L250.197 156.913C250.197 156.913 250.197 156.913 250.197 156.913C250.151 156.965 250.075 157 249.999 157C249.93 157 249.855 156.968 249.804 156.911C249.804 156.911 249.804 156.911 249.804 156.911L234.055 139.095L234.049 139.088C234.018 139.054 234 139.01 234 138.954C234 138.931 234.005 138.9 234.021 138.867L234.021 138.865C234.055 138.792 234.138 138.728 234.251 138.728L241.001 138.728L243.001 138.728L243.001 136.728L243.001 112.228C243.001 112.122 243.094 112 243.251 112L256.751 112C256.908 112 257.002 112.122 257.002 112.228L257.002 136.73L257.002 138.73L259.002 138.73L265.752 138.73C265.863 138.73 265.944 138.791 265.979 138.862C266 138.911 266.003 138.954 265.998 138.989C265.992 139.025 265.977 139.062 265.946 139.097Z" fill="#2F7BFF" stroke="#EEF2FF" stroke-width="4"/>
<defs>
<linearGradient id="paint0_linear" x1="106.37" y1="81.9548" x2="65.9672" y2="304.262" gradientUnits="userSpaceOnUse">
<stop offset="0.1781" stop-color="#20215B"/>
<stop offset="0.6516" stop-color="#1B0C36"/>
</linearGradient>
<linearGradient id="paint1_linear" x1="269.37" y1="81.9548" x2="228.967" y2="304.262" gradientUnits="userSpaceOnUse">
<stop offset="0.1781" stop-color="#20215B"/>
<stop offset="0.6516" stop-color="#1B0C36"/>
</linearGradient>
<clipPath id="clip0">
<rect width="78" height="150" fill="white" transform="translate(48 114)"/>
</clipPath>
<clipPath id="clip1">
<rect width="35.8534" height="33.6125" fill="white" transform="translate(232.035 199.232)"/>
</clipPath>
<clipPath id="clip2">
<rect width="24" height="24" fill="white" transform="translate(228 268)"/>
</clipPath>
<clipPath id="clip3">
<rect width="135" height="67" fill="white" transform="translate(104)"/>
</clipPath>
</defs>
</svg>
