<svg width="333" height="301" viewBox="0 0 333 301" fill="none" xmlns="http://www.w3.org/2000/svg">
<circle cx="166.041" cy="168.041" r="125.041" fill="#F0F7FF"/>
<path d="M0 292.044L332.582 292" stroke="#1A1A1A" stroke-width="1.133" stroke-miterlimit="10"/>
<rect x="152" y="68" width="63" height="14" fill="#F9F9F9"/>
<path d="M285.428 262.054H58.483C56.1991 262.054 54.3457 260.192 54.3457 257.891V99.4138C54.3457 97.1125 56.1991 95.25 58.483 95.25H285.428C287.712 95.25 289.566 97.1125 289.566 99.4138V257.891C289.566 260.192 287.712 262.054 285.428 262.054Z" fill="#FAFAFA" stroke="#AFAFAF" stroke-width="0.5"/>
<path d="M159.27 153.772C155.534 143.331 145.552 136.919 135.029 137.235C132.482 137.311 129.904 137.783 127.372 138.686C119.708 141.425 114.213 147.527 111.955 154.736C110.39 159.732 110.381 165.259 112.28 170.568C112.469 171.096 112.674 171.616 112.894 172.123C113.894 174.422 115.204 176.502 116.761 178.33C123.291 186.003 134.125 189.246 144.177 185.654C157.154 181.015 163.911 166.741 159.27 153.772ZM142.075 179.776C134.539 182.469 126.416 180.038 121.52 174.287C120.353 172.916 119.369 171.355 118.621 169.631C118.456 169.251 118.301 168.862 118.16 168.465C116.735 164.485 116.743 160.341 117.917 156.596C119.61 151.191 123.729 146.616 129.476 144.562C131.372 143.883 133.307 143.531 135.217 143.473C143.104 143.235 150.59 148.043 153.392 155.871C156.87 165.596 151.804 176.298 142.075 179.776Z" fill="#D3DFFF"/>
<path d="M117.917 156.597L111.955 154.736C114.213 147.527 119.708 141.426 127.373 138.686C129.902 137.781 132.481 137.311 135.029 137.234L135.216 143.474C133.306 143.532 131.373 143.885 129.475 144.564C123.73 146.616 119.609 151.191 117.917 156.597Z" fill="#1FC9AA"/>
<path d="M118.621 169.631L112.894 172.123C112.674 171.617 112.468 171.096 112.28 170.568C110.381 165.259 110.39 159.732 111.955 154.736L117.917 156.596C116.744 160.341 116.735 164.486 118.16 168.465C118.301 168.862 118.456 169.251 118.621 169.631Z" fill="#6EE0CC"/>
<path d="M116.763 178.331C115.206 176.503 113.894 174.423 112.896 172.124L118.622 169.632C119.371 171.356 120.355 172.916 121.522 174.288L116.763 178.331Z" fill="#A4EADD"/>
<path d="M211.627 197.113H183.743V240.012H211.627V197.113Z" fill="#D3DFFF"/>
<path d="M249.163 197.113H218.062V211.055H249.163V197.113Z" fill="#A4C9FF"/>
<path d="M249.163 217.49H218.062V240.012H249.163V217.49Z" fill="#D3DFFF"/>
<path d="M235.005 182.195H197.542V185.016H235.005V182.195Z" fill="#D3DFFF"/>
<path d="M249.164 176.015H183.382V137.934H249.164V176.015ZM184.07 175.326H248.475V138.623H184.07V175.326Z" fill="#86A7FF"/>
<path d="M244.343 146.25C242.161 145.813 239.999 147.235 238.617 148.988C237.962 149.818 237.424 150.731 236.89 151.649C236.299 152.669 235.722 153.693 235.009 154.63C233.656 156.407 231.556 157.893 229.355 157.558C225.786 157.014 223.832 152.105 220.224 152.168C218.537 152.198 217.092 153.368 215.943 154.606C214.793 155.849 213.746 157.257 212.248 158.039C210.158 159.136 207.578 158.777 205.411 157.845C203.243 156.912 201.342 155.46 199.281 154.31C195.829 152.382 191.906 151.362 187.964 151.256V169.881H244.581V152.746V146.308C244.503 146.288 244.426 146.264 244.343 146.25Z" fill="#D3DFFF"/>
<path d="M205.411 157.85C207.578 158.782 210.158 159.137 212.248 158.044C213.741 157.263 214.793 155.85 215.943 154.611C217.092 153.368 218.537 152.203 220.224 152.174C223.832 152.111 225.786 157.02 229.355 157.564C231.556 157.899 233.656 156.413 235.009 154.636C235.722 153.699 236.299 152.674 236.89 151.654C234.699 151.756 232.502 151.863 230.606 150.848C228.715 149.839 227.478 147.872 225.592 146.848C222.208 145.017 218.071 146.765 214.701 148.62C212.689 149.727 210.439 150.921 208.208 150.373C205.687 149.756 204.203 147.178 202.104 145.643C198.079 142.706 192.037 144.128 188.594 147.741L188.589 147.746C188.177 148.178 187.964 148.736 187.964 149.304V151.261C191.911 151.363 195.834 152.383 199.281 154.315C201.342 155.466 203.243 156.918 205.411 157.85Z" fill="#A4C9FF"/>
<path d="M165.363 199.146H111.466V201.506H165.363V199.146Z" fill="#86A7FF"/>
<path d="M157.876 205.007H111.466V207.367H157.876V205.007Z" fill="#86A7FF"/>
<path d="M140.739 210.867H111.466V213.227H140.739V210.867Z" fill="#86A7FF"/>
<path d="M158.87 221.772H111.466V224.132H158.87V221.772Z" fill="#D3DFFF"/>
<path d="M152.285 227.634H111.466V229.994H152.285V227.634Z" fill="#D3DFFF"/>
<path d="M71.0239 262.304H58.8719C56.181 262.304 54 260.113 54 257.41V100.183C54 97.48 56.181 95.2891 58.8719 95.2891H71.0239C73.7148 95.2891 75.8958 97.48 75.8958 100.183V257.41C75.8958 260.113 73.7148 262.304 71.0239 262.304Z" fill="#2F7BFF"/>
<path d="M260.343 110.879C260.322 110.884 260.388 110.848 260.459 110.808C260.529 110.762 260.63 110.686 260.731 110.559C260.938 110.301 261.085 109.854 261.105 109.251C261.135 108.952 261.166 108.617 261.287 108.267C261.398 107.927 261.64 107.537 262.059 107.379C262.463 107.242 262.958 107.248 263.352 107.547C263.73 107.856 263.887 108.338 263.962 108.799C263.998 109.007 264.008 109.215 264.018 109.418C264.018 109.631 264.018 109.788 264.089 109.961C264.215 110.29 264.462 110.574 264.72 110.787L264.972 110.995H264.654C263.362 110.99 262.246 110.94 261.504 110.914C260.979 110.894 260.645 110.884 260.343 110.879C260.686 110.869 261.049 110.858 261.61 110.848C262.382 110.823 263.417 110.772 264.639 110.767L264.568 110.975C264.275 110.737 264.008 110.448 263.851 110.052C263.771 109.859 263.766 109.616 263.766 109.433C263.761 109.241 263.745 109.043 263.715 108.845C263.644 108.414 263.498 107.988 263.195 107.745C262.897 107.506 262.463 107.491 262.13 107.597C261.792 107.714 261.579 108.023 261.468 108.343C261.352 108.657 261.307 108.982 261.266 109.276C261.231 109.57 261.201 109.854 261.115 110.083C261.029 110.316 260.918 110.498 260.797 110.625C260.681 110.757 260.56 110.828 260.474 110.858C260.428 110.874 260.403 110.884 260.383 110.879C260.363 110.874 260.343 110.874 260.343 110.879Z" fill="#1A2E35"/>
<path fill-rule="evenodd" clip-rule="evenodd" d="M262.791 108.003C262.791 108.516 263.205 108.931 263.715 108.931C264.225 108.931 264.639 108.516 264.639 108.003C264.639 107.491 264.225 107.075 263.715 107.075C263.205 107.08 262.791 107.491 262.791 108.003Z" fill="#1FC9AA"/>
<path fill-rule="evenodd" clip-rule="evenodd" d="M261.913 111.467H263.18C263.18 111.467 263.2 112.136 262.488 112.116C261.776 112.091 261.913 111.467 261.913 111.467Z" fill="#1A2E35"/>
<path fill-rule="evenodd" clip-rule="evenodd" d="M277.189 114.702H271.979C270.722 114.702 269.702 113.678 269.702 112.415V107.176C269.702 105.913 270.722 104.889 271.979 104.889H277.189C278.446 104.889 279.466 105.913 279.466 107.176V112.41C279.466 113.673 278.446 114.702 277.189 114.702Z" fill="#1FC9AA"/>
<path d="M68.1013 130.987C68.061 130.987 68.0155 130.972 67.9852 130.942L64.845 128.087L61.7047 130.942C61.6341 131.008 61.523 131.003 61.4574 130.932C61.3917 130.861 61.3968 130.749 61.4675 130.683L64.7238 127.721C64.7894 127.661 64.8904 127.661 64.9561 127.721L68.2124 130.683C68.2831 130.749 68.2881 130.861 68.2225 130.932C68.1973 130.967 68.1518 130.987 68.1013 130.987Z" fill="#FAFAFA"/>
<path d="M67.2129 133.488H62.4824C62.3864 133.488 62.3057 133.407 62.3057 133.31V130.004C62.3057 129.907 62.3864 129.826 62.4824 129.826C62.5783 129.826 62.6591 129.907 62.6591 130.004V133.133H67.0362V130.004C67.0362 129.907 67.117 129.826 67.2129 129.826C67.3088 129.826 67.3896 129.907 67.3896 130.004V133.31C67.3846 133.407 67.3088 133.488 67.2129 133.488Z" fill="#FAFAFA"/>
<path d="M67.9299 156.025H61.7656C61.6696 156.025 61.5889 155.944 61.5889 155.848V151.897C61.5889 151.405 61.9877 151.01 62.4724 151.01H64.0728C64.4767 151.01 64.8351 151.248 64.9916 151.623L65.2693 152.283H67.2181C67.7078 152.283 68.1016 152.683 68.1016 153.17V155.843C68.1016 155.949 68.0259 156.025 67.9299 156.025ZM61.9423 155.676H67.7532V153.175C67.7532 152.881 67.5159 152.638 67.2181 152.638H65.1532C65.0825 152.638 65.0169 152.597 64.9916 152.531L64.6685 151.765C64.5676 151.522 64.3353 151.365 64.0728 151.365H62.4724C62.1796 151.365 61.9372 151.608 61.9372 151.902V155.676H61.9423Z" fill="#FAFAFA"/>
<path d="M76.9916 185.587H58.5137C57.6251 185.587 56.9082 184.862 56.9082 183.974V168.953C56.9082 168.06 57.6302 167.34 58.5137 167.34H76.9916C77.8802 167.34 78.5971 168.065 78.5971 168.953V183.974C78.5971 184.867 77.8802 185.587 76.9916 185.587Z" fill="#FAFAFA"/>
<rect x="66.3896" y="175.387" width="0.580202" height="8.73779" fill="#1FC9AA"/>
<rect width="0.580782" height="6.33461" transform="matrix(0.86516 0.501496 -0.498506 0.866886 69.5469 178.3)" fill="#1FC9AA"/>
<rect width="0.580782" height="6.33461" transform="matrix(-0.86516 0.501496 0.498506 0.866886 63.7012 178.3)" fill="#1FC9AA"/>
<path d="M66.8242 173.684H66.3311V174.665H66.8242V173.684Z" fill="#1FC9AA"/>
<path d="M68.3038 174.666V172.313L66.5777 170.596L64.8516 172.313V174.666H65.8379V173.194H67.3174V174.666H68.3038Z" fill="#1FC9AA"/>
<path d="M64.1414 172.212C64.2154 172.212 64.2844 172.183 64.3362 172.131L66.5777 169.901L68.8191 172.131C68.8709 172.183 68.9424 172.212 69.0139 172.212C69.1668 172.212 69.2901 172.09 69.2901 171.938C69.2901 171.864 69.2605 171.795 69.2088 171.744L66.8243 169.369C66.6936 169.239 66.4618 169.236 66.3311 169.369L63.9466 171.741C63.8948 171.793 63.8652 171.864 63.8652 171.938C63.8652 172.087 63.9885 172.212 64.1414 172.212Z" fill="#1FC9AA"/>
<path d="M61.646 178.591C62.8691 178.591 63.8653 177.6 63.8653 176.383C63.8653 175.166 62.8691 174.175 61.646 174.175C60.423 174.175 59.4268 175.166 59.4268 176.383C59.4268 177.6 60.423 178.591 61.646 178.591ZM60.9063 176.628H61.3994V176.873C61.3994 177.008 61.5104 177.119 61.646 177.119H61.8926V176.873C61.8926 176.739 61.7817 176.628 61.646 176.628C61.2392 176.628 60.9063 176.297 60.9063 175.892V175.156H61.3994V174.665H61.8926V175.2C62.1787 175.301 62.3858 175.571 62.3858 175.892V176.137H61.8926V175.892C61.8926 175.757 61.7817 175.647 61.646 175.647H61.3994V175.892C61.3994 176.027 61.5104 176.137 61.646 176.137C62.0529 176.137 62.3858 176.469 62.3858 176.873V177.61H61.8926V178.1H61.3994V177.563C61.1134 177.462 60.9063 177.192 60.9063 176.871V176.628Z" fill="#1FC9AA"/>
<path d="M73.6275 175.817L72.9445 175.682L72.8286 175.223C72.7472 174.894 72.4513 174.666 72.111 174.666H70.4145C70.0742 174.666 69.7783 174.894 69.6969 175.223L69.581 175.682L68.898 175.817C68.5528 175.885 68.3037 176.19 68.3037 176.54V176.874C68.3037 177.279 68.6366 177.61 69.0435 177.61H69.078C69.0583 177.532 69.0435 177.451 69.0435 177.365C69.0435 176.823 69.4849 176.383 70.0298 176.383C70.5748 176.383 71.0162 176.823 71.0162 177.365C71.0162 177.451 71.0014 177.532 70.9816 177.61H71.5438C71.5241 177.532 71.5093 177.451 71.5093 177.365C71.5093 176.823 71.9507 176.383 72.4957 176.383C73.0406 176.383 73.482 176.823 73.482 177.365C73.482 177.451 73.4672 177.532 73.4475 177.61H73.482C73.8889 177.61 74.2218 177.279 74.2218 176.874V176.54C74.2218 176.19 73.9727 175.885 73.6275 175.817Z" fill="#1FC9AA"/>
<path d="M70.0293 177.855C70.3017 177.855 70.5225 177.636 70.5225 177.365C70.5225 177.094 70.3017 176.874 70.0293 176.874C69.7569 176.874 69.5361 177.094 69.5361 177.365C69.5361 177.636 69.7569 177.855 70.0293 177.855Z" fill="#1FC9AA"/>
<path d="M72.4961 177.855C72.7685 177.855 72.9893 177.636 72.9893 177.365C72.9893 177.094 72.7685 176.874 72.4961 176.874C72.2237 176.874 72.0029 177.094 72.0029 177.365C72.0029 177.636 72.2237 177.855 72.4961 177.855Z" fill="#1FC9AA"/>
<path d="M68.2829 201.771H61.3613C61.2653 201.771 61.1846 201.69 61.1846 201.593V197.212C61.1846 197.115 61.2653 197.034 61.3613 197.034H68.2829C68.3789 197.034 68.4596 197.115 68.4596 197.212V201.593C68.4596 201.695 68.3789 201.771 68.2829 201.771ZM61.538 201.421H68.1113V197.389H61.538V201.421Z" fill="#FAFAFA"/>
<path d="M64.9118 200.539C64.8714 200.539 64.831 200.524 64.7956 200.493L61.2515 197.344C61.1808 197.278 61.1707 197.167 61.2364 197.096C61.302 197.025 61.4131 197.014 61.4837 197.08L64.9118 200.128L68.1732 197.085C68.2438 197.019 68.3549 197.025 68.4205 197.096C68.4862 197.167 68.4811 197.278 68.4104 197.344L65.0329 200.493C64.9976 200.524 64.9521 200.539 64.9118 200.539Z" fill="#FAFAFA"/>
<path d="M61.4624 201.584C61.417 201.584 61.3716 201.569 61.3362 201.534C61.2655 201.463 61.2655 201.351 61.3362 201.285L63.4415 199.17C63.5122 199.099 63.6182 199.099 63.6889 199.17C63.7595 199.241 63.7595 199.353 63.6889 199.419L61.5836 201.534C61.5533 201.564 61.5079 201.584 61.4624 201.584Z" fill="#FAFAFA"/>
<path d="M68.3284 201.726C68.2829 201.726 68.2375 201.71 68.2022 201.675L65.9505 199.413C65.8798 199.342 65.8798 199.231 65.9505 199.165C66.0212 199.094 66.1272 199.094 66.1979 199.165L68.4495 201.426C68.5202 201.497 68.5202 201.609 68.4495 201.675C68.4192 201.71 68.3738 201.726 68.3284 201.726Z" fill="#FAFAFA"/>
<path d="M254.238 108.966C254.238 108.95 254.309 108.925 254.45 108.94C254.587 108.955 254.794 109.021 254.97 109.219C255.142 109.407 255.258 109.742 255.152 110.086C255.056 110.426 254.713 110.73 254.294 110.741C253.875 110.756 253.511 110.472 253.395 110.142C253.269 109.807 253.365 109.463 253.521 109.265C253.683 109.057 253.885 108.976 254.021 108.955C254.163 108.93 254.238 108.95 254.238 108.966C254.253 109.011 253.91 108.996 253.668 109.361C253.557 109.534 253.501 109.802 253.607 110.056C253.703 110.304 253.981 110.507 254.289 110.497C254.597 110.487 254.854 110.269 254.94 110.015C255.031 109.757 254.96 109.493 254.834 109.326C254.566 108.976 254.228 109.006 254.238 108.966Z" fill="#1A2E35"/>
<path d="M254.465 107.912C254.46 107.922 254.389 107.785 254.268 107.491L254.309 107.516C254.097 107.552 253.844 107.592 253.551 107.643L253.607 107.587C253.597 107.729 253.587 107.886 253.577 108.054L253.572 108.094L253.531 108.115C253.395 108.175 253.253 108.257 253.122 108.363L253.087 108.393L253.041 108.373C252.91 108.312 252.764 108.251 252.617 108.186L252.723 108.16C252.577 108.358 252.426 108.561 252.269 108.779L252.264 108.657C252.36 108.769 252.461 108.885 252.567 109.012L252.607 109.058L252.582 109.114C252.526 109.251 252.486 109.408 252.466 109.575L252.461 109.636L252.4 109.661C252.264 109.712 252.118 109.768 251.966 109.829L252.032 109.707C252.067 109.945 252.102 110.204 252.138 110.468L252.037 110.371C252.183 110.381 252.34 110.397 252.496 110.412L252.567 110.417L252.592 110.483C252.648 110.62 252.728 110.762 252.829 110.889L252.875 110.944L252.845 111.01C252.784 111.142 252.718 111.289 252.653 111.436L252.617 111.289C252.809 111.436 253.016 111.594 253.228 111.756L253.077 111.761C253.188 111.665 253.309 111.563 253.43 111.462L253.486 111.416L253.551 111.447C253.688 111.502 253.844 111.548 254.001 111.568L254.102 111.644V111.649L254.107 111.654L254.112 111.67L254.122 111.695L254.142 111.751L254.182 111.862L254.263 112.08L254.132 112.004C254.389 111.969 254.642 111.933 254.889 111.903L254.783 112.015C254.798 111.857 254.814 111.705 254.824 111.553L254.829 111.482L254.894 111.457C255.041 111.396 255.177 111.315 255.298 111.223L255.354 111.178L255.419 111.208C255.561 111.274 255.702 111.34 255.838 111.401L255.697 111.436C255.859 111.228 256.01 111.026 256.167 110.828L256.172 110.97C256.071 110.848 255.975 110.726 255.879 110.61L255.838 110.559L255.864 110.498C255.924 110.351 255.965 110.194 255.99 110.042L256 109.976L256.061 109.955C256.207 109.9 256.353 109.849 256.495 109.798L256.429 109.905C256.394 109.636 256.363 109.382 256.333 109.139L256.424 109.2C256.262 109.185 256.111 109.169 255.965 109.154L255.909 109.149L255.889 109.098C255.823 108.941 255.748 108.799 255.657 108.683L255.626 108.642L255.647 108.601C255.717 108.449 255.783 108.312 255.843 108.18L255.864 108.267C255.636 108.084 255.44 107.927 255.263 107.785H255.328C255.192 107.891 255.071 107.988 254.965 108.074L254.945 108.089L254.925 108.079C254.632 107.942 254.46 107.932 254.465 107.912C254.47 107.907 254.506 107.902 254.591 107.912C254.677 107.922 254.803 107.942 254.965 108.003L254.925 108.008C255.026 107.917 255.137 107.815 255.268 107.699L255.298 107.668L255.334 107.694C255.515 107.825 255.722 107.978 255.954 108.145L256 108.18L255.975 108.236C255.919 108.368 255.859 108.51 255.788 108.662L255.778 108.581C255.879 108.708 255.975 108.86 256.045 109.032L255.975 108.977C256.121 108.987 256.273 108.997 256.434 109.012L256.505 109.017L256.515 109.093C256.55 109.337 256.586 109.59 256.626 109.854L256.636 109.935L256.56 109.966C256.419 110.021 256.278 110.077 256.126 110.133L256.192 110.047C256.172 110.219 256.126 110.392 256.061 110.559L256.045 110.447C256.141 110.564 256.242 110.681 256.343 110.802L256.399 110.868L256.343 110.939C256.192 111.137 256.04 111.345 255.884 111.553L255.828 111.629L255.742 111.589C255.601 111.528 255.465 111.462 255.318 111.396L255.44 111.381C255.303 111.487 255.147 111.578 254.98 111.649L255.051 111.548C255.036 111.7 255.026 111.857 255.01 112.009L255 112.106L254.904 112.121C254.657 112.157 254.405 112.192 254.147 112.228L254.051 112.243L254.016 112.151L253.935 111.933L253.895 111.822L253.9 111.776L253.89 111.751L253.885 111.736L253.88 111.731V111.725L253.98 111.802C253.799 111.781 253.622 111.731 253.466 111.665L253.592 111.644C253.471 111.746 253.349 111.847 253.238 111.944L253.163 112.004L253.087 111.944C252.88 111.781 252.673 111.624 252.476 111.477L252.4 111.416L252.441 111.33C252.506 111.183 252.572 111.041 252.632 110.909L252.648 111.031C252.537 110.884 252.446 110.721 252.38 110.569L252.476 110.64C252.314 110.625 252.158 110.61 252.017 110.595L251.926 110.584L251.916 110.493C251.88 110.229 251.85 109.971 251.82 109.727L251.81 109.641L251.89 109.611C252.042 109.555 252.188 109.499 252.325 109.453L252.259 109.54C252.284 109.357 252.335 109.18 252.395 109.027L252.41 109.129C252.309 109.002 252.208 108.88 252.118 108.769L252.067 108.708L252.112 108.647C252.279 108.434 252.436 108.231 252.582 108.038L252.627 107.983L252.688 108.013C252.834 108.084 252.976 108.15 253.107 108.211L253.026 108.221C253.173 108.109 253.329 108.023 253.481 107.967L253.435 108.028C253.455 107.866 253.471 107.709 253.486 107.567L253.491 107.516L253.536 107.511C253.829 107.481 254.081 107.455 254.299 107.43L254.329 107.425L254.339 107.455C254.43 107.739 254.475 107.902 254.465 107.912Z" fill="#1A2E35"/>
<path d="M64.9495 113.836C62.7433 113.836 60.9561 112.04 60.9561 109.824C60.9561 107.608 62.7433 105.812 64.9495 105.812C67.1558 105.812 68.943 107.608 68.943 109.824C68.9379 112.04 67.1507 113.836 64.9495 113.836Z" fill="white"/>
<rect x="90.2949" y="104.882" width="132.155" height="10.7269" rx="5.36347" fill="white" stroke="#E4E4E4"/>
<path d="M139 78.9293C135.995 78.9235 133.022 78.1245 130.495 76.4959C125.986 73.5885 123 68.5229 123 62.7596C123 54.6777 128.87 47.9682 136.58 46.6588C136.829 46.6167 137.009 46.4007 137.015 46.1484C137.491 28.8643 151.648 15 169.045 15C182.904 15 194.705 23.7988 199.174 36.1167C199.252 36.3308 199.455 36.4684 199.685 36.4684H199.689C211.458 36.4684 221 46.0108 221 57.782C221 68.8536 212.555 77.9487 201.758 78.9904C201.312 79.0325 139 78.9293 139 78.9293Z" fill="#6CBFF8"/>
<path d="M193.566 26.4214C188.002 21.7496 180.824 18.9378 172.988 18.9378C155.591 18.9378 141.434 32.804 140.96 50.0862C140.952 50.3385 140.772 50.5545 140.523 50.5965C132.813 51.9059 126.943 58.6135 126.943 66.6974C126.943 70.2031 128.047 73.4489 129.931 76.1098C125.739 73.1584 123 68.2801 123 62.7596C123 54.6758 128.87 47.9682 136.58 46.6588C136.829 46.6167 137.009 46.4007 137.017 46.1484C137.491 28.8663 151.646 15 169.045 15C178.887 15 187.691 19.4386 193.566 26.4214Z" fill="#5FA7EE"/>
<path d="M106.499 50.9981C113.954 50.9981 119.998 44.9544 119.998 37.499C119.998 30.0437 113.954 24 106.499 24C99.0437 24 93 30.0437 93 37.499C93 44.9544 99.0437 50.9981 106.499 50.9981Z" fill="#6EE0CC"/>
<path d="M108.038 44.1974V46.2672H105.407V44.2908C103.542 44.1783 101.733 43.6746 100.613 42.986L102.031 39.7772C103.263 40.504 104.904 40.9714 106.34 40.9714C107.59 40.9714 108.038 40.71 108.038 40.2617C108.038 38.6211 100.817 39.945 100.817 35.0746C100.817 32.9666 102.347 31.1943 105.407 30.7651V28.7314H108.038V30.7269C109.417 30.8566 110.762 31.2115 111.825 31.8086L110.501 34.9983C109.213 34.3459 108 34.0292 106.863 34.0292C105.575 34.0292 105.165 34.4012 105.165 34.8495C105.165 36.4177 112.386 35.1109 112.386 39.9241C112.386 41.9405 110.93 43.6937 108.038 44.1974Z" fill="white"/>
<path d="M235.804 0.348633C227.049 0.348633 219.951 7.53731 219.951 16.4037C219.951 19.2309 220.678 21.885 221.946 24.1917L218.624 32.38L226.414 29.3178C229.045 31.2835 232.285 32.4588 235.804 32.4588C244.56 32.4588 251.657 25.2701 251.657 16.4024C251.656 7.53731 244.56 0.348633 235.804 0.348633Z" fill="white"/>
<path d="M218 33L221.565 24.215C220.284 21.8231 219.608 19.1263 219.608 16.4051C219.607 7.35916 226.873 0 235.804 0C244.735 0 252 7.35916 252 16.4038C252 25.4497 244.734 32.8076 235.804 32.8076C232.401 32.8076 229.14 31.7382 226.363 29.7118L218 33ZM226.466 28.9252L226.618 29.0389C229.308 31.0498 232.485 32.1114 235.804 32.1114C244.355 32.1114 251.313 25.0648 251.313 16.4038C251.313 7.74275 244.355 0.696137 235.804 0.696137C227.253 0.697429 220.295 7.74404 220.295 16.4038C220.295 19.0631 220.97 21.6978 222.246 24.0225L222.327 24.1698L219.246 31.7627L226.466 28.9252Z" fill="#6EE0CC"/>
<path d="M228.495 13.5403C228.495 11.2724 229.861 9.83105 231.797 9.83105C233.731 9.83105 235.079 11.253 235.079 13.5403C235.079 15.8276 233.731 17.2496 231.797 17.2496C229.861 17.2496 228.495 15.8083 228.495 13.5403ZM233.181 13.5403C233.181 12.099 232.632 11.4067 231.797 11.4067C230.979 11.4067 230.41 12.1184 230.41 13.5403C230.41 14.9623 230.979 15.674 231.797 15.674C232.632 15.674 233.181 14.9817 233.181 13.5403ZM239.71 9.98346H241.967L232.897 23.4374H230.639L239.71 9.98346ZM237.526 19.8831C237.526 17.6151 238.893 16.1738 240.809 16.1738C242.745 16.1738 244.111 17.6164 244.111 19.8831C244.111 22.151 242.745 23.5923 240.809 23.5923C238.894 23.5923 237.526 22.151 237.526 19.8831ZM242.196 19.8831C242.196 18.4611 241.643 17.7494 240.809 17.7494C239.993 17.7494 239.425 18.4417 239.425 19.8831C239.425 21.3244 239.993 22.0167 240.809 22.0167C241.645 22.0154 242.196 21.305 242.196 19.8831Z" fill="#6EE0CC"/>
<g filter="url(#filter0_d)">
<rect x="21.25" y="202.235" width="139.993" height="88.5145" rx="4.75" fill="#F5F8FC" stroke="#CFD3D7" stroke-width="0.5"/>
<path d="M143.3 211.224C143.287 211.228 143.329 211.205 143.373 211.18C143.418 211.151 143.481 211.103 143.545 211.023C143.675 210.861 143.767 210.58 143.78 210.2C143.799 210.012 143.818 209.802 143.894 209.581C143.964 209.368 144.116 209.122 144.38 209.023C144.634 208.937 144.945 208.94 145.193 209.128C145.431 209.323 145.53 209.626 145.577 209.916C145.6 210.047 145.606 210.178 145.612 210.306C145.612 210.44 145.612 210.539 145.657 210.647C145.736 210.854 145.892 211.033 146.054 211.167L146.213 211.298H146.012C145.199 211.295 144.498 211.263 144.031 211.247C143.7 211.234 143.491 211.228 143.3 211.224C143.516 211.218 143.745 211.212 144.097 211.205C144.583 211.189 145.234 211.157 146.003 211.154L145.958 211.285C145.774 211.135 145.606 210.953 145.507 210.704C145.457 210.583 145.453 210.43 145.453 210.315C145.45 210.194 145.441 210.07 145.422 209.945C145.377 209.674 145.285 209.406 145.095 209.253C144.907 209.103 144.634 209.093 144.424 209.16C144.212 209.234 144.078 209.428 144.008 209.629C143.935 209.827 143.907 210.031 143.881 210.216C143.859 210.401 143.84 210.58 143.786 210.724C143.732 210.87 143.662 210.985 143.586 211.065C143.513 211.148 143.437 211.193 143.383 211.212C143.354 211.221 143.338 211.228 143.326 211.224C143.313 211.221 143.3 211.221 143.3 211.224Z" fill="#1A2E35"/>
<path fill-rule="evenodd" clip-rule="evenodd" d="M144.841 209.416C144.841 209.738 145.101 210 145.422 210C145.743 210 146.003 209.738 146.003 209.416C146.003 209.094 145.743 208.832 145.422 208.832C145.101 208.835 144.841 209.094 144.841 209.416Z" fill="#1FC9AA"/>
<path fill-rule="evenodd" clip-rule="evenodd" d="M144.288 211.595H145.085C145.085 211.595 145.098 212.016 144.65 212.003C144.202 211.987 144.288 211.595 144.288 211.595Z" fill="#1A2E35"/>
<path fill-rule="evenodd" clip-rule="evenodd" d="M153.899 213.63H150.622C149.831 213.63 149.189 212.986 149.189 212.192V208.896C149.189 208.101 149.831 207.457 150.622 207.457H153.899C154.69 207.457 155.332 208.101 155.332 208.896V212.188C155.332 212.983 154.69 213.63 153.899 213.63Z" fill="#1FC9AA"/>
<path d="M139.462 210.021C139.462 210.011 139.506 209.995 139.595 210.005C139.681 210.014 139.811 210.056 139.922 210.18C140.03 210.298 140.103 210.509 140.036 210.726C139.976 210.94 139.76 211.131 139.496 211.137C139.233 211.147 139.004 210.968 138.931 210.761C138.852 210.55 138.912 210.334 139.011 210.209C139.112 210.078 139.239 210.027 139.325 210.014C139.414 209.999 139.462 210.011 139.462 210.021C139.471 210.05 139.255 210.04 139.103 210.27C139.033 210.378 138.998 210.547 139.065 210.707C139.125 210.863 139.3 210.991 139.493 210.984C139.687 210.978 139.849 210.841 139.903 210.681C139.96 210.519 139.916 210.353 139.836 210.247C139.668 210.027 139.455 210.046 139.462 210.021Z" fill="#1A2E35"/>
<path d="M139.605 209.358C139.602 209.364 139.557 209.278 139.481 209.093L139.507 209.109C139.373 209.132 139.214 209.157 139.03 209.189L139.065 209.154C139.059 209.243 139.053 209.342 139.046 209.447L139.043 209.473L139.018 209.486C138.932 209.524 138.843 209.575 138.76 209.642L138.738 209.661L138.71 209.648C138.627 209.61 138.535 209.572 138.443 209.53L138.509 209.514C138.417 209.639 138.322 209.766 138.224 209.904L138.22 209.827C138.281 209.897 138.344 209.971 138.411 210.05L138.436 210.079L138.421 210.114C138.386 210.2 138.36 210.299 138.347 210.404L138.344 210.443L138.306 210.459C138.22 210.491 138.128 210.526 138.033 210.564L138.074 210.487C138.097 210.637 138.119 210.8 138.141 210.966L138.077 210.905C138.17 210.912 138.268 210.921 138.367 210.931L138.411 210.934L138.427 210.976C138.462 211.062 138.513 211.151 138.576 211.231L138.605 211.266L138.586 211.307C138.548 211.39 138.506 211.483 138.465 211.575L138.443 211.483C138.563 211.575 138.694 211.674 138.827 211.776L138.732 211.78C138.802 211.719 138.878 211.655 138.954 211.591L138.989 211.563L139.03 211.582C139.116 211.617 139.214 211.646 139.313 211.658L139.376 211.706V211.709L139.38 211.713L139.383 211.722L139.389 211.738L139.402 211.773L139.427 211.843L139.478 211.981L139.396 211.933C139.557 211.91 139.716 211.888 139.872 211.869L139.805 211.939C139.815 211.84 139.824 211.744 139.831 211.649L139.834 211.604L139.875 211.588C139.967 211.55 140.053 211.499 140.129 211.441L140.164 211.413L140.205 211.432C140.294 211.473 140.383 211.515 140.469 211.553L140.38 211.575C140.482 211.445 140.577 211.317 140.675 211.192L140.679 211.282C140.615 211.205 140.555 211.129 140.494 211.055L140.469 211.023L140.485 210.985C140.523 210.893 140.548 210.794 140.564 210.698L140.571 210.657L140.609 210.644C140.701 210.609 140.793 210.577 140.882 210.545L140.841 210.612C140.818 210.443 140.799 210.283 140.78 210.13L140.837 210.168C140.736 210.159 140.64 210.149 140.548 210.14L140.513 210.136L140.501 210.105C140.459 210.006 140.412 209.916 140.355 209.843L140.336 209.817L140.348 209.792C140.393 209.696 140.434 209.61 140.472 209.527L140.485 209.581C140.342 209.467 140.218 209.368 140.107 209.278H140.148C140.062 209.345 139.986 209.406 139.92 209.46L139.907 209.47L139.894 209.463C139.71 209.377 139.602 209.371 139.605 209.358C139.608 209.355 139.631 209.352 139.685 209.358C139.739 209.364 139.818 209.377 139.92 209.415L139.894 209.419C139.958 209.361 140.028 209.297 140.11 209.224L140.129 209.205L140.151 209.221C140.266 209.304 140.396 209.4 140.542 209.505L140.571 209.527L140.555 209.562C140.52 209.645 140.482 209.734 140.437 209.83L140.431 209.779C140.494 209.859 140.555 209.955 140.599 210.063L140.555 210.028C140.647 210.034 140.742 210.041 140.844 210.05L140.888 210.054L140.895 210.101C140.917 210.255 140.939 210.414 140.964 210.58L140.971 210.631L140.923 210.65C140.834 210.685 140.745 210.72 140.65 210.755L140.691 210.701C140.679 210.81 140.65 210.918 140.609 211.023L140.599 210.953C140.66 211.027 140.723 211.1 140.787 211.177L140.822 211.218L140.787 211.263C140.691 211.387 140.596 211.518 140.498 211.649L140.463 211.697L140.409 211.671C140.32 211.633 140.234 211.591 140.142 211.55L140.218 211.54C140.132 211.607 140.034 211.665 139.929 211.709L139.974 211.646C139.964 211.741 139.958 211.84 139.948 211.936L139.942 211.996L139.881 212.006C139.726 212.028 139.567 212.051 139.405 212.073L139.345 212.083L139.322 212.025L139.272 211.888L139.246 211.818L139.249 211.789L139.243 211.773L139.24 211.764L139.237 211.76V211.757L139.3 211.805C139.186 211.792 139.075 211.76 138.976 211.719L139.056 211.706C138.979 211.77 138.903 211.834 138.833 211.894L138.786 211.933L138.738 211.894C138.608 211.792 138.478 211.693 138.354 211.601L138.306 211.563L138.332 211.508C138.373 211.416 138.414 211.326 138.452 211.244L138.462 211.32C138.392 211.228 138.335 211.125 138.293 211.03L138.354 211.074C138.252 211.065 138.154 211.055 138.065 211.046L138.008 211.039L138.001 210.982C137.979 210.816 137.96 210.653 137.941 210.5L137.935 210.446L137.985 210.427C138.081 210.392 138.173 210.357 138.259 210.328L138.217 210.382C138.233 210.267 138.265 210.156 138.303 210.06L138.313 210.124C138.249 210.044 138.185 209.967 138.128 209.897L138.097 209.859L138.125 209.821C138.23 209.687 138.328 209.559 138.421 209.438L138.449 209.403L138.487 209.422C138.579 209.467 138.668 209.508 138.751 209.546L138.7 209.553C138.792 209.482 138.891 209.428 138.986 209.393L138.957 209.431C138.97 209.329 138.979 209.23 138.989 209.141L138.992 209.109L139.021 209.106C139.205 209.087 139.364 209.071 139.5 209.055L139.519 209.052L139.526 209.071C139.583 209.25 139.611 209.352 139.605 209.358Z" fill="#1A2E35"/>
<rect x="36.2646" y="207.598" width="83.1522" height="7.00725" rx="3.50362" fill="white" stroke="#E4E4E4" stroke-width="0.5"/>
<path d="M30.0733 291H23.5966C22.1624 291 21 289.832 21 288.391V204.594C21 203.153 22.1624 201.985 23.5966 201.985H30.0733C31.5075 201.985 32.6699 203.153 32.6699 204.594V288.391C32.6699 289.832 31.5075 291 30.0733 291Z" fill="#2F7BFF"/>
<path d="M28.5149 221.012C28.4934 221.012 28.4692 221.004 28.453 220.988L26.7794 219.466L25.1057 220.988C25.068 221.023 25.0088 221.02 24.9739 220.982C24.9389 220.945 24.9416 220.885 24.9792 220.85L26.7148 219.271C26.7498 219.239 26.8036 219.239 26.8386 219.271L28.5741 220.85C28.6118 220.885 28.6145 220.945 28.5795 220.982C28.566 221.001 28.5418 221.012 28.5149 221.012Z" fill="#FAFAFA"/>
<path d="M28.0422 222.345H25.5209C25.4698 222.345 25.4268 222.302 25.4268 222.251V220.488C25.4268 220.437 25.4698 220.394 25.5209 220.394C25.5721 220.394 25.6151 220.437 25.6151 220.488V222.156H27.948V220.488C27.948 220.437 27.9911 220.394 28.0422 220.394C28.0933 220.394 28.1364 220.437 28.1364 220.488V222.251C28.1337 222.302 28.0933 222.345 28.0422 222.345Z" fill="#FAFAFA"/>
<path d="M28.4245 234.356H25.1391C25.088 234.356 25.0449 234.313 25.0449 234.261V232.156C25.0449 231.893 25.2575 231.683 25.5158 231.683H26.3688C26.584 231.683 26.7751 231.81 26.8585 232.01L27.0065 232.361H28.0451C28.3061 232.361 28.516 232.575 28.516 232.834V234.259C28.516 234.315 28.4757 234.356 28.4245 234.356ZM25.2333 234.169H28.3304V232.837C28.3304 232.68 28.2039 232.55 28.0451 232.55H26.9446C26.9069 232.55 26.872 232.529 26.8585 232.494L26.6863 232.085C26.6325 231.956 26.5087 231.872 26.3688 231.872H25.5158C25.3597 231.872 25.2306 232.002 25.2306 232.158V234.169H25.2333Z" fill="#FAFAFA"/>
<path d="M33.2537 250.113H23.4055C22.9319 250.113 22.5498 249.726 22.5498 249.253V241.247C22.5498 240.772 22.9346 240.388 23.4055 240.388H33.2537C33.7273 240.388 34.1094 240.774 34.1094 241.247V249.253C34.1094 249.729 33.7273 250.113 33.2537 250.113Z" fill="#FAFAFA"/>
<rect x="27.6025" y="244.677" width="0.309232" height="4.657" fill="#1FC9AA"/>
<rect width="0.309541" height="3.37617" transform="matrix(0.86516 0.501496 -0.498506 0.866886 29.2852 246.228)" fill="#1FC9AA"/>
<rect width="0.309541" height="3.37617" transform="matrix(-0.86516 0.501496 0.498506 0.866886 26.1699 246.228)" fill="#1FC9AA"/>
<path d="M27.8341 243.769H27.5713V244.292H27.8341V243.769Z" fill="#1FC9AA"/>
<path d="M28.6231 244.291V243.037L27.7032 242.122L26.7832 243.037V244.291H27.3089V243.507H28.0974V244.291H28.6231Z" fill="#1FC9AA"/>
<path d="M26.405 242.984C26.4444 242.984 26.4812 242.968 26.5088 242.941L27.7035 241.752L28.8981 242.941C28.9257 242.968 28.9638 242.984 29.0019 242.984C29.0834 242.984 29.1491 242.919 29.1491 242.838C29.1491 242.798 29.1334 242.762 29.1058 242.734L27.8349 241.468C27.7652 241.399 27.6417 241.398 27.572 241.468L26.3012 242.733C26.2736 242.76 26.2578 242.798 26.2578 242.838C26.2578 242.917 26.3235 242.984 26.405 242.984Z" fill="#1FC9AA"/>
<path d="M25.0744 246.384C25.7263 246.384 26.2572 245.856 26.2572 245.207C26.2572 244.559 25.7263 244.03 25.0744 244.03C24.4226 244.03 23.8916 244.559 23.8916 245.207C23.8916 245.856 24.4226 246.384 25.0744 246.384ZM24.6801 245.338H24.943V245.469C24.943 245.541 25.0021 245.599 25.0744 245.599H25.2058V245.469C25.2058 245.397 25.1467 245.338 25.0744 245.338C24.8576 245.338 24.6801 245.161 24.6801 244.946V244.553H24.943V244.292H25.2058V244.577C25.3583 244.63 25.4687 244.774 25.4687 244.946V245.076H25.2058V244.946C25.2058 244.874 25.1467 244.815 25.0744 244.815H24.943V244.946C24.943 245.017 25.0021 245.076 25.0744 245.076C25.2913 245.076 25.4687 245.253 25.4687 245.469V245.861H25.2058V246.122H24.943V245.836C24.7905 245.782 24.6801 245.639 24.6801 245.467V245.338Z" fill="#1FC9AA"/>
<path d="M31.4605 244.905L31.0964 244.833L31.0347 244.589C30.9913 244.414 30.8336 244.292 30.6522 244.292H29.748C29.5667 244.292 29.409 244.414 29.3656 244.589L29.3038 244.833L28.9398 244.905C28.7558 244.942 28.623 245.104 28.623 245.291V245.469C28.623 245.685 28.8005 245.861 29.0173 245.861H29.0357C29.0252 245.819 29.0173 245.776 29.0173 245.73C29.0173 245.441 29.2526 245.207 29.543 245.207C29.8335 245.207 30.0687 245.441 30.0687 245.73C30.0687 245.776 30.0608 245.819 30.0503 245.861H30.35C30.3394 245.819 30.3316 245.776 30.3316 245.73C30.3316 245.441 30.5668 245.207 30.8572 245.207C31.1477 245.207 31.3829 245.441 31.3829 245.73C31.3829 245.776 31.3751 245.819 31.3645 245.861H31.3829C31.5998 245.861 31.7772 245.685 31.7772 245.469V245.291C31.7772 245.104 31.6445 244.942 31.4605 244.905Z" fill="#1FC9AA"/>
<path d="M29.5421 245.991C29.6873 245.991 29.805 245.874 29.805 245.729C29.805 245.585 29.6873 245.468 29.5421 245.468C29.397 245.468 29.2793 245.585 29.2793 245.729C29.2793 245.874 29.397 245.991 29.5421 245.991Z" fill="#1FC9AA"/>
<path d="M30.8576 245.991C31.0027 245.991 31.1204 245.874 31.1204 245.729C31.1204 245.585 31.0027 245.468 30.8576 245.468C30.7124 245.468 30.5947 245.585 30.5947 245.729C30.5947 245.874 30.7124 245.991 30.8576 245.991Z" fill="#1FC9AA"/>
<path d="M28.6123 258.737H24.9233C24.8722 258.737 24.8291 258.694 24.8291 258.643V256.307C24.8291 256.256 24.8722 256.213 24.9233 256.213H28.6123C28.6635 256.213 28.7065 256.256 28.7065 256.307V258.643C28.7065 258.697 28.6635 258.737 28.6123 258.737ZM25.0175 258.551H28.5208V256.402H25.0175V258.551Z" fill="#FAFAFA"/>
<path d="M26.8163 258.082C26.7948 258.082 26.7733 258.074 26.7544 258.058L24.8655 256.379C24.8278 256.344 24.8224 256.284 24.8574 256.246C24.8924 256.209 24.9516 256.203 24.9893 256.238L26.8163 257.863L28.5545 256.241C28.5922 256.206 28.6514 256.209 28.6864 256.246C28.7214 256.284 28.7187 256.344 28.681 256.379L26.8809 258.058C26.8621 258.074 26.8378 258.082 26.8163 258.082Z" fill="#FAFAFA"/>
<path d="M24.9774 258.637C24.9531 258.637 24.9289 258.629 24.9101 258.61C24.8724 258.572 24.8724 258.513 24.9101 258.478L26.0321 257.351C26.0698 257.313 26.1263 257.313 26.164 257.351C26.2017 257.388 26.2017 257.448 26.164 257.483L25.0419 258.61C25.0258 258.626 25.0016 258.637 24.9774 258.637Z" fill="#FAFAFA"/>
<path d="M28.6364 258.713C28.6122 258.713 28.588 258.705 28.5692 258.686L27.3691 257.48C27.3314 257.442 27.3314 257.383 27.3691 257.348C27.4067 257.31 27.4633 257.31 27.5009 257.348L28.701 258.553C28.7387 258.591 28.7387 258.651 28.701 258.686C28.6849 258.705 28.6606 258.713 28.6364 258.713Z" fill="#FAFAFA"/>
<path d="M26.8364 211.871C25.6605 211.871 24.708 210.914 24.708 209.733C24.708 208.552 25.6605 207.595 26.8364 207.595C28.0123 207.595 28.9648 208.552 28.9648 209.733C28.9621 210.914 28.0096 211.871 26.8364 211.871Z" fill="white"/>
<path d="M85.2048 233.615C83.1485 227.868 77.6544 224.339 71.8629 224.513C70.4613 224.555 69.042 224.814 67.6487 225.312C63.4303 226.819 60.406 230.178 59.1631 234.145C58.3018 236.895 58.2968 239.937 59.3421 242.859C59.4463 243.15 59.5589 243.436 59.6799 243.715C60.2303 244.981 60.9513 246.125 61.8085 247.131C65.4025 251.354 71.3655 253.139 76.8982 251.162C84.0401 248.609 87.7593 240.753 85.2048 233.615ZM75.741 247.927C71.5932 249.409 67.1227 248.071 64.4278 244.906C63.7858 244.152 63.2437 243.292 62.832 242.343C62.7412 242.134 62.6564 241.92 62.5782 241.702C61.7942 239.511 61.7984 237.23 62.4446 235.169C63.3765 232.194 65.6437 229.676 68.8067 228.546C69.8504 228.172 70.9151 227.978 71.9663 227.946C76.3074 227.815 80.4275 230.462 81.9695 234.77C83.8838 240.123 81.0956 246.013 75.741 247.927Z" fill="#D3DFFF"/>
<path d="M62.4455 235.171L59.1641 234.146C60.4069 230.179 63.4312 226.821 67.6496 225.312C69.0421 224.814 70.4614 224.556 71.8639 224.514L71.9664 227.948C70.9151 227.98 69.8513 228.174 68.8068 228.548C65.6446 229.677 63.3766 232.195 62.4455 235.171Z" fill="#1FC9AA"/>
<path d="M62.832 242.343L59.6799 243.715C59.5589 243.436 59.4455 243.15 59.3421 242.859C58.2968 239.937 58.3018 236.895 59.1631 234.146L62.4446 235.169C61.7992 237.23 61.7942 239.511 62.5782 241.702C62.6564 241.92 62.7412 242.134 62.832 242.343Z" fill="#6EE0CC"/>
<path d="M61.8092 247.131C60.9521 246.125 60.2302 244.98 59.6807 243.714L62.8327 242.343C63.2445 243.292 63.7865 244.15 64.4285 244.905L61.8092 247.131Z" fill="#A4EADD"/>
<path d="M114.305 257.228H98.2178V280.822H114.305V257.228Z" fill="#D3DFFF"/>
<path d="M134.681 257.228H117.521V265.807H134.681V257.228Z" fill="#A4C9FF"/>
<path d="M134.681 269.025H117.521V280.822H134.681V269.025Z" fill="#D3DFFF"/>
<path d="M126.889 249.259H106.27V250.811H126.889V249.259Z" fill="#D3DFFF"/>
<path d="M134.682 245.856H98.4766V224.896H134.682V245.856ZM98.8555 245.477H134.303V225.276H98.8555V245.477Z" fill="#86A7FF"/>
<path d="M132.029 229.475C130.828 229.234 129.637 230.017 128.877 230.982C128.516 231.439 128.22 231.941 127.927 232.446C127.601 233.007 127.283 233.571 126.891 234.087C126.146 235.065 124.991 235.883 123.779 235.699C121.815 235.399 120.739 232.697 118.754 232.732C117.825 232.748 117.03 233.392 116.397 234.074C115.765 234.758 115.188 235.533 114.364 235.963C113.213 236.567 111.793 236.369 110.6 235.856C109.408 235.343 108.361 234.544 107.227 233.911C105.327 232.85 103.168 232.289 100.998 232.23V242.481H132.159V233.05V229.507C132.117 229.496 132.074 229.483 132.029 229.475Z" fill="#D3DFFF"/>
<path d="M110.601 235.858C111.793 236.372 113.213 236.567 114.364 235.965C115.186 235.535 115.765 234.757 116.397 234.076C117.03 233.392 117.825 232.75 118.754 232.734C120.739 232.7 121.815 235.401 123.779 235.701C124.991 235.885 126.146 235.067 126.891 234.089C127.283 233.574 127.601 233.01 127.927 232.448C126.72 232.505 125.511 232.563 124.468 232.005C123.427 231.449 122.746 230.367 121.708 229.803C119.845 228.795 117.569 229.757 115.714 230.778C114.606 231.388 113.368 232.045 112.14 231.743C110.753 231.404 109.936 229.985 108.78 229.14C106.565 227.523 103.24 228.306 101.345 230.295L101.342 230.297C101.115 230.535 100.998 230.842 100.998 231.155V232.232C103.17 232.288 105.33 232.849 107.227 233.913C108.361 234.546 109.408 235.345 110.601 235.858Z" fill="#A4C9FF"/>
<path d="M88.5576 258.587H58.8936V259.886H88.5576V258.587Z" fill="#86A7FF"/>
<path d="M84.4369 261.813H58.8936V263.112H84.4369V261.813Z" fill="#86A7FF"/>
<path d="M75.0053 265.038H58.8936V266.337H75.0053V265.038Z" fill="#86A7FF"/>
<path d="M84.984 271.042H58.8936V272.341H84.984V271.042Z" fill="#D3DFFF"/>
<path d="M81.3598 274.268H58.8936V275.566H81.3598V274.268Z" fill="#D3DFFF"/>
</g>
<g filter="url(#filter1_d)">
<rect x="263.25" y="206.25" width="46.6884" height="84.2246" rx="2.75" fill="#F5F8FC" stroke="#CFD3D7" stroke-width="0.5"/>
<path d="M300.536 268.203H273.725V269.377H300.536V268.203Z" fill="#86A7FF"/>
<path d="M296.812 271.118H273.725V272.292H296.812V271.118Z" fill="#86A7FF"/>
<path d="M288.287 274.033H273.725V275.207H288.287V274.033Z" fill="#86A7FF"/>
<path d="M298.379 279.461H274.797V280.635H298.379V279.461Z" fill="#D3DFFF"/>
<path d="M295.103 282.376H274.797V283.55H295.103V282.376Z" fill="#D3DFFF"/>
<path d="M299.321 244.064C297.265 238.317 291.771 234.788 285.979 234.962C284.577 235.004 283.158 235.264 281.765 235.761C277.547 237.268 274.522 240.627 273.279 244.595C272.418 247.344 272.413 250.386 273.458 253.308C273.563 253.599 273.675 253.885 273.796 254.164C274.347 255.43 275.068 256.575 275.925 257.581C279.519 261.804 285.482 263.588 291.014 261.611C298.156 259.058 301.876 251.202 299.321 244.064ZM289.857 258.376C285.709 259.858 281.239 258.521 278.544 255.355C277.902 254.601 277.36 253.742 276.948 252.793C276.857 252.583 276.773 252.369 276.694 252.151C275.91 249.961 275.915 247.679 276.561 245.618C277.493 242.644 279.76 240.126 282.923 238.995C283.967 238.622 285.031 238.427 286.083 238.396C290.424 238.265 294.544 240.911 296.086 245.22C298 250.572 295.212 256.462 289.857 258.376Z" fill="#D3DFFF"/>
<path d="M276.56 245.62L273.278 244.595C274.521 240.628 277.545 237.27 281.764 235.762C283.156 235.264 284.576 235.005 285.978 234.963L286.081 238.397C285.029 238.429 283.966 238.623 282.921 238.997C279.759 240.126 277.491 242.644 276.56 245.62Z" fill="#1FC9AA"/>
<path d="M276.947 252.793L273.795 254.164C273.674 253.885 273.561 253.599 273.457 253.308C272.412 250.386 272.417 247.344 273.278 244.595L276.56 245.619C275.914 247.68 275.909 249.961 276.693 252.151C276.772 252.369 276.856 252.584 276.947 252.793Z" fill="#6EE0CC"/>
<path d="M275.924 257.58C275.067 256.574 274.345 255.429 273.796 254.163L276.948 252.792C277.36 253.741 277.902 254.599 278.544 255.354L275.924 257.58Z" fill="#A4EADD"/>
<rect x="268.612" y="219.119" width="37.0362" height="7.00725" rx="3.50362" fill="white" stroke="#E4E4E4" stroke-width="0.5"/>
<rect x="263" y="206" width="47.1884" height="8.57971" rx="3" fill="#2F7BFF"/>
<path d="M267.273 212.421C266.097 212.421 265.145 211.464 265.145 210.283C265.145 209.101 266.097 208.145 267.273 208.145C268.449 208.145 269.401 209.101 269.401 210.283C269.399 211.464 268.446 212.421 267.273 212.421Z" fill="white"/>
<rect x="300.536" y="208.145" width="6.43478" height="1.07246" fill="white"/>
<rect x="300.536" y="210.29" width="5.36232" height="1.07246" fill="white"/>
<rect x="300.536" y="212.435" width="4.28986" height="1.07246" fill="white"/>
</g>
<defs>
<filter id="filter0_d" x="11" y="191.985" width="160.493" height="109.014" filterUnits="userSpaceOnUse" color-interpolation-filters="sRGB">
<feFlood flood-opacity="0" result="BackgroundImageFix"/>
<feColorMatrix in="SourceAlpha" type="matrix" values="0 0 0 0 0 0 0 0 0 0 0 0 0 0 0 0 0 0 127 0" result="hardAlpha"/>
<feOffset/>
<feGaussianBlur stdDeviation="5"/>
<feComposite in2="hardAlpha" operator="out"/>
<feColorMatrix type="matrix" values="0 0 0 0 0 0 0 0 0 0 0 0 0 0 0 0 0 0 0.1 0"/>
<feBlend mode="normal" in2="BackgroundImageFix" result="effect1_dropShadow"/>
<feBlend mode="normal" in="SourceGraphic" in2="effect1_dropShadow" result="shape"/>
</filter>
<filter id="filter1_d" x="253" y="196" width="67.1884" height="104.725" filterUnits="userSpaceOnUse" color-interpolation-filters="sRGB">
<feFlood flood-opacity="0" result="BackgroundImageFix"/>
<feColorMatrix in="SourceAlpha" type="matrix" values="0 0 0 0 0 0 0 0 0 0 0 0 0 0 0 0 0 0 127 0" result="hardAlpha"/>
<feOffset/>
<feGaussianBlur stdDeviation="5"/>
<feComposite in2="hardAlpha" operator="out"/>
<feColorMatrix type="matrix" values="0 0 0 0 0 0 0 0 0 0 0 0 0 0 0 0 0 0 0.1 0"/>
<feBlend mode="normal" in2="BackgroundImageFix" result="effect1_dropShadow"/>
<feBlend mode="normal" in="SourceGraphic" in2="effect1_dropShadow" result="shape"/>
</filter>
</defs>
</svg>
