<svg width="346" height="279" viewBox="0 0 346 279" fill="none" xmlns="http://www.w3.org/2000/svg">
<circle r="125.041" transform="matrix(-1 0 0 1 176.959 153.046)" fill="#F0F7FF"/>
<path d="M11 278.048L343.582 278.004" stroke="black" stroke-width="1.133" stroke-miterlimit="10"/>
<path d="M176.314 277H323.368C328.225 277 332.368 273.066 332.619 268.213L345.78 13.0804C346.031 8.22757 342.294 4.29297 337.437 4.29297H190.383C185.525 4.29297 181.382 8.22757 181.132 13.0804L167.97 268.21C167.72 273.066 171.456 277 176.314 277Z" fill="#7C7C7C"/>
<path opacity="0.8" d="M176.314 277H323.368C328.225 277 332.368 273.066 332.619 268.213L345.78 13.0804C346.031 8.22757 342.294 4.29297 337.437 4.29297H190.383C185.525 4.29297 181.382 8.22757 181.132 13.0804L167.97 268.21C167.72 273.066 171.456 277 176.314 277Z" fill="white"/>
<path d="M169.993 260.818H310.633C315.28 260.818 319.241 257.054 319.48 252.412L332.067 8.40652C332.308 3.76403 328.734 0 324.087 0H183.445C178.798 0 174.837 3.76403 174.598 8.40652L162.011 252.414C161.772 257.054 165.346 260.818 169.993 260.818Z" fill="#F6F6F6"/>
<path d="M169.994 255.204H310.633C312.272 255.204 313.783 253.765 313.869 252.125L326.458 8.117C326.504 7.22717 326.142 6.65006 325.835 6.32596C325.527 6.00187 324.973 5.61523 324.09 5.61523H183.451C181.812 5.61523 180.301 7.05375 180.215 8.69696L167.629 252.702C167.583 253.592 167.945 254.169 168.255 254.496C168.557 254.817 169.109 255.204 169.994 255.204ZM324.088 5.90237C324.87 5.90237 325.354 6.24068 325.624 6.52213C325.895 6.80642 326.21 7.31246 326.171 8.10279L313.584 252.111C313.507 253.606 312.13 254.917 310.636 254.917H169.997C169.214 254.917 168.73 254.578 168.463 254.297C168.192 254.013 167.877 253.507 167.916 252.716L180.5 8.71118C180.577 7.2158 181.954 5.90237 183.448 5.90237H324.088Z" fill="white"/>
<path opacity="0.3" d="M219.175 94.5461C203.182 78.1496 204.225 51.2205 221.506 34.3982C238.786 17.5759 265.759 17.2306 281.752 33.6271C297.745 50.0235 296.702 76.9526 279.421 93.7749C262.141 110.597 235.168 110.943 219.175 94.5461Z" fill="white"/>
<path d="M216.014 64.0962C215.707 70.0407 216.928 75.6185 219.332 80.4884C224.588 91.2148 235.593 98.5097 248.686 98.5097C261.779 98.5097 273.534 91.2148 279.9 80.4884C282.805 75.6185 284.601 70.0407 284.908 64.0962C285.89 45.0884 271.263 29.6826 252.237 29.6826C233.211 29.6826 216.996 45.0856 216.014 64.0962Z" fill="white"/>
<path d="M219.332 80.4859C224.588 91.2122 235.592 98.5072 248.685 98.5072C261.778 98.5072 273.534 91.2122 279.899 80.4859C271.525 74.6977 261.294 71.3203 250.088 71.3203C238.882 71.3203 228.301 74.7005 219.332 80.4859Z" fill="#2F7BFF"/>
<path d="M239.792 63.2922C234.029 57.3829 234.405 47.6775 240.633 41.6146C246.861 35.5517 256.582 35.4271 262.346 41.3364C268.11 47.2457 267.733 56.9511 261.506 63.014C255.278 69.0769 245.556 69.2015 239.792 63.2922Z" fill="#2F7BFF"/>
<path d="M190.15 165.901H300.269C302.235 165.901 303.911 164.309 304.014 162.344L304.848 146.18C304.95 144.215 303.436 142.623 301.47 142.623H191.35C189.384 142.623 187.708 144.215 187.605 146.18L186.772 162.344C186.669 164.309 188.183 165.901 190.15 165.901Z" fill="white"/>
<path d="M223.871 133.745H269.863C271.829 133.745 273.505 132.153 273.608 130.188L273.784 126.757C273.887 124.792 272.373 123.2 270.406 123.2H224.414C222.448 123.2 220.772 124.792 220.669 126.757L220.493 130.188C220.393 132.153 221.905 133.745 223.871 133.745Z" fill="#D2D2D2"/>
<path d="M206.769 243.385H275.654C279.003 243.385 281.858 240.673 282.031 237.327L282.441 229.389C282.615 226.043 280.039 223.331 276.69 223.331H207.804C204.455 223.331 201.601 226.043 201.427 229.389L201.017 237.327C200.847 240.673 203.419 243.385 206.769 243.385Z" fill="#D2D2D2"/>
<path d="M188.137 204.866H298.259C300.226 204.866 301.902 203.274 302.004 201.309L302.838 185.144C302.94 183.18 301.426 181.588 299.46 181.588H189.341C187.374 181.588 185.698 183.18 185.596 185.144L184.762 201.309C184.659 203.271 186.171 204.866 188.137 204.866Z" fill="white"/>
<path d="M286.266 154.262C286.155 156.436 287.828 158.199 290.005 158.199C292.182 158.199 294.037 156.436 294.148 154.262C294.259 152.087 292.586 150.324 290.409 150.324C288.232 150.324 286.377 152.087 286.266 154.262Z" fill="#1A2E35"/>
<path d="M274.154 154.262C274.043 156.436 275.717 158.199 277.893 158.199C280.07 158.199 281.926 156.436 282.037 154.262C282.148 152.087 280.474 150.324 278.298 150.324C276.121 150.324 274.265 152.087 274.154 154.262Z" fill="#1A2E35"/>
<path d="M262.043 154.262C261.932 156.436 263.605 158.199 265.782 158.199C267.959 158.199 269.814 156.436 269.925 154.262C270.036 152.087 268.363 150.324 266.186 150.324C264.009 150.324 262.154 152.087 262.043 154.262Z" fill="#1A2E35"/>
<path d="M249.932 154.262C249.821 156.436 251.494 158.199 253.671 158.199C255.848 158.199 257.703 156.436 257.814 154.262C257.925 152.087 256.252 150.324 254.075 150.324C251.898 150.324 250.043 152.087 249.932 154.262Z" fill="#1A2E35"/>
<path d="M284.257 193.225C284.146 195.399 285.819 197.162 287.996 197.162C290.173 197.162 292.028 195.399 292.139 193.225C292.25 191.05 290.577 189.287 288.4 189.287C286.223 189.287 284.368 191.05 284.257 193.225Z" fill="#1A2E35"/>
<path d="M272.145 193.225C272.034 195.399 273.708 197.162 275.885 197.162C278.062 197.162 279.917 195.399 280.028 193.225C280.139 191.05 278.466 189.287 276.289 189.287C274.112 189.287 272.256 191.05 272.145 193.225Z" fill="#1A2E35"/>
<path d="M260.031 193.225C259.92 195.399 261.593 197.162 263.77 197.162C265.947 197.162 267.803 195.399 267.914 193.225C268.025 191.05 266.351 189.287 264.175 189.287C262 189.287 260.145 191.05 260.031 193.225Z" fill="#1A2E35"/>
<path d="M247.92 193.225C247.809 195.399 249.482 197.162 251.659 197.162C253.836 197.162 255.691 195.399 255.802 193.225C255.913 191.05 254.24 189.287 252.063 189.287C249.889 189.287 248.034 191.05 247.92 193.225Z" fill="#1A2E35"/>
<path d="M235.809 193.225C235.698 195.399 237.371 197.162 239.548 197.162C241.725 197.162 243.58 195.399 243.691 193.225C243.802 191.05 242.129 189.287 239.952 189.287C237.775 189.287 235.922 191.05 235.809 193.225Z" fill="#1A2E35"/>
<path d="M223.697 193.225C223.586 195.399 225.259 197.162 227.436 197.162C229.613 197.162 231.469 195.399 231.58 193.225C231.691 191.05 230.017 189.287 227.841 189.287C225.664 189.287 223.811 191.05 223.697 193.225Z" fill="#1A2E35"/>
<path d="M66.8725 102.305C71.2866 102.305 74.8576 98.7226 74.8437 94.312L74.8088 85.1288C74.8088 85.1288 81.4178 84.1018 81.4979 77.5016C81.5781 70.9013 80.4353 55.7409 80.4353 55.7409C72.7882 52.4582 63.96 53.5652 57.3615 58.6373L58.9223 94.9108C59.2219 99.0742 62.6919 102.305 66.8725 102.305Z" fill="white" stroke="black" stroke-width="0.5" stroke-miterlimit="10"/>
<path d="M58.0957 66.2252C57.9842 66.1765 53.5562 64.885 53.699 69.3965C53.8419 73.9081 58.35 72.8324 58.3535 72.7036C58.357 72.5748 58.0957 66.2252 58.0957 66.2252Z" fill="white" stroke="black" stroke-width="0.5" stroke-miterlimit="10"/>
<path d="M76.1381 65.968C76.1556 66.4658 75.7479 66.8905 75.2288 66.9184C74.7097 66.9462 74.2743 66.5668 74.2569 66.069C74.2394 65.5712 74.647 65.1465 75.1661 65.1186C75.6852 65.0908 76.1207 65.4702 76.1381 65.968Z" fill="#1A2E35"/>
<path d="M69.5581 65.968C69.5755 66.4658 69.1679 66.8905 68.6488 66.9184C68.1297 66.9462 67.6942 66.5668 67.6768 66.069C67.6594 65.5712 68.067 65.1465 68.5861 65.1186C69.1052 65.0908 69.5406 65.4702 69.5581 65.968Z" fill="#1A2E35"/>
<path d="M70.0186 73.008C70.2237 72.9949 70.228 74.3772 71.4106 75.3539C72.5889 76.335 74.0639 76.1824 74.0726 76.3742C74.0901 76.4614 73.7453 76.6402 73.1256 76.6577C72.5147 76.6795 71.6288 76.4832 70.9044 75.8859C70.1844 75.2841 69.8746 74.4862 69.8266 73.9193C69.7698 73.3437 69.9269 72.9993 70.0186 73.008Z" fill="#1A2E35"/>
<path d="M70.2832 61.2366C70.1822 61.5116 69.1684 61.3828 67.9769 61.5255C66.7819 61.6439 65.8203 61.992 65.6636 61.7449C65.5939 61.6265 65.7611 61.3654 66.1478 61.1008C66.5311 60.8328 67.1477 60.5822 67.8619 60.5021C68.5761 60.4255 69.2311 60.5369 69.6666 60.7144C70.109 60.8885 70.3285 61.1078 70.2832 61.2366Z" fill="#1A2E35"/>
<path d="M76.845 62.0886C76.6674 62.3184 75.9671 62.0782 75.1275 62.0677C74.2879 62.026 73.5737 62.2209 73.4099 61.9807C73.3367 61.8623 73.4517 61.6326 73.7618 61.4133C74.0684 61.1974 74.5805 61.0199 75.1588 61.0373C75.7372 61.0547 76.2388 61.2636 76.5315 61.5003C76.8241 61.737 76.9217 61.9737 76.845 62.0886Z" fill="#1A2E35"/>
<path d="M72.6019 67.1641L72.3955 70.8276L74.2787 70.5577C74.6251 70.5059 74.7946 70.103 74.5845 69.822L72.6019 67.1641Z" fill="black"/>
<path d="M83.6543 51.5697C83.724 50.7517 83.4209 49.8744 82.752 49.394C82.0865 48.9136 81.0518 48.945 80.5118 49.5611C80.8219 48.4576 79.9196 47.187 78.7768 47.1139C77.7003 47.0443 76.7806 47.8588 75.7389 48.1443C74.7216 48.4228 73.6311 48.1826 72.6556 47.7892C71.6767 47.3958 70.7639 46.8528 69.7745 46.4907C67.7085 45.7388 65.3499 45.8328 63.3502 46.7484C61.3539 47.6639 59.7409 49.3905 58.9674 51.4479C57.5216 50.9953 55.8807 51.7299 54.9888 52.9518C54.097 54.1736 53.8705 55.7819 54.0482 57.2823C54.1666 58.2988 54.4628 59.277 54.8042 60.2447C54.8042 60.3283 54.7972 60.4118 54.7972 60.4989C54.8669 64.1297 55.278 68.3906 56.8248 68.415C59.5249 68.4568 58.8838 63.3708 58.8838 63.3708C62.2005 62.0898 60.9637 57.1291 61.7929 56.3737C62.622 55.6218 64.357 53.8708 71.2969 57.4146C73.9935 58.7896 77.5749 58.7479 79.5328 58.3058C79.5886 58.2918 79.6478 58.2849 79.707 58.2709C79.7175 58.2675 79.7349 58.2675 79.7488 58.264C79.7697 58.257 79.7837 58.2466 79.8046 58.2396C80.4282 58.076 81.0309 57.8358 81.5849 57.4842C82.212 57.0874 82.7868 56.5478 83.0516 55.855C83.3163 55.1623 83.2188 54.2955 82.6718 53.7872C83.1805 53.1467 83.5811 52.3878 83.6543 51.5697Z" fill="#1E1E1E"/>
<path d="M1.98412 96.2021C2.15134 96.4806 4.02916 100.014 4.02916 100.014C4.02916 100.014 2.53458 94.2248 2.47884 94.016C1.99458 92.1257 3.16516 92.3206 3.51007 92.996C3.86542 93.6957 5.98363 99.3909 5.98363 99.3909C3.99433 91.9482 4.61794 91.2902 5.17537 91.1754C5.73627 91.057 7.48867 97.8626 7.48867 97.8626C7.48867 97.8626 8.11925 96.6999 9.28635 95.8993C11.0875 94.6635 14.0837 95.8958 14.2265 96.7452C14.3728 97.5911 13.2998 97.8278 13.2998 97.8278C11.0457 96.3762 8.7359 98.1342 8.97281 100.282C9.20971 102.43 11.9341 102.134 12.2721 100.602C13.0176 97.2465 14.1743 98.3361 14.1743 98.3361L13.0176 105.74L14.2439 109.462L20.9435 127.623L33.7537 114.294C33.7537 114.294 40.6031 129.423 40.7633 129.931C40.8713 130.272 34.339 137.06 30.0469 141.474C27.7231 143.862 24.5179 145.189 21.1839 145.14C15.6201 145.06 10.8262 141.206 9.55462 135.793L4.48904 109.712L2.11651 101.166C2.11651 101.166 1.25947 97.6955 1.0574 96.881C0.78566 95.8088 1.53818 95.4711 1.98412 96.2021Z" fill="white" stroke="black" stroke-width="0.5" stroke-miterlimit="10"/>
<path d="M115.81 147.148C111.988 147.82 107.598 145.073 105.25 141.986L95.7076 129.422L106.922 119.428L116.97 131.967L154.704 129.969L163.616 124.977C164.225 124.636 164.936 124.507 165.629 124.615L177.893 128.071L166.385 131.605L146.304 139.155L115.81 147.148Z" fill="white" stroke="black" stroke-width="0.5" stroke-miterlimit="10"/>
<path d="M94.8871 277.525L90.8322 167.767L45.6689 160.892L20.8091 277.25H44.8031L66.0469 189.089L66.5398 189.139L69.7914 277.525H94.8871Z" fill="#282B3B" stroke="black" stroke-width="0.5"/>
<path d="M91.2657 126.483L97.9339 134.08L111.504 122.342L96.3118 101.656C92.3734 96.3386 86.445 92.8407 79.8852 91.9482L79.9189 91.7005L79.8852 91.9482C78.649 91.7799 77.6154 91.6683 76.7735 91.5774C76.3096 91.5273 75.9039 91.4835 75.5547 91.44C69.8694 93.1788 64.1807 93.1742 58.4954 91.4264C55.9113 91.54 53.6745 91.9975 51.5718 92.7571L51.5717 92.7572C47.2009 94.3349 43.5508 96.7297 40.4313 99.9642L23.4912 122.847L37.7694 135.189L45.9322 128.016L46.4221 127.585L46.3456 128.233L40.7185 175.857L92.3008 173.935L90.8279 126.655L90.8062 125.959L91.2657 126.483Z" fill="#2F7BFF" stroke="black" stroke-width="0.5"/>
<path d="M89.3655 102.948C89.2017 102.953 89.362 107.914 89.7278 114.028C90.0936 120.145 90.5221 125.099 90.6859 125.095C90.8496 125.09 90.6894 120.132 90.3236 114.015C89.9577 107.901 89.5292 102.944 89.3655 102.948Z" fill="#1560CE"/>
<path d="M48.9162 106.601C48.7525 106.583 48.1741 111.157 47.6272 116.811C47.0802 122.468 46.7701 127.063 46.9339 127.08C47.0976 127.098 47.6759 122.527 48.2229 116.87C48.7699 111.213 49.08 106.615 48.9162 106.601Z" fill="#1560CE"/>
<path d="M41.7715 173.918C41.7748 174.082 52.9118 173.928 66.6378 173.57C80.3706 173.211 91.4975 172.79 91.4941 172.623C91.4908 172.459 80.3572 172.613 66.6244 172.971C52.895 173.33 41.7681 173.754 41.7715 173.918Z" fill="#145BC4"/>
<path d="M170.662 133.014C170.634 132.983 170.601 132.953 170.573 132.923C158.627 145.691 139.565 156.154 119.168 160.611C119.161 161.971 119.128 169.5 118.973 204.21C118.766 250.513 162.932 273.138 169.788 276.61C149.644 195.253 165.424 146.044 170.662 133.014Z" fill="#1FC9AA"/>
<path d="M170.66 133.015C165.423 146.045 149.643 195.254 169.787 276.611C176.429 273.561 221.153 250.969 221.361 204.666C221.515 169.956 221.551 162.426 221.556 161.067C201.248 156.438 182.497 145.846 170.66 133.015Z" fill="#1FC9AA"/>
<path d="M169.757 278.202L169.136 277.889C155.702 271.084 146.263 263.036 140.714 257.483C125.246 242.006 117.448 224.081 117.537 204.201L117.608 188.103C117.701 167.002 117.727 161.718 117.729 160.601L117.734 159.452L118.859 159.207C138.655 154.881 157.593 144.688 169.519 131.94L170.57 130.818L171.717 132.039C183.561 144.88 202.312 155.207 221.875 159.664L223 159.919L222.995 161.069C222.987 162.428 222.954 169.958 222.8 204.668C222.585 252.56 175.731 275.455 170.39 277.909L169.757 278.202ZM120.601 161.759C120.591 164.268 120.561 170.969 120.482 188.118L120.411 204.216C120.229 244.884 154.392 267.077 169.815 275.011C177.256 271.466 219.723 249.276 219.923 204.658C220.055 175.292 220.098 165.379 220.113 162.201C200.929 157.607 182.589 147.535 170.565 135.005C158.449 147.404 139.965 157.309 120.601 161.759Z" fill="#1FC9AA"/>
<path d="M169.861 268.348L169.069 267.936C164.267 265.445 154.877 259.939 145.934 251.057C132.224 237.443 125.31 221.714 125.388 204.302L125.561 165.971L126.852 165.638C143.356 161.39 158.412 153.59 169.244 143.675L170.464 142.556L171.634 143.726L170.507 145.032L171.685 143.771C182.425 153.744 197.374 161.65 213.785 166.027L215.074 166.368L214.902 204.701C214.826 222.111 207.773 237.779 193.938 251.272C185.196 259.8 176.008 265.164 171.31 267.605L169.861 268.348ZM129.002 168.634L128.843 204.317C128.769 220.772 135.339 235.674 148.373 248.612C156.52 256.705 165.057 261.89 169.874 264.459C174.443 262.072 183.193 256.927 191.519 248.806C204.668 235.983 211.372 221.138 211.445 204.684L211.605 169.003C195.7 164.564 181.169 156.9 170.403 147.268C159.552 156.799 144.957 164.336 129.002 168.634ZM170.492 145.032L170.5 145.024L170.492 145.032Z" fill="#1EE4BE"/>
<g clip-path="url(#clip0)">
<path d="M165.243 223C163.798 223 162.404 222.422 161.371 221.371L147.585 207.342C145.468 205.187 145.468 201.667 147.585 199.513C149.702 197.358 153.161 197.358 155.278 199.513L165.088 209.496L185.535 186.797C187.549 184.537 191.008 184.38 193.229 186.482C195.449 188.531 195.604 192.051 193.538 194.311L169.271 221.213C168.29 222.317 166.844 223 165.347 223C165.347 223 165.3 223 165.243 223Z" fill="white"/>
</g>
<defs>
<clipPath id="clip0">
<rect width="49" height="38" fill="white" transform="translate(146 185)"/>
</clipPath>
</defs>
</svg>
