<svg xmlns="http://www.w3.org/2000/svg" width="549.368" height="540.814" viewBox="0 0 549.368 540.814">
    <defs>
        <style>
            .prefix__cls-1{fill:#da2419}.prefix__cls-3,.prefix__cls-4{fill:none}.prefix__cls-3{stroke:#e8ebed;stroke-miterlimit:10;stroke-width:1.504px}.prefix__cls-4{stroke:#1c1e1d;stroke-linecap:round;stroke-linejoin:round;stroke-width:.641px}.prefix__cls-6{fill:#fff}.prefix__cls-13,.prefix__cls-7{fill:#ff6161}.prefix__cls-10,.prefix__cls-13{fill-rule:evenodd}
        </style>
    </defs>
    <g id="prefix__Group_12620" data-name="Group 12620" transform="translate(-84.093 -52.481)">
        <g id="prefix__Group_12598" data-name="Group 12598" transform="translate(494.234 168.55)">
            <g id="prefix__Group_12596" data-name="Group 12596">
                <path id="prefix__Rectangle_3524" d="M0 0H139.227V23.578H0z" class="prefix__cls-1" data-name="Rectangle 3524"/>
                <path id="prefix__Rectangle_3525" fill="#fdfdfb" d="M0 0H139.227V79.22H0z" data-name="Rectangle 3525" transform="translate(0 23.578)"/>
                <path id="prefix__Line_182" d="M0 0L0 79.22" class="prefix__cls-3" data-name="Line 182" transform="translate(116.175 23.578)"/>
                <path id="prefix__Line_183" d="M0 0L0 79.22" class="prefix__cls-3" data-name="Line 183" transform="translate(92.882 23.578)"/>
                <path id="prefix__Line_184" d="M0 0L0 79.22" class="prefix__cls-3" data-name="Line 184" transform="translate(69.589 23.578)"/>
                <path id="prefix__Line_185" d="M0 0L0 79.22" class="prefix__cls-3" data-name="Line 185" transform="translate(46.296 23.578)"/>
                <path id="prefix__Line_186" d="M0 0L0 79.22" class="prefix__cls-3" data-name="Line 186" transform="translate(23.004 23.578)"/>
                <path id="prefix__Line_187" d="M0 0L139.227 0" class="prefix__cls-3" data-name="Line 187" transform="translate(0 42.757)"/>
                <path id="prefix__Line_188" d="M0 0L139.227 0" class="prefix__cls-3" data-name="Line 188" transform="translate(0 62.771)"/>
                <path id="prefix__Line_189" d="M0 0L139.227 0" class="prefix__cls-3" data-name="Line 189" transform="translate(0 82.784)"/>
            </g>
            <g id="prefix__Group_12597" data-name="Group 12597" transform="translate(93.01 66.127)">
                <path id="prefix__Path_10099" d="M401.66 173.58a82.734 82.734 0 0 0 14.732 10.985" class="prefix__cls-4" data-name="Path 10099" transform="translate(-397.107 -171.357)"/>
                <path id="prefix__Path_10100" d="M418.239 172.12a246.351 246.351 0 0 1-19.569 16.436" class="prefix__cls-4" data-name="Path 10100" transform="translate(-398.67 -172.12)"/>
            </g>
        </g>
        <g id="prefix__Group_12605" data-name="Group 12605" transform="translate(266.44 249.093)">
            <g id="prefix__Group_12602" data-name="Group 12602">
                <path id="prefix__Path_10131" d="M0 0h198.379v10.714a9.329 9.329 0 0 1-9.329 9.329H9.329A9.329 9.329 0 0 1 0 10.714z" data-name="Path 10131" transform="translate(0 115.603)"/>
                <path id="prefix__Rectangle_3527" d="M0 0H40.713V17.538H0z" data-name="Rectangle 3527" transform="translate(79.228 135.646)"/>
                <path id="prefix__Rectangle_3528" d="M7.969 0H190.41a7.969 7.969 0 0 1 7.969 7.969v107.959H0V7.969A7.969 7.969 0 0 1 7.969 0z" data-name="Rectangle 3528"/>
                <path id="prefix__Path_10130" fill="#f5dada" d="M0 0h183.5v100.429H0z" data-name="Path 10130" transform="translate(8.059 8.341)"/>
                <circle id="prefix__Ellipse_230" cx="4.481" cy="4.481" r="4.481" class="prefix__cls-6" data-name="Ellipse 230" transform="translate(94.709 120.246)"/>
                <rect id="prefix__Rectangle_3530" width="60.493" height="43.781" class="prefix__cls-6" data-name="Rectangle 3530" rx="2.423" transform="translate(20.236 54.89)"/>
                <g id="prefix__Group_12600" data-name="Group 12600" transform="translate(25.571 59.943)">
                    <g id="prefix__Group_12599" data-name="Group 12599" transform="translate(1.548 23.305)">
                        <rect id="prefix__Rectangle_3531" width="46.679" height="2.62" class="prefix__cls-7" data-name="Rectangle 3531" rx=".821"/>
                        <rect id="prefix__Rectangle_3532" width="27.681" height="2.62" class="prefix__cls-7" data-name="Rectangle 3532" rx=".821" transform="translate(0 6.151)"/>
                    </g>
                    <path id="prefix__Path_10101" d="M221.436 229.264a8.316 8.316 0 1 1-8.315-8.316 8.316 8.316 0 0 1 8.315 8.316z" class="prefix__cls-7" data-name="Path 10101" transform="translate(-204.805 -220.948)"/>
                </g>
                <path id="prefix__Path_10102" d="M304.4 288.046h-76.284a5.869 5.869 0 0 1 5.871-5.871h64.544a5.869 5.869 0 0 1 5.871 5.871z" data-name="Path 10102" transform="translate(-167.046 -128.99)"/>
                <g id="prefix__Group_12601" data-name="Group 12601" transform="translate(20.746 29.525)">
                    <rect id="prefix__Rectangle_3533" width="48.67" height="2.62" class="prefix__cls-6" data-name="Rectangle 3533" rx=".821"/>
                    <rect id="prefix__Rectangle_3534" width="48.67" height="2.62" class="prefix__cls-6" data-name="Rectangle 3534" rx=".821" transform="translate(0 16.495)"/>
                    <rect id="prefix__Rectangle_3535" width="59.654" height="2.62" class="prefix__cls-6" data-name="Rectangle 3535" rx=".821" transform="translate(0 8.213)"/>
                </g>
            </g>
            <g id="prefix__Group_12603" data-name="Group 12603" transform="translate(17.275 124.949)">
                <path id="prefix__Rectangle_3536" d="M0 0H27.806V16.399H0z" class="prefix__cls-6" data-name="Rectangle 3536" transform="translate(0 3.066)"/>
                <path id="prefix__Rectangle_3537" d="M0 0H10.148V6.133H0z" data-name="Rectangle 3537" transform="translate(8.295)"/>
            </g>
            <rect id="prefix__Rectangle_3538" width="80.036" height="76.7" class="prefix__cls-6" data-name="Rectangle 3538" rx="2.514" transform="translate(94.758 21.971)"/>
            <g id="prefix__Group_12604" data-name="Group 12604" transform="translate(109.196 35.025)">
                <path id="prefix__Rectangle_3539" d="M0 0H52.381V52.381H0z" class="prefix__cls-1" data-name="Rectangle 3539"/>
                <path id="prefix__Path_10103" d="M278.179 232.044l9.351-11.183 14.915 13.474v14.121h-24.266z" class="prefix__cls-6" data-name="Path 10103" transform="translate(-250.065 -196.075)"/>
                <path id="prefix__Path_10104" d="M259.718 233.636l10.559-16.208 33.623 32.823h-44.182z" data-name="Path 10104" transform="translate(-259.718 -197.87)"/>
            </g>
        </g>
        <g id="prefix__Group_12609" data-name="Group 12609" transform="translate(106.17 203.847)">
            <circle id="prefix__Ellipse_231" cx="11.746" cy="11.746" r="11.746" class="prefix__cls-6" data-name="Ellipse 231" transform="rotate(-45 96.547 -95.554)"/>
            <g id="prefix__Group_12608" data-name="Group 12608">
                <path id="prefix__Path_10105" d="M87.144 243.85a2.388 2.388 0 0 1-1.663-4.1l74.649-72.436a2.383 2.383 0 0 1 1.482-.669l14.647-1.1a2.387 2.387 0 1 1 .358 4.761l-13.784 1.034-74.028 71.835a2.374 2.374 0 0 1-1.661.675z" class="prefix__cls-7" data-name="Path 10105" transform="translate(-81.736 -144.729)"/>
                <path id="prefix__Path_10106" d="M119.113 316.172a2.387 2.387 0 0 1-2.287-1.707L87.854 216.9a2.388 2.388 0 1 1 4.578-1.36l28.97 97.569a2.387 2.387 0 0 1-2.289 3.067z" class="prefix__cls-7" data-name="Path 10106" transform="translate(-80.168 -119.481)"/>
                <path id="prefix__Path_10107" d="M164.8 176.028l-13.5 7.8-11.693-20.254a7.8 7.8 0 0 1 2.852-10.65 7.8 7.8 0 0 1 10.649 2.854z" class="prefix__cls-7" data-name="Path 10107" transform="translate(-53.602 -151.875)"/>
                <path id="prefix__Path_10108" d="M90.172 290.095s7.617-11.882 28.03-11.882 27.419 11.882 27.419 11.882z" class="prefix__cls-1" data-name="Path 10108" transform="translate(-78.904 -85.815)"/>
                <g id="prefix__Group_12606" data-name="Group 12606" transform="translate(0 91.533)">
                    <path id="prefix__Path_10109" d="M96.747 211.98H85.886v10.24h9.631a5.195 5.195 0 1 0 1.23-10.24z" class="prefix__cls-1" data-name="Path 10109" transform="translate(-81.145 -211.98)"/>
                    <path id="prefix__Path_10110" d="M93.174 217.181a5.2 5.2 0 1 1-5.2-5.2 5.2 5.2 0 0 1 5.2 5.2z" class="prefix__cls-1" data-name="Path 10110" transform="translate(-82.773 -211.98)"/>
                </g>
                <g id="prefix__Group_12607" data-name="Group 12607" transform="translate(86.081 15.209)">
                    <path id="prefix__Path_10111" d="M164.968 161.862a25.671 25.671 0 0 0-22.615 37.816l45.231-24.291a25.663 25.663 0 0 0-22.616-13.525z" class="prefix__cls-1" data-name="Path 10111" transform="translate(-139.298 -161.862)"/>
                </g>
            </g>
        </g>
        <g id="prefix__Group_12610" data-name="Group 12610" transform="translate(519.559 357.065)">
            <path id="prefix__Path_10113" d="M362.78 252.486h47.432l-7.027 50.958h-33.026z" class="prefix__cls-6" data-name="Path 10113" transform="translate(-349.752 -252.486)"/>
            <path id="prefix__Path_10114" d="M373.5 287.954c-2.982 0-9.883-.44-14.594-4.164a12.027 12.027 0 0 1-4.68-9.9c0-4.55 1.622-8.121 4.818-10.625 5.167-4.043 12.468-3.512 12.779-3.49l-.577 5.537c-.05.006-4.837-.3-7.857 2.08-1.78 1.406-2.679 3.594-2.679 6.5a6.911 6.911 0 0 0 2.59 5.808c3.894 3.079 11.048 2.671 11.119 2.671l.531 5.537c-.09.008-.615.046-1.45.046z" class="prefix__cls-6" data-name="Path 10114" transform="translate(-354.225 -248.691)"/>
        </g>
        <g id="prefix__Group_12611" data-name="Group 12611" transform="translate(84.093 52.481)">
            <circle id="prefix__Ellipse_232" cx="50.672" cy="50.672" r="50.672" class="prefix__cls-1" data-name="Ellipse 232" transform="rotate(-69.231 68.64 47.379)"/>
            <circle id="prefix__Ellipse_233" cx="39.973" cy="39.973" r="39.973" class="prefix__cls-6" data-name="Ellipse 233" transform="rotate(-76.88 68.633 36.669)"/>
            <path id="prefix__Path_10115" fill="none" stroke="#1c1e1d" stroke-linecap="round" stroke-linejoin="round" stroke-width="2.137px" d="M116.752 77.239v27.644l-16.208 10.242" data-name="Path 10115" transform="translate(-51.404 -39.535)"/>
        </g>
        <g id="prefix__Group_12614" data-name="Group 12614" transform="translate(87.567 408.424)">
            <g id="prefix__Group_12612" data-name="Group 12612" transform="translate(21.007 17.425)">
                <path id="prefix__Rectangle_3540" d="M0 0H143.993V6.639H0z" class="prefix__cls-1" data-name="Rectangle 3540" transform="rotate(-78.12 89.82 71.496)"/>
                <path id="prefix__Rectangle_3541" d="M0 0H6.639V143.993H0z" class="prefix__cls-1" data-name="Rectangle 3541" transform="rotate(-11.861 43.93 -180.24)"/>
                <path id="prefix__Rectangle_3542" d="M0 0H59.222V6.639H0z" class="prefix__cls-1" data-name="Rectangle 3542" transform="translate(8.425 123.969)"/>
                <path id="prefix__Rectangle_3543" d="M0 0H77.279V8.998H0z" data-name="Rectangle 3543"/>
            </g>
            <g id="prefix__Group_12613" data-name="Group 12613" transform="translate(440.888 17.425)">
                <path id="prefix__Rectangle_3544" d="M0 0H143.993V6.641H0z" class="prefix__cls-1" data-name="Rectangle 3544" transform="rotate(-78.12 89.822 71.495)"/>
                <path id="prefix__Rectangle_3545" d="M0 0H6.641V143.993H0z" class="prefix__cls-1" data-name="Rectangle 3545" transform="rotate(-11.861 43.93 -180.235)"/>
                <path id="prefix__Rectangle_3546" d="M0 0H59.221V6.639H0z" class="prefix__cls-1" data-name="Rectangle 3546" transform="translate(8.426 123.969)"/>
                <path id="prefix__Rectangle_3547" d="M0 0H77.279V8.998H0z" data-name="Rectangle 3547"/>
            </g>
            <path id="prefix__Path_10129" d="M0 0h540.65v17.425H0z" data-name="Path 10129"/>
        </g>
        <g id="prefix__Group_12619" data-name="Group 12619" transform="translate(325.558 298.822)">
            <g id="prefix__Group_12617" data-name="Group 12617" transform="translate(18.329 192.124)">
                <g id="prefix__Group_12616" data-name="Group 12616">
                    <path id="prefix__Path_10117" d="M289.948 412.088a6.527 6.527 0 1 1 6.527-6.527 6.539 6.539 0 0 1-6.527 6.527z" class="prefix__cls-10" data-name="Path 10117" transform="translate(-215.575 -309.74)"/>
                    <path id="prefix__Path_10118" d="M245.4 412.088a6.527 6.527 0 1 1 6.527-6.527 6.54 6.54 0 0 1-6.527 6.527z" class="prefix__cls-10" data-name="Path 10118" transform="translate(-238.87 -309.74)"/>
                    <path id="prefix__Rectangle_3549" fill="#b2b3b3" d="M0 0H11.527V44.69H0z" data-name="Rectangle 3549" transform="translate(64.912 34.51)"/>
                    <path id="prefix__Path_10119" d="M313.552 388.769h-10.334a2.606 2.606 0 0 0-2.607 2.607v4.71l-52.7 3.064a7.247 7.247 0 0 0-6.826 7.235h134.596a7.246 7.246 0 0 0-6.826-7.234l-52.7-3.064v-4.712a2.606 2.606 0 0 0-2.603-2.606z" class="prefix__cls-10" data-name="Path 10119" transform="translate(-237.71 -315.107)"/>
                    <path id="prefix__Path_10120" fill="#ff6b6b" fill-rule="evenodd" d="M295.215 379.946H281.74a2.578 2.578 0 0 1-2.578-2.577v-15.04h18.631v15.04a2.578 2.578 0 0 1-2.578 2.577z" data-name="Path 10120" transform="translate(-217.802 -328.932)"/>
                    <path id="prefix__Path_10121" d="M301.032 372.884h-21.945a2.952 2.952 0 0 1-2.951-2.951v-21.27h27.847v21.27a2.951 2.951 0 0 1-2.951 2.951z" class="prefix__cls-13" data-name="Path 10121" transform="translate(-219.384 -336.078)"/>
                    <path id="prefix__Path_10122" d="M322.88 352.984H273.3a12.584 12.584 0 0 1-12.584-12.584h74.748a12.585 12.585 0 0 1-12.584 12.584z" class="prefix__cls-13" data-name="Path 10122" transform="translate(-227.447 -340.399)"/>
                    <g id="prefix__Group_12615" data-name="Group 12615" transform="translate(0 89.294)">
                        <path id="prefix__Path_10123" d="M335.16 403.32a6.527 6.527 0 0 1-13.054 0h13.054z" data-name="Path 10123" transform="translate(-195.347 -396.793)"/>
                        <path id="prefix__Path_10124" d="M328.633 399.034a6.54 6.54 0 0 1 6.527 6.527h-13.054a6.541 6.541 0 0 1 6.527-6.527z" data-name="Path 10124" transform="translate(-195.347 -399.034)"/>
                        <path id="prefix__Path_10125" d="M289.948 399.034a6.542 6.542 0 0 1 6.527 6.527h-13.054a6.54 6.54 0 0 1 6.527-6.527z" data-name="Path 10125" transform="translate(-215.575 -399.034)"/>
                        <path id="prefix__Path_10126" d="M245.4 399.034a6.54 6.54 0 0 1 6.527 6.527H238.87a6.541 6.541 0 0 1 6.53-6.527z" data-name="Path 10126" transform="translate(-238.87 -399.034)"/>
                    </g>
                </g>
                <path id="prefix__Rectangle_3550" fill="#ff6b6b" d="M1.806 0h2.8v24.222H0V1.806A1.806 1.806 0 0 1 1.806 0z" data-name="Rectangle 3550" transform="rotate(180 42.3 17.718)"/>
                <path id="prefix__Rectangle_3551" d="M1.806 0h2.8v14.208H0V1.806A1.806 1.806 0 0 1 1.806 0z" class="prefix__cls-7" data-name="Rectangle 3551" transform="rotate(180 39.995 24.822)"/>
            </g>
            <g id="prefix__Group_12618" data-name="Group 12618">
                <path id="prefix__Path_10127" d="M321.061 214.241h-3.452a13.338 13.338 0 0 0-9.477 3.953 13.347 13.347 0 0 0-3.556 6.55l-25.364 116.6 4.691 37.524h-43.319a13.75 13.75 0 0 0-13.75 13.75 13.749 13.749 0 0 0 13.75 13.749h64.623z" class="prefix__cls-7" data-name="Path 10127" transform="translate(-226.834 -214.241)"/>
                <path id="prefix__Path_10128" d="M375.177 406.365h-91.433a6.386 6.386 0 0 1-6.277-5.21L268.5 350.99a36.421 36.421 0 0 1 .155-14.2l24.687-117.478a6.386 6.386 0 0 1 6.25-5.074h76.115a6.388 6.388 0 0 1 6.36 6.975l-10.548 114.325a6.336 6.336 0 0 0 .061 1.637l9.9 61.753a6.387 6.387 0 0 1-6.303 7.437z" class="prefix__cls-1" data-name="Path 10128" transform="translate(-205.371 -214.241)"/>
            </g>
        </g>
    </g>
</svg>
