<svg width="543" height="303" viewBox="0 0 543 303" fill="none" xmlns="http://www.w3.org/2000/svg">
<path d="M480.931 302.718L28.6784 302.199C-4.26074 280.688 -1.97565 188.884 36.1218 165.85C76.2748 141.575 39.9215 108.827 72.5493 78.7019C98.987 54.2952 113.539 69.984 135.823 47.3175C176.167 6.27279 234.341 -9.64822 356.17 6.49165C424.069 15.4855 427.296 48.1557 451.974 50.7374C501.763 55.9547 515.349 114.644 497.578 174.02C494.144 185.488 489.2 200.874 504.628 237.209C518.803 270.58 497.811 299.944 480.931 302.718Z" fill="#F8F8F8"/>
<path d="M45.8684 76.6409H337.719C342.183 76.6409 345.803 80.2603 345.803 84.725V293.755C345.803 298.22 342.183 301.839 337.719 301.839H45.8684C41.4037 301.839 37.7843 298.22 37.7843 293.755V84.725C37.7843 80.2603 41.4037 76.6409 45.8684 76.6409Z" fill="#2C374A"/>
<path d="M328.024 85.4321H59.5761V293.047H328.024C328.708 293.047 329.363 292.776 329.846 292.293C330.329 291.81 330.601 291.154 330.601 290.471V88.0083C330.601 87.325 330.329 86.6698 329.846 86.1867C329.363 85.7035 328.708 85.4321 328.024 85.4321Z" fill="white"/>
<mask id="mask0_3958_20178" style="mask-type:luminance" maskUnits="userSpaceOnUse" x="59" y="45" width="272" height="249">
<path d="M59.5752 293.039H328.024C328.707 293.038 329.362 292.766 329.845 292.282C330.328 291.798 330.6 291.142 330.6 290.459V88.0043C330.6 87.321 330.328 86.6658 329.845 86.1827C329.362 85.6995 328.707 85.4281 328.024 85.4281L232.216 45.7886H59.5752V293.039Z" fill="white"/>
</mask>
<g mask="url(#mask0_3958_20178)">
<path d="M171.669 281.324C171.403 279.423 171.996 276.151 173.481 271.028C170.541 271.028 168.067 269.731 165.061 269.776C164.243 274.593 162.972 282.497 162.972 282.497L162.833 288.75L183.765 288.905C183.765 288.905 183.589 288.995 177.418 285.086C176.96 284.796 171.923 283.164 171.669 281.324Z" fill="#F7A491"/>
<path d="M162.734 290.357H184.341C185.138 290.283 185.335 289.629 185.057 289.224C184.484 288.406 180.272 286.403 177.439 285.082C172.47 285.605 163.736 283.552 162.951 282.399C161.597 286.223 162.288 290.254 162.734 290.357Z" fill="#1F0B38"/>
<path d="M145.597 281.324C145.331 279.423 144.881 277.039 145.54 270.692C142.599 270.692 139.815 270.144 136.793 270.189C136.793 275.145 136.899 282.493 136.899 282.493L136.76 288.746L157.692 288.901C157.692 288.901 157.517 288.991 151.346 285.082C150.888 284.796 145.85 283.164 145.597 281.324Z" fill="#F7A491"/>
<path d="M136.655 290.357H158.261C159.079 290.283 159.255 289.629 158.977 289.224C158.404 288.406 154.193 286.403 151.359 285.082C146.391 285.605 137.656 283.552 136.871 282.399C135.518 286.223 136.217 290.254 136.655 290.357Z" fill="#1F0B38"/>
<path d="M160.804 100.055L168.676 91.7251C168.676 91.7251 177.103 96.3703 186.929 100.811C189.628 96.0963 194.036 80.5905 194.29 79.8504C194.543 79.1102 189.125 69.7953 190.335 69.5623C191.546 69.3292 193.112 74.5346 194.388 74.0071C195.664 73.4796 198.947 61.3964 199.704 62.0548C201.143 63.2815 197.978 69.5705 198.734 70.0285C199.491 70.4864 201.413 63.077 202.877 63.3837C204.341 63.6904 200.423 70.1389 200.832 70.7441C201.241 71.3492 205.375 65.3219 206.226 66.7204C206.688 67.4809 202.431 71.983 203.306 72.4859C204.181 72.9889 208.017 70.1552 208.475 71.0711C208.933 71.9871 204.897 72.948 203.776 75.2706C202.656 77.5932 200.615 78.501 199.941 82.8927C199.266 87.2844 197.418 110.768 192.646 112.653C188.479 114.313 160.804 100.055 160.804 100.055Z" fill="#F7A491"/>
<path d="M165.891 144.985L159.508 148.555L146.529 168.457L169.739 223.25C169.739 223.25 167.126 231.49 166.272 235.604C165.38 239.913 163.197 276.879 163.197 276.879L173.096 277.042C173.096 277.042 182.501 237.693 184.096 224.919C186.026 209.409 174.253 172.468 174.253 172.468C172.058 164.932 167.322 149.43 167.322 149.43C167.322 149.43 166.165 145.648 165.891 144.985Z" fill="black"/>
<path d="M143.67 137.51C143.67 137.51 143.49 141.497 140.849 146.838C139.242 150.109 137.3 153.339 135.308 157.326C131.542 164.875 129.494 175.592 130.908 182.482C130.908 182.482 138.698 212.333 138.387 223.222C138.273 227.241 136.899 234.487 136.02 239.386C135.243 243.716 134.977 276.372 134.977 276.372L146.017 276.036L154.486 223.357L158.064 176.529L165.874 144.985L143.67 137.51Z" fill="#2C374A"/>
<path d="M168.251 67.9145C167.228 63.0771 166.173 58.2233 161.385 54.7394C157.505 51.9221 153.342 51.1165 148.922 52.7236C136.409 57.2747 143.14 67.2357 127.609 77.8551C122.784 81.1509 120.952 82.3039 117.489 86.6997C112.639 92.8538 109.989 101.11 112.427 107.906C117.468 121.964 133.081 126.024 141.251 123.035C156.454 117.491 169.122 98.1492 169.964 92.8702C170.864 87.2313 168.905 71.0263 168.251 67.9145Z" fill="black"/>
<path d="M99.8529 172.411C100.867 171.63 102.036 172.051 105.504 170.616C106.549 170.258 107.621 169.984 108.71 169.798C108.781 169.785 108.848 169.752 108.903 169.704C108.957 169.655 108.998 169.594 109.021 169.524C110.21 165.652 115.473 147.742 116.185 142.536C116.908 137.221 121.263 114.731 121.909 111.32C121.922 111.267 121.946 111.216 121.979 111.171C122.012 111.127 122.053 111.09 122.101 111.062C122.149 111.034 122.202 111.016 122.257 111.009C122.312 111.002 122.367 111.007 122.421 111.022L132.193 114.179C132.288 114.212 132.367 114.28 132.416 114.368C132.464 114.456 132.478 114.559 132.455 114.657C131.735 117.327 127.25 134.105 125.79 142.626C124.621 149.422 113.56 170.923 113.302 172.317V172.358C113.263 172.56 113.153 172.742 112.992 172.87C112.83 172.999 112.629 173.065 112.423 173.057L101.407 172.612C101.01 172.587 99.5503 172.64 99.8529 172.411Z" fill="#F48C7F"/>
<path d="M169.408 105.289C172.933 106.924 179.312 109.378 179.312 109.378L182.943 97.863C162.424 86.156 164.035 88.0492 148.636 88.2741C136.332 88.45 131.176 86.0947 120.585 114.78C120.585 114.78 128.648 118.411 131.535 119.58C132.762 116.035 135.023 108.949 136.332 112.993C138.296 119.053 139.766 125.263 140.728 131.561C141.345 135.315 142.686 140.12 141.979 143.943C141.979 143.943 150.357 145.673 156.757 145.955H156.814C159.863 145.912 162.902 145.591 165.892 144.994C165.892 144.994 167.147 118.386 167.818 117.274C168.562 116.047 171.694 112.073 169.044 106.131C168.55 105.072 168.685 104.941 169.408 105.289Z" fill="#1FC9AA"/>
<path d="M150.556 76.4239C150.556 76.4239 149.579 84.3608 149.003 87.1169C148.397 89.9997 147.485 99.0775 153.447 100.55C159.409 102.022 157.565 90.6744 157.663 87.7425C157.761 84.8106 159.45 74.592 159.45 74.592L150.556 76.4239Z" fill="#F7A491"/>
<path d="M150.238 78.9592L150.418 79.0696C153.71 80.9628 156.581 80.6643 158.732 79.1923C159.116 76.6529 159.455 74.592 159.455 74.592L150.561 76.4239C150.561 76.4239 150.431 77.483 150.238 78.9592Z" fill="#F47458"/>
<path d="M152.356 55.7618C150.047 56.5444 148.094 58.1266 146.848 60.223C144.836 63.7028 143.831 73.6925 151.244 77.9574C158.658 82.2223 163.92 75.3895 163.695 68.9982C163.47 62.607 161.696 54.1589 152.356 55.7618Z" fill="#F7A491"/>
<path d="M165.331 66.2585C165.413 67.9187 164.706 69.3049 163.749 69.354C162.792 69.4031 161.954 68.0946 161.868 66.4345C161.782 64.7743 162.498 63.3881 163.45 63.339C164.403 63.2899 165.25 64.5943 165.331 66.2585Z" fill="#F7A491"/>
<path d="M153.42 55.4958C153.42 55.4958 149.425 65.9476 145.512 67.0598C141.598 68.172 141.913 73.3119 141.913 73.3119C141.913 73.3119 141.414 61.4332 144.988 58.5217C148.562 55.6103 153.42 55.4958 153.42 55.4958Z" fill="black"/>
<path d="M147.174 69.1043C147.776 70.74 147.379 72.3755 146.291 72.809C145.203 73.2424 143.838 72.2324 143.22 70.5968C142.603 68.9612 143.016 67.3051 144.104 66.8962C145.191 66.4872 146.569 67.4728 147.174 69.1043Z" fill="#F7A491"/>
<path d="M151.208 104.191L151.628 109.622L140.469 110.485L140.05 105.054L151.208 104.191Z" fill="#F1F0F8"/>
<path d="M228.307 142.025L229.349 167.672H241.392L231.848 143.42L228.307 142.025Z" fill="#2C374A"/>
<path d="M200.44 116.988H254.583C255.161 116.988 255.63 117.456 255.63 118.035V159.559C255.63 160.137 255.161 160.606 254.583 160.606H200.44C199.861 160.606 199.393 160.137 199.393 159.559V118.035C199.393 117.456 199.861 116.988 200.44 116.988Z" fill="#2C374A"/>
<path d="M238.588 106.041H257.198C257.455 106.041 257.664 106.25 257.664 106.507V114.816C257.664 115.074 257.455 115.282 257.198 115.282H238.588C238.331 115.282 238.122 115.074 238.122 114.816V106.507C238.122 106.25 238.331 106.041 238.588 106.041Z" fill="#2C374A"/>
<path d="M246.712 112.473H248.282V118.231H246.712V112.473Z" fill="#1F0B38"/>
<path d="M159.403 72.2288L153.625 73.0466C153.625 73.0466 154.07 75.222 156.622 74.9317C159.738 74.5718 159.403 72.2288 159.403 72.2288Z" fill="#F1F0F8"/>
<path d="M105 295.46H280.315L292.677 172.133H105V295.46Z" fill="#E0E0E0"/>
<path d="M17.4936 295.46H105V172.133H11.7239L17.4936 295.46Z" fill="#CBCBCB"/>
<path d="M1.45309 167.672H296.415V172.133H1.45309V167.672Z" fill="black"/>
<path d="M225.981 235.556C226.019 240.263 224.657 244.875 222.066 248.805C219.475 252.735 215.773 255.805 211.431 257.625C207.089 259.444 202.305 259.93 197.686 259.022C193.067 258.113 188.823 255.85 185.495 252.521C182.166 249.193 179.903 244.949 178.994 240.33C178.085 235.711 178.572 230.927 180.391 226.585C182.21 222.243 185.281 218.541 189.211 215.95C193.141 213.359 197.753 211.996 202.46 212.035C208.683 212.087 214.635 214.581 219.035 218.981C223.435 223.381 225.929 229.334 225.981 235.556Z" fill="#F1F0F8"/>
<path d="M223.761 235.355C223.842 239.643 222.639 243.857 220.306 247.456C217.974 251.055 214.619 253.875 210.673 255.553C206.726 257.232 202.368 257.692 198.158 256.875C193.948 256.057 190.078 254 187.046 250.967C184.013 247.935 181.957 244.065 181.141 239.854C180.324 235.644 180.785 231.286 182.464 227.339C184.143 223.393 186.964 220.039 190.563 217.707C194.163 215.376 198.377 214.174 202.665 214.255C208.227 214.362 213.532 216.62 217.465 220.554C221.399 224.488 223.655 229.793 223.761 235.355Z" fill="#176CFF"/>
<path d="M203.9 225.576L200.826 225.544L200.736 234.231L192.048 234.252L192.057 237.323L200.704 237.302L200.617 245.952L203.688 245.984L203.778 237.297L212.466 237.276L212.46 234.202L203.81 234.223L203.9 225.576Z" fill="white"/>
</g>
<path d="M351.074 57.737L352.407 65.2159L346.891 61.5358L330.167 53.9014L342.867 54.4984C342.867 54.4984 349.381 55.7824 349.745 56.0809C350.224 56.6033 350.668 57.1566 351.074 57.737Z" fill="#CBCBCB"/>
<path d="M356.477 52.9485L330.167 53.9176L351.075 57.7409L356.477 52.9485Z" fill="#E0E0E0"/>
<path d="M342.953 65.682L349.602 59.8428L330.166 53.9177L342.953 65.682Z" fill="#E0E0E0"/>
<path d="M388.926 83.1587C388.823 82.5573 388.687 81.9621 388.517 81.3759C388.358 80.8362 388.17 80.2922 387.957 79.7607L387.38 79.9938C387.589 80.5049 387.769 81.0324 387.924 81.5517C388.092 82.1162 388.229 82.6895 388.333 83.2691C388.362 83.4368 388.39 83.6044 388.415 83.7762L389.028 83.6862C388.977 83.5063 388.942 83.3305 388.926 83.1587ZM386.027 76.1827C385.266 75.0653 384.411 74.0147 383.471 73.0423L383.026 73.4717C383.941 74.4176 384.773 75.441 385.512 76.5303L386.027 76.1827ZM366.33 75.8147L366.436 75.7412L366.068 75.2423L365.982 75.3036L365.921 75.3241C365.344 75.4591 364.74 75.4119 364.191 75.1891C363.742 74.936 363.376 74.5564 363.14 74.0973L362.592 74.3917C362.889 74.9552 363.342 75.4209 363.897 75.733C364.59 76.0343 365.363 76.1003 366.097 75.9211C366.18 75.8988 366.259 75.8628 366.33 75.8147ZM380.462 70.3435C379.398 69.5155 378.282 68.7562 377.121 68.07L376.802 68.6056C377.938 69.2785 379.03 70.0215 380.073 70.8302L380.462 70.3435ZM368.603 70.8751C368.576 70.261 368.473 69.6526 368.297 69.0637C368.199 68.7292 368.08 68.4015 367.941 68.0823L367.373 68.3276C367.501 68.6247 367.612 68.9292 367.704 69.2395C367.864 69.7793 367.958 70.3369 367.982 70.8997C367.998 71.2881 367.974 71.6772 367.912 72.061L368.526 72.1632C368.59 71.7371 368.612 71.3056 368.591 70.8751H368.603ZM365.488 67.8492L365.565 67.8083L365.279 67.2604L365.193 67.3053C363.968 67.9533 362.994 68.9906 362.425 70.2535L362.997 70.4948C363.508 69.3631 364.379 68.4326 365.475 67.8492H365.488ZM373.302 66.6633C372.445 66.423 371.567 66.2615 370.681 66.1808C370.165 66.1808 369.699 66.1809 369.245 66.23L369.29 66.8474C369.728 66.8147 370.182 66.7983 370.677 66.8024C371.507 66.8769 372.329 67.0317 373.13 67.2645L373.302 66.6633ZM365.672 64.6802C364.738 63.6807 363.662 62.825 362.478 62.1409L362.167 62.6765C363.299 63.3308 364.327 64.1494 365.218 65.1055L365.672 64.6802Z" fill="#BDBDBD"/>
<path d="M358.533 61.2494C357.885 61.1 357.226 61.0056 356.562 60.9673L356.599 60.3457C357.297 60.3875 357.99 60.4874 358.672 60.6442L358.533 61.2494Z" fill="#BDBDBD"/>
<path d="M389.02 126.405L388.341 127.014C388.263 127.091 388.17 127.152 388.068 127.193C387.966 127.233 387.856 127.253 387.747 127.25C387.637 127.247 387.528 127.223 387.428 127.177C387.328 127.132 387.238 127.066 387.164 126.985L375.089 113.667C375.017 113.585 374.963 113.489 374.929 113.386C374.895 113.283 374.882 113.173 374.891 113.065C374.899 112.956 374.93 112.85 374.98 112.754C375.03 112.657 375.099 112.572 375.183 112.502L375.866 111.893C375.944 111.815 376.037 111.754 376.139 111.714C376.241 111.673 376.351 111.654 376.461 111.656C376.57 111.659 376.679 111.684 376.779 111.729C376.879 111.775 376.969 111.84 377.043 111.921L389.118 125.239C389.19 125.322 389.244 125.418 389.277 125.521C389.311 125.625 389.324 125.734 389.314 125.843C389.305 125.951 389.275 126.057 389.224 126.153C389.174 126.25 389.104 126.335 389.02 126.405Z" fill="#1F0B38"/>
<path d="M429.957 115.573C428.346 114.256 415.862 119.752 416.021 121.666C416.181 123.579 407.311 142.111 407.311 142.111L391.99 129.844C391.851 129.402 390.399 124.634 390.33 123.78C390.26 122.925 387.667 121.326 386.461 121.551C385.255 121.776 387.492 123.293 387.639 123.571C388.048 124.328 386.494 124.614 386.494 124.614C386.494 124.614 382.069 122.161 381.971 120.742C381.873 119.323 380.965 116.301 380.009 116.931C379.514 117.254 379.518 119.384 379.673 120.398C379.391 119.249 378.986 117.945 378.594 117.826C377.878 117.589 377.522 118.505 377.653 118.951C377.784 119.396 378.937 124.266 379.289 124.827C379.641 125.387 386.784 131.144 387.815 132.395C387.815 132.395 407.634 155.131 409.045 155.728C410.272 156.247 414.7 148.413 418.859 143.211C423.018 138.01 435.003 119.699 429.957 115.573Z" fill="#F7A491"/>
<path d="M469.951 282.755C469.951 282.755 472.674 285.421 472.736 286.403C472.797 287.384 472.977 297.852 471.865 298.842C470.753 299.831 467.485 300.514 468.536 301.614C469.33 302.432 475.435 302.268 479.483 302.048C480.66 301.982 482.145 292.524 482.611 291.134C483.29 289.118 484.942 284.571 484.324 283.164C484.026 282.477 482.586 281.071 480.554 279.754C478.42 278.372 476.379 275.293 476.379 275.293L469.951 282.755Z" fill="#F48C7F"/>
<path d="M441.737 288.95C441.737 288.95 444.191 295.856 444.191 295.877C444.371 296.969 445.082 299.676 445.082 300.669C445.082 304.407 428.284 297.496 432.05 295.84C432.88 295.198 433.426 294.258 433.571 293.219C433.743 291.26 432.156 288.799 432.156 288.799L441.737 288.95Z" fill="#F7A491"/>
<path d="M415.379 160.316C415.379 160.316 414.152 172.702 414.152 172.886C414.152 192.922 410.194 232.055 410.946 235.821C412.782 245.009 432.545 291.878 432.545 291.878L443.226 290.594L429.323 234.484L434.446 211.895L441.7 167.251L415.379 160.316Z" fill="black"/>
<path d="M451.228 171.27L453.272 183.01L458.756 231.318L479.639 278.539C479.639 278.539 476.703 285.409 472.368 286.374L439.132 237.894L418.482 175.862L419.206 162.082L451.228 171.27Z" fill="#2C374A"/>
<path d="M411.119 130.825L425.933 132.342C425.933 132.342 426.612 120.157 426.612 114.35C426.612 107.301 426.011 98.2189 425.165 98.4029C422.781 98.9549 419.575 100.272 417.665 102.901C411.057 112.02 411.119 130.825 411.119 130.825Z" fill="#1D53B1"/>
<path d="M418.394 113.119C418.083 115.27 412.391 173.716 412.391 173.716C439.379 186.801 454.239 176.046 454.239 176.046C454.239 176.046 453.36 135.004 454.415 129.431C455.114 125.751 455.989 101.175 453.597 100.488C450.203 99.4397 446.721 98.6979 443.194 98.2719C439.923 97.9284 427.247 97.7322 424.961 98.4968C421.444 102.659 419.169 107.726 418.394 113.119Z" fill="#2F7BFF"/>
<path d="M480.424 279.688C480.424 279.688 474.148 297.423 471.69 298.277C471.04 298.506 467.908 299.095 467.319 300.473C467.139 300.882 467.319 302.289 467.319 302.289H480.404C480.404 302.289 482.06 294.474 482.714 291.04C482.714 291.04 486.178 282.653 485.793 281.888C485.409 281.123 480.424 279.688 480.424 279.688Z" fill="#1F0B38"/>
<path d="M446.027 301.921L444.105 295.82C444.105 295.82 440.061 297.537 438.041 297.251C436.031 296.874 434.041 296.397 432.079 295.82C424.016 298.482 417.408 299.778 418.61 301.921H446.007H446.027Z" fill="#1F0B38"/>
<path d="M409.041 155.76C408.898 155.67 408.761 155.569 408.633 155.458C409.111 149.733 409.042 144.18 407.234 142.307C407.275 142.217 407.668 141.379 408.077 140.516C410.154 142.127 411.139 146.404 410.751 153.352C410.69 153.837 410.599 154.318 410.477 154.791C409.88 155.453 409.336 155.883 409.041 155.76Z" fill="#F7A491"/>
<path d="M480.956 174.321C480.97 174.196 480.97 174.07 480.956 173.945C480.547 169.896 477.21 135.916 476.646 134.46C476.139 133.156 461.107 111.598 461.107 111.598L453.747 121.694L468.19 141.028C468.517 142.254 473.726 165.202 473.726 165.202C473.726 165.202 474.798 169.385 475.276 171.888C475.055 172.493 474.842 173.061 474.65 173.523C474.216 174.409 473.696 175.25 473.096 176.034C472.364 177.054 471.746 178.151 471.252 179.305C471.097 179.894 470.823 181.121 470.668 181.861C470.512 182.601 470.295 183.464 470.259 183.865C470.159 184.246 470.002 184.61 469.792 184.944C469.729 185.057 469.7 185.187 469.712 185.317C469.723 185.446 469.772 185.569 469.855 185.67C469.937 185.771 470.047 185.844 470.172 185.881C470.297 185.918 470.429 185.916 470.553 185.877C471.081 185.701 471.485 185.018 471.739 184.597C472.45 183.395 472.831 181.207 473.006 181.325C473.182 181.444 473.804 185.157 473.902 185.578C474 185.999 474.748 190.309 475.17 191.098C475.591 191.888 476.151 191.757 476.298 191.262C476.425 190.853 475.832 184.801 475.832 184.801C475.832 184.801 475.758 184.032 476.098 184.274C476.437 184.515 476.981 189.998 477.214 190.792C477.447 191.585 477.983 192.018 478.441 191.376C478.989 190.591 478.032 184.781 478.032 184.781C478.032 184.781 477.926 184.049 478.236 184.118C478.547 184.188 478.94 188.853 479.181 189.258C479.237 189.371 479.325 189.464 479.435 189.524C479.545 189.585 479.671 189.61 479.796 189.596C479.921 189.583 480.039 189.532 480.134 189.449C480.228 189.367 480.295 189.257 480.326 189.136C480.669 188.342 479.778 183.161 479.778 183.161C479.778 183.161 479.823 182.753 480.015 182.888C480.207 183.022 480.833 186.977 481.242 187.345C481.28 187.389 481.328 187.424 481.381 187.449C481.434 187.473 481.492 187.485 481.551 187.485C481.609 187.485 481.667 187.473 481.72 187.449C481.774 187.424 481.821 187.389 481.859 187.345C482.595 186.842 481.45 183.08 481.475 181.211C481.499 179.342 480.624 177.236 480.882 175.012C480.882 174.865 480.927 174.533 480.956 174.321Z" fill="#F8A492"/>
<path d="M472.855 125.252L460.024 133.896C460.024 133.896 452.79 123.101 448.91 119.253C444.048 114.44 450.68 99.6869 453.817 100.521C460.825 102.39 472.855 125.252 472.855 125.252Z" fill="#2F7BFF"/>
<path d="M442.257 85.5998L444.179 98.276C444.179 98.276 437.17 113.406 432.983 112.081C429.474 110.981 431.633 97.6095 431.633 97.6095C431.633 97.6095 433.547 90.4249 432.975 86.8347C432.402 83.2445 442.257 85.5998 442.257 85.5998Z" fill="#F7A491"/>
<path d="M432.974 86.851C432.398 83.2567 442.257 85.5998 442.257 85.5998L442.416 86.6548C442.168 87.3022 441.806 87.9003 441.349 88.4213C439.071 90.7663 435.993 92.1652 432.729 92.3386C433.023 90.4003 433.207 88.3231 432.974 86.851Z" fill="#F47458"/>
<path d="M443.876 67.6447C444.154 67.5425 446.108 82.0996 442.399 86.1069C438.691 90.1142 431.461 91.4227 428.869 88.2701C426.006 84.778 426.145 69.1332 431.911 65.0114C437.676 60.8896 443.876 67.6447 443.876 67.6447Z" fill="#F7A491"/>
<path d="M434.108 57.2257C437.34 57.9206 440.278 59.6007 442.515 62.0345C444.56 62.2758 447.291 63.3961 450.133 68.119C453.625 73.9214 451.045 80.3536 446.98 83.5063C442.916 86.659 442.969 90.3064 442.969 90.3064L442.327 88.4214C441.844 86.9941 441.67 85.4803 441.816 83.9806C441.895 83.0617 442.118 82.1609 442.474 81.3104C443.452 79.2045 440.373 77.8061 439.51 76.0519C438.847 74.7025 438.815 71.6152 437.768 69.3826L436.517 67.6814C436.517 67.6814 433.63 65.4284 430.792 66.0458C427.954 66.6633 428.392 56.0522 434.108 57.2257Z" fill="black"/>
<path d="M439.701 78.6443C439.672 80.419 440.474 81.8706 441.496 81.891C442.518 81.9114 443.373 80.4804 443.402 78.7057C443.43 76.931 442.625 75.4752 441.602 75.4589C440.58 75.4425 439.73 76.8655 439.701 78.6443Z" fill="#F7A491"/>
<path d="M433.674 82.7456L428.084 82.4553C428.084 82.4553 428.104 84.5939 430.558 84.7943C433.551 85.0355 433.674 82.7456 433.674 82.7456Z" fill="#F1F0F8"/>
<path d="M414.181 7.25317H353.532C353.033 7.25317 352.54 7.35133 352.08 7.54209C351.62 7.73284 351.202 8.01237 350.85 8.36479C350.498 8.71721 350.219 9.13554 350.029 9.59591C349.838 10.0563 349.74 10.5496 349.741 11.0478V36.073C349.74 36.5712 349.838 37.0645 350.029 37.5249C350.219 37.9852 350.498 38.4036 350.85 38.756C351.202 39.1084 351.62 39.3879 352.08 39.5787C352.54 39.7694 353.033 39.8677 353.532 39.8677H401.28L410.554 46.2466L408.387 39.8595H414.181C414.679 39.8595 415.173 39.7613 415.633 39.5706C416.093 39.3799 416.512 39.1005 416.864 38.7481C417.217 38.3957 417.496 37.9774 417.687 37.517C417.877 37.0566 417.976 36.5632 417.976 36.0648V11.0397C417.973 10.0347 417.573 9.07157 416.861 8.3617C416.15 7.65183 415.186 7.25317 414.181 7.25317Z" fill="#1FC9AA"/>
<path d="M375.785 17.0217L357.809 17.0217C357.654 17.0217 357.527 16.8954 357.527 16.7396V15.6518C357.527 15.496 357.654 15.3697 357.809 15.3697L375.785 15.3697C375.941 15.3697 376.067 15.496 376.067 15.6518V16.7396C376.067 16.8954 375.941 17.0217 375.785 17.0217Z" fill="#F1F0F8"/>
<path d="M369.77 22.4194H357.809C357.654 22.4194 357.527 22.293 357.527 22.1372V21.0496C357.527 20.8937 357.654 20.7674 357.809 20.7674H369.77C369.926 20.7674 370.052 20.8937 370.052 21.0496V22.1372C370.052 22.293 369.926 22.4194 369.77 22.4194Z" fill="#F1F0F8"/>
<path d="M386.694 22.4194L371.847 22.4194C371.691 22.4194 371.564 22.293 371.564 22.1372V21.0496C371.564 20.8937 371.691 20.7674 371.847 20.7674H386.694C386.85 20.7674 386.976 20.8937 386.976 21.0496V22.1372C386.976 22.293 386.85 22.4194 386.694 22.4194Z" fill="#F1F0F8"/>
<path d="M410.186 22.4194L389.209 22.4194C389.053 22.4194 388.927 22.293 388.927 22.1372V21.0496C388.927 20.8937 389.053 20.7674 389.209 20.7674L410.186 20.7674C410.342 20.7674 410.468 20.8937 410.468 21.0496V22.1372C410.468 22.293 410.342 22.4194 410.186 22.4194Z" fill="#F1F0F8"/>
<path d="M410.276 17.0217L379.743 17.0217C379.587 17.0217 379.461 16.8954 379.461 16.7396V15.6518C379.461 15.496 379.587 15.3697 379.743 15.3697L410.276 15.3697C410.432 15.3697 410.558 15.496 410.558 15.6518V16.7396C410.558 16.8954 410.432 17.0217 410.276 17.0217Z" fill="#F1F0F8"/>
<path d="M410.277 32.9897L357.81 32.9897C357.654 32.9897 357.527 32.8634 357.527 32.7076V31.6199C357.527 31.464 357.654 31.3377 357.81 31.3377L410.277 31.3377C410.432 31.3377 410.559 31.464 410.559 31.6199V32.7076C410.559 32.8634 410.432 32.9897 410.277 32.9897Z" fill="#F1F0F8"/>
<path d="M384.642 27.7678L357.809 27.7678C357.654 27.7678 357.527 27.6415 357.527 27.4857V26.3979C357.527 26.2421 357.654 26.1158 357.809 26.1158L384.642 26.1158C384.798 26.1158 384.924 26.2421 384.924 26.3979V27.4857C384.924 27.6415 384.798 27.7678 384.642 27.7678Z" fill="#F1F0F8"/>
<path d="M410.276 27.7678L386.563 27.7678C386.408 27.7678 386.281 27.6415 386.281 27.4857V26.3979C386.281 26.2421 386.408 26.1158 386.563 26.1158L410.276 26.1158C410.432 26.1158 410.558 26.2421 410.558 26.3979V27.4857C410.558 27.6415 410.432 27.7678 410.276 27.7678Z" fill="#F1F0F8"/>
<path d="M213.677 14.5439H264.447C264.864 14.5439 265.277 14.6262 265.662 14.7859C266.047 14.9457 266.398 15.1797 266.692 15.4748C266.987 15.7699 267.221 16.1202 267.38 16.5056C267.539 16.8911 267.621 17.3041 267.62 17.7212V38.6695C267.621 39.0866 267.539 39.4996 267.38 39.8851C267.221 40.2705 266.987 40.6209 266.692 40.9159C266.398 41.211 266.047 41.4452 265.662 41.6049C265.277 41.7646 264.864 41.8468 264.447 41.8468H224.476L214.9 47.1871L218.531 41.8386H213.677C213.26 41.8386 212.847 41.7564 212.462 41.5967C212.077 41.437 211.726 41.2028 211.432 40.9078C211.137 40.6127 210.904 40.2625 210.744 39.877C210.585 39.4915 210.503 39.0784 210.504 38.6614V17.7212C210.503 17.3041 210.585 16.8911 210.744 16.5056C210.904 16.1202 211.137 15.7699 211.432 15.4748C211.726 15.1797 212.077 14.9457 212.462 14.7859C212.847 14.6262 213.26 14.5439 213.677 14.5439Z" fill="#176CFF"/>
<path d="M245.821 21.3398H260.869C261 21.3398 261.106 21.446 261.106 21.577V22.4848C261.106 22.6158 261 22.7219 260.869 22.7219H245.821C245.69 22.7219 245.584 22.6158 245.584 22.4848V21.577C245.584 21.446 245.69 21.3398 245.821 21.3398Z" fill="#F1F0F8"/>
<path d="M250.859 25.8584H260.869C261 25.8584 261.106 25.9646 261.106 26.0956V27.0033C261.106 27.1343 261 27.2405 260.869 27.2405H250.859C250.728 27.2405 250.622 27.1343 250.622 27.0033V26.0956C250.622 25.9646 250.728 25.8584 250.859 25.8584Z" fill="#F1F0F8"/>
<path d="M236.694 25.8584H249.121C249.252 25.8584 249.358 25.9646 249.358 26.0956V27.0033C249.358 27.1343 249.252 27.2405 249.121 27.2405H236.694C236.564 27.2405 236.457 27.1343 236.457 27.0033V26.0956C236.457 25.9646 236.564 25.8584 236.694 25.8584Z" fill="#F1F0F8"/>
<path d="M217.026 25.8584H234.584C234.715 25.8584 234.821 25.9646 234.821 26.0956V27.0033C234.821 27.1343 234.715 27.2405 234.584 27.2405H217.026C216.895 27.2405 216.788 27.1343 216.788 27.0033V26.0956C216.788 25.9646 216.895 25.8584 217.026 25.8584Z" fill="#F1F0F8"/>
<path d="M216.953 21.3398H242.51C242.641 21.3398 242.747 21.446 242.747 21.577V22.4848C242.747 22.6158 242.641 22.7219 242.51 22.7219H216.953C216.822 22.7219 216.716 22.6158 216.716 22.4848V21.577C216.716 21.446 216.822 21.3398 216.953 21.3398Z" fill="#F1F0F8"/>
<path d="M216.948 34.707H260.869C261 34.707 261.106 34.8132 261.106 34.9442V35.852C261.106 35.983 261 36.0891 260.869 36.0891H216.948C216.817 36.0891 216.711 35.983 216.711 35.852V34.9442C216.711 34.8132 216.817 34.707 216.948 34.707Z" fill="#F1F0F8"/>
<path d="M238.408 30.3318H260.869C261 30.3318 261.106 30.438 261.106 30.569V31.4767C261.106 31.6077 261 31.7139 260.869 31.7139H238.408C238.277 31.7139 238.171 31.6077 238.171 31.4767V30.569C238.171 30.438 238.277 30.3318 238.408 30.3318Z" fill="#F1F0F8"/>
<path d="M216.953 30.3318H236.801C236.932 30.3318 237.038 30.438 237.038 30.569V31.4767C237.038 31.6077 236.932 31.7139 236.801 31.7139H216.953C216.822 31.7139 216.715 31.6077 216.715 31.4767V30.569C216.715 30.438 216.822 30.3318 216.953 30.3318Z" fill="#F1F0F8"/>
<path d="M3.10144 302.554H539.953C540.659 302.554 541.337 302.511 541.837 302.435C542.337 302.358 542.618 302.254 542.619 302.146C542.619 302.037 542.338 301.933 541.838 301.856C541.338 301.78 540.66 301.736 539.953 301.736H3.10144C2.75153 301.736 2.40497 301.747 2.08173 301.768C1.75854 301.788 1.46484 301.818 1.21759 301.856C0.970398 301.894 0.774353 301.939 0.640808 301.989C0.507263 302.039 0.438782 302.092 0.439331 302.146C0.439331 302.254 0.719788 302.358 1.21899 302.435C1.71826 302.511 2.39545 302.554 3.10144 302.554Z" fill="black"/>
</svg>
